%
M48
M72
T01C0.0120
T02C0.0197
T03C0.0236
T04C0.0354
T05C0.0472
%
T01
X55706Y23640
X56186Y23760
X56396Y24180
X56816Y24450
X57146Y24180
X58326Y23160
X56376Y21630
X57006Y21380
X57006Y20720
X56426Y29310
X57446Y30090
X57446Y30900
X57446Y31680
X57446Y32610
X57146Y33630
X57056Y35700
T02
X54136Y37030
X53476Y36000
X52946Y35490
X53366Y33600
X52806Y32760
X50986Y31290
X52876Y30800
X52876Y28560
X52386Y26500
X51586Y25800
X51565Y26329
X50580Y26329
X50986Y25620
X51056Y23310
X52656Y21790
X55666Y22910
X56586Y22400
X57036Y22950
X57006Y20160
X54876Y19180
X55336Y17150
X55106Y15950
X54846Y15000
X52876Y14560
X52456Y12810
X53226Y10990
X53226Y9800
X53676Y8880
X51176Y8880
X51723Y6589
X51723Y5605
X59590Y3480
X60082Y3480
X48606Y11900
X52876Y16800
X51126Y18480
X47876Y18180
X47128Y17143
X46144Y17143
X42236Y19460
X41116Y20580
X41116Y21350
X39296Y22330
X39296Y23030
X39016Y23500
X39366Y23870
X38596Y23940
X38106Y23660
X35516Y24500
X34066Y23800
X34186Y25760
X34116Y26530
X33766Y27650
X32593Y27290
X32593Y26306
X30126Y26180
X27046Y29260
X22916Y27790
X22286Y27790
X21656Y27790
X20676Y29480
X20876Y30680
X21516Y32400
X21166Y33600
X21166Y34790
X15986Y36750
X14656Y36750
X15286Y38220
X11714Y37678
X11714Y36694
X10386Y36050
X11786Y35280
X11716Y33460
X11716Y31990
X11716Y31290
X14986Y29730
X15356Y31500
X17466Y29610
X15764Y27458
X14780Y27458
X14796Y26110
X15546Y26090
X17326Y24630
X17316Y24150
X17346Y23170
X16686Y22610
X16586Y21490
X14506Y20090
X13956Y18760
X11786Y18550
X9926Y20070
X11576Y20930
X11156Y22260
X11556Y25200
X10386Y26180
X11576Y28140
X19106Y27030
X20326Y26180
X21646Y26170
X20256Y24080
X18986Y24250
X19346Y22050
X21116Y19880
X18276Y18680
X15076Y15470
X16056Y13720
X16686Y13720
X17176Y13090
X17806Y13090
X20046Y12950
X20046Y12250
X20046Y13650
X20046Y14350
X11996Y14840
X11949Y15835
X11949Y16819
X9686Y15330
X8846Y16310
X11786Y13440
X11716Y11480
X9616Y11060
X12276Y9170
X13326Y6790
X15979Y6590
X15979Y5606
X29706Y11410
X32576Y10430
X33416Y8680
X35096Y7700
X33842Y6616
X33842Y5632
X35096Y9870
X34676Y10990
X34536Y14070
X34536Y16310
X34606Y17220
X36216Y17220
X37336Y15890
X38176Y18200
X39926Y19460
X40276Y18180
X39016Y21420
X40836Y24500
X40836Y25130
X39996Y26390
X39506Y26390
X39016Y26390
X38516Y26380
X37986Y26360
X39856Y29330
X39076Y29540
X38456Y30170
X38456Y31220
X38456Y32270
X38456Y33320
X34396Y35210
X34396Y37310
X36216Y38430
X34466Y39270
X33556Y41860
X35516Y42630
X28155Y37975
X28155Y36991
X27606Y35280
X34186Y31500
X34186Y29400
X42096Y28410
X41956Y27370
X42016Y26540
X34256Y21770
X34606Y18620
X29395Y15873
X28411Y15873
X45946Y35490
X47359Y36597
X47359Y37581
X47346Y38570
X46886Y38940
X50876Y38780
X50846Y36890
X53036Y38440
X55046Y39200
X55396Y38640
X53646Y42140
X53646Y42770
X59588Y43710
X60081Y43710
X55976Y33000
X55536Y26530
X56916Y14860
X55416Y12360
X9336Y38920
T03
X55466Y30590
X60076Y33680
X59576Y35680
X60076Y37180
X59476Y39180
X60076Y40680
X59376Y42680
T04
X2392Y7544
X2235Y8916
X2376Y10280
X3711Y8916
X3853Y10280
X3726Y11980
X2250Y11980
X2376Y13530
X3853Y13530
X3726Y15180
X2250Y15180
X2226Y16830
X3703Y16830
X3826Y18730
X2350Y18730
X2326Y20380
X3803Y20380
X3526Y22380
X2050Y22380
X2076Y24080
X3553Y24080
X3476Y25830
X2000Y25830
X2026Y27380
X3503Y27380
X3326Y28830
X1850Y28830
X1876Y30380
X3353Y30380
X3376Y31930
X1900Y31930
X1926Y33380
X3403Y33380
X3426Y35030
X1950Y35030
X2026Y36500
X3503Y36500
X3426Y37910
X1950Y37910
X1976Y40060
X3453Y40060
X3476Y41450
X2000Y41450
X24506Y33180
X24360Y31780
X24436Y30350
X25913Y30350
X25836Y31780
X25983Y33180
X26016Y34750
X24540Y34750
X24746Y36320
X26223Y36320
X26216Y37750
X24740Y37750
X24330Y28810
X24556Y27380
X26033Y27380
X25956Y26020
X24480Y26020
X24496Y24540
X24390Y23100
X24496Y21690
X24420Y20370
X24426Y19040
X24250Y17700
X24306Y16440
X25783Y16440
X25726Y17700
X25903Y19040
X25896Y20370
X25973Y21690
X25866Y23100
X25973Y24540
X25806Y28810
X43400Y33580
X43476Y32280
X43500Y30980
X44976Y30980
X44953Y32280
X44876Y33580
X45053Y34980
X43576Y34980
X43500Y36280
X44976Y36280
X44953Y37680
X43476Y37680
X43400Y38980
X44876Y38980
X45253Y29080
X43776Y29080
X43700Y27780
X45176Y27780
X45453Y26080
X45376Y24680
X45453Y23280
X45196Y21880
X43720Y21880
X43976Y20580
X43900Y19280
X43976Y17880
X43540Y16550
X45016Y16550
X44913Y15280
X43436Y15280
X43900Y13980
X43876Y12680
X43900Y11480
X44033Y10224
X43854Y8931
X45331Y8931
X45509Y10224
X45376Y11480
X45353Y12680
X45376Y13980
X45453Y17880
X45376Y19280
X45453Y20580
X43976Y23280
X43900Y24680
X43976Y26080
X25656Y15050
X24180Y15050
X24216Y13720
X25693Y13720
X25576Y12360
X24100Y12360
X24176Y11100
X25653Y11100
X25576Y9810
X25623Y8450
X24146Y8450
X24100Y9810
X30810Y8400
X30876Y7030
X32353Y7030
X32286Y8400
X46015Y7673
X47491Y7673
X9017Y7794
X7541Y7794
X7385Y9316
X8862Y9316
X3868Y7544
T05
X11049Y9578
X15320Y13018
X11042Y16473
X15313Y19913
X11044Y23363
X15315Y26803
X11046Y30253
X15317Y33693
X11046Y37140
X15309Y40583
X15880Y43443
X28923Y37138
X33185Y40588
X33676Y43368
X33192Y33688
X28921Y30258
X33180Y26798
X28919Y23358
X33188Y19918
X28924Y16473
X33193Y13023
X28930Y9582
X33180Y6133
X34399Y3583
X46797Y9586
X51060Y13020
X46802Y16469
X51062Y19909
X46794Y23359
X51065Y26799
X46796Y30249
X51067Y33689
X46799Y37139
X51062Y40582
X53731Y43669
X51058Y6137
X52396Y4226
X15917Y3618
X15318Y6128
M30
