G75*
%MOIN*%
%OFA0B0*%
%FSLAX25Y25*%
%IPPOS*%
%LPD*%
%AMOC8*
5,1,8,0,0,1.08239X$1,22.5*
%
%ADD10R,0.06000X0.00984*%
%ADD11R,0.03150X0.04724*%
%ADD12R,0.04331X0.03937*%
%ADD13R,0.05512X0.03937*%
%ADD14R,0.04724X0.04724*%
%ADD15R,0.03937X0.04331*%
%ADD16R,0.03150X0.03543*%
%ADD17R,0.03543X0.03150*%
%ADD18R,0.01575X0.02953*%
%ADD19R,0.01969X0.02953*%
%ADD20R,0.04500X0.08000*%
%ADD21R,0.04724X0.03150*%
%ADD22R,0.03937X0.05512*%
%ADD23R,0.02953X0.01575*%
%ADD24R,0.02953X0.01969*%
D10*
X0154297Y0210662D03*
X0154297Y0212631D03*
X0154297Y0214599D03*
X0154297Y0216568D03*
X0154297Y0218536D03*
X0154297Y0220505D03*
X0154297Y0222473D03*
X0154297Y0224442D03*
X0154297Y0226410D03*
X0154297Y0228379D03*
X0154297Y0230347D03*
X0154297Y0232316D03*
X0154297Y0234284D03*
X0154297Y0236253D03*
X0154297Y0238221D03*
X0154297Y0240190D03*
X0154297Y0242158D03*
X0154297Y0244127D03*
X0154297Y0246095D03*
X0154297Y0248064D03*
X0154297Y0250032D03*
X0154297Y0252001D03*
X0154297Y0253969D03*
X0154297Y0255938D03*
X0181231Y0255938D03*
X0181231Y0253969D03*
X0181231Y0252001D03*
X0181231Y0250032D03*
X0181231Y0248064D03*
X0181231Y0246095D03*
X0181231Y0244127D03*
X0181231Y0242158D03*
X0181231Y0240190D03*
X0181231Y0238221D03*
X0181231Y0236253D03*
X0181231Y0234284D03*
X0181231Y0232316D03*
X0181231Y0230347D03*
X0181231Y0228379D03*
X0181231Y0226410D03*
X0181231Y0224442D03*
X0181231Y0222473D03*
X0181231Y0220505D03*
X0181231Y0218536D03*
X0181231Y0216568D03*
X0181231Y0214599D03*
X0181231Y0212631D03*
X0181231Y0210662D03*
X0374465Y0211517D03*
X0374465Y0213485D03*
X0374465Y0215454D03*
X0374465Y0217422D03*
X0374465Y0219391D03*
X0374465Y0221359D03*
X0374465Y0223328D03*
X0374465Y0225296D03*
X0374465Y0227265D03*
X0374465Y0229233D03*
X0374465Y0231202D03*
X0374465Y0233170D03*
X0374465Y0235139D03*
X0374465Y0237107D03*
X0374465Y0239076D03*
X0374465Y0241044D03*
X0374465Y0243013D03*
X0374465Y0244981D03*
X0374465Y0246950D03*
X0374465Y0248918D03*
X0374465Y0250887D03*
X0374465Y0252855D03*
X0374465Y0254824D03*
X0374465Y0256792D03*
X0401399Y0256792D03*
X0401399Y0254824D03*
X0401399Y0252855D03*
X0401399Y0250887D03*
X0401399Y0248918D03*
X0401399Y0246950D03*
X0401399Y0244981D03*
X0401399Y0243013D03*
X0401399Y0241044D03*
X0401399Y0239076D03*
X0401399Y0237107D03*
X0401399Y0235139D03*
X0401399Y0233170D03*
X0401399Y0231202D03*
X0401399Y0229233D03*
X0401399Y0227265D03*
X0401399Y0225296D03*
X0401399Y0223328D03*
X0401399Y0221359D03*
X0401399Y0219391D03*
X0401399Y0217422D03*
X0401399Y0215454D03*
X0401399Y0213485D03*
X0401399Y0211517D03*
X0550712Y0211894D03*
X0550712Y0213863D03*
X0550712Y0215831D03*
X0550712Y0217800D03*
X0550712Y0219769D03*
X0550712Y0221737D03*
X0550712Y0223706D03*
X0550712Y0225674D03*
X0550712Y0227643D03*
X0550712Y0229611D03*
X0550712Y0231580D03*
X0550712Y0233548D03*
X0550712Y0235517D03*
X0550712Y0237485D03*
X0550712Y0239454D03*
X0550712Y0241422D03*
X0550712Y0243391D03*
X0550712Y0245359D03*
X0550712Y0247328D03*
X0550712Y0249296D03*
X0550712Y0251265D03*
X0550712Y0253233D03*
X0550712Y0255202D03*
X0550712Y0257170D03*
X0577646Y0257170D03*
X0577646Y0255202D03*
X0577646Y0253233D03*
X0577646Y0251265D03*
X0577646Y0249296D03*
X0577646Y0247328D03*
X0577646Y0245359D03*
X0577646Y0243391D03*
X0577646Y0241422D03*
X0577646Y0239454D03*
X0577646Y0237485D03*
X0577646Y0235517D03*
X0577646Y0233548D03*
X0577646Y0231580D03*
X0577646Y0229611D03*
X0577646Y0227643D03*
X0577646Y0225674D03*
X0577646Y0223706D03*
X0577646Y0221737D03*
X0577646Y0219769D03*
X0577646Y0217800D03*
X0577646Y0215831D03*
X0577646Y0213863D03*
X0577646Y0211894D03*
D11*
X0522308Y0156800D03*
X0515221Y0156800D03*
X0515221Y0145800D03*
X0522308Y0145800D03*
X0524308Y0109800D03*
X0517221Y0109800D03*
X0517221Y0097800D03*
X0524308Y0097800D03*
X0525026Y0083376D03*
X0517939Y0083376D03*
X0338408Y0140700D03*
X0331321Y0140700D03*
X0331621Y0151600D03*
X0338708Y0151600D03*
X0412321Y0226100D03*
X0419408Y0226100D03*
X0420776Y0242139D03*
X0413689Y0242139D03*
X0413721Y0253700D03*
X0420808Y0253700D03*
X0414308Y0280000D03*
X0407221Y0280000D03*
X0381908Y0280300D03*
X0374821Y0280300D03*
X0374821Y0270800D03*
X0381908Y0270800D03*
X0335108Y0325200D03*
X0328021Y0325200D03*
X0330121Y0382800D03*
X0337208Y0382800D03*
X0337008Y0392700D03*
X0329921Y0392700D03*
X0189072Y0302530D03*
X0181986Y0302530D03*
X0109308Y0290300D03*
X0102221Y0290300D03*
X0103721Y0344000D03*
X0110808Y0344000D03*
X0111063Y0352606D03*
X0103977Y0352606D03*
X0204923Y0229070D03*
X0212010Y0229070D03*
X0211408Y0220400D03*
X0204321Y0220400D03*
X0110808Y0173800D03*
X0103721Y0173800D03*
X0103721Y0124300D03*
X0110808Y0124300D03*
X0110808Y0114800D03*
X0103721Y0114800D03*
X0103721Y0105800D03*
X0110808Y0105800D03*
X0554221Y0299700D03*
X0561308Y0299700D03*
X0561767Y0280341D03*
X0568853Y0280341D03*
D12*
X0568739Y0273043D03*
X0562046Y0273043D03*
X0526311Y0270000D03*
X0519618Y0270000D03*
X0521111Y0279800D03*
X0514418Y0279800D03*
X0514418Y0288800D03*
X0521111Y0288800D03*
X0521511Y0298200D03*
X0514818Y0298200D03*
X0514818Y0308100D03*
X0521511Y0308100D03*
X0521511Y0318300D03*
X0514818Y0318300D03*
X0514818Y0327900D03*
X0521511Y0327900D03*
X0519818Y0336700D03*
X0526511Y0336700D03*
X0521811Y0346400D03*
X0515118Y0346400D03*
X0515518Y0355000D03*
X0522211Y0355000D03*
X0522211Y0365000D03*
X0515518Y0365000D03*
X0516118Y0375500D03*
X0522811Y0375500D03*
X0521218Y0436800D03*
X0527911Y0436800D03*
X0347311Y0406000D03*
X0340618Y0406000D03*
X0337311Y0373100D03*
X0330618Y0373100D03*
X0330218Y0361100D03*
X0336911Y0361100D03*
X0336911Y0351800D03*
X0330218Y0351800D03*
X0341318Y0336700D03*
X0348011Y0336700D03*
X0334711Y0314900D03*
X0328018Y0314900D03*
X0328018Y0304600D03*
X0334711Y0304600D03*
X0334911Y0294000D03*
X0328218Y0294000D03*
X0328618Y0283100D03*
X0335311Y0283100D03*
X0334811Y0254900D03*
X0328118Y0254900D03*
X0328218Y0246400D03*
X0334911Y0246400D03*
X0334811Y0238100D03*
X0328118Y0238100D03*
X0328518Y0227300D03*
X0335211Y0227300D03*
X0335311Y0217200D03*
X0328618Y0217200D03*
X0328118Y0208000D03*
X0334811Y0208000D03*
X0324211Y0199500D03*
X0317518Y0199500D03*
X0332118Y0186500D03*
X0338811Y0186500D03*
X0338011Y0175400D03*
X0331318Y0175400D03*
X0331718Y0163100D03*
X0338411Y0163100D03*
X0342018Y0130200D03*
X0348711Y0130200D03*
X0338611Y0119800D03*
X0331918Y0119800D03*
X0332118Y0109900D03*
X0338811Y0109900D03*
X0338911Y0098900D03*
X0332218Y0098900D03*
X0391945Y0134397D03*
X0398638Y0134397D03*
X0472218Y0116900D03*
X0478911Y0116900D03*
X0517418Y0121800D03*
X0524111Y0121800D03*
X0524111Y0134800D03*
X0517418Y0134800D03*
X0549226Y0130439D03*
X0555919Y0130439D03*
X0562225Y0130298D03*
X0568918Y0130298D03*
X0522111Y0167800D03*
X0515418Y0167800D03*
X0515418Y0178800D03*
X0522111Y0178800D03*
X0522111Y0190800D03*
X0515418Y0190800D03*
X0515418Y0206800D03*
X0522111Y0206800D03*
X0521211Y0218900D03*
X0514518Y0218900D03*
X0515418Y0227800D03*
X0522111Y0227800D03*
X0522111Y0238800D03*
X0515418Y0238800D03*
X0515418Y0249800D03*
X0522111Y0249800D03*
X0498911Y0265400D03*
X0492218Y0265400D03*
X0468411Y0225400D03*
X0461718Y0225400D03*
X0396711Y0280300D03*
X0390018Y0280300D03*
X0312311Y0233800D03*
X0305618Y0233800D03*
X0219826Y0247822D03*
X0213134Y0247822D03*
X0153411Y0187600D03*
X0146718Y0187600D03*
X0110611Y0185800D03*
X0103918Y0185800D03*
X0096711Y0178500D03*
X0090018Y0178500D03*
X0103418Y0194800D03*
X0110111Y0194800D03*
X0110111Y0206800D03*
X0103418Y0206800D03*
X0103418Y0214800D03*
X0110111Y0214800D03*
X0104511Y0222900D03*
X0097818Y0222900D03*
X0094918Y0233800D03*
X0101611Y0233800D03*
X0103918Y0243300D03*
X0110611Y0243300D03*
X0110111Y0252300D03*
X0103418Y0252300D03*
X0104118Y0268600D03*
X0110811Y0268600D03*
X0109481Y0281447D03*
X0102788Y0281447D03*
X0100911Y0302400D03*
X0094218Y0302400D03*
X0103418Y0313300D03*
X0110111Y0313300D03*
X0109611Y0324800D03*
X0102918Y0324800D03*
X0103418Y0334300D03*
X0110111Y0334300D03*
X0101611Y0371700D03*
X0094918Y0371700D03*
X0103918Y0381000D03*
X0110611Y0381000D03*
X0110111Y0389600D03*
X0103418Y0389600D03*
X0102918Y0153300D03*
X0109611Y0153300D03*
X0110111Y0143300D03*
X0103418Y0143300D03*
X0103618Y0135200D03*
X0110311Y0135200D03*
X0141598Y0091911D03*
X0148291Y0091911D03*
X0148271Y0083389D03*
X0141578Y0083389D03*
X0065611Y0088300D03*
X0058918Y0088300D03*
X0326746Y0048768D03*
X0333439Y0048768D03*
D13*
X0412895Y0265560D03*
X0404234Y0269300D03*
X0412895Y0273040D03*
D14*
X0059764Y0070666D03*
X0059764Y0078934D03*
X0066264Y0119166D03*
X0066264Y0127434D03*
X0065264Y0141666D03*
X0065264Y0149934D03*
X0064264Y0165666D03*
X0064264Y0173934D03*
X0065764Y0190166D03*
X0065764Y0198434D03*
X0065264Y0222666D03*
X0065264Y0230934D03*
X0066764Y0249166D03*
X0066764Y0257434D03*
X0066264Y0276666D03*
X0066264Y0284934D03*
X0065264Y0303666D03*
X0065264Y0311934D03*
X0065264Y0326166D03*
X0065264Y0334434D03*
X0066064Y0356666D03*
X0066064Y0364934D03*
X0064264Y0391966D03*
X0064264Y0400234D03*
X0278264Y0243934D03*
X0278264Y0235666D03*
X0284164Y0216934D03*
X0284164Y0208666D03*
X0283464Y0191634D03*
X0283464Y0183366D03*
X0295964Y0183134D03*
X0295964Y0174866D03*
X0282764Y0146834D03*
X0282764Y0138566D03*
X0288064Y0121634D03*
X0288064Y0113366D03*
X0299930Y0094800D03*
X0308198Y0094800D03*
X0486764Y0101666D03*
X0486764Y0109934D03*
X0486764Y0130666D03*
X0486764Y0138934D03*
X0486764Y0154666D03*
X0486764Y0162934D03*
X0486764Y0173666D03*
X0486764Y0181934D03*
X0486764Y0197666D03*
X0486764Y0205934D03*
X0486764Y0220666D03*
X0486764Y0228934D03*
X0486764Y0241666D03*
X0486764Y0249934D03*
X0485764Y0266666D03*
X0485764Y0274934D03*
X0484764Y0289666D03*
X0484764Y0297934D03*
X0482764Y0311666D03*
X0482764Y0319934D03*
X0481764Y0337666D03*
X0481764Y0345934D03*
X0481764Y0357666D03*
X0481764Y0365934D03*
X0297964Y0356734D03*
X0297964Y0348466D03*
X0288464Y0330534D03*
X0288464Y0322266D03*
X0288964Y0294034D03*
X0288964Y0285766D03*
X0286964Y0266434D03*
X0286964Y0258166D03*
X0297664Y0375966D03*
X0297664Y0384234D03*
D15*
X0297764Y0370146D03*
X0297764Y0363454D03*
X0289064Y0348946D03*
X0289064Y0342254D03*
X0276064Y0341054D03*
X0276064Y0347746D03*
X0280464Y0321646D03*
X0280464Y0314954D03*
X0280264Y0285546D03*
X0280264Y0278854D03*
X0270464Y0278754D03*
X0270464Y0285446D03*
X0278964Y0258646D03*
X0278964Y0251954D03*
X0275864Y0227746D03*
X0275864Y0221054D03*
X0276164Y0206046D03*
X0276164Y0199354D03*
X0275464Y0181446D03*
X0275464Y0174754D03*
X0275364Y0161346D03*
X0275364Y0154654D03*
X0277264Y0130546D03*
X0277264Y0123854D03*
X0278464Y0110746D03*
X0278464Y0104054D03*
X0299764Y0087746D03*
X0299764Y0081054D03*
X0341264Y0079754D03*
X0341264Y0086446D03*
X0350964Y0069846D03*
X0350964Y0063154D03*
X0312464Y0127554D03*
X0312464Y0134246D03*
X0322264Y0170254D03*
X0322264Y0176946D03*
X0408373Y0150869D03*
X0408373Y0144176D03*
X0468564Y0178654D03*
X0468564Y0185346D03*
X0478764Y0190454D03*
X0478764Y0197146D03*
X0478764Y0213454D03*
X0478764Y0220146D03*
X0478764Y0234454D03*
X0478764Y0241146D03*
X0476764Y0260454D03*
X0476764Y0267146D03*
X0476764Y0283454D03*
X0476764Y0290146D03*
X0463664Y0287154D03*
X0463664Y0293846D03*
X0474764Y0310454D03*
X0474764Y0317146D03*
X0472764Y0331454D03*
X0472764Y0338146D03*
X0462964Y0337946D03*
X0462964Y0331254D03*
X0473064Y0351154D03*
X0473064Y0357846D03*
X0462264Y0386554D03*
X0462264Y0393246D03*
X0569483Y0413709D03*
X0569483Y0420402D03*
X0568956Y0350302D03*
X0568956Y0343609D03*
X0555364Y0291046D03*
X0555364Y0284354D03*
X0555364Y0277046D03*
X0555364Y0270354D03*
X0507764Y0214046D03*
X0507764Y0207354D03*
X0478764Y0174146D03*
X0478764Y0167454D03*
X0478764Y0155146D03*
X0478764Y0148454D03*
X0477764Y0131146D03*
X0477764Y0124454D03*
X0478764Y0102146D03*
X0478764Y0095454D03*
X0511264Y0077546D03*
X0511264Y0070854D03*
X0506764Y0136754D03*
X0506764Y0143446D03*
X0316664Y0254954D03*
X0316664Y0261646D03*
X0193664Y0181846D03*
X0193664Y0175154D03*
X0193664Y0165346D03*
X0193664Y0158654D03*
X0150764Y0146146D03*
X0150764Y0139454D03*
X0101764Y0098546D03*
X0101764Y0091854D03*
X0132464Y0091246D03*
X0132464Y0084554D03*
X0143064Y0067746D03*
X0143064Y0061054D03*
X0059264Y0100954D03*
X0059264Y0107646D03*
X0055764Y0130454D03*
X0055764Y0137146D03*
X0055764Y0158954D03*
X0055764Y0165646D03*
X0056764Y0183454D03*
X0056764Y0190146D03*
X0054264Y0215954D03*
X0054264Y0222646D03*
X0057764Y0242454D03*
X0057764Y0249146D03*
X0057264Y0269954D03*
X0057264Y0276646D03*
X0055264Y0296954D03*
X0055264Y0303646D03*
X0056264Y0319454D03*
X0056264Y0326146D03*
X0057564Y0349454D03*
X0057564Y0356146D03*
X0055064Y0386454D03*
X0055064Y0393146D03*
X0152864Y0390054D03*
X0152864Y0396746D03*
X0164064Y0414554D03*
X0164064Y0421246D03*
X0152864Y0328846D03*
X0152864Y0322154D03*
X0172764Y0289046D03*
X0172764Y0282354D03*
X0172564Y0275146D03*
X0172564Y0268454D03*
X0140864Y0270246D03*
X0140864Y0263554D03*
X0347464Y0426454D03*
X0347464Y0433146D03*
D16*
X0313564Y0380431D03*
X0309824Y0372163D03*
X0317304Y0372163D03*
X0316164Y0360031D03*
X0312424Y0351763D03*
X0319904Y0351763D03*
X0303664Y0338331D03*
X0299924Y0330063D03*
X0307404Y0330063D03*
X0301664Y0305631D03*
X0297924Y0297363D03*
X0305404Y0297363D03*
X0299364Y0281231D03*
X0295624Y0272963D03*
X0303104Y0272963D03*
X0297864Y0250931D03*
X0294124Y0242663D03*
X0301604Y0242663D03*
X0298764Y0229231D03*
X0295024Y0220963D03*
X0302504Y0220963D03*
X0297164Y0202731D03*
X0293424Y0194463D03*
X0300904Y0194463D03*
X0310764Y0185831D03*
X0307024Y0177563D03*
X0314504Y0177563D03*
X0298364Y0152731D03*
X0294624Y0144463D03*
X0302104Y0144463D03*
X0298264Y0134931D03*
X0294524Y0126663D03*
X0302004Y0126663D03*
X0310064Y0109631D03*
X0306324Y0101363D03*
X0313804Y0101363D03*
X0182932Y0156736D03*
X0179192Y0165004D03*
X0186672Y0165004D03*
X0082504Y0172863D03*
X0075024Y0172863D03*
X0078764Y0181131D03*
X0076024Y0192363D03*
X0083504Y0192363D03*
X0079764Y0200631D03*
X0077024Y0228363D03*
X0084504Y0228363D03*
X0080764Y0236631D03*
X0077024Y0258863D03*
X0084504Y0258863D03*
X0080764Y0267131D03*
X0083504Y0281363D03*
X0076024Y0281363D03*
X0079764Y0289631D03*
X0076024Y0304363D03*
X0083504Y0304363D03*
X0079764Y0312631D03*
X0083004Y0333863D03*
X0075524Y0333863D03*
X0079264Y0342131D03*
X0076524Y0358063D03*
X0084004Y0358063D03*
X0080264Y0366331D03*
X0083504Y0386063D03*
X0076024Y0386063D03*
X0079764Y0394331D03*
X0077764Y0159131D03*
X0074024Y0150863D03*
X0081504Y0150863D03*
X0080264Y0132631D03*
X0076524Y0124363D03*
X0084004Y0124363D03*
X0076764Y0112631D03*
X0073024Y0104363D03*
X0080504Y0104363D03*
X0492924Y0139863D03*
X0500404Y0139863D03*
X0496664Y0148131D03*
X0495024Y0162863D03*
X0502504Y0162863D03*
X0498764Y0171131D03*
X0501504Y0180863D03*
X0494024Y0180863D03*
X0497764Y0189131D03*
X0494724Y0204863D03*
X0502204Y0204863D03*
X0498464Y0213131D03*
X0501504Y0226863D03*
X0494024Y0226863D03*
X0497764Y0235131D03*
X0494024Y0249863D03*
X0501504Y0249863D03*
X0497764Y0258131D03*
X0494024Y0276063D03*
X0501504Y0276063D03*
X0497764Y0284331D03*
X0494024Y0297863D03*
X0501504Y0297863D03*
X0497764Y0306131D03*
X0500504Y0318863D03*
X0493024Y0318863D03*
X0496764Y0327131D03*
X0494024Y0345863D03*
X0501504Y0345863D03*
X0497764Y0354131D03*
X0494024Y0365863D03*
X0501504Y0365863D03*
X0497764Y0374131D03*
X0498764Y0118131D03*
X0495024Y0109863D03*
X0502504Y0109863D03*
D17*
X0548412Y0143194D03*
X0556680Y0146934D03*
X0556680Y0139454D03*
X0400246Y0144411D03*
X0391978Y0148151D03*
X0400246Y0151891D03*
D18*
X0383089Y0153778D03*
X0379940Y0153778D03*
X0379940Y0146888D03*
X0383089Y0146888D03*
X0560451Y0159134D03*
X0563601Y0159134D03*
X0563601Y0166024D03*
X0560451Y0166024D03*
D19*
X0557104Y0166024D03*
X0557104Y0159134D03*
X0566947Y0159134D03*
X0566947Y0166024D03*
X0386436Y0153778D03*
X0386436Y0146888D03*
X0376593Y0146888D03*
X0376593Y0153778D03*
D20*
X0577464Y0336800D03*
X0577464Y0346800D03*
X0577464Y0356800D03*
X0577464Y0371800D03*
X0577464Y0381800D03*
X0577464Y0391800D03*
X0577464Y0406800D03*
X0577464Y0416800D03*
X0577464Y0426800D03*
X0603964Y0426800D03*
X0603964Y0416800D03*
X0603964Y0406800D03*
X0603964Y0391800D03*
X0603964Y0381800D03*
X0603964Y0371800D03*
X0603964Y0356800D03*
X0603964Y0346800D03*
X0603964Y0336800D03*
D21*
X0217364Y0237943D03*
X0217364Y0230857D03*
X0196194Y0237403D03*
X0196194Y0244490D03*
X0180064Y0268457D03*
X0180064Y0275543D03*
X0180164Y0282257D03*
X0180164Y0289343D03*
D22*
X0194824Y0280269D03*
X0202304Y0280269D03*
X0198564Y0288931D03*
D23*
X0188423Y0141000D03*
X0188423Y0137850D03*
X0181534Y0137850D03*
X0181534Y0141000D03*
D24*
X0181534Y0144346D03*
X0188423Y0144346D03*
X0188423Y0134504D03*
X0181534Y0134504D03*
M02*
