G75*
%MOIN*%
%OFA0B0*%
%FSLAX25Y25*%
%IPPOS*%
%LPD*%
%AMOC8*
5,1,8,0,0,1.08239X$1,22.5*
%
%ADD10R,0.03937X0.04331*%
%ADD11R,0.04724X0.03150*%
%ADD12R,0.03937X0.05512*%
%ADD13R,0.03150X0.04724*%
D10*
X0072264Y0102054D03*
X0072264Y0108746D03*
X0083464Y0108746D03*
X0083464Y0102054D03*
X0079264Y0119054D03*
X0079264Y0125746D03*
X0093264Y0125746D03*
X0093264Y0119054D03*
X0092764Y0138054D03*
X0092764Y0144746D03*
X0079764Y0144746D03*
X0079764Y0138054D03*
X0083264Y0171054D03*
X0083264Y0177746D03*
X0092264Y0177746D03*
X0092264Y0171054D03*
X0093264Y0190054D03*
X0093264Y0196746D03*
X0093264Y0206054D03*
X0093264Y0212746D03*
X0079264Y0212746D03*
X0079264Y0206054D03*
X0080264Y0196746D03*
X0080264Y0190054D03*
X0082264Y0239054D03*
X0082264Y0245746D03*
X0093264Y0245746D03*
X0093264Y0239054D03*
X0093764Y0257554D03*
X0082264Y0257054D03*
X0082264Y0263746D03*
X0093764Y0264246D03*
X0094264Y0274054D03*
X0094264Y0280746D03*
X0082764Y0281246D03*
X0082764Y0274554D03*
X0081764Y0310054D03*
X0081764Y0316746D03*
X0082264Y0327054D03*
X0094264Y0326754D03*
X0094264Y0333446D03*
X0082264Y0333746D03*
X0081664Y0345254D03*
X0081664Y0351946D03*
X0093964Y0351746D03*
X0093964Y0345054D03*
X0094764Y0316746D03*
X0094764Y0310054D03*
X0304264Y0325754D03*
X0304264Y0332446D03*
X0304264Y0341754D03*
X0304264Y0348446D03*
X0304264Y0358754D03*
X0304264Y0365446D03*
X0315664Y0357346D03*
X0315664Y0350654D03*
X0315664Y0341346D03*
X0315664Y0334654D03*
X0315664Y0325346D03*
X0315664Y0318654D03*
X0307764Y0291546D03*
X0307764Y0284854D03*
X0307764Y0276146D03*
X0307764Y0269454D03*
X0307764Y0260746D03*
X0307764Y0254054D03*
X0318464Y0254146D03*
X0318464Y0247454D03*
X0318464Y0262454D03*
X0318464Y0269146D03*
X0318464Y0277454D03*
X0318464Y0284146D03*
X0389578Y0253850D03*
X0389578Y0247157D03*
X0319164Y0214546D03*
X0319164Y0207854D03*
X0319164Y0197746D03*
X0319164Y0191054D03*
X0319164Y0182746D03*
X0319164Y0176054D03*
X0319164Y0165946D03*
X0319164Y0159254D03*
X0319164Y0150546D03*
X0319164Y0143854D03*
X0307064Y0150854D03*
X0307064Y0157546D03*
X0307064Y0166254D03*
X0307064Y0172946D03*
X0307064Y0183054D03*
X0307064Y0189746D03*
X0307064Y0198054D03*
X0307064Y0204746D03*
X0307064Y0214854D03*
X0307064Y0221546D03*
X0308464Y0129246D03*
X0308464Y0122554D03*
X0317064Y0122946D03*
X0317064Y0116254D03*
X0317403Y0107631D03*
X0317403Y0100939D03*
X0491464Y0142654D03*
X0491464Y0149346D03*
X0491464Y0157254D03*
X0491464Y0163946D03*
X0491464Y0172854D03*
X0491464Y0179546D03*
X0504064Y0180554D03*
X0504064Y0187246D03*
X0491164Y0192254D03*
X0491164Y0198946D03*
X0501264Y0199454D03*
X0501264Y0206146D03*
X0490764Y0207654D03*
X0490764Y0214346D03*
X0490764Y0222254D03*
X0490764Y0228946D03*
X0490764Y0237554D03*
X0490764Y0244246D03*
X0504064Y0246554D03*
X0504064Y0253246D03*
X0504064Y0237246D03*
X0504064Y0230554D03*
X0504064Y0222646D03*
X0504064Y0215954D03*
X0504064Y0171846D03*
X0504064Y0165154D03*
X0504064Y0156946D03*
X0504064Y0150254D03*
X0504064Y0115046D03*
X0504064Y0108354D03*
X0504064Y0100446D03*
X0504064Y0093754D03*
X0500664Y0289554D03*
X0491464Y0289254D03*
X0491464Y0295946D03*
X0500664Y0296246D03*
X0501264Y0307954D03*
X0491464Y0308054D03*
X0491464Y0314746D03*
X0491464Y0322654D03*
X0501264Y0322554D03*
X0501264Y0314646D03*
X0501264Y0329246D03*
X0491464Y0329346D03*
X0490064Y0349854D03*
X0490064Y0356546D03*
X0490064Y0365854D03*
X0490064Y0372546D03*
X0499864Y0356446D03*
X0499864Y0349754D03*
D11*
X0554353Y0281276D03*
X0554353Y0274189D03*
X0555464Y0260143D03*
X0555464Y0253057D03*
X0578405Y0229546D03*
X0578405Y0222459D03*
X0380564Y0222957D03*
X0380564Y0230043D03*
X0381737Y0246827D03*
X0381737Y0253913D03*
D12*
X0560683Y0282910D03*
X0568163Y0282910D03*
X0564423Y0291572D03*
D13*
X0553546Y0229323D03*
X0546460Y0229323D03*
M02*
