G75*
%MOIN*%
%OFA0B0*%
%FSLAX25Y25*%
%IPPOS*%
%LPD*%
%AMOC8*
5,1,8,0,0,1.08239X$1,22.5*
%
%ADD10C,0.00100*%
D10*
X0039200Y0016800D02*
X0039192Y0017457D01*
X0039168Y0018114D01*
X0039129Y0018770D01*
X0039073Y0019425D01*
X0039002Y0020079D01*
X0038915Y0020730D01*
X0038812Y0021379D01*
X0038693Y0022026D01*
X0038559Y0022669D01*
X0038410Y0023309D01*
X0038245Y0023946D01*
X0038064Y0024578D01*
X0037869Y0025205D01*
X0037658Y0025828D01*
X0037432Y0026445D01*
X0037192Y0027057D01*
X0036937Y0027663D01*
X0036667Y0028262D01*
X0036383Y0028855D01*
X0036084Y0029440D01*
X0035772Y0030019D01*
X0035446Y0030589D01*
X0035106Y0031152D01*
X0034752Y0031706D01*
X0034385Y0032251D01*
X0034005Y0032788D01*
X0033613Y0033315D01*
X0033207Y0033832D01*
X0032789Y0034340D01*
X0032359Y0034837D01*
X0031918Y0035324D01*
X0031464Y0035800D01*
X0031000Y0036264D01*
X0030524Y0036718D01*
X0030037Y0037159D01*
X0029540Y0037589D01*
X0029032Y0038007D01*
X0028515Y0038413D01*
X0027988Y0038805D01*
X0027451Y0039185D01*
X0026906Y0039552D01*
X0026352Y0039906D01*
X0025789Y0040246D01*
X0025219Y0040572D01*
X0024640Y0040884D01*
X0024055Y0041183D01*
X0023462Y0041467D01*
X0022863Y0041737D01*
X0022257Y0041992D01*
X0021645Y0042232D01*
X0021028Y0042458D01*
X0020405Y0042669D01*
X0019778Y0042864D01*
X0019146Y0043045D01*
X0018509Y0043210D01*
X0017869Y0043359D01*
X0017226Y0043493D01*
X0016579Y0043612D01*
X0015930Y0043715D01*
X0015279Y0043802D01*
X0014625Y0043873D01*
X0013970Y0043929D01*
X0013314Y0043968D01*
X0012657Y0043992D01*
X0012000Y0044000D01*
X0012000Y0043950D02*
X0011798Y0043954D01*
X0011597Y0043962D01*
X0011395Y0043976D01*
X0011194Y0043994D01*
X0010994Y0044018D01*
X0010794Y0044046D01*
X0010595Y0044079D01*
X0010397Y0044117D01*
X0010200Y0044160D01*
X0010004Y0044208D01*
X0009809Y0044260D01*
X0009616Y0044317D01*
X0009424Y0044379D01*
X0009234Y0044446D01*
X0009045Y0044517D01*
X0008858Y0044593D01*
X0008673Y0044673D01*
X0008490Y0044758D01*
X0008309Y0044847D01*
X0008131Y0044941D01*
X0007954Y0045039D01*
X0007780Y0045141D01*
X0007609Y0045247D01*
X0007440Y0045358D01*
X0007275Y0045473D01*
X0007112Y0045591D01*
X0006951Y0045714D01*
X0006794Y0045841D01*
X0006641Y0045971D01*
X0006490Y0046105D01*
X0006343Y0046243D01*
X0006199Y0046384D01*
X0006058Y0046529D01*
X0005921Y0046677D01*
X0005788Y0046829D01*
X0005659Y0046983D01*
X0005533Y0047141D01*
X0005411Y0047302D01*
X0005294Y0047466D01*
X0005180Y0047632D01*
X0005070Y0047802D01*
X0004965Y0047973D01*
X0004864Y0048148D01*
X0004767Y0048325D01*
X0004674Y0048504D01*
X0004586Y0048685D01*
X0004502Y0048869D01*
X0004423Y0049054D01*
X0004349Y0049242D01*
X0004279Y0049431D01*
X0004213Y0049622D01*
X0004153Y0049814D01*
X0004097Y0050008D01*
X0004045Y0050203D01*
X0003999Y0050399D01*
X0003957Y0050597D01*
X0003921Y0050795D01*
X0003889Y0050994D01*
X0003862Y0051194D01*
X0003839Y0051394D01*
X0003822Y0051595D01*
X0003810Y0051797D01*
X0003802Y0051998D01*
X0003800Y0052200D01*
X0003800Y0148700D01*
X0003750Y0148700D02*
X0003754Y0148902D01*
X0003762Y0149103D01*
X0003776Y0149305D01*
X0003794Y0149506D01*
X0003818Y0149706D01*
X0003846Y0149906D01*
X0003879Y0150105D01*
X0003917Y0150303D01*
X0003960Y0150500D01*
X0004008Y0150696D01*
X0004060Y0150891D01*
X0004117Y0151084D01*
X0004179Y0151276D01*
X0004246Y0151466D01*
X0004317Y0151655D01*
X0004393Y0151842D01*
X0004473Y0152027D01*
X0004558Y0152210D01*
X0004647Y0152391D01*
X0004741Y0152569D01*
X0004839Y0152746D01*
X0004941Y0152920D01*
X0005047Y0153091D01*
X0005158Y0153260D01*
X0005273Y0153425D01*
X0005391Y0153588D01*
X0005514Y0153749D01*
X0005641Y0153906D01*
X0005771Y0154059D01*
X0005905Y0154210D01*
X0006043Y0154357D01*
X0006184Y0154501D01*
X0006329Y0154642D01*
X0006477Y0154779D01*
X0006629Y0154912D01*
X0006783Y0155041D01*
X0006941Y0155167D01*
X0007102Y0155289D01*
X0007266Y0155406D01*
X0007432Y0155520D01*
X0007602Y0155630D01*
X0007773Y0155735D01*
X0007948Y0155836D01*
X0008125Y0155933D01*
X0008304Y0156026D01*
X0008485Y0156114D01*
X0008669Y0156198D01*
X0008854Y0156277D01*
X0009042Y0156351D01*
X0009231Y0156421D01*
X0009422Y0156487D01*
X0009614Y0156547D01*
X0009808Y0156603D01*
X0010003Y0156655D01*
X0010199Y0156701D01*
X0010397Y0156743D01*
X0010595Y0156779D01*
X0010794Y0156811D01*
X0010994Y0156838D01*
X0011194Y0156861D01*
X0011395Y0156878D01*
X0011597Y0156890D01*
X0011798Y0156898D01*
X0012000Y0156900D01*
X0012705Y0156909D01*
X0013410Y0156934D01*
X0014114Y0156977D01*
X0014816Y0157036D01*
X0015517Y0157113D01*
X0016216Y0157207D01*
X0016913Y0157317D01*
X0017607Y0157444D01*
X0018297Y0157588D01*
X0018984Y0157749D01*
X0019666Y0157926D01*
X0020344Y0158120D01*
X0021017Y0158330D01*
X0021685Y0158556D01*
X0022347Y0158798D01*
X0023004Y0159057D01*
X0023653Y0159331D01*
X0024296Y0159620D01*
X0024932Y0159926D01*
X0025560Y0160246D01*
X0026181Y0160582D01*
X0026792Y0160932D01*
X0027396Y0161297D01*
X0027990Y0161677D01*
X0028575Y0162071D01*
X0029150Y0162479D01*
X0029715Y0162901D01*
X0030270Y0163336D01*
X0030814Y0163785D01*
X0031347Y0164246D01*
X0031869Y0164721D01*
X0032379Y0165207D01*
X0032877Y0165707D01*
X0033363Y0166218D01*
X0033837Y0166740D01*
X0034298Y0167274D01*
X0034745Y0167819D01*
X0035180Y0168374D01*
X0035600Y0168940D01*
X0036007Y0169516D01*
X0036400Y0170102D01*
X0036779Y0170697D01*
X0037143Y0171301D01*
X0037493Y0171913D01*
X0037827Y0172534D01*
X0038146Y0173163D01*
X0038451Y0173799D01*
X0038739Y0174442D01*
X0039012Y0175093D01*
X0039269Y0175749D01*
X0039511Y0176412D01*
X0039736Y0177080D01*
X0039944Y0177754D01*
X0040137Y0178432D01*
X0040313Y0179115D01*
X0040473Y0179802D01*
X0040615Y0180492D01*
X0040741Y0181186D01*
X0040851Y0181883D01*
X0040943Y0182582D01*
X0041018Y0183283D01*
X0041077Y0183986D01*
X0041118Y0184690D01*
X0041143Y0185395D01*
X0041150Y0186100D01*
X0041200Y0186100D02*
X0041200Y0221500D01*
X0041150Y0221500D02*
X0041151Y0221700D01*
X0041157Y0221900D01*
X0041168Y0222100D01*
X0041184Y0222299D01*
X0041205Y0222498D01*
X0041230Y0222697D01*
X0041260Y0222895D01*
X0041295Y0223092D01*
X0041335Y0223288D01*
X0041380Y0223483D01*
X0041429Y0223677D01*
X0041483Y0223870D01*
X0041541Y0224061D01*
X0041605Y0224251D01*
X0041672Y0224439D01*
X0041745Y0224626D01*
X0041822Y0224811D01*
X0041903Y0224994D01*
X0041989Y0225174D01*
X0042079Y0225353D01*
X0042173Y0225530D01*
X0042272Y0225704D01*
X0042375Y0225875D01*
X0042482Y0226045D01*
X0042593Y0226211D01*
X0042708Y0226375D01*
X0042827Y0226536D01*
X0042950Y0226694D01*
X0043076Y0226849D01*
X0043207Y0227000D01*
X0043341Y0227149D01*
X0043478Y0227294D01*
X0043620Y0227436D01*
X0043764Y0227575D01*
X0043912Y0227710D01*
X0044063Y0227841D01*
X0044217Y0227969D01*
X0044374Y0228093D01*
X0044535Y0228213D01*
X0044698Y0228329D01*
X0044863Y0228441D01*
X0045032Y0228549D01*
X0045203Y0228653D01*
X0045376Y0228752D01*
X0045552Y0228848D01*
X0045730Y0228939D01*
X0045911Y0229026D01*
X0046093Y0229108D01*
X0046278Y0229186D01*
X0046464Y0229260D01*
X0046652Y0229329D01*
X0046841Y0229393D01*
X0047032Y0229453D01*
X0047224Y0229508D01*
X0047418Y0229558D01*
X0047613Y0229604D01*
X0047809Y0229645D01*
X0048006Y0229681D01*
X0048203Y0229713D01*
X0048402Y0229739D01*
X0048601Y0229761D01*
X0048800Y0229778D01*
X0049000Y0229790D01*
X0049200Y0229798D01*
X0049400Y0229800D01*
X0157700Y0229800D01*
X0157700Y0229700D02*
X0157898Y0229698D01*
X0158096Y0229690D01*
X0158294Y0229678D01*
X0158491Y0229662D01*
X0158688Y0229640D01*
X0158885Y0229614D01*
X0159081Y0229583D01*
X0159275Y0229547D01*
X0159469Y0229507D01*
X0159662Y0229462D01*
X0159854Y0229412D01*
X0160045Y0229358D01*
X0160234Y0229299D01*
X0160422Y0229235D01*
X0160608Y0229167D01*
X0160792Y0229095D01*
X0160975Y0229018D01*
X0161155Y0228936D01*
X0161334Y0228851D01*
X0161511Y0228761D01*
X0161685Y0228667D01*
X0161857Y0228568D01*
X0162027Y0228466D01*
X0162194Y0228359D01*
X0162358Y0228248D01*
X0162520Y0228134D01*
X0162679Y0228016D01*
X0162835Y0227893D01*
X0162988Y0227767D01*
X0163138Y0227638D01*
X0163284Y0227505D01*
X0163428Y0227368D01*
X0163568Y0227228D01*
X0163705Y0227084D01*
X0163838Y0226938D01*
X0163967Y0226788D01*
X0164093Y0226635D01*
X0164216Y0226479D01*
X0164334Y0226320D01*
X0164448Y0226158D01*
X0164559Y0225994D01*
X0164666Y0225827D01*
X0164768Y0225657D01*
X0164867Y0225485D01*
X0164961Y0225311D01*
X0165051Y0225134D01*
X0165136Y0224955D01*
X0165218Y0224775D01*
X0165295Y0224592D01*
X0165367Y0224408D01*
X0165435Y0224222D01*
X0165499Y0224034D01*
X0165558Y0223845D01*
X0165612Y0223654D01*
X0165662Y0223462D01*
X0165707Y0223269D01*
X0165747Y0223075D01*
X0165783Y0222881D01*
X0165814Y0222685D01*
X0165840Y0222488D01*
X0165862Y0222291D01*
X0165878Y0222094D01*
X0165890Y0221896D01*
X0165898Y0221698D01*
X0165900Y0221500D01*
X0165908Y0220843D01*
X0165932Y0220186D01*
X0165971Y0219530D01*
X0166027Y0218875D01*
X0166098Y0218221D01*
X0166185Y0217570D01*
X0166288Y0216921D01*
X0166407Y0216274D01*
X0166541Y0215631D01*
X0166690Y0214991D01*
X0166855Y0214354D01*
X0167036Y0213722D01*
X0167231Y0213095D01*
X0167442Y0212472D01*
X0167668Y0211855D01*
X0167908Y0211243D01*
X0168163Y0210637D01*
X0168433Y0210038D01*
X0168717Y0209445D01*
X0169016Y0208860D01*
X0169328Y0208281D01*
X0169654Y0207711D01*
X0169994Y0207148D01*
X0170348Y0206594D01*
X0170715Y0206049D01*
X0171095Y0205512D01*
X0171487Y0204985D01*
X0171893Y0204468D01*
X0172311Y0203960D01*
X0172741Y0203463D01*
X0173182Y0202976D01*
X0173636Y0202500D01*
X0174100Y0202036D01*
X0174576Y0201582D01*
X0175063Y0201141D01*
X0175560Y0200711D01*
X0176068Y0200293D01*
X0176585Y0199887D01*
X0177112Y0199495D01*
X0177649Y0199115D01*
X0178194Y0198748D01*
X0178748Y0198394D01*
X0179311Y0198054D01*
X0179881Y0197728D01*
X0180460Y0197416D01*
X0181045Y0197117D01*
X0181638Y0196833D01*
X0182237Y0196563D01*
X0182843Y0196308D01*
X0183455Y0196068D01*
X0184072Y0195842D01*
X0184695Y0195631D01*
X0185322Y0195436D01*
X0185954Y0195255D01*
X0186591Y0195090D01*
X0187231Y0194941D01*
X0187874Y0194807D01*
X0188521Y0194688D01*
X0189170Y0194585D01*
X0189821Y0194498D01*
X0190475Y0194427D01*
X0191130Y0194371D01*
X0191786Y0194332D01*
X0192443Y0194308D01*
X0193100Y0194300D01*
X0193100Y0194350D02*
X0193300Y0194349D01*
X0193500Y0194343D01*
X0193700Y0194332D01*
X0193899Y0194316D01*
X0194098Y0194295D01*
X0194297Y0194270D01*
X0194495Y0194240D01*
X0194692Y0194205D01*
X0194888Y0194165D01*
X0195083Y0194120D01*
X0195277Y0194071D01*
X0195470Y0194017D01*
X0195661Y0193959D01*
X0195851Y0193895D01*
X0196039Y0193828D01*
X0196226Y0193755D01*
X0196411Y0193678D01*
X0196594Y0193597D01*
X0196774Y0193511D01*
X0196953Y0193421D01*
X0197130Y0193327D01*
X0197304Y0193228D01*
X0197475Y0193125D01*
X0197645Y0193018D01*
X0197811Y0192907D01*
X0197975Y0192792D01*
X0198136Y0192673D01*
X0198294Y0192550D01*
X0198449Y0192424D01*
X0198600Y0192293D01*
X0198749Y0192159D01*
X0198894Y0192022D01*
X0199036Y0191880D01*
X0199175Y0191736D01*
X0199310Y0191588D01*
X0199441Y0191437D01*
X0199569Y0191283D01*
X0199693Y0191126D01*
X0199813Y0190965D01*
X0199929Y0190802D01*
X0200041Y0190637D01*
X0200149Y0190468D01*
X0200253Y0190297D01*
X0200352Y0190124D01*
X0200448Y0189948D01*
X0200539Y0189770D01*
X0200626Y0189589D01*
X0200708Y0189407D01*
X0200786Y0189222D01*
X0200860Y0189036D01*
X0200929Y0188848D01*
X0200993Y0188659D01*
X0201053Y0188468D01*
X0201108Y0188276D01*
X0201158Y0188082D01*
X0201204Y0187887D01*
X0201245Y0187691D01*
X0201281Y0187494D01*
X0201313Y0187297D01*
X0201339Y0187098D01*
X0201361Y0186899D01*
X0201378Y0186700D01*
X0201390Y0186500D01*
X0201398Y0186300D01*
X0201400Y0186100D01*
X0201400Y0089600D01*
X0201350Y0089600D02*
X0201346Y0089399D01*
X0201338Y0089197D01*
X0201324Y0088996D01*
X0201306Y0088795D01*
X0201282Y0088595D01*
X0201254Y0088395D01*
X0201221Y0088196D01*
X0201183Y0087998D01*
X0201140Y0087801D01*
X0201092Y0087605D01*
X0201040Y0087410D01*
X0200983Y0087217D01*
X0200921Y0087025D01*
X0200855Y0086834D01*
X0200783Y0086645D01*
X0200708Y0086458D01*
X0200627Y0086273D01*
X0200543Y0086090D01*
X0200453Y0085910D01*
X0200360Y0085731D01*
X0200262Y0085555D01*
X0200159Y0085381D01*
X0200053Y0085209D01*
X0199942Y0085041D01*
X0199828Y0084875D01*
X0199709Y0084712D01*
X0199586Y0084552D01*
X0199460Y0084395D01*
X0199329Y0084241D01*
X0199195Y0084090D01*
X0199057Y0083943D01*
X0198916Y0083799D01*
X0198771Y0083658D01*
X0198623Y0083522D01*
X0198472Y0083388D01*
X0198317Y0083259D01*
X0198159Y0083133D01*
X0197998Y0083012D01*
X0197835Y0082894D01*
X0197668Y0082780D01*
X0197499Y0082670D01*
X0197327Y0082565D01*
X0197152Y0082464D01*
X0196975Y0082367D01*
X0196796Y0082274D01*
X0196615Y0082186D01*
X0196431Y0082102D01*
X0196246Y0082023D01*
X0196058Y0081949D01*
X0195869Y0081879D01*
X0195678Y0081813D01*
X0195486Y0081753D01*
X0195292Y0081697D01*
X0195097Y0081645D01*
X0194901Y0081599D01*
X0194703Y0081557D01*
X0194505Y0081521D01*
X0194306Y0081489D01*
X0194106Y0081462D01*
X0193906Y0081439D01*
X0193705Y0081422D01*
X0193503Y0081410D01*
X0193302Y0081402D01*
X0193100Y0081400D01*
X0192395Y0081391D01*
X0191690Y0081366D01*
X0190986Y0081323D01*
X0190284Y0081264D01*
X0189583Y0081187D01*
X0188884Y0081093D01*
X0188187Y0080983D01*
X0187493Y0080856D01*
X0186803Y0080712D01*
X0186116Y0080551D01*
X0185434Y0080374D01*
X0184756Y0080180D01*
X0184083Y0079970D01*
X0183415Y0079744D01*
X0182752Y0079502D01*
X0182096Y0079243D01*
X0181447Y0078969D01*
X0180804Y0078680D01*
X0180168Y0078374D01*
X0179540Y0078054D01*
X0178919Y0077718D01*
X0178308Y0077368D01*
X0177704Y0077003D01*
X0177110Y0076623D01*
X0176525Y0076229D01*
X0175950Y0075821D01*
X0175385Y0075399D01*
X0174830Y0074964D01*
X0174286Y0074515D01*
X0173753Y0074054D01*
X0173231Y0073579D01*
X0172721Y0073092D01*
X0172223Y0072593D01*
X0171737Y0072082D01*
X0171263Y0071560D01*
X0170802Y0071026D01*
X0170355Y0070481D01*
X0169920Y0069926D01*
X0169500Y0069360D01*
X0169093Y0068784D01*
X0168700Y0068198D01*
X0168321Y0067603D01*
X0167957Y0066999D01*
X0167607Y0066387D01*
X0167273Y0065766D01*
X0166953Y0065137D01*
X0166649Y0064501D01*
X0166361Y0063858D01*
X0166088Y0063207D01*
X0165831Y0062551D01*
X0165589Y0061888D01*
X0165364Y0061220D01*
X0165155Y0060546D01*
X0164963Y0059868D01*
X0164787Y0059185D01*
X0164627Y0058498D01*
X0164485Y0057807D01*
X0164359Y0057114D01*
X0164249Y0056417D01*
X0164157Y0055718D01*
X0164082Y0055017D01*
X0164023Y0054314D01*
X0163982Y0053610D01*
X0163957Y0052905D01*
X0163950Y0052200D01*
X0164000Y0052200D02*
X0164000Y0016800D01*
X0163950Y0016800D02*
X0163949Y0016600D01*
X0163943Y0016400D01*
X0163932Y0016200D01*
X0163916Y0016000D01*
X0163895Y0015801D01*
X0163870Y0015603D01*
X0163840Y0015405D01*
X0163805Y0015208D01*
X0163765Y0015012D01*
X0163720Y0014816D01*
X0163671Y0014623D01*
X0163617Y0014430D01*
X0163558Y0014238D01*
X0163495Y0014049D01*
X0163427Y0013860D01*
X0163355Y0013674D01*
X0163278Y0013489D01*
X0163197Y0013306D01*
X0163111Y0013125D01*
X0163021Y0012947D01*
X0162927Y0012770D01*
X0162828Y0012596D01*
X0162725Y0012424D01*
X0162618Y0012255D01*
X0162507Y0012089D01*
X0162392Y0011925D01*
X0162273Y0011764D01*
X0162150Y0011606D01*
X0162023Y0011451D01*
X0161893Y0011299D01*
X0161759Y0011151D01*
X0161621Y0011005D01*
X0161480Y0010863D01*
X0161336Y0010725D01*
X0161188Y0010590D01*
X0161037Y0010459D01*
X0160883Y0010331D01*
X0160725Y0010207D01*
X0160565Y0010087D01*
X0160402Y0009971D01*
X0160236Y0009859D01*
X0160068Y0009751D01*
X0159897Y0009647D01*
X0159723Y0009548D01*
X0159547Y0009452D01*
X0159369Y0009361D01*
X0159189Y0009274D01*
X0159007Y0009192D01*
X0158822Y0009114D01*
X0158636Y0009040D01*
X0158448Y0008971D01*
X0158259Y0008907D01*
X0158068Y0008847D01*
X0157875Y0008792D01*
X0157682Y0008742D01*
X0157487Y0008696D01*
X0157291Y0008655D01*
X0157094Y0008619D01*
X0156897Y0008587D01*
X0156698Y0008561D01*
X0156499Y0008539D01*
X0156300Y0008522D01*
X0156100Y0008510D01*
X0155900Y0008502D01*
X0155700Y0008500D01*
X0047500Y0008500D01*
X0047500Y0008550D02*
X0047300Y0008551D01*
X0047100Y0008557D01*
X0046900Y0008568D01*
X0046700Y0008584D01*
X0046501Y0008605D01*
X0046303Y0008630D01*
X0046105Y0008660D01*
X0045908Y0008695D01*
X0045712Y0008735D01*
X0045516Y0008780D01*
X0045323Y0008829D01*
X0045130Y0008883D01*
X0044938Y0008942D01*
X0044749Y0009005D01*
X0044560Y0009073D01*
X0044374Y0009145D01*
X0044189Y0009222D01*
X0044006Y0009303D01*
X0043825Y0009389D01*
X0043647Y0009479D01*
X0043470Y0009573D01*
X0043296Y0009672D01*
X0043124Y0009775D01*
X0042955Y0009882D01*
X0042789Y0009993D01*
X0042625Y0010108D01*
X0042464Y0010227D01*
X0042306Y0010350D01*
X0042151Y0010477D01*
X0041999Y0010607D01*
X0041851Y0010741D01*
X0041705Y0010879D01*
X0041563Y0011020D01*
X0041425Y0011164D01*
X0041290Y0011312D01*
X0041159Y0011463D01*
X0041031Y0011617D01*
X0040907Y0011775D01*
X0040787Y0011935D01*
X0040671Y0012098D01*
X0040559Y0012264D01*
X0040451Y0012432D01*
X0040347Y0012603D01*
X0040248Y0012777D01*
X0040152Y0012953D01*
X0040061Y0013131D01*
X0039974Y0013311D01*
X0039892Y0013493D01*
X0039814Y0013678D01*
X0039740Y0013864D01*
X0039671Y0014052D01*
X0039607Y0014241D01*
X0039547Y0014432D01*
X0039492Y0014625D01*
X0039442Y0014818D01*
X0039396Y0015013D01*
X0039355Y0015209D01*
X0039319Y0015406D01*
X0039287Y0015603D01*
X0039261Y0015802D01*
X0039239Y0016001D01*
X0039222Y0016200D01*
X0039210Y0016400D01*
X0039202Y0016600D01*
X0039200Y0016800D01*
M02*
