%
M48
M72
T01C0.0197
T02C0.0236
T03C0.0400
%
T01
X6180Y4750
X6760Y3230
X10240Y3450
X12820Y3430
X13580Y4930
X14300Y5590
X12720Y5590
X13260Y7290
X13960Y7270
X14780Y8110
X14780Y10210
X12160Y12310
X11680Y11920
X11590Y12780
X10240Y11570
X10250Y10290
X10080Y13060
X7910Y13940
X6750Y13500
X5480Y11760
X6570Y8270
X1730Y10460
X1780Y11210
X1730Y12060
X1780Y12810
X5380Y16310
X6730Y16310
X6730Y19910
X5380Y19910
X14460Y3370
T02
X11100Y5340
X10640Y5650
X10280Y7810
X12280Y10460
X14680Y11230
X10630Y12910
X10280Y15710
X14560Y18350
X6420Y10070
X5060Y9990
X3180Y13750
X3900Y14230
X5380Y13910
X7280Y6110
X7380Y3990
X8560Y3570
T03
X2130Y5110
X2230Y6110
X2130Y7110
X2230Y8110
X2130Y9110
X4740Y1550
X5740Y1550
X6740Y1550
X7740Y1550
X8740Y1550
X9740Y1550
X10780Y1550
X11780Y1550
X12780Y1550
X13780Y1550
X14780Y1550
X15780Y1550
X19190Y15020
X19190Y16160
X16147Y21010
X15147Y21010
X14147Y21010
X13147Y21010
X12147Y21010
X11147Y21010
X8080Y20960
X7080Y21060
X6080Y20960
X5080Y21060
M30
