G75*
%MOIN*%
%OFA0B0*%
%FSLAX25Y25*%
%IPPOS*%
%LPD*%
%AMOC8*
5,1,8,0,0,1.08239X$1,22.5*
%
%ADD10C,0.05543*%
%ADD11C,0.07400*%
%ADD12R,0.05543X0.05543*%
%ADD13R,0.03937X0.04331*%
%ADD14R,0.04331X0.03937*%
%ADD15C,0.01600*%
%ADD16C,0.03962*%
%ADD17C,0.02000*%
D10*
X0057400Y0017000D03*
X0067400Y0017000D03*
X0077400Y0017000D03*
X0087400Y0017000D03*
X0097400Y0017000D03*
X0117800Y0017000D03*
X0127800Y0017000D03*
X0137800Y0017000D03*
X0147800Y0017000D03*
X0157800Y0017000D03*
X0114100Y0088200D03*
X0114100Y0100600D03*
X0107850Y0111350D03*
X0101600Y0100600D03*
X0101600Y0088200D03*
X0089100Y0088200D03*
X0089100Y0100600D03*
X0082850Y0111350D03*
X0076600Y0100600D03*
X0070350Y0111350D03*
X0070350Y0123850D03*
X0076600Y0134600D03*
X0082850Y0123850D03*
X0089100Y0134600D03*
X0089100Y0147000D03*
X0101600Y0147000D03*
X0101600Y0134600D03*
X0095350Y0123850D03*
X0095350Y0111350D03*
X0107850Y0123850D03*
X0114100Y0134600D03*
X0114100Y0147000D03*
X0126600Y0134600D03*
X0120350Y0123850D03*
X0120350Y0111350D03*
X0126600Y0100600D03*
X0132850Y0111350D03*
X0132850Y0123850D03*
X0131474Y0211599D03*
X0121474Y0211599D03*
X0141474Y0211599D03*
X0151474Y0211599D03*
X0161474Y0211599D03*
X0100674Y0211611D03*
X0090674Y0211611D03*
X0080674Y0211611D03*
X0070674Y0211611D03*
X0060674Y0211611D03*
D11*
X0170074Y0138252D03*
X0180074Y0138252D03*
X0190074Y0138252D03*
D12*
X0111474Y0211599D03*
X0050674Y0211611D03*
X0047400Y0017000D03*
X0107800Y0017000D03*
D13*
X0073674Y0051548D03*
X0073674Y0058241D03*
X0065485Y0058041D03*
X0065485Y0051348D03*
X0057296Y0051348D03*
X0057296Y0058041D03*
X0048773Y0058041D03*
X0048773Y0051348D03*
D14*
X0122854Y0074000D03*
X0129546Y0074000D03*
D15*
X0105400Y0037373D02*
X0036752Y0037373D01*
X0036895Y0037231D02*
X0032431Y0041695D01*
X0032431Y0041695D01*
X0027181Y0045202D01*
X0021349Y0047618D01*
X0021349Y0047618D01*
X0015157Y0048850D01*
X0011484Y0048850D01*
X0010494Y0049177D01*
X0009639Y0049803D01*
X0009018Y0050662D01*
X0008692Y0051670D01*
X0008650Y0052200D01*
X0008650Y0149216D01*
X0008977Y0150206D01*
X0009603Y0151061D01*
X0010462Y0151682D01*
X0011470Y0152008D01*
X0012000Y0152050D01*
X0015352Y0152050D01*
X0021928Y0153359D01*
X0028121Y0155928D01*
X0028121Y0155928D01*
X0033694Y0159656D01*
X0038431Y0164401D01*
X0042150Y0169980D01*
X0042150Y0169980D01*
X0044708Y0176178D01*
X0046006Y0182756D01*
X0046002Y0185019D01*
X0046050Y0185135D01*
X0046050Y0222098D01*
X0046364Y0223081D01*
X0046989Y0223947D01*
X0047851Y0224577D01*
X0048866Y0224908D01*
X0049400Y0224950D01*
X0156494Y0224950D01*
X0156735Y0224850D01*
X0157700Y0224850D01*
X0158224Y0224809D01*
X0159221Y0224485D01*
X0160069Y0223869D01*
X0160685Y0223021D01*
X0161009Y0222024D01*
X0161050Y0221500D01*
X0161050Y0218343D01*
X0161522Y0215971D01*
X0160604Y0215971D01*
X0158998Y0215305D01*
X0157768Y0214076D01*
X0157102Y0212469D01*
X0157102Y0210730D01*
X0157768Y0209123D01*
X0158998Y0207893D01*
X0160604Y0207228D01*
X0162344Y0207228D01*
X0163950Y0207893D01*
X0164018Y0207960D01*
X0164698Y0206319D01*
X0164698Y0206319D01*
X0168205Y0201069D01*
X0172669Y0196605D01*
X0177919Y0193098D01*
X0177919Y0193098D01*
X0183751Y0190682D01*
X0189943Y0189450D01*
X0193698Y0189450D01*
X0194681Y0189136D01*
X0195547Y0188511D01*
X0196177Y0187649D01*
X0196508Y0186634D01*
X0196550Y0186100D01*
X0196550Y0090699D01*
X0196506Y0090594D01*
X0196500Y0089630D01*
X0196455Y0089100D01*
X0196123Y0088094D01*
X0195497Y0087239D01*
X0194638Y0086618D01*
X0193630Y0086292D01*
X0193100Y0086250D01*
X0189748Y0086250D01*
X0183172Y0084941D01*
X0176979Y0082372D01*
X0176979Y0082372D01*
X0171406Y0078643D01*
X0166669Y0073898D01*
X0162950Y0068320D01*
X0160392Y0062122D01*
X0159094Y0055544D01*
X0159100Y0052192D01*
X0159102Y0051227D01*
X0159150Y0051111D01*
X0159150Y0021173D01*
X0158670Y0021372D01*
X0156930Y0021372D01*
X0155324Y0020706D01*
X0154094Y0019476D01*
X0153428Y0017870D01*
X0153428Y0016130D01*
X0154094Y0014524D01*
X0155268Y0013350D01*
X0150332Y0013350D01*
X0151506Y0014524D01*
X0152172Y0016130D01*
X0152172Y0017870D01*
X0151506Y0019476D01*
X0150276Y0020706D01*
X0148670Y0021372D01*
X0146930Y0021372D01*
X0145324Y0020706D01*
X0144094Y0019476D01*
X0143428Y0017870D01*
X0143428Y0016130D01*
X0144094Y0014524D01*
X0145268Y0013350D01*
X0140332Y0013350D01*
X0141506Y0014524D01*
X0142172Y0016130D01*
X0142172Y0017870D01*
X0141506Y0019476D01*
X0140488Y0020494D01*
X0146359Y0026365D01*
X0147035Y0027041D01*
X0147400Y0027923D01*
X0147400Y0047536D01*
X0148036Y0048171D01*
X0148581Y0049488D01*
X0148581Y0050912D01*
X0148036Y0052229D01*
X0147029Y0053236D01*
X0145712Y0053781D01*
X0144288Y0053781D01*
X0142971Y0053236D01*
X0141964Y0052229D01*
X0141419Y0050912D01*
X0141419Y0049488D01*
X0141964Y0048171D01*
X0142600Y0047536D01*
X0142600Y0029394D01*
X0135765Y0022559D01*
X0135400Y0021677D01*
X0135400Y0020738D01*
X0135324Y0020706D01*
X0134094Y0019476D01*
X0133428Y0017870D01*
X0133428Y0016130D01*
X0134094Y0014524D01*
X0135268Y0013350D01*
X0130332Y0013350D01*
X0131506Y0014524D01*
X0132172Y0016130D01*
X0132172Y0017870D01*
X0131506Y0019476D01*
X0130276Y0020706D01*
X0128670Y0021372D01*
X0126930Y0021372D01*
X0125324Y0020706D01*
X0124094Y0019476D01*
X0123428Y0017870D01*
X0123428Y0016130D01*
X0124094Y0014524D01*
X0125268Y0013350D01*
X0120332Y0013350D01*
X0121506Y0014524D01*
X0122172Y0016130D01*
X0122172Y0017870D01*
X0121506Y0019476D01*
X0120276Y0020706D01*
X0118670Y0021372D01*
X0116930Y0021372D01*
X0115324Y0020706D01*
X0114094Y0019476D01*
X0113428Y0017870D01*
X0113428Y0016130D01*
X0114094Y0014524D01*
X0115268Y0013350D01*
X0111956Y0013350D01*
X0112172Y0013566D01*
X0112172Y0020434D01*
X0111234Y0021372D01*
X0110200Y0021372D01*
X0110200Y0052536D01*
X0110836Y0053171D01*
X0111381Y0054488D01*
X0111381Y0055912D01*
X0110836Y0057229D01*
X0109829Y0058236D01*
X0108512Y0058781D01*
X0107088Y0058781D01*
X0105771Y0058236D01*
X0104764Y0057229D01*
X0104219Y0055912D01*
X0104219Y0054488D01*
X0104764Y0053171D01*
X0105400Y0052536D01*
X0105400Y0021372D01*
X0104366Y0021372D01*
X0103428Y0020434D01*
X0103428Y0013566D01*
X0103644Y0013350D01*
X0099932Y0013350D01*
X0101106Y0014524D01*
X0101772Y0016130D01*
X0101772Y0017870D01*
X0101106Y0019476D01*
X0099876Y0020706D01*
X0098270Y0021372D01*
X0096530Y0021372D01*
X0094924Y0020706D01*
X0093694Y0019476D01*
X0093028Y0017870D01*
X0093028Y0016130D01*
X0093694Y0014524D01*
X0094868Y0013350D01*
X0089932Y0013350D01*
X0091106Y0014524D01*
X0091772Y0016130D01*
X0091772Y0017870D01*
X0091106Y0019476D01*
X0089876Y0020706D01*
X0088270Y0021372D01*
X0086530Y0021372D01*
X0084924Y0020706D01*
X0083694Y0019476D01*
X0083028Y0017870D01*
X0083028Y0016130D01*
X0083694Y0014524D01*
X0084868Y0013350D01*
X0079932Y0013350D01*
X0081106Y0014524D01*
X0081772Y0016130D01*
X0081772Y0017870D01*
X0081106Y0019476D01*
X0079876Y0020706D01*
X0078270Y0021372D01*
X0076530Y0021372D01*
X0074924Y0020706D01*
X0073694Y0019476D01*
X0073028Y0017870D01*
X0073028Y0016130D01*
X0073694Y0014524D01*
X0074868Y0013350D01*
X0069932Y0013350D01*
X0071106Y0014524D01*
X0071772Y0016130D01*
X0071772Y0017870D01*
X0071106Y0019476D01*
X0069876Y0020706D01*
X0068270Y0021372D01*
X0066530Y0021372D01*
X0064924Y0020706D01*
X0063694Y0019476D01*
X0063028Y0017870D01*
X0063028Y0016130D01*
X0063694Y0014524D01*
X0064868Y0013350D01*
X0059932Y0013350D01*
X0061106Y0014524D01*
X0061772Y0016130D01*
X0061772Y0017870D01*
X0061106Y0019476D01*
X0059876Y0020706D01*
X0058270Y0021372D01*
X0056530Y0021372D01*
X0054924Y0020706D01*
X0053694Y0019476D01*
X0053028Y0017870D01*
X0053028Y0016130D01*
X0053694Y0014524D01*
X0054868Y0013350D01*
X0051556Y0013350D01*
X0051772Y0013566D01*
X0051772Y0020434D01*
X0050834Y0021372D01*
X0043966Y0021372D01*
X0043801Y0021207D01*
X0042818Y0026149D01*
X0040402Y0031981D01*
X0036895Y0037231D01*
X0036895Y0037231D01*
X0037868Y0035775D02*
X0105400Y0035775D01*
X0105400Y0034176D02*
X0038936Y0034176D01*
X0040004Y0032578D02*
X0105400Y0032578D01*
X0105400Y0030979D02*
X0040817Y0030979D01*
X0040402Y0031981D02*
X0040402Y0031981D01*
X0041480Y0029381D02*
X0105400Y0029381D01*
X0105400Y0027782D02*
X0042142Y0027782D01*
X0042804Y0026184D02*
X0105400Y0026184D01*
X0105400Y0024585D02*
X0043129Y0024585D01*
X0042818Y0026149D02*
X0042818Y0026149D01*
X0043447Y0022987D02*
X0105400Y0022987D01*
X0105400Y0021388D02*
X0043765Y0021388D01*
X0051772Y0019790D02*
X0054007Y0019790D01*
X0053162Y0018191D02*
X0051772Y0018191D01*
X0051772Y0016593D02*
X0053028Y0016593D01*
X0053499Y0014994D02*
X0051772Y0014994D01*
X0051602Y0013396D02*
X0054822Y0013396D01*
X0059978Y0013396D02*
X0064822Y0013396D01*
X0063499Y0014994D02*
X0061301Y0014994D01*
X0061772Y0016593D02*
X0063028Y0016593D01*
X0063162Y0018191D02*
X0061638Y0018191D01*
X0060793Y0019790D02*
X0064007Y0019790D01*
X0070793Y0019790D02*
X0074007Y0019790D01*
X0073162Y0018191D02*
X0071638Y0018191D01*
X0071772Y0016593D02*
X0073028Y0016593D01*
X0073499Y0014994D02*
X0071301Y0014994D01*
X0069978Y0013396D02*
X0074822Y0013396D01*
X0079978Y0013396D02*
X0084822Y0013396D01*
X0083499Y0014994D02*
X0081301Y0014994D01*
X0081772Y0016593D02*
X0083028Y0016593D01*
X0083162Y0018191D02*
X0081638Y0018191D01*
X0080793Y0019790D02*
X0084007Y0019790D01*
X0090793Y0019790D02*
X0094007Y0019790D01*
X0093162Y0018191D02*
X0091638Y0018191D01*
X0091772Y0016593D02*
X0093028Y0016593D01*
X0093499Y0014994D02*
X0091301Y0014994D01*
X0089978Y0013396D02*
X0094822Y0013396D01*
X0099978Y0013396D02*
X0103598Y0013396D01*
X0103428Y0014994D02*
X0101301Y0014994D01*
X0101772Y0016593D02*
X0103428Y0016593D01*
X0103428Y0018191D02*
X0101638Y0018191D01*
X0100793Y0019790D02*
X0103428Y0019790D01*
X0107800Y0017000D02*
X0107800Y0055200D01*
X0104485Y0056555D02*
X0077243Y0056555D01*
X0077243Y0055413D02*
X0077243Y0061069D01*
X0076488Y0061824D01*
X0076836Y0062171D01*
X0077381Y0063488D01*
X0077381Y0064912D01*
X0076836Y0066229D01*
X0075829Y0067236D01*
X0074512Y0067781D01*
X0073088Y0067781D01*
X0071771Y0067236D01*
X0070764Y0066229D01*
X0070219Y0064912D01*
X0070219Y0063488D01*
X0070764Y0062171D01*
X0070986Y0061950D01*
X0070106Y0061069D01*
X0070106Y0055413D01*
X0070482Y0055036D01*
X0070265Y0054819D01*
X0070028Y0054408D01*
X0069906Y0053950D01*
X0069905Y0051732D01*
X0073490Y0051732D01*
X0073490Y0051364D01*
X0073858Y0051364D01*
X0073858Y0047583D01*
X0075879Y0047583D01*
X0076337Y0047705D01*
X0076748Y0047942D01*
X0077083Y0048277D01*
X0077320Y0048688D01*
X0077443Y0049146D01*
X0077443Y0051364D01*
X0073858Y0051364D01*
X0073858Y0051732D01*
X0077443Y0051732D01*
X0077443Y0053950D01*
X0077320Y0054408D01*
X0077083Y0054819D01*
X0076866Y0055036D01*
X0077243Y0055413D01*
X0076945Y0054957D02*
X0104219Y0054957D01*
X0104687Y0053358D02*
X0077443Y0053358D01*
X0077443Y0051760D02*
X0105400Y0051760D01*
X0105400Y0050161D02*
X0077443Y0050161D01*
X0077248Y0048563D02*
X0105400Y0048563D01*
X0105400Y0046964D02*
X0022928Y0046964D01*
X0026787Y0045366D02*
X0105400Y0045366D01*
X0105400Y0043767D02*
X0029329Y0043767D01*
X0027181Y0045202D02*
X0027181Y0045202D01*
X0031721Y0042169D02*
X0105400Y0042169D01*
X0105400Y0040570D02*
X0033555Y0040570D01*
X0035154Y0038972D02*
X0105400Y0038972D01*
X0110200Y0038972D02*
X0142600Y0038972D01*
X0142600Y0040570D02*
X0110200Y0040570D01*
X0110200Y0042169D02*
X0142600Y0042169D01*
X0142600Y0043767D02*
X0110200Y0043767D01*
X0110200Y0045366D02*
X0142600Y0045366D01*
X0142600Y0046964D02*
X0110200Y0046964D01*
X0110200Y0048563D02*
X0141802Y0048563D01*
X0141419Y0050161D02*
X0110200Y0050161D01*
X0110200Y0051760D02*
X0141770Y0051760D01*
X0143267Y0053358D02*
X0110913Y0053358D01*
X0111381Y0054957D02*
X0159095Y0054957D01*
X0159094Y0055544D02*
X0159094Y0055544D01*
X0159294Y0056555D02*
X0111115Y0056555D01*
X0109911Y0058154D02*
X0159609Y0058154D01*
X0159925Y0059752D02*
X0077243Y0059752D01*
X0077243Y0058154D02*
X0105689Y0058154D01*
X0119248Y0070926D02*
X0119583Y0070591D01*
X0119993Y0070354D01*
X0120451Y0070231D01*
X0122669Y0070231D01*
X0122669Y0073816D01*
X0118888Y0073816D01*
X0118888Y0071795D01*
X0119011Y0071337D01*
X0119248Y0070926D01*
X0119239Y0070942D02*
X0008650Y0070942D01*
X0008650Y0072540D02*
X0118888Y0072540D01*
X0118888Y0074184D02*
X0122669Y0074184D01*
X0122669Y0073816D01*
X0123038Y0073816D01*
X0123038Y0070231D01*
X0125256Y0070231D01*
X0125714Y0070354D01*
X0126124Y0070591D01*
X0126341Y0070808D01*
X0126718Y0070431D01*
X0132375Y0070431D01*
X0133019Y0071076D01*
X0133019Y0070488D01*
X0133564Y0069171D01*
X0134571Y0068164D01*
X0135888Y0067619D01*
X0137312Y0067619D01*
X0138629Y0068164D01*
X0139636Y0069171D01*
X0140181Y0070488D01*
X0140181Y0071912D01*
X0139636Y0073229D01*
X0139200Y0073664D01*
X0139200Y0083923D01*
X0148873Y0093596D01*
X0149604Y0094327D01*
X0150000Y0095283D01*
X0150000Y0139517D01*
X0149604Y0140473D01*
X0124000Y0166077D01*
X0124000Y0207943D01*
X0125180Y0209123D01*
X0125846Y0210730D01*
X0125846Y0212469D01*
X0125180Y0214076D01*
X0123950Y0215305D01*
X0122344Y0215971D01*
X0120604Y0215971D01*
X0118998Y0215305D01*
X0117768Y0214076D01*
X0117102Y0212469D01*
X0117102Y0210730D01*
X0117768Y0209123D01*
X0118800Y0208091D01*
X0118800Y0164483D01*
X0119196Y0163527D01*
X0119927Y0162796D01*
X0144800Y0137923D01*
X0144800Y0096877D01*
X0134396Y0086473D01*
X0134000Y0085517D01*
X0134000Y0076600D01*
X0133312Y0076600D01*
X0133312Y0076631D01*
X0132375Y0077568D01*
X0126718Y0077568D01*
X0126341Y0077192D01*
X0126124Y0077409D01*
X0125714Y0077646D01*
X0125256Y0077768D01*
X0123038Y0077768D01*
X0123038Y0074184D01*
X0122669Y0074184D01*
X0122669Y0077768D01*
X0120451Y0077768D01*
X0119993Y0077646D01*
X0119583Y0077409D01*
X0119248Y0077074D01*
X0119011Y0076663D01*
X0118888Y0076205D01*
X0118888Y0074184D01*
X0118888Y0075737D02*
X0008650Y0075737D01*
X0008650Y0074139D02*
X0122669Y0074139D01*
X0122669Y0075737D02*
X0123038Y0075737D01*
X0123038Y0077336D02*
X0122669Y0077336D01*
X0119510Y0077336D02*
X0008650Y0077336D01*
X0008650Y0078934D02*
X0134000Y0078934D01*
X0134000Y0077336D02*
X0132607Y0077336D01*
X0134000Y0080533D02*
X0008650Y0080533D01*
X0008650Y0082132D02*
X0134000Y0082132D01*
X0134000Y0083730D02*
X0008650Y0083730D01*
X0008650Y0085329D02*
X0085789Y0085329D01*
X0085394Y0085724D02*
X0086624Y0084494D01*
X0088230Y0083828D01*
X0089970Y0083828D01*
X0091576Y0084494D01*
X0092806Y0085724D01*
X0093472Y0087330D01*
X0093472Y0089070D01*
X0092806Y0090676D01*
X0091576Y0091906D01*
X0089970Y0092572D01*
X0088230Y0092572D01*
X0086624Y0091906D01*
X0085394Y0090676D01*
X0084728Y0089070D01*
X0084728Y0087330D01*
X0085394Y0085724D01*
X0084895Y0086927D02*
X0008650Y0086927D01*
X0008650Y0088526D02*
X0084728Y0088526D01*
X0085165Y0090124D02*
X0008650Y0090124D01*
X0008650Y0091723D02*
X0086440Y0091723D01*
X0088230Y0096228D02*
X0086624Y0096894D01*
X0085394Y0098124D01*
X0084728Y0099730D01*
X0084728Y0101470D01*
X0085394Y0103076D01*
X0086624Y0104306D01*
X0088230Y0104972D01*
X0089970Y0104972D01*
X0091576Y0104306D01*
X0092806Y0103076D01*
X0093472Y0101470D01*
X0093472Y0099730D01*
X0092806Y0098124D01*
X0091576Y0096894D01*
X0089970Y0096228D01*
X0088230Y0096228D01*
X0087531Y0096518D02*
X0078169Y0096518D01*
X0077470Y0096228D02*
X0079076Y0096894D01*
X0080306Y0098124D01*
X0080972Y0099730D01*
X0080972Y0101470D01*
X0080306Y0103076D01*
X0079076Y0104306D01*
X0077470Y0104972D01*
X0075730Y0104972D01*
X0074124Y0104306D01*
X0072894Y0103076D01*
X0072228Y0101470D01*
X0072228Y0099730D01*
X0072894Y0098124D01*
X0074124Y0096894D01*
X0075730Y0096228D01*
X0077470Y0096228D01*
X0075031Y0096518D02*
X0008650Y0096518D01*
X0008650Y0094920D02*
X0142843Y0094920D01*
X0144441Y0096518D02*
X0128169Y0096518D01*
X0127470Y0096228D02*
X0129076Y0096894D01*
X0130306Y0098124D01*
X0130972Y0099730D01*
X0130972Y0101470D01*
X0130306Y0103076D01*
X0129076Y0104306D01*
X0127470Y0104972D01*
X0125730Y0104972D01*
X0124124Y0104306D01*
X0122894Y0103076D01*
X0122228Y0101470D01*
X0122228Y0099730D01*
X0122894Y0098124D01*
X0124124Y0096894D01*
X0125730Y0096228D01*
X0127470Y0096228D01*
X0125031Y0096518D02*
X0115669Y0096518D01*
X0114970Y0096228D02*
X0116576Y0096894D01*
X0117806Y0098124D01*
X0118472Y0099730D01*
X0118472Y0101470D01*
X0117806Y0103076D01*
X0116576Y0104306D01*
X0114970Y0104972D01*
X0113230Y0104972D01*
X0111624Y0104306D01*
X0110394Y0103076D01*
X0109728Y0101470D01*
X0109728Y0099730D01*
X0110394Y0098124D01*
X0111624Y0096894D01*
X0113230Y0096228D01*
X0114970Y0096228D01*
X0112531Y0096518D02*
X0103169Y0096518D01*
X0102470Y0096228D02*
X0104076Y0096894D01*
X0105306Y0098124D01*
X0105972Y0099730D01*
X0105972Y0101470D01*
X0105306Y0103076D01*
X0104076Y0104306D01*
X0102470Y0104972D01*
X0100730Y0104972D01*
X0099124Y0104306D01*
X0097894Y0103076D01*
X0097228Y0101470D01*
X0097228Y0099730D01*
X0097894Y0098124D01*
X0099124Y0096894D01*
X0100730Y0096228D01*
X0102470Y0096228D01*
X0105299Y0098117D02*
X0110401Y0098117D01*
X0109735Y0099715D02*
X0105965Y0099715D01*
X0105972Y0101314D02*
X0109728Y0101314D01*
X0110326Y0102912D02*
X0105374Y0102912D01*
X0103582Y0104511D02*
X0112118Y0104511D01*
X0110326Y0107644D02*
X0111556Y0108874D01*
X0112222Y0110480D01*
X0112222Y0112220D01*
X0111556Y0113826D01*
X0110326Y0115056D01*
X0108720Y0115722D01*
X0106980Y0115722D01*
X0105374Y0115056D01*
X0104144Y0113826D01*
X0103478Y0112220D01*
X0103478Y0110480D01*
X0104144Y0108874D01*
X0105374Y0107644D01*
X0106980Y0106978D01*
X0108720Y0106978D01*
X0110326Y0107644D01*
X0110390Y0107708D02*
X0117585Y0107708D01*
X0117372Y0107863D02*
X0117954Y0107440D01*
X0118595Y0107113D01*
X0119279Y0106891D01*
X0119990Y0106778D01*
X0120264Y0106778D01*
X0120264Y0111264D01*
X0120436Y0111264D01*
X0120436Y0111436D01*
X0124922Y0111436D01*
X0124922Y0111710D01*
X0124809Y0112421D01*
X0124587Y0113105D01*
X0124260Y0113746D01*
X0123837Y0114328D01*
X0123328Y0114837D01*
X0122746Y0115260D01*
X0122105Y0115587D01*
X0121421Y0115809D01*
X0120710Y0115922D01*
X0120436Y0115922D01*
X0120436Y0111436D01*
X0120264Y0111436D01*
X0120264Y0115922D01*
X0119990Y0115922D01*
X0119279Y0115809D01*
X0118595Y0115587D01*
X0117954Y0115260D01*
X0117372Y0114837D01*
X0116863Y0114328D01*
X0116440Y0113746D01*
X0116113Y0113105D01*
X0115891Y0112421D01*
X0115778Y0111710D01*
X0115778Y0111436D01*
X0120264Y0111436D01*
X0120264Y0111264D01*
X0115778Y0111264D01*
X0115778Y0110990D01*
X0115891Y0110279D01*
X0116113Y0109595D01*
X0116440Y0108954D01*
X0116863Y0108372D01*
X0117372Y0107863D01*
X0116260Y0109306D02*
X0111735Y0109306D01*
X0112222Y0110905D02*
X0115792Y0110905D01*
X0115918Y0112503D02*
X0112104Y0112503D01*
X0111281Y0114102D02*
X0116698Y0114102D01*
X0118945Y0115700D02*
X0108771Y0115700D01*
X0106929Y0115700D02*
X0096271Y0115700D01*
X0096220Y0115722D02*
X0094480Y0115722D01*
X0092874Y0115056D01*
X0091644Y0113826D01*
X0090978Y0112220D01*
X0090978Y0110480D01*
X0091644Y0108874D01*
X0092874Y0107644D01*
X0094480Y0106978D01*
X0096220Y0106978D01*
X0097826Y0107644D01*
X0099056Y0108874D01*
X0099722Y0110480D01*
X0099722Y0112220D01*
X0099056Y0113826D01*
X0097826Y0115056D01*
X0096220Y0115722D01*
X0094429Y0115700D02*
X0083771Y0115700D01*
X0083720Y0115722D02*
X0081980Y0115722D01*
X0080374Y0115056D01*
X0079144Y0113826D01*
X0078478Y0112220D01*
X0078478Y0110480D01*
X0079144Y0108874D01*
X0080374Y0107644D01*
X0081980Y0106978D01*
X0083720Y0106978D01*
X0085326Y0107644D01*
X0086556Y0108874D01*
X0087222Y0110480D01*
X0087222Y0112220D01*
X0086556Y0113826D01*
X0085326Y0115056D01*
X0083720Y0115722D01*
X0081929Y0115700D02*
X0071271Y0115700D01*
X0071220Y0115722D02*
X0069480Y0115722D01*
X0067874Y0115056D01*
X0066644Y0113826D01*
X0065978Y0112220D01*
X0065978Y0110480D01*
X0066644Y0108874D01*
X0067874Y0107644D01*
X0069480Y0106978D01*
X0071220Y0106978D01*
X0072826Y0107644D01*
X0074056Y0108874D01*
X0074722Y0110480D01*
X0074722Y0112220D01*
X0074056Y0113826D01*
X0072826Y0115056D01*
X0071220Y0115722D01*
X0069429Y0115700D02*
X0008650Y0115700D01*
X0008650Y0114102D02*
X0066919Y0114102D01*
X0066096Y0112503D02*
X0008650Y0112503D01*
X0008650Y0110905D02*
X0065978Y0110905D01*
X0066465Y0109306D02*
X0008650Y0109306D01*
X0008650Y0107708D02*
X0067810Y0107708D01*
X0072890Y0107708D02*
X0080310Y0107708D01*
X0078965Y0109306D02*
X0074235Y0109306D01*
X0074722Y0110905D02*
X0078478Y0110905D01*
X0078596Y0112503D02*
X0074604Y0112503D01*
X0073781Y0114102D02*
X0079419Y0114102D01*
X0081980Y0119478D02*
X0080374Y0120144D01*
X0079144Y0121374D01*
X0078478Y0122980D01*
X0078478Y0124720D01*
X0079144Y0126326D01*
X0080374Y0127556D01*
X0081980Y0128222D01*
X0083720Y0128222D01*
X0085326Y0127556D01*
X0086556Y0126326D01*
X0087222Y0124720D01*
X0087222Y0122980D01*
X0086556Y0121374D01*
X0085326Y0120144D01*
X0083720Y0119478D01*
X0081980Y0119478D01*
X0080022Y0120496D02*
X0073461Y0120496D01*
X0073328Y0120363D02*
X0073837Y0120872D01*
X0074260Y0121454D01*
X0074587Y0122095D01*
X0074809Y0122779D01*
X0074922Y0123490D01*
X0074922Y0123764D01*
X0070436Y0123764D01*
X0070436Y0123936D01*
X0074922Y0123936D01*
X0074922Y0124210D01*
X0074809Y0124921D01*
X0074587Y0125605D01*
X0074260Y0126246D01*
X0073837Y0126828D01*
X0073328Y0127337D01*
X0072746Y0127760D01*
X0072105Y0128087D01*
X0071421Y0128309D01*
X0070710Y0128422D01*
X0070436Y0128422D01*
X0070436Y0123936D01*
X0070264Y0123936D01*
X0070264Y0128422D01*
X0069990Y0128422D01*
X0069279Y0128309D01*
X0068595Y0128087D01*
X0067954Y0127760D01*
X0067372Y0127337D01*
X0066863Y0126828D01*
X0066440Y0126246D01*
X0066113Y0125605D01*
X0065891Y0124921D01*
X0065778Y0124210D01*
X0065778Y0123936D01*
X0070264Y0123936D01*
X0070264Y0123764D01*
X0070436Y0123764D01*
X0070436Y0119278D01*
X0070710Y0119278D01*
X0071421Y0119391D01*
X0072105Y0119613D01*
X0072746Y0119940D01*
X0073328Y0120363D01*
X0074586Y0122094D02*
X0078845Y0122094D01*
X0078478Y0123693D02*
X0074922Y0123693D01*
X0074689Y0125291D02*
X0078715Y0125291D01*
X0079707Y0126890D02*
X0073775Y0126890D01*
X0070436Y0126890D02*
X0070264Y0126890D01*
X0070264Y0125291D02*
X0070436Y0125291D01*
X0070264Y0123764D02*
X0065778Y0123764D01*
X0065778Y0123490D01*
X0065891Y0122779D01*
X0066113Y0122095D01*
X0066440Y0121454D01*
X0066863Y0120872D01*
X0067372Y0120363D01*
X0067954Y0119940D01*
X0068595Y0119613D01*
X0069279Y0119391D01*
X0069990Y0119278D01*
X0070264Y0119278D01*
X0070264Y0123764D01*
X0070264Y0123693D02*
X0070436Y0123693D01*
X0070436Y0122094D02*
X0070264Y0122094D01*
X0070264Y0120496D02*
X0070436Y0120496D01*
X0067239Y0120496D02*
X0008650Y0120496D01*
X0008650Y0122094D02*
X0066114Y0122094D01*
X0065778Y0123693D02*
X0008650Y0123693D01*
X0008650Y0125291D02*
X0066011Y0125291D01*
X0066925Y0126890D02*
X0008650Y0126890D01*
X0008650Y0128488D02*
X0144800Y0128488D01*
X0144800Y0126890D02*
X0135993Y0126890D01*
X0136556Y0126326D02*
X0135326Y0127556D01*
X0133720Y0128222D01*
X0131980Y0128222D01*
X0130374Y0127556D01*
X0129144Y0126326D01*
X0128478Y0124720D01*
X0128478Y0122980D01*
X0129144Y0121374D01*
X0130374Y0120144D01*
X0131980Y0119478D01*
X0133720Y0119478D01*
X0135326Y0120144D01*
X0136556Y0121374D01*
X0137222Y0122980D01*
X0137222Y0124720D01*
X0136556Y0126326D01*
X0136985Y0125291D02*
X0144800Y0125291D01*
X0144800Y0123693D02*
X0137222Y0123693D01*
X0136855Y0122094D02*
X0144800Y0122094D01*
X0144800Y0120496D02*
X0135678Y0120496D01*
X0133720Y0115722D02*
X0131980Y0115722D01*
X0130374Y0115056D01*
X0129144Y0113826D01*
X0128478Y0112220D01*
X0128478Y0110480D01*
X0129144Y0108874D01*
X0130374Y0107644D01*
X0131980Y0106978D01*
X0133720Y0106978D01*
X0135326Y0107644D01*
X0136556Y0108874D01*
X0137222Y0110480D01*
X0137222Y0112220D01*
X0136556Y0113826D01*
X0135326Y0115056D01*
X0133720Y0115722D01*
X0133771Y0115700D02*
X0144800Y0115700D01*
X0144800Y0114102D02*
X0136281Y0114102D01*
X0137104Y0112503D02*
X0144800Y0112503D01*
X0144800Y0110905D02*
X0137222Y0110905D01*
X0136735Y0109306D02*
X0144800Y0109306D01*
X0144800Y0107708D02*
X0135390Y0107708D01*
X0130310Y0107708D02*
X0123115Y0107708D01*
X0123328Y0107863D02*
X0123837Y0108372D01*
X0124260Y0108954D01*
X0124587Y0109595D01*
X0124809Y0110279D01*
X0124922Y0110990D01*
X0124922Y0111264D01*
X0120436Y0111264D01*
X0120436Y0106778D01*
X0120710Y0106778D01*
X0121421Y0106891D01*
X0122105Y0107113D01*
X0122746Y0107440D01*
X0123328Y0107863D01*
X0124440Y0109306D02*
X0128965Y0109306D01*
X0128478Y0110905D02*
X0124908Y0110905D01*
X0124782Y0112503D02*
X0128596Y0112503D01*
X0129419Y0114102D02*
X0124002Y0114102D01*
X0121755Y0115700D02*
X0131929Y0115700D01*
X0130022Y0120496D02*
X0123178Y0120496D01*
X0122826Y0120144D02*
X0124056Y0121374D01*
X0124722Y0122980D01*
X0124722Y0124720D01*
X0124056Y0126326D01*
X0122826Y0127556D01*
X0121220Y0128222D01*
X0119480Y0128222D01*
X0117874Y0127556D01*
X0116644Y0126326D01*
X0115978Y0124720D01*
X0115978Y0122980D01*
X0116644Y0121374D01*
X0117874Y0120144D01*
X0119480Y0119478D01*
X0121220Y0119478D01*
X0122826Y0120144D01*
X0124355Y0122094D02*
X0128845Y0122094D01*
X0128478Y0123693D02*
X0124722Y0123693D01*
X0124485Y0125291D02*
X0128715Y0125291D01*
X0129707Y0126890D02*
X0123493Y0126890D01*
X0125730Y0130228D02*
X0124124Y0130894D01*
X0122894Y0132124D01*
X0122228Y0133730D01*
X0122228Y0135470D01*
X0122894Y0137076D01*
X0124124Y0138306D01*
X0125730Y0138972D01*
X0127470Y0138972D01*
X0129076Y0138306D01*
X0130306Y0137076D01*
X0130972Y0135470D01*
X0130972Y0133730D01*
X0130306Y0132124D01*
X0129076Y0130894D01*
X0127470Y0130228D01*
X0125730Y0130228D01*
X0123332Y0131685D02*
X0117633Y0131685D01*
X0117587Y0131622D02*
X0118010Y0132204D01*
X0118337Y0132845D01*
X0118559Y0133529D01*
X0118672Y0134240D01*
X0118672Y0134514D01*
X0114186Y0134514D01*
X0114186Y0134686D01*
X0118672Y0134686D01*
X0118672Y0134960D01*
X0118559Y0135671D01*
X0118337Y0136355D01*
X0118010Y0136996D01*
X0117587Y0137578D01*
X0117078Y0138087D01*
X0116496Y0138510D01*
X0115855Y0138837D01*
X0115171Y0139059D01*
X0114460Y0139172D01*
X0114186Y0139172D01*
X0114186Y0134686D01*
X0114014Y0134686D01*
X0114014Y0139172D01*
X0113740Y0139172D01*
X0113029Y0139059D01*
X0112345Y0138837D01*
X0111704Y0138510D01*
X0111122Y0138087D01*
X0110613Y0137578D01*
X0110190Y0136996D01*
X0109863Y0136355D01*
X0109641Y0135671D01*
X0109528Y0134960D01*
X0109528Y0134686D01*
X0114014Y0134686D01*
X0114014Y0134514D01*
X0114186Y0134514D01*
X0114186Y0130028D01*
X0114460Y0130028D01*
X0115171Y0130141D01*
X0115855Y0130363D01*
X0116496Y0130690D01*
X0117078Y0131113D01*
X0117587Y0131622D01*
X0118479Y0133284D02*
X0122413Y0133284D01*
X0122228Y0134882D02*
X0118672Y0134882D01*
X0118273Y0136481D02*
X0122647Y0136481D01*
X0123897Y0138079D02*
X0117086Y0138079D01*
X0114186Y0138079D02*
X0114014Y0138079D01*
X0114014Y0136481D02*
X0114186Y0136481D01*
X0114186Y0134882D02*
X0114014Y0134882D01*
X0114014Y0134514D02*
X0109528Y0134514D01*
X0109528Y0134240D01*
X0109641Y0133529D01*
X0109863Y0132845D01*
X0110190Y0132204D01*
X0110613Y0131622D01*
X0111122Y0131113D01*
X0111704Y0130690D01*
X0112345Y0130363D01*
X0113029Y0130141D01*
X0113740Y0130028D01*
X0114014Y0130028D01*
X0114014Y0134514D01*
X0114014Y0133284D02*
X0114186Y0133284D01*
X0114186Y0131685D02*
X0114014Y0131685D01*
X0114014Y0130087D02*
X0114186Y0130087D01*
X0114829Y0130087D02*
X0144800Y0130087D01*
X0144800Y0131685D02*
X0129868Y0131685D01*
X0130787Y0133284D02*
X0144800Y0133284D01*
X0144800Y0134882D02*
X0130972Y0134882D01*
X0130553Y0136481D02*
X0144800Y0136481D01*
X0144644Y0138079D02*
X0129303Y0138079D01*
X0136651Y0146072D02*
X0118447Y0146072D01*
X0118472Y0146130D02*
X0117806Y0144524D01*
X0116576Y0143294D01*
X0114970Y0142628D01*
X0113230Y0142628D01*
X0111624Y0143294D01*
X0110394Y0144524D01*
X0109728Y0146130D01*
X0109728Y0147870D01*
X0110394Y0149476D01*
X0111624Y0150706D01*
X0113230Y0151372D01*
X0114970Y0151372D01*
X0116576Y0150706D01*
X0117806Y0149476D01*
X0118472Y0147870D01*
X0118472Y0146130D01*
X0118472Y0147670D02*
X0135053Y0147670D01*
X0133454Y0149269D02*
X0117892Y0149269D01*
X0116187Y0150868D02*
X0131856Y0150868D01*
X0130257Y0152466D02*
X0017441Y0152466D01*
X0021928Y0153359D02*
X0021928Y0153359D01*
X0023628Y0154065D02*
X0128659Y0154065D01*
X0127060Y0155663D02*
X0027483Y0155663D01*
X0030115Y0157262D02*
X0125461Y0157262D01*
X0123863Y0158860D02*
X0032504Y0158860D01*
X0033694Y0159656D02*
X0033694Y0159656D01*
X0034495Y0160459D02*
X0122264Y0160459D01*
X0120666Y0162057D02*
X0036090Y0162057D01*
X0037686Y0163656D02*
X0119143Y0163656D01*
X0118800Y0165254D02*
X0038999Y0165254D01*
X0038431Y0164401D02*
X0038431Y0164401D01*
X0038431Y0164401D01*
X0040065Y0166853D02*
X0118800Y0166853D01*
X0118800Y0168451D02*
X0041130Y0168451D01*
X0042178Y0170050D02*
X0118800Y0170050D01*
X0118800Y0171648D02*
X0042838Y0171648D01*
X0043498Y0173247D02*
X0118800Y0173247D01*
X0118800Y0174845D02*
X0044157Y0174845D01*
X0044708Y0176178D02*
X0044708Y0176178D01*
X0044760Y0176444D02*
X0118800Y0176444D01*
X0118800Y0178042D02*
X0045075Y0178042D01*
X0045391Y0179641D02*
X0118800Y0179641D01*
X0118800Y0181239D02*
X0045706Y0181239D01*
X0046006Y0182756D02*
X0046006Y0182756D01*
X0046006Y0182838D02*
X0118800Y0182838D01*
X0118800Y0184436D02*
X0046003Y0184436D01*
X0046050Y0186035D02*
X0118800Y0186035D01*
X0118800Y0187633D02*
X0046050Y0187633D01*
X0046050Y0189232D02*
X0118800Y0189232D01*
X0118800Y0190830D02*
X0046050Y0190830D01*
X0046050Y0192429D02*
X0118800Y0192429D01*
X0118800Y0194027D02*
X0046050Y0194027D01*
X0046050Y0195626D02*
X0118800Y0195626D01*
X0118800Y0197224D02*
X0046050Y0197224D01*
X0046050Y0198823D02*
X0118800Y0198823D01*
X0118800Y0200421D02*
X0046050Y0200421D01*
X0046050Y0202020D02*
X0118800Y0202020D01*
X0118800Y0203618D02*
X0046050Y0203618D01*
X0046050Y0205217D02*
X0118800Y0205217D01*
X0118800Y0206815D02*
X0046050Y0206815D01*
X0047240Y0207239D02*
X0046302Y0208177D01*
X0046302Y0215045D01*
X0047240Y0215983D01*
X0054108Y0215983D01*
X0055046Y0215045D01*
X0055046Y0208177D01*
X0054108Y0207239D01*
X0047240Y0207239D01*
X0046302Y0208414D02*
X0046050Y0208414D01*
X0046050Y0210012D02*
X0046302Y0210012D01*
X0046302Y0211611D02*
X0046050Y0211611D01*
X0046050Y0213209D02*
X0046302Y0213209D01*
X0046302Y0214808D02*
X0046050Y0214808D01*
X0046050Y0216406D02*
X0161435Y0216406D01*
X0161117Y0218005D02*
X0046050Y0218005D01*
X0046050Y0219603D02*
X0161050Y0219603D01*
X0161050Y0221202D02*
X0046050Y0221202D01*
X0046274Y0222801D02*
X0160756Y0222801D01*
X0159339Y0224399D02*
X0047608Y0224399D01*
X0055046Y0214808D02*
X0057688Y0214808D01*
X0058198Y0215317D02*
X0056968Y0214087D01*
X0056302Y0212481D01*
X0056302Y0210741D01*
X0056968Y0209135D01*
X0058198Y0207905D01*
X0059804Y0207239D01*
X0061544Y0207239D01*
X0063150Y0207905D01*
X0064380Y0209135D01*
X0065046Y0210741D01*
X0065046Y0212481D01*
X0064380Y0214087D01*
X0063150Y0215317D01*
X0061544Y0215983D01*
X0059804Y0215983D01*
X0058198Y0215317D01*
X0056604Y0213209D02*
X0055046Y0213209D01*
X0055046Y0211611D02*
X0056302Y0211611D01*
X0056604Y0210012D02*
X0055046Y0210012D01*
X0055046Y0208414D02*
X0057689Y0208414D01*
X0063659Y0208414D02*
X0067689Y0208414D01*
X0068198Y0207905D02*
X0069804Y0207239D01*
X0071544Y0207239D01*
X0073150Y0207905D01*
X0074380Y0209135D01*
X0075046Y0210741D01*
X0075046Y0212481D01*
X0074380Y0214087D01*
X0073150Y0215317D01*
X0071544Y0215983D01*
X0069804Y0215983D01*
X0068198Y0215317D01*
X0066968Y0214087D01*
X0066302Y0212481D01*
X0066302Y0210741D01*
X0066968Y0209135D01*
X0068198Y0207905D01*
X0066604Y0210012D02*
X0064744Y0210012D01*
X0065046Y0211611D02*
X0066302Y0211611D01*
X0066604Y0213209D02*
X0064744Y0213209D01*
X0063660Y0214808D02*
X0067688Y0214808D01*
X0073660Y0214808D02*
X0077688Y0214808D01*
X0078198Y0215317D02*
X0076968Y0214087D01*
X0076302Y0212481D01*
X0076302Y0210741D01*
X0076968Y0209135D01*
X0078198Y0207905D01*
X0079804Y0207239D01*
X0081544Y0207239D01*
X0083150Y0207905D01*
X0084380Y0209135D01*
X0085046Y0210741D01*
X0085046Y0212481D01*
X0084380Y0214087D01*
X0083150Y0215317D01*
X0081544Y0215983D01*
X0079804Y0215983D01*
X0078198Y0215317D01*
X0076604Y0213209D02*
X0074744Y0213209D01*
X0075046Y0211611D02*
X0076302Y0211611D01*
X0076604Y0210012D02*
X0074744Y0210012D01*
X0073659Y0208414D02*
X0077689Y0208414D01*
X0083659Y0208414D02*
X0087689Y0208414D01*
X0088198Y0207905D02*
X0086968Y0209135D01*
X0086302Y0210741D01*
X0086302Y0212481D01*
X0086968Y0214087D01*
X0088198Y0215317D01*
X0089804Y0215983D01*
X0091544Y0215983D01*
X0093150Y0215317D01*
X0094380Y0214087D01*
X0095046Y0212481D01*
X0095046Y0210741D01*
X0094380Y0209135D01*
X0093150Y0207905D01*
X0091544Y0207239D01*
X0089804Y0207239D01*
X0088198Y0207905D01*
X0086604Y0210012D02*
X0084744Y0210012D01*
X0085046Y0211611D02*
X0086302Y0211611D01*
X0086604Y0213209D02*
X0084744Y0213209D01*
X0083660Y0214808D02*
X0087688Y0214808D01*
X0093660Y0214808D02*
X0097688Y0214808D01*
X0098198Y0215317D02*
X0096968Y0214087D01*
X0096302Y0212481D01*
X0096302Y0210741D01*
X0096968Y0209135D01*
X0098198Y0207905D01*
X0099804Y0207239D01*
X0101544Y0207239D01*
X0103150Y0207905D01*
X0104380Y0209135D01*
X0105046Y0210741D01*
X0105046Y0212481D01*
X0104380Y0214087D01*
X0103150Y0215317D01*
X0101544Y0215983D01*
X0099804Y0215983D01*
X0098198Y0215317D01*
X0096604Y0213209D02*
X0094744Y0213209D01*
X0095046Y0211611D02*
X0096302Y0211611D01*
X0096604Y0210012D02*
X0094744Y0210012D01*
X0093659Y0208414D02*
X0097689Y0208414D01*
X0103659Y0208414D02*
X0106950Y0208414D01*
X0106902Y0208591D02*
X0107025Y0208133D01*
X0107262Y0207722D01*
X0107597Y0207387D01*
X0108008Y0207150D01*
X0108465Y0207028D01*
X0111388Y0207028D01*
X0111388Y0211513D01*
X0111560Y0211513D01*
X0111560Y0207028D01*
X0114483Y0207028D01*
X0114940Y0207150D01*
X0115351Y0207387D01*
X0115686Y0207722D01*
X0115923Y0208133D01*
X0116046Y0208591D01*
X0116046Y0211513D01*
X0111560Y0211513D01*
X0111560Y0211685D01*
X0116046Y0211685D01*
X0116046Y0214608D01*
X0115923Y0215066D01*
X0115686Y0215476D01*
X0115351Y0215811D01*
X0114940Y0216048D01*
X0114483Y0216171D01*
X0111560Y0216171D01*
X0111560Y0211685D01*
X0111388Y0211685D01*
X0111388Y0211513D01*
X0106902Y0211513D01*
X0106902Y0208591D01*
X0106902Y0210012D02*
X0104744Y0210012D01*
X0105046Y0211611D02*
X0111388Y0211611D01*
X0111388Y0211685D02*
X0106902Y0211685D01*
X0106902Y0214608D01*
X0107025Y0215066D01*
X0107262Y0215476D01*
X0107597Y0215811D01*
X0108008Y0216048D01*
X0108465Y0216171D01*
X0111388Y0216171D01*
X0111388Y0211685D01*
X0111560Y0211611D02*
X0117102Y0211611D01*
X0117399Y0210012D02*
X0116046Y0210012D01*
X0115998Y0208414D02*
X0118477Y0208414D01*
X0117409Y0213209D02*
X0116046Y0213209D01*
X0115992Y0214808D02*
X0118500Y0214808D01*
X0124448Y0214808D02*
X0128500Y0214808D01*
X0128998Y0215305D02*
X0127768Y0214076D01*
X0127102Y0212469D01*
X0127102Y0210730D01*
X0127768Y0209123D01*
X0128998Y0207893D01*
X0130604Y0207228D01*
X0132344Y0207228D01*
X0133950Y0207893D01*
X0135180Y0209123D01*
X0135846Y0210730D01*
X0135846Y0212469D01*
X0135180Y0214076D01*
X0133950Y0215305D01*
X0132344Y0215971D01*
X0130604Y0215971D01*
X0128998Y0215305D01*
X0127409Y0213209D02*
X0125539Y0213209D01*
X0125846Y0211611D02*
X0127102Y0211611D01*
X0127399Y0210012D02*
X0125549Y0210012D01*
X0124471Y0208414D02*
X0128477Y0208414D01*
X0124000Y0206815D02*
X0139000Y0206815D01*
X0139000Y0207892D02*
X0139000Y0162283D01*
X0139396Y0161327D01*
X0140127Y0160596D01*
X0164675Y0136048D01*
X0165369Y0135760D01*
X0165581Y0135250D01*
X0167072Y0133759D01*
X0169020Y0132952D01*
X0171128Y0132952D01*
X0173076Y0133759D01*
X0174567Y0135250D01*
X0174959Y0136196D01*
X0174977Y0136141D01*
X0175370Y0135369D01*
X0175879Y0134669D01*
X0176491Y0134057D01*
X0177191Y0133548D01*
X0177963Y0133155D01*
X0178786Y0132887D01*
X0179641Y0132752D01*
X0179874Y0132752D01*
X0179874Y0138052D01*
X0180274Y0138052D01*
X0180274Y0132752D01*
X0180507Y0132752D01*
X0181362Y0132887D01*
X0182185Y0133155D01*
X0182957Y0133548D01*
X0183657Y0134057D01*
X0184269Y0134669D01*
X0184778Y0135369D01*
X0185171Y0136141D01*
X0185189Y0136196D01*
X0185581Y0135250D01*
X0187072Y0133759D01*
X0189020Y0132952D01*
X0191128Y0132952D01*
X0193076Y0133759D01*
X0194567Y0135250D01*
X0195374Y0137198D01*
X0195374Y0139306D01*
X0194567Y0141254D01*
X0193076Y0142745D01*
X0191128Y0143552D01*
X0189020Y0143552D01*
X0187072Y0142745D01*
X0185581Y0141254D01*
X0185189Y0140308D01*
X0185171Y0140363D01*
X0184778Y0141135D01*
X0184269Y0141835D01*
X0183657Y0142447D01*
X0182957Y0142956D01*
X0182185Y0143349D01*
X0181362Y0143617D01*
X0180507Y0143752D01*
X0180274Y0143752D01*
X0180274Y0138452D01*
X0179874Y0138452D01*
X0179874Y0143752D01*
X0179641Y0143752D01*
X0178786Y0143617D01*
X0177963Y0143349D01*
X0177191Y0142956D01*
X0176491Y0142447D01*
X0175879Y0141835D01*
X0175370Y0141135D01*
X0174977Y0140363D01*
X0174959Y0140308D01*
X0174567Y0141254D01*
X0173076Y0142745D01*
X0171128Y0143552D01*
X0169020Y0143552D01*
X0167072Y0142745D01*
X0166202Y0141875D01*
X0144200Y0163877D01*
X0144200Y0208143D01*
X0145180Y0209123D01*
X0145846Y0210730D01*
X0145846Y0212469D01*
X0145180Y0214076D01*
X0143950Y0215305D01*
X0142344Y0215971D01*
X0140604Y0215971D01*
X0138998Y0215305D01*
X0137768Y0214076D01*
X0137102Y0212469D01*
X0137102Y0210730D01*
X0137768Y0209123D01*
X0138998Y0207893D01*
X0139000Y0207892D01*
X0138477Y0208414D02*
X0134471Y0208414D01*
X0135549Y0210012D02*
X0137399Y0210012D01*
X0137102Y0211611D02*
X0135846Y0211611D01*
X0135539Y0213209D02*
X0137409Y0213209D01*
X0138500Y0214808D02*
X0134448Y0214808D01*
X0139000Y0205217D02*
X0124000Y0205217D01*
X0124000Y0203618D02*
X0139000Y0203618D01*
X0139000Y0202020D02*
X0124000Y0202020D01*
X0124000Y0200421D02*
X0139000Y0200421D01*
X0139000Y0198823D02*
X0124000Y0198823D01*
X0124000Y0197224D02*
X0139000Y0197224D01*
X0139000Y0195626D02*
X0124000Y0195626D01*
X0124000Y0194027D02*
X0139000Y0194027D01*
X0139000Y0192429D02*
X0124000Y0192429D01*
X0124000Y0190830D02*
X0139000Y0190830D01*
X0139000Y0189232D02*
X0124000Y0189232D01*
X0124000Y0187633D02*
X0139000Y0187633D01*
X0139000Y0186035D02*
X0124000Y0186035D01*
X0124000Y0184436D02*
X0139000Y0184436D01*
X0139000Y0182838D02*
X0124000Y0182838D01*
X0124000Y0181239D02*
X0139000Y0181239D01*
X0139000Y0179641D02*
X0124000Y0179641D01*
X0124000Y0178042D02*
X0139000Y0178042D01*
X0139000Y0176444D02*
X0124000Y0176444D01*
X0124000Y0174845D02*
X0139000Y0174845D01*
X0139000Y0173247D02*
X0124000Y0173247D01*
X0124000Y0171648D02*
X0139000Y0171648D01*
X0139000Y0170050D02*
X0124000Y0170050D01*
X0124000Y0168451D02*
X0139000Y0168451D01*
X0139000Y0166853D02*
X0124000Y0166853D01*
X0124823Y0165254D02*
X0139000Y0165254D01*
X0139000Y0163656D02*
X0126421Y0163656D01*
X0128020Y0162057D02*
X0139093Y0162057D01*
X0140264Y0160459D02*
X0129618Y0160459D01*
X0131217Y0158860D02*
X0141863Y0158860D01*
X0143461Y0157262D02*
X0132815Y0157262D01*
X0134414Y0155663D02*
X0145060Y0155663D01*
X0146659Y0154065D02*
X0136012Y0154065D01*
X0137611Y0152466D02*
X0148257Y0152466D01*
X0149856Y0150868D02*
X0139209Y0150868D01*
X0140808Y0149269D02*
X0151454Y0149269D01*
X0153053Y0147670D02*
X0142406Y0147670D01*
X0144005Y0146072D02*
X0154651Y0146072D01*
X0156250Y0144473D02*
X0145603Y0144473D01*
X0147202Y0142875D02*
X0157848Y0142875D01*
X0159447Y0141276D02*
X0148800Y0141276D01*
X0149933Y0139678D02*
X0161045Y0139678D01*
X0162644Y0138079D02*
X0150000Y0138079D01*
X0150000Y0136481D02*
X0152616Y0136481D01*
X0152771Y0136636D02*
X0151764Y0135629D01*
X0151219Y0134312D01*
X0151219Y0132888D01*
X0151764Y0131571D01*
X0152200Y0131136D01*
X0152200Y0125683D01*
X0152596Y0124727D01*
X0158819Y0118504D01*
X0158819Y0117888D01*
X0159364Y0116571D01*
X0160371Y0115564D01*
X0161688Y0115019D01*
X0163112Y0115019D01*
X0164429Y0115564D01*
X0165436Y0116571D01*
X0165981Y0117888D01*
X0165981Y0119312D01*
X0165436Y0120629D01*
X0164429Y0121636D01*
X0163112Y0122181D01*
X0162496Y0122181D01*
X0157400Y0127277D01*
X0157400Y0131136D01*
X0157836Y0131571D01*
X0158381Y0132888D01*
X0158381Y0134312D01*
X0157836Y0135629D01*
X0156829Y0136636D01*
X0155512Y0137181D01*
X0154088Y0137181D01*
X0152771Y0136636D01*
X0151455Y0134882D02*
X0150000Y0134882D01*
X0150000Y0133284D02*
X0151219Y0133284D01*
X0151717Y0131685D02*
X0150000Y0131685D01*
X0150000Y0130087D02*
X0152200Y0130087D01*
X0152200Y0128488D02*
X0150000Y0128488D01*
X0150000Y0126890D02*
X0152200Y0126890D01*
X0152362Y0125291D02*
X0150000Y0125291D01*
X0150000Y0123693D02*
X0153630Y0123693D01*
X0155229Y0122094D02*
X0150000Y0122094D01*
X0150000Y0120496D02*
X0156827Y0120496D01*
X0158426Y0118897D02*
X0150000Y0118897D01*
X0150000Y0117299D02*
X0159063Y0117299D01*
X0160235Y0115700D02*
X0150000Y0115700D01*
X0150000Y0114102D02*
X0196550Y0114102D01*
X0196550Y0115700D02*
X0164565Y0115700D01*
X0165737Y0117299D02*
X0196550Y0117299D01*
X0196550Y0118897D02*
X0165981Y0118897D01*
X0165491Y0120496D02*
X0196550Y0120496D01*
X0196550Y0122094D02*
X0163322Y0122094D01*
X0160984Y0123693D02*
X0196550Y0123693D01*
X0196550Y0125291D02*
X0159386Y0125291D01*
X0157787Y0126890D02*
X0196550Y0126890D01*
X0196550Y0128488D02*
X0157400Y0128488D01*
X0157400Y0130087D02*
X0196550Y0130087D01*
X0196550Y0131685D02*
X0157883Y0131685D01*
X0158381Y0133284D02*
X0168218Y0133284D01*
X0165948Y0134882D02*
X0158145Y0134882D01*
X0156984Y0136481D02*
X0164242Y0136481D01*
X0165202Y0142875D02*
X0167385Y0142875D01*
X0163603Y0144473D02*
X0196550Y0144473D01*
X0196550Y0142875D02*
X0192763Y0142875D01*
X0194545Y0141276D02*
X0196550Y0141276D01*
X0196550Y0139678D02*
X0195220Y0139678D01*
X0195374Y0138079D02*
X0196550Y0138079D01*
X0196550Y0136481D02*
X0195077Y0136481D01*
X0194200Y0134882D02*
X0196550Y0134882D01*
X0196550Y0133284D02*
X0191930Y0133284D01*
X0188218Y0133284D02*
X0182438Y0133284D01*
X0180274Y0133284D02*
X0179874Y0133284D01*
X0179874Y0134882D02*
X0180274Y0134882D01*
X0180274Y0136481D02*
X0179874Y0136481D01*
X0177710Y0133284D02*
X0171930Y0133284D01*
X0174200Y0134882D02*
X0175724Y0134882D01*
X0179874Y0139678D02*
X0180274Y0139678D01*
X0180274Y0141276D02*
X0179874Y0141276D01*
X0179874Y0142875D02*
X0180274Y0142875D01*
X0183068Y0142875D02*
X0187385Y0142875D01*
X0185603Y0141276D02*
X0184675Y0141276D01*
X0184424Y0134882D02*
X0185948Y0134882D01*
X0177080Y0142875D02*
X0172763Y0142875D01*
X0174545Y0141276D02*
X0175473Y0141276D01*
X0162005Y0146072D02*
X0196550Y0146072D01*
X0196550Y0147670D02*
X0160406Y0147670D01*
X0158808Y0149269D02*
X0196550Y0149269D01*
X0196550Y0150868D02*
X0157209Y0150868D01*
X0155611Y0152466D02*
X0196550Y0152466D01*
X0196550Y0154065D02*
X0154012Y0154065D01*
X0152414Y0155663D02*
X0196550Y0155663D01*
X0196550Y0157262D02*
X0150815Y0157262D01*
X0149217Y0158860D02*
X0196550Y0158860D01*
X0196550Y0160459D02*
X0147618Y0160459D01*
X0146020Y0162057D02*
X0196550Y0162057D01*
X0196550Y0163656D02*
X0144421Y0163656D01*
X0144200Y0165254D02*
X0196550Y0165254D01*
X0196550Y0166853D02*
X0144200Y0166853D01*
X0144200Y0168451D02*
X0196550Y0168451D01*
X0196550Y0170050D02*
X0144200Y0170050D01*
X0144200Y0171648D02*
X0196550Y0171648D01*
X0196550Y0173247D02*
X0144200Y0173247D01*
X0144200Y0174845D02*
X0196550Y0174845D01*
X0196550Y0176444D02*
X0144200Y0176444D01*
X0144200Y0178042D02*
X0196550Y0178042D01*
X0196550Y0179641D02*
X0144200Y0179641D01*
X0144200Y0181239D02*
X0196550Y0181239D01*
X0196550Y0182838D02*
X0144200Y0182838D01*
X0144200Y0184436D02*
X0196550Y0184436D01*
X0196550Y0186035D02*
X0144200Y0186035D01*
X0144200Y0187633D02*
X0196182Y0187633D01*
X0194381Y0189232D02*
X0144200Y0189232D01*
X0144200Y0190830D02*
X0183393Y0190830D01*
X0179533Y0192429D02*
X0144200Y0192429D01*
X0144200Y0194027D02*
X0176527Y0194027D01*
X0174135Y0195626D02*
X0144200Y0195626D01*
X0144200Y0197224D02*
X0172050Y0197224D01*
X0170452Y0198823D02*
X0144200Y0198823D01*
X0144200Y0200421D02*
X0168853Y0200421D01*
X0168205Y0201069D02*
X0168205Y0201069D01*
X0167570Y0202020D02*
X0144200Y0202020D01*
X0144200Y0203618D02*
X0166502Y0203618D01*
X0165434Y0205217D02*
X0144200Y0205217D01*
X0144200Y0206815D02*
X0164492Y0206815D01*
X0158477Y0208414D02*
X0154471Y0208414D01*
X0153950Y0207893D02*
X0155180Y0209123D01*
X0155846Y0210730D01*
X0155846Y0212469D01*
X0155180Y0214076D01*
X0153950Y0215305D01*
X0152344Y0215971D01*
X0150604Y0215971D01*
X0148998Y0215305D01*
X0147768Y0214076D01*
X0147102Y0212469D01*
X0147102Y0210730D01*
X0147768Y0209123D01*
X0148998Y0207893D01*
X0150604Y0207228D01*
X0152344Y0207228D01*
X0153950Y0207893D01*
X0155549Y0210012D02*
X0157399Y0210012D01*
X0157102Y0211611D02*
X0155846Y0211611D01*
X0155539Y0213209D02*
X0157409Y0213209D01*
X0158500Y0214808D02*
X0154448Y0214808D01*
X0148500Y0214808D02*
X0144448Y0214808D01*
X0145539Y0213209D02*
X0147409Y0213209D01*
X0147102Y0211611D02*
X0145846Y0211611D01*
X0145549Y0210012D02*
X0147399Y0210012D01*
X0148477Y0208414D02*
X0144471Y0208414D01*
X0111560Y0208414D02*
X0111388Y0208414D01*
X0111388Y0210012D02*
X0111560Y0210012D01*
X0111560Y0213209D02*
X0111388Y0213209D01*
X0111388Y0214808D02*
X0111560Y0214808D01*
X0106956Y0214808D02*
X0103660Y0214808D01*
X0104744Y0213209D02*
X0106902Y0213209D01*
X0102470Y0151372D02*
X0100730Y0151372D01*
X0099124Y0150706D01*
X0097894Y0149476D01*
X0097228Y0147870D01*
X0097228Y0146130D01*
X0097894Y0144524D01*
X0099124Y0143294D01*
X0100730Y0142628D01*
X0102470Y0142628D01*
X0104076Y0143294D01*
X0105306Y0144524D01*
X0105972Y0146130D01*
X0105972Y0147870D01*
X0105306Y0149476D01*
X0104076Y0150706D01*
X0102470Y0151372D01*
X0103687Y0150868D02*
X0112013Y0150868D01*
X0110308Y0149269D02*
X0105392Y0149269D01*
X0105972Y0147670D02*
X0109728Y0147670D01*
X0109753Y0146072D02*
X0105947Y0146072D01*
X0105256Y0144473D02*
X0110444Y0144473D01*
X0112635Y0142875D02*
X0103065Y0142875D01*
X0102671Y0139059D02*
X0101960Y0139172D01*
X0101686Y0139172D01*
X0101686Y0134686D01*
X0106172Y0134686D01*
X0106172Y0134960D01*
X0106059Y0135671D01*
X0105837Y0136355D01*
X0105510Y0136996D01*
X0105087Y0137578D01*
X0104578Y0138087D01*
X0103996Y0138510D01*
X0103355Y0138837D01*
X0102671Y0139059D01*
X0101514Y0139172D02*
X0101240Y0139172D01*
X0100529Y0139059D01*
X0099845Y0138837D01*
X0099204Y0138510D01*
X0098622Y0138087D01*
X0098113Y0137578D01*
X0097690Y0136996D01*
X0097363Y0136355D01*
X0097141Y0135671D01*
X0097028Y0134960D01*
X0097028Y0134686D01*
X0101514Y0134686D01*
X0101514Y0139172D01*
X0101514Y0138079D02*
X0101686Y0138079D01*
X0101686Y0136481D02*
X0101514Y0136481D01*
X0101514Y0134882D02*
X0101686Y0134882D01*
X0101686Y0134686D02*
X0101514Y0134686D01*
X0101514Y0134514D01*
X0101686Y0134514D01*
X0101686Y0134686D01*
X0101686Y0134514D02*
X0106172Y0134514D01*
X0106172Y0134240D01*
X0106059Y0133529D01*
X0105837Y0132845D01*
X0105510Y0132204D01*
X0105087Y0131622D01*
X0104578Y0131113D01*
X0103996Y0130690D01*
X0103355Y0130363D01*
X0102671Y0130141D01*
X0101960Y0130028D01*
X0101686Y0130028D01*
X0101686Y0134514D01*
X0101514Y0134514D02*
X0101514Y0130028D01*
X0101240Y0130028D01*
X0100529Y0130141D01*
X0099845Y0130363D01*
X0099204Y0130690D01*
X0098622Y0131113D01*
X0098113Y0131622D01*
X0097690Y0132204D01*
X0097363Y0132845D01*
X0097141Y0133529D01*
X0097028Y0134240D01*
X0097028Y0134514D01*
X0101514Y0134514D01*
X0101514Y0133284D02*
X0101686Y0133284D01*
X0101686Y0131685D02*
X0101514Y0131685D01*
X0101514Y0130087D02*
X0101686Y0130087D01*
X0102329Y0130087D02*
X0113371Y0130087D01*
X0110567Y0131685D02*
X0105133Y0131685D01*
X0105979Y0133284D02*
X0109721Y0133284D01*
X0109528Y0134882D02*
X0106172Y0134882D01*
X0105773Y0136481D02*
X0109927Y0136481D01*
X0111114Y0138079D02*
X0104586Y0138079D01*
X0098614Y0138079D02*
X0091803Y0138079D01*
X0091576Y0138306D02*
X0089970Y0138972D01*
X0088230Y0138972D01*
X0086624Y0138306D01*
X0085394Y0137076D01*
X0084728Y0135470D01*
X0084728Y0133730D01*
X0085394Y0132124D01*
X0086624Y0130894D01*
X0088230Y0130228D01*
X0089970Y0130228D01*
X0091576Y0130894D01*
X0092806Y0132124D01*
X0093472Y0133730D01*
X0093472Y0135470D01*
X0092806Y0137076D01*
X0091576Y0138306D01*
X0093053Y0136481D02*
X0097427Y0136481D01*
X0097028Y0134882D02*
X0093472Y0134882D01*
X0093287Y0133284D02*
X0097221Y0133284D01*
X0098067Y0131685D02*
X0092368Y0131685D01*
X0094480Y0128222D02*
X0092874Y0127556D01*
X0091644Y0126326D01*
X0090978Y0124720D01*
X0090978Y0122980D01*
X0091644Y0121374D01*
X0092874Y0120144D01*
X0094480Y0119478D01*
X0096220Y0119478D01*
X0097826Y0120144D01*
X0099056Y0121374D01*
X0099722Y0122980D01*
X0099722Y0124720D01*
X0099056Y0126326D01*
X0097826Y0127556D01*
X0096220Y0128222D01*
X0094480Y0128222D01*
X0092207Y0126890D02*
X0085993Y0126890D01*
X0086985Y0125291D02*
X0091215Y0125291D01*
X0090978Y0123693D02*
X0087222Y0123693D01*
X0086855Y0122094D02*
X0091345Y0122094D01*
X0092522Y0120496D02*
X0085678Y0120496D01*
X0086281Y0114102D02*
X0091919Y0114102D01*
X0091096Y0112503D02*
X0087104Y0112503D01*
X0087222Y0110905D02*
X0090978Y0110905D01*
X0091465Y0109306D02*
X0086735Y0109306D01*
X0085390Y0107708D02*
X0092810Y0107708D01*
X0091082Y0104511D02*
X0099618Y0104511D01*
X0097826Y0102912D02*
X0092874Y0102912D01*
X0093472Y0101314D02*
X0097228Y0101314D01*
X0097235Y0099715D02*
X0093465Y0099715D01*
X0092799Y0098117D02*
X0097901Y0098117D01*
X0100031Y0096518D02*
X0090669Y0096518D01*
X0091760Y0091723D02*
X0098940Y0091723D01*
X0099124Y0091906D02*
X0097894Y0090676D01*
X0097228Y0089070D01*
X0097228Y0087330D01*
X0097894Y0085724D01*
X0099124Y0084494D01*
X0100730Y0083828D01*
X0102470Y0083828D01*
X0104076Y0084494D01*
X0105306Y0085724D01*
X0105972Y0087330D01*
X0105972Y0089070D01*
X0105306Y0090676D01*
X0104076Y0091906D01*
X0102470Y0092572D01*
X0100730Y0092572D01*
X0099124Y0091906D01*
X0097665Y0090124D02*
X0093035Y0090124D01*
X0093472Y0088526D02*
X0097228Y0088526D01*
X0097395Y0086927D02*
X0093305Y0086927D01*
X0092411Y0085329D02*
X0098289Y0085329D01*
X0104911Y0085329D02*
X0110789Y0085329D01*
X0110394Y0085724D02*
X0111624Y0084494D01*
X0113230Y0083828D01*
X0114970Y0083828D01*
X0116576Y0084494D01*
X0117806Y0085724D01*
X0118472Y0087330D01*
X0118472Y0089070D01*
X0117806Y0090676D01*
X0116576Y0091906D01*
X0114970Y0092572D01*
X0113230Y0092572D01*
X0111624Y0091906D01*
X0110394Y0090676D01*
X0109728Y0089070D01*
X0109728Y0087330D01*
X0110394Y0085724D01*
X0109895Y0086927D02*
X0105805Y0086927D01*
X0105972Y0088526D02*
X0109728Y0088526D01*
X0110165Y0090124D02*
X0105535Y0090124D01*
X0104260Y0091723D02*
X0111440Y0091723D01*
X0116760Y0091723D02*
X0139646Y0091723D01*
X0141244Y0093321D02*
X0008650Y0093321D01*
X0008650Y0098117D02*
X0072901Y0098117D01*
X0072235Y0099715D02*
X0008650Y0099715D01*
X0008650Y0101314D02*
X0072228Y0101314D01*
X0072826Y0102912D02*
X0008650Y0102912D01*
X0008650Y0104511D02*
X0074618Y0104511D01*
X0078582Y0104511D02*
X0087118Y0104511D01*
X0085326Y0102912D02*
X0080374Y0102912D01*
X0080972Y0101314D02*
X0084728Y0101314D01*
X0084735Y0099715D02*
X0080965Y0099715D01*
X0080299Y0098117D02*
X0085401Y0098117D01*
X0097890Y0107708D02*
X0105310Y0107708D01*
X0103965Y0109306D02*
X0099235Y0109306D01*
X0099722Y0110905D02*
X0103478Y0110905D01*
X0103596Y0112503D02*
X0099604Y0112503D01*
X0098781Y0114102D02*
X0104419Y0114102D01*
X0106980Y0119478D02*
X0105374Y0120144D01*
X0104144Y0121374D01*
X0103478Y0122980D01*
X0103478Y0124720D01*
X0104144Y0126326D01*
X0105374Y0127556D01*
X0106980Y0128222D01*
X0108720Y0128222D01*
X0110326Y0127556D01*
X0111556Y0126326D01*
X0112222Y0124720D01*
X0112222Y0122980D01*
X0111556Y0121374D01*
X0110326Y0120144D01*
X0108720Y0119478D01*
X0106980Y0119478D01*
X0105022Y0120496D02*
X0098178Y0120496D01*
X0099355Y0122094D02*
X0103845Y0122094D01*
X0103478Y0123693D02*
X0099722Y0123693D01*
X0099485Y0125291D02*
X0103715Y0125291D01*
X0104707Y0126890D02*
X0098493Y0126890D01*
X0100871Y0130087D02*
X0008650Y0130087D01*
X0008650Y0131685D02*
X0073332Y0131685D01*
X0072894Y0132124D02*
X0074124Y0130894D01*
X0075730Y0130228D01*
X0077470Y0130228D01*
X0079076Y0130894D01*
X0080306Y0132124D01*
X0080972Y0133730D01*
X0080972Y0135470D01*
X0080306Y0137076D01*
X0079076Y0138306D01*
X0077470Y0138972D01*
X0075730Y0138972D01*
X0074124Y0138306D01*
X0072894Y0137076D01*
X0072228Y0135470D01*
X0072228Y0133730D01*
X0072894Y0132124D01*
X0072413Y0133284D02*
X0008650Y0133284D01*
X0008650Y0134882D02*
X0072228Y0134882D01*
X0072647Y0136481D02*
X0008650Y0136481D01*
X0008650Y0138079D02*
X0073897Y0138079D01*
X0079303Y0138079D02*
X0086397Y0138079D01*
X0085147Y0136481D02*
X0080553Y0136481D01*
X0080972Y0134882D02*
X0084728Y0134882D01*
X0084913Y0133284D02*
X0080787Y0133284D01*
X0079868Y0131685D02*
X0085832Y0131685D01*
X0088230Y0142628D02*
X0086624Y0143294D01*
X0085394Y0144524D01*
X0084728Y0146130D01*
X0084728Y0147870D01*
X0085394Y0149476D01*
X0086624Y0150706D01*
X0088230Y0151372D01*
X0089970Y0151372D01*
X0091576Y0150706D01*
X0092806Y0149476D01*
X0093472Y0147870D01*
X0093472Y0146130D01*
X0092806Y0144524D01*
X0091576Y0143294D01*
X0089970Y0142628D01*
X0088230Y0142628D01*
X0087635Y0142875D02*
X0008650Y0142875D01*
X0008650Y0144473D02*
X0085444Y0144473D01*
X0084753Y0146072D02*
X0008650Y0146072D01*
X0008650Y0147670D02*
X0084728Y0147670D01*
X0085308Y0149269D02*
X0008667Y0149269D01*
X0008977Y0150206D02*
X0008977Y0150206D01*
X0009461Y0150868D02*
X0087013Y0150868D01*
X0091187Y0150868D02*
X0099513Y0150868D01*
X0097808Y0149269D02*
X0092892Y0149269D01*
X0093472Y0147670D02*
X0097228Y0147670D01*
X0097253Y0146072D02*
X0093447Y0146072D01*
X0092756Y0144473D02*
X0097944Y0144473D01*
X0100135Y0142875D02*
X0090565Y0142875D01*
X0110993Y0126890D02*
X0117207Y0126890D01*
X0116215Y0125291D02*
X0111985Y0125291D01*
X0112222Y0123693D02*
X0115978Y0123693D01*
X0116345Y0122094D02*
X0111855Y0122094D01*
X0110678Y0120496D02*
X0117522Y0120496D01*
X0120264Y0115700D02*
X0120436Y0115700D01*
X0120436Y0114102D02*
X0120264Y0114102D01*
X0120264Y0112503D02*
X0120436Y0112503D01*
X0120436Y0110905D02*
X0120264Y0110905D01*
X0120264Y0109306D02*
X0120436Y0109306D01*
X0120436Y0107708D02*
X0120264Y0107708D01*
X0116082Y0104511D02*
X0124618Y0104511D01*
X0122826Y0102912D02*
X0117874Y0102912D01*
X0118472Y0101314D02*
X0122228Y0101314D01*
X0122235Y0099715D02*
X0118465Y0099715D01*
X0117799Y0098117D02*
X0122901Y0098117D01*
X0130299Y0098117D02*
X0144800Y0098117D01*
X0144800Y0099715D02*
X0130965Y0099715D01*
X0130972Y0101314D02*
X0144800Y0101314D01*
X0144800Y0102912D02*
X0130374Y0102912D01*
X0128582Y0104511D02*
X0144800Y0104511D01*
X0144800Y0106109D02*
X0008650Y0106109D01*
X0008650Y0117299D02*
X0144800Y0117299D01*
X0144800Y0118897D02*
X0008650Y0118897D01*
X0008650Y0139678D02*
X0143045Y0139678D01*
X0141447Y0141276D02*
X0008650Y0141276D01*
X0008650Y0069343D02*
X0133493Y0069343D01*
X0133019Y0070942D02*
X0132885Y0070942D01*
X0135583Y0067745D02*
X0074600Y0067745D01*
X0073000Y0067745D02*
X0067720Y0067745D01*
X0068036Y0067429D02*
X0067029Y0068436D01*
X0065712Y0068981D01*
X0064288Y0068981D01*
X0062971Y0068436D01*
X0061964Y0067429D01*
X0061419Y0066112D01*
X0061419Y0064688D01*
X0061964Y0063371D01*
X0062600Y0062736D01*
X0062600Y0061552D01*
X0061917Y0060869D01*
X0061917Y0055213D01*
X0062293Y0054836D01*
X0062076Y0054619D01*
X0061839Y0054208D01*
X0061717Y0053750D01*
X0061717Y0051532D01*
X0065301Y0051532D01*
X0065301Y0051164D01*
X0065669Y0051164D01*
X0065669Y0047383D01*
X0067691Y0047383D01*
X0068148Y0047505D01*
X0068559Y0047742D01*
X0068894Y0048077D01*
X0069131Y0048488D01*
X0069254Y0048946D01*
X0069254Y0051164D01*
X0065669Y0051164D01*
X0065669Y0051532D01*
X0069254Y0051532D01*
X0069254Y0053750D01*
X0069131Y0054208D01*
X0068894Y0054619D01*
X0068677Y0054836D01*
X0069054Y0055213D01*
X0069054Y0060869D01*
X0068116Y0061806D01*
X0067400Y0061806D01*
X0067400Y0062736D01*
X0068036Y0063371D01*
X0068581Y0064688D01*
X0068581Y0066112D01*
X0068036Y0067429D01*
X0068567Y0066146D02*
X0070730Y0066146D01*
X0070219Y0064548D02*
X0068523Y0064548D01*
X0067614Y0062949D02*
X0070442Y0062949D01*
X0070387Y0061351D02*
X0068572Y0061351D01*
X0069054Y0059752D02*
X0070106Y0059752D01*
X0070106Y0058154D02*
X0069054Y0058154D01*
X0069054Y0056555D02*
X0070106Y0056555D01*
X0070403Y0054957D02*
X0068798Y0054957D01*
X0069254Y0053358D02*
X0069906Y0053358D01*
X0069906Y0051760D02*
X0069254Y0051760D01*
X0069906Y0051364D02*
X0069906Y0049146D01*
X0070028Y0048688D01*
X0070265Y0048277D01*
X0070600Y0047942D01*
X0071011Y0047705D01*
X0071469Y0047583D01*
X0073490Y0047583D01*
X0073490Y0051364D01*
X0069906Y0051364D01*
X0069906Y0050161D02*
X0069254Y0050161D01*
X0069151Y0048563D02*
X0070100Y0048563D01*
X0073490Y0048563D02*
X0073858Y0048563D01*
X0073858Y0050161D02*
X0073490Y0050161D01*
X0065669Y0050161D02*
X0065301Y0050161D01*
X0065301Y0051164D02*
X0065301Y0047383D01*
X0063280Y0047383D01*
X0062822Y0047505D01*
X0062411Y0047742D01*
X0062076Y0048077D01*
X0061839Y0048488D01*
X0061717Y0048946D01*
X0061717Y0051164D01*
X0065301Y0051164D01*
X0061717Y0051760D02*
X0061065Y0051760D01*
X0061065Y0051532D02*
X0061065Y0053750D01*
X0060942Y0054208D01*
X0060705Y0054619D01*
X0060488Y0054836D01*
X0060865Y0055213D01*
X0060865Y0060869D01*
X0059927Y0061806D01*
X0059800Y0061806D01*
X0059800Y0062736D01*
X0060436Y0063371D01*
X0060981Y0064688D01*
X0060981Y0066112D01*
X0060436Y0067429D01*
X0059429Y0068436D01*
X0058112Y0068981D01*
X0056688Y0068981D01*
X0055371Y0068436D01*
X0054364Y0067429D01*
X0053819Y0066112D01*
X0053819Y0064688D01*
X0054364Y0063371D01*
X0055000Y0062736D01*
X0055000Y0061806D01*
X0054665Y0061806D01*
X0053728Y0060869D01*
X0053728Y0055213D01*
X0054105Y0054836D01*
X0053887Y0054619D01*
X0053650Y0054208D01*
X0053528Y0053750D01*
X0053528Y0051532D01*
X0057112Y0051532D01*
X0057112Y0051164D01*
X0053528Y0051164D01*
X0053528Y0048946D01*
X0053650Y0048488D01*
X0053887Y0048077D01*
X0054222Y0047742D01*
X0054633Y0047505D01*
X0055091Y0047383D01*
X0057112Y0047383D01*
X0057112Y0051164D01*
X0057480Y0051164D01*
X0057480Y0047383D01*
X0059502Y0047383D01*
X0059959Y0047505D01*
X0060370Y0047742D01*
X0060705Y0048077D01*
X0060942Y0048488D01*
X0061065Y0048946D01*
X0061065Y0051164D01*
X0057480Y0051164D01*
X0057480Y0051532D01*
X0061065Y0051532D01*
X0061065Y0050161D02*
X0061717Y0050161D01*
X0061819Y0048563D02*
X0060962Y0048563D01*
X0057480Y0048563D02*
X0057112Y0048563D01*
X0057112Y0050161D02*
X0057480Y0050161D01*
X0053528Y0050161D02*
X0052542Y0050161D01*
X0052542Y0051164D02*
X0052542Y0048946D01*
X0052419Y0048488D01*
X0052182Y0048077D01*
X0051847Y0047742D01*
X0051437Y0047505D01*
X0050979Y0047383D01*
X0048957Y0047383D01*
X0048957Y0051164D01*
X0048589Y0051164D01*
X0045005Y0051164D01*
X0045005Y0048946D01*
X0045127Y0048488D01*
X0045364Y0048077D01*
X0045699Y0047742D01*
X0046110Y0047505D01*
X0046568Y0047383D01*
X0048589Y0047383D01*
X0048589Y0051164D01*
X0048589Y0051532D01*
X0045005Y0051532D01*
X0045005Y0053750D01*
X0045127Y0054208D01*
X0045364Y0054619D01*
X0045582Y0054836D01*
X0045205Y0055213D01*
X0045205Y0060869D01*
X0046036Y0061700D01*
X0045964Y0061771D01*
X0045419Y0063088D01*
X0045419Y0064512D01*
X0045964Y0065829D01*
X0046971Y0066836D01*
X0048288Y0067381D01*
X0049712Y0067381D01*
X0051029Y0066836D01*
X0052036Y0065829D01*
X0052581Y0064512D01*
X0052581Y0063088D01*
X0052036Y0061771D01*
X0051738Y0061473D01*
X0052342Y0060869D01*
X0052342Y0055213D01*
X0051965Y0054836D01*
X0052182Y0054619D01*
X0052419Y0054208D01*
X0052542Y0053750D01*
X0052542Y0051532D01*
X0048958Y0051532D01*
X0048958Y0051164D01*
X0052542Y0051164D01*
X0052542Y0051760D02*
X0053528Y0051760D01*
X0053528Y0053358D02*
X0052542Y0053358D01*
X0052086Y0054957D02*
X0053984Y0054957D01*
X0053728Y0056555D02*
X0052342Y0056555D01*
X0052342Y0058154D02*
X0053728Y0058154D01*
X0053728Y0059752D02*
X0052342Y0059752D01*
X0051860Y0061351D02*
X0054209Y0061351D01*
X0054786Y0062949D02*
X0052524Y0062949D01*
X0052566Y0064548D02*
X0053877Y0064548D01*
X0053833Y0066146D02*
X0051718Y0066146D01*
X0054680Y0067745D02*
X0008650Y0067745D01*
X0008650Y0066146D02*
X0046282Y0066146D01*
X0045434Y0064548D02*
X0008650Y0064548D01*
X0008650Y0062949D02*
X0045476Y0062949D01*
X0045687Y0061351D02*
X0008650Y0061351D01*
X0008650Y0059752D02*
X0045205Y0059752D01*
X0045205Y0058154D02*
X0008650Y0058154D01*
X0008650Y0056555D02*
X0045205Y0056555D01*
X0045461Y0054957D02*
X0008650Y0054957D01*
X0008650Y0053358D02*
X0045005Y0053358D01*
X0045005Y0051760D02*
X0008684Y0051760D01*
X0009380Y0050161D02*
X0045005Y0050161D01*
X0045107Y0048563D02*
X0016601Y0048563D01*
X0048589Y0048563D02*
X0048957Y0048563D01*
X0048957Y0050161D02*
X0048589Y0050161D01*
X0052439Y0048563D02*
X0053630Y0048563D01*
X0061065Y0053358D02*
X0061717Y0053358D01*
X0062173Y0054957D02*
X0060609Y0054957D01*
X0060865Y0056555D02*
X0061917Y0056555D01*
X0061917Y0058154D02*
X0060865Y0058154D01*
X0060865Y0059752D02*
X0061917Y0059752D01*
X0062398Y0061351D02*
X0060383Y0061351D01*
X0060014Y0062949D02*
X0062386Y0062949D01*
X0061477Y0064548D02*
X0060923Y0064548D01*
X0060967Y0066146D02*
X0061433Y0066146D01*
X0062280Y0067745D02*
X0060120Y0067745D01*
X0057400Y0065400D02*
X0057400Y0058337D01*
X0057296Y0058041D01*
X0065000Y0058326D02*
X0065000Y0065400D01*
X0065000Y0058326D02*
X0065485Y0058041D01*
X0073674Y0058241D02*
X0073674Y0064074D01*
X0073800Y0064200D01*
X0077158Y0062949D02*
X0160734Y0062949D01*
X0160392Y0062122D02*
X0160392Y0062122D01*
X0160240Y0061351D02*
X0076961Y0061351D01*
X0077381Y0064548D02*
X0161394Y0064548D01*
X0162053Y0066146D02*
X0076870Y0066146D01*
X0065669Y0048563D02*
X0065301Y0048563D01*
X0048773Y0058041D02*
X0048773Y0063573D01*
X0049000Y0063800D01*
X0110200Y0037373D02*
X0142600Y0037373D01*
X0142600Y0035775D02*
X0110200Y0035775D01*
X0110200Y0034176D02*
X0142600Y0034176D01*
X0142600Y0032578D02*
X0110200Y0032578D01*
X0110200Y0030979D02*
X0142600Y0030979D01*
X0142587Y0029381D02*
X0110200Y0029381D01*
X0110200Y0027782D02*
X0140988Y0027782D01*
X0139390Y0026184D02*
X0110200Y0026184D01*
X0110200Y0024585D02*
X0137791Y0024585D01*
X0136192Y0022987D02*
X0110200Y0022987D01*
X0110200Y0021388D02*
X0135400Y0021388D01*
X0134407Y0019790D02*
X0131193Y0019790D01*
X0132038Y0018191D02*
X0133562Y0018191D01*
X0133428Y0016593D02*
X0132172Y0016593D01*
X0131701Y0014994D02*
X0133899Y0014994D01*
X0135222Y0013396D02*
X0130378Y0013396D01*
X0125222Y0013396D02*
X0120378Y0013396D01*
X0121701Y0014994D02*
X0123899Y0014994D01*
X0123428Y0016593D02*
X0122172Y0016593D01*
X0122038Y0018191D02*
X0123562Y0018191D01*
X0124407Y0019790D02*
X0121193Y0019790D01*
X0115222Y0013396D02*
X0112002Y0013396D01*
X0112172Y0014994D02*
X0113899Y0014994D01*
X0113428Y0016593D02*
X0112172Y0016593D01*
X0112172Y0018191D02*
X0113562Y0018191D01*
X0114407Y0019790D02*
X0112172Y0019790D01*
X0137800Y0021200D02*
X0137800Y0017000D01*
X0137800Y0021200D02*
X0145000Y0028400D01*
X0145000Y0050200D01*
X0148581Y0050161D02*
X0159150Y0050161D01*
X0159150Y0048563D02*
X0148198Y0048563D01*
X0147400Y0046964D02*
X0159150Y0046964D01*
X0159150Y0045366D02*
X0147400Y0045366D01*
X0147400Y0043767D02*
X0159150Y0043767D01*
X0159150Y0042169D02*
X0147400Y0042169D01*
X0147400Y0040570D02*
X0159150Y0040570D01*
X0159150Y0038972D02*
X0147400Y0038972D01*
X0147400Y0037373D02*
X0159150Y0037373D01*
X0159150Y0035775D02*
X0147400Y0035775D01*
X0147400Y0034176D02*
X0159150Y0034176D01*
X0159150Y0032578D02*
X0147400Y0032578D01*
X0147400Y0030979D02*
X0159150Y0030979D01*
X0159150Y0029381D02*
X0147400Y0029381D01*
X0147342Y0027782D02*
X0159150Y0027782D01*
X0159150Y0026184D02*
X0146178Y0026184D01*
X0144579Y0024585D02*
X0159150Y0024585D01*
X0159150Y0022987D02*
X0142981Y0022987D01*
X0141382Y0021388D02*
X0159150Y0021388D01*
X0154407Y0019790D02*
X0151193Y0019790D01*
X0152038Y0018191D02*
X0153562Y0018191D01*
X0153428Y0016593D02*
X0152172Y0016593D01*
X0151701Y0014994D02*
X0153899Y0014994D01*
X0155222Y0013396D02*
X0150378Y0013396D01*
X0145222Y0013396D02*
X0140378Y0013396D01*
X0141701Y0014994D02*
X0143899Y0014994D01*
X0143428Y0016593D02*
X0142172Y0016593D01*
X0142038Y0018191D02*
X0143562Y0018191D01*
X0144407Y0019790D02*
X0141193Y0019790D01*
X0148230Y0051760D02*
X0159101Y0051760D01*
X0159098Y0053358D02*
X0146733Y0053358D01*
X0137617Y0067745D02*
X0162713Y0067745D01*
X0162950Y0068320D02*
X0162950Y0068320D01*
X0163633Y0069343D02*
X0139707Y0069343D01*
X0140181Y0070942D02*
X0164698Y0070942D01*
X0165764Y0072540D02*
X0139921Y0072540D01*
X0139200Y0074139D02*
X0166909Y0074139D01*
X0166669Y0073898D02*
X0166669Y0073898D01*
X0168505Y0075737D02*
X0139200Y0075737D01*
X0139200Y0077336D02*
X0170101Y0077336D01*
X0171406Y0078643D02*
X0171406Y0078643D01*
X0171841Y0078934D02*
X0139200Y0078934D01*
X0139200Y0080533D02*
X0174230Y0080533D01*
X0176619Y0082132D02*
X0139200Y0082132D01*
X0139200Y0083730D02*
X0180253Y0083730D01*
X0183172Y0084941D02*
X0183172Y0084941D01*
X0185120Y0085329D02*
X0140605Y0085329D01*
X0142204Y0086927D02*
X0195066Y0086927D01*
X0196266Y0088526D02*
X0143803Y0088526D01*
X0145401Y0090124D02*
X0196503Y0090124D01*
X0196550Y0091723D02*
X0147000Y0091723D01*
X0148598Y0093321D02*
X0196550Y0093321D01*
X0196550Y0094920D02*
X0149850Y0094920D01*
X0150000Y0096518D02*
X0196550Y0096518D01*
X0196550Y0098117D02*
X0150000Y0098117D01*
X0150000Y0099715D02*
X0196550Y0099715D01*
X0196550Y0101314D02*
X0150000Y0101314D01*
X0150000Y0102912D02*
X0196550Y0102912D01*
X0196550Y0104511D02*
X0150000Y0104511D01*
X0150000Y0106109D02*
X0196550Y0106109D01*
X0196550Y0107708D02*
X0150000Y0107708D01*
X0150000Y0109306D02*
X0196550Y0109306D01*
X0196550Y0110905D02*
X0150000Y0110905D01*
X0150000Y0112503D02*
X0196550Y0112503D01*
X0139848Y0142875D02*
X0115565Y0142875D01*
X0117756Y0144473D02*
X0138250Y0144473D01*
X0138047Y0090124D02*
X0118035Y0090124D01*
X0118472Y0088526D02*
X0136449Y0088526D01*
X0134850Y0086927D02*
X0118305Y0086927D01*
X0117411Y0085329D02*
X0134000Y0085329D01*
X0126486Y0077336D02*
X0126197Y0077336D01*
X0123038Y0072540D02*
X0122669Y0072540D01*
X0122669Y0070942D02*
X0123038Y0070942D01*
D16*
X0136600Y0071200D03*
X0145000Y0050200D03*
X0107800Y0055200D03*
X0073800Y0064200D03*
X0065000Y0065400D03*
X0057400Y0065400D03*
X0049000Y0063800D03*
X0154800Y0133600D03*
X0162400Y0118600D03*
D17*
X0154800Y0126200D01*
X0154800Y0133600D01*
X0147400Y0139000D02*
X0121400Y0165000D01*
X0121400Y0211625D01*
X0121474Y0211599D01*
X0141474Y0211599D02*
X0141600Y0211573D01*
X0141600Y0162800D01*
X0166148Y0138252D01*
X0170074Y0138252D01*
X0147400Y0139000D02*
X0147400Y0095800D01*
X0136600Y0085000D01*
X0136600Y0071200D01*
X0133800Y0074000D01*
X0129546Y0074000D01*
M02*
