G75*
%MOIN*%
%OFA0B0*%
%FSLAX24Y24*%
%IPPOS*%
%LPD*%
%AMOC8*
5,1,8,0,0,1.08239X$1,22.5*
%
%ADD10C,0.0316*%
%ADD11R,0.0552X0.0395*%
%ADD12R,0.1143X0.1084*%
%ADD13R,0.0395X0.0277*%
%ADD14R,0.0552X0.0356*%
%ADD15R,0.2521X0.2206*%
%ADD16R,0.0710X0.0474*%
%ADD17R,0.0474X0.0513*%
%ADD18R,0.0552X0.0552*%
%ADD19R,0.0395X0.0552*%
%ADD20R,0.0434X0.0552*%
%ADD21R,0.0277X0.0671*%
%ADD22R,0.0671X0.0277*%
%ADD23R,0.1261X0.0710*%
%ADD24R,0.2330X0.1980*%
%ADD25R,0.0513X0.0474*%
%ADD26R,0.0340X0.0880*%
%ADD27C,0.0820*%
%ADD28R,0.0470X0.0352*%
%ADD29R,0.0356X0.0356*%
%ADD30OC8,0.0820*%
%ADD31R,0.0820X0.0820*%
%ADD32R,0.0710X0.0540*%
%ADD33R,0.0720X0.0060*%
%ADD34R,0.0540X0.0710*%
%ADD35R,0.0060X0.0720*%
%ADD36R,0.0218X0.0474*%
%ADD37R,0.0474X0.0218*%
%ADD38R,0.0946X0.0867*%
%ADD39R,0.0867X0.0946*%
%ADD40C,0.0437*%
%ADD41C,0.0476*%
D10*
X010280Y007300D03*
X010280Y015200D03*
D11*
X013180Y015296D03*
X013180Y016004D03*
X014680Y012654D03*
X014680Y011946D03*
X014780Y009054D03*
X014780Y008346D03*
X011440Y009046D03*
X011440Y009754D03*
X009700Y009764D03*
X009700Y009056D03*
X007070Y009164D03*
X007070Y008456D03*
X005750Y008456D03*
X005750Y009164D03*
X007280Y012826D03*
X007280Y013534D03*
X012840Y001474D03*
X012840Y000766D03*
X014340Y000766D03*
X014340Y001474D03*
D12*
X015180Y014052D03*
X015180Y016548D03*
D13*
X016686Y016700D03*
X017474Y016700D03*
D14*
X017808Y017400D03*
X016352Y017400D03*
D15*
X018564Y009100D03*
D16*
X015690Y008202D03*
X015690Y009998D03*
D17*
X018180Y014465D03*
X018180Y015135D03*
X019080Y016665D03*
X019080Y017335D03*
D18*
X012380Y016063D03*
X012380Y015237D03*
X012840Y002813D03*
X012840Y001987D03*
X014340Y002027D03*
X014340Y002853D03*
D19*
X010944Y009140D03*
X010236Y009140D03*
X008914Y012800D03*
X008206Y012800D03*
X007926Y017000D03*
X008634Y017000D03*
X008634Y018000D03*
X007926Y018000D03*
D20*
X007244Y018860D03*
X006744Y018860D03*
X005844Y018860D03*
X005344Y018860D03*
X005344Y016340D03*
X005844Y016340D03*
X006744Y016340D03*
X007244Y016340D03*
D21*
X007380Y006483D03*
X007695Y006483D03*
X008010Y006483D03*
X008325Y006483D03*
X008640Y006483D03*
X008955Y006483D03*
X007065Y006483D03*
X006750Y006483D03*
X006435Y006483D03*
X006120Y006483D03*
X005805Y006483D03*
X005805Y001917D03*
X006120Y001917D03*
X006435Y001917D03*
X006750Y001917D03*
X007065Y001917D03*
X007380Y001917D03*
X007695Y001917D03*
X008010Y001917D03*
X008325Y001917D03*
X008640Y001917D03*
X008955Y001917D03*
D22*
X009663Y002625D03*
X009663Y002940D03*
X009663Y003255D03*
X009663Y003570D03*
X009663Y003885D03*
X009663Y004200D03*
X009663Y004515D03*
X009663Y004830D03*
X009663Y005145D03*
X009663Y005460D03*
X009663Y005775D03*
X005097Y005775D03*
X005097Y005460D03*
X005097Y005145D03*
X005097Y004830D03*
X005097Y004515D03*
X005097Y004200D03*
X005097Y003885D03*
X005097Y003570D03*
X005097Y003255D03*
X005097Y002940D03*
X005097Y002625D03*
D23*
X015989Y010902D03*
X015989Y012698D03*
D24*
X018705Y011800D03*
D25*
X017415Y016000D03*
X016745Y016000D03*
D26*
X014330Y006010D03*
X013830Y006010D03*
X013330Y006010D03*
X012830Y006010D03*
X012830Y003590D03*
X013330Y003590D03*
X013830Y003590D03*
X014330Y003590D03*
D27*
X002130Y004600D03*
X002230Y005600D03*
X002130Y006600D03*
X002230Y007600D03*
X002130Y008600D03*
X006080Y020450D03*
X005080Y020550D03*
X007080Y020550D03*
X013080Y020800D03*
X014080Y020800D03*
X015080Y020800D03*
X019190Y015650D03*
X019190Y014510D03*
D28*
X003292Y012674D03*
X003292Y011926D03*
X003292Y011074D03*
X003292Y010326D03*
X002272Y010326D03*
X002272Y010700D03*
X002272Y011074D03*
X002272Y011926D03*
X002272Y012300D03*
X002272Y012674D03*
D29*
X004474Y010754D03*
X004986Y010754D03*
X005474Y010754D03*
X005986Y010754D03*
X005730Y010026D03*
X004730Y010026D03*
D30*
X009880Y017300D03*
X009880Y018300D03*
X009880Y019300D03*
X009880Y020300D03*
X010880Y020300D03*
X010880Y019300D03*
X010880Y018300D03*
X010880Y017300D03*
D31*
X008080Y020450D03*
D32*
X012740Y011380D03*
X012740Y010780D03*
X008540Y009990D03*
X008540Y009390D03*
X008540Y008790D03*
D33*
X012740Y011080D03*
D34*
X007290Y011200D03*
X006690Y011200D03*
X006670Y012160D03*
X007270Y012160D03*
D35*
X006970Y012160D03*
X006990Y011200D03*
D36*
X009361Y011812D03*
X009557Y011812D03*
X009754Y011812D03*
X009951Y011812D03*
X010148Y011812D03*
X010345Y011812D03*
X010542Y011812D03*
X010739Y011812D03*
X010935Y011812D03*
X011132Y011812D03*
X011132Y010424D03*
X010935Y010424D03*
X010739Y010424D03*
X010542Y010424D03*
X010345Y010424D03*
X010148Y010424D03*
X009951Y010424D03*
X009754Y010424D03*
X009557Y010424D03*
X009361Y010424D03*
D37*
X009277Y010823D03*
X009277Y011020D03*
X009277Y011216D03*
X009277Y011413D03*
X011216Y011413D03*
X011216Y011216D03*
X011216Y011020D03*
X011216Y010823D03*
D38*
X015300Y006751D03*
X015300Y005569D03*
D39*
X012951Y013120D03*
X011769Y013120D03*
D40*
X011590Y012270D03*
X012160Y011800D03*
X011680Y011410D03*
X010240Y011060D03*
X010250Y009780D03*
X010080Y012550D03*
X007910Y013430D03*
X006510Y012970D03*
X005480Y011250D03*
X006570Y007760D03*
X006180Y004240D03*
X008980Y001100D03*
X010880Y003500D03*
X011980Y003700D03*
X013580Y002820D03*
X014280Y004400D03*
X013840Y004860D03*
X014780Y007600D03*
X014780Y009700D03*
X006730Y015800D03*
X005380Y015800D03*
X005380Y019400D03*
X006730Y019400D03*
X001780Y012300D03*
X001730Y011550D03*
X001780Y010700D03*
X001730Y009950D03*
D41*
X003180Y013240D03*
X003900Y013720D03*
X005380Y013400D03*
X005060Y009480D03*
X006420Y009560D03*
X007280Y005600D03*
X007380Y003000D03*
X008560Y003060D03*
X010640Y005140D03*
X011100Y004830D03*
X013620Y000800D03*
X012280Y009950D03*
X014680Y010720D03*
X010630Y012400D03*
X014560Y017840D03*
M02*
