G75*
%MOIN*%
%OFA0B0*%
%FSLAX24Y24*%
%IPPOS*%
%LPD*%
%AMOC8*
5,1,8,0,0,1.08239X$1,22.5*
%
%ADD10C,0.0160*%
%ADD11C,0.0060*%
%ADD12C,0.0100*%
%ADD13C,0.0080*%
%ADD14C,0.0050*%
%ADD15R,0.0300X0.0340*%
%ADD16C,0.0030*%
%ADD17R,0.0059X0.0118*%
%ADD18R,0.0118X0.0118*%
%ADD19C,0.0020*%
%ADD20C,0.0004*%
%ADD21C,0.0030*%
D10*
X003100Y004780D02*
X003760Y004360D01*
X003760Y005180D01*
X003100Y004780D01*
X003660Y004980D01*
X003640Y004860D02*
X003620Y004840D01*
X003620Y004680D01*
X003460Y004840D01*
X003420Y004840D01*
X003320Y004820D02*
X003320Y004800D01*
X003660Y004540D01*
D11*
X005514Y008692D02*
X005514Y008928D01*
X005986Y008928D02*
X005986Y008692D01*
X006834Y008692D02*
X006834Y008928D01*
X007306Y008928D02*
X007306Y008692D01*
X008140Y008540D02*
X008140Y010240D01*
X008142Y010257D01*
X008146Y010274D01*
X008153Y010290D01*
X008163Y010304D01*
X008176Y010317D01*
X008190Y010327D01*
X008206Y010334D01*
X008223Y010338D01*
X008240Y010340D01*
X008840Y010340D01*
X008857Y010338D01*
X008874Y010334D01*
X008890Y010327D01*
X008904Y010317D01*
X008917Y010304D01*
X008927Y010290D01*
X008934Y010274D01*
X008938Y010257D01*
X008940Y010240D01*
X008940Y008540D01*
X008938Y008523D01*
X008934Y008506D01*
X008927Y008490D01*
X008917Y008476D01*
X008904Y008463D01*
X008890Y008453D01*
X008874Y008446D01*
X008857Y008442D01*
X008840Y008440D01*
X008240Y008440D01*
X008223Y008442D01*
X008206Y008446D01*
X008190Y008453D01*
X008176Y008463D01*
X008163Y008476D01*
X008153Y008490D01*
X008146Y008506D01*
X008142Y008523D01*
X008140Y008540D01*
X009464Y009292D02*
X009464Y009528D01*
X009936Y009528D02*
X009936Y009292D01*
X010472Y009376D02*
X010708Y009376D01*
X010708Y008904D02*
X010472Y008904D01*
X011204Y009282D02*
X011204Y009518D01*
X011676Y009518D02*
X011676Y009282D01*
X012440Y010430D02*
X013040Y010430D01*
X013057Y010432D01*
X013074Y010436D01*
X013090Y010443D01*
X013104Y010453D01*
X013117Y010466D01*
X013127Y010480D01*
X013134Y010496D01*
X013138Y010513D01*
X013140Y010530D01*
X013140Y011630D01*
X013138Y011647D01*
X013134Y011664D01*
X013127Y011680D01*
X013117Y011694D01*
X013104Y011707D01*
X013090Y011717D01*
X013074Y011724D01*
X013057Y011728D01*
X013040Y011730D01*
X012440Y011730D01*
X012423Y011728D01*
X012406Y011724D01*
X012390Y011717D01*
X012376Y011707D01*
X012363Y011694D01*
X012353Y011680D01*
X012346Y011664D01*
X012342Y011647D01*
X012340Y011630D01*
X012340Y010530D01*
X012342Y010513D01*
X012346Y010496D01*
X012353Y010480D01*
X012363Y010466D01*
X012376Y010453D01*
X012390Y010443D01*
X012406Y010436D01*
X012423Y010432D01*
X012440Y010430D01*
X014444Y012182D02*
X014444Y012418D01*
X014916Y012418D02*
X014916Y012182D01*
X015016Y008818D02*
X015016Y008582D01*
X014544Y008582D02*
X014544Y008818D01*
X014430Y005570D02*
X012730Y005570D01*
X012707Y005568D01*
X012684Y005563D01*
X012662Y005554D01*
X012642Y005541D01*
X012624Y005526D01*
X012609Y005508D01*
X012596Y005488D01*
X012587Y005466D01*
X012582Y005443D01*
X012580Y005420D01*
X012580Y005000D01*
X012580Y004600D01*
X012580Y004180D01*
X012582Y004157D01*
X012587Y004134D01*
X012596Y004112D01*
X012609Y004092D01*
X012624Y004074D01*
X012642Y004059D01*
X012662Y004046D01*
X012684Y004037D01*
X012707Y004032D01*
X012730Y004030D01*
X014430Y004030D01*
X014453Y004032D01*
X014476Y004037D01*
X014498Y004046D01*
X014518Y004059D01*
X014536Y004074D01*
X014551Y004092D01*
X014564Y004112D01*
X014573Y004134D01*
X014578Y004157D01*
X014580Y004180D01*
X014580Y005420D01*
X014578Y005443D01*
X014573Y005466D01*
X014564Y005488D01*
X014551Y005508D01*
X014536Y005526D01*
X014518Y005541D01*
X014498Y005554D01*
X014476Y005563D01*
X014453Y005568D01*
X014430Y005570D01*
X012580Y005000D02*
X012607Y004998D01*
X012634Y004993D01*
X012660Y004983D01*
X012684Y004971D01*
X012706Y004955D01*
X012726Y004937D01*
X012743Y004915D01*
X012758Y004892D01*
X012768Y004867D01*
X012776Y004841D01*
X012780Y004814D01*
X012780Y004786D01*
X012776Y004759D01*
X012768Y004733D01*
X012758Y004708D01*
X012743Y004685D01*
X012726Y004663D01*
X012706Y004645D01*
X012684Y004629D01*
X012660Y004617D01*
X012634Y004607D01*
X012607Y004602D01*
X012580Y004600D01*
X012604Y001238D02*
X012604Y001002D01*
X013076Y001002D02*
X013076Y001238D01*
X014104Y001238D02*
X014104Y001002D01*
X014576Y001002D02*
X014576Y001238D01*
X007540Y010800D02*
X006440Y010800D01*
X006423Y010802D01*
X006406Y010806D01*
X006390Y010813D01*
X006376Y010823D01*
X006363Y010836D01*
X006353Y010850D01*
X006346Y010866D01*
X006342Y010883D01*
X006340Y010900D01*
X006340Y011500D01*
X006342Y011517D01*
X006346Y011534D01*
X006353Y011550D01*
X006363Y011564D01*
X006376Y011577D01*
X006390Y011587D01*
X006406Y011594D01*
X006423Y011598D01*
X006440Y011600D01*
X007540Y011600D01*
X007557Y011598D01*
X007574Y011594D01*
X007590Y011587D01*
X007604Y011577D01*
X007617Y011564D01*
X007627Y011550D01*
X007634Y011534D01*
X007638Y011517D01*
X007640Y011500D01*
X007640Y010900D01*
X007638Y010883D01*
X007634Y010866D01*
X007627Y010850D01*
X007617Y010836D01*
X007604Y010823D01*
X007590Y010813D01*
X007574Y010806D01*
X007557Y010802D01*
X007540Y010800D01*
X007520Y011760D02*
X006420Y011760D01*
X006403Y011762D01*
X006386Y011766D01*
X006370Y011773D01*
X006356Y011783D01*
X006343Y011796D01*
X006333Y011810D01*
X006326Y011826D01*
X006322Y011843D01*
X006320Y011860D01*
X006320Y012460D01*
X006322Y012477D01*
X006326Y012494D01*
X006333Y012510D01*
X006343Y012524D01*
X006356Y012537D01*
X006370Y012547D01*
X006386Y012554D01*
X006403Y012558D01*
X006420Y012560D01*
X007520Y012560D01*
X007537Y012558D01*
X007554Y012554D01*
X007570Y012547D01*
X007584Y012537D01*
X007597Y012524D01*
X007607Y012510D01*
X007614Y012494D01*
X007618Y012477D01*
X007620Y012460D01*
X007620Y011860D01*
X007618Y011843D01*
X007614Y011826D01*
X007607Y011810D01*
X007597Y011796D01*
X007584Y011783D01*
X007570Y011773D01*
X007554Y011766D01*
X007537Y011762D01*
X007520Y011760D01*
X008442Y012564D02*
X008678Y012564D01*
X008678Y013036D02*
X008442Y013036D01*
X007516Y013062D02*
X007516Y013298D01*
X007044Y013298D02*
X007044Y013062D01*
X008162Y016764D02*
X008398Y016764D01*
X008398Y017236D02*
X008162Y017236D01*
X008162Y017764D02*
X008398Y017764D01*
X008398Y018236D02*
X008162Y018236D01*
X009380Y018050D02*
X009380Y018550D01*
X009630Y018800D01*
X009380Y019050D01*
X009380Y019550D01*
X009630Y019800D01*
X009380Y020050D01*
X009380Y020550D01*
X009630Y020800D01*
X011130Y020800D01*
X011380Y020550D01*
X011380Y020050D01*
X011130Y019800D01*
X011380Y019550D01*
X011380Y019050D01*
X011130Y018800D01*
X011380Y018550D01*
X011380Y018050D01*
X011130Y017800D01*
X011380Y017550D01*
X011380Y017050D01*
X011130Y016800D01*
X009630Y016800D01*
X009380Y017050D01*
X009380Y017550D01*
X009630Y017800D01*
X009380Y018050D01*
X012944Y015768D02*
X012944Y015532D01*
X013416Y015532D02*
X013416Y015768D01*
D12*
X001410Y004187D02*
X001343Y004120D01*
X001410Y004187D02*
X001410Y004253D01*
X001343Y004320D01*
X001010Y004320D01*
X001010Y004253D02*
X001010Y004387D01*
X001010Y004580D02*
X001010Y004781D01*
X001076Y004847D01*
X001210Y004847D01*
X001277Y004781D01*
X001277Y004580D01*
X001410Y004580D02*
X001010Y004580D01*
X001143Y005041D02*
X001010Y005174D01*
X001410Y005174D01*
X001410Y005041D02*
X001410Y005308D01*
X004730Y006317D02*
X004797Y006250D01*
X004930Y006250D01*
X004997Y006317D01*
X004997Y006650D01*
X005190Y006517D02*
X005324Y006650D01*
X005324Y006250D01*
X005457Y006250D02*
X005190Y006250D01*
X004730Y006317D02*
X004730Y006650D01*
X005515Y007380D02*
X005515Y007580D01*
X005581Y007647D01*
X005715Y007647D01*
X005782Y007580D01*
X005782Y007380D01*
X005915Y007380D02*
X005515Y007380D01*
X005782Y007513D02*
X005915Y007647D01*
X005848Y007840D02*
X005915Y007907D01*
X005915Y008041D01*
X005848Y008107D01*
X005715Y008107D01*
X005648Y008041D01*
X005648Y007974D01*
X005715Y007840D01*
X005515Y007840D01*
X005515Y008107D01*
X007100Y008125D02*
X007100Y007725D01*
X007100Y007858D02*
X007300Y007858D01*
X007367Y007925D01*
X007367Y008059D01*
X007300Y008125D01*
X007100Y008125D01*
X007233Y007858D02*
X007367Y007725D01*
X007560Y007725D02*
X007827Y007725D01*
X007694Y007725D02*
X007694Y008125D01*
X007560Y007992D01*
X008021Y008059D02*
X008088Y008125D01*
X008221Y008125D01*
X008288Y008059D01*
X008288Y007992D01*
X008021Y007725D01*
X008288Y007725D01*
X007863Y008629D02*
X007930Y008696D01*
X007930Y008829D01*
X007863Y008896D01*
X007797Y008896D01*
X007730Y008829D01*
X007730Y008696D01*
X007663Y008629D01*
X007596Y008629D01*
X007530Y008696D01*
X007530Y008829D01*
X007596Y008896D01*
X007863Y009089D02*
X007930Y009156D01*
X007930Y009223D01*
X007863Y009289D01*
X007530Y009289D01*
X007530Y009223D02*
X007530Y009356D01*
X007730Y009550D02*
X007730Y009816D01*
X007930Y009750D02*
X007530Y009750D01*
X007730Y009550D01*
X007661Y010250D02*
X007528Y010250D01*
X007461Y010317D01*
X007594Y010450D02*
X007661Y010450D01*
X007728Y010383D01*
X007728Y010317D01*
X007661Y010250D01*
X007661Y010450D02*
X007728Y010517D01*
X007728Y010584D01*
X007661Y010650D01*
X007528Y010650D01*
X007461Y010584D01*
X007267Y010650D02*
X007134Y010650D01*
X007201Y010650D02*
X007201Y010317D01*
X007134Y010250D01*
X007067Y010250D01*
X007000Y010317D01*
X006807Y010317D02*
X006807Y010383D01*
X006740Y010450D01*
X006607Y010450D01*
X006540Y010517D01*
X006540Y010584D01*
X006607Y010650D01*
X006740Y010650D01*
X006807Y010584D01*
X006807Y010317D02*
X006740Y010250D01*
X006607Y010250D01*
X006540Y010317D01*
X005853Y011682D02*
X005586Y011682D01*
X005519Y011749D01*
X005519Y011882D01*
X005586Y011949D01*
X005853Y011949D01*
X005919Y011882D01*
X005919Y011749D01*
X005853Y011682D01*
X005786Y011816D02*
X005919Y011949D01*
X005919Y012143D02*
X005919Y012410D01*
X005919Y012276D02*
X005519Y012276D01*
X005652Y012143D01*
X004959Y011850D02*
X004959Y011583D01*
X004692Y011850D01*
X004626Y011850D01*
X004559Y011783D01*
X004559Y011649D01*
X004626Y011583D01*
X004626Y011389D02*
X004893Y011389D01*
X004959Y011322D01*
X004959Y011189D01*
X004893Y011122D01*
X004626Y011122D01*
X004559Y011189D01*
X004559Y011322D01*
X004626Y011389D01*
X004826Y011256D02*
X004959Y011389D01*
X004110Y011097D02*
X004110Y010964D01*
X004043Y010897D01*
X003910Y010897D02*
X003843Y011031D01*
X003843Y011097D01*
X003910Y011164D01*
X004043Y011164D01*
X004110Y011097D01*
X003910Y010897D02*
X003710Y010897D01*
X003710Y011164D01*
X003776Y010704D02*
X003710Y010637D01*
X003710Y010504D01*
X003776Y010437D01*
X004043Y010437D01*
X004110Y010504D01*
X004110Y010637D01*
X004043Y010704D01*
X004110Y010263D02*
X004110Y010130D01*
X004110Y010197D02*
X003710Y010197D01*
X003710Y010263D02*
X003710Y010130D01*
X003690Y011770D02*
X003690Y011903D01*
X003690Y011837D02*
X004090Y011837D01*
X004090Y011903D02*
X004090Y011770D01*
X004023Y012077D02*
X003756Y012077D01*
X003690Y012144D01*
X003690Y012277D01*
X003756Y012344D01*
X003890Y012537D02*
X003890Y012804D01*
X004090Y012737D02*
X003690Y012737D01*
X003890Y012537D01*
X004023Y012344D02*
X004090Y012277D01*
X004090Y012144D01*
X004023Y012077D01*
X006455Y012880D02*
X006455Y013080D01*
X006521Y013147D01*
X006655Y013147D01*
X006722Y013080D01*
X006722Y012880D01*
X006855Y012880D02*
X006455Y012880D01*
X006722Y013013D02*
X006855Y013147D01*
X006855Y013340D02*
X006588Y013607D01*
X006521Y013607D01*
X006455Y013541D01*
X006455Y013407D01*
X006521Y013340D01*
X006855Y013340D02*
X006855Y013607D01*
X007907Y012330D02*
X007840Y012264D01*
X007840Y012197D01*
X007907Y012130D01*
X008040Y012130D01*
X008107Y012063D01*
X008107Y011997D01*
X008040Y011930D01*
X007907Y011930D01*
X007840Y011997D01*
X007907Y012330D02*
X008040Y012330D01*
X008107Y012264D01*
X008300Y011997D02*
X008367Y011930D01*
X008434Y011930D01*
X008501Y011997D01*
X008501Y012330D01*
X008567Y012330D02*
X008434Y012330D01*
X008761Y012264D02*
X008828Y012330D01*
X008961Y012330D01*
X009028Y012264D01*
X009028Y012197D01*
X008761Y011930D01*
X009028Y011930D01*
X009300Y012580D02*
X009633Y012580D01*
X009700Y012647D01*
X009700Y012780D01*
X009633Y012847D01*
X009300Y012847D01*
X009366Y013040D02*
X009300Y013107D01*
X009300Y013241D01*
X009366Y013307D01*
X009433Y013307D01*
X009700Y013040D01*
X009700Y013307D01*
X009037Y013338D02*
X009037Y013272D01*
X008970Y013205D01*
X008836Y013205D01*
X008770Y013272D01*
X008903Y013405D02*
X008970Y013405D01*
X009037Y013338D01*
X008970Y013405D02*
X009037Y013472D01*
X009037Y013539D01*
X008970Y013605D01*
X008836Y013605D01*
X008770Y013539D01*
X008576Y013539D02*
X008509Y013605D01*
X008376Y013605D01*
X008309Y013539D01*
X008309Y013272D01*
X008376Y013205D01*
X008509Y013205D01*
X008576Y013272D01*
X008557Y016175D02*
X008290Y016175D01*
X008424Y016175D02*
X008424Y016575D01*
X008290Y016442D01*
X008097Y016509D02*
X008097Y016375D01*
X008030Y016308D01*
X007830Y016308D01*
X007830Y016175D02*
X007830Y016575D01*
X008030Y016575D01*
X008097Y016509D01*
X007963Y016308D02*
X008097Y016175D01*
X008751Y016175D02*
X009018Y016175D01*
X008884Y016175D02*
X008884Y016575D01*
X008751Y016442D01*
X008491Y018375D02*
X008357Y018375D01*
X008290Y018442D01*
X008290Y018575D01*
X008491Y018575D01*
X008557Y018508D01*
X008557Y018442D01*
X008491Y018375D01*
X008290Y018575D02*
X008424Y018709D01*
X008557Y018775D01*
X008097Y018709D02*
X008097Y018575D01*
X008030Y018508D01*
X007830Y018508D01*
X007830Y018375D02*
X007830Y018775D01*
X008030Y018775D01*
X008097Y018709D01*
X007963Y018508D02*
X008097Y018375D01*
X007939Y019330D02*
X007939Y019730D01*
X008139Y019730D01*
X008206Y019664D01*
X008206Y019530D01*
X008139Y019463D01*
X007939Y019463D01*
X007679Y019397D02*
X007612Y019330D01*
X007546Y019330D01*
X007479Y019397D01*
X007679Y019397D02*
X007679Y019730D01*
X007612Y019730D02*
X007746Y019730D01*
X008400Y019530D02*
X008666Y019530D01*
X008600Y019330D02*
X008600Y019730D01*
X008400Y019530D01*
X011300Y021237D02*
X011367Y021170D01*
X011433Y021170D01*
X011500Y021237D01*
X011500Y021570D01*
X011433Y021570D02*
X011567Y021570D01*
X011760Y021570D02*
X011760Y021170D01*
X011760Y021303D02*
X011961Y021303D01*
X012027Y021370D01*
X012027Y021504D01*
X011961Y021570D01*
X011760Y021570D01*
X012221Y021504D02*
X012288Y021570D01*
X012421Y021570D01*
X012488Y021504D01*
X012488Y021437D01*
X012221Y021170D01*
X012488Y021170D01*
X011913Y020656D02*
X011980Y020590D01*
X011980Y020456D01*
X011913Y020390D01*
X011780Y020523D02*
X011780Y020590D01*
X011847Y020656D01*
X011913Y020656D01*
X011780Y020590D02*
X011713Y020656D01*
X011646Y020656D01*
X011580Y020590D01*
X011580Y020456D01*
X011646Y020390D01*
X011646Y020196D02*
X011580Y020129D01*
X011580Y019996D01*
X011646Y019929D01*
X011713Y019929D01*
X011780Y019996D01*
X011780Y020129D01*
X011847Y020196D01*
X011913Y020196D01*
X011980Y020129D01*
X011980Y019996D01*
X011913Y019929D01*
X012047Y020063D02*
X011513Y020063D01*
X011580Y019736D02*
X011913Y019736D01*
X011980Y019669D01*
X011980Y019536D01*
X011913Y019469D01*
X011580Y019469D01*
X011576Y016768D02*
X011643Y016768D01*
X011710Y016701D01*
X011777Y016768D01*
X011843Y016768D01*
X011910Y016701D01*
X011910Y016568D01*
X011843Y016501D01*
X011710Y016635D02*
X011710Y016701D01*
X011576Y016768D02*
X011510Y016701D01*
X011510Y016568D01*
X011576Y016501D01*
X011576Y016308D02*
X011510Y016241D01*
X011510Y016041D01*
X011910Y016041D01*
X011910Y016241D01*
X011843Y016308D01*
X011576Y016308D01*
X011510Y015847D02*
X011510Y015580D01*
X011910Y015580D01*
X011910Y015847D01*
X011710Y015714D02*
X011710Y015580D01*
X011910Y015387D02*
X011910Y015120D01*
X011510Y015120D01*
X011827Y014270D02*
X011760Y014204D01*
X011760Y013937D01*
X011827Y013870D01*
X011960Y013870D01*
X012027Y013937D01*
X012220Y013870D02*
X012487Y013870D01*
X012354Y013870D02*
X012354Y014270D01*
X012220Y014137D01*
X012027Y014204D02*
X011960Y014270D01*
X011827Y014270D01*
X012681Y014204D02*
X012748Y014270D01*
X012881Y014270D01*
X012948Y014204D01*
X012948Y014137D01*
X012681Y013870D01*
X012948Y013870D01*
X013805Y012878D02*
X013805Y012611D01*
X014005Y012611D01*
X013938Y012744D01*
X013938Y012811D01*
X014005Y012878D01*
X014138Y012878D01*
X014205Y012811D01*
X014205Y012678D01*
X014138Y012611D01*
X014205Y012417D02*
X014205Y012150D01*
X014205Y012284D02*
X013805Y012284D01*
X013938Y012150D01*
X013871Y011957D02*
X013805Y011890D01*
X013805Y011757D01*
X013871Y011690D01*
X014138Y011690D01*
X014205Y011757D01*
X014205Y011890D01*
X014138Y011957D01*
X013120Y010388D02*
X013120Y010121D01*
X013120Y010254D02*
X012720Y010254D01*
X012853Y010121D01*
X012720Y009927D02*
X012720Y009794D01*
X012720Y009861D02*
X013053Y009861D01*
X013120Y009794D01*
X013120Y009727D01*
X013053Y009660D01*
X013053Y009467D02*
X013120Y009400D01*
X013120Y009267D01*
X013053Y009200D01*
X012920Y009267D02*
X012920Y009400D01*
X012987Y009467D01*
X013053Y009467D01*
X012920Y009267D02*
X012853Y009200D01*
X012786Y009200D01*
X012720Y009267D01*
X012720Y009400D01*
X012786Y009467D01*
X012255Y009484D02*
X011855Y009484D01*
X011988Y009350D01*
X011921Y009157D02*
X011855Y009090D01*
X011855Y008890D01*
X012255Y008890D01*
X012122Y008890D02*
X012122Y009090D01*
X012055Y009157D01*
X011921Y009157D01*
X012122Y009023D02*
X012255Y009157D01*
X012255Y009350D02*
X012255Y009617D01*
X010947Y008699D02*
X010880Y008765D01*
X010746Y008765D01*
X010680Y008699D01*
X010486Y008699D02*
X010419Y008765D01*
X010286Y008765D01*
X010219Y008699D01*
X010219Y008432D01*
X010286Y008365D01*
X010419Y008365D01*
X010486Y008432D01*
X010680Y008365D02*
X010947Y008632D01*
X010947Y008699D01*
X010947Y008365D02*
X010680Y008365D01*
X010027Y008395D02*
X009760Y008395D01*
X009894Y008395D02*
X009894Y008795D01*
X009760Y008662D01*
X009567Y008729D02*
X009500Y008795D01*
X009367Y008795D01*
X009300Y008729D01*
X009300Y008462D01*
X009367Y008395D01*
X009500Y008395D01*
X009567Y008462D01*
X008844Y005775D02*
X008846Y005795D01*
X008851Y005815D01*
X008861Y005833D01*
X008873Y005850D01*
X008888Y005864D01*
X008906Y005874D01*
X008925Y005882D01*
X008945Y005886D01*
X008965Y005886D01*
X008985Y005882D01*
X009004Y005874D01*
X009022Y005864D01*
X009037Y005850D01*
X009049Y005833D01*
X009059Y005815D01*
X009064Y005795D01*
X009066Y005775D01*
X009064Y005755D01*
X009059Y005735D01*
X009049Y005717D01*
X009037Y005700D01*
X009022Y005686D01*
X009004Y005676D01*
X008985Y005668D01*
X008965Y005664D01*
X008945Y005664D01*
X008925Y005668D01*
X008906Y005676D01*
X008888Y005686D01*
X008873Y005700D01*
X008861Y005717D01*
X008851Y005735D01*
X008846Y005755D01*
X008844Y005775D01*
X011840Y003265D02*
X012240Y003265D01*
X012240Y003398D02*
X012240Y003131D01*
X012173Y002938D02*
X011906Y002938D01*
X011840Y002871D01*
X011840Y002671D01*
X012240Y002671D01*
X012240Y002871D01*
X012173Y002938D01*
X011973Y003131D02*
X011840Y003265D01*
X011840Y002477D02*
X011840Y002210D01*
X012240Y002210D01*
X012240Y002477D01*
X012040Y002344D02*
X012040Y002210D01*
X012240Y002017D02*
X012240Y001750D01*
X011840Y001750D01*
X011816Y001155D02*
X011950Y001155D01*
X012016Y001089D01*
X011750Y000822D01*
X011816Y000755D01*
X011950Y000755D01*
X012016Y000822D01*
X012016Y001089D01*
X011816Y001155D02*
X011750Y001089D01*
X011750Y000822D01*
X011556Y000755D02*
X011289Y000755D01*
X011423Y000755D02*
X011423Y001155D01*
X011289Y001022D01*
X011096Y001089D02*
X011096Y000955D01*
X011029Y000888D01*
X010829Y000888D01*
X010829Y000755D02*
X010829Y001155D01*
X011029Y001155D01*
X011096Y001089D01*
X010962Y000888D02*
X011096Y000755D01*
X011930Y004300D02*
X011930Y004433D01*
X011930Y004367D02*
X012330Y004367D01*
X012330Y004433D02*
X012330Y004300D01*
X012263Y004607D02*
X012330Y004674D01*
X012330Y004807D01*
X012263Y004874D01*
X012330Y005067D02*
X012330Y005334D01*
X012330Y005201D02*
X011930Y005201D01*
X012063Y005067D01*
X011996Y004874D02*
X011930Y004807D01*
X011930Y004674D01*
X011996Y004607D01*
X012263Y004607D01*
X014770Y003901D02*
X014770Y003768D01*
X014836Y003701D01*
X014836Y003508D02*
X014770Y003441D01*
X014770Y003241D01*
X015170Y003241D01*
X015170Y003441D01*
X015103Y003508D01*
X014836Y003508D01*
X015170Y003701D02*
X014903Y003968D01*
X014836Y003968D01*
X014770Y003901D01*
X015170Y003968D02*
X015170Y003701D01*
X015170Y003047D02*
X015170Y002780D01*
X014770Y002780D01*
X014770Y003047D01*
X014970Y002914D02*
X014970Y002780D01*
X015170Y002587D02*
X015170Y002320D01*
X014770Y002320D01*
X015215Y001898D02*
X015215Y001631D01*
X015215Y001764D02*
X014815Y001764D01*
X014948Y001631D01*
X014948Y001437D02*
X014881Y001437D01*
X014815Y001371D01*
X014815Y001237D01*
X014881Y001170D01*
X014881Y000977D02*
X015015Y000977D01*
X015082Y000910D01*
X015082Y000710D01*
X015215Y000710D02*
X014815Y000710D01*
X014815Y000910D01*
X014881Y000977D01*
X015082Y000843D02*
X015215Y000977D01*
X015215Y001170D02*
X014948Y001437D01*
X015215Y001437D02*
X015215Y001170D01*
X015120Y004490D02*
X015187Y004557D01*
X015120Y004490D02*
X014987Y004490D01*
X014920Y004557D01*
X014920Y004824D01*
X014987Y004890D01*
X015120Y004890D01*
X015187Y004824D01*
X015380Y004890D02*
X015647Y004890D01*
X015647Y004824D01*
X015380Y004557D01*
X015380Y004490D01*
X016130Y007210D02*
X016263Y007210D01*
X016197Y007210D02*
X016197Y007610D01*
X016263Y007610D02*
X016130Y007610D01*
X016437Y007544D02*
X016437Y007277D01*
X016504Y007210D01*
X016637Y007210D01*
X016704Y007277D01*
X016897Y007210D02*
X017164Y007477D01*
X017164Y007544D01*
X017097Y007610D01*
X016964Y007610D01*
X016897Y007544D01*
X016704Y007544D02*
X016637Y007610D01*
X016504Y007610D01*
X016437Y007544D01*
X016897Y007210D02*
X017164Y007210D01*
X014345Y008357D02*
X014345Y008490D01*
X014278Y008557D01*
X014278Y008750D02*
X014345Y008817D01*
X014345Y008951D01*
X014278Y009017D01*
X014011Y009017D01*
X013945Y008951D01*
X013945Y008817D01*
X014011Y008750D01*
X014078Y008750D01*
X014145Y008817D01*
X014145Y009017D01*
X014011Y008557D02*
X013945Y008490D01*
X013945Y008357D01*
X014011Y008290D01*
X014278Y008290D01*
X014345Y008357D01*
X017039Y013400D02*
X016973Y013467D01*
X016973Y013800D01*
X017239Y013800D02*
X017239Y013467D01*
X017173Y013400D01*
X017039Y013400D01*
X017433Y013467D02*
X017500Y013400D01*
X017633Y013400D01*
X017700Y013467D01*
X017700Y013533D01*
X017633Y013600D01*
X017566Y013600D01*
X017633Y013600D02*
X017700Y013667D01*
X017700Y013734D01*
X017633Y013800D01*
X017500Y013800D01*
X017433Y013734D01*
X018180Y013527D02*
X018247Y013460D01*
X018313Y013460D01*
X018380Y013527D01*
X018380Y013860D01*
X018313Y013860D02*
X018447Y013860D01*
X018640Y013860D02*
X018841Y013860D01*
X018907Y013794D01*
X018907Y013660D01*
X018841Y013593D01*
X018640Y013593D01*
X018640Y013460D02*
X018640Y013860D01*
X019101Y013794D02*
X019168Y013860D01*
X019301Y013860D01*
X019368Y013794D01*
X019368Y013727D01*
X019301Y013660D01*
X019368Y013593D01*
X019368Y013527D01*
X019301Y013460D01*
X019168Y013460D01*
X019101Y013527D01*
X019234Y013660D02*
X019301Y013660D01*
X017530Y014700D02*
X017530Y014967D01*
X017530Y015160D02*
X017263Y015427D01*
X017196Y015427D01*
X017130Y015361D01*
X017130Y015227D01*
X017196Y015160D01*
X017530Y015160D02*
X017530Y015427D01*
X017913Y015750D02*
X017780Y015883D01*
X017780Y016150D01*
X018047Y015883D02*
X017913Y015750D01*
X018047Y015883D02*
X018047Y016150D01*
X018240Y016017D02*
X018374Y016150D01*
X018374Y015750D01*
X018507Y015750D02*
X018240Y015750D01*
X017530Y014700D02*
X017130Y014700D01*
X016880Y014717D02*
X016880Y014850D01*
X016813Y014917D01*
X016813Y015110D02*
X016747Y015110D01*
X016680Y015177D01*
X016680Y015311D01*
X016747Y015377D01*
X016813Y015377D01*
X016880Y015311D01*
X016880Y015177D01*
X016813Y015110D01*
X016680Y015177D02*
X016613Y015110D01*
X016546Y015110D01*
X016480Y015177D01*
X016480Y015311D01*
X016546Y015377D01*
X016613Y015377D01*
X016680Y015311D01*
X016546Y014917D02*
X016480Y014850D01*
X016480Y014717D01*
X016546Y014650D01*
X016813Y014650D01*
X016880Y014717D01*
X018259Y017750D02*
X018526Y017750D01*
X018720Y017750D02*
X018987Y017750D01*
X018853Y017750D02*
X018853Y018150D01*
X018720Y018017D01*
X018259Y018150D02*
X018259Y017750D01*
X017257Y017967D02*
X017257Y018234D01*
X017191Y018300D01*
X017057Y018300D01*
X016990Y018234D01*
X016990Y018167D01*
X017057Y018100D01*
X017257Y018100D01*
X017257Y017967D02*
X017191Y017900D01*
X017057Y017900D01*
X016990Y017967D01*
X016797Y017967D02*
X016797Y018234D01*
X016730Y018300D01*
X016530Y018300D01*
X016530Y017900D01*
X016730Y017900D01*
X016797Y017967D01*
X013995Y016186D02*
X013995Y015920D01*
X013728Y016186D01*
X013661Y016186D01*
X013595Y016120D01*
X013595Y015986D01*
X013661Y015920D01*
X013661Y015726D02*
X013595Y015659D01*
X013595Y015526D01*
X013661Y015459D01*
X013661Y015266D02*
X013795Y015266D01*
X013862Y015199D01*
X013862Y014999D01*
X013995Y014999D02*
X013595Y014999D01*
X013595Y015199D01*
X013661Y015266D01*
X013862Y015132D02*
X013995Y015266D01*
X013995Y015459D02*
X013728Y015726D01*
X013661Y015726D01*
X013995Y015726D02*
X013995Y015459D01*
D13*
X014196Y016087D02*
X014196Y016875D01*
X014589Y017269D01*
X015771Y017269D01*
X016164Y016875D01*
X016164Y016087D01*
X016164Y014513D02*
X016164Y013331D01*
X014196Y013331D01*
X014196Y014513D01*
X013004Y013664D02*
X011716Y013664D01*
X011716Y012576D02*
X013004Y012576D01*
X016612Y013090D02*
X016612Y010510D01*
X019051Y010510D01*
X019090Y010390D02*
X016730Y010390D01*
X016730Y007810D01*
X019090Y007810D01*
X015844Y006804D02*
X015844Y005516D01*
X014756Y005516D02*
X014756Y006804D01*
X009270Y005932D02*
X009270Y002468D01*
X009112Y002310D01*
X005648Y002310D01*
X005490Y002468D01*
X005490Y005932D01*
X005648Y006090D01*
X009112Y006090D01*
X009270Y005932D01*
X006163Y010114D02*
X006045Y010114D01*
X006163Y010114D02*
X006163Y010429D01*
X005415Y010114D02*
X005297Y010114D01*
X005297Y010429D01*
X005163Y010429D02*
X005163Y010114D01*
X005045Y010114D01*
X004415Y010114D02*
X004297Y010114D01*
X004297Y010429D01*
X002680Y008850D02*
X002680Y008350D01*
X002430Y008100D01*
X002680Y007850D01*
X002680Y007350D01*
X002430Y007100D01*
X002680Y006850D01*
X002680Y006350D01*
X002430Y006100D01*
X002680Y005850D01*
X002680Y005350D01*
X002430Y005100D01*
X002680Y004850D01*
X002680Y004350D01*
X002430Y004100D01*
X001930Y004100D01*
X001680Y004350D01*
X001680Y004850D01*
X001930Y005100D01*
X001680Y005350D01*
X001680Y005850D01*
X001930Y006100D01*
X001680Y006350D01*
X001680Y006850D01*
X001930Y007100D01*
X001680Y007350D01*
X001680Y007850D01*
X001930Y008100D01*
X001680Y008350D01*
X001680Y008850D01*
X001930Y009100D01*
X002430Y009100D01*
X002680Y008850D01*
X005108Y016616D02*
X005108Y018584D01*
X005768Y018387D02*
X005770Y018405D01*
X005776Y018423D01*
X005785Y018439D01*
X005797Y018452D01*
X005812Y018463D01*
X005829Y018471D01*
X005847Y018475D01*
X005865Y018475D01*
X005883Y018471D01*
X005900Y018463D01*
X005915Y018452D01*
X005927Y018439D01*
X005936Y018423D01*
X005942Y018405D01*
X005944Y018387D01*
X005942Y018369D01*
X005936Y018351D01*
X005927Y018335D01*
X005915Y018322D01*
X005900Y018311D01*
X005883Y018303D01*
X005865Y018299D01*
X005847Y018299D01*
X005829Y018303D01*
X005812Y018311D01*
X005797Y018322D01*
X005785Y018335D01*
X005776Y018351D01*
X005770Y018369D01*
X005768Y018387D01*
X006092Y018584D02*
X006092Y016616D01*
X006508Y016616D02*
X006508Y018584D01*
X007168Y018387D02*
X007170Y018405D01*
X007176Y018423D01*
X007185Y018439D01*
X007197Y018452D01*
X007212Y018463D01*
X007229Y018471D01*
X007247Y018475D01*
X007265Y018475D01*
X007283Y018471D01*
X007300Y018463D01*
X007315Y018452D01*
X007327Y018439D01*
X007336Y018423D01*
X007342Y018405D01*
X007344Y018387D01*
X007342Y018369D01*
X007336Y018351D01*
X007327Y018335D01*
X007315Y018322D01*
X007300Y018311D01*
X007283Y018303D01*
X007265Y018299D01*
X007247Y018299D01*
X007229Y018303D01*
X007212Y018311D01*
X007197Y018322D01*
X007185Y018335D01*
X007176Y018351D01*
X007170Y018369D01*
X007168Y018387D01*
X007492Y018584D02*
X007492Y016616D01*
X007330Y020000D02*
X006830Y020000D01*
X006580Y020250D01*
X006330Y020000D01*
X005830Y020000D01*
X005580Y020250D01*
X005330Y020000D01*
X004830Y020000D01*
X004580Y020250D01*
X004580Y020750D01*
X004830Y021000D01*
X005330Y021000D01*
X005580Y020750D01*
X005830Y021000D01*
X006330Y021000D01*
X006580Y020750D01*
X006830Y021000D01*
X007330Y021000D01*
X007580Y020750D01*
X007830Y021000D01*
X008330Y021000D01*
X008580Y020750D01*
X008580Y020250D01*
X008330Y020000D01*
X007830Y020000D01*
X007580Y020250D01*
X007330Y020000D01*
X012580Y020550D02*
X012830Y020300D01*
X013330Y020300D01*
X013580Y020550D01*
X013830Y020300D01*
X014330Y020300D01*
X014580Y020550D01*
X014830Y020300D01*
X015330Y020300D01*
X015580Y020550D01*
X015580Y021050D01*
X015330Y021300D01*
X014830Y021300D01*
X014580Y021050D01*
X014330Y021300D01*
X013830Y021300D01*
X013580Y021050D01*
X013330Y021300D01*
X012830Y021300D01*
X012580Y021050D01*
X012580Y020550D01*
X018690Y015830D02*
X018690Y015330D01*
X018940Y015080D01*
X018690Y014830D01*
X018690Y014330D01*
X018940Y014080D01*
X019440Y014080D01*
X019690Y014330D01*
X019690Y014830D01*
X019440Y015080D01*
X019690Y015330D01*
X019690Y015830D01*
X019440Y016080D01*
X018940Y016080D01*
X018690Y015830D01*
X019051Y013090D02*
X016612Y013090D01*
D14*
X016686Y016503D02*
X016686Y016543D01*
X016686Y016503D02*
X017198Y016503D01*
X017198Y016700D01*
X017237Y016661D01*
X017237Y016503D01*
X017198Y016503D01*
X017237Y016503D02*
X017474Y016503D01*
X017474Y016543D01*
X017237Y016661D02*
X017237Y016897D01*
X017198Y016897D01*
X017198Y016700D01*
X017198Y016897D02*
X016686Y016897D01*
X016686Y016857D01*
X016380Y017100D02*
X016380Y017700D01*
X017780Y017700D01*
X017780Y017100D01*
X016380Y017100D01*
X017237Y016897D02*
X017474Y016897D01*
X017474Y016857D01*
X003095Y012859D02*
X002465Y012859D01*
X002465Y011741D02*
X003095Y011741D01*
X003095Y011259D02*
X002465Y011259D01*
X002465Y010141D02*
X003095Y010141D01*
D15*
X016422Y011800D03*
X016540Y009100D03*
D16*
X012018Y014727D02*
X012018Y014974D01*
X011895Y014850D02*
X012142Y014850D01*
X012478Y001724D02*
X012478Y001477D01*
X012355Y001600D02*
X012602Y001600D01*
X013855Y001640D02*
X014102Y001640D01*
X013978Y001517D02*
X013978Y001764D01*
D17*
X014104Y002499D03*
X014576Y002499D03*
X013076Y002459D03*
X012604Y002459D03*
X012616Y015709D03*
X012144Y015709D03*
D18*
X012380Y015709D03*
X014340Y002499D03*
X012840Y002459D03*
D19*
X012580Y004170D02*
X014580Y004170D01*
D20*
X002272Y010700D02*
X002268Y010700D01*
X002272Y012300D02*
X002268Y012300D01*
D21*
X002520Y012800D02*
X002520Y011796D01*
X003036Y011796D01*
X003036Y012800D01*
X002520Y012800D01*
X002520Y011200D02*
X003036Y011200D01*
X003036Y010196D01*
X002520Y010196D01*
X002520Y011200D01*
M02*
