G75*
%MOIN*%
%OFA0B0*%
%FSLAX25Y25*%
%IPPOS*%
%LPD*%
%AMOC8*
5,1,8,0,0,1.08239X$1,22.5*
%
%ADD10C,0.01000*%
%ADD11C,0.00000*%
%ADD12C,0.00500*%
%ADD13C,0.00800*%
D10*
X0071362Y0062663D02*
X0072029Y0061996D01*
X0073364Y0061996D01*
X0074031Y0062663D01*
X0071362Y0065332D01*
X0071362Y0062663D01*
X0071362Y0065332D02*
X0072029Y0065999D01*
X0073364Y0065999D01*
X0074031Y0065332D01*
X0074031Y0062663D01*
X0075966Y0061996D02*
X0078635Y0061996D01*
X0077301Y0061996D02*
X0077301Y0065999D01*
X0078635Y0064665D01*
X0080570Y0065332D02*
X0081237Y0065999D01*
X0082572Y0065999D01*
X0083239Y0065332D01*
X0083239Y0062663D01*
X0082572Y0061996D01*
X0081237Y0061996D01*
X0080570Y0062663D01*
X0054831Y0066163D02*
X0054163Y0065496D01*
X0051494Y0065496D01*
X0050827Y0066163D01*
X0050827Y0067497D01*
X0051494Y0068165D01*
X0050827Y0070100D02*
X0050827Y0072769D01*
X0050827Y0071434D02*
X0054831Y0071434D01*
X0053496Y0070100D01*
X0054163Y0068165D02*
X0054831Y0067497D01*
X0054831Y0066163D01*
X0053496Y0074704D02*
X0054831Y0076038D01*
X0050827Y0076038D01*
X0050827Y0074704D02*
X0050827Y0077373D01*
X0064969Y0096071D02*
X0064302Y0096738D01*
X0064302Y0098072D01*
X0064969Y0098740D01*
X0064969Y0100675D02*
X0064302Y0101342D01*
X0064302Y0102676D01*
X0064969Y0103344D01*
X0065637Y0103344D01*
X0066304Y0102676D01*
X0066304Y0102009D01*
X0066304Y0102676D02*
X0066971Y0103344D01*
X0067638Y0103344D01*
X0068306Y0102676D01*
X0068306Y0101342D01*
X0067638Y0100675D01*
X0067638Y0098740D02*
X0068306Y0098072D01*
X0068306Y0096738D01*
X0067638Y0096071D01*
X0064969Y0096071D01*
X0081037Y0102263D02*
X0081037Y0104932D01*
X0081704Y0105599D01*
X0083039Y0105599D01*
X0083706Y0104932D01*
X0083706Y0104265D01*
X0083039Y0103597D01*
X0081037Y0103597D01*
X0081037Y0102263D02*
X0081704Y0101596D01*
X0083039Y0101596D01*
X0083706Y0102263D01*
X0085641Y0102263D02*
X0086308Y0101596D01*
X0087643Y0101596D01*
X0088310Y0102263D01*
X0088310Y0104932D01*
X0087643Y0105599D01*
X0086308Y0105599D01*
X0085641Y0104932D01*
X0099122Y0128033D02*
X0099122Y0132036D01*
X0101123Y0130034D01*
X0098454Y0130034D01*
X0103058Y0128700D02*
X0103726Y0128033D01*
X0105060Y0128033D01*
X0105727Y0128700D01*
X0105727Y0131369D01*
X0105060Y0132036D01*
X0103726Y0132036D01*
X0103058Y0131369D01*
X0112470Y0139697D02*
X0116473Y0139697D01*
X0116473Y0141698D01*
X0115806Y0142365D01*
X0114471Y0142365D01*
X0113804Y0141698D01*
X0113804Y0139697D01*
X0113804Y0141031D02*
X0112470Y0142365D01*
X0112470Y0144300D02*
X0112470Y0146969D01*
X0112470Y0145635D02*
X0116473Y0145635D01*
X0115139Y0144300D01*
X0141070Y0144565D02*
X0142404Y0143231D01*
X0142404Y0143898D02*
X0142404Y0141897D01*
X0141070Y0141897D02*
X0145073Y0141897D01*
X0145073Y0143898D01*
X0144406Y0144565D01*
X0143071Y0144565D01*
X0142404Y0143898D01*
X0141070Y0146500D02*
X0143739Y0149169D01*
X0144406Y0149169D01*
X0145073Y0148502D01*
X0145073Y0147168D01*
X0144406Y0146500D01*
X0141070Y0146500D02*
X0141070Y0149169D01*
X0066027Y0137399D02*
X0066027Y0133396D01*
X0066027Y0134730D02*
X0064026Y0134730D01*
X0063358Y0135397D01*
X0063358Y0136732D01*
X0064026Y0137399D01*
X0066027Y0137399D01*
X0061423Y0136065D02*
X0060089Y0137399D01*
X0060089Y0133396D01*
X0061423Y0133396D02*
X0058754Y0133396D01*
X0056819Y0133396D02*
X0054150Y0136065D01*
X0054150Y0136732D01*
X0054818Y0137399D01*
X0056152Y0137399D01*
X0056819Y0136732D01*
X0056819Y0133396D02*
X0054150Y0133396D01*
X0063358Y0133396D02*
X0064693Y0134730D01*
X0043527Y0127732D02*
X0043527Y0125063D01*
X0042860Y0124396D01*
X0041526Y0124396D01*
X0040858Y0125063D01*
X0038923Y0124396D02*
X0036254Y0127065D01*
X0036254Y0127732D01*
X0036922Y0128399D01*
X0038256Y0128399D01*
X0038923Y0127732D01*
X0040858Y0127732D02*
X0041526Y0128399D01*
X0042860Y0128399D01*
X0043527Y0127732D01*
X0038923Y0124396D02*
X0036254Y0124396D01*
X0038019Y0112036D02*
X0037352Y0111369D01*
X0037352Y0110034D01*
X0038019Y0109367D01*
X0039354Y0109367D02*
X0040021Y0110701D01*
X0040021Y0111369D01*
X0039354Y0112036D01*
X0038019Y0112036D01*
X0041356Y0112036D02*
X0041356Y0109367D01*
X0039354Y0109367D01*
X0040021Y0107432D02*
X0040688Y0107432D01*
X0041356Y0106765D01*
X0041356Y0105430D01*
X0040688Y0104763D01*
X0040688Y0102828D02*
X0039354Y0102828D01*
X0038687Y0102161D01*
X0038687Y0100159D01*
X0038687Y0101493D02*
X0037352Y0102828D01*
X0037352Y0104763D02*
X0040021Y0107432D01*
X0037352Y0107432D02*
X0037352Y0104763D01*
X0040688Y0102828D02*
X0041356Y0102161D01*
X0041356Y0100159D01*
X0037352Y0100159D01*
X0042727Y0105296D02*
X0042727Y0106496D01*
X0047327Y0106396D02*
X0047327Y0105196D01*
X0170327Y0077601D02*
X0170327Y0076267D01*
X0170994Y0075600D01*
X0171662Y0075600D01*
X0172329Y0076267D01*
X0172329Y0077601D01*
X0171662Y0078269D01*
X0170994Y0078269D01*
X0170327Y0077601D01*
X0172329Y0077601D02*
X0172996Y0078269D01*
X0173663Y0078269D01*
X0174331Y0077601D01*
X0174331Y0076267D01*
X0173663Y0075600D01*
X0172996Y0075600D01*
X0172329Y0076267D01*
X0173663Y0073665D02*
X0174331Y0072997D01*
X0174331Y0071663D01*
X0173663Y0070996D01*
X0170994Y0070996D01*
X0170327Y0071663D01*
X0170327Y0072997D01*
X0170994Y0073665D01*
X0283427Y0152796D02*
X0287431Y0152796D01*
X0287431Y0154797D01*
X0286763Y0155465D01*
X0285429Y0155465D01*
X0284762Y0154797D01*
X0284762Y0152796D01*
X0284762Y0154130D02*
X0283427Y0155465D01*
X0284094Y0157400D02*
X0283427Y0158067D01*
X0283427Y0159401D01*
X0284094Y0160069D01*
X0284762Y0160069D01*
X0285429Y0159401D01*
X0285429Y0158734D01*
X0285429Y0159401D02*
X0286096Y0160069D01*
X0286763Y0160069D01*
X0287431Y0159401D01*
X0287431Y0158067D01*
X0286763Y0157400D01*
X0285562Y0170288D02*
X0285562Y0172290D01*
X0286229Y0172957D01*
X0287563Y0172957D01*
X0288231Y0172290D01*
X0288231Y0170288D01*
X0284227Y0170288D01*
X0285562Y0171622D02*
X0284227Y0172957D01*
X0286229Y0174892D02*
X0286229Y0177561D01*
X0284227Y0176894D02*
X0288231Y0176894D01*
X0286229Y0174892D01*
D11*
X0030127Y0181496D02*
X0030127Y0026496D01*
X0290127Y0026496D01*
X0290127Y0181496D01*
X0030127Y0181496D01*
X0153237Y0166496D02*
X0153239Y0166665D01*
X0153245Y0166834D01*
X0153256Y0167003D01*
X0153270Y0167171D01*
X0153289Y0167339D01*
X0153312Y0167507D01*
X0153338Y0167674D01*
X0153369Y0167840D01*
X0153404Y0168006D01*
X0153443Y0168170D01*
X0153487Y0168334D01*
X0153534Y0168496D01*
X0153585Y0168657D01*
X0153640Y0168817D01*
X0153699Y0168976D01*
X0153761Y0169133D01*
X0153828Y0169288D01*
X0153899Y0169442D01*
X0153973Y0169594D01*
X0154051Y0169744D01*
X0154132Y0169892D01*
X0154217Y0170038D01*
X0154306Y0170182D01*
X0154398Y0170324D01*
X0154494Y0170463D01*
X0154593Y0170600D01*
X0154695Y0170735D01*
X0154801Y0170867D01*
X0154910Y0170996D01*
X0155022Y0171123D01*
X0155137Y0171247D01*
X0155255Y0171368D01*
X0155376Y0171486D01*
X0155500Y0171601D01*
X0155627Y0171713D01*
X0155756Y0171822D01*
X0155888Y0171928D01*
X0156023Y0172030D01*
X0156160Y0172129D01*
X0156299Y0172225D01*
X0156441Y0172317D01*
X0156585Y0172406D01*
X0156731Y0172491D01*
X0156879Y0172572D01*
X0157029Y0172650D01*
X0157181Y0172724D01*
X0157335Y0172795D01*
X0157490Y0172862D01*
X0157647Y0172924D01*
X0157806Y0172983D01*
X0157966Y0173038D01*
X0158127Y0173089D01*
X0158289Y0173136D01*
X0158453Y0173180D01*
X0158617Y0173219D01*
X0158783Y0173254D01*
X0158949Y0173285D01*
X0159116Y0173311D01*
X0159284Y0173334D01*
X0159452Y0173353D01*
X0159620Y0173367D01*
X0159789Y0173378D01*
X0159958Y0173384D01*
X0160127Y0173386D01*
X0160296Y0173384D01*
X0160465Y0173378D01*
X0160634Y0173367D01*
X0160802Y0173353D01*
X0160970Y0173334D01*
X0161138Y0173311D01*
X0161305Y0173285D01*
X0161471Y0173254D01*
X0161637Y0173219D01*
X0161801Y0173180D01*
X0161965Y0173136D01*
X0162127Y0173089D01*
X0162288Y0173038D01*
X0162448Y0172983D01*
X0162607Y0172924D01*
X0162764Y0172862D01*
X0162919Y0172795D01*
X0163073Y0172724D01*
X0163225Y0172650D01*
X0163375Y0172572D01*
X0163523Y0172491D01*
X0163669Y0172406D01*
X0163813Y0172317D01*
X0163955Y0172225D01*
X0164094Y0172129D01*
X0164231Y0172030D01*
X0164366Y0171928D01*
X0164498Y0171822D01*
X0164627Y0171713D01*
X0164754Y0171601D01*
X0164878Y0171486D01*
X0164999Y0171368D01*
X0165117Y0171247D01*
X0165232Y0171123D01*
X0165344Y0170996D01*
X0165453Y0170867D01*
X0165559Y0170735D01*
X0165661Y0170600D01*
X0165760Y0170463D01*
X0165856Y0170324D01*
X0165948Y0170182D01*
X0166037Y0170038D01*
X0166122Y0169892D01*
X0166203Y0169744D01*
X0166281Y0169594D01*
X0166355Y0169442D01*
X0166426Y0169288D01*
X0166493Y0169133D01*
X0166555Y0168976D01*
X0166614Y0168817D01*
X0166669Y0168657D01*
X0166720Y0168496D01*
X0166767Y0168334D01*
X0166811Y0168170D01*
X0166850Y0168006D01*
X0166885Y0167840D01*
X0166916Y0167674D01*
X0166942Y0167507D01*
X0166965Y0167339D01*
X0166984Y0167171D01*
X0166998Y0167003D01*
X0167009Y0166834D01*
X0167015Y0166665D01*
X0167017Y0166496D01*
X0167015Y0166327D01*
X0167009Y0166158D01*
X0166998Y0165989D01*
X0166984Y0165821D01*
X0166965Y0165653D01*
X0166942Y0165485D01*
X0166916Y0165318D01*
X0166885Y0165152D01*
X0166850Y0164986D01*
X0166811Y0164822D01*
X0166767Y0164658D01*
X0166720Y0164496D01*
X0166669Y0164335D01*
X0166614Y0164175D01*
X0166555Y0164016D01*
X0166493Y0163859D01*
X0166426Y0163704D01*
X0166355Y0163550D01*
X0166281Y0163398D01*
X0166203Y0163248D01*
X0166122Y0163100D01*
X0166037Y0162954D01*
X0165948Y0162810D01*
X0165856Y0162668D01*
X0165760Y0162529D01*
X0165661Y0162392D01*
X0165559Y0162257D01*
X0165453Y0162125D01*
X0165344Y0161996D01*
X0165232Y0161869D01*
X0165117Y0161745D01*
X0164999Y0161624D01*
X0164878Y0161506D01*
X0164754Y0161391D01*
X0164627Y0161279D01*
X0164498Y0161170D01*
X0164366Y0161064D01*
X0164231Y0160962D01*
X0164094Y0160863D01*
X0163955Y0160767D01*
X0163813Y0160675D01*
X0163669Y0160586D01*
X0163523Y0160501D01*
X0163375Y0160420D01*
X0163225Y0160342D01*
X0163073Y0160268D01*
X0162919Y0160197D01*
X0162764Y0160130D01*
X0162607Y0160068D01*
X0162448Y0160009D01*
X0162288Y0159954D01*
X0162127Y0159903D01*
X0161965Y0159856D01*
X0161801Y0159812D01*
X0161637Y0159773D01*
X0161471Y0159738D01*
X0161305Y0159707D01*
X0161138Y0159681D01*
X0160970Y0159658D01*
X0160802Y0159639D01*
X0160634Y0159625D01*
X0160465Y0159614D01*
X0160296Y0159608D01*
X0160127Y0159606D01*
X0159958Y0159608D01*
X0159789Y0159614D01*
X0159620Y0159625D01*
X0159452Y0159639D01*
X0159284Y0159658D01*
X0159116Y0159681D01*
X0158949Y0159707D01*
X0158783Y0159738D01*
X0158617Y0159773D01*
X0158453Y0159812D01*
X0158289Y0159856D01*
X0158127Y0159903D01*
X0157966Y0159954D01*
X0157806Y0160009D01*
X0157647Y0160068D01*
X0157490Y0160130D01*
X0157335Y0160197D01*
X0157181Y0160268D01*
X0157029Y0160342D01*
X0156879Y0160420D01*
X0156731Y0160501D01*
X0156585Y0160586D01*
X0156441Y0160675D01*
X0156299Y0160767D01*
X0156160Y0160863D01*
X0156023Y0160962D01*
X0155888Y0161064D01*
X0155756Y0161170D01*
X0155627Y0161279D01*
X0155500Y0161391D01*
X0155376Y0161506D01*
X0155255Y0161624D01*
X0155137Y0161745D01*
X0155022Y0161869D01*
X0154910Y0161996D01*
X0154801Y0162125D01*
X0154695Y0162257D01*
X0154593Y0162392D01*
X0154494Y0162529D01*
X0154398Y0162668D01*
X0154306Y0162810D01*
X0154217Y0162954D01*
X0154132Y0163100D01*
X0154051Y0163248D01*
X0153973Y0163398D01*
X0153899Y0163550D01*
X0153828Y0163704D01*
X0153761Y0163859D01*
X0153699Y0164016D01*
X0153640Y0164175D01*
X0153585Y0164335D01*
X0153534Y0164496D01*
X0153487Y0164658D01*
X0153443Y0164822D01*
X0153404Y0164986D01*
X0153369Y0165152D01*
X0153338Y0165318D01*
X0153312Y0165485D01*
X0153289Y0165653D01*
X0153270Y0165821D01*
X0153256Y0165989D01*
X0153245Y0166158D01*
X0153239Y0166327D01*
X0153237Y0166496D01*
X0161454Y0146201D02*
X0161456Y0146282D01*
X0161462Y0146364D01*
X0161472Y0146445D01*
X0161486Y0146525D01*
X0161503Y0146604D01*
X0161525Y0146683D01*
X0161550Y0146760D01*
X0161579Y0146837D01*
X0161612Y0146911D01*
X0161649Y0146984D01*
X0161688Y0147055D01*
X0161732Y0147124D01*
X0161778Y0147191D01*
X0161828Y0147255D01*
X0161881Y0147317D01*
X0161937Y0147377D01*
X0161995Y0147433D01*
X0162057Y0147487D01*
X0162121Y0147538D01*
X0162187Y0147585D01*
X0162255Y0147629D01*
X0162326Y0147670D01*
X0162398Y0147707D01*
X0162473Y0147741D01*
X0162548Y0147771D01*
X0162626Y0147797D01*
X0162704Y0147820D01*
X0162783Y0147838D01*
X0162863Y0147853D01*
X0162944Y0147864D01*
X0163025Y0147871D01*
X0163107Y0147874D01*
X0163188Y0147873D01*
X0163269Y0147868D01*
X0163350Y0147859D01*
X0163431Y0147846D01*
X0163511Y0147829D01*
X0163589Y0147809D01*
X0163667Y0147784D01*
X0163744Y0147756D01*
X0163819Y0147724D01*
X0163892Y0147689D01*
X0163963Y0147650D01*
X0164033Y0147607D01*
X0164100Y0147562D01*
X0164166Y0147513D01*
X0164228Y0147461D01*
X0164288Y0147405D01*
X0164345Y0147347D01*
X0164400Y0147287D01*
X0164451Y0147223D01*
X0164499Y0147158D01*
X0164544Y0147090D01*
X0164586Y0147020D01*
X0164624Y0146948D01*
X0164659Y0146874D01*
X0164690Y0146799D01*
X0164717Y0146722D01*
X0164740Y0146644D01*
X0164760Y0146565D01*
X0164776Y0146485D01*
X0164788Y0146404D01*
X0164796Y0146323D01*
X0164800Y0146242D01*
X0164800Y0146160D01*
X0164796Y0146079D01*
X0164788Y0145998D01*
X0164776Y0145917D01*
X0164760Y0145837D01*
X0164740Y0145758D01*
X0164717Y0145680D01*
X0164690Y0145603D01*
X0164659Y0145528D01*
X0164624Y0145454D01*
X0164586Y0145382D01*
X0164544Y0145312D01*
X0164499Y0145244D01*
X0164451Y0145179D01*
X0164400Y0145115D01*
X0164345Y0145055D01*
X0164288Y0144997D01*
X0164228Y0144941D01*
X0164166Y0144889D01*
X0164100Y0144840D01*
X0164033Y0144795D01*
X0163964Y0144752D01*
X0163892Y0144713D01*
X0163819Y0144678D01*
X0163744Y0144646D01*
X0163667Y0144618D01*
X0163589Y0144593D01*
X0163511Y0144573D01*
X0163431Y0144556D01*
X0163350Y0144543D01*
X0163269Y0144534D01*
X0163188Y0144529D01*
X0163107Y0144528D01*
X0163025Y0144531D01*
X0162944Y0144538D01*
X0162863Y0144549D01*
X0162783Y0144564D01*
X0162704Y0144582D01*
X0162626Y0144605D01*
X0162548Y0144631D01*
X0162473Y0144661D01*
X0162398Y0144695D01*
X0162326Y0144732D01*
X0162255Y0144773D01*
X0162187Y0144817D01*
X0162121Y0144864D01*
X0162057Y0144915D01*
X0161995Y0144969D01*
X0161937Y0145025D01*
X0161881Y0145085D01*
X0161828Y0145147D01*
X0161778Y0145211D01*
X0161732Y0145278D01*
X0161688Y0145347D01*
X0161649Y0145418D01*
X0161612Y0145491D01*
X0161579Y0145565D01*
X0161550Y0145642D01*
X0161525Y0145719D01*
X0161503Y0145798D01*
X0161486Y0145877D01*
X0161472Y0145957D01*
X0161462Y0146038D01*
X0161456Y0146120D01*
X0161454Y0146201D01*
X0161454Y0134390D02*
X0161456Y0134471D01*
X0161462Y0134553D01*
X0161472Y0134634D01*
X0161486Y0134714D01*
X0161503Y0134793D01*
X0161525Y0134872D01*
X0161550Y0134949D01*
X0161579Y0135026D01*
X0161612Y0135100D01*
X0161649Y0135173D01*
X0161688Y0135244D01*
X0161732Y0135313D01*
X0161778Y0135380D01*
X0161828Y0135444D01*
X0161881Y0135506D01*
X0161937Y0135566D01*
X0161995Y0135622D01*
X0162057Y0135676D01*
X0162121Y0135727D01*
X0162187Y0135774D01*
X0162255Y0135818D01*
X0162326Y0135859D01*
X0162398Y0135896D01*
X0162473Y0135930D01*
X0162548Y0135960D01*
X0162626Y0135986D01*
X0162704Y0136009D01*
X0162783Y0136027D01*
X0162863Y0136042D01*
X0162944Y0136053D01*
X0163025Y0136060D01*
X0163107Y0136063D01*
X0163188Y0136062D01*
X0163269Y0136057D01*
X0163350Y0136048D01*
X0163431Y0136035D01*
X0163511Y0136018D01*
X0163589Y0135998D01*
X0163667Y0135973D01*
X0163744Y0135945D01*
X0163819Y0135913D01*
X0163892Y0135878D01*
X0163963Y0135839D01*
X0164033Y0135796D01*
X0164100Y0135751D01*
X0164166Y0135702D01*
X0164228Y0135650D01*
X0164288Y0135594D01*
X0164345Y0135536D01*
X0164400Y0135476D01*
X0164451Y0135412D01*
X0164499Y0135347D01*
X0164544Y0135279D01*
X0164586Y0135209D01*
X0164624Y0135137D01*
X0164659Y0135063D01*
X0164690Y0134988D01*
X0164717Y0134911D01*
X0164740Y0134833D01*
X0164760Y0134754D01*
X0164776Y0134674D01*
X0164788Y0134593D01*
X0164796Y0134512D01*
X0164800Y0134431D01*
X0164800Y0134349D01*
X0164796Y0134268D01*
X0164788Y0134187D01*
X0164776Y0134106D01*
X0164760Y0134026D01*
X0164740Y0133947D01*
X0164717Y0133869D01*
X0164690Y0133792D01*
X0164659Y0133717D01*
X0164624Y0133643D01*
X0164586Y0133571D01*
X0164544Y0133501D01*
X0164499Y0133433D01*
X0164451Y0133368D01*
X0164400Y0133304D01*
X0164345Y0133244D01*
X0164288Y0133186D01*
X0164228Y0133130D01*
X0164166Y0133078D01*
X0164100Y0133029D01*
X0164033Y0132984D01*
X0163964Y0132941D01*
X0163892Y0132902D01*
X0163819Y0132867D01*
X0163744Y0132835D01*
X0163667Y0132807D01*
X0163589Y0132782D01*
X0163511Y0132762D01*
X0163431Y0132745D01*
X0163350Y0132732D01*
X0163269Y0132723D01*
X0163188Y0132718D01*
X0163107Y0132717D01*
X0163025Y0132720D01*
X0162944Y0132727D01*
X0162863Y0132738D01*
X0162783Y0132753D01*
X0162704Y0132771D01*
X0162626Y0132794D01*
X0162548Y0132820D01*
X0162473Y0132850D01*
X0162398Y0132884D01*
X0162326Y0132921D01*
X0162255Y0132962D01*
X0162187Y0133006D01*
X0162121Y0133053D01*
X0162057Y0133104D01*
X0161995Y0133158D01*
X0161937Y0133214D01*
X0161881Y0133274D01*
X0161828Y0133336D01*
X0161778Y0133400D01*
X0161732Y0133467D01*
X0161688Y0133536D01*
X0161649Y0133607D01*
X0161612Y0133680D01*
X0161579Y0133754D01*
X0161550Y0133831D01*
X0161525Y0133908D01*
X0161503Y0133987D01*
X0161486Y0134066D01*
X0161472Y0134146D01*
X0161462Y0134227D01*
X0161456Y0134309D01*
X0161454Y0134390D01*
D12*
X0137536Y0144118D02*
X0126119Y0144118D01*
X0126119Y0146677D01*
X0137536Y0146677D01*
X0137536Y0144118D01*
X0107836Y0144118D02*
X0096419Y0144118D01*
X0096419Y0146677D01*
X0107836Y0146677D01*
X0107836Y0144118D01*
X0094727Y0126096D02*
X0094727Y0118096D01*
X0083067Y0098096D02*
X0083069Y0098154D01*
X0083075Y0098212D01*
X0083085Y0098269D01*
X0083098Y0098326D01*
X0083116Y0098381D01*
X0083137Y0098435D01*
X0083161Y0098488D01*
X0083190Y0098539D01*
X0083221Y0098587D01*
X0083256Y0098634D01*
X0083294Y0098678D01*
X0083334Y0098719D01*
X0083378Y0098758D01*
X0083424Y0098793D01*
X0083472Y0098826D01*
X0083522Y0098855D01*
X0083575Y0098880D01*
X0083628Y0098902D01*
X0083683Y0098921D01*
X0083740Y0098935D01*
X0083797Y0098946D01*
X0083854Y0098953D01*
X0083912Y0098956D01*
X0083971Y0098955D01*
X0084028Y0098950D01*
X0084086Y0098941D01*
X0084143Y0098929D01*
X0084198Y0098912D01*
X0084253Y0098892D01*
X0084306Y0098868D01*
X0084357Y0098841D01*
X0084406Y0098810D01*
X0084453Y0098776D01*
X0084498Y0098739D01*
X0084540Y0098699D01*
X0084580Y0098656D01*
X0084616Y0098611D01*
X0084649Y0098563D01*
X0084679Y0098513D01*
X0084705Y0098462D01*
X0084728Y0098408D01*
X0084748Y0098353D01*
X0084763Y0098297D01*
X0084775Y0098241D01*
X0084783Y0098183D01*
X0084787Y0098125D01*
X0084787Y0098067D01*
X0084783Y0098009D01*
X0084775Y0097951D01*
X0084763Y0097895D01*
X0084748Y0097839D01*
X0084728Y0097784D01*
X0084705Y0097730D01*
X0084679Y0097679D01*
X0084649Y0097629D01*
X0084616Y0097581D01*
X0084580Y0097536D01*
X0084540Y0097493D01*
X0084498Y0097453D01*
X0084453Y0097416D01*
X0084406Y0097382D01*
X0084357Y0097351D01*
X0084306Y0097324D01*
X0084253Y0097300D01*
X0084198Y0097280D01*
X0084143Y0097263D01*
X0084086Y0097251D01*
X0084028Y0097242D01*
X0083971Y0097237D01*
X0083912Y0097236D01*
X0083854Y0097239D01*
X0083797Y0097246D01*
X0083740Y0097257D01*
X0083683Y0097271D01*
X0083628Y0097290D01*
X0083575Y0097312D01*
X0083522Y0097337D01*
X0083472Y0097366D01*
X0083424Y0097399D01*
X0083378Y0097434D01*
X0083334Y0097473D01*
X0083294Y0097514D01*
X0083256Y0097558D01*
X0083221Y0097605D01*
X0083190Y0097653D01*
X0083161Y0097704D01*
X0083137Y0097757D01*
X0083116Y0097811D01*
X0083098Y0097866D01*
X0083085Y0097923D01*
X0083075Y0097980D01*
X0083069Y0098038D01*
X0083067Y0098096D01*
X0083827Y0098096D02*
X0083829Y0098116D01*
X0083835Y0098134D01*
X0083844Y0098152D01*
X0083856Y0098167D01*
X0083871Y0098179D01*
X0083889Y0098188D01*
X0083907Y0098194D01*
X0083927Y0098196D01*
X0083947Y0098194D01*
X0083965Y0098188D01*
X0083983Y0098179D01*
X0083998Y0098167D01*
X0084010Y0098152D01*
X0084019Y0098134D01*
X0084025Y0098116D01*
X0084027Y0098096D01*
X0084025Y0098076D01*
X0084019Y0098058D01*
X0084010Y0098040D01*
X0083998Y0098025D01*
X0083983Y0098013D01*
X0083965Y0098004D01*
X0083947Y0097998D01*
X0083927Y0097996D01*
X0083907Y0097998D01*
X0083889Y0098004D01*
X0083871Y0098013D01*
X0083856Y0098025D01*
X0083844Y0098040D01*
X0083835Y0098058D01*
X0083829Y0098076D01*
X0083827Y0098096D01*
X0083427Y0098096D02*
X0083429Y0098140D01*
X0083435Y0098184D01*
X0083445Y0098227D01*
X0083458Y0098269D01*
X0083475Y0098310D01*
X0083496Y0098349D01*
X0083520Y0098386D01*
X0083547Y0098421D01*
X0083577Y0098453D01*
X0083610Y0098483D01*
X0083646Y0098509D01*
X0083683Y0098533D01*
X0083723Y0098552D01*
X0083764Y0098569D01*
X0083807Y0098581D01*
X0083850Y0098590D01*
X0083894Y0098595D01*
X0083938Y0098596D01*
X0083982Y0098593D01*
X0084026Y0098586D01*
X0084069Y0098575D01*
X0084111Y0098561D01*
X0084151Y0098543D01*
X0084190Y0098521D01*
X0084226Y0098497D01*
X0084260Y0098469D01*
X0084292Y0098438D01*
X0084321Y0098404D01*
X0084347Y0098368D01*
X0084369Y0098330D01*
X0084388Y0098290D01*
X0084403Y0098248D01*
X0084415Y0098206D01*
X0084423Y0098162D01*
X0084427Y0098118D01*
X0084427Y0098074D01*
X0084423Y0098030D01*
X0084415Y0097986D01*
X0084403Y0097944D01*
X0084388Y0097902D01*
X0084369Y0097862D01*
X0084347Y0097824D01*
X0084321Y0097788D01*
X0084292Y0097754D01*
X0084260Y0097723D01*
X0084226Y0097695D01*
X0084190Y0097671D01*
X0084151Y0097649D01*
X0084111Y0097631D01*
X0084069Y0097617D01*
X0084026Y0097606D01*
X0083982Y0097599D01*
X0083938Y0097596D01*
X0083894Y0097597D01*
X0083850Y0097602D01*
X0083807Y0097611D01*
X0083764Y0097623D01*
X0083723Y0097640D01*
X0083683Y0097659D01*
X0083646Y0097683D01*
X0083610Y0097709D01*
X0083577Y0097739D01*
X0083547Y0097771D01*
X0083520Y0097806D01*
X0083496Y0097843D01*
X0083475Y0097882D01*
X0083458Y0097923D01*
X0083445Y0097965D01*
X0083435Y0098008D01*
X0083429Y0098052D01*
X0083427Y0098096D01*
X0059367Y0100496D02*
X0059369Y0100554D01*
X0059375Y0100612D01*
X0059385Y0100669D01*
X0059398Y0100726D01*
X0059416Y0100781D01*
X0059437Y0100835D01*
X0059461Y0100888D01*
X0059490Y0100939D01*
X0059521Y0100987D01*
X0059556Y0101034D01*
X0059594Y0101078D01*
X0059634Y0101119D01*
X0059678Y0101158D01*
X0059724Y0101193D01*
X0059772Y0101226D01*
X0059822Y0101255D01*
X0059875Y0101280D01*
X0059928Y0101302D01*
X0059983Y0101321D01*
X0060040Y0101335D01*
X0060097Y0101346D01*
X0060154Y0101353D01*
X0060212Y0101356D01*
X0060271Y0101355D01*
X0060328Y0101350D01*
X0060386Y0101341D01*
X0060443Y0101329D01*
X0060498Y0101312D01*
X0060553Y0101292D01*
X0060606Y0101268D01*
X0060657Y0101241D01*
X0060706Y0101210D01*
X0060753Y0101176D01*
X0060798Y0101139D01*
X0060840Y0101099D01*
X0060880Y0101056D01*
X0060916Y0101011D01*
X0060949Y0100963D01*
X0060979Y0100913D01*
X0061005Y0100862D01*
X0061028Y0100808D01*
X0061048Y0100753D01*
X0061063Y0100697D01*
X0061075Y0100641D01*
X0061083Y0100583D01*
X0061087Y0100525D01*
X0061087Y0100467D01*
X0061083Y0100409D01*
X0061075Y0100351D01*
X0061063Y0100295D01*
X0061048Y0100239D01*
X0061028Y0100184D01*
X0061005Y0100130D01*
X0060979Y0100079D01*
X0060949Y0100029D01*
X0060916Y0099981D01*
X0060880Y0099936D01*
X0060840Y0099893D01*
X0060798Y0099853D01*
X0060753Y0099816D01*
X0060706Y0099782D01*
X0060657Y0099751D01*
X0060606Y0099724D01*
X0060553Y0099700D01*
X0060498Y0099680D01*
X0060443Y0099663D01*
X0060386Y0099651D01*
X0060328Y0099642D01*
X0060271Y0099637D01*
X0060212Y0099636D01*
X0060154Y0099639D01*
X0060097Y0099646D01*
X0060040Y0099657D01*
X0059983Y0099671D01*
X0059928Y0099690D01*
X0059875Y0099712D01*
X0059822Y0099737D01*
X0059772Y0099766D01*
X0059724Y0099799D01*
X0059678Y0099834D01*
X0059634Y0099873D01*
X0059594Y0099914D01*
X0059556Y0099958D01*
X0059521Y0100005D01*
X0059490Y0100053D01*
X0059461Y0100104D01*
X0059437Y0100157D01*
X0059416Y0100211D01*
X0059398Y0100266D01*
X0059385Y0100323D01*
X0059375Y0100380D01*
X0059369Y0100438D01*
X0059367Y0100496D01*
X0060127Y0100496D02*
X0060129Y0100516D01*
X0060135Y0100534D01*
X0060144Y0100552D01*
X0060156Y0100567D01*
X0060171Y0100579D01*
X0060189Y0100588D01*
X0060207Y0100594D01*
X0060227Y0100596D01*
X0060247Y0100594D01*
X0060265Y0100588D01*
X0060283Y0100579D01*
X0060298Y0100567D01*
X0060310Y0100552D01*
X0060319Y0100534D01*
X0060325Y0100516D01*
X0060327Y0100496D01*
X0060325Y0100476D01*
X0060319Y0100458D01*
X0060310Y0100440D01*
X0060298Y0100425D01*
X0060283Y0100413D01*
X0060265Y0100404D01*
X0060247Y0100398D01*
X0060227Y0100396D01*
X0060207Y0100398D01*
X0060189Y0100404D01*
X0060171Y0100413D01*
X0060156Y0100425D01*
X0060144Y0100440D01*
X0060135Y0100458D01*
X0060129Y0100476D01*
X0060127Y0100496D01*
X0059727Y0100496D02*
X0059729Y0100540D01*
X0059735Y0100584D01*
X0059745Y0100627D01*
X0059758Y0100669D01*
X0059775Y0100710D01*
X0059796Y0100749D01*
X0059820Y0100786D01*
X0059847Y0100821D01*
X0059877Y0100853D01*
X0059910Y0100883D01*
X0059946Y0100909D01*
X0059983Y0100933D01*
X0060023Y0100952D01*
X0060064Y0100969D01*
X0060107Y0100981D01*
X0060150Y0100990D01*
X0060194Y0100995D01*
X0060238Y0100996D01*
X0060282Y0100993D01*
X0060326Y0100986D01*
X0060369Y0100975D01*
X0060411Y0100961D01*
X0060451Y0100943D01*
X0060490Y0100921D01*
X0060526Y0100897D01*
X0060560Y0100869D01*
X0060592Y0100838D01*
X0060621Y0100804D01*
X0060647Y0100768D01*
X0060669Y0100730D01*
X0060688Y0100690D01*
X0060703Y0100648D01*
X0060715Y0100606D01*
X0060723Y0100562D01*
X0060727Y0100518D01*
X0060727Y0100474D01*
X0060723Y0100430D01*
X0060715Y0100386D01*
X0060703Y0100344D01*
X0060688Y0100302D01*
X0060669Y0100262D01*
X0060647Y0100224D01*
X0060621Y0100188D01*
X0060592Y0100154D01*
X0060560Y0100123D01*
X0060526Y0100095D01*
X0060490Y0100071D01*
X0060451Y0100049D01*
X0060411Y0100031D01*
X0060369Y0100017D01*
X0060326Y0100006D01*
X0060282Y0099999D01*
X0060238Y0099996D01*
X0060194Y0099997D01*
X0060150Y0100002D01*
X0060107Y0100011D01*
X0060064Y0100023D01*
X0060023Y0100040D01*
X0059983Y0100059D01*
X0059946Y0100083D01*
X0059910Y0100109D01*
X0059877Y0100139D01*
X0059847Y0100171D01*
X0059820Y0100206D01*
X0059796Y0100243D01*
X0059775Y0100282D01*
X0059758Y0100323D01*
X0059745Y0100365D01*
X0059735Y0100408D01*
X0059729Y0100452D01*
X0059727Y0100496D01*
X0046467Y0068496D02*
X0046469Y0068554D01*
X0046475Y0068612D01*
X0046485Y0068669D01*
X0046498Y0068726D01*
X0046516Y0068781D01*
X0046537Y0068835D01*
X0046561Y0068888D01*
X0046590Y0068939D01*
X0046621Y0068987D01*
X0046656Y0069034D01*
X0046694Y0069078D01*
X0046734Y0069119D01*
X0046778Y0069158D01*
X0046824Y0069193D01*
X0046872Y0069226D01*
X0046922Y0069255D01*
X0046975Y0069280D01*
X0047028Y0069302D01*
X0047083Y0069321D01*
X0047140Y0069335D01*
X0047197Y0069346D01*
X0047254Y0069353D01*
X0047312Y0069356D01*
X0047371Y0069355D01*
X0047428Y0069350D01*
X0047486Y0069341D01*
X0047543Y0069329D01*
X0047598Y0069312D01*
X0047653Y0069292D01*
X0047706Y0069268D01*
X0047757Y0069241D01*
X0047806Y0069210D01*
X0047853Y0069176D01*
X0047898Y0069139D01*
X0047940Y0069099D01*
X0047980Y0069056D01*
X0048016Y0069011D01*
X0048049Y0068963D01*
X0048079Y0068913D01*
X0048105Y0068862D01*
X0048128Y0068808D01*
X0048148Y0068753D01*
X0048163Y0068697D01*
X0048175Y0068641D01*
X0048183Y0068583D01*
X0048187Y0068525D01*
X0048187Y0068467D01*
X0048183Y0068409D01*
X0048175Y0068351D01*
X0048163Y0068295D01*
X0048148Y0068239D01*
X0048128Y0068184D01*
X0048105Y0068130D01*
X0048079Y0068079D01*
X0048049Y0068029D01*
X0048016Y0067981D01*
X0047980Y0067936D01*
X0047940Y0067893D01*
X0047898Y0067853D01*
X0047853Y0067816D01*
X0047806Y0067782D01*
X0047757Y0067751D01*
X0047706Y0067724D01*
X0047653Y0067700D01*
X0047598Y0067680D01*
X0047543Y0067663D01*
X0047486Y0067651D01*
X0047428Y0067642D01*
X0047371Y0067637D01*
X0047312Y0067636D01*
X0047254Y0067639D01*
X0047197Y0067646D01*
X0047140Y0067657D01*
X0047083Y0067671D01*
X0047028Y0067690D01*
X0046975Y0067712D01*
X0046922Y0067737D01*
X0046872Y0067766D01*
X0046824Y0067799D01*
X0046778Y0067834D01*
X0046734Y0067873D01*
X0046694Y0067914D01*
X0046656Y0067958D01*
X0046621Y0068005D01*
X0046590Y0068053D01*
X0046561Y0068104D01*
X0046537Y0068157D01*
X0046516Y0068211D01*
X0046498Y0068266D01*
X0046485Y0068323D01*
X0046475Y0068380D01*
X0046469Y0068438D01*
X0046467Y0068496D01*
X0047227Y0068496D02*
X0047229Y0068516D01*
X0047235Y0068534D01*
X0047244Y0068552D01*
X0047256Y0068567D01*
X0047271Y0068579D01*
X0047289Y0068588D01*
X0047307Y0068594D01*
X0047327Y0068596D01*
X0047347Y0068594D01*
X0047365Y0068588D01*
X0047383Y0068579D01*
X0047398Y0068567D01*
X0047410Y0068552D01*
X0047419Y0068534D01*
X0047425Y0068516D01*
X0047427Y0068496D01*
X0047425Y0068476D01*
X0047419Y0068458D01*
X0047410Y0068440D01*
X0047398Y0068425D01*
X0047383Y0068413D01*
X0047365Y0068404D01*
X0047347Y0068398D01*
X0047327Y0068396D01*
X0047307Y0068398D01*
X0047289Y0068404D01*
X0047271Y0068413D01*
X0047256Y0068425D01*
X0047244Y0068440D01*
X0047235Y0068458D01*
X0047229Y0068476D01*
X0047227Y0068496D01*
X0046827Y0068496D02*
X0046829Y0068540D01*
X0046835Y0068584D01*
X0046845Y0068627D01*
X0046858Y0068669D01*
X0046875Y0068710D01*
X0046896Y0068749D01*
X0046920Y0068786D01*
X0046947Y0068821D01*
X0046977Y0068853D01*
X0047010Y0068883D01*
X0047046Y0068909D01*
X0047083Y0068933D01*
X0047123Y0068952D01*
X0047164Y0068969D01*
X0047207Y0068981D01*
X0047250Y0068990D01*
X0047294Y0068995D01*
X0047338Y0068996D01*
X0047382Y0068993D01*
X0047426Y0068986D01*
X0047469Y0068975D01*
X0047511Y0068961D01*
X0047551Y0068943D01*
X0047590Y0068921D01*
X0047626Y0068897D01*
X0047660Y0068869D01*
X0047692Y0068838D01*
X0047721Y0068804D01*
X0047747Y0068768D01*
X0047769Y0068730D01*
X0047788Y0068690D01*
X0047803Y0068648D01*
X0047815Y0068606D01*
X0047823Y0068562D01*
X0047827Y0068518D01*
X0047827Y0068474D01*
X0047823Y0068430D01*
X0047815Y0068386D01*
X0047803Y0068344D01*
X0047788Y0068302D01*
X0047769Y0068262D01*
X0047747Y0068224D01*
X0047721Y0068188D01*
X0047692Y0068154D01*
X0047660Y0068123D01*
X0047626Y0068095D01*
X0047590Y0068071D01*
X0047551Y0068049D01*
X0047511Y0068031D01*
X0047469Y0068017D01*
X0047426Y0068006D01*
X0047382Y0067999D01*
X0047338Y0067996D01*
X0047294Y0067997D01*
X0047250Y0068002D01*
X0047207Y0068011D01*
X0047164Y0068023D01*
X0047123Y0068040D01*
X0047083Y0068059D01*
X0047046Y0068083D01*
X0047010Y0068109D01*
X0046977Y0068139D01*
X0046947Y0068171D01*
X0046920Y0068206D01*
X0046896Y0068243D01*
X0046875Y0068282D01*
X0046858Y0068323D01*
X0046845Y0068365D01*
X0046835Y0068408D01*
X0046829Y0068452D01*
X0046827Y0068496D01*
X0075167Y0069296D02*
X0075169Y0069354D01*
X0075175Y0069412D01*
X0075185Y0069469D01*
X0075198Y0069526D01*
X0075216Y0069581D01*
X0075237Y0069635D01*
X0075261Y0069688D01*
X0075290Y0069739D01*
X0075321Y0069787D01*
X0075356Y0069834D01*
X0075394Y0069878D01*
X0075434Y0069919D01*
X0075478Y0069958D01*
X0075524Y0069993D01*
X0075572Y0070026D01*
X0075622Y0070055D01*
X0075675Y0070080D01*
X0075728Y0070102D01*
X0075783Y0070121D01*
X0075840Y0070135D01*
X0075897Y0070146D01*
X0075954Y0070153D01*
X0076012Y0070156D01*
X0076071Y0070155D01*
X0076128Y0070150D01*
X0076186Y0070141D01*
X0076243Y0070129D01*
X0076298Y0070112D01*
X0076353Y0070092D01*
X0076406Y0070068D01*
X0076457Y0070041D01*
X0076506Y0070010D01*
X0076553Y0069976D01*
X0076598Y0069939D01*
X0076640Y0069899D01*
X0076680Y0069856D01*
X0076716Y0069811D01*
X0076749Y0069763D01*
X0076779Y0069713D01*
X0076805Y0069662D01*
X0076828Y0069608D01*
X0076848Y0069553D01*
X0076863Y0069497D01*
X0076875Y0069441D01*
X0076883Y0069383D01*
X0076887Y0069325D01*
X0076887Y0069267D01*
X0076883Y0069209D01*
X0076875Y0069151D01*
X0076863Y0069095D01*
X0076848Y0069039D01*
X0076828Y0068984D01*
X0076805Y0068930D01*
X0076779Y0068879D01*
X0076749Y0068829D01*
X0076716Y0068781D01*
X0076680Y0068736D01*
X0076640Y0068693D01*
X0076598Y0068653D01*
X0076553Y0068616D01*
X0076506Y0068582D01*
X0076457Y0068551D01*
X0076406Y0068524D01*
X0076353Y0068500D01*
X0076298Y0068480D01*
X0076243Y0068463D01*
X0076186Y0068451D01*
X0076128Y0068442D01*
X0076071Y0068437D01*
X0076012Y0068436D01*
X0075954Y0068439D01*
X0075897Y0068446D01*
X0075840Y0068457D01*
X0075783Y0068471D01*
X0075728Y0068490D01*
X0075675Y0068512D01*
X0075622Y0068537D01*
X0075572Y0068566D01*
X0075524Y0068599D01*
X0075478Y0068634D01*
X0075434Y0068673D01*
X0075394Y0068714D01*
X0075356Y0068758D01*
X0075321Y0068805D01*
X0075290Y0068853D01*
X0075261Y0068904D01*
X0075237Y0068957D01*
X0075216Y0069011D01*
X0075198Y0069066D01*
X0075185Y0069123D01*
X0075175Y0069180D01*
X0075169Y0069238D01*
X0075167Y0069296D01*
X0075927Y0069296D02*
X0075929Y0069316D01*
X0075935Y0069334D01*
X0075944Y0069352D01*
X0075956Y0069367D01*
X0075971Y0069379D01*
X0075989Y0069388D01*
X0076007Y0069394D01*
X0076027Y0069396D01*
X0076047Y0069394D01*
X0076065Y0069388D01*
X0076083Y0069379D01*
X0076098Y0069367D01*
X0076110Y0069352D01*
X0076119Y0069334D01*
X0076125Y0069316D01*
X0076127Y0069296D01*
X0076125Y0069276D01*
X0076119Y0069258D01*
X0076110Y0069240D01*
X0076098Y0069225D01*
X0076083Y0069213D01*
X0076065Y0069204D01*
X0076047Y0069198D01*
X0076027Y0069196D01*
X0076007Y0069198D01*
X0075989Y0069204D01*
X0075971Y0069213D01*
X0075956Y0069225D01*
X0075944Y0069240D01*
X0075935Y0069258D01*
X0075929Y0069276D01*
X0075927Y0069296D01*
X0075527Y0069296D02*
X0075529Y0069340D01*
X0075535Y0069384D01*
X0075545Y0069427D01*
X0075558Y0069469D01*
X0075575Y0069510D01*
X0075596Y0069549D01*
X0075620Y0069586D01*
X0075647Y0069621D01*
X0075677Y0069653D01*
X0075710Y0069683D01*
X0075746Y0069709D01*
X0075783Y0069733D01*
X0075823Y0069752D01*
X0075864Y0069769D01*
X0075907Y0069781D01*
X0075950Y0069790D01*
X0075994Y0069795D01*
X0076038Y0069796D01*
X0076082Y0069793D01*
X0076126Y0069786D01*
X0076169Y0069775D01*
X0076211Y0069761D01*
X0076251Y0069743D01*
X0076290Y0069721D01*
X0076326Y0069697D01*
X0076360Y0069669D01*
X0076392Y0069638D01*
X0076421Y0069604D01*
X0076447Y0069568D01*
X0076469Y0069530D01*
X0076488Y0069490D01*
X0076503Y0069448D01*
X0076515Y0069406D01*
X0076523Y0069362D01*
X0076527Y0069318D01*
X0076527Y0069274D01*
X0076523Y0069230D01*
X0076515Y0069186D01*
X0076503Y0069144D01*
X0076488Y0069102D01*
X0076469Y0069062D01*
X0076447Y0069024D01*
X0076421Y0068988D01*
X0076392Y0068954D01*
X0076360Y0068923D01*
X0076326Y0068895D01*
X0076290Y0068871D01*
X0076251Y0068849D01*
X0076211Y0068831D01*
X0076169Y0068817D01*
X0076126Y0068806D01*
X0076082Y0068799D01*
X0076038Y0068796D01*
X0075994Y0068797D01*
X0075950Y0068802D01*
X0075907Y0068811D01*
X0075864Y0068823D01*
X0075823Y0068840D01*
X0075783Y0068859D01*
X0075746Y0068883D01*
X0075710Y0068909D01*
X0075677Y0068939D01*
X0075647Y0068971D01*
X0075620Y0069006D01*
X0075596Y0069043D01*
X0075575Y0069082D01*
X0075558Y0069123D01*
X0075545Y0069165D01*
X0075535Y0069208D01*
X0075529Y0069252D01*
X0075527Y0069296D01*
X0039567Y0131896D02*
X0039569Y0131954D01*
X0039575Y0132012D01*
X0039585Y0132069D01*
X0039598Y0132126D01*
X0039616Y0132181D01*
X0039637Y0132235D01*
X0039661Y0132288D01*
X0039690Y0132339D01*
X0039721Y0132387D01*
X0039756Y0132434D01*
X0039794Y0132478D01*
X0039834Y0132519D01*
X0039878Y0132558D01*
X0039924Y0132593D01*
X0039972Y0132626D01*
X0040022Y0132655D01*
X0040075Y0132680D01*
X0040128Y0132702D01*
X0040183Y0132721D01*
X0040240Y0132735D01*
X0040297Y0132746D01*
X0040354Y0132753D01*
X0040412Y0132756D01*
X0040471Y0132755D01*
X0040528Y0132750D01*
X0040586Y0132741D01*
X0040643Y0132729D01*
X0040698Y0132712D01*
X0040753Y0132692D01*
X0040806Y0132668D01*
X0040857Y0132641D01*
X0040906Y0132610D01*
X0040953Y0132576D01*
X0040998Y0132539D01*
X0041040Y0132499D01*
X0041080Y0132456D01*
X0041116Y0132411D01*
X0041149Y0132363D01*
X0041179Y0132313D01*
X0041205Y0132262D01*
X0041228Y0132208D01*
X0041248Y0132153D01*
X0041263Y0132097D01*
X0041275Y0132041D01*
X0041283Y0131983D01*
X0041287Y0131925D01*
X0041287Y0131867D01*
X0041283Y0131809D01*
X0041275Y0131751D01*
X0041263Y0131695D01*
X0041248Y0131639D01*
X0041228Y0131584D01*
X0041205Y0131530D01*
X0041179Y0131479D01*
X0041149Y0131429D01*
X0041116Y0131381D01*
X0041080Y0131336D01*
X0041040Y0131293D01*
X0040998Y0131253D01*
X0040953Y0131216D01*
X0040906Y0131182D01*
X0040857Y0131151D01*
X0040806Y0131124D01*
X0040753Y0131100D01*
X0040698Y0131080D01*
X0040643Y0131063D01*
X0040586Y0131051D01*
X0040528Y0131042D01*
X0040471Y0131037D01*
X0040412Y0131036D01*
X0040354Y0131039D01*
X0040297Y0131046D01*
X0040240Y0131057D01*
X0040183Y0131071D01*
X0040128Y0131090D01*
X0040075Y0131112D01*
X0040022Y0131137D01*
X0039972Y0131166D01*
X0039924Y0131199D01*
X0039878Y0131234D01*
X0039834Y0131273D01*
X0039794Y0131314D01*
X0039756Y0131358D01*
X0039721Y0131405D01*
X0039690Y0131453D01*
X0039661Y0131504D01*
X0039637Y0131557D01*
X0039616Y0131611D01*
X0039598Y0131666D01*
X0039585Y0131723D01*
X0039575Y0131780D01*
X0039569Y0131838D01*
X0039567Y0131896D01*
X0040327Y0131896D02*
X0040329Y0131916D01*
X0040335Y0131934D01*
X0040344Y0131952D01*
X0040356Y0131967D01*
X0040371Y0131979D01*
X0040389Y0131988D01*
X0040407Y0131994D01*
X0040427Y0131996D01*
X0040447Y0131994D01*
X0040465Y0131988D01*
X0040483Y0131979D01*
X0040498Y0131967D01*
X0040510Y0131952D01*
X0040519Y0131934D01*
X0040525Y0131916D01*
X0040527Y0131896D01*
X0040525Y0131876D01*
X0040519Y0131858D01*
X0040510Y0131840D01*
X0040498Y0131825D01*
X0040483Y0131813D01*
X0040465Y0131804D01*
X0040447Y0131798D01*
X0040427Y0131796D01*
X0040407Y0131798D01*
X0040389Y0131804D01*
X0040371Y0131813D01*
X0040356Y0131825D01*
X0040344Y0131840D01*
X0040335Y0131858D01*
X0040329Y0131876D01*
X0040327Y0131896D01*
X0039927Y0131896D02*
X0039929Y0131940D01*
X0039935Y0131984D01*
X0039945Y0132027D01*
X0039958Y0132069D01*
X0039975Y0132110D01*
X0039996Y0132149D01*
X0040020Y0132186D01*
X0040047Y0132221D01*
X0040077Y0132253D01*
X0040110Y0132283D01*
X0040146Y0132309D01*
X0040183Y0132333D01*
X0040223Y0132352D01*
X0040264Y0132369D01*
X0040307Y0132381D01*
X0040350Y0132390D01*
X0040394Y0132395D01*
X0040438Y0132396D01*
X0040482Y0132393D01*
X0040526Y0132386D01*
X0040569Y0132375D01*
X0040611Y0132361D01*
X0040651Y0132343D01*
X0040690Y0132321D01*
X0040726Y0132297D01*
X0040760Y0132269D01*
X0040792Y0132238D01*
X0040821Y0132204D01*
X0040847Y0132168D01*
X0040869Y0132130D01*
X0040888Y0132090D01*
X0040903Y0132048D01*
X0040915Y0132006D01*
X0040923Y0131962D01*
X0040927Y0131918D01*
X0040927Y0131874D01*
X0040923Y0131830D01*
X0040915Y0131786D01*
X0040903Y0131744D01*
X0040888Y0131702D01*
X0040869Y0131662D01*
X0040847Y0131624D01*
X0040821Y0131588D01*
X0040792Y0131554D01*
X0040760Y0131523D01*
X0040726Y0131495D01*
X0040690Y0131471D01*
X0040651Y0131449D01*
X0040611Y0131431D01*
X0040569Y0131417D01*
X0040526Y0131406D01*
X0040482Y0131399D01*
X0040438Y0131396D01*
X0040394Y0131397D01*
X0040350Y0131402D01*
X0040307Y0131411D01*
X0040264Y0131423D01*
X0040223Y0131440D01*
X0040183Y0131459D01*
X0040146Y0131483D01*
X0040110Y0131509D01*
X0040077Y0131539D01*
X0040047Y0131571D01*
X0040020Y0131606D01*
X0039996Y0131643D01*
X0039975Y0131682D01*
X0039958Y0131723D01*
X0039945Y0131765D01*
X0039935Y0131808D01*
X0039929Y0131852D01*
X0039927Y0131896D01*
X0072067Y0135296D02*
X0072069Y0135354D01*
X0072075Y0135412D01*
X0072085Y0135469D01*
X0072098Y0135526D01*
X0072116Y0135581D01*
X0072137Y0135635D01*
X0072161Y0135688D01*
X0072190Y0135739D01*
X0072221Y0135787D01*
X0072256Y0135834D01*
X0072294Y0135878D01*
X0072334Y0135919D01*
X0072378Y0135958D01*
X0072424Y0135993D01*
X0072472Y0136026D01*
X0072522Y0136055D01*
X0072575Y0136080D01*
X0072628Y0136102D01*
X0072683Y0136121D01*
X0072740Y0136135D01*
X0072797Y0136146D01*
X0072854Y0136153D01*
X0072912Y0136156D01*
X0072971Y0136155D01*
X0073028Y0136150D01*
X0073086Y0136141D01*
X0073143Y0136129D01*
X0073198Y0136112D01*
X0073253Y0136092D01*
X0073306Y0136068D01*
X0073357Y0136041D01*
X0073406Y0136010D01*
X0073453Y0135976D01*
X0073498Y0135939D01*
X0073540Y0135899D01*
X0073580Y0135856D01*
X0073616Y0135811D01*
X0073649Y0135763D01*
X0073679Y0135713D01*
X0073705Y0135662D01*
X0073728Y0135608D01*
X0073748Y0135553D01*
X0073763Y0135497D01*
X0073775Y0135441D01*
X0073783Y0135383D01*
X0073787Y0135325D01*
X0073787Y0135267D01*
X0073783Y0135209D01*
X0073775Y0135151D01*
X0073763Y0135095D01*
X0073748Y0135039D01*
X0073728Y0134984D01*
X0073705Y0134930D01*
X0073679Y0134879D01*
X0073649Y0134829D01*
X0073616Y0134781D01*
X0073580Y0134736D01*
X0073540Y0134693D01*
X0073498Y0134653D01*
X0073453Y0134616D01*
X0073406Y0134582D01*
X0073357Y0134551D01*
X0073306Y0134524D01*
X0073253Y0134500D01*
X0073198Y0134480D01*
X0073143Y0134463D01*
X0073086Y0134451D01*
X0073028Y0134442D01*
X0072971Y0134437D01*
X0072912Y0134436D01*
X0072854Y0134439D01*
X0072797Y0134446D01*
X0072740Y0134457D01*
X0072683Y0134471D01*
X0072628Y0134490D01*
X0072575Y0134512D01*
X0072522Y0134537D01*
X0072472Y0134566D01*
X0072424Y0134599D01*
X0072378Y0134634D01*
X0072334Y0134673D01*
X0072294Y0134714D01*
X0072256Y0134758D01*
X0072221Y0134805D01*
X0072190Y0134853D01*
X0072161Y0134904D01*
X0072137Y0134957D01*
X0072116Y0135011D01*
X0072098Y0135066D01*
X0072085Y0135123D01*
X0072075Y0135180D01*
X0072069Y0135238D01*
X0072067Y0135296D01*
X0072827Y0135296D02*
X0072829Y0135316D01*
X0072835Y0135334D01*
X0072844Y0135352D01*
X0072856Y0135367D01*
X0072871Y0135379D01*
X0072889Y0135388D01*
X0072907Y0135394D01*
X0072927Y0135396D01*
X0072947Y0135394D01*
X0072965Y0135388D01*
X0072983Y0135379D01*
X0072998Y0135367D01*
X0073010Y0135352D01*
X0073019Y0135334D01*
X0073025Y0135316D01*
X0073027Y0135296D01*
X0073025Y0135276D01*
X0073019Y0135258D01*
X0073010Y0135240D01*
X0072998Y0135225D01*
X0072983Y0135213D01*
X0072965Y0135204D01*
X0072947Y0135198D01*
X0072927Y0135196D01*
X0072907Y0135198D01*
X0072889Y0135204D01*
X0072871Y0135213D01*
X0072856Y0135225D01*
X0072844Y0135240D01*
X0072835Y0135258D01*
X0072829Y0135276D01*
X0072827Y0135296D01*
X0072427Y0135296D02*
X0072429Y0135340D01*
X0072435Y0135384D01*
X0072445Y0135427D01*
X0072458Y0135469D01*
X0072475Y0135510D01*
X0072496Y0135549D01*
X0072520Y0135586D01*
X0072547Y0135621D01*
X0072577Y0135653D01*
X0072610Y0135683D01*
X0072646Y0135709D01*
X0072683Y0135733D01*
X0072723Y0135752D01*
X0072764Y0135769D01*
X0072807Y0135781D01*
X0072850Y0135790D01*
X0072894Y0135795D01*
X0072938Y0135796D01*
X0072982Y0135793D01*
X0073026Y0135786D01*
X0073069Y0135775D01*
X0073111Y0135761D01*
X0073151Y0135743D01*
X0073190Y0135721D01*
X0073226Y0135697D01*
X0073260Y0135669D01*
X0073292Y0135638D01*
X0073321Y0135604D01*
X0073347Y0135568D01*
X0073369Y0135530D01*
X0073388Y0135490D01*
X0073403Y0135448D01*
X0073415Y0135406D01*
X0073423Y0135362D01*
X0073427Y0135318D01*
X0073427Y0135274D01*
X0073423Y0135230D01*
X0073415Y0135186D01*
X0073403Y0135144D01*
X0073388Y0135102D01*
X0073369Y0135062D01*
X0073347Y0135024D01*
X0073321Y0134988D01*
X0073292Y0134954D01*
X0073260Y0134923D01*
X0073226Y0134895D01*
X0073190Y0134871D01*
X0073151Y0134849D01*
X0073111Y0134831D01*
X0073069Y0134817D01*
X0073026Y0134806D01*
X0072982Y0134799D01*
X0072938Y0134796D01*
X0072894Y0134797D01*
X0072850Y0134802D01*
X0072807Y0134811D01*
X0072764Y0134823D01*
X0072723Y0134840D01*
X0072683Y0134859D01*
X0072646Y0134883D01*
X0072610Y0134909D01*
X0072577Y0134939D01*
X0072547Y0134971D01*
X0072520Y0135006D01*
X0072496Y0135043D01*
X0072475Y0135082D01*
X0072458Y0135123D01*
X0072445Y0135165D01*
X0072435Y0135208D01*
X0072429Y0135252D01*
X0072427Y0135296D01*
X0177567Y0073196D02*
X0177569Y0073254D01*
X0177575Y0073312D01*
X0177585Y0073369D01*
X0177598Y0073426D01*
X0177616Y0073481D01*
X0177637Y0073535D01*
X0177661Y0073588D01*
X0177690Y0073639D01*
X0177721Y0073687D01*
X0177756Y0073734D01*
X0177794Y0073778D01*
X0177834Y0073819D01*
X0177878Y0073858D01*
X0177924Y0073893D01*
X0177972Y0073926D01*
X0178022Y0073955D01*
X0178075Y0073980D01*
X0178128Y0074002D01*
X0178183Y0074021D01*
X0178240Y0074035D01*
X0178297Y0074046D01*
X0178354Y0074053D01*
X0178412Y0074056D01*
X0178471Y0074055D01*
X0178528Y0074050D01*
X0178586Y0074041D01*
X0178643Y0074029D01*
X0178698Y0074012D01*
X0178753Y0073992D01*
X0178806Y0073968D01*
X0178857Y0073941D01*
X0178906Y0073910D01*
X0178953Y0073876D01*
X0178998Y0073839D01*
X0179040Y0073799D01*
X0179080Y0073756D01*
X0179116Y0073711D01*
X0179149Y0073663D01*
X0179179Y0073613D01*
X0179205Y0073562D01*
X0179228Y0073508D01*
X0179248Y0073453D01*
X0179263Y0073397D01*
X0179275Y0073341D01*
X0179283Y0073283D01*
X0179287Y0073225D01*
X0179287Y0073167D01*
X0179283Y0073109D01*
X0179275Y0073051D01*
X0179263Y0072995D01*
X0179248Y0072939D01*
X0179228Y0072884D01*
X0179205Y0072830D01*
X0179179Y0072779D01*
X0179149Y0072729D01*
X0179116Y0072681D01*
X0179080Y0072636D01*
X0179040Y0072593D01*
X0178998Y0072553D01*
X0178953Y0072516D01*
X0178906Y0072482D01*
X0178857Y0072451D01*
X0178806Y0072424D01*
X0178753Y0072400D01*
X0178698Y0072380D01*
X0178643Y0072363D01*
X0178586Y0072351D01*
X0178528Y0072342D01*
X0178471Y0072337D01*
X0178412Y0072336D01*
X0178354Y0072339D01*
X0178297Y0072346D01*
X0178240Y0072357D01*
X0178183Y0072371D01*
X0178128Y0072390D01*
X0178075Y0072412D01*
X0178022Y0072437D01*
X0177972Y0072466D01*
X0177924Y0072499D01*
X0177878Y0072534D01*
X0177834Y0072573D01*
X0177794Y0072614D01*
X0177756Y0072658D01*
X0177721Y0072705D01*
X0177690Y0072753D01*
X0177661Y0072804D01*
X0177637Y0072857D01*
X0177616Y0072911D01*
X0177598Y0072966D01*
X0177585Y0073023D01*
X0177575Y0073080D01*
X0177569Y0073138D01*
X0177567Y0073196D01*
X0178327Y0073196D02*
X0178329Y0073216D01*
X0178335Y0073234D01*
X0178344Y0073252D01*
X0178356Y0073267D01*
X0178371Y0073279D01*
X0178389Y0073288D01*
X0178407Y0073294D01*
X0178427Y0073296D01*
X0178447Y0073294D01*
X0178465Y0073288D01*
X0178483Y0073279D01*
X0178498Y0073267D01*
X0178510Y0073252D01*
X0178519Y0073234D01*
X0178525Y0073216D01*
X0178527Y0073196D01*
X0178525Y0073176D01*
X0178519Y0073158D01*
X0178510Y0073140D01*
X0178498Y0073125D01*
X0178483Y0073113D01*
X0178465Y0073104D01*
X0178447Y0073098D01*
X0178427Y0073096D01*
X0178407Y0073098D01*
X0178389Y0073104D01*
X0178371Y0073113D01*
X0178356Y0073125D01*
X0178344Y0073140D01*
X0178335Y0073158D01*
X0178329Y0073176D01*
X0178327Y0073196D01*
X0177927Y0073196D02*
X0177929Y0073240D01*
X0177935Y0073284D01*
X0177945Y0073327D01*
X0177958Y0073369D01*
X0177975Y0073410D01*
X0177996Y0073449D01*
X0178020Y0073486D01*
X0178047Y0073521D01*
X0178077Y0073553D01*
X0178110Y0073583D01*
X0178146Y0073609D01*
X0178183Y0073633D01*
X0178223Y0073652D01*
X0178264Y0073669D01*
X0178307Y0073681D01*
X0178350Y0073690D01*
X0178394Y0073695D01*
X0178438Y0073696D01*
X0178482Y0073693D01*
X0178526Y0073686D01*
X0178569Y0073675D01*
X0178611Y0073661D01*
X0178651Y0073643D01*
X0178690Y0073621D01*
X0178726Y0073597D01*
X0178760Y0073569D01*
X0178792Y0073538D01*
X0178821Y0073504D01*
X0178847Y0073468D01*
X0178869Y0073430D01*
X0178888Y0073390D01*
X0178903Y0073348D01*
X0178915Y0073306D01*
X0178923Y0073262D01*
X0178927Y0073218D01*
X0178927Y0073174D01*
X0178923Y0073130D01*
X0178915Y0073086D01*
X0178903Y0073044D01*
X0178888Y0073002D01*
X0178869Y0072962D01*
X0178847Y0072924D01*
X0178821Y0072888D01*
X0178792Y0072854D01*
X0178760Y0072823D01*
X0178726Y0072795D01*
X0178690Y0072771D01*
X0178651Y0072749D01*
X0178611Y0072731D01*
X0178569Y0072717D01*
X0178526Y0072706D01*
X0178482Y0072699D01*
X0178438Y0072696D01*
X0178394Y0072697D01*
X0178350Y0072702D01*
X0178307Y0072711D01*
X0178264Y0072723D01*
X0178223Y0072740D01*
X0178183Y0072759D01*
X0178146Y0072783D01*
X0178110Y0072809D01*
X0178077Y0072839D01*
X0178047Y0072871D01*
X0178020Y0072906D01*
X0177996Y0072943D01*
X0177975Y0072982D01*
X0177958Y0073023D01*
X0177945Y0073065D01*
X0177935Y0073108D01*
X0177929Y0073152D01*
X0177927Y0073196D01*
X0279067Y0155796D02*
X0279069Y0155854D01*
X0279075Y0155912D01*
X0279085Y0155969D01*
X0279098Y0156026D01*
X0279116Y0156081D01*
X0279137Y0156135D01*
X0279161Y0156188D01*
X0279190Y0156239D01*
X0279221Y0156287D01*
X0279256Y0156334D01*
X0279294Y0156378D01*
X0279334Y0156419D01*
X0279378Y0156458D01*
X0279424Y0156493D01*
X0279472Y0156526D01*
X0279522Y0156555D01*
X0279575Y0156580D01*
X0279628Y0156602D01*
X0279683Y0156621D01*
X0279740Y0156635D01*
X0279797Y0156646D01*
X0279854Y0156653D01*
X0279912Y0156656D01*
X0279971Y0156655D01*
X0280028Y0156650D01*
X0280086Y0156641D01*
X0280143Y0156629D01*
X0280198Y0156612D01*
X0280253Y0156592D01*
X0280306Y0156568D01*
X0280357Y0156541D01*
X0280406Y0156510D01*
X0280453Y0156476D01*
X0280498Y0156439D01*
X0280540Y0156399D01*
X0280580Y0156356D01*
X0280616Y0156311D01*
X0280649Y0156263D01*
X0280679Y0156213D01*
X0280705Y0156162D01*
X0280728Y0156108D01*
X0280748Y0156053D01*
X0280763Y0155997D01*
X0280775Y0155941D01*
X0280783Y0155883D01*
X0280787Y0155825D01*
X0280787Y0155767D01*
X0280783Y0155709D01*
X0280775Y0155651D01*
X0280763Y0155595D01*
X0280748Y0155539D01*
X0280728Y0155484D01*
X0280705Y0155430D01*
X0280679Y0155379D01*
X0280649Y0155329D01*
X0280616Y0155281D01*
X0280580Y0155236D01*
X0280540Y0155193D01*
X0280498Y0155153D01*
X0280453Y0155116D01*
X0280406Y0155082D01*
X0280357Y0155051D01*
X0280306Y0155024D01*
X0280253Y0155000D01*
X0280198Y0154980D01*
X0280143Y0154963D01*
X0280086Y0154951D01*
X0280028Y0154942D01*
X0279971Y0154937D01*
X0279912Y0154936D01*
X0279854Y0154939D01*
X0279797Y0154946D01*
X0279740Y0154957D01*
X0279683Y0154971D01*
X0279628Y0154990D01*
X0279575Y0155012D01*
X0279522Y0155037D01*
X0279472Y0155066D01*
X0279424Y0155099D01*
X0279378Y0155134D01*
X0279334Y0155173D01*
X0279294Y0155214D01*
X0279256Y0155258D01*
X0279221Y0155305D01*
X0279190Y0155353D01*
X0279161Y0155404D01*
X0279137Y0155457D01*
X0279116Y0155511D01*
X0279098Y0155566D01*
X0279085Y0155623D01*
X0279075Y0155680D01*
X0279069Y0155738D01*
X0279067Y0155796D01*
X0279827Y0155796D02*
X0279829Y0155816D01*
X0279835Y0155834D01*
X0279844Y0155852D01*
X0279856Y0155867D01*
X0279871Y0155879D01*
X0279889Y0155888D01*
X0279907Y0155894D01*
X0279927Y0155896D01*
X0279947Y0155894D01*
X0279965Y0155888D01*
X0279983Y0155879D01*
X0279998Y0155867D01*
X0280010Y0155852D01*
X0280019Y0155834D01*
X0280025Y0155816D01*
X0280027Y0155796D01*
X0280025Y0155776D01*
X0280019Y0155758D01*
X0280010Y0155740D01*
X0279998Y0155725D01*
X0279983Y0155713D01*
X0279965Y0155704D01*
X0279947Y0155698D01*
X0279927Y0155696D01*
X0279907Y0155698D01*
X0279889Y0155704D01*
X0279871Y0155713D01*
X0279856Y0155725D01*
X0279844Y0155740D01*
X0279835Y0155758D01*
X0279829Y0155776D01*
X0279827Y0155796D01*
X0279427Y0155796D02*
X0279429Y0155840D01*
X0279435Y0155884D01*
X0279445Y0155927D01*
X0279458Y0155969D01*
X0279475Y0156010D01*
X0279496Y0156049D01*
X0279520Y0156086D01*
X0279547Y0156121D01*
X0279577Y0156153D01*
X0279610Y0156183D01*
X0279646Y0156209D01*
X0279683Y0156233D01*
X0279723Y0156252D01*
X0279764Y0156269D01*
X0279807Y0156281D01*
X0279850Y0156290D01*
X0279894Y0156295D01*
X0279938Y0156296D01*
X0279982Y0156293D01*
X0280026Y0156286D01*
X0280069Y0156275D01*
X0280111Y0156261D01*
X0280151Y0156243D01*
X0280190Y0156221D01*
X0280226Y0156197D01*
X0280260Y0156169D01*
X0280292Y0156138D01*
X0280321Y0156104D01*
X0280347Y0156068D01*
X0280369Y0156030D01*
X0280388Y0155990D01*
X0280403Y0155948D01*
X0280415Y0155906D01*
X0280423Y0155862D01*
X0280427Y0155818D01*
X0280427Y0155774D01*
X0280423Y0155730D01*
X0280415Y0155686D01*
X0280403Y0155644D01*
X0280388Y0155602D01*
X0280369Y0155562D01*
X0280347Y0155524D01*
X0280321Y0155488D01*
X0280292Y0155454D01*
X0280260Y0155423D01*
X0280226Y0155395D01*
X0280190Y0155371D01*
X0280151Y0155349D01*
X0280111Y0155331D01*
X0280069Y0155317D01*
X0280026Y0155306D01*
X0279982Y0155299D01*
X0279938Y0155296D01*
X0279894Y0155297D01*
X0279850Y0155302D01*
X0279807Y0155311D01*
X0279764Y0155323D01*
X0279723Y0155340D01*
X0279683Y0155359D01*
X0279646Y0155383D01*
X0279610Y0155409D01*
X0279577Y0155439D01*
X0279547Y0155471D01*
X0279520Y0155506D01*
X0279496Y0155543D01*
X0279475Y0155582D01*
X0279458Y0155623D01*
X0279445Y0155665D01*
X0279435Y0155708D01*
X0279429Y0155752D01*
X0279427Y0155796D01*
X0279067Y0173196D02*
X0279069Y0173254D01*
X0279075Y0173312D01*
X0279085Y0173369D01*
X0279098Y0173426D01*
X0279116Y0173481D01*
X0279137Y0173535D01*
X0279161Y0173588D01*
X0279190Y0173639D01*
X0279221Y0173687D01*
X0279256Y0173734D01*
X0279294Y0173778D01*
X0279334Y0173819D01*
X0279378Y0173858D01*
X0279424Y0173893D01*
X0279472Y0173926D01*
X0279522Y0173955D01*
X0279575Y0173980D01*
X0279628Y0174002D01*
X0279683Y0174021D01*
X0279740Y0174035D01*
X0279797Y0174046D01*
X0279854Y0174053D01*
X0279912Y0174056D01*
X0279971Y0174055D01*
X0280028Y0174050D01*
X0280086Y0174041D01*
X0280143Y0174029D01*
X0280198Y0174012D01*
X0280253Y0173992D01*
X0280306Y0173968D01*
X0280357Y0173941D01*
X0280406Y0173910D01*
X0280453Y0173876D01*
X0280498Y0173839D01*
X0280540Y0173799D01*
X0280580Y0173756D01*
X0280616Y0173711D01*
X0280649Y0173663D01*
X0280679Y0173613D01*
X0280705Y0173562D01*
X0280728Y0173508D01*
X0280748Y0173453D01*
X0280763Y0173397D01*
X0280775Y0173341D01*
X0280783Y0173283D01*
X0280787Y0173225D01*
X0280787Y0173167D01*
X0280783Y0173109D01*
X0280775Y0173051D01*
X0280763Y0172995D01*
X0280748Y0172939D01*
X0280728Y0172884D01*
X0280705Y0172830D01*
X0280679Y0172779D01*
X0280649Y0172729D01*
X0280616Y0172681D01*
X0280580Y0172636D01*
X0280540Y0172593D01*
X0280498Y0172553D01*
X0280453Y0172516D01*
X0280406Y0172482D01*
X0280357Y0172451D01*
X0280306Y0172424D01*
X0280253Y0172400D01*
X0280198Y0172380D01*
X0280143Y0172363D01*
X0280086Y0172351D01*
X0280028Y0172342D01*
X0279971Y0172337D01*
X0279912Y0172336D01*
X0279854Y0172339D01*
X0279797Y0172346D01*
X0279740Y0172357D01*
X0279683Y0172371D01*
X0279628Y0172390D01*
X0279575Y0172412D01*
X0279522Y0172437D01*
X0279472Y0172466D01*
X0279424Y0172499D01*
X0279378Y0172534D01*
X0279334Y0172573D01*
X0279294Y0172614D01*
X0279256Y0172658D01*
X0279221Y0172705D01*
X0279190Y0172753D01*
X0279161Y0172804D01*
X0279137Y0172857D01*
X0279116Y0172911D01*
X0279098Y0172966D01*
X0279085Y0173023D01*
X0279075Y0173080D01*
X0279069Y0173138D01*
X0279067Y0173196D01*
X0279827Y0173196D02*
X0279829Y0173216D01*
X0279835Y0173234D01*
X0279844Y0173252D01*
X0279856Y0173267D01*
X0279871Y0173279D01*
X0279889Y0173288D01*
X0279907Y0173294D01*
X0279927Y0173296D01*
X0279947Y0173294D01*
X0279965Y0173288D01*
X0279983Y0173279D01*
X0279998Y0173267D01*
X0280010Y0173252D01*
X0280019Y0173234D01*
X0280025Y0173216D01*
X0280027Y0173196D01*
X0280025Y0173176D01*
X0280019Y0173158D01*
X0280010Y0173140D01*
X0279998Y0173125D01*
X0279983Y0173113D01*
X0279965Y0173104D01*
X0279947Y0173098D01*
X0279927Y0173096D01*
X0279907Y0173098D01*
X0279889Y0173104D01*
X0279871Y0173113D01*
X0279856Y0173125D01*
X0279844Y0173140D01*
X0279835Y0173158D01*
X0279829Y0173176D01*
X0279827Y0173196D01*
X0279427Y0173196D02*
X0279429Y0173240D01*
X0279435Y0173284D01*
X0279445Y0173327D01*
X0279458Y0173369D01*
X0279475Y0173410D01*
X0279496Y0173449D01*
X0279520Y0173486D01*
X0279547Y0173521D01*
X0279577Y0173553D01*
X0279610Y0173583D01*
X0279646Y0173609D01*
X0279683Y0173633D01*
X0279723Y0173652D01*
X0279764Y0173669D01*
X0279807Y0173681D01*
X0279850Y0173690D01*
X0279894Y0173695D01*
X0279938Y0173696D01*
X0279982Y0173693D01*
X0280026Y0173686D01*
X0280069Y0173675D01*
X0280111Y0173661D01*
X0280151Y0173643D01*
X0280190Y0173621D01*
X0280226Y0173597D01*
X0280260Y0173569D01*
X0280292Y0173538D01*
X0280321Y0173504D01*
X0280347Y0173468D01*
X0280369Y0173430D01*
X0280388Y0173390D01*
X0280403Y0173348D01*
X0280415Y0173306D01*
X0280423Y0173262D01*
X0280427Y0173218D01*
X0280427Y0173174D01*
X0280423Y0173130D01*
X0280415Y0173086D01*
X0280403Y0173044D01*
X0280388Y0173002D01*
X0280369Y0172962D01*
X0280347Y0172924D01*
X0280321Y0172888D01*
X0280292Y0172854D01*
X0280260Y0172823D01*
X0280226Y0172795D01*
X0280190Y0172771D01*
X0280151Y0172749D01*
X0280111Y0172731D01*
X0280069Y0172717D01*
X0280026Y0172706D01*
X0279982Y0172699D01*
X0279938Y0172696D01*
X0279894Y0172697D01*
X0279850Y0172702D01*
X0279807Y0172711D01*
X0279764Y0172723D01*
X0279723Y0172740D01*
X0279683Y0172759D01*
X0279646Y0172783D01*
X0279610Y0172809D01*
X0279577Y0172839D01*
X0279547Y0172871D01*
X0279520Y0172906D01*
X0279496Y0172943D01*
X0279475Y0172982D01*
X0279458Y0173023D01*
X0279445Y0173065D01*
X0279435Y0173108D01*
X0279429Y0173152D01*
X0279427Y0173196D01*
D13*
X0108038Y0126820D02*
X0108038Y0117371D01*
X0100164Y0117371D01*
X0092290Y0117371D02*
X0085991Y0117371D01*
X0084416Y0118946D01*
X0084416Y0125245D01*
X0085991Y0126820D01*
X0092290Y0126820D01*
X0100164Y0126820D02*
X0108038Y0126820D01*
M02*
