G75*
%MOIN*%
%OFA0B0*%
%FSLAX25Y25*%
%IPPOS*%
%LPD*%
%AMOC8*
5,1,8,0,0,1.08239X$1,22.5*
%
%ADD10C,0.07200*%
%ADD11R,0.04737X0.05131*%
%ADD12C,0.06350*%
%ADD13C,0.04146*%
%ADD14R,0.05131X0.04737*%
%ADD15R,0.08280X0.07099*%
%ADD16R,0.08200X0.08200*%
%ADD17C,0.08200*%
%ADD18C,0.14580*%
%ADD19R,0.06350X0.06350*%
%ADD20R,0.02375X0.03753*%
%ADD21R,0.02769X0.03753*%
D10*
X0037927Y0142096D02*
X0037927Y0148496D01*
X0047927Y0149496D02*
X0047927Y0143096D01*
X0057927Y0142096D02*
X0057927Y0148496D01*
X0067927Y0149496D02*
X0067927Y0143096D01*
X0077927Y0142096D02*
X0077927Y0148496D01*
D11*
X0047327Y0065149D03*
X0047327Y0071842D03*
X0060227Y0097149D03*
X0060227Y0103842D03*
X0045027Y0102449D03*
X0045027Y0109142D03*
X0178427Y0076542D03*
X0178427Y0069849D03*
X0279927Y0152449D03*
X0279927Y0159142D03*
X0279927Y0169849D03*
X0279927Y0176542D03*
D12*
X0274934Y0141529D03*
X0274934Y0133655D03*
X0274934Y0125781D03*
X0274934Y0117907D03*
X0274934Y0110033D03*
X0274934Y0102159D03*
X0274934Y0094285D03*
X0274934Y0086411D03*
X0274934Y0078537D03*
X0274934Y0070663D03*
X0219104Y0042244D03*
X0211230Y0042244D03*
X0203356Y0042244D03*
X0195482Y0042244D03*
X0187608Y0042244D03*
X0179734Y0042244D03*
X0171860Y0042244D03*
X0163986Y0042244D03*
X0156112Y0042244D03*
X0148237Y0042244D03*
X0140363Y0042244D03*
X0132489Y0042244D03*
X0124615Y0042244D03*
X0116741Y0042244D03*
X0108867Y0042244D03*
X0108867Y0034370D03*
X0116741Y0034370D03*
X0124615Y0034370D03*
X0132489Y0034370D03*
X0140363Y0034370D03*
X0148237Y0034370D03*
X0156112Y0034370D03*
X0163986Y0034370D03*
X0171860Y0034370D03*
X0179734Y0034370D03*
X0187608Y0034370D03*
X0195482Y0034370D03*
X0203356Y0034370D03*
X0211230Y0034370D03*
X0219104Y0034370D03*
X0188320Y0070663D03*
X0188320Y0078537D03*
X0188320Y0086411D03*
X0188320Y0094285D03*
X0188320Y0102159D03*
X0188320Y0110033D03*
X0188320Y0117907D03*
X0188320Y0125781D03*
X0188320Y0133655D03*
X0188320Y0141529D03*
X0100993Y0034370D03*
D13*
X0163127Y0134390D03*
X0163127Y0146201D03*
D14*
X0087274Y0098096D03*
X0080581Y0098096D03*
X0079374Y0069296D03*
X0072681Y0069296D03*
X0043774Y0131896D03*
X0037081Y0131896D03*
X0069581Y0135296D03*
X0076274Y0135296D03*
D15*
X0089731Y0122096D03*
X0102723Y0122096D03*
D16*
X0266427Y0172296D03*
D17*
X0256427Y0173296D03*
X0246427Y0172296D03*
X0236427Y0173296D03*
D18*
X0160127Y0166496D03*
D19*
X0100993Y0042244D03*
D20*
X0100552Y0141952D03*
X0103702Y0141952D03*
X0103702Y0148842D03*
X0100552Y0148842D03*
X0130252Y0148842D03*
X0133402Y0148842D03*
X0133402Y0141952D03*
X0130252Y0141952D03*
D21*
X0126906Y0141952D03*
X0126906Y0148842D03*
X0136749Y0148842D03*
X0136749Y0141952D03*
X0107049Y0141952D03*
X0107049Y0148842D03*
X0097206Y0148842D03*
X0097206Y0141952D03*
M02*
