G75*
%MOIN*%
%OFA0B0*%
%FSLAX25Y25*%
%IPPOS*%
%LPD*%
%AMOC8*
5,1,8,0,0,1.08239X$1,22.5*
%
%ADD10R,0.03937X0.04331*%
%ADD11R,0.07480X0.04331*%
%ADD12C,0.06400*%
%ADD13R,0.01575X0.04724*%
%ADD14C,0.05550*%
%ADD15R,0.05000X0.02500*%
%ADD16R,0.04528X0.03937*%
%ADD17R,0.04331X0.03937*%
%ADD18R,0.04724X0.02165*%
%ADD19R,0.04724X0.04724*%
%ADD20R,0.04500X0.01650*%
%ADD21R,0.06299X0.01181*%
%ADD22R,0.04724X0.03150*%
%ADD23R,0.06299X0.07480*%
%ADD24R,0.03937X0.00866*%
%ADD25R,0.00866X0.03937*%
%ADD26R,0.01181X0.03937*%
%ADD27R,0.07400X0.07400*%
%ADD28C,0.07400*%
%ADD29R,0.12598X0.04724*%
%ADD30R,0.05550X0.05550*%
%ADD31C,0.00700*%
%ADD32C,0.01600*%
%ADD33C,0.03969*%
%ADD34C,0.03200*%
%ADD35C,0.03300*%
%ADD36C,0.01000*%
%ADD37C,0.01200*%
%ADD38C,0.02400*%
%ADD39C,0.03200*%
%ADD40C,0.04362*%
D10*
X0045527Y0053399D03*
X0045527Y0060092D03*
X0094127Y0065849D03*
X0101927Y0069192D03*
X0094127Y0072542D03*
X0101927Y0062499D03*
X0101927Y0056642D03*
X0101927Y0049949D03*
X0119927Y0061249D03*
X0119927Y0067942D03*
X0109727Y0070042D03*
X0109727Y0063349D03*
X0145827Y0062042D03*
X0145827Y0055349D03*
X0165527Y0052849D03*
X0165527Y0059542D03*
X0207427Y0124449D03*
X0207427Y0131142D03*
X0228927Y0135849D03*
X0228927Y0142542D03*
X0263527Y0108842D03*
X0263527Y0102149D03*
D11*
X0120211Y0104168D03*
X0120211Y0113223D03*
X0105644Y0113223D03*
X0105644Y0104168D03*
D12*
X0077927Y0142096D02*
X0077927Y0148496D01*
X0067927Y0149496D02*
X0067927Y0143096D01*
X0057927Y0142096D02*
X0057927Y0148496D01*
X0047927Y0149496D02*
X0047927Y0143096D01*
X0037927Y0142096D02*
X0037927Y0148496D01*
D13*
X0170889Y0072067D03*
X0173448Y0072067D03*
X0176007Y0072067D03*
X0178566Y0072067D03*
X0178566Y0055925D03*
X0176007Y0055925D03*
X0173448Y0055925D03*
X0170889Y0055925D03*
D14*
X0171860Y0042244D03*
X0179734Y0042244D03*
X0187608Y0042244D03*
X0195482Y0042244D03*
X0203356Y0042244D03*
X0211230Y0042244D03*
X0219104Y0042244D03*
X0219104Y0034370D03*
X0211230Y0034370D03*
X0203356Y0034370D03*
X0195482Y0034370D03*
X0187608Y0034370D03*
X0179734Y0034370D03*
X0171860Y0034370D03*
X0163986Y0034370D03*
X0156112Y0034370D03*
X0148237Y0034370D03*
X0140363Y0034370D03*
X0132489Y0034370D03*
X0124615Y0034370D03*
X0116741Y0034370D03*
X0108867Y0034370D03*
X0100993Y0034370D03*
X0108867Y0042244D03*
X0116741Y0042244D03*
X0124615Y0042244D03*
X0132489Y0042244D03*
X0140363Y0042244D03*
X0148237Y0042244D03*
X0156112Y0042244D03*
X0163986Y0042244D03*
X0188320Y0070663D03*
X0188320Y0078537D03*
X0188320Y0086411D03*
X0188320Y0094285D03*
X0188320Y0102159D03*
X0188320Y0110033D03*
X0188320Y0117907D03*
X0188320Y0125781D03*
X0188320Y0133655D03*
X0188320Y0141529D03*
X0274934Y0141529D03*
X0274934Y0133655D03*
X0274934Y0125781D03*
X0274934Y0117907D03*
X0274934Y0110033D03*
X0274934Y0102159D03*
X0274934Y0094285D03*
X0274934Y0086411D03*
X0274934Y0078537D03*
X0274934Y0070663D03*
D15*
X0241827Y0130924D03*
X0241827Y0134467D03*
D16*
X0174249Y0130453D03*
X0174249Y0140296D03*
X0174249Y0150138D03*
X0152005Y0150138D03*
X0152005Y0140296D03*
X0152005Y0130453D03*
D17*
X0148627Y0099842D03*
X0148627Y0093149D03*
X0140927Y0088742D03*
X0132927Y0088742D03*
X0124827Y0088742D03*
X0124827Y0082049D03*
X0132927Y0082049D03*
X0140927Y0082049D03*
X0157827Y0092849D03*
X0164627Y0093049D03*
X0164627Y0099742D03*
X0157827Y0099542D03*
X0172727Y0087342D03*
X0179227Y0087342D03*
X0179227Y0080649D03*
X0172727Y0080649D03*
X0087574Y0062996D03*
X0080881Y0062996D03*
X0080881Y0054496D03*
X0087574Y0054496D03*
X0069374Y0047996D03*
X0062681Y0047996D03*
X0207781Y0144196D03*
X0214474Y0144196D03*
X0220481Y0163696D03*
X0227174Y0163696D03*
D18*
X0074046Y0062536D03*
X0074046Y0058796D03*
X0074046Y0055056D03*
X0063809Y0055056D03*
X0063809Y0062536D03*
D19*
X0045527Y0065862D03*
X0045527Y0074130D03*
X0094027Y0060330D03*
X0094027Y0052062D03*
X0109727Y0048862D03*
X0109727Y0057130D03*
X0112627Y0138462D03*
X0106227Y0138462D03*
X0097527Y0138562D03*
X0090627Y0138662D03*
X0090627Y0146930D03*
X0097527Y0146830D03*
X0106227Y0146730D03*
X0112627Y0146730D03*
X0121327Y0146830D03*
X0128427Y0146730D03*
X0135727Y0146830D03*
X0142427Y0146830D03*
X0142427Y0138562D03*
X0135727Y0138562D03*
X0128427Y0138462D03*
X0121327Y0138562D03*
X0280527Y0151762D03*
X0280527Y0160030D03*
X0279627Y0168662D03*
X0279627Y0176930D03*
D20*
X0262427Y0157246D03*
X0262427Y0154746D03*
X0262427Y0152246D03*
X0262427Y0149746D03*
X0262427Y0147246D03*
X0262427Y0144746D03*
X0262427Y0142246D03*
X0262427Y0139746D03*
X0241627Y0139746D03*
X0241627Y0142246D03*
X0241627Y0144746D03*
X0241627Y0147246D03*
X0241627Y0149746D03*
X0241627Y0152246D03*
X0241627Y0154746D03*
X0241627Y0157246D03*
D21*
X0221720Y0156954D03*
X0221720Y0154395D03*
X0221720Y0151797D03*
X0221720Y0149237D03*
X0208295Y0149237D03*
X0208334Y0151797D03*
X0208334Y0154375D03*
X0208374Y0156915D03*
D22*
X0128027Y0112539D03*
X0128027Y0105452D03*
X0098027Y0103952D03*
X0098027Y0111039D03*
D23*
X0054127Y0064492D03*
X0054127Y0051500D03*
X0198327Y0118700D03*
X0198327Y0131692D03*
D24*
X0091665Y0113060D03*
X0091665Y0111091D03*
X0091665Y0109123D03*
X0091665Y0107154D03*
X0091665Y0105186D03*
X0091665Y0103217D03*
X0091665Y0101249D03*
X0091665Y0099280D03*
X0091665Y0097312D03*
X0091665Y0095343D03*
X0091665Y0093374D03*
X0091665Y0091406D03*
X0091665Y0089437D03*
X0091665Y0087469D03*
X0091665Y0085500D03*
X0091665Y0083532D03*
X0046389Y0083532D03*
X0046389Y0085500D03*
X0046389Y0087469D03*
X0046389Y0089437D03*
X0046389Y0091406D03*
X0046389Y0093374D03*
X0046389Y0095343D03*
X0046389Y0097312D03*
X0046389Y0099280D03*
X0046389Y0101249D03*
X0046389Y0103217D03*
X0046389Y0105186D03*
X0046389Y0107154D03*
X0046389Y0109123D03*
X0046389Y0111091D03*
X0046389Y0113060D03*
D25*
X0054263Y0120934D03*
X0056232Y0120934D03*
X0058200Y0120934D03*
X0060169Y0120934D03*
X0062137Y0120934D03*
X0064106Y0120934D03*
X0066074Y0120934D03*
X0068043Y0120934D03*
X0070012Y0120934D03*
X0071980Y0120934D03*
X0073949Y0120934D03*
X0075917Y0120934D03*
X0077886Y0120934D03*
X0079854Y0120934D03*
X0081823Y0120934D03*
X0083791Y0120934D03*
X0083791Y0075658D03*
X0081823Y0075658D03*
X0079854Y0075658D03*
X0077886Y0075658D03*
X0075917Y0075658D03*
X0073949Y0075658D03*
X0071980Y0075658D03*
X0070012Y0075658D03*
X0068043Y0075658D03*
X0066074Y0075658D03*
X0064106Y0075658D03*
X0062137Y0075658D03*
X0060169Y0075658D03*
X0058200Y0075658D03*
X0056232Y0075658D03*
X0054263Y0075658D03*
D26*
X0132689Y0070673D03*
X0135248Y0070673D03*
X0137807Y0070673D03*
X0140366Y0070673D03*
X0152389Y0068773D03*
X0154948Y0068773D03*
X0157507Y0068773D03*
X0160066Y0068773D03*
X0160066Y0053517D03*
X0157507Y0053517D03*
X0154948Y0053517D03*
X0152389Y0053517D03*
X0140366Y0055417D03*
X0137807Y0055417D03*
X0135248Y0055417D03*
X0132689Y0055417D03*
D27*
X0266427Y0172296D03*
D28*
X0256427Y0173296D03*
X0246427Y0172296D03*
X0236427Y0173296D03*
D29*
X0072513Y0175270D03*
X0072513Y0159522D03*
X0045741Y0159522D03*
X0045741Y0175270D03*
D30*
X0100993Y0042244D03*
D31*
X0095527Y0046196D02*
X0095527Y0030396D01*
X0097027Y0028896D01*
X0108027Y0028896D01*
X0108927Y0029796D01*
X0108927Y0034310D01*
X0108867Y0034370D01*
X0112802Y0038334D02*
X0116741Y0034370D01*
X0112802Y0038334D02*
X0112802Y0044846D01*
X0114645Y0046813D01*
X0114645Y0056378D01*
X0113427Y0057596D01*
X0113427Y0069196D01*
X0112927Y0069696D01*
X0109981Y0069696D01*
X0109727Y0070042D01*
X0109627Y0069242D01*
X0109627Y0073096D01*
X0106027Y0076696D01*
X0099727Y0076696D01*
X0097127Y0079296D01*
X0097127Y0083796D01*
X0095423Y0085500D01*
X0091665Y0085500D01*
X0091665Y0083532D02*
X0091665Y0082058D01*
X0099227Y0074496D01*
X0103527Y0074496D01*
X0105927Y0072096D01*
X0105927Y0063596D01*
X0104827Y0062496D01*
X0101931Y0062496D01*
X0101927Y0062499D01*
X0101927Y0056642D01*
X0094127Y0060430D02*
X0094027Y0060330D01*
X0094127Y0060430D02*
X0094127Y0065849D01*
X0094327Y0072096D02*
X0093127Y0073296D01*
X0087727Y0073296D01*
X0087227Y0073796D01*
X0087227Y0078496D01*
X0085727Y0079996D01*
X0077027Y0079996D01*
X0075927Y0078896D01*
X0075927Y0075668D01*
X0075917Y0075658D01*
X0071980Y0075658D02*
X0071980Y0070049D01*
X0070427Y0068496D01*
X0065227Y0068496D01*
X0064627Y0069096D01*
X0064627Y0070296D01*
X0063527Y0071396D01*
X0058627Y0071396D01*
X0058227Y0071796D01*
X0058227Y0075631D01*
X0058200Y0075658D01*
X0060169Y0075658D02*
X0060169Y0078254D01*
X0059227Y0079196D01*
X0057327Y0079196D01*
X0055927Y0080596D01*
X0060427Y0082396D02*
X0062137Y0080686D01*
X0062137Y0075658D01*
X0064106Y0075658D02*
X0064106Y0083174D01*
X0065127Y0084396D01*
X0065427Y0084796D01*
X0065327Y0084596D02*
X0065127Y0084396D01*
X0068227Y0080696D02*
X0066074Y0078543D01*
X0066074Y0075658D01*
X0070012Y0075658D02*
X0069912Y0078080D01*
X0076027Y0082996D01*
X0081823Y0075658D02*
X0081823Y0068591D01*
X0080727Y0067496D01*
X0080727Y0063149D01*
X0080881Y0062996D01*
X0081727Y0058996D02*
X0080881Y0058149D01*
X0080881Y0054496D01*
X0081727Y0058996D02*
X0083727Y0058996D01*
X0084227Y0059496D01*
X0084227Y0075222D01*
X0083791Y0075658D01*
X0094127Y0072542D02*
X0094327Y0072096D01*
X0100527Y0078596D02*
X0106727Y0078596D01*
X0109927Y0075396D01*
X0112927Y0075396D01*
X0116127Y0072196D01*
X0116127Y0057696D01*
X0116627Y0057196D01*
X0116627Y0042358D01*
X0116741Y0042244D01*
X0124615Y0042244D02*
X0126927Y0044556D01*
X0126927Y0058996D01*
X0126027Y0059896D01*
X0121727Y0059896D01*
X0120374Y0061249D01*
X0119927Y0061249D01*
X0123627Y0063896D02*
X0125027Y0062496D01*
X0128127Y0062496D01*
X0129127Y0061496D01*
X0129127Y0052296D01*
X0132427Y0048996D01*
X0132427Y0042306D01*
X0132489Y0042244D01*
X0140527Y0053778D02*
X0140366Y0055417D01*
X0140527Y0053778D02*
X0140527Y0062296D01*
X0139827Y0062996D01*
X0135227Y0062996D01*
X0135227Y0068893D02*
X0135248Y0070673D01*
X0137807Y0070673D01*
X0140366Y0070673D02*
X0140927Y0069434D01*
X0140927Y0082049D01*
X0140927Y0088742D01*
X0140027Y0089642D01*
X0140027Y0097796D01*
X0139927Y0097896D01*
X0139927Y0102396D01*
X0142327Y0104796D01*
X0168027Y0104796D01*
X0170427Y0101896D02*
X0170427Y0091696D01*
X0168527Y0089796D01*
X0168527Y0080396D01*
X0166527Y0078396D01*
X0166527Y0064096D01*
X0167627Y0062996D01*
X0173427Y0062996D01*
X0176007Y0065575D01*
X0176007Y0072067D01*
X0176007Y0075175D01*
X0179327Y0078496D01*
X0179327Y0080549D01*
X0179227Y0080649D01*
X0179227Y0087342D01*
X0183427Y0090996D02*
X0181827Y0092596D01*
X0181827Y0120996D01*
X0178427Y0124396D01*
X0162327Y0124396D01*
X0158827Y0120896D01*
X0089727Y0120896D01*
X0086327Y0124296D01*
X0082227Y0124296D01*
X0081823Y0123891D01*
X0081823Y0120934D01*
X0079854Y0120934D02*
X0079854Y0124823D01*
X0080927Y0125796D01*
X0087127Y0125796D01*
X0090827Y0122696D01*
X0145327Y0122696D01*
X0148627Y0125996D01*
X0148627Y0139296D01*
X0149527Y0140196D01*
X0151905Y0140196D01*
X0152005Y0140296D01*
X0148327Y0144896D02*
X0147127Y0143696D01*
X0147127Y0126996D01*
X0144327Y0124196D01*
X0092127Y0124196D01*
X0088527Y0127196D01*
X0079627Y0127196D01*
X0077886Y0125454D01*
X0077886Y0120934D01*
X0073949Y0120934D02*
X0073927Y0120955D01*
X0073927Y0127196D01*
X0075327Y0128596D01*
X0110327Y0128596D01*
X0112627Y0131696D01*
X0112627Y0138462D01*
X0106227Y0138462D02*
X0106227Y0132796D01*
X0103727Y0130296D01*
X0073627Y0130296D01*
X0072027Y0128696D01*
X0072027Y0120981D01*
X0071980Y0120934D01*
X0072027Y0120981D02*
X0072027Y0117496D01*
X0076627Y0112896D01*
X0085027Y0112896D01*
X0089527Y0117396D01*
X0156230Y0117302D01*
X0160528Y0117296D01*
X0160727Y0117296D01*
X0164127Y0120696D01*
X0176827Y0120696D01*
X0177727Y0119796D01*
X0177727Y0109196D01*
X0170427Y0101896D01*
X0172727Y0101496D02*
X0179727Y0108496D01*
X0179727Y0120496D01*
X0177727Y0122496D01*
X0163227Y0122496D01*
X0159827Y0119296D01*
X0088427Y0119296D01*
X0083627Y0114496D01*
X0077327Y0114496D01*
X0073949Y0117874D01*
X0073949Y0120934D01*
X0068043Y0120934D02*
X0068043Y0124480D01*
X0067427Y0125096D01*
X0058527Y0125096D01*
X0058427Y0124996D01*
X0060169Y0120934D02*
X0060169Y0109854D01*
X0060527Y0109496D01*
X0060169Y0111154D01*
X0063927Y0113696D02*
X0064227Y0113196D01*
X0063927Y0113696D02*
X0062137Y0115286D01*
X0062137Y0120934D01*
X0064106Y0120934D02*
X0064106Y0117317D01*
X0064927Y0116496D01*
X0068227Y0116496D01*
X0069127Y0115596D01*
X0051527Y0101496D02*
X0051327Y0101296D01*
X0046437Y0101296D01*
X0046389Y0101249D01*
X0046389Y0097312D02*
X0049912Y0097312D01*
X0050027Y0097196D01*
X0046389Y0095343D02*
X0053980Y0095343D01*
X0055377Y0093946D01*
X0046389Y0085500D02*
X0046385Y0085496D01*
X0043627Y0085496D01*
X0042727Y0086396D01*
X0042727Y0113996D01*
X0039427Y0117296D01*
X0039427Y0134196D01*
X0041027Y0135796D01*
X0046227Y0135796D01*
X0047827Y0137396D01*
X0047927Y0146296D01*
X0037927Y0145296D02*
X0037827Y0116596D01*
X0040927Y0113496D01*
X0040927Y0084896D01*
X0042327Y0083496D01*
X0046353Y0083496D01*
X0046389Y0083532D01*
X0086427Y0092496D02*
X0087306Y0093374D01*
X0091665Y0093374D01*
X0091665Y0091406D02*
X0097217Y0091406D01*
X0102127Y0086496D01*
X0102127Y0083196D01*
X0103027Y0082296D01*
X0108127Y0082296D01*
X0110827Y0079596D01*
X0114627Y0079596D01*
X0123627Y0070596D01*
X0123627Y0063896D01*
X0119927Y0067942D02*
X0119927Y0071296D01*
X0117827Y0073396D01*
X0117827Y0073496D01*
X0113627Y0077696D01*
X0110127Y0077696D01*
X0107327Y0080496D01*
X0101027Y0080496D01*
X0100127Y0081396D01*
X0100127Y0085796D01*
X0096486Y0089437D01*
X0091665Y0089437D01*
X0091665Y0087469D02*
X0095754Y0087469D01*
X0098627Y0084596D01*
X0098627Y0080496D01*
X0100527Y0078596D01*
X0109727Y0070042D02*
X0109727Y0069596D01*
X0109727Y0063349D02*
X0109727Y0057130D01*
X0101927Y0049949D02*
X0099281Y0049949D01*
X0095527Y0046196D01*
X0132727Y0068912D02*
X0132727Y0073496D01*
X0131827Y0074396D01*
X0127427Y0074396D01*
X0124827Y0076996D01*
X0124827Y0082049D01*
X0122004Y0082073D01*
X0124927Y0082696D01*
X0124827Y0088742D01*
X0124927Y0088842D01*
X0124927Y0096096D01*
X0131327Y0102496D01*
X0136727Y0102496D01*
X0141427Y0107196D01*
X0164527Y0107196D01*
X0167227Y0109896D01*
X0171327Y0109896D01*
X0172727Y0101496D02*
X0172727Y0087342D01*
X0172727Y0080649D01*
X0172727Y0079796D01*
X0173327Y0079196D01*
X0173327Y0072187D01*
X0173448Y0072067D01*
X0175927Y0071987D02*
X0176007Y0072067D01*
X0178566Y0072067D02*
X0178566Y0067657D01*
X0178727Y0067496D01*
X0183427Y0067196D02*
X0186527Y0064096D01*
X0259027Y0064096D01*
X0264027Y0069096D01*
X0264027Y0101649D01*
X0263527Y0102149D01*
X0263537Y0102159D01*
X0267418Y0102159D01*
X0263527Y0108842D02*
X0220581Y0108842D01*
X0215427Y0113996D01*
X0215427Y0129296D01*
X0213327Y0131396D01*
X0207681Y0131396D01*
X0207427Y0131142D01*
X0228927Y0142542D02*
X0228927Y0144096D01*
X0241627Y0147246D02*
X0243977Y0147246D01*
X0244927Y0148196D01*
X0245327Y0148196D01*
X0246127Y0148996D01*
X0250627Y0148996D01*
X0250627Y0138996D01*
X0249927Y0138296D01*
X0236227Y0163696D02*
X0227174Y0163696D01*
X0236227Y0163696D02*
X0236527Y0163996D01*
X0174249Y0140296D02*
X0174149Y0140396D01*
X0160427Y0140396D01*
X0155927Y0144896D01*
X0148327Y0144896D01*
X0142027Y0148541D02*
X0142027Y0154296D01*
X0135827Y0154196D02*
X0135827Y0149230D01*
X0128427Y0146730D02*
X0128427Y0153496D01*
X0127727Y0154196D01*
X0127783Y0154140D01*
X0122227Y0154396D02*
X0122227Y0147730D01*
X0121327Y0146830D01*
X0112727Y0146830D02*
X0112627Y0146730D01*
X0112727Y0146830D02*
X0112727Y0154196D01*
X0107727Y0153796D02*
X0107727Y0148230D01*
X0106227Y0146730D01*
X0097427Y0148041D02*
X0097427Y0153596D01*
X0091927Y0154496D02*
X0091927Y0148030D01*
X0092027Y0147930D01*
X0092027Y0146896D01*
X0091993Y0146930D01*
X0090627Y0146930D01*
X0090627Y0138662D02*
X0090627Y0134796D01*
X0091827Y0133596D01*
X0097627Y0134496D02*
X0097527Y0138562D01*
X0097601Y0135270D02*
X0097627Y0134496D01*
X0077327Y0138696D02*
X0077327Y0144696D01*
X0077927Y0145296D01*
X0077327Y0138696D02*
X0074427Y0135796D01*
X0063127Y0135796D01*
X0061927Y0134596D01*
X0051727Y0134596D01*
X0049427Y0132296D01*
X0049227Y0132296D01*
X0088927Y0099296D02*
X0088943Y0099280D01*
X0091665Y0099280D01*
X0091665Y0097312D02*
X0103643Y0097312D01*
X0105327Y0098996D01*
X0105327Y0103852D01*
X0105644Y0104168D01*
X0105412Y0103937D01*
X0104227Y0107796D02*
X0105427Y0108996D01*
X0110527Y0108996D01*
X0110927Y0108596D01*
X0114227Y0112296D02*
X0115127Y0113196D01*
X0120183Y0113196D01*
X0120211Y0113223D01*
X0120879Y0112555D01*
X0128012Y0112555D01*
X0128027Y0112539D01*
X0114227Y0112296D02*
X0114227Y0097196D01*
X0112374Y0095343D01*
X0091665Y0095343D01*
X0097827Y0107796D02*
X0104227Y0107796D01*
X0098027Y0107996D02*
X0097827Y0107796D01*
X0098027Y0107996D02*
X0098027Y0111039D01*
X0121327Y0129496D02*
X0122271Y0128552D01*
X0122327Y0128496D01*
X0121327Y0129496D02*
X0121327Y0138562D01*
X0128427Y0138462D02*
X0128427Y0128896D01*
X0129027Y0128296D01*
X0127901Y0129422D01*
X0136671Y0127652D02*
X0136727Y0127596D01*
X0142227Y0131096D02*
X0142301Y0131170D01*
X0132427Y0096696D02*
X0132427Y0089242D01*
X0132927Y0088742D01*
X0132927Y0082049D01*
X0132927Y0077996D01*
X0135227Y0075696D01*
X0135227Y0068893D01*
X0132727Y0068912D02*
X0132689Y0070673D01*
X0124827Y0082049D02*
X0124781Y0082096D01*
X0122004Y0082073D02*
X0119981Y0084496D01*
X0119327Y0084496D01*
X0148127Y0086396D02*
X0148927Y0085596D01*
X0148227Y0086296D01*
X0148127Y0086396D02*
X0148127Y0091896D01*
X0148427Y0092196D01*
X0148627Y0093149D01*
X0153627Y0088696D02*
X0153627Y0080796D01*
X0153427Y0080596D01*
X0154948Y0079075D01*
X0154948Y0068773D01*
X0157507Y0068773D01*
X0160066Y0068773D02*
X0160066Y0085557D01*
X0158927Y0086696D01*
X0158566Y0086334D01*
X0158927Y0086696D02*
X0159527Y0087296D01*
X0161127Y0087296D01*
X0164627Y0090796D01*
X0164627Y0093049D01*
X0157827Y0092849D02*
X0156527Y0091596D01*
X0153627Y0088696D01*
X0148927Y0085596D02*
X0148927Y0077796D01*
X0152427Y0074296D01*
X0152427Y0068812D01*
X0152389Y0068773D01*
X0156727Y0062496D02*
X0159127Y0062496D01*
X0160027Y0061596D01*
X0160027Y0053556D01*
X0160066Y0053517D01*
X0170889Y0055925D02*
X0170889Y0043215D01*
X0171860Y0042244D01*
X0174827Y0047896D02*
X0178427Y0047896D01*
X0179727Y0046596D01*
X0179727Y0042250D01*
X0179734Y0042244D01*
X0174827Y0047896D02*
X0173448Y0049275D01*
X0173448Y0055925D01*
X0176007Y0055925D02*
X0176007Y0050916D01*
X0176927Y0049996D01*
X0184127Y0049996D01*
X0187427Y0046696D01*
X0187427Y0042424D01*
X0187608Y0042244D01*
X0195327Y0042398D02*
X0195327Y0048996D01*
X0192427Y0051896D01*
X0179327Y0051896D01*
X0178566Y0052657D01*
X0178566Y0055925D01*
X0183427Y0067196D02*
X0183427Y0090996D01*
X0195327Y0042398D02*
X0195482Y0042244D01*
D32*
X0031927Y0028296D02*
X0031927Y0179696D01*
X0272828Y0179696D01*
X0272171Y0179424D01*
X0271299Y0178552D01*
X0270913Y0177620D01*
X0270822Y0177673D01*
X0270364Y0177796D01*
X0266627Y0177796D01*
X0266627Y0172496D01*
X0266227Y0172496D01*
X0266227Y0177796D01*
X0262490Y0177796D01*
X0262032Y0177673D01*
X0261622Y0177436D01*
X0261287Y0177101D01*
X0261050Y0176691D01*
X0260927Y0176233D01*
X0260927Y0176020D01*
X0260836Y0176241D01*
X0259373Y0177704D01*
X0257462Y0178496D01*
X0255393Y0178496D01*
X0253482Y0177704D01*
X0252019Y0176241D01*
X0251227Y0174330D01*
X0251227Y0174296D01*
X0250836Y0175241D01*
X0249373Y0176704D01*
X0247462Y0177496D01*
X0245393Y0177496D01*
X0243482Y0176704D01*
X0242019Y0175241D01*
X0241627Y0174296D01*
X0241627Y0174330D01*
X0240836Y0176241D01*
X0239373Y0177704D01*
X0237462Y0178496D01*
X0235393Y0178496D01*
X0233482Y0177704D01*
X0232019Y0176241D01*
X0231227Y0174330D01*
X0231227Y0172261D01*
X0232019Y0170350D01*
X0233482Y0168887D01*
X0234527Y0168454D01*
X0234527Y0165546D01*
X0230839Y0165546D01*
X0230839Y0166286D01*
X0229960Y0167164D01*
X0224387Y0167164D01*
X0224039Y0166817D01*
X0223751Y0167105D01*
X0223341Y0167342D01*
X0222883Y0167464D01*
X0220665Y0167464D01*
X0220665Y0163880D01*
X0220297Y0163880D01*
X0220297Y0167464D01*
X0218078Y0167464D01*
X0217621Y0167342D01*
X0217210Y0167105D01*
X0216875Y0166769D01*
X0216638Y0166359D01*
X0216515Y0165901D01*
X0216515Y0163880D01*
X0220296Y0163880D01*
X0220296Y0163511D01*
X0216515Y0163511D01*
X0216515Y0161490D01*
X0216638Y0161032D01*
X0216875Y0160622D01*
X0217210Y0160287D01*
X0217621Y0160050D01*
X0218078Y0159927D01*
X0220297Y0159927D01*
X0220297Y0163511D01*
X0220665Y0163511D01*
X0220665Y0159927D01*
X0222883Y0159927D01*
X0223341Y0160050D01*
X0223751Y0160287D01*
X0224039Y0160575D01*
X0224387Y0160227D01*
X0229960Y0160227D01*
X0230839Y0161106D01*
X0230839Y0161846D01*
X0234527Y0161846D01*
X0234527Y0151297D01*
X0234448Y0151198D01*
X0234527Y0150485D01*
X0234527Y0149767D01*
X0234617Y0149678D01*
X0234631Y0149552D01*
X0234826Y0149396D01*
X0234411Y0149396D01*
X0233271Y0148924D01*
X0232399Y0148052D01*
X0231927Y0146912D01*
X0231927Y0146096D01*
X0231629Y0146096D01*
X0231517Y0146208D01*
X0226337Y0146208D01*
X0226226Y0146096D01*
X0218139Y0146096D01*
X0218139Y0146786D01*
X0217984Y0146941D01*
X0218334Y0146847D01*
X0221720Y0146847D01*
X0221720Y0149237D01*
X0221720Y0149237D01*
X0221720Y0146847D01*
X0225107Y0146847D01*
X0225565Y0146970D01*
X0225975Y0147207D01*
X0226280Y0147512D01*
X0226967Y0146825D01*
X0228320Y0146265D01*
X0229784Y0146265D01*
X0231137Y0146825D01*
X0232173Y0147861D01*
X0232733Y0149214D01*
X0232733Y0150678D01*
X0232173Y0152031D01*
X0231225Y0152979D01*
X0231376Y0153042D01*
X0232356Y0154022D01*
X0232886Y0155303D01*
X0232886Y0156689D01*
X0232356Y0157969D01*
X0231376Y0158950D01*
X0230095Y0159480D01*
X0228709Y0159480D01*
X0227429Y0158950D01*
X0226583Y0158104D01*
X0226547Y0158239D01*
X0226310Y0158650D01*
X0225975Y0158985D01*
X0225565Y0159222D01*
X0225107Y0159345D01*
X0221720Y0159345D01*
X0218334Y0159345D01*
X0217876Y0159222D01*
X0217465Y0158985D01*
X0217130Y0158650D01*
X0216893Y0158239D01*
X0216771Y0157782D01*
X0216771Y0156954D01*
X0216771Y0156126D01*
X0216893Y0155669D01*
X0217071Y0155362D01*
X0217071Y0153183D01*
X0217158Y0153096D01*
X0217071Y0153008D01*
X0217071Y0150830D01*
X0216893Y0150523D01*
X0216771Y0150065D01*
X0216771Y0149238D01*
X0221720Y0149238D01*
X0221720Y0149237D01*
X0216771Y0149237D01*
X0216771Y0148410D01*
X0216893Y0147952D01*
X0217059Y0147664D01*
X0215827Y0147664D01*
X0215827Y0149024D01*
X0214656Y0150196D01*
X0214656Y0150196D01*
X0213614Y0151237D01*
X0212984Y0151237D01*
X0212984Y0153008D01*
X0212906Y0153086D01*
X0212984Y0153163D01*
X0212984Y0155587D01*
X0212946Y0155625D01*
X0213023Y0155703D01*
X0213023Y0158127D01*
X0212145Y0159005D01*
X0209112Y0159005D01*
X0208821Y0159296D01*
X0171199Y0159296D01*
X0170027Y0158124D01*
X0167199Y0155296D01*
X0156499Y0155296D01*
X0155327Y0154124D01*
X0154810Y0153607D01*
X0149120Y0153607D01*
X0148241Y0152728D01*
X0148241Y0147548D01*
X0149044Y0146746D01*
X0147561Y0146746D01*
X0146477Y0145662D01*
X0146289Y0145474D01*
X0146289Y0149813D01*
X0145411Y0150692D01*
X0143877Y0150692D01*
X0143877Y0151291D01*
X0144001Y0151342D01*
X0144981Y0152322D01*
X0145511Y0153603D01*
X0145511Y0154989D01*
X0144981Y0156269D01*
X0144001Y0157250D01*
X0142720Y0157780D01*
X0141334Y0157780D01*
X0140054Y0157250D01*
X0139073Y0156269D01*
X0138907Y0155866D01*
X0138781Y0156169D01*
X0137801Y0157150D01*
X0136520Y0157680D01*
X0135134Y0157680D01*
X0133854Y0157150D01*
X0132873Y0156169D01*
X0132343Y0154889D01*
X0132343Y0153503D01*
X0132873Y0152222D01*
X0133854Y0151242D01*
X0133977Y0151191D01*
X0133977Y0150692D01*
X0132744Y0150692D01*
X0132027Y0149975D01*
X0131411Y0150592D01*
X0130277Y0150592D01*
X0130277Y0151818D01*
X0130681Y0152222D01*
X0131211Y0153503D01*
X0131211Y0154889D01*
X0130681Y0156169D01*
X0129701Y0157150D01*
X0128420Y0157680D01*
X0127034Y0157680D01*
X0125754Y0157150D01*
X0125077Y0156473D01*
X0124201Y0157350D01*
X0122920Y0157880D01*
X0121534Y0157880D01*
X0120254Y0157350D01*
X0119273Y0156369D01*
X0118743Y0155089D01*
X0118743Y0153703D01*
X0119273Y0152422D01*
X0120254Y0151442D01*
X0120377Y0151391D01*
X0120377Y0150692D01*
X0118344Y0150692D01*
X0117465Y0149813D01*
X0117465Y0143846D01*
X0118344Y0142967D01*
X0124311Y0142967D01*
X0124827Y0143484D01*
X0125444Y0142867D01*
X0131411Y0142867D01*
X0132127Y0143584D01*
X0132744Y0142967D01*
X0138711Y0142967D01*
X0139077Y0143334D01*
X0139444Y0142967D01*
X0145277Y0142967D01*
X0145277Y0142424D01*
X0139444Y0142424D01*
X0139077Y0142058D01*
X0138711Y0142424D01*
X0132744Y0142424D01*
X0132027Y0141708D01*
X0131411Y0142324D01*
X0125444Y0142324D01*
X0124927Y0141808D01*
X0124311Y0142424D01*
X0118344Y0142424D01*
X0117465Y0141545D01*
X0117465Y0135578D01*
X0118344Y0134700D01*
X0119477Y0134700D01*
X0119477Y0130573D01*
X0119373Y0130469D01*
X0118843Y0129189D01*
X0118843Y0127803D01*
X0119373Y0126522D01*
X0119850Y0126046D01*
X0092797Y0126046D01*
X0091957Y0126746D01*
X0109716Y0126746D01*
X0109840Y0126653D01*
X0110464Y0126746D01*
X0111094Y0126746D01*
X0111203Y0126855D01*
X0111356Y0126878D01*
X0111732Y0127384D01*
X0112177Y0127829D01*
X0112177Y0127984D01*
X0114032Y0130484D01*
X0114477Y0130929D01*
X0114477Y0131084D01*
X0114570Y0131209D01*
X0114477Y0131832D01*
X0114477Y0134600D01*
X0115611Y0134600D01*
X0116489Y0135478D01*
X0116489Y0141445D01*
X0115611Y0142324D01*
X0109644Y0142324D01*
X0109427Y0142108D01*
X0109211Y0142324D01*
X0103244Y0142324D01*
X0102365Y0141445D01*
X0102365Y0135478D01*
X0103244Y0134600D01*
X0104377Y0134600D01*
X0104377Y0133562D01*
X0102961Y0132146D01*
X0099661Y0132146D01*
X0100255Y0132740D01*
X0100727Y0133879D01*
X0100727Y0134916D01*
X0101389Y0135578D01*
X0101389Y0141545D01*
X0100511Y0142424D01*
X0094544Y0142424D01*
X0094127Y0142008D01*
X0093611Y0142524D01*
X0087644Y0142524D01*
X0086765Y0141645D01*
X0086765Y0135678D01*
X0087644Y0134800D01*
X0088777Y0134800D01*
X0088777Y0134333D01*
X0088727Y0134212D01*
X0088727Y0132979D01*
X0089072Y0132146D01*
X0072861Y0132146D01*
X0071261Y0130546D01*
X0070817Y0130102D01*
X0070755Y0130252D01*
X0069883Y0131124D01*
X0068744Y0131596D01*
X0067511Y0131596D01*
X0066371Y0131124D01*
X0065499Y0130252D01*
X0065027Y0129112D01*
X0065027Y0127879D01*
X0065414Y0126946D01*
X0060411Y0126946D01*
X0060411Y0127189D01*
X0059881Y0128469D01*
X0058901Y0129450D01*
X0057620Y0129980D01*
X0056234Y0129980D01*
X0054954Y0129450D01*
X0053973Y0128469D01*
X0053443Y0127189D01*
X0053443Y0125803D01*
X0053973Y0124522D01*
X0054093Y0124402D01*
X0053209Y0124402D01*
X0052330Y0123523D01*
X0052330Y0118344D01*
X0053209Y0117465D01*
X0058319Y0117465D01*
X0058319Y0112215D01*
X0057573Y0111469D01*
X0057043Y0110189D01*
X0057043Y0108803D01*
X0057573Y0107522D01*
X0058554Y0106542D01*
X0059834Y0106012D01*
X0061220Y0106012D01*
X0062501Y0106542D01*
X0063481Y0107522D01*
X0064011Y0108803D01*
X0064011Y0109712D01*
X0064920Y0109712D01*
X0066201Y0110242D01*
X0067181Y0111222D01*
X0067679Y0112424D01*
X0068434Y0112112D01*
X0069820Y0112112D01*
X0071101Y0112642D01*
X0072081Y0113622D01*
X0072434Y0114473D01*
X0075861Y0111046D01*
X0085794Y0111046D01*
X0088197Y0113449D01*
X0088197Y0100715D01*
X0088019Y0100408D01*
X0087897Y0099950D01*
X0087897Y0099280D01*
X0087897Y0098610D01*
X0088019Y0098152D01*
X0088197Y0097845D01*
X0088197Y0095747D01*
X0087159Y0096177D01*
X0085695Y0096177D01*
X0084342Y0095616D01*
X0083307Y0094581D01*
X0082746Y0093228D01*
X0082746Y0091764D01*
X0083307Y0090411D01*
X0084342Y0089375D01*
X0085695Y0088815D01*
X0087159Y0088815D01*
X0088197Y0089244D01*
X0088197Y0082478D01*
X0089075Y0081599D01*
X0089815Y0081599D01*
X0089815Y0081292D01*
X0090899Y0080208D01*
X0094899Y0076208D01*
X0091537Y0076208D01*
X0090659Y0075329D01*
X0090659Y0075146D01*
X0089077Y0075146D01*
X0089077Y0079262D01*
X0087577Y0080762D01*
X0086494Y0081846D01*
X0076261Y0081846D01*
X0075161Y0080746D01*
X0074077Y0079662D01*
X0074077Y0079126D01*
X0071447Y0079126D01*
X0071139Y0079304D01*
X0071019Y0079336D01*
X0071327Y0080079D01*
X0071327Y0081312D01*
X0070855Y0082452D01*
X0069983Y0083324D01*
X0068844Y0083796D01*
X0068784Y0083796D01*
X0068911Y0084103D01*
X0068911Y0085489D01*
X0068381Y0086769D01*
X0067401Y0087750D01*
X0066120Y0088280D01*
X0064734Y0088280D01*
X0063454Y0087750D01*
X0062473Y0086769D01*
X0061961Y0085532D01*
X0061120Y0085880D01*
X0059734Y0085880D01*
X0058454Y0085350D01*
X0057473Y0084369D01*
X0056943Y0083089D01*
X0056943Y0081703D01*
X0057473Y0080422D01*
X0058454Y0079442D01*
X0058935Y0079243D01*
X0058734Y0079126D01*
X0053209Y0079126D01*
X0052330Y0078248D01*
X0052330Y0073068D01*
X0053209Y0072189D01*
X0056377Y0072189D01*
X0056377Y0071029D01*
X0057375Y0070032D01*
X0054902Y0070032D01*
X0054902Y0065267D01*
X0053352Y0065267D01*
X0053352Y0070032D01*
X0050741Y0070032D01*
X0050283Y0069909D01*
X0049872Y0069672D01*
X0049537Y0069337D01*
X0049303Y0068932D01*
X0048511Y0069724D01*
X0042544Y0069724D01*
X0041665Y0068845D01*
X0041665Y0062878D01*
X0042059Y0062485D01*
X0042059Y0057306D01*
X0042619Y0056746D01*
X0042059Y0056186D01*
X0042059Y0050613D01*
X0042937Y0049734D01*
X0048117Y0049734D01*
X0048996Y0050613D01*
X0048996Y0050699D01*
X0049443Y0050699D01*
X0049443Y0048619D01*
X0048971Y0048424D01*
X0047398Y0046851D01*
X0046120Y0047380D01*
X0044734Y0047380D01*
X0043454Y0046850D01*
X0042473Y0045869D01*
X0041943Y0044589D01*
X0041943Y0043203D01*
X0042473Y0041922D01*
X0043454Y0040942D01*
X0044381Y0040558D01*
X0044571Y0040368D01*
X0045711Y0039896D01*
X0048544Y0039896D01*
X0049683Y0040368D01*
X0050211Y0040896D01*
X0085597Y0040896D01*
X0086827Y0042126D01*
X0089674Y0044972D01*
X0089674Y0051027D01*
X0089865Y0051027D01*
X0089865Y0049463D01*
X0089988Y0049005D01*
X0090225Y0048594D01*
X0090560Y0048259D01*
X0090970Y0048022D01*
X0091428Y0047900D01*
X0093646Y0047900D01*
X0093646Y0051681D01*
X0094408Y0051681D01*
X0094408Y0047900D01*
X0094615Y0047900D01*
X0093677Y0046962D01*
X0093677Y0029629D01*
X0095011Y0028296D01*
X0031927Y0028296D01*
X0031927Y0029694D02*
X0093677Y0029694D01*
X0093677Y0031293D02*
X0031927Y0031293D01*
X0031927Y0032891D02*
X0093677Y0032891D01*
X0093677Y0034490D02*
X0031927Y0034490D01*
X0031927Y0036088D02*
X0093677Y0036088D01*
X0093677Y0037687D02*
X0031927Y0037687D01*
X0031927Y0039285D02*
X0093677Y0039285D01*
X0093677Y0040884D02*
X0050199Y0040884D01*
X0043594Y0040884D02*
X0031927Y0040884D01*
X0031927Y0042482D02*
X0042241Y0042482D01*
X0041943Y0044081D02*
X0031927Y0044081D01*
X0031927Y0045679D02*
X0042395Y0045679D01*
X0044488Y0047278D02*
X0031927Y0047278D01*
X0031927Y0048876D02*
X0049443Y0048876D01*
X0049443Y0050475D02*
X0048858Y0050475D01*
X0047825Y0047278D02*
X0046367Y0047278D01*
X0042196Y0050475D02*
X0031927Y0050475D01*
X0031927Y0052073D02*
X0042059Y0052073D01*
X0042059Y0053672D02*
X0031927Y0053672D01*
X0031927Y0055270D02*
X0042059Y0055270D01*
X0042495Y0056869D02*
X0031927Y0056869D01*
X0031927Y0058467D02*
X0042059Y0058467D01*
X0042059Y0060066D02*
X0031927Y0060066D01*
X0031927Y0061664D02*
X0042059Y0061664D01*
X0041665Y0063263D02*
X0031927Y0063263D01*
X0031927Y0064862D02*
X0041665Y0064862D01*
X0041665Y0066460D02*
X0031927Y0066460D01*
X0031927Y0068059D02*
X0041665Y0068059D01*
X0042477Y0069657D02*
X0031927Y0069657D01*
X0031927Y0071256D02*
X0041439Y0071256D01*
X0041488Y0071073D02*
X0041725Y0070662D01*
X0042060Y0070327D01*
X0042470Y0070090D01*
X0042928Y0069967D01*
X0045146Y0069967D01*
X0045146Y0073748D01*
X0045908Y0073748D01*
X0045908Y0069967D01*
X0048126Y0069967D01*
X0048584Y0070090D01*
X0048995Y0070327D01*
X0049330Y0070662D01*
X0049567Y0071073D01*
X0049689Y0071530D01*
X0049689Y0073748D01*
X0045908Y0073748D01*
X0045908Y0074511D01*
X0045146Y0074511D01*
X0045146Y0078292D01*
X0042928Y0078292D01*
X0042470Y0078169D01*
X0042060Y0077932D01*
X0041725Y0077597D01*
X0041488Y0077187D01*
X0041365Y0076729D01*
X0041365Y0074511D01*
X0045146Y0074511D01*
X0045146Y0073748D01*
X0041365Y0073748D01*
X0041365Y0071530D01*
X0041488Y0071073D01*
X0041365Y0072854D02*
X0031927Y0072854D01*
X0031927Y0074453D02*
X0045146Y0074453D01*
X0045908Y0074453D02*
X0052330Y0074453D01*
X0052330Y0076051D02*
X0049689Y0076051D01*
X0049689Y0076729D02*
X0049567Y0077187D01*
X0049330Y0077597D01*
X0048995Y0077932D01*
X0048584Y0078169D01*
X0048126Y0078292D01*
X0045908Y0078292D01*
X0045908Y0074511D01*
X0049689Y0074511D01*
X0049689Y0076729D01*
X0049277Y0077650D02*
X0052330Y0077650D01*
X0052544Y0072854D02*
X0049689Y0072854D01*
X0049616Y0071256D02*
X0056377Y0071256D01*
X0054902Y0069657D02*
X0053352Y0069657D01*
X0053352Y0068059D02*
X0054902Y0068059D01*
X0054902Y0066460D02*
X0053352Y0066460D01*
X0054902Y0065267D02*
X0059077Y0065267D01*
X0059077Y0068469D01*
X0058954Y0068927D01*
X0058717Y0069337D01*
X0058509Y0069546D01*
X0061143Y0069546D01*
X0061143Y0068403D01*
X0061673Y0067122D01*
X0062654Y0066142D01*
X0063934Y0065612D01*
X0065320Y0065612D01*
X0066601Y0066142D01*
X0067105Y0066646D01*
X0071194Y0066646D01*
X0072277Y0067729D01*
X0072746Y0068199D01*
X0073830Y0069282D01*
X0073830Y0072189D01*
X0079973Y0072189D01*
X0079973Y0069357D01*
X0079961Y0069346D01*
X0078877Y0068262D01*
X0078877Y0066464D01*
X0078094Y0066464D01*
X0077215Y0065586D01*
X0077215Y0065096D01*
X0077052Y0065096D01*
X0077029Y0065119D01*
X0071062Y0065119D01*
X0070184Y0064240D01*
X0070184Y0060880D01*
X0070006Y0060573D01*
X0069884Y0060115D01*
X0069884Y0058796D01*
X0074046Y0058796D01*
X0078208Y0058796D01*
X0078208Y0059527D01*
X0079642Y0059527D01*
X0079031Y0058916D01*
X0079031Y0057964D01*
X0078208Y0057964D01*
X0078208Y0058796D01*
X0074046Y0058796D01*
X0074046Y0058796D01*
X0074046Y0058796D01*
X0069884Y0058796D01*
X0069884Y0057476D01*
X0070006Y0057018D01*
X0070184Y0056711D01*
X0070184Y0053352D01*
X0071062Y0052473D01*
X0073659Y0052473D01*
X0073736Y0052396D01*
X0077215Y0052396D01*
X0077215Y0051906D01*
X0078094Y0051027D01*
X0083667Y0051027D01*
X0084227Y0051587D01*
X0084787Y0051027D01*
X0085474Y0051027D01*
X0085474Y0046712D01*
X0083857Y0045096D01*
X0073080Y0045096D01*
X0073216Y0045332D01*
X0073339Y0045790D01*
X0073339Y0047811D01*
X0069558Y0047811D01*
X0069558Y0048180D01*
X0073339Y0048180D01*
X0073339Y0050201D01*
X0073216Y0050659D01*
X0072979Y0051069D01*
X0072644Y0051405D01*
X0072234Y0051642D01*
X0071776Y0051764D01*
X0069558Y0051764D01*
X0069558Y0048180D01*
X0069189Y0048180D01*
X0069189Y0051764D01*
X0066971Y0051764D01*
X0066514Y0051642D01*
X0066103Y0051405D01*
X0065815Y0051117D01*
X0065467Y0051464D01*
X0064981Y0051464D01*
X0064981Y0052473D01*
X0066792Y0052473D01*
X0067671Y0053352D01*
X0067671Y0056760D01*
X0066792Y0057638D01*
X0064629Y0057638D01*
X0064346Y0057756D01*
X0062350Y0057756D01*
X0062067Y0057638D01*
X0060825Y0057638D01*
X0059947Y0056760D01*
X0059947Y0055933D01*
X0058809Y0054796D01*
X0058777Y0054796D01*
X0058777Y0055861D01*
X0057898Y0056740D01*
X0050356Y0056740D01*
X0049716Y0056099D01*
X0048996Y0056099D01*
X0048996Y0056186D01*
X0048436Y0056746D01*
X0048996Y0057306D01*
X0048996Y0062485D01*
X0049178Y0062667D01*
X0049178Y0060515D01*
X0049300Y0060057D01*
X0049537Y0059646D01*
X0049872Y0059311D01*
X0050283Y0059074D01*
X0050741Y0058952D01*
X0053352Y0058952D01*
X0053352Y0063717D01*
X0054902Y0063717D01*
X0054902Y0058952D01*
X0057514Y0058952D01*
X0057972Y0059074D01*
X0058382Y0059311D01*
X0058717Y0059646D01*
X0058954Y0060057D01*
X0059077Y0060515D01*
X0059077Y0063717D01*
X0054902Y0063717D01*
X0054902Y0065267D01*
X0054902Y0064862D02*
X0060568Y0064862D01*
X0060825Y0065119D02*
X0059947Y0064240D01*
X0059947Y0060832D01*
X0060825Y0059953D01*
X0066792Y0059953D01*
X0067671Y0060832D01*
X0067671Y0064240D01*
X0066792Y0065119D01*
X0060825Y0065119D01*
X0062335Y0066460D02*
X0059077Y0066460D01*
X0059077Y0068059D02*
X0061286Y0068059D01*
X0066919Y0066460D02*
X0078090Y0066460D01*
X0078877Y0068059D02*
X0072606Y0068059D01*
X0073830Y0069657D02*
X0079973Y0069657D01*
X0079973Y0071256D02*
X0073830Y0071256D01*
X0070130Y0071256D02*
X0067395Y0071256D01*
X0067581Y0071069D02*
X0066601Y0072050D01*
X0066263Y0072189D01*
X0068577Y0072189D01*
X0068884Y0072012D01*
X0069341Y0071889D01*
X0070011Y0071889D01*
X0070011Y0075658D01*
X0070012Y0075658D01*
X0070012Y0071889D01*
X0070130Y0071889D01*
X0070130Y0070815D01*
X0069661Y0070346D01*
X0067881Y0070346D01*
X0067581Y0071069D01*
X0070011Y0072854D02*
X0070012Y0072854D01*
X0070011Y0074453D02*
X0070012Y0074453D01*
X0071236Y0079248D02*
X0074077Y0079248D01*
X0075262Y0080847D02*
X0071327Y0080847D01*
X0070858Y0082445D02*
X0088229Y0082445D01*
X0088197Y0084044D02*
X0068887Y0084044D01*
X0068848Y0085642D02*
X0088197Y0085642D01*
X0088197Y0087241D02*
X0067910Y0087241D01*
X0062945Y0087241D02*
X0049858Y0087241D01*
X0049858Y0088839D02*
X0085636Y0088839D01*
X0087219Y0088839D02*
X0088197Y0088839D01*
X0083295Y0090438D02*
X0049858Y0090438D01*
X0049858Y0092036D02*
X0052397Y0092036D01*
X0052423Y0091972D02*
X0053404Y0090992D01*
X0054684Y0090462D01*
X0056070Y0090462D01*
X0057351Y0090992D01*
X0058331Y0091972D01*
X0058861Y0093253D01*
X0058861Y0094639D01*
X0058331Y0095919D01*
X0057351Y0096900D01*
X0056070Y0097430D01*
X0054684Y0097430D01*
X0054112Y0097193D01*
X0050158Y0097193D01*
X0050158Y0097311D01*
X0046390Y0097311D01*
X0046390Y0097312D01*
X0050158Y0097312D01*
X0050158Y0097982D01*
X0050064Y0098330D01*
X0050834Y0098012D01*
X0052220Y0098012D01*
X0053501Y0098542D01*
X0054481Y0099522D01*
X0055011Y0100803D01*
X0055011Y0102189D01*
X0054481Y0103469D01*
X0053501Y0104450D01*
X0052220Y0104980D01*
X0050834Y0104980D01*
X0049858Y0104576D01*
X0049858Y0114114D01*
X0048979Y0114993D01*
X0044347Y0114993D01*
X0043494Y0115846D01*
X0041277Y0118062D01*
X0041277Y0133429D01*
X0041794Y0133946D01*
X0046139Y0133946D01*
X0045743Y0132989D01*
X0045743Y0131603D01*
X0046273Y0130322D01*
X0047254Y0129342D01*
X0048534Y0128812D01*
X0049920Y0128812D01*
X0051201Y0129342D01*
X0052181Y0130322D01*
X0052711Y0131603D01*
X0052711Y0132746D01*
X0062694Y0132746D01*
X0063894Y0133946D01*
X0075194Y0133946D01*
X0078094Y0136846D01*
X0078644Y0137396D01*
X0078862Y0137396D01*
X0080590Y0138111D01*
X0081912Y0139433D01*
X0082627Y0141161D01*
X0082627Y0149431D01*
X0081912Y0151158D01*
X0080590Y0152480D01*
X0080427Y0152547D01*
X0080427Y0158233D01*
X0080312Y0158510D01*
X0080312Y0162505D01*
X0079434Y0163384D01*
X0065593Y0163384D01*
X0064830Y0162622D01*
X0053424Y0162622D01*
X0052662Y0163384D01*
X0038821Y0163384D01*
X0037942Y0162505D01*
X0037942Y0156538D01*
X0038821Y0155660D01*
X0052662Y0155660D01*
X0053424Y0156422D01*
X0064830Y0156422D01*
X0065593Y0155660D01*
X0075027Y0155660D01*
X0075027Y0152243D01*
X0073943Y0151158D01*
X0073227Y0149431D01*
X0073227Y0141161D01*
X0073943Y0139433D01*
X0074696Y0138680D01*
X0073661Y0137646D01*
X0062361Y0137646D01*
X0061277Y0136562D01*
X0061161Y0136446D01*
X0050961Y0136446D01*
X0050185Y0135670D01*
X0049920Y0135780D01*
X0048828Y0135780D01*
X0049128Y0136080D01*
X0049669Y0136609D01*
X0049669Y0136621D01*
X0049677Y0136629D01*
X0049677Y0137385D01*
X0049692Y0138740D01*
X0050590Y0139111D01*
X0051912Y0140433D01*
X0052627Y0142161D01*
X0052627Y0150431D01*
X0051912Y0152158D01*
X0050590Y0153480D01*
X0048862Y0154196D01*
X0046992Y0154196D01*
X0045265Y0153480D01*
X0043943Y0152158D01*
X0043227Y0150431D01*
X0043227Y0142161D01*
X0043943Y0140433D01*
X0045265Y0139111D01*
X0045993Y0138810D01*
X0045986Y0138171D01*
X0045461Y0137646D01*
X0040261Y0137646D01*
X0039749Y0137134D01*
X0039751Y0137764D01*
X0040590Y0138111D01*
X0041912Y0139433D01*
X0042627Y0141161D01*
X0042627Y0149431D01*
X0041912Y0151158D01*
X0040590Y0152480D01*
X0038862Y0153196D01*
X0036992Y0153196D01*
X0035265Y0152480D01*
X0033943Y0151158D01*
X0033227Y0149431D01*
X0033227Y0141161D01*
X0033943Y0139433D01*
X0035265Y0138111D01*
X0036051Y0137786D01*
X0035980Y0117365D01*
X0035977Y0117362D01*
X0035977Y0116599D01*
X0035975Y0115836D01*
X0035977Y0115833D01*
X0035977Y0115829D01*
X0036516Y0115290D01*
X0037055Y0114748D01*
X0037058Y0114748D01*
X0039077Y0112729D01*
X0039077Y0084129D01*
X0041561Y0081646D01*
X0043753Y0081646D01*
X0043800Y0081599D01*
X0048979Y0081599D01*
X0049858Y0082478D01*
X0049858Y0093493D01*
X0051893Y0093493D01*
X0051893Y0093253D01*
X0052423Y0091972D01*
X0058358Y0092036D02*
X0082746Y0092036D01*
X0082915Y0093635D02*
X0058861Y0093635D01*
X0058615Y0095233D02*
X0083959Y0095233D01*
X0088197Y0096832D02*
X0057419Y0096832D01*
X0054691Y0100029D02*
X0087918Y0100029D01*
X0087897Y0099280D02*
X0091665Y0099280D01*
X0087897Y0099280D01*
X0087945Y0098430D02*
X0053231Y0098430D01*
X0055011Y0101627D02*
X0088197Y0101627D01*
X0088197Y0103226D02*
X0054582Y0103226D01*
X0052596Y0104824D02*
X0088197Y0104824D01*
X0088197Y0106423D02*
X0062213Y0106423D01*
X0063688Y0108021D02*
X0088197Y0108021D01*
X0088197Y0109620D02*
X0064011Y0109620D01*
X0067177Y0111218D02*
X0075688Y0111218D01*
X0074090Y0112817D02*
X0071276Y0112817D01*
X0072410Y0114415D02*
X0072491Y0114415D01*
X0085966Y0111218D02*
X0088197Y0111218D01*
X0088197Y0112817D02*
X0087565Y0112817D01*
X0089740Y0114993D02*
X0090292Y0115545D01*
X0100404Y0115531D01*
X0100404Y0114414D01*
X0098027Y0114414D01*
X0095428Y0114414D01*
X0094970Y0114291D01*
X0094961Y0114286D01*
X0094255Y0114993D01*
X0089740Y0114993D01*
X0094832Y0114415D02*
X0100404Y0114415D01*
X0098027Y0114414D02*
X0098027Y0111039D01*
X0098027Y0111039D01*
X0098027Y0107664D01*
X0095428Y0107664D01*
X0095134Y0107743D01*
X0095134Y0107027D01*
X0100476Y0107027D01*
X0101282Y0107834D01*
X0110005Y0107834D01*
X0110884Y0106955D01*
X0110884Y0101382D01*
X0110005Y0100503D01*
X0107177Y0100503D01*
X0107177Y0098229D01*
X0106141Y0097193D01*
X0111608Y0097193D01*
X0112377Y0097962D01*
X0112377Y0113062D01*
X0113277Y0113962D01*
X0114361Y0115046D01*
X0114971Y0115046D01*
X0114971Y0115510D01*
X0110884Y0115516D01*
X0110884Y0110437D01*
X0110005Y0109558D01*
X0102189Y0109558D01*
X0102189Y0109227D01*
X0102067Y0108769D01*
X0101830Y0108359D01*
X0101495Y0108024D01*
X0101084Y0107787D01*
X0100626Y0107664D01*
X0098027Y0107664D01*
X0098027Y0111039D01*
X0098027Y0114414D01*
X0098027Y0112817D02*
X0098027Y0112817D01*
X0098027Y0111218D02*
X0098027Y0111218D01*
X0098027Y0111039D02*
X0098027Y0111039D01*
X0098027Y0109620D02*
X0098027Y0109620D01*
X0098027Y0108021D02*
X0098027Y0108021D01*
X0101490Y0108021D02*
X0112377Y0108021D01*
X0112377Y0106423D02*
X0110884Y0106423D01*
X0110884Y0104824D02*
X0112377Y0104824D01*
X0112377Y0103226D02*
X0110884Y0103226D01*
X0110884Y0101627D02*
X0112377Y0101627D01*
X0112377Y0100029D02*
X0107177Y0100029D01*
X0107177Y0098430D02*
X0112377Y0098430D01*
X0116077Y0098430D02*
X0124645Y0098430D01*
X0124161Y0097946D02*
X0123077Y0096862D01*
X0123077Y0092211D01*
X0122041Y0092211D01*
X0121162Y0091332D01*
X0121162Y0087507D01*
X0120020Y0087980D01*
X0118634Y0087980D01*
X0117354Y0087450D01*
X0116373Y0086469D01*
X0115843Y0085189D01*
X0115843Y0083803D01*
X0116373Y0082522D01*
X0117354Y0081542D01*
X0118634Y0081012D01*
X0120020Y0081012D01*
X0120313Y0081133D01*
X0120354Y0080937D01*
X0120763Y0080672D01*
X0121075Y0080299D01*
X0121162Y0080291D01*
X0121162Y0080291D01*
X0121162Y0079459D01*
X0122041Y0078581D01*
X0122977Y0078581D01*
X0122977Y0076229D01*
X0125577Y0073629D01*
X0126661Y0072546D01*
X0130598Y0072546D01*
X0130598Y0068083D01*
X0131477Y0067204D01*
X0131818Y0067204D01*
X0131961Y0067062D01*
X0131985Y0067062D01*
X0132002Y0067045D01*
X0132748Y0067062D01*
X0133494Y0067062D01*
X0133510Y0067078D01*
X0133534Y0067079D01*
X0133654Y0067204D01*
X0133901Y0067204D01*
X0133968Y0067272D01*
X0134036Y0067204D01*
X0134291Y0067204D01*
X0134440Y0067052D01*
X0134452Y0067052D01*
X0134461Y0067043D01*
X0135216Y0067043D01*
X0135972Y0067035D01*
X0135981Y0067043D01*
X0135994Y0067043D01*
X0136155Y0067204D01*
X0136460Y0067204D01*
X0136527Y0067272D01*
X0136595Y0067204D01*
X0139019Y0067204D01*
X0139086Y0067272D01*
X0139154Y0067204D01*
X0141578Y0067204D01*
X0142456Y0068083D01*
X0142456Y0068245D01*
X0142518Y0068409D01*
X0142777Y0068668D01*
X0142777Y0069098D01*
X0142929Y0069500D01*
X0142777Y0069834D01*
X0142777Y0078581D01*
X0143714Y0078581D01*
X0144593Y0079459D01*
X0144593Y0084639D01*
X0143836Y0085396D01*
X0144593Y0086152D01*
X0144593Y0091332D01*
X0143714Y0092211D01*
X0141877Y0092211D01*
X0141877Y0094791D01*
X0142001Y0094842D01*
X0142981Y0095822D01*
X0143511Y0097103D01*
X0143511Y0098489D01*
X0142981Y0099769D01*
X0142001Y0100750D01*
X0141777Y0100842D01*
X0141777Y0101629D01*
X0143094Y0102946D01*
X0145476Y0102946D01*
X0144962Y0102432D01*
X0144962Y0097252D01*
X0145719Y0096496D01*
X0144962Y0095739D01*
X0144962Y0090559D01*
X0145841Y0089681D01*
X0146277Y0089681D01*
X0146277Y0087873D01*
X0145973Y0087569D01*
X0145443Y0086289D01*
X0145443Y0084903D01*
X0145973Y0083622D01*
X0146954Y0082642D01*
X0147077Y0082591D01*
X0147077Y0077029D01*
X0150577Y0073529D01*
X0150577Y0071642D01*
X0150298Y0071363D01*
X0150298Y0066183D01*
X0151177Y0065304D01*
X0152608Y0065304D01*
X0151773Y0064469D01*
X0151243Y0063189D01*
X0151243Y0061803D01*
X0151773Y0060522D01*
X0152754Y0059542D01*
X0154034Y0059012D01*
X0155420Y0059012D01*
X0156701Y0059542D01*
X0157555Y0060396D01*
X0157597Y0060396D01*
X0157847Y0060646D01*
X0158177Y0060646D01*
X0158177Y0056986D01*
X0156295Y0056986D01*
X0156227Y0056918D01*
X0156160Y0056986D01*
X0153981Y0056986D01*
X0153674Y0057163D01*
X0153216Y0057286D01*
X0152389Y0057286D01*
X0152389Y0053517D01*
X0152389Y0049749D01*
X0152948Y0049749D01*
X0152948Y0045125D01*
X0152488Y0044665D01*
X0152174Y0043910D01*
X0151861Y0044665D01*
X0150659Y0045868D01*
X0150427Y0045964D01*
X0150427Y0048324D01*
X0149256Y0049496D01*
X0147067Y0051684D01*
X0148417Y0051684D01*
X0149296Y0052563D01*
X0149296Y0058136D01*
X0148948Y0058484D01*
X0149236Y0058772D01*
X0149473Y0059182D01*
X0149596Y0059640D01*
X0149596Y0061858D01*
X0146012Y0061858D01*
X0146012Y0062226D01*
X0149596Y0062226D01*
X0149596Y0064445D01*
X0149473Y0064902D01*
X0149236Y0065313D01*
X0148901Y0065648D01*
X0148491Y0065885D01*
X0148033Y0066008D01*
X0146012Y0066008D01*
X0146012Y0062227D01*
X0145643Y0062227D01*
X0145643Y0066008D01*
X0143622Y0066008D01*
X0143164Y0065885D01*
X0142754Y0065648D01*
X0142418Y0065313D01*
X0142181Y0064902D01*
X0142059Y0064445D01*
X0142059Y0063381D01*
X0141677Y0063762D01*
X0140594Y0064846D01*
X0138232Y0064846D01*
X0138181Y0064969D01*
X0137201Y0065950D01*
X0135920Y0066480D01*
X0134534Y0066480D01*
X0133254Y0065950D01*
X0132273Y0064969D01*
X0131743Y0063689D01*
X0131743Y0062303D01*
X0132273Y0061022D01*
X0133254Y0060042D01*
X0134534Y0059512D01*
X0135920Y0059512D01*
X0137201Y0060042D01*
X0138181Y0061022D01*
X0138232Y0061146D01*
X0138677Y0061146D01*
X0138677Y0058886D01*
X0136595Y0058886D01*
X0136527Y0058818D01*
X0136460Y0058886D01*
X0134281Y0058886D01*
X0133974Y0059063D01*
X0133516Y0059186D01*
X0132689Y0059186D01*
X0132689Y0055417D01*
X0132689Y0051649D01*
X0133248Y0051649D01*
X0133248Y0050792D01*
X0133194Y0050846D01*
X0132391Y0051649D01*
X0132689Y0051648D01*
X0132689Y0055417D01*
X0132689Y0055417D01*
X0132689Y0055417D01*
X0132689Y0059186D01*
X0131861Y0059186D01*
X0131403Y0059063D01*
X0130993Y0058826D01*
X0130977Y0058810D01*
X0130977Y0062262D01*
X0129894Y0063346D01*
X0128894Y0064346D01*
X0125794Y0064346D01*
X0125477Y0064662D01*
X0125477Y0071362D01*
X0124394Y0072446D01*
X0115394Y0081446D01*
X0111594Y0081446D01*
X0108894Y0084146D01*
X0103977Y0084146D01*
X0103977Y0087262D01*
X0102894Y0088346D01*
X0099067Y0092172D01*
X0097983Y0093256D01*
X0095134Y0093256D01*
X0095134Y0093493D01*
X0113141Y0093493D01*
X0114224Y0094577D01*
X0114994Y0095346D01*
X0116077Y0096429D01*
X0116077Y0100503D01*
X0124572Y0100503D01*
X0125451Y0101382D01*
X0125451Y0102078D01*
X0128027Y0102078D01*
X0128027Y0105452D01*
X0128027Y0105452D01*
X0128027Y0102078D01*
X0128293Y0102078D01*
X0124161Y0097946D01*
X0123077Y0096832D02*
X0116077Y0096832D01*
X0114881Y0095233D02*
X0123077Y0095233D01*
X0123077Y0093635D02*
X0113283Y0093635D01*
X0114224Y0094577D02*
X0114224Y0094577D01*
X0121866Y0092036D02*
X0099203Y0092036D01*
X0100802Y0090438D02*
X0121162Y0090438D01*
X0121162Y0088839D02*
X0102400Y0088839D01*
X0103977Y0087241D02*
X0117145Y0087241D01*
X0116031Y0085642D02*
X0103977Y0085642D01*
X0108996Y0084044D02*
X0115843Y0084044D01*
X0116450Y0082445D02*
X0110594Y0082445D01*
X0115993Y0080847D02*
X0120494Y0080847D01*
X0121373Y0079248D02*
X0117591Y0079248D01*
X0119190Y0077650D02*
X0122977Y0077650D01*
X0123156Y0076051D02*
X0120788Y0076051D01*
X0122387Y0074453D02*
X0124754Y0074453D01*
X0123985Y0072854D02*
X0126353Y0072854D01*
X0125477Y0071256D02*
X0130598Y0071256D01*
X0130598Y0069657D02*
X0125477Y0069657D01*
X0125477Y0068059D02*
X0130623Y0068059D01*
X0134486Y0066460D02*
X0125477Y0066460D01*
X0125477Y0064862D02*
X0132229Y0064862D01*
X0131743Y0063263D02*
X0129976Y0063263D01*
X0130977Y0061664D02*
X0132007Y0061664D01*
X0130977Y0060066D02*
X0133230Y0060066D01*
X0132689Y0058467D02*
X0132689Y0058467D01*
X0132689Y0056869D02*
X0132689Y0056869D01*
X0132689Y0055270D02*
X0132689Y0055270D01*
X0132689Y0053672D02*
X0132689Y0053672D01*
X0132689Y0052073D02*
X0132689Y0052073D01*
X0125077Y0052073D02*
X0118477Y0052073D01*
X0118477Y0050475D02*
X0125077Y0050475D01*
X0125077Y0048876D02*
X0118477Y0048876D01*
X0118477Y0047278D02*
X0125077Y0047278D01*
X0125077Y0046519D02*
X0123765Y0046519D01*
X0122194Y0045868D01*
X0120991Y0044665D01*
X0120678Y0043910D01*
X0120365Y0044665D01*
X0119163Y0045868D01*
X0118477Y0046152D01*
X0118477Y0057584D01*
X0122517Y0057584D01*
X0122979Y0058046D01*
X0125077Y0058046D01*
X0125077Y0046519D01*
X0122006Y0045679D02*
X0119351Y0045679D01*
X0120607Y0044081D02*
X0120749Y0044081D01*
X0112795Y0048481D02*
X0112795Y0049243D01*
X0110108Y0049243D01*
X0109346Y0049243D01*
X0109346Y0048481D01*
X0105565Y0048481D01*
X0105565Y0046263D01*
X0105688Y0045805D01*
X0105925Y0045394D01*
X0105949Y0045370D01*
X0105268Y0044690D01*
X0105268Y0045640D01*
X0104571Y0046337D01*
X0105396Y0047163D01*
X0105396Y0052736D01*
X0104836Y0053296D01*
X0105396Y0053856D01*
X0105396Y0059429D01*
X0105254Y0059571D01*
X0105396Y0059713D01*
X0105396Y0060646D01*
X0105594Y0060646D01*
X0106259Y0061311D01*
X0106259Y0060563D01*
X0106287Y0060535D01*
X0105865Y0060113D01*
X0105865Y0054146D01*
X0106744Y0053267D01*
X0112711Y0053267D01*
X0112795Y0053351D01*
X0112795Y0052895D01*
X0112784Y0052901D01*
X0112326Y0053024D01*
X0110108Y0053024D01*
X0110108Y0049243D01*
X0110108Y0048481D01*
X0110108Y0046357D01*
X0109718Y0046519D01*
X0109346Y0046519D01*
X0109346Y0048481D01*
X0110108Y0048481D01*
X0112795Y0048481D01*
X0112795Y0048876D02*
X0110108Y0048876D01*
X0109346Y0048876D02*
X0105396Y0048876D01*
X0105565Y0049243D02*
X0109346Y0049243D01*
X0109346Y0053024D01*
X0107128Y0053024D01*
X0106670Y0052901D01*
X0106260Y0052664D01*
X0105925Y0052329D01*
X0105688Y0051919D01*
X0105565Y0051461D01*
X0105565Y0049243D01*
X0105565Y0050475D02*
X0105396Y0050475D01*
X0105396Y0052073D02*
X0105777Y0052073D01*
X0106339Y0053672D02*
X0105212Y0053672D01*
X0105396Y0055270D02*
X0105865Y0055270D01*
X0105865Y0056869D02*
X0105396Y0056869D01*
X0105396Y0058467D02*
X0105865Y0058467D01*
X0105865Y0060066D02*
X0105396Y0060066D01*
X0098601Y0059571D02*
X0098459Y0059429D01*
X0098459Y0053856D01*
X0099019Y0053296D01*
X0098459Y0052736D01*
X0098459Y0051744D01*
X0098189Y0051474D01*
X0098189Y0051681D01*
X0094408Y0051681D01*
X0094408Y0052443D01*
X0093646Y0052443D01*
X0093646Y0056224D01*
X0091428Y0056224D01*
X0091239Y0056173D01*
X0091239Y0056467D01*
X0097011Y0056467D01*
X0097889Y0057346D01*
X0097889Y0063313D01*
X0097596Y0063607D01*
X0097596Y0068636D01*
X0097036Y0069196D01*
X0097596Y0069756D01*
X0097596Y0073511D01*
X0098461Y0072646D01*
X0098701Y0072646D01*
X0098518Y0072463D01*
X0098281Y0072052D01*
X0098159Y0071595D01*
X0098159Y0069376D01*
X0101743Y0069376D01*
X0101743Y0069008D01*
X0098159Y0069008D01*
X0098159Y0066790D01*
X0098281Y0066332D01*
X0098518Y0065922D01*
X0098806Y0065634D01*
X0098459Y0065286D01*
X0098459Y0059713D01*
X0098601Y0059571D01*
X0098459Y0060066D02*
X0097889Y0060066D01*
X0097889Y0061664D02*
X0098459Y0061664D01*
X0098459Y0063263D02*
X0097889Y0063263D01*
X0097596Y0064862D02*
X0098459Y0064862D01*
X0098247Y0066460D02*
X0097596Y0066460D01*
X0097596Y0068059D02*
X0098159Y0068059D01*
X0098159Y0069657D02*
X0097497Y0069657D01*
X0097596Y0071256D02*
X0098159Y0071256D01*
X0098253Y0072854D02*
X0097596Y0072854D01*
X0093457Y0077650D02*
X0089077Y0077650D01*
X0089077Y0079248D02*
X0091859Y0079248D01*
X0090899Y0080208D02*
X0090899Y0080208D01*
X0090260Y0080847D02*
X0087493Y0080847D01*
X0089077Y0076051D02*
X0091381Y0076051D01*
X0086961Y0071446D02*
X0086077Y0072329D01*
X0086077Y0066464D01*
X0090360Y0066464D01*
X0090659Y0066166D01*
X0090659Y0068636D01*
X0091219Y0069196D01*
X0090659Y0069756D01*
X0090659Y0071446D01*
X0086961Y0071446D01*
X0086077Y0071256D02*
X0090659Y0071256D01*
X0090757Y0069657D02*
X0086077Y0069657D01*
X0086077Y0068059D02*
X0090659Y0068059D01*
X0090659Y0066460D02*
X0090365Y0066460D01*
X0097889Y0058467D02*
X0098459Y0058467D01*
X0098459Y0056869D02*
X0097412Y0056869D01*
X0097084Y0056101D02*
X0096626Y0056224D01*
X0094408Y0056224D01*
X0094408Y0052443D01*
X0098189Y0052443D01*
X0098189Y0054661D01*
X0098067Y0055119D01*
X0097830Y0055529D01*
X0097495Y0055864D01*
X0097084Y0056101D01*
X0097979Y0055270D02*
X0098459Y0055270D01*
X0098642Y0053672D02*
X0098189Y0053672D01*
X0098459Y0052073D02*
X0094408Y0052073D01*
X0094408Y0050475D02*
X0093646Y0050475D01*
X0093646Y0048876D02*
X0094408Y0048876D01*
X0093993Y0047278D02*
X0089674Y0047278D01*
X0089674Y0048876D02*
X0090062Y0048876D01*
X0089865Y0050475D02*
X0089674Y0050475D01*
X0085474Y0050475D02*
X0073266Y0050475D01*
X0073339Y0048876D02*
X0085474Y0048876D01*
X0085474Y0047278D02*
X0073339Y0047278D01*
X0073309Y0045679D02*
X0084441Y0045679D01*
X0087184Y0042482D02*
X0093677Y0042482D01*
X0093677Y0044081D02*
X0088782Y0044081D01*
X0089674Y0045679D02*
X0093677Y0045679D01*
X0093646Y0053672D02*
X0094408Y0053672D01*
X0094408Y0055270D02*
X0093646Y0055270D01*
X0105396Y0047278D02*
X0105565Y0047278D01*
X0105760Y0045679D02*
X0105229Y0045679D01*
X0109346Y0047278D02*
X0110108Y0047278D01*
X0110108Y0050475D02*
X0109346Y0050475D01*
X0109346Y0052073D02*
X0110108Y0052073D01*
X0118477Y0053672D02*
X0125077Y0053672D01*
X0125077Y0055270D02*
X0118477Y0055270D01*
X0118477Y0056869D02*
X0125077Y0056869D01*
X0137225Y0060066D02*
X0138677Y0060066D01*
X0141677Y0063762D02*
X0141677Y0063762D01*
X0142170Y0064862D02*
X0138226Y0064862D01*
X0135969Y0066460D02*
X0150298Y0066460D01*
X0150298Y0068059D02*
X0142432Y0068059D01*
X0142857Y0069657D02*
X0150298Y0069657D01*
X0150298Y0071256D02*
X0142777Y0071256D01*
X0142777Y0072854D02*
X0150577Y0072854D01*
X0149654Y0074453D02*
X0142777Y0074453D01*
X0142777Y0076051D02*
X0148056Y0076051D01*
X0147077Y0077650D02*
X0142777Y0077650D01*
X0144381Y0079248D02*
X0147077Y0079248D01*
X0147077Y0080847D02*
X0144593Y0080847D01*
X0144593Y0082445D02*
X0147077Y0082445D01*
X0145799Y0084044D02*
X0144593Y0084044D01*
X0144082Y0085642D02*
X0145443Y0085642D01*
X0145837Y0087241D02*
X0144593Y0087241D01*
X0144593Y0088839D02*
X0146277Y0088839D01*
X0145084Y0090438D02*
X0144593Y0090438D01*
X0144962Y0092036D02*
X0143888Y0092036D01*
X0144962Y0093635D02*
X0141877Y0093635D01*
X0142392Y0095233D02*
X0144962Y0095233D01*
X0145383Y0096832D02*
X0143399Y0096832D01*
X0143511Y0098430D02*
X0144962Y0098430D01*
X0144962Y0100029D02*
X0142722Y0100029D01*
X0141777Y0101627D02*
X0144962Y0101627D01*
X0138077Y0101229D02*
X0138077Y0100759D01*
X0138054Y0100750D01*
X0137073Y0099769D01*
X0136543Y0098489D01*
X0136543Y0097103D01*
X0137073Y0095822D01*
X0138054Y0094842D01*
X0138177Y0094791D01*
X0138177Y0092211D01*
X0138141Y0092211D01*
X0137262Y0091332D01*
X0137262Y0086152D01*
X0138019Y0085396D01*
X0137262Y0084639D01*
X0137262Y0079459D01*
X0138141Y0078581D01*
X0139077Y0078581D01*
X0139077Y0074083D01*
X0139019Y0074141D01*
X0137077Y0074141D01*
X0137077Y0076462D01*
X0135994Y0077546D01*
X0134958Y0078581D01*
X0135714Y0078581D01*
X0136593Y0079459D01*
X0136593Y0084639D01*
X0135836Y0085396D01*
X0136593Y0086152D01*
X0136593Y0091332D01*
X0135714Y0092211D01*
X0134277Y0092211D01*
X0134277Y0093691D01*
X0134401Y0093742D01*
X0135381Y0094722D01*
X0135911Y0096003D01*
X0135911Y0097389D01*
X0135381Y0098669D01*
X0134401Y0099650D01*
X0133120Y0100180D01*
X0131734Y0100180D01*
X0131553Y0100105D01*
X0132094Y0100646D01*
X0137494Y0100646D01*
X0138077Y0101229D01*
X0137333Y0100029D02*
X0133485Y0100029D01*
X0135480Y0098430D02*
X0136543Y0098430D01*
X0136655Y0096832D02*
X0135911Y0096832D01*
X0135593Y0095233D02*
X0137662Y0095233D01*
X0138177Y0093635D02*
X0134277Y0093635D01*
X0135888Y0092036D02*
X0137966Y0092036D01*
X0137262Y0090438D02*
X0136593Y0090438D01*
X0136593Y0088839D02*
X0137262Y0088839D01*
X0137262Y0087241D02*
X0136593Y0087241D01*
X0136082Y0085642D02*
X0137772Y0085642D01*
X0137262Y0084044D02*
X0136593Y0084044D01*
X0136593Y0082445D02*
X0137262Y0082445D01*
X0137262Y0080847D02*
X0136593Y0080847D01*
X0136381Y0079248D02*
X0137473Y0079248D01*
X0135890Y0077650D02*
X0139077Y0077650D01*
X0139077Y0076051D02*
X0137077Y0076051D01*
X0137077Y0074453D02*
X0139077Y0074453D01*
X0132061Y0076246D02*
X0128194Y0076246D01*
X0126677Y0077762D01*
X0126677Y0078581D01*
X0127614Y0078581D01*
X0128493Y0079459D01*
X0128493Y0084639D01*
X0127736Y0085396D01*
X0128493Y0086152D01*
X0128493Y0091332D01*
X0127614Y0092211D01*
X0126777Y0092211D01*
X0126777Y0095329D01*
X0129018Y0097570D01*
X0128943Y0097389D01*
X0128943Y0096003D01*
X0129473Y0094722D01*
X0130454Y0093742D01*
X0130577Y0093691D01*
X0130577Y0092211D01*
X0130141Y0092211D01*
X0129262Y0091332D01*
X0129262Y0086152D01*
X0130019Y0085396D01*
X0129262Y0084639D01*
X0129262Y0079459D01*
X0130141Y0078581D01*
X0131077Y0078581D01*
X0131077Y0077229D01*
X0132061Y0076246D01*
X0131077Y0077650D02*
X0126790Y0077650D01*
X0128281Y0079248D02*
X0129473Y0079248D01*
X0129262Y0080847D02*
X0128493Y0080847D01*
X0128493Y0082445D02*
X0129262Y0082445D01*
X0129262Y0084044D02*
X0128493Y0084044D01*
X0127982Y0085642D02*
X0129772Y0085642D01*
X0129262Y0087241D02*
X0128493Y0087241D01*
X0128493Y0088839D02*
X0129262Y0088839D01*
X0129262Y0090438D02*
X0128493Y0090438D01*
X0127788Y0092036D02*
X0129966Y0092036D01*
X0130577Y0093635D02*
X0126777Y0093635D01*
X0126777Y0095233D02*
X0129262Y0095233D01*
X0128943Y0096832D02*
X0128280Y0096832D01*
X0126244Y0100029D02*
X0116077Y0100029D01*
X0125451Y0101627D02*
X0127842Y0101627D01*
X0128027Y0103226D02*
X0128027Y0103226D01*
X0128027Y0104824D02*
X0128027Y0104824D01*
X0128027Y0105452D02*
X0128027Y0105452D01*
X0132189Y0105452D01*
X0132189Y0104346D01*
X0135961Y0104346D01*
X0140661Y0109046D01*
X0163761Y0109046D01*
X0166461Y0111746D01*
X0168322Y0111746D01*
X0168373Y0111869D01*
X0169354Y0112850D01*
X0170634Y0113380D01*
X0172020Y0113380D01*
X0173301Y0112850D01*
X0174281Y0111869D01*
X0174811Y0110589D01*
X0174811Y0109203D01*
X0174595Y0108680D01*
X0175877Y0109962D01*
X0175877Y0118846D01*
X0164894Y0118846D01*
X0162576Y0116528D01*
X0162576Y0116527D01*
X0162034Y0115986D01*
X0161494Y0115446D01*
X0161492Y0115446D01*
X0161491Y0115445D01*
X0161291Y0115445D01*
X0161291Y0115445D01*
X0160723Y0115446D01*
X0159961Y0115446D01*
X0159960Y0115447D01*
X0159759Y0115447D01*
X0159759Y0115447D01*
X0156267Y0115452D01*
X0131137Y0115488D01*
X0131889Y0114735D01*
X0131889Y0110343D01*
X0131011Y0109464D01*
X0125044Y0109464D01*
X0124761Y0109747D01*
X0124572Y0109558D01*
X0116077Y0109558D01*
X0116077Y0107834D01*
X0124052Y0107834D01*
X0124225Y0108132D01*
X0124560Y0108468D01*
X0124970Y0108705D01*
X0125428Y0108827D01*
X0128027Y0108827D01*
X0128027Y0105453D01*
X0128027Y0105453D01*
X0128027Y0108827D01*
X0130626Y0108827D01*
X0131084Y0108705D01*
X0131495Y0108468D01*
X0131830Y0108132D01*
X0132067Y0107722D01*
X0132189Y0107264D01*
X0132189Y0105452D01*
X0128027Y0105452D01*
X0128027Y0106423D02*
X0128027Y0106423D01*
X0128027Y0108021D02*
X0128027Y0108021D01*
X0124888Y0109620D02*
X0124634Y0109620D01*
X0124161Y0108021D02*
X0116077Y0108021D01*
X0112377Y0109620D02*
X0110067Y0109620D01*
X0110884Y0111218D02*
X0112377Y0111218D01*
X0112377Y0112817D02*
X0110884Y0112817D01*
X0110884Y0114415D02*
X0113731Y0114415D01*
X0111598Y0127203D02*
X0119091Y0127203D01*
X0118843Y0128802D02*
X0112784Y0128802D01*
X0113970Y0130400D02*
X0119345Y0130400D01*
X0119477Y0131999D02*
X0114477Y0131999D01*
X0114477Y0133598D02*
X0119477Y0133598D01*
X0117847Y0135196D02*
X0116207Y0135196D01*
X0116489Y0136795D02*
X0117465Y0136795D01*
X0117465Y0138393D02*
X0116489Y0138393D01*
X0116489Y0139992D02*
X0117465Y0139992D01*
X0117510Y0141590D02*
X0116345Y0141590D01*
X0115611Y0142867D02*
X0116489Y0143746D01*
X0116489Y0149713D01*
X0115611Y0150592D01*
X0114577Y0150592D01*
X0114577Y0151191D01*
X0114701Y0151242D01*
X0115681Y0152222D01*
X0116211Y0153503D01*
X0116211Y0154889D01*
X0115681Y0156169D01*
X0114701Y0157150D01*
X0113420Y0157680D01*
X0112034Y0157680D01*
X0110754Y0157150D01*
X0110027Y0156423D01*
X0109701Y0156750D01*
X0108420Y0157280D01*
X0107034Y0157280D01*
X0105754Y0156750D01*
X0104773Y0155769D01*
X0104243Y0154489D01*
X0104243Y0153103D01*
X0104773Y0151822D01*
X0105754Y0150842D01*
X0105877Y0150791D01*
X0105877Y0150592D01*
X0103244Y0150592D01*
X0102365Y0149713D01*
X0102365Y0143746D01*
X0103244Y0142867D01*
X0109211Y0142867D01*
X0109427Y0143084D01*
X0109644Y0142867D01*
X0115611Y0142867D01*
X0115932Y0143189D02*
X0118123Y0143189D01*
X0117465Y0144787D02*
X0116489Y0144787D01*
X0116489Y0146386D02*
X0117465Y0146386D01*
X0117465Y0147984D02*
X0116489Y0147984D01*
X0116489Y0149583D02*
X0117465Y0149583D01*
X0114577Y0151181D02*
X0120377Y0151181D01*
X0119125Y0152780D02*
X0115912Y0152780D01*
X0116211Y0154378D02*
X0118743Y0154378D01*
X0119111Y0155977D02*
X0115761Y0155977D01*
X0113673Y0157575D02*
X0120798Y0157575D01*
X0123656Y0157575D02*
X0126781Y0157575D01*
X0128673Y0157575D02*
X0134881Y0157575D01*
X0136773Y0157575D02*
X0140840Y0157575D01*
X0143215Y0157575D02*
X0169478Y0157575D01*
X0167880Y0155977D02*
X0145102Y0155977D01*
X0145511Y0154378D02*
X0155581Y0154378D01*
X0158399Y0157806D02*
X0161856Y0157806D01*
X0165050Y0159129D01*
X0167494Y0161573D01*
X0168817Y0164767D01*
X0168817Y0168224D01*
X0167494Y0171418D01*
X0165050Y0173863D01*
X0161856Y0175186D01*
X0158399Y0175186D01*
X0155205Y0173863D01*
X0152760Y0171418D01*
X0151437Y0168224D01*
X0151437Y0164767D01*
X0152760Y0161573D01*
X0155205Y0159129D01*
X0158399Y0157806D01*
X0155160Y0159174D02*
X0080312Y0159174D01*
X0080312Y0160772D02*
X0153562Y0160772D01*
X0152430Y0162371D02*
X0080312Y0162371D01*
X0080427Y0157575D02*
X0090257Y0157575D01*
X0089954Y0157450D02*
X0091234Y0157980D01*
X0092620Y0157980D01*
X0093901Y0157450D01*
X0094881Y0156469D01*
X0095025Y0156121D01*
X0095454Y0156550D01*
X0096734Y0157080D01*
X0098120Y0157080D01*
X0099401Y0156550D01*
X0100381Y0155569D01*
X0100911Y0154289D01*
X0100911Y0152903D01*
X0100381Y0151622D01*
X0099451Y0150692D01*
X0100511Y0150692D01*
X0101389Y0149813D01*
X0101389Y0143846D01*
X0100511Y0142967D01*
X0094544Y0142967D01*
X0094027Y0143484D01*
X0093611Y0143067D01*
X0087644Y0143067D01*
X0086765Y0143946D01*
X0086765Y0149913D01*
X0087644Y0150792D01*
X0090077Y0150792D01*
X0090077Y0151491D01*
X0089954Y0151542D01*
X0088973Y0152522D01*
X0088443Y0153803D01*
X0088443Y0155189D01*
X0088973Y0156469D01*
X0089954Y0157450D01*
X0088769Y0155977D02*
X0080427Y0155977D01*
X0080427Y0154378D02*
X0088443Y0154378D01*
X0088867Y0152780D02*
X0080427Y0152780D01*
X0081889Y0151181D02*
X0090077Y0151181D01*
X0086765Y0149583D02*
X0082564Y0149583D01*
X0082627Y0147984D02*
X0086765Y0147984D01*
X0086765Y0146386D02*
X0082627Y0146386D01*
X0082627Y0144787D02*
X0086765Y0144787D01*
X0087523Y0143189D02*
X0082627Y0143189D01*
X0082627Y0141590D02*
X0086765Y0141590D01*
X0086765Y0139992D02*
X0082143Y0139992D01*
X0080871Y0138393D02*
X0086765Y0138393D01*
X0086765Y0136795D02*
X0078042Y0136795D01*
X0076444Y0135196D02*
X0087247Y0135196D01*
X0088727Y0133598D02*
X0063545Y0133598D01*
X0061510Y0136795D02*
X0049677Y0136795D01*
X0049689Y0138393D02*
X0054559Y0138393D01*
X0054670Y0138282D02*
X0055307Y0137819D01*
X0056008Y0137462D01*
X0056756Y0137219D01*
X0057534Y0137096D01*
X0057727Y0137096D01*
X0057727Y0145096D01*
X0052927Y0145096D01*
X0052927Y0141702D01*
X0053050Y0140925D01*
X0053294Y0140176D01*
X0053651Y0139475D01*
X0054113Y0138838D01*
X0054670Y0138282D01*
X0053388Y0139992D02*
X0051470Y0139992D01*
X0052391Y0141590D02*
X0052945Y0141590D01*
X0052927Y0143189D02*
X0052627Y0143189D01*
X0052627Y0144787D02*
X0052927Y0144787D01*
X0052927Y0145496D02*
X0057727Y0145496D01*
X0057727Y0153496D01*
X0057534Y0153496D01*
X0056756Y0153373D01*
X0056008Y0153129D01*
X0055307Y0152772D01*
X0054670Y0152310D01*
X0054113Y0151753D01*
X0053651Y0151116D01*
X0053294Y0150415D01*
X0053050Y0149667D01*
X0052927Y0148889D01*
X0052927Y0145496D01*
X0052927Y0146386D02*
X0052627Y0146386D01*
X0052627Y0147984D02*
X0052927Y0147984D01*
X0053037Y0149583D02*
X0052627Y0149583D01*
X0052316Y0151181D02*
X0053698Y0151181D01*
X0055321Y0152780D02*
X0051290Y0152780D01*
X0052979Y0155977D02*
X0065275Y0155977D01*
X0066992Y0154196D02*
X0065265Y0153480D01*
X0063943Y0152158D01*
X0063227Y0150431D01*
X0063227Y0142161D01*
X0063943Y0140433D01*
X0065265Y0139111D01*
X0066992Y0138396D01*
X0068862Y0138396D01*
X0070590Y0139111D01*
X0071912Y0140433D01*
X0072627Y0142161D01*
X0072627Y0150431D01*
X0071912Y0152158D01*
X0070590Y0153480D01*
X0068862Y0154196D01*
X0066992Y0154196D01*
X0064564Y0152780D02*
X0060533Y0152780D01*
X0060548Y0152772D02*
X0059847Y0153129D01*
X0059098Y0153373D01*
X0058321Y0153496D01*
X0058127Y0153496D01*
X0058127Y0145496D01*
X0057727Y0145496D01*
X0057727Y0145096D01*
X0058127Y0145096D01*
X0058127Y0137096D01*
X0058321Y0137096D01*
X0059098Y0137219D01*
X0059847Y0137462D01*
X0060548Y0137819D01*
X0061185Y0138282D01*
X0061741Y0138838D01*
X0062204Y0139475D01*
X0062561Y0140176D01*
X0062804Y0140925D01*
X0062927Y0141702D01*
X0062927Y0145096D01*
X0058127Y0145096D01*
X0058127Y0145496D01*
X0062927Y0145496D01*
X0062927Y0148889D01*
X0062804Y0149667D01*
X0062561Y0150415D01*
X0062204Y0151116D01*
X0061741Y0151753D01*
X0061185Y0152310D01*
X0060548Y0152772D01*
X0062157Y0151181D02*
X0063538Y0151181D01*
X0063227Y0149583D02*
X0062817Y0149583D01*
X0062927Y0147984D02*
X0063227Y0147984D01*
X0063227Y0146386D02*
X0062927Y0146386D01*
X0062927Y0144787D02*
X0063227Y0144787D01*
X0063227Y0143189D02*
X0062927Y0143189D01*
X0062909Y0141590D02*
X0063464Y0141590D01*
X0064385Y0139992D02*
X0062467Y0139992D01*
X0061296Y0138393D02*
X0074408Y0138393D01*
X0073712Y0139992D02*
X0071470Y0139992D01*
X0072391Y0141590D02*
X0073227Y0141590D01*
X0073227Y0143189D02*
X0072627Y0143189D01*
X0072627Y0144787D02*
X0073227Y0144787D01*
X0073227Y0146386D02*
X0072627Y0146386D01*
X0072627Y0147984D02*
X0073227Y0147984D01*
X0073290Y0149583D02*
X0072627Y0149583D01*
X0072316Y0151181D02*
X0073966Y0151181D01*
X0075027Y0152780D02*
X0071290Y0152780D01*
X0075027Y0154378D02*
X0031927Y0154378D01*
X0031927Y0152780D02*
X0035988Y0152780D01*
X0033966Y0151181D02*
X0031927Y0151181D01*
X0031927Y0149583D02*
X0033290Y0149583D01*
X0033227Y0147984D02*
X0031927Y0147984D01*
X0031927Y0146386D02*
X0033227Y0146386D01*
X0033227Y0144787D02*
X0031927Y0144787D01*
X0031927Y0143189D02*
X0033227Y0143189D01*
X0033227Y0141590D02*
X0031927Y0141590D01*
X0031927Y0139992D02*
X0033712Y0139992D01*
X0034983Y0138393D02*
X0031927Y0138393D01*
X0031927Y0136795D02*
X0036048Y0136795D01*
X0036042Y0135196D02*
X0031927Y0135196D01*
X0031927Y0133598D02*
X0036036Y0133598D01*
X0036031Y0131999D02*
X0031927Y0131999D01*
X0031927Y0130400D02*
X0036025Y0130400D01*
X0036020Y0128802D02*
X0031927Y0128802D01*
X0031927Y0127203D02*
X0036014Y0127203D01*
X0036009Y0125605D02*
X0031927Y0125605D01*
X0031927Y0124006D02*
X0036003Y0124006D01*
X0035998Y0122408D02*
X0031927Y0122408D01*
X0031927Y0120809D02*
X0035992Y0120809D01*
X0035986Y0119211D02*
X0031927Y0119211D01*
X0031927Y0117612D02*
X0035981Y0117612D01*
X0035975Y0116014D02*
X0031927Y0116014D01*
X0031927Y0114415D02*
X0037391Y0114415D01*
X0038990Y0112817D02*
X0031927Y0112817D01*
X0031927Y0111218D02*
X0039077Y0111218D01*
X0039077Y0109620D02*
X0031927Y0109620D01*
X0031927Y0108021D02*
X0039077Y0108021D01*
X0039077Y0106423D02*
X0031927Y0106423D01*
X0031927Y0104824D02*
X0039077Y0104824D01*
X0039077Y0103226D02*
X0031927Y0103226D01*
X0031927Y0101627D02*
X0039077Y0101627D01*
X0039077Y0100029D02*
X0031927Y0100029D01*
X0031927Y0098430D02*
X0039077Y0098430D01*
X0039077Y0096832D02*
X0031927Y0096832D01*
X0031927Y0095233D02*
X0039077Y0095233D01*
X0039077Y0093635D02*
X0031927Y0093635D01*
X0031927Y0092036D02*
X0039077Y0092036D01*
X0039077Y0090438D02*
X0031927Y0090438D01*
X0031927Y0088839D02*
X0039077Y0088839D01*
X0039077Y0087241D02*
X0031927Y0087241D01*
X0031927Y0085642D02*
X0039077Y0085642D01*
X0039163Y0084044D02*
X0031927Y0084044D01*
X0031927Y0082445D02*
X0040762Y0082445D01*
X0041777Y0077650D02*
X0031927Y0077650D01*
X0031927Y0079248D02*
X0058922Y0079248D01*
X0060169Y0078912D02*
X0060169Y0078912D01*
X0060169Y0075658D01*
X0060169Y0075658D01*
X0060169Y0078912D01*
X0060169Y0077650D02*
X0060169Y0077650D01*
X0060169Y0076051D02*
X0060169Y0076051D01*
X0057298Y0080847D02*
X0031927Y0080847D01*
X0031927Y0076051D02*
X0041365Y0076051D01*
X0045146Y0076051D02*
X0045908Y0076051D01*
X0045908Y0077650D02*
X0045146Y0077650D01*
X0045146Y0072854D02*
X0045908Y0072854D01*
X0045908Y0071256D02*
X0045146Y0071256D01*
X0048578Y0069657D02*
X0049857Y0069657D01*
X0053352Y0063263D02*
X0054902Y0063263D01*
X0054902Y0061664D02*
X0053352Y0061664D01*
X0053352Y0060066D02*
X0054902Y0060066D01*
X0058957Y0060066D02*
X0060712Y0060066D01*
X0059947Y0061664D02*
X0059077Y0061664D01*
X0059077Y0063263D02*
X0059947Y0063263D01*
X0060056Y0056869D02*
X0048559Y0056869D01*
X0048996Y0058467D02*
X0069884Y0058467D01*
X0069884Y0060066D02*
X0066905Y0060066D01*
X0067671Y0061664D02*
X0070184Y0061664D01*
X0070184Y0063263D02*
X0067671Y0063263D01*
X0067049Y0064862D02*
X0070805Y0064862D01*
X0078208Y0058467D02*
X0079031Y0058467D01*
X0077215Y0052073D02*
X0064981Y0052073D01*
X0062681Y0053928D02*
X0063809Y0055056D01*
X0062681Y0053928D02*
X0062681Y0047996D01*
X0069189Y0048876D02*
X0069558Y0048876D01*
X0069558Y0050475D02*
X0069189Y0050475D01*
X0070184Y0053672D02*
X0067671Y0053672D01*
X0067671Y0055270D02*
X0070184Y0055270D01*
X0070092Y0056869D02*
X0067562Y0056869D01*
X0059284Y0055270D02*
X0058777Y0055270D01*
X0049298Y0060066D02*
X0048996Y0060066D01*
X0048996Y0061664D02*
X0049178Y0061664D01*
X0049826Y0082445D02*
X0056943Y0082445D01*
X0057339Y0084044D02*
X0049858Y0084044D01*
X0049858Y0085642D02*
X0059160Y0085642D01*
X0061694Y0085642D02*
X0062007Y0085642D01*
X0050458Y0104824D02*
X0049858Y0104824D01*
X0049858Y0106423D02*
X0058841Y0106423D01*
X0057367Y0108021D02*
X0049858Y0108021D01*
X0049858Y0109620D02*
X0057043Y0109620D01*
X0057469Y0111218D02*
X0049858Y0111218D01*
X0049858Y0112817D02*
X0058319Y0112817D01*
X0058319Y0114415D02*
X0049557Y0114415D01*
X0053062Y0117612D02*
X0041727Y0117612D01*
X0041277Y0119211D02*
X0052330Y0119211D01*
X0052330Y0120809D02*
X0041277Y0120809D01*
X0041277Y0122408D02*
X0052330Y0122408D01*
X0052813Y0124006D02*
X0041277Y0124006D01*
X0041277Y0125605D02*
X0053525Y0125605D01*
X0053449Y0127203D02*
X0041277Y0127203D01*
X0041277Y0128802D02*
X0054306Y0128802D01*
X0052214Y0130400D02*
X0065648Y0130400D01*
X0065027Y0128802D02*
X0059548Y0128802D01*
X0060405Y0127203D02*
X0065307Y0127203D01*
X0070607Y0130400D02*
X0071116Y0130400D01*
X0072714Y0131999D02*
X0052711Y0131999D01*
X0046241Y0130400D02*
X0041277Y0130400D01*
X0041277Y0131999D02*
X0045743Y0131999D01*
X0045995Y0133598D02*
X0041445Y0133598D01*
X0040871Y0138393D02*
X0045988Y0138393D01*
X0044385Y0139992D02*
X0042143Y0139992D01*
X0042627Y0141590D02*
X0043464Y0141590D01*
X0043227Y0143189D02*
X0042627Y0143189D01*
X0042627Y0144787D02*
X0043227Y0144787D01*
X0043227Y0146386D02*
X0042627Y0146386D01*
X0042627Y0147984D02*
X0043227Y0147984D01*
X0043227Y0149583D02*
X0042564Y0149583D01*
X0041889Y0151181D02*
X0043538Y0151181D01*
X0044564Y0152780D02*
X0039867Y0152780D01*
X0038504Y0155977D02*
X0031927Y0155977D01*
X0031927Y0157575D02*
X0037942Y0157575D01*
X0037942Y0159174D02*
X0031927Y0159174D01*
X0031927Y0160772D02*
X0037942Y0160772D01*
X0037942Y0162371D02*
X0031927Y0162371D01*
X0031927Y0163969D02*
X0151768Y0163969D01*
X0151437Y0165568D02*
X0031927Y0165568D01*
X0031927Y0167166D02*
X0151437Y0167166D01*
X0151661Y0168765D02*
X0031927Y0168765D01*
X0031927Y0170363D02*
X0152323Y0170363D01*
X0153304Y0171962D02*
X0080345Y0171962D01*
X0080253Y0171802D02*
X0080490Y0172213D01*
X0080612Y0172671D01*
X0080612Y0174889D01*
X0072894Y0174889D01*
X0072894Y0175651D01*
X0072132Y0175651D01*
X0072132Y0179432D01*
X0065977Y0179432D01*
X0065519Y0179309D01*
X0065109Y0179072D01*
X0064773Y0178737D01*
X0064537Y0178327D01*
X0064414Y0177869D01*
X0064414Y0175651D01*
X0072132Y0175651D01*
X0072132Y0174889D01*
X0064414Y0174889D01*
X0064414Y0172671D01*
X0064537Y0172213D01*
X0064773Y0171802D01*
X0065109Y0171467D01*
X0065519Y0171230D01*
X0065977Y0171108D01*
X0072132Y0171108D01*
X0072132Y0174889D01*
X0072894Y0174889D01*
X0072894Y0171108D01*
X0079049Y0171108D01*
X0079507Y0171230D01*
X0079918Y0171467D01*
X0080253Y0171802D01*
X0080612Y0173560D02*
X0154903Y0173560D01*
X0158334Y0175159D02*
X0072894Y0175159D01*
X0072894Y0175651D02*
X0080612Y0175651D01*
X0080612Y0177869D01*
X0080490Y0178327D01*
X0080253Y0178737D01*
X0079918Y0179072D01*
X0079507Y0179309D01*
X0079049Y0179432D01*
X0072894Y0179432D01*
X0072894Y0175651D01*
X0072132Y0175159D02*
X0046123Y0175159D01*
X0046123Y0174889D02*
X0046123Y0175651D01*
X0053841Y0175651D01*
X0053841Y0177869D01*
X0053718Y0178327D01*
X0053481Y0178737D01*
X0053146Y0179072D01*
X0052735Y0179309D01*
X0052278Y0179432D01*
X0046123Y0179432D01*
X0046123Y0175651D01*
X0045360Y0175651D01*
X0045360Y0174889D01*
X0037642Y0174889D01*
X0037642Y0172671D01*
X0037765Y0172213D01*
X0038002Y0171802D01*
X0038337Y0171467D01*
X0038747Y0171230D01*
X0039205Y0171108D01*
X0045360Y0171108D01*
X0045360Y0174889D01*
X0046123Y0174889D01*
X0053841Y0174889D01*
X0053841Y0172671D01*
X0053718Y0172213D01*
X0053481Y0171802D01*
X0053146Y0171467D01*
X0052735Y0171230D01*
X0052278Y0171108D01*
X0046123Y0171108D01*
X0046123Y0174889D01*
X0045360Y0175159D02*
X0031927Y0175159D01*
X0031927Y0176757D02*
X0037642Y0176757D01*
X0037642Y0175651D02*
X0045360Y0175651D01*
X0045360Y0179432D01*
X0039205Y0179432D01*
X0038747Y0179309D01*
X0038337Y0179072D01*
X0038002Y0178737D01*
X0037765Y0178327D01*
X0037642Y0177869D01*
X0037642Y0175651D01*
X0037642Y0173560D02*
X0031927Y0173560D01*
X0031927Y0171962D02*
X0037910Y0171962D01*
X0037782Y0178356D02*
X0031927Y0178356D01*
X0045360Y0178356D02*
X0046123Y0178356D01*
X0046123Y0176757D02*
X0045360Y0176757D01*
X0045360Y0173560D02*
X0046123Y0173560D01*
X0046123Y0171962D02*
X0045360Y0171962D01*
X0053573Y0171962D02*
X0064681Y0171962D01*
X0064414Y0173560D02*
X0053841Y0173560D01*
X0053841Y0176757D02*
X0064414Y0176757D01*
X0064553Y0178356D02*
X0053701Y0178356D01*
X0072132Y0178356D02*
X0072894Y0178356D01*
X0072894Y0176757D02*
X0072132Y0176757D01*
X0072132Y0173560D02*
X0072894Y0173560D01*
X0072894Y0171962D02*
X0072132Y0171962D01*
X0080612Y0176757D02*
X0232535Y0176757D01*
X0231571Y0175159D02*
X0161920Y0175159D01*
X0165352Y0173560D02*
X0231227Y0173560D01*
X0231351Y0171962D02*
X0166950Y0171962D01*
X0167931Y0170363D02*
X0232013Y0170363D01*
X0233778Y0168765D02*
X0168593Y0168765D01*
X0168817Y0167166D02*
X0217317Y0167166D01*
X0216515Y0165568D02*
X0168817Y0165568D01*
X0168486Y0163969D02*
X0216515Y0163969D01*
X0216515Y0162371D02*
X0167824Y0162371D01*
X0166693Y0160772D02*
X0216788Y0160772D01*
X0217792Y0159174D02*
X0208943Y0159174D01*
X0213023Y0157575D02*
X0216771Y0157575D01*
X0216771Y0156954D02*
X0221720Y0156954D01*
X0216771Y0156954D01*
X0216811Y0155977D02*
X0213023Y0155977D01*
X0212984Y0154378D02*
X0217071Y0154378D01*
X0217071Y0152780D02*
X0212984Y0152780D01*
X0213670Y0151181D02*
X0217071Y0151181D01*
X0216771Y0149583D02*
X0215269Y0149583D01*
X0215827Y0147984D02*
X0216885Y0147984D01*
X0218139Y0146386D02*
X0228028Y0146386D01*
X0230076Y0146386D02*
X0231927Y0146386D01*
X0232224Y0147984D02*
X0232371Y0147984D01*
X0232733Y0149583D02*
X0234628Y0149583D01*
X0234450Y0151181D02*
X0232525Y0151181D01*
X0231424Y0152780D02*
X0234527Y0152780D01*
X0234527Y0154378D02*
X0232504Y0154378D01*
X0232886Y0155977D02*
X0234527Y0155977D01*
X0234527Y0157575D02*
X0232519Y0157575D01*
X0230835Y0159174D02*
X0234527Y0159174D01*
X0234527Y0160772D02*
X0230505Y0160772D01*
X0227970Y0159174D02*
X0225648Y0159174D01*
X0221720Y0159174D02*
X0221720Y0159174D01*
X0221720Y0159345D02*
X0221720Y0156954D01*
X0221720Y0156954D01*
X0221720Y0156954D01*
X0221720Y0159345D01*
X0221720Y0157575D02*
X0221720Y0157575D01*
X0220665Y0160772D02*
X0220297Y0160772D01*
X0220297Y0162371D02*
X0220665Y0162371D01*
X0220665Y0163969D02*
X0220297Y0163969D01*
X0220297Y0165568D02*
X0220665Y0165568D01*
X0220665Y0167166D02*
X0220297Y0167166D01*
X0223645Y0167166D02*
X0234527Y0167166D01*
X0234527Y0165568D02*
X0230839Y0165568D01*
X0238527Y0165568D02*
X0244527Y0165568D01*
X0244527Y0167166D02*
X0238527Y0167166D01*
X0238527Y0168537D02*
X0239373Y0168887D01*
X0240836Y0170350D01*
X0241227Y0171296D01*
X0241227Y0171261D01*
X0242019Y0169350D01*
X0243482Y0167887D01*
X0244527Y0167454D01*
X0244527Y0159924D01*
X0244174Y0159571D01*
X0238756Y0159571D01*
X0238527Y0159342D01*
X0238527Y0168537D01*
X0239077Y0168765D02*
X0242604Y0168765D01*
X0241599Y0170363D02*
X0240841Y0170363D01*
X0248527Y0167537D02*
X0249373Y0167887D01*
X0250836Y0169350D01*
X0251627Y0171261D01*
X0251627Y0171296D01*
X0252019Y0170350D01*
X0253482Y0168887D01*
X0254527Y0168454D01*
X0254527Y0157767D01*
X0255099Y0157196D01*
X0254511Y0157196D01*
X0253371Y0156724D01*
X0252499Y0155852D01*
X0252036Y0154733D01*
X0251549Y0154246D01*
X0245377Y0154246D01*
X0245377Y0155196D01*
X0245456Y0155196D01*
X0246627Y0156367D01*
X0247356Y0157096D01*
X0248527Y0158267D01*
X0248527Y0167537D01*
X0248527Y0167166D02*
X0254527Y0167166D01*
X0254527Y0165568D02*
X0248527Y0165568D01*
X0248527Y0163969D02*
X0254527Y0163969D01*
X0254527Y0162371D02*
X0248527Y0162371D01*
X0248527Y0160772D02*
X0254527Y0160772D01*
X0254527Y0159174D02*
X0248527Y0159174D01*
X0247835Y0157575D02*
X0254719Y0157575D01*
X0252624Y0155977D02*
X0246237Y0155977D01*
X0245377Y0154378D02*
X0251681Y0154378D01*
X0251227Y0150246D02*
X0245377Y0150246D01*
X0245377Y0149073D01*
X0245555Y0148766D01*
X0245651Y0148404D01*
X0245871Y0148624D01*
X0247011Y0149096D01*
X0248244Y0149096D01*
X0249383Y0148624D01*
X0250255Y0147752D01*
X0250727Y0146612D01*
X0250727Y0145379D01*
X0250255Y0144240D01*
X0249383Y0143368D01*
X0248244Y0142896D01*
X0247456Y0142896D01*
X0247356Y0142796D01*
X0245377Y0142796D01*
X0245377Y0138299D01*
X0244499Y0137421D01*
X0243627Y0137421D01*
X0243627Y0137217D01*
X0244949Y0137217D01*
X0245827Y0136339D01*
X0245827Y0133176D01*
X0246005Y0132869D01*
X0246127Y0132411D01*
X0246127Y0130924D01*
X0241827Y0130924D01*
X0237527Y0130924D01*
X0237527Y0129437D01*
X0237650Y0128979D01*
X0237887Y0128569D01*
X0238222Y0128234D01*
X0238632Y0127997D01*
X0239090Y0127874D01*
X0241827Y0127874D01*
X0241827Y0130924D01*
X0241827Y0130924D01*
X0241827Y0130924D01*
X0237527Y0130924D01*
X0237527Y0132411D01*
X0237650Y0132869D01*
X0237827Y0133176D01*
X0237827Y0136339D01*
X0238706Y0137217D01*
X0239627Y0137217D01*
X0239627Y0137421D01*
X0238756Y0137421D01*
X0237877Y0138299D01*
X0237877Y0145076D01*
X0237655Y0144540D01*
X0236783Y0143668D01*
X0235644Y0143196D01*
X0234756Y0143196D01*
X0233656Y0142096D01*
X0232396Y0142096D01*
X0232396Y0139756D01*
X0232048Y0139408D01*
X0232336Y0139120D01*
X0232573Y0138709D01*
X0232696Y0138252D01*
X0232696Y0136034D01*
X0229112Y0136034D01*
X0229112Y0135665D01*
X0232696Y0135665D01*
X0232696Y0133447D01*
X0232573Y0132989D01*
X0232336Y0132579D01*
X0232001Y0132244D01*
X0231591Y0132007D01*
X0231133Y0131884D01*
X0229112Y0131884D01*
X0229112Y0135665D01*
X0228743Y0135665D01*
X0228743Y0131884D01*
X0226722Y0131884D01*
X0226264Y0132007D01*
X0225854Y0132244D01*
X0225518Y0132579D01*
X0225281Y0132989D01*
X0225159Y0133447D01*
X0225159Y0135665D01*
X0228743Y0135665D01*
X0228743Y0136034D01*
X0225159Y0136034D01*
X0225159Y0138252D01*
X0225281Y0138709D01*
X0225518Y0139120D01*
X0225806Y0139408D01*
X0225459Y0139756D01*
X0225459Y0142096D01*
X0218139Y0142096D01*
X0218139Y0141606D01*
X0217260Y0140727D01*
X0211687Y0140727D01*
X0211127Y0141287D01*
X0210567Y0140727D01*
X0204994Y0140727D01*
X0204115Y0141606D01*
X0204115Y0142552D01*
X0203785Y0142909D01*
X0201499Y0145196D01*
X0200327Y0146367D01*
X0200327Y0150771D01*
X0200240Y0151470D01*
X0200327Y0151582D01*
X0200327Y0151724D01*
X0200825Y0152222D01*
X0200882Y0152296D01*
X0179756Y0152296D01*
X0178013Y0150553D01*
X0178013Y0147548D01*
X0177134Y0146670D01*
X0171364Y0146670D01*
X0170486Y0147548D01*
X0170486Y0152728D01*
X0171364Y0153607D01*
X0175410Y0153607D01*
X0176927Y0155124D01*
X0177099Y0155296D01*
X0172856Y0155296D01*
X0168856Y0151296D01*
X0158156Y0151296D01*
X0155769Y0148909D01*
X0155769Y0147548D01*
X0154966Y0146746D01*
X0156694Y0146746D01*
X0161194Y0142246D01*
X0170486Y0142246D01*
X0170486Y0142886D01*
X0171364Y0143764D01*
X0177134Y0143764D01*
X0178013Y0142886D01*
X0178013Y0137706D01*
X0177134Y0136827D01*
X0171364Y0136827D01*
X0170486Y0137706D01*
X0170486Y0138546D01*
X0159661Y0138546D01*
X0158577Y0139629D01*
X0155769Y0142438D01*
X0155769Y0137706D01*
X0154890Y0136827D01*
X0150477Y0136827D01*
X0150477Y0133922D01*
X0154890Y0133922D01*
X0155769Y0133043D01*
X0155769Y0132453D01*
X0160170Y0132453D01*
X0159654Y0133699D01*
X0159654Y0135081D01*
X0160183Y0136358D01*
X0161160Y0137335D01*
X0162436Y0137863D01*
X0163818Y0137863D01*
X0165095Y0137335D01*
X0166072Y0136358D01*
X0166600Y0135081D01*
X0166600Y0133699D01*
X0166084Y0132453D01*
X0166298Y0132453D01*
X0170486Y0128266D01*
X0170486Y0133043D01*
X0171364Y0133922D01*
X0177134Y0133922D01*
X0177980Y0133077D01*
X0179227Y0134324D01*
X0180399Y0135496D01*
X0184456Y0135496D01*
X0184696Y0136076D01*
X0185899Y0137279D01*
X0186654Y0137592D01*
X0185899Y0137905D01*
X0184696Y0139107D01*
X0184045Y0140679D01*
X0184045Y0142379D01*
X0184696Y0143950D01*
X0185899Y0145153D01*
X0187470Y0145804D01*
X0189170Y0145804D01*
X0190742Y0145153D01*
X0191944Y0143950D01*
X0191994Y0143829D01*
X0196747Y0143829D01*
X0198094Y0142482D01*
X0200627Y0139948D01*
X0200627Y0136932D01*
X0202098Y0136932D01*
X0202977Y0136053D01*
X0202977Y0133442D01*
X0203959Y0133442D01*
X0203959Y0133929D01*
X0204837Y0134808D01*
X0210017Y0134808D01*
X0210896Y0133929D01*
X0210896Y0133246D01*
X0214094Y0133246D01*
X0215177Y0132162D01*
X0217277Y0130062D01*
X0217277Y0114762D01*
X0221347Y0110692D01*
X0260059Y0110692D01*
X0260059Y0111629D01*
X0260937Y0112508D01*
X0266117Y0112508D01*
X0266996Y0111629D01*
X0266996Y0106056D01*
X0266436Y0105496D01*
X0266996Y0104936D01*
X0266996Y0104159D01*
X0271136Y0104159D01*
X0271310Y0104580D01*
X0272513Y0105783D01*
X0273269Y0106096D01*
X0272513Y0106409D01*
X0271310Y0107611D01*
X0270660Y0109182D01*
X0270660Y0110883D01*
X0271310Y0112454D01*
X0272513Y0113657D01*
X0273269Y0113970D01*
X0272513Y0114283D01*
X0271310Y0115485D01*
X0270660Y0117056D01*
X0270660Y0118757D01*
X0271310Y0120328D01*
X0272513Y0121531D01*
X0273269Y0121844D01*
X0272513Y0122157D01*
X0271310Y0123359D01*
X0270660Y0124930D01*
X0270660Y0126631D01*
X0271310Y0128202D01*
X0272513Y0129405D01*
X0273269Y0129718D01*
X0272513Y0130031D01*
X0271310Y0131233D01*
X0270660Y0132804D01*
X0270660Y0134505D01*
X0271310Y0136076D01*
X0272513Y0137279D01*
X0273269Y0137592D01*
X0272513Y0137905D01*
X0271310Y0139107D01*
X0270660Y0140679D01*
X0270660Y0142379D01*
X0271310Y0143950D01*
X0272513Y0145153D01*
X0274084Y0145804D01*
X0275785Y0145804D01*
X0277356Y0145153D01*
X0278558Y0143950D01*
X0279209Y0142379D01*
X0279209Y0140679D01*
X0278558Y0139107D01*
X0277356Y0137905D01*
X0276600Y0137592D01*
X0277356Y0137279D01*
X0278558Y0136076D01*
X0279209Y0134505D01*
X0279209Y0132804D01*
X0278558Y0131233D01*
X0277356Y0130031D01*
X0276600Y0129718D01*
X0277356Y0129405D01*
X0278558Y0128202D01*
X0279209Y0126631D01*
X0279209Y0124930D01*
X0278558Y0123359D01*
X0277356Y0122157D01*
X0276600Y0121844D01*
X0277356Y0121531D01*
X0278558Y0120328D01*
X0279209Y0118757D01*
X0279209Y0117056D01*
X0278558Y0115485D01*
X0277356Y0114283D01*
X0276600Y0113970D01*
X0277356Y0113657D01*
X0278558Y0112454D01*
X0279209Y0110883D01*
X0279209Y0109182D01*
X0278558Y0107611D01*
X0277356Y0106409D01*
X0276600Y0106096D01*
X0277356Y0105783D01*
X0278558Y0104580D01*
X0279209Y0103009D01*
X0279209Y0101308D01*
X0278558Y0099737D01*
X0277356Y0098535D01*
X0276600Y0098222D01*
X0277356Y0097909D01*
X0278558Y0096706D01*
X0279209Y0095135D01*
X0279209Y0093434D01*
X0278558Y0091863D01*
X0277356Y0090661D01*
X0276600Y0090348D01*
X0277356Y0090035D01*
X0278558Y0088832D01*
X0279209Y0087261D01*
X0279209Y0085560D01*
X0278558Y0083989D01*
X0277356Y0082787D01*
X0276600Y0082474D01*
X0277356Y0082161D01*
X0278558Y0080958D01*
X0279209Y0079387D01*
X0279209Y0077686D01*
X0278558Y0076115D01*
X0277356Y0074913D01*
X0276600Y0074600D01*
X0277356Y0074287D01*
X0278558Y0073084D01*
X0279209Y0071513D01*
X0279209Y0069812D01*
X0278558Y0068241D01*
X0277356Y0067039D01*
X0275785Y0066388D01*
X0274084Y0066388D01*
X0272513Y0067039D01*
X0271310Y0068241D01*
X0270660Y0069812D01*
X0270660Y0071513D01*
X0271310Y0073084D01*
X0272513Y0074287D01*
X0273269Y0074600D01*
X0272513Y0074913D01*
X0271310Y0076115D01*
X0270660Y0077686D01*
X0270660Y0079387D01*
X0271310Y0080958D01*
X0272513Y0082161D01*
X0273269Y0082474D01*
X0272513Y0082787D01*
X0271310Y0083989D01*
X0270660Y0085560D01*
X0270660Y0087261D01*
X0271310Y0088832D01*
X0272513Y0090035D01*
X0273269Y0090348D01*
X0272513Y0090661D01*
X0271310Y0091863D01*
X0270660Y0093434D01*
X0270660Y0095135D01*
X0271310Y0096706D01*
X0272513Y0097909D01*
X0273269Y0098222D01*
X0272513Y0098535D01*
X0271310Y0099737D01*
X0271136Y0100159D01*
X0266996Y0100159D01*
X0266996Y0099363D01*
X0266117Y0098484D01*
X0265877Y0098484D01*
X0265877Y0068329D01*
X0264794Y0067246D01*
X0259794Y0062246D01*
X0185761Y0062246D01*
X0184677Y0063329D01*
X0181577Y0066429D01*
X0181577Y0077181D01*
X0180629Y0077181D01*
X0180094Y0076646D01*
X0179377Y0075929D01*
X0179975Y0075929D01*
X0180853Y0075050D01*
X0180853Y0069083D01*
X0180416Y0068646D01*
X0180416Y0068623D01*
X0180747Y0068275D01*
X0180648Y0064203D01*
X0180681Y0064169D01*
X0181211Y0062889D01*
X0181211Y0061503D01*
X0180681Y0060222D01*
X0180110Y0059651D01*
X0180853Y0058908D01*
X0180853Y0053746D01*
X0193194Y0053746D01*
X0196094Y0050846D01*
X0197177Y0049762D01*
X0197177Y0046168D01*
X0197903Y0045868D01*
X0199106Y0044665D01*
X0199419Y0043910D01*
X0199732Y0044665D01*
X0200934Y0045868D01*
X0202505Y0046519D01*
X0204206Y0046519D01*
X0205777Y0045868D01*
X0206980Y0044665D01*
X0207293Y0043910D01*
X0207606Y0044665D01*
X0208808Y0045868D01*
X0210379Y0046519D01*
X0212080Y0046519D01*
X0213651Y0045868D01*
X0214854Y0044665D01*
X0215167Y0043910D01*
X0215480Y0044665D01*
X0216682Y0045868D01*
X0218253Y0046519D01*
X0219954Y0046519D01*
X0221525Y0045868D01*
X0222728Y0044665D01*
X0223378Y0043094D01*
X0223378Y0041393D01*
X0222728Y0039822D01*
X0221525Y0038620D01*
X0221147Y0038463D01*
X0221501Y0038282D01*
X0222084Y0037859D01*
X0222593Y0037350D01*
X0223016Y0036767D01*
X0223343Y0036126D01*
X0223566Y0035441D01*
X0223678Y0034730D01*
X0223678Y0034370D01*
X0219104Y0034370D01*
X0219104Y0034370D01*
X0223678Y0034370D01*
X0223678Y0034010D01*
X0223566Y0033298D01*
X0223343Y0032614D01*
X0223016Y0031972D01*
X0222593Y0031389D01*
X0222084Y0030880D01*
X0221501Y0030457D01*
X0220860Y0030130D01*
X0220175Y0029908D01*
X0219464Y0029795D01*
X0219104Y0029795D01*
X0219104Y0034370D01*
X0219104Y0034370D01*
X0219104Y0029795D01*
X0218744Y0029795D01*
X0218032Y0029908D01*
X0217348Y0030130D01*
X0216706Y0030457D01*
X0216123Y0030880D01*
X0215614Y0031389D01*
X0215191Y0031972D01*
X0215010Y0032327D01*
X0214854Y0031948D01*
X0213651Y0030746D01*
X0212080Y0030095D01*
X0210379Y0030095D01*
X0208808Y0030746D01*
X0207606Y0031948D01*
X0207293Y0032704D01*
X0206980Y0031948D01*
X0205777Y0030746D01*
X0204206Y0030095D01*
X0202505Y0030095D01*
X0200934Y0030746D01*
X0199732Y0031948D01*
X0199419Y0032704D01*
X0199106Y0031948D01*
X0197903Y0030746D01*
X0196332Y0030095D01*
X0194631Y0030095D01*
X0193060Y0030746D01*
X0191858Y0031948D01*
X0191545Y0032704D01*
X0191232Y0031948D01*
X0190029Y0030746D01*
X0188458Y0030095D01*
X0186757Y0030095D01*
X0185186Y0030746D01*
X0183984Y0031948D01*
X0183671Y0032704D01*
X0183358Y0031948D01*
X0182155Y0030746D01*
X0180584Y0030095D01*
X0178883Y0030095D01*
X0177312Y0030746D01*
X0176110Y0031948D01*
X0175797Y0032704D01*
X0175484Y0031948D01*
X0174281Y0030746D01*
X0172710Y0030095D01*
X0171009Y0030095D01*
X0169438Y0030746D01*
X0168236Y0031948D01*
X0167923Y0032704D01*
X0167610Y0031948D01*
X0166407Y0030746D01*
X0164836Y0030095D01*
X0163135Y0030095D01*
X0161564Y0030746D01*
X0160362Y0031948D01*
X0160048Y0032704D01*
X0159735Y0031948D01*
X0158533Y0030746D01*
X0156962Y0030095D01*
X0155261Y0030095D01*
X0153690Y0030746D01*
X0152488Y0031948D01*
X0152174Y0032704D01*
X0151861Y0031948D01*
X0150659Y0030746D01*
X0149088Y0030095D01*
X0147387Y0030095D01*
X0145816Y0030746D01*
X0144613Y0031948D01*
X0144300Y0032704D01*
X0143987Y0031948D01*
X0142785Y0030746D01*
X0141214Y0030095D01*
X0139513Y0030095D01*
X0137942Y0030746D01*
X0136739Y0031948D01*
X0136426Y0032704D01*
X0136113Y0031948D01*
X0134911Y0030746D01*
X0133340Y0030095D01*
X0131639Y0030095D01*
X0130068Y0030746D01*
X0128865Y0031948D01*
X0128552Y0032704D01*
X0128239Y0031948D01*
X0127037Y0030746D01*
X0125466Y0030095D01*
X0123765Y0030095D01*
X0122194Y0030746D01*
X0120991Y0031948D01*
X0120678Y0032704D01*
X0120365Y0031948D01*
X0119163Y0030746D01*
X0117592Y0030095D01*
X0115891Y0030095D01*
X0114320Y0030746D01*
X0113117Y0031948D01*
X0112804Y0032704D01*
X0112491Y0031948D01*
X0111289Y0030746D01*
X0110777Y0030534D01*
X0110777Y0029029D01*
X0110044Y0028296D01*
X0288327Y0028296D01*
X0288327Y0143713D01*
X0288255Y0143540D01*
X0287383Y0142668D01*
X0286244Y0142196D01*
X0285011Y0142196D01*
X0283871Y0142668D01*
X0282999Y0143540D01*
X0282527Y0144679D01*
X0282527Y0145912D01*
X0282999Y0147052D01*
X0283871Y0147924D01*
X0284727Y0148278D01*
X0284727Y0158030D01*
X0284389Y0158030D01*
X0284389Y0157046D01*
X0283511Y0156167D01*
X0277544Y0156167D01*
X0276665Y0157046D01*
X0276665Y0163013D01*
X0277544Y0163892D01*
X0283511Y0163892D01*
X0284389Y0163013D01*
X0284389Y0162030D01*
X0286722Y0162030D01*
X0287556Y0161196D01*
X0288327Y0160424D01*
X0288327Y0179696D01*
X0283489Y0179696D01*
X0283489Y0173946D01*
X0282611Y0173067D01*
X0276644Y0173067D01*
X0275765Y0173946D01*
X0275765Y0174250D01*
X0275683Y0174168D01*
X0274544Y0173696D01*
X0273311Y0173696D01*
X0272171Y0174168D01*
X0271927Y0174412D01*
X0271927Y0172496D01*
X0266627Y0172496D01*
X0266627Y0172096D01*
X0266627Y0166796D01*
X0270364Y0166796D01*
X0270822Y0166918D01*
X0271232Y0167155D01*
X0271568Y0167491D01*
X0271805Y0167901D01*
X0271927Y0168359D01*
X0271927Y0172096D01*
X0266627Y0172096D01*
X0266227Y0172096D01*
X0266227Y0166796D01*
X0262490Y0166796D01*
X0262032Y0166918D01*
X0261622Y0167155D01*
X0261287Y0167491D01*
X0261050Y0167901D01*
X0260927Y0168359D01*
X0260927Y0170571D01*
X0260836Y0170350D01*
X0259373Y0168887D01*
X0258527Y0168537D01*
X0258527Y0159496D01*
X0259481Y0159496D01*
X0259556Y0159571D01*
X0265299Y0159571D01*
X0266177Y0158692D01*
X0266177Y0156896D01*
X0271899Y0156896D01*
X0271927Y0156924D01*
X0271927Y0168524D01*
X0273099Y0169696D01*
X0274065Y0170662D01*
X0275765Y0170662D01*
X0275765Y0171645D01*
X0276644Y0172524D01*
X0282611Y0172524D01*
X0283489Y0171645D01*
X0283489Y0165678D01*
X0282611Y0164800D01*
X0276644Y0164800D01*
X0275927Y0165516D01*
X0275927Y0155267D01*
X0274727Y0154067D01*
X0274056Y0153396D01*
X0274799Y0153396D01*
X0275165Y0153762D01*
X0276665Y0153762D01*
X0276665Y0154745D01*
X0277544Y0155624D01*
X0283511Y0155624D01*
X0284389Y0154745D01*
X0284389Y0148778D01*
X0283511Y0147900D01*
X0277544Y0147900D01*
X0277029Y0148414D01*
X0276283Y0147668D01*
X0275144Y0147196D01*
X0273911Y0147196D01*
X0272771Y0147668D01*
X0271899Y0148540D01*
X0271427Y0149679D01*
X0271427Y0150912D01*
X0271899Y0152052D01*
X0272743Y0152896D01*
X0266177Y0152896D01*
X0266177Y0151573D01*
X0266355Y0151266D01*
X0266477Y0150808D01*
X0266477Y0149746D01*
X0262427Y0149746D01*
X0262427Y0149746D01*
X0258377Y0149746D01*
X0258377Y0150808D01*
X0258500Y0151266D01*
X0258677Y0151573D01*
X0258677Y0153299D01*
X0258677Y0155496D01*
X0257903Y0155496D01*
X0258227Y0154712D01*
X0258227Y0153479D01*
X0257755Y0152340D01*
X0256883Y0151468D01*
X0255744Y0150996D01*
X0255227Y0150996D01*
X0255227Y0146096D01*
X0256899Y0146096D01*
X0257699Y0146896D01*
X0258677Y0146896D01*
X0258677Y0147919D01*
X0258500Y0148226D01*
X0258377Y0148684D01*
X0258377Y0149746D01*
X0262427Y0149746D01*
X0262427Y0149746D01*
X0266477Y0149746D01*
X0266477Y0149246D01*
X0267131Y0149246D01*
X0268056Y0148321D01*
X0269227Y0147149D01*
X0269227Y0128685D01*
X0269758Y0127403D01*
X0269758Y0125939D01*
X0269198Y0124586D01*
X0268162Y0123550D01*
X0266809Y0122990D01*
X0265345Y0122990D01*
X0263992Y0123550D01*
X0262957Y0124586D01*
X0262396Y0125939D01*
X0262396Y0127403D01*
X0262596Y0127886D01*
X0262295Y0127762D01*
X0260909Y0127762D01*
X0259629Y0128292D01*
X0258648Y0129272D01*
X0258118Y0130553D01*
X0258118Y0131939D01*
X0258648Y0133219D01*
X0259629Y0134200D01*
X0260427Y0134530D01*
X0260427Y0137421D01*
X0259556Y0137421D01*
X0258677Y0138299D01*
X0258677Y0142217D01*
X0258556Y0142096D01*
X0252799Y0142096D01*
X0251627Y0143267D01*
X0251227Y0143667D01*
X0251227Y0150246D01*
X0251227Y0149583D02*
X0245377Y0149583D01*
X0244790Y0147246D02*
X0241627Y0147246D01*
X0241627Y0147246D01*
X0244790Y0147246D01*
X0244790Y0147246D01*
X0250023Y0147984D02*
X0251227Y0147984D01*
X0251227Y0146386D02*
X0250727Y0146386D01*
X0250482Y0144787D02*
X0251227Y0144787D01*
X0251706Y0143189D02*
X0248951Y0143189D01*
X0245377Y0141590D02*
X0258677Y0141590D01*
X0258677Y0139992D02*
X0245377Y0139992D01*
X0245377Y0138393D02*
X0258677Y0138393D01*
X0260427Y0136795D02*
X0245371Y0136795D01*
X0245827Y0135196D02*
X0260427Y0135196D01*
X0259027Y0133598D02*
X0245827Y0133598D01*
X0246127Y0131999D02*
X0258143Y0131999D01*
X0258181Y0130400D02*
X0246127Y0130400D01*
X0246127Y0130924D02*
X0246127Y0129437D01*
X0246005Y0128979D01*
X0245768Y0128569D01*
X0245432Y0128234D01*
X0245022Y0127997D01*
X0244564Y0127874D01*
X0241827Y0127874D01*
X0241827Y0130924D01*
X0241827Y0130924D01*
X0246127Y0130924D01*
X0245902Y0128802D02*
X0259119Y0128802D01*
X0262396Y0127203D02*
X0217277Y0127203D01*
X0217277Y0125605D02*
X0262534Y0125605D01*
X0263536Y0124006D02*
X0217277Y0124006D01*
X0217277Y0122408D02*
X0272262Y0122408D01*
X0271791Y0120809D02*
X0217277Y0120809D01*
X0217277Y0119211D02*
X0270848Y0119211D01*
X0270660Y0117612D02*
X0217277Y0117612D01*
X0217277Y0116014D02*
X0271091Y0116014D01*
X0272380Y0114415D02*
X0217624Y0114415D01*
X0219222Y0112817D02*
X0271673Y0112817D01*
X0270798Y0111218D02*
X0266996Y0111218D01*
X0266996Y0109620D02*
X0270660Y0109620D01*
X0271140Y0108021D02*
X0266996Y0108021D01*
X0266996Y0106423D02*
X0272499Y0106423D01*
X0271554Y0104824D02*
X0266996Y0104824D01*
X0266996Y0100029D02*
X0271190Y0100029D01*
X0272765Y0098430D02*
X0265877Y0098430D01*
X0265877Y0096832D02*
X0271436Y0096832D01*
X0270700Y0095233D02*
X0265877Y0095233D01*
X0265877Y0093635D02*
X0270660Y0093635D01*
X0271239Y0092036D02*
X0265877Y0092036D01*
X0265877Y0090438D02*
X0273051Y0090438D01*
X0271317Y0088839D02*
X0265877Y0088839D01*
X0265877Y0087241D02*
X0270660Y0087241D01*
X0270660Y0085642D02*
X0265877Y0085642D01*
X0265877Y0084044D02*
X0271288Y0084044D01*
X0273200Y0082445D02*
X0265877Y0082445D01*
X0265877Y0080847D02*
X0271264Y0080847D01*
X0270660Y0079248D02*
X0265877Y0079248D01*
X0265877Y0077650D02*
X0270675Y0077650D01*
X0271374Y0076051D02*
X0265877Y0076051D01*
X0265877Y0074453D02*
X0272913Y0074453D01*
X0271215Y0072854D02*
X0265877Y0072854D01*
X0265877Y0071256D02*
X0270660Y0071256D01*
X0270724Y0069657D02*
X0265877Y0069657D01*
X0265606Y0068059D02*
X0271493Y0068059D01*
X0273910Y0066460D02*
X0264008Y0066460D01*
X0262409Y0064862D02*
X0288327Y0064862D01*
X0288327Y0066460D02*
X0275959Y0066460D01*
X0278376Y0068059D02*
X0288327Y0068059D01*
X0288327Y0069657D02*
X0279145Y0069657D01*
X0279209Y0071256D02*
X0288327Y0071256D01*
X0288327Y0072854D02*
X0278654Y0072854D01*
X0276955Y0074453D02*
X0288327Y0074453D01*
X0288327Y0076051D02*
X0278494Y0076051D01*
X0279194Y0077650D02*
X0288327Y0077650D01*
X0288327Y0079248D02*
X0279209Y0079248D01*
X0278605Y0080847D02*
X0288327Y0080847D01*
X0288327Y0082445D02*
X0276669Y0082445D01*
X0278581Y0084044D02*
X0288327Y0084044D01*
X0288327Y0085642D02*
X0279209Y0085642D01*
X0279209Y0087241D02*
X0288327Y0087241D01*
X0288327Y0088839D02*
X0278551Y0088839D01*
X0276817Y0090438D02*
X0288327Y0090438D01*
X0288327Y0092036D02*
X0278630Y0092036D01*
X0279209Y0093635D02*
X0288327Y0093635D01*
X0288327Y0095233D02*
X0279168Y0095233D01*
X0278433Y0096832D02*
X0288327Y0096832D01*
X0288327Y0098430D02*
X0277104Y0098430D01*
X0278679Y0100029D02*
X0288327Y0100029D01*
X0288327Y0101627D02*
X0279209Y0101627D01*
X0279119Y0103226D02*
X0288327Y0103226D01*
X0288327Y0104824D02*
X0278314Y0104824D01*
X0277370Y0106423D02*
X0288327Y0106423D01*
X0288327Y0108021D02*
X0278728Y0108021D01*
X0279209Y0109620D02*
X0288327Y0109620D01*
X0288327Y0111218D02*
X0279070Y0111218D01*
X0278196Y0112817D02*
X0288327Y0112817D01*
X0288327Y0114415D02*
X0277488Y0114415D01*
X0278777Y0116014D02*
X0288327Y0116014D01*
X0288327Y0117612D02*
X0279209Y0117612D01*
X0279021Y0119211D02*
X0288327Y0119211D01*
X0288327Y0120809D02*
X0278077Y0120809D01*
X0277607Y0122408D02*
X0288327Y0122408D01*
X0288327Y0124006D02*
X0278826Y0124006D01*
X0279209Y0125605D02*
X0288327Y0125605D01*
X0288327Y0127203D02*
X0278972Y0127203D01*
X0277959Y0128802D02*
X0288327Y0128802D01*
X0288327Y0130400D02*
X0277725Y0130400D01*
X0278875Y0131999D02*
X0288327Y0131999D01*
X0288327Y0133598D02*
X0279209Y0133598D01*
X0278923Y0135196D02*
X0288327Y0135196D01*
X0288327Y0136795D02*
X0277840Y0136795D01*
X0277844Y0138393D02*
X0288327Y0138393D01*
X0288327Y0139992D02*
X0278925Y0139992D01*
X0279209Y0141590D02*
X0288327Y0141590D01*
X0288327Y0143189D02*
X0287904Y0143189D01*
X0283350Y0143189D02*
X0278874Y0143189D01*
X0277722Y0144787D02*
X0282527Y0144787D01*
X0282723Y0146386D02*
X0269227Y0146386D01*
X0269227Y0144787D02*
X0272147Y0144787D01*
X0270995Y0143189D02*
X0269227Y0143189D01*
X0269227Y0141590D02*
X0270660Y0141590D01*
X0270944Y0139992D02*
X0269227Y0139992D01*
X0269227Y0138393D02*
X0272025Y0138393D01*
X0272029Y0136795D02*
X0269227Y0136795D01*
X0269227Y0135196D02*
X0270946Y0135196D01*
X0270660Y0133598D02*
X0269227Y0133598D01*
X0269227Y0131999D02*
X0270993Y0131999D01*
X0272143Y0130400D02*
X0269227Y0130400D01*
X0269227Y0128802D02*
X0271910Y0128802D01*
X0270897Y0127203D02*
X0269758Y0127203D01*
X0269620Y0125605D02*
X0270660Y0125605D01*
X0271042Y0124006D02*
X0268619Y0124006D01*
X0260059Y0111218D02*
X0220821Y0111218D01*
X0218785Y0108021D02*
X0192114Y0108021D01*
X0191944Y0107611D02*
X0192595Y0109182D01*
X0192595Y0110883D01*
X0191944Y0112454D01*
X0190742Y0113657D01*
X0189986Y0113970D01*
X0190742Y0114283D01*
X0191944Y0115485D01*
X0192595Y0117056D01*
X0192595Y0118757D01*
X0191944Y0120328D01*
X0190742Y0121531D01*
X0189986Y0121844D01*
X0190742Y0122157D01*
X0191944Y0123359D01*
X0192595Y0124930D01*
X0192595Y0126631D01*
X0191944Y0128202D01*
X0190742Y0129405D01*
X0189986Y0129718D01*
X0190742Y0130031D01*
X0191944Y0131233D01*
X0192595Y0132804D01*
X0192595Y0134505D01*
X0191944Y0136076D01*
X0190742Y0137279D01*
X0189986Y0137592D01*
X0190742Y0137905D01*
X0191944Y0139107D01*
X0191994Y0139229D01*
X0194841Y0139229D01*
X0196027Y0138043D01*
X0196027Y0136932D01*
X0194556Y0136932D01*
X0193678Y0136053D01*
X0193678Y0127330D01*
X0194556Y0126452D01*
X0202098Y0126452D01*
X0202977Y0127330D01*
X0202977Y0128842D01*
X0203959Y0128842D01*
X0203959Y0128356D01*
X0204306Y0128008D01*
X0204018Y0127720D01*
X0203781Y0127309D01*
X0203659Y0126852D01*
X0203659Y0124634D01*
X0207243Y0124634D01*
X0207243Y0124265D01*
X0207612Y0124265D01*
X0207612Y0124634D01*
X0211196Y0124634D01*
X0211196Y0126852D01*
X0211073Y0127309D01*
X0210836Y0127720D01*
X0210548Y0128008D01*
X0210896Y0128356D01*
X0210896Y0129546D01*
X0212561Y0129546D01*
X0213577Y0128529D01*
X0213577Y0113229D01*
X0214661Y0112146D01*
X0219814Y0106992D01*
X0260059Y0106992D01*
X0260059Y0106056D01*
X0260619Y0105496D01*
X0260059Y0104936D01*
X0260059Y0099363D01*
X0260937Y0098484D01*
X0262177Y0098484D01*
X0262177Y0069862D01*
X0258261Y0065946D01*
X0187294Y0065946D01*
X0186938Y0066302D01*
X0187249Y0066201D01*
X0187960Y0066088D01*
X0188320Y0066088D01*
X0188320Y0070663D01*
X0192895Y0070663D01*
X0192895Y0071023D01*
X0192782Y0071734D01*
X0192560Y0072419D01*
X0192233Y0073060D01*
X0191810Y0073643D01*
X0191300Y0074152D01*
X0190718Y0074575D01*
X0190363Y0074756D01*
X0190742Y0074913D01*
X0191944Y0076115D01*
X0192595Y0077686D01*
X0192595Y0079387D01*
X0191944Y0080958D01*
X0190742Y0082161D01*
X0189986Y0082474D01*
X0190742Y0082787D01*
X0191944Y0083989D01*
X0192595Y0085560D01*
X0192595Y0087261D01*
X0191944Y0088832D01*
X0190742Y0090035D01*
X0189986Y0090348D01*
X0190742Y0090661D01*
X0191944Y0091863D01*
X0192595Y0093434D01*
X0192595Y0095135D01*
X0191944Y0096706D01*
X0190742Y0097909D01*
X0189986Y0098222D01*
X0190742Y0098535D01*
X0191944Y0099737D01*
X0192595Y0101308D01*
X0192595Y0103009D01*
X0191944Y0104580D01*
X0190742Y0105783D01*
X0189986Y0106096D01*
X0190742Y0106409D01*
X0191944Y0107611D01*
X0190756Y0106423D02*
X0260059Y0106423D01*
X0260059Y0104824D02*
X0191700Y0104824D01*
X0192505Y0103226D02*
X0260059Y0103226D01*
X0260059Y0101627D02*
X0192595Y0101627D01*
X0192065Y0100029D02*
X0260059Y0100029D01*
X0262177Y0098430D02*
X0190489Y0098430D01*
X0191819Y0096832D02*
X0262177Y0096832D01*
X0262177Y0095233D02*
X0192554Y0095233D01*
X0192595Y0093635D02*
X0262177Y0093635D01*
X0262177Y0092036D02*
X0192016Y0092036D01*
X0190203Y0090438D02*
X0262177Y0090438D01*
X0262177Y0088839D02*
X0191937Y0088839D01*
X0192595Y0087241D02*
X0262177Y0087241D01*
X0262177Y0085642D02*
X0192595Y0085642D01*
X0191967Y0084044D02*
X0262177Y0084044D01*
X0262177Y0082445D02*
X0190055Y0082445D01*
X0191990Y0080847D02*
X0262177Y0080847D01*
X0262177Y0079248D02*
X0192595Y0079248D01*
X0192580Y0077650D02*
X0262177Y0077650D01*
X0262177Y0076051D02*
X0191880Y0076051D01*
X0190887Y0074453D02*
X0262177Y0074453D01*
X0262177Y0072854D02*
X0192338Y0072854D01*
X0192858Y0071256D02*
X0262177Y0071256D01*
X0261972Y0069657D02*
X0192793Y0069657D01*
X0192782Y0069591D02*
X0192895Y0070303D01*
X0192895Y0070663D01*
X0188320Y0070663D01*
X0188320Y0070663D01*
X0188320Y0070663D01*
X0188320Y0066088D01*
X0188680Y0066088D01*
X0189391Y0066201D01*
X0190076Y0066423D01*
X0190718Y0066750D01*
X0191300Y0067173D01*
X0191810Y0067682D01*
X0192233Y0068265D01*
X0192560Y0068907D01*
X0192782Y0069591D01*
X0192083Y0068059D02*
X0260374Y0068059D01*
X0258775Y0066460D02*
X0190149Y0066460D01*
X0188320Y0066460D02*
X0188320Y0066460D01*
X0188320Y0068059D02*
X0188320Y0068059D01*
X0188320Y0069657D02*
X0188320Y0069657D01*
X0181577Y0069657D02*
X0180853Y0069657D01*
X0180853Y0071256D02*
X0181577Y0071256D01*
X0181577Y0072854D02*
X0180853Y0072854D01*
X0180853Y0074453D02*
X0181577Y0074453D01*
X0181577Y0076051D02*
X0179499Y0076051D01*
X0171477Y0076229D02*
X0170889Y0076229D01*
X0170889Y0072067D01*
X0170889Y0072067D01*
X0170889Y0076229D01*
X0169864Y0076229D01*
X0169406Y0076106D01*
X0168996Y0075869D01*
X0168661Y0075534D01*
X0168424Y0075124D01*
X0168377Y0074949D01*
X0168377Y0077629D01*
X0169062Y0078314D01*
X0169062Y0078059D01*
X0169941Y0077181D01*
X0171477Y0077181D01*
X0171477Y0076229D01*
X0170889Y0076051D02*
X0170889Y0076051D01*
X0169311Y0076051D02*
X0168377Y0076051D01*
X0168397Y0077650D02*
X0169472Y0077650D01*
X0170889Y0074453D02*
X0170889Y0074453D01*
X0170889Y0072854D02*
X0170889Y0072854D01*
X0170889Y0072066D02*
X0170889Y0067904D01*
X0171913Y0067904D01*
X0172371Y0068027D01*
X0172678Y0068204D01*
X0174157Y0068204D01*
X0174157Y0066342D01*
X0172661Y0064846D01*
X0168394Y0064846D01*
X0168377Y0064862D01*
X0168377Y0069184D01*
X0168424Y0069010D01*
X0168661Y0068599D01*
X0168996Y0068264D01*
X0169406Y0068027D01*
X0169864Y0067904D01*
X0170889Y0067904D01*
X0170889Y0072066D01*
X0170889Y0072066D01*
X0170889Y0071256D02*
X0170889Y0071256D01*
X0170889Y0069657D02*
X0170889Y0069657D01*
X0170889Y0068059D02*
X0170889Y0068059D01*
X0172425Y0068059D02*
X0174157Y0068059D01*
X0174157Y0066460D02*
X0168377Y0066460D01*
X0168378Y0064862D02*
X0172677Y0064862D01*
X0174333Y0061285D02*
X0174773Y0060222D01*
X0175208Y0059787D01*
X0169480Y0059787D01*
X0169051Y0059358D01*
X0165712Y0059358D01*
X0165712Y0059726D01*
X0169296Y0059726D01*
X0169296Y0061146D01*
X0174194Y0061146D01*
X0174333Y0061285D01*
X0174930Y0060066D02*
X0169296Y0060066D01*
X0165712Y0060066D02*
X0165343Y0060066D01*
X0165343Y0059727D02*
X0165343Y0062664D01*
X0165712Y0062295D01*
X0165712Y0059727D01*
X0165343Y0059727D01*
X0165343Y0061664D02*
X0165712Y0061664D01*
X0164677Y0063508D02*
X0163322Y0063508D01*
X0162864Y0063385D01*
X0162454Y0063148D01*
X0162118Y0062813D01*
X0161881Y0062402D01*
X0161872Y0062367D01*
X0160794Y0063446D01*
X0159894Y0064346D01*
X0157847Y0064346D01*
X0157597Y0064596D01*
X0157555Y0064596D01*
X0156846Y0065304D01*
X0158719Y0065304D01*
X0158786Y0065372D01*
X0158854Y0065304D01*
X0161278Y0065304D01*
X0162156Y0066183D01*
X0162156Y0071363D01*
X0161916Y0071603D01*
X0161916Y0084806D01*
X0162384Y0085936D01*
X0162977Y0086529D01*
X0166029Y0089581D01*
X0166677Y0089581D01*
X0166677Y0081162D01*
X0165761Y0080246D01*
X0164677Y0079162D01*
X0164677Y0063508D01*
X0164677Y0064862D02*
X0157289Y0064862D01*
X0160976Y0063263D02*
X0162653Y0063263D01*
X0162156Y0066460D02*
X0164677Y0066460D01*
X0164677Y0068059D02*
X0162156Y0068059D01*
X0162156Y0069657D02*
X0164677Y0069657D01*
X0164677Y0071256D02*
X0162156Y0071256D01*
X0161916Y0072854D02*
X0164677Y0072854D01*
X0164677Y0074453D02*
X0161916Y0074453D01*
X0161916Y0076051D02*
X0164677Y0076051D01*
X0164677Y0077650D02*
X0161916Y0077650D01*
X0161916Y0079248D02*
X0164763Y0079248D01*
X0166362Y0080847D02*
X0161916Y0080847D01*
X0161916Y0082445D02*
X0166677Y0082445D01*
X0166677Y0084044D02*
X0161916Y0084044D01*
X0162262Y0085642D02*
X0166677Y0085642D01*
X0166677Y0087241D02*
X0163688Y0087241D01*
X0165287Y0088839D02*
X0166677Y0088839D01*
X0164335Y0109620D02*
X0131166Y0109620D01*
X0131889Y0111218D02*
X0165934Y0111218D01*
X0169321Y0112817D02*
X0131889Y0112817D01*
X0131889Y0114415D02*
X0175877Y0114415D01*
X0175877Y0112817D02*
X0173334Y0112817D01*
X0174551Y0111218D02*
X0175877Y0111218D01*
X0175535Y0109620D02*
X0174811Y0109620D01*
X0175877Y0116014D02*
X0162062Y0116014D01*
X0163660Y0117612D02*
X0175877Y0117612D01*
X0190874Y0114415D02*
X0193460Y0114415D01*
X0193500Y0114265D02*
X0193737Y0113854D01*
X0194072Y0113519D01*
X0194483Y0113282D01*
X0194941Y0113160D01*
X0197552Y0113160D01*
X0197552Y0117925D01*
X0193378Y0117925D01*
X0193378Y0114723D01*
X0193500Y0114265D01*
X0193378Y0116014D02*
X0192163Y0116014D01*
X0192595Y0117612D02*
X0193378Y0117612D01*
X0193378Y0119474D02*
X0193378Y0122677D01*
X0193500Y0123135D01*
X0193737Y0123545D01*
X0194072Y0123880D01*
X0194483Y0124117D01*
X0194941Y0124240D01*
X0197552Y0124240D01*
X0197552Y0119475D01*
X0199102Y0119475D01*
X0199102Y0124240D01*
X0201714Y0124240D01*
X0202172Y0124117D01*
X0202582Y0123880D01*
X0202917Y0123545D01*
X0203154Y0123135D01*
X0203277Y0122677D01*
X0203277Y0119474D01*
X0199102Y0119474D01*
X0199102Y0117925D01*
X0203277Y0117925D01*
X0203277Y0114723D01*
X0203154Y0114265D01*
X0202917Y0113854D01*
X0202582Y0113519D01*
X0202172Y0113282D01*
X0201714Y0113160D01*
X0199102Y0113160D01*
X0199102Y0117925D01*
X0197552Y0117925D01*
X0197552Y0119474D01*
X0193378Y0119474D01*
X0192407Y0119211D02*
X0197552Y0119211D01*
X0199102Y0119211D02*
X0213577Y0119211D01*
X0213577Y0120809D02*
X0210442Y0120809D01*
X0210501Y0120844D02*
X0210836Y0121179D01*
X0211073Y0121589D01*
X0211196Y0122047D01*
X0211196Y0124265D01*
X0207612Y0124265D01*
X0207612Y0120484D01*
X0209633Y0120484D01*
X0210091Y0120607D01*
X0210501Y0120844D01*
X0211196Y0122408D02*
X0213577Y0122408D01*
X0213577Y0124006D02*
X0211196Y0124006D01*
X0211196Y0125605D02*
X0213577Y0125605D01*
X0213577Y0127203D02*
X0211101Y0127203D01*
X0210896Y0128802D02*
X0213305Y0128802D01*
X0215340Y0131999D02*
X0226292Y0131999D01*
X0225159Y0133598D02*
X0210896Y0133598D01*
X0207427Y0131142D02*
X0198877Y0131142D01*
X0198327Y0131692D01*
X0198327Y0138996D01*
X0195794Y0141529D01*
X0188320Y0141529D01*
X0184381Y0143189D02*
X0177710Y0143189D01*
X0178013Y0141590D02*
X0184045Y0141590D01*
X0184330Y0139992D02*
X0178013Y0139992D01*
X0178013Y0138393D02*
X0185410Y0138393D01*
X0185414Y0136795D02*
X0165635Y0136795D01*
X0166553Y0135196D02*
X0180099Y0135196D01*
X0178501Y0133598D02*
X0177459Y0133598D01*
X0171040Y0133598D02*
X0166558Y0133598D01*
X0166752Y0131999D02*
X0170486Y0131999D01*
X0170486Y0130400D02*
X0168351Y0130400D01*
X0169949Y0128802D02*
X0170486Y0128802D01*
X0159696Y0133598D02*
X0155215Y0133598D01*
X0159702Y0135196D02*
X0150477Y0135196D01*
X0150477Y0136795D02*
X0160620Y0136795D01*
X0158215Y0139992D02*
X0155769Y0139992D01*
X0155769Y0141590D02*
X0156617Y0141590D01*
X0158652Y0144787D02*
X0159954Y0144787D01*
X0160183Y0144234D02*
X0161160Y0143257D01*
X0162436Y0142728D01*
X0163818Y0142728D01*
X0165095Y0143257D01*
X0166072Y0144234D01*
X0166600Y0145510D01*
X0166600Y0146892D01*
X0166072Y0148169D01*
X0165095Y0149146D01*
X0163818Y0149674D01*
X0162436Y0149674D01*
X0161160Y0149146D01*
X0160183Y0148169D01*
X0159654Y0146892D01*
X0159654Y0145510D01*
X0160183Y0144234D01*
X0160251Y0143189D02*
X0161325Y0143189D01*
X0164930Y0143189D02*
X0170789Y0143189D01*
X0166301Y0144787D02*
X0185533Y0144787D01*
X0191107Y0144787D02*
X0201907Y0144787D01*
X0200327Y0146386D02*
X0166600Y0146386D01*
X0166148Y0147984D02*
X0170486Y0147984D01*
X0170486Y0149583D02*
X0164040Y0149583D01*
X0162215Y0149583D02*
X0156443Y0149583D01*
X0155769Y0147984D02*
X0160106Y0147984D01*
X0159654Y0146386D02*
X0157054Y0146386D01*
X0158041Y0151181D02*
X0170486Y0151181D01*
X0170537Y0152780D02*
X0170340Y0152780D01*
X0171938Y0154378D02*
X0176181Y0154378D01*
X0178641Y0151181D02*
X0200276Y0151181D01*
X0200327Y0149583D02*
X0178013Y0149583D01*
X0178013Y0147984D02*
X0200327Y0147984D01*
X0197387Y0143189D02*
X0203506Y0143189D01*
X0204131Y0141590D02*
X0198986Y0141590D01*
X0200584Y0139992D02*
X0225459Y0139992D01*
X0225459Y0141590D02*
X0218123Y0141590D01*
X0225197Y0138393D02*
X0200627Y0138393D01*
X0202236Y0136795D02*
X0225159Y0136795D01*
X0225159Y0135196D02*
X0202977Y0135196D01*
X0202977Y0133598D02*
X0203959Y0133598D01*
X0203959Y0128802D02*
X0202977Y0128802D01*
X0202850Y0127203D02*
X0203753Y0127203D01*
X0203659Y0125605D02*
X0192595Y0125605D01*
X0192358Y0127203D02*
X0193805Y0127203D01*
X0193678Y0128802D02*
X0191344Y0128802D01*
X0191111Y0130400D02*
X0193678Y0130400D01*
X0193678Y0131999D02*
X0192261Y0131999D01*
X0192595Y0133598D02*
X0193678Y0133598D01*
X0193678Y0135196D02*
X0192309Y0135196D01*
X0191226Y0136795D02*
X0194419Y0136795D01*
X0195677Y0138393D02*
X0191230Y0138393D01*
X0192212Y0124006D02*
X0194291Y0124006D01*
X0193378Y0122408D02*
X0190993Y0122408D01*
X0191463Y0120809D02*
X0193378Y0120809D01*
X0197552Y0120809D02*
X0199102Y0120809D01*
X0199102Y0122408D02*
X0197552Y0122408D01*
X0197552Y0124006D02*
X0199102Y0124006D01*
X0202363Y0124006D02*
X0203659Y0124006D01*
X0203659Y0124265D02*
X0203659Y0122047D01*
X0203781Y0121589D01*
X0204018Y0121179D01*
X0204354Y0120844D01*
X0204764Y0120607D01*
X0205222Y0120484D01*
X0207243Y0120484D01*
X0207243Y0124265D01*
X0203659Y0124265D01*
X0203659Y0122408D02*
X0203277Y0122408D01*
X0203277Y0120809D02*
X0204413Y0120809D01*
X0207243Y0120809D02*
X0207612Y0120809D01*
X0207612Y0122408D02*
X0207243Y0122408D01*
X0207243Y0124006D02*
X0207612Y0124006D01*
X0203277Y0117612D02*
X0213577Y0117612D01*
X0213577Y0116014D02*
X0203277Y0116014D01*
X0203195Y0114415D02*
X0213577Y0114415D01*
X0213990Y0112817D02*
X0191582Y0112817D01*
X0192456Y0111218D02*
X0215588Y0111218D01*
X0217187Y0109620D02*
X0192595Y0109620D01*
X0197552Y0114415D02*
X0199102Y0114415D01*
X0199102Y0116014D02*
X0197552Y0116014D01*
X0197552Y0117612D02*
X0199102Y0117612D01*
X0217277Y0128802D02*
X0237752Y0128802D01*
X0237527Y0130400D02*
X0216939Y0130400D01*
X0228743Y0131999D02*
X0229112Y0131999D01*
X0229112Y0133598D02*
X0228743Y0133598D01*
X0228743Y0135196D02*
X0229112Y0135196D01*
X0232696Y0135196D02*
X0237827Y0135196D01*
X0237827Y0133598D02*
X0232696Y0133598D01*
X0231562Y0131999D02*
X0237527Y0131999D01*
X0241827Y0130400D02*
X0241827Y0130400D01*
X0241827Y0128802D02*
X0241827Y0128802D01*
X0238283Y0136795D02*
X0232696Y0136795D01*
X0232658Y0138393D02*
X0237877Y0138393D01*
X0237877Y0139992D02*
X0232396Y0139992D01*
X0232396Y0141590D02*
X0237877Y0141590D01*
X0237877Y0143189D02*
X0234748Y0143189D01*
X0237758Y0144787D02*
X0237877Y0144787D01*
X0255227Y0146386D02*
X0257189Y0146386D01*
X0258640Y0147984D02*
X0255227Y0147984D01*
X0255227Y0149583D02*
X0258377Y0149583D01*
X0258477Y0151181D02*
X0256191Y0151181D01*
X0257937Y0152780D02*
X0258677Y0152780D01*
X0258677Y0154378D02*
X0258227Y0154378D01*
X0258527Y0160772D02*
X0271927Y0160772D01*
X0271927Y0159174D02*
X0265696Y0159174D01*
X0266177Y0157575D02*
X0271927Y0157575D01*
X0275927Y0157575D02*
X0276665Y0157575D01*
X0276665Y0159174D02*
X0275927Y0159174D01*
X0275927Y0160772D02*
X0276665Y0160772D01*
X0276665Y0162371D02*
X0275927Y0162371D01*
X0275927Y0163969D02*
X0288327Y0163969D01*
X0288327Y0162371D02*
X0284389Y0162371D01*
X0287979Y0160772D02*
X0288327Y0160772D01*
X0288327Y0165568D02*
X0283379Y0165568D01*
X0283489Y0167166D02*
X0288327Y0167166D01*
X0288327Y0168765D02*
X0283489Y0168765D01*
X0283489Y0170363D02*
X0288327Y0170363D01*
X0288327Y0171962D02*
X0283173Y0171962D01*
X0283104Y0173560D02*
X0288327Y0173560D01*
X0288327Y0175159D02*
X0283489Y0175159D01*
X0283489Y0176757D02*
X0288327Y0176757D01*
X0288327Y0178356D02*
X0283489Y0178356D01*
X0276151Y0173560D02*
X0271927Y0173560D01*
X0271927Y0171962D02*
X0276081Y0171962D01*
X0273766Y0170363D02*
X0271927Y0170363D01*
X0271927Y0168765D02*
X0272168Y0168765D01*
X0271927Y0167166D02*
X0271243Y0167166D01*
X0271927Y0165568D02*
X0258527Y0165568D01*
X0258527Y0167166D02*
X0261611Y0167166D01*
X0260927Y0168765D02*
X0259077Y0168765D01*
X0260841Y0170363D02*
X0260927Y0170363D01*
X0266227Y0170363D02*
X0266627Y0170363D01*
X0266627Y0168765D02*
X0266227Y0168765D01*
X0266227Y0167166D02*
X0266627Y0167166D01*
X0266627Y0171962D02*
X0266227Y0171962D01*
X0266227Y0173560D02*
X0266627Y0173560D01*
X0266627Y0175159D02*
X0266227Y0175159D01*
X0266227Y0176757D02*
X0266627Y0176757D01*
X0271218Y0178356D02*
X0257799Y0178356D01*
X0255055Y0178356D02*
X0237799Y0178356D01*
X0235055Y0178356D02*
X0080473Y0178356D01*
X0093598Y0157575D02*
X0111781Y0157575D01*
X0104981Y0155977D02*
X0099974Y0155977D01*
X0100874Y0154378D02*
X0104243Y0154378D01*
X0104377Y0152780D02*
X0100861Y0152780D01*
X0099940Y0151181D02*
X0105414Y0151181D01*
X0102365Y0149583D02*
X0101389Y0149583D01*
X0101389Y0147984D02*
X0102365Y0147984D01*
X0102365Y0146386D02*
X0101389Y0146386D01*
X0101389Y0144787D02*
X0102365Y0144787D01*
X0102923Y0143189D02*
X0100732Y0143189D01*
X0101345Y0141590D02*
X0102510Y0141590D01*
X0102365Y0139992D02*
X0101389Y0139992D01*
X0101389Y0138393D02*
X0102365Y0138393D01*
X0102365Y0136795D02*
X0101389Y0136795D01*
X0101007Y0135196D02*
X0102647Y0135196D01*
X0104377Y0133598D02*
X0100611Y0133598D01*
X0094323Y0143189D02*
X0093732Y0143189D01*
X0124532Y0143189D02*
X0125123Y0143189D01*
X0131732Y0143189D02*
X0132523Y0143189D01*
X0138932Y0143189D02*
X0139223Y0143189D01*
X0146289Y0146386D02*
X0147201Y0146386D01*
X0146289Y0147984D02*
X0148241Y0147984D01*
X0148241Y0149583D02*
X0146289Y0149583D01*
X0148241Y0151181D02*
X0143877Y0151181D01*
X0145171Y0152780D02*
X0148293Y0152780D01*
X0138952Y0155977D02*
X0138861Y0155977D01*
X0132794Y0155977D02*
X0130761Y0155977D01*
X0131211Y0154378D02*
X0132343Y0154378D01*
X0132642Y0152780D02*
X0130912Y0152780D01*
X0130277Y0151181D02*
X0133977Y0151181D01*
X0155769Y0138393D02*
X0170486Y0138393D01*
X0171077Y0159174D02*
X0165094Y0159174D01*
X0221720Y0147984D02*
X0221720Y0147984D01*
X0238527Y0160772D02*
X0244527Y0160772D01*
X0244527Y0162371D02*
X0238527Y0162371D01*
X0238527Y0163969D02*
X0244527Y0163969D01*
X0250250Y0168765D02*
X0253778Y0168765D01*
X0252013Y0170363D02*
X0251255Y0170363D01*
X0251571Y0175159D02*
X0250870Y0175159D01*
X0249244Y0176757D02*
X0252535Y0176757D01*
X0260320Y0176757D02*
X0261088Y0176757D01*
X0243610Y0176757D02*
X0240320Y0176757D01*
X0241284Y0175159D02*
X0241985Y0175159D01*
X0258527Y0163969D02*
X0271927Y0163969D01*
X0271927Y0162371D02*
X0258527Y0162371D01*
X0266177Y0152780D02*
X0272627Y0152780D01*
X0271539Y0151181D02*
X0266377Y0151181D01*
X0266477Y0149583D02*
X0271467Y0149583D01*
X0272455Y0147984D02*
X0268392Y0147984D01*
X0276600Y0147984D02*
X0277459Y0147984D01*
X0283595Y0147984D02*
X0284017Y0147984D01*
X0284389Y0149583D02*
X0284727Y0149583D01*
X0284727Y0151181D02*
X0284389Y0151181D01*
X0284389Y0152780D02*
X0284727Y0152780D01*
X0284727Y0154378D02*
X0284389Y0154378D01*
X0284727Y0155977D02*
X0275927Y0155977D01*
X0276665Y0154378D02*
X0275038Y0154378D01*
X0284389Y0157575D02*
X0284727Y0157575D01*
X0181577Y0068059D02*
X0180742Y0068059D01*
X0180703Y0066460D02*
X0181577Y0066460D01*
X0180664Y0064862D02*
X0183145Y0064862D01*
X0184744Y0063263D02*
X0181057Y0063263D01*
X0181211Y0061664D02*
X0288327Y0061664D01*
X0288327Y0060066D02*
X0180525Y0060066D01*
X0180853Y0058467D02*
X0288327Y0058467D01*
X0288327Y0056869D02*
X0180853Y0056869D01*
X0180853Y0055270D02*
X0288327Y0055270D01*
X0288327Y0053672D02*
X0193267Y0053672D01*
X0194866Y0052073D02*
X0288327Y0052073D01*
X0288327Y0050475D02*
X0196464Y0050475D01*
X0197177Y0048876D02*
X0288327Y0048876D01*
X0288327Y0047278D02*
X0197177Y0047278D01*
X0198091Y0045679D02*
X0200746Y0045679D01*
X0199490Y0044081D02*
X0199348Y0044081D01*
X0205965Y0045679D02*
X0208620Y0045679D01*
X0207364Y0044081D02*
X0207222Y0044081D01*
X0213839Y0045679D02*
X0216494Y0045679D01*
X0215238Y0044081D02*
X0215096Y0044081D01*
X0221713Y0045679D02*
X0288327Y0045679D01*
X0288327Y0044081D02*
X0222970Y0044081D01*
X0223378Y0042482D02*
X0288327Y0042482D01*
X0288327Y0040884D02*
X0223167Y0040884D01*
X0222191Y0039285D02*
X0288327Y0039285D01*
X0288327Y0037687D02*
X0222256Y0037687D01*
X0223355Y0036088D02*
X0288327Y0036088D01*
X0288327Y0034490D02*
X0223678Y0034490D01*
X0223433Y0032891D02*
X0288327Y0032891D01*
X0288327Y0031293D02*
X0222496Y0031293D01*
X0219104Y0031293D02*
X0219104Y0031293D01*
X0219104Y0032891D02*
X0219104Y0032891D01*
X0215711Y0031293D02*
X0214198Y0031293D01*
X0208261Y0031293D02*
X0206324Y0031293D01*
X0200387Y0031293D02*
X0198450Y0031293D01*
X0192513Y0031293D02*
X0190576Y0031293D01*
X0184639Y0031293D02*
X0182702Y0031293D01*
X0176765Y0031293D02*
X0174828Y0031293D01*
X0168891Y0031293D02*
X0166954Y0031293D01*
X0161017Y0031293D02*
X0159080Y0031293D01*
X0153143Y0031293D02*
X0151206Y0031293D01*
X0145269Y0031293D02*
X0143332Y0031293D01*
X0137395Y0031293D02*
X0135458Y0031293D01*
X0129521Y0031293D02*
X0127584Y0031293D01*
X0121647Y0031293D02*
X0119710Y0031293D01*
X0113773Y0031293D02*
X0111836Y0031293D01*
X0110777Y0029694D02*
X0288327Y0029694D01*
X0288327Y0063263D02*
X0260811Y0063263D01*
X0169352Y0068059D02*
X0168377Y0068059D01*
X0158177Y0060066D02*
X0157225Y0060066D01*
X0158177Y0058467D02*
X0148964Y0058467D01*
X0149296Y0056869D02*
X0150636Y0056869D01*
X0150693Y0056926D02*
X0150358Y0056591D01*
X0150121Y0056180D01*
X0149998Y0055722D01*
X0149998Y0053517D01*
X0149998Y0051312D01*
X0150121Y0050854D01*
X0150358Y0050443D01*
X0150693Y0050108D01*
X0151103Y0049871D01*
X0151561Y0049749D01*
X0152389Y0049748D01*
X0152389Y0053517D01*
X0152389Y0053517D01*
X0152389Y0053517D01*
X0152389Y0057286D01*
X0151561Y0057286D01*
X0151103Y0057163D01*
X0150693Y0056926D01*
X0152389Y0056869D02*
X0152389Y0056869D01*
X0152389Y0055270D02*
X0152389Y0055270D01*
X0152389Y0053672D02*
X0152389Y0053672D01*
X0152389Y0053517D02*
X0152389Y0053517D01*
X0149998Y0053517D01*
X0152389Y0053517D01*
X0152389Y0052073D02*
X0152389Y0052073D01*
X0152389Y0050475D02*
X0152389Y0050475D01*
X0152948Y0048876D02*
X0149875Y0048876D01*
X0150339Y0050475D02*
X0148277Y0050475D01*
X0148807Y0052073D02*
X0149998Y0052073D01*
X0149998Y0053672D02*
X0149296Y0053672D01*
X0149296Y0055270D02*
X0149998Y0055270D01*
X0149596Y0060066D02*
X0152230Y0060066D01*
X0151300Y0061664D02*
X0149596Y0061664D01*
X0149596Y0063263D02*
X0151274Y0063263D01*
X0152166Y0064862D02*
X0149484Y0064862D01*
X0146012Y0064862D02*
X0145643Y0064862D01*
X0145643Y0063263D02*
X0146012Y0063263D01*
X0150427Y0047278D02*
X0152948Y0047278D01*
X0152948Y0045679D02*
X0150847Y0045679D01*
X0152104Y0044081D02*
X0152245Y0044081D01*
X0102877Y0099161D02*
X0095434Y0099161D01*
X0095434Y0099280D01*
X0095434Y0099950D01*
X0095311Y0100408D01*
X0095134Y0100715D01*
X0095134Y0100878D01*
X0100907Y0100878D01*
X0101282Y0100503D01*
X0103477Y0100503D01*
X0103477Y0099762D01*
X0102877Y0099161D01*
X0103477Y0100029D02*
X0095412Y0100029D01*
X0095434Y0099280D02*
X0091665Y0099280D01*
X0091665Y0099280D01*
X0091665Y0099280D01*
X0095434Y0099280D01*
X0131894Y0108021D02*
X0139637Y0108021D01*
X0138038Y0106423D02*
X0132189Y0106423D01*
X0132189Y0104824D02*
X0136440Y0104824D01*
X0058319Y0116014D02*
X0043325Y0116014D01*
X0057727Y0138393D02*
X0058127Y0138393D01*
X0058127Y0139992D02*
X0057727Y0139992D01*
X0057727Y0141590D02*
X0058127Y0141590D01*
X0058127Y0143189D02*
X0057727Y0143189D01*
X0057727Y0144787D02*
X0058127Y0144787D01*
X0058127Y0146386D02*
X0057727Y0146386D01*
X0057727Y0147984D02*
X0058127Y0147984D01*
X0058127Y0149583D02*
X0057727Y0149583D01*
X0057727Y0151181D02*
X0058127Y0151181D01*
X0058127Y0152780D02*
X0057727Y0152780D01*
D33*
X0084277Y0138721D03*
X0097427Y0153596D03*
X0091927Y0154496D03*
X0107727Y0153796D03*
X0112727Y0154196D03*
X0122227Y0154396D03*
X0127727Y0154196D03*
X0135827Y0154196D03*
X0142027Y0154296D03*
X0142227Y0131096D03*
X0136727Y0127596D03*
X0129027Y0128296D03*
X0122327Y0128496D03*
X0115227Y0128896D03*
X0143527Y0111396D03*
X0153127Y0111796D03*
X0143427Y0101396D03*
X0140027Y0097796D03*
X0136527Y0093396D03*
X0132427Y0096696D03*
X0128127Y0093696D03*
X0119327Y0084496D03*
X0106827Y0088096D03*
X0128927Y0070721D03*
X0135227Y0062996D03*
X0154727Y0062496D03*
X0170627Y0066496D03*
X0177727Y0062196D03*
X0191627Y0059396D03*
X0164527Y0082896D03*
X0158927Y0086696D03*
X0153427Y0080596D03*
X0148927Y0085596D03*
X0168027Y0104796D03*
X0171327Y0109896D03*
X0173527Y0116396D03*
X0229402Y0155996D03*
X0240727Y0164696D03*
X0251027Y0164396D03*
X0263427Y0163521D03*
X0270702Y0146396D03*
X0261602Y0131246D03*
X0249602Y0140371D03*
X0235027Y0135896D03*
X0254277Y0118496D03*
X0268577Y0121346D03*
X0283827Y0031496D03*
X0121727Y0048696D03*
X0109527Y0048796D03*
X0088327Y0069196D03*
X0068527Y0059096D03*
X0074727Y0050896D03*
X0064627Y0069096D03*
X0060427Y0082396D03*
X0065427Y0084796D03*
X0055377Y0093946D03*
X0051527Y0101496D03*
X0060527Y0109496D03*
X0064227Y0113196D03*
X0069127Y0115596D03*
X0076552Y0107171D03*
X0056927Y0126496D03*
X0050527Y0121896D03*
X0049227Y0132296D03*
X0035276Y0096848D03*
X0036464Y0052122D03*
X0045427Y0043896D03*
D34*
X0055927Y0080596D03*
X0068227Y0080696D03*
X0076027Y0082996D03*
X0068127Y0128496D03*
X0091827Y0133596D03*
X0097627Y0134496D03*
X0235027Y0146296D03*
X0247627Y0145996D03*
X0255127Y0154096D03*
X0274527Y0150296D03*
X0285627Y0145296D03*
X0273927Y0176796D03*
D35*
X0110927Y0108596D03*
D36*
X0105644Y0104168D02*
X0105644Y0103952D01*
X0098027Y0103952D01*
X0070012Y0120934D02*
X0070012Y0126612D01*
X0068127Y0128496D01*
X0058427Y0124996D02*
X0056927Y0126496D01*
X0135727Y0128596D02*
X0136727Y0127596D01*
X0135727Y0128596D02*
X0135727Y0138562D01*
X0142427Y0138562D02*
X0142427Y0131296D01*
X0142227Y0131096D01*
X0152005Y0130453D02*
X0165470Y0130453D01*
X0169727Y0126196D01*
X0187735Y0126196D01*
X0188320Y0125781D01*
X0181227Y0133496D02*
X0178185Y0130453D01*
X0174249Y0130453D01*
X0181227Y0133496D02*
X0188161Y0133496D01*
X0188320Y0133655D01*
X0202327Y0147196D02*
X0202327Y0150896D01*
X0203027Y0151796D01*
X0208235Y0151796D01*
X0208334Y0151797D01*
X0208295Y0149237D02*
X0212786Y0149237D01*
X0213827Y0148196D01*
X0213827Y0144896D01*
X0214627Y0144096D01*
X0228927Y0144096D01*
X0232827Y0144096D01*
X0235027Y0146296D01*
X0237527Y0149796D02*
X0236527Y0150596D01*
X0236527Y0163996D01*
X0236527Y0173196D01*
X0236427Y0173296D01*
X0246427Y0172296D02*
X0246527Y0172196D01*
X0246527Y0159096D01*
X0244627Y0157196D01*
X0241677Y0157196D01*
X0241627Y0157246D01*
X0241627Y0154746D02*
X0241627Y0152246D01*
X0253077Y0152246D01*
X0253227Y0152396D01*
X0253227Y0144496D01*
X0253627Y0144096D01*
X0257727Y0144096D01*
X0258527Y0144896D01*
X0262277Y0144896D01*
X0262427Y0144746D01*
X0262427Y0147246D02*
X0266302Y0147246D01*
X0267227Y0146321D01*
X0267227Y0127821D01*
X0266077Y0126671D01*
X0261602Y0131246D02*
X0262427Y0132071D01*
X0262427Y0139746D01*
X0247627Y0145896D02*
X0246527Y0144796D01*
X0241677Y0144796D01*
X0241627Y0144746D01*
X0241627Y0149746D02*
X0241077Y0149796D01*
X0237527Y0149796D01*
X0229052Y0149946D02*
X0229052Y0150521D01*
X0227752Y0151821D01*
X0221744Y0151821D01*
X0221720Y0151797D01*
X0221720Y0154395D02*
X0221771Y0154446D01*
X0227777Y0154446D01*
X0229327Y0155996D01*
X0229402Y0155996D01*
X0214474Y0144196D02*
X0213827Y0144842D01*
X0213827Y0144896D01*
X0207781Y0144196D02*
X0205227Y0144296D01*
X0202327Y0147196D01*
X0208255Y0154296D02*
X0208334Y0154375D01*
X0208255Y0154296D02*
X0178927Y0154296D01*
X0174770Y0150138D01*
X0174249Y0150138D01*
X0168027Y0153296D02*
X0172027Y0157296D01*
X0207993Y0157296D01*
X0208374Y0156915D01*
X0241627Y0139746D02*
X0241627Y0134667D01*
X0241827Y0134467D01*
X0247627Y0145896D02*
X0247627Y0145996D01*
X0253227Y0152396D02*
X0253227Y0153096D01*
X0254227Y0154096D01*
X0255127Y0154096D01*
X0257627Y0157496D02*
X0262177Y0157496D01*
X0262427Y0157246D01*
X0262577Y0154896D02*
X0262427Y0154746D01*
X0262577Y0154896D02*
X0272727Y0154896D01*
X0273927Y0156096D01*
X0273927Y0167696D01*
X0274893Y0168662D01*
X0279627Y0168662D01*
X0279627Y0176930D02*
X0274061Y0176930D01*
X0273927Y0176796D01*
X0256527Y0173196D02*
X0256427Y0173296D01*
X0256527Y0173196D02*
X0256527Y0158596D01*
X0257627Y0157496D01*
X0274527Y0150296D02*
X0275993Y0151762D01*
X0280527Y0151762D01*
X0286727Y0146396D02*
X0285627Y0145296D01*
X0286727Y0146396D02*
X0286727Y0159196D01*
X0285893Y0160030D01*
X0280527Y0160030D01*
X0274934Y0102159D02*
X0267418Y0102159D01*
X0178727Y0067496D02*
X0178627Y0063396D01*
X0177727Y0062196D01*
X0165527Y0062096D02*
X0165527Y0059542D01*
X0165527Y0062096D02*
X0163927Y0063696D01*
X0163052Y0053517D02*
X0160066Y0053517D01*
X0157507Y0053517D02*
X0157507Y0048316D01*
X0158527Y0047296D01*
X0163027Y0047296D01*
X0164027Y0046296D01*
X0164027Y0042286D01*
X0163986Y0042244D01*
X0156112Y0042244D02*
X0154948Y0043408D01*
X0154948Y0053517D01*
X0163052Y0053517D02*
X0165527Y0052849D01*
X0148427Y0047496D02*
X0148427Y0042434D01*
X0148237Y0042244D01*
X0148427Y0047496D02*
X0145927Y0049996D01*
X0138527Y0049996D01*
X0137807Y0050716D01*
X0137807Y0055417D01*
X0140366Y0055417D02*
X0140434Y0055349D01*
X0145827Y0055349D01*
X0140441Y0055042D02*
X0140366Y0055417D01*
X0135248Y0055417D02*
X0135248Y0049075D01*
X0136727Y0047596D01*
X0139327Y0047596D01*
X0140427Y0046496D01*
X0140427Y0042308D01*
X0140363Y0042244D01*
X0148627Y0093149D02*
X0148627Y0099842D01*
X0157827Y0099542D02*
X0157827Y0092849D01*
X0164627Y0093049D02*
X0164627Y0099742D01*
X0142427Y0146830D02*
X0142027Y0147230D01*
X0142027Y0148541D01*
X0135827Y0149230D02*
X0135827Y0146930D01*
X0135727Y0146830D01*
X0152005Y0150138D02*
X0154170Y0150138D01*
X0157327Y0153296D01*
X0168027Y0153296D01*
X0045527Y0065862D02*
X0045527Y0060092D01*
X0045427Y0044796D02*
X0045427Y0043896D01*
D37*
X0048727Y0042996D02*
X0084727Y0042996D01*
X0087574Y0045842D01*
X0087574Y0062996D01*
X0087574Y0054496D01*
X0080881Y0054496D02*
X0074606Y0054496D01*
X0074046Y0055056D01*
X0074046Y0062536D02*
X0074506Y0062996D01*
X0080881Y0062996D01*
X0154727Y0062496D02*
X0156727Y0062496D01*
D38*
X0063809Y0055056D02*
X0062887Y0055056D01*
X0059927Y0052096D01*
X0054723Y0052096D01*
X0054127Y0051500D01*
X0052543Y0053084D01*
X0052543Y0053399D01*
X0045527Y0053399D01*
X0077927Y0145296D02*
X0077727Y0145496D01*
X0077727Y0157696D01*
X0075901Y0159522D01*
X0072513Y0159522D01*
X0097427Y0148041D02*
X0097627Y0146830D01*
X0097527Y0146830D01*
X0188320Y0141529D02*
X0188557Y0141292D01*
D39*
X0072513Y0159522D02*
X0045741Y0159522D01*
X0052543Y0053399D02*
X0052543Y0046811D01*
X0051527Y0045796D01*
X0050727Y0045796D01*
X0047927Y0042996D01*
X0046327Y0042996D01*
X0045427Y0043896D01*
D40*
X0086427Y0092496D03*
X0229052Y0149946D03*
X0266077Y0126671D03*
M02*
