%
M48
M72
T01C0.0120
T02C0.0130
T03C0.0197
T04C0.0236
T05C0.0315
T06C0.0335
T07C0.0400
T08C0.1378
%
T01
X5593Y8060
X6823Y8070
X7603Y8300
X6813Y12850
X9183Y13360
X9763Y13450
X23503Y14630
X24763Y14600
X25513Y15410
X27453Y15030
X28563Y14530
X27393Y17680
T02
X11093Y10860
T03
X12813Y9370
X13243Y9670
X13653Y9340
X14003Y9780
X14343Y10140
X14353Y11140
X15313Y11180
X16803Y10480
X17133Y10990
X17353Y11640
X14223Y13110
X13673Y12760
X12903Y12830
X12233Y12850
X11523Y12890
X8428Y13872
X9743Y15360
X9193Y15450
X10773Y15380
X11273Y15420
X12223Y15440
X12773Y15420
X13583Y15420
X14203Y15430
X7655Y10717
X6913Y11560
X6423Y11320
X6053Y10950
X5153Y10150
X5538Y9395
X6543Y8480
X6043Y8240
X6463Y6910
X6853Y5910
X7473Y5090
X8833Y6920
X10683Y8810
X11933Y8450
X12893Y7072
X13523Y6300
X15473Y6250
X17063Y6650
X17773Y6220
X19163Y5940
X16453Y8290
X15893Y8670
X15343Y8060
X14893Y8560
X12173Y4870
X10953Y4880
X3646Y5212
X3528Y9685
X5053Y12190
X5693Y12650
X4923Y13230
X22940Y15600
X24073Y16470
X25103Y16440
X26343Y16352
X27070Y14640
X26160Y13125
X24960Y14037
X23503Y13590
X25428Y11850
X26858Y12135
X28383Y3150
T04
X4965Y4300
X8643Y9250
X22905Y14995
X26608Y12667
T05
X27493Y12578
X27493Y11791
X27493Y11003
X27493Y10216
X27493Y9428
X27493Y8641
X27493Y7854
X27493Y7066
X21910Y4224
X21123Y4224
X20336Y4224
X19548Y4224
X18761Y4224
X17973Y4224
X17186Y4224
X16399Y4224
X15611Y4224
X14824Y4224
X14036Y4224
X13249Y4224
X12462Y4224
X11674Y4224
X10887Y4224
X10099Y4224
X10099Y3437
X10887Y3437
X11674Y3437
X12462Y3437
X13249Y3437
X14036Y3437
X14824Y3437
X15611Y3437
X16399Y3437
X17186Y3437
X17973Y3437
X18761Y3437
X19548Y3437
X20336Y3437
X21123Y3437
X21910Y3437
X18832Y7066
X18832Y7854
X18832Y8641
X18832Y9428
X18832Y10216
X18832Y11003
X18832Y11791
X18832Y12578
X18832Y13365
X18832Y14153
X27493Y14153
X27493Y13365
T06
X16313Y13439
X16313Y14620
T07
X23643Y17330
X24643Y17230
X25643Y17330
X26643Y17230
X7793Y14530
X6793Y14630
X5793Y14530
X4793Y14630
X3793Y14530
T08
X16013Y16650
M30
