G75*
%MOIN*%
%OFA0B0*%
%FSLAX25Y25*%
%IPPOS*%
%LPD*%
%AMOC8*
5,1,8,0,0,1.08239X$1,22.5*
%
%ADD10C,0.06000*%
%ADD11R,0.02500X0.05000*%
%ADD12R,0.04300X0.06300*%
%ADD13R,0.06300X0.06300*%
%ADD14R,0.05150X0.05150*%
%ADD15C,0.05150*%
%ADD16R,0.04724X0.03150*%
%ADD17R,0.04724X0.02362*%
%ADD18R,0.04724X0.04724*%
%ADD19R,0.03150X0.04724*%
%ADD20R,0.01969X0.05906*%
%ADD21R,0.05906X0.01969*%
%ADD22R,0.03200X0.01600*%
%ADD23R,0.04724X0.02165*%
%ADD24R,0.03150X0.03543*%
%ADD25R,0.07087X0.06299*%
%ADD26R,0.07480X0.06299*%
%ADD27R,0.07400X0.07400*%
%ADD28C,0.07400*%
%ADD29R,0.01575X0.02953*%
%ADD30R,0.02165X0.04724*%
%ADD31R,0.08700X0.02400*%
%ADD32R,0.04331X0.03937*%
%ADD33R,0.03937X0.04331*%
%ADD34C,0.01000*%
%ADD35C,0.00700*%
%ADD36C,0.02800*%
%ADD37C,0.01200*%
%ADD38C,0.03569*%
%ADD39C,0.03962*%
%ADD40C,0.02400*%
%ADD41C,0.01600*%
D10*
X0173400Y0150100D02*
X0173400Y0156100D01*
X0183400Y0157100D02*
X0183400Y0151100D01*
X0193400Y0150100D02*
X0193400Y0156100D01*
X0203400Y0157100D02*
X0203400Y0151100D01*
X0213400Y0150100D02*
X0213400Y0156100D01*
D11*
X0222728Y0154300D03*
X0226272Y0154300D03*
X0159872Y0059500D03*
X0156328Y0059500D03*
D12*
X0113500Y0140600D03*
X0104100Y0140600D03*
X0090500Y0140900D03*
X0081100Y0140900D03*
X0068900Y0141100D03*
X0059500Y0141100D03*
X0045800Y0141100D03*
X0036400Y0141100D03*
X0024300Y0140800D03*
X0014900Y0140800D03*
D13*
X0019600Y0152200D03*
X0041100Y0152500D03*
X0064200Y0152500D03*
X0085800Y0152300D03*
X0108800Y0152000D03*
D14*
X0077366Y0025248D03*
D15*
X0085240Y0025248D03*
X0093114Y0025248D03*
X0100988Y0025248D03*
X0108862Y0025248D03*
X0116736Y0025248D03*
X0124610Y0025248D03*
X0132484Y0025248D03*
X0140358Y0025248D03*
X0148232Y0025248D03*
X0156106Y0025248D03*
X0163980Y0025248D03*
X0171854Y0025248D03*
X0179728Y0025248D03*
X0187602Y0025248D03*
X0195476Y0025248D03*
X0195476Y0017374D03*
X0187602Y0017374D03*
X0179728Y0017374D03*
X0171854Y0017374D03*
X0163980Y0017374D03*
X0156106Y0017374D03*
X0148232Y0017374D03*
X0140358Y0017374D03*
X0132484Y0017374D03*
X0124610Y0017374D03*
X0116736Y0017374D03*
X0108862Y0017374D03*
X0100988Y0017374D03*
X0093114Y0017374D03*
X0085240Y0017374D03*
X0077366Y0017374D03*
D16*
X0081200Y0045957D03*
X0081200Y0053043D03*
X0102600Y0058457D03*
X0102600Y0065543D03*
X0084200Y0085857D03*
X0077700Y0085957D03*
X0071200Y0086857D03*
X0071200Y0093943D03*
X0077700Y0093043D03*
X0084200Y0092943D03*
X0120800Y0102657D03*
X0120800Y0109743D03*
X0137400Y0096143D03*
X0137400Y0089057D03*
X0147000Y0073643D03*
X0153600Y0073743D03*
X0153600Y0066657D03*
X0147000Y0066557D03*
X0139600Y0068943D03*
X0139600Y0061857D03*
X0139600Y0056843D03*
X0146100Y0056843D03*
X0146100Y0049757D03*
X0139600Y0049757D03*
X0018200Y0067757D03*
X0016400Y0061943D03*
X0016400Y0054857D03*
X0018200Y0074843D03*
D17*
X0091776Y0074800D03*
X0091776Y0079800D03*
X0091776Y0084800D03*
X0091776Y0089800D03*
X0091776Y0094800D03*
X0091776Y0099800D03*
X0091776Y0104800D03*
X0091776Y0109800D03*
X0113824Y0109800D03*
X0113824Y0104800D03*
X0113824Y0099800D03*
X0113824Y0094800D03*
X0113824Y0089800D03*
X0113824Y0084800D03*
X0113824Y0079800D03*
X0113824Y0074800D03*
D18*
X0144966Y0094400D03*
X0153234Y0094400D03*
X0174266Y0073200D03*
X0182534Y0073200D03*
X0146034Y0043800D03*
X0137766Y0043800D03*
X0056400Y0101666D03*
X0056400Y0109934D03*
X0016900Y0106266D03*
X0016900Y0114534D03*
X0016300Y0049234D03*
X0016300Y0040966D03*
X0022766Y0040200D03*
X0031034Y0040200D03*
X0251566Y0114900D03*
X0259834Y0114900D03*
X0260034Y0127400D03*
X0251766Y0127400D03*
D19*
X0236443Y0135500D03*
X0229357Y0135500D03*
X0168243Y0094300D03*
X0161157Y0094300D03*
X0174257Y0080200D03*
X0181343Y0080200D03*
X0182357Y0055700D03*
X0189443Y0055700D03*
X0199757Y0055700D03*
X0206843Y0055700D03*
X0049343Y0101700D03*
X0042257Y0101700D03*
X0036543Y0101500D03*
X0029457Y0101500D03*
X0025543Y0120900D03*
X0030557Y0121000D03*
X0037643Y0121000D03*
X0018457Y0120900D03*
X0033857Y0081100D03*
X0040943Y0081100D03*
X0041143Y0073900D03*
X0034057Y0073900D03*
X0036557Y0054300D03*
X0043643Y0054300D03*
X0043643Y0046900D03*
X0036557Y0046900D03*
X0036557Y0040300D03*
X0043643Y0040300D03*
D20*
X0194852Y0074965D03*
X0198002Y0074965D03*
X0201151Y0074965D03*
X0204301Y0074965D03*
X0207450Y0074965D03*
X0210600Y0074965D03*
X0213750Y0074965D03*
X0216899Y0074965D03*
X0220049Y0074965D03*
X0223198Y0074965D03*
X0226348Y0074965D03*
X0226348Y0120635D03*
X0223198Y0120635D03*
X0220049Y0120635D03*
X0216899Y0120635D03*
X0213750Y0120635D03*
X0210600Y0120635D03*
X0207450Y0120635D03*
X0204301Y0120635D03*
X0201151Y0120635D03*
X0198002Y0120635D03*
X0194852Y0120635D03*
D21*
X0187765Y0113548D03*
X0187765Y0110398D03*
X0187765Y0107249D03*
X0187765Y0104099D03*
X0187765Y0100950D03*
X0187765Y0097800D03*
X0187765Y0094650D03*
X0187765Y0091501D03*
X0187765Y0088351D03*
X0187765Y0085202D03*
X0187765Y0082052D03*
X0233435Y0082052D03*
X0233435Y0085202D03*
X0233435Y0088351D03*
X0233435Y0091501D03*
X0233435Y0094650D03*
X0233435Y0097800D03*
X0233435Y0100950D03*
X0233435Y0104099D03*
X0233435Y0107249D03*
X0233435Y0110398D03*
X0233435Y0113548D03*
D22*
X0229246Y0055016D03*
X0229246Y0052457D03*
X0229246Y0049898D03*
X0229246Y0047339D03*
X0229246Y0044780D03*
X0229246Y0042220D03*
X0229246Y0039661D03*
X0229246Y0037102D03*
X0229246Y0034543D03*
X0229246Y0031984D03*
X0259954Y0031984D03*
X0259954Y0034543D03*
X0259954Y0037102D03*
X0259954Y0039661D03*
X0259954Y0042220D03*
X0259954Y0044780D03*
X0259954Y0047339D03*
X0259954Y0049898D03*
X0259954Y0052457D03*
X0259954Y0055016D03*
D23*
X0229918Y0059760D03*
X0229918Y0063500D03*
X0229918Y0067240D03*
X0219682Y0067240D03*
X0219682Y0063500D03*
X0219682Y0059760D03*
X0229281Y0140860D03*
X0229281Y0148340D03*
X0239519Y0148340D03*
X0239519Y0144600D03*
X0239519Y0140860D03*
X0052519Y0096240D03*
X0042281Y0096240D03*
X0042281Y0092500D03*
X0042281Y0088760D03*
X0052519Y0088760D03*
X0039719Y0107560D03*
X0039719Y0111300D03*
X0039719Y0115040D03*
X0029481Y0115040D03*
X0029481Y0107560D03*
X0031581Y0067640D03*
X0031581Y0063900D03*
X0031581Y0060160D03*
X0041819Y0060160D03*
X0041819Y0067640D03*
D24*
X0027140Y0081063D03*
X0019660Y0081063D03*
X0023400Y0089331D03*
D25*
X0050200Y0072112D03*
X0050200Y0061088D03*
D26*
X0052804Y0021000D03*
X0065796Y0021000D03*
D27*
X0145500Y0123600D03*
X0167100Y0123400D03*
D28*
X0156100Y0123400D03*
X0134500Y0123600D03*
D29*
X0097759Y0065848D03*
X0092641Y0065848D03*
X0092641Y0059352D03*
X0095200Y0059352D03*
X0097759Y0059352D03*
D30*
X0152360Y0059419D03*
X0159840Y0059419D03*
X0159840Y0049181D03*
X0156100Y0049181D03*
X0152360Y0049181D03*
X0083140Y0099581D03*
X0079400Y0099581D03*
X0075660Y0099581D03*
X0075660Y0109819D03*
X0079400Y0109819D03*
X0083140Y0109819D03*
D31*
X0089300Y0053600D03*
X0089300Y0048600D03*
X0089300Y0043600D03*
X0089300Y0038600D03*
X0109900Y0038600D03*
X0109900Y0043600D03*
X0109900Y0048600D03*
X0109900Y0053600D03*
D32*
X0081846Y0038900D03*
X0075154Y0038900D03*
X0036446Y0095800D03*
X0029754Y0095800D03*
X0021646Y0095200D03*
X0014954Y0095200D03*
X0042854Y0121700D03*
X0049546Y0121700D03*
X0071354Y0130600D03*
X0078046Y0130600D03*
X0082154Y0116000D03*
X0088846Y0116000D03*
X0224154Y0127400D03*
X0230846Y0127400D03*
X0239754Y0127400D03*
X0246446Y0127400D03*
X0245746Y0115100D03*
X0239054Y0115100D03*
D33*
X0159800Y0074146D03*
X0159800Y0067454D03*
X0133500Y0069246D03*
X0133500Y0062554D03*
X0121400Y0046046D03*
X0121400Y0039354D03*
X0031500Y0047154D03*
X0031500Y0053846D03*
X0089800Y0122654D03*
X0089800Y0129346D03*
D34*
X0011000Y0027067D02*
X0011000Y0014000D01*
X0075386Y0014000D01*
X0075171Y0014089D01*
X0074081Y0015179D01*
X0073491Y0016603D01*
X0073491Y0018145D01*
X0074081Y0019569D01*
X0075171Y0020659D01*
X0076595Y0021249D01*
X0078137Y0021249D01*
X0079561Y0020659D01*
X0080651Y0019569D01*
X0081241Y0018145D01*
X0081241Y0016603D01*
X0080651Y0015179D01*
X0079561Y0014089D01*
X0079346Y0014000D01*
X0083260Y0014000D01*
X0083045Y0014089D01*
X0081955Y0015179D01*
X0081365Y0016603D01*
X0081365Y0018145D01*
X0081955Y0019569D01*
X0083045Y0020659D01*
X0084469Y0021249D01*
X0086011Y0021249D01*
X0087435Y0020659D01*
X0088525Y0019569D01*
X0089115Y0018145D01*
X0089115Y0016603D01*
X0088525Y0015179D01*
X0087435Y0014089D01*
X0087220Y0014000D01*
X0091134Y0014000D01*
X0090919Y0014089D01*
X0089829Y0015179D01*
X0089239Y0016603D01*
X0089239Y0018145D01*
X0089829Y0019569D01*
X0090919Y0020659D01*
X0092343Y0021249D01*
X0093885Y0021249D01*
X0095309Y0020659D01*
X0095350Y0020618D01*
X0095350Y0022004D01*
X0095309Y0021963D01*
X0093885Y0021373D01*
X0092343Y0021373D01*
X0090919Y0021963D01*
X0089829Y0023053D01*
X0089239Y0024477D01*
X0089239Y0026019D01*
X0089829Y0027443D01*
X0090919Y0028533D01*
X0091464Y0028759D01*
X0091464Y0029498D01*
X0096650Y0034683D01*
X0096650Y0041917D01*
X0096517Y0042050D01*
X0094950Y0042050D01*
X0094950Y0041862D01*
X0094265Y0041177D01*
X0094571Y0041000D01*
X0094850Y0040721D01*
X0095048Y0040379D01*
X0095150Y0039997D01*
X0095150Y0038700D01*
X0089400Y0038700D01*
X0089400Y0038500D01*
X0095150Y0038500D01*
X0095150Y0037203D01*
X0095048Y0036821D01*
X0094850Y0036479D01*
X0094571Y0036200D01*
X0094229Y0036002D01*
X0093847Y0035900D01*
X0089400Y0035900D01*
X0089400Y0038500D01*
X0089200Y0038500D01*
X0089200Y0035900D01*
X0084819Y0035900D01*
X0084550Y0035631D01*
X0079143Y0035631D01*
X0078500Y0036274D01*
X0077857Y0035631D01*
X0072450Y0035631D01*
X0071688Y0036393D01*
X0071688Y0041153D01*
X0069000Y0038464D01*
X0069000Y0025450D01*
X0070075Y0025450D01*
X0070244Y0025280D01*
X0072332Y0027367D01*
X0073251Y0027748D01*
X0073491Y0027748D01*
X0073491Y0028361D01*
X0074253Y0029123D01*
X0080479Y0029123D01*
X0081241Y0028361D01*
X0081241Y0022135D01*
X0080479Y0021373D01*
X0074253Y0021373D01*
X0073831Y0021795D01*
X0071719Y0019684D01*
X0071016Y0018981D01*
X0070836Y0018906D01*
X0070836Y0017312D01*
X0070075Y0016550D01*
X0061517Y0016550D01*
X0060756Y0017312D01*
X0060756Y0024688D01*
X0061517Y0025450D01*
X0064000Y0025450D01*
X0064000Y0039997D01*
X0064381Y0040916D01*
X0070000Y0046536D01*
X0070000Y0064997D01*
X0070381Y0065916D01*
X0073881Y0069416D01*
X0074584Y0070119D01*
X0075503Y0070500D01*
X0085964Y0070500D01*
X0087884Y0072419D01*
X0088514Y0072680D01*
X0088195Y0073000D01*
X0078913Y0073000D01*
X0077800Y0074113D01*
X0075800Y0076113D01*
X0075800Y0083082D01*
X0074799Y0083082D01*
X0074038Y0083843D01*
X0074038Y0083856D01*
X0073760Y0083782D01*
X0071487Y0083782D01*
X0071487Y0086569D01*
X0070913Y0086569D01*
X0070913Y0083782D01*
X0068640Y0083782D01*
X0068259Y0083884D01*
X0067917Y0084082D01*
X0067638Y0084361D01*
X0067440Y0084703D01*
X0067338Y0085084D01*
X0067338Y0086569D01*
X0070913Y0086569D01*
X0070913Y0087144D01*
X0070913Y0089931D01*
X0068640Y0089931D01*
X0068259Y0089829D01*
X0067917Y0089632D01*
X0067638Y0089353D01*
X0067440Y0089010D01*
X0067338Y0088629D01*
X0067338Y0087144D01*
X0070913Y0087144D01*
X0071487Y0087144D01*
X0071487Y0089931D01*
X0073760Y0089931D01*
X0074141Y0089829D01*
X0074483Y0089632D01*
X0074762Y0089353D01*
X0074960Y0089010D01*
X0075008Y0088831D01*
X0080601Y0088831D01*
X0080859Y0088574D01*
X0080917Y0088632D01*
X0081259Y0088829D01*
X0081640Y0088931D01*
X0083913Y0088931D01*
X0083913Y0086144D01*
X0084487Y0086144D01*
X0084487Y0088931D01*
X0086760Y0088931D01*
X0087141Y0088829D01*
X0087483Y0088632D01*
X0087762Y0088353D01*
X0087960Y0088010D01*
X0088062Y0087629D01*
X0088062Y0086144D01*
X0084487Y0086144D01*
X0084487Y0085569D01*
X0084487Y0082782D01*
X0086760Y0082782D01*
X0087141Y0082884D01*
X0087483Y0083082D01*
X0087762Y0083361D01*
X0087960Y0083703D01*
X0088062Y0084084D01*
X0088062Y0085569D01*
X0084487Y0085569D01*
X0083913Y0085569D01*
X0083913Y0082782D01*
X0081640Y0082782D01*
X0081259Y0082884D01*
X0080917Y0083082D01*
X0080759Y0083240D01*
X0080601Y0083082D01*
X0079600Y0083082D01*
X0079600Y0077687D01*
X0080487Y0076800D01*
X0088395Y0076800D01*
X0088876Y0077281D01*
X0094677Y0077281D01*
X0095439Y0076520D01*
X0095439Y0073080D01*
X0094677Y0072319D01*
X0094541Y0072319D01*
X0094541Y0072018D01*
X0094930Y0071629D01*
X0095341Y0070637D01*
X0095341Y0069563D01*
X0094930Y0068571D01*
X0094541Y0068182D01*
X0094541Y0068050D01*
X0094728Y0067863D01*
X0094728Y0063833D01*
X0093967Y0063072D01*
X0091315Y0063072D01*
X0090554Y0063833D01*
X0090554Y0067800D01*
X0090336Y0067800D01*
X0088416Y0065881D01*
X0087497Y0065500D01*
X0077036Y0065500D01*
X0075000Y0063464D01*
X0075000Y0045003D01*
X0074619Y0044084D01*
X0073916Y0043381D01*
X0072704Y0042168D01*
X0077857Y0042168D01*
X0078500Y0041526D01*
X0079143Y0042168D01*
X0080050Y0042168D01*
X0080050Y0042783D01*
X0080148Y0042882D01*
X0078640Y0042882D01*
X0078259Y0042984D01*
X0077917Y0043182D01*
X0077638Y0043461D01*
X0077440Y0043803D01*
X0077338Y0044184D01*
X0077338Y0045669D01*
X0080913Y0045669D01*
X0080913Y0046244D01*
X0080913Y0049031D01*
X0078640Y0049031D01*
X0078259Y0048929D01*
X0077917Y0048732D01*
X0077638Y0048453D01*
X0077440Y0048110D01*
X0077338Y0047729D01*
X0077338Y0046244D01*
X0080913Y0046244D01*
X0081487Y0046244D01*
X0081487Y0049031D01*
X0083650Y0049031D01*
X0083650Y0050169D01*
X0078299Y0050169D01*
X0077538Y0050930D01*
X0077538Y0055157D01*
X0078299Y0055918D01*
X0084101Y0055918D01*
X0084165Y0055854D01*
X0084412Y0056100D01*
X0090841Y0056100D01*
X0090841Y0057050D01*
X0090554Y0057337D01*
X0090554Y0061367D01*
X0091315Y0062128D01*
X0096223Y0062128D01*
X0096393Y0062226D01*
X0096774Y0062328D01*
X0097759Y0062328D01*
X0097759Y0059352D01*
X0097759Y0059352D01*
X0097759Y0062328D01*
X0098744Y0062328D01*
X0099125Y0062226D01*
X0099467Y0062029D01*
X0099747Y0061749D01*
X0099944Y0061407D01*
X0099965Y0061331D01*
X0105501Y0061331D01*
X0106262Y0060570D01*
X0106262Y0056343D01*
X0106019Y0056100D01*
X0107492Y0056100D01*
X0107300Y0056563D01*
X0107300Y0057637D01*
X0107711Y0058629D01*
X0108471Y0059389D01*
X0109463Y0059800D01*
X0110537Y0059800D01*
X0111529Y0059389D01*
X0112289Y0058629D01*
X0112700Y0057637D01*
X0112700Y0056563D01*
X0112508Y0056100D01*
X0114150Y0056100D01*
X0114150Y0070483D01*
X0115117Y0071450D01*
X0115985Y0072319D01*
X0110923Y0072319D01*
X0110161Y0073080D01*
X0110161Y0076520D01*
X0110923Y0077281D01*
X0116724Y0077281D01*
X0117486Y0076520D01*
X0117486Y0073819D01*
X0118950Y0075283D01*
X0118950Y0095983D01*
X0119917Y0096950D01*
X0122748Y0099782D01*
X0122450Y0099782D01*
X0122450Y0099717D01*
X0121483Y0098750D01*
X0120883Y0098150D01*
X0117486Y0098150D01*
X0117486Y0098080D01*
X0116724Y0097319D01*
X0110923Y0097319D01*
X0110161Y0098080D01*
X0110161Y0101520D01*
X0110923Y0102281D01*
X0116724Y0102281D01*
X0117138Y0101868D01*
X0117138Y0102732D01*
X0116724Y0102319D01*
X0110923Y0102319D01*
X0110161Y0103080D01*
X0110161Y0103150D01*
X0109417Y0103150D01*
X0108764Y0103802D01*
X0108250Y0103288D01*
X0108250Y0096783D01*
X0108583Y0096450D01*
X0110161Y0096450D01*
X0110161Y0096520D01*
X0110923Y0097281D01*
X0116724Y0097281D01*
X0117486Y0096520D01*
X0117486Y0093080D01*
X0116724Y0092319D01*
X0110923Y0092319D01*
X0110161Y0093080D01*
X0110161Y0093150D01*
X0107217Y0093150D01*
X0105917Y0094450D01*
X0104950Y0095417D01*
X0104950Y0103062D01*
X0104653Y0103185D01*
X0103785Y0104053D01*
X0103316Y0105186D01*
X0103316Y0106413D01*
X0103785Y0107547D01*
X0103788Y0107550D01*
X0103183Y0107550D01*
X0102950Y0107317D01*
X0102950Y0104068D01*
X0103589Y0103429D01*
X0104000Y0102437D01*
X0104000Y0101363D01*
X0103589Y0100371D01*
X0102829Y0099611D01*
X0101837Y0099200D01*
X0100763Y0099200D01*
X0099850Y0099578D01*
X0099850Y0083383D01*
X0100583Y0082650D01*
X0103759Y0082650D01*
X0104363Y0082900D01*
X0105437Y0082900D01*
X0106429Y0082489D01*
X0107189Y0081729D01*
X0107600Y0080737D01*
X0107600Y0079663D01*
X0107189Y0078671D01*
X0106429Y0077911D01*
X0105437Y0077500D01*
X0104363Y0077500D01*
X0103371Y0077911D01*
X0102611Y0078671D01*
X0102330Y0079350D01*
X0099217Y0079350D01*
X0098250Y0080317D01*
X0096550Y0082017D01*
X0096550Y0103150D01*
X0095439Y0103150D01*
X0095439Y0103080D01*
X0094677Y0102319D01*
X0088876Y0102319D01*
X0088114Y0103080D01*
X0088114Y0106520D01*
X0088876Y0107281D01*
X0094677Y0107281D01*
X0095439Y0106520D01*
X0095439Y0106450D01*
X0097983Y0106450D01*
X0098950Y0105483D01*
X0098950Y0105483D01*
X0099650Y0104783D01*
X0099650Y0108683D01*
X0100850Y0109883D01*
X0101817Y0110850D01*
X0108883Y0110850D01*
X0110024Y0109709D01*
X0113733Y0109709D01*
X0113733Y0109891D01*
X0113733Y0112481D01*
X0111264Y0112481D01*
X0110882Y0112379D01*
X0110540Y0112181D01*
X0110261Y0111902D01*
X0110064Y0111560D01*
X0109961Y0111179D01*
X0109961Y0109891D01*
X0113733Y0109891D01*
X0113914Y0109891D01*
X0113914Y0112481D01*
X0116383Y0112481D01*
X0116765Y0112379D01*
X0117107Y0112181D01*
X0117169Y0112120D01*
X0117237Y0112239D01*
X0117517Y0112518D01*
X0117859Y0112716D01*
X0118240Y0112818D01*
X0120513Y0112818D01*
X0120513Y0110031D01*
X0121087Y0110031D01*
X0121087Y0112818D01*
X0123360Y0112818D01*
X0123741Y0112716D01*
X0124083Y0112518D01*
X0124362Y0112239D01*
X0124560Y0111897D01*
X0124662Y0111516D01*
X0124662Y0110031D01*
X0121087Y0110031D01*
X0121087Y0109456D01*
X0121087Y0106669D01*
X0123360Y0106669D01*
X0123741Y0106771D01*
X0124083Y0106968D01*
X0124362Y0107247D01*
X0124560Y0107590D01*
X0124662Y0107971D01*
X0124662Y0109456D01*
X0121087Y0109456D01*
X0120513Y0109456D01*
X0120513Y0106668D01*
X0118240Y0106669D01*
X0117859Y0106771D01*
X0117517Y0106968D01*
X0117237Y0107247D01*
X0117127Y0107439D01*
X0117107Y0107419D01*
X0116777Y0107228D01*
X0117486Y0106520D01*
X0117486Y0105118D01*
X0117899Y0105531D01*
X0123701Y0105531D01*
X0124462Y0104770D01*
X0124462Y0104307D01*
X0126773Y0104307D01*
X0128550Y0106083D01*
X0128550Y0112783D01*
X0130550Y0114783D01*
X0131517Y0115750D01*
X0164517Y0115750D01*
X0165350Y0116583D01*
X0165350Y0118400D01*
X0162862Y0118400D01*
X0162100Y0119162D01*
X0162100Y0127638D01*
X0162862Y0128400D01*
X0171338Y0128400D01*
X0172100Y0127638D01*
X0172100Y0119162D01*
X0171338Y0118400D01*
X0168650Y0118400D01*
X0168650Y0115217D01*
X0167683Y0114250D01*
X0165883Y0112450D01*
X0132883Y0112450D01*
X0131850Y0111417D01*
X0131850Y0104717D01*
X0130883Y0103750D01*
X0128483Y0101350D01*
X0129332Y0101350D01*
X0129971Y0101989D01*
X0130963Y0102400D01*
X0132037Y0102400D01*
X0133029Y0101989D01*
X0133789Y0101229D01*
X0134200Y0100237D01*
X0134200Y0099163D01*
X0134086Y0098888D01*
X0134117Y0098918D01*
X0134459Y0099116D01*
X0134840Y0099218D01*
X0137113Y0099218D01*
X0137113Y0096431D01*
X0137687Y0096431D01*
X0137687Y0099218D01*
X0139960Y0099218D01*
X0140341Y0099116D01*
X0140683Y0098918D01*
X0140962Y0098639D01*
X0141160Y0098297D01*
X0141262Y0097916D01*
X0141262Y0097438D01*
X0141404Y0097683D01*
X0141683Y0097962D01*
X0142025Y0098160D01*
X0142406Y0098262D01*
X0144466Y0098262D01*
X0144466Y0094900D01*
X0145466Y0094900D01*
X0145466Y0098262D01*
X0147526Y0098262D01*
X0147907Y0098160D01*
X0148249Y0097962D01*
X0148529Y0097683D01*
X0148726Y0097341D01*
X0148828Y0096960D01*
X0148828Y0094900D01*
X0145466Y0094900D01*
X0145466Y0093900D01*
X0148828Y0093900D01*
X0148828Y0091840D01*
X0148726Y0091459D01*
X0148529Y0091117D01*
X0148512Y0091100D01*
X0149971Y0091100D01*
X0149572Y0091499D01*
X0149572Y0097301D01*
X0150333Y0098062D01*
X0156135Y0098062D01*
X0156896Y0097301D01*
X0156896Y0096050D01*
X0158282Y0096050D01*
X0158282Y0097201D01*
X0159043Y0097962D01*
X0163270Y0097962D01*
X0164031Y0097201D01*
X0164031Y0091399D01*
X0163270Y0090638D01*
X0159043Y0090638D01*
X0158282Y0091399D01*
X0158282Y0092750D01*
X0156896Y0092750D01*
X0156896Y0091586D01*
X0157129Y0091489D01*
X0157889Y0090729D01*
X0158300Y0089737D01*
X0158300Y0088663D01*
X0157889Y0087671D01*
X0157129Y0086911D01*
X0156137Y0086500D01*
X0155063Y0086500D01*
X0154071Y0086911D01*
X0153682Y0087300D01*
X0141062Y0087300D01*
X0141062Y0086943D01*
X0140301Y0086182D01*
X0134499Y0086182D01*
X0133738Y0086943D01*
X0133738Y0087300D01*
X0131187Y0087300D01*
X0128500Y0084613D01*
X0128500Y0077313D01*
X0128200Y0077013D01*
X0128200Y0076463D01*
X0127789Y0075471D01*
X0127029Y0074711D01*
X0126037Y0074300D01*
X0124963Y0074300D01*
X0123971Y0074711D01*
X0123211Y0075471D01*
X0122800Y0076463D01*
X0122800Y0077537D01*
X0123211Y0078529D01*
X0123971Y0079289D01*
X0124700Y0079591D01*
X0124700Y0086187D01*
X0125813Y0087300D01*
X0129613Y0091100D01*
X0133738Y0091100D01*
X0133738Y0091170D01*
X0134499Y0091931D01*
X0140301Y0091931D01*
X0141062Y0091170D01*
X0141062Y0091100D01*
X0141420Y0091100D01*
X0141404Y0091117D01*
X0141206Y0091459D01*
X0141104Y0091840D01*
X0141104Y0093892D01*
X0140962Y0093647D01*
X0140683Y0093368D01*
X0140341Y0093171D01*
X0139960Y0093069D01*
X0137687Y0093069D01*
X0137687Y0095856D01*
X0137113Y0095856D01*
X0137113Y0093068D01*
X0134840Y0093069D01*
X0134459Y0093171D01*
X0134117Y0093368D01*
X0133838Y0093647D01*
X0133640Y0093990D01*
X0133538Y0094371D01*
X0133538Y0095856D01*
X0137113Y0095856D01*
X0137113Y0096431D01*
X0133538Y0096431D01*
X0133538Y0097916D01*
X0133539Y0097921D01*
X0133029Y0097411D01*
X0132037Y0097000D01*
X0130963Y0097000D01*
X0129971Y0097411D01*
X0129332Y0098050D01*
X0125683Y0098050D01*
X0122250Y0094617D01*
X0122250Y0074300D01*
X0122337Y0074300D01*
X0123329Y0073889D01*
X0124089Y0073129D01*
X0124500Y0072137D01*
X0124500Y0071063D01*
X0124089Y0070071D01*
X0123329Y0069311D01*
X0122337Y0068900D01*
X0121433Y0068900D01*
X0119150Y0066617D01*
X0119150Y0049512D01*
X0123907Y0049512D01*
X0124668Y0048750D01*
X0124668Y0043343D01*
X0124026Y0042700D01*
X0124668Y0042057D01*
X0124668Y0036650D01*
X0123907Y0035888D01*
X0118893Y0035888D01*
X0118281Y0036500D01*
X0115188Y0036500D01*
X0114788Y0036100D01*
X0105012Y0036100D01*
X0104250Y0036862D01*
X0104250Y0036950D01*
X0102983Y0036950D01*
X0102550Y0036517D01*
X0102550Y0033410D01*
X0102559Y0032737D01*
X0102550Y0032729D01*
X0102550Y0032717D01*
X0102074Y0032240D01*
X0101888Y0032049D01*
X0102753Y0032915D01*
X0103886Y0033384D01*
X0105113Y0033384D01*
X0106247Y0032915D01*
X0107115Y0032047D01*
X0107584Y0030913D01*
X0107584Y0029686D01*
X0107197Y0028752D01*
X0108091Y0029123D01*
X0109633Y0029123D01*
X0111057Y0028533D01*
X0112147Y0027443D01*
X0112737Y0026019D01*
X0112737Y0024477D01*
X0112147Y0023053D01*
X0111057Y0021963D01*
X0109633Y0021373D01*
X0108091Y0021373D01*
X0106667Y0021963D01*
X0106550Y0022080D01*
X0106550Y0021183D01*
X0106955Y0020778D01*
X0108091Y0021249D01*
X0109633Y0021249D01*
X0111057Y0020659D01*
X0112147Y0019569D01*
X0112737Y0018145D01*
X0112737Y0016603D01*
X0112147Y0015179D01*
X0111057Y0014089D01*
X0110842Y0014000D01*
X0114757Y0014000D01*
X0114541Y0014089D01*
X0113451Y0015179D01*
X0112861Y0016603D01*
X0112861Y0018145D01*
X0113451Y0019569D01*
X0114541Y0020659D01*
X0115965Y0021249D01*
X0117507Y0021249D01*
X0118931Y0020659D01*
X0120021Y0019569D01*
X0120611Y0018145D01*
X0120611Y0016603D01*
X0120021Y0015179D01*
X0118931Y0014089D01*
X0118716Y0014000D01*
X0122631Y0014000D01*
X0122415Y0014089D01*
X0121325Y0015179D01*
X0120735Y0016603D01*
X0120735Y0018145D01*
X0121325Y0019569D01*
X0122415Y0020659D01*
X0123839Y0021249D01*
X0125381Y0021249D01*
X0126805Y0020659D01*
X0127895Y0019569D01*
X0128485Y0018145D01*
X0128485Y0016603D01*
X0127895Y0015179D01*
X0126805Y0014089D01*
X0126590Y0014000D01*
X0130505Y0014000D01*
X0130289Y0014089D01*
X0129199Y0015179D01*
X0128609Y0016603D01*
X0128609Y0018145D01*
X0129199Y0019569D01*
X0130289Y0020659D01*
X0131713Y0021249D01*
X0133255Y0021249D01*
X0134217Y0020850D01*
X0134750Y0021383D01*
X0134750Y0022034D01*
X0134679Y0021963D01*
X0133255Y0021373D01*
X0131713Y0021373D01*
X0130289Y0021963D01*
X0129199Y0023053D01*
X0128609Y0024477D01*
X0128609Y0026019D01*
X0129199Y0027443D01*
X0130289Y0028533D01*
X0131150Y0028889D01*
X0131150Y0029783D01*
X0132117Y0030750D01*
X0137717Y0036350D01*
X0156717Y0036350D01*
X0161550Y0041183D01*
X0161550Y0045449D01*
X0161502Y0045422D01*
X0161120Y0045319D01*
X0159881Y0045319D01*
X0159881Y0049140D01*
X0159799Y0049140D01*
X0159799Y0045319D01*
X0158560Y0045319D01*
X0158178Y0045422D01*
X0157836Y0045619D01*
X0157829Y0045627D01*
X0157721Y0045519D01*
X0154479Y0045519D01*
X0154230Y0045768D01*
X0153981Y0045519D01*
X0150739Y0045519D01*
X0149977Y0046281D01*
X0149977Y0052082D01*
X0150354Y0052459D01*
X0149400Y0053413D01*
X0148844Y0053969D01*
X0143199Y0053969D01*
X0142850Y0054318D01*
X0142501Y0053969D01*
X0136699Y0053969D01*
X0135938Y0054730D01*
X0135938Y0058957D01*
X0136331Y0059350D01*
X0136300Y0059381D01*
X0136007Y0059088D01*
X0132450Y0059088D01*
X0132450Y0033317D01*
X0131483Y0032350D01*
X0127236Y0028102D01*
X0127895Y0027443D01*
X0128485Y0026019D01*
X0128485Y0024477D01*
X0127895Y0023053D01*
X0126805Y0021963D01*
X0125381Y0021373D01*
X0123839Y0021373D01*
X0122415Y0021963D01*
X0121325Y0023053D01*
X0120735Y0024477D01*
X0120735Y0026019D01*
X0121325Y0027443D01*
X0122415Y0028533D01*
X0123413Y0028946D01*
X0129150Y0034683D01*
X0129150Y0060537D01*
X0130231Y0061618D01*
X0130231Y0065257D01*
X0130874Y0065900D01*
X0130231Y0066543D01*
X0130231Y0071950D01*
X0130993Y0072712D01*
X0136007Y0072712D01*
X0136768Y0071950D01*
X0136768Y0071818D01*
X0142501Y0071818D01*
X0143262Y0071057D01*
X0143262Y0066830D01*
X0142501Y0066069D01*
X0136699Y0066069D01*
X0136497Y0066271D01*
X0136126Y0065900D01*
X0136768Y0065257D01*
X0136768Y0064731D01*
X0142501Y0064731D01*
X0143262Y0063970D01*
X0143262Y0059743D01*
X0143237Y0059718D01*
X0144520Y0059718D01*
X0143885Y0060353D01*
X0143416Y0061486D01*
X0143416Y0062713D01*
X0143885Y0063847D01*
X0143910Y0063871D01*
X0143338Y0064443D01*
X0143338Y0068670D01*
X0144099Y0069431D01*
X0149901Y0069431D01*
X0150250Y0069082D01*
X0150699Y0069531D01*
X0156501Y0069531D01*
X0156531Y0069501D01*
X0156531Y0070157D01*
X0157174Y0070800D01*
X0156945Y0071030D01*
X0156883Y0070968D01*
X0156541Y0070771D01*
X0156160Y0070669D01*
X0153887Y0070669D01*
X0153887Y0073456D01*
X0153313Y0073456D01*
X0153313Y0070668D01*
X0151040Y0070669D01*
X0150659Y0070771D01*
X0150359Y0070944D01*
X0150283Y0070868D01*
X0149941Y0070671D01*
X0149560Y0070569D01*
X0147287Y0070569D01*
X0147287Y0073356D01*
X0146713Y0073356D01*
X0146713Y0070568D01*
X0144440Y0070569D01*
X0144059Y0070671D01*
X0143717Y0070868D01*
X0143438Y0071147D01*
X0143240Y0071490D01*
X0143138Y0071871D01*
X0143138Y0073356D01*
X0146713Y0073356D01*
X0146713Y0073931D01*
X0146713Y0076718D01*
X0144440Y0076718D01*
X0144059Y0076616D01*
X0143717Y0076418D01*
X0143438Y0076139D01*
X0143240Y0075797D01*
X0143138Y0075416D01*
X0143138Y0073931D01*
X0146713Y0073931D01*
X0147287Y0073931D01*
X0147287Y0076718D01*
X0149560Y0076718D01*
X0149941Y0076616D01*
X0150241Y0076443D01*
X0150317Y0076518D01*
X0150659Y0076716D01*
X0151040Y0076818D01*
X0153313Y0076818D01*
X0153313Y0074031D01*
X0153887Y0074031D01*
X0153887Y0076818D01*
X0156160Y0076818D01*
X0156531Y0076718D01*
X0156531Y0076850D01*
X0157293Y0077612D01*
X0162307Y0077612D01*
X0163068Y0076850D01*
X0163068Y0075630D01*
X0163253Y0075815D01*
X0164386Y0076284D01*
X0165613Y0076284D01*
X0166593Y0075878D01*
X0166593Y0090638D01*
X0166130Y0090638D01*
X0165369Y0091399D01*
X0165369Y0097201D01*
X0166130Y0097962D01*
X0170357Y0097962D01*
X0171118Y0097201D01*
X0171118Y0091399D01*
X0170357Y0090638D01*
X0169893Y0090638D01*
X0169893Y0074460D01*
X0168084Y0072651D01*
X0168084Y0072586D01*
X0167615Y0071453D01*
X0166747Y0070585D01*
X0166650Y0070545D01*
X0166650Y0039017D01*
X0159550Y0031917D01*
X0158583Y0030950D01*
X0140283Y0030950D01*
X0138050Y0028717D01*
X0138050Y0028420D01*
X0138163Y0028533D01*
X0139588Y0029123D01*
X0141129Y0029123D01*
X0142553Y0028533D01*
X0143643Y0027443D01*
X0144233Y0026019D01*
X0144233Y0024477D01*
X0143643Y0023053D01*
X0142553Y0021963D01*
X0141129Y0021373D01*
X0139588Y0021373D01*
X0138163Y0021963D01*
X0138050Y0022077D01*
X0138050Y0020546D01*
X0138163Y0020659D01*
X0139588Y0021249D01*
X0141129Y0021249D01*
X0142553Y0020659D01*
X0143643Y0019569D01*
X0144233Y0018145D01*
X0144233Y0016603D01*
X0143643Y0015179D01*
X0142553Y0014089D01*
X0142338Y0014000D01*
X0146253Y0014000D01*
X0146037Y0014089D01*
X0144947Y0015179D01*
X0144357Y0016603D01*
X0144357Y0018145D01*
X0144947Y0019569D01*
X0146037Y0020659D01*
X0147462Y0021249D01*
X0149003Y0021249D01*
X0150427Y0020659D01*
X0151517Y0019569D01*
X0152107Y0018145D01*
X0152107Y0016603D01*
X0151517Y0015179D01*
X0150427Y0014089D01*
X0150212Y0014000D01*
X0154127Y0014000D01*
X0153911Y0014089D01*
X0152821Y0015179D01*
X0152231Y0016603D01*
X0152231Y0018145D01*
X0152821Y0019569D01*
X0153911Y0020659D01*
X0155336Y0021249D01*
X0156877Y0021249D01*
X0157334Y0021059D01*
X0158124Y0021890D01*
X0156877Y0021373D01*
X0155336Y0021373D01*
X0153911Y0021963D01*
X0152821Y0023053D01*
X0152231Y0024477D01*
X0152231Y0026019D01*
X0152821Y0027443D01*
X0153911Y0028533D01*
X0155336Y0029123D01*
X0156877Y0029123D01*
X0158301Y0028533D01*
X0158350Y0028484D01*
X0158350Y0028602D01*
X0158350Y0029283D01*
X0158352Y0029286D01*
X0158352Y0029289D01*
X0158834Y0029767D01*
X0159317Y0030250D01*
X0159320Y0030250D01*
X0173350Y0044187D01*
X0173350Y0055440D01*
X0172421Y0054497D01*
X0172889Y0054029D01*
X0173300Y0053037D01*
X0173300Y0051963D01*
X0172889Y0050971D01*
X0172129Y0050211D01*
X0171137Y0049800D01*
X0170063Y0049800D01*
X0169071Y0050211D01*
X0168311Y0050971D01*
X0167900Y0051963D01*
X0167900Y0053037D01*
X0168311Y0054029D01*
X0168950Y0054668D01*
X0168950Y0054994D01*
X0168945Y0055671D01*
X0168950Y0055676D01*
X0168950Y0055683D01*
X0169429Y0056162D01*
X0175650Y0062476D01*
X0175650Y0062483D01*
X0176130Y0062963D01*
X0176604Y0063445D01*
X0176611Y0063445D01*
X0176617Y0063450D01*
X0177294Y0063450D01*
X0177971Y0063455D01*
X0177976Y0063450D01*
X0204317Y0063450D01*
X0210750Y0069883D01*
X0211579Y0070713D01*
X0209077Y0070713D01*
X0209025Y0070765D01*
X0208973Y0070713D01*
X0205928Y0070713D01*
X0205876Y0070765D01*
X0205824Y0070713D01*
X0202778Y0070713D01*
X0202726Y0070765D01*
X0202674Y0070713D01*
X0199628Y0070713D01*
X0199576Y0070765D01*
X0199524Y0070713D01*
X0196479Y0070713D01*
X0196427Y0070765D01*
X0196375Y0070713D01*
X0193329Y0070713D01*
X0192568Y0071474D01*
X0192568Y0078457D01*
X0193202Y0079091D01*
X0193202Y0089235D01*
X0195450Y0091483D01*
X0196417Y0092450D01*
X0199797Y0092450D01*
X0200085Y0093147D01*
X0200953Y0094015D01*
X0202086Y0094484D01*
X0203313Y0094484D01*
X0204447Y0094015D01*
X0205315Y0093147D01*
X0205784Y0092013D01*
X0205784Y0090786D01*
X0205315Y0089653D01*
X0204447Y0088785D01*
X0203313Y0088316D01*
X0202086Y0088316D01*
X0200953Y0088785D01*
X0200588Y0089150D01*
X0197783Y0089150D01*
X0196502Y0087869D01*
X0196502Y0079218D01*
X0199524Y0079218D01*
X0199576Y0079166D01*
X0199628Y0079218D01*
X0202674Y0079218D01*
X0202726Y0079166D01*
X0202778Y0079218D01*
X0205824Y0079218D01*
X0205876Y0079166D01*
X0205928Y0079218D01*
X0208800Y0079218D01*
X0208800Y0081546D01*
X0208843Y0081589D01*
X0208819Y0081647D01*
X0208819Y0082953D01*
X0209318Y0084159D01*
X0210241Y0085082D01*
X0211447Y0085581D01*
X0212753Y0085581D01*
X0213959Y0085082D01*
X0214882Y0084159D01*
X0215381Y0082953D01*
X0215381Y0081647D01*
X0214882Y0080441D01*
X0213959Y0079518D01*
X0213716Y0079418D01*
X0213750Y0079418D01*
X0213750Y0074965D01*
X0213750Y0074965D01*
X0213750Y0079418D01*
X0214931Y0079418D01*
X0215289Y0079322D01*
X0216456Y0080489D01*
X0216416Y0080586D01*
X0216416Y0081813D01*
X0216885Y0082947D01*
X0217753Y0083815D01*
X0218886Y0084284D01*
X0220113Y0084284D01*
X0221247Y0083815D01*
X0222115Y0082947D01*
X0222584Y0081813D01*
X0222584Y0080586D01*
X0222115Y0079453D01*
X0221880Y0079218D01*
X0224721Y0079218D01*
X0224773Y0079166D01*
X0224825Y0079218D01*
X0226536Y0079218D01*
X0225600Y0080154D01*
X0225600Y0085146D01*
X0226500Y0086046D01*
X0227554Y0087100D01*
X0229182Y0087100D01*
X0229182Y0089874D01*
X0229234Y0089926D01*
X0229182Y0089978D01*
X0229182Y0093024D01*
X0229234Y0093076D01*
X0229182Y0093128D01*
X0229182Y0096173D01*
X0229234Y0096225D01*
X0229182Y0096277D01*
X0229182Y0099323D01*
X0229234Y0099375D01*
X0229182Y0099427D01*
X0229182Y0102472D01*
X0229234Y0102524D01*
X0229182Y0102576D01*
X0229182Y0105622D01*
X0229234Y0105674D01*
X0229182Y0105726D01*
X0229182Y0108772D01*
X0229234Y0108824D01*
X0229182Y0108876D01*
X0229182Y0111248D01*
X0228050Y0110117D01*
X0228050Y0099617D01*
X0227083Y0098650D01*
X0224583Y0096150D01*
X0202768Y0096150D01*
X0202129Y0095511D01*
X0201137Y0095100D01*
X0200063Y0095100D01*
X0199071Y0095511D01*
X0198311Y0096271D01*
X0197953Y0097135D01*
X0197929Y0097111D01*
X0196937Y0096700D01*
X0195863Y0096700D01*
X0194871Y0097111D01*
X0194111Y0097871D01*
X0193845Y0098512D01*
X0192450Y0097117D01*
X0192018Y0096685D01*
X0192018Y0096277D01*
X0191966Y0096225D01*
X0192018Y0096173D01*
X0192018Y0093128D01*
X0191966Y0093076D01*
X0192018Y0093024D01*
X0192018Y0089978D01*
X0191966Y0089926D01*
X0192018Y0089874D01*
X0192018Y0086828D01*
X0191966Y0086776D01*
X0192018Y0086724D01*
X0192018Y0083679D01*
X0191966Y0083627D01*
X0192018Y0083575D01*
X0192018Y0080529D01*
X0191257Y0079768D01*
X0187815Y0079768D01*
X0186597Y0078550D01*
X0184218Y0078550D01*
X0184218Y0077299D01*
X0183981Y0077062D01*
X0185094Y0077062D01*
X0185475Y0076960D01*
X0185817Y0076762D01*
X0186096Y0076483D01*
X0186294Y0076141D01*
X0186396Y0075760D01*
X0186396Y0073700D01*
X0183034Y0073700D01*
X0183034Y0072700D01*
X0186396Y0072700D01*
X0186396Y0070640D01*
X0186294Y0070259D01*
X0186096Y0069917D01*
X0185817Y0069638D01*
X0185475Y0069440D01*
X0185094Y0069338D01*
X0183034Y0069338D01*
X0183034Y0072700D01*
X0182034Y0072700D01*
X0182034Y0069338D01*
X0179974Y0069338D01*
X0179593Y0069440D01*
X0179251Y0069638D01*
X0178971Y0069917D01*
X0178774Y0070259D01*
X0178672Y0070640D01*
X0178672Y0072700D01*
X0182034Y0072700D01*
X0182034Y0073700D01*
X0178672Y0073700D01*
X0178672Y0075760D01*
X0178774Y0076141D01*
X0178971Y0076483D01*
X0179128Y0076640D01*
X0178469Y0077299D01*
X0178469Y0083101D01*
X0179230Y0083862D01*
X0183457Y0083862D01*
X0183513Y0083806D01*
X0183513Y0086724D01*
X0183565Y0086776D01*
X0183513Y0086828D01*
X0183513Y0089851D01*
X0177816Y0089851D01*
X0177017Y0090650D01*
X0176050Y0091617D01*
X0176050Y0131017D01*
X0175867Y0131200D01*
X0174963Y0131200D01*
X0173971Y0131611D01*
X0173211Y0132371D01*
X0172800Y0133363D01*
X0172800Y0134437D01*
X0173211Y0135429D01*
X0173971Y0136189D01*
X0174963Y0136600D01*
X0175497Y0136600D01*
X0175471Y0136611D01*
X0174711Y0137371D01*
X0174300Y0138363D01*
X0174300Y0139437D01*
X0174711Y0140429D01*
X0175471Y0141189D01*
X0175618Y0141250D01*
X0174717Y0141250D01*
X0173750Y0142217D01*
X0171750Y0144217D01*
X0171750Y0146129D01*
X0170964Y0146455D01*
X0169755Y0147664D01*
X0169100Y0149245D01*
X0169100Y0156955D01*
X0169755Y0158536D01*
X0170964Y0159745D01*
X0171579Y0160000D01*
X0141093Y0160000D01*
X0143493Y0158614D01*
X0145614Y0156493D01*
X0147114Y0153896D01*
X0147890Y0150999D01*
X0147890Y0148001D01*
X0147114Y0145104D01*
X0145614Y0142507D01*
X0143493Y0140386D01*
X0140896Y0138886D01*
X0137999Y0138110D01*
X0135001Y0138110D01*
X0132104Y0138886D01*
X0129507Y0140386D01*
X0127386Y0142507D01*
X0125886Y0145104D01*
X0125110Y0148001D01*
X0125110Y0150999D01*
X0125886Y0153896D01*
X0127386Y0156493D01*
X0129507Y0158614D01*
X0131907Y0160000D01*
X0042603Y0160000D01*
X0042629Y0159989D01*
X0043389Y0159229D01*
X0043800Y0158237D01*
X0043800Y0157163D01*
X0043712Y0156950D01*
X0044788Y0156950D01*
X0045550Y0156188D01*
X0045550Y0148812D01*
X0044788Y0148050D01*
X0037412Y0148050D01*
X0036650Y0148812D01*
X0036650Y0156188D01*
X0037412Y0156950D01*
X0038488Y0156950D01*
X0038400Y0157163D01*
X0038400Y0158237D01*
X0038811Y0159229D01*
X0039571Y0159989D01*
X0039597Y0160000D01*
X0011000Y0160000D01*
X0011000Y0098508D01*
X0011463Y0098700D01*
X0012537Y0098700D01*
X0013096Y0098468D01*
X0017657Y0098468D01*
X0018300Y0097826D01*
X0018943Y0098468D01*
X0024350Y0098468D01*
X0025112Y0097707D01*
X0025112Y0092693D01*
X0025021Y0092602D01*
X0025172Y0092602D01*
X0025554Y0092500D01*
X0025896Y0092303D01*
X0026175Y0092023D01*
X0026373Y0091681D01*
X0026475Y0091300D01*
X0026475Y0089618D01*
X0023687Y0089618D01*
X0023687Y0089043D01*
X0023687Y0086059D01*
X0025172Y0086059D01*
X0025554Y0086161D01*
X0025896Y0086359D01*
X0026175Y0086638D01*
X0026373Y0086980D01*
X0026475Y0087362D01*
X0026475Y0089043D01*
X0023687Y0089043D01*
X0023113Y0089043D01*
X0023113Y0086474D01*
X0023600Y0085987D01*
X0025300Y0084287D01*
X0025300Y0084135D01*
X0029253Y0084135D01*
X0030015Y0083373D01*
X0030015Y0082963D01*
X0030982Y0082963D01*
X0030982Y0084001D01*
X0031743Y0084762D01*
X0035970Y0084762D01*
X0036731Y0084001D01*
X0036731Y0078199D01*
X0036094Y0077562D01*
X0036170Y0077562D01*
X0036931Y0076801D01*
X0036931Y0070999D01*
X0036170Y0070238D01*
X0033700Y0070238D01*
X0033700Y0070023D01*
X0034482Y0070023D01*
X0035244Y0069261D01*
X0035244Y0066152D01*
X0036286Y0066584D01*
X0037513Y0066584D01*
X0037956Y0066401D01*
X0037956Y0067599D01*
X0041777Y0067599D01*
X0041777Y0067681D01*
X0037956Y0067681D01*
X0037956Y0068920D01*
X0038059Y0069302D01*
X0038256Y0069644D01*
X0038535Y0069923D01*
X0038877Y0070121D01*
X0039259Y0070223D01*
X0041777Y0070223D01*
X0041777Y0067682D01*
X0041860Y0067682D01*
X0041860Y0070223D01*
X0044378Y0070223D01*
X0044760Y0070121D01*
X0045102Y0069923D01*
X0045357Y0069668D01*
X0045357Y0072400D01*
X0044018Y0072400D01*
X0044018Y0070999D01*
X0043257Y0070238D01*
X0039030Y0070238D01*
X0038269Y0070999D01*
X0038269Y0076801D01*
X0038906Y0077438D01*
X0038830Y0077438D01*
X0038069Y0078199D01*
X0038069Y0084001D01*
X0038830Y0084762D01*
X0040000Y0084762D01*
X0040000Y0086377D01*
X0039381Y0086377D01*
X0038619Y0087139D01*
X0038619Y0090381D01*
X0038868Y0090630D01*
X0038619Y0090879D01*
X0038619Y0092531D01*
X0033743Y0092531D01*
X0033100Y0093174D01*
X0032457Y0092531D01*
X0027050Y0092531D01*
X0026288Y0093293D01*
X0026288Y0098307D01*
X0026582Y0098601D01*
X0026582Y0104401D01*
X0027343Y0105162D01*
X0027657Y0105162D01*
X0027657Y0105177D01*
X0026581Y0105177D01*
X0025819Y0105939D01*
X0025819Y0109181D01*
X0025838Y0109200D01*
X0023313Y0109200D01*
X0022200Y0110313D01*
X0020562Y0111951D01*
X0020562Y0111633D01*
X0019801Y0110872D01*
X0013999Y0110872D01*
X0013238Y0111633D01*
X0013238Y0117435D01*
X0013999Y0118196D01*
X0015100Y0118196D01*
X0015100Y0120089D01*
X0015582Y0120571D01*
X0015582Y0123801D01*
X0016343Y0124562D01*
X0020300Y0124562D01*
X0020300Y0133587D01*
X0021413Y0134700D01*
X0021413Y0134700D01*
X0022300Y0135587D01*
X0022300Y0136350D01*
X0021612Y0136350D01*
X0020850Y0137112D01*
X0020850Y0144488D01*
X0021612Y0145250D01*
X0026988Y0145250D01*
X0027750Y0144488D01*
X0027750Y0142700D01*
X0028159Y0142700D01*
X0029086Y0143084D01*
X0030313Y0143084D01*
X0031447Y0142615D01*
X0032315Y0141747D01*
X0032784Y0140613D01*
X0032784Y0140600D01*
X0035900Y0140600D01*
X0035900Y0141600D01*
X0035900Y0145750D01*
X0034053Y0145750D01*
X0033671Y0145648D01*
X0033329Y0145450D01*
X0033050Y0145171D01*
X0032852Y0144829D01*
X0032750Y0144447D01*
X0032750Y0141600D01*
X0035900Y0141600D01*
X0036900Y0141600D01*
X0036900Y0145750D01*
X0038747Y0145750D01*
X0039129Y0145648D01*
X0039471Y0145450D01*
X0039750Y0145171D01*
X0039948Y0144829D01*
X0040050Y0144447D01*
X0040050Y0141600D01*
X0036900Y0141600D01*
X0036900Y0140600D01*
X0040050Y0140600D01*
X0040050Y0137753D01*
X0039948Y0137371D01*
X0039750Y0137029D01*
X0039471Y0136750D01*
X0039129Y0136552D01*
X0038747Y0136450D01*
X0036900Y0136450D01*
X0036900Y0140600D01*
X0035900Y0140600D01*
X0035900Y0136450D01*
X0034053Y0136450D01*
X0033671Y0136552D01*
X0033329Y0136750D01*
X0033050Y0137029D01*
X0032852Y0137371D01*
X0032750Y0137753D01*
X0032750Y0139304D01*
X0032315Y0138253D01*
X0031447Y0137385D01*
X0030313Y0136916D01*
X0029086Y0136916D01*
X0027953Y0137385D01*
X0027750Y0137588D01*
X0027750Y0137112D01*
X0026988Y0136350D01*
X0026100Y0136350D01*
X0026100Y0134013D01*
X0024987Y0132900D01*
X0024987Y0132900D01*
X0024100Y0132013D01*
X0024100Y0124562D01*
X0027657Y0124562D01*
X0028000Y0124219D01*
X0028443Y0124662D01*
X0028700Y0124662D01*
X0028700Y0126687D01*
X0029813Y0127800D01*
X0030913Y0128900D01*
X0042687Y0128900D01*
X0043800Y0127787D01*
X0044754Y0126833D01*
X0044754Y0124968D01*
X0045557Y0124968D01*
X0046200Y0124326D01*
X0046843Y0124968D01*
X0052250Y0124968D01*
X0053012Y0124207D01*
X0053012Y0123350D01*
X0058371Y0123350D01*
X0058611Y0123929D01*
X0059371Y0124689D01*
X0060363Y0125100D01*
X0061437Y0125100D01*
X0062429Y0124689D01*
X0063189Y0123929D01*
X0063600Y0122937D01*
X0063600Y0121863D01*
X0063189Y0120871D01*
X0062429Y0120111D01*
X0061437Y0119700D01*
X0060363Y0119700D01*
X0059518Y0120050D01*
X0053012Y0120050D01*
X0053012Y0119193D01*
X0052250Y0118431D01*
X0046843Y0118431D01*
X0046200Y0119074D01*
X0045557Y0118431D01*
X0040716Y0118431D01*
X0040616Y0118059D01*
X0040418Y0117717D01*
X0040324Y0117623D01*
X0042278Y0117623D01*
X0042660Y0117521D01*
X0043002Y0117323D01*
X0043281Y0117044D01*
X0043478Y0116702D01*
X0043581Y0116320D01*
X0043581Y0115081D01*
X0039760Y0115081D01*
X0039760Y0114999D01*
X0043581Y0114999D01*
X0043581Y0113760D01*
X0043478Y0113378D01*
X0043281Y0113036D01*
X0043273Y0113029D01*
X0043381Y0112921D01*
X0043381Y0109679D01*
X0043162Y0109460D01*
X0043458Y0109460D01*
X0043611Y0109829D01*
X0044371Y0110589D01*
X0045363Y0111000D01*
X0046437Y0111000D01*
X0047429Y0110589D01*
X0048189Y0109829D01*
X0048600Y0108837D01*
X0048600Y0107763D01*
X0048189Y0106771D01*
X0047429Y0106011D01*
X0046437Y0105600D01*
X0045363Y0105600D01*
X0045218Y0105660D01*
X0043102Y0105660D01*
X0042804Y0105362D01*
X0044370Y0105362D01*
X0045131Y0104601D01*
X0045131Y0098799D01*
X0044955Y0098623D01*
X0045182Y0098623D01*
X0045944Y0097861D01*
X0045944Y0095285D01*
X0046463Y0095500D01*
X0047537Y0095500D01*
X0048529Y0095089D01*
X0048656Y0094962D01*
X0048656Y0096199D01*
X0052477Y0096199D01*
X0052477Y0096281D01*
X0048656Y0096281D01*
X0048656Y0097520D01*
X0048759Y0097902D01*
X0048837Y0098038D01*
X0047230Y0098038D01*
X0046469Y0098799D01*
X0046469Y0104601D01*
X0047230Y0105362D01*
X0051457Y0105362D01*
X0052218Y0104601D01*
X0052218Y0103526D01*
X0052738Y0103519D01*
X0052738Y0104567D01*
X0053499Y0105328D01*
X0059301Y0105328D01*
X0060062Y0104567D01*
X0060062Y0098765D01*
X0059301Y0098004D01*
X0056220Y0098004D01*
X0056278Y0097902D01*
X0056381Y0097520D01*
X0056381Y0096281D01*
X0052560Y0096281D01*
X0052560Y0096199D01*
X0056381Y0096199D01*
X0056381Y0094960D01*
X0056278Y0094578D01*
X0056081Y0094236D01*
X0055802Y0093957D01*
X0055460Y0093760D01*
X0055078Y0093657D01*
X0052560Y0093657D01*
X0052560Y0096199D01*
X0052477Y0096199D01*
X0052477Y0093657D01*
X0049959Y0093657D01*
X0049577Y0093760D01*
X0049508Y0093799D01*
X0049700Y0093337D01*
X0049700Y0092263D01*
X0049289Y0091271D01*
X0048529Y0090511D01*
X0048285Y0090410D01*
X0048885Y0090410D01*
X0049618Y0091143D01*
X0055419Y0091143D01*
X0056181Y0090381D01*
X0056181Y0087139D01*
X0055419Y0086377D01*
X0049618Y0086377D01*
X0049114Y0086881D01*
X0048998Y0086764D01*
X0049115Y0086647D01*
X0049584Y0085513D01*
X0049584Y0084286D01*
X0049115Y0083153D01*
X0048247Y0082285D01*
X0047113Y0081816D01*
X0045886Y0081816D01*
X0044753Y0082285D01*
X0043885Y0083153D01*
X0043818Y0083315D01*
X0043818Y0078199D01*
X0043181Y0077562D01*
X0043257Y0077562D01*
X0044018Y0076801D01*
X0044018Y0076200D01*
X0045757Y0076200D01*
X0046118Y0076561D01*
X0054282Y0076561D01*
X0055043Y0075800D01*
X0055043Y0068424D01*
X0054282Y0067662D01*
X0046118Y0067662D01*
X0045681Y0068100D01*
X0045681Y0067681D01*
X0041860Y0067681D01*
X0041860Y0067599D01*
X0045681Y0067599D01*
X0045681Y0066360D01*
X0045578Y0065978D01*
X0045381Y0065636D01*
X0045102Y0065357D01*
X0045013Y0065306D01*
X0045089Y0065229D01*
X0045259Y0064818D01*
X0045456Y0065159D01*
X0045736Y0065438D01*
X0046078Y0065636D01*
X0046459Y0065738D01*
X0049700Y0065738D01*
X0049700Y0061588D01*
X0050700Y0061588D01*
X0055243Y0061588D01*
X0055243Y0064435D01*
X0055141Y0064817D01*
X0054944Y0065159D01*
X0054664Y0065438D01*
X0054322Y0065636D01*
X0053941Y0065738D01*
X0050700Y0065738D01*
X0050700Y0061588D01*
X0050700Y0060588D01*
X0050700Y0056439D01*
X0053941Y0056439D01*
X0054322Y0056541D01*
X0054664Y0056738D01*
X0054944Y0057018D01*
X0055141Y0057360D01*
X0055243Y0057741D01*
X0055243Y0060588D01*
X0050700Y0060588D01*
X0049700Y0060588D01*
X0049700Y0056439D01*
X0046718Y0056439D01*
X0046718Y0054587D01*
X0043931Y0054587D01*
X0043931Y0054013D01*
X0046718Y0054013D01*
X0046718Y0052350D01*
X0060117Y0052350D01*
X0062050Y0054283D01*
X0062050Y0117083D01*
X0063017Y0118050D01*
X0066117Y0121150D01*
X0068832Y0121150D01*
X0069471Y0121789D01*
X0070463Y0122200D01*
X0071537Y0122200D01*
X0072529Y0121789D01*
X0073289Y0121029D01*
X0073700Y0120037D01*
X0073700Y0118963D01*
X0073289Y0117971D01*
X0072554Y0117236D01*
X0072847Y0117115D01*
X0073312Y0116650D01*
X0074983Y0116650D01*
X0075950Y0115683D01*
X0077310Y0114324D01*
X0077310Y0113452D01*
X0077530Y0113232D01*
X0077779Y0113481D01*
X0078701Y0113481D01*
X0078688Y0113493D01*
X0078688Y0118507D01*
X0079450Y0119268D01*
X0084857Y0119268D01*
X0085500Y0118626D01*
X0086143Y0119268D01*
X0087213Y0119268D01*
X0086531Y0119950D01*
X0086531Y0125357D01*
X0087174Y0126000D01*
X0086531Y0126643D01*
X0086531Y0130098D01*
X0085383Y0128950D01*
X0081512Y0128950D01*
X0081512Y0128093D01*
X0080750Y0127331D01*
X0075343Y0127331D01*
X0074700Y0127974D01*
X0074057Y0127331D01*
X0068650Y0127331D01*
X0067888Y0128093D01*
X0067888Y0128950D01*
X0065868Y0128950D01*
X0065229Y0128311D01*
X0064237Y0127900D01*
X0063163Y0127900D01*
X0062171Y0128311D01*
X0061411Y0129071D01*
X0061000Y0130063D01*
X0061000Y0131137D01*
X0061411Y0132129D01*
X0062171Y0132889D01*
X0062439Y0133000D01*
X0056662Y0133000D01*
X0055947Y0132285D01*
X0054813Y0131816D01*
X0053586Y0131816D01*
X0052453Y0132285D01*
X0051738Y0133000D01*
X0045913Y0133000D01*
X0044800Y0134113D01*
X0043900Y0135013D01*
X0043900Y0136650D01*
X0043112Y0136650D01*
X0042350Y0137412D01*
X0042350Y0144788D01*
X0043112Y0145550D01*
X0048488Y0145550D01*
X0049250Y0144788D01*
X0049250Y0137412D01*
X0048638Y0136800D01*
X0051738Y0136800D01*
X0052453Y0137515D01*
X0053586Y0137984D01*
X0054813Y0137984D01*
X0055910Y0137530D01*
X0055850Y0137753D01*
X0055850Y0140600D01*
X0059000Y0140600D01*
X0059000Y0141600D01*
X0059000Y0145750D01*
X0057153Y0145750D01*
X0056771Y0145648D01*
X0056429Y0145450D01*
X0056150Y0145171D01*
X0055952Y0144829D01*
X0055850Y0144447D01*
X0055850Y0141600D01*
X0059000Y0141600D01*
X0060000Y0141600D01*
X0060000Y0145750D01*
X0061847Y0145750D01*
X0062229Y0145648D01*
X0062571Y0145450D01*
X0062850Y0145171D01*
X0063048Y0144829D01*
X0063150Y0144447D01*
X0063150Y0141600D01*
X0060000Y0141600D01*
X0060000Y0140600D01*
X0063150Y0140600D01*
X0063150Y0137753D01*
X0063048Y0137371D01*
X0062850Y0137029D01*
X0062621Y0136800D01*
X0066062Y0136800D01*
X0065450Y0137412D01*
X0065450Y0144788D01*
X0066212Y0145550D01*
X0071588Y0145550D01*
X0072350Y0144788D01*
X0072350Y0137412D01*
X0071588Y0136650D01*
X0070800Y0136650D01*
X0070800Y0135413D01*
X0069500Y0134113D01*
X0069255Y0133868D01*
X0074057Y0133868D01*
X0074700Y0133226D01*
X0075343Y0133868D01*
X0080750Y0133868D01*
X0081512Y0133107D01*
X0081512Y0132250D01*
X0084017Y0132250D01*
X0084250Y0132483D01*
X0084250Y0136629D01*
X0084171Y0136550D01*
X0083829Y0136352D01*
X0083447Y0136250D01*
X0081600Y0136250D01*
X0081600Y0140400D01*
X0080600Y0140400D01*
X0080600Y0136250D01*
X0078753Y0136250D01*
X0078371Y0136352D01*
X0078029Y0136550D01*
X0077750Y0136829D01*
X0077552Y0137171D01*
X0077450Y0137553D01*
X0077450Y0140400D01*
X0080600Y0140400D01*
X0080600Y0141400D01*
X0080600Y0145550D01*
X0078753Y0145550D01*
X0078371Y0145448D01*
X0078029Y0145250D01*
X0077750Y0144971D01*
X0077552Y0144629D01*
X0077450Y0144247D01*
X0077450Y0141400D01*
X0080600Y0141400D01*
X0081600Y0141400D01*
X0081600Y0145550D01*
X0083447Y0145550D01*
X0083829Y0145448D01*
X0084171Y0145250D01*
X0084250Y0145171D01*
X0084250Y0147850D01*
X0082112Y0147850D01*
X0081350Y0148612D01*
X0081350Y0155988D01*
X0082112Y0156750D01*
X0083410Y0156750D01*
X0084141Y0157482D01*
X0085347Y0157981D01*
X0086653Y0157981D01*
X0087859Y0157482D01*
X0088590Y0156750D01*
X0089488Y0156750D01*
X0090250Y0155988D01*
X0090250Y0148612D01*
X0089488Y0147850D01*
X0087550Y0147850D01*
X0087550Y0145088D01*
X0087812Y0145350D01*
X0093188Y0145350D01*
X0093950Y0144588D01*
X0093950Y0142800D01*
X0096587Y0142800D01*
X0097693Y0141694D01*
X0098429Y0141389D01*
X0099189Y0140629D01*
X0099600Y0139637D01*
X0099600Y0138563D01*
X0099189Y0137571D01*
X0098429Y0136811D01*
X0097437Y0136400D01*
X0096363Y0136400D01*
X0095371Y0136811D01*
X0094611Y0137571D01*
X0094200Y0138563D01*
X0094200Y0139000D01*
X0093950Y0139000D01*
X0093950Y0137212D01*
X0093188Y0136450D01*
X0087812Y0136450D01*
X0087550Y0136712D01*
X0087550Y0132812D01*
X0092307Y0132812D01*
X0093068Y0132050D01*
X0093068Y0131430D01*
X0093253Y0131615D01*
X0094386Y0132084D01*
X0095613Y0132084D01*
X0096747Y0131615D01*
X0097365Y0130996D01*
X0103763Y0130996D01*
X0106950Y0134183D01*
X0106950Y0136122D01*
X0106829Y0136052D01*
X0106447Y0135950D01*
X0104600Y0135950D01*
X0104600Y0140100D01*
X0103600Y0140100D01*
X0103600Y0135950D01*
X0101753Y0135950D01*
X0101371Y0136052D01*
X0101029Y0136250D01*
X0100750Y0136529D01*
X0100552Y0136871D01*
X0100450Y0137253D01*
X0100450Y0140100D01*
X0103600Y0140100D01*
X0103600Y0141100D01*
X0103600Y0145250D01*
X0101753Y0145250D01*
X0101371Y0145148D01*
X0101029Y0144950D01*
X0100750Y0144671D01*
X0100552Y0144329D01*
X0100450Y0143947D01*
X0100450Y0141100D01*
X0103600Y0141100D01*
X0104600Y0141100D01*
X0104600Y0145250D01*
X0106447Y0145250D01*
X0106829Y0145148D01*
X0106950Y0145078D01*
X0106950Y0147550D01*
X0105112Y0147550D01*
X0104350Y0148312D01*
X0104350Y0155688D01*
X0105112Y0156450D01*
X0106610Y0156450D01*
X0107041Y0156882D01*
X0108247Y0157381D01*
X0109553Y0157381D01*
X0110759Y0156882D01*
X0111190Y0156450D01*
X0112488Y0156450D01*
X0113250Y0155688D01*
X0113250Y0148312D01*
X0112488Y0147550D01*
X0110250Y0147550D01*
X0110250Y0144488D01*
X0110812Y0145050D01*
X0116188Y0145050D01*
X0116950Y0144288D01*
X0116950Y0142500D01*
X0120587Y0142500D01*
X0121787Y0141300D01*
X0122900Y0140187D01*
X0122900Y0139218D01*
X0123018Y0139100D01*
X0130987Y0139100D01*
X0132100Y0137987D01*
X0135287Y0134800D01*
X0153678Y0134800D01*
X0153878Y0134886D01*
X0154093Y0134800D01*
X0165582Y0134800D01*
X0165971Y0135189D01*
X0166963Y0135600D01*
X0168037Y0135600D01*
X0169029Y0135189D01*
X0169789Y0134429D01*
X0170200Y0133437D01*
X0170200Y0132363D01*
X0169789Y0131371D01*
X0169029Y0130611D01*
X0168037Y0130200D01*
X0166963Y0130200D01*
X0165971Y0130611D01*
X0165582Y0131000D01*
X0158000Y0131000D01*
X0158000Y0128025D01*
X0158932Y0127639D01*
X0160339Y0126232D01*
X0161100Y0124395D01*
X0161100Y0122405D01*
X0160339Y0120568D01*
X0158932Y0119161D01*
X0157095Y0118400D01*
X0155105Y0118400D01*
X0153268Y0119161D01*
X0151861Y0120568D01*
X0151100Y0122405D01*
X0151100Y0124395D01*
X0151861Y0126232D01*
X0153268Y0127639D01*
X0154200Y0128025D01*
X0154200Y0131000D01*
X0136400Y0131000D01*
X0136400Y0128225D01*
X0137332Y0127839D01*
X0138739Y0126432D01*
X0139500Y0124595D01*
X0139500Y0122605D01*
X0138739Y0120768D01*
X0137332Y0119361D01*
X0135495Y0118600D01*
X0133505Y0118600D01*
X0131668Y0119361D01*
X0130261Y0120768D01*
X0130248Y0120800D01*
X0115218Y0120800D01*
X0115129Y0120711D01*
X0114137Y0120300D01*
X0113063Y0120300D01*
X0112071Y0120711D01*
X0111311Y0121471D01*
X0110900Y0122463D01*
X0110900Y0123537D01*
X0111278Y0124450D01*
X0099483Y0124450D01*
X0097700Y0122667D01*
X0097700Y0121763D01*
X0097289Y0120771D01*
X0096529Y0120011D01*
X0095537Y0119600D01*
X0094463Y0119600D01*
X0093471Y0120011D01*
X0093068Y0120413D01*
X0093068Y0119950D01*
X0092307Y0119188D01*
X0091631Y0119188D01*
X0092312Y0118507D01*
X0092312Y0117022D01*
X0092850Y0116483D01*
X0093426Y0115907D01*
X0093426Y0112281D01*
X0094677Y0112281D01*
X0095439Y0111520D01*
X0095439Y0108080D01*
X0094677Y0107319D01*
X0088876Y0107319D01*
X0088114Y0108080D01*
X0088114Y0111520D01*
X0088876Y0112281D01*
X0090126Y0112281D01*
X0090126Y0112731D01*
X0086143Y0112731D01*
X0085500Y0113374D01*
X0085184Y0113058D01*
X0085523Y0112719D01*
X0085523Y0106918D01*
X0084761Y0106156D01*
X0081519Y0106156D01*
X0081270Y0106405D01*
X0081050Y0106185D01*
X0081050Y0105717D01*
X0079750Y0104417D01*
X0078783Y0103450D01*
X0078768Y0103450D01*
X0078762Y0103444D01*
X0079359Y0103444D01*
X0079359Y0099623D01*
X0079441Y0099623D01*
X0079441Y0103444D01*
X0080680Y0103444D01*
X0081062Y0103341D01*
X0081404Y0103144D01*
X0081411Y0103136D01*
X0081519Y0103244D01*
X0084761Y0103244D01*
X0085523Y0102482D01*
X0085523Y0096681D01*
X0084790Y0095948D01*
X0084790Y0095818D01*
X0087101Y0095818D01*
X0087862Y0095057D01*
X0087862Y0090830D01*
X0087101Y0090069D01*
X0081299Y0090069D01*
X0080900Y0090468D01*
X0080601Y0090169D01*
X0074799Y0090169D01*
X0074038Y0090930D01*
X0074038Y0091069D01*
X0068299Y0091069D01*
X0067538Y0091830D01*
X0067538Y0096057D01*
X0068299Y0096818D01*
X0069500Y0096818D01*
X0069500Y0097646D01*
X0070554Y0098700D01*
X0071761Y0099906D01*
X0073277Y0099906D01*
X0073277Y0102482D01*
X0074039Y0103244D01*
X0074638Y0103244D01*
X0074311Y0103571D01*
X0073900Y0104563D01*
X0073900Y0105637D01*
X0074115Y0106156D01*
X0074039Y0106156D01*
X0073277Y0106918D01*
X0073277Y0112315D01*
X0072847Y0111885D01*
X0071713Y0111416D01*
X0070486Y0111416D01*
X0069353Y0111885D01*
X0068485Y0112753D01*
X0068016Y0113886D01*
X0068016Y0115113D01*
X0068485Y0116247D01*
X0069353Y0117115D01*
X0069528Y0117187D01*
X0069471Y0117211D01*
X0068832Y0117850D01*
X0067483Y0117850D01*
X0065350Y0115717D01*
X0065350Y0052917D01*
X0062450Y0050017D01*
X0061483Y0049050D01*
X0046518Y0049050D01*
X0046518Y0048650D01*
X0064232Y0048650D01*
X0064871Y0049289D01*
X0065863Y0049700D01*
X0066937Y0049700D01*
X0067929Y0049289D01*
X0068689Y0048529D01*
X0069100Y0047537D01*
X0069100Y0046463D01*
X0068689Y0045471D01*
X0067929Y0044711D01*
X0066937Y0044300D01*
X0065863Y0044300D01*
X0064871Y0044711D01*
X0064232Y0045350D01*
X0046518Y0045350D01*
X0046518Y0043999D01*
X0046119Y0043600D01*
X0046518Y0043201D01*
X0046518Y0037399D01*
X0045757Y0036638D01*
X0041530Y0036638D01*
X0040769Y0037399D01*
X0040769Y0043201D01*
X0041168Y0043600D01*
X0040769Y0043999D01*
X0040769Y0049050D01*
X0039431Y0049050D01*
X0039431Y0043999D01*
X0039032Y0043600D01*
X0039431Y0043201D01*
X0039431Y0037399D01*
X0038670Y0036638D01*
X0034443Y0036638D01*
X0034239Y0036842D01*
X0033935Y0036538D01*
X0028133Y0036538D01*
X0027372Y0037299D01*
X0027372Y0043101D01*
X0028133Y0043862D01*
X0028819Y0043862D01*
X0028231Y0044450D01*
X0028231Y0049857D01*
X0028874Y0050500D01*
X0028231Y0051143D01*
X0028231Y0056550D01*
X0028993Y0057312D01*
X0029681Y0057312D01*
X0029681Y0057777D01*
X0028681Y0057777D01*
X0027919Y0058539D01*
X0027919Y0061781D01*
X0028168Y0062030D01*
X0027919Y0062279D01*
X0027919Y0065521D01*
X0028138Y0065740D01*
X0021862Y0065740D01*
X0021862Y0065643D01*
X0021101Y0064882D01*
X0018300Y0064882D01*
X0018300Y0064818D01*
X0019301Y0064818D01*
X0020062Y0064057D01*
X0020062Y0059830D01*
X0019301Y0059069D01*
X0013499Y0059069D01*
X0012738Y0059830D01*
X0012738Y0060104D01*
X0012650Y0060017D01*
X0012650Y0052147D01*
X0012992Y0052489D01*
X0012738Y0052743D01*
X0012738Y0056970D01*
X0013499Y0057731D01*
X0019301Y0057731D01*
X0020062Y0056970D01*
X0020062Y0052743D01*
X0019708Y0052389D01*
X0019962Y0052135D01*
X0019962Y0046333D01*
X0019201Y0045572D01*
X0013399Y0045572D01*
X0012650Y0046321D01*
X0012650Y0044098D01*
X0012737Y0044249D01*
X0013017Y0044529D01*
X0013359Y0044726D01*
X0013740Y0044828D01*
X0015800Y0044828D01*
X0015800Y0041466D01*
X0016800Y0041466D01*
X0018904Y0041466D01*
X0018904Y0040700D01*
X0022266Y0040700D01*
X0022266Y0039700D01*
X0020162Y0039700D01*
X0020162Y0040466D01*
X0016800Y0040466D01*
X0016800Y0037104D01*
X0018860Y0037104D01*
X0019064Y0037159D01*
X0019204Y0036917D01*
X0019483Y0036638D01*
X0019825Y0036440D01*
X0020206Y0036338D01*
X0022266Y0036338D01*
X0022266Y0039700D01*
X0023266Y0039700D01*
X0023266Y0036338D01*
X0025326Y0036338D01*
X0025707Y0036440D01*
X0026049Y0036638D01*
X0026329Y0036917D01*
X0026526Y0037259D01*
X0026628Y0037640D01*
X0026628Y0039700D01*
X0023266Y0039700D01*
X0023266Y0040700D01*
X0022266Y0040700D01*
X0022266Y0044062D01*
X0020206Y0044062D01*
X0020002Y0044007D01*
X0019862Y0044249D01*
X0019583Y0044529D01*
X0019241Y0044726D01*
X0018860Y0044828D01*
X0016800Y0044828D01*
X0016800Y0041466D01*
X0016800Y0040466D01*
X0015800Y0040466D01*
X0015800Y0037104D01*
X0013740Y0037104D01*
X0013359Y0037206D01*
X0013017Y0037404D01*
X0012737Y0037683D01*
X0012650Y0037834D01*
X0012650Y0030083D01*
X0013386Y0029348D01*
X0013853Y0029815D01*
X0014986Y0030284D01*
X0016213Y0030284D01*
X0017347Y0029815D01*
X0018215Y0028947D01*
X0018684Y0027813D01*
X0018684Y0026586D01*
X0018215Y0025453D01*
X0017347Y0024585D01*
X0016213Y0024116D01*
X0014986Y0024116D01*
X0013853Y0024585D01*
X0012985Y0025453D01*
X0012945Y0025550D01*
X0012517Y0025550D01*
X0011000Y0027067D01*
X0011000Y0026575D02*
X0011492Y0026575D01*
X0011000Y0025576D02*
X0012490Y0025576D01*
X0013871Y0024578D02*
X0011000Y0024578D01*
X0011000Y0023579D02*
X0047564Y0023579D01*
X0047564Y0024347D02*
X0047564Y0021500D01*
X0052304Y0021500D01*
X0052304Y0025650D01*
X0048866Y0025650D01*
X0048485Y0025547D01*
X0048143Y0025350D01*
X0047863Y0025071D01*
X0047666Y0024729D01*
X0047564Y0024347D01*
X0047626Y0024578D02*
X0017329Y0024578D01*
X0018266Y0025576D02*
X0048592Y0025576D01*
X0052304Y0025576D02*
X0053304Y0025576D01*
X0053304Y0025650D02*
X0056742Y0025650D01*
X0057123Y0025547D01*
X0057465Y0025350D01*
X0057744Y0025071D01*
X0057942Y0024729D01*
X0058044Y0024347D01*
X0058044Y0021500D01*
X0053304Y0021500D01*
X0053304Y0020500D01*
X0058044Y0020500D01*
X0058044Y0017653D01*
X0057942Y0017271D01*
X0057744Y0016929D01*
X0057465Y0016650D01*
X0057123Y0016453D01*
X0056742Y0016350D01*
X0053304Y0016350D01*
X0053304Y0020500D01*
X0052304Y0020500D01*
X0052304Y0016350D01*
X0048866Y0016350D01*
X0048485Y0016453D01*
X0048143Y0016650D01*
X0047863Y0016929D01*
X0047666Y0017271D01*
X0047564Y0017653D01*
X0047564Y0020500D01*
X0052304Y0020500D01*
X0052304Y0021500D01*
X0053304Y0021500D01*
X0053304Y0025650D01*
X0053304Y0024578D02*
X0052304Y0024578D01*
X0052304Y0023579D02*
X0053304Y0023579D01*
X0053304Y0022581D02*
X0052304Y0022581D01*
X0052304Y0021582D02*
X0053304Y0021582D01*
X0053304Y0020584D02*
X0060756Y0020584D01*
X0060756Y0021582D02*
X0058044Y0021582D01*
X0058044Y0022581D02*
X0060756Y0022581D01*
X0060756Y0023579D02*
X0058044Y0023579D01*
X0057982Y0024578D02*
X0060756Y0024578D01*
X0064000Y0025576D02*
X0057016Y0025576D01*
X0058044Y0019585D02*
X0060756Y0019585D01*
X0060756Y0018587D02*
X0058044Y0018587D01*
X0058027Y0017588D02*
X0060756Y0017588D01*
X0061478Y0016590D02*
X0057360Y0016590D01*
X0053304Y0016590D02*
X0052304Y0016590D01*
X0052304Y0017588D02*
X0053304Y0017588D01*
X0053304Y0018587D02*
X0052304Y0018587D01*
X0052304Y0019585D02*
X0053304Y0019585D01*
X0052304Y0020584D02*
X0011000Y0020584D01*
X0011000Y0021582D02*
X0047564Y0021582D01*
X0047564Y0022581D02*
X0011000Y0022581D01*
X0011000Y0019585D02*
X0047564Y0019585D01*
X0047564Y0018587D02*
X0011000Y0018587D01*
X0011000Y0017588D02*
X0047581Y0017588D01*
X0048248Y0016590D02*
X0011000Y0016590D01*
X0011000Y0015591D02*
X0073911Y0015591D01*
X0073497Y0016590D02*
X0070114Y0016590D01*
X0070836Y0017588D02*
X0073491Y0017588D01*
X0073674Y0018587D02*
X0070836Y0018587D01*
X0071621Y0019585D02*
X0074097Y0019585D01*
X0075096Y0020584D02*
X0072619Y0020584D01*
X0073618Y0021582D02*
X0074044Y0021582D01*
X0070541Y0025576D02*
X0069000Y0025576D01*
X0069000Y0026575D02*
X0071539Y0026575D01*
X0072829Y0027573D02*
X0069000Y0027573D01*
X0069000Y0028572D02*
X0073702Y0028572D01*
X0069000Y0029570D02*
X0091537Y0029570D01*
X0091013Y0028572D02*
X0087341Y0028572D01*
X0087435Y0028533D02*
X0086011Y0029123D01*
X0084469Y0029123D01*
X0083045Y0028533D01*
X0081955Y0027443D01*
X0081365Y0026019D01*
X0081365Y0024477D01*
X0081955Y0023053D01*
X0083045Y0021963D01*
X0084469Y0021373D01*
X0086011Y0021373D01*
X0087435Y0021963D01*
X0088525Y0023053D01*
X0089115Y0024477D01*
X0089115Y0026019D01*
X0088525Y0027443D01*
X0087435Y0028533D01*
X0088395Y0027573D02*
X0089960Y0027573D01*
X0089470Y0026575D02*
X0088885Y0026575D01*
X0089115Y0025576D02*
X0089239Y0025576D01*
X0089239Y0024578D02*
X0089115Y0024578D01*
X0088743Y0023579D02*
X0089611Y0023579D01*
X0090302Y0022581D02*
X0088053Y0022581D01*
X0086515Y0021582D02*
X0091839Y0021582D01*
X0090844Y0020584D02*
X0087510Y0020584D01*
X0088509Y0019585D02*
X0089845Y0019585D01*
X0089422Y0018587D02*
X0088932Y0018587D01*
X0089115Y0017588D02*
X0089239Y0017588D01*
X0089245Y0016590D02*
X0089109Y0016590D01*
X0088696Y0015591D02*
X0089659Y0015591D01*
X0090416Y0014593D02*
X0087938Y0014593D01*
X0082542Y0014593D02*
X0080064Y0014593D01*
X0080822Y0015591D02*
X0081785Y0015591D01*
X0081371Y0016590D02*
X0081235Y0016590D01*
X0081241Y0017588D02*
X0081365Y0017588D01*
X0081548Y0018587D02*
X0081058Y0018587D01*
X0080635Y0019585D02*
X0081971Y0019585D01*
X0082970Y0020584D02*
X0079636Y0020584D01*
X0080688Y0021582D02*
X0083965Y0021582D01*
X0082428Y0022581D02*
X0081241Y0022581D01*
X0081241Y0023579D02*
X0081737Y0023579D01*
X0081365Y0024578D02*
X0081241Y0024578D01*
X0081241Y0025576D02*
X0081365Y0025576D01*
X0081241Y0026575D02*
X0081596Y0026575D01*
X0081241Y0027573D02*
X0082086Y0027573D01*
X0083139Y0028572D02*
X0081031Y0028572D01*
X0089200Y0036560D02*
X0089400Y0036560D01*
X0089400Y0037558D02*
X0089200Y0037558D01*
X0089400Y0038557D02*
X0096650Y0038557D01*
X0096650Y0039555D02*
X0095150Y0039555D01*
X0094947Y0040554D02*
X0096650Y0040554D01*
X0096650Y0041552D02*
X0094641Y0041552D01*
X0094938Y0045350D02*
X0094188Y0046100D01*
X0094913Y0046825D01*
X0095253Y0046485D01*
X0096386Y0046016D01*
X0097613Y0046016D01*
X0098747Y0046485D01*
X0099615Y0047353D01*
X0100084Y0048486D01*
X0100084Y0049713D01*
X0099615Y0050847D01*
X0098747Y0051715D01*
X0097613Y0052184D01*
X0096386Y0052184D01*
X0095253Y0051715D01*
X0094413Y0050875D01*
X0094188Y0051100D01*
X0094950Y0051862D01*
X0094950Y0053504D01*
X0095554Y0052900D01*
X0100600Y0052900D01*
X0100600Y0049354D01*
X0101654Y0048300D01*
X0102204Y0047750D01*
X0100117Y0047750D01*
X0097717Y0045350D01*
X0094938Y0045350D01*
X0094742Y0045546D02*
X0097913Y0045546D01*
X0098807Y0046545D02*
X0098911Y0046545D01*
X0099694Y0047543D02*
X0099910Y0047543D01*
X0100084Y0048542D02*
X0101412Y0048542D01*
X0100600Y0049540D02*
X0100084Y0049540D01*
X0099742Y0050539D02*
X0100600Y0050539D01*
X0100600Y0051537D02*
X0098924Y0051537D01*
X0100600Y0052536D02*
X0094950Y0052536D01*
X0095076Y0051537D02*
X0094626Y0051537D01*
X0094188Y0051100D02*
X0084862Y0051100D01*
X0084862Y0051100D01*
X0094188Y0051100D01*
X0091600Y0053900D02*
X0089600Y0053900D01*
X0089300Y0053600D01*
X0091600Y0053900D02*
X0092641Y0054941D01*
X0092641Y0059352D01*
X0090554Y0059526D02*
X0075000Y0059526D01*
X0075000Y0060524D02*
X0090554Y0060524D01*
X0090709Y0061523D02*
X0075000Y0061523D01*
X0075000Y0062521D02*
X0099844Y0062521D01*
X0099659Y0062571D02*
X0100040Y0062469D01*
X0102313Y0062468D01*
X0102313Y0065256D01*
X0102887Y0065256D01*
X0102887Y0062469D01*
X0105160Y0062469D01*
X0105541Y0062571D01*
X0105883Y0062768D01*
X0106162Y0063047D01*
X0106360Y0063390D01*
X0106462Y0063771D01*
X0106462Y0065256D01*
X0102887Y0065256D01*
X0102887Y0065831D01*
X0102313Y0065831D01*
X0102313Y0068618D01*
X0100040Y0068618D01*
X0099659Y0068516D01*
X0099409Y0068372D01*
X0099409Y0073300D01*
X0099737Y0073300D01*
X0100729Y0073711D01*
X0101489Y0074471D01*
X0101900Y0075463D01*
X0101900Y0076537D01*
X0101489Y0077529D01*
X0100729Y0078289D01*
X0099737Y0078700D01*
X0098663Y0078700D01*
X0097671Y0078289D01*
X0096911Y0077529D01*
X0096500Y0076537D01*
X0096500Y0075633D01*
X0096109Y0075243D01*
X0096109Y0068300D01*
X0095672Y0067863D01*
X0095672Y0063833D01*
X0096433Y0063072D01*
X0099024Y0063072D01*
X0099037Y0063047D01*
X0099317Y0062768D01*
X0099659Y0062571D01*
X0099878Y0061523D02*
X0114150Y0061523D01*
X0114150Y0062521D02*
X0105356Y0062521D01*
X0106395Y0063520D02*
X0114150Y0063520D01*
X0114150Y0064518D02*
X0106462Y0064518D01*
X0106462Y0065831D02*
X0102887Y0065831D01*
X0102887Y0068618D01*
X0105160Y0068618D01*
X0105541Y0068516D01*
X0105883Y0068318D01*
X0106162Y0068039D01*
X0106360Y0067697D01*
X0106462Y0067316D01*
X0106462Y0065831D01*
X0106462Y0066515D02*
X0114150Y0066515D01*
X0114150Y0065517D02*
X0102887Y0065517D01*
X0102887Y0066515D02*
X0102313Y0066515D01*
X0102313Y0067514D02*
X0102887Y0067514D01*
X0102887Y0068512D02*
X0102313Y0068512D01*
X0099652Y0068512D02*
X0099409Y0068512D01*
X0099409Y0069511D02*
X0114150Y0069511D01*
X0114176Y0070509D02*
X0099409Y0070509D01*
X0099409Y0071508D02*
X0115174Y0071508D01*
X0114150Y0068512D02*
X0105548Y0068512D01*
X0106409Y0067514D02*
X0114150Y0067514D01*
X0119150Y0066515D02*
X0130259Y0066515D01*
X0130231Y0067514D02*
X0120047Y0067514D01*
X0121046Y0068512D02*
X0130231Y0068512D01*
X0130231Y0069511D02*
X0123529Y0069511D01*
X0124271Y0070509D02*
X0130231Y0070509D01*
X0130231Y0071508D02*
X0124500Y0071508D01*
X0124347Y0072506D02*
X0130787Y0072506D01*
X0127802Y0075502D02*
X0143161Y0075502D01*
X0143138Y0074503D02*
X0126528Y0074503D01*
X0124472Y0074503D02*
X0122250Y0074503D01*
X0122250Y0075502D02*
X0123198Y0075502D01*
X0122800Y0076500D02*
X0122250Y0076500D01*
X0122250Y0077499D02*
X0122800Y0077499D01*
X0123198Y0078497D02*
X0122250Y0078497D01*
X0122250Y0079496D02*
X0124470Y0079496D01*
X0124700Y0080494D02*
X0122250Y0080494D01*
X0122250Y0081493D02*
X0124700Y0081493D01*
X0124700Y0082491D02*
X0122250Y0082491D01*
X0122250Y0083490D02*
X0124700Y0083490D01*
X0124700Y0084488D02*
X0122250Y0084488D01*
X0122250Y0085487D02*
X0124700Y0085487D01*
X0124998Y0086485D02*
X0122250Y0086485D01*
X0122250Y0087484D02*
X0125997Y0087484D01*
X0126995Y0088482D02*
X0122250Y0088482D01*
X0122250Y0089481D02*
X0127994Y0089481D01*
X0128992Y0090479D02*
X0122250Y0090479D01*
X0122250Y0091478D02*
X0134046Y0091478D01*
X0134010Y0093475D02*
X0122250Y0093475D01*
X0122250Y0094473D02*
X0133538Y0094473D01*
X0133538Y0095472D02*
X0123105Y0095472D01*
X0124104Y0096470D02*
X0133538Y0096470D01*
X0133538Y0097469D02*
X0133087Y0097469D01*
X0134200Y0099466D02*
X0176050Y0099466D01*
X0176050Y0098468D02*
X0141062Y0098468D01*
X0141262Y0097469D02*
X0141280Y0097469D01*
X0137687Y0097469D02*
X0137113Y0097469D01*
X0137113Y0096470D02*
X0137687Y0096470D01*
X0137687Y0095472D02*
X0137113Y0095472D01*
X0137113Y0094473D02*
X0137687Y0094473D01*
X0137687Y0093475D02*
X0137113Y0093475D01*
X0140790Y0093475D02*
X0141104Y0093475D01*
X0141104Y0092476D02*
X0122250Y0092476D01*
X0118950Y0092476D02*
X0116882Y0092476D01*
X0116724Y0092281D02*
X0110923Y0092281D01*
X0110292Y0091650D01*
X0107284Y0091650D01*
X0107284Y0092413D01*
X0106815Y0093547D01*
X0105947Y0094415D01*
X0104813Y0094884D01*
X0103586Y0094884D01*
X0102453Y0094415D01*
X0101585Y0093547D01*
X0101116Y0092413D01*
X0101116Y0091186D01*
X0101585Y0090053D01*
X0102453Y0089185D01*
X0103586Y0088716D01*
X0104051Y0088716D01*
X0104417Y0088350D01*
X0104600Y0088350D01*
X0104713Y0088275D01*
X0104385Y0087947D01*
X0103916Y0086813D01*
X0103916Y0085586D01*
X0104385Y0084453D01*
X0105253Y0083585D01*
X0106386Y0083116D01*
X0107613Y0083116D01*
X0107781Y0083185D01*
X0107817Y0083150D01*
X0107850Y0083150D01*
X0107874Y0083127D01*
X0108528Y0083150D01*
X0110161Y0083150D01*
X0110161Y0083080D01*
X0110923Y0082319D01*
X0116724Y0082319D01*
X0117486Y0083080D01*
X0117486Y0086520D01*
X0116724Y0087281D01*
X0110923Y0087281D01*
X0110161Y0086520D01*
X0110161Y0086450D01*
X0110084Y0086450D01*
X0110084Y0086813D01*
X0109615Y0087947D01*
X0109212Y0088350D01*
X0110161Y0088350D01*
X0110161Y0088080D01*
X0110923Y0087319D01*
X0116724Y0087319D01*
X0117486Y0088080D01*
X0117486Y0091520D01*
X0116724Y0092281D01*
X0117486Y0091478D02*
X0118950Y0091478D01*
X0118950Y0090479D02*
X0117486Y0090479D01*
X0117486Y0089481D02*
X0118950Y0089481D01*
X0118950Y0088482D02*
X0117486Y0088482D01*
X0116889Y0087484D02*
X0118950Y0087484D01*
X0118950Y0086485D02*
X0117486Y0086485D01*
X0117486Y0085487D02*
X0118950Y0085487D01*
X0118950Y0084488D02*
X0117486Y0084488D01*
X0117486Y0083490D02*
X0118950Y0083490D01*
X0118950Y0082491D02*
X0116897Y0082491D01*
X0116724Y0082281D02*
X0117486Y0081520D01*
X0117486Y0078080D01*
X0116724Y0077319D01*
X0110923Y0077319D01*
X0110161Y0078080D01*
X0110161Y0081520D01*
X0110923Y0082281D01*
X0116724Y0082281D01*
X0117486Y0081493D02*
X0118950Y0081493D01*
X0118950Y0080494D02*
X0117486Y0080494D01*
X0117486Y0079496D02*
X0118950Y0079496D01*
X0118950Y0078497D02*
X0117486Y0078497D01*
X0116904Y0077499D02*
X0118950Y0077499D01*
X0118950Y0076500D02*
X0117486Y0076500D01*
X0117486Y0075502D02*
X0118950Y0075502D01*
X0118170Y0074503D02*
X0117486Y0074503D01*
X0123714Y0073505D02*
X0146713Y0073505D01*
X0147287Y0073505D02*
X0153313Y0073505D01*
X0153313Y0073456D02*
X0149738Y0073456D01*
X0149738Y0073356D01*
X0147287Y0073356D01*
X0147287Y0073931D01*
X0150862Y0073931D01*
X0150862Y0074031D01*
X0153313Y0074031D01*
X0153313Y0073456D01*
X0153313Y0072506D02*
X0153887Y0072506D01*
X0153887Y0071508D02*
X0153313Y0071508D01*
X0150679Y0069511D02*
X0143262Y0069511D01*
X0143262Y0070509D02*
X0156883Y0070509D01*
X0156531Y0069511D02*
X0156521Y0069511D01*
X0153887Y0074503D02*
X0153313Y0074503D01*
X0153313Y0075502D02*
X0153887Y0075502D01*
X0153887Y0076500D02*
X0153313Y0076500D01*
X0150299Y0076500D02*
X0150141Y0076500D01*
X0147287Y0076500D02*
X0146713Y0076500D01*
X0146713Y0075502D02*
X0147287Y0075502D01*
X0147287Y0074503D02*
X0146713Y0074503D01*
X0146713Y0072506D02*
X0147287Y0072506D01*
X0147287Y0071508D02*
X0146713Y0071508D01*
X0143235Y0071508D02*
X0142811Y0071508D01*
X0143138Y0072506D02*
X0136213Y0072506D01*
X0143262Y0068512D02*
X0143338Y0068512D01*
X0143338Y0067514D02*
X0143262Y0067514D01*
X0143338Y0066515D02*
X0142947Y0066515D01*
X0143338Y0065517D02*
X0136509Y0065517D01*
X0130491Y0065517D02*
X0119150Y0065517D01*
X0119150Y0064518D02*
X0130231Y0064518D01*
X0130231Y0063520D02*
X0119150Y0063520D01*
X0119150Y0062521D02*
X0130231Y0062521D01*
X0130136Y0061523D02*
X0119150Y0061523D01*
X0119150Y0060524D02*
X0129150Y0060524D01*
X0129150Y0059526D02*
X0119150Y0059526D01*
X0119150Y0058527D02*
X0129150Y0058527D01*
X0129150Y0057529D02*
X0119150Y0057529D01*
X0119150Y0056530D02*
X0129150Y0056530D01*
X0129150Y0055532D02*
X0119150Y0055532D01*
X0119150Y0054533D02*
X0129150Y0054533D01*
X0129150Y0053534D02*
X0119150Y0053534D01*
X0119150Y0052536D02*
X0129150Y0052536D01*
X0129150Y0051537D02*
X0119150Y0051537D01*
X0119150Y0050539D02*
X0129150Y0050539D01*
X0129150Y0049540D02*
X0119150Y0049540D01*
X0124668Y0048542D02*
X0129150Y0048542D01*
X0129150Y0047543D02*
X0124668Y0047543D01*
X0124668Y0046545D02*
X0129150Y0046545D01*
X0129150Y0045546D02*
X0124668Y0045546D01*
X0124668Y0044548D02*
X0129150Y0044548D01*
X0129150Y0043549D02*
X0124668Y0043549D01*
X0124175Y0042551D02*
X0129150Y0042551D01*
X0129150Y0041552D02*
X0124668Y0041552D01*
X0124668Y0040554D02*
X0129150Y0040554D01*
X0129150Y0039555D02*
X0124668Y0039555D01*
X0124668Y0038557D02*
X0129150Y0038557D01*
X0129150Y0037558D02*
X0124668Y0037558D01*
X0124579Y0036560D02*
X0129150Y0036560D01*
X0129150Y0035561D02*
X0102550Y0035561D01*
X0102550Y0034563D02*
X0129029Y0034563D01*
X0128031Y0033564D02*
X0102550Y0033564D01*
X0102404Y0032566D02*
X0102399Y0032566D01*
X0102593Y0036560D02*
X0104552Y0036560D01*
X0106596Y0032566D02*
X0127032Y0032566D01*
X0126034Y0031567D02*
X0107313Y0031567D01*
X0107584Y0030569D02*
X0125035Y0030569D01*
X0124037Y0029570D02*
X0107536Y0029570D01*
X0110963Y0028572D02*
X0114635Y0028572D01*
X0114541Y0028533D02*
X0113451Y0027443D01*
X0112861Y0026019D01*
X0112861Y0024477D01*
X0113451Y0023053D01*
X0114541Y0021963D01*
X0115965Y0021373D01*
X0117507Y0021373D01*
X0118931Y0021963D01*
X0120021Y0023053D01*
X0120611Y0024477D01*
X0120611Y0026019D01*
X0120021Y0027443D01*
X0118931Y0028533D01*
X0117507Y0029123D01*
X0115965Y0029123D01*
X0114541Y0028533D01*
X0113582Y0027573D02*
X0112017Y0027573D01*
X0112507Y0026575D02*
X0113092Y0026575D01*
X0112861Y0025576D02*
X0112737Y0025576D01*
X0112737Y0024578D02*
X0112861Y0024578D01*
X0113233Y0023579D02*
X0112365Y0023579D01*
X0111675Y0022581D02*
X0113924Y0022581D01*
X0115461Y0021582D02*
X0110137Y0021582D01*
X0111132Y0020584D02*
X0114466Y0020584D01*
X0113468Y0019585D02*
X0112131Y0019585D01*
X0112554Y0018587D02*
X0113044Y0018587D01*
X0112861Y0017588D02*
X0112737Y0017588D01*
X0112731Y0016590D02*
X0112867Y0016590D01*
X0113281Y0015591D02*
X0112318Y0015591D01*
X0111561Y0014593D02*
X0114038Y0014593D01*
X0119435Y0014593D02*
X0121912Y0014593D01*
X0121155Y0015591D02*
X0120192Y0015591D01*
X0120605Y0016590D02*
X0120741Y0016590D01*
X0120735Y0017588D02*
X0120611Y0017588D01*
X0120428Y0018587D02*
X0120918Y0018587D01*
X0121342Y0019585D02*
X0120005Y0019585D01*
X0119006Y0020584D02*
X0122340Y0020584D01*
X0123335Y0021582D02*
X0118011Y0021582D01*
X0119549Y0022581D02*
X0121798Y0022581D01*
X0121107Y0023579D02*
X0120239Y0023579D01*
X0120611Y0024578D02*
X0120735Y0024578D01*
X0120735Y0025576D02*
X0120611Y0025576D01*
X0120381Y0026575D02*
X0120966Y0026575D01*
X0121456Y0027573D02*
X0119891Y0027573D01*
X0118837Y0028572D02*
X0122509Y0028572D01*
X0127705Y0028572D02*
X0130383Y0028572D01*
X0131150Y0029570D02*
X0128704Y0029570D01*
X0129702Y0030569D02*
X0131935Y0030569D01*
X0132934Y0031567D02*
X0130701Y0031567D01*
X0131699Y0032566D02*
X0133932Y0032566D01*
X0134931Y0033564D02*
X0132450Y0033564D01*
X0132450Y0034563D02*
X0135929Y0034563D01*
X0136928Y0035561D02*
X0132450Y0035561D01*
X0132450Y0036560D02*
X0156926Y0036560D01*
X0157925Y0037558D02*
X0132450Y0037558D01*
X0132450Y0038557D02*
X0158923Y0038557D01*
X0159922Y0039555D02*
X0132450Y0039555D01*
X0132450Y0040554D02*
X0134182Y0040554D01*
X0134204Y0040517D02*
X0134483Y0040238D01*
X0134825Y0040040D01*
X0135206Y0039938D01*
X0137266Y0039938D01*
X0137266Y0043300D01*
X0133904Y0043300D01*
X0133904Y0041240D01*
X0134006Y0040859D01*
X0134204Y0040517D01*
X0133904Y0041552D02*
X0132450Y0041552D01*
X0132450Y0042551D02*
X0133904Y0042551D01*
X0133904Y0044300D02*
X0137266Y0044300D01*
X0137266Y0043300D01*
X0138266Y0043300D01*
X0138266Y0039938D01*
X0140326Y0039938D01*
X0140707Y0040040D01*
X0141049Y0040238D01*
X0141329Y0040517D01*
X0141526Y0040859D01*
X0141628Y0041240D01*
X0141628Y0043300D01*
X0138266Y0043300D01*
X0138266Y0044300D01*
X0141628Y0044300D01*
X0141628Y0046360D01*
X0141542Y0046682D01*
X0142160Y0046682D01*
X0142424Y0046753D01*
X0142372Y0046701D01*
X0142372Y0040899D01*
X0143133Y0040138D01*
X0148935Y0040138D01*
X0149696Y0040899D01*
X0149696Y0046701D01*
X0149258Y0047139D01*
X0149762Y0047643D01*
X0149762Y0051870D01*
X0149001Y0052631D01*
X0143199Y0052631D01*
X0142991Y0052424D01*
X0142883Y0052532D01*
X0142541Y0052729D01*
X0142160Y0052831D01*
X0139887Y0052831D01*
X0139887Y0050044D01*
X0139313Y0050044D01*
X0139313Y0052831D01*
X0137040Y0052831D01*
X0136659Y0052729D01*
X0136317Y0052532D01*
X0136038Y0052253D01*
X0135840Y0051910D01*
X0135738Y0051529D01*
X0135738Y0050044D01*
X0139313Y0050044D01*
X0139313Y0049469D01*
X0135738Y0049469D01*
X0135738Y0047984D01*
X0135824Y0047662D01*
X0135206Y0047662D01*
X0134825Y0047560D01*
X0134483Y0047362D01*
X0134204Y0047083D01*
X0134006Y0046741D01*
X0133904Y0046360D01*
X0133904Y0044300D01*
X0133904Y0044548D02*
X0132450Y0044548D01*
X0132450Y0045546D02*
X0133904Y0045546D01*
X0133954Y0046545D02*
X0132450Y0046545D01*
X0132450Y0047543D02*
X0134796Y0047543D01*
X0135738Y0048542D02*
X0132450Y0048542D01*
X0132450Y0049540D02*
X0139313Y0049540D01*
X0139313Y0050539D02*
X0139887Y0050539D01*
X0139887Y0051537D02*
X0139313Y0051537D01*
X0139313Y0052536D02*
X0139887Y0052536D01*
X0142876Y0052536D02*
X0143104Y0052536D01*
X0149096Y0052536D02*
X0150277Y0052536D01*
X0149977Y0051537D02*
X0149762Y0051537D01*
X0149762Y0050539D02*
X0149977Y0050539D01*
X0149977Y0049540D02*
X0149762Y0049540D01*
X0149762Y0048542D02*
X0149977Y0048542D01*
X0149977Y0047543D02*
X0149662Y0047543D01*
X0149696Y0046545D02*
X0149977Y0046545D01*
X0149696Y0045546D02*
X0150712Y0045546D01*
X0149696Y0044548D02*
X0161550Y0044548D01*
X0161550Y0043549D02*
X0149696Y0043549D01*
X0149696Y0042551D02*
X0161550Y0042551D01*
X0161550Y0041552D02*
X0149696Y0041552D01*
X0149351Y0040554D02*
X0160920Y0040554D01*
X0159881Y0045546D02*
X0159799Y0045546D01*
X0159799Y0046545D02*
X0159881Y0046545D01*
X0159881Y0047543D02*
X0159799Y0047543D01*
X0159799Y0048542D02*
X0159881Y0048542D01*
X0159881Y0049223D02*
X0159799Y0049223D01*
X0159799Y0053044D01*
X0158560Y0053044D01*
X0158382Y0052996D01*
X0158700Y0053763D01*
X0158700Y0054837D01*
X0158343Y0055700D01*
X0161550Y0055700D01*
X0161550Y0052914D01*
X0161502Y0052941D01*
X0161120Y0053044D01*
X0159881Y0053044D01*
X0159881Y0049223D01*
X0159881Y0049540D02*
X0159799Y0049540D01*
X0159799Y0050539D02*
X0159881Y0050539D01*
X0159881Y0051537D02*
X0159799Y0051537D01*
X0159799Y0052536D02*
X0159881Y0052536D01*
X0158605Y0053534D02*
X0161550Y0053534D01*
X0161550Y0054533D02*
X0158700Y0054533D01*
X0158412Y0055532D02*
X0161550Y0055532D01*
X0166650Y0055532D02*
X0168946Y0055532D01*
X0168815Y0054533D02*
X0166650Y0054533D01*
X0166650Y0053534D02*
X0168106Y0053534D01*
X0167900Y0052536D02*
X0166650Y0052536D01*
X0166650Y0051537D02*
X0168076Y0051537D01*
X0168743Y0050539D02*
X0166650Y0050539D01*
X0166650Y0049540D02*
X0173350Y0049540D01*
X0173350Y0048542D02*
X0166650Y0048542D01*
X0166650Y0047543D02*
X0173350Y0047543D01*
X0173350Y0046545D02*
X0166650Y0046545D01*
X0166650Y0045546D02*
X0173350Y0045546D01*
X0173350Y0044548D02*
X0166650Y0044548D01*
X0166650Y0043549D02*
X0172708Y0043549D01*
X0171703Y0042551D02*
X0166650Y0042551D01*
X0166650Y0041552D02*
X0170698Y0041552D01*
X0169693Y0040554D02*
X0166650Y0040554D01*
X0166650Y0039555D02*
X0168688Y0039555D01*
X0167682Y0038557D02*
X0166190Y0038557D01*
X0166677Y0037558D02*
X0165192Y0037558D01*
X0165672Y0036560D02*
X0164193Y0036560D01*
X0164667Y0035561D02*
X0163195Y0035561D01*
X0163662Y0034563D02*
X0162196Y0034563D01*
X0162656Y0033564D02*
X0161198Y0033564D01*
X0161651Y0032566D02*
X0160199Y0032566D01*
X0160646Y0031567D02*
X0159201Y0031567D01*
X0159641Y0030569D02*
X0139902Y0030569D01*
X0138904Y0029570D02*
X0158635Y0029570D01*
X0158350Y0028572D02*
X0158208Y0028572D01*
X0154005Y0028572D02*
X0150334Y0028572D01*
X0150427Y0028533D02*
X0149003Y0029123D01*
X0147462Y0029123D01*
X0146037Y0028533D01*
X0144947Y0027443D01*
X0144357Y0026019D01*
X0144357Y0024477D01*
X0144947Y0023053D01*
X0146037Y0021963D01*
X0147462Y0021373D01*
X0149003Y0021373D01*
X0150427Y0021963D01*
X0151517Y0023053D01*
X0152107Y0024477D01*
X0152107Y0026019D01*
X0151517Y0027443D01*
X0150427Y0028533D01*
X0151387Y0027573D02*
X0152952Y0027573D01*
X0152462Y0026575D02*
X0151877Y0026575D01*
X0152107Y0025576D02*
X0152231Y0025576D01*
X0152231Y0024578D02*
X0152107Y0024578D01*
X0151735Y0023579D02*
X0152603Y0023579D01*
X0153294Y0022581D02*
X0151045Y0022581D01*
X0149507Y0021582D02*
X0154831Y0021582D01*
X0153836Y0020584D02*
X0150502Y0020584D01*
X0151501Y0019585D02*
X0152838Y0019585D01*
X0152415Y0018587D02*
X0151924Y0018587D01*
X0152107Y0017588D02*
X0152231Y0017588D01*
X0152237Y0016590D02*
X0152101Y0016590D01*
X0151688Y0015591D02*
X0152651Y0015591D01*
X0153408Y0014593D02*
X0150931Y0014593D01*
X0145534Y0014593D02*
X0143057Y0014593D01*
X0143814Y0015591D02*
X0144777Y0015591D01*
X0144363Y0016590D02*
X0144227Y0016590D01*
X0144233Y0017588D02*
X0144357Y0017588D01*
X0144541Y0018587D02*
X0144050Y0018587D01*
X0143627Y0019585D02*
X0144964Y0019585D01*
X0145962Y0020584D02*
X0142628Y0020584D01*
X0141633Y0021582D02*
X0146957Y0021582D01*
X0145420Y0022581D02*
X0143171Y0022581D01*
X0143861Y0023579D02*
X0144729Y0023579D01*
X0144357Y0024578D02*
X0144233Y0024578D01*
X0144233Y0025576D02*
X0144357Y0025576D01*
X0144588Y0026575D02*
X0144003Y0026575D01*
X0143513Y0027573D02*
X0145078Y0027573D01*
X0146131Y0028572D02*
X0142460Y0028572D01*
X0138257Y0028572D02*
X0138050Y0028572D01*
X0129330Y0027573D02*
X0127765Y0027573D01*
X0128255Y0026575D02*
X0128840Y0026575D01*
X0128609Y0025576D02*
X0128485Y0025576D01*
X0128485Y0024578D02*
X0128609Y0024578D01*
X0128981Y0023579D02*
X0128113Y0023579D01*
X0127423Y0022581D02*
X0129672Y0022581D01*
X0131209Y0021582D02*
X0125885Y0021582D01*
X0126880Y0020584D02*
X0130214Y0020584D01*
X0129216Y0019585D02*
X0127879Y0019585D01*
X0128302Y0018587D02*
X0128792Y0018587D01*
X0128609Y0017588D02*
X0128485Y0017588D01*
X0128479Y0016590D02*
X0128615Y0016590D01*
X0129029Y0015591D02*
X0128066Y0015591D01*
X0127309Y0014593D02*
X0129786Y0014593D01*
X0138050Y0020584D02*
X0138088Y0020584D01*
X0138050Y0021582D02*
X0139083Y0021582D01*
X0134750Y0021582D02*
X0133759Y0021582D01*
X0157381Y0021582D02*
X0157832Y0021582D01*
X0179728Y0025248D02*
X0180100Y0025620D01*
X0180100Y0030400D01*
X0194480Y0044780D01*
X0229246Y0044780D01*
X0232146Y0044548D02*
X0239012Y0044548D01*
X0239014Y0045546D02*
X0232146Y0045546D01*
X0232146Y0046545D02*
X0239016Y0046545D01*
X0239018Y0047543D02*
X0232146Y0047543D01*
X0232146Y0048542D02*
X0239020Y0048542D01*
X0239022Y0049540D02*
X0232146Y0049540D01*
X0232146Y0050539D02*
X0239024Y0050539D01*
X0239026Y0051537D02*
X0232146Y0051537D01*
X0232146Y0052536D02*
X0239028Y0052536D01*
X0239031Y0053534D02*
X0232184Y0053534D01*
X0232146Y0053467D02*
X0232243Y0053637D01*
X0232346Y0054018D01*
X0232346Y0055016D01*
X0232346Y0056013D01*
X0232243Y0056395D01*
X0232046Y0056737D01*
X0231767Y0057016D01*
X0231425Y0057214D01*
X0231043Y0057316D01*
X0229246Y0057316D01*
X0229246Y0055016D01*
X0232346Y0055016D01*
X0229246Y0055016D01*
X0229246Y0055016D01*
X0229246Y0055016D01*
X0229246Y0057316D01*
X0227448Y0057316D01*
X0227067Y0057214D01*
X0226725Y0057016D01*
X0226445Y0056737D01*
X0226248Y0056395D01*
X0226146Y0056013D01*
X0226146Y0055016D01*
X0229246Y0055016D01*
X0229246Y0055016D01*
X0226146Y0055016D01*
X0226146Y0054107D01*
X0225673Y0054107D01*
X0225017Y0053450D01*
X0209918Y0053450D01*
X0209918Y0055413D01*
X0207131Y0055413D01*
X0207131Y0055987D01*
X0209918Y0055987D01*
X0209918Y0058260D01*
X0209913Y0058279D01*
X0210850Y0059217D01*
X0211450Y0059817D01*
X0211450Y0063017D01*
X0214024Y0065590D01*
X0216049Y0065590D01*
X0216127Y0065511D01*
X0216119Y0065504D01*
X0215922Y0065162D01*
X0215820Y0064780D01*
X0215820Y0063541D01*
X0219640Y0063541D01*
X0219640Y0063459D01*
X0215820Y0063459D01*
X0215820Y0062220D01*
X0215922Y0061838D01*
X0216119Y0061496D01*
X0216127Y0061488D01*
X0216020Y0061381D01*
X0216020Y0058139D01*
X0216781Y0057377D01*
X0222583Y0057377D01*
X0223344Y0058139D01*
X0223344Y0060310D01*
X0224500Y0059154D01*
X0225554Y0058100D01*
X0226295Y0058100D01*
X0227017Y0057377D01*
X0232819Y0057377D01*
X0233580Y0058139D01*
X0233580Y0061381D01*
X0233361Y0061600D01*
X0234082Y0061600D01*
X0234271Y0061411D01*
X0235263Y0061000D01*
X0236337Y0061000D01*
X0237329Y0061411D01*
X0238089Y0062171D01*
X0238500Y0063163D01*
X0238500Y0064237D01*
X0238089Y0065229D01*
X0237329Y0065989D01*
X0236337Y0066400D01*
X0235263Y0066400D01*
X0234271Y0065989D01*
X0233682Y0065400D01*
X0233361Y0065400D01*
X0233580Y0065619D01*
X0233580Y0068861D01*
X0232819Y0069623D01*
X0231718Y0069623D01*
X0231718Y0079127D01*
X0231078Y0079768D01*
X0236926Y0079768D01*
X0237687Y0080529D01*
X0237687Y0083575D01*
X0237635Y0083627D01*
X0237687Y0083679D01*
X0237687Y0086551D01*
X0238903Y0086551D01*
X0239098Y0086356D01*
X0239002Y0039547D01*
X0239000Y0039546D01*
X0239000Y0038801D01*
X0238998Y0038058D01*
X0239000Y0038057D01*
X0239000Y0038054D01*
X0239528Y0037527D01*
X0240051Y0037002D01*
X0240053Y0037002D01*
X0243300Y0033754D01*
X0244354Y0032700D01*
X0255578Y0032700D01*
X0255587Y0032691D01*
X0256322Y0032700D01*
X0257054Y0032700D01*
X0257054Y0030646D01*
X0257816Y0029884D01*
X0262000Y0029884D01*
X0262000Y0014000D01*
X0197765Y0014000D01*
X0198131Y0014266D01*
X0198584Y0014719D01*
X0198961Y0015238D01*
X0199253Y0015810D01*
X0199451Y0016420D01*
X0199551Y0017053D01*
X0199551Y0017087D01*
X0195764Y0017087D01*
X0195764Y0017661D01*
X0199551Y0017661D01*
X0199551Y0017695D01*
X0199451Y0018328D01*
X0199253Y0018938D01*
X0198961Y0019510D01*
X0198584Y0020029D01*
X0198131Y0020482D01*
X0197612Y0020859D01*
X0197041Y0021150D01*
X0196431Y0021348D01*
X0196255Y0021376D01*
X0197671Y0021963D01*
X0198761Y0023053D01*
X0199351Y0024477D01*
X0199351Y0026019D01*
X0198761Y0027443D01*
X0197671Y0028533D01*
X0197400Y0028645D01*
X0197400Y0029354D01*
X0200789Y0032743D01*
X0226146Y0032743D01*
X0226146Y0031984D01*
X0226146Y0030987D01*
X0226248Y0030605D01*
X0226445Y0030263D01*
X0226725Y0029984D01*
X0227067Y0029786D01*
X0227448Y0029684D01*
X0229246Y0029684D01*
X0231043Y0029684D01*
X0231425Y0029786D01*
X0231767Y0029984D01*
X0232046Y0030263D01*
X0232243Y0030605D01*
X0232346Y0030987D01*
X0232346Y0031984D01*
X0229246Y0031984D01*
X0229246Y0031984D01*
X0229246Y0029684D01*
X0229246Y0031984D01*
X0229246Y0031984D01*
X0232346Y0031984D01*
X0232346Y0032982D01*
X0232243Y0033363D01*
X0232146Y0033533D01*
X0232146Y0053467D01*
X0232346Y0054533D02*
X0239033Y0054533D01*
X0239035Y0055532D02*
X0232346Y0055532D01*
X0232165Y0056530D02*
X0239037Y0056530D01*
X0239039Y0057529D02*
X0232970Y0057529D01*
X0233580Y0058527D02*
X0239041Y0058527D01*
X0239043Y0059526D02*
X0233580Y0059526D01*
X0233580Y0060524D02*
X0239045Y0060524D01*
X0239047Y0061523D02*
X0237441Y0061523D01*
X0238234Y0062521D02*
X0239049Y0062521D01*
X0239051Y0063520D02*
X0238500Y0063520D01*
X0238384Y0064518D02*
X0239053Y0064518D01*
X0239055Y0065517D02*
X0237802Y0065517D01*
X0239057Y0066515D02*
X0233580Y0066515D01*
X0233580Y0067514D02*
X0239059Y0067514D01*
X0239062Y0068512D02*
X0233580Y0068512D01*
X0232931Y0069511D02*
X0239064Y0069511D01*
X0239066Y0070509D02*
X0231718Y0070509D01*
X0231718Y0071508D02*
X0239068Y0071508D01*
X0239070Y0072506D02*
X0231718Y0072506D01*
X0231718Y0073505D02*
X0239072Y0073505D01*
X0239074Y0074503D02*
X0231718Y0074503D01*
X0231718Y0075502D02*
X0239076Y0075502D01*
X0239078Y0076500D02*
X0231718Y0076500D01*
X0231718Y0077499D02*
X0239080Y0077499D01*
X0239082Y0078497D02*
X0231718Y0078497D01*
X0231350Y0079496D02*
X0239084Y0079496D01*
X0239086Y0080494D02*
X0237652Y0080494D01*
X0237687Y0081493D02*
X0239088Y0081493D01*
X0239090Y0082491D02*
X0237687Y0082491D01*
X0237687Y0083490D02*
X0239093Y0083490D01*
X0239095Y0084488D02*
X0237687Y0084488D01*
X0237687Y0085487D02*
X0239097Y0085487D01*
X0238969Y0086485D02*
X0237687Y0086485D01*
X0239649Y0088351D02*
X0233435Y0088351D01*
X0233336Y0085300D02*
X0228300Y0085300D01*
X0227400Y0084400D01*
X0227400Y0080900D01*
X0229918Y0078382D01*
X0229918Y0067240D01*
X0225000Y0069700D02*
X0225000Y0061200D01*
X0226300Y0059900D01*
X0229778Y0059900D01*
X0229918Y0059760D01*
X0225127Y0058527D02*
X0223344Y0058527D01*
X0223344Y0059526D02*
X0224129Y0059526D01*
X0222734Y0057529D02*
X0226866Y0057529D01*
X0226326Y0056530D02*
X0209918Y0056530D01*
X0209918Y0057529D02*
X0216630Y0057529D01*
X0216020Y0058527D02*
X0210161Y0058527D01*
X0211159Y0059526D02*
X0216020Y0059526D01*
X0216020Y0060524D02*
X0211450Y0060524D01*
X0211450Y0061523D02*
X0216104Y0061523D01*
X0215820Y0062521D02*
X0211450Y0062521D01*
X0211953Y0063520D02*
X0219640Y0063520D01*
X0215820Y0064518D02*
X0212952Y0064518D01*
X0213950Y0065517D02*
X0216122Y0065517D01*
X0210377Y0069511D02*
X0185597Y0069511D01*
X0186361Y0070509D02*
X0211376Y0070509D01*
X0209379Y0068512D02*
X0166650Y0068512D01*
X0166650Y0067514D02*
X0208380Y0067514D01*
X0207382Y0066515D02*
X0166650Y0066515D01*
X0166650Y0065517D02*
X0206383Y0065517D01*
X0205385Y0064518D02*
X0166650Y0064518D01*
X0166650Y0063520D02*
X0204386Y0063520D01*
X0203769Y0058250D02*
X0202631Y0058250D01*
X0202631Y0053450D01*
X0203769Y0053450D01*
X0203769Y0055413D01*
X0206556Y0055413D01*
X0206556Y0055987D01*
X0203768Y0055987D01*
X0203769Y0058250D01*
X0203769Y0057529D02*
X0202631Y0057529D01*
X0202631Y0056530D02*
X0203769Y0056530D01*
X0202631Y0055532D02*
X0206556Y0055532D01*
X0207131Y0055532D02*
X0226146Y0055532D01*
X0226146Y0054533D02*
X0209918Y0054533D01*
X0209918Y0053534D02*
X0225101Y0053534D01*
X0229246Y0055532D02*
X0229246Y0055532D01*
X0229246Y0056530D02*
X0229246Y0056530D01*
X0233439Y0061523D02*
X0234159Y0061523D01*
X0233798Y0065517D02*
X0233478Y0065517D01*
X0225000Y0069700D02*
X0223198Y0071502D01*
X0223198Y0074965D01*
X0222132Y0079496D02*
X0226259Y0079496D01*
X0225600Y0080494D02*
X0222546Y0080494D01*
X0222584Y0081493D02*
X0225600Y0081493D01*
X0225600Y0082491D02*
X0222303Y0082491D01*
X0221572Y0083490D02*
X0225600Y0083490D01*
X0225600Y0084488D02*
X0214552Y0084488D01*
X0215159Y0083490D02*
X0217428Y0083490D01*
X0216697Y0082491D02*
X0215381Y0082491D01*
X0215317Y0081493D02*
X0216416Y0081493D01*
X0216454Y0080494D02*
X0214903Y0080494D01*
X0215462Y0079496D02*
X0213904Y0079496D01*
X0213750Y0078497D02*
X0213750Y0078497D01*
X0213750Y0077499D02*
X0213750Y0077499D01*
X0213750Y0076500D02*
X0213750Y0076500D01*
X0213750Y0075502D02*
X0213750Y0075502D01*
X0210600Y0074965D02*
X0210600Y0080800D01*
X0212100Y0082300D01*
X0209041Y0083490D02*
X0196502Y0083490D01*
X0196502Y0084488D02*
X0209648Y0084488D01*
X0211220Y0085487D02*
X0196502Y0085487D01*
X0196502Y0086485D02*
X0226940Y0086485D01*
X0225941Y0085487D02*
X0212980Y0085487D01*
X0208819Y0082491D02*
X0196502Y0082491D01*
X0196502Y0081493D02*
X0208800Y0081493D01*
X0208800Y0080494D02*
X0196502Y0080494D01*
X0196502Y0079496D02*
X0208800Y0079496D01*
X0203716Y0088482D02*
X0229182Y0088482D01*
X0229182Y0087484D02*
X0196502Y0087484D01*
X0197116Y0088482D02*
X0201684Y0088482D01*
X0205143Y0089481D02*
X0229182Y0089481D01*
X0229182Y0090479D02*
X0205657Y0090479D01*
X0205784Y0091478D02*
X0229182Y0091478D01*
X0229182Y0092476D02*
X0205592Y0092476D01*
X0204987Y0093475D02*
X0229182Y0093475D01*
X0229182Y0094473D02*
X0203340Y0094473D01*
X0202060Y0094473D02*
X0192018Y0094473D01*
X0192018Y0093475D02*
X0200413Y0093475D01*
X0199808Y0092476D02*
X0192018Y0092476D01*
X0192018Y0091478D02*
X0195444Y0091478D01*
X0194446Y0090479D02*
X0192018Y0090479D01*
X0192018Y0089481D02*
X0193447Y0089481D01*
X0193202Y0088482D02*
X0192018Y0088482D01*
X0192018Y0087484D02*
X0193202Y0087484D01*
X0193202Y0086485D02*
X0192018Y0086485D01*
X0192018Y0085487D02*
X0193202Y0085487D01*
X0193202Y0084488D02*
X0192018Y0084488D01*
X0192018Y0083490D02*
X0193202Y0083490D01*
X0193202Y0082491D02*
X0192018Y0082491D01*
X0192018Y0081493D02*
X0193202Y0081493D01*
X0193202Y0080494D02*
X0191983Y0080494D01*
X0193202Y0079496D02*
X0187543Y0079496D01*
X0184218Y0078497D02*
X0192608Y0078497D01*
X0192568Y0077499D02*
X0184218Y0077499D01*
X0186079Y0076500D02*
X0192568Y0076500D01*
X0192568Y0075502D02*
X0186396Y0075502D01*
X0186396Y0074503D02*
X0192568Y0074503D01*
X0192568Y0073505D02*
X0183034Y0073505D01*
X0183034Y0072506D02*
X0182034Y0072506D01*
X0182034Y0071508D02*
X0183034Y0071508D01*
X0183034Y0070509D02*
X0182034Y0070509D01*
X0182034Y0069511D02*
X0183034Y0069511D01*
X0179470Y0069511D02*
X0166650Y0069511D01*
X0166650Y0070509D02*
X0170604Y0070509D01*
X0170604Y0070299D02*
X0171365Y0069538D01*
X0177167Y0069538D01*
X0177928Y0070299D01*
X0177928Y0076101D01*
X0177167Y0076862D01*
X0176694Y0076862D01*
X0177131Y0077299D01*
X0177131Y0083101D01*
X0176370Y0083862D01*
X0172143Y0083862D01*
X0171382Y0083101D01*
X0171382Y0077299D01*
X0171819Y0076862D01*
X0171365Y0076862D01*
X0170604Y0076101D01*
X0170604Y0070299D01*
X0170604Y0071508D02*
X0167637Y0071508D01*
X0168051Y0072506D02*
X0170604Y0072506D01*
X0170604Y0073505D02*
X0168938Y0073505D01*
X0169893Y0074503D02*
X0170604Y0074503D01*
X0170604Y0075502D02*
X0169893Y0075502D01*
X0169893Y0076500D02*
X0171004Y0076500D01*
X0171382Y0077499D02*
X0169893Y0077499D01*
X0169893Y0078497D02*
X0171382Y0078497D01*
X0171382Y0079496D02*
X0169893Y0079496D01*
X0169893Y0080494D02*
X0171382Y0080494D01*
X0171382Y0081493D02*
X0169893Y0081493D01*
X0169893Y0082491D02*
X0171382Y0082491D01*
X0171771Y0083490D02*
X0169893Y0083490D01*
X0169893Y0084488D02*
X0183513Y0084488D01*
X0183513Y0085487D02*
X0169893Y0085487D01*
X0169893Y0086485D02*
X0183513Y0086485D01*
X0183513Y0087484D02*
X0169893Y0087484D01*
X0169893Y0088482D02*
X0183513Y0088482D01*
X0183513Y0089481D02*
X0169893Y0089481D01*
X0169893Y0090479D02*
X0177187Y0090479D01*
X0176189Y0091478D02*
X0171118Y0091478D01*
X0171118Y0092476D02*
X0176050Y0092476D01*
X0176050Y0093475D02*
X0171118Y0093475D01*
X0171118Y0094473D02*
X0176050Y0094473D01*
X0176050Y0095472D02*
X0171118Y0095472D01*
X0171118Y0096470D02*
X0176050Y0096470D01*
X0176050Y0097469D02*
X0170850Y0097469D01*
X0165637Y0097469D02*
X0163763Y0097469D01*
X0164031Y0096470D02*
X0165369Y0096470D01*
X0165369Y0095472D02*
X0164031Y0095472D01*
X0164031Y0094473D02*
X0165369Y0094473D01*
X0165369Y0093475D02*
X0164031Y0093475D01*
X0164031Y0092476D02*
X0165369Y0092476D01*
X0165369Y0091478D02*
X0164031Y0091478D01*
X0166593Y0090479D02*
X0157992Y0090479D01*
X0158282Y0091478D02*
X0157140Y0091478D01*
X0156896Y0092476D02*
X0158282Y0092476D01*
X0158300Y0089481D02*
X0166593Y0089481D01*
X0166593Y0088482D02*
X0158225Y0088482D01*
X0157702Y0087484D02*
X0166593Y0087484D01*
X0166593Y0086485D02*
X0140604Y0086485D01*
X0134196Y0086485D02*
X0130372Y0086485D01*
X0129374Y0085487D02*
X0166593Y0085487D01*
X0166593Y0084488D02*
X0128500Y0084488D01*
X0128500Y0083490D02*
X0166593Y0083490D01*
X0166593Y0082491D02*
X0128500Y0082491D01*
X0128500Y0081493D02*
X0166593Y0081493D01*
X0166593Y0080494D02*
X0128500Y0080494D01*
X0128500Y0079496D02*
X0166593Y0079496D01*
X0166593Y0078497D02*
X0128500Y0078497D01*
X0128500Y0077499D02*
X0157180Y0077499D01*
X0162420Y0077499D02*
X0166593Y0077499D01*
X0166593Y0076500D02*
X0163068Y0076500D01*
X0177131Y0077499D02*
X0178469Y0077499D01*
X0178469Y0078497D02*
X0177131Y0078497D01*
X0177131Y0079496D02*
X0178469Y0079496D01*
X0178469Y0080494D02*
X0177131Y0080494D01*
X0177131Y0081493D02*
X0178469Y0081493D01*
X0178469Y0082491D02*
X0177131Y0082491D01*
X0176742Y0083490D02*
X0178858Y0083490D01*
X0178988Y0076500D02*
X0177529Y0076500D01*
X0177928Y0075502D02*
X0178672Y0075502D01*
X0178672Y0074503D02*
X0177928Y0074503D01*
X0177928Y0073505D02*
X0182034Y0073505D01*
X0178672Y0072506D02*
X0177928Y0072506D01*
X0177928Y0071508D02*
X0178672Y0071508D01*
X0178707Y0070509D02*
X0177928Y0070509D01*
X0186396Y0071508D02*
X0192568Y0071508D01*
X0192568Y0072506D02*
X0186396Y0072506D01*
X0175688Y0062521D02*
X0166650Y0062521D01*
X0166650Y0061523D02*
X0174710Y0061523D01*
X0173727Y0060524D02*
X0166650Y0060524D01*
X0166650Y0059526D02*
X0172743Y0059526D01*
X0171759Y0058527D02*
X0166650Y0058527D01*
X0166650Y0057529D02*
X0170775Y0057529D01*
X0169791Y0056530D02*
X0166650Y0056530D01*
X0172456Y0054533D02*
X0173350Y0054533D01*
X0173350Y0053534D02*
X0173094Y0053534D01*
X0173300Y0052536D02*
X0173350Y0052536D01*
X0173350Y0051537D02*
X0173124Y0051537D01*
X0173350Y0050539D02*
X0172457Y0050539D01*
X0157962Y0045546D02*
X0157748Y0045546D01*
X0154452Y0045546D02*
X0154008Y0045546D01*
X0142372Y0045546D02*
X0141628Y0045546D01*
X0141628Y0044548D02*
X0142372Y0044548D01*
X0142372Y0043549D02*
X0138266Y0043549D01*
X0138266Y0042551D02*
X0137266Y0042551D01*
X0137266Y0043549D02*
X0132450Y0043549D01*
X0137266Y0041552D02*
X0138266Y0041552D01*
X0138266Y0040554D02*
X0137266Y0040554D01*
X0141350Y0040554D02*
X0142717Y0040554D01*
X0142372Y0041552D02*
X0141628Y0041552D01*
X0141628Y0042551D02*
X0142372Y0042551D01*
X0142372Y0046545D02*
X0141579Y0046545D01*
X0135738Y0050539D02*
X0132450Y0050539D01*
X0132450Y0051537D02*
X0135740Y0051537D01*
X0136324Y0052536D02*
X0132450Y0052536D01*
X0132450Y0053534D02*
X0149278Y0053534D01*
X0143814Y0060524D02*
X0143262Y0060524D01*
X0143262Y0061523D02*
X0143416Y0061523D01*
X0143416Y0062521D02*
X0143262Y0062521D01*
X0143262Y0063520D02*
X0143750Y0063520D01*
X0143338Y0064518D02*
X0142714Y0064518D01*
X0135938Y0058527D02*
X0132450Y0058527D01*
X0132450Y0057529D02*
X0135938Y0057529D01*
X0135938Y0056530D02*
X0132450Y0056530D01*
X0132450Y0055532D02*
X0135938Y0055532D01*
X0136135Y0054533D02*
X0132450Y0054533D01*
X0114150Y0056530D02*
X0112686Y0056530D01*
X0112700Y0057529D02*
X0114150Y0057529D01*
X0114150Y0058527D02*
X0112331Y0058527D01*
X0111200Y0059526D02*
X0114150Y0059526D01*
X0114150Y0060524D02*
X0106262Y0060524D01*
X0106262Y0059526D02*
X0108800Y0059526D01*
X0107669Y0058527D02*
X0106262Y0058527D01*
X0106262Y0057529D02*
X0107300Y0057529D01*
X0107314Y0056530D02*
X0106262Y0056530D01*
X0102600Y0058457D02*
X0102400Y0058257D01*
X0102400Y0054600D01*
X0102300Y0054700D01*
X0096300Y0054700D01*
X0095200Y0055800D01*
X0095200Y0059352D01*
X0097759Y0059526D02*
X0097759Y0059526D01*
X0097759Y0060524D02*
X0097759Y0060524D01*
X0097759Y0061523D02*
X0097759Y0061523D01*
X0095985Y0063520D02*
X0094415Y0063520D01*
X0094728Y0064518D02*
X0095672Y0064518D01*
X0095672Y0065517D02*
X0094728Y0065517D01*
X0094728Y0066515D02*
X0095672Y0066515D01*
X0095672Y0067514D02*
X0094728Y0067514D01*
X0094871Y0068512D02*
X0096109Y0068512D01*
X0096109Y0069511D02*
X0095319Y0069511D01*
X0095341Y0070509D02*
X0096109Y0070509D01*
X0096109Y0071508D02*
X0094980Y0071508D01*
X0094864Y0072506D02*
X0096109Y0072506D01*
X0096109Y0073505D02*
X0095439Y0073505D01*
X0095439Y0074503D02*
X0096109Y0074503D01*
X0096368Y0075502D02*
X0095439Y0075502D01*
X0095439Y0076500D02*
X0096500Y0076500D01*
X0096898Y0077499D02*
X0094857Y0077499D01*
X0094677Y0077319D02*
X0095439Y0078080D01*
X0095439Y0081520D01*
X0094677Y0082281D01*
X0088876Y0082281D01*
X0088114Y0081520D01*
X0088114Y0078080D01*
X0088876Y0077319D01*
X0094677Y0077319D01*
X0095439Y0078497D02*
X0098174Y0078497D01*
X0099071Y0079496D02*
X0095439Y0079496D01*
X0095439Y0080494D02*
X0098072Y0080494D01*
X0097074Y0081493D02*
X0095439Y0081493D01*
X0094677Y0082319D02*
X0095439Y0083080D01*
X0095439Y0086520D01*
X0094677Y0087281D01*
X0088876Y0087281D01*
X0088114Y0086520D01*
X0088114Y0083080D01*
X0088876Y0082319D01*
X0094677Y0082319D01*
X0094849Y0082491D02*
X0096550Y0082491D01*
X0096550Y0083490D02*
X0095439Y0083490D01*
X0095439Y0084488D02*
X0096550Y0084488D01*
X0096550Y0085487D02*
X0095439Y0085487D01*
X0095439Y0086485D02*
X0096550Y0086485D01*
X0096550Y0087484D02*
X0094842Y0087484D01*
X0094677Y0087319D02*
X0095439Y0088080D01*
X0095439Y0091520D01*
X0094677Y0092281D01*
X0088876Y0092281D01*
X0088114Y0091520D01*
X0088114Y0088080D01*
X0088876Y0087319D01*
X0094677Y0087319D01*
X0095439Y0088482D02*
X0096550Y0088482D01*
X0096550Y0089481D02*
X0095439Y0089481D01*
X0095439Y0090479D02*
X0096550Y0090479D01*
X0096550Y0091478D02*
X0095439Y0091478D01*
X0094677Y0092319D02*
X0095439Y0093080D01*
X0095439Y0096520D01*
X0094677Y0097281D01*
X0088876Y0097281D01*
X0088114Y0096520D01*
X0088114Y0093080D01*
X0088876Y0092319D01*
X0094677Y0092319D01*
X0094835Y0092476D02*
X0096550Y0092476D01*
X0096550Y0093475D02*
X0095439Y0093475D01*
X0095439Y0094473D02*
X0096550Y0094473D01*
X0096550Y0095472D02*
X0095439Y0095472D01*
X0095439Y0096470D02*
X0096550Y0096470D01*
X0096550Y0097469D02*
X0094827Y0097469D01*
X0094677Y0097319D02*
X0095439Y0098080D01*
X0095439Y0101520D01*
X0094677Y0102281D01*
X0088876Y0102281D01*
X0088114Y0101520D01*
X0088114Y0098080D01*
X0088876Y0097319D01*
X0094677Y0097319D01*
X0095439Y0098468D02*
X0096550Y0098468D01*
X0096550Y0099466D02*
X0095439Y0099466D01*
X0095439Y0100465D02*
X0096550Y0100465D01*
X0096550Y0101463D02*
X0095439Y0101463D01*
X0094820Y0102462D02*
X0096550Y0102462D01*
X0098976Y0105457D02*
X0099650Y0105457D01*
X0099650Y0106456D02*
X0095439Y0106456D01*
X0094812Y0107454D02*
X0099650Y0107454D01*
X0099650Y0108453D02*
X0095439Y0108453D01*
X0095439Y0109451D02*
X0100418Y0109451D01*
X0101416Y0110450D02*
X0095439Y0110450D01*
X0095439Y0111448D02*
X0110034Y0111448D01*
X0109961Y0110450D02*
X0109284Y0110450D01*
X0111135Y0112447D02*
X0093426Y0112447D01*
X0093426Y0113445D02*
X0129212Y0113445D01*
X0128550Y0112447D02*
X0124155Y0112447D01*
X0124662Y0111448D02*
X0128550Y0111448D01*
X0128550Y0110450D02*
X0124662Y0110450D01*
X0124662Y0109451D02*
X0128550Y0109451D01*
X0128550Y0108453D02*
X0124662Y0108453D01*
X0124482Y0107454D02*
X0128550Y0107454D01*
X0128550Y0106456D02*
X0117486Y0106456D01*
X0117486Y0105457D02*
X0117825Y0105457D01*
X0120513Y0107454D02*
X0121087Y0107454D01*
X0121087Y0108453D02*
X0120513Y0108453D01*
X0120513Y0109451D02*
X0121087Y0109451D01*
X0120513Y0109456D02*
X0117686Y0109456D01*
X0117686Y0109709D01*
X0113914Y0109709D01*
X0113914Y0109891D01*
X0117686Y0109891D01*
X0117686Y0110031D01*
X0120513Y0110031D01*
X0120513Y0109456D01*
X0120513Y0110450D02*
X0121087Y0110450D01*
X0121087Y0111448D02*
X0120513Y0111448D01*
X0120513Y0112447D02*
X0121087Y0112447D01*
X0117445Y0112447D02*
X0116512Y0112447D01*
X0113914Y0112447D02*
X0113733Y0112447D01*
X0113733Y0111448D02*
X0113914Y0111448D01*
X0113914Y0110450D02*
X0113733Y0110450D01*
X0103747Y0107454D02*
X0103088Y0107454D01*
X0102950Y0106456D02*
X0103333Y0106456D01*
X0103316Y0105457D02*
X0102950Y0105457D01*
X0102950Y0104459D02*
X0103617Y0104459D01*
X0103558Y0103460D02*
X0104378Y0103460D01*
X0103990Y0102462D02*
X0104950Y0102462D01*
X0104950Y0101463D02*
X0104000Y0101463D01*
X0103628Y0100465D02*
X0104950Y0100465D01*
X0104950Y0099466D02*
X0102479Y0099466D01*
X0100121Y0099466D02*
X0099850Y0099466D01*
X0099850Y0098468D02*
X0104950Y0098468D01*
X0104950Y0097469D02*
X0099850Y0097469D01*
X0099850Y0096470D02*
X0104950Y0096470D01*
X0104950Y0095472D02*
X0099850Y0095472D01*
X0099850Y0094473D02*
X0102595Y0094473D01*
X0101555Y0093475D02*
X0099850Y0093475D01*
X0099850Y0092476D02*
X0101142Y0092476D01*
X0101116Y0091478D02*
X0099850Y0091478D01*
X0099850Y0090479D02*
X0101409Y0090479D01*
X0102157Y0089481D02*
X0099850Y0089481D01*
X0099850Y0088482D02*
X0104284Y0088482D01*
X0104193Y0087484D02*
X0099850Y0087484D01*
X0099850Y0086485D02*
X0103916Y0086485D01*
X0103957Y0085487D02*
X0099850Y0085487D01*
X0099850Y0084488D02*
X0104371Y0084488D01*
X0105483Y0083490D02*
X0099850Y0083490D01*
X0100226Y0078497D02*
X0102784Y0078497D01*
X0101502Y0077499D02*
X0110743Y0077499D01*
X0110161Y0078497D02*
X0107016Y0078497D01*
X0107531Y0079496D02*
X0110161Y0079496D01*
X0110161Y0080494D02*
X0107600Y0080494D01*
X0107287Y0081493D02*
X0110161Y0081493D01*
X0110751Y0082491D02*
X0106424Y0082491D01*
X0110084Y0086485D02*
X0110161Y0086485D01*
X0109807Y0087484D02*
X0110758Y0087484D01*
X0110765Y0092476D02*
X0107258Y0092476D01*
X0106892Y0093475D02*
X0106845Y0093475D01*
X0105893Y0094473D02*
X0105805Y0094473D01*
X0108563Y0096470D02*
X0110161Y0096470D01*
X0110773Y0097469D02*
X0108250Y0097469D01*
X0108250Y0098468D02*
X0110161Y0098468D01*
X0110161Y0099466D02*
X0108250Y0099466D01*
X0108250Y0100465D02*
X0110161Y0100465D01*
X0110161Y0101463D02*
X0108250Y0101463D01*
X0108250Y0102462D02*
X0110780Y0102462D01*
X0109106Y0103460D02*
X0108422Y0103460D01*
X0116867Y0102462D02*
X0117138Y0102462D01*
X0121201Y0098468D02*
X0121434Y0098468D01*
X0122199Y0099466D02*
X0122433Y0099466D01*
X0120436Y0097469D02*
X0116874Y0097469D01*
X0117486Y0096470D02*
X0119437Y0096470D01*
X0118950Y0095472D02*
X0117486Y0095472D01*
X0117486Y0094473D02*
X0118950Y0094473D01*
X0118950Y0093475D02*
X0117486Y0093475D01*
X0125102Y0097469D02*
X0129913Y0097469D01*
X0129445Y0101463D02*
X0128596Y0101463D01*
X0129595Y0102462D02*
X0176050Y0102462D01*
X0176050Y0103460D02*
X0130594Y0103460D01*
X0131592Y0104459D02*
X0176050Y0104459D01*
X0176050Y0105457D02*
X0131850Y0105457D01*
X0131850Y0106456D02*
X0176050Y0106456D01*
X0176050Y0107454D02*
X0131850Y0107454D01*
X0131850Y0108453D02*
X0176050Y0108453D01*
X0176050Y0109451D02*
X0131850Y0109451D01*
X0131850Y0110450D02*
X0176050Y0110450D01*
X0176050Y0111448D02*
X0131882Y0111448D01*
X0132880Y0112447D02*
X0176050Y0112447D01*
X0176050Y0113445D02*
X0166879Y0113445D01*
X0167877Y0114444D02*
X0176050Y0114444D01*
X0176050Y0115442D02*
X0168650Y0115442D01*
X0168650Y0116441D02*
X0176050Y0116441D01*
X0176050Y0117439D02*
X0168650Y0117439D01*
X0171376Y0118438D02*
X0176050Y0118438D01*
X0176050Y0119436D02*
X0172100Y0119436D01*
X0172100Y0120435D02*
X0176050Y0120435D01*
X0176050Y0121433D02*
X0172100Y0121433D01*
X0172100Y0122432D02*
X0176050Y0122432D01*
X0176050Y0123430D02*
X0172100Y0123430D01*
X0172100Y0124429D02*
X0176050Y0124429D01*
X0176050Y0125427D02*
X0172100Y0125427D01*
X0172100Y0126426D02*
X0176050Y0126426D01*
X0176050Y0127424D02*
X0172100Y0127424D01*
X0176050Y0128423D02*
X0158000Y0128423D01*
X0158000Y0129421D02*
X0176050Y0129421D01*
X0176050Y0130420D02*
X0168568Y0130420D01*
X0169809Y0131418D02*
X0174436Y0131418D01*
X0173192Y0132417D02*
X0170200Y0132417D01*
X0170200Y0133415D02*
X0172800Y0133415D01*
X0172800Y0134414D02*
X0169795Y0134414D01*
X0168490Y0135412D02*
X0173204Y0135412D01*
X0174507Y0136411D02*
X0133676Y0136411D01*
X0132678Y0137409D02*
X0174695Y0137409D01*
X0174300Y0138408D02*
X0139111Y0138408D01*
X0141797Y0139406D02*
X0174300Y0139406D01*
X0174701Y0140405D02*
X0143513Y0140405D01*
X0144511Y0141403D02*
X0174563Y0141403D01*
X0173565Y0142402D02*
X0145510Y0142402D01*
X0146130Y0143401D02*
X0172566Y0143401D01*
X0171750Y0144399D02*
X0146707Y0144399D01*
X0147192Y0145398D02*
X0171750Y0145398D01*
X0171106Y0146396D02*
X0147460Y0146396D01*
X0147727Y0147395D02*
X0170024Y0147395D01*
X0169453Y0148393D02*
X0147890Y0148393D01*
X0147890Y0149392D02*
X0169100Y0149392D01*
X0169100Y0150390D02*
X0147890Y0150390D01*
X0147785Y0151389D02*
X0169100Y0151389D01*
X0169100Y0152387D02*
X0147518Y0152387D01*
X0147250Y0153386D02*
X0169100Y0153386D01*
X0169100Y0154384D02*
X0146832Y0154384D01*
X0146255Y0155383D02*
X0169100Y0155383D01*
X0169100Y0156381D02*
X0145679Y0156381D01*
X0144728Y0157380D02*
X0169276Y0157380D01*
X0169689Y0158378D02*
X0143729Y0158378D01*
X0142173Y0159377D02*
X0170596Y0159377D01*
X0186581Y0160000D02*
X0191142Y0160000D01*
X0191041Y0159949D01*
X0190468Y0159532D01*
X0189968Y0159032D01*
X0189551Y0158459D01*
X0189230Y0157827D01*
X0189011Y0157154D01*
X0188900Y0156454D01*
X0188900Y0153600D01*
X0192900Y0153600D01*
X0192900Y0152600D01*
X0193900Y0152600D01*
X0193900Y0153600D01*
X0197900Y0153600D01*
X0197900Y0156454D01*
X0197789Y0157154D01*
X0197570Y0157827D01*
X0197249Y0158459D01*
X0196832Y0159032D01*
X0196332Y0159532D01*
X0195759Y0159949D01*
X0195658Y0160000D01*
X0200219Y0160000D01*
X0199755Y0159536D01*
X0199100Y0157955D01*
X0199100Y0150245D01*
X0199755Y0148664D01*
X0200964Y0147455D01*
X0202545Y0146800D01*
X0204255Y0146800D01*
X0205836Y0147455D01*
X0207045Y0148664D01*
X0207700Y0150245D01*
X0207700Y0157955D01*
X0207045Y0159536D01*
X0206581Y0160000D01*
X0211579Y0160000D01*
X0210964Y0159745D01*
X0209755Y0158536D01*
X0209100Y0156955D01*
X0209100Y0149245D01*
X0209755Y0147664D01*
X0210964Y0146455D01*
X0212545Y0145800D01*
X0212750Y0145800D01*
X0212750Y0139383D01*
X0211817Y0138450D01*
X0199068Y0138450D01*
X0198429Y0139089D01*
X0197437Y0139500D01*
X0196363Y0139500D01*
X0195371Y0139089D01*
X0194611Y0138329D01*
X0194200Y0137337D01*
X0194200Y0136263D01*
X0194611Y0135271D01*
X0195252Y0134630D01*
X0194671Y0134389D01*
X0193911Y0133629D01*
X0193500Y0132637D01*
X0193500Y0131563D01*
X0193911Y0130571D01*
X0194671Y0129811D01*
X0195663Y0129400D01*
X0196737Y0129400D01*
X0197729Y0129811D01*
X0198368Y0130450D01*
X0221231Y0130450D01*
X0220688Y0129907D01*
X0220688Y0124893D01*
X0220694Y0124887D01*
X0218526Y0124887D01*
X0218474Y0124835D01*
X0218422Y0124887D01*
X0215376Y0124887D01*
X0215324Y0124835D01*
X0215272Y0124887D01*
X0212333Y0124887D01*
X0212163Y0124985D01*
X0211782Y0125087D01*
X0210600Y0125087D01*
X0210600Y0120635D01*
X0210600Y0125087D01*
X0209418Y0125087D01*
X0209037Y0124985D01*
X0208867Y0124887D01*
X0205928Y0124887D01*
X0205876Y0124835D01*
X0205824Y0124887D01*
X0202778Y0124887D01*
X0202726Y0124835D01*
X0202674Y0124887D01*
X0199628Y0124887D01*
X0199576Y0124835D01*
X0199524Y0124887D01*
X0196479Y0124887D01*
X0196427Y0124835D01*
X0196375Y0124887D01*
X0193329Y0124887D01*
X0192568Y0124126D01*
X0192568Y0119166D01*
X0190883Y0120850D01*
X0186683Y0120850D01*
X0185050Y0122483D01*
X0185050Y0147129D01*
X0185836Y0147455D01*
X0187045Y0148664D01*
X0187700Y0150245D01*
X0187700Y0157955D01*
X0187045Y0159536D01*
X0186581Y0160000D01*
X0187111Y0159377D02*
X0190313Y0159377D01*
X0189510Y0158378D02*
X0187525Y0158378D01*
X0187700Y0157380D02*
X0189084Y0157380D01*
X0188900Y0156381D02*
X0187700Y0156381D01*
X0187700Y0155383D02*
X0188900Y0155383D01*
X0188900Y0154384D02*
X0187700Y0154384D01*
X0187700Y0153386D02*
X0192900Y0153386D01*
X0192900Y0152600D02*
X0188900Y0152600D01*
X0188900Y0149746D01*
X0189011Y0149046D01*
X0189230Y0148373D01*
X0189551Y0147741D01*
X0189968Y0147168D01*
X0190468Y0146668D01*
X0191041Y0146251D01*
X0191673Y0145930D01*
X0192346Y0145711D01*
X0192900Y0145623D01*
X0192900Y0152600D01*
X0192900Y0152387D02*
X0193900Y0152387D01*
X0193900Y0152600D02*
X0193900Y0145623D01*
X0194454Y0145711D01*
X0195127Y0145930D01*
X0195759Y0146251D01*
X0196332Y0146668D01*
X0196832Y0147168D01*
X0197249Y0147741D01*
X0197570Y0148373D01*
X0197789Y0149046D01*
X0197900Y0149746D01*
X0197900Y0152600D01*
X0193900Y0152600D01*
X0193900Y0153386D02*
X0199100Y0153386D01*
X0199100Y0154384D02*
X0197900Y0154384D01*
X0197900Y0155383D02*
X0199100Y0155383D01*
X0199100Y0156381D02*
X0197900Y0156381D01*
X0197716Y0157380D02*
X0199100Y0157380D01*
X0199275Y0158378D02*
X0197290Y0158378D01*
X0196487Y0159377D02*
X0199689Y0159377D01*
X0207111Y0159377D02*
X0210596Y0159377D01*
X0209689Y0158378D02*
X0207525Y0158378D01*
X0207700Y0157380D02*
X0209276Y0157380D01*
X0209100Y0156381D02*
X0207700Y0156381D01*
X0207700Y0155383D02*
X0209100Y0155383D01*
X0209100Y0154384D02*
X0207700Y0154384D01*
X0207700Y0153386D02*
X0209100Y0153386D01*
X0209100Y0152387D02*
X0207700Y0152387D01*
X0207700Y0151389D02*
X0209100Y0151389D01*
X0209100Y0150390D02*
X0207700Y0150390D01*
X0207347Y0149392D02*
X0209100Y0149392D01*
X0209453Y0148393D02*
X0206774Y0148393D01*
X0205691Y0147395D02*
X0210024Y0147395D01*
X0211106Y0146396D02*
X0195958Y0146396D01*
X0196997Y0147395D02*
X0201109Y0147395D01*
X0200026Y0148393D02*
X0197577Y0148393D01*
X0197844Y0149392D02*
X0199453Y0149392D01*
X0199100Y0150390D02*
X0197900Y0150390D01*
X0197900Y0151389D02*
X0199100Y0151389D01*
X0199100Y0152387D02*
X0197900Y0152387D01*
X0193900Y0151389D02*
X0192900Y0151389D01*
X0192900Y0150390D02*
X0193900Y0150390D01*
X0193900Y0149392D02*
X0192900Y0149392D01*
X0192900Y0148393D02*
X0193900Y0148393D01*
X0193900Y0147395D02*
X0192900Y0147395D01*
X0192900Y0146396D02*
X0193900Y0146396D01*
X0190842Y0146396D02*
X0185050Y0146396D01*
X0185050Y0145398D02*
X0212750Y0145398D01*
X0212750Y0144399D02*
X0185050Y0144399D01*
X0185050Y0143401D02*
X0212750Y0143401D01*
X0212750Y0142402D02*
X0185050Y0142402D01*
X0185050Y0141403D02*
X0212750Y0141403D01*
X0212750Y0140405D02*
X0185050Y0140405D01*
X0185050Y0139406D02*
X0196137Y0139406D01*
X0197663Y0139406D02*
X0212750Y0139406D01*
X0221902Y0130668D02*
X0224183Y0132950D01*
X0225150Y0133917D01*
X0225150Y0146317D01*
X0225383Y0146550D01*
X0225788Y0146550D01*
X0226381Y0145957D01*
X0226640Y0145957D01*
X0226300Y0145137D01*
X0226300Y0144063D01*
X0226640Y0143243D01*
X0226381Y0143243D01*
X0225619Y0142481D01*
X0225619Y0139239D01*
X0226381Y0138477D01*
X0226558Y0138477D01*
X0226482Y0138401D01*
X0226482Y0132599D01*
X0227243Y0131838D01*
X0231470Y0131838D01*
X0232231Y0132599D01*
X0232231Y0138401D01*
X0232155Y0138477D01*
X0232182Y0138477D01*
X0232944Y0139239D01*
X0232944Y0141223D01*
X0234350Y0139817D01*
X0234804Y0139362D01*
X0234671Y0139362D01*
X0234290Y0139260D01*
X0233947Y0139062D01*
X0233668Y0138783D01*
X0233471Y0138441D01*
X0233369Y0138060D01*
X0233368Y0135787D01*
X0236156Y0135787D01*
X0236156Y0135213D01*
X0233369Y0135213D01*
X0233369Y0132940D01*
X0233471Y0132559D01*
X0233668Y0132217D01*
X0233947Y0131938D01*
X0234290Y0131740D01*
X0234671Y0131638D01*
X0236156Y0131638D01*
X0236156Y0135213D01*
X0236731Y0135213D01*
X0236731Y0135787D01*
X0239518Y0135787D01*
X0239518Y0138060D01*
X0239416Y0138441D01*
X0239395Y0138477D01*
X0242419Y0138477D01*
X0243181Y0139239D01*
X0243181Y0142481D01*
X0243073Y0142588D01*
X0243081Y0142596D01*
X0243278Y0142938D01*
X0243381Y0143320D01*
X0243381Y0144559D01*
X0239560Y0144559D01*
X0239560Y0144641D01*
X0243381Y0144641D01*
X0243381Y0145880D01*
X0243278Y0146262D01*
X0243081Y0146604D01*
X0243073Y0146611D01*
X0243181Y0146719D01*
X0243181Y0149961D01*
X0242419Y0150723D01*
X0236618Y0150723D01*
X0235856Y0149961D01*
X0235856Y0146719D01*
X0235964Y0146611D01*
X0235956Y0146604D01*
X0235759Y0146262D01*
X0235656Y0145880D01*
X0235656Y0144641D01*
X0239477Y0144641D01*
X0239477Y0144559D01*
X0235656Y0144559D01*
X0235656Y0143320D01*
X0235709Y0143125D01*
X0235450Y0143383D01*
X0235450Y0153783D01*
X0234483Y0154750D01*
X0234250Y0154983D01*
X0234250Y0154983D01*
X0233283Y0155950D01*
X0228822Y0155950D01*
X0228822Y0157338D01*
X0228060Y0158100D01*
X0220940Y0158100D01*
X0220178Y0157338D01*
X0220178Y0155950D01*
X0217700Y0155950D01*
X0217700Y0156955D01*
X0217045Y0158536D01*
X0215836Y0159745D01*
X0215221Y0160000D01*
X0262000Y0160000D01*
X0262000Y0131062D01*
X0257133Y0131062D01*
X0256372Y0130301D01*
X0256372Y0124499D01*
X0257133Y0123738D01*
X0257798Y0123738D01*
X0257718Y0123659D01*
X0257219Y0122453D01*
X0257219Y0121147D01*
X0257718Y0119941D01*
X0258641Y0119018D01*
X0259743Y0118562D01*
X0256933Y0118562D01*
X0256172Y0117801D01*
X0256172Y0111999D01*
X0256933Y0111238D01*
X0256998Y0111238D01*
X0256618Y0110859D01*
X0256119Y0109653D01*
X0256119Y0108347D01*
X0256618Y0107141D01*
X0257541Y0106218D01*
X0258747Y0105719D01*
X0260053Y0105719D01*
X0261259Y0106218D01*
X0262000Y0106960D01*
X0262000Y0061443D01*
X0261137Y0061800D01*
X0260063Y0061800D01*
X0259071Y0061389D01*
X0258350Y0060668D01*
X0258350Y0095583D01*
X0257383Y0096550D01*
X0241930Y0112004D01*
X0242400Y0112474D01*
X0243043Y0111831D01*
X0248072Y0111831D01*
X0248665Y0111238D01*
X0254467Y0111238D01*
X0255228Y0111999D01*
X0255228Y0117801D01*
X0254467Y0118562D01*
X0248665Y0118562D01*
X0248461Y0118358D01*
X0248450Y0118368D01*
X0243043Y0118368D01*
X0242400Y0117726D01*
X0241757Y0118368D01*
X0236350Y0118368D01*
X0235588Y0117607D01*
X0235588Y0115832D01*
X0229943Y0115832D01*
X0229182Y0115071D01*
X0229182Y0115050D01*
X0228317Y0115050D01*
X0227350Y0114083D01*
X0224750Y0111483D01*
X0224750Y0100983D01*
X0223217Y0099450D01*
X0202768Y0099450D01*
X0202129Y0100089D01*
X0201137Y0100500D01*
X0200978Y0100500D01*
X0201729Y0100811D01*
X0202368Y0101450D01*
X0220583Y0101450D01*
X0222783Y0103650D01*
X0223750Y0104617D01*
X0223750Y0110517D01*
X0227083Y0113850D01*
X0228050Y0114817D01*
X0228050Y0116561D01*
X0228632Y0117143D01*
X0228632Y0118835D01*
X0239280Y0118835D01*
X0241346Y0120900D01*
X0242400Y0121954D01*
X0242400Y0124131D01*
X0242457Y0124131D01*
X0243100Y0124774D01*
X0243743Y0124131D01*
X0248472Y0124131D01*
X0248865Y0123738D01*
X0254667Y0123738D01*
X0255428Y0124499D01*
X0255428Y0130301D01*
X0254667Y0131062D01*
X0248865Y0131062D01*
X0248472Y0130668D01*
X0243743Y0130668D01*
X0243100Y0130026D01*
X0242457Y0130668D01*
X0237050Y0130668D01*
X0236288Y0129907D01*
X0236288Y0124893D01*
X0237050Y0124131D01*
X0238800Y0124131D01*
X0238800Y0123446D01*
X0237789Y0122435D01*
X0228632Y0122435D01*
X0228632Y0124126D01*
X0228627Y0124131D01*
X0233550Y0124131D01*
X0234312Y0124893D01*
X0234312Y0129907D01*
X0233550Y0130668D01*
X0228143Y0130668D01*
X0227500Y0130026D01*
X0226857Y0130668D01*
X0221902Y0130668D01*
X0221201Y0130420D02*
X0198338Y0130420D01*
X0196789Y0129421D02*
X0220688Y0129421D01*
X0220688Y0128423D02*
X0185050Y0128423D01*
X0185050Y0129421D02*
X0195611Y0129421D01*
X0194062Y0130420D02*
X0185050Y0130420D01*
X0185050Y0131418D02*
X0193560Y0131418D01*
X0193500Y0132417D02*
X0185050Y0132417D01*
X0185050Y0133415D02*
X0193822Y0133415D01*
X0194731Y0134414D02*
X0185050Y0134414D01*
X0185050Y0135412D02*
X0194552Y0135412D01*
X0194200Y0136411D02*
X0185050Y0136411D01*
X0185050Y0137409D02*
X0194230Y0137409D01*
X0194690Y0138408D02*
X0185050Y0138408D01*
X0185691Y0147395D02*
X0189803Y0147395D01*
X0189223Y0148393D02*
X0186774Y0148393D01*
X0187347Y0149392D02*
X0188956Y0149392D01*
X0188900Y0150390D02*
X0187700Y0150390D01*
X0187700Y0151389D02*
X0188900Y0151389D01*
X0188900Y0152387D02*
X0187700Y0152387D01*
X0166510Y0135412D02*
X0134675Y0135412D01*
X0133889Y0138408D02*
X0131679Y0138408D01*
X0131203Y0139406D02*
X0122900Y0139406D01*
X0122682Y0140405D02*
X0129487Y0140405D01*
X0128489Y0141403D02*
X0121683Y0141403D01*
X0120685Y0142402D02*
X0127490Y0142402D01*
X0126870Y0143401D02*
X0116950Y0143401D01*
X0116839Y0144399D02*
X0126293Y0144399D01*
X0125808Y0145398D02*
X0110250Y0145398D01*
X0110250Y0146396D02*
X0125540Y0146396D01*
X0125273Y0147395D02*
X0110250Y0147395D01*
X0113250Y0148393D02*
X0125110Y0148393D01*
X0125110Y0149392D02*
X0113250Y0149392D01*
X0113250Y0150390D02*
X0125110Y0150390D01*
X0125215Y0151389D02*
X0113250Y0151389D01*
X0113250Y0152387D02*
X0125482Y0152387D01*
X0125750Y0153386D02*
X0113250Y0153386D01*
X0113250Y0154384D02*
X0126168Y0154384D01*
X0126745Y0155383D02*
X0113250Y0155383D01*
X0112557Y0156381D02*
X0127321Y0156381D01*
X0128272Y0157380D02*
X0109556Y0157380D01*
X0108244Y0157380D02*
X0087960Y0157380D01*
X0089857Y0156381D02*
X0105043Y0156381D01*
X0104350Y0155383D02*
X0090250Y0155383D01*
X0090250Y0154384D02*
X0104350Y0154384D01*
X0104350Y0153386D02*
X0090250Y0153386D01*
X0090250Y0152387D02*
X0104350Y0152387D01*
X0104350Y0151389D02*
X0090250Y0151389D01*
X0090250Y0150390D02*
X0104350Y0150390D01*
X0104350Y0149392D02*
X0090250Y0149392D01*
X0090032Y0148393D02*
X0104350Y0148393D01*
X0106950Y0147395D02*
X0087550Y0147395D01*
X0087550Y0146396D02*
X0106950Y0146396D01*
X0106950Y0145398D02*
X0087550Y0145398D01*
X0084250Y0145398D02*
X0083916Y0145398D01*
X0084250Y0146396D02*
X0011000Y0146396D01*
X0011000Y0145398D02*
X0012357Y0145398D01*
X0012171Y0145348D02*
X0011829Y0145150D01*
X0011550Y0144871D01*
X0011352Y0144529D01*
X0011250Y0144147D01*
X0011250Y0141300D01*
X0014400Y0141300D01*
X0014400Y0145450D01*
X0012553Y0145450D01*
X0012171Y0145348D01*
X0011317Y0144399D02*
X0011000Y0144399D01*
X0011000Y0143401D02*
X0011250Y0143401D01*
X0011250Y0142402D02*
X0011000Y0142402D01*
X0011000Y0141403D02*
X0011250Y0141403D01*
X0011000Y0140405D02*
X0014400Y0140405D01*
X0014400Y0140300D02*
X0011250Y0140300D01*
X0011250Y0137453D01*
X0011352Y0137071D01*
X0011550Y0136729D01*
X0011829Y0136450D01*
X0012171Y0136252D01*
X0012553Y0136150D01*
X0014400Y0136150D01*
X0014400Y0140300D01*
X0015400Y0140300D01*
X0015400Y0141300D01*
X0018550Y0141300D01*
X0018550Y0144147D01*
X0018448Y0144529D01*
X0018250Y0144871D01*
X0017971Y0145150D01*
X0017629Y0145348D01*
X0017247Y0145450D01*
X0015400Y0145450D01*
X0015400Y0141300D01*
X0014400Y0141300D01*
X0014400Y0140300D01*
X0014400Y0139406D02*
X0015400Y0139406D01*
X0015400Y0140300D02*
X0015400Y0136150D01*
X0017247Y0136150D01*
X0017629Y0136252D01*
X0017971Y0136450D01*
X0018250Y0136729D01*
X0018448Y0137071D01*
X0018550Y0137453D01*
X0018550Y0140300D01*
X0015400Y0140300D01*
X0015400Y0140405D02*
X0020850Y0140405D01*
X0020850Y0141403D02*
X0018550Y0141403D01*
X0018550Y0142402D02*
X0020850Y0142402D01*
X0020850Y0143401D02*
X0018550Y0143401D01*
X0018483Y0144399D02*
X0020850Y0144399D01*
X0017443Y0145398D02*
X0033276Y0145398D01*
X0032750Y0144399D02*
X0027750Y0144399D01*
X0027750Y0143401D02*
X0032750Y0143401D01*
X0032750Y0142402D02*
X0031660Y0142402D01*
X0032457Y0141403D02*
X0035900Y0141403D01*
X0035900Y0140405D02*
X0036900Y0140405D01*
X0036900Y0141403D02*
X0042350Y0141403D01*
X0042350Y0140405D02*
X0040050Y0140405D01*
X0040050Y0139406D02*
X0042350Y0139406D01*
X0042350Y0138408D02*
X0040050Y0138408D01*
X0039958Y0137409D02*
X0042352Y0137409D01*
X0043900Y0136411D02*
X0027049Y0136411D01*
X0027750Y0137409D02*
X0027929Y0137409D01*
X0026100Y0135412D02*
X0043900Y0135412D01*
X0044499Y0134414D02*
X0026100Y0134414D01*
X0025502Y0133415D02*
X0045498Y0133415D01*
X0049248Y0137409D02*
X0052348Y0137409D01*
X0049250Y0138408D02*
X0055850Y0138408D01*
X0055850Y0139406D02*
X0049250Y0139406D01*
X0049250Y0140405D02*
X0055850Y0140405D01*
X0055850Y0142402D02*
X0049250Y0142402D01*
X0049250Y0143401D02*
X0055850Y0143401D01*
X0055850Y0144399D02*
X0049250Y0144399D01*
X0048641Y0145398D02*
X0056376Y0145398D01*
X0059000Y0145398D02*
X0060000Y0145398D01*
X0060000Y0144399D02*
X0059000Y0144399D01*
X0059000Y0143401D02*
X0060000Y0143401D01*
X0060000Y0142402D02*
X0059000Y0142402D01*
X0059000Y0141403D02*
X0049250Y0141403D01*
X0042350Y0142402D02*
X0040050Y0142402D01*
X0040050Y0143401D02*
X0042350Y0143401D01*
X0042350Y0144399D02*
X0040050Y0144399D01*
X0039524Y0145398D02*
X0042959Y0145398D01*
X0045132Y0148393D02*
X0060168Y0148393D01*
X0060512Y0148050D02*
X0067888Y0148050D01*
X0068650Y0148812D01*
X0068650Y0156188D01*
X0067888Y0156950D01*
X0066790Y0156950D01*
X0066059Y0157682D01*
X0064853Y0158181D01*
X0063547Y0158181D01*
X0062341Y0157682D01*
X0061610Y0156950D01*
X0060512Y0156950D01*
X0059750Y0156188D01*
X0059750Y0148812D01*
X0060512Y0148050D01*
X0059750Y0149392D02*
X0045550Y0149392D01*
X0045550Y0150390D02*
X0059750Y0150390D01*
X0059750Y0151389D02*
X0045550Y0151389D01*
X0045550Y0152387D02*
X0059750Y0152387D01*
X0059750Y0153386D02*
X0045550Y0153386D01*
X0045550Y0154384D02*
X0059750Y0154384D01*
X0059750Y0155383D02*
X0045550Y0155383D01*
X0045357Y0156381D02*
X0059943Y0156381D01*
X0062040Y0157380D02*
X0043800Y0157380D01*
X0043742Y0158378D02*
X0129271Y0158378D01*
X0130827Y0159377D02*
X0043242Y0159377D01*
X0038958Y0159377D02*
X0021442Y0159377D01*
X0021329Y0159489D02*
X0020337Y0159900D01*
X0019263Y0159900D01*
X0018271Y0159489D01*
X0017511Y0158729D01*
X0017100Y0157737D01*
X0017100Y0156663D01*
X0017105Y0156650D01*
X0015912Y0156650D01*
X0015150Y0155888D01*
X0015150Y0148512D01*
X0015912Y0147750D01*
X0023288Y0147750D01*
X0024050Y0148512D01*
X0024050Y0155888D01*
X0023288Y0156650D01*
X0022495Y0156650D01*
X0022500Y0156663D01*
X0022500Y0157737D01*
X0022089Y0158729D01*
X0021329Y0159489D01*
X0022234Y0158378D02*
X0038458Y0158378D01*
X0038400Y0157380D02*
X0022500Y0157380D01*
X0023557Y0156381D02*
X0036843Y0156381D01*
X0036650Y0155383D02*
X0024050Y0155383D01*
X0024050Y0154384D02*
X0036650Y0154384D01*
X0036650Y0153386D02*
X0024050Y0153386D01*
X0024050Y0152387D02*
X0036650Y0152387D01*
X0036650Y0151389D02*
X0024050Y0151389D01*
X0024050Y0150390D02*
X0036650Y0150390D01*
X0036650Y0149392D02*
X0024050Y0149392D01*
X0023932Y0148393D02*
X0037068Y0148393D01*
X0036900Y0145398D02*
X0035900Y0145398D01*
X0035900Y0144399D02*
X0036900Y0144399D01*
X0036900Y0143401D02*
X0035900Y0143401D01*
X0035900Y0142402D02*
X0036900Y0142402D01*
X0036900Y0139406D02*
X0035900Y0139406D01*
X0035900Y0138408D02*
X0036900Y0138408D01*
X0036900Y0137409D02*
X0035900Y0137409D01*
X0032842Y0137409D02*
X0031471Y0137409D01*
X0032379Y0138408D02*
X0032750Y0138408D01*
X0024504Y0132417D02*
X0052321Y0132417D01*
X0056079Y0132417D02*
X0061699Y0132417D01*
X0061117Y0131418D02*
X0024100Y0131418D01*
X0024100Y0130420D02*
X0061000Y0130420D01*
X0061266Y0129421D02*
X0024100Y0129421D01*
X0024100Y0128423D02*
X0030436Y0128423D01*
X0029437Y0127424D02*
X0024100Y0127424D01*
X0024100Y0126426D02*
X0028700Y0126426D01*
X0028700Y0125427D02*
X0024100Y0125427D01*
X0020300Y0125427D02*
X0011000Y0125427D01*
X0011000Y0124429D02*
X0016210Y0124429D01*
X0015582Y0123430D02*
X0011000Y0123430D01*
X0011000Y0122432D02*
X0015582Y0122432D01*
X0015582Y0121433D02*
X0011000Y0121433D01*
X0011000Y0120435D02*
X0015446Y0120435D01*
X0015100Y0119436D02*
X0011000Y0119436D01*
X0011000Y0118438D02*
X0015100Y0118438D01*
X0016900Y0119343D02*
X0018457Y0120900D01*
X0016900Y0119343D02*
X0016900Y0114534D01*
X0013238Y0114444D02*
X0011000Y0114444D01*
X0011000Y0115442D02*
X0013238Y0115442D01*
X0013238Y0116441D02*
X0011000Y0116441D01*
X0011000Y0117439D02*
X0013242Y0117439D01*
X0013238Y0113445D02*
X0011000Y0113445D01*
X0011000Y0112447D02*
X0013238Y0112447D01*
X0013423Y0111448D02*
X0011000Y0111448D01*
X0011000Y0110450D02*
X0022063Y0110450D01*
X0021065Y0111448D02*
X0020377Y0111448D01*
X0019841Y0110026D02*
X0019460Y0110128D01*
X0017400Y0110128D01*
X0017400Y0106766D01*
X0020762Y0106766D01*
X0020762Y0108826D01*
X0020660Y0109207D01*
X0020462Y0109549D01*
X0020183Y0109829D01*
X0019841Y0110026D01*
X0020519Y0109451D02*
X0023062Y0109451D01*
X0020762Y0108453D02*
X0025819Y0108453D01*
X0025819Y0107454D02*
X0020762Y0107454D01*
X0020762Y0105766D02*
X0017400Y0105766D01*
X0017400Y0102404D01*
X0019460Y0102404D01*
X0019841Y0102506D01*
X0020183Y0102704D01*
X0020462Y0102983D01*
X0020660Y0103325D01*
X0020762Y0103706D01*
X0020762Y0105766D01*
X0020762Y0105457D02*
X0026301Y0105457D01*
X0026640Y0104459D02*
X0020762Y0104459D01*
X0020696Y0103460D02*
X0026582Y0103460D01*
X0026582Y0102462D02*
X0019675Y0102462D01*
X0017400Y0102462D02*
X0016400Y0102462D01*
X0016400Y0102404D02*
X0014340Y0102404D01*
X0013959Y0102506D01*
X0013617Y0102704D01*
X0013337Y0102983D01*
X0013140Y0103325D01*
X0013038Y0103706D01*
X0013038Y0105766D01*
X0016400Y0105766D01*
X0017400Y0105766D01*
X0017400Y0106766D01*
X0016400Y0106766D01*
X0016400Y0105766D01*
X0016400Y0102404D01*
X0016400Y0103460D02*
X0017400Y0103460D01*
X0017400Y0104459D02*
X0016400Y0104459D01*
X0016400Y0105457D02*
X0017400Y0105457D01*
X0017400Y0106456D02*
X0025819Y0106456D01*
X0029457Y0107535D02*
X0029481Y0107560D01*
X0029500Y0107578D01*
X0029500Y0111100D01*
X0031943Y0109943D02*
X0032200Y0110563D01*
X0032200Y0111637D01*
X0031789Y0112629D01*
X0031761Y0112657D01*
X0032382Y0112657D01*
X0033144Y0113419D01*
X0033144Y0116661D01*
X0032467Y0117338D01*
X0032670Y0117338D01*
X0033431Y0118099D01*
X0033431Y0123901D01*
X0032670Y0124662D01*
X0032500Y0124662D01*
X0032500Y0125100D01*
X0040954Y0125100D01*
X0040954Y0124968D01*
X0040150Y0124968D01*
X0039888Y0124707D01*
X0039797Y0124760D01*
X0039416Y0124862D01*
X0037931Y0124862D01*
X0037931Y0121287D01*
X0037356Y0121287D01*
X0037356Y0120713D01*
X0034569Y0120713D01*
X0034569Y0118440D01*
X0034671Y0118059D01*
X0034868Y0117717D01*
X0035147Y0117437D01*
X0035490Y0117240D01*
X0035871Y0117138D01*
X0036250Y0117138D01*
X0036156Y0117044D01*
X0035959Y0116702D01*
X0035856Y0116320D01*
X0035856Y0115081D01*
X0039677Y0115081D01*
X0039677Y0114999D01*
X0035856Y0114999D01*
X0035856Y0113760D01*
X0035959Y0113378D01*
X0036119Y0113100D01*
X0034854Y0113100D01*
X0034254Y0112500D01*
X0033200Y0111446D01*
X0033200Y0104554D01*
X0033669Y0104086D01*
X0033669Y0098994D01*
X0033100Y0098426D01*
X0032457Y0099068D01*
X0032331Y0099068D01*
X0032331Y0104401D01*
X0031570Y0105162D01*
X0031257Y0105162D01*
X0031257Y0105177D01*
X0032382Y0105177D01*
X0033144Y0105939D01*
X0033144Y0109181D01*
X0032382Y0109943D01*
X0031943Y0109943D01*
X0032153Y0110450D02*
X0033200Y0110450D01*
X0033203Y0111448D02*
X0032200Y0111448D01*
X0031865Y0112447D02*
X0034201Y0112447D01*
X0033144Y0113445D02*
X0035941Y0113445D01*
X0035856Y0114444D02*
X0033144Y0114444D01*
X0033144Y0115442D02*
X0035856Y0115442D01*
X0035889Y0116441D02*
X0033144Y0116441D01*
X0032771Y0117439D02*
X0035146Y0117439D01*
X0034569Y0118438D02*
X0033431Y0118438D01*
X0033431Y0119436D02*
X0034569Y0119436D01*
X0034569Y0120435D02*
X0033431Y0120435D01*
X0033431Y0121433D02*
X0034569Y0121433D01*
X0034568Y0121287D02*
X0037356Y0121287D01*
X0037356Y0124862D01*
X0035871Y0124862D01*
X0035490Y0124760D01*
X0035147Y0124562D01*
X0034868Y0124283D01*
X0034671Y0123941D01*
X0034569Y0123560D01*
X0034568Y0121287D01*
X0034569Y0122432D02*
X0033431Y0122432D01*
X0033431Y0123430D02*
X0034569Y0123430D01*
X0035014Y0124429D02*
X0032903Y0124429D01*
X0030557Y0121000D02*
X0030457Y0120900D01*
X0025543Y0120900D01*
X0030500Y0120943D02*
X0030557Y0121000D01*
X0030500Y0120943D02*
X0030500Y0115200D01*
X0030340Y0115040D01*
X0029481Y0115040D01*
X0035000Y0110700D02*
X0035000Y0105300D01*
X0036500Y0103800D01*
X0036500Y0101543D01*
X0036543Y0101500D01*
X0042057Y0101500D01*
X0042057Y0096465D01*
X0042281Y0096240D01*
X0045944Y0096470D02*
X0048656Y0096470D01*
X0048656Y0095472D02*
X0047605Y0095472D01*
X0046395Y0095472D02*
X0045944Y0095472D01*
X0045944Y0097469D02*
X0048656Y0097469D01*
X0046800Y0098468D02*
X0045337Y0098468D01*
X0045131Y0099466D02*
X0046469Y0099466D01*
X0046469Y0100465D02*
X0045131Y0100465D01*
X0045131Y0101463D02*
X0046469Y0101463D01*
X0046469Y0102462D02*
X0045131Y0102462D01*
X0045131Y0103460D02*
X0046469Y0103460D01*
X0046469Y0104459D02*
X0045131Y0104459D01*
X0042899Y0105457D02*
X0062050Y0105457D01*
X0062050Y0104459D02*
X0060062Y0104459D01*
X0060062Y0103460D02*
X0062050Y0103460D01*
X0062050Y0102462D02*
X0060062Y0102462D01*
X0060062Y0101463D02*
X0062050Y0101463D01*
X0062050Y0100465D02*
X0060062Y0100465D01*
X0060062Y0099466D02*
X0062050Y0099466D01*
X0062050Y0098468D02*
X0059764Y0098468D01*
X0062050Y0097469D02*
X0056381Y0097469D01*
X0056381Y0096470D02*
X0062050Y0096470D01*
X0062050Y0095472D02*
X0056381Y0095472D01*
X0056218Y0094473D02*
X0062050Y0094473D01*
X0062050Y0093475D02*
X0049643Y0093475D01*
X0049700Y0092476D02*
X0062050Y0092476D01*
X0062050Y0091478D02*
X0049375Y0091478D01*
X0048955Y0090479D02*
X0048453Y0090479D01*
X0046700Y0092500D02*
X0047000Y0092800D01*
X0046700Y0092500D02*
X0042281Y0092500D01*
X0038619Y0092476D02*
X0025595Y0092476D01*
X0025112Y0093475D02*
X0026288Y0093475D01*
X0026288Y0094473D02*
X0025112Y0094473D01*
X0025112Y0095472D02*
X0026288Y0095472D01*
X0026288Y0096470D02*
X0025112Y0096470D01*
X0025112Y0097469D02*
X0026288Y0097469D01*
X0026449Y0098468D02*
X0024351Y0098468D01*
X0026582Y0099466D02*
X0011000Y0099466D01*
X0011000Y0100465D02*
X0026582Y0100465D01*
X0026582Y0101463D02*
X0011000Y0101463D01*
X0011000Y0102462D02*
X0014125Y0102462D01*
X0013104Y0103460D02*
X0011000Y0103460D01*
X0011000Y0104459D02*
X0013038Y0104459D01*
X0013038Y0105457D02*
X0011000Y0105457D01*
X0011000Y0106456D02*
X0016400Y0106456D01*
X0016400Y0106766D02*
X0013038Y0106766D01*
X0013038Y0108826D01*
X0013140Y0109207D01*
X0013337Y0109549D01*
X0013617Y0109829D01*
X0013959Y0110026D01*
X0014340Y0110128D01*
X0016400Y0110128D01*
X0016400Y0106766D01*
X0016400Y0107454D02*
X0017400Y0107454D01*
X0017400Y0108453D02*
X0016400Y0108453D01*
X0016400Y0109451D02*
X0017400Y0109451D01*
X0013281Y0109451D02*
X0011000Y0109451D01*
X0011000Y0108453D02*
X0013038Y0108453D01*
X0013038Y0107454D02*
X0011000Y0107454D01*
X0017658Y0098468D02*
X0018942Y0098468D01*
X0011488Y0093300D02*
X0011488Y0092693D01*
X0012250Y0091931D01*
X0013000Y0091931D01*
X0013000Y0085113D01*
X0014113Y0084000D01*
X0014813Y0083300D01*
X0016785Y0083300D01*
X0016785Y0078753D01*
X0017547Y0077991D01*
X0017700Y0077991D01*
X0017700Y0077718D01*
X0015299Y0077718D01*
X0014538Y0076957D01*
X0014538Y0072730D01*
X0015299Y0071969D01*
X0021101Y0071969D01*
X0021862Y0072730D01*
X0021862Y0075551D01*
X0022300Y0075113D01*
X0022300Y0075013D01*
X0023413Y0073900D01*
X0024713Y0072600D01*
X0029900Y0072600D01*
X0029900Y0070023D01*
X0028681Y0070023D01*
X0028198Y0069540D01*
X0021862Y0069540D01*
X0021862Y0069870D01*
X0021101Y0070631D01*
X0015299Y0070631D01*
X0014538Y0069870D01*
X0014538Y0066781D01*
X0014500Y0066744D01*
X0014500Y0064818D01*
X0013499Y0064818D01*
X0012738Y0064057D01*
X0012738Y0063550D01*
X0011517Y0063550D01*
X0011000Y0063033D01*
X0011000Y0093492D01*
X0011463Y0093300D01*
X0011488Y0093300D01*
X0011041Y0093475D02*
X0011000Y0093475D01*
X0011000Y0092476D02*
X0011705Y0092476D01*
X0011000Y0091478D02*
X0013000Y0091478D01*
X0013000Y0090479D02*
X0011000Y0090479D01*
X0011000Y0089481D02*
X0013000Y0089481D01*
X0013000Y0088482D02*
X0011000Y0088482D01*
X0011000Y0087484D02*
X0013000Y0087484D01*
X0013000Y0086485D02*
X0011000Y0086485D01*
X0011000Y0085487D02*
X0013000Y0085487D01*
X0013625Y0084488D02*
X0011000Y0084488D01*
X0011000Y0083490D02*
X0014623Y0083490D01*
X0016785Y0082491D02*
X0011000Y0082491D01*
X0011000Y0081493D02*
X0016785Y0081493D01*
X0016785Y0080494D02*
X0011000Y0080494D01*
X0011000Y0079496D02*
X0016785Y0079496D01*
X0017041Y0078497D02*
X0011000Y0078497D01*
X0011000Y0077499D02*
X0015080Y0077499D01*
X0014538Y0076500D02*
X0011000Y0076500D01*
X0011000Y0075502D02*
X0014538Y0075502D01*
X0014538Y0074503D02*
X0011000Y0074503D01*
X0011000Y0073505D02*
X0014538Y0073505D01*
X0014762Y0072506D02*
X0011000Y0072506D01*
X0011000Y0071508D02*
X0029900Y0071508D01*
X0029900Y0072506D02*
X0021638Y0072506D01*
X0021862Y0073505D02*
X0023808Y0073505D01*
X0022810Y0074503D02*
X0021862Y0074503D01*
X0021862Y0075502D02*
X0021911Y0075502D01*
X0021223Y0070509D02*
X0029900Y0070509D01*
X0034994Y0069511D02*
X0038179Y0069511D01*
X0037956Y0068512D02*
X0035244Y0068512D01*
X0035244Y0067514D02*
X0037956Y0067514D01*
X0037956Y0066515D02*
X0037680Y0066515D01*
X0036120Y0066515D02*
X0035244Y0066515D01*
X0036500Y0063900D02*
X0031581Y0063900D01*
X0027919Y0063520D02*
X0020062Y0063520D01*
X0020062Y0062521D02*
X0027919Y0062521D01*
X0027919Y0061523D02*
X0020062Y0061523D01*
X0020062Y0060524D02*
X0027919Y0060524D01*
X0027919Y0059526D02*
X0019758Y0059526D01*
X0019504Y0057529D02*
X0029681Y0057529D01*
X0028231Y0056530D02*
X0020062Y0056530D01*
X0020062Y0055532D02*
X0028231Y0055532D01*
X0028231Y0054533D02*
X0020062Y0054533D01*
X0020062Y0053534D02*
X0028231Y0053534D01*
X0028231Y0052536D02*
X0019855Y0052536D01*
X0019962Y0051537D02*
X0028231Y0051537D01*
X0028835Y0050539D02*
X0019962Y0050539D01*
X0019962Y0049540D02*
X0028231Y0049540D01*
X0028231Y0048542D02*
X0019962Y0048542D01*
X0019962Y0047543D02*
X0028231Y0047543D01*
X0028231Y0046545D02*
X0019962Y0046545D01*
X0019550Y0044548D02*
X0028231Y0044548D01*
X0028231Y0045546D02*
X0012650Y0045546D01*
X0012650Y0044548D02*
X0013050Y0044548D01*
X0015800Y0044548D02*
X0016800Y0044548D01*
X0016800Y0043549D02*
X0015800Y0043549D01*
X0015800Y0042551D02*
X0016800Y0042551D01*
X0016800Y0041552D02*
X0015800Y0041552D01*
X0016800Y0040554D02*
X0022266Y0040554D01*
X0022266Y0041552D02*
X0023266Y0041552D01*
X0023266Y0040700D02*
X0023266Y0044062D01*
X0025326Y0044062D01*
X0025707Y0043960D01*
X0026049Y0043762D01*
X0026329Y0043483D01*
X0026526Y0043141D01*
X0026628Y0042760D01*
X0026628Y0040700D01*
X0023266Y0040700D01*
X0023266Y0040554D02*
X0027372Y0040554D01*
X0027372Y0041552D02*
X0026628Y0041552D01*
X0026628Y0042551D02*
X0027372Y0042551D01*
X0027820Y0043549D02*
X0026262Y0043549D01*
X0023266Y0043549D02*
X0022266Y0043549D01*
X0022266Y0042551D02*
X0023266Y0042551D01*
X0023266Y0039555D02*
X0022266Y0039555D01*
X0022266Y0038557D02*
X0023266Y0038557D01*
X0023266Y0037558D02*
X0022266Y0037558D01*
X0022266Y0036560D02*
X0023266Y0036560D01*
X0025915Y0036560D02*
X0028111Y0036560D01*
X0027372Y0037558D02*
X0026606Y0037558D01*
X0026628Y0038557D02*
X0027372Y0038557D01*
X0027372Y0039555D02*
X0026628Y0039555D01*
X0019617Y0036560D02*
X0012650Y0036560D01*
X0012650Y0037558D02*
X0012862Y0037558D01*
X0012650Y0035561D02*
X0064000Y0035561D01*
X0064000Y0034563D02*
X0012650Y0034563D01*
X0012650Y0033564D02*
X0064000Y0033564D01*
X0064000Y0032566D02*
X0012650Y0032566D01*
X0012650Y0031567D02*
X0064000Y0031567D01*
X0064000Y0030569D02*
X0012650Y0030569D01*
X0013163Y0029570D02*
X0013608Y0029570D01*
X0017592Y0029570D02*
X0064000Y0029570D01*
X0064000Y0028572D02*
X0018370Y0028572D01*
X0018684Y0027573D02*
X0064000Y0027573D01*
X0064000Y0026575D02*
X0018679Y0026575D01*
X0016800Y0037558D02*
X0015800Y0037558D01*
X0015800Y0038557D02*
X0016800Y0038557D01*
X0016800Y0039555D02*
X0015800Y0039555D01*
X0012945Y0052536D02*
X0012650Y0052536D01*
X0012650Y0053534D02*
X0012738Y0053534D01*
X0012738Y0054533D02*
X0012650Y0054533D01*
X0012650Y0055532D02*
X0012738Y0055532D01*
X0012738Y0056530D02*
X0012650Y0056530D01*
X0012650Y0057529D02*
X0013296Y0057529D01*
X0012650Y0058527D02*
X0027931Y0058527D01*
X0034667Y0057962D02*
X0035244Y0058539D01*
X0035244Y0060848D01*
X0036286Y0060416D01*
X0037513Y0060416D01*
X0038156Y0060682D01*
X0038156Y0058539D01*
X0038918Y0057777D01*
X0041062Y0057777D01*
X0040868Y0057583D01*
X0040671Y0057241D01*
X0040569Y0056860D01*
X0040568Y0054587D01*
X0043356Y0054587D01*
X0043356Y0054013D01*
X0040569Y0054013D01*
X0040569Y0052350D01*
X0039431Y0052350D01*
X0039431Y0057201D01*
X0038670Y0057962D01*
X0034667Y0057962D01*
X0035232Y0058527D02*
X0038168Y0058527D01*
X0038156Y0059526D02*
X0035244Y0059526D01*
X0035244Y0060524D02*
X0036025Y0060524D01*
X0037775Y0060524D02*
X0038156Y0060524D01*
X0039104Y0057529D02*
X0040837Y0057529D01*
X0040569Y0056530D02*
X0039431Y0056530D01*
X0039431Y0055532D02*
X0040569Y0055532D01*
X0039431Y0054533D02*
X0043356Y0054533D01*
X0043931Y0054533D02*
X0062050Y0054533D01*
X0062050Y0055532D02*
X0046718Y0055532D01*
X0046718Y0053534D02*
X0061301Y0053534D01*
X0060303Y0052536D02*
X0046718Y0052536D01*
X0040569Y0052536D02*
X0039431Y0052536D01*
X0039431Y0053534D02*
X0040569Y0053534D01*
X0036557Y0054300D02*
X0035400Y0054300D01*
X0035300Y0054200D01*
X0039431Y0048542D02*
X0040769Y0048542D01*
X0040769Y0047543D02*
X0039431Y0047543D01*
X0039431Y0046545D02*
X0040769Y0046545D01*
X0040769Y0045546D02*
X0039431Y0045546D01*
X0039431Y0044548D02*
X0040769Y0044548D01*
X0041117Y0043549D02*
X0039083Y0043549D01*
X0039431Y0042551D02*
X0040769Y0042551D01*
X0040769Y0041552D02*
X0039431Y0041552D01*
X0039431Y0040554D02*
X0040769Y0040554D01*
X0040769Y0039555D02*
X0039431Y0039555D01*
X0039431Y0038557D02*
X0040769Y0038557D01*
X0040769Y0037558D02*
X0039431Y0037558D01*
X0033957Y0036560D02*
X0064000Y0036560D01*
X0064000Y0037558D02*
X0046518Y0037558D01*
X0046518Y0038557D02*
X0064000Y0038557D01*
X0064000Y0039555D02*
X0046518Y0039555D01*
X0046518Y0040554D02*
X0064231Y0040554D01*
X0065017Y0041552D02*
X0046518Y0041552D01*
X0046518Y0042551D02*
X0066015Y0042551D01*
X0067014Y0043549D02*
X0046169Y0043549D01*
X0046518Y0044548D02*
X0065264Y0044548D01*
X0067536Y0044548D02*
X0068012Y0044548D01*
X0068720Y0045546D02*
X0069011Y0045546D01*
X0069100Y0046545D02*
X0070000Y0046545D01*
X0070000Y0047543D02*
X0069097Y0047543D01*
X0068676Y0048542D02*
X0070000Y0048542D01*
X0070000Y0049540D02*
X0067322Y0049540D01*
X0065478Y0049540D02*
X0061974Y0049540D01*
X0062972Y0050539D02*
X0070000Y0050539D01*
X0070000Y0051537D02*
X0063971Y0051537D01*
X0064969Y0052536D02*
X0070000Y0052536D01*
X0070000Y0053534D02*
X0065350Y0053534D01*
X0065350Y0054533D02*
X0070000Y0054533D01*
X0070000Y0055532D02*
X0065350Y0055532D01*
X0065350Y0056530D02*
X0070000Y0056530D01*
X0070000Y0057529D02*
X0065350Y0057529D01*
X0065350Y0058527D02*
X0070000Y0058527D01*
X0070000Y0059526D02*
X0065350Y0059526D01*
X0065350Y0060524D02*
X0070000Y0060524D01*
X0070000Y0061523D02*
X0065350Y0061523D01*
X0065350Y0062521D02*
X0070000Y0062521D01*
X0070000Y0063520D02*
X0065350Y0063520D01*
X0065350Y0064518D02*
X0070000Y0064518D01*
X0070215Y0065517D02*
X0065350Y0065517D01*
X0065350Y0066515D02*
X0070980Y0066515D01*
X0071978Y0067514D02*
X0065350Y0067514D01*
X0065350Y0068512D02*
X0072977Y0068512D01*
X0073975Y0069511D02*
X0065350Y0069511D01*
X0065350Y0070509D02*
X0085974Y0070509D01*
X0086972Y0071508D02*
X0065350Y0071508D01*
X0065350Y0072506D02*
X0088093Y0072506D01*
X0088696Y0077499D02*
X0079788Y0077499D01*
X0079600Y0078497D02*
X0088114Y0078497D01*
X0088114Y0079496D02*
X0079600Y0079496D01*
X0079600Y0080494D02*
X0088114Y0080494D01*
X0088114Y0081493D02*
X0079600Y0081493D01*
X0079600Y0082491D02*
X0088703Y0082491D01*
X0088114Y0083490D02*
X0087837Y0083490D01*
X0088062Y0084488D02*
X0088114Y0084488D01*
X0088114Y0085487D02*
X0088062Y0085487D01*
X0088062Y0086485D02*
X0088114Y0086485D01*
X0088062Y0087484D02*
X0088711Y0087484D01*
X0088114Y0088482D02*
X0087633Y0088482D01*
X0088114Y0089481D02*
X0074634Y0089481D01*
X0074488Y0090479D02*
X0065350Y0090479D01*
X0065350Y0089481D02*
X0067766Y0089481D01*
X0067338Y0088482D02*
X0065350Y0088482D01*
X0065350Y0087484D02*
X0067338Y0087484D01*
X0067338Y0086485D02*
X0065350Y0086485D01*
X0065350Y0085487D02*
X0067338Y0085487D01*
X0067564Y0084488D02*
X0065350Y0084488D01*
X0065350Y0083490D02*
X0074391Y0083490D01*
X0075800Y0082491D02*
X0065350Y0082491D01*
X0065350Y0081493D02*
X0075800Y0081493D01*
X0075800Y0080494D02*
X0065350Y0080494D01*
X0065350Y0079496D02*
X0075800Y0079496D01*
X0075800Y0078497D02*
X0065350Y0078497D01*
X0065350Y0077499D02*
X0075800Y0077499D01*
X0075800Y0076500D02*
X0065350Y0076500D01*
X0065350Y0075502D02*
X0076411Y0075502D01*
X0077410Y0074503D02*
X0065350Y0074503D01*
X0065350Y0073505D02*
X0078408Y0073505D01*
X0087537Y0065517D02*
X0090554Y0065517D01*
X0090554Y0066515D02*
X0089051Y0066515D01*
X0090049Y0067514D02*
X0090554Y0067514D01*
X0090554Y0064518D02*
X0076054Y0064518D01*
X0075055Y0063520D02*
X0090867Y0063520D01*
X0090554Y0058527D02*
X0075000Y0058527D01*
X0075000Y0057529D02*
X0090554Y0057529D01*
X0090841Y0056530D02*
X0075000Y0056530D01*
X0075000Y0055532D02*
X0077913Y0055532D01*
X0077538Y0054533D02*
X0075000Y0054533D01*
X0075000Y0053534D02*
X0077538Y0053534D01*
X0077538Y0052536D02*
X0075000Y0052536D01*
X0075000Y0051537D02*
X0077538Y0051537D01*
X0077929Y0050539D02*
X0075000Y0050539D01*
X0075000Y0049540D02*
X0083650Y0049540D01*
X0081487Y0048542D02*
X0080913Y0048542D01*
X0080913Y0047543D02*
X0081487Y0047543D01*
X0081487Y0046545D02*
X0080913Y0046545D01*
X0081487Y0046244D02*
X0084267Y0046244D01*
X0084412Y0046100D01*
X0094188Y0046100D01*
X0084412Y0046100D01*
X0083981Y0045669D01*
X0081487Y0045669D01*
X0081487Y0046244D01*
X0080050Y0042551D02*
X0073086Y0042551D01*
X0074085Y0043549D02*
X0077586Y0043549D01*
X0077338Y0044548D02*
X0074812Y0044548D01*
X0075000Y0045546D02*
X0077338Y0045546D01*
X0077338Y0046545D02*
X0075000Y0046545D01*
X0075000Y0047543D02*
X0077338Y0047543D01*
X0077727Y0048542D02*
X0075000Y0048542D01*
X0078473Y0041552D02*
X0078527Y0041552D01*
X0081846Y0038900D02*
X0075154Y0038900D01*
X0071688Y0038557D02*
X0069092Y0038557D01*
X0069000Y0037558D02*
X0071688Y0037558D01*
X0071688Y0036560D02*
X0069000Y0036560D01*
X0069000Y0035561D02*
X0096650Y0035561D01*
X0096650Y0036560D02*
X0094897Y0036560D01*
X0095150Y0037558D02*
X0096650Y0037558D01*
X0096529Y0034563D02*
X0069000Y0034563D01*
X0069000Y0033564D02*
X0095531Y0033564D01*
X0094532Y0032566D02*
X0069000Y0032566D01*
X0069000Y0031567D02*
X0093534Y0031567D01*
X0092535Y0030569D02*
X0069000Y0030569D01*
X0070091Y0039555D02*
X0071688Y0039555D01*
X0071688Y0040554D02*
X0071089Y0040554D01*
X0062050Y0056530D02*
X0054282Y0056530D01*
X0055186Y0057529D02*
X0062050Y0057529D01*
X0062050Y0058527D02*
X0055243Y0058527D01*
X0055243Y0059526D02*
X0062050Y0059526D01*
X0062050Y0060524D02*
X0055243Y0060524D01*
X0055243Y0062521D02*
X0062050Y0062521D01*
X0062050Y0061523D02*
X0050700Y0061523D01*
X0050700Y0062521D02*
X0049700Y0062521D01*
X0049700Y0063520D02*
X0050700Y0063520D01*
X0050700Y0064518D02*
X0049700Y0064518D01*
X0049700Y0065517D02*
X0050700Y0065517D01*
X0054528Y0065517D02*
X0062050Y0065517D01*
X0062050Y0066515D02*
X0045681Y0066515D01*
X0045681Y0067514D02*
X0062050Y0067514D01*
X0062050Y0068512D02*
X0055043Y0068512D01*
X0055043Y0069511D02*
X0062050Y0069511D01*
X0062050Y0070509D02*
X0055043Y0070509D01*
X0055043Y0071508D02*
X0062050Y0071508D01*
X0062050Y0072506D02*
X0055043Y0072506D01*
X0055043Y0073505D02*
X0062050Y0073505D01*
X0062050Y0074503D02*
X0055043Y0074503D01*
X0055043Y0075502D02*
X0062050Y0075502D01*
X0062050Y0076500D02*
X0054343Y0076500D01*
X0062050Y0077499D02*
X0043320Y0077499D01*
X0043818Y0078497D02*
X0062050Y0078497D01*
X0062050Y0079496D02*
X0043818Y0079496D01*
X0043818Y0080494D02*
X0062050Y0080494D01*
X0062050Y0081493D02*
X0043818Y0081493D01*
X0043818Y0082491D02*
X0044547Y0082491D01*
X0041800Y0081900D02*
X0041800Y0088278D01*
X0042281Y0088760D01*
X0039273Y0086485D02*
X0026022Y0086485D01*
X0026475Y0087484D02*
X0038619Y0087484D01*
X0038619Y0088482D02*
X0026475Y0088482D01*
X0026475Y0090479D02*
X0038718Y0090479D01*
X0038619Y0089481D02*
X0023687Y0089481D01*
X0023113Y0089481D02*
X0016800Y0089481D01*
X0016800Y0090479D02*
X0020325Y0090479D01*
X0020325Y0091300D02*
X0020325Y0089618D01*
X0023113Y0089618D01*
X0023113Y0089043D01*
X0020325Y0089043D01*
X0020325Y0087362D01*
X0020395Y0087100D01*
X0016800Y0087100D01*
X0016800Y0091931D01*
X0017657Y0091931D01*
X0018300Y0092574D01*
X0018943Y0091931D01*
X0020572Y0091931D01*
X0020427Y0091681D01*
X0020325Y0091300D01*
X0020373Y0091478D02*
X0016800Y0091478D01*
X0018202Y0092476D02*
X0018398Y0092476D01*
X0016800Y0088482D02*
X0020325Y0088482D01*
X0020325Y0087484D02*
X0016800Y0087484D01*
X0023113Y0087484D02*
X0023687Y0087484D01*
X0023687Y0088482D02*
X0023113Y0088482D01*
X0023113Y0086485D02*
X0023687Y0086485D01*
X0024100Y0085487D02*
X0040000Y0085487D01*
X0038556Y0084488D02*
X0036244Y0084488D01*
X0036731Y0083490D02*
X0038069Y0083490D01*
X0038069Y0082491D02*
X0036731Y0082491D01*
X0036731Y0081493D02*
X0038069Y0081493D01*
X0038069Y0080494D02*
X0036731Y0080494D01*
X0036731Y0079496D02*
X0038069Y0079496D01*
X0038069Y0078497D02*
X0036731Y0078497D01*
X0036233Y0077499D02*
X0038769Y0077499D01*
X0038269Y0076500D02*
X0036931Y0076500D01*
X0036931Y0075502D02*
X0038269Y0075502D01*
X0038269Y0074503D02*
X0036931Y0074503D01*
X0036931Y0073505D02*
X0038269Y0073505D01*
X0038269Y0072506D02*
X0036931Y0072506D01*
X0036931Y0071508D02*
X0038269Y0071508D01*
X0038759Y0070509D02*
X0036441Y0070509D01*
X0034057Y0073900D02*
X0034057Y0074343D01*
X0033900Y0074500D01*
X0041777Y0069511D02*
X0041860Y0069511D01*
X0041860Y0068512D02*
X0041777Y0068512D01*
X0043528Y0070509D02*
X0045357Y0070509D01*
X0045357Y0071508D02*
X0044018Y0071508D01*
X0044018Y0076500D02*
X0046057Y0076500D01*
X0041000Y0081100D02*
X0041800Y0081900D01*
X0041000Y0081100D02*
X0040943Y0081100D01*
X0048453Y0082491D02*
X0062050Y0082491D01*
X0062050Y0083490D02*
X0049254Y0083490D01*
X0049584Y0084488D02*
X0062050Y0084488D01*
X0062050Y0085487D02*
X0049584Y0085487D01*
X0049510Y0086485D02*
X0049182Y0086485D01*
X0055527Y0086485D02*
X0062050Y0086485D01*
X0062050Y0087484D02*
X0056181Y0087484D01*
X0056181Y0088482D02*
X0062050Y0088482D01*
X0062050Y0089481D02*
X0056181Y0089481D01*
X0056082Y0090479D02*
X0062050Y0090479D01*
X0065350Y0091478D02*
X0067890Y0091478D01*
X0067538Y0092476D02*
X0065350Y0092476D01*
X0065350Y0093475D02*
X0067538Y0093475D01*
X0067538Y0094473D02*
X0065350Y0094473D01*
X0065350Y0095472D02*
X0067538Y0095472D01*
X0067952Y0096470D02*
X0065350Y0096470D01*
X0065350Y0097469D02*
X0069500Y0097469D01*
X0070322Y0098468D02*
X0065350Y0098468D01*
X0065350Y0099466D02*
X0071320Y0099466D01*
X0072506Y0098106D02*
X0071300Y0096900D01*
X0071300Y0094043D01*
X0071200Y0093943D01*
X0072506Y0098106D02*
X0075660Y0098106D01*
X0073277Y0100465D02*
X0065350Y0100465D01*
X0065350Y0101463D02*
X0073277Y0101463D01*
X0073277Y0102462D02*
X0065350Y0102462D01*
X0065350Y0103460D02*
X0074422Y0103460D01*
X0073943Y0104459D02*
X0065350Y0104459D01*
X0065350Y0105457D02*
X0073900Y0105457D01*
X0073739Y0106456D02*
X0065350Y0106456D01*
X0065350Y0107454D02*
X0073277Y0107454D01*
X0073277Y0108453D02*
X0065350Y0108453D01*
X0065350Y0109451D02*
X0073277Y0109451D01*
X0073277Y0110450D02*
X0065350Y0110450D01*
X0065350Y0111448D02*
X0070408Y0111448D01*
X0071792Y0111448D02*
X0073277Y0111448D01*
X0077317Y0113445D02*
X0077743Y0113445D01*
X0077190Y0114444D02*
X0078688Y0114444D01*
X0078688Y0115442D02*
X0076191Y0115442D01*
X0075193Y0116441D02*
X0078688Y0116441D01*
X0078688Y0117439D02*
X0072758Y0117439D01*
X0073482Y0118438D02*
X0078688Y0118438D01*
X0073700Y0119436D02*
X0087045Y0119436D01*
X0086531Y0120435D02*
X0073535Y0120435D01*
X0072885Y0121433D02*
X0086531Y0121433D01*
X0086531Y0122432D02*
X0063600Y0122432D01*
X0063422Y0121433D02*
X0069115Y0121433D01*
X0065401Y0120435D02*
X0062753Y0120435D01*
X0064403Y0119436D02*
X0053012Y0119436D01*
X0052257Y0118438D02*
X0063404Y0118438D01*
X0062406Y0117439D02*
X0042801Y0117439D01*
X0043548Y0116441D02*
X0062050Y0116441D01*
X0062050Y0115442D02*
X0043581Y0115442D01*
X0043581Y0114444D02*
X0062050Y0114444D01*
X0062050Y0113445D02*
X0059734Y0113445D01*
X0059683Y0113496D02*
X0059341Y0113694D01*
X0058960Y0113796D01*
X0056900Y0113796D01*
X0056900Y0110434D01*
X0055900Y0110434D01*
X0055900Y0113796D01*
X0053840Y0113796D01*
X0053459Y0113694D01*
X0053117Y0113496D01*
X0052837Y0113217D01*
X0052640Y0112875D01*
X0052538Y0112494D01*
X0052538Y0110434D01*
X0055900Y0110434D01*
X0055900Y0109434D01*
X0052538Y0109434D01*
X0052538Y0107374D01*
X0052640Y0106993D01*
X0052837Y0106651D01*
X0053117Y0106371D01*
X0053459Y0106174D01*
X0053840Y0106072D01*
X0055900Y0106072D01*
X0055900Y0109434D01*
X0056900Y0109434D01*
X0056900Y0110434D01*
X0060262Y0110434D01*
X0060262Y0112494D01*
X0060160Y0112875D01*
X0059962Y0113217D01*
X0059683Y0113496D01*
X0060262Y0112447D02*
X0062050Y0112447D01*
X0062050Y0111448D02*
X0060262Y0111448D01*
X0060262Y0110450D02*
X0062050Y0110450D01*
X0062050Y0109451D02*
X0056900Y0109451D01*
X0056900Y0109434D02*
X0060262Y0109434D01*
X0060262Y0107374D01*
X0060160Y0106993D01*
X0059962Y0106651D01*
X0059683Y0106371D01*
X0059341Y0106174D01*
X0058960Y0106072D01*
X0056900Y0106072D01*
X0056900Y0109434D01*
X0056900Y0108453D02*
X0055900Y0108453D01*
X0055900Y0109451D02*
X0048346Y0109451D01*
X0048600Y0108453D02*
X0052538Y0108453D01*
X0052538Y0107454D02*
X0048472Y0107454D01*
X0047874Y0106456D02*
X0053033Y0106456D01*
X0052738Y0104459D02*
X0052218Y0104459D01*
X0049409Y0101766D02*
X0049343Y0101700D01*
X0049409Y0101766D02*
X0056400Y0101666D01*
X0052738Y0099918D02*
X0052738Y0098823D01*
X0052560Y0098823D01*
X0052560Y0096282D01*
X0052477Y0096282D01*
X0052477Y0098823D01*
X0052218Y0098823D01*
X0052218Y0099926D01*
X0052738Y0099918D01*
X0052738Y0099466D02*
X0052218Y0099466D01*
X0052477Y0098468D02*
X0052560Y0098468D01*
X0052560Y0097469D02*
X0052477Y0097469D01*
X0052477Y0096470D02*
X0052560Y0096470D01*
X0052560Y0095472D02*
X0052477Y0095472D01*
X0052477Y0094473D02*
X0052560Y0094473D01*
X0042257Y0101700D02*
X0042057Y0101500D01*
X0036446Y0095800D02*
X0029754Y0095800D01*
X0033058Y0098468D02*
X0033142Y0098468D01*
X0033669Y0099466D02*
X0032331Y0099466D01*
X0032331Y0100465D02*
X0033669Y0100465D01*
X0033669Y0101463D02*
X0032331Y0101463D01*
X0032331Y0102462D02*
X0033669Y0102462D01*
X0033669Y0103460D02*
X0032331Y0103460D01*
X0032274Y0104459D02*
X0033296Y0104459D01*
X0033200Y0105457D02*
X0032662Y0105457D01*
X0033144Y0106456D02*
X0033200Y0106456D01*
X0033200Y0107454D02*
X0033144Y0107454D01*
X0033144Y0108453D02*
X0033200Y0108453D01*
X0033200Y0109451D02*
X0032874Y0109451D01*
X0035000Y0110700D02*
X0035600Y0111300D01*
X0039719Y0111300D01*
X0043381Y0111448D02*
X0052538Y0111448D01*
X0052538Y0110450D02*
X0047569Y0110450D01*
X0043381Y0112447D02*
X0052538Y0112447D01*
X0053066Y0113445D02*
X0043496Y0113445D01*
X0043381Y0110450D02*
X0044231Y0110450D01*
X0045564Y0118438D02*
X0046836Y0118438D01*
X0049546Y0121700D02*
X0042854Y0121700D01*
X0046097Y0124429D02*
X0046303Y0124429D01*
X0044754Y0125427D02*
X0086601Y0125427D01*
X0086531Y0124429D02*
X0062690Y0124429D01*
X0063396Y0123430D02*
X0086531Y0123430D01*
X0089800Y0122654D02*
X0089800Y0129346D01*
X0086531Y0129421D02*
X0085855Y0129421D01*
X0086531Y0128423D02*
X0081512Y0128423D01*
X0080843Y0127424D02*
X0086531Y0127424D01*
X0086748Y0126426D02*
X0044754Y0126426D01*
X0044163Y0127424D02*
X0068557Y0127424D01*
X0067888Y0128423D02*
X0065341Y0128423D01*
X0062059Y0128423D02*
X0043164Y0128423D01*
X0037931Y0124429D02*
X0037356Y0124429D01*
X0037356Y0123430D02*
X0037931Y0123430D01*
X0037931Y0122432D02*
X0037356Y0122432D01*
X0037356Y0121433D02*
X0037931Y0121433D01*
X0028210Y0124429D02*
X0027790Y0124429D01*
X0020300Y0126426D02*
X0011000Y0126426D01*
X0011000Y0127424D02*
X0020300Y0127424D01*
X0020300Y0128423D02*
X0011000Y0128423D01*
X0011000Y0129421D02*
X0020300Y0129421D01*
X0020300Y0130420D02*
X0011000Y0130420D01*
X0011000Y0131418D02*
X0020300Y0131418D01*
X0020300Y0132417D02*
X0011000Y0132417D01*
X0011000Y0133415D02*
X0020300Y0133415D01*
X0021127Y0134414D02*
X0011000Y0134414D01*
X0011000Y0135412D02*
X0022125Y0135412D01*
X0021551Y0136411D02*
X0017904Y0136411D01*
X0018538Y0137409D02*
X0020850Y0137409D01*
X0020850Y0138408D02*
X0018550Y0138408D01*
X0018550Y0139406D02*
X0020850Y0139406D01*
X0015400Y0138408D02*
X0014400Y0138408D01*
X0014400Y0137409D02*
X0015400Y0137409D01*
X0015400Y0136411D02*
X0014400Y0136411D01*
X0011896Y0136411D02*
X0011000Y0136411D01*
X0011000Y0137409D02*
X0011262Y0137409D01*
X0011250Y0138408D02*
X0011000Y0138408D01*
X0011000Y0139406D02*
X0011250Y0139406D01*
X0014400Y0141403D02*
X0015400Y0141403D01*
X0015400Y0142402D02*
X0014400Y0142402D01*
X0014400Y0143401D02*
X0015400Y0143401D01*
X0015400Y0144399D02*
X0014400Y0144399D01*
X0014400Y0145398D02*
X0015400Y0145398D01*
X0015268Y0148393D02*
X0011000Y0148393D01*
X0011000Y0147395D02*
X0084250Y0147395D01*
X0081568Y0148393D02*
X0068232Y0148393D01*
X0068650Y0149392D02*
X0081350Y0149392D01*
X0081350Y0150390D02*
X0068650Y0150390D01*
X0068650Y0151389D02*
X0081350Y0151389D01*
X0081350Y0152387D02*
X0068650Y0152387D01*
X0068650Y0153386D02*
X0081350Y0153386D01*
X0081350Y0154384D02*
X0068650Y0154384D01*
X0068650Y0155383D02*
X0081350Y0155383D01*
X0081743Y0156381D02*
X0068457Y0156381D01*
X0066360Y0157380D02*
X0084040Y0157380D01*
X0081600Y0145398D02*
X0080600Y0145398D01*
X0080600Y0144399D02*
X0081600Y0144399D01*
X0081600Y0143401D02*
X0080600Y0143401D01*
X0080600Y0142402D02*
X0081600Y0142402D01*
X0081600Y0141403D02*
X0080600Y0141403D01*
X0080600Y0140405D02*
X0072350Y0140405D01*
X0072350Y0141403D02*
X0077450Y0141403D01*
X0077450Y0142402D02*
X0072350Y0142402D01*
X0072350Y0143401D02*
X0077450Y0143401D01*
X0077491Y0144399D02*
X0072350Y0144399D01*
X0071741Y0145398D02*
X0078284Y0145398D01*
X0077450Y0139406D02*
X0072350Y0139406D01*
X0072350Y0138408D02*
X0077450Y0138408D01*
X0077488Y0137409D02*
X0072348Y0137409D01*
X0070800Y0136411D02*
X0078269Y0136411D01*
X0080600Y0136411D02*
X0081600Y0136411D01*
X0081600Y0137409D02*
X0080600Y0137409D01*
X0080600Y0138408D02*
X0081600Y0138408D01*
X0081600Y0139406D02*
X0080600Y0139406D01*
X0083931Y0136411D02*
X0084250Y0136411D01*
X0084250Y0135412D02*
X0070799Y0135412D01*
X0069801Y0134414D02*
X0084250Y0134414D01*
X0084250Y0133415D02*
X0081203Y0133415D01*
X0081512Y0132417D02*
X0084183Y0132417D01*
X0087550Y0133415D02*
X0106182Y0133415D01*
X0106950Y0134414D02*
X0087550Y0134414D01*
X0087550Y0135412D02*
X0106950Y0135412D01*
X0104600Y0136411D02*
X0103600Y0136411D01*
X0103600Y0137409D02*
X0104600Y0137409D01*
X0104600Y0138408D02*
X0103600Y0138408D01*
X0103600Y0139406D02*
X0104600Y0139406D01*
X0103600Y0140405D02*
X0099282Y0140405D01*
X0099600Y0139406D02*
X0100450Y0139406D01*
X0100450Y0138408D02*
X0099536Y0138408D01*
X0099028Y0137409D02*
X0100450Y0137409D01*
X0100868Y0136411D02*
X0097463Y0136411D01*
X0096337Y0136411D02*
X0087550Y0136411D01*
X0093950Y0137409D02*
X0094772Y0137409D01*
X0094264Y0138408D02*
X0093950Y0138408D01*
X0098394Y0141403D02*
X0100450Y0141403D01*
X0100450Y0142402D02*
X0096985Y0142402D01*
X0093950Y0143401D02*
X0100450Y0143401D01*
X0100593Y0144399D02*
X0093950Y0144399D01*
X0103600Y0144399D02*
X0104600Y0144399D01*
X0104600Y0143401D02*
X0103600Y0143401D01*
X0103600Y0142402D02*
X0104600Y0142402D01*
X0104600Y0141403D02*
X0103600Y0141403D01*
X0110250Y0136712D02*
X0110812Y0136150D01*
X0116188Y0136150D01*
X0116950Y0136912D01*
X0116950Y0138700D01*
X0118657Y0138700D01*
X0118300Y0137837D01*
X0118300Y0136763D01*
X0118711Y0135771D01*
X0119471Y0135011D01*
X0120463Y0134600D01*
X0121537Y0134600D01*
X0122529Y0135011D01*
X0122818Y0135300D01*
X0129413Y0135300D01*
X0132600Y0132113D01*
X0132600Y0131718D01*
X0132329Y0131989D01*
X0131337Y0132400D01*
X0130263Y0132400D01*
X0129271Y0131989D01*
X0128632Y0131350D01*
X0128617Y0131350D01*
X0125017Y0127750D01*
X0105183Y0127750D01*
X0109283Y0131850D01*
X0110250Y0132817D01*
X0110250Y0136712D01*
X0110250Y0136411D02*
X0110551Y0136411D01*
X0110250Y0135412D02*
X0119069Y0135412D01*
X0118446Y0136411D02*
X0116449Y0136411D01*
X0116950Y0137409D02*
X0118300Y0137409D01*
X0118536Y0138408D02*
X0116950Y0138408D01*
X0110250Y0134414D02*
X0130299Y0134414D01*
X0131298Y0133415D02*
X0110250Y0133415D01*
X0109850Y0132417D02*
X0132296Y0132417D01*
X0128700Y0131418D02*
X0108852Y0131418D01*
X0107853Y0130420D02*
X0127686Y0130420D01*
X0126688Y0129421D02*
X0106855Y0129421D01*
X0105856Y0128423D02*
X0125689Y0128423D01*
X0136400Y0128423D02*
X0141084Y0128423D01*
X0141262Y0128600D02*
X0140500Y0127838D01*
X0140500Y0119362D01*
X0141262Y0118600D01*
X0149738Y0118600D01*
X0150500Y0119362D01*
X0150500Y0127838D01*
X0149738Y0128600D01*
X0141262Y0128600D01*
X0140500Y0127424D02*
X0137747Y0127424D01*
X0138741Y0126426D02*
X0140500Y0126426D01*
X0140500Y0125427D02*
X0139155Y0125427D01*
X0139500Y0124429D02*
X0140500Y0124429D01*
X0140500Y0123430D02*
X0139500Y0123430D01*
X0139428Y0122432D02*
X0140500Y0122432D01*
X0140500Y0121433D02*
X0139014Y0121433D01*
X0138406Y0120435D02*
X0140500Y0120435D01*
X0140500Y0119436D02*
X0137407Y0119436D01*
X0131593Y0119436D02*
X0092555Y0119436D01*
X0092312Y0118438D02*
X0155014Y0118438D01*
X0157186Y0118438D02*
X0162824Y0118438D01*
X0162100Y0119436D02*
X0159207Y0119436D01*
X0160206Y0120435D02*
X0162100Y0120435D01*
X0162100Y0121433D02*
X0160697Y0121433D01*
X0161100Y0122432D02*
X0162100Y0122432D01*
X0162100Y0123430D02*
X0161100Y0123430D01*
X0161086Y0124429D02*
X0162100Y0124429D01*
X0162100Y0125427D02*
X0160672Y0125427D01*
X0160145Y0126426D02*
X0162100Y0126426D01*
X0162100Y0127424D02*
X0159147Y0127424D01*
X0158000Y0130420D02*
X0166432Y0130420D01*
X0154200Y0130420D02*
X0136400Y0130420D01*
X0136400Y0129421D02*
X0154200Y0129421D01*
X0154200Y0128423D02*
X0149916Y0128423D01*
X0150500Y0127424D02*
X0153053Y0127424D01*
X0152055Y0126426D02*
X0150500Y0126426D01*
X0150500Y0125427D02*
X0151528Y0125427D01*
X0151114Y0124429D02*
X0150500Y0124429D01*
X0150500Y0123430D02*
X0151100Y0123430D01*
X0151100Y0122432D02*
X0150500Y0122432D01*
X0150500Y0121433D02*
X0151503Y0121433D01*
X0151994Y0120435D02*
X0150500Y0120435D01*
X0150500Y0119436D02*
X0152993Y0119436D01*
X0165350Y0117439D02*
X0092312Y0117439D01*
X0092893Y0116441D02*
X0165207Y0116441D01*
X0185102Y0122432D02*
X0192568Y0122432D01*
X0192568Y0123430D02*
X0185050Y0123430D01*
X0185050Y0124429D02*
X0192871Y0124429D01*
X0192568Y0121433D02*
X0186100Y0121433D01*
X0191299Y0120435D02*
X0192568Y0120435D01*
X0192568Y0119436D02*
X0192297Y0119436D01*
X0195352Y0116382D02*
X0196375Y0116382D01*
X0196427Y0116434D01*
X0196479Y0116382D01*
X0199524Y0116382D01*
X0199576Y0116434D01*
X0199628Y0116382D01*
X0202674Y0116382D01*
X0202726Y0116434D01*
X0202778Y0116382D01*
X0203642Y0116382D01*
X0203118Y0115859D01*
X0202619Y0114653D01*
X0202619Y0113347D01*
X0203118Y0112141D01*
X0204041Y0111218D01*
X0205247Y0110719D01*
X0206553Y0110719D01*
X0207759Y0111218D01*
X0208682Y0112141D01*
X0209181Y0113347D01*
X0209181Y0114653D01*
X0209157Y0114711D01*
X0209250Y0114805D01*
X0209250Y0116227D01*
X0209418Y0116182D01*
X0210600Y0116182D01*
X0211782Y0116182D01*
X0212163Y0116284D01*
X0212333Y0116382D01*
X0215272Y0116382D01*
X0215324Y0116434D01*
X0215376Y0116382D01*
X0218422Y0116382D01*
X0218474Y0116434D01*
X0218526Y0116382D01*
X0221450Y0116382D01*
X0221450Y0116283D01*
X0217950Y0112783D01*
X0217950Y0108583D01*
X0217617Y0108250D01*
X0197817Y0108250D01*
X0196850Y0107283D01*
X0195450Y0105883D01*
X0195450Y0116283D01*
X0195352Y0116382D01*
X0195450Y0115442D02*
X0202946Y0115442D01*
X0202619Y0114444D02*
X0195450Y0114444D01*
X0195450Y0113445D02*
X0202619Y0113445D01*
X0202992Y0112447D02*
X0195450Y0112447D01*
X0195450Y0111448D02*
X0203812Y0111448D01*
X0207988Y0111448D02*
X0217950Y0111448D01*
X0217950Y0110450D02*
X0195450Y0110450D01*
X0195450Y0109451D02*
X0217950Y0109451D01*
X0217819Y0108453D02*
X0195450Y0108453D01*
X0195450Y0107454D02*
X0197021Y0107454D01*
X0196022Y0106456D02*
X0195450Y0106456D01*
X0201223Y0100465D02*
X0224231Y0100465D01*
X0224750Y0101463D02*
X0220596Y0101463D01*
X0221595Y0102462D02*
X0224750Y0102462D01*
X0224750Y0103460D02*
X0222594Y0103460D01*
X0223592Y0104459D02*
X0224750Y0104459D01*
X0224750Y0105457D02*
X0223750Y0105457D01*
X0223750Y0106456D02*
X0224750Y0106456D01*
X0224750Y0107454D02*
X0223750Y0107454D01*
X0223750Y0108453D02*
X0224750Y0108453D01*
X0224750Y0109451D02*
X0223750Y0109451D01*
X0223750Y0110450D02*
X0224750Y0110450D01*
X0224750Y0111448D02*
X0224682Y0111448D01*
X0225680Y0112447D02*
X0225713Y0112447D01*
X0226679Y0113445D02*
X0226712Y0113445D01*
X0227677Y0114444D02*
X0227710Y0114444D01*
X0228050Y0115442D02*
X0229553Y0115442D01*
X0228050Y0116441D02*
X0235588Y0116441D01*
X0235588Y0117439D02*
X0228632Y0117439D01*
X0228632Y0118438D02*
X0248541Y0118438D01*
X0248146Y0114900D02*
X0245746Y0115100D01*
X0239054Y0115100D01*
X0239702Y0113548D01*
X0233435Y0113548D01*
X0229182Y0110450D02*
X0228383Y0110450D01*
X0228050Y0109451D02*
X0229182Y0109451D01*
X0229182Y0108453D02*
X0228050Y0108453D01*
X0228050Y0107454D02*
X0229182Y0107454D01*
X0229182Y0106456D02*
X0228050Y0106456D01*
X0228050Y0105457D02*
X0229182Y0105457D01*
X0229182Y0104459D02*
X0228050Y0104459D01*
X0228050Y0103460D02*
X0229182Y0103460D01*
X0229182Y0102462D02*
X0228050Y0102462D01*
X0228050Y0101463D02*
X0229182Y0101463D01*
X0229182Y0100465D02*
X0228050Y0100465D01*
X0227899Y0099466D02*
X0229182Y0099466D01*
X0229182Y0098468D02*
X0226901Y0098468D01*
X0225902Y0097469D02*
X0229182Y0097469D01*
X0229182Y0096470D02*
X0224904Y0096470D01*
X0223233Y0099466D02*
X0202752Y0099466D01*
X0202035Y0095472D02*
X0229182Y0095472D01*
X0233435Y0094650D02*
X0240050Y0094550D01*
X0245500Y0089100D01*
X0245500Y0041300D01*
X0247100Y0039700D01*
X0256316Y0039700D01*
X0259954Y0039661D01*
X0259954Y0037102D02*
X0256252Y0037000D01*
X0246100Y0037000D01*
X0243100Y0040000D01*
X0243100Y0088300D01*
X0239999Y0091401D01*
X0233435Y0091501D01*
X0239649Y0088351D02*
X0240900Y0087100D01*
X0240800Y0038800D01*
X0245100Y0034500D01*
X0256311Y0034500D01*
X0259954Y0034543D01*
X0257054Y0032566D02*
X0232346Y0032566D01*
X0232346Y0031567D02*
X0257054Y0031567D01*
X0257131Y0030569D02*
X0232222Y0030569D01*
X0229246Y0030569D02*
X0229246Y0030569D01*
X0229246Y0031567D02*
X0229246Y0031567D01*
X0229246Y0031984D02*
X0226146Y0031984D01*
X0229246Y0031984D01*
X0229246Y0031984D01*
X0229246Y0034543D02*
X0200043Y0034543D01*
X0195600Y0030100D01*
X0195600Y0025372D01*
X0195476Y0025248D01*
X0199121Y0026575D02*
X0262000Y0026575D01*
X0262000Y0027573D02*
X0198631Y0027573D01*
X0197578Y0028572D02*
X0262000Y0028572D01*
X0262000Y0029570D02*
X0197616Y0029570D01*
X0198614Y0030569D02*
X0226269Y0030569D01*
X0226146Y0031567D02*
X0199613Y0031567D01*
X0200611Y0032566D02*
X0226146Y0032566D01*
X0232146Y0033564D02*
X0243490Y0033564D01*
X0242492Y0034563D02*
X0232146Y0034563D01*
X0232146Y0035561D02*
X0241493Y0035561D01*
X0240495Y0036560D02*
X0232146Y0036560D01*
X0232146Y0037558D02*
X0239496Y0037558D01*
X0238999Y0038557D02*
X0232146Y0038557D01*
X0232146Y0039555D02*
X0239002Y0039555D01*
X0239004Y0040554D02*
X0232146Y0040554D01*
X0232146Y0041552D02*
X0239006Y0041552D01*
X0239008Y0042551D02*
X0232146Y0042551D01*
X0232146Y0043549D02*
X0239010Y0043549D01*
X0247800Y0043100D02*
X0248700Y0042200D01*
X0256334Y0042200D01*
X0259954Y0042220D01*
X0259954Y0044780D02*
X0256334Y0044800D01*
X0250900Y0044800D01*
X0250100Y0045600D01*
X0250100Y0091300D01*
X0240550Y0100850D01*
X0233435Y0100950D01*
X0233435Y0104099D02*
X0241201Y0103999D01*
X0252800Y0092400D01*
X0252800Y0048300D01*
X0253800Y0047300D01*
X0256316Y0047300D01*
X0259954Y0047339D01*
X0259954Y0055016D02*
X0260654Y0055254D01*
X0260600Y0059100D01*
X0261807Y0061523D02*
X0262000Y0061523D01*
X0262000Y0062521D02*
X0258350Y0062521D01*
X0258350Y0061523D02*
X0259393Y0061523D01*
X0258350Y0063520D02*
X0262000Y0063520D01*
X0262000Y0064518D02*
X0258350Y0064518D01*
X0258350Y0065517D02*
X0262000Y0065517D01*
X0262000Y0066515D02*
X0258350Y0066515D01*
X0258350Y0067514D02*
X0262000Y0067514D01*
X0262000Y0068512D02*
X0258350Y0068512D01*
X0258350Y0069511D02*
X0262000Y0069511D01*
X0262000Y0070509D02*
X0258350Y0070509D01*
X0258350Y0071508D02*
X0262000Y0071508D01*
X0262000Y0072506D02*
X0258350Y0072506D01*
X0258350Y0073505D02*
X0262000Y0073505D01*
X0262000Y0074503D02*
X0258350Y0074503D01*
X0258350Y0075502D02*
X0262000Y0075502D01*
X0262000Y0076500D02*
X0258350Y0076500D01*
X0258350Y0077499D02*
X0262000Y0077499D01*
X0262000Y0078497D02*
X0258350Y0078497D01*
X0258350Y0079496D02*
X0262000Y0079496D01*
X0262000Y0080494D02*
X0258350Y0080494D01*
X0258350Y0081493D02*
X0262000Y0081493D01*
X0262000Y0082491D02*
X0258350Y0082491D01*
X0258350Y0083490D02*
X0262000Y0083490D01*
X0262000Y0084488D02*
X0258350Y0084488D01*
X0258350Y0085487D02*
X0262000Y0085487D01*
X0262000Y0086485D02*
X0258350Y0086485D01*
X0258350Y0087484D02*
X0262000Y0087484D01*
X0262000Y0088482D02*
X0258350Y0088482D01*
X0258350Y0089481D02*
X0262000Y0089481D01*
X0262000Y0090479D02*
X0258350Y0090479D01*
X0258350Y0091478D02*
X0262000Y0091478D01*
X0262000Y0092476D02*
X0258350Y0092476D01*
X0258350Y0093475D02*
X0262000Y0093475D01*
X0262000Y0094473D02*
X0258350Y0094473D01*
X0258350Y0095472D02*
X0262000Y0095472D01*
X0262000Y0096470D02*
X0257463Y0096470D01*
X0256464Y0097469D02*
X0262000Y0097469D01*
X0262000Y0098468D02*
X0255466Y0098468D01*
X0254467Y0099466D02*
X0262000Y0099466D01*
X0262000Y0100465D02*
X0253469Y0100465D01*
X0252470Y0101463D02*
X0262000Y0101463D01*
X0262000Y0102462D02*
X0251472Y0102462D01*
X0250473Y0103460D02*
X0262000Y0103460D01*
X0262000Y0104459D02*
X0249475Y0104459D01*
X0248476Y0105457D02*
X0262000Y0105457D01*
X0262000Y0106456D02*
X0261496Y0106456D01*
X0259400Y0109000D02*
X0259400Y0114066D01*
X0259834Y0114900D01*
X0256172Y0114444D02*
X0255228Y0114444D01*
X0255228Y0115442D02*
X0256172Y0115442D01*
X0256172Y0116441D02*
X0255228Y0116441D01*
X0255228Y0117439D02*
X0256172Y0117439D01*
X0256809Y0118438D02*
X0254591Y0118438D01*
X0257514Y0120435D02*
X0240880Y0120435D01*
X0239882Y0119436D02*
X0258224Y0119436D01*
X0257219Y0121433D02*
X0241879Y0121433D01*
X0242400Y0122432D02*
X0257219Y0122432D01*
X0257624Y0123430D02*
X0242400Y0123430D01*
X0242755Y0124429D02*
X0243445Y0124429D01*
X0240600Y0122700D02*
X0240600Y0127346D01*
X0239754Y0127400D01*
X0246446Y0127400D01*
X0251766Y0127400D01*
X0255428Y0127424D02*
X0256372Y0127424D01*
X0256372Y0126426D02*
X0255428Y0126426D01*
X0255428Y0125427D02*
X0256372Y0125427D01*
X0256442Y0124429D02*
X0255358Y0124429D01*
X0260034Y0127400D02*
X0260600Y0127034D01*
X0260500Y0121800D01*
X0256372Y0128423D02*
X0255428Y0128423D01*
X0255428Y0129421D02*
X0256372Y0129421D01*
X0256491Y0130420D02*
X0255309Y0130420D01*
X0262000Y0131418D02*
X0222652Y0131418D01*
X0223650Y0132417D02*
X0226664Y0132417D01*
X0226482Y0133415D02*
X0224649Y0133415D01*
X0225150Y0134414D02*
X0226482Y0134414D01*
X0226482Y0135412D02*
X0225150Y0135412D01*
X0225150Y0136411D02*
X0226482Y0136411D01*
X0226482Y0137409D02*
X0225150Y0137409D01*
X0225150Y0138408D02*
X0226489Y0138408D01*
X0225619Y0139406D02*
X0225150Y0139406D01*
X0225150Y0140405D02*
X0225619Y0140405D01*
X0225619Y0141403D02*
X0225150Y0141403D01*
X0225150Y0142402D02*
X0225619Y0142402D01*
X0225150Y0143401D02*
X0226574Y0143401D01*
X0226300Y0144399D02*
X0225150Y0144399D01*
X0225150Y0145398D02*
X0226408Y0145398D01*
X0225942Y0146396D02*
X0225230Y0146396D01*
X0232944Y0140405D02*
X0233762Y0140405D01*
X0232944Y0139406D02*
X0234760Y0139406D01*
X0233462Y0138408D02*
X0232224Y0138408D01*
X0232231Y0137409D02*
X0233369Y0137409D01*
X0233369Y0136411D02*
X0232231Y0136411D01*
X0232231Y0135412D02*
X0236156Y0135412D01*
X0236731Y0135412D02*
X0262000Y0135412D01*
X0262000Y0134414D02*
X0239518Y0134414D01*
X0239518Y0135213D02*
X0236731Y0135213D01*
X0236731Y0131638D01*
X0238216Y0131638D01*
X0238597Y0131740D01*
X0238939Y0131938D01*
X0239218Y0132217D01*
X0239416Y0132559D01*
X0239518Y0132940D01*
X0239518Y0135213D01*
X0239518Y0136411D02*
X0262000Y0136411D01*
X0262000Y0137409D02*
X0239518Y0137409D01*
X0239425Y0138408D02*
X0262000Y0138408D01*
X0262000Y0139406D02*
X0243181Y0139406D01*
X0243181Y0140405D02*
X0262000Y0140405D01*
X0262000Y0141403D02*
X0243181Y0141403D01*
X0243181Y0142402D02*
X0262000Y0142402D01*
X0262000Y0143401D02*
X0243381Y0143401D01*
X0243381Y0144399D02*
X0262000Y0144399D01*
X0262000Y0145398D02*
X0243381Y0145398D01*
X0243201Y0146396D02*
X0262000Y0146396D01*
X0262000Y0147395D02*
X0243181Y0147395D01*
X0243181Y0148393D02*
X0262000Y0148393D01*
X0262000Y0149392D02*
X0243181Y0149392D01*
X0242752Y0150390D02*
X0262000Y0150390D01*
X0262000Y0151389D02*
X0235450Y0151389D01*
X0235450Y0152387D02*
X0262000Y0152387D01*
X0262000Y0153386D02*
X0235450Y0153386D01*
X0234849Y0154384D02*
X0262000Y0154384D01*
X0262000Y0155383D02*
X0233851Y0155383D01*
X0234483Y0154750D02*
X0234483Y0154750D01*
X0228822Y0156381D02*
X0262000Y0156381D01*
X0262000Y0157380D02*
X0228780Y0157380D01*
X0220220Y0157380D02*
X0217524Y0157380D01*
X0217700Y0156381D02*
X0220178Y0156381D01*
X0217111Y0158378D02*
X0262000Y0158378D01*
X0262000Y0159377D02*
X0216204Y0159377D01*
X0235450Y0150390D02*
X0236285Y0150390D01*
X0235856Y0149392D02*
X0235450Y0149392D01*
X0235450Y0148393D02*
X0235856Y0148393D01*
X0235856Y0147395D02*
X0235450Y0147395D01*
X0235450Y0146396D02*
X0235836Y0146396D01*
X0235656Y0145398D02*
X0235450Y0145398D01*
X0235450Y0144399D02*
X0235656Y0144399D01*
X0235656Y0143401D02*
X0235450Y0143401D01*
X0236156Y0134414D02*
X0236731Y0134414D01*
X0236731Y0133415D02*
X0236156Y0133415D01*
X0236156Y0132417D02*
X0236731Y0132417D01*
X0236801Y0130420D02*
X0233799Y0130420D01*
X0234312Y0129421D02*
X0236288Y0129421D01*
X0236288Y0128423D02*
X0234312Y0128423D01*
X0234312Y0127424D02*
X0236288Y0127424D01*
X0236288Y0126426D02*
X0234312Y0126426D01*
X0234312Y0125427D02*
X0236288Y0125427D01*
X0236752Y0124429D02*
X0233848Y0124429D01*
X0230846Y0127400D02*
X0224154Y0127400D01*
X0223198Y0126445D01*
X0223198Y0120635D01*
X0226348Y0120635D02*
X0238535Y0120635D01*
X0240600Y0122700D01*
X0238785Y0123430D02*
X0228632Y0123430D01*
X0220688Y0125427D02*
X0185050Y0125427D01*
X0185050Y0126426D02*
X0220688Y0126426D01*
X0220688Y0127424D02*
X0185050Y0127424D01*
X0207450Y0120635D02*
X0207450Y0115550D01*
X0205900Y0114000D01*
X0208808Y0112447D02*
X0217950Y0112447D01*
X0218612Y0113445D02*
X0209181Y0113445D01*
X0209181Y0114444D02*
X0219610Y0114444D01*
X0220609Y0115442D02*
X0209250Y0115442D01*
X0210600Y0116182D02*
X0210600Y0120635D01*
X0210600Y0120635D01*
X0210600Y0116182D01*
X0210600Y0116441D02*
X0210600Y0116441D01*
X0210600Y0117439D02*
X0210600Y0117439D01*
X0210600Y0118438D02*
X0210600Y0118438D01*
X0210600Y0119436D02*
X0210600Y0119436D01*
X0210600Y0120435D02*
X0210600Y0120435D01*
X0210600Y0120635D02*
X0210600Y0120635D01*
X0210600Y0121433D02*
X0210600Y0121433D01*
X0210600Y0122432D02*
X0210600Y0122432D01*
X0210600Y0123430D02*
X0210600Y0123430D01*
X0210600Y0124429D02*
X0210600Y0124429D01*
X0227106Y0130420D02*
X0227894Y0130420D01*
X0232049Y0132417D02*
X0233553Y0132417D01*
X0233369Y0133415D02*
X0232231Y0133415D01*
X0232231Y0134414D02*
X0233369Y0134414D01*
X0239518Y0133415D02*
X0262000Y0133415D01*
X0262000Y0132417D02*
X0239334Y0132417D01*
X0242706Y0130420D02*
X0243494Y0130420D01*
X0248146Y0114900D02*
X0251566Y0114900D01*
X0255228Y0113445D02*
X0256172Y0113445D01*
X0256172Y0112447D02*
X0255228Y0112447D01*
X0254677Y0111448D02*
X0256723Y0111448D01*
X0256449Y0110450D02*
X0243484Y0110450D01*
X0242485Y0111448D02*
X0248455Y0111448D01*
X0244482Y0109451D02*
X0256119Y0109451D01*
X0256119Y0108453D02*
X0245481Y0108453D01*
X0246479Y0107454D02*
X0256489Y0107454D01*
X0257304Y0106456D02*
X0247478Y0106456D01*
X0242427Y0112447D02*
X0242373Y0112447D01*
X0240300Y0097700D02*
X0233435Y0097800D01*
X0240300Y0097700D02*
X0247800Y0090200D01*
X0247800Y0043100D01*
X0229246Y0039661D02*
X0196261Y0039661D01*
X0187800Y0031200D01*
X0187800Y0025446D01*
X0187602Y0025248D01*
X0196751Y0021582D02*
X0262000Y0021582D01*
X0262000Y0020584D02*
X0197991Y0020584D01*
X0198907Y0019585D02*
X0262000Y0019585D01*
X0262000Y0018587D02*
X0199367Y0018587D01*
X0199478Y0016590D02*
X0262000Y0016590D01*
X0262000Y0017588D02*
X0195764Y0017588D01*
X0199141Y0015591D02*
X0262000Y0015591D01*
X0262000Y0014593D02*
X0198458Y0014593D01*
X0198289Y0022581D02*
X0262000Y0022581D01*
X0262000Y0023579D02*
X0198979Y0023579D01*
X0199351Y0024578D02*
X0262000Y0024578D01*
X0262000Y0025576D02*
X0199351Y0025576D01*
X0202631Y0053534D02*
X0203769Y0053534D01*
X0203769Y0054533D02*
X0202631Y0054533D01*
X0233336Y0085300D02*
X0233435Y0085202D01*
X0199165Y0095472D02*
X0192018Y0095472D01*
X0192018Y0096470D02*
X0198228Y0096470D01*
X0194513Y0097469D02*
X0192802Y0097469D01*
X0193801Y0098468D02*
X0193864Y0098468D01*
X0176050Y0100465D02*
X0134106Y0100465D01*
X0133555Y0101463D02*
X0176050Y0101463D01*
X0158550Y0097469D02*
X0156728Y0097469D01*
X0156896Y0096470D02*
X0158282Y0096470D01*
X0149740Y0097469D02*
X0148652Y0097469D01*
X0148828Y0096470D02*
X0149572Y0096470D01*
X0149572Y0095472D02*
X0148828Y0095472D01*
X0149572Y0094473D02*
X0145466Y0094473D01*
X0145466Y0095472D02*
X0144466Y0095472D01*
X0144466Y0096470D02*
X0145466Y0096470D01*
X0145466Y0097469D02*
X0144466Y0097469D01*
X0148828Y0093475D02*
X0149572Y0093475D01*
X0149572Y0092476D02*
X0148828Y0092476D01*
X0148731Y0091478D02*
X0149593Y0091478D01*
X0141201Y0091478D02*
X0140754Y0091478D01*
X0137687Y0098468D02*
X0137113Y0098468D01*
X0127924Y0105457D02*
X0123775Y0105457D01*
X0124462Y0104459D02*
X0126925Y0104459D01*
X0130210Y0114444D02*
X0093426Y0114444D01*
X0093426Y0115442D02*
X0131209Y0115442D01*
X0130594Y0120435D02*
X0114462Y0120435D01*
X0112738Y0120435D02*
X0096953Y0120435D01*
X0097563Y0121433D02*
X0111348Y0121433D01*
X0110913Y0122432D02*
X0097700Y0122432D01*
X0098464Y0123430D02*
X0110900Y0123430D01*
X0111269Y0124429D02*
X0099462Y0124429D01*
X0096943Y0131418D02*
X0104185Y0131418D01*
X0105183Y0132417D02*
X0092702Y0132417D01*
X0075250Y0127424D02*
X0074150Y0127424D01*
X0074510Y0133415D02*
X0074890Y0133415D01*
X0065452Y0137409D02*
X0063058Y0137409D01*
X0063150Y0138408D02*
X0065450Y0138408D01*
X0065450Y0139406D02*
X0063150Y0139406D01*
X0063150Y0140405D02*
X0065450Y0140405D01*
X0065450Y0141403D02*
X0060000Y0141403D01*
X0063150Y0142402D02*
X0065450Y0142402D01*
X0065450Y0143401D02*
X0063150Y0143401D01*
X0063150Y0144399D02*
X0065450Y0144399D01*
X0066059Y0145398D02*
X0062624Y0145398D01*
X0059110Y0124429D02*
X0052790Y0124429D01*
X0053012Y0123430D02*
X0058404Y0123430D01*
X0066074Y0116441D02*
X0068679Y0116441D01*
X0068152Y0115442D02*
X0065350Y0115442D01*
X0065350Y0114444D02*
X0068016Y0114444D01*
X0068199Y0113445D02*
X0065350Y0113445D01*
X0065350Y0112447D02*
X0068792Y0112447D01*
X0069242Y0117439D02*
X0067073Y0117439D01*
X0056900Y0113445D02*
X0055900Y0113445D01*
X0055900Y0112447D02*
X0056900Y0112447D01*
X0056900Y0111448D02*
X0055900Y0111448D01*
X0055900Y0110450D02*
X0056900Y0110450D01*
X0056900Y0107454D02*
X0055900Y0107454D01*
X0055900Y0106456D02*
X0056900Y0106456D01*
X0059767Y0106456D02*
X0062050Y0106456D01*
X0062050Y0107454D02*
X0060262Y0107454D01*
X0060262Y0108453D02*
X0062050Y0108453D01*
X0078794Y0103460D02*
X0088114Y0103460D01*
X0088114Y0104459D02*
X0079792Y0104459D01*
X0080791Y0105457D02*
X0088114Y0105457D01*
X0088114Y0106456D02*
X0085061Y0106456D01*
X0085523Y0107454D02*
X0088740Y0107454D01*
X0088114Y0108453D02*
X0085523Y0108453D01*
X0085523Y0109451D02*
X0088114Y0109451D01*
X0088114Y0110450D02*
X0085523Y0110450D01*
X0085523Y0111448D02*
X0088114Y0111448D01*
X0090126Y0112447D02*
X0085523Y0112447D01*
X0085523Y0102462D02*
X0088733Y0102462D01*
X0088114Y0101463D02*
X0085523Y0101463D01*
X0085523Y0100465D02*
X0088114Y0100465D01*
X0088114Y0099466D02*
X0085523Y0099466D01*
X0085523Y0098468D02*
X0088114Y0098468D01*
X0088726Y0097469D02*
X0085523Y0097469D01*
X0085313Y0096470D02*
X0088114Y0096470D01*
X0088114Y0095472D02*
X0087447Y0095472D01*
X0087862Y0094473D02*
X0088114Y0094473D01*
X0088114Y0093475D02*
X0087862Y0093475D01*
X0087862Y0092476D02*
X0088718Y0092476D01*
X0088114Y0091478D02*
X0087862Y0091478D01*
X0088114Y0090479D02*
X0087512Y0090479D01*
X0084487Y0088482D02*
X0083913Y0088482D01*
X0083913Y0087484D02*
X0084487Y0087484D01*
X0084487Y0086485D02*
X0083913Y0086485D01*
X0083913Y0085487D02*
X0084487Y0085487D01*
X0084487Y0084488D02*
X0083913Y0084488D01*
X0083913Y0083490D02*
X0084487Y0083490D01*
X0071487Y0084488D02*
X0070913Y0084488D01*
X0070913Y0085487D02*
X0071487Y0085487D01*
X0071487Y0086485D02*
X0070913Y0086485D01*
X0070913Y0087484D02*
X0071487Y0087484D01*
X0071487Y0088482D02*
X0070913Y0088482D01*
X0070913Y0089481D02*
X0071487Y0089481D01*
X0079359Y0100465D02*
X0079441Y0100465D01*
X0079441Y0101463D02*
X0079359Y0101463D01*
X0079359Y0102462D02*
X0079441Y0102462D01*
X0101900Y0076500D02*
X0110161Y0076500D01*
X0110161Y0075502D02*
X0101900Y0075502D01*
X0101502Y0074503D02*
X0110161Y0074503D01*
X0110161Y0073505D02*
X0100231Y0073505D01*
X0099409Y0072506D02*
X0110736Y0072506D01*
X0102887Y0064518D02*
X0102313Y0064518D01*
X0102313Y0063520D02*
X0102887Y0063520D01*
X0102887Y0062521D02*
X0102313Y0062521D01*
X0102400Y0054600D02*
X0102400Y0050100D01*
X0103900Y0048600D01*
X0109900Y0048600D01*
X0095193Y0046545D02*
X0094633Y0046545D01*
X0062050Y0063520D02*
X0055243Y0063520D01*
X0055221Y0064518D02*
X0062050Y0064518D01*
X0050700Y0060524D02*
X0049700Y0060524D01*
X0049700Y0059526D02*
X0050700Y0059526D01*
X0050700Y0058527D02*
X0049700Y0058527D01*
X0049700Y0057529D02*
X0050700Y0057529D01*
X0050700Y0056530D02*
X0049700Y0056530D01*
X0036900Y0063500D02*
X0036500Y0063900D01*
X0027919Y0064518D02*
X0019601Y0064518D01*
X0021735Y0065517D02*
X0027919Y0065517D01*
X0014500Y0065517D02*
X0011000Y0065517D01*
X0011000Y0066515D02*
X0014500Y0066515D01*
X0014538Y0067514D02*
X0011000Y0067514D01*
X0011000Y0068512D02*
X0014538Y0068512D01*
X0014538Y0069511D02*
X0011000Y0069511D01*
X0011000Y0070509D02*
X0015177Y0070509D01*
X0013199Y0064518D02*
X0011000Y0064518D01*
X0011000Y0063520D02*
X0011486Y0063520D01*
X0012650Y0059526D02*
X0013042Y0059526D01*
X0045261Y0065517D02*
X0045872Y0065517D01*
X0030982Y0083490D02*
X0029898Y0083490D01*
X0031470Y0084488D02*
X0025099Y0084488D01*
X0026427Y0091478D02*
X0038619Y0091478D01*
X0029457Y0101500D02*
X0029457Y0107535D01*
X0015150Y0149392D02*
X0011000Y0149392D01*
X0011000Y0150390D02*
X0015150Y0150390D01*
X0015150Y0151389D02*
X0011000Y0151389D01*
X0011000Y0152387D02*
X0015150Y0152387D01*
X0015150Y0153386D02*
X0011000Y0153386D01*
X0011000Y0154384D02*
X0015150Y0154384D01*
X0015150Y0155383D02*
X0011000Y0155383D01*
X0011000Y0156381D02*
X0015643Y0156381D01*
X0017100Y0157380D02*
X0011000Y0157380D01*
X0011000Y0158378D02*
X0017366Y0158378D01*
X0018158Y0159377D02*
X0011000Y0159377D01*
X0128200Y0076500D02*
X0143859Y0076500D01*
X0107587Y0021582D02*
X0106550Y0021582D01*
X0095350Y0021582D02*
X0094389Y0021582D01*
X0074668Y0014593D02*
X0011000Y0014593D01*
D35*
X0013200Y0027200D02*
X0011000Y0029400D01*
X0011000Y0060700D01*
X0012200Y0061900D01*
X0016357Y0061900D01*
X0016400Y0061943D01*
X0036600Y0049900D02*
X0036600Y0046943D01*
X0036557Y0046900D01*
X0036600Y0049900D02*
X0037400Y0050700D01*
X0060800Y0050700D01*
X0063700Y0053600D01*
X0063700Y0116400D01*
X0066800Y0119500D01*
X0071000Y0119500D01*
X0071600Y0115000D02*
X0071100Y0114500D01*
X0070400Y0113800D01*
X0071600Y0115000D02*
X0074300Y0115000D01*
X0075660Y0113640D01*
X0075660Y0109819D01*
X0079400Y0109819D02*
X0079400Y0106400D01*
X0078100Y0105100D01*
X0076600Y0105100D01*
X0079400Y0101400D02*
X0079400Y0099581D01*
X0075660Y0099581D02*
X0075660Y0098106D01*
X0077700Y0093043D02*
X0084100Y0093043D01*
X0084200Y0092943D01*
X0083140Y0094003D01*
X0083140Y0099581D01*
X0091776Y0104800D02*
X0097300Y0104800D01*
X0098200Y0103900D01*
X0098200Y0082700D01*
X0099900Y0081000D01*
X0104100Y0081000D01*
X0104900Y0080200D01*
X0099200Y0076000D02*
X0097759Y0074559D01*
X0097759Y0065848D01*
X0097800Y0059400D02*
X0097759Y0059359D01*
X0097759Y0059352D01*
X0089300Y0053600D02*
X0088743Y0053043D01*
X0081200Y0053043D01*
X0089300Y0048600D02*
X0089800Y0049100D01*
X0097000Y0049100D01*
X0100800Y0046100D02*
X0097800Y0043100D01*
X0097200Y0043700D01*
X0089400Y0043700D01*
X0089300Y0043600D01*
X0084700Y0043600D01*
X0083700Y0042600D01*
X0082200Y0042600D01*
X0081700Y0042100D01*
X0081700Y0039046D01*
X0081846Y0038900D01*
X0093114Y0028814D02*
X0098300Y0034000D01*
X0098300Y0042600D01*
X0097800Y0043100D01*
X0100800Y0046100D02*
X0115000Y0046100D01*
X0115800Y0046900D01*
X0115800Y0069800D01*
X0120600Y0074600D01*
X0120600Y0095300D01*
X0125000Y0099700D01*
X0131500Y0099700D01*
X0127457Y0102657D02*
X0130200Y0105400D01*
X0130200Y0112100D01*
X0132200Y0114100D01*
X0165200Y0114100D01*
X0167000Y0115900D01*
X0167000Y0123300D01*
X0167100Y0123400D01*
X0175500Y0133900D02*
X0177700Y0131700D01*
X0177700Y0092300D01*
X0178499Y0091501D01*
X0187765Y0091501D01*
X0187765Y0094650D02*
X0180950Y0094650D01*
X0179600Y0096400D01*
X0179600Y0136300D01*
X0177000Y0138900D01*
X0175400Y0142900D02*
X0179700Y0142900D01*
X0181500Y0141100D01*
X0181500Y0120900D01*
X0185500Y0116900D01*
X0190000Y0116900D01*
X0192200Y0114700D01*
X0192200Y0102100D01*
X0191000Y0100900D01*
X0187815Y0100900D01*
X0187765Y0100950D01*
X0187765Y0097800D02*
X0190800Y0097800D01*
X0193800Y0100800D01*
X0193800Y0115600D01*
X0190200Y0119200D01*
X0186000Y0119200D01*
X0183400Y0121800D01*
X0183400Y0154100D01*
X0173400Y0153100D02*
X0173400Y0144900D01*
X0175400Y0142900D01*
X0196900Y0136800D02*
X0212500Y0136800D01*
X0214400Y0138700D01*
X0214400Y0152100D01*
X0213400Y0153100D01*
X0214600Y0154300D01*
X0222728Y0154300D01*
X0226272Y0154300D02*
X0232600Y0154300D01*
X0233800Y0153100D01*
X0233800Y0142700D01*
X0236000Y0140500D01*
X0239159Y0140500D01*
X0239519Y0140860D01*
X0229357Y0140785D02*
X0229357Y0135500D01*
X0229357Y0144243D01*
X0229000Y0144600D01*
X0229141Y0148200D02*
X0224700Y0148200D01*
X0223500Y0147000D01*
X0223500Y0134600D01*
X0221000Y0132100D01*
X0196200Y0132100D01*
X0223100Y0120536D02*
X0223100Y0115600D01*
X0219600Y0112100D01*
X0219600Y0107900D01*
X0218300Y0106600D01*
X0198500Y0106600D01*
X0196400Y0104500D01*
X0196400Y0099400D01*
X0200600Y0097800D02*
X0223900Y0097800D01*
X0226400Y0100300D01*
X0226400Y0110800D01*
X0229000Y0113400D01*
X0233287Y0113400D01*
X0233435Y0113548D01*
X0233435Y0110398D02*
X0241202Y0110398D01*
X0256700Y0094900D01*
X0256700Y0052900D01*
X0257200Y0052500D01*
X0259911Y0052500D01*
X0259954Y0052457D01*
X0259952Y0049900D02*
X0256100Y0049900D01*
X0254800Y0051200D01*
X0254800Y0093100D01*
X0240651Y0107249D01*
X0233435Y0107249D01*
X0226400Y0115500D02*
X0226400Y0120583D01*
X0226348Y0120635D01*
X0223198Y0120635D02*
X0223100Y0120536D01*
X0226400Y0115500D02*
X0222100Y0111200D01*
X0222100Y0105300D01*
X0219900Y0103100D01*
X0200200Y0103100D01*
X0202700Y0091400D02*
X0202100Y0090800D01*
X0197100Y0090800D01*
X0194852Y0088552D01*
X0194852Y0074965D01*
X0187765Y0082052D02*
X0185913Y0080200D01*
X0181343Y0080200D01*
X0174257Y0080200D02*
X0174257Y0073209D01*
X0174266Y0073200D01*
X0168243Y0075143D02*
X0166100Y0073000D01*
X0165200Y0073000D01*
X0165000Y0073200D01*
X0165000Y0039700D01*
X0157900Y0032600D01*
X0139600Y0032600D01*
X0136400Y0029400D01*
X0136400Y0020700D01*
X0133074Y0017374D01*
X0132484Y0017374D01*
X0132484Y0025248D02*
X0132800Y0025564D01*
X0132800Y0029100D01*
X0138400Y0034700D01*
X0157400Y0034700D01*
X0163200Y0040500D01*
X0163200Y0058100D01*
X0161400Y0059900D01*
X0160322Y0059900D01*
X0159840Y0059419D01*
X0153500Y0066557D02*
X0153600Y0066657D01*
X0153500Y0066557D02*
X0147000Y0066557D01*
X0139600Y0068943D02*
X0139297Y0069246D01*
X0133500Y0069246D01*
X0133500Y0062554D01*
X0130800Y0059854D01*
X0130800Y0034000D01*
X0124610Y0027810D01*
X0124610Y0025248D01*
X0108862Y0017374D02*
X0108026Y0017374D01*
X0104900Y0020500D01*
X0104900Y0029900D01*
X0104500Y0030300D01*
X0100900Y0033400D02*
X0100900Y0037200D01*
X0102300Y0038600D01*
X0109900Y0038600D01*
X0110000Y0038500D01*
X0109900Y0043600D02*
X0116900Y0043600D01*
X0117500Y0044200D01*
X0117500Y0067300D01*
X0121800Y0071600D01*
X0113824Y0084800D02*
X0108500Y0084800D01*
X0107000Y0086200D01*
X0105100Y0090000D02*
X0112800Y0090000D01*
X0112800Y0089800D01*
X0113824Y0089800D01*
X0113824Y0094800D02*
X0107900Y0094800D01*
X0106600Y0096100D01*
X0106600Y0105600D01*
X0106400Y0105800D01*
X0109700Y0105200D02*
X0110100Y0104800D01*
X0113824Y0104800D01*
X0109700Y0105200D02*
X0109700Y0107700D01*
X0108200Y0109200D01*
X0102500Y0109200D01*
X0101300Y0108000D01*
X0101300Y0101900D01*
X0091776Y0109800D02*
X0091776Y0115224D01*
X0091200Y0115800D01*
X0089046Y0115800D01*
X0088846Y0116000D01*
X0082154Y0116000D01*
X0083140Y0115013D01*
X0083140Y0109819D01*
X0089800Y0122654D02*
X0089800Y0128300D01*
X0090900Y0129400D01*
X0094600Y0129400D01*
X0095000Y0129000D01*
X0098800Y0126100D02*
X0095000Y0122300D01*
X0098800Y0126100D02*
X0125700Y0126100D01*
X0129300Y0129700D01*
X0130800Y0129700D01*
X0134500Y0133100D02*
X0153900Y0133100D01*
X0154400Y0132900D01*
X0134700Y0132900D02*
X0134700Y0124000D01*
X0133800Y0123100D01*
X0133800Y0122900D01*
X0134700Y0132900D02*
X0134500Y0133100D01*
X0108600Y0133500D02*
X0108600Y0151800D01*
X0108800Y0152000D01*
X0085900Y0152200D02*
X0085800Y0152300D01*
X0085900Y0152200D02*
X0085900Y0131800D01*
X0084700Y0130600D01*
X0078046Y0130600D01*
X0071354Y0130600D02*
X0063700Y0130600D01*
X0060900Y0122400D02*
X0060200Y0121700D01*
X0049546Y0121700D01*
X0036500Y0101543D02*
X0036500Y0095854D01*
X0036446Y0095800D01*
X0047200Y0087300D02*
X0048660Y0088760D01*
X0052519Y0088760D01*
X0047200Y0087300D02*
X0047200Y0085600D01*
X0046500Y0084900D01*
X0042800Y0063700D02*
X0041819Y0062719D01*
X0041819Y0060160D01*
X0043743Y0047000D02*
X0043643Y0046900D01*
X0043743Y0047000D02*
X0066400Y0047000D01*
X0093114Y0028814D02*
X0093114Y0025248D01*
X0097000Y0029400D02*
X0100900Y0033400D01*
X0097000Y0029400D02*
X0097000Y0019800D01*
X0094374Y0017374D01*
X0093114Y0017374D01*
X0156106Y0017374D02*
X0160000Y0021468D01*
X0160000Y0028600D01*
X0175000Y0043500D01*
X0175000Y0056700D01*
X0178200Y0059900D01*
X0209200Y0059900D01*
X0209800Y0060500D01*
X0209800Y0063700D01*
X0213340Y0067240D01*
X0219682Y0067240D01*
X0219100Y0070000D02*
X0219900Y0070800D01*
X0219900Y0074817D01*
X0220049Y0074965D01*
X0216899Y0074965D02*
X0216899Y0078599D01*
X0219500Y0081200D01*
X0219100Y0070000D02*
X0216900Y0070000D01*
X0216100Y0069200D01*
X0212400Y0069200D01*
X0205000Y0061800D01*
X0177300Y0061800D01*
X0170600Y0055000D01*
X0170600Y0052500D01*
X0190500Y0051800D02*
X0168000Y0029100D01*
X0168000Y0021194D01*
X0163980Y0017374D01*
X0171854Y0017374D02*
X0175700Y0021220D01*
X0175700Y0029200D01*
X0193839Y0047339D01*
X0229246Y0047339D01*
X0229246Y0049898D02*
X0192998Y0049898D01*
X0172200Y0029100D01*
X0172200Y0025594D01*
X0171854Y0025248D01*
X0179728Y0017374D02*
X0183700Y0021346D01*
X0183700Y0030400D01*
X0195520Y0042220D01*
X0229246Y0042220D01*
X0229246Y0037102D02*
X0198302Y0037102D01*
X0191600Y0030400D01*
X0191600Y0021372D01*
X0187602Y0017374D01*
X0190500Y0051800D02*
X0225700Y0051800D01*
X0226357Y0052457D01*
X0229246Y0052457D01*
X0259952Y0049900D02*
X0259954Y0049898D01*
X0168243Y0075143D02*
X0168243Y0094300D01*
X0161157Y0094300D02*
X0161057Y0094400D01*
X0153234Y0094400D01*
X0127457Y0102657D02*
X0120800Y0102657D01*
X0120800Y0100400D01*
X0120200Y0099800D01*
X0113824Y0099800D01*
X0113700Y0099800D01*
X0113600Y0099900D01*
X0104200Y0091800D02*
X0104200Y0090600D01*
X0105100Y0090000D01*
X0104446Y0129346D02*
X0089800Y0129346D01*
X0104446Y0129346D02*
X0108600Y0133500D01*
X0019800Y0152400D02*
X0019600Y0152200D01*
X0019800Y0152400D02*
X0019800Y0157200D01*
X0015600Y0027200D02*
X0013200Y0027200D01*
X0229281Y0140860D02*
X0229357Y0140785D01*
X0229141Y0148200D02*
X0229281Y0148340D01*
D36*
X0229000Y0144600D03*
X0235300Y0130400D03*
X0196900Y0136800D03*
X0196200Y0132100D03*
X0177000Y0138900D03*
X0175500Y0133900D03*
X0167500Y0132900D03*
X0130800Y0129700D03*
X0121000Y0137300D03*
X0113600Y0123000D03*
X0116900Y0119500D03*
X0095000Y0122300D03*
X0087000Y0109600D03*
X0076600Y0105100D03*
X0071000Y0119500D03*
X0060900Y0122400D03*
X0050700Y0117200D03*
X0045900Y0108300D03*
X0029500Y0111100D03*
X0014300Y0123200D03*
X0012000Y0096000D03*
X0028500Y0090700D03*
X0015200Y0079500D03*
X0042800Y0063700D03*
X0020900Y0058900D03*
X0055400Y0079600D03*
X0047000Y0092800D03*
X0092641Y0070100D03*
X0099200Y0076000D03*
X0104900Y0080200D03*
X0121800Y0071600D03*
X0125500Y0077000D03*
X0110000Y0057100D03*
X0091400Y0033000D03*
X0066400Y0047000D03*
X0056400Y0041200D03*
X0013700Y0019200D03*
X0131500Y0099700D03*
X0155600Y0089200D03*
X0168800Y0069700D03*
X0188000Y0077200D03*
X0191200Y0065800D03*
X0211000Y0056500D03*
X0235800Y0063700D03*
X0260600Y0059100D03*
X0200600Y0097800D03*
X0196400Y0099400D03*
X0200200Y0103100D03*
X0156000Y0054300D03*
X0170600Y0052500D03*
X0101300Y0101900D03*
X0063700Y0130600D03*
X0069800Y0147300D03*
X0052000Y0157200D03*
X0041100Y0157700D03*
X0034600Y0155500D03*
X0019800Y0157200D03*
X0092300Y0147100D03*
X0096900Y0139100D03*
X0101600Y0156000D03*
D37*
X0095800Y0140900D02*
X0090500Y0140900D01*
X0095800Y0140900D02*
X0096900Y0139800D01*
X0096900Y0139100D01*
X0113500Y0140600D02*
X0119800Y0140600D01*
X0121000Y0139400D01*
X0121000Y0137300D01*
X0121100Y0137200D01*
X0130200Y0137200D01*
X0134500Y0132900D01*
X0134500Y0132400D01*
X0135000Y0132900D01*
X0154400Y0132900D01*
X0156100Y0132900D01*
X0167500Y0132900D01*
X0156100Y0132900D02*
X0156100Y0123400D01*
X0134500Y0123600D02*
X0133800Y0122900D01*
X0134500Y0123600D02*
X0134500Y0132400D01*
X0078046Y0130600D02*
X0071354Y0130600D01*
X0067600Y0134900D02*
X0054200Y0134900D01*
X0046700Y0134900D01*
X0045800Y0135800D01*
X0045800Y0141100D01*
X0029700Y0140000D02*
X0028900Y0140800D01*
X0024300Y0140800D01*
X0024200Y0140700D01*
X0024200Y0134800D01*
X0022200Y0132800D01*
X0022200Y0113000D01*
X0024100Y0111100D01*
X0029500Y0111100D01*
X0039719Y0107560D02*
X0045160Y0107560D01*
X0045900Y0108300D01*
X0042854Y0121700D02*
X0042854Y0126046D01*
X0041900Y0127000D01*
X0031700Y0127000D01*
X0030600Y0125900D01*
X0030600Y0121043D01*
X0030557Y0121000D01*
X0067600Y0134900D02*
X0068900Y0136200D01*
X0068900Y0141100D01*
X0021646Y0095200D02*
X0014954Y0095200D01*
X0014154Y0096000D01*
X0012000Y0096000D01*
X0014900Y0095146D02*
X0014954Y0095200D01*
X0014900Y0095146D02*
X0014900Y0085900D01*
X0015600Y0085200D01*
X0021700Y0085200D01*
X0023400Y0083500D01*
X0023400Y0076700D01*
X0024200Y0075900D01*
X0024200Y0075800D01*
X0025500Y0074500D01*
X0033900Y0074500D01*
X0034057Y0073900D02*
X0032700Y0073900D01*
X0031800Y0073000D01*
X0031800Y0072100D01*
X0033400Y0073700D01*
X0031800Y0072100D02*
X0031800Y0067859D01*
X0031581Y0067640D01*
X0018317Y0067640D01*
X0018200Y0067757D01*
X0016400Y0065957D01*
X0016400Y0061943D01*
X0016400Y0054857D02*
X0016400Y0049334D01*
X0016300Y0049234D01*
X0031500Y0047154D02*
X0031500Y0053846D01*
X0031581Y0053928D01*
X0031581Y0060160D01*
X0031954Y0054300D02*
X0031500Y0053846D01*
X0031954Y0054300D02*
X0036557Y0054300D01*
X0036557Y0046900D02*
X0031754Y0046900D01*
X0031500Y0047154D01*
X0031034Y0040200D02*
X0036457Y0040200D01*
X0036557Y0040300D01*
X0043643Y0040300D02*
X0043643Y0046900D01*
X0050088Y0072112D02*
X0047900Y0074300D01*
X0041543Y0074300D01*
X0041143Y0073900D01*
X0040943Y0074100D01*
X0040943Y0081100D01*
X0033857Y0081100D02*
X0033820Y0081063D01*
X0027140Y0081063D01*
X0019660Y0081063D02*
X0019600Y0081003D01*
X0019600Y0075400D01*
X0019043Y0074843D01*
X0018200Y0074843D01*
X0050088Y0072112D02*
X0050200Y0072112D01*
X0077700Y0076900D02*
X0079700Y0074900D01*
X0091676Y0074900D01*
X0091776Y0074800D01*
X0092641Y0073935D01*
X0092641Y0070100D01*
X0092641Y0065848D01*
X0077700Y0076900D02*
X0077700Y0085957D01*
X0110000Y0057100D02*
X0110000Y0053700D01*
X0109900Y0053600D01*
X0121400Y0046046D02*
X0121400Y0039354D01*
X0146034Y0043800D02*
X0146034Y0049691D01*
X0146100Y0049757D01*
X0151300Y0054200D02*
X0156000Y0054200D01*
X0156328Y0054528D01*
X0156328Y0059500D01*
X0156328Y0054628D01*
X0156000Y0054300D01*
X0156000Y0054200D02*
X0156200Y0054000D01*
X0156200Y0049281D01*
X0156100Y0049181D01*
X0151300Y0054200D02*
X0148657Y0056843D01*
X0146100Y0056843D01*
X0139600Y0056843D01*
X0139600Y0061857D01*
X0146500Y0062100D02*
X0147000Y0062600D01*
X0147000Y0066557D01*
X0152400Y0065800D02*
X0152400Y0059459D01*
X0152360Y0059419D01*
X0159840Y0059419D02*
X0159872Y0059450D01*
X0159872Y0059500D01*
X0159840Y0059419D02*
X0159840Y0066306D01*
X0159800Y0067454D01*
X0159800Y0074146D01*
X0153600Y0066657D02*
X0153257Y0066657D01*
X0152400Y0065800D01*
X0126600Y0078100D02*
X0125500Y0077000D01*
X0126600Y0078100D02*
X0126600Y0085400D01*
X0130400Y0089200D01*
X0137700Y0089200D01*
X0137557Y0089057D01*
X0137400Y0089057D01*
X0137700Y0089200D02*
X0155600Y0089200D01*
X0182357Y0055700D02*
X0182400Y0054743D01*
X0182400Y0048100D01*
X0163980Y0029480D01*
X0163980Y0025248D01*
X0189443Y0055700D02*
X0194400Y0055700D01*
X0199757Y0055700D01*
X0213750Y0074965D02*
X0213750Y0078050D01*
X0215300Y0079600D01*
X0229918Y0063500D02*
X0235600Y0063500D01*
X0235800Y0063700D01*
D38*
X0223500Y0055700D03*
X0236200Y0047700D03*
X0194400Y0055700D03*
X0170700Y0044600D03*
X0153900Y0038100D03*
X0134600Y0036800D03*
X0104500Y0030300D03*
X0097000Y0049100D03*
X0077300Y0062900D03*
X0111300Y0063200D03*
X0126800Y0070400D03*
X0146500Y0062100D03*
X0165000Y0073200D03*
X0202700Y0091400D03*
X0219500Y0081200D03*
X0223400Y0090300D03*
X0200000Y0111000D03*
X0208400Y0128200D03*
X0172700Y0115500D03*
X0151700Y0117700D03*
X0123200Y0131400D03*
X0095000Y0129000D03*
X0071100Y0114500D03*
X0054200Y0134900D03*
X0029700Y0140000D03*
X0104200Y0091800D03*
X0107000Y0086200D03*
X0106400Y0105800D03*
X0046500Y0084900D03*
X0036900Y0063500D03*
X0015600Y0027200D03*
X0252800Y0143000D03*
X0255600Y0102900D03*
D39*
X0259400Y0109000D03*
X0260500Y0121800D03*
X0205900Y0114000D03*
X0212100Y0082300D03*
X0108900Y0154100D03*
X0086000Y0154700D03*
X0064200Y0154900D03*
D40*
X0089300Y0070300D02*
X0092441Y0070300D01*
X0092641Y0070100D01*
X0089300Y0070300D02*
X0087000Y0068000D01*
X0076000Y0068000D01*
X0072500Y0064500D01*
X0072500Y0045500D01*
X0066500Y0039500D01*
X0066500Y0021100D01*
X0065896Y0021100D02*
X0065796Y0021000D01*
X0065896Y0021100D02*
X0069600Y0021100D01*
X0073748Y0025248D01*
X0077366Y0025248D01*
D41*
X0109900Y0038600D02*
X0120646Y0038600D01*
X0121400Y0039354D01*
X0113700Y0122900D02*
X0113600Y0123000D01*
X0113700Y0122900D02*
X0133800Y0122900D01*
X0108800Y0152000D02*
X0108900Y0152100D01*
X0108900Y0154100D01*
X0086000Y0154700D02*
X0086000Y0152500D01*
X0085800Y0152300D01*
X0064200Y0152500D02*
X0064200Y0154900D01*
X0041100Y0152500D02*
X0041100Y0157700D01*
M02*
