G75*
%MOIN*%
%OFA0B0*%
%FSLAX25Y25*%
%IPPOS*%
%LPD*%
%AMOC8*
5,1,8,0,0,1.08239X$1,22.5*
%
%ADD10C,0.00000*%
D10*
X0006500Y0009500D02*
X0006500Y0164500D01*
X0266500Y0164500D01*
X0266500Y0009500D01*
X0006500Y0009500D01*
X0129610Y0149500D02*
X0129612Y0149669D01*
X0129618Y0149838D01*
X0129629Y0150007D01*
X0129643Y0150175D01*
X0129662Y0150343D01*
X0129685Y0150511D01*
X0129711Y0150678D01*
X0129742Y0150844D01*
X0129777Y0151010D01*
X0129816Y0151174D01*
X0129860Y0151338D01*
X0129907Y0151500D01*
X0129958Y0151661D01*
X0130013Y0151821D01*
X0130072Y0151980D01*
X0130134Y0152137D01*
X0130201Y0152292D01*
X0130272Y0152446D01*
X0130346Y0152598D01*
X0130424Y0152748D01*
X0130505Y0152896D01*
X0130590Y0153042D01*
X0130679Y0153186D01*
X0130771Y0153328D01*
X0130867Y0153467D01*
X0130966Y0153604D01*
X0131068Y0153739D01*
X0131174Y0153871D01*
X0131283Y0154000D01*
X0131395Y0154127D01*
X0131510Y0154251D01*
X0131628Y0154372D01*
X0131749Y0154490D01*
X0131873Y0154605D01*
X0132000Y0154717D01*
X0132129Y0154826D01*
X0132261Y0154932D01*
X0132396Y0155034D01*
X0132533Y0155133D01*
X0132672Y0155229D01*
X0132814Y0155321D01*
X0132958Y0155410D01*
X0133104Y0155495D01*
X0133252Y0155576D01*
X0133402Y0155654D01*
X0133554Y0155728D01*
X0133708Y0155799D01*
X0133863Y0155866D01*
X0134020Y0155928D01*
X0134179Y0155987D01*
X0134339Y0156042D01*
X0134500Y0156093D01*
X0134662Y0156140D01*
X0134826Y0156184D01*
X0134990Y0156223D01*
X0135156Y0156258D01*
X0135322Y0156289D01*
X0135489Y0156315D01*
X0135657Y0156338D01*
X0135825Y0156357D01*
X0135993Y0156371D01*
X0136162Y0156382D01*
X0136331Y0156388D01*
X0136500Y0156390D01*
X0136669Y0156388D01*
X0136838Y0156382D01*
X0137007Y0156371D01*
X0137175Y0156357D01*
X0137343Y0156338D01*
X0137511Y0156315D01*
X0137678Y0156289D01*
X0137844Y0156258D01*
X0138010Y0156223D01*
X0138174Y0156184D01*
X0138338Y0156140D01*
X0138500Y0156093D01*
X0138661Y0156042D01*
X0138821Y0155987D01*
X0138980Y0155928D01*
X0139137Y0155866D01*
X0139292Y0155799D01*
X0139446Y0155728D01*
X0139598Y0155654D01*
X0139748Y0155576D01*
X0139896Y0155495D01*
X0140042Y0155410D01*
X0140186Y0155321D01*
X0140328Y0155229D01*
X0140467Y0155133D01*
X0140604Y0155034D01*
X0140739Y0154932D01*
X0140871Y0154826D01*
X0141000Y0154717D01*
X0141127Y0154605D01*
X0141251Y0154490D01*
X0141372Y0154372D01*
X0141490Y0154251D01*
X0141605Y0154127D01*
X0141717Y0154000D01*
X0141826Y0153871D01*
X0141932Y0153739D01*
X0142034Y0153604D01*
X0142133Y0153467D01*
X0142229Y0153328D01*
X0142321Y0153186D01*
X0142410Y0153042D01*
X0142495Y0152896D01*
X0142576Y0152748D01*
X0142654Y0152598D01*
X0142728Y0152446D01*
X0142799Y0152292D01*
X0142866Y0152137D01*
X0142928Y0151980D01*
X0142987Y0151821D01*
X0143042Y0151661D01*
X0143093Y0151500D01*
X0143140Y0151338D01*
X0143184Y0151174D01*
X0143223Y0151010D01*
X0143258Y0150844D01*
X0143289Y0150678D01*
X0143315Y0150511D01*
X0143338Y0150343D01*
X0143357Y0150175D01*
X0143371Y0150007D01*
X0143382Y0149838D01*
X0143388Y0149669D01*
X0143390Y0149500D01*
X0143388Y0149331D01*
X0143382Y0149162D01*
X0143371Y0148993D01*
X0143357Y0148825D01*
X0143338Y0148657D01*
X0143315Y0148489D01*
X0143289Y0148322D01*
X0143258Y0148156D01*
X0143223Y0147990D01*
X0143184Y0147826D01*
X0143140Y0147662D01*
X0143093Y0147500D01*
X0143042Y0147339D01*
X0142987Y0147179D01*
X0142928Y0147020D01*
X0142866Y0146863D01*
X0142799Y0146708D01*
X0142728Y0146554D01*
X0142654Y0146402D01*
X0142576Y0146252D01*
X0142495Y0146104D01*
X0142410Y0145958D01*
X0142321Y0145814D01*
X0142229Y0145672D01*
X0142133Y0145533D01*
X0142034Y0145396D01*
X0141932Y0145261D01*
X0141826Y0145129D01*
X0141717Y0145000D01*
X0141605Y0144873D01*
X0141490Y0144749D01*
X0141372Y0144628D01*
X0141251Y0144510D01*
X0141127Y0144395D01*
X0141000Y0144283D01*
X0140871Y0144174D01*
X0140739Y0144068D01*
X0140604Y0143966D01*
X0140467Y0143867D01*
X0140328Y0143771D01*
X0140186Y0143679D01*
X0140042Y0143590D01*
X0139896Y0143505D01*
X0139748Y0143424D01*
X0139598Y0143346D01*
X0139446Y0143272D01*
X0139292Y0143201D01*
X0139137Y0143134D01*
X0138980Y0143072D01*
X0138821Y0143013D01*
X0138661Y0142958D01*
X0138500Y0142907D01*
X0138338Y0142860D01*
X0138174Y0142816D01*
X0138010Y0142777D01*
X0137844Y0142742D01*
X0137678Y0142711D01*
X0137511Y0142685D01*
X0137343Y0142662D01*
X0137175Y0142643D01*
X0137007Y0142629D01*
X0136838Y0142618D01*
X0136669Y0142612D01*
X0136500Y0142610D01*
X0136331Y0142612D01*
X0136162Y0142618D01*
X0135993Y0142629D01*
X0135825Y0142643D01*
X0135657Y0142662D01*
X0135489Y0142685D01*
X0135322Y0142711D01*
X0135156Y0142742D01*
X0134990Y0142777D01*
X0134826Y0142816D01*
X0134662Y0142860D01*
X0134500Y0142907D01*
X0134339Y0142958D01*
X0134179Y0143013D01*
X0134020Y0143072D01*
X0133863Y0143134D01*
X0133708Y0143201D01*
X0133554Y0143272D01*
X0133402Y0143346D01*
X0133252Y0143424D01*
X0133104Y0143505D01*
X0132958Y0143590D01*
X0132814Y0143679D01*
X0132672Y0143771D01*
X0132533Y0143867D01*
X0132396Y0143966D01*
X0132261Y0144068D01*
X0132129Y0144174D01*
X0132000Y0144283D01*
X0131873Y0144395D01*
X0131749Y0144510D01*
X0131628Y0144628D01*
X0131510Y0144749D01*
X0131395Y0144873D01*
X0131283Y0145000D01*
X0131174Y0145129D01*
X0131068Y0145261D01*
X0130966Y0145396D01*
X0130867Y0145533D01*
X0130771Y0145672D01*
X0130679Y0145814D01*
X0130590Y0145958D01*
X0130505Y0146104D01*
X0130424Y0146252D01*
X0130346Y0146402D01*
X0130272Y0146554D01*
X0130201Y0146708D01*
X0130134Y0146863D01*
X0130072Y0147020D01*
X0130013Y0147179D01*
X0129958Y0147339D01*
X0129907Y0147500D01*
X0129860Y0147662D01*
X0129816Y0147826D01*
X0129777Y0147990D01*
X0129742Y0148156D01*
X0129711Y0148322D01*
X0129685Y0148489D01*
X0129662Y0148657D01*
X0129643Y0148825D01*
X0129629Y0148993D01*
X0129618Y0149162D01*
X0129612Y0149331D01*
X0129610Y0149500D01*
M02*
