%
M48
M72
T01C0.0120
T02C0.0197
T03C0.0236
T04C0.0315
T05C0.0400
T06C0.1378
%
T01
X1370Y1920
X5640Y4120
X6640Y4700
X9140Y3300
X11000Y5710
X9264Y7010
X9920Y7600
X10490Y8020
X12180Y7160
X12550Y7700
X15560Y8920
X13150Y9970
X10130Y10190
X8700Y10960
X7660Y10510
X7100Y11950
X6090Y12240
X5070Y11720
X4590Y10830
X2950Y11110
X1430Y12320
X1200Y9600
X2850Y9070
X1520Y7950
X4280Y6370
X2090Y5890
X5540Y7960
X4700Y9280
X9500Y12230
X11360Y12300
X11690Y11950
X13080Y12970
X12100Y13730
X9690Y13910
X9230Y14710
X10160Y15600
X6980Y14730
X5200Y15720
X4110Y15770
X3460Y15550
X1980Y15720
X6370Y13060
X16750Y13290
X17550Y13390
X17700Y13890
X19690Y13680
X19620Y13210
X22900Y14460
X23530Y13040
X20020Y10310
X19640Y9940
X20060Y9780
X18800Y7720
X19120Y6580
X21100Y5650
X23580Y6370
X26060Y5910
X17060Y5250
X15600Y5430
X16880Y6970
T02
X16500Y7320
X14650Y6210
X12680Y7040
X11130Y6320
X9700Y4910
X7730Y6290
X4650Y8490
X3690Y6350
X1560Y2720
X10450Y3030
X13460Y3680
X15390Y3810
X17070Y4460
X19440Y5570
X22350Y5570
X23620Y4770
X21950Y8120
X22340Y9030
X20270Y9140
X20000Y11100
X20840Y12820
X17270Y11550
X15170Y11770
X12320Y13140
X9500Y12900
X7110Y11450
X5420Y13490
X2970Y14000
X10420Y9180
X10700Y8620
X10640Y10580
X25280Y14300
X25560Y10290
T03
X25940Y10900
X26050Y12180
X20590Y11400
X21210Y8230
X10890Y15410
X8600Y15470
X6420Y15490
T04
X7737Y2525
X8524Y2525
X9311Y2525
X10099Y2525
X10886Y2525
X11674Y2525
X12461Y2525
X13248Y2525
X14036Y2525
X14823Y2525
X15611Y2525
X16398Y2525
X17185Y2525
X17973Y2525
X18760Y2525
X19548Y2525
X19548Y1737
X18760Y1737
X17973Y1737
X17185Y1737
X16398Y1737
X15611Y1737
X14823Y1737
X14036Y1737
X13248Y1737
X12461Y1737
X11674Y1737
X10886Y1737
X10099Y1737
X9311Y1737
X8524Y1737
X7737Y1737
T05
X13450Y12360
X14550Y12360
X15610Y12340
X16710Y12340
X17340Y15310
X18340Y15410
X19340Y15310
X20340Y15410
X21340Y15310
T06
X13650Y14950
M30
