G75*
%MOIN*%
%OFA0B0*%
%FSLAX25Y25*%
%IPPOS*%
%LPD*%
%AMOC8*
5,1,8,0,0,1.08239X$1,22.5*
%
%ADD10C,0.06800*%
%ADD11R,0.03300X0.05800*%
%ADD12R,0.05100X0.07100*%
%ADD13R,0.07100X0.07100*%
%ADD14C,0.14580*%
%ADD15R,0.05950X0.05950*%
%ADD16C,0.05950*%
%ADD17R,0.05524X0.03950*%
%ADD18R,0.05524X0.03162*%
%ADD19R,0.05524X0.05524*%
%ADD20R,0.03950X0.05524*%
%ADD21R,0.02769X0.06706*%
%ADD22R,0.06706X0.02769*%
%ADD23R,0.04000X0.02400*%
%ADD24R,0.05524X0.02965*%
%ADD25R,0.03950X0.04343*%
%ADD26R,0.07887X0.07099*%
%ADD27R,0.08280X0.07099*%
%ADD28R,0.08200X0.08200*%
%ADD29C,0.08200*%
%ADD30R,0.02375X0.03753*%
%ADD31R,0.02965X0.05524*%
%ADD32R,0.09500X0.03200*%
%ADD33R,0.05131X0.04737*%
%ADD34R,0.04737X0.05131*%
%ADD35C,0.03600*%
%ADD36C,0.04369*%
%ADD37C,0.04762*%
D10*
X0173400Y0150100D02*
X0173400Y0156100D01*
X0183400Y0157100D02*
X0183400Y0151100D01*
X0193400Y0150100D02*
X0193400Y0156100D01*
X0203400Y0157100D02*
X0203400Y0151100D01*
X0213400Y0150100D02*
X0213400Y0156100D01*
D11*
X0222728Y0154300D03*
X0226272Y0154300D03*
X0159872Y0059500D03*
X0156328Y0059500D03*
D12*
X0113500Y0140600D03*
X0104100Y0140600D03*
X0090500Y0140900D03*
X0081100Y0140900D03*
X0068900Y0141100D03*
X0059500Y0141100D03*
X0045800Y0141100D03*
X0036400Y0141100D03*
X0024300Y0140800D03*
X0014900Y0140800D03*
D13*
X0019600Y0152200D03*
X0041100Y0152500D03*
X0064200Y0152500D03*
X0085800Y0152300D03*
X0108800Y0152000D03*
D14*
X0136500Y0149500D03*
D15*
X0077366Y0025248D03*
D16*
X0085240Y0025248D03*
X0093114Y0025248D03*
X0100988Y0025248D03*
X0108862Y0025248D03*
X0116736Y0025248D03*
X0124610Y0025248D03*
X0132484Y0025248D03*
X0140358Y0025248D03*
X0148232Y0025248D03*
X0156106Y0025248D03*
X0163980Y0025248D03*
X0171854Y0025248D03*
X0179728Y0025248D03*
X0187602Y0025248D03*
X0195476Y0025248D03*
X0195476Y0017374D03*
X0187602Y0017374D03*
X0179728Y0017374D03*
X0171854Y0017374D03*
X0163980Y0017374D03*
X0156106Y0017374D03*
X0148232Y0017374D03*
X0140358Y0017374D03*
X0132484Y0017374D03*
X0124610Y0017374D03*
X0116736Y0017374D03*
X0108862Y0017374D03*
X0100988Y0017374D03*
X0093114Y0017374D03*
X0085240Y0017374D03*
X0077366Y0017374D03*
D17*
X0081200Y0045957D03*
X0081200Y0053043D03*
X0102600Y0058457D03*
X0102600Y0065543D03*
X0084200Y0085857D03*
X0077700Y0085957D03*
X0071200Y0086857D03*
X0071200Y0093943D03*
X0077700Y0093043D03*
X0084200Y0092943D03*
X0120800Y0102657D03*
X0120800Y0109743D03*
X0137400Y0096143D03*
X0137400Y0089057D03*
X0147000Y0073643D03*
X0153600Y0073743D03*
X0153600Y0066657D03*
X0147000Y0066557D03*
X0139600Y0068943D03*
X0139600Y0061857D03*
X0139600Y0056843D03*
X0146100Y0056843D03*
X0146100Y0049757D03*
X0139600Y0049757D03*
X0018200Y0067757D03*
X0016400Y0061943D03*
X0016400Y0054857D03*
X0018200Y0074843D03*
D18*
X0091776Y0074800D03*
X0091776Y0079800D03*
X0091776Y0084800D03*
X0091776Y0089800D03*
X0091776Y0094800D03*
X0091776Y0099800D03*
X0091776Y0104800D03*
X0091776Y0109800D03*
X0113824Y0109800D03*
X0113824Y0104800D03*
X0113824Y0099800D03*
X0113824Y0094800D03*
X0113824Y0089800D03*
X0113824Y0084800D03*
X0113824Y0079800D03*
X0113824Y0074800D03*
D19*
X0144966Y0094400D03*
X0153234Y0094400D03*
X0174266Y0073200D03*
X0182534Y0073200D03*
X0146034Y0043800D03*
X0137766Y0043800D03*
X0056400Y0101666D03*
X0056400Y0109934D03*
X0016900Y0106266D03*
X0016900Y0114534D03*
X0016300Y0049234D03*
X0016300Y0040966D03*
X0022766Y0040200D03*
X0031034Y0040200D03*
X0251566Y0114900D03*
X0259834Y0114900D03*
X0260034Y0127400D03*
X0251766Y0127400D03*
D20*
X0236443Y0135500D03*
X0229357Y0135500D03*
X0168243Y0094300D03*
X0161157Y0094300D03*
X0174257Y0080200D03*
X0181343Y0080200D03*
X0182357Y0055700D03*
X0189443Y0055700D03*
X0199757Y0055700D03*
X0206843Y0055700D03*
X0049343Y0101700D03*
X0042257Y0101700D03*
X0036543Y0101500D03*
X0029457Y0101500D03*
X0025543Y0120900D03*
X0030557Y0121000D03*
X0037643Y0121000D03*
X0018457Y0120900D03*
X0033857Y0081100D03*
X0040943Y0081100D03*
X0041143Y0073900D03*
X0034057Y0073900D03*
X0036557Y0054300D03*
X0043643Y0054300D03*
X0043643Y0046900D03*
X0036557Y0046900D03*
X0036557Y0040300D03*
X0043643Y0040300D03*
D21*
X0194852Y0074965D03*
X0198002Y0074965D03*
X0201151Y0074965D03*
X0204301Y0074965D03*
X0207450Y0074965D03*
X0210600Y0074965D03*
X0213750Y0074965D03*
X0216899Y0074965D03*
X0220049Y0074965D03*
X0223198Y0074965D03*
X0226348Y0074965D03*
X0226348Y0120635D03*
X0223198Y0120635D03*
X0220049Y0120635D03*
X0216899Y0120635D03*
X0213750Y0120635D03*
X0210600Y0120635D03*
X0207450Y0120635D03*
X0204301Y0120635D03*
X0201151Y0120635D03*
X0198002Y0120635D03*
X0194852Y0120635D03*
D22*
X0187765Y0113548D03*
X0187765Y0110398D03*
X0187765Y0107249D03*
X0187765Y0104099D03*
X0187765Y0100950D03*
X0187765Y0097800D03*
X0187765Y0094650D03*
X0187765Y0091501D03*
X0187765Y0088351D03*
X0187765Y0085202D03*
X0187765Y0082052D03*
X0233435Y0082052D03*
X0233435Y0085202D03*
X0233435Y0088351D03*
X0233435Y0091501D03*
X0233435Y0094650D03*
X0233435Y0097800D03*
X0233435Y0100950D03*
X0233435Y0104099D03*
X0233435Y0107249D03*
X0233435Y0110398D03*
X0233435Y0113548D03*
D23*
X0229246Y0055016D03*
X0229246Y0052457D03*
X0229246Y0049898D03*
X0229246Y0047339D03*
X0229246Y0044780D03*
X0229246Y0042220D03*
X0229246Y0039661D03*
X0229246Y0037102D03*
X0229246Y0034543D03*
X0229246Y0031984D03*
X0259954Y0031984D03*
X0259954Y0034543D03*
X0259954Y0037102D03*
X0259954Y0039661D03*
X0259954Y0042220D03*
X0259954Y0044780D03*
X0259954Y0047339D03*
X0259954Y0049898D03*
X0259954Y0052457D03*
X0259954Y0055016D03*
D24*
X0229918Y0059760D03*
X0229918Y0063500D03*
X0229918Y0067240D03*
X0219682Y0067240D03*
X0219682Y0063500D03*
X0219682Y0059760D03*
X0229281Y0140860D03*
X0229281Y0148340D03*
X0239519Y0148340D03*
X0239519Y0144600D03*
X0239519Y0140860D03*
X0052519Y0096240D03*
X0042281Y0096240D03*
X0042281Y0092500D03*
X0042281Y0088760D03*
X0052519Y0088760D03*
X0039719Y0107560D03*
X0039719Y0111300D03*
X0039719Y0115040D03*
X0029481Y0115040D03*
X0029481Y0107560D03*
X0031581Y0067640D03*
X0031581Y0063900D03*
X0031581Y0060160D03*
X0041819Y0060160D03*
X0041819Y0067640D03*
D25*
X0027140Y0081063D03*
X0019660Y0081063D03*
X0023400Y0089331D03*
D26*
X0050200Y0072112D03*
X0050200Y0061088D03*
D27*
X0052804Y0021000D03*
X0065796Y0021000D03*
D28*
X0145500Y0123600D03*
X0167100Y0123400D03*
D29*
X0156100Y0123400D03*
X0134500Y0123600D03*
D30*
X0097759Y0065848D03*
X0092641Y0065848D03*
X0092641Y0059352D03*
X0095200Y0059352D03*
X0097759Y0059352D03*
D31*
X0152360Y0059419D03*
X0159840Y0059419D03*
X0159840Y0049181D03*
X0156100Y0049181D03*
X0152360Y0049181D03*
X0083140Y0099581D03*
X0079400Y0099581D03*
X0075660Y0099581D03*
X0075660Y0109819D03*
X0079400Y0109819D03*
X0083140Y0109819D03*
D32*
X0089300Y0053600D03*
X0089300Y0048600D03*
X0089300Y0043600D03*
X0089300Y0038600D03*
X0109900Y0038600D03*
X0109900Y0043600D03*
X0109900Y0048600D03*
X0109900Y0053600D03*
D33*
X0081846Y0038900D03*
X0075154Y0038900D03*
X0036446Y0095800D03*
X0029754Y0095800D03*
X0021646Y0095200D03*
X0014954Y0095200D03*
X0042854Y0121700D03*
X0049546Y0121700D03*
X0071354Y0130600D03*
X0078046Y0130600D03*
X0082154Y0116000D03*
X0088846Y0116000D03*
X0224154Y0127400D03*
X0230846Y0127400D03*
X0239754Y0127400D03*
X0246446Y0127400D03*
X0245746Y0115100D03*
X0239054Y0115100D03*
D34*
X0159800Y0074146D03*
X0159800Y0067454D03*
X0133500Y0069246D03*
X0133500Y0062554D03*
X0121400Y0046046D03*
X0121400Y0039354D03*
X0031500Y0047154D03*
X0031500Y0053846D03*
X0089800Y0122654D03*
X0089800Y0129346D03*
D35*
X0013700Y0019200D03*
X0056400Y0041200D03*
X0066400Y0047000D03*
X0091400Y0033000D03*
X0110000Y0057100D03*
X0092641Y0070100D03*
X0099200Y0076000D03*
X0104900Y0080200D03*
X0121800Y0071600D03*
X0125500Y0077000D03*
X0155600Y0089200D03*
X0131500Y0099700D03*
X0101300Y0101900D03*
X0087000Y0109600D03*
X0076600Y0105100D03*
X0071000Y0119500D03*
X0060900Y0122400D03*
X0050700Y0117200D03*
X0045900Y0108300D03*
X0029500Y0111100D03*
X0014300Y0123200D03*
X0012000Y0096000D03*
X0028500Y0090700D03*
X0015200Y0079500D03*
X0042800Y0063700D03*
X0020900Y0058900D03*
X0055400Y0079600D03*
X0047000Y0092800D03*
X0095000Y0122300D03*
X0113600Y0123000D03*
X0116900Y0119500D03*
X0130800Y0129700D03*
X0121000Y0137300D03*
X0096900Y0139100D03*
X0092300Y0147100D03*
X0101600Y0156000D03*
X0069800Y0147300D03*
X0052000Y0157200D03*
X0041100Y0157700D03*
X0034600Y0155500D03*
X0019800Y0157200D03*
X0063700Y0130600D03*
X0167500Y0132900D03*
X0175500Y0133900D03*
X0177000Y0138900D03*
X0196900Y0136800D03*
X0196200Y0132100D03*
X0229000Y0144600D03*
X0235300Y0130400D03*
X0200200Y0103100D03*
X0196400Y0099400D03*
X0200600Y0097800D03*
X0188000Y0077200D03*
X0191200Y0065800D03*
X0211000Y0056500D03*
X0235800Y0063700D03*
X0260600Y0059100D03*
X0170600Y0052500D03*
X0156000Y0054300D03*
X0168800Y0069700D03*
D36*
X0165000Y0073200D03*
X0146500Y0062100D03*
X0126800Y0070400D03*
X0111300Y0063200D03*
X0097000Y0049100D03*
X0077300Y0062900D03*
X0046500Y0084900D03*
X0036900Y0063500D03*
X0015600Y0027200D03*
X0104500Y0030300D03*
X0134600Y0036800D03*
X0153900Y0038100D03*
X0170700Y0044600D03*
X0194400Y0055700D03*
X0223500Y0055700D03*
X0236200Y0047700D03*
X0219500Y0081200D03*
X0223400Y0090300D03*
X0202700Y0091400D03*
X0200000Y0111000D03*
X0208400Y0128200D03*
X0172700Y0115500D03*
X0151700Y0117700D03*
X0123200Y0131400D03*
X0095000Y0129000D03*
X0071100Y0114500D03*
X0054200Y0134900D03*
X0029700Y0140000D03*
X0104200Y0091800D03*
X0107000Y0086200D03*
X0106400Y0105800D03*
X0252800Y0143000D03*
X0255600Y0102900D03*
D37*
X0259400Y0109000D03*
X0260500Y0121800D03*
X0205900Y0114000D03*
X0212100Y0082300D03*
X0108900Y0154100D03*
X0086000Y0154700D03*
X0064200Y0154900D03*
M02*
