G75*
%MOIN*%
%OFA0B0*%
%FSLAX25Y25*%
%IPPOS*%
%LPD*%
%AMOC8*
5,1,8,0,0,1.08239X$1,22.5*
%
%ADD10R,0.04331X0.03937*%
%ADD11R,0.03937X0.04331*%
%ADD12R,0.04724X0.03150*%
%ADD13R,0.06299X0.07087*%
%ADD14R,0.14400X0.14400*%
%ADD15R,0.10050X0.10050*%
%ADD16R,0.06400X0.06400*%
%ADD17C,0.06400*%
%ADD18R,0.07400X0.07400*%
%ADD19C,0.07400*%
%ADD20OC8,0.09000*%
%ADD21R,0.09000X0.09000*%
%ADD22C,0.08858*%
%ADD23R,0.03150X0.03543*%
%ADD24R,0.03150X0.04724*%
%ADD25R,0.01575X0.02953*%
%ADD26R,0.01969X0.02953*%
%ADD27R,0.02953X0.01575*%
%ADD28R,0.02953X0.01969*%
%ADD29C,0.05943*%
%ADD30R,0.07500X0.07500*%
%ADD31R,0.08700X0.02400*%
%ADD32R,0.02400X0.08700*%
%ADD33R,0.03937X0.02756*%
%ADD34R,0.02165X0.04724*%
%ADD35C,0.01600*%
%ADD36C,0.01000*%
%ADD37C,0.03500*%
%ADD38C,0.03969*%
%ADD39C,0.01500*%
%ADD40C,0.00700*%
%ADD41C,0.02000*%
%ADD42C,0.00800*%
%ADD43C,0.02400*%
%ADD44C,0.03300*%
%ADD45C,0.03400*%
%ADD46C,0.04000*%
D10*
X0143032Y0023300D03*
X0149725Y0023300D03*
X0149325Y0038100D03*
X0142632Y0038100D03*
X0231832Y0091600D03*
X0238525Y0091600D03*
X0254332Y0061700D03*
X0261025Y0061700D03*
X0259532Y0047800D03*
X0266225Y0047800D03*
G36*
X0298082Y0094300D02*
X0298105Y0098629D01*
X0302040Y0098608D01*
X0302017Y0094279D01*
X0298082Y0094300D01*
G37*
G36*
X0298117Y0100992D02*
X0298140Y0105321D01*
X0302075Y0105300D01*
X0302052Y0100971D01*
X0298117Y0100992D01*
G37*
X0249325Y0166200D03*
X0242632Y0166200D03*
X0296832Y0170200D03*
X0303525Y0170200D03*
X0134325Y0168000D03*
X0127632Y0168000D03*
X0116325Y0168000D03*
X0109632Y0168000D03*
X0102325Y0168000D03*
X0095632Y0168000D03*
X0085325Y0168000D03*
X0078632Y0168000D03*
X0072325Y0168000D03*
X0065632Y0168000D03*
X0059325Y0168000D03*
X0052632Y0168000D03*
X0042325Y0168000D03*
X0035632Y0168000D03*
X0027325Y0168000D03*
X0020632Y0168000D03*
D11*
X0018978Y0175654D03*
X0018978Y0182346D03*
X0036978Y0182346D03*
X0036978Y0175654D03*
X0054978Y0175654D03*
X0054978Y0182346D03*
X0072978Y0182346D03*
X0072978Y0175654D03*
X0090978Y0175654D03*
X0090978Y0182346D03*
X0108978Y0182346D03*
X0108978Y0175654D03*
X0126978Y0175654D03*
X0126978Y0182346D03*
X0134978Y0182346D03*
X0134978Y0175654D03*
X0100178Y0119346D03*
X0100178Y0112654D03*
X0121978Y0040846D03*
X0121978Y0034154D03*
X0235428Y0111254D03*
X0235428Y0117946D03*
X0234778Y0163654D03*
X0234778Y0170346D03*
X0284128Y0175404D03*
X0284128Y0182096D03*
X0309578Y0103146D03*
X0319178Y0103146D03*
X0319178Y0096454D03*
X0309578Y0096454D03*
D12*
X0289478Y0152157D03*
X0289478Y0159243D03*
X0225178Y0118143D03*
X0225178Y0111057D03*
X0195178Y0116057D03*
X0195178Y0123143D03*
X0107378Y0119543D03*
X0107378Y0112457D03*
X0087378Y0110057D03*
X0079378Y0110257D03*
X0079378Y0117343D03*
X0087378Y0117143D03*
D13*
X0207167Y0111100D03*
X0218190Y0111100D03*
X0122090Y0025400D03*
X0111067Y0025400D03*
D14*
X0317578Y0209450D03*
X0317578Y0245750D03*
D15*
X0277578Y0245750D03*
X0277578Y0209450D03*
D16*
X0276178Y0183200D03*
X0023478Y0114500D03*
D17*
X0023478Y0124500D03*
X0023478Y0134500D03*
X0023478Y0144500D03*
X0023478Y0154500D03*
X0276178Y0153200D03*
X0276178Y0143200D03*
X0276178Y0163200D03*
X0276178Y0173200D03*
D18*
X0184878Y0179800D03*
X0159878Y0179800D03*
X0160378Y0221300D03*
X0184878Y0221800D03*
X0145878Y0013200D03*
D19*
X0135878Y0013200D03*
X0125878Y0013200D03*
X0160878Y0189800D03*
X0159878Y0199800D03*
X0160878Y0209800D03*
X0185878Y0209800D03*
X0184878Y0199800D03*
X0185878Y0189800D03*
X0185878Y0231800D03*
X0184878Y0241800D03*
X0185878Y0251800D03*
X0160378Y0232300D03*
X0111978Y0245000D03*
X0101978Y0246000D03*
X0091978Y0245000D03*
X0081978Y0246000D03*
X0071978Y0245000D03*
X0061978Y0246000D03*
X0051978Y0245000D03*
X0041978Y0246000D03*
D20*
X0251378Y0048300D03*
D21*
X0274378Y0048300D03*
X0297378Y0048300D03*
X0297378Y0025300D03*
X0274378Y0025300D03*
X0251378Y0025300D03*
D22*
X0318578Y0086800D03*
X0358578Y0106800D03*
X0318578Y0126800D03*
X0318578Y0186800D03*
X0338578Y0186800D03*
X0358578Y0186800D03*
X0240578Y0227850D03*
X0240578Y0244150D03*
D23*
X0130719Y0205937D03*
X0123238Y0205937D03*
X0126978Y0197669D03*
X0112719Y0205937D03*
X0105238Y0205937D03*
X0108978Y0197669D03*
X0094719Y0205937D03*
X0087238Y0205937D03*
X0090978Y0197669D03*
X0076719Y0205937D03*
X0069238Y0205937D03*
X0058719Y0205937D03*
X0051238Y0205937D03*
X0054978Y0197669D03*
X0040719Y0205937D03*
X0033238Y0205937D03*
X0036978Y0197669D03*
X0022719Y0205937D03*
X0015238Y0205937D03*
X0018978Y0197669D03*
X0072978Y0197669D03*
D24*
X0069435Y0190000D03*
X0076522Y0190000D03*
X0087435Y0190000D03*
X0094522Y0190000D03*
X0105435Y0190000D03*
X0112522Y0190000D03*
X0123435Y0190000D03*
X0130522Y0190000D03*
X0058522Y0190000D03*
X0051435Y0190000D03*
X0040522Y0190000D03*
X0033435Y0190000D03*
X0022522Y0190000D03*
X0015435Y0190000D03*
D25*
X0193404Y0172543D03*
X0196553Y0172543D03*
X0196553Y0165654D03*
X0193404Y0165654D03*
D26*
X0190057Y0165654D03*
X0190057Y0172543D03*
X0199900Y0172543D03*
X0199900Y0165654D03*
G36*
X0176875Y0163971D02*
X0174908Y0163974D01*
X0174913Y0166925D01*
X0176880Y0166922D01*
X0176875Y0163971D01*
G37*
D27*
G36*
X0173336Y0166928D02*
X0173331Y0163977D01*
X0171758Y0163980D01*
X0171763Y0166931D01*
X0173336Y0166928D01*
G37*
G36*
X0170186Y0166933D02*
X0170181Y0163982D01*
X0168608Y0163985D01*
X0168613Y0166936D01*
X0170186Y0166933D01*
G37*
G36*
X0170198Y0173823D02*
X0170193Y0170872D01*
X0168620Y0170875D01*
X0168625Y0173826D01*
X0170198Y0173823D01*
G37*
G36*
X0173348Y0173818D02*
X0173343Y0170867D01*
X0171770Y0170870D01*
X0171775Y0173821D01*
X0173348Y0173818D01*
G37*
D28*
G36*
X0176892Y0173812D02*
X0176887Y0170861D01*
X0174920Y0170864D01*
X0174925Y0173815D01*
X0176892Y0173812D01*
G37*
G36*
X0167049Y0173829D02*
X0167044Y0170878D01*
X0165077Y0170881D01*
X0165082Y0173832D01*
X0167049Y0173829D01*
G37*
G36*
X0167037Y0166939D02*
X0167032Y0163988D01*
X0165065Y0163991D01*
X0165070Y0166942D01*
X0167037Y0166939D01*
G37*
D29*
X0135978Y0215000D03*
X0117978Y0215000D03*
X0099978Y0215000D03*
X0081978Y0215000D03*
X0063978Y0215000D03*
X0045978Y0215000D03*
X0027978Y0215000D03*
X0027978Y0229764D03*
X0045978Y0229764D03*
X0063978Y0229764D03*
X0081978Y0229764D03*
X0099978Y0229764D03*
X0117978Y0229764D03*
X0135978Y0229764D03*
D30*
X0212804Y0075800D03*
X0015953Y0075800D03*
D31*
X0298278Y0145700D03*
X0298278Y0150700D03*
X0298278Y0155700D03*
X0298278Y0160700D03*
X0318878Y0160700D03*
X0318878Y0155700D03*
X0318878Y0150700D03*
X0318878Y0145700D03*
D32*
X0281878Y0082100D03*
X0276878Y0082100D03*
X0271878Y0082100D03*
X0266878Y0082100D03*
X0266878Y0061500D03*
X0271878Y0061500D03*
X0276878Y0061500D03*
X0281878Y0061500D03*
D33*
X0343654Y0169260D03*
X0343654Y0173000D03*
X0343654Y0176740D03*
X0353103Y0176740D03*
X0353103Y0173000D03*
X0353103Y0169260D03*
D34*
X0137119Y0035719D03*
X0129638Y0035719D03*
X0129638Y0025481D03*
X0133378Y0025481D03*
X0137119Y0025481D03*
D35*
X0004177Y0003600D02*
X0003980Y0259000D01*
X0373578Y0259000D01*
X0373578Y0040140D01*
X0373315Y0041123D01*
X0371841Y0043677D01*
X0369755Y0045762D01*
X0367201Y0047237D01*
X0364353Y0048000D01*
X0361404Y0048000D01*
X0358555Y0047237D01*
X0356001Y0045762D01*
X0353916Y0043677D01*
X0352442Y0041123D01*
X0351678Y0038275D01*
X0351678Y0035325D01*
X0352442Y0032477D01*
X0353916Y0029923D01*
X0356001Y0027838D01*
X0358555Y0026363D01*
X0361404Y0025600D01*
X0364353Y0025600D01*
X0367201Y0026363D01*
X0369755Y0027838D01*
X0371841Y0029923D01*
X0373315Y0032477D01*
X0373578Y0033460D01*
X0373578Y0003600D01*
X0161270Y0003600D01*
X0162270Y0004600D01*
X0247695Y0004600D01*
X0249018Y0005148D01*
X0250030Y0006161D01*
X0254430Y0010561D01*
X0254978Y0011884D01*
X0254978Y0019200D01*
X0256541Y0019200D01*
X0257478Y0020137D01*
X0257478Y0030463D01*
X0256541Y0031400D01*
X0246216Y0031400D01*
X0245278Y0030463D01*
X0245278Y0020137D01*
X0246216Y0019200D01*
X0247778Y0019200D01*
X0247778Y0014091D01*
X0245487Y0011800D01*
X0160062Y0011800D01*
X0158739Y0011252D01*
X0156287Y0008800D01*
X0151141Y0008800D01*
X0151178Y0008837D01*
X0151178Y0012706D01*
X0151394Y0012921D01*
X0151714Y0013221D01*
X0151730Y0013258D01*
X0151760Y0013287D01*
X0151927Y0013691D01*
X0152108Y0014090D01*
X0152109Y0014131D01*
X0152125Y0014169D01*
X0152125Y0014607D01*
X0152139Y0015044D01*
X0152125Y0015083D01*
X0152125Y0019731D01*
X0152553Y0019731D01*
X0153490Y0020669D01*
X0153490Y0025931D01*
X0152553Y0026868D01*
X0149055Y0026868D01*
X0149276Y0026960D01*
X0150218Y0027902D01*
X0150728Y0029134D01*
X0150728Y0030466D01*
X0150218Y0031698D01*
X0149276Y0032640D01*
X0148045Y0033150D01*
X0146712Y0033150D01*
X0145481Y0032640D01*
X0144538Y0031698D01*
X0144028Y0030466D01*
X0144028Y0029134D01*
X0144538Y0027902D01*
X0144565Y0027876D01*
X0144531Y0027769D01*
X0143631Y0026868D01*
X0140204Y0026868D01*
X0139801Y0026466D01*
X0139801Y0028506D01*
X0138864Y0029444D01*
X0135373Y0029444D01*
X0135343Y0029413D01*
X0135156Y0029521D01*
X0134698Y0029644D01*
X0133379Y0029644D01*
X0133379Y0025482D01*
X0133378Y0025482D01*
X0133378Y0029644D01*
X0132059Y0029644D01*
X0132021Y0029634D01*
X0132228Y0030134D01*
X0132228Y0031466D01*
X0131896Y0032269D01*
X0132321Y0032694D01*
X0132321Y0038743D01*
X0131384Y0039681D01*
X0127893Y0039681D01*
X0126956Y0038743D01*
X0126956Y0035974D01*
X0126858Y0035801D01*
X0126548Y0033207D01*
X0126038Y0032698D01*
X0125547Y0031511D01*
X0125547Y0036982D01*
X0125029Y0037500D01*
X0125547Y0038018D01*
X0125547Y0042200D01*
X0126545Y0042200D01*
X0127776Y0042710D01*
X0128718Y0043652D01*
X0129228Y0044884D01*
X0129228Y0046216D01*
X0128718Y0047448D01*
X0127776Y0048390D01*
X0126545Y0048900D01*
X0125212Y0048900D01*
X0123981Y0048390D01*
X0123038Y0047448D01*
X0122528Y0046216D01*
X0122528Y0045170D01*
X0121970Y0044612D01*
X0119347Y0044612D01*
X0118410Y0043675D01*
X0118410Y0038018D01*
X0118928Y0037500D01*
X0118410Y0036982D01*
X0118410Y0031325D01*
X0119192Y0030543D01*
X0118278Y0030543D01*
X0117341Y0029606D01*
X0117341Y0021194D01*
X0118278Y0020257D01*
X0125903Y0020257D01*
X0126840Y0021194D01*
X0126840Y0023300D01*
X0126956Y0023300D01*
X0126956Y0022457D01*
X0127893Y0021519D01*
X0131384Y0021519D01*
X0131414Y0021550D01*
X0131601Y0021442D01*
X0132059Y0021319D01*
X0133378Y0021319D01*
X0133378Y0025481D01*
X0133379Y0025481D01*
X0133379Y0021319D01*
X0134698Y0021319D01*
X0135156Y0021442D01*
X0135343Y0021550D01*
X0135373Y0021519D01*
X0138111Y0021519D01*
X0138430Y0021200D01*
X0139267Y0021200D01*
X0139267Y0020669D01*
X0140204Y0019731D01*
X0145860Y0019731D01*
X0146378Y0020250D01*
X0146897Y0019731D01*
X0147325Y0019731D01*
X0147325Y0018500D01*
X0141516Y0018500D01*
X0140578Y0017563D01*
X0140578Y0015703D01*
X0140372Y0016202D01*
X0138881Y0017693D01*
X0136933Y0018500D01*
X0134824Y0018500D01*
X0132876Y0017693D01*
X0131385Y0016202D01*
X0130878Y0014978D01*
X0130372Y0016202D01*
X0128881Y0017693D01*
X0126933Y0018500D01*
X0124824Y0018500D01*
X0122876Y0017693D01*
X0121385Y0016202D01*
X0120578Y0014254D01*
X0120578Y0012146D01*
X0121385Y0010198D01*
X0122178Y0009405D01*
X0122178Y0005884D01*
X0122727Y0004561D01*
X0123687Y0003600D01*
X0004177Y0003600D01*
X0004176Y0004997D02*
X0009696Y0004997D01*
X0010924Y0004488D02*
X0013833Y0004488D01*
X0016520Y0005601D01*
X0018577Y0007658D01*
X0019690Y0010346D01*
X0019690Y0013254D01*
X0018577Y0015942D01*
X0016520Y0017999D01*
X0013833Y0019112D01*
X0010924Y0019112D01*
X0008237Y0017999D01*
X0006180Y0015942D01*
X0005067Y0013254D01*
X0005067Y0010346D01*
X0006180Y0007658D01*
X0008237Y0005601D01*
X0010924Y0004488D01*
X0015061Y0004997D02*
X0122546Y0004997D01*
X0122178Y0006596D02*
X0017514Y0006596D01*
X0018799Y0008194D02*
X0122178Y0008194D01*
X0121791Y0009793D02*
X0019461Y0009793D01*
X0019690Y0011391D02*
X0120891Y0011391D01*
X0120578Y0012990D02*
X0019690Y0012990D01*
X0019138Y0014588D02*
X0120717Y0014588D01*
X0121379Y0016187D02*
X0018332Y0016187D01*
X0016734Y0017785D02*
X0123098Y0017785D01*
X0126628Y0020982D02*
X0139267Y0020982D01*
X0138659Y0017785D02*
X0140801Y0017785D01*
X0140578Y0016187D02*
X0140378Y0016187D01*
X0145878Y0013200D02*
X0149725Y0014646D01*
X0149725Y0023300D01*
X0153490Y0022581D02*
X0245278Y0022581D01*
X0245278Y0024179D02*
X0153490Y0024179D01*
X0153490Y0025778D02*
X0183741Y0025778D01*
X0184404Y0025600D02*
X0187353Y0025600D01*
X0190201Y0026363D01*
X0192755Y0027838D01*
X0194841Y0029923D01*
X0196315Y0032477D01*
X0197078Y0035325D01*
X0197078Y0038275D01*
X0196315Y0041123D01*
X0194841Y0043677D01*
X0192755Y0045762D01*
X0190201Y0047237D01*
X0187353Y0048000D01*
X0184404Y0048000D01*
X0181555Y0047237D01*
X0179001Y0045762D01*
X0176916Y0043677D01*
X0175442Y0041123D01*
X0174678Y0038275D01*
X0174678Y0035325D01*
X0175442Y0032477D01*
X0176916Y0029923D01*
X0179001Y0027838D01*
X0181555Y0026363D01*
X0184404Y0025600D01*
X0188016Y0025778D02*
X0245278Y0025778D01*
X0245278Y0027376D02*
X0191956Y0027376D01*
X0193892Y0028975D02*
X0245278Y0028975D01*
X0245389Y0030573D02*
X0195216Y0030573D01*
X0196139Y0032172D02*
X0283278Y0032172D01*
X0283278Y0033770D02*
X0196662Y0033770D01*
X0197078Y0035369D02*
X0283278Y0035369D01*
X0283278Y0036967D02*
X0197078Y0036967D01*
X0197000Y0038566D02*
X0284674Y0038566D01*
X0284509Y0038400D02*
X0283278Y0037170D01*
X0283278Y0027170D01*
X0282778Y0026670D01*
X0282778Y0014930D01*
X0290778Y0006930D01*
X0292009Y0005700D01*
X0324248Y0005700D01*
X0325478Y0006930D01*
X0325478Y0006930D01*
X0332748Y0014200D01*
X0332748Y0014200D01*
X0333978Y0015430D01*
X0333978Y0085670D01*
X0327478Y0092170D01*
X0326248Y0093400D01*
X0322521Y0093400D01*
X0322747Y0093625D01*
X0322747Y0099282D01*
X0322229Y0099800D01*
X0322747Y0100318D01*
X0322747Y0105975D01*
X0321810Y0106912D01*
X0316547Y0106912D01*
X0315610Y0105975D01*
X0315610Y0105246D01*
X0313147Y0105246D01*
X0313147Y0105975D01*
X0312210Y0106912D01*
X0311678Y0106912D01*
X0311678Y0108970D01*
X0310478Y0110170D01*
X0309248Y0111400D01*
X0308248Y0111400D01*
X0305948Y0113700D01*
X0328248Y0113700D01*
X0329478Y0114930D01*
X0339478Y0124930D01*
X0339478Y0170430D01*
X0339886Y0170837D01*
X0339886Y0169260D01*
X0343654Y0169260D01*
X0343654Y0169260D01*
X0347423Y0169260D01*
X0347423Y0170875D01*
X0347300Y0171333D01*
X0347223Y0171467D01*
X0347223Y0171486D01*
X0347509Y0171200D01*
X0347809Y0170900D01*
X0349534Y0170900D01*
X0349534Y0167219D01*
X0350472Y0166282D01*
X0355734Y0166282D01*
X0356312Y0166860D01*
X0356316Y0166860D01*
X0357198Y0167225D01*
X0359738Y0169765D01*
X0360413Y0170441D01*
X0360778Y0171323D01*
X0360778Y0181185D01*
X0361994Y0181689D01*
X0363690Y0183385D01*
X0364608Y0185601D01*
X0364608Y0187999D01*
X0363690Y0190215D01*
X0361994Y0191911D01*
X0359778Y0192829D01*
X0357379Y0192829D01*
X0355163Y0191911D01*
X0353467Y0190215D01*
X0352549Y0187999D01*
X0352549Y0185601D01*
X0353467Y0183385D01*
X0355163Y0181689D01*
X0355978Y0181351D01*
X0355978Y0179673D01*
X0355766Y0179795D01*
X0355308Y0179918D01*
X0353103Y0179918D01*
X0353103Y0176740D01*
X0353103Y0176740D01*
X0353103Y0179918D01*
X0351728Y0179918D01*
X0351728Y0179966D01*
X0351218Y0181198D01*
X0350276Y0182140D01*
X0349045Y0182650D01*
X0347712Y0182650D01*
X0346481Y0182140D01*
X0345538Y0181198D01*
X0345028Y0179966D01*
X0345028Y0179718D01*
X0342854Y0179718D01*
X0341209Y0181364D01*
X0341994Y0181689D01*
X0343690Y0183385D01*
X0344608Y0185601D01*
X0344608Y0187999D01*
X0343690Y0190215D01*
X0341994Y0191911D01*
X0339778Y0192829D01*
X0337379Y0192829D01*
X0335163Y0191911D01*
X0333467Y0190215D01*
X0332678Y0188311D01*
X0332678Y0224070D01*
X0326848Y0229900D01*
X0335606Y0229900D01*
X0336488Y0230265D01*
X0337163Y0230941D01*
X0339663Y0233441D01*
X0340028Y0234323D01*
X0340028Y0254777D01*
X0339663Y0255659D01*
X0338988Y0256335D01*
X0337738Y0257585D01*
X0336856Y0257950D01*
X0288401Y0257950D01*
X0287519Y0257585D01*
X0286844Y0256909D01*
X0284594Y0254659D01*
X0284228Y0253777D01*
X0284228Y0243044D01*
X0284203Y0243019D01*
X0284203Y0251438D01*
X0283266Y0252375D01*
X0271891Y0252375D01*
X0270953Y0251438D01*
X0270953Y0240950D01*
X0270623Y0240950D01*
X0269778Y0241794D01*
X0269778Y0247027D01*
X0269413Y0247909D01*
X0268738Y0248585D01*
X0261488Y0255835D01*
X0260606Y0256200D01*
X0226901Y0256200D01*
X0226019Y0255835D01*
X0225094Y0254909D01*
X0224728Y0254027D01*
X0224728Y0238073D01*
X0225094Y0237191D01*
X0225769Y0236515D01*
X0227269Y0235015D01*
X0228151Y0234650D01*
X0248634Y0234650D01*
X0253019Y0230265D01*
X0253901Y0229900D01*
X0261909Y0229900D01*
X0258709Y0226700D01*
X0257478Y0225470D01*
X0257478Y0200812D01*
X0257469Y0199954D01*
X0257478Y0199944D01*
X0257478Y0199930D01*
X0258085Y0199323D01*
X0258685Y0198710D01*
X0258699Y0198710D01*
X0258709Y0198700D01*
X0259567Y0198700D01*
X0294161Y0198309D01*
X0305136Y0188414D01*
X0305578Y0181335D01*
X0305578Y0173968D01*
X0303709Y0173968D01*
X0303709Y0170384D01*
X0303341Y0170384D01*
X0303341Y0173968D01*
X0301123Y0173968D01*
X0300665Y0173846D01*
X0300254Y0173609D01*
X0300037Y0173392D01*
X0299660Y0173768D01*
X0294004Y0173768D01*
X0293067Y0172831D01*
X0293067Y0171458D01*
X0292055Y0170447D01*
X0287697Y0174805D01*
X0287697Y0178232D01*
X0287179Y0178750D01*
X0287697Y0179268D01*
X0287697Y0184925D01*
X0286760Y0185862D01*
X0281497Y0185862D01*
X0280978Y0185343D01*
X0280978Y0187063D01*
X0280041Y0188000D01*
X0272316Y0188000D01*
X0271378Y0187063D01*
X0271378Y0185300D01*
X0259048Y0185300D01*
X0258972Y0185365D01*
X0258192Y0185300D01*
X0257409Y0185300D01*
X0257338Y0185229D01*
X0257238Y0185221D01*
X0256732Y0184624D01*
X0256178Y0184070D01*
X0256178Y0183970D01*
X0253155Y0180400D01*
X0239016Y0180400D01*
X0238276Y0181140D01*
X0237045Y0181650D01*
X0235712Y0181650D01*
X0234881Y0181306D01*
X0234718Y0181698D01*
X0233776Y0182640D01*
X0232545Y0183150D01*
X0231212Y0183150D01*
X0229981Y0182640D01*
X0229241Y0181900D01*
X0227410Y0181900D01*
X0226842Y0182055D01*
X0226571Y0181900D01*
X0226259Y0181900D01*
X0225842Y0181484D01*
X0219571Y0177900D01*
X0209195Y0177900D01*
X0208498Y0178598D01*
X0207285Y0179100D01*
X0205972Y0179100D01*
X0204759Y0178598D01*
X0203831Y0177669D01*
X0203328Y0176456D01*
X0203328Y0175144D01*
X0203471Y0174800D01*
X0202366Y0174800D01*
X0202256Y0174910D01*
X0202256Y0177506D01*
X0203559Y0178450D01*
X0203748Y0178450D01*
X0204246Y0178947D01*
X0204815Y0179360D01*
X0204845Y0179546D01*
X0204978Y0179680D01*
X0204978Y0180383D01*
X0205089Y0181078D01*
X0204978Y0181231D01*
X0204978Y0182701D01*
X0204993Y0182716D01*
X0204978Y0183568D01*
X0204978Y0184420D01*
X0204964Y0184435D01*
X0204963Y0184455D01*
X0204351Y0185047D01*
X0203748Y0185650D01*
X0203728Y0185650D01*
X0197478Y0191691D01*
X0197478Y0232170D01*
X0189805Y0239844D01*
X0190178Y0240746D01*
X0190178Y0242854D01*
X0189372Y0244802D01*
X0187881Y0246293D01*
X0187374Y0246503D01*
X0187990Y0246703D01*
X0188761Y0247096D01*
X0189461Y0247605D01*
X0190074Y0248217D01*
X0190582Y0248917D01*
X0190975Y0249689D01*
X0191243Y0250512D01*
X0191378Y0251367D01*
X0191378Y0251600D01*
X0186079Y0251600D01*
X0186079Y0252000D01*
X0191378Y0252000D01*
X0191378Y0252233D01*
X0191243Y0253088D01*
X0190975Y0253911D01*
X0190582Y0254683D01*
X0190074Y0255383D01*
X0189461Y0255995D01*
X0188761Y0256504D01*
X0187990Y0256897D01*
X0187166Y0257165D01*
X0186311Y0257300D01*
X0186078Y0257300D01*
X0186078Y0252000D01*
X0185678Y0252000D01*
X0185678Y0251600D01*
X0180378Y0251600D01*
X0180378Y0251367D01*
X0180514Y0250512D01*
X0180781Y0249689D01*
X0181174Y0248917D01*
X0181683Y0248217D01*
X0182295Y0247605D01*
X0182996Y0247096D01*
X0183363Y0246909D01*
X0181876Y0246293D01*
X0180385Y0244802D01*
X0179578Y0242854D01*
X0179578Y0240746D01*
X0180385Y0238798D01*
X0181876Y0237307D01*
X0183363Y0236691D01*
X0182996Y0236504D01*
X0182295Y0235995D01*
X0181683Y0235383D01*
X0181174Y0234683D01*
X0180781Y0233911D01*
X0180514Y0233088D01*
X0180378Y0232233D01*
X0180378Y0232000D01*
X0185678Y0232000D01*
X0185678Y0231600D01*
X0180378Y0231600D01*
X0180378Y0231367D01*
X0180514Y0230512D01*
X0180781Y0229689D01*
X0181174Y0228917D01*
X0181683Y0228217D01*
X0182295Y0227605D01*
X0182990Y0227100D01*
X0180516Y0227100D01*
X0179578Y0226163D01*
X0179578Y0217437D01*
X0180516Y0216500D01*
X0187209Y0216500D01*
X0191278Y0212430D01*
X0191278Y0210864D01*
X0191243Y0211088D01*
X0190975Y0211911D01*
X0190582Y0212683D01*
X0190074Y0213383D01*
X0189461Y0213995D01*
X0188761Y0214504D01*
X0187990Y0214897D01*
X0187166Y0215165D01*
X0186311Y0215300D01*
X0186078Y0215300D01*
X0186078Y0210000D01*
X0185678Y0210000D01*
X0185678Y0209600D01*
X0180378Y0209600D01*
X0180378Y0209367D01*
X0180514Y0208512D01*
X0180781Y0207689D01*
X0181174Y0206917D01*
X0181683Y0206217D01*
X0182295Y0205605D01*
X0182996Y0205096D01*
X0183363Y0204909D01*
X0181876Y0204293D01*
X0180385Y0202802D01*
X0179578Y0200854D01*
X0179578Y0198746D01*
X0180385Y0196798D01*
X0181876Y0195307D01*
X0183363Y0194691D01*
X0182996Y0194504D01*
X0182295Y0193995D01*
X0181683Y0193383D01*
X0181174Y0192683D01*
X0180781Y0191911D01*
X0180648Y0191500D01*
X0177436Y0194713D01*
X0173478Y0199184D01*
X0173478Y0200466D01*
X0172968Y0201698D01*
X0172026Y0202640D01*
X0170795Y0203150D01*
X0169462Y0203150D01*
X0168231Y0202640D01*
X0167288Y0201698D01*
X0166778Y0200466D01*
X0166778Y0199134D01*
X0167288Y0197902D01*
X0168231Y0196960D01*
X0169462Y0196450D01*
X0170289Y0196450D01*
X0173806Y0192477D01*
X0173806Y0192403D01*
X0174375Y0191833D01*
X0174910Y0191230D01*
X0174983Y0191225D01*
X0177278Y0188930D01*
X0177278Y0175412D01*
X0174264Y0175417D01*
X0174139Y0175293D01*
X0174015Y0175418D01*
X0171114Y0175423D01*
X0170989Y0175298D01*
X0170865Y0175423D01*
X0167965Y0175428D01*
X0167840Y0175304D01*
X0167715Y0175429D01*
X0165174Y0175433D01*
X0165178Y0175437D01*
X0165178Y0184163D01*
X0164241Y0185100D01*
X0163767Y0185100D01*
X0164461Y0185605D01*
X0165074Y0186217D01*
X0165582Y0186917D01*
X0165975Y0187689D01*
X0166243Y0188512D01*
X0166378Y0189367D01*
X0166378Y0189600D01*
X0161079Y0189600D01*
X0161079Y0190000D01*
X0166378Y0190000D01*
X0166378Y0190233D01*
X0166243Y0191088D01*
X0165975Y0191911D01*
X0165582Y0192683D01*
X0165074Y0193383D01*
X0164461Y0193995D01*
X0163761Y0194504D01*
X0162990Y0194897D01*
X0162374Y0195097D01*
X0162881Y0195307D01*
X0164372Y0196798D01*
X0165178Y0198746D01*
X0165178Y0200854D01*
X0164372Y0202802D01*
X0162881Y0204293D01*
X0162374Y0204503D01*
X0162990Y0204703D01*
X0163761Y0205096D01*
X0164461Y0205605D01*
X0165074Y0206217D01*
X0165582Y0206917D01*
X0165975Y0207689D01*
X0166243Y0208512D01*
X0166378Y0209367D01*
X0166378Y0209600D01*
X0161079Y0209600D01*
X0161079Y0210000D01*
X0166378Y0210000D01*
X0166378Y0210233D01*
X0166243Y0211088D01*
X0165975Y0211911D01*
X0165582Y0212683D01*
X0165074Y0213383D01*
X0164461Y0213995D01*
X0163761Y0214504D01*
X0162990Y0214897D01*
X0162166Y0215165D01*
X0161311Y0215300D01*
X0161078Y0215300D01*
X0161078Y0210000D01*
X0160678Y0210000D01*
X0160678Y0215300D01*
X0160446Y0215300D01*
X0159591Y0215165D01*
X0158767Y0214897D01*
X0157996Y0214504D01*
X0157295Y0213995D01*
X0156683Y0213383D01*
X0156478Y0213101D01*
X0156478Y0215800D01*
X0160178Y0215800D01*
X0160178Y0221100D01*
X0160578Y0221100D01*
X0160578Y0215800D01*
X0164315Y0215800D01*
X0164773Y0215923D01*
X0165184Y0216160D01*
X0165519Y0216495D01*
X0165756Y0216905D01*
X0165878Y0217363D01*
X0165878Y0221100D01*
X0160579Y0221100D01*
X0160579Y0221500D01*
X0165878Y0221500D01*
X0165878Y0225237D01*
X0165756Y0225695D01*
X0165519Y0226105D01*
X0165184Y0226440D01*
X0164773Y0226677D01*
X0164315Y0226800D01*
X0160578Y0226800D01*
X0160578Y0221500D01*
X0160178Y0221500D01*
X0160178Y0226800D01*
X0157848Y0226800D01*
X0158422Y0227374D01*
X0159324Y0227000D01*
X0161433Y0227000D01*
X0163381Y0227807D01*
X0164872Y0229298D01*
X0165678Y0231246D01*
X0165678Y0233354D01*
X0164872Y0235302D01*
X0163381Y0236793D01*
X0161433Y0237600D01*
X0159324Y0237600D01*
X0157376Y0236793D01*
X0155885Y0235302D01*
X0155078Y0233354D01*
X0155078Y0231246D01*
X0155452Y0230344D01*
X0152278Y0227170D01*
X0152278Y0165866D01*
X0152228Y0165063D01*
X0152278Y0165006D01*
X0152278Y0164930D01*
X0152847Y0164361D01*
X0155278Y0161606D01*
X0155278Y0161530D01*
X0155847Y0160961D01*
X0156379Y0160358D01*
X0156455Y0160354D01*
X0156509Y0160300D01*
X0157313Y0160300D01*
X0158116Y0160250D01*
X0158172Y0160300D01*
X0167297Y0160300D01*
X0167297Y0155911D01*
X0168278Y0154930D01*
X0169509Y0153700D01*
X0199368Y0153700D01*
X0200227Y0153691D01*
X0200236Y0153700D01*
X0200248Y0153700D01*
X0200856Y0154307D01*
X0209161Y0162450D01*
X0210245Y0162450D01*
X0211476Y0162960D01*
X0212418Y0163902D01*
X0212928Y0165134D01*
X0212928Y0166466D01*
X0212418Y0167698D01*
X0211476Y0168640D01*
X0210245Y0169150D01*
X0209928Y0169150D01*
X0209928Y0169666D01*
X0209459Y0170800D01*
X0220141Y0170800D01*
X0220981Y0169960D01*
X0222212Y0169450D01*
X0223545Y0169450D01*
X0224776Y0169960D01*
X0225718Y0170902D01*
X0226228Y0172134D01*
X0226228Y0173466D01*
X0225718Y0174698D01*
X0224776Y0175640D01*
X0224373Y0175807D01*
X0227686Y0177700D01*
X0229241Y0177700D01*
X0229981Y0176960D01*
X0231212Y0176450D01*
X0232545Y0176450D01*
X0233376Y0176794D01*
X0233538Y0176402D01*
X0234481Y0175460D01*
X0235712Y0174950D01*
X0237045Y0174950D01*
X0238276Y0175460D01*
X0239016Y0176200D01*
X0253359Y0176200D01*
X0253435Y0176135D01*
X0254215Y0176200D01*
X0254998Y0176200D01*
X0255069Y0176271D01*
X0255169Y0176279D01*
X0255675Y0176876D01*
X0256228Y0177430D01*
X0256228Y0177530D01*
X0259252Y0181100D01*
X0271378Y0181100D01*
X0271378Y0179337D01*
X0272316Y0178400D01*
X0280041Y0178400D01*
X0280735Y0179094D01*
X0281078Y0178750D01*
X0280560Y0178232D01*
X0280560Y0177504D01*
X0278332Y0177504D01*
X0277133Y0178000D01*
X0275224Y0178000D01*
X0273459Y0177269D01*
X0272109Y0175919D01*
X0271378Y0174155D01*
X0271378Y0173145D01*
X0238347Y0172515D01*
X0238347Y0173175D01*
X0237410Y0174112D01*
X0232147Y0174112D01*
X0231210Y0173175D01*
X0231210Y0172446D01*
X0229555Y0172446D01*
X0223759Y0166650D01*
X0222712Y0166650D01*
X0221481Y0166140D01*
X0220538Y0165198D01*
X0220028Y0163966D01*
X0220028Y0162634D01*
X0220538Y0161402D01*
X0221481Y0160460D01*
X0222712Y0159950D01*
X0224045Y0159950D01*
X0225276Y0160460D01*
X0226218Y0161402D01*
X0226728Y0162634D01*
X0226728Y0163680D01*
X0231210Y0168162D01*
X0231210Y0167518D01*
X0231587Y0167141D01*
X0231370Y0166924D01*
X0231133Y0166514D01*
X0231010Y0166056D01*
X0231010Y0163838D01*
X0234594Y0163838D01*
X0234594Y0163469D01*
X0234963Y0163469D01*
X0234963Y0163838D01*
X0238547Y0163838D01*
X0238547Y0166056D01*
X0238424Y0166514D01*
X0238187Y0166924D01*
X0237970Y0167141D01*
X0238347Y0167518D01*
X0238347Y0168314D01*
X0238667Y0168320D01*
X0238667Y0166384D01*
X0242448Y0166384D01*
X0242448Y0166016D01*
X0238667Y0166016D01*
X0238667Y0163995D01*
X0238789Y0163537D01*
X0239026Y0163126D01*
X0239361Y0162791D01*
X0239772Y0162554D01*
X0240230Y0162431D01*
X0240678Y0162431D01*
X0240278Y0161466D01*
X0240278Y0160134D01*
X0240788Y0158902D01*
X0241528Y0158162D01*
X0241528Y0143430D01*
X0242759Y0142200D01*
X0271397Y0142200D01*
X0272109Y0140481D01*
X0273459Y0139131D01*
X0275224Y0138400D01*
X0277133Y0138400D01*
X0278897Y0139131D01*
X0279278Y0139512D01*
X0279278Y0138930D01*
X0280509Y0137700D01*
X0288896Y0129312D01*
X0288481Y0129140D01*
X0287538Y0128198D01*
X0287028Y0126966D01*
X0287028Y0125634D01*
X0287538Y0124402D01*
X0288481Y0123460D01*
X0289712Y0122950D01*
X0290759Y0122950D01*
X0306509Y0107200D01*
X0307478Y0107200D01*
X0307478Y0106912D01*
X0306947Y0106912D01*
X0306010Y0105975D01*
X0306010Y0105246D01*
X0303676Y0105246D01*
X0303679Y0105956D01*
X0302747Y0106898D01*
X0297484Y0106925D01*
X0296542Y0105993D01*
X0296513Y0100337D01*
X0296888Y0099958D01*
X0296669Y0099742D01*
X0296430Y0099333D01*
X0296305Y0098876D01*
X0296293Y0096658D01*
X0299878Y0096639D01*
X0299876Y0096270D01*
X0300244Y0096268D01*
X0300224Y0092487D01*
X0302246Y0092477D01*
X0302704Y0092597D01*
X0303116Y0092832D01*
X0303453Y0093165D01*
X0303692Y0093574D01*
X0303817Y0094032D01*
X0303828Y0096250D01*
X0300244Y0096268D01*
X0300246Y0096637D01*
X0303830Y0096618D01*
X0303842Y0098836D01*
X0303722Y0099295D01*
X0303487Y0099706D01*
X0303271Y0099925D01*
X0303650Y0100300D01*
X0303654Y0101046D01*
X0306010Y0101046D01*
X0306010Y0100318D01*
X0306387Y0099941D01*
X0306170Y0099724D01*
X0305933Y0099314D01*
X0305810Y0098856D01*
X0305810Y0096638D01*
X0309394Y0096638D01*
X0309394Y0096269D01*
X0305810Y0096269D01*
X0305810Y0094051D01*
X0305933Y0093593D01*
X0306170Y0093183D01*
X0306505Y0092848D01*
X0306915Y0092611D01*
X0307373Y0092488D01*
X0307597Y0092488D01*
X0305509Y0090400D01*
X0304278Y0089170D01*
X0304278Y0045670D01*
X0303478Y0044870D01*
X0303478Y0053463D01*
X0302541Y0054400D01*
X0294248Y0054400D01*
X0285048Y0063600D01*
X0284678Y0063600D01*
X0284678Y0066513D01*
X0283741Y0067450D01*
X0280016Y0067450D01*
X0279378Y0066813D01*
X0278741Y0067450D01*
X0275016Y0067450D01*
X0274378Y0066813D01*
X0273741Y0067450D01*
X0270016Y0067450D01*
X0269378Y0066813D01*
X0268978Y0067213D01*
X0268978Y0068430D01*
X0271248Y0070700D01*
X0289248Y0070700D01*
X0292248Y0073700D01*
X0293478Y0074930D01*
X0293478Y0116530D01*
X0293728Y0117134D01*
X0293728Y0118466D01*
X0293218Y0119698D01*
X0292276Y0120640D01*
X0291045Y0121150D01*
X0289712Y0121150D01*
X0288481Y0120640D01*
X0287538Y0119698D01*
X0287028Y0118466D01*
X0287028Y0117134D01*
X0287538Y0115902D01*
X0288481Y0114960D01*
X0289278Y0114630D01*
X0289278Y0076670D01*
X0287509Y0074900D01*
X0269509Y0074900D01*
X0268278Y0073670D01*
X0264778Y0070170D01*
X0264778Y0067213D01*
X0264078Y0066513D01*
X0264078Y0065043D01*
X0263853Y0065268D01*
X0258197Y0065268D01*
X0257820Y0064892D01*
X0257603Y0065109D01*
X0257192Y0065346D01*
X0256734Y0065468D01*
X0254516Y0065468D01*
X0254516Y0061884D01*
X0254148Y0061884D01*
X0254148Y0061516D01*
X0254516Y0061516D01*
X0254516Y0057931D01*
X0256734Y0057931D01*
X0257192Y0058054D01*
X0257603Y0058291D01*
X0257820Y0058508D01*
X0258197Y0058131D01*
X0263853Y0058131D01*
X0264078Y0058357D01*
X0264078Y0056487D01*
X0265016Y0055550D01*
X0265659Y0055550D01*
X0265509Y0055400D01*
X0264162Y0055400D01*
X0260131Y0051368D01*
X0256937Y0051368D01*
X0253905Y0054400D01*
X0248852Y0054400D01*
X0245278Y0050827D01*
X0245278Y0045773D01*
X0248852Y0042200D01*
X0253905Y0042200D01*
X0256320Y0044615D01*
X0256704Y0044231D01*
X0262360Y0044231D01*
X0262878Y0044750D01*
X0263397Y0044231D01*
X0268278Y0044231D01*
X0268278Y0043137D01*
X0269216Y0042200D01*
X0279541Y0042200D01*
X0280478Y0043137D01*
X0280478Y0053463D01*
X0279541Y0054400D01*
X0278948Y0054400D01*
X0278978Y0054430D01*
X0278978Y0055787D01*
X0279378Y0056187D01*
X0280016Y0055550D01*
X0283741Y0055550D01*
X0284678Y0056487D01*
X0284678Y0058030D01*
X0291278Y0051430D01*
X0291278Y0043137D01*
X0292216Y0042200D01*
X0300809Y0042200D01*
X0300509Y0041900D01*
X0288009Y0041900D01*
X0284509Y0038400D01*
X0286273Y0040164D02*
X0196572Y0040164D01*
X0195946Y0041763D02*
X0287871Y0041763D01*
X0291278Y0043361D02*
X0280478Y0043361D01*
X0280478Y0044960D02*
X0291278Y0044960D01*
X0291278Y0046558D02*
X0280478Y0046558D01*
X0280478Y0048157D02*
X0291278Y0048157D01*
X0291278Y0049755D02*
X0280478Y0049755D01*
X0280478Y0051354D02*
X0291278Y0051354D01*
X0289756Y0052952D02*
X0280478Y0052952D01*
X0278978Y0054551D02*
X0288158Y0054551D01*
X0286559Y0056149D02*
X0284341Y0056149D01*
X0284678Y0057748D02*
X0284961Y0057748D01*
X0289302Y0059346D02*
X0304278Y0059346D01*
X0304278Y0057748D02*
X0290900Y0057748D01*
X0292499Y0056149D02*
X0304278Y0056149D01*
X0304278Y0054551D02*
X0294097Y0054551D01*
X0303478Y0052952D02*
X0304278Y0052952D01*
X0304278Y0051354D02*
X0303478Y0051354D01*
X0303478Y0049755D02*
X0304278Y0049755D01*
X0304278Y0048157D02*
X0303478Y0048157D01*
X0303478Y0046558D02*
X0304278Y0046558D01*
X0303568Y0044960D02*
X0303478Y0044960D01*
X0304278Y0060945D02*
X0287703Y0060945D01*
X0286105Y0062543D02*
X0304278Y0062543D01*
X0304278Y0064142D02*
X0284678Y0064142D01*
X0284678Y0065740D02*
X0304278Y0065740D01*
X0304278Y0067339D02*
X0283852Y0067339D01*
X0279905Y0067339D02*
X0278852Y0067339D01*
X0274905Y0067339D02*
X0273852Y0067339D01*
X0269905Y0067339D02*
X0268978Y0067339D01*
X0269486Y0068937D02*
X0304278Y0068937D01*
X0304278Y0070536D02*
X0271084Y0070536D01*
X0266743Y0072134D02*
X0218154Y0072134D01*
X0218154Y0071387D02*
X0218154Y0080213D01*
X0217216Y0081150D01*
X0208391Y0081150D01*
X0207454Y0080213D01*
X0207454Y0071387D01*
X0208391Y0070450D01*
X0217216Y0070450D01*
X0218154Y0071387D01*
X0217302Y0070536D02*
X0265145Y0070536D01*
X0264778Y0068937D02*
X0174486Y0068937D01*
X0172887Y0067339D02*
X0264778Y0067339D01*
X0264078Y0065740D02*
X0171289Y0065740D01*
X0169690Y0064142D02*
X0250430Y0064142D01*
X0250489Y0064363D02*
X0250367Y0063905D01*
X0250367Y0061884D01*
X0254148Y0061884D01*
X0254148Y0065468D01*
X0251930Y0065468D01*
X0251472Y0065346D01*
X0251061Y0065109D01*
X0250726Y0064774D01*
X0250489Y0064363D01*
X0250367Y0062543D02*
X0168092Y0062543D01*
X0166493Y0060945D02*
X0250367Y0060945D01*
X0250367Y0061516D02*
X0250367Y0059495D01*
X0250489Y0059037D01*
X0250726Y0058626D01*
X0251061Y0058291D01*
X0251472Y0058054D01*
X0251930Y0057931D01*
X0254148Y0057931D01*
X0254148Y0061516D01*
X0250367Y0061516D01*
X0250406Y0059346D02*
X0164895Y0059346D01*
X0163296Y0057748D02*
X0264078Y0057748D01*
X0264416Y0056149D02*
X0161698Y0056149D01*
X0160099Y0054551D02*
X0263313Y0054551D01*
X0261715Y0052952D02*
X0255353Y0052952D01*
X0254516Y0059346D02*
X0254148Y0059346D01*
X0254148Y0060945D02*
X0254516Y0060945D01*
X0254516Y0062543D02*
X0254148Y0062543D01*
X0254148Y0064142D02*
X0254516Y0064142D01*
X0247404Y0052952D02*
X0158501Y0052952D01*
X0156902Y0051354D02*
X0245806Y0051354D01*
X0245278Y0049755D02*
X0155304Y0049755D01*
X0153705Y0048157D02*
X0245278Y0048157D01*
X0245278Y0046558D02*
X0191377Y0046558D01*
X0193558Y0044960D02*
X0246092Y0044960D01*
X0247690Y0043361D02*
X0195023Y0043361D01*
X0180380Y0046558D02*
X0152107Y0046558D01*
X0150508Y0044960D02*
X0178199Y0044960D01*
X0176734Y0043361D02*
X0148910Y0043361D01*
X0149141Y0041868D02*
X0147417Y0041868D01*
X0186998Y0081450D01*
X0188045Y0081450D01*
X0189276Y0081960D01*
X0190218Y0082902D01*
X0190728Y0084134D01*
X0190728Y0085466D01*
X0190218Y0086698D01*
X0189276Y0087640D01*
X0188045Y0088150D01*
X0186712Y0088150D01*
X0185481Y0087640D01*
X0184538Y0086698D01*
X0184028Y0085466D01*
X0184028Y0084420D01*
X0141277Y0041668D01*
X0139804Y0041668D01*
X0138867Y0040731D01*
X0138867Y0040500D01*
X0136641Y0040500D01*
X0135759Y0040135D01*
X0135084Y0039459D01*
X0135036Y0039343D01*
X0134436Y0038743D01*
X0134436Y0032694D01*
X0135373Y0031756D01*
X0138864Y0031756D01*
X0139801Y0032694D01*
X0139801Y0034534D01*
X0139804Y0034531D01*
X0145460Y0034531D01*
X0145837Y0034908D01*
X0146054Y0034691D01*
X0146465Y0034454D01*
X0146923Y0034331D01*
X0149141Y0034331D01*
X0149141Y0037916D01*
X0149509Y0037916D01*
X0149509Y0038284D01*
X0153290Y0038284D01*
X0153290Y0040305D01*
X0153168Y0040763D01*
X0152931Y0041174D01*
X0152595Y0041509D01*
X0152185Y0041746D01*
X0151727Y0041868D01*
X0149509Y0041868D01*
X0149509Y0038284D01*
X0149141Y0038284D01*
X0149141Y0041868D01*
X0149141Y0041763D02*
X0149509Y0041763D01*
X0149509Y0040164D02*
X0149141Y0040164D01*
X0149141Y0038566D02*
X0149509Y0038566D01*
X0149509Y0037916D02*
X0153290Y0037916D01*
X0153290Y0035895D01*
X0153168Y0035437D01*
X0152931Y0035026D01*
X0152595Y0034691D01*
X0152185Y0034454D01*
X0151727Y0034331D01*
X0149509Y0034331D01*
X0149509Y0037916D01*
X0149509Y0036967D02*
X0149141Y0036967D01*
X0149141Y0035369D02*
X0149509Y0035369D01*
X0149744Y0032172D02*
X0175618Y0032172D01*
X0175095Y0033770D02*
X0139801Y0033770D01*
X0139279Y0032172D02*
X0145013Y0032172D01*
X0144073Y0030573D02*
X0132228Y0030573D01*
X0131936Y0032172D02*
X0134958Y0032172D01*
X0134436Y0033770D02*
X0132321Y0033770D01*
X0132321Y0035369D02*
X0134436Y0035369D01*
X0134436Y0036967D02*
X0132321Y0036967D01*
X0132321Y0038566D02*
X0134436Y0038566D01*
X0135831Y0040164D02*
X0125547Y0040164D01*
X0125547Y0038566D02*
X0126956Y0038566D01*
X0126956Y0036967D02*
X0125547Y0036967D01*
X0125547Y0035369D02*
X0126807Y0035369D01*
X0126615Y0033770D02*
X0125547Y0033770D01*
X0125547Y0032172D02*
X0125821Y0032172D01*
X0119162Y0030573D02*
X0114993Y0030573D01*
X0114911Y0030621D02*
X0114453Y0030743D01*
X0111841Y0030743D01*
X0111841Y0026175D01*
X0110292Y0026175D01*
X0110292Y0030743D01*
X0107680Y0030743D01*
X0107222Y0030621D01*
X0106812Y0030384D01*
X0106477Y0030049D01*
X0106240Y0029638D01*
X0106117Y0029180D01*
X0106117Y0026175D01*
X0110292Y0026175D01*
X0110292Y0024625D01*
X0111841Y0024625D01*
X0111841Y0020057D01*
X0114453Y0020057D01*
X0114911Y0020179D01*
X0115321Y0020416D01*
X0115657Y0020751D01*
X0115894Y0021162D01*
X0116016Y0021620D01*
X0116016Y0024625D01*
X0111842Y0024625D01*
X0111842Y0026175D01*
X0116016Y0026175D01*
X0116016Y0029180D01*
X0115894Y0029638D01*
X0115657Y0030049D01*
X0115321Y0030384D01*
X0114911Y0030621D01*
X0116016Y0028975D02*
X0117341Y0028975D01*
X0117341Y0027376D02*
X0116016Y0027376D01*
X0117341Y0025778D02*
X0111842Y0025778D01*
X0110292Y0025778D02*
X0004160Y0025778D01*
X0004159Y0027376D02*
X0106117Y0027376D01*
X0106117Y0028975D02*
X0004157Y0028975D01*
X0004156Y0030573D02*
X0107140Y0030573D01*
X0110292Y0030573D02*
X0111841Y0030573D01*
X0111841Y0028975D02*
X0110292Y0028975D01*
X0110292Y0027376D02*
X0111841Y0027376D01*
X0110292Y0024625D02*
X0106117Y0024625D01*
X0106117Y0021620D01*
X0106240Y0021162D01*
X0106477Y0020751D01*
X0106812Y0020416D01*
X0107222Y0020179D01*
X0107680Y0020057D01*
X0110292Y0020057D01*
X0110292Y0024625D01*
X0110292Y0024179D02*
X0111841Y0024179D01*
X0111841Y0022581D02*
X0110292Y0022581D01*
X0110292Y0020982D02*
X0111841Y0020982D01*
X0115790Y0020982D02*
X0117552Y0020982D01*
X0117341Y0022581D02*
X0116016Y0022581D01*
X0116016Y0024179D02*
X0117341Y0024179D01*
X0126840Y0022581D02*
X0126956Y0022581D01*
X0128659Y0017785D02*
X0133098Y0017785D01*
X0131379Y0016187D02*
X0130378Y0016187D01*
X0133378Y0022581D02*
X0133379Y0022581D01*
X0133378Y0024179D02*
X0133379Y0024179D01*
X0133378Y0025778D02*
X0133379Y0025778D01*
X0133378Y0027376D02*
X0133379Y0027376D01*
X0133378Y0028975D02*
X0133379Y0028975D01*
X0139333Y0028975D02*
X0144094Y0028975D01*
X0144138Y0027376D02*
X0139801Y0027376D01*
X0149692Y0027376D02*
X0179801Y0027376D01*
X0177865Y0028975D02*
X0150663Y0028975D01*
X0150684Y0030573D02*
X0176541Y0030573D01*
X0174678Y0035369D02*
X0153128Y0035369D01*
X0153290Y0036967D02*
X0174678Y0036967D01*
X0174757Y0038566D02*
X0153290Y0038566D01*
X0153290Y0040164D02*
X0175185Y0040164D01*
X0175811Y0041763D02*
X0152122Y0041763D01*
X0146167Y0046558D02*
X0129087Y0046558D01*
X0129228Y0044960D02*
X0144568Y0044960D01*
X0142970Y0043361D02*
X0128427Y0043361D01*
X0125547Y0041763D02*
X0141371Y0041763D01*
X0142632Y0038100D02*
X0137119Y0038100D01*
X0137119Y0035719D01*
X0122318Y0044960D02*
X0004145Y0044960D01*
X0004144Y0046558D02*
X0122670Y0046558D01*
X0123748Y0048157D02*
X0004143Y0048157D01*
X0004141Y0049755D02*
X0149364Y0049755D01*
X0147765Y0048157D02*
X0128009Y0048157D01*
X0118410Y0043361D02*
X0004146Y0043361D01*
X0004148Y0041763D02*
X0118410Y0041763D01*
X0118410Y0040164D02*
X0004149Y0040164D01*
X0004150Y0038566D02*
X0118410Y0038566D01*
X0118410Y0036967D02*
X0004151Y0036967D01*
X0004153Y0035369D02*
X0118410Y0035369D01*
X0118410Y0033770D02*
X0004154Y0033770D01*
X0004155Y0032172D02*
X0118410Y0032172D01*
X0106117Y0024179D02*
X0004161Y0024179D01*
X0004162Y0022581D02*
X0106117Y0022581D01*
X0106343Y0020982D02*
X0004164Y0020982D01*
X0004165Y0019384D02*
X0147325Y0019384D01*
X0152125Y0019384D02*
X0246032Y0019384D01*
X0245278Y0020982D02*
X0153490Y0020982D01*
X0152125Y0017785D02*
X0247778Y0017785D01*
X0247778Y0016187D02*
X0152125Y0016187D01*
X0152125Y0014588D02*
X0247778Y0014588D01*
X0246677Y0012990D02*
X0151467Y0012990D01*
X0151178Y0011391D02*
X0159075Y0011391D01*
X0157280Y0009793D02*
X0151178Y0009793D01*
X0150962Y0051354D02*
X0004140Y0051354D01*
X0004139Y0052952D02*
X0152561Y0052952D01*
X0154159Y0054551D02*
X0004138Y0054551D01*
X0004136Y0056149D02*
X0155758Y0056149D01*
X0157357Y0057748D02*
X0004135Y0057748D01*
X0004134Y0059346D02*
X0158955Y0059346D01*
X0160554Y0060945D02*
X0004133Y0060945D01*
X0004132Y0062543D02*
X0162152Y0062543D01*
X0163751Y0064142D02*
X0004130Y0064142D01*
X0004129Y0065740D02*
X0165349Y0065740D01*
X0166948Y0067339D02*
X0004128Y0067339D01*
X0004127Y0068937D02*
X0168546Y0068937D01*
X0170145Y0070536D02*
X0020452Y0070536D01*
X0020366Y0070450D02*
X0021303Y0071387D01*
X0021303Y0080213D01*
X0020366Y0081150D01*
X0011541Y0081150D01*
X0010603Y0080213D01*
X0010603Y0071387D01*
X0011541Y0070450D01*
X0020366Y0070450D01*
X0021303Y0072134D02*
X0171743Y0072134D01*
X0173342Y0073733D02*
X0021303Y0073733D01*
X0021303Y0075332D02*
X0174940Y0075332D01*
X0176539Y0076930D02*
X0021303Y0076930D01*
X0021303Y0078529D02*
X0178137Y0078529D01*
X0179736Y0080127D02*
X0021303Y0080127D01*
X0010603Y0080127D02*
X0004118Y0080127D01*
X0004119Y0078529D02*
X0010603Y0078529D01*
X0010603Y0076930D02*
X0004120Y0076930D01*
X0004122Y0075332D02*
X0010603Y0075332D01*
X0010603Y0073733D02*
X0004123Y0073733D01*
X0004124Y0072134D02*
X0010603Y0072134D01*
X0011455Y0070536D02*
X0004125Y0070536D01*
X0004117Y0081726D02*
X0181334Y0081726D01*
X0182933Y0083324D02*
X0004115Y0083324D01*
X0004114Y0084923D02*
X0184028Y0084923D01*
X0184465Y0086521D02*
X0004113Y0086521D01*
X0004112Y0088120D02*
X0186639Y0088120D01*
X0188118Y0088120D02*
X0228916Y0088120D01*
X0229004Y0088031D02*
X0234660Y0088031D01*
X0235037Y0088408D01*
X0235254Y0088191D01*
X0235665Y0087954D01*
X0236123Y0087831D01*
X0238341Y0087831D01*
X0238341Y0091416D01*
X0238709Y0091416D01*
X0238709Y0091784D01*
X0242490Y0091784D01*
X0242490Y0093805D01*
X0242368Y0094263D01*
X0242131Y0094674D01*
X0241795Y0095009D01*
X0241385Y0095246D01*
X0240927Y0095368D01*
X0238709Y0095368D01*
X0238709Y0091784D01*
X0238341Y0091784D01*
X0238341Y0095368D01*
X0236123Y0095368D01*
X0235665Y0095246D01*
X0235254Y0095009D01*
X0235037Y0094792D01*
X0234660Y0095168D01*
X0229004Y0095168D01*
X0228067Y0094231D01*
X0228067Y0094000D01*
X0224516Y0094000D01*
X0224076Y0094440D01*
X0222845Y0094950D01*
X0221512Y0094950D01*
X0220281Y0094440D01*
X0219338Y0093498D01*
X0218828Y0092266D01*
X0218828Y0090934D01*
X0219338Y0089702D01*
X0220281Y0088760D01*
X0221512Y0088250D01*
X0222845Y0088250D01*
X0224076Y0088760D01*
X0224516Y0089200D01*
X0228067Y0089200D01*
X0228067Y0088969D01*
X0229004Y0088031D01*
X0231832Y0091600D02*
X0222178Y0091600D01*
X0219097Y0092915D02*
X0004108Y0092915D01*
X0004109Y0091317D02*
X0218828Y0091317D01*
X0219332Y0089718D02*
X0004111Y0089718D01*
X0004107Y0094514D02*
X0220459Y0094514D01*
X0223898Y0094514D02*
X0228349Y0094514D01*
X0234748Y0088120D02*
X0235378Y0088120D01*
X0238341Y0088120D02*
X0238709Y0088120D01*
X0238709Y0087831D02*
X0240927Y0087831D01*
X0241385Y0087954D01*
X0241795Y0088191D01*
X0242131Y0088526D01*
X0242368Y0088937D01*
X0242490Y0089395D01*
X0242490Y0091416D01*
X0238709Y0091416D01*
X0238709Y0087831D01*
X0238709Y0089718D02*
X0238341Y0089718D01*
X0238341Y0091317D02*
X0238709Y0091317D01*
X0238709Y0092915D02*
X0238341Y0092915D01*
X0238341Y0094514D02*
X0238709Y0094514D01*
X0242223Y0094514D02*
X0263255Y0094514D01*
X0263028Y0093966D02*
X0263028Y0092634D01*
X0263538Y0091402D01*
X0264478Y0090462D01*
X0264478Y0087513D01*
X0264078Y0087113D01*
X0264078Y0077087D01*
X0265016Y0076150D01*
X0268741Y0076150D01*
X0269378Y0076787D01*
X0270016Y0076150D01*
X0273741Y0076150D01*
X0274378Y0076787D01*
X0275016Y0076150D01*
X0278741Y0076150D01*
X0279378Y0076787D01*
X0280016Y0076150D01*
X0283741Y0076150D01*
X0284678Y0077087D01*
X0284678Y0087113D01*
X0284278Y0087513D01*
X0284278Y0089462D01*
X0284718Y0089902D01*
X0285228Y0091134D01*
X0285228Y0092466D01*
X0284718Y0093698D01*
X0283776Y0094640D01*
X0282545Y0095150D01*
X0281212Y0095150D01*
X0279981Y0094640D01*
X0279038Y0093698D01*
X0278528Y0092466D01*
X0278528Y0091134D01*
X0279038Y0089902D01*
X0279478Y0089462D01*
X0279478Y0087513D01*
X0279378Y0087413D01*
X0278741Y0088050D01*
X0275016Y0088050D01*
X0274378Y0087413D01*
X0273978Y0087813D01*
X0273978Y0097670D01*
X0253728Y0117920D01*
X0253728Y0118966D01*
X0253218Y0120198D01*
X0252276Y0121140D01*
X0251045Y0121650D01*
X0249712Y0121650D01*
X0248481Y0121140D01*
X0247538Y0120198D01*
X0247028Y0118966D01*
X0247028Y0117634D01*
X0247538Y0116402D01*
X0248481Y0115460D01*
X0249712Y0114950D01*
X0250759Y0114950D01*
X0269778Y0095930D01*
X0269778Y0087813D01*
X0269378Y0087413D01*
X0269278Y0087513D01*
X0269278Y0091547D01*
X0269728Y0092634D01*
X0269728Y0093966D01*
X0269218Y0095198D01*
X0268276Y0096140D01*
X0267045Y0096650D01*
X0265712Y0096650D01*
X0264481Y0096140D01*
X0263538Y0095198D01*
X0263028Y0093966D01*
X0263028Y0092915D02*
X0242490Y0092915D01*
X0242490Y0091317D02*
X0263624Y0091317D01*
X0264478Y0089718D02*
X0242490Y0089718D01*
X0241672Y0088120D02*
X0264478Y0088120D01*
X0264078Y0086521D02*
X0190292Y0086521D01*
X0190728Y0084923D02*
X0264078Y0084923D01*
X0264078Y0083324D02*
X0190393Y0083324D01*
X0188710Y0081726D02*
X0264078Y0081726D01*
X0264078Y0080127D02*
X0218154Y0080127D01*
X0218154Y0078529D02*
X0264078Y0078529D01*
X0264236Y0076930D02*
X0218154Y0076930D01*
X0218154Y0075332D02*
X0287940Y0075332D01*
X0289278Y0076930D02*
X0284521Y0076930D01*
X0284678Y0078529D02*
X0289278Y0078529D01*
X0289278Y0080127D02*
X0284678Y0080127D01*
X0284678Y0081726D02*
X0289278Y0081726D01*
X0289278Y0083324D02*
X0284678Y0083324D01*
X0284678Y0084923D02*
X0289278Y0084923D01*
X0289278Y0086521D02*
X0284678Y0086521D01*
X0284278Y0088120D02*
X0289278Y0088120D01*
X0289278Y0089718D02*
X0284534Y0089718D01*
X0285228Y0091317D02*
X0289278Y0091317D01*
X0289278Y0092915D02*
X0285043Y0092915D01*
X0283902Y0094514D02*
X0289278Y0094514D01*
X0289278Y0096112D02*
X0273978Y0096112D01*
X0273978Y0094514D02*
X0279855Y0094514D01*
X0278714Y0092915D02*
X0273978Y0092915D01*
X0273978Y0091317D02*
X0278528Y0091317D01*
X0279223Y0089718D02*
X0273978Y0089718D01*
X0273978Y0088120D02*
X0279478Y0088120D01*
X0281878Y0091800D02*
X0281878Y0082100D01*
X0293478Y0081726D02*
X0304278Y0081726D01*
X0304278Y0083324D02*
X0293478Y0083324D01*
X0293478Y0084923D02*
X0304278Y0084923D01*
X0304278Y0086521D02*
X0293478Y0086521D01*
X0293478Y0088120D02*
X0304278Y0088120D01*
X0304827Y0089718D02*
X0293478Y0089718D01*
X0293478Y0091317D02*
X0306425Y0091317D01*
X0306437Y0092915D02*
X0303200Y0092915D01*
X0303819Y0094514D02*
X0305810Y0094514D01*
X0305810Y0096112D02*
X0303828Y0096112D01*
X0303836Y0097711D02*
X0305810Y0097711D01*
X0305931Y0099309D02*
X0303713Y0099309D01*
X0303653Y0100908D02*
X0306010Y0100908D01*
X0306010Y0105703D02*
X0303678Y0105703D01*
X0306407Y0107302D02*
X0293478Y0107302D01*
X0293478Y0108900D02*
X0304808Y0108900D01*
X0303210Y0110499D02*
X0293478Y0110499D01*
X0293478Y0112097D02*
X0301611Y0112097D01*
X0300013Y0113696D02*
X0293478Y0113696D01*
X0293478Y0115294D02*
X0298414Y0115294D01*
X0296816Y0116893D02*
X0293629Y0116893D01*
X0293718Y0118491D02*
X0295217Y0118491D01*
X0293619Y0120090D02*
X0292826Y0120090D01*
X0292020Y0121688D02*
X0238083Y0121688D01*
X0238060Y0121712D02*
X0236488Y0121712D01*
X0236213Y0122627D01*
X0236224Y0122810D01*
X0236124Y0122921D01*
X0235939Y0123538D01*
X0235244Y0123911D01*
X0235123Y0124048D01*
X0234974Y0124057D01*
X0234406Y0124362D01*
X0233652Y0124134D01*
X0232794Y0124185D01*
X0232768Y0124248D01*
X0231826Y0125190D01*
X0230595Y0125700D01*
X0229262Y0125700D01*
X0229087Y0125627D01*
X0225373Y0128450D01*
X0241991Y0128450D01*
X0242481Y0127960D01*
X0243712Y0127450D01*
X0245045Y0127450D01*
X0246276Y0127960D01*
X0247218Y0128902D01*
X0247728Y0130134D01*
X0247728Y0131466D01*
X0247218Y0132698D01*
X0246276Y0133640D01*
X0245045Y0134150D01*
X0243712Y0134150D01*
X0242481Y0133640D01*
X0241538Y0132698D01*
X0241519Y0132650D01*
X0237466Y0132650D01*
X0237718Y0132902D01*
X0238228Y0134134D01*
X0238228Y0135466D01*
X0237718Y0136698D01*
X0236776Y0137640D01*
X0235545Y0138150D01*
X0234212Y0138150D01*
X0232981Y0137640D01*
X0232241Y0136900D01*
X0140837Y0136900D01*
X0135728Y0142795D01*
X0135728Y0143466D01*
X0135218Y0144698D01*
X0134276Y0145640D01*
X0133045Y0146150D01*
X0131712Y0146150D01*
X0130481Y0145640D01*
X0129538Y0144698D01*
X0129028Y0143466D01*
X0129028Y0142134D01*
X0129538Y0140902D01*
X0130481Y0139960D01*
X0131712Y0139450D01*
X0133045Y0139450D01*
X0133063Y0139458D01*
X0137778Y0134017D01*
X0137778Y0133930D01*
X0138341Y0133368D01*
X0138861Y0132767D01*
X0138947Y0132761D01*
X0139009Y0132700D01*
X0139804Y0132700D01*
X0140504Y0132650D01*
X0137730Y0132650D01*
X0129852Y0140296D01*
X0129248Y0140900D01*
X0129230Y0140900D01*
X0129217Y0140913D01*
X0128363Y0140900D01*
X0126516Y0140900D01*
X0125776Y0141640D01*
X0124545Y0142150D01*
X0123212Y0142150D01*
X0121981Y0141640D01*
X0121038Y0140698D01*
X0120528Y0139466D01*
X0120528Y0138134D01*
X0121038Y0136902D01*
X0121981Y0135960D01*
X0123212Y0135450D01*
X0124545Y0135450D01*
X0125776Y0135960D01*
X0126516Y0136700D01*
X0127527Y0136700D01*
X0135405Y0129054D01*
X0136009Y0128450D01*
X0136027Y0128450D01*
X0136040Y0128437D01*
X0136894Y0128450D01*
X0192008Y0128450D01*
X0191828Y0128016D01*
X0191828Y0126684D01*
X0192031Y0126195D01*
X0191216Y0125381D01*
X0191216Y0120906D01*
X0192154Y0119969D01*
X0198203Y0119969D01*
X0199141Y0120906D01*
X0199141Y0125215D01*
X0222963Y0125006D01*
X0226578Y0122258D01*
X0226578Y0121684D01*
X0226730Y0121318D01*
X0222154Y0121318D01*
X0221216Y0120381D01*
X0221216Y0116443D01*
X0218965Y0116443D01*
X0218965Y0111875D01*
X0217415Y0111875D01*
X0217415Y0110325D01*
X0213241Y0110325D01*
X0213241Y0107320D01*
X0213363Y0106862D01*
X0213600Y0106451D01*
X0213935Y0106116D01*
X0214346Y0105879D01*
X0214804Y0105757D01*
X0217415Y0105757D01*
X0217415Y0110325D01*
X0218965Y0110325D01*
X0218965Y0105757D01*
X0221577Y0105757D01*
X0222035Y0105879D01*
X0222445Y0106116D01*
X0222780Y0106451D01*
X0223017Y0106862D01*
X0223140Y0107320D01*
X0223140Y0107682D01*
X0225178Y0107682D01*
X0225178Y0111057D01*
X0225178Y0111057D01*
X0221016Y0111057D01*
X0221016Y0111875D01*
X0218965Y0111875D01*
X0218965Y0110325D01*
X0221016Y0110325D01*
X0221016Y0111057D01*
X0225178Y0111057D01*
X0225178Y0114431D01*
X0223140Y0114431D01*
X0223140Y0114880D01*
X0223116Y0114969D01*
X0225525Y0114969D01*
X0225693Y0114800D01*
X0227391Y0114800D01*
X0227759Y0114431D01*
X0225179Y0114431D01*
X0225179Y0111057D01*
X0229341Y0111057D01*
X0229341Y0112868D01*
X0229218Y0113326D01*
X0229047Y0113622D01*
X0229462Y0113450D01*
X0230795Y0113450D01*
X0231706Y0113827D01*
X0231660Y0113656D01*
X0231660Y0111438D01*
X0235244Y0111438D01*
X0235244Y0111069D01*
X0235613Y0111069D01*
X0235613Y0111438D01*
X0239197Y0111438D01*
X0239197Y0113656D01*
X0239074Y0114114D01*
X0238837Y0114524D01*
X0238620Y0114741D01*
X0238997Y0115118D01*
X0238997Y0120775D01*
X0238060Y0121712D01*
X0238997Y0120090D02*
X0247494Y0120090D01*
X0247028Y0118491D02*
X0238997Y0118491D01*
X0238997Y0116893D02*
X0247335Y0116893D01*
X0248881Y0115294D02*
X0238997Y0115294D01*
X0239186Y0113696D02*
X0252013Y0113696D01*
X0253611Y0112097D02*
X0239197Y0112097D01*
X0240178Y0111800D02*
X0248378Y0105800D01*
X0242378Y0105800D02*
X0234178Y0111800D01*
X0235428Y0111254D01*
X0235244Y0111069D02*
X0235244Y0107288D01*
X0233223Y0107288D01*
X0232765Y0107411D01*
X0232355Y0107648D01*
X0232020Y0107983D01*
X0231783Y0108393D01*
X0231660Y0108851D01*
X0231660Y0111069D01*
X0235244Y0111069D01*
X0235613Y0111069D02*
X0235613Y0107288D01*
X0237634Y0107288D01*
X0238092Y0107411D01*
X0238502Y0107648D01*
X0238837Y0107983D01*
X0239074Y0108393D01*
X0239197Y0108851D01*
X0239197Y0111069D01*
X0235613Y0111069D01*
X0235613Y0110499D02*
X0235244Y0110499D01*
X0235244Y0108900D02*
X0235613Y0108900D01*
X0235613Y0107302D02*
X0235244Y0107302D01*
X0233172Y0107302D02*
X0223135Y0107302D01*
X0225179Y0107682D02*
X0227778Y0107682D01*
X0228235Y0107805D01*
X0228646Y0108042D01*
X0228981Y0108377D01*
X0229218Y0108787D01*
X0229341Y0109245D01*
X0229341Y0111057D01*
X0225179Y0111057D01*
X0225179Y0111057D01*
X0225178Y0111057D01*
X0225179Y0111057D01*
X0225179Y0107682D01*
X0225178Y0108900D02*
X0225179Y0108900D01*
X0225178Y0110499D02*
X0225179Y0110499D01*
X0225178Y0112097D02*
X0225179Y0112097D01*
X0225178Y0113696D02*
X0225179Y0113696D01*
X0229341Y0112097D02*
X0231660Y0112097D01*
X0231660Y0110499D02*
X0229341Y0110499D01*
X0229248Y0108900D02*
X0231660Y0108900D01*
X0237685Y0107302D02*
X0258407Y0107302D01*
X0256808Y0108900D02*
X0239197Y0108900D01*
X0239197Y0110499D02*
X0255210Y0110499D01*
X0257952Y0113696D02*
X0289278Y0113696D01*
X0289278Y0112097D02*
X0259551Y0112097D01*
X0261150Y0110499D02*
X0289278Y0110499D01*
X0289278Y0108900D02*
X0262748Y0108900D01*
X0264347Y0107302D02*
X0289278Y0107302D01*
X0289278Y0105703D02*
X0265945Y0105703D01*
X0267544Y0104105D02*
X0289278Y0104105D01*
X0289278Y0102506D02*
X0269142Y0102506D01*
X0270741Y0100908D02*
X0289278Y0100908D01*
X0289278Y0099309D02*
X0272339Y0099309D01*
X0273938Y0097711D02*
X0289278Y0097711D01*
X0293478Y0097711D02*
X0296299Y0097711D01*
X0296292Y0096289D02*
X0296280Y0094071D01*
X0296400Y0093613D01*
X0296635Y0093201D01*
X0296968Y0092864D01*
X0297378Y0092625D01*
X0297835Y0092500D01*
X0299856Y0092489D01*
X0299876Y0096270D01*
X0296292Y0096289D01*
X0296291Y0096112D02*
X0293478Y0096112D01*
X0293478Y0094514D02*
X0296282Y0094514D01*
X0296918Y0092915D02*
X0293478Y0092915D01*
X0299858Y0092915D02*
X0300227Y0092915D01*
X0300235Y0094514D02*
X0299867Y0094514D01*
X0299875Y0096112D02*
X0300243Y0096112D01*
X0296424Y0099309D02*
X0293478Y0099309D01*
X0293478Y0100908D02*
X0296516Y0100908D01*
X0296524Y0102506D02*
X0293478Y0102506D01*
X0293478Y0104105D02*
X0296532Y0104105D01*
X0296541Y0105703D02*
X0293478Y0105703D01*
X0288147Y0115294D02*
X0256354Y0115294D01*
X0254755Y0116893D02*
X0287128Y0116893D01*
X0287039Y0118491D02*
X0253728Y0118491D01*
X0253263Y0120090D02*
X0287931Y0120090D01*
X0288899Y0123287D02*
X0236014Y0123287D01*
X0232131Y0124885D02*
X0287338Y0124885D01*
X0287028Y0126484D02*
X0227960Y0126484D01*
X0225856Y0128082D02*
X0242358Y0128082D01*
X0246398Y0128082D02*
X0287491Y0128082D01*
X0288528Y0129681D02*
X0247541Y0129681D01*
X0247728Y0131279D02*
X0286929Y0131279D01*
X0285331Y0132878D02*
X0247038Y0132878D01*
X0241719Y0132878D02*
X0237694Y0132878D01*
X0238228Y0134476D02*
X0283732Y0134476D01*
X0282134Y0136075D02*
X0237976Y0136075D01*
X0236695Y0137673D02*
X0280535Y0137673D01*
X0279278Y0139272D02*
X0279039Y0139272D01*
X0283478Y0140670D02*
X0283478Y0145412D01*
X0284218Y0146152D01*
X0284728Y0147384D01*
X0284728Y0148716D01*
X0284218Y0149948D01*
X0283276Y0150890D01*
X0282045Y0151400D01*
X0280712Y0151400D01*
X0280611Y0151358D01*
X0280978Y0152245D01*
X0280978Y0154155D01*
X0280248Y0155919D01*
X0279885Y0156282D01*
X0282087Y0156296D01*
X0285516Y0154173D01*
X0285516Y0149919D01*
X0286454Y0148982D01*
X0288747Y0148982D01*
X0288770Y0148948D01*
X0288959Y0148825D01*
X0289119Y0148665D01*
X0289356Y0148567D01*
X0289570Y0148428D01*
X0289792Y0148386D01*
X0290001Y0148300D01*
X0290257Y0148300D01*
X0290509Y0148253D01*
X0290730Y0148300D01*
X0292783Y0148300D01*
X0292488Y0148005D01*
X0292251Y0147595D01*
X0292128Y0147137D01*
X0292128Y0145700D01*
X0298278Y0145700D01*
X0292128Y0145700D01*
X0292128Y0144263D01*
X0292251Y0143805D01*
X0292488Y0143395D01*
X0292823Y0143060D01*
X0293234Y0142823D01*
X0293691Y0142700D01*
X0298278Y0142700D01*
X0298278Y0145700D01*
X0298278Y0145700D01*
X0298279Y0145700D01*
X0298279Y0142700D01*
X0302865Y0142700D01*
X0303323Y0142823D01*
X0303734Y0143060D01*
X0304069Y0143395D01*
X0304278Y0143758D01*
X0304278Y0141170D01*
X0297259Y0134150D01*
X0296212Y0134150D01*
X0294981Y0133640D01*
X0294038Y0132698D01*
X0293528Y0131466D01*
X0293528Y0130620D01*
X0283478Y0140670D01*
X0283478Y0140870D02*
X0303979Y0140870D01*
X0304278Y0142469D02*
X0283478Y0142469D01*
X0283478Y0144068D02*
X0292181Y0144068D01*
X0292128Y0145666D02*
X0283732Y0145666D01*
X0284679Y0147265D02*
X0292163Y0147265D01*
X0288901Y0148863D02*
X0284668Y0148863D01*
X0285516Y0150462D02*
X0283705Y0150462D01*
X0285516Y0152060D02*
X0280902Y0152060D01*
X0280978Y0153659D02*
X0285516Y0153659D01*
X0283766Y0155257D02*
X0280522Y0155257D01*
X0283985Y0160061D02*
X0283535Y0160506D01*
X0283270Y0160504D01*
X0283044Y0160643D01*
X0282428Y0160498D01*
X0280386Y0160485D01*
X0280455Y0160579D01*
X0280812Y0161281D01*
X0281055Y0162029D01*
X0281178Y0162806D01*
X0281178Y0163000D01*
X0276379Y0163000D01*
X0276379Y0163400D01*
X0281178Y0163400D01*
X0281178Y0163594D01*
X0281055Y0164371D01*
X0280812Y0165119D01*
X0280455Y0165821D01*
X0280179Y0166200D01*
X0280509Y0166200D01*
X0281009Y0165700D01*
X0285509Y0165700D01*
X0285528Y0165680D01*
X0285528Y0164634D01*
X0286038Y0163402D01*
X0286835Y0162606D01*
X0286421Y0162495D01*
X0286011Y0162258D01*
X0285676Y0161923D01*
X0285439Y0161513D01*
X0285316Y0161055D01*
X0285316Y0159243D01*
X0285316Y0159237D01*
X0283985Y0160061D01*
X0283999Y0160053D02*
X0285316Y0160053D01*
X0285316Y0159243D02*
X0289478Y0159243D01*
X0285316Y0159243D01*
X0285519Y0161651D02*
X0280932Y0161651D01*
X0280900Y0164848D02*
X0285528Y0164848D01*
X0286191Y0163250D02*
X0276379Y0163250D01*
X0276278Y0163300D02*
X0276178Y0163200D01*
X0275978Y0163250D02*
X0256018Y0163250D01*
X0256526Y0163460D02*
X0257468Y0164402D01*
X0257978Y0165634D01*
X0257978Y0166966D01*
X0257468Y0168198D01*
X0256996Y0168670D01*
X0268054Y0168881D01*
X0267778Y0168216D01*
X0267778Y0166884D01*
X0268288Y0165652D01*
X0269231Y0164710D01*
X0270462Y0164200D01*
X0271275Y0164200D01*
X0271178Y0163594D01*
X0271178Y0163400D01*
X0275978Y0163400D01*
X0275978Y0163000D01*
X0271178Y0163000D01*
X0271178Y0162806D01*
X0271302Y0162029D01*
X0271545Y0161281D01*
X0271902Y0160579D01*
X0272011Y0160430D01*
X0254799Y0160317D01*
X0254076Y0161040D01*
X0252845Y0161550D01*
X0251512Y0161550D01*
X0250281Y0161040D01*
X0249338Y0160098D01*
X0248828Y0158866D01*
X0248828Y0157534D01*
X0248933Y0157282D01*
X0248045Y0157650D01*
X0246712Y0157650D01*
X0245728Y0157243D01*
X0245728Y0158162D01*
X0246468Y0158902D01*
X0246978Y0160134D01*
X0246978Y0161466D01*
X0246495Y0162633D01*
X0246497Y0162631D01*
X0252153Y0162631D01*
X0252908Y0163387D01*
X0253962Y0162950D01*
X0255295Y0162950D01*
X0256526Y0163460D01*
X0257653Y0164848D02*
X0269093Y0164848D01*
X0267959Y0166447D02*
X0257978Y0166447D01*
X0257532Y0168045D02*
X0267778Y0168045D01*
X0266378Y0163300D02*
X0265978Y0163200D01*
X0271424Y0161651D02*
X0246902Y0161651D01*
X0246945Y0160053D02*
X0249320Y0160053D01*
X0248828Y0158454D02*
X0246020Y0158454D01*
X0241528Y0156856D02*
X0203455Y0156856D01*
X0205085Y0158454D02*
X0241237Y0158454D01*
X0240312Y0160053D02*
X0237857Y0160053D01*
X0237852Y0160048D02*
X0238187Y0160383D01*
X0238424Y0160793D01*
X0238547Y0161251D01*
X0238547Y0163469D01*
X0234963Y0163469D01*
X0234963Y0159688D01*
X0236984Y0159688D01*
X0237442Y0159811D01*
X0237852Y0160048D01*
X0238547Y0161651D02*
X0240355Y0161651D01*
X0238955Y0163250D02*
X0238547Y0163250D01*
X0238547Y0164848D02*
X0238667Y0164848D01*
X0238667Y0166447D02*
X0238442Y0166447D01*
X0238347Y0168045D02*
X0238667Y0168045D01*
X0242816Y0166384D02*
X0245560Y0166384D01*
X0245560Y0166016D01*
X0242816Y0166016D01*
X0242816Y0166384D01*
X0238347Y0172841D02*
X0255416Y0172841D01*
X0256318Y0177636D02*
X0274346Y0177636D01*
X0272228Y0176038D02*
X0238854Y0176038D01*
X0238583Y0180833D02*
X0253522Y0180833D01*
X0254876Y0182432D02*
X0233984Y0182432D01*
X0229773Y0182432D02*
X0204978Y0182432D01*
X0204978Y0184030D02*
X0256178Y0184030D01*
X0259026Y0180833D02*
X0271378Y0180833D01*
X0271481Y0179235D02*
X0257672Y0179235D01*
X0271496Y0174439D02*
X0225825Y0174439D01*
X0226228Y0172841D02*
X0231210Y0172841D01*
X0228351Y0171242D02*
X0225859Y0171242D01*
X0226752Y0169644D02*
X0224012Y0169644D01*
X0225154Y0168045D02*
X0212071Y0168045D01*
X0212928Y0166447D02*
X0222221Y0166447D01*
X0220394Y0164848D02*
X0212810Y0164848D01*
X0211766Y0163250D02*
X0220028Y0163250D01*
X0220435Y0161651D02*
X0208346Y0161651D01*
X0206716Y0160053D02*
X0222464Y0160053D01*
X0224293Y0160053D02*
X0231700Y0160053D01*
X0231705Y0160048D02*
X0232115Y0159811D01*
X0232573Y0159688D01*
X0234594Y0159688D01*
X0234594Y0163469D01*
X0231010Y0163469D01*
X0231010Y0161251D01*
X0231133Y0160793D01*
X0231370Y0160383D01*
X0231705Y0160048D01*
X0231010Y0161651D02*
X0226321Y0161651D01*
X0226728Y0163250D02*
X0231010Y0163250D01*
X0231010Y0164848D02*
X0227896Y0164848D01*
X0228378Y0163654D02*
X0228378Y0159800D01*
X0234594Y0160053D02*
X0234963Y0160053D01*
X0234963Y0161651D02*
X0234594Y0161651D01*
X0234594Y0163250D02*
X0234963Y0163250D01*
X0234778Y0163654D02*
X0228378Y0163654D01*
X0229495Y0166447D02*
X0231115Y0166447D01*
X0231093Y0168045D02*
X0231210Y0168045D01*
X0221744Y0169644D02*
X0209928Y0169644D01*
X0203328Y0176038D02*
X0202256Y0176038D01*
X0202436Y0177636D02*
X0203817Y0177636D01*
X0204642Y0179235D02*
X0221907Y0179235D01*
X0224704Y0180833D02*
X0205050Y0180833D01*
X0203769Y0185629D02*
X0271378Y0185629D01*
X0271543Y0187227D02*
X0202096Y0187227D01*
X0200442Y0188826D02*
X0304679Y0188826D01*
X0305210Y0187227D02*
X0280814Y0187227D01*
X0280978Y0185629D02*
X0281264Y0185629D01*
X0286993Y0185629D02*
X0305310Y0185629D01*
X0305410Y0184030D02*
X0287697Y0184030D01*
X0287697Y0182432D02*
X0305510Y0182432D01*
X0305578Y0180833D02*
X0287697Y0180833D01*
X0287663Y0179235D02*
X0305578Y0179235D01*
X0305578Y0177636D02*
X0287697Y0177636D01*
X0287697Y0176038D02*
X0305578Y0176038D01*
X0305578Y0174439D02*
X0288063Y0174439D01*
X0289661Y0172841D02*
X0293076Y0172841D01*
X0292851Y0171242D02*
X0291260Y0171242D01*
X0295870Y0166631D02*
X0299660Y0166631D01*
X0300037Y0167008D01*
X0300254Y0166791D01*
X0300665Y0166554D01*
X0301123Y0166431D01*
X0303341Y0166431D01*
X0303341Y0170016D01*
X0303709Y0170016D01*
X0303709Y0166431D01*
X0305578Y0166431D01*
X0305578Y0162800D01*
X0304109Y0162800D01*
X0303991Y0162800D01*
X0303291Y0163500D01*
X0299395Y0163500D01*
X0299148Y0163746D01*
X0298755Y0163746D01*
X0295870Y0166631D01*
X0296055Y0166447D02*
X0301066Y0166447D01*
X0303341Y0166447D02*
X0303709Y0166447D01*
X0303709Y0168045D02*
X0303341Y0168045D01*
X0303341Y0169644D02*
X0303709Y0169644D01*
X0303709Y0171242D02*
X0303341Y0171242D01*
X0303341Y0172841D02*
X0303709Y0172841D01*
X0305578Y0164848D02*
X0297654Y0164848D01*
X0303542Y0163250D02*
X0305578Y0163250D01*
X0289478Y0159243D02*
X0289478Y0159243D01*
X0289478Y0152157D02*
X0290478Y0150700D01*
X0298278Y0150700D01*
X0298278Y0145666D02*
X0298279Y0145666D01*
X0298278Y0144068D02*
X0298279Y0144068D01*
X0302381Y0139272D02*
X0284876Y0139272D01*
X0286475Y0137673D02*
X0300782Y0137673D01*
X0299184Y0136075D02*
X0288073Y0136075D01*
X0289672Y0134476D02*
X0297585Y0134476D01*
X0294219Y0132878D02*
X0291270Y0132878D01*
X0292869Y0131279D02*
X0293528Y0131279D01*
X0273318Y0139272D02*
X0138782Y0139272D01*
X0140167Y0137673D02*
X0233062Y0137673D01*
X0241528Y0144068D02*
X0205728Y0144068D01*
X0205728Y0144466D02*
X0205728Y0143134D01*
X0205218Y0141902D01*
X0204276Y0140960D01*
X0203045Y0140450D01*
X0201712Y0140450D01*
X0200481Y0140960D01*
X0199741Y0141700D01*
X0176016Y0141700D01*
X0175276Y0140960D01*
X0174045Y0140450D01*
X0172712Y0140450D01*
X0171481Y0140960D01*
X0170538Y0141902D01*
X0170028Y0143134D01*
X0170028Y0144466D01*
X0170538Y0145698D01*
X0171481Y0146640D01*
X0172712Y0147150D01*
X0174045Y0147150D01*
X0175276Y0146640D01*
X0176016Y0145900D01*
X0199741Y0145900D01*
X0200481Y0146640D01*
X0201712Y0147150D01*
X0203045Y0147150D01*
X0204276Y0146640D01*
X0205218Y0145698D01*
X0205728Y0144466D01*
X0205232Y0145666D02*
X0241528Y0145666D01*
X0241528Y0147265D02*
X0226581Y0147265D01*
X0226276Y0146960D02*
X0227218Y0147902D01*
X0227728Y0149134D01*
X0227728Y0150466D01*
X0227218Y0151698D01*
X0226276Y0152640D01*
X0225045Y0153150D01*
X0223712Y0153150D01*
X0222481Y0152640D01*
X0221741Y0151900D01*
X0148509Y0151900D01*
X0145509Y0148900D01*
X0143016Y0148900D01*
X0142276Y0149640D01*
X0141045Y0150150D01*
X0139712Y0150150D01*
X0138481Y0149640D01*
X0137538Y0148698D01*
X0137028Y0147466D01*
X0137028Y0146134D01*
X0137538Y0144902D01*
X0138481Y0143960D01*
X0139712Y0143450D01*
X0141045Y0143450D01*
X0142276Y0143960D01*
X0143016Y0144700D01*
X0147248Y0144700D01*
X0150248Y0147700D01*
X0221741Y0147700D01*
X0222481Y0146960D01*
X0223712Y0146450D01*
X0225045Y0146450D01*
X0226276Y0146960D01*
X0227616Y0148863D02*
X0241528Y0148863D01*
X0241528Y0150462D02*
X0227728Y0150462D01*
X0226856Y0152060D02*
X0241528Y0152060D01*
X0241528Y0153659D02*
X0121102Y0153659D01*
X0122938Y0155257D02*
X0167952Y0155257D01*
X0167297Y0156856D02*
X0124774Y0156856D01*
X0126610Y0158454D02*
X0167297Y0158454D01*
X0167297Y0160053D02*
X0128446Y0160053D01*
X0130282Y0161651D02*
X0155239Y0161651D01*
X0153828Y0163250D02*
X0132118Y0163250D01*
X0133476Y0164431D02*
X0137153Y0164431D01*
X0138090Y0165369D01*
X0138090Y0170631D01*
X0137153Y0171568D01*
X0136425Y0171568D01*
X0136425Y0171888D01*
X0137610Y0171888D01*
X0138547Y0172825D01*
X0138547Y0178482D01*
X0138029Y0179000D01*
X0138547Y0179518D01*
X0138547Y0185175D01*
X0137610Y0186112D01*
X0132833Y0186112D01*
X0133697Y0186975D01*
X0133697Y0187400D01*
X0133841Y0187400D01*
X0134581Y0186660D01*
X0135812Y0186150D01*
X0137145Y0186150D01*
X0138376Y0186660D01*
X0139318Y0187602D01*
X0139828Y0188834D01*
X0139828Y0190166D01*
X0139318Y0191398D01*
X0138376Y0192340D01*
X0137145Y0192850D01*
X0135812Y0192850D01*
X0134581Y0192340D01*
X0133841Y0191600D01*
X0133697Y0191600D01*
X0133697Y0193025D01*
X0132759Y0193962D01*
X0129078Y0193962D01*
X0129078Y0194298D01*
X0129216Y0194298D01*
X0130153Y0195235D01*
X0130153Y0200104D01*
X0129216Y0201041D01*
X0129078Y0201041D01*
X0129078Y0202565D01*
X0132956Y0202565D01*
X0133893Y0203503D01*
X0133893Y0207945D01*
X0136377Y0210428D01*
X0136888Y0210428D01*
X0138568Y0211124D01*
X0139854Y0212410D01*
X0140550Y0214091D01*
X0140550Y0215909D01*
X0139854Y0217590D01*
X0138568Y0218876D01*
X0136888Y0219572D01*
X0136520Y0219572D01*
X0144078Y0227130D01*
X0144078Y0231870D01*
X0142848Y0233100D01*
X0128848Y0247100D01*
X0116845Y0247100D01*
X0116472Y0248002D01*
X0114981Y0249493D01*
X0113033Y0250300D01*
X0110924Y0250300D01*
X0108976Y0249493D01*
X0107485Y0248002D01*
X0107186Y0247278D01*
X0106472Y0249002D01*
X0104981Y0250493D01*
X0103033Y0251300D01*
X0100924Y0251300D01*
X0098976Y0250493D01*
X0097485Y0249002D01*
X0096771Y0247278D01*
X0096472Y0248002D01*
X0094981Y0249493D01*
X0093033Y0250300D01*
X0090924Y0250300D01*
X0088976Y0249493D01*
X0087485Y0248002D01*
X0087186Y0247278D01*
X0086472Y0249002D01*
X0084981Y0250493D01*
X0083033Y0251300D01*
X0080924Y0251300D01*
X0078976Y0250493D01*
X0077485Y0249002D01*
X0076771Y0247278D01*
X0076472Y0248002D01*
X0074981Y0249493D01*
X0073033Y0250300D01*
X0070924Y0250300D01*
X0068976Y0249493D01*
X0067485Y0248002D01*
X0067186Y0247278D01*
X0066472Y0249002D01*
X0064981Y0250493D01*
X0063033Y0251300D01*
X0060924Y0251300D01*
X0058976Y0250493D01*
X0057485Y0249002D01*
X0056771Y0247278D01*
X0056472Y0248002D01*
X0054981Y0249493D01*
X0053033Y0250300D01*
X0050924Y0250300D01*
X0048976Y0249493D01*
X0047485Y0248002D01*
X0047276Y0247496D01*
X0047075Y0248111D01*
X0046682Y0248883D01*
X0046174Y0249583D01*
X0045561Y0250195D01*
X0044861Y0250704D01*
X0044090Y0251097D01*
X0043266Y0251365D01*
X0042411Y0251500D01*
X0042178Y0251500D01*
X0042178Y0246200D01*
X0041778Y0246200D01*
X0041778Y0245800D01*
X0036478Y0245800D01*
X0036478Y0245567D01*
X0036614Y0244712D01*
X0036881Y0243889D01*
X0037274Y0243117D01*
X0037783Y0242417D01*
X0038395Y0241805D01*
X0039096Y0241296D01*
X0039867Y0240903D01*
X0040691Y0240635D01*
X0041546Y0240500D01*
X0041778Y0240500D01*
X0041778Y0245800D01*
X0042178Y0245800D01*
X0042178Y0240500D01*
X0042411Y0240500D01*
X0043266Y0240635D01*
X0044090Y0240903D01*
X0044861Y0241296D01*
X0044931Y0241347D01*
X0043944Y0240359D01*
X0043894Y0240239D01*
X0043628Y0239973D01*
X0043628Y0239598D01*
X0043578Y0239477D01*
X0043578Y0238523D01*
X0043628Y0238402D01*
X0043628Y0233739D01*
X0043389Y0233639D01*
X0042103Y0232353D01*
X0041407Y0230673D01*
X0041407Y0228854D01*
X0041610Y0228365D01*
X0039345Y0226100D01*
X0031054Y0226100D01*
X0031087Y0226124D01*
X0031618Y0226655D01*
X0032060Y0227263D01*
X0032401Y0227932D01*
X0032633Y0228646D01*
X0032750Y0229388D01*
X0032750Y0229678D01*
X0028064Y0229678D01*
X0028064Y0229850D01*
X0027893Y0229850D01*
X0027893Y0234535D01*
X0027603Y0234535D01*
X0026861Y0234418D01*
X0026147Y0234186D01*
X0025478Y0233845D01*
X0024870Y0233403D01*
X0024339Y0232872D01*
X0023897Y0232265D01*
X0023556Y0231595D01*
X0023324Y0230881D01*
X0023207Y0230139D01*
X0023207Y0229850D01*
X0027893Y0229850D01*
X0027893Y0229678D01*
X0023207Y0229678D01*
X0023207Y0229388D01*
X0023324Y0228646D01*
X0023556Y0227932D01*
X0023897Y0227263D01*
X0024339Y0226655D01*
X0024870Y0226124D01*
X0024903Y0226100D01*
X0023109Y0226100D01*
X0021878Y0224870D01*
X0016878Y0219870D01*
X0016878Y0209309D01*
X0013001Y0209309D01*
X0012063Y0208371D01*
X0012063Y0203503D01*
X0013001Y0202565D01*
X0013515Y0202565D01*
X0013530Y0202438D01*
X0013397Y0193962D01*
X0013198Y0193962D01*
X0012260Y0193025D01*
X0012260Y0186975D01*
X0013198Y0186038D01*
X0016273Y0186038D01*
X0015410Y0185175D01*
X0015410Y0179518D01*
X0015928Y0179000D01*
X0015410Y0178482D01*
X0015410Y0172825D01*
X0016347Y0171888D01*
X0021610Y0171888D01*
X0021622Y0171900D01*
X0022263Y0171900D01*
X0022225Y0171768D01*
X0020816Y0171768D01*
X0020816Y0168184D01*
X0020448Y0168184D01*
X0020448Y0167816D01*
X0020816Y0167816D01*
X0020816Y0164231D01*
X0023034Y0164231D01*
X0023492Y0164354D01*
X0023903Y0164591D01*
X0024120Y0164808D01*
X0024497Y0164431D01*
X0030153Y0164431D01*
X0031090Y0165369D01*
X0031090Y0165900D01*
X0031867Y0165900D01*
X0031867Y0165369D01*
X0032804Y0164431D01*
X0033532Y0164431D01*
X0033532Y0164041D01*
X0033427Y0163900D01*
X0033519Y0163278D01*
X0033138Y0162898D01*
X0033045Y0162671D01*
X0032876Y0162840D01*
X0031645Y0163350D01*
X0030312Y0163350D01*
X0029081Y0162840D01*
X0028138Y0161898D01*
X0027628Y0160666D01*
X0027628Y0159334D01*
X0028138Y0158102D01*
X0029081Y0157160D01*
X0029538Y0156971D01*
X0030378Y0156130D01*
X0031609Y0154900D01*
X0050609Y0154900D01*
X0058378Y0147130D01*
X0058378Y0117463D01*
X0058081Y0117340D01*
X0057138Y0116398D01*
X0056628Y0115166D01*
X0056628Y0113834D01*
X0057138Y0112602D01*
X0058081Y0111660D01*
X0059312Y0111150D01*
X0060645Y0111150D01*
X0061876Y0111660D01*
X0062818Y0112602D01*
X0063328Y0113834D01*
X0063328Y0115166D01*
X0062818Y0116398D01*
X0062578Y0116638D01*
X0062578Y0148870D01*
X0061348Y0150100D01*
X0052348Y0159100D01*
X0038816Y0159100D01*
X0038818Y0159102D01*
X0039328Y0160334D01*
X0039328Y0161666D01*
X0038818Y0162898D01*
X0037876Y0163840D01*
X0037732Y0163900D01*
X0037732Y0164431D01*
X0038460Y0164431D01*
X0038978Y0164950D01*
X0039497Y0164431D01*
X0045153Y0164431D01*
X0046090Y0165369D01*
X0046090Y0165900D01*
X0048867Y0165900D01*
X0048867Y0165369D01*
X0049804Y0164431D01*
X0049945Y0164431D01*
X0049628Y0163666D01*
X0049628Y0162334D01*
X0050138Y0161102D01*
X0051081Y0160160D01*
X0052312Y0159650D01*
X0053645Y0159650D01*
X0054876Y0160160D01*
X0055818Y0161102D01*
X0056328Y0162334D01*
X0056328Y0163666D01*
X0055850Y0164821D01*
X0055978Y0164950D01*
X0056497Y0164431D01*
X0062153Y0164431D01*
X0062478Y0164757D01*
X0062804Y0164431D01*
X0063532Y0164431D01*
X0063532Y0156977D01*
X0064762Y0155746D01*
X0065128Y0155380D01*
X0065128Y0154334D01*
X0065638Y0153102D01*
X0066581Y0152160D01*
X0067812Y0151650D01*
X0069145Y0151650D01*
X0070376Y0152160D01*
X0071318Y0153102D01*
X0071828Y0154334D01*
X0071828Y0155666D01*
X0071318Y0156898D01*
X0070376Y0157840D01*
X0069145Y0158350D01*
X0068098Y0158350D01*
X0067732Y0158716D01*
X0067732Y0164431D01*
X0068460Y0164431D01*
X0068978Y0164950D01*
X0069497Y0164431D01*
X0075153Y0164431D01*
X0075478Y0164757D01*
X0075804Y0164431D01*
X0078878Y0164431D01*
X0078878Y0154138D01*
X0078138Y0153398D01*
X0077628Y0152166D01*
X0077628Y0150834D01*
X0078138Y0149602D01*
X0079081Y0148660D01*
X0080312Y0148150D01*
X0081645Y0148150D01*
X0082876Y0148660D01*
X0083818Y0149602D01*
X0084328Y0150834D01*
X0084328Y0152166D01*
X0083818Y0153398D01*
X0083078Y0154138D01*
X0083078Y0164431D01*
X0088153Y0164431D01*
X0089090Y0165369D01*
X0089090Y0168795D01*
X0091978Y0171684D01*
X0092449Y0171213D01*
X0091867Y0170631D01*
X0091867Y0165369D01*
X0092804Y0164431D01*
X0093878Y0164431D01*
X0093878Y0163638D01*
X0093138Y0162898D01*
X0092628Y0161666D01*
X0092628Y0160334D01*
X0093138Y0159102D01*
X0094081Y0158160D01*
X0095312Y0157650D01*
X0096645Y0157650D01*
X0097876Y0158160D01*
X0098818Y0159102D01*
X0099328Y0160334D01*
X0099328Y0161666D01*
X0098818Y0162898D01*
X0098078Y0163638D01*
X0098078Y0164431D01*
X0098460Y0164431D01*
X0098978Y0164950D01*
X0099497Y0164431D01*
X0101102Y0164431D01*
X0101180Y0163439D01*
X0100638Y0162898D01*
X0100128Y0161666D01*
X0100128Y0160334D01*
X0100638Y0159102D01*
X0101581Y0158160D01*
X0102812Y0157650D01*
X0104145Y0157650D01*
X0105376Y0158160D01*
X0106318Y0159102D01*
X0106828Y0160334D01*
X0106828Y0161666D01*
X0106318Y0162898D01*
X0105376Y0163840D01*
X0105361Y0163846D01*
X0105303Y0164581D01*
X0105978Y0165257D01*
X0106804Y0164431D01*
X0112460Y0164431D01*
X0112978Y0164950D01*
X0113107Y0164821D01*
X0112628Y0163666D01*
X0112628Y0162334D01*
X0113138Y0161102D01*
X0114081Y0160160D01*
X0115312Y0159650D01*
X0116645Y0159650D01*
X0117876Y0160160D01*
X0118818Y0161102D01*
X0119328Y0162334D01*
X0119328Y0163666D01*
X0119012Y0164431D01*
X0119153Y0164431D01*
X0120090Y0165369D01*
X0120090Y0165900D01*
X0123867Y0165900D01*
X0123867Y0165369D01*
X0124804Y0164431D01*
X0127079Y0164431D01*
X0112628Y0151850D01*
X0111312Y0151850D01*
X0110081Y0151340D01*
X0109138Y0150398D01*
X0108628Y0149166D01*
X0108628Y0147834D01*
X0109138Y0146602D01*
X0110081Y0145660D01*
X0111312Y0145150D01*
X0112645Y0145150D01*
X0113876Y0145660D01*
X0114818Y0146602D01*
X0115328Y0147834D01*
X0115328Y0148632D01*
X0133476Y0164431D01*
X0137570Y0164848D02*
X0152360Y0164848D01*
X0152278Y0166447D02*
X0138090Y0166447D01*
X0138090Y0168045D02*
X0152278Y0168045D01*
X0152278Y0169644D02*
X0138090Y0169644D01*
X0137479Y0171242D02*
X0152278Y0171242D01*
X0152278Y0172841D02*
X0138547Y0172841D01*
X0138547Y0174439D02*
X0152278Y0174439D01*
X0152278Y0176038D02*
X0138547Y0176038D01*
X0138547Y0177636D02*
X0152278Y0177636D01*
X0152278Y0179235D02*
X0138263Y0179235D01*
X0138547Y0180833D02*
X0152278Y0180833D01*
X0152278Y0182432D02*
X0138547Y0182432D01*
X0138547Y0184030D02*
X0152278Y0184030D01*
X0152278Y0185629D02*
X0138093Y0185629D01*
X0138943Y0187227D02*
X0152278Y0187227D01*
X0152278Y0188826D02*
X0139825Y0188826D01*
X0139722Y0190424D02*
X0152278Y0190424D01*
X0152278Y0192023D02*
X0138693Y0192023D01*
X0134264Y0192023D02*
X0133697Y0192023D01*
X0133100Y0193621D02*
X0152278Y0193621D01*
X0152278Y0195220D02*
X0130138Y0195220D01*
X0130153Y0196818D02*
X0152278Y0196818D01*
X0152278Y0198417D02*
X0130153Y0198417D01*
X0130153Y0200015D02*
X0152278Y0200015D01*
X0152278Y0201614D02*
X0129078Y0201614D01*
X0133603Y0203212D02*
X0152278Y0203212D01*
X0152278Y0204811D02*
X0133893Y0204811D01*
X0133893Y0206409D02*
X0152278Y0206409D01*
X0152278Y0208008D02*
X0133956Y0208008D01*
X0135555Y0209606D02*
X0152278Y0209606D01*
X0152278Y0211205D02*
X0138649Y0211205D01*
X0140017Y0212803D02*
X0152278Y0212803D01*
X0152278Y0214402D02*
X0140550Y0214402D01*
X0140512Y0216001D02*
X0152278Y0216001D01*
X0152278Y0217599D02*
X0139845Y0217599D01*
X0137791Y0219198D02*
X0152278Y0219198D01*
X0152278Y0220796D02*
X0137744Y0220796D01*
X0139343Y0222395D02*
X0152278Y0222395D01*
X0152278Y0223993D02*
X0140941Y0223993D01*
X0142540Y0225592D02*
X0152278Y0225592D01*
X0152299Y0227190D02*
X0144078Y0227190D01*
X0144078Y0228789D02*
X0153897Y0228789D01*
X0155434Y0230387D02*
X0144078Y0230387D01*
X0143963Y0231986D02*
X0155078Y0231986D01*
X0155174Y0233584D02*
X0142364Y0233584D01*
X0140766Y0235183D02*
X0155836Y0235183D01*
X0157364Y0236781D02*
X0139167Y0236781D01*
X0137569Y0238380D02*
X0180803Y0238380D01*
X0179896Y0239978D02*
X0135970Y0239978D01*
X0134372Y0241577D02*
X0179578Y0241577D01*
X0179711Y0243175D02*
X0132773Y0243175D01*
X0131175Y0244774D02*
X0180374Y0244774D01*
X0182067Y0246372D02*
X0129576Y0246372D01*
X0116485Y0247971D02*
X0181930Y0247971D01*
X0180842Y0249569D02*
X0114797Y0249569D01*
X0109160Y0249569D02*
X0105905Y0249569D01*
X0106899Y0247971D02*
X0107472Y0247971D01*
X0103352Y0251168D02*
X0180410Y0251168D01*
X0180378Y0252000D02*
X0185678Y0252000D01*
X0185678Y0257300D01*
X0185446Y0257300D01*
X0184591Y0257165D01*
X0183767Y0256897D01*
X0182996Y0256504D01*
X0182295Y0255995D01*
X0181683Y0255383D01*
X0181174Y0254683D01*
X0180781Y0253911D01*
X0180514Y0253088D01*
X0180378Y0252233D01*
X0180378Y0252000D01*
X0180463Y0252766D02*
X0019064Y0252766D01*
X0018577Y0253942D02*
X0016520Y0255999D01*
X0013833Y0257112D01*
X0010924Y0257112D01*
X0008237Y0255999D01*
X0006180Y0253942D01*
X0005067Y0251254D01*
X0005067Y0248346D01*
X0006180Y0245658D01*
X0008237Y0243601D01*
X0010924Y0242488D01*
X0013833Y0242488D01*
X0016520Y0243601D01*
X0018577Y0245658D01*
X0019690Y0248346D01*
X0019690Y0251254D01*
X0018577Y0253942D01*
X0018154Y0254365D02*
X0181012Y0254365D01*
X0182264Y0255963D02*
X0016556Y0255963D01*
X0019690Y0251168D02*
X0040085Y0251168D01*
X0039867Y0251097D02*
X0039096Y0250704D01*
X0038395Y0250195D01*
X0037783Y0249583D01*
X0037274Y0248883D01*
X0036881Y0248111D01*
X0036614Y0247288D01*
X0036478Y0246433D01*
X0036478Y0246200D01*
X0041778Y0246200D01*
X0041778Y0251500D01*
X0041546Y0251500D01*
X0040691Y0251365D01*
X0039867Y0251097D01*
X0041778Y0251168D02*
X0042178Y0251168D01*
X0042178Y0249569D02*
X0041778Y0249569D01*
X0041778Y0247971D02*
X0042178Y0247971D01*
X0042178Y0246372D02*
X0041778Y0246372D01*
X0041778Y0244774D02*
X0042178Y0244774D01*
X0042178Y0243175D02*
X0041778Y0243175D01*
X0041778Y0241577D02*
X0042178Y0241577D01*
X0043633Y0239978D02*
X0003995Y0239978D01*
X0003996Y0238380D02*
X0043628Y0238380D01*
X0043628Y0236781D02*
X0003997Y0236781D01*
X0003998Y0235183D02*
X0043628Y0235183D01*
X0043334Y0233584D02*
X0030838Y0233584D01*
X0031087Y0233403D02*
X0030479Y0233845D01*
X0029810Y0234186D01*
X0029096Y0234418D01*
X0028354Y0234535D01*
X0028064Y0234535D01*
X0028064Y0229850D01*
X0032750Y0229850D01*
X0032750Y0230139D01*
X0032633Y0230881D01*
X0032401Y0231595D01*
X0032060Y0232265D01*
X0031618Y0232872D01*
X0031087Y0233403D01*
X0032202Y0231986D02*
X0041950Y0231986D01*
X0041407Y0230387D02*
X0032711Y0230387D01*
X0032655Y0228789D02*
X0041434Y0228789D01*
X0040435Y0227190D02*
X0032007Y0227190D01*
X0028064Y0230387D02*
X0027893Y0230387D01*
X0027893Y0231986D02*
X0028064Y0231986D01*
X0028064Y0233584D02*
X0027893Y0233584D01*
X0025119Y0233584D02*
X0003999Y0233584D01*
X0004001Y0231986D02*
X0023755Y0231986D01*
X0023246Y0230387D02*
X0004002Y0230387D01*
X0004003Y0228789D02*
X0023302Y0228789D01*
X0023950Y0227190D02*
X0004004Y0227190D01*
X0004006Y0225592D02*
X0022600Y0225592D01*
X0021002Y0223993D02*
X0004007Y0223993D01*
X0004008Y0222395D02*
X0019403Y0222395D01*
X0017805Y0220796D02*
X0004009Y0220796D01*
X0004011Y0219198D02*
X0016878Y0219198D01*
X0016878Y0217599D02*
X0004012Y0217599D01*
X0004013Y0216001D02*
X0016878Y0216001D01*
X0016878Y0214402D02*
X0004014Y0214402D01*
X0004016Y0212803D02*
X0016878Y0212803D01*
X0016878Y0211205D02*
X0004017Y0211205D01*
X0004018Y0209606D02*
X0016878Y0209606D01*
X0012063Y0208008D02*
X0004019Y0208008D01*
X0004020Y0206409D02*
X0012063Y0206409D01*
X0012063Y0204811D02*
X0004022Y0204811D01*
X0004023Y0203212D02*
X0012354Y0203212D01*
X0013517Y0201614D02*
X0004024Y0201614D01*
X0004025Y0200015D02*
X0013492Y0200015D01*
X0013467Y0198417D02*
X0004027Y0198417D01*
X0004028Y0196818D02*
X0013442Y0196818D01*
X0013417Y0195220D02*
X0004029Y0195220D01*
X0004030Y0193621D02*
X0012857Y0193621D01*
X0012260Y0192023D02*
X0004032Y0192023D01*
X0004033Y0190424D02*
X0012260Y0190424D01*
X0012260Y0188826D02*
X0004034Y0188826D01*
X0004035Y0187227D02*
X0012260Y0187227D01*
X0015864Y0185629D02*
X0004036Y0185629D01*
X0004038Y0184030D02*
X0015410Y0184030D01*
X0015410Y0182432D02*
X0004039Y0182432D01*
X0004040Y0180833D02*
X0015410Y0180833D01*
X0015694Y0179235D02*
X0004041Y0179235D01*
X0004043Y0177636D02*
X0015410Y0177636D01*
X0015410Y0176038D02*
X0004044Y0176038D01*
X0004045Y0174439D02*
X0015410Y0174439D01*
X0015410Y0172841D02*
X0004046Y0172841D01*
X0004048Y0171242D02*
X0017195Y0171242D01*
X0017361Y0171409D02*
X0017026Y0171074D01*
X0016789Y0170663D01*
X0016667Y0170205D01*
X0016667Y0168184D01*
X0020448Y0168184D01*
X0020448Y0171768D01*
X0018230Y0171768D01*
X0017772Y0171646D01*
X0017361Y0171409D01*
X0016667Y0169644D02*
X0004049Y0169644D01*
X0004050Y0168045D02*
X0020448Y0168045D01*
X0020448Y0167816D02*
X0016667Y0167816D01*
X0016667Y0165795D01*
X0016789Y0165337D01*
X0017026Y0164926D01*
X0017361Y0164591D01*
X0017772Y0164354D01*
X0018230Y0164231D01*
X0020448Y0164231D01*
X0020448Y0167816D01*
X0020448Y0166447D02*
X0020816Y0166447D01*
X0020816Y0164848D02*
X0020448Y0164848D01*
X0017104Y0164848D02*
X0004053Y0164848D01*
X0004054Y0163250D02*
X0030070Y0163250D01*
X0030570Y0164848D02*
X0032387Y0164848D01*
X0031887Y0163250D02*
X0033491Y0163250D01*
X0038466Y0163250D02*
X0049628Y0163250D01*
X0049387Y0164848D02*
X0045570Y0164848D01*
X0049911Y0161651D02*
X0039328Y0161651D01*
X0039212Y0160053D02*
X0051340Y0160053D01*
X0052994Y0158454D02*
X0063532Y0158454D01*
X0063532Y0160053D02*
X0054617Y0160053D01*
X0056046Y0161651D02*
X0063532Y0161651D01*
X0063532Y0163250D02*
X0056328Y0163250D01*
X0056080Y0164848D02*
X0055877Y0164848D01*
X0054593Y0156856D02*
X0063653Y0156856D01*
X0065128Y0155257D02*
X0056191Y0155257D01*
X0057790Y0153659D02*
X0065408Y0153659D01*
X0066822Y0152060D02*
X0059388Y0152060D01*
X0060987Y0150462D02*
X0077783Y0150462D01*
X0077628Y0152060D02*
X0070135Y0152060D01*
X0071549Y0153659D02*
X0078399Y0153659D01*
X0078878Y0155257D02*
X0071828Y0155257D01*
X0071336Y0156856D02*
X0078878Y0156856D01*
X0078878Y0158454D02*
X0067994Y0158454D01*
X0067732Y0160053D02*
X0078878Y0160053D01*
X0078878Y0161651D02*
X0067732Y0161651D01*
X0067732Y0163250D02*
X0078878Y0163250D01*
X0083078Y0163250D02*
X0093490Y0163250D01*
X0092628Y0161651D02*
X0083078Y0161651D01*
X0083078Y0160053D02*
X0092745Y0160053D01*
X0093787Y0158454D02*
X0083078Y0158454D01*
X0083078Y0156856D02*
X0118378Y0156856D01*
X0120214Y0158454D02*
X0105670Y0158454D01*
X0106712Y0160053D02*
X0114340Y0160053D01*
X0112911Y0161651D02*
X0106828Y0161651D01*
X0105966Y0163250D02*
X0112628Y0163250D01*
X0112877Y0164848D02*
X0113080Y0164848D01*
X0119046Y0161651D02*
X0123886Y0161651D01*
X0122050Y0160053D02*
X0117617Y0160053D01*
X0116542Y0155257D02*
X0083078Y0155257D01*
X0083557Y0153659D02*
X0114706Y0153659D01*
X0112869Y0152060D02*
X0084328Y0152060D01*
X0084174Y0150462D02*
X0109202Y0150462D01*
X0108628Y0148863D02*
X0083079Y0148863D01*
X0078878Y0148863D02*
X0062578Y0148863D01*
X0062578Y0147265D02*
X0108864Y0147265D01*
X0110075Y0145666D02*
X0062578Y0145666D01*
X0062578Y0144068D02*
X0129277Y0144068D01*
X0129028Y0142469D02*
X0062578Y0142469D01*
X0062578Y0140870D02*
X0121211Y0140870D01*
X0120528Y0139272D02*
X0062578Y0139272D01*
X0062578Y0137673D02*
X0120719Y0137673D01*
X0121866Y0136075D02*
X0062578Y0136075D01*
X0062578Y0134476D02*
X0129818Y0134476D01*
X0131465Y0132878D02*
X0062578Y0132878D01*
X0062578Y0131279D02*
X0133112Y0131279D01*
X0134759Y0129681D02*
X0062578Y0129681D01*
X0062578Y0128082D02*
X0191856Y0128082D01*
X0191911Y0126484D02*
X0062578Y0126484D01*
X0062578Y0124885D02*
X0191216Y0124885D01*
X0191216Y0123287D02*
X0062578Y0123287D01*
X0062578Y0121688D02*
X0096610Y0121688D01*
X0096610Y0121350D02*
X0092771Y0121350D01*
X0091628Y0120208D01*
X0091204Y0119783D01*
X0091181Y0119823D01*
X0090846Y0120158D01*
X0090435Y0120395D01*
X0089978Y0120518D01*
X0087379Y0120518D01*
X0087379Y0117143D01*
X0087379Y0113769D01*
X0089978Y0113769D01*
X0090435Y0113891D01*
X0090628Y0114003D01*
X0090628Y0113006D01*
X0090403Y0113231D01*
X0084354Y0113231D01*
X0083416Y0112294D01*
X0083416Y0107819D01*
X0084133Y0107102D01*
X0083828Y0106366D01*
X0083828Y0105034D01*
X0084338Y0103802D01*
X0085281Y0102860D01*
X0086512Y0102350D01*
X0087845Y0102350D01*
X0089076Y0102860D01*
X0090018Y0103802D01*
X0090141Y0104099D01*
X0090681Y0103560D01*
X0091912Y0103050D01*
X0093245Y0103050D01*
X0094476Y0103560D01*
X0095418Y0104502D01*
X0095928Y0105734D01*
X0095928Y0107066D01*
X0095418Y0108298D01*
X0094528Y0109188D01*
X0094528Y0117450D01*
X0096610Y0117450D01*
X0096610Y0116518D01*
X0097128Y0116000D01*
X0096610Y0115482D01*
X0096610Y0109825D01*
X0097547Y0108888D01*
X0098228Y0108888D01*
X0098228Y0108392D01*
X0099371Y0107250D01*
X0100371Y0106250D01*
X0100991Y0106250D01*
X0101881Y0105360D01*
X0103112Y0104850D01*
X0104445Y0104850D01*
X0105676Y0105360D01*
X0106566Y0106250D01*
X0107186Y0106250D01*
X0108328Y0107392D01*
X0109328Y0108392D01*
X0109328Y0109282D01*
X0110403Y0109282D01*
X0111341Y0110219D01*
X0111341Y0114694D01*
X0110403Y0115631D01*
X0104354Y0115631D01*
X0103747Y0115025D01*
X0103747Y0115482D01*
X0103229Y0116000D01*
X0103747Y0116518D01*
X0103747Y0116692D01*
X0103911Y0116528D01*
X0104321Y0116291D01*
X0104779Y0116169D01*
X0107378Y0116168D01*
X0107378Y0119543D01*
X0107379Y0119543D01*
X0107379Y0119543D01*
X0111541Y0119543D01*
X0111541Y0117732D01*
X0111418Y0117274D01*
X0111181Y0116863D01*
X0110846Y0116528D01*
X0110435Y0116291D01*
X0109978Y0116169D01*
X0107379Y0116169D01*
X0107379Y0119543D01*
X0111541Y0119543D01*
X0111541Y0121355D01*
X0111418Y0121813D01*
X0111181Y0122223D01*
X0110846Y0122558D01*
X0110435Y0122795D01*
X0109978Y0122918D01*
X0107379Y0122918D01*
X0107379Y0119543D01*
X0107378Y0119543D01*
X0107378Y0122918D01*
X0104779Y0122918D01*
X0104321Y0122795D01*
X0103911Y0122558D01*
X0103637Y0122284D01*
X0102810Y0123112D01*
X0097547Y0123112D01*
X0096610Y0122175D01*
X0096610Y0121350D01*
X0096610Y0116893D02*
X0094528Y0116893D01*
X0094528Y0115294D02*
X0096610Y0115294D01*
X0096610Y0113696D02*
X0094528Y0113696D01*
X0094528Y0112097D02*
X0096610Y0112097D01*
X0096610Y0110499D02*
X0094528Y0110499D01*
X0094816Y0108900D02*
X0097535Y0108900D01*
X0095831Y0107302D02*
X0099319Y0107302D01*
X0101538Y0105703D02*
X0095916Y0105703D01*
X0095021Y0104105D02*
X0207328Y0104105D01*
X0207328Y0103934D02*
X0207838Y0102702D01*
X0208781Y0101760D01*
X0210012Y0101250D01*
X0211345Y0101250D01*
X0212576Y0101760D01*
X0213518Y0102702D01*
X0214028Y0103934D01*
X0214028Y0105266D01*
X0213518Y0106498D01*
X0212576Y0107440D01*
X0211942Y0107703D01*
X0211929Y0107876D01*
X0211916Y0107901D01*
X0211916Y0115306D01*
X0210979Y0116243D01*
X0209687Y0116243D01*
X0209540Y0116598D01*
X0208678Y0117460D01*
X0208678Y0117567D01*
X0209128Y0118654D01*
X0209128Y0119946D01*
X0208634Y0121141D01*
X0207719Y0122055D01*
X0206525Y0122550D01*
X0205232Y0122550D01*
X0204037Y0122055D01*
X0203123Y0121141D01*
X0202628Y0119946D01*
X0202628Y0118654D01*
X0203078Y0117567D01*
X0203078Y0115967D01*
X0202417Y0115306D01*
X0202417Y0106894D01*
X0203354Y0105957D01*
X0206625Y0105957D01*
X0206929Y0105353D01*
X0207328Y0105010D01*
X0207328Y0103934D01*
X0208035Y0102506D02*
X0088222Y0102506D01*
X0086135Y0102506D02*
X0004101Y0102506D01*
X0004102Y0100908D02*
X0264801Y0100908D01*
X0263202Y0102506D02*
X0213322Y0102506D01*
X0214028Y0104105D02*
X0261604Y0104105D01*
X0260005Y0105703D02*
X0213847Y0105703D01*
X0213245Y0107302D02*
X0212714Y0107302D01*
X0213241Y0108900D02*
X0211916Y0108900D01*
X0211916Y0110499D02*
X0217415Y0110499D01*
X0217415Y0111875D02*
X0213241Y0111875D01*
X0213241Y0114880D01*
X0213363Y0115338D01*
X0213600Y0115749D01*
X0213935Y0116084D01*
X0214346Y0116321D01*
X0214804Y0116443D01*
X0217415Y0116443D01*
X0217415Y0111875D01*
X0217415Y0112097D02*
X0218965Y0112097D01*
X0218965Y0110499D02*
X0221016Y0110499D01*
X0218965Y0108900D02*
X0217415Y0108900D01*
X0217415Y0107302D02*
X0218965Y0107302D01*
X0213241Y0112097D02*
X0211916Y0112097D01*
X0211916Y0113696D02*
X0213241Y0113696D01*
X0213352Y0115294D02*
X0211916Y0115294D01*
X0209245Y0116893D02*
X0221216Y0116893D01*
X0221216Y0118491D02*
X0209061Y0118491D01*
X0209069Y0120090D02*
X0221216Y0120090D01*
X0225225Y0123287D02*
X0199141Y0123287D01*
X0199141Y0124885D02*
X0223122Y0124885D01*
X0226578Y0121688D02*
X0208086Y0121688D01*
X0203671Y0121688D02*
X0199141Y0121688D01*
X0198325Y0120090D02*
X0202688Y0120090D01*
X0202696Y0118491D02*
X0198944Y0118491D01*
X0199141Y0118294D02*
X0198203Y0119231D01*
X0192154Y0119231D01*
X0191216Y0118294D01*
X0191216Y0113819D01*
X0191833Y0113202D01*
X0191528Y0112466D01*
X0191528Y0111134D01*
X0192038Y0109902D01*
X0192981Y0108960D01*
X0194212Y0108450D01*
X0195545Y0108450D01*
X0196776Y0108960D01*
X0197718Y0109902D01*
X0198228Y0111134D01*
X0198228Y0112466D01*
X0198056Y0112882D01*
X0198203Y0112882D01*
X0199141Y0113819D01*
X0199141Y0118294D01*
X0199141Y0116893D02*
X0203078Y0116893D01*
X0202417Y0115294D02*
X0199141Y0115294D01*
X0199017Y0113696D02*
X0202417Y0113696D01*
X0202417Y0112097D02*
X0198228Y0112097D01*
X0197965Y0110499D02*
X0202417Y0110499D01*
X0202417Y0108900D02*
X0196632Y0108900D01*
X0193125Y0108900D02*
X0109328Y0108900D01*
X0108238Y0107302D02*
X0202417Y0107302D01*
X0206753Y0105703D02*
X0106019Y0105703D01*
X0111341Y0110499D02*
X0191791Y0110499D01*
X0191528Y0112097D02*
X0111341Y0112097D01*
X0111341Y0113696D02*
X0191340Y0113696D01*
X0191216Y0115294D02*
X0110741Y0115294D01*
X0111198Y0116893D02*
X0191216Y0116893D01*
X0191413Y0118491D02*
X0111541Y0118491D01*
X0111541Y0120090D02*
X0192032Y0120090D01*
X0191216Y0121688D02*
X0111451Y0121688D01*
X0107379Y0121688D02*
X0107378Y0121688D01*
X0107378Y0120090D02*
X0107379Y0120090D01*
X0107378Y0118491D02*
X0107379Y0118491D01*
X0107378Y0116893D02*
X0107379Y0116893D01*
X0104016Y0115294D02*
X0103747Y0115294D01*
X0091511Y0120090D02*
X0090915Y0120090D01*
X0087379Y0120090D02*
X0087378Y0120090D01*
X0087378Y0120518D02*
X0084779Y0120518D01*
X0084321Y0120395D01*
X0083911Y0120158D01*
X0083576Y0119823D01*
X0083430Y0119570D01*
X0083418Y0119613D01*
X0083181Y0120023D01*
X0082846Y0120358D01*
X0082435Y0120595D01*
X0081978Y0120718D01*
X0079379Y0120718D01*
X0079379Y0117343D01*
X0079379Y0113969D01*
X0081978Y0113969D01*
X0082435Y0114091D01*
X0082846Y0114328D01*
X0083181Y0114663D01*
X0083327Y0114917D01*
X0083339Y0114874D01*
X0083576Y0114463D01*
X0083911Y0114128D01*
X0084321Y0113891D01*
X0084779Y0113769D01*
X0087378Y0113768D01*
X0087378Y0117143D01*
X0087379Y0117143D01*
X0087378Y0117143D01*
X0087378Y0120518D01*
X0087378Y0118491D02*
X0087379Y0118491D01*
X0087378Y0116893D02*
X0087379Y0116893D01*
X0087378Y0115294D02*
X0087379Y0115294D01*
X0090628Y0113696D02*
X0063271Y0113696D01*
X0063275Y0115294D02*
X0075280Y0115294D01*
X0075339Y0115074D02*
X0075576Y0114663D01*
X0075911Y0114328D01*
X0076321Y0114091D01*
X0076779Y0113969D01*
X0079378Y0113968D01*
X0079378Y0117343D01*
X0075216Y0117343D01*
X0075216Y0115532D01*
X0075339Y0115074D01*
X0075216Y0116893D02*
X0062578Y0116893D01*
X0062578Y0118491D02*
X0075216Y0118491D01*
X0075216Y0119155D02*
X0075216Y0117343D01*
X0079378Y0117343D01*
X0079378Y0117343D01*
X0079379Y0117343D01*
X0079378Y0117343D01*
X0079378Y0120718D01*
X0076779Y0120718D01*
X0076321Y0120595D01*
X0075911Y0120358D01*
X0075576Y0120023D01*
X0075339Y0119613D01*
X0075216Y0119155D01*
X0075642Y0120090D02*
X0062578Y0120090D01*
X0058378Y0120090D02*
X0025374Y0120090D01*
X0026197Y0120431D02*
X0027548Y0121781D01*
X0028278Y0123545D01*
X0028278Y0125455D01*
X0027548Y0127219D01*
X0026197Y0128569D01*
X0024433Y0129300D01*
X0022524Y0129300D01*
X0020759Y0128569D01*
X0019409Y0127219D01*
X0018678Y0125455D01*
X0018678Y0123545D01*
X0019409Y0121781D01*
X0020759Y0120431D01*
X0022524Y0119700D01*
X0024433Y0119700D01*
X0026197Y0120431D01*
X0027341Y0119300D02*
X0019616Y0119300D01*
X0018678Y0118363D01*
X0018678Y0110637D01*
X0019616Y0109700D01*
X0027341Y0109700D01*
X0028278Y0110637D01*
X0028278Y0118363D01*
X0027341Y0119300D01*
X0028150Y0118491D02*
X0058378Y0118491D01*
X0057634Y0116893D02*
X0028278Y0116893D01*
X0028278Y0115294D02*
X0056681Y0115294D01*
X0056686Y0113696D02*
X0028278Y0113696D01*
X0028278Y0112097D02*
X0057644Y0112097D01*
X0062313Y0112097D02*
X0075416Y0112097D01*
X0075416Y0112494D02*
X0075416Y0108019D01*
X0076119Y0107317D01*
X0075828Y0106616D01*
X0075828Y0105284D01*
X0076338Y0104052D01*
X0077281Y0103110D01*
X0078512Y0102600D01*
X0079845Y0102600D01*
X0081076Y0103110D01*
X0082018Y0104052D01*
X0082528Y0105284D01*
X0082528Y0106616D01*
X0082336Y0107082D01*
X0082403Y0107082D01*
X0083341Y0108019D01*
X0083341Y0112494D01*
X0082403Y0113431D01*
X0076354Y0113431D01*
X0075416Y0112494D01*
X0075416Y0110499D02*
X0028140Y0110499D01*
X0018817Y0110499D02*
X0004095Y0110499D01*
X0004093Y0112097D02*
X0018678Y0112097D01*
X0018678Y0113696D02*
X0004092Y0113696D01*
X0004091Y0115294D02*
X0018678Y0115294D01*
X0018678Y0116893D02*
X0004090Y0116893D01*
X0004088Y0118491D02*
X0018807Y0118491D01*
X0021583Y0120090D02*
X0004087Y0120090D01*
X0004086Y0121688D02*
X0019502Y0121688D01*
X0018785Y0123287D02*
X0004085Y0123287D01*
X0004083Y0124885D02*
X0018678Y0124885D01*
X0019105Y0126484D02*
X0004082Y0126484D01*
X0004081Y0128082D02*
X0020273Y0128082D01*
X0020759Y0130431D02*
X0022524Y0129700D01*
X0024433Y0129700D01*
X0026197Y0130431D01*
X0027548Y0131781D01*
X0028278Y0133545D01*
X0028278Y0135455D01*
X0027548Y0137219D01*
X0026197Y0138569D01*
X0024433Y0139300D01*
X0022524Y0139300D01*
X0020759Y0138569D01*
X0019409Y0137219D01*
X0018678Y0135455D01*
X0018678Y0133545D01*
X0019409Y0131781D01*
X0020759Y0130431D01*
X0019911Y0131279D02*
X0004078Y0131279D01*
X0004080Y0129681D02*
X0058378Y0129681D01*
X0058378Y0131279D02*
X0027046Y0131279D01*
X0028002Y0132878D02*
X0058378Y0132878D01*
X0058378Y0134476D02*
X0028278Y0134476D01*
X0028022Y0136075D02*
X0058378Y0136075D01*
X0058378Y0137673D02*
X0027093Y0137673D01*
X0026197Y0140431D02*
X0027548Y0141781D01*
X0028278Y0143545D01*
X0028278Y0145455D01*
X0027548Y0147219D01*
X0026197Y0148569D01*
X0024433Y0149300D01*
X0022524Y0149300D01*
X0020759Y0148569D01*
X0019409Y0147219D01*
X0018678Y0145455D01*
X0018678Y0143545D01*
X0019409Y0141781D01*
X0020759Y0140431D01*
X0022524Y0139700D01*
X0024433Y0139700D01*
X0026197Y0140431D01*
X0026637Y0140870D02*
X0058378Y0140870D01*
X0058378Y0139272D02*
X0024501Y0139272D01*
X0022456Y0139272D02*
X0004072Y0139272D01*
X0004071Y0140870D02*
X0020320Y0140870D01*
X0019124Y0142469D02*
X0004070Y0142469D01*
X0004069Y0144068D02*
X0018678Y0144068D01*
X0018766Y0145666D02*
X0004067Y0145666D01*
X0004066Y0147265D02*
X0019455Y0147265D01*
X0021469Y0148863D02*
X0004065Y0148863D01*
X0004064Y0150462D02*
X0020729Y0150462D01*
X0020759Y0150431D02*
X0022524Y0149700D01*
X0024433Y0149700D01*
X0026197Y0150431D01*
X0027548Y0151781D01*
X0028278Y0153545D01*
X0028278Y0155455D01*
X0027548Y0157219D01*
X0026197Y0158569D01*
X0024433Y0159300D01*
X0022524Y0159300D01*
X0020759Y0158569D01*
X0019409Y0157219D01*
X0018678Y0155455D01*
X0018678Y0153545D01*
X0019409Y0151781D01*
X0020759Y0150431D01*
X0019294Y0152060D02*
X0004062Y0152060D01*
X0004061Y0153659D02*
X0018678Y0153659D01*
X0018678Y0155257D02*
X0004060Y0155257D01*
X0004059Y0156856D02*
X0019259Y0156856D01*
X0020644Y0158454D02*
X0004057Y0158454D01*
X0004056Y0160053D02*
X0027628Y0160053D01*
X0027993Y0158454D02*
X0026313Y0158454D01*
X0027698Y0156856D02*
X0029653Y0156856D01*
X0028278Y0155257D02*
X0031252Y0155257D01*
X0028278Y0153659D02*
X0051850Y0153659D01*
X0053449Y0152060D02*
X0027663Y0152060D01*
X0026228Y0150462D02*
X0055047Y0150462D01*
X0056646Y0148863D02*
X0025488Y0148863D01*
X0027502Y0147265D02*
X0058244Y0147265D01*
X0058378Y0145666D02*
X0028191Y0145666D01*
X0028278Y0144068D02*
X0058378Y0144068D01*
X0058378Y0142469D02*
X0027833Y0142469D01*
X0019864Y0137673D02*
X0004074Y0137673D01*
X0004075Y0136075D02*
X0018935Y0136075D01*
X0018678Y0134476D02*
X0004076Y0134476D01*
X0004077Y0132878D02*
X0018955Y0132878D01*
X0026684Y0128082D02*
X0058378Y0128082D01*
X0058378Y0126484D02*
X0027852Y0126484D01*
X0028278Y0124885D02*
X0058378Y0124885D01*
X0058378Y0123287D02*
X0028171Y0123287D01*
X0027455Y0121688D02*
X0058378Y0121688D01*
X0079378Y0120090D02*
X0079379Y0120090D01*
X0079378Y0118491D02*
X0079379Y0118491D01*
X0079378Y0116893D02*
X0079379Y0116893D01*
X0079378Y0115294D02*
X0079379Y0115294D01*
X0083341Y0112097D02*
X0083416Y0112097D01*
X0083416Y0110499D02*
X0083341Y0110499D01*
X0083341Y0108900D02*
X0083416Y0108900D01*
X0083934Y0107302D02*
X0082623Y0107302D01*
X0082528Y0105703D02*
X0083828Y0105703D01*
X0084213Y0104105D02*
X0082040Y0104105D01*
X0076317Y0104105D02*
X0004099Y0104105D01*
X0004098Y0105703D02*
X0075828Y0105703D01*
X0076112Y0107302D02*
X0004097Y0107302D01*
X0004096Y0108900D02*
X0075416Y0108900D01*
X0083115Y0120090D02*
X0083842Y0120090D01*
X0113882Y0145666D02*
X0130544Y0145666D01*
X0134213Y0145666D02*
X0137222Y0145666D01*
X0137028Y0147265D02*
X0115093Y0147265D01*
X0115594Y0148863D02*
X0137704Y0148863D01*
X0138373Y0144068D02*
X0135479Y0144068D01*
X0136011Y0142469D02*
X0170304Y0142469D01*
X0170028Y0144068D02*
X0142384Y0144068D01*
X0148214Y0145666D02*
X0170525Y0145666D01*
X0171697Y0140870D02*
X0137396Y0140870D01*
X0134609Y0137673D02*
X0132554Y0137673D01*
X0133224Y0139272D02*
X0130907Y0139272D01*
X0129570Y0140870D02*
X0129278Y0140870D01*
X0128171Y0136075D02*
X0125891Y0136075D01*
X0134201Y0136075D02*
X0135995Y0136075D01*
X0135848Y0134476D02*
X0137380Y0134476D01*
X0137495Y0132878D02*
X0138765Y0132878D01*
X0149813Y0147265D02*
X0222176Y0147265D01*
X0221901Y0152060D02*
X0119266Y0152060D01*
X0117430Y0150462D02*
X0147070Y0150462D01*
X0125722Y0163250D02*
X0119328Y0163250D01*
X0119570Y0164848D02*
X0124387Y0164848D01*
X0106387Y0164848D02*
X0105570Y0164848D01*
X0100991Y0163250D02*
X0098466Y0163250D01*
X0098877Y0164848D02*
X0099080Y0164848D01*
X0099328Y0161651D02*
X0100128Y0161651D01*
X0100245Y0160053D02*
X0099212Y0160053D01*
X0098170Y0158454D02*
X0101287Y0158454D01*
X0092387Y0164848D02*
X0088570Y0164848D01*
X0089090Y0166447D02*
X0091867Y0166447D01*
X0091867Y0168045D02*
X0089090Y0168045D01*
X0089938Y0169644D02*
X0091867Y0169644D01*
X0091537Y0171242D02*
X0092420Y0171242D01*
X0069080Y0164848D02*
X0068877Y0164848D01*
X0039080Y0164848D02*
X0038877Y0164848D01*
X0028036Y0161651D02*
X0004055Y0161651D01*
X0004051Y0166447D02*
X0016667Y0166447D01*
X0020448Y0169644D02*
X0020816Y0169644D01*
X0020816Y0171242D02*
X0020448Y0171242D01*
X0003993Y0241577D02*
X0038709Y0241577D01*
X0037245Y0243175D02*
X0015491Y0243175D01*
X0017693Y0244774D02*
X0036604Y0244774D01*
X0036478Y0246372D02*
X0018873Y0246372D01*
X0019535Y0247971D02*
X0036836Y0247971D01*
X0037773Y0249569D02*
X0019690Y0249569D01*
X0009265Y0243175D02*
X0003992Y0243175D01*
X0003991Y0244774D02*
X0007064Y0244774D01*
X0005884Y0246372D02*
X0003990Y0246372D01*
X0003988Y0247971D02*
X0005222Y0247971D01*
X0005067Y0249569D02*
X0003987Y0249569D01*
X0003986Y0251168D02*
X0005067Y0251168D01*
X0005693Y0252766D02*
X0003985Y0252766D01*
X0003983Y0254365D02*
X0006603Y0254365D01*
X0008201Y0255963D02*
X0003982Y0255963D01*
X0003981Y0257562D02*
X0287496Y0257562D01*
X0285898Y0255963D02*
X0261177Y0255963D01*
X0262958Y0254365D02*
X0284472Y0254365D01*
X0284228Y0252766D02*
X0264556Y0252766D01*
X0266155Y0251168D02*
X0270953Y0251168D01*
X0270953Y0249569D02*
X0267753Y0249569D01*
X0269352Y0247971D02*
X0270953Y0247971D01*
X0270953Y0246372D02*
X0269778Y0246372D01*
X0269778Y0244774D02*
X0270953Y0244774D01*
X0270953Y0243175D02*
X0269778Y0243175D01*
X0269996Y0241577D02*
X0270953Y0241577D01*
X0268200Y0239978D02*
X0245216Y0239978D01*
X0245330Y0240092D02*
X0245906Y0240885D01*
X0246351Y0241758D01*
X0246654Y0242691D01*
X0246778Y0243473D01*
X0241255Y0243473D01*
X0241255Y0237950D01*
X0242037Y0238074D01*
X0242970Y0238377D01*
X0243843Y0238822D01*
X0244636Y0239398D01*
X0245330Y0240092D01*
X0246259Y0241577D02*
X0267378Y0241577D01*
X0267378Y0240800D02*
X0269628Y0238550D01*
X0283128Y0238550D01*
X0286628Y0242050D01*
X0286628Y0253300D01*
X0288878Y0255550D01*
X0336378Y0255550D01*
X0337628Y0254300D01*
X0337628Y0234800D01*
X0335128Y0232300D01*
X0254378Y0232300D01*
X0249628Y0237050D01*
X0228628Y0237050D01*
X0227128Y0238550D01*
X0227128Y0253550D01*
X0227378Y0253800D01*
X0260128Y0253800D01*
X0267378Y0246550D01*
X0267378Y0240800D01*
X0267378Y0243175D02*
X0246731Y0243175D01*
X0246778Y0244826D02*
X0246654Y0245608D01*
X0246351Y0246541D01*
X0245906Y0247414D01*
X0245330Y0248208D01*
X0244636Y0248901D01*
X0243843Y0249477D01*
X0242970Y0249922D01*
X0242037Y0250225D01*
X0241255Y0250349D01*
X0241255Y0244826D01*
X0246778Y0244826D01*
X0246406Y0246372D02*
X0267378Y0246372D01*
X0267378Y0244774D02*
X0241255Y0244774D01*
X0241255Y0244826D02*
X0241255Y0243473D01*
X0239902Y0243473D01*
X0239902Y0237950D01*
X0239120Y0238074D01*
X0238187Y0238377D01*
X0237314Y0238822D01*
X0236520Y0239398D01*
X0235827Y0240092D01*
X0235251Y0240885D01*
X0234806Y0241758D01*
X0234503Y0242691D01*
X0234379Y0243473D01*
X0239902Y0243473D01*
X0239902Y0244826D01*
X0234379Y0244826D01*
X0234503Y0245608D01*
X0234806Y0246541D01*
X0235251Y0247414D01*
X0235827Y0248208D01*
X0236520Y0248901D01*
X0237314Y0249477D01*
X0238187Y0249922D01*
X0239120Y0250225D01*
X0239902Y0250349D01*
X0239902Y0244826D01*
X0241255Y0244826D01*
X0239902Y0244774D02*
X0227128Y0244774D01*
X0227128Y0246372D02*
X0234751Y0246372D01*
X0235655Y0247971D02*
X0227128Y0247971D01*
X0227128Y0249569D02*
X0237494Y0249569D01*
X0239902Y0249569D02*
X0241255Y0249569D01*
X0241255Y0247971D02*
X0239902Y0247971D01*
X0239902Y0246372D02*
X0241255Y0246372D01*
X0241255Y0243175D02*
X0239902Y0243175D01*
X0239902Y0241577D02*
X0241255Y0241577D01*
X0241255Y0239978D02*
X0239902Y0239978D01*
X0239902Y0238380D02*
X0241255Y0238380D01*
X0242975Y0238380D02*
X0308578Y0238380D01*
X0308578Y0238313D02*
X0308701Y0237855D01*
X0308938Y0237445D01*
X0309273Y0237110D01*
X0309684Y0236873D01*
X0310141Y0236750D01*
X0316778Y0236750D01*
X0316778Y0244950D01*
X0308578Y0244950D01*
X0308578Y0238313D01*
X0308578Y0239978D02*
X0284557Y0239978D01*
X0286155Y0241577D02*
X0308578Y0241577D01*
X0308578Y0243175D02*
X0286628Y0243175D01*
X0286628Y0244774D02*
X0308578Y0244774D01*
X0308578Y0246550D02*
X0316778Y0246550D01*
X0316778Y0244950D01*
X0318378Y0244950D01*
X0318378Y0236750D01*
X0325015Y0236750D01*
X0325473Y0236873D01*
X0325884Y0237110D01*
X0326219Y0237445D01*
X0326456Y0237855D01*
X0326578Y0238313D01*
X0326578Y0244950D01*
X0318379Y0244950D01*
X0318379Y0246550D01*
X0326578Y0246550D01*
X0326578Y0253187D01*
X0326456Y0253645D01*
X0326219Y0254055D01*
X0325884Y0254390D01*
X0325473Y0254627D01*
X0325015Y0254750D01*
X0318378Y0254750D01*
X0318378Y0246550D01*
X0316778Y0246550D01*
X0316778Y0254750D01*
X0310141Y0254750D01*
X0309684Y0254627D01*
X0309273Y0254390D01*
X0308938Y0254055D01*
X0308701Y0253645D01*
X0308578Y0253187D01*
X0308578Y0246550D01*
X0308578Y0247971D02*
X0286628Y0247971D01*
X0286628Y0249569D02*
X0308578Y0249569D01*
X0308578Y0251168D02*
X0286628Y0251168D01*
X0286628Y0252766D02*
X0308578Y0252766D01*
X0309248Y0254365D02*
X0287693Y0254365D01*
X0284228Y0251168D02*
X0284203Y0251168D01*
X0284203Y0249569D02*
X0284228Y0249569D01*
X0284203Y0247971D02*
X0284228Y0247971D01*
X0284203Y0246372D02*
X0284228Y0246372D01*
X0284203Y0244774D02*
X0284228Y0244774D01*
X0284203Y0243175D02*
X0284228Y0243175D01*
X0286628Y0246372D02*
X0316778Y0246372D01*
X0316778Y0244774D02*
X0318378Y0244774D01*
X0318379Y0246372D02*
X0337628Y0246372D01*
X0337628Y0244774D02*
X0326578Y0244774D01*
X0326578Y0243175D02*
X0337628Y0243175D01*
X0337628Y0241577D02*
X0326578Y0241577D01*
X0326578Y0239978D02*
X0337628Y0239978D01*
X0337628Y0238380D02*
X0326578Y0238380D01*
X0325132Y0236781D02*
X0337628Y0236781D01*
X0337628Y0235183D02*
X0251496Y0235183D01*
X0249897Y0236781D02*
X0310025Y0236781D01*
X0316778Y0236781D02*
X0318378Y0236781D01*
X0318378Y0238380D02*
X0316778Y0238380D01*
X0316778Y0239978D02*
X0318378Y0239978D01*
X0318378Y0241577D02*
X0316778Y0241577D01*
X0316778Y0243175D02*
X0318378Y0243175D01*
X0318378Y0247971D02*
X0316778Y0247971D01*
X0316778Y0249569D02*
X0318378Y0249569D01*
X0318378Y0251168D02*
X0316778Y0251168D01*
X0316778Y0252766D02*
X0318378Y0252766D01*
X0318378Y0254365D02*
X0316778Y0254365D01*
X0325909Y0254365D02*
X0337564Y0254365D01*
X0337628Y0252766D02*
X0326578Y0252766D01*
X0326578Y0251168D02*
X0337628Y0251168D01*
X0337628Y0249569D02*
X0326578Y0249569D01*
X0326578Y0247971D02*
X0337628Y0247971D01*
X0340028Y0247971D02*
X0358222Y0247971D01*
X0358067Y0248346D02*
X0359180Y0245658D01*
X0361237Y0243601D01*
X0363924Y0242488D01*
X0366833Y0242488D01*
X0369520Y0243601D01*
X0371577Y0245658D01*
X0372690Y0248346D01*
X0372690Y0251254D01*
X0371577Y0253942D01*
X0369520Y0255999D01*
X0366833Y0257112D01*
X0363924Y0257112D01*
X0361237Y0255999D01*
X0359180Y0253942D01*
X0358067Y0251254D01*
X0358067Y0248346D01*
X0358067Y0249569D02*
X0340028Y0249569D01*
X0340028Y0251168D02*
X0358067Y0251168D01*
X0358693Y0252766D02*
X0340028Y0252766D01*
X0340028Y0254365D02*
X0359603Y0254365D01*
X0361201Y0255963D02*
X0339359Y0255963D01*
X0337761Y0257562D02*
X0373578Y0257562D01*
X0373578Y0255963D02*
X0369556Y0255963D01*
X0371154Y0254365D02*
X0373578Y0254365D01*
X0373578Y0252766D02*
X0372064Y0252766D01*
X0372690Y0251168D02*
X0373578Y0251168D01*
X0373578Y0249569D02*
X0372690Y0249569D01*
X0372535Y0247971D02*
X0373578Y0247971D01*
X0373578Y0246372D02*
X0371873Y0246372D01*
X0370693Y0244774D02*
X0373578Y0244774D01*
X0373578Y0243175D02*
X0368491Y0243175D01*
X0362265Y0243175D02*
X0340028Y0243175D01*
X0340028Y0241577D02*
X0373578Y0241577D01*
X0373578Y0239978D02*
X0340028Y0239978D01*
X0340028Y0238380D02*
X0373578Y0238380D01*
X0373578Y0236781D02*
X0340028Y0236781D01*
X0340028Y0235183D02*
X0373578Y0235183D01*
X0373578Y0233584D02*
X0339723Y0233584D01*
X0338208Y0231986D02*
X0373578Y0231986D01*
X0373578Y0230387D02*
X0336610Y0230387D01*
X0336413Y0233584D02*
X0253094Y0233584D01*
X0251299Y0231986D02*
X0245253Y0231986D01*
X0245330Y0231908D02*
X0244636Y0232602D01*
X0243843Y0233178D01*
X0242970Y0233623D01*
X0242037Y0233926D01*
X0241255Y0234050D01*
X0241255Y0228527D01*
X0239902Y0228527D01*
X0239902Y0234050D01*
X0239120Y0233926D01*
X0238187Y0233623D01*
X0237314Y0233178D01*
X0236520Y0232602D01*
X0235827Y0231908D01*
X0235251Y0231115D01*
X0234806Y0230242D01*
X0234503Y0229309D01*
X0234379Y0228527D01*
X0239902Y0228527D01*
X0239902Y0227174D01*
X0234379Y0227174D01*
X0234503Y0226392D01*
X0234806Y0225459D01*
X0235251Y0224586D01*
X0235827Y0223792D01*
X0236520Y0223099D01*
X0237314Y0222523D01*
X0238187Y0222078D01*
X0239120Y0221775D01*
X0239902Y0221651D01*
X0239902Y0227174D01*
X0241255Y0227174D01*
X0241255Y0228527D01*
X0246778Y0228527D01*
X0246654Y0229309D01*
X0246351Y0230242D01*
X0245906Y0231115D01*
X0245330Y0231908D01*
X0246277Y0230387D02*
X0252897Y0230387D01*
X0249700Y0233584D02*
X0243046Y0233584D01*
X0241255Y0233584D02*
X0239902Y0233584D01*
X0239902Y0231986D02*
X0241255Y0231986D01*
X0241255Y0230387D02*
X0239902Y0230387D01*
X0239902Y0228789D02*
X0241255Y0228789D01*
X0241255Y0227190D02*
X0259199Y0227190D01*
X0260797Y0228789D02*
X0246737Y0228789D01*
X0246778Y0227174D02*
X0241255Y0227174D01*
X0241255Y0221651D01*
X0242037Y0221775D01*
X0242970Y0222078D01*
X0243843Y0222523D01*
X0244636Y0223099D01*
X0245330Y0223792D01*
X0245906Y0224586D01*
X0246351Y0225459D01*
X0246654Y0226392D01*
X0246778Y0227174D01*
X0246394Y0225592D02*
X0257600Y0225592D01*
X0257478Y0223993D02*
X0245476Y0223993D01*
X0243592Y0222395D02*
X0257478Y0222395D01*
X0257478Y0220796D02*
X0197478Y0220796D01*
X0197478Y0219198D02*
X0257478Y0219198D01*
X0257478Y0217599D02*
X0244093Y0217599D01*
X0245144Y0217164D02*
X0242182Y0218391D01*
X0238975Y0218391D01*
X0236013Y0217164D01*
X0233746Y0214896D01*
X0232519Y0211934D01*
X0232519Y0208727D01*
X0233746Y0205765D01*
X0236013Y0203498D01*
X0238975Y0202271D01*
X0242182Y0202271D01*
X0245144Y0203498D01*
X0247411Y0205765D01*
X0248638Y0208727D01*
X0248638Y0211934D01*
X0247411Y0214896D01*
X0245144Y0217164D01*
X0246307Y0216001D02*
X0257478Y0216001D01*
X0257478Y0214402D02*
X0247616Y0214402D01*
X0248278Y0212803D02*
X0257478Y0212803D01*
X0257478Y0211205D02*
X0248638Y0211205D01*
X0248638Y0209606D02*
X0257478Y0209606D01*
X0257478Y0208008D02*
X0248340Y0208008D01*
X0247678Y0206409D02*
X0257478Y0206409D01*
X0257478Y0204811D02*
X0246457Y0204811D01*
X0244455Y0203212D02*
X0257478Y0203212D01*
X0257478Y0201614D02*
X0197478Y0201614D01*
X0197478Y0203212D02*
X0236702Y0203212D01*
X0234700Y0204811D02*
X0197478Y0204811D01*
X0197478Y0206409D02*
X0233479Y0206409D01*
X0232817Y0208008D02*
X0197478Y0208008D01*
X0197478Y0209606D02*
X0232519Y0209606D01*
X0232519Y0211205D02*
X0197478Y0211205D01*
X0197478Y0212803D02*
X0232879Y0212803D01*
X0233541Y0214402D02*
X0197478Y0214402D01*
X0197478Y0216001D02*
X0234850Y0216001D01*
X0237064Y0217599D02*
X0197478Y0217599D01*
X0193278Y0217599D02*
X0192049Y0217599D01*
X0193278Y0216370D02*
X0190178Y0219470D01*
X0190178Y0226163D01*
X0189241Y0227100D01*
X0188767Y0227100D01*
X0189461Y0227605D01*
X0190074Y0228217D01*
X0190582Y0228917D01*
X0190975Y0229689D01*
X0191243Y0230512D01*
X0191378Y0231367D01*
X0191378Y0231600D01*
X0186079Y0231600D01*
X0186079Y0232000D01*
X0191378Y0232000D01*
X0191378Y0232233D01*
X0191360Y0232348D01*
X0193278Y0230430D01*
X0193278Y0216370D01*
X0193278Y0219198D02*
X0190451Y0219198D01*
X0190178Y0220796D02*
X0193278Y0220796D01*
X0193278Y0222395D02*
X0190178Y0222395D01*
X0190178Y0223993D02*
X0193278Y0223993D01*
X0193278Y0225592D02*
X0190178Y0225592D01*
X0188891Y0227190D02*
X0193278Y0227190D01*
X0193278Y0228789D02*
X0190489Y0228789D01*
X0191202Y0230387D02*
X0193278Y0230387D01*
X0191723Y0231986D02*
X0186079Y0231986D01*
X0185678Y0231986D02*
X0165678Y0231986D01*
X0165583Y0233584D02*
X0180675Y0233584D01*
X0181538Y0235183D02*
X0164921Y0235183D01*
X0163393Y0236781D02*
X0183145Y0236781D01*
X0189860Y0239978D02*
X0224728Y0239978D01*
X0224728Y0238380D02*
X0191269Y0238380D01*
X0192867Y0236781D02*
X0225503Y0236781D01*
X0227102Y0235183D02*
X0194466Y0235183D01*
X0196064Y0233584D02*
X0238111Y0233584D01*
X0235904Y0231986D02*
X0197478Y0231986D01*
X0197478Y0230387D02*
X0234880Y0230387D01*
X0234420Y0228789D02*
X0197478Y0228789D01*
X0197478Y0227190D02*
X0239902Y0227190D01*
X0239902Y0225592D02*
X0241255Y0225592D01*
X0241255Y0223993D02*
X0239902Y0223993D01*
X0239902Y0222395D02*
X0241255Y0222395D01*
X0237565Y0222395D02*
X0197478Y0222395D01*
X0197478Y0223993D02*
X0235681Y0223993D01*
X0234763Y0225592D02*
X0197478Y0225592D01*
X0187708Y0216001D02*
X0164908Y0216001D01*
X0165878Y0217599D02*
X0179578Y0217599D01*
X0179578Y0219198D02*
X0165878Y0219198D01*
X0165878Y0220796D02*
X0179578Y0220796D01*
X0179578Y0222395D02*
X0165878Y0222395D01*
X0165878Y0223993D02*
X0179578Y0223993D01*
X0179578Y0225592D02*
X0165783Y0225592D01*
X0161892Y0227190D02*
X0182866Y0227190D01*
X0181268Y0228789D02*
X0164362Y0228789D01*
X0165323Y0230387D02*
X0180554Y0230387D01*
X0190178Y0241577D02*
X0224728Y0241577D01*
X0224728Y0243175D02*
X0190045Y0243175D01*
X0189383Y0244774D02*
X0224728Y0244774D01*
X0224728Y0246372D02*
X0187690Y0246372D01*
X0189827Y0247971D02*
X0224728Y0247971D01*
X0224728Y0249569D02*
X0190915Y0249569D01*
X0191347Y0251168D02*
X0224728Y0251168D01*
X0224728Y0252766D02*
X0191294Y0252766D01*
X0190744Y0254365D02*
X0224868Y0254365D01*
X0226330Y0255963D02*
X0189493Y0255963D01*
X0186078Y0255963D02*
X0185678Y0255963D01*
X0185678Y0254365D02*
X0186078Y0254365D01*
X0186078Y0252766D02*
X0185678Y0252766D01*
X0158865Y0227190D02*
X0158238Y0227190D01*
X0160178Y0225592D02*
X0160578Y0225592D01*
X0160578Y0223993D02*
X0160178Y0223993D01*
X0160178Y0222395D02*
X0160578Y0222395D01*
X0160578Y0220796D02*
X0160178Y0220796D01*
X0160178Y0219198D02*
X0160578Y0219198D01*
X0160578Y0217599D02*
X0160178Y0217599D01*
X0160178Y0216001D02*
X0160578Y0216001D01*
X0160678Y0214402D02*
X0161078Y0214402D01*
X0161078Y0212803D02*
X0160678Y0212803D01*
X0160678Y0211205D02*
X0161078Y0211205D01*
X0161079Y0209606D02*
X0185678Y0209606D01*
X0185678Y0210000D02*
X0180378Y0210000D01*
X0180378Y0210233D01*
X0180514Y0211088D01*
X0180781Y0211911D01*
X0181174Y0212683D01*
X0181683Y0213383D01*
X0182295Y0213995D01*
X0182996Y0214504D01*
X0183767Y0214897D01*
X0184591Y0215165D01*
X0185446Y0215300D01*
X0185678Y0215300D01*
X0185678Y0210000D01*
X0185678Y0211205D02*
X0186078Y0211205D01*
X0186078Y0212803D02*
X0185678Y0212803D01*
X0185678Y0214402D02*
X0186078Y0214402D01*
X0188901Y0214402D02*
X0189307Y0214402D01*
X0190495Y0212803D02*
X0190905Y0212803D01*
X0191205Y0211205D02*
X0191278Y0211205D01*
X0182855Y0214402D02*
X0163901Y0214402D01*
X0165495Y0212803D02*
X0181262Y0212803D01*
X0180552Y0211205D02*
X0166205Y0211205D01*
X0166079Y0208008D02*
X0180678Y0208008D01*
X0181543Y0206409D02*
X0165213Y0206409D01*
X0163202Y0204811D02*
X0183126Y0204811D01*
X0180796Y0203212D02*
X0163961Y0203212D01*
X0164864Y0201614D02*
X0167254Y0201614D01*
X0166778Y0200015D02*
X0165178Y0200015D01*
X0165042Y0198417D02*
X0167075Y0198417D01*
X0168573Y0196818D02*
X0164380Y0196818D01*
X0162671Y0195220D02*
X0171378Y0195220D01*
X0172793Y0193621D02*
X0164835Y0193621D01*
X0165919Y0192023D02*
X0174186Y0192023D01*
X0175784Y0190424D02*
X0166348Y0190424D01*
X0166293Y0188826D02*
X0177278Y0188826D01*
X0177278Y0187227D02*
X0165740Y0187227D01*
X0164485Y0185629D02*
X0177278Y0185629D01*
X0177278Y0184030D02*
X0165178Y0184030D01*
X0165178Y0182432D02*
X0177278Y0182432D01*
X0177278Y0180833D02*
X0165178Y0180833D01*
X0165178Y0179235D02*
X0177278Y0179235D01*
X0177278Y0177636D02*
X0165178Y0177636D01*
X0165178Y0176038D02*
X0177278Y0176038D01*
X0198789Y0190424D02*
X0302906Y0190424D01*
X0301133Y0192023D02*
X0197478Y0192023D01*
X0197478Y0193621D02*
X0299361Y0193621D01*
X0297588Y0195220D02*
X0197478Y0195220D01*
X0197478Y0196818D02*
X0295815Y0196818D01*
X0284622Y0198417D02*
X0197478Y0198417D01*
X0197478Y0200015D02*
X0257469Y0200015D01*
X0278011Y0177636D02*
X0280560Y0177636D01*
X0253239Y0163250D02*
X0252771Y0163250D01*
X0241528Y0155257D02*
X0201824Y0155257D01*
X0205453Y0142469D02*
X0242490Y0142469D01*
X0271948Y0140870D02*
X0204060Y0140870D01*
X0200697Y0140870D02*
X0175060Y0140870D01*
X0217415Y0115294D02*
X0218965Y0115294D01*
X0218965Y0113696D02*
X0217415Y0113696D01*
X0209178Y0107112D02*
X0210678Y0104600D01*
X0231388Y0113696D02*
X0231671Y0113696D01*
X0264453Y0096112D02*
X0004106Y0096112D01*
X0004104Y0097711D02*
X0267998Y0097711D01*
X0268304Y0096112D02*
X0269596Y0096112D01*
X0269502Y0094514D02*
X0269778Y0094514D01*
X0269728Y0092915D02*
X0269778Y0092915D01*
X0269778Y0091317D02*
X0269278Y0091317D01*
X0269278Y0089718D02*
X0269778Y0089718D01*
X0269778Y0088120D02*
X0269278Y0088120D01*
X0266878Y0093300D02*
X0266878Y0082100D01*
X0268342Y0073733D02*
X0218154Y0073733D01*
X0208305Y0070536D02*
X0176084Y0070536D01*
X0177683Y0072134D02*
X0207454Y0072134D01*
X0207454Y0073733D02*
X0179281Y0073733D01*
X0180880Y0075332D02*
X0207454Y0075332D01*
X0207454Y0076930D02*
X0182478Y0076930D01*
X0184077Y0078529D02*
X0207454Y0078529D01*
X0207454Y0080127D02*
X0185675Y0080127D01*
X0255066Y0043361D02*
X0268278Y0043361D01*
X0269641Y0031600D02*
X0269184Y0031477D01*
X0268773Y0031240D01*
X0268438Y0030905D01*
X0268201Y0030495D01*
X0268078Y0030037D01*
X0268078Y0026000D01*
X0273678Y0026000D01*
X0273678Y0024600D01*
X0268078Y0024600D01*
X0268078Y0020563D01*
X0268201Y0020105D01*
X0268438Y0019695D01*
X0268773Y0019360D01*
X0269184Y0019123D01*
X0269641Y0019000D01*
X0273678Y0019000D01*
X0273678Y0024600D01*
X0275078Y0024600D01*
X0275078Y0019000D01*
X0279115Y0019000D01*
X0279573Y0019123D01*
X0279984Y0019360D01*
X0280319Y0019695D01*
X0280556Y0020105D01*
X0280678Y0020563D01*
X0280678Y0024600D01*
X0275079Y0024600D01*
X0275079Y0026000D01*
X0280678Y0026000D01*
X0280678Y0030037D01*
X0280556Y0030495D01*
X0280319Y0030905D01*
X0279984Y0031240D01*
X0279573Y0031477D01*
X0279115Y0031600D01*
X0275078Y0031600D01*
X0275078Y0026000D01*
X0273678Y0026000D01*
X0273678Y0031600D01*
X0269641Y0031600D01*
X0268246Y0030573D02*
X0257368Y0030573D01*
X0257478Y0028975D02*
X0268078Y0028975D01*
X0268078Y0027376D02*
X0257478Y0027376D01*
X0257478Y0025778D02*
X0273678Y0025778D01*
X0275079Y0025778D02*
X0282778Y0025778D01*
X0282778Y0024179D02*
X0280678Y0024179D01*
X0280678Y0022581D02*
X0282778Y0022581D01*
X0282778Y0020982D02*
X0280678Y0020982D01*
X0280008Y0019384D02*
X0282778Y0019384D01*
X0282778Y0017785D02*
X0254978Y0017785D01*
X0254978Y0016187D02*
X0282778Y0016187D01*
X0283121Y0014588D02*
X0254978Y0014588D01*
X0254978Y0012990D02*
X0284719Y0012990D01*
X0286318Y0011391D02*
X0254774Y0011391D01*
X0253662Y0009793D02*
X0287916Y0009793D01*
X0289515Y0008194D02*
X0252064Y0008194D01*
X0250465Y0006596D02*
X0291113Y0006596D01*
X0275078Y0019384D02*
X0273678Y0019384D01*
X0273678Y0020982D02*
X0275078Y0020982D01*
X0275078Y0022581D02*
X0273678Y0022581D01*
X0273678Y0024179D02*
X0275078Y0024179D01*
X0275078Y0027376D02*
X0273678Y0027376D01*
X0273678Y0028975D02*
X0275078Y0028975D01*
X0275078Y0030573D02*
X0273678Y0030573D01*
X0280511Y0030573D02*
X0283278Y0030573D01*
X0283278Y0028975D02*
X0280678Y0028975D01*
X0280678Y0027376D02*
X0283278Y0027376D01*
X0268078Y0024179D02*
X0257478Y0024179D01*
X0257478Y0022581D02*
X0268078Y0022581D01*
X0268078Y0020982D02*
X0257478Y0020982D01*
X0256725Y0019384D02*
X0268749Y0019384D01*
X0248653Y0004997D02*
X0373578Y0004997D01*
X0373578Y0006596D02*
X0325144Y0006596D01*
X0326742Y0008194D02*
X0373578Y0008194D01*
X0373578Y0009793D02*
X0328341Y0009793D01*
X0329939Y0011391D02*
X0373578Y0011391D01*
X0373578Y0012990D02*
X0331538Y0012990D01*
X0333136Y0014588D02*
X0373578Y0014588D01*
X0373578Y0016187D02*
X0333978Y0016187D01*
X0333978Y0017785D02*
X0373578Y0017785D01*
X0373578Y0019384D02*
X0333978Y0019384D01*
X0333978Y0020982D02*
X0373578Y0020982D01*
X0373578Y0022581D02*
X0333978Y0022581D01*
X0333978Y0024179D02*
X0373578Y0024179D01*
X0373578Y0025778D02*
X0365016Y0025778D01*
X0368956Y0027376D02*
X0373578Y0027376D01*
X0373578Y0028975D02*
X0370892Y0028975D01*
X0372216Y0030573D02*
X0373578Y0030573D01*
X0373578Y0032172D02*
X0373139Y0032172D01*
X0373572Y0040164D02*
X0373578Y0040164D01*
X0373578Y0041763D02*
X0372946Y0041763D01*
X0373578Y0043361D02*
X0372023Y0043361D01*
X0370558Y0044960D02*
X0373578Y0044960D01*
X0373578Y0046558D02*
X0368377Y0046558D01*
X0373578Y0048157D02*
X0333978Y0048157D01*
X0333978Y0049755D02*
X0373578Y0049755D01*
X0373578Y0051354D02*
X0333978Y0051354D01*
X0333978Y0052952D02*
X0373578Y0052952D01*
X0373578Y0054551D02*
X0333978Y0054551D01*
X0333978Y0056149D02*
X0373578Y0056149D01*
X0373578Y0057748D02*
X0333978Y0057748D01*
X0333978Y0059346D02*
X0373578Y0059346D01*
X0373578Y0060945D02*
X0333978Y0060945D01*
X0333978Y0062543D02*
X0373578Y0062543D01*
X0373578Y0064142D02*
X0333978Y0064142D01*
X0333978Y0065740D02*
X0373578Y0065740D01*
X0373578Y0067339D02*
X0333978Y0067339D01*
X0333978Y0068937D02*
X0373578Y0068937D01*
X0373578Y0070536D02*
X0333978Y0070536D01*
X0333978Y0072134D02*
X0373578Y0072134D01*
X0373578Y0073733D02*
X0333978Y0073733D01*
X0333978Y0075332D02*
X0373578Y0075332D01*
X0373578Y0076930D02*
X0333978Y0076930D01*
X0333978Y0078529D02*
X0373578Y0078529D01*
X0373578Y0080127D02*
X0333978Y0080127D01*
X0333978Y0081726D02*
X0373578Y0081726D01*
X0373578Y0083324D02*
X0333978Y0083324D01*
X0333978Y0084923D02*
X0373578Y0084923D01*
X0373578Y0086521D02*
X0333127Y0086521D01*
X0331529Y0088120D02*
X0373578Y0088120D01*
X0373578Y0089718D02*
X0329930Y0089718D01*
X0328332Y0091317D02*
X0373578Y0091317D01*
X0373578Y0092915D02*
X0326733Y0092915D01*
X0322747Y0094514D02*
X0373578Y0094514D01*
X0373578Y0096112D02*
X0322747Y0096112D01*
X0322747Y0097711D02*
X0373578Y0097711D01*
X0373578Y0099309D02*
X0322719Y0099309D01*
X0322747Y0100908D02*
X0357049Y0100908D01*
X0357379Y0100771D02*
X0359778Y0100771D01*
X0361994Y0101689D01*
X0363690Y0103385D01*
X0364608Y0105601D01*
X0364608Y0107999D01*
X0363690Y0110215D01*
X0361994Y0111911D01*
X0359778Y0112829D01*
X0357379Y0112829D01*
X0355163Y0111911D01*
X0353467Y0110215D01*
X0352549Y0107999D01*
X0352549Y0105601D01*
X0353467Y0103385D01*
X0355163Y0101689D01*
X0357379Y0100771D01*
X0360108Y0100908D02*
X0373578Y0100908D01*
X0373578Y0102506D02*
X0362811Y0102506D01*
X0363988Y0104105D02*
X0373578Y0104105D01*
X0373578Y0105703D02*
X0364608Y0105703D01*
X0364608Y0107302D02*
X0373578Y0107302D01*
X0373578Y0108900D02*
X0364234Y0108900D01*
X0363406Y0110499D02*
X0373578Y0110499D01*
X0373578Y0112097D02*
X0361545Y0112097D01*
X0355612Y0112097D02*
X0307551Y0112097D01*
X0305952Y0113696D02*
X0373578Y0113696D01*
X0373578Y0115294D02*
X0329843Y0115294D01*
X0331441Y0116893D02*
X0373578Y0116893D01*
X0373578Y0118491D02*
X0333040Y0118491D01*
X0334638Y0120090D02*
X0373578Y0120090D01*
X0373578Y0121688D02*
X0336237Y0121688D01*
X0337835Y0123287D02*
X0373578Y0123287D01*
X0373578Y0124885D02*
X0339434Y0124885D01*
X0339478Y0126484D02*
X0373578Y0126484D01*
X0373578Y0128082D02*
X0339478Y0128082D01*
X0339478Y0129681D02*
X0373578Y0129681D01*
X0373578Y0131279D02*
X0339478Y0131279D01*
X0339478Y0132878D02*
X0373578Y0132878D01*
X0373578Y0134476D02*
X0339478Y0134476D01*
X0339478Y0136075D02*
X0373578Y0136075D01*
X0373578Y0137673D02*
X0339478Y0137673D01*
X0339478Y0139272D02*
X0373578Y0139272D01*
X0373578Y0140870D02*
X0339478Y0140870D01*
X0339478Y0142469D02*
X0373578Y0142469D01*
X0373578Y0144068D02*
X0339478Y0144068D01*
X0339478Y0145666D02*
X0373578Y0145666D01*
X0373578Y0147265D02*
X0339478Y0147265D01*
X0339478Y0148863D02*
X0373578Y0148863D01*
X0373578Y0150462D02*
X0339478Y0150462D01*
X0339478Y0152060D02*
X0373578Y0152060D01*
X0373578Y0153659D02*
X0339478Y0153659D01*
X0339478Y0155257D02*
X0373578Y0155257D01*
X0373578Y0156856D02*
X0339478Y0156856D01*
X0339478Y0158454D02*
X0373578Y0158454D01*
X0373578Y0160053D02*
X0339478Y0160053D01*
X0339478Y0161651D02*
X0373578Y0161651D01*
X0373578Y0163250D02*
X0339478Y0163250D01*
X0339478Y0164848D02*
X0373578Y0164848D01*
X0373578Y0166447D02*
X0355899Y0166447D01*
X0358018Y0168045D02*
X0373578Y0168045D01*
X0373578Y0169644D02*
X0359616Y0169644D01*
X0360745Y0171242D02*
X0373578Y0171242D01*
X0373578Y0172841D02*
X0360778Y0172841D01*
X0360778Y0174439D02*
X0373578Y0174439D01*
X0373578Y0176038D02*
X0360778Y0176038D01*
X0360778Y0177636D02*
X0373578Y0177636D01*
X0373578Y0179235D02*
X0360778Y0179235D01*
X0360778Y0180833D02*
X0373578Y0180833D01*
X0373578Y0182432D02*
X0362737Y0182432D01*
X0363957Y0184030D02*
X0373578Y0184030D01*
X0373578Y0185629D02*
X0364608Y0185629D01*
X0364608Y0187227D02*
X0373578Y0187227D01*
X0373578Y0188826D02*
X0364265Y0188826D01*
X0363481Y0190424D02*
X0373578Y0190424D01*
X0373578Y0192023D02*
X0361724Y0192023D01*
X0358578Y0186800D02*
X0358378Y0186600D01*
X0358378Y0171800D01*
X0355838Y0169260D01*
X0353103Y0169260D01*
X0349534Y0169644D02*
X0347423Y0169644D01*
X0347423Y0169260D02*
X0343654Y0169260D01*
X0343654Y0169260D01*
X0339886Y0169260D01*
X0339886Y0167645D01*
X0340008Y0167187D01*
X0340245Y0166777D01*
X0340580Y0166442D01*
X0340991Y0166205D01*
X0341449Y0166082D01*
X0343654Y0166082D01*
X0343654Y0169260D01*
X0343654Y0169260D01*
X0343654Y0166082D01*
X0345860Y0166082D01*
X0346317Y0166205D01*
X0346728Y0166442D01*
X0347063Y0166777D01*
X0347300Y0167187D01*
X0347423Y0167645D01*
X0347423Y0169260D01*
X0347423Y0168045D02*
X0349534Y0168045D01*
X0350307Y0166447D02*
X0346733Y0166447D01*
X0343654Y0166447D02*
X0343654Y0166447D01*
X0343654Y0168045D02*
X0343654Y0168045D01*
X0340575Y0166447D02*
X0339478Y0166447D01*
X0339478Y0168045D02*
X0339886Y0168045D01*
X0339886Y0169644D02*
X0339478Y0169644D01*
X0347324Y0171242D02*
X0347466Y0171242D01*
X0343654Y0176740D02*
X0342438Y0176740D01*
X0338378Y0180800D01*
X0338378Y0186600D01*
X0338578Y0186800D01*
X0332892Y0188826D02*
X0332678Y0188826D01*
X0332678Y0190424D02*
X0333676Y0190424D01*
X0332678Y0192023D02*
X0335433Y0192023D01*
X0332678Y0193621D02*
X0373578Y0193621D01*
X0373578Y0195220D02*
X0332678Y0195220D01*
X0332678Y0196818D02*
X0373578Y0196818D01*
X0373578Y0198417D02*
X0332678Y0198417D01*
X0332678Y0200015D02*
X0373578Y0200015D01*
X0373578Y0201614D02*
X0332678Y0201614D01*
X0332678Y0203212D02*
X0373578Y0203212D01*
X0373578Y0204811D02*
X0332678Y0204811D01*
X0332678Y0206409D02*
X0373578Y0206409D01*
X0373578Y0208008D02*
X0332678Y0208008D01*
X0332678Y0209606D02*
X0373578Y0209606D01*
X0373578Y0211205D02*
X0332678Y0211205D01*
X0332678Y0212803D02*
X0373578Y0212803D01*
X0373578Y0214402D02*
X0332678Y0214402D01*
X0332678Y0216001D02*
X0373578Y0216001D01*
X0373578Y0217599D02*
X0332678Y0217599D01*
X0332678Y0219198D02*
X0373578Y0219198D01*
X0373578Y0220796D02*
X0332678Y0220796D01*
X0332678Y0222395D02*
X0373578Y0222395D01*
X0373578Y0223993D02*
X0332678Y0223993D01*
X0331157Y0225592D02*
X0373578Y0225592D01*
X0373578Y0227190D02*
X0329558Y0227190D01*
X0327960Y0228789D02*
X0373578Y0228789D01*
X0360064Y0244774D02*
X0340028Y0244774D01*
X0340028Y0246372D02*
X0358884Y0246372D01*
X0355433Y0192023D02*
X0341724Y0192023D01*
X0343481Y0190424D02*
X0353676Y0190424D01*
X0352892Y0188826D02*
X0344265Y0188826D01*
X0344608Y0187227D02*
X0352549Y0187227D01*
X0352549Y0185629D02*
X0344608Y0185629D01*
X0343957Y0184030D02*
X0353200Y0184030D01*
X0354420Y0182432D02*
X0349572Y0182432D01*
X0347185Y0182432D02*
X0342737Y0182432D01*
X0341739Y0180833D02*
X0345388Y0180833D01*
X0351369Y0180833D02*
X0355978Y0180833D01*
X0353103Y0179235D02*
X0353103Y0179235D01*
X0353103Y0177636D02*
X0353103Y0177636D01*
X0353751Y0110499D02*
X0310150Y0110499D01*
X0311678Y0108900D02*
X0352923Y0108900D01*
X0352549Y0107302D02*
X0311678Y0107302D01*
X0313147Y0105703D02*
X0315610Y0105703D01*
X0322747Y0105703D02*
X0352549Y0105703D01*
X0353169Y0104105D02*
X0322747Y0104105D01*
X0322747Y0102506D02*
X0354346Y0102506D01*
X0316128Y0099800D02*
X0315610Y0099282D01*
X0315610Y0093625D01*
X0315835Y0093400D01*
X0313113Y0093400D01*
X0313224Y0093593D01*
X0313347Y0094051D01*
X0313347Y0096269D01*
X0309763Y0096269D01*
X0309763Y0096638D01*
X0313347Y0096638D01*
X0313347Y0098856D01*
X0313224Y0099314D01*
X0312987Y0099724D01*
X0312770Y0099941D01*
X0313147Y0100318D01*
X0313147Y0101046D01*
X0315610Y0101046D01*
X0315610Y0100318D01*
X0316128Y0099800D01*
X0315638Y0099309D02*
X0313225Y0099309D01*
X0313147Y0100908D02*
X0315610Y0100908D01*
X0315610Y0097711D02*
X0313347Y0097711D01*
X0313347Y0096112D02*
X0315610Y0096112D01*
X0315610Y0094514D02*
X0313347Y0094514D01*
X0304278Y0080127D02*
X0293478Y0080127D01*
X0293478Y0078529D02*
X0304278Y0078529D01*
X0304278Y0076930D02*
X0293478Y0076930D01*
X0293478Y0075332D02*
X0304278Y0075332D01*
X0304278Y0073733D02*
X0292281Y0073733D01*
X0290683Y0072134D02*
X0304278Y0072134D01*
X0279416Y0056149D02*
X0279341Y0056149D01*
X0266878Y0093300D02*
X0266378Y0093300D01*
X0266399Y0099309D02*
X0004103Y0099309D01*
X0004166Y0017785D02*
X0008023Y0017785D01*
X0006425Y0016187D02*
X0004167Y0016187D01*
X0004169Y0014588D02*
X0005619Y0014588D01*
X0005067Y0012990D02*
X0004170Y0012990D01*
X0004171Y0011391D02*
X0005067Y0011391D01*
X0005296Y0009793D02*
X0004172Y0009793D01*
X0004174Y0008194D02*
X0005958Y0008194D01*
X0007242Y0006596D02*
X0004175Y0006596D01*
X0224777Y0176038D02*
X0233903Y0176038D01*
X0229305Y0177636D02*
X0227575Y0177636D01*
X0181922Y0193621D02*
X0178527Y0193621D01*
X0176987Y0195220D02*
X0182086Y0195220D01*
X0180377Y0196818D02*
X0175572Y0196818D01*
X0174157Y0198417D02*
X0179715Y0198417D01*
X0179578Y0200015D02*
X0173478Y0200015D01*
X0173003Y0201614D02*
X0179893Y0201614D01*
X0180125Y0192023D02*
X0180838Y0192023D01*
X0157855Y0214402D02*
X0156478Y0214402D01*
X0134014Y0187227D02*
X0133697Y0187227D01*
X0051978Y0245000D02*
X0045978Y0239000D01*
X0047121Y0247971D02*
X0047472Y0247971D01*
X0046184Y0249569D02*
X0049160Y0249569D01*
X0043872Y0251168D02*
X0060605Y0251168D01*
X0063352Y0251168D02*
X0080605Y0251168D01*
X0083352Y0251168D02*
X0100605Y0251168D01*
X0098052Y0249569D02*
X0094797Y0249569D01*
X0096485Y0247971D02*
X0097058Y0247971D01*
X0089160Y0249569D02*
X0085905Y0249569D01*
X0086899Y0247971D02*
X0087472Y0247971D01*
X0078052Y0249569D02*
X0074797Y0249569D01*
X0076485Y0247971D02*
X0077058Y0247971D01*
X0069160Y0249569D02*
X0065905Y0249569D01*
X0066899Y0247971D02*
X0067472Y0247971D01*
X0058052Y0249569D02*
X0054797Y0249569D01*
X0056485Y0247971D02*
X0057058Y0247971D01*
X0227128Y0251168D02*
X0262761Y0251168D01*
X0264359Y0249569D02*
X0243663Y0249569D01*
X0245502Y0247971D02*
X0265958Y0247971D01*
X0261162Y0252766D02*
X0227128Y0252766D01*
X0227128Y0243175D02*
X0234426Y0243175D01*
X0234898Y0241577D02*
X0227128Y0241577D01*
X0227128Y0239978D02*
X0235941Y0239978D01*
X0238182Y0238380D02*
X0227299Y0238380D01*
X0333978Y0046558D02*
X0357380Y0046558D01*
X0355199Y0044960D02*
X0333978Y0044960D01*
X0333978Y0043361D02*
X0353734Y0043361D01*
X0352811Y0041763D02*
X0333978Y0041763D01*
X0333978Y0040164D02*
X0352185Y0040164D01*
X0351757Y0038566D02*
X0333978Y0038566D01*
X0333978Y0036967D02*
X0351678Y0036967D01*
X0351678Y0035369D02*
X0333978Y0035369D01*
X0333978Y0033770D02*
X0352095Y0033770D01*
X0352618Y0032172D02*
X0333978Y0032172D01*
X0333978Y0030573D02*
X0353541Y0030573D01*
X0354865Y0028975D02*
X0333978Y0028975D01*
X0333978Y0027376D02*
X0356801Y0027376D01*
X0360741Y0025778D02*
X0333978Y0025778D01*
D36*
X0331878Y0025764D02*
X0297879Y0025764D01*
X0297879Y0025800D02*
X0303378Y0025800D01*
X0303378Y0029997D01*
X0303276Y0030379D01*
X0303079Y0030721D01*
X0302799Y0031000D01*
X0302457Y0031198D01*
X0302076Y0031300D01*
X0297878Y0031300D01*
X0297878Y0025800D01*
X0296878Y0025800D01*
X0296878Y0024800D01*
X0291378Y0024800D01*
X0291378Y0020603D01*
X0291481Y0020221D01*
X0291678Y0019879D01*
X0291957Y0019600D01*
X0292299Y0019402D01*
X0292681Y0019300D01*
X0296878Y0019300D01*
X0296878Y0024800D01*
X0297878Y0024800D01*
X0297878Y0019300D01*
X0302076Y0019300D01*
X0302457Y0019402D01*
X0302799Y0019600D01*
X0303079Y0019879D01*
X0303276Y0020221D01*
X0303378Y0020603D01*
X0303378Y0024800D01*
X0297879Y0024800D01*
X0297879Y0025800D01*
X0297878Y0026763D02*
X0296878Y0026763D01*
X0296878Y0025800D02*
X0296878Y0031300D01*
X0292681Y0031300D01*
X0292299Y0031198D01*
X0291957Y0031000D01*
X0291678Y0030721D01*
X0291481Y0030379D01*
X0291378Y0029997D01*
X0291378Y0025800D01*
X0296878Y0025800D01*
X0296878Y0025764D02*
X0284878Y0025764D01*
X0284878Y0025800D02*
X0285378Y0026300D01*
X0285378Y0036300D01*
X0288878Y0039800D01*
X0301378Y0039800D01*
X0306378Y0044800D01*
X0306378Y0088300D01*
X0309378Y0091300D01*
X0314693Y0091300D01*
X0314056Y0090663D01*
X0313507Y0089908D01*
X0313084Y0089076D01*
X0312795Y0088188D01*
X0312655Y0087300D01*
X0318078Y0087300D01*
X0318078Y0086300D01*
X0312655Y0086300D01*
X0312795Y0085412D01*
X0313084Y0084524D01*
X0313507Y0083692D01*
X0314056Y0082937D01*
X0314716Y0082278D01*
X0315471Y0081729D01*
X0316302Y0081305D01*
X0317190Y0081017D01*
X0318078Y0080876D01*
X0318078Y0086300D01*
X0319078Y0086300D01*
X0319078Y0080876D01*
X0319967Y0081017D01*
X0320854Y0081305D01*
X0321686Y0081729D01*
X0322441Y0082278D01*
X0323101Y0082937D01*
X0323649Y0083692D01*
X0324073Y0084524D01*
X0324362Y0085412D01*
X0324502Y0086300D01*
X0319079Y0086300D01*
X0319079Y0087300D01*
X0324502Y0087300D01*
X0324362Y0088188D01*
X0324073Y0089076D01*
X0323649Y0089908D01*
X0323101Y0090663D01*
X0322463Y0091300D01*
X0325378Y0091300D01*
X0331878Y0084800D01*
X0331878Y0016300D01*
X0323378Y0007800D01*
X0292878Y0007800D01*
X0284878Y0015800D01*
X0284878Y0025800D01*
X0284878Y0024766D02*
X0291378Y0024766D01*
X0291378Y0023767D02*
X0284878Y0023767D01*
X0284878Y0022769D02*
X0291378Y0022769D01*
X0291378Y0021770D02*
X0284878Y0021770D01*
X0284878Y0020772D02*
X0291378Y0020772D01*
X0291784Y0019773D02*
X0284878Y0019773D01*
X0284878Y0018775D02*
X0331878Y0018775D01*
X0331878Y0019773D02*
X0302973Y0019773D01*
X0303378Y0020772D02*
X0331878Y0020772D01*
X0331878Y0021770D02*
X0303378Y0021770D01*
X0303378Y0022769D02*
X0331878Y0022769D01*
X0331878Y0023767D02*
X0303378Y0023767D01*
X0303378Y0024766D02*
X0331878Y0024766D01*
X0331878Y0026763D02*
X0303378Y0026763D01*
X0303378Y0027761D02*
X0331878Y0027761D01*
X0331878Y0028760D02*
X0303378Y0028760D01*
X0303378Y0029758D02*
X0331878Y0029758D01*
X0331878Y0030757D02*
X0303043Y0030757D01*
X0297878Y0030757D02*
X0296878Y0030757D01*
X0296878Y0029758D02*
X0297878Y0029758D01*
X0297878Y0028760D02*
X0296878Y0028760D01*
X0296878Y0027761D02*
X0297878Y0027761D01*
X0297878Y0024766D02*
X0296878Y0024766D01*
X0296878Y0023767D02*
X0297878Y0023767D01*
X0297878Y0022769D02*
X0296878Y0022769D01*
X0296878Y0021770D02*
X0297878Y0021770D01*
X0297878Y0020772D02*
X0296878Y0020772D01*
X0296878Y0019773D02*
X0297878Y0019773D01*
X0291378Y0026763D02*
X0285378Y0026763D01*
X0285378Y0027761D02*
X0291378Y0027761D01*
X0291378Y0028760D02*
X0285378Y0028760D01*
X0285378Y0029758D02*
X0291378Y0029758D01*
X0291714Y0030757D02*
X0285378Y0030757D01*
X0285378Y0031755D02*
X0331878Y0031755D01*
X0331878Y0032754D02*
X0285378Y0032754D01*
X0285378Y0033752D02*
X0331878Y0033752D01*
X0331878Y0034751D02*
X0285378Y0034751D01*
X0285378Y0035749D02*
X0331878Y0035749D01*
X0331878Y0036748D02*
X0285826Y0036748D01*
X0286825Y0037746D02*
X0331878Y0037746D01*
X0331878Y0038745D02*
X0287823Y0038745D01*
X0288822Y0039743D02*
X0331878Y0039743D01*
X0331878Y0040742D02*
X0302320Y0040742D01*
X0303319Y0041740D02*
X0331878Y0041740D01*
X0331878Y0042739D02*
X0304317Y0042739D01*
X0305316Y0043737D02*
X0331878Y0043737D01*
X0331878Y0044736D02*
X0306314Y0044736D01*
X0306378Y0045734D02*
X0331878Y0045734D01*
X0331878Y0046733D02*
X0306378Y0046733D01*
X0306378Y0047732D02*
X0331878Y0047732D01*
X0331878Y0048730D02*
X0306378Y0048730D01*
X0306378Y0049729D02*
X0331878Y0049729D01*
X0331878Y0050727D02*
X0306378Y0050727D01*
X0306378Y0051726D02*
X0331878Y0051726D01*
X0331878Y0052724D02*
X0306378Y0052724D01*
X0306378Y0053723D02*
X0331878Y0053723D01*
X0331878Y0054721D02*
X0306378Y0054721D01*
X0306378Y0055720D02*
X0331878Y0055720D01*
X0331878Y0056718D02*
X0306378Y0056718D01*
X0306378Y0057717D02*
X0331878Y0057717D01*
X0331878Y0058715D02*
X0306378Y0058715D01*
X0306378Y0059714D02*
X0331878Y0059714D01*
X0331878Y0060712D02*
X0306378Y0060712D01*
X0306378Y0061711D02*
X0331878Y0061711D01*
X0331878Y0062709D02*
X0306378Y0062709D01*
X0306378Y0063708D02*
X0331878Y0063708D01*
X0331878Y0064706D02*
X0306378Y0064706D01*
X0306378Y0065705D02*
X0331878Y0065705D01*
X0331878Y0066703D02*
X0306378Y0066703D01*
X0306378Y0067702D02*
X0331878Y0067702D01*
X0331878Y0068700D02*
X0306378Y0068700D01*
X0306378Y0069699D02*
X0331878Y0069699D01*
X0331878Y0070697D02*
X0306378Y0070697D01*
X0306378Y0071696D02*
X0331878Y0071696D01*
X0331878Y0072694D02*
X0306378Y0072694D01*
X0306378Y0073693D02*
X0331878Y0073693D01*
X0331878Y0074691D02*
X0306378Y0074691D01*
X0306378Y0075690D02*
X0331878Y0075690D01*
X0331878Y0076688D02*
X0306378Y0076688D01*
X0306378Y0077687D02*
X0331878Y0077687D01*
X0331878Y0078685D02*
X0306378Y0078685D01*
X0306378Y0079684D02*
X0331878Y0079684D01*
X0331878Y0080682D02*
X0306378Y0080682D01*
X0306378Y0081681D02*
X0315565Y0081681D01*
X0314314Y0082679D02*
X0306378Y0082679D01*
X0306378Y0083678D02*
X0313518Y0083678D01*
X0313034Y0084676D02*
X0306378Y0084676D01*
X0306378Y0085675D02*
X0312754Y0085675D01*
X0312714Y0087672D02*
X0306378Y0087672D01*
X0306378Y0086673D02*
X0318078Y0086673D01*
X0318578Y0086800D02*
X0319178Y0087400D01*
X0319178Y0096454D01*
X0323096Y0090668D02*
X0326011Y0090668D01*
X0327009Y0089669D02*
X0323771Y0089669D01*
X0324205Y0088670D02*
X0328008Y0088670D01*
X0329006Y0087672D02*
X0324443Y0087672D01*
X0324403Y0085675D02*
X0331004Y0085675D01*
X0331878Y0084676D02*
X0324123Y0084676D01*
X0323639Y0083678D02*
X0331878Y0083678D01*
X0331878Y0082679D02*
X0322843Y0082679D01*
X0321592Y0081681D02*
X0331878Y0081681D01*
X0330005Y0086673D02*
X0319079Y0086673D01*
X0319078Y0085675D02*
X0318078Y0085675D01*
X0318078Y0084676D02*
X0319078Y0084676D01*
X0319078Y0083678D02*
X0318078Y0083678D01*
X0318078Y0082679D02*
X0319078Y0082679D01*
X0319078Y0081681D02*
X0318078Y0081681D01*
X0312952Y0088670D02*
X0306749Y0088670D01*
X0307747Y0089669D02*
X0313386Y0089669D01*
X0314061Y0090668D02*
X0308746Y0090668D01*
X0308096Y0103146D02*
X0300096Y0103146D01*
X0307378Y0109300D02*
X0290378Y0126300D01*
X0296878Y0130800D02*
X0306378Y0140300D01*
X0306378Y0159300D01*
X0304978Y0160700D01*
X0298278Y0160700D01*
X0298278Y0161254D01*
X0298278Y0161646D01*
X0298278Y0161254D02*
X0292055Y0167477D01*
X0294778Y0170200D01*
X0296832Y0170200D01*
X0292055Y0167477D02*
X0284128Y0175404D01*
X0278382Y0175404D01*
X0276178Y0173200D01*
X0274075Y0171096D01*
X0234778Y0170346D01*
X0230425Y0170346D01*
X0223378Y0163300D01*
X0234778Y0163654D02*
X0236132Y0163800D01*
X0240628Y0163800D01*
X0243028Y0166200D01*
X0242632Y0166200D01*
X0249325Y0166200D02*
X0255278Y0166200D01*
X0254628Y0166300D01*
X0252178Y0158200D02*
X0282678Y0158400D01*
X0286878Y0155800D01*
X0298178Y0155800D01*
X0298278Y0155700D01*
X0289478Y0159243D02*
X0287632Y0159046D01*
X0283378Y0163300D01*
X0276278Y0163300D01*
X0276178Y0163200D02*
X0265978Y0163200D01*
X0271128Y0167550D02*
X0271878Y0168300D01*
X0281378Y0168300D01*
X0281878Y0167800D01*
X0286378Y0167800D01*
X0288878Y0165300D01*
X0276128Y0154300D02*
X0276178Y0153200D01*
X0276128Y0154300D02*
X0247378Y0154300D01*
X0243628Y0160800D02*
X0243628Y0144300D01*
X0276128Y0144300D01*
X0276178Y0143200D01*
X0281378Y0139800D02*
X0281378Y0148050D01*
X0281378Y0139800D02*
X0305378Y0115800D01*
X0327378Y0115800D01*
X0337378Y0125800D01*
X0337378Y0171300D01*
X0339078Y0173000D01*
X0343654Y0173000D01*
X0348378Y0173300D02*
X0348378Y0179300D01*
X0348378Y0173300D02*
X0348678Y0173000D01*
X0353103Y0173000D01*
X0330578Y0172545D02*
X0307678Y0172545D01*
X0307678Y0171547D02*
X0330578Y0171547D01*
X0330578Y0170548D02*
X0307678Y0170548D01*
X0307678Y0169550D02*
X0330578Y0169550D01*
X0330578Y0168551D02*
X0307678Y0168551D01*
X0307678Y0167553D02*
X0330578Y0167553D01*
X0330578Y0166554D02*
X0307678Y0166554D01*
X0307678Y0165556D02*
X0330578Y0165556D01*
X0330578Y0164557D02*
X0307678Y0164557D01*
X0307678Y0163600D02*
X0307678Y0181400D01*
X0307178Y0189400D01*
X0294978Y0200400D01*
X0259578Y0200800D01*
X0259578Y0224600D01*
X0264178Y0229200D01*
X0324578Y0229200D01*
X0330578Y0223200D01*
X0330578Y0155800D01*
X0328778Y0154000D01*
X0308778Y0154000D01*
X0308878Y0162400D01*
X0307678Y0163600D01*
X0307720Y0163559D02*
X0330578Y0163559D01*
X0330578Y0162560D02*
X0308718Y0162560D01*
X0308868Y0161562D02*
X0330578Y0161562D01*
X0330578Y0160563D02*
X0308857Y0160563D01*
X0308845Y0159565D02*
X0330578Y0159565D01*
X0330578Y0158566D02*
X0308833Y0158566D01*
X0308821Y0157568D02*
X0330578Y0157568D01*
X0330578Y0156569D02*
X0308809Y0156569D01*
X0308797Y0155571D02*
X0330349Y0155571D01*
X0329351Y0154572D02*
X0308785Y0154572D01*
X0308978Y0151800D02*
X0327778Y0151800D01*
X0328478Y0148600D01*
X0328478Y0120500D01*
X0328378Y0120400D01*
X0309578Y0120400D01*
X0309578Y0150400D01*
X0308978Y0151800D01*
X0309074Y0151577D02*
X0327827Y0151577D01*
X0328046Y0150578D02*
X0309502Y0150578D01*
X0309578Y0149580D02*
X0328264Y0149580D01*
X0328478Y0148581D02*
X0309578Y0148581D01*
X0309578Y0147583D02*
X0328478Y0147583D01*
X0328478Y0146584D02*
X0309578Y0146584D01*
X0309578Y0145586D02*
X0328478Y0145586D01*
X0328478Y0144587D02*
X0309578Y0144587D01*
X0309578Y0143589D02*
X0328478Y0143589D01*
X0328478Y0142590D02*
X0309578Y0142590D01*
X0309578Y0141592D02*
X0328478Y0141592D01*
X0328478Y0140593D02*
X0309578Y0140593D01*
X0309578Y0139595D02*
X0328478Y0139595D01*
X0328478Y0138596D02*
X0309578Y0138596D01*
X0309578Y0137598D02*
X0328478Y0137598D01*
X0328478Y0136599D02*
X0309578Y0136599D01*
X0309578Y0135601D02*
X0328478Y0135601D01*
X0328478Y0134602D02*
X0309578Y0134602D01*
X0309578Y0133603D02*
X0328478Y0133603D01*
X0328478Y0132605D02*
X0309578Y0132605D01*
X0309578Y0131606D02*
X0328478Y0131606D01*
X0328478Y0130608D02*
X0309578Y0130608D01*
X0309578Y0129609D02*
X0328478Y0129609D01*
X0328478Y0128611D02*
X0309578Y0128611D01*
X0309578Y0127612D02*
X0328478Y0127612D01*
X0328478Y0126614D02*
X0309578Y0126614D01*
X0309578Y0125615D02*
X0328478Y0125615D01*
X0328478Y0124617D02*
X0309578Y0124617D01*
X0309578Y0123618D02*
X0328478Y0123618D01*
X0328478Y0122620D02*
X0309578Y0122620D01*
X0309578Y0121621D02*
X0328478Y0121621D01*
X0328478Y0120623D02*
X0309578Y0120623D01*
X0308378Y0109300D02*
X0307378Y0109300D01*
X0308378Y0109300D02*
X0309578Y0108100D01*
X0309578Y0103146D01*
X0308096Y0103146D01*
X0309578Y0103146D02*
X0319178Y0103146D01*
X0291378Y0116800D02*
X0290378Y0117800D01*
X0291378Y0116800D02*
X0291378Y0075800D01*
X0288378Y0072800D01*
X0270378Y0072800D01*
X0266878Y0069300D01*
X0266878Y0061500D01*
X0261625Y0061500D01*
X0261025Y0061700D01*
X0265032Y0053300D02*
X0259532Y0047800D01*
X0251878Y0047800D01*
X0251378Y0048300D01*
X0265032Y0053300D02*
X0266378Y0053300D01*
X0271878Y0058800D01*
X0271878Y0061500D01*
X0276878Y0061500D02*
X0276878Y0055300D01*
X0274378Y0052800D01*
X0274378Y0048300D01*
X0273878Y0047800D01*
X0266225Y0047800D01*
X0281878Y0061500D02*
X0284178Y0061500D01*
X0297378Y0048300D01*
X0284878Y0017776D02*
X0331878Y0017776D01*
X0331878Y0016778D02*
X0284878Y0016778D01*
X0284899Y0015779D02*
X0331358Y0015779D01*
X0330359Y0014781D02*
X0285898Y0014781D01*
X0286896Y0013782D02*
X0329361Y0013782D01*
X0328362Y0012784D02*
X0287895Y0012784D01*
X0288893Y0011785D02*
X0327364Y0011785D01*
X0326365Y0010787D02*
X0289892Y0010787D01*
X0290890Y0009788D02*
X0325367Y0009788D01*
X0324368Y0008790D02*
X0291889Y0008790D01*
X0276878Y0082100D02*
X0271878Y0082100D01*
X0271878Y0096800D01*
X0250378Y0118300D01*
X0244378Y0130800D02*
X0243878Y0130550D01*
X0136878Y0130550D01*
X0128378Y0138800D01*
X0123878Y0138800D01*
X0132378Y0142800D02*
X0133378Y0142300D01*
X0139878Y0134800D01*
X0234878Y0134800D01*
X0234378Y0135300D01*
X0223678Y0127100D02*
X0229928Y0122350D01*
X0234178Y0122100D02*
X0235428Y0117946D01*
X0235428Y0111254D02*
X0225375Y0111254D01*
X0225178Y0111057D01*
X0218234Y0111057D01*
X0218190Y0111100D01*
X0223678Y0127100D02*
X0195178Y0127350D01*
X0195178Y0123143D01*
X0195178Y0116057D02*
X0195378Y0116057D01*
X0194878Y0111800D01*
X0187378Y0084800D02*
X0142632Y0040054D01*
X0142632Y0038100D01*
X0147378Y0029800D02*
X0146378Y0026646D01*
X0143032Y0023300D01*
X0139300Y0023300D01*
X0137119Y0025481D01*
X0129638Y0025481D02*
X0129557Y0025400D01*
X0122090Y0025400D01*
X0122090Y0034042D01*
X0121978Y0034154D01*
X0121978Y0040846D02*
X0121978Y0041650D01*
X0125878Y0045550D01*
X0129638Y0035719D02*
X0129378Y0034978D01*
X0059978Y0114500D02*
X0060478Y0115000D01*
X0060478Y0148000D01*
X0051478Y0157000D01*
X0032478Y0157000D01*
X0030978Y0158500D01*
X0030978Y0160000D01*
X0035978Y0161000D02*
X0035632Y0163346D01*
X0035632Y0168000D01*
X0027325Y0168000D01*
X0027325Y0172654D01*
X0025978Y0174000D01*
X0020632Y0174000D01*
X0018978Y0175654D01*
X0024478Y0172000D02*
X0025225Y0171784D01*
X0024978Y0181000D02*
X0024978Y0185346D01*
X0022522Y0190000D01*
X0015435Y0190000D02*
X0015632Y0202543D01*
X0015238Y0205937D01*
X0022719Y0205937D02*
X0022719Y0209740D01*
X0027978Y0215000D01*
X0036978Y0210000D02*
X0040978Y0214000D01*
X0040978Y0218000D01*
X0042978Y0220000D01*
X0054215Y0220000D01*
X0063978Y0229764D01*
X0061978Y0220000D02*
X0072215Y0220000D01*
X0081978Y0229764D01*
X0078978Y0220000D02*
X0090215Y0220000D01*
X0099978Y0229764D01*
X0098215Y0229764D01*
X0096978Y0220000D02*
X0108215Y0220000D01*
X0116215Y0228000D01*
X0117978Y0229764D01*
X0117978Y0230000D01*
X0122978Y0221000D02*
X0123978Y0220000D01*
X0126978Y0213000D02*
X0141978Y0228000D01*
X0141978Y0231000D01*
X0127978Y0245000D01*
X0111978Y0245000D01*
X0101978Y0246000D02*
X0101978Y0244000D01*
X0092978Y0245000D02*
X0091978Y0245000D01*
X0096978Y0220000D02*
X0090978Y0214000D01*
X0090978Y0197669D01*
X0090978Y0182346D01*
X0096978Y0182000D02*
X0096978Y0185346D01*
X0094522Y0190000D01*
X0087435Y0190000D02*
X0087632Y0202543D01*
X0087238Y0205937D01*
X0094719Y0205937D02*
X0094719Y0209740D01*
X0099978Y0215000D01*
X0105238Y0205937D02*
X0105632Y0202543D01*
X0105435Y0190000D01*
X0112522Y0190000D02*
X0114978Y0187543D01*
X0114978Y0183000D01*
X0108978Y0182346D02*
X0108978Y0197669D01*
X0112719Y0205937D02*
X0112719Y0209740D01*
X0117978Y0215000D01*
X0126978Y0213000D02*
X0126978Y0197669D01*
X0126978Y0182346D01*
X0127632Y0182346D01*
X0127978Y0182000D01*
X0134632Y0182000D01*
X0134978Y0182346D01*
X0135632Y0183000D01*
X0136478Y0189500D02*
X0131022Y0189500D01*
X0130522Y0190000D01*
X0123435Y0190000D02*
X0123632Y0202543D01*
X0123238Y0205937D01*
X0130719Y0205937D02*
X0130719Y0207740D01*
X0135978Y0213000D01*
X0135978Y0215000D01*
X0154378Y0226300D02*
X0160378Y0232300D01*
X0154378Y0226300D02*
X0154378Y0165800D01*
X0157378Y0162400D01*
X0169378Y0162400D01*
X0169397Y0162819D01*
X0169397Y0165459D01*
X0169397Y0156781D01*
X0170378Y0155800D01*
X0199378Y0155800D01*
X0209578Y0165800D01*
X0206578Y0169000D02*
X0198378Y0157800D01*
X0173378Y0157800D01*
X0172547Y0158631D01*
X0172547Y0165454D01*
X0172378Y0165623D01*
X0172378Y0167800D01*
X0171378Y0168800D01*
X0161378Y0168800D01*
X0159878Y0170300D01*
X0159878Y0179800D01*
X0169409Y0172349D02*
X0169415Y0172344D01*
X0172559Y0172344D01*
X0172565Y0172338D01*
X0175906Y0172338D01*
X0178841Y0172338D01*
X0180178Y0171600D01*
X0180378Y0174800D02*
X0179378Y0175800D01*
X0179378Y0189800D01*
X0175906Y0193273D01*
X0170128Y0199800D01*
X0184878Y0199800D02*
X0191378Y0193300D01*
X0191378Y0185800D01*
X0193404Y0183775D01*
X0193404Y0172543D01*
X0196553Y0172543D02*
X0196553Y0181800D01*
X0199378Y0182050D01*
X0196553Y0181800D02*
X0196553Y0183625D01*
X0193378Y0186800D01*
X0193378Y0213300D01*
X0184878Y0221800D01*
X0195378Y0231300D02*
X0184878Y0241800D01*
X0195378Y0231300D02*
X0195378Y0190800D01*
X0202878Y0183550D01*
X0202878Y0180550D01*
X0200156Y0178578D01*
X0200156Y0172800D01*
X0199900Y0172543D01*
X0199900Y0165654D02*
X0196553Y0165654D01*
X0193404Y0165654D01*
X0190057Y0165654D01*
X0184232Y0165654D01*
X0179678Y0162000D01*
X0179777Y0165448D02*
X0175894Y0165448D01*
X0179777Y0165448D02*
X0186378Y0172050D01*
X0185841Y0172338D01*
X0186132Y0172054D02*
X0185125Y0172054D01*
X0182378Y0174800D01*
X0180378Y0174800D01*
X0186132Y0172054D02*
X0186378Y0172050D01*
X0190057Y0172543D02*
X0190057Y0174621D01*
X0184878Y0179800D01*
X0206628Y0175800D02*
X0220128Y0175800D01*
X0227128Y0179800D01*
X0231878Y0179800D01*
X0236378Y0178300D02*
X0254128Y0178300D01*
X0258278Y0183200D01*
X0276178Y0183200D01*
X0277282Y0182096D01*
X0284128Y0182096D01*
X0299293Y0196510D02*
X0330578Y0196510D01*
X0330578Y0197508D02*
X0298186Y0197508D01*
X0297078Y0198507D02*
X0330578Y0198507D01*
X0330578Y0199505D02*
X0295971Y0199505D01*
X0300401Y0195511D02*
X0330578Y0195511D01*
X0330578Y0194513D02*
X0301508Y0194513D01*
X0302615Y0193514D02*
X0330578Y0193514D01*
X0330578Y0192516D02*
X0303723Y0192516D01*
X0304830Y0191517D02*
X0330578Y0191517D01*
X0330578Y0190519D02*
X0305938Y0190519D01*
X0307045Y0189520D02*
X0330578Y0189520D01*
X0330578Y0188522D02*
X0307233Y0188522D01*
X0307296Y0187523D02*
X0330578Y0187523D01*
X0330578Y0186525D02*
X0307358Y0186525D01*
X0307421Y0185526D02*
X0330578Y0185526D01*
X0330578Y0184528D02*
X0307483Y0184528D01*
X0307545Y0183529D02*
X0330578Y0183529D01*
X0330578Y0182531D02*
X0307608Y0182531D01*
X0307670Y0181532D02*
X0330578Y0181532D01*
X0330578Y0180534D02*
X0307678Y0180534D01*
X0307678Y0179535D02*
X0330578Y0179535D01*
X0330578Y0178537D02*
X0307678Y0178537D01*
X0307678Y0177538D02*
X0330578Y0177538D01*
X0330578Y0176539D02*
X0307678Y0176539D01*
X0307678Y0175541D02*
X0330578Y0175541D01*
X0330578Y0174542D02*
X0307678Y0174542D01*
X0307678Y0173544D02*
X0330578Y0173544D01*
X0330578Y0200504D02*
X0285796Y0200504D01*
X0283142Y0203125D02*
X0283903Y0203887D01*
X0283903Y0215013D01*
X0283142Y0215775D01*
X0272015Y0215775D01*
X0271253Y0215013D01*
X0271253Y0203887D01*
X0272015Y0203125D01*
X0283142Y0203125D01*
X0283516Y0203499D02*
X0330578Y0203499D01*
X0330578Y0202501D02*
X0259578Y0202501D01*
X0259578Y0203499D02*
X0271641Y0203499D01*
X0271253Y0204498D02*
X0259578Y0204498D01*
X0259578Y0205496D02*
X0271253Y0205496D01*
X0271253Y0206495D02*
X0259578Y0206495D01*
X0259578Y0207493D02*
X0271253Y0207493D01*
X0271253Y0208492D02*
X0259578Y0208492D01*
X0259578Y0209490D02*
X0271253Y0209490D01*
X0271253Y0210489D02*
X0259578Y0210489D01*
X0259578Y0211487D02*
X0271253Y0211487D01*
X0271253Y0212486D02*
X0259578Y0212486D01*
X0259578Y0213484D02*
X0271253Y0213484D01*
X0271253Y0214483D02*
X0259578Y0214483D01*
X0259578Y0215481D02*
X0271721Y0215481D01*
X0283435Y0215481D02*
X0330578Y0215481D01*
X0330578Y0214483D02*
X0283903Y0214483D01*
X0283903Y0213484D02*
X0330578Y0213484D01*
X0330578Y0212486D02*
X0283903Y0212486D01*
X0283903Y0211487D02*
X0330578Y0211487D01*
X0330578Y0210489D02*
X0283903Y0210489D01*
X0283903Y0209490D02*
X0330578Y0209490D01*
X0330578Y0208492D02*
X0283903Y0208492D01*
X0283903Y0207493D02*
X0330578Y0207493D01*
X0330578Y0206495D02*
X0283903Y0206495D01*
X0283903Y0205496D02*
X0330578Y0205496D01*
X0330578Y0204498D02*
X0283903Y0204498D01*
X0259578Y0201502D02*
X0330578Y0201502D01*
X0330578Y0216480D02*
X0259578Y0216480D01*
X0259578Y0217478D02*
X0330578Y0217478D01*
X0330578Y0218477D02*
X0259578Y0218477D01*
X0259578Y0219475D02*
X0330578Y0219475D01*
X0330578Y0220474D02*
X0259578Y0220474D01*
X0259578Y0221472D02*
X0330578Y0221472D01*
X0330578Y0222471D02*
X0259578Y0222471D01*
X0259578Y0223470D02*
X0330309Y0223470D01*
X0329310Y0224468D02*
X0259578Y0224468D01*
X0260445Y0225467D02*
X0328312Y0225467D01*
X0327313Y0226465D02*
X0261444Y0226465D01*
X0262442Y0227464D02*
X0326315Y0227464D01*
X0325316Y0228462D02*
X0263441Y0228462D01*
X0224378Y0149800D02*
X0149378Y0149800D01*
X0146378Y0146800D01*
X0140378Y0146800D01*
X0133978Y0167654D02*
X0111978Y0148500D01*
X0103478Y0161000D02*
X0102978Y0167346D01*
X0102325Y0168000D01*
X0109632Y0168000D01*
X0109632Y0175000D01*
X0108978Y0175654D01*
X0108978Y0182000D02*
X0108978Y0182346D01*
X0095632Y0171000D02*
X0090978Y0175654D01*
X0090978Y0173654D01*
X0085325Y0168000D01*
X0080978Y0165654D02*
X0078632Y0168000D01*
X0072325Y0168000D01*
X0072325Y0175000D01*
X0072978Y0175654D01*
X0078978Y0180000D02*
X0078978Y0185346D01*
X0076522Y0190000D01*
X0069435Y0190000D02*
X0069632Y0202543D01*
X0069238Y0205937D01*
X0076719Y0205937D02*
X0076719Y0209740D01*
X0081978Y0215000D01*
X0078978Y0220000D02*
X0072978Y0214000D01*
X0072978Y0197669D01*
X0072978Y0182346D01*
X0060978Y0181000D02*
X0060978Y0185346D01*
X0058522Y0190000D01*
X0051435Y0190000D02*
X0051632Y0202543D01*
X0051238Y0205937D01*
X0058719Y0205937D02*
X0058719Y0209740D01*
X0063978Y0215000D01*
X0061978Y0220000D02*
X0054978Y0213000D01*
X0054978Y0197669D01*
X0054978Y0182346D01*
X0054978Y0175654D02*
X0059325Y0171307D01*
X0059325Y0168000D01*
X0065632Y0168000D01*
X0065632Y0157846D01*
X0068478Y0155000D01*
X0064978Y0167346D02*
X0065632Y0168000D01*
X0052978Y0167654D02*
X0052978Y0163000D01*
X0052978Y0167654D02*
X0052632Y0168000D01*
X0042325Y0168000D01*
X0042325Y0170307D01*
X0036978Y0175654D01*
X0042978Y0175000D02*
X0042978Y0185346D01*
X0040522Y0190000D01*
X0033435Y0190000D02*
X0033632Y0202543D01*
X0033238Y0205937D01*
X0036978Y0210000D02*
X0036978Y0197669D01*
X0036978Y0182346D01*
X0018978Y0182346D02*
X0018978Y0197669D01*
X0018978Y0219000D01*
X0023978Y0224000D01*
X0040215Y0224000D01*
X0045978Y0229764D01*
X0045978Y0215000D02*
X0040719Y0209740D01*
X0040719Y0205937D01*
X0095632Y0171000D02*
X0095632Y0168000D01*
X0095978Y0167654D01*
X0095978Y0161000D01*
X0080978Y0165654D02*
X0080978Y0151500D01*
X0115978Y0163000D02*
X0115978Y0167654D01*
X0116325Y0168000D01*
X0127632Y0168000D01*
X0127632Y0175000D01*
X0126978Y0175654D01*
X0134325Y0175000D02*
X0134978Y0175654D01*
X0134325Y0175000D02*
X0134325Y0168000D01*
X0133978Y0167654D01*
X0173378Y0143800D02*
X0202378Y0143800D01*
X0079378Y0117343D02*
X0076922Y0119800D01*
X0074878Y0121300D01*
D37*
X0074878Y0121300D03*
X0059978Y0114500D03*
X0079178Y0105950D03*
X0087178Y0105700D03*
X0092578Y0106400D03*
X0103778Y0108200D03*
X0123878Y0138800D03*
X0132378Y0142800D03*
X0140378Y0146800D03*
X0111978Y0148500D03*
X0103478Y0161000D03*
X0095978Y0161000D03*
X0080978Y0151500D03*
X0068478Y0155000D03*
X0052978Y0163000D03*
X0042978Y0175000D03*
X0060978Y0181000D03*
X0078978Y0180000D03*
X0096978Y0182000D03*
X0114978Y0183000D03*
X0136478Y0189500D03*
X0170128Y0199800D03*
X0199378Y0182050D03*
X0186378Y0172050D03*
X0180178Y0171600D03*
X0179678Y0162000D03*
X0173378Y0143800D03*
X0195178Y0127350D03*
X0194878Y0111800D03*
X0210678Y0104600D03*
X0222178Y0091600D03*
X0242378Y0105800D03*
X0230128Y0116800D03*
X0229928Y0122350D03*
X0244378Y0130800D03*
X0234878Y0134800D03*
X0224378Y0149800D03*
X0228378Y0159800D03*
X0223378Y0163300D03*
X0222878Y0172800D03*
X0231878Y0179800D03*
X0236378Y0178300D03*
X0254628Y0166300D03*
X0252178Y0158200D03*
X0247378Y0154300D03*
X0243628Y0160800D03*
X0266378Y0163300D03*
X0271128Y0167550D03*
X0288878Y0165300D03*
X0281378Y0148050D03*
X0292378Y0138800D03*
X0296878Y0130800D03*
X0290378Y0126300D03*
X0290378Y0117800D03*
X0295378Y0110800D03*
X0285378Y0096800D03*
X0281878Y0091800D03*
X0266378Y0093300D03*
X0250378Y0118300D03*
X0273378Y0129800D03*
X0209578Y0165800D03*
X0206578Y0169000D03*
X0202378Y0143800D03*
X0187378Y0084800D03*
X0125878Y0045550D03*
X0128878Y0030800D03*
X0147378Y0029800D03*
X0030978Y0160000D03*
X0035978Y0161000D03*
X0024978Y0181000D03*
X0115978Y0163000D03*
X0295778Y0181400D03*
X0348378Y0179300D03*
D38*
X0218378Y0123050D03*
X0218378Y0118550D03*
D39*
X0108978Y0197669D02*
X0108978Y0214000D01*
X0114978Y0220000D01*
X0123978Y0220000D01*
X0126215Y0220000D01*
X0135978Y0229764D01*
X0122978Y0232000D02*
X0122978Y0221000D01*
X0116215Y0228000D02*
X0109978Y0228000D01*
X0092978Y0245000D01*
X0101978Y0244000D02*
X0110978Y0235000D01*
X0119978Y0235000D01*
X0122978Y0232000D01*
X0098215Y0229764D02*
X0081978Y0246000D01*
X0071978Y0245000D02*
X0081978Y0235000D01*
X0081978Y0229764D01*
X0063978Y0229764D02*
X0063978Y0244000D01*
X0061978Y0246000D01*
X0045978Y0239000D02*
X0045978Y0229764D01*
D40*
X0093578Y0119400D02*
X0100125Y0119400D01*
X0100178Y0119346D01*
X0093578Y0119400D02*
X0092578Y0118400D01*
X0092578Y0106400D01*
X0087178Y0105700D02*
X0087178Y0109857D01*
X0087378Y0110057D01*
X0079378Y0110257D02*
X0079178Y0110057D01*
X0079178Y0105950D01*
X0100178Y0109200D02*
X0100178Y0112654D01*
X0100178Y0109200D02*
X0101178Y0108200D01*
X0103778Y0108200D01*
X0106378Y0108200D01*
X0107378Y0109200D01*
X0107378Y0112457D01*
D41*
X0129378Y0034978D02*
X0128878Y0030800D01*
D42*
X0207167Y0111100D02*
X0207167Y0115012D01*
X0225178Y0118143D02*
X0226522Y0116800D01*
X0230128Y0116800D01*
X0229928Y0122350D02*
X0234178Y0122100D01*
X0222878Y0172800D02*
X0200156Y0172800D01*
D43*
X0205878Y0119300D02*
X0205878Y0116300D01*
X0207167Y0115012D01*
X0207167Y0111100D02*
X0209178Y0107112D01*
D44*
X0205878Y0119300D03*
D45*
X0206628Y0175800D03*
D46*
X0251378Y0025300D02*
X0251378Y0012600D01*
X0246978Y0008200D01*
X0160778Y0008200D01*
X0157778Y0005200D01*
X0127178Y0005200D01*
X0125778Y0006600D01*
X0125778Y0013100D01*
X0125878Y0013200D01*
M02*
