%
M48
M72
T01C0.01200
T02C0.01969
T03C0.02362
T04C0.03543
T05C0.04134
%
T01
X557064Y236400
X561864Y237600
X563964Y241800
X568164Y244500
X571464Y241800
X583264Y231600
X563764Y216300
X570064Y213800
X570064Y207200
X564264Y293100
X574464Y300900
X574464Y309000
X574464Y316800
X574464Y326100
X571464Y336300
X570564Y357000
T02
X541364Y370300
X534764Y360000
X529464Y354900
X533664Y336000
X528064Y327600
X509864Y312900
X528764Y308000
X528764Y285600
X523864Y265000
X515864Y258000
X515646Y263291
X505804Y263291
X509864Y256200
X510564Y233100
X526564Y217900
X556664Y229100
X565864Y224000
X570364Y229500
X570064Y201600
X548764Y191800
X553364Y171500
X551064Y159500
X548464Y150000
X528764Y145600
X524564Y128100
X532264Y109900
X532264Y98000
X536764Y88800
X511764Y88800
X517234Y65894
X517234Y56052
X595901Y34796
X600822Y34796
X486064Y119000
X528764Y168000
X511264Y184800
X478764Y181800
X471278Y171432
X461435Y171432
X422364Y194600
X411164Y205800
X411164Y213500
X392964Y223300
X392964Y230300
X390164Y235000
X393664Y238700
X385964Y239400
X381064Y236600
X355164Y245000
X340664Y238000
X341864Y257600
X341164Y265300
X337664Y276500
X325932Y272900
X325932Y263057
X301264Y261800
X270464Y292600
X229164Y277900
X222864Y277900
X216564Y277900
X220064Y268100
X203264Y261800
X196264Y269500
X173264Y246300
X173164Y241500
X166864Y226100
X193464Y220500
X202564Y240800
X157638Y274578
X147796Y274578
X147964Y261100
X115564Y252000
X103864Y261800
X115764Y281400
X117164Y312900
X117164Y319900
X117164Y334600
X117864Y352800
X103864Y360500
X117142Y366941
X117142Y376783
X93364Y389200
X146564Y367500
X159864Y367500
X152864Y382200
X211664Y347900
X211664Y336000
X215164Y324000
X208764Y306800
X153564Y315000
X276064Y352800
X281552Y369906
X281552Y379749
X335564Y418600
X355164Y426300
X344664Y392700
X362164Y384300
X343964Y373100
X343964Y352100
X384564Y333200
X384564Y322700
X384564Y312200
X384564Y301700
X390764Y295400
X398564Y293300
X420964Y284100
X419564Y273700
X420164Y265400
X408364Y251300
X408364Y245000
X399964Y263900
X395064Y263900
X390164Y263900
X385164Y263800
X379864Y263600
X341864Y294000
X341864Y315000
X459464Y354900
X473594Y365971
X473594Y375813
X473464Y385700
X468864Y389400
X508764Y387800
X508464Y368900
X530364Y384400
X550464Y392000
X553964Y386400
X536464Y421400
X536464Y427700
X595885Y437104
X600806Y437104
X559764Y330000
X555364Y265300
X402764Y181800
X399264Y194600
X381764Y182000
X362164Y172200
X346064Y172200
X345364Y163100
X345364Y140700
X373364Y158900
X346064Y186200
X342564Y217700
X390164Y214200
X293952Y158728
X284110Y158728
X297064Y114100
X325764Y104300
X334164Y86800
X350964Y77000
X338423Y66164
X338423Y56321
X350964Y98700
X346764Y109900
X200464Y122500
X200464Y129500
X200464Y136500
X200464Y143500
X178064Y130900
X171764Y130900
X166864Y137200
X160564Y137200
X150764Y154700
X119964Y148400
X119486Y158346
X119486Y168189
X96864Y153300
X88464Y163100
X117864Y185500
X99264Y200700
X115764Y209300
X111564Y222600
X139564Y187600
X182764Y186800
X117864Y134400
X117164Y114800
X96164Y110600
X122764Y91700
X133264Y67900
X159786Y65904
X159786Y56061
X554164Y123600
X569164Y148600
T03
X554664Y305900
X600764Y336800
X595764Y356800
X600764Y371800
X594764Y391800
X600764Y406800
X593764Y426800
T04
X23918Y75442
X22351Y89158
X23764Y102800
X37115Y89158
X38528Y102800
X37264Y119800
X22501Y119800
X23764Y135300
X38528Y135300
X37264Y151800
X22501Y151800
X22264Y168300
X37028Y168300
X38264Y187300
X23501Y187300
X23264Y203800
X38028Y203800
X35264Y223800
X20501Y223800
X20764Y240800
X35528Y240800
X34764Y258300
X20001Y258300
X20264Y273800
X35028Y273800
X33264Y288300
X18501Y288300
X18764Y303800
X33528Y303800
X33764Y319300
X19001Y319300
X19264Y333800
X34028Y333800
X34264Y350300
X19501Y350300
X20264Y365000
X35028Y365000
X34264Y379100
X19501Y379100
X19764Y400600
X34528Y400600
X34764Y414500
X20001Y414500
X245064Y331800
X243601Y317800
X244364Y303500
X259128Y303500
X258364Y317800
X259828Y331800
X260164Y347500
X245401Y347500
X247464Y363200
X262228Y363200
X262164Y377500
X247401Y377500
X243301Y288100
X245564Y273800
X260328Y273800
X259564Y260200
X244801Y260200
X244964Y245400
X243901Y231000
X244964Y216900
X244201Y203700
X244264Y190400
X242501Y177000
X243064Y164400
X257828Y164400
X257264Y177000
X259028Y190400
X258964Y203700
X259728Y216900
X258664Y231000
X259728Y245400
X258064Y288100
X434001Y335800
X434764Y322800
X435001Y309800
X449764Y309800
X449528Y322800
X448764Y335800
X450528Y349800
X435764Y349800
X435001Y362800
X449764Y362800
X449528Y376800
X434764Y376800
X434001Y389800
X448764Y389800
X452528Y290800
X437764Y290800
X437001Y277800
X451764Y277800
X454528Y260800
X453764Y246800
X454528Y232800
X451964Y218800
X437201Y218800
X439764Y205800
X439001Y192800
X439764Y178800
X435401Y165500
X450164Y165500
X449128Y152800
X434364Y152800
X439001Y139800
X438764Y126800
X439001Y114800
X440331Y102241
X438544Y89312
X453308Y89312
X455095Y102241
X453764Y114800
X453528Y126800
X453764Y139800
X454528Y178800
X453764Y192800
X454528Y205800
X439764Y232800
X439001Y246800
X439764Y260800
X256564Y150500
X241801Y150500
X242164Y137200
X256928Y137200
X255764Y123600
X241001Y123600
X241764Y111000
X256528Y111000
X255764Y98100
X256228Y84500
X241464Y84500
X241001Y98100
X308101Y84000
X308764Y70300
X323528Y70300
X322864Y84000
X460150Y76729
X474914Y76729
X90170Y77942
X75406Y77942
X73855Y93158
X88619Y93158
X38682Y75442
T05
X110488Y95778
X153199Y130178
X110415Y164730
X153126Y199130
X110438Y233630
X153149Y268030
X110460Y302530
X153171Y336930
X110464Y371400
X153093Y405830
X158804Y434430
X289234Y371382
X331845Y405882
X336756Y433682
X331923Y336882
X289212Y302582
X331801Y267982
X289190Y233582
X331879Y199182
X289237Y164730
X331926Y130230
X289296Y95824
X331804Y61330
X343993Y35830
X467971Y95862
X510604Y130202
X468019Y164690
X510624Y199090
X467941Y233590
X510652Y267990
X467963Y302490
X510675Y336890
X467986Y371390
X510622Y405820
X537308Y436690
X510577Y61369
X523961Y42265
X159166Y36178
X153177Y61278
M30
