G75*
%MOIN*%
%OFA0B0*%
%FSLAX25Y25*%
%IPPOS*%
%LPD*%
%AMOC8*
5,1,8,0,0,1.08239X$1,22.5*
%
%ADD10C,0.01000*%
%ADD11C,0.04000*%
%ADD12C,0.00800*%
%ADD13C,0.00000*%
%ADD14C,0.00500*%
%ADD15C,0.00600*%
D10*
X0062362Y0088833D02*
X0412362Y0088833D01*
X0412362Y0402455D01*
X0062362Y0402455D01*
X0062362Y0088833D01*
X0196085Y0189050D02*
X0196752Y0188383D01*
X0198087Y0188383D01*
X0198754Y0189050D01*
X0197419Y0190385D02*
X0196752Y0190385D01*
X0196085Y0189718D01*
X0196085Y0189050D01*
X0196752Y0190385D02*
X0196085Y0191052D01*
X0196085Y0191719D01*
X0196752Y0192386D01*
X0198087Y0192386D01*
X0198754Y0191719D01*
X0200689Y0191719D02*
X0201356Y0192386D01*
X0202691Y0192386D01*
X0203358Y0191719D01*
X0205293Y0191719D02*
X0205960Y0192386D01*
X0207295Y0192386D01*
X0207962Y0191719D01*
X0207962Y0189050D01*
X0207295Y0188383D01*
X0205960Y0188383D01*
X0205293Y0189050D01*
X0203358Y0188383D02*
X0200689Y0191052D01*
X0200689Y0191719D01*
X0200689Y0188383D02*
X0203358Y0188383D01*
X0236079Y0241725D02*
X0235412Y0242392D01*
X0235412Y0243727D01*
X0236079Y0244394D01*
X0235412Y0246329D02*
X0238081Y0248998D01*
X0238748Y0248998D01*
X0239415Y0248331D01*
X0239415Y0246996D01*
X0238748Y0246329D01*
X0238748Y0244394D02*
X0239415Y0243727D01*
X0239415Y0242392D01*
X0238748Y0241725D01*
X0236079Y0241725D01*
X0235412Y0246329D02*
X0235412Y0248998D01*
X0265512Y0269125D02*
X0269515Y0269125D01*
X0269515Y0271127D01*
X0268848Y0271794D01*
X0267514Y0271794D01*
X0266846Y0271127D01*
X0266846Y0269125D01*
X0266846Y0270460D02*
X0265512Y0271794D01*
X0266179Y0273729D02*
X0265512Y0274396D01*
X0265512Y0275731D01*
X0266179Y0276398D01*
X0266846Y0276398D01*
X0267514Y0275731D01*
X0267514Y0275064D01*
X0267514Y0275731D02*
X0268181Y0276398D01*
X0268848Y0276398D01*
X0269515Y0275731D01*
X0269515Y0274396D01*
X0268848Y0273729D01*
X0272479Y0261098D02*
X0273146Y0261098D01*
X0273814Y0260431D01*
X0273814Y0258429D01*
X0272479Y0258429D01*
X0271812Y0259096D01*
X0271812Y0260431D01*
X0272479Y0261098D01*
X0275148Y0259764D02*
X0273814Y0258429D01*
X0275148Y0259764D02*
X0275815Y0261098D01*
X0278212Y0257806D02*
X0278212Y0255137D01*
X0278212Y0256471D02*
X0282215Y0256471D01*
X0280881Y0255137D01*
X0281548Y0253202D02*
X0282215Y0252535D01*
X0282215Y0251200D01*
X0281548Y0250533D01*
X0278879Y0250533D01*
X0278212Y0251200D01*
X0278212Y0252535D01*
X0278879Y0253202D01*
X0275815Y0255160D02*
X0271812Y0255160D01*
X0271812Y0256494D02*
X0271812Y0253825D01*
X0271812Y0251890D02*
X0273146Y0250556D01*
X0273146Y0251223D02*
X0273146Y0249221D01*
X0271812Y0249221D02*
X0275815Y0249221D01*
X0275815Y0251223D01*
X0275148Y0251890D01*
X0273814Y0251890D01*
X0273146Y0251223D01*
X0274481Y0253825D02*
X0275815Y0255160D01*
X0286089Y0247209D02*
X0288758Y0247209D01*
X0288758Y0245207D01*
X0287423Y0245874D01*
X0286756Y0245874D01*
X0286089Y0245207D01*
X0286089Y0243872D01*
X0286756Y0243205D01*
X0288091Y0243205D01*
X0288758Y0243872D01*
X0290693Y0243205D02*
X0293362Y0243205D01*
X0293362Y0247209D01*
X0303985Y0260570D02*
X0306654Y0260570D01*
X0303985Y0263239D01*
X0303985Y0263906D01*
X0304652Y0264573D01*
X0305987Y0264573D01*
X0306654Y0263906D01*
X0309923Y0264573D02*
X0309923Y0260570D01*
X0308589Y0260570D02*
X0311258Y0260570D01*
X0313193Y0261237D02*
X0313860Y0260570D01*
X0315195Y0260570D01*
X0315862Y0261237D01*
X0315862Y0263906D01*
X0315195Y0264573D01*
X0313860Y0264573D01*
X0313193Y0263906D01*
X0311258Y0263239D02*
X0309923Y0264573D01*
X0309346Y0221698D02*
X0308679Y0221698D01*
X0308012Y0221031D01*
X0308012Y0219696D01*
X0308679Y0219029D01*
X0309346Y0219029D01*
X0310014Y0219696D01*
X0310014Y0221031D01*
X0309346Y0221698D01*
X0310014Y0221031D02*
X0310681Y0221698D01*
X0311348Y0221698D01*
X0312015Y0221031D01*
X0312015Y0219696D01*
X0311348Y0219029D01*
X0310681Y0219029D01*
X0310014Y0219696D01*
X0308012Y0217094D02*
X0308012Y0214425D01*
X0308012Y0215760D02*
X0312015Y0215760D01*
X0310681Y0214425D01*
X0311348Y0212490D02*
X0312015Y0211823D01*
X0312015Y0210489D01*
X0311348Y0209821D01*
X0308679Y0209821D01*
X0308012Y0210489D01*
X0308012Y0211823D01*
X0308679Y0212490D01*
X0309175Y0199400D02*
X0309175Y0198733D01*
X0307841Y0197399D01*
X0307841Y0195397D01*
X0307841Y0197399D02*
X0306506Y0198733D01*
X0306506Y0199400D01*
X0304571Y0198066D02*
X0303237Y0199400D01*
X0303237Y0195397D01*
X0304571Y0195397D02*
X0301902Y0195397D01*
X0290715Y0195827D02*
X0290715Y0194492D01*
X0290048Y0193825D01*
X0287379Y0193825D01*
X0286712Y0194492D01*
X0286712Y0195827D01*
X0287379Y0196494D01*
X0287379Y0198429D02*
X0286712Y0199096D01*
X0286712Y0200431D01*
X0287379Y0201098D01*
X0288046Y0201098D01*
X0288714Y0200431D01*
X0288714Y0199764D01*
X0288714Y0200431D02*
X0289381Y0201098D01*
X0290048Y0201098D01*
X0290715Y0200431D01*
X0290715Y0199096D01*
X0290048Y0198429D01*
X0290048Y0196494D02*
X0290715Y0195827D01*
X0278995Y0218383D02*
X0277660Y0218383D01*
X0276993Y0219050D01*
X0275058Y0218383D02*
X0272389Y0218383D01*
X0273723Y0218383D02*
X0273723Y0222386D01*
X0275058Y0221052D01*
X0276993Y0221719D02*
X0277660Y0222386D01*
X0278995Y0222386D01*
X0279662Y0221719D01*
X0279662Y0219050D01*
X0278995Y0218383D01*
X0270454Y0219050D02*
X0269787Y0218383D01*
X0268452Y0218383D01*
X0267785Y0219050D01*
X0267785Y0221719D01*
X0268452Y0222386D01*
X0269787Y0222386D01*
X0270454Y0221719D01*
X0270454Y0221052D01*
X0269787Y0220385D01*
X0267785Y0220385D01*
X0280087Y0167568D02*
X0279420Y0166901D01*
X0279420Y0165566D01*
X0280087Y0164899D01*
X0281421Y0164899D02*
X0282089Y0166234D01*
X0282089Y0166901D01*
X0281421Y0167568D01*
X0280087Y0167568D01*
X0281421Y0164899D02*
X0283423Y0164899D01*
X0283423Y0167568D01*
X0282756Y0162964D02*
X0283423Y0162297D01*
X0283423Y0160963D01*
X0282756Y0160295D01*
X0282756Y0158360D02*
X0283423Y0157693D01*
X0283423Y0156359D01*
X0282756Y0155691D01*
X0280087Y0155691D01*
X0279420Y0156359D01*
X0279420Y0157693D01*
X0280087Y0158360D01*
X0279420Y0160295D02*
X0279420Y0162964D01*
X0279420Y0160295D02*
X0282089Y0162964D01*
X0282756Y0162964D01*
X0325379Y0205933D02*
X0324712Y0206600D01*
X0324712Y0207935D01*
X0325379Y0208602D01*
X0324712Y0210537D02*
X0327381Y0213206D01*
X0328048Y0213206D01*
X0328715Y0212539D01*
X0328715Y0211204D01*
X0328048Y0210537D01*
X0328048Y0208602D02*
X0328715Y0207935D01*
X0328715Y0206600D01*
X0328048Y0205933D01*
X0325379Y0205933D01*
X0324712Y0210537D02*
X0324712Y0213206D01*
X0324712Y0215141D02*
X0324712Y0217810D01*
X0324712Y0216475D02*
X0328715Y0216475D01*
X0327381Y0215141D01*
X0386098Y0242962D02*
X0386098Y0244296D01*
X0386766Y0244963D01*
X0386098Y0246898D02*
X0388767Y0249567D01*
X0389435Y0249567D01*
X0390102Y0248900D01*
X0390102Y0247566D01*
X0389435Y0246898D01*
X0389435Y0244963D02*
X0390102Y0244296D01*
X0390102Y0242962D01*
X0389435Y0242295D01*
X0386766Y0242295D01*
X0386098Y0242962D01*
X0386098Y0246898D02*
X0386098Y0249567D01*
X0386766Y0251502D02*
X0389435Y0254171D01*
X0386766Y0254171D01*
X0386098Y0253504D01*
X0386098Y0252170D01*
X0386766Y0251502D01*
X0389435Y0251502D01*
X0390102Y0252170D01*
X0390102Y0253504D01*
X0389435Y0254171D01*
X0386076Y0279669D02*
X0384741Y0279669D01*
X0384074Y0280337D01*
X0382139Y0279669D02*
X0379470Y0279669D01*
X0380805Y0279669D02*
X0380805Y0283673D01*
X0382139Y0282338D01*
X0384074Y0283005D02*
X0384741Y0283673D01*
X0386076Y0283673D01*
X0386743Y0283005D01*
X0386743Y0280337D01*
X0386076Y0279669D01*
X0377535Y0281671D02*
X0374866Y0281671D01*
X0375533Y0283673D02*
X0377535Y0281671D01*
X0375533Y0279669D02*
X0375533Y0283673D01*
X0077315Y0343021D02*
X0077315Y0345023D01*
X0076648Y0345690D01*
X0075314Y0345690D01*
X0074646Y0345023D01*
X0074646Y0343021D01*
X0073312Y0343021D02*
X0077315Y0343021D01*
X0074646Y0344356D02*
X0073312Y0345690D01*
X0073312Y0347625D02*
X0075981Y0350294D01*
X0076648Y0350294D01*
X0077315Y0349627D01*
X0077315Y0348292D01*
X0076648Y0347625D01*
X0073312Y0347625D02*
X0073312Y0350294D01*
X0073979Y0352229D02*
X0074646Y0352229D01*
X0075314Y0352896D01*
X0075314Y0354231D01*
X0074646Y0354898D01*
X0073979Y0354898D01*
X0073312Y0354231D01*
X0073312Y0352896D01*
X0073979Y0352229D01*
X0075314Y0352896D02*
X0075981Y0352229D01*
X0076648Y0352229D01*
X0077315Y0352896D01*
X0077315Y0354231D01*
X0076648Y0354898D01*
X0075981Y0354898D01*
X0075314Y0354231D01*
X0075549Y0357732D02*
X0075549Y0359734D01*
X0076217Y0360401D01*
X0077551Y0360401D01*
X0078218Y0359734D01*
X0078218Y0357732D01*
X0074215Y0357732D01*
X0075549Y0359067D02*
X0074215Y0360401D01*
X0074215Y0362336D02*
X0074215Y0365005D01*
X0074215Y0363671D02*
X0078218Y0363671D01*
X0076884Y0362336D01*
X0077551Y0366940D02*
X0074882Y0366940D01*
X0077551Y0369609D01*
X0074882Y0369609D01*
X0074215Y0368942D01*
X0074215Y0367607D01*
X0074882Y0366940D01*
X0077551Y0366940D02*
X0078218Y0367607D01*
X0078218Y0368942D01*
X0077551Y0369609D01*
X0070676Y0290457D02*
X0070676Y0287788D01*
X0068675Y0287788D01*
X0069342Y0289123D01*
X0069342Y0289790D01*
X0068675Y0290457D01*
X0067340Y0290457D01*
X0066673Y0289790D01*
X0066673Y0288455D01*
X0067340Y0287788D01*
X0067340Y0285186D02*
X0070676Y0285186D01*
X0070676Y0284519D02*
X0070676Y0285853D01*
X0067340Y0285186D02*
X0066673Y0284519D01*
X0066673Y0283852D01*
X0067340Y0283184D01*
D11*
X0164724Y0120329D02*
X0235590Y0120329D01*
X0259212Y0120329D02*
X0334015Y0120329D01*
D12*
X0306630Y0202298D02*
X0301905Y0202298D01*
X0294425Y0207416D02*
X0294425Y0209778D01*
X0301905Y0214896D02*
X0306630Y0214896D01*
X0314110Y0209778D02*
X0314110Y0207416D01*
X0316099Y0248909D02*
X0323973Y0248909D01*
X0323973Y0258357D01*
X0316099Y0258357D01*
X0308225Y0258357D02*
X0301926Y0258357D01*
X0300351Y0256783D01*
X0300351Y0250483D01*
X0301926Y0248909D01*
X0308225Y0248909D01*
X0369258Y0267559D02*
X0377132Y0267559D01*
X0369258Y0267559D02*
X0369258Y0277008D01*
X0377132Y0277008D01*
X0385006Y0277008D02*
X0391305Y0277008D01*
X0392880Y0275433D01*
X0392880Y0269134D01*
X0391305Y0267559D01*
X0385006Y0267559D01*
D13*
X0373362Y0340455D02*
X0373365Y0340688D01*
X0373373Y0340921D01*
X0373388Y0341154D01*
X0373408Y0341386D01*
X0373433Y0341618D01*
X0373465Y0341849D01*
X0373502Y0342079D01*
X0373545Y0342308D01*
X0373593Y0342536D01*
X0373647Y0342763D01*
X0373706Y0342989D01*
X0373771Y0343213D01*
X0373841Y0343435D01*
X0373917Y0343655D01*
X0373999Y0343874D01*
X0374085Y0344090D01*
X0374177Y0344305D01*
X0374274Y0344517D01*
X0374376Y0344726D01*
X0374484Y0344933D01*
X0374596Y0345138D01*
X0374714Y0345339D01*
X0374836Y0345537D01*
X0374963Y0345733D01*
X0375095Y0345925D01*
X0375232Y0346114D01*
X0375373Y0346300D01*
X0375518Y0346482D01*
X0375669Y0346660D01*
X0375823Y0346835D01*
X0375982Y0347006D01*
X0376144Y0347173D01*
X0376311Y0347335D01*
X0376482Y0347494D01*
X0376657Y0347648D01*
X0376835Y0347799D01*
X0377017Y0347944D01*
X0377203Y0348085D01*
X0377392Y0348222D01*
X0377584Y0348354D01*
X0377780Y0348481D01*
X0377978Y0348603D01*
X0378179Y0348721D01*
X0378384Y0348833D01*
X0378591Y0348941D01*
X0378800Y0349043D01*
X0379012Y0349140D01*
X0379227Y0349232D01*
X0379443Y0349318D01*
X0379662Y0349400D01*
X0379882Y0349476D01*
X0380104Y0349546D01*
X0380328Y0349611D01*
X0380554Y0349670D01*
X0380781Y0349724D01*
X0381009Y0349772D01*
X0381238Y0349815D01*
X0381468Y0349852D01*
X0381699Y0349884D01*
X0381931Y0349909D01*
X0382163Y0349929D01*
X0382396Y0349944D01*
X0382629Y0349952D01*
X0382862Y0349955D01*
X0383095Y0349952D01*
X0383328Y0349944D01*
X0383561Y0349929D01*
X0383793Y0349909D01*
X0384025Y0349884D01*
X0384256Y0349852D01*
X0384486Y0349815D01*
X0384715Y0349772D01*
X0384943Y0349724D01*
X0385170Y0349670D01*
X0385396Y0349611D01*
X0385620Y0349546D01*
X0385842Y0349476D01*
X0386062Y0349400D01*
X0386281Y0349318D01*
X0386497Y0349232D01*
X0386712Y0349140D01*
X0386924Y0349043D01*
X0387133Y0348941D01*
X0387340Y0348833D01*
X0387545Y0348721D01*
X0387746Y0348603D01*
X0387944Y0348481D01*
X0388140Y0348354D01*
X0388332Y0348222D01*
X0388521Y0348085D01*
X0388707Y0347944D01*
X0388889Y0347799D01*
X0389067Y0347648D01*
X0389242Y0347494D01*
X0389413Y0347335D01*
X0389580Y0347173D01*
X0389742Y0347006D01*
X0389901Y0346835D01*
X0390055Y0346660D01*
X0390206Y0346482D01*
X0390351Y0346300D01*
X0390492Y0346114D01*
X0390629Y0345925D01*
X0390761Y0345733D01*
X0390888Y0345537D01*
X0391010Y0345339D01*
X0391128Y0345138D01*
X0391240Y0344933D01*
X0391348Y0344726D01*
X0391450Y0344517D01*
X0391547Y0344305D01*
X0391639Y0344090D01*
X0391725Y0343874D01*
X0391807Y0343655D01*
X0391883Y0343435D01*
X0391953Y0343213D01*
X0392018Y0342989D01*
X0392077Y0342763D01*
X0392131Y0342536D01*
X0392179Y0342308D01*
X0392222Y0342079D01*
X0392259Y0341849D01*
X0392291Y0341618D01*
X0392316Y0341386D01*
X0392336Y0341154D01*
X0392351Y0340921D01*
X0392359Y0340688D01*
X0392362Y0340455D01*
X0392359Y0340222D01*
X0392351Y0339989D01*
X0392336Y0339756D01*
X0392316Y0339524D01*
X0392291Y0339292D01*
X0392259Y0339061D01*
X0392222Y0338831D01*
X0392179Y0338602D01*
X0392131Y0338374D01*
X0392077Y0338147D01*
X0392018Y0337921D01*
X0391953Y0337697D01*
X0391883Y0337475D01*
X0391807Y0337255D01*
X0391725Y0337036D01*
X0391639Y0336820D01*
X0391547Y0336605D01*
X0391450Y0336393D01*
X0391348Y0336184D01*
X0391240Y0335977D01*
X0391128Y0335772D01*
X0391010Y0335571D01*
X0390888Y0335373D01*
X0390761Y0335177D01*
X0390629Y0334985D01*
X0390492Y0334796D01*
X0390351Y0334610D01*
X0390206Y0334428D01*
X0390055Y0334250D01*
X0389901Y0334075D01*
X0389742Y0333904D01*
X0389580Y0333737D01*
X0389413Y0333575D01*
X0389242Y0333416D01*
X0389067Y0333262D01*
X0388889Y0333111D01*
X0388707Y0332966D01*
X0388521Y0332825D01*
X0388332Y0332688D01*
X0388140Y0332556D01*
X0387944Y0332429D01*
X0387746Y0332307D01*
X0387545Y0332189D01*
X0387340Y0332077D01*
X0387133Y0331969D01*
X0386924Y0331867D01*
X0386712Y0331770D01*
X0386497Y0331678D01*
X0386281Y0331592D01*
X0386062Y0331510D01*
X0385842Y0331434D01*
X0385620Y0331364D01*
X0385396Y0331299D01*
X0385170Y0331240D01*
X0384943Y0331186D01*
X0384715Y0331138D01*
X0384486Y0331095D01*
X0384256Y0331058D01*
X0384025Y0331026D01*
X0383793Y0331001D01*
X0383561Y0330981D01*
X0383328Y0330966D01*
X0383095Y0330958D01*
X0382862Y0330955D01*
X0382629Y0330958D01*
X0382396Y0330966D01*
X0382163Y0330981D01*
X0381931Y0331001D01*
X0381699Y0331026D01*
X0381468Y0331058D01*
X0381238Y0331095D01*
X0381009Y0331138D01*
X0380781Y0331186D01*
X0380554Y0331240D01*
X0380328Y0331299D01*
X0380104Y0331364D01*
X0379882Y0331434D01*
X0379662Y0331510D01*
X0379443Y0331592D01*
X0379227Y0331678D01*
X0379012Y0331770D01*
X0378800Y0331867D01*
X0378591Y0331969D01*
X0378384Y0332077D01*
X0378179Y0332189D01*
X0377978Y0332307D01*
X0377780Y0332429D01*
X0377584Y0332556D01*
X0377392Y0332688D01*
X0377203Y0332825D01*
X0377017Y0332966D01*
X0376835Y0333111D01*
X0376657Y0333262D01*
X0376482Y0333416D01*
X0376311Y0333575D01*
X0376144Y0333737D01*
X0375982Y0333904D01*
X0375823Y0334075D01*
X0375669Y0334250D01*
X0375518Y0334428D01*
X0375373Y0334610D01*
X0375232Y0334796D01*
X0375095Y0334985D01*
X0374963Y0335177D01*
X0374836Y0335373D01*
X0374714Y0335571D01*
X0374596Y0335772D01*
X0374484Y0335977D01*
X0374376Y0336184D01*
X0374274Y0336393D01*
X0374177Y0336605D01*
X0374085Y0336820D01*
X0373999Y0337036D01*
X0373917Y0337255D01*
X0373841Y0337475D01*
X0373771Y0337697D01*
X0373706Y0337921D01*
X0373647Y0338147D01*
X0373593Y0338374D01*
X0373545Y0338602D01*
X0373502Y0338831D01*
X0373465Y0339061D01*
X0373433Y0339292D01*
X0373408Y0339524D01*
X0373388Y0339756D01*
X0373373Y0339989D01*
X0373365Y0340222D01*
X0373362Y0340455D01*
X0338187Y0352255D02*
X0338189Y0352367D01*
X0338195Y0352479D01*
X0338205Y0352591D01*
X0338219Y0352702D01*
X0338236Y0352812D01*
X0338258Y0352922D01*
X0338283Y0353032D01*
X0338313Y0353140D01*
X0338346Y0353247D01*
X0338383Y0353353D01*
X0338423Y0353457D01*
X0338468Y0353560D01*
X0338515Y0353661D01*
X0338567Y0353761D01*
X0338622Y0353859D01*
X0338680Y0353954D01*
X0338742Y0354048D01*
X0338807Y0354139D01*
X0338875Y0354228D01*
X0338946Y0354315D01*
X0339020Y0354399D01*
X0339097Y0354480D01*
X0339177Y0354559D01*
X0339260Y0354634D01*
X0339345Y0354707D01*
X0339433Y0354777D01*
X0339523Y0354843D01*
X0339616Y0354907D01*
X0339710Y0354967D01*
X0339807Y0355023D01*
X0339906Y0355076D01*
X0340006Y0355126D01*
X0340108Y0355172D01*
X0340212Y0355214D01*
X0340317Y0355253D01*
X0340424Y0355288D01*
X0340531Y0355319D01*
X0340640Y0355347D01*
X0340749Y0355370D01*
X0340860Y0355390D01*
X0340971Y0355406D01*
X0341082Y0355418D01*
X0341194Y0355426D01*
X0341306Y0355430D01*
X0341418Y0355430D01*
X0341530Y0355426D01*
X0341642Y0355418D01*
X0341753Y0355406D01*
X0341864Y0355390D01*
X0341975Y0355370D01*
X0342084Y0355347D01*
X0342193Y0355319D01*
X0342300Y0355288D01*
X0342407Y0355253D01*
X0342512Y0355214D01*
X0342616Y0355172D01*
X0342718Y0355126D01*
X0342818Y0355076D01*
X0342917Y0355023D01*
X0343014Y0354967D01*
X0343108Y0354907D01*
X0343201Y0354843D01*
X0343291Y0354777D01*
X0343379Y0354707D01*
X0343464Y0354634D01*
X0343547Y0354559D01*
X0343627Y0354480D01*
X0343704Y0354399D01*
X0343778Y0354315D01*
X0343849Y0354228D01*
X0343917Y0354139D01*
X0343982Y0354048D01*
X0344044Y0353954D01*
X0344102Y0353859D01*
X0344157Y0353761D01*
X0344209Y0353661D01*
X0344256Y0353560D01*
X0344301Y0353457D01*
X0344341Y0353353D01*
X0344378Y0353247D01*
X0344411Y0353140D01*
X0344441Y0353032D01*
X0344466Y0352922D01*
X0344488Y0352812D01*
X0344505Y0352702D01*
X0344519Y0352591D01*
X0344529Y0352479D01*
X0344535Y0352367D01*
X0344537Y0352255D01*
X0344535Y0352143D01*
X0344529Y0352031D01*
X0344519Y0351919D01*
X0344505Y0351808D01*
X0344488Y0351698D01*
X0344466Y0351588D01*
X0344441Y0351478D01*
X0344411Y0351370D01*
X0344378Y0351263D01*
X0344341Y0351157D01*
X0344301Y0351053D01*
X0344256Y0350950D01*
X0344209Y0350849D01*
X0344157Y0350749D01*
X0344102Y0350651D01*
X0344044Y0350556D01*
X0343982Y0350462D01*
X0343917Y0350371D01*
X0343849Y0350282D01*
X0343778Y0350195D01*
X0343704Y0350111D01*
X0343627Y0350030D01*
X0343547Y0349951D01*
X0343464Y0349876D01*
X0343379Y0349803D01*
X0343291Y0349733D01*
X0343201Y0349667D01*
X0343108Y0349603D01*
X0343014Y0349543D01*
X0342917Y0349487D01*
X0342818Y0349434D01*
X0342718Y0349384D01*
X0342616Y0349338D01*
X0342512Y0349296D01*
X0342407Y0349257D01*
X0342300Y0349222D01*
X0342193Y0349191D01*
X0342084Y0349163D01*
X0341975Y0349140D01*
X0341864Y0349120D01*
X0341753Y0349104D01*
X0341642Y0349092D01*
X0341530Y0349084D01*
X0341418Y0349080D01*
X0341306Y0349080D01*
X0341194Y0349084D01*
X0341082Y0349092D01*
X0340971Y0349104D01*
X0340860Y0349120D01*
X0340749Y0349140D01*
X0340640Y0349163D01*
X0340531Y0349191D01*
X0340424Y0349222D01*
X0340317Y0349257D01*
X0340212Y0349296D01*
X0340108Y0349338D01*
X0340006Y0349384D01*
X0339906Y0349434D01*
X0339807Y0349487D01*
X0339710Y0349543D01*
X0339616Y0349603D01*
X0339523Y0349667D01*
X0339433Y0349733D01*
X0339345Y0349803D01*
X0339260Y0349876D01*
X0339177Y0349951D01*
X0339097Y0350030D01*
X0339020Y0350111D01*
X0338946Y0350195D01*
X0338875Y0350282D01*
X0338807Y0350371D01*
X0338742Y0350462D01*
X0338680Y0350556D01*
X0338622Y0350651D01*
X0338567Y0350749D01*
X0338515Y0350849D01*
X0338468Y0350950D01*
X0338423Y0351053D01*
X0338383Y0351157D01*
X0338346Y0351263D01*
X0338313Y0351370D01*
X0338283Y0351478D01*
X0338258Y0351588D01*
X0338236Y0351698D01*
X0338219Y0351808D01*
X0338205Y0351919D01*
X0338195Y0352031D01*
X0338189Y0352143D01*
X0338187Y0352255D01*
X0214102Y0231164D02*
X0214104Y0231322D01*
X0214110Y0231480D01*
X0214120Y0231637D01*
X0214134Y0231795D01*
X0214152Y0231952D01*
X0214174Y0232108D01*
X0214199Y0232264D01*
X0214229Y0232419D01*
X0214263Y0232573D01*
X0214300Y0232727D01*
X0214342Y0232879D01*
X0214387Y0233031D01*
X0214436Y0233181D01*
X0214489Y0233330D01*
X0214545Y0233477D01*
X0214605Y0233623D01*
X0214669Y0233768D01*
X0214737Y0233911D01*
X0214808Y0234052D01*
X0214882Y0234191D01*
X0214961Y0234328D01*
X0215042Y0234463D01*
X0215127Y0234597D01*
X0215215Y0234728D01*
X0215307Y0234856D01*
X0215402Y0234983D01*
X0215500Y0235107D01*
X0215601Y0235228D01*
X0215705Y0235347D01*
X0215812Y0235463D01*
X0215922Y0235577D01*
X0216034Y0235687D01*
X0216150Y0235795D01*
X0216268Y0235900D01*
X0216389Y0236001D01*
X0216512Y0236100D01*
X0216638Y0236196D01*
X0216766Y0236288D01*
X0216896Y0236377D01*
X0217029Y0236463D01*
X0217164Y0236545D01*
X0217301Y0236624D01*
X0217439Y0236700D01*
X0217580Y0236772D01*
X0217722Y0236840D01*
X0217866Y0236905D01*
X0218012Y0236966D01*
X0218159Y0237024D01*
X0218308Y0237077D01*
X0218458Y0237127D01*
X0218609Y0237173D01*
X0218761Y0237216D01*
X0218914Y0237254D01*
X0219068Y0237289D01*
X0219223Y0237320D01*
X0219379Y0237346D01*
X0219535Y0237369D01*
X0219692Y0237388D01*
X0219849Y0237403D01*
X0220007Y0237414D01*
X0220165Y0237421D01*
X0220323Y0237424D01*
X0220480Y0237423D01*
X0220638Y0237418D01*
X0220796Y0237409D01*
X0220953Y0237396D01*
X0221111Y0237379D01*
X0221267Y0237358D01*
X0221423Y0237333D01*
X0221578Y0237305D01*
X0221733Y0237272D01*
X0221887Y0237235D01*
X0222039Y0237195D01*
X0222191Y0237151D01*
X0222341Y0237103D01*
X0222491Y0237051D01*
X0222639Y0236995D01*
X0222785Y0236936D01*
X0222930Y0236873D01*
X0223073Y0236807D01*
X0223215Y0236736D01*
X0223354Y0236663D01*
X0223492Y0236585D01*
X0223628Y0236505D01*
X0223761Y0236421D01*
X0223893Y0236333D01*
X0224022Y0236242D01*
X0224149Y0236148D01*
X0224274Y0236051D01*
X0224396Y0235951D01*
X0224515Y0235848D01*
X0224632Y0235741D01*
X0224746Y0235632D01*
X0224858Y0235520D01*
X0224966Y0235405D01*
X0225072Y0235288D01*
X0225174Y0235168D01*
X0225274Y0235045D01*
X0225370Y0234920D01*
X0225463Y0234792D01*
X0225553Y0234662D01*
X0225640Y0234530D01*
X0225723Y0234396D01*
X0225803Y0234260D01*
X0225879Y0234121D01*
X0225952Y0233981D01*
X0226022Y0233839D01*
X0226087Y0233696D01*
X0226149Y0233550D01*
X0226208Y0233404D01*
X0226262Y0233255D01*
X0226313Y0233106D01*
X0226360Y0232955D01*
X0226404Y0232803D01*
X0226443Y0232650D01*
X0226479Y0232496D01*
X0226510Y0232342D01*
X0226538Y0232186D01*
X0226562Y0232030D01*
X0226582Y0231873D01*
X0226598Y0231716D01*
X0226610Y0231559D01*
X0226618Y0231401D01*
X0226622Y0231243D01*
X0226622Y0231085D01*
X0226618Y0230927D01*
X0226610Y0230769D01*
X0226598Y0230612D01*
X0226582Y0230455D01*
X0226562Y0230298D01*
X0226538Y0230142D01*
X0226510Y0229986D01*
X0226479Y0229832D01*
X0226443Y0229678D01*
X0226404Y0229525D01*
X0226360Y0229373D01*
X0226313Y0229222D01*
X0226262Y0229073D01*
X0226208Y0228924D01*
X0226149Y0228778D01*
X0226087Y0228632D01*
X0226022Y0228489D01*
X0225952Y0228347D01*
X0225879Y0228207D01*
X0225803Y0228068D01*
X0225723Y0227932D01*
X0225640Y0227798D01*
X0225553Y0227666D01*
X0225463Y0227536D01*
X0225370Y0227408D01*
X0225274Y0227283D01*
X0225174Y0227160D01*
X0225072Y0227040D01*
X0224966Y0226923D01*
X0224858Y0226808D01*
X0224746Y0226696D01*
X0224632Y0226587D01*
X0224515Y0226480D01*
X0224396Y0226377D01*
X0224274Y0226277D01*
X0224149Y0226180D01*
X0224022Y0226086D01*
X0223893Y0225995D01*
X0223761Y0225907D01*
X0223628Y0225823D01*
X0223492Y0225743D01*
X0223354Y0225665D01*
X0223215Y0225592D01*
X0223073Y0225521D01*
X0222930Y0225455D01*
X0222785Y0225392D01*
X0222639Y0225333D01*
X0222491Y0225277D01*
X0222341Y0225225D01*
X0222191Y0225177D01*
X0222039Y0225133D01*
X0221887Y0225093D01*
X0221733Y0225056D01*
X0221578Y0225023D01*
X0221423Y0224995D01*
X0221267Y0224970D01*
X0221111Y0224949D01*
X0220953Y0224932D01*
X0220796Y0224919D01*
X0220638Y0224910D01*
X0220480Y0224905D01*
X0220323Y0224904D01*
X0220165Y0224907D01*
X0220007Y0224914D01*
X0219849Y0224925D01*
X0219692Y0224940D01*
X0219535Y0224959D01*
X0219379Y0224982D01*
X0219223Y0225008D01*
X0219068Y0225039D01*
X0218914Y0225074D01*
X0218761Y0225112D01*
X0218609Y0225155D01*
X0218458Y0225201D01*
X0218308Y0225251D01*
X0218159Y0225304D01*
X0218012Y0225362D01*
X0217866Y0225423D01*
X0217722Y0225488D01*
X0217580Y0225556D01*
X0217439Y0225628D01*
X0217301Y0225704D01*
X0217164Y0225783D01*
X0217029Y0225865D01*
X0216896Y0225951D01*
X0216766Y0226040D01*
X0216638Y0226132D01*
X0216512Y0226228D01*
X0216389Y0226327D01*
X0216268Y0226428D01*
X0216150Y0226533D01*
X0216034Y0226641D01*
X0215922Y0226751D01*
X0215812Y0226865D01*
X0215705Y0226981D01*
X0215601Y0227100D01*
X0215500Y0227221D01*
X0215402Y0227345D01*
X0215307Y0227472D01*
X0215215Y0227600D01*
X0215127Y0227731D01*
X0215042Y0227865D01*
X0214961Y0228000D01*
X0214882Y0228137D01*
X0214808Y0228276D01*
X0214737Y0228417D01*
X0214669Y0228560D01*
X0214605Y0228705D01*
X0214545Y0228851D01*
X0214489Y0228998D01*
X0214436Y0229147D01*
X0214387Y0229297D01*
X0214342Y0229449D01*
X0214300Y0229601D01*
X0214263Y0229755D01*
X0214229Y0229909D01*
X0214199Y0230064D01*
X0214174Y0230220D01*
X0214152Y0230376D01*
X0214134Y0230533D01*
X0214120Y0230691D01*
X0214110Y0230848D01*
X0214104Y0231006D01*
X0214102Y0231164D01*
X0190102Y0231164D02*
X0190104Y0231322D01*
X0190110Y0231480D01*
X0190120Y0231637D01*
X0190134Y0231795D01*
X0190152Y0231952D01*
X0190174Y0232108D01*
X0190199Y0232264D01*
X0190229Y0232419D01*
X0190263Y0232573D01*
X0190300Y0232727D01*
X0190342Y0232879D01*
X0190387Y0233031D01*
X0190436Y0233181D01*
X0190489Y0233330D01*
X0190545Y0233477D01*
X0190605Y0233623D01*
X0190669Y0233768D01*
X0190737Y0233911D01*
X0190808Y0234052D01*
X0190882Y0234191D01*
X0190961Y0234328D01*
X0191042Y0234463D01*
X0191127Y0234597D01*
X0191215Y0234728D01*
X0191307Y0234856D01*
X0191402Y0234983D01*
X0191500Y0235107D01*
X0191601Y0235228D01*
X0191705Y0235347D01*
X0191812Y0235463D01*
X0191922Y0235577D01*
X0192034Y0235687D01*
X0192150Y0235795D01*
X0192268Y0235900D01*
X0192389Y0236001D01*
X0192512Y0236100D01*
X0192638Y0236196D01*
X0192766Y0236288D01*
X0192896Y0236377D01*
X0193029Y0236463D01*
X0193164Y0236545D01*
X0193301Y0236624D01*
X0193439Y0236700D01*
X0193580Y0236772D01*
X0193722Y0236840D01*
X0193866Y0236905D01*
X0194012Y0236966D01*
X0194159Y0237024D01*
X0194308Y0237077D01*
X0194458Y0237127D01*
X0194609Y0237173D01*
X0194761Y0237216D01*
X0194914Y0237254D01*
X0195068Y0237289D01*
X0195223Y0237320D01*
X0195379Y0237346D01*
X0195535Y0237369D01*
X0195692Y0237388D01*
X0195849Y0237403D01*
X0196007Y0237414D01*
X0196165Y0237421D01*
X0196323Y0237424D01*
X0196480Y0237423D01*
X0196638Y0237418D01*
X0196796Y0237409D01*
X0196953Y0237396D01*
X0197111Y0237379D01*
X0197267Y0237358D01*
X0197423Y0237333D01*
X0197578Y0237305D01*
X0197733Y0237272D01*
X0197887Y0237235D01*
X0198039Y0237195D01*
X0198191Y0237151D01*
X0198341Y0237103D01*
X0198491Y0237051D01*
X0198639Y0236995D01*
X0198785Y0236936D01*
X0198930Y0236873D01*
X0199073Y0236807D01*
X0199215Y0236736D01*
X0199354Y0236663D01*
X0199492Y0236585D01*
X0199628Y0236505D01*
X0199761Y0236421D01*
X0199893Y0236333D01*
X0200022Y0236242D01*
X0200149Y0236148D01*
X0200274Y0236051D01*
X0200396Y0235951D01*
X0200515Y0235848D01*
X0200632Y0235741D01*
X0200746Y0235632D01*
X0200858Y0235520D01*
X0200966Y0235405D01*
X0201072Y0235288D01*
X0201174Y0235168D01*
X0201274Y0235045D01*
X0201370Y0234920D01*
X0201463Y0234792D01*
X0201553Y0234662D01*
X0201640Y0234530D01*
X0201723Y0234396D01*
X0201803Y0234260D01*
X0201879Y0234121D01*
X0201952Y0233981D01*
X0202022Y0233839D01*
X0202087Y0233696D01*
X0202149Y0233550D01*
X0202208Y0233404D01*
X0202262Y0233255D01*
X0202313Y0233106D01*
X0202360Y0232955D01*
X0202404Y0232803D01*
X0202443Y0232650D01*
X0202479Y0232496D01*
X0202510Y0232342D01*
X0202538Y0232186D01*
X0202562Y0232030D01*
X0202582Y0231873D01*
X0202598Y0231716D01*
X0202610Y0231559D01*
X0202618Y0231401D01*
X0202622Y0231243D01*
X0202622Y0231085D01*
X0202618Y0230927D01*
X0202610Y0230769D01*
X0202598Y0230612D01*
X0202582Y0230455D01*
X0202562Y0230298D01*
X0202538Y0230142D01*
X0202510Y0229986D01*
X0202479Y0229832D01*
X0202443Y0229678D01*
X0202404Y0229525D01*
X0202360Y0229373D01*
X0202313Y0229222D01*
X0202262Y0229073D01*
X0202208Y0228924D01*
X0202149Y0228778D01*
X0202087Y0228632D01*
X0202022Y0228489D01*
X0201952Y0228347D01*
X0201879Y0228207D01*
X0201803Y0228068D01*
X0201723Y0227932D01*
X0201640Y0227798D01*
X0201553Y0227666D01*
X0201463Y0227536D01*
X0201370Y0227408D01*
X0201274Y0227283D01*
X0201174Y0227160D01*
X0201072Y0227040D01*
X0200966Y0226923D01*
X0200858Y0226808D01*
X0200746Y0226696D01*
X0200632Y0226587D01*
X0200515Y0226480D01*
X0200396Y0226377D01*
X0200274Y0226277D01*
X0200149Y0226180D01*
X0200022Y0226086D01*
X0199893Y0225995D01*
X0199761Y0225907D01*
X0199628Y0225823D01*
X0199492Y0225743D01*
X0199354Y0225665D01*
X0199215Y0225592D01*
X0199073Y0225521D01*
X0198930Y0225455D01*
X0198785Y0225392D01*
X0198639Y0225333D01*
X0198491Y0225277D01*
X0198341Y0225225D01*
X0198191Y0225177D01*
X0198039Y0225133D01*
X0197887Y0225093D01*
X0197733Y0225056D01*
X0197578Y0225023D01*
X0197423Y0224995D01*
X0197267Y0224970D01*
X0197111Y0224949D01*
X0196953Y0224932D01*
X0196796Y0224919D01*
X0196638Y0224910D01*
X0196480Y0224905D01*
X0196323Y0224904D01*
X0196165Y0224907D01*
X0196007Y0224914D01*
X0195849Y0224925D01*
X0195692Y0224940D01*
X0195535Y0224959D01*
X0195379Y0224982D01*
X0195223Y0225008D01*
X0195068Y0225039D01*
X0194914Y0225074D01*
X0194761Y0225112D01*
X0194609Y0225155D01*
X0194458Y0225201D01*
X0194308Y0225251D01*
X0194159Y0225304D01*
X0194012Y0225362D01*
X0193866Y0225423D01*
X0193722Y0225488D01*
X0193580Y0225556D01*
X0193439Y0225628D01*
X0193301Y0225704D01*
X0193164Y0225783D01*
X0193029Y0225865D01*
X0192896Y0225951D01*
X0192766Y0226040D01*
X0192638Y0226132D01*
X0192512Y0226228D01*
X0192389Y0226327D01*
X0192268Y0226428D01*
X0192150Y0226533D01*
X0192034Y0226641D01*
X0191922Y0226751D01*
X0191812Y0226865D01*
X0191705Y0226981D01*
X0191601Y0227100D01*
X0191500Y0227221D01*
X0191402Y0227345D01*
X0191307Y0227472D01*
X0191215Y0227600D01*
X0191127Y0227731D01*
X0191042Y0227865D01*
X0190961Y0228000D01*
X0190882Y0228137D01*
X0190808Y0228276D01*
X0190737Y0228417D01*
X0190669Y0228560D01*
X0190605Y0228705D01*
X0190545Y0228851D01*
X0190489Y0228998D01*
X0190436Y0229147D01*
X0190387Y0229297D01*
X0190342Y0229449D01*
X0190300Y0229601D01*
X0190263Y0229755D01*
X0190229Y0229909D01*
X0190199Y0230064D01*
X0190174Y0230220D01*
X0190152Y0230376D01*
X0190134Y0230533D01*
X0190120Y0230691D01*
X0190110Y0230848D01*
X0190104Y0231006D01*
X0190102Y0231164D01*
X0166102Y0231164D02*
X0166104Y0231322D01*
X0166110Y0231480D01*
X0166120Y0231637D01*
X0166134Y0231795D01*
X0166152Y0231952D01*
X0166174Y0232108D01*
X0166199Y0232264D01*
X0166229Y0232419D01*
X0166263Y0232573D01*
X0166300Y0232727D01*
X0166342Y0232879D01*
X0166387Y0233031D01*
X0166436Y0233181D01*
X0166489Y0233330D01*
X0166545Y0233477D01*
X0166605Y0233623D01*
X0166669Y0233768D01*
X0166737Y0233911D01*
X0166808Y0234052D01*
X0166882Y0234191D01*
X0166961Y0234328D01*
X0167042Y0234463D01*
X0167127Y0234597D01*
X0167215Y0234728D01*
X0167307Y0234856D01*
X0167402Y0234983D01*
X0167500Y0235107D01*
X0167601Y0235228D01*
X0167705Y0235347D01*
X0167812Y0235463D01*
X0167922Y0235577D01*
X0168034Y0235687D01*
X0168150Y0235795D01*
X0168268Y0235900D01*
X0168389Y0236001D01*
X0168512Y0236100D01*
X0168638Y0236196D01*
X0168766Y0236288D01*
X0168896Y0236377D01*
X0169029Y0236463D01*
X0169164Y0236545D01*
X0169301Y0236624D01*
X0169439Y0236700D01*
X0169580Y0236772D01*
X0169722Y0236840D01*
X0169866Y0236905D01*
X0170012Y0236966D01*
X0170159Y0237024D01*
X0170308Y0237077D01*
X0170458Y0237127D01*
X0170609Y0237173D01*
X0170761Y0237216D01*
X0170914Y0237254D01*
X0171068Y0237289D01*
X0171223Y0237320D01*
X0171379Y0237346D01*
X0171535Y0237369D01*
X0171692Y0237388D01*
X0171849Y0237403D01*
X0172007Y0237414D01*
X0172165Y0237421D01*
X0172323Y0237424D01*
X0172480Y0237423D01*
X0172638Y0237418D01*
X0172796Y0237409D01*
X0172953Y0237396D01*
X0173111Y0237379D01*
X0173267Y0237358D01*
X0173423Y0237333D01*
X0173578Y0237305D01*
X0173733Y0237272D01*
X0173887Y0237235D01*
X0174039Y0237195D01*
X0174191Y0237151D01*
X0174341Y0237103D01*
X0174491Y0237051D01*
X0174639Y0236995D01*
X0174785Y0236936D01*
X0174930Y0236873D01*
X0175073Y0236807D01*
X0175215Y0236736D01*
X0175354Y0236663D01*
X0175492Y0236585D01*
X0175628Y0236505D01*
X0175761Y0236421D01*
X0175893Y0236333D01*
X0176022Y0236242D01*
X0176149Y0236148D01*
X0176274Y0236051D01*
X0176396Y0235951D01*
X0176515Y0235848D01*
X0176632Y0235741D01*
X0176746Y0235632D01*
X0176858Y0235520D01*
X0176966Y0235405D01*
X0177072Y0235288D01*
X0177174Y0235168D01*
X0177274Y0235045D01*
X0177370Y0234920D01*
X0177463Y0234792D01*
X0177553Y0234662D01*
X0177640Y0234530D01*
X0177723Y0234396D01*
X0177803Y0234260D01*
X0177879Y0234121D01*
X0177952Y0233981D01*
X0178022Y0233839D01*
X0178087Y0233696D01*
X0178149Y0233550D01*
X0178208Y0233404D01*
X0178262Y0233255D01*
X0178313Y0233106D01*
X0178360Y0232955D01*
X0178404Y0232803D01*
X0178443Y0232650D01*
X0178479Y0232496D01*
X0178510Y0232342D01*
X0178538Y0232186D01*
X0178562Y0232030D01*
X0178582Y0231873D01*
X0178598Y0231716D01*
X0178610Y0231559D01*
X0178618Y0231401D01*
X0178622Y0231243D01*
X0178622Y0231085D01*
X0178618Y0230927D01*
X0178610Y0230769D01*
X0178598Y0230612D01*
X0178582Y0230455D01*
X0178562Y0230298D01*
X0178538Y0230142D01*
X0178510Y0229986D01*
X0178479Y0229832D01*
X0178443Y0229678D01*
X0178404Y0229525D01*
X0178360Y0229373D01*
X0178313Y0229222D01*
X0178262Y0229073D01*
X0178208Y0228924D01*
X0178149Y0228778D01*
X0178087Y0228632D01*
X0178022Y0228489D01*
X0177952Y0228347D01*
X0177879Y0228207D01*
X0177803Y0228068D01*
X0177723Y0227932D01*
X0177640Y0227798D01*
X0177553Y0227666D01*
X0177463Y0227536D01*
X0177370Y0227408D01*
X0177274Y0227283D01*
X0177174Y0227160D01*
X0177072Y0227040D01*
X0176966Y0226923D01*
X0176858Y0226808D01*
X0176746Y0226696D01*
X0176632Y0226587D01*
X0176515Y0226480D01*
X0176396Y0226377D01*
X0176274Y0226277D01*
X0176149Y0226180D01*
X0176022Y0226086D01*
X0175893Y0225995D01*
X0175761Y0225907D01*
X0175628Y0225823D01*
X0175492Y0225743D01*
X0175354Y0225665D01*
X0175215Y0225592D01*
X0175073Y0225521D01*
X0174930Y0225455D01*
X0174785Y0225392D01*
X0174639Y0225333D01*
X0174491Y0225277D01*
X0174341Y0225225D01*
X0174191Y0225177D01*
X0174039Y0225133D01*
X0173887Y0225093D01*
X0173733Y0225056D01*
X0173578Y0225023D01*
X0173423Y0224995D01*
X0173267Y0224970D01*
X0173111Y0224949D01*
X0172953Y0224932D01*
X0172796Y0224919D01*
X0172638Y0224910D01*
X0172480Y0224905D01*
X0172323Y0224904D01*
X0172165Y0224907D01*
X0172007Y0224914D01*
X0171849Y0224925D01*
X0171692Y0224940D01*
X0171535Y0224959D01*
X0171379Y0224982D01*
X0171223Y0225008D01*
X0171068Y0225039D01*
X0170914Y0225074D01*
X0170761Y0225112D01*
X0170609Y0225155D01*
X0170458Y0225201D01*
X0170308Y0225251D01*
X0170159Y0225304D01*
X0170012Y0225362D01*
X0169866Y0225423D01*
X0169722Y0225488D01*
X0169580Y0225556D01*
X0169439Y0225628D01*
X0169301Y0225704D01*
X0169164Y0225783D01*
X0169029Y0225865D01*
X0168896Y0225951D01*
X0168766Y0226040D01*
X0168638Y0226132D01*
X0168512Y0226228D01*
X0168389Y0226327D01*
X0168268Y0226428D01*
X0168150Y0226533D01*
X0168034Y0226641D01*
X0167922Y0226751D01*
X0167812Y0226865D01*
X0167705Y0226981D01*
X0167601Y0227100D01*
X0167500Y0227221D01*
X0167402Y0227345D01*
X0167307Y0227472D01*
X0167215Y0227600D01*
X0167127Y0227731D01*
X0167042Y0227865D01*
X0166961Y0228000D01*
X0166882Y0228137D01*
X0166808Y0228276D01*
X0166737Y0228417D01*
X0166669Y0228560D01*
X0166605Y0228705D01*
X0166545Y0228851D01*
X0166489Y0228998D01*
X0166436Y0229147D01*
X0166387Y0229297D01*
X0166342Y0229449D01*
X0166300Y0229601D01*
X0166263Y0229755D01*
X0166229Y0229909D01*
X0166199Y0230064D01*
X0166174Y0230220D01*
X0166152Y0230376D01*
X0166134Y0230533D01*
X0166120Y0230691D01*
X0166110Y0230848D01*
X0166104Y0231006D01*
X0166102Y0231164D01*
X0142102Y0231164D02*
X0142104Y0231322D01*
X0142110Y0231480D01*
X0142120Y0231637D01*
X0142134Y0231795D01*
X0142152Y0231952D01*
X0142174Y0232108D01*
X0142199Y0232264D01*
X0142229Y0232419D01*
X0142263Y0232573D01*
X0142300Y0232727D01*
X0142342Y0232879D01*
X0142387Y0233031D01*
X0142436Y0233181D01*
X0142489Y0233330D01*
X0142545Y0233477D01*
X0142605Y0233623D01*
X0142669Y0233768D01*
X0142737Y0233911D01*
X0142808Y0234052D01*
X0142882Y0234191D01*
X0142961Y0234328D01*
X0143042Y0234463D01*
X0143127Y0234597D01*
X0143215Y0234728D01*
X0143307Y0234856D01*
X0143402Y0234983D01*
X0143500Y0235107D01*
X0143601Y0235228D01*
X0143705Y0235347D01*
X0143812Y0235463D01*
X0143922Y0235577D01*
X0144034Y0235687D01*
X0144150Y0235795D01*
X0144268Y0235900D01*
X0144389Y0236001D01*
X0144512Y0236100D01*
X0144638Y0236196D01*
X0144766Y0236288D01*
X0144896Y0236377D01*
X0145029Y0236463D01*
X0145164Y0236545D01*
X0145301Y0236624D01*
X0145439Y0236700D01*
X0145580Y0236772D01*
X0145722Y0236840D01*
X0145866Y0236905D01*
X0146012Y0236966D01*
X0146159Y0237024D01*
X0146308Y0237077D01*
X0146458Y0237127D01*
X0146609Y0237173D01*
X0146761Y0237216D01*
X0146914Y0237254D01*
X0147068Y0237289D01*
X0147223Y0237320D01*
X0147379Y0237346D01*
X0147535Y0237369D01*
X0147692Y0237388D01*
X0147849Y0237403D01*
X0148007Y0237414D01*
X0148165Y0237421D01*
X0148323Y0237424D01*
X0148480Y0237423D01*
X0148638Y0237418D01*
X0148796Y0237409D01*
X0148953Y0237396D01*
X0149111Y0237379D01*
X0149267Y0237358D01*
X0149423Y0237333D01*
X0149578Y0237305D01*
X0149733Y0237272D01*
X0149887Y0237235D01*
X0150039Y0237195D01*
X0150191Y0237151D01*
X0150341Y0237103D01*
X0150491Y0237051D01*
X0150639Y0236995D01*
X0150785Y0236936D01*
X0150930Y0236873D01*
X0151073Y0236807D01*
X0151215Y0236736D01*
X0151354Y0236663D01*
X0151492Y0236585D01*
X0151628Y0236505D01*
X0151761Y0236421D01*
X0151893Y0236333D01*
X0152022Y0236242D01*
X0152149Y0236148D01*
X0152274Y0236051D01*
X0152396Y0235951D01*
X0152515Y0235848D01*
X0152632Y0235741D01*
X0152746Y0235632D01*
X0152858Y0235520D01*
X0152966Y0235405D01*
X0153072Y0235288D01*
X0153174Y0235168D01*
X0153274Y0235045D01*
X0153370Y0234920D01*
X0153463Y0234792D01*
X0153553Y0234662D01*
X0153640Y0234530D01*
X0153723Y0234396D01*
X0153803Y0234260D01*
X0153879Y0234121D01*
X0153952Y0233981D01*
X0154022Y0233839D01*
X0154087Y0233696D01*
X0154149Y0233550D01*
X0154208Y0233404D01*
X0154262Y0233255D01*
X0154313Y0233106D01*
X0154360Y0232955D01*
X0154404Y0232803D01*
X0154443Y0232650D01*
X0154479Y0232496D01*
X0154510Y0232342D01*
X0154538Y0232186D01*
X0154562Y0232030D01*
X0154582Y0231873D01*
X0154598Y0231716D01*
X0154610Y0231559D01*
X0154618Y0231401D01*
X0154622Y0231243D01*
X0154622Y0231085D01*
X0154618Y0230927D01*
X0154610Y0230769D01*
X0154598Y0230612D01*
X0154582Y0230455D01*
X0154562Y0230298D01*
X0154538Y0230142D01*
X0154510Y0229986D01*
X0154479Y0229832D01*
X0154443Y0229678D01*
X0154404Y0229525D01*
X0154360Y0229373D01*
X0154313Y0229222D01*
X0154262Y0229073D01*
X0154208Y0228924D01*
X0154149Y0228778D01*
X0154087Y0228632D01*
X0154022Y0228489D01*
X0153952Y0228347D01*
X0153879Y0228207D01*
X0153803Y0228068D01*
X0153723Y0227932D01*
X0153640Y0227798D01*
X0153553Y0227666D01*
X0153463Y0227536D01*
X0153370Y0227408D01*
X0153274Y0227283D01*
X0153174Y0227160D01*
X0153072Y0227040D01*
X0152966Y0226923D01*
X0152858Y0226808D01*
X0152746Y0226696D01*
X0152632Y0226587D01*
X0152515Y0226480D01*
X0152396Y0226377D01*
X0152274Y0226277D01*
X0152149Y0226180D01*
X0152022Y0226086D01*
X0151893Y0225995D01*
X0151761Y0225907D01*
X0151628Y0225823D01*
X0151492Y0225743D01*
X0151354Y0225665D01*
X0151215Y0225592D01*
X0151073Y0225521D01*
X0150930Y0225455D01*
X0150785Y0225392D01*
X0150639Y0225333D01*
X0150491Y0225277D01*
X0150341Y0225225D01*
X0150191Y0225177D01*
X0150039Y0225133D01*
X0149887Y0225093D01*
X0149733Y0225056D01*
X0149578Y0225023D01*
X0149423Y0224995D01*
X0149267Y0224970D01*
X0149111Y0224949D01*
X0148953Y0224932D01*
X0148796Y0224919D01*
X0148638Y0224910D01*
X0148480Y0224905D01*
X0148323Y0224904D01*
X0148165Y0224907D01*
X0148007Y0224914D01*
X0147849Y0224925D01*
X0147692Y0224940D01*
X0147535Y0224959D01*
X0147379Y0224982D01*
X0147223Y0225008D01*
X0147068Y0225039D01*
X0146914Y0225074D01*
X0146761Y0225112D01*
X0146609Y0225155D01*
X0146458Y0225201D01*
X0146308Y0225251D01*
X0146159Y0225304D01*
X0146012Y0225362D01*
X0145866Y0225423D01*
X0145722Y0225488D01*
X0145580Y0225556D01*
X0145439Y0225628D01*
X0145301Y0225704D01*
X0145164Y0225783D01*
X0145029Y0225865D01*
X0144896Y0225951D01*
X0144766Y0226040D01*
X0144638Y0226132D01*
X0144512Y0226228D01*
X0144389Y0226327D01*
X0144268Y0226428D01*
X0144150Y0226533D01*
X0144034Y0226641D01*
X0143922Y0226751D01*
X0143812Y0226865D01*
X0143705Y0226981D01*
X0143601Y0227100D01*
X0143500Y0227221D01*
X0143402Y0227345D01*
X0143307Y0227472D01*
X0143215Y0227600D01*
X0143127Y0227731D01*
X0143042Y0227865D01*
X0142961Y0228000D01*
X0142882Y0228137D01*
X0142808Y0228276D01*
X0142737Y0228417D01*
X0142669Y0228560D01*
X0142605Y0228705D01*
X0142545Y0228851D01*
X0142489Y0228998D01*
X0142436Y0229147D01*
X0142387Y0229297D01*
X0142342Y0229449D01*
X0142300Y0229601D01*
X0142263Y0229755D01*
X0142229Y0229909D01*
X0142199Y0230064D01*
X0142174Y0230220D01*
X0142152Y0230376D01*
X0142134Y0230533D01*
X0142120Y0230691D01*
X0142110Y0230848D01*
X0142104Y0231006D01*
X0142102Y0231164D01*
X0155862Y0148833D02*
X0155864Y0148994D01*
X0155870Y0149154D01*
X0155880Y0149315D01*
X0155894Y0149475D01*
X0155912Y0149635D01*
X0155933Y0149794D01*
X0155959Y0149953D01*
X0155989Y0150111D01*
X0156022Y0150268D01*
X0156060Y0150425D01*
X0156101Y0150580D01*
X0156146Y0150734D01*
X0156195Y0150887D01*
X0156248Y0151039D01*
X0156304Y0151190D01*
X0156365Y0151339D01*
X0156428Y0151487D01*
X0156496Y0151633D01*
X0156567Y0151777D01*
X0156641Y0151919D01*
X0156719Y0152060D01*
X0156801Y0152198D01*
X0156886Y0152335D01*
X0156974Y0152469D01*
X0157066Y0152601D01*
X0157161Y0152731D01*
X0157259Y0152859D01*
X0157360Y0152984D01*
X0157464Y0153106D01*
X0157571Y0153226D01*
X0157681Y0153343D01*
X0157794Y0153458D01*
X0157910Y0153569D01*
X0158029Y0153678D01*
X0158150Y0153783D01*
X0158274Y0153886D01*
X0158400Y0153986D01*
X0158528Y0154082D01*
X0158659Y0154175D01*
X0158793Y0154265D01*
X0158928Y0154352D01*
X0159066Y0154435D01*
X0159205Y0154515D01*
X0159347Y0154591D01*
X0159490Y0154664D01*
X0159635Y0154733D01*
X0159782Y0154799D01*
X0159930Y0154861D01*
X0160080Y0154919D01*
X0160231Y0154974D01*
X0160384Y0155025D01*
X0160538Y0155072D01*
X0160693Y0155115D01*
X0160849Y0155154D01*
X0161005Y0155190D01*
X0161163Y0155221D01*
X0161321Y0155249D01*
X0161480Y0155273D01*
X0161640Y0155293D01*
X0161800Y0155309D01*
X0161960Y0155321D01*
X0162121Y0155329D01*
X0162282Y0155333D01*
X0162442Y0155333D01*
X0162603Y0155329D01*
X0162764Y0155321D01*
X0162924Y0155309D01*
X0163084Y0155293D01*
X0163244Y0155273D01*
X0163403Y0155249D01*
X0163561Y0155221D01*
X0163719Y0155190D01*
X0163875Y0155154D01*
X0164031Y0155115D01*
X0164186Y0155072D01*
X0164340Y0155025D01*
X0164493Y0154974D01*
X0164644Y0154919D01*
X0164794Y0154861D01*
X0164942Y0154799D01*
X0165089Y0154733D01*
X0165234Y0154664D01*
X0165377Y0154591D01*
X0165519Y0154515D01*
X0165658Y0154435D01*
X0165796Y0154352D01*
X0165931Y0154265D01*
X0166065Y0154175D01*
X0166196Y0154082D01*
X0166324Y0153986D01*
X0166450Y0153886D01*
X0166574Y0153783D01*
X0166695Y0153678D01*
X0166814Y0153569D01*
X0166930Y0153458D01*
X0167043Y0153343D01*
X0167153Y0153226D01*
X0167260Y0153106D01*
X0167364Y0152984D01*
X0167465Y0152859D01*
X0167563Y0152731D01*
X0167658Y0152601D01*
X0167750Y0152469D01*
X0167838Y0152335D01*
X0167923Y0152198D01*
X0168005Y0152060D01*
X0168083Y0151919D01*
X0168157Y0151777D01*
X0168228Y0151633D01*
X0168296Y0151487D01*
X0168359Y0151339D01*
X0168420Y0151190D01*
X0168476Y0151039D01*
X0168529Y0150887D01*
X0168578Y0150734D01*
X0168623Y0150580D01*
X0168664Y0150425D01*
X0168702Y0150268D01*
X0168735Y0150111D01*
X0168765Y0149953D01*
X0168791Y0149794D01*
X0168812Y0149635D01*
X0168830Y0149475D01*
X0168844Y0149315D01*
X0168854Y0149154D01*
X0168860Y0148994D01*
X0168862Y0148833D01*
X0168860Y0148672D01*
X0168854Y0148512D01*
X0168844Y0148351D01*
X0168830Y0148191D01*
X0168812Y0148031D01*
X0168791Y0147872D01*
X0168765Y0147713D01*
X0168735Y0147555D01*
X0168702Y0147398D01*
X0168664Y0147241D01*
X0168623Y0147086D01*
X0168578Y0146932D01*
X0168529Y0146779D01*
X0168476Y0146627D01*
X0168420Y0146476D01*
X0168359Y0146327D01*
X0168296Y0146179D01*
X0168228Y0146033D01*
X0168157Y0145889D01*
X0168083Y0145747D01*
X0168005Y0145606D01*
X0167923Y0145468D01*
X0167838Y0145331D01*
X0167750Y0145197D01*
X0167658Y0145065D01*
X0167563Y0144935D01*
X0167465Y0144807D01*
X0167364Y0144682D01*
X0167260Y0144560D01*
X0167153Y0144440D01*
X0167043Y0144323D01*
X0166930Y0144208D01*
X0166814Y0144097D01*
X0166695Y0143988D01*
X0166574Y0143883D01*
X0166450Y0143780D01*
X0166324Y0143680D01*
X0166196Y0143584D01*
X0166065Y0143491D01*
X0165931Y0143401D01*
X0165796Y0143314D01*
X0165658Y0143231D01*
X0165519Y0143151D01*
X0165377Y0143075D01*
X0165234Y0143002D01*
X0165089Y0142933D01*
X0164942Y0142867D01*
X0164794Y0142805D01*
X0164644Y0142747D01*
X0164493Y0142692D01*
X0164340Y0142641D01*
X0164186Y0142594D01*
X0164031Y0142551D01*
X0163875Y0142512D01*
X0163719Y0142476D01*
X0163561Y0142445D01*
X0163403Y0142417D01*
X0163244Y0142393D01*
X0163084Y0142373D01*
X0162924Y0142357D01*
X0162764Y0142345D01*
X0162603Y0142337D01*
X0162442Y0142333D01*
X0162282Y0142333D01*
X0162121Y0142337D01*
X0161960Y0142345D01*
X0161800Y0142357D01*
X0161640Y0142373D01*
X0161480Y0142393D01*
X0161321Y0142417D01*
X0161163Y0142445D01*
X0161005Y0142476D01*
X0160849Y0142512D01*
X0160693Y0142551D01*
X0160538Y0142594D01*
X0160384Y0142641D01*
X0160231Y0142692D01*
X0160080Y0142747D01*
X0159930Y0142805D01*
X0159782Y0142867D01*
X0159635Y0142933D01*
X0159490Y0143002D01*
X0159347Y0143075D01*
X0159205Y0143151D01*
X0159066Y0143231D01*
X0158928Y0143314D01*
X0158793Y0143401D01*
X0158659Y0143491D01*
X0158528Y0143584D01*
X0158400Y0143680D01*
X0158274Y0143780D01*
X0158150Y0143883D01*
X0158029Y0143988D01*
X0157910Y0144097D01*
X0157794Y0144208D01*
X0157681Y0144323D01*
X0157571Y0144440D01*
X0157464Y0144560D01*
X0157360Y0144682D01*
X0157259Y0144807D01*
X0157161Y0144935D01*
X0157066Y0145065D01*
X0156974Y0145197D01*
X0156886Y0145331D01*
X0156801Y0145468D01*
X0156719Y0145606D01*
X0156641Y0145747D01*
X0156567Y0145889D01*
X0156496Y0146033D01*
X0156428Y0146179D01*
X0156365Y0146327D01*
X0156304Y0146476D01*
X0156248Y0146627D01*
X0156195Y0146779D01*
X0156146Y0146932D01*
X0156101Y0147086D01*
X0156060Y0147241D01*
X0156022Y0147398D01*
X0155989Y0147555D01*
X0155959Y0147713D01*
X0155933Y0147872D01*
X0155912Y0148031D01*
X0155894Y0148191D01*
X0155880Y0148351D01*
X0155870Y0148512D01*
X0155864Y0148672D01*
X0155862Y0148833D01*
X0325862Y0148833D02*
X0325864Y0148994D01*
X0325870Y0149154D01*
X0325880Y0149315D01*
X0325894Y0149475D01*
X0325912Y0149635D01*
X0325933Y0149794D01*
X0325959Y0149953D01*
X0325989Y0150111D01*
X0326022Y0150268D01*
X0326060Y0150425D01*
X0326101Y0150580D01*
X0326146Y0150734D01*
X0326195Y0150887D01*
X0326248Y0151039D01*
X0326304Y0151190D01*
X0326365Y0151339D01*
X0326428Y0151487D01*
X0326496Y0151633D01*
X0326567Y0151777D01*
X0326641Y0151919D01*
X0326719Y0152060D01*
X0326801Y0152198D01*
X0326886Y0152335D01*
X0326974Y0152469D01*
X0327066Y0152601D01*
X0327161Y0152731D01*
X0327259Y0152859D01*
X0327360Y0152984D01*
X0327464Y0153106D01*
X0327571Y0153226D01*
X0327681Y0153343D01*
X0327794Y0153458D01*
X0327910Y0153569D01*
X0328029Y0153678D01*
X0328150Y0153783D01*
X0328274Y0153886D01*
X0328400Y0153986D01*
X0328528Y0154082D01*
X0328659Y0154175D01*
X0328793Y0154265D01*
X0328928Y0154352D01*
X0329066Y0154435D01*
X0329205Y0154515D01*
X0329347Y0154591D01*
X0329490Y0154664D01*
X0329635Y0154733D01*
X0329782Y0154799D01*
X0329930Y0154861D01*
X0330080Y0154919D01*
X0330231Y0154974D01*
X0330384Y0155025D01*
X0330538Y0155072D01*
X0330693Y0155115D01*
X0330849Y0155154D01*
X0331005Y0155190D01*
X0331163Y0155221D01*
X0331321Y0155249D01*
X0331480Y0155273D01*
X0331640Y0155293D01*
X0331800Y0155309D01*
X0331960Y0155321D01*
X0332121Y0155329D01*
X0332282Y0155333D01*
X0332442Y0155333D01*
X0332603Y0155329D01*
X0332764Y0155321D01*
X0332924Y0155309D01*
X0333084Y0155293D01*
X0333244Y0155273D01*
X0333403Y0155249D01*
X0333561Y0155221D01*
X0333719Y0155190D01*
X0333875Y0155154D01*
X0334031Y0155115D01*
X0334186Y0155072D01*
X0334340Y0155025D01*
X0334493Y0154974D01*
X0334644Y0154919D01*
X0334794Y0154861D01*
X0334942Y0154799D01*
X0335089Y0154733D01*
X0335234Y0154664D01*
X0335377Y0154591D01*
X0335519Y0154515D01*
X0335658Y0154435D01*
X0335796Y0154352D01*
X0335931Y0154265D01*
X0336065Y0154175D01*
X0336196Y0154082D01*
X0336324Y0153986D01*
X0336450Y0153886D01*
X0336574Y0153783D01*
X0336695Y0153678D01*
X0336814Y0153569D01*
X0336930Y0153458D01*
X0337043Y0153343D01*
X0337153Y0153226D01*
X0337260Y0153106D01*
X0337364Y0152984D01*
X0337465Y0152859D01*
X0337563Y0152731D01*
X0337658Y0152601D01*
X0337750Y0152469D01*
X0337838Y0152335D01*
X0337923Y0152198D01*
X0338005Y0152060D01*
X0338083Y0151919D01*
X0338157Y0151777D01*
X0338228Y0151633D01*
X0338296Y0151487D01*
X0338359Y0151339D01*
X0338420Y0151190D01*
X0338476Y0151039D01*
X0338529Y0150887D01*
X0338578Y0150734D01*
X0338623Y0150580D01*
X0338664Y0150425D01*
X0338702Y0150268D01*
X0338735Y0150111D01*
X0338765Y0149953D01*
X0338791Y0149794D01*
X0338812Y0149635D01*
X0338830Y0149475D01*
X0338844Y0149315D01*
X0338854Y0149154D01*
X0338860Y0148994D01*
X0338862Y0148833D01*
X0338860Y0148672D01*
X0338854Y0148512D01*
X0338844Y0148351D01*
X0338830Y0148191D01*
X0338812Y0148031D01*
X0338791Y0147872D01*
X0338765Y0147713D01*
X0338735Y0147555D01*
X0338702Y0147398D01*
X0338664Y0147241D01*
X0338623Y0147086D01*
X0338578Y0146932D01*
X0338529Y0146779D01*
X0338476Y0146627D01*
X0338420Y0146476D01*
X0338359Y0146327D01*
X0338296Y0146179D01*
X0338228Y0146033D01*
X0338157Y0145889D01*
X0338083Y0145747D01*
X0338005Y0145606D01*
X0337923Y0145468D01*
X0337838Y0145331D01*
X0337750Y0145197D01*
X0337658Y0145065D01*
X0337563Y0144935D01*
X0337465Y0144807D01*
X0337364Y0144682D01*
X0337260Y0144560D01*
X0337153Y0144440D01*
X0337043Y0144323D01*
X0336930Y0144208D01*
X0336814Y0144097D01*
X0336695Y0143988D01*
X0336574Y0143883D01*
X0336450Y0143780D01*
X0336324Y0143680D01*
X0336196Y0143584D01*
X0336065Y0143491D01*
X0335931Y0143401D01*
X0335796Y0143314D01*
X0335658Y0143231D01*
X0335519Y0143151D01*
X0335377Y0143075D01*
X0335234Y0143002D01*
X0335089Y0142933D01*
X0334942Y0142867D01*
X0334794Y0142805D01*
X0334644Y0142747D01*
X0334493Y0142692D01*
X0334340Y0142641D01*
X0334186Y0142594D01*
X0334031Y0142551D01*
X0333875Y0142512D01*
X0333719Y0142476D01*
X0333561Y0142445D01*
X0333403Y0142417D01*
X0333244Y0142393D01*
X0333084Y0142373D01*
X0332924Y0142357D01*
X0332764Y0142345D01*
X0332603Y0142337D01*
X0332442Y0142333D01*
X0332282Y0142333D01*
X0332121Y0142337D01*
X0331960Y0142345D01*
X0331800Y0142357D01*
X0331640Y0142373D01*
X0331480Y0142393D01*
X0331321Y0142417D01*
X0331163Y0142445D01*
X0331005Y0142476D01*
X0330849Y0142512D01*
X0330693Y0142551D01*
X0330538Y0142594D01*
X0330384Y0142641D01*
X0330231Y0142692D01*
X0330080Y0142747D01*
X0329930Y0142805D01*
X0329782Y0142867D01*
X0329635Y0142933D01*
X0329490Y0143002D01*
X0329347Y0143075D01*
X0329205Y0143151D01*
X0329066Y0143231D01*
X0328928Y0143314D01*
X0328793Y0143401D01*
X0328659Y0143491D01*
X0328528Y0143584D01*
X0328400Y0143680D01*
X0328274Y0143780D01*
X0328150Y0143883D01*
X0328029Y0143988D01*
X0327910Y0144097D01*
X0327794Y0144208D01*
X0327681Y0144323D01*
X0327571Y0144440D01*
X0327464Y0144560D01*
X0327360Y0144682D01*
X0327259Y0144807D01*
X0327161Y0144935D01*
X0327066Y0145065D01*
X0326974Y0145197D01*
X0326886Y0145331D01*
X0326801Y0145468D01*
X0326719Y0145606D01*
X0326641Y0145747D01*
X0326567Y0145889D01*
X0326496Y0146033D01*
X0326428Y0146179D01*
X0326365Y0146327D01*
X0326304Y0146476D01*
X0326248Y0146627D01*
X0326195Y0146779D01*
X0326146Y0146932D01*
X0326101Y0147086D01*
X0326060Y0147241D01*
X0326022Y0147398D01*
X0325989Y0147555D01*
X0325959Y0147713D01*
X0325933Y0147872D01*
X0325912Y0148031D01*
X0325894Y0148191D01*
X0325880Y0148351D01*
X0325870Y0148512D01*
X0325864Y0148672D01*
X0325862Y0148833D01*
X0083362Y0340455D02*
X0083365Y0340688D01*
X0083373Y0340921D01*
X0083388Y0341154D01*
X0083408Y0341386D01*
X0083433Y0341618D01*
X0083465Y0341849D01*
X0083502Y0342079D01*
X0083545Y0342308D01*
X0083593Y0342536D01*
X0083647Y0342763D01*
X0083706Y0342989D01*
X0083771Y0343213D01*
X0083841Y0343435D01*
X0083917Y0343655D01*
X0083999Y0343874D01*
X0084085Y0344090D01*
X0084177Y0344305D01*
X0084274Y0344517D01*
X0084376Y0344726D01*
X0084484Y0344933D01*
X0084596Y0345138D01*
X0084714Y0345339D01*
X0084836Y0345537D01*
X0084963Y0345733D01*
X0085095Y0345925D01*
X0085232Y0346114D01*
X0085373Y0346300D01*
X0085518Y0346482D01*
X0085669Y0346660D01*
X0085823Y0346835D01*
X0085982Y0347006D01*
X0086144Y0347173D01*
X0086311Y0347335D01*
X0086482Y0347494D01*
X0086657Y0347648D01*
X0086835Y0347799D01*
X0087017Y0347944D01*
X0087203Y0348085D01*
X0087392Y0348222D01*
X0087584Y0348354D01*
X0087780Y0348481D01*
X0087978Y0348603D01*
X0088179Y0348721D01*
X0088384Y0348833D01*
X0088591Y0348941D01*
X0088800Y0349043D01*
X0089012Y0349140D01*
X0089227Y0349232D01*
X0089443Y0349318D01*
X0089662Y0349400D01*
X0089882Y0349476D01*
X0090104Y0349546D01*
X0090328Y0349611D01*
X0090554Y0349670D01*
X0090781Y0349724D01*
X0091009Y0349772D01*
X0091238Y0349815D01*
X0091468Y0349852D01*
X0091699Y0349884D01*
X0091931Y0349909D01*
X0092163Y0349929D01*
X0092396Y0349944D01*
X0092629Y0349952D01*
X0092862Y0349955D01*
X0093095Y0349952D01*
X0093328Y0349944D01*
X0093561Y0349929D01*
X0093793Y0349909D01*
X0094025Y0349884D01*
X0094256Y0349852D01*
X0094486Y0349815D01*
X0094715Y0349772D01*
X0094943Y0349724D01*
X0095170Y0349670D01*
X0095396Y0349611D01*
X0095620Y0349546D01*
X0095842Y0349476D01*
X0096062Y0349400D01*
X0096281Y0349318D01*
X0096497Y0349232D01*
X0096712Y0349140D01*
X0096924Y0349043D01*
X0097133Y0348941D01*
X0097340Y0348833D01*
X0097545Y0348721D01*
X0097746Y0348603D01*
X0097944Y0348481D01*
X0098140Y0348354D01*
X0098332Y0348222D01*
X0098521Y0348085D01*
X0098707Y0347944D01*
X0098889Y0347799D01*
X0099067Y0347648D01*
X0099242Y0347494D01*
X0099413Y0347335D01*
X0099580Y0347173D01*
X0099742Y0347006D01*
X0099901Y0346835D01*
X0100055Y0346660D01*
X0100206Y0346482D01*
X0100351Y0346300D01*
X0100492Y0346114D01*
X0100629Y0345925D01*
X0100761Y0345733D01*
X0100888Y0345537D01*
X0101010Y0345339D01*
X0101128Y0345138D01*
X0101240Y0344933D01*
X0101348Y0344726D01*
X0101450Y0344517D01*
X0101547Y0344305D01*
X0101639Y0344090D01*
X0101725Y0343874D01*
X0101807Y0343655D01*
X0101883Y0343435D01*
X0101953Y0343213D01*
X0102018Y0342989D01*
X0102077Y0342763D01*
X0102131Y0342536D01*
X0102179Y0342308D01*
X0102222Y0342079D01*
X0102259Y0341849D01*
X0102291Y0341618D01*
X0102316Y0341386D01*
X0102336Y0341154D01*
X0102351Y0340921D01*
X0102359Y0340688D01*
X0102362Y0340455D01*
X0102359Y0340222D01*
X0102351Y0339989D01*
X0102336Y0339756D01*
X0102316Y0339524D01*
X0102291Y0339292D01*
X0102259Y0339061D01*
X0102222Y0338831D01*
X0102179Y0338602D01*
X0102131Y0338374D01*
X0102077Y0338147D01*
X0102018Y0337921D01*
X0101953Y0337697D01*
X0101883Y0337475D01*
X0101807Y0337255D01*
X0101725Y0337036D01*
X0101639Y0336820D01*
X0101547Y0336605D01*
X0101450Y0336393D01*
X0101348Y0336184D01*
X0101240Y0335977D01*
X0101128Y0335772D01*
X0101010Y0335571D01*
X0100888Y0335373D01*
X0100761Y0335177D01*
X0100629Y0334985D01*
X0100492Y0334796D01*
X0100351Y0334610D01*
X0100206Y0334428D01*
X0100055Y0334250D01*
X0099901Y0334075D01*
X0099742Y0333904D01*
X0099580Y0333737D01*
X0099413Y0333575D01*
X0099242Y0333416D01*
X0099067Y0333262D01*
X0098889Y0333111D01*
X0098707Y0332966D01*
X0098521Y0332825D01*
X0098332Y0332688D01*
X0098140Y0332556D01*
X0097944Y0332429D01*
X0097746Y0332307D01*
X0097545Y0332189D01*
X0097340Y0332077D01*
X0097133Y0331969D01*
X0096924Y0331867D01*
X0096712Y0331770D01*
X0096497Y0331678D01*
X0096281Y0331592D01*
X0096062Y0331510D01*
X0095842Y0331434D01*
X0095620Y0331364D01*
X0095396Y0331299D01*
X0095170Y0331240D01*
X0094943Y0331186D01*
X0094715Y0331138D01*
X0094486Y0331095D01*
X0094256Y0331058D01*
X0094025Y0331026D01*
X0093793Y0331001D01*
X0093561Y0330981D01*
X0093328Y0330966D01*
X0093095Y0330958D01*
X0092862Y0330955D01*
X0092629Y0330958D01*
X0092396Y0330966D01*
X0092163Y0330981D01*
X0091931Y0331001D01*
X0091699Y0331026D01*
X0091468Y0331058D01*
X0091238Y0331095D01*
X0091009Y0331138D01*
X0090781Y0331186D01*
X0090554Y0331240D01*
X0090328Y0331299D01*
X0090104Y0331364D01*
X0089882Y0331434D01*
X0089662Y0331510D01*
X0089443Y0331592D01*
X0089227Y0331678D01*
X0089012Y0331770D01*
X0088800Y0331867D01*
X0088591Y0331969D01*
X0088384Y0332077D01*
X0088179Y0332189D01*
X0087978Y0332307D01*
X0087780Y0332429D01*
X0087584Y0332556D01*
X0087392Y0332688D01*
X0087203Y0332825D01*
X0087017Y0332966D01*
X0086835Y0333111D01*
X0086657Y0333262D01*
X0086482Y0333416D01*
X0086311Y0333575D01*
X0086144Y0333737D01*
X0085982Y0333904D01*
X0085823Y0334075D01*
X0085669Y0334250D01*
X0085518Y0334428D01*
X0085373Y0334610D01*
X0085232Y0334796D01*
X0085095Y0334985D01*
X0084963Y0335177D01*
X0084836Y0335373D01*
X0084714Y0335571D01*
X0084596Y0335772D01*
X0084484Y0335977D01*
X0084376Y0336184D01*
X0084274Y0336393D01*
X0084177Y0336605D01*
X0084085Y0336820D01*
X0083999Y0337036D01*
X0083917Y0337255D01*
X0083841Y0337475D01*
X0083771Y0337697D01*
X0083706Y0337921D01*
X0083647Y0338147D01*
X0083593Y0338374D01*
X0083545Y0338602D01*
X0083502Y0338831D01*
X0083465Y0339061D01*
X0083433Y0339292D01*
X0083408Y0339524D01*
X0083388Y0339756D01*
X0083373Y0339989D01*
X0083365Y0340222D01*
X0083362Y0340455D01*
D14*
X0072862Y0280455D02*
X0072862Y0400455D01*
X0402862Y0400455D01*
X0402862Y0280455D01*
X0072862Y0280455D01*
X0160862Y0301955D02*
X0314862Y0301955D01*
X0353362Y0340455D02*
X0353351Y0341385D01*
X0353317Y0342315D01*
X0353261Y0343244D01*
X0353182Y0344171D01*
X0353081Y0345096D01*
X0352958Y0346018D01*
X0352812Y0346937D01*
X0352645Y0347852D01*
X0352455Y0348763D01*
X0352243Y0349669D01*
X0352010Y0350569D01*
X0351754Y0351464D01*
X0351478Y0352352D01*
X0351180Y0353233D01*
X0350860Y0354107D01*
X0350520Y0354973D01*
X0350158Y0355831D01*
X0349777Y0356679D01*
X0349374Y0357518D01*
X0348952Y0358347D01*
X0348510Y0359165D01*
X0348048Y0359973D01*
X0347567Y0360769D01*
X0347066Y0361553D01*
X0346547Y0362325D01*
X0346009Y0363085D01*
X0345453Y0363831D01*
X0344879Y0364563D01*
X0344288Y0365281D01*
X0343680Y0365985D01*
X0343054Y0366674D01*
X0342413Y0367348D01*
X0341755Y0368006D01*
X0341081Y0368647D01*
X0340392Y0369273D01*
X0339688Y0369881D01*
X0338970Y0370472D01*
X0338238Y0371046D01*
X0337492Y0371602D01*
X0336732Y0372140D01*
X0335960Y0372659D01*
X0335176Y0373160D01*
X0334380Y0373641D01*
X0333572Y0374103D01*
X0332754Y0374545D01*
X0331925Y0374967D01*
X0331086Y0375370D01*
X0330238Y0375751D01*
X0329380Y0376113D01*
X0328514Y0376453D01*
X0327640Y0376773D01*
X0326759Y0377071D01*
X0325871Y0377347D01*
X0324976Y0377603D01*
X0324076Y0377836D01*
X0323170Y0378048D01*
X0322259Y0378238D01*
X0321344Y0378405D01*
X0320425Y0378551D01*
X0319503Y0378674D01*
X0318578Y0378775D01*
X0317651Y0378854D01*
X0316722Y0378910D01*
X0315792Y0378944D01*
X0314862Y0378955D01*
X0160862Y0378955D01*
X0122362Y0340455D02*
X0122373Y0339525D01*
X0122407Y0338595D01*
X0122463Y0337666D01*
X0122542Y0336739D01*
X0122643Y0335814D01*
X0122766Y0334892D01*
X0122912Y0333973D01*
X0123079Y0333058D01*
X0123269Y0332147D01*
X0123481Y0331241D01*
X0123714Y0330341D01*
X0123970Y0329446D01*
X0124246Y0328558D01*
X0124544Y0327677D01*
X0124864Y0326803D01*
X0125204Y0325937D01*
X0125566Y0325079D01*
X0125947Y0324231D01*
X0126350Y0323392D01*
X0126772Y0322563D01*
X0127214Y0321745D01*
X0127676Y0320937D01*
X0128157Y0320141D01*
X0128658Y0319357D01*
X0129177Y0318585D01*
X0129715Y0317825D01*
X0130271Y0317079D01*
X0130845Y0316347D01*
X0131436Y0315629D01*
X0132044Y0314925D01*
X0132670Y0314236D01*
X0133311Y0313562D01*
X0133969Y0312904D01*
X0134643Y0312263D01*
X0135332Y0311637D01*
X0136036Y0311029D01*
X0136754Y0310438D01*
X0137486Y0309864D01*
X0138232Y0309308D01*
X0138992Y0308770D01*
X0139764Y0308251D01*
X0140548Y0307750D01*
X0141344Y0307269D01*
X0142152Y0306807D01*
X0142970Y0306365D01*
X0143799Y0305943D01*
X0144638Y0305540D01*
X0145486Y0305159D01*
X0146344Y0304797D01*
X0147210Y0304457D01*
X0148084Y0304137D01*
X0148965Y0303839D01*
X0149853Y0303563D01*
X0150748Y0303307D01*
X0151648Y0303074D01*
X0152554Y0302862D01*
X0153465Y0302672D01*
X0154380Y0302505D01*
X0155299Y0302359D01*
X0156221Y0302236D01*
X0157146Y0302135D01*
X0158073Y0302056D01*
X0159002Y0302000D01*
X0159932Y0301966D01*
X0160862Y0301955D01*
X0122362Y0340455D02*
X0122373Y0341385D01*
X0122407Y0342315D01*
X0122463Y0343244D01*
X0122542Y0344171D01*
X0122643Y0345096D01*
X0122766Y0346018D01*
X0122912Y0346937D01*
X0123079Y0347852D01*
X0123269Y0348763D01*
X0123481Y0349669D01*
X0123714Y0350569D01*
X0123970Y0351464D01*
X0124246Y0352352D01*
X0124544Y0353233D01*
X0124864Y0354107D01*
X0125204Y0354973D01*
X0125566Y0355831D01*
X0125947Y0356679D01*
X0126350Y0357518D01*
X0126772Y0358347D01*
X0127214Y0359165D01*
X0127676Y0359973D01*
X0128157Y0360769D01*
X0128658Y0361553D01*
X0129177Y0362325D01*
X0129715Y0363085D01*
X0130271Y0363831D01*
X0130845Y0364563D01*
X0131436Y0365281D01*
X0132044Y0365985D01*
X0132670Y0366674D01*
X0133311Y0367348D01*
X0133969Y0368006D01*
X0134643Y0368647D01*
X0135332Y0369273D01*
X0136036Y0369881D01*
X0136754Y0370472D01*
X0137486Y0371046D01*
X0138232Y0371602D01*
X0138992Y0372140D01*
X0139764Y0372659D01*
X0140548Y0373160D01*
X0141344Y0373641D01*
X0142152Y0374103D01*
X0142970Y0374545D01*
X0143799Y0374967D01*
X0144638Y0375370D01*
X0145486Y0375751D01*
X0146344Y0376113D01*
X0147210Y0376453D01*
X0148084Y0376773D01*
X0148965Y0377071D01*
X0149853Y0377347D01*
X0150748Y0377603D01*
X0151648Y0377836D01*
X0152554Y0378048D01*
X0153465Y0378238D01*
X0154380Y0378405D01*
X0155299Y0378551D01*
X0156221Y0378674D01*
X0157146Y0378775D01*
X0158073Y0378854D01*
X0159002Y0378910D01*
X0159932Y0378944D01*
X0160862Y0378955D01*
X0314862Y0301955D02*
X0315792Y0301966D01*
X0316722Y0302000D01*
X0317651Y0302056D01*
X0318578Y0302135D01*
X0319503Y0302236D01*
X0320425Y0302359D01*
X0321344Y0302505D01*
X0322259Y0302672D01*
X0323170Y0302862D01*
X0324076Y0303074D01*
X0324976Y0303307D01*
X0325871Y0303563D01*
X0326759Y0303839D01*
X0327640Y0304137D01*
X0328514Y0304457D01*
X0329380Y0304797D01*
X0330238Y0305159D01*
X0331086Y0305540D01*
X0331925Y0305943D01*
X0332754Y0306365D01*
X0333572Y0306807D01*
X0334380Y0307269D01*
X0335176Y0307750D01*
X0335960Y0308251D01*
X0336732Y0308770D01*
X0337492Y0309308D01*
X0338238Y0309864D01*
X0338970Y0310438D01*
X0339688Y0311029D01*
X0340392Y0311637D01*
X0341081Y0312263D01*
X0341755Y0312904D01*
X0342413Y0313562D01*
X0343054Y0314236D01*
X0343680Y0314925D01*
X0344288Y0315629D01*
X0344879Y0316347D01*
X0345453Y0317079D01*
X0346009Y0317825D01*
X0346547Y0318585D01*
X0347066Y0319357D01*
X0347567Y0320141D01*
X0348048Y0320937D01*
X0348510Y0321745D01*
X0348952Y0322563D01*
X0349374Y0323392D01*
X0349777Y0324231D01*
X0350158Y0325079D01*
X0350520Y0325937D01*
X0350860Y0326803D01*
X0351180Y0327677D01*
X0351478Y0328558D01*
X0351754Y0329446D01*
X0352010Y0330341D01*
X0352243Y0331241D01*
X0352455Y0332147D01*
X0352645Y0333058D01*
X0352812Y0333973D01*
X0352958Y0334892D01*
X0353081Y0335814D01*
X0353182Y0336739D01*
X0353261Y0337666D01*
X0353317Y0338595D01*
X0353351Y0339525D01*
X0353362Y0340455D01*
X0382569Y0276283D02*
X0382569Y0268283D01*
X0310662Y0257633D02*
X0310662Y0249633D01*
D15*
X0312324Y0231114D02*
X0312324Y0228752D01*
X0307600Y0228752D02*
X0307600Y0231114D01*
X0291443Y0236893D02*
X0289081Y0236893D01*
X0289081Y0241617D02*
X0291443Y0241617D01*
X0283024Y0242452D02*
X0283024Y0244814D01*
X0278300Y0244814D02*
X0278300Y0242452D01*
X0274124Y0241352D02*
X0274124Y0243714D01*
X0269400Y0243714D02*
X0269400Y0241352D01*
X0270024Y0261252D02*
X0270024Y0263614D01*
X0265300Y0263614D02*
X0265300Y0261252D01*
X0245524Y0248614D02*
X0245524Y0246252D01*
X0240800Y0246252D02*
X0240800Y0248614D01*
X0286181Y0222395D02*
X0288543Y0222395D01*
X0288543Y0217671D02*
X0286181Y0217671D01*
X0286500Y0209814D02*
X0286500Y0207452D01*
X0291224Y0207452D02*
X0291224Y0209814D01*
X0317600Y0209014D02*
X0317600Y0206652D01*
X0322324Y0206652D02*
X0322324Y0209014D01*
X0283626Y0175452D02*
X0283626Y0173090D01*
X0278902Y0173090D02*
X0278902Y0175452D01*
X0203843Y0181071D02*
X0201481Y0181071D01*
X0201481Y0185795D02*
X0203843Y0185795D01*
X0070924Y0349552D02*
X0070924Y0351914D01*
X0066200Y0351914D02*
X0066200Y0349552D01*
X0066457Y0363331D02*
X0066457Y0365694D01*
X0071181Y0365694D02*
X0071181Y0363331D01*
X0385281Y0262231D02*
X0385281Y0259869D01*
X0390006Y0259869D02*
X0390006Y0262231D01*
M02*
