%
M48
M72
T01C0.0197
T02C0.0236
T03C0.0276
T04C0.0400
T05C0.0512
T06C0.0571
T07C0.0591
%
T01
X7380Y8030
X9810Y9270
X9760Y10810
X10140Y13110
X9150Y13090
X12970Y17390
X13550Y18840
X12160Y19570
X11820Y19110
X11400Y18820
X14130Y20950
X15020Y20360
X15500Y19980
X15860Y20400
X16450Y20400
X16890Y17430
X16910Y15710
X17850Y15190
X20230Y13360
X21560Y15060
X22000Y13920
X24990Y14070
X24080Y18870
X18490Y8630
X15120Y14710
X15170Y15270
X9680Y22620
X9270Y25130
X8670Y27410
X7840Y27400
X6940Y28570
X7680Y28980
X7620Y31310
X8950Y31290
X6040Y26540
X5470Y26530
X5480Y26030
X5760Y25630
X6040Y26020
X7040Y20090
X4160Y18450
X4150Y18030
X4150Y17620
X4150Y17190
X3960Y16820
X3710Y17170
X3720Y17590
X3710Y18030
X3720Y18450
X3290Y18460
X3290Y18020
X3250Y17590
X3230Y17170
X3450Y16800
X2760Y13810
X4360Y10950
X12920Y23100
X12830Y28670
X25520Y8500
T02
X25380Y12060
X23600Y14480
X24790Y14810
X21800Y15810
X21120Y16210
X21670Y16870
X20200Y14620
X19310Y15730
X19370Y17290
X17660Y17430
X15790Y18410
X15710Y19240
X14850Y19050
X13990Y16380
X12610Y16770
X10060Y14810
X9850Y16700
X7570Y12800
X10470Y10110
X14550Y8860
X15240Y13290
X18980Y13200
X20770Y11320
X21610Y8740
X27160Y18760
X24030Y22170
X21610Y24140
X21620Y25860
X18630Y26380
X18410Y22610
X14510Y22260
X12310Y21750
X9990Y26220
X8920Y29100
X25060Y25310
X25400Y26070
T03
X24260Y11770
X19090Y11000
T04
X13660Y10990
X13660Y11990
X13660Y12990
X13660Y13990
X12560Y13990
X12560Y12990
X12560Y11990
X12560Y10990
X12560Y9990
X13660Y9990
X20586Y18526
X20486Y19526
X20586Y20526
X20486Y21526
X20586Y22526
X27230Y14630
X27330Y13630
X27230Y12630
X27330Y15630
T05
X27376Y23630
X24384Y23630
X23226Y23630
X20234Y23630
X19076Y23630
X16084Y23630
X14926Y23630
X11934Y23630
X14926Y28630
X16084Y29634
X19076Y28630
X20234Y29634
X23226Y28630
X24384Y29634
X27376Y28630
X11934Y29634
T06
X4207Y4344
X6207Y4344
X8207Y4344
X10207Y4344
X12207Y4344
X14207Y4344
X16207Y4344
X18207Y4344
X20207Y4344
X22207Y4344
X24207Y4344
X26207Y4344
X26207Y34108
X24207Y34108
X22207Y34108
X20207Y34108
X18207Y34108
X16207Y34108
X14207Y34108
X12207Y34108
X10207Y34108
X8207Y34108
X6207Y34108
X4207Y34108
T07
X3190Y20030
X8190Y20030
X8190Y17530
X8190Y16280
X8190Y15030
X8190Y11280
X3190Y11280
M30
