G75*
%MOIN*%
%OFA0B0*%
%FSLAX25Y25*%
%IPPOS*%
%LPD*%
%AMOC8*
5,1,8,0,0,1.08239X$1,22.5*
%
%ADD10C,0.06400*%
%ADD11R,0.02500X0.05000*%
%ADD12C,0.07677*%
%ADD13C,0.08563*%
%ADD14C,0.08858*%
%ADD15R,0.06299X0.15354*%
%ADD16R,0.06299X0.07087*%
%ADD17R,0.03150X0.04724*%
%ADD18R,0.04724X0.04724*%
%ADD19R,0.04724X0.03150*%
%ADD20R,0.06299X0.01575*%
%ADD21R,0.01575X0.02953*%
%ADD22R,0.01969X0.02953*%
%ADD23R,0.02165X0.04724*%
%ADD24R,0.07480X0.06299*%
%ADD25R,0.01650X0.04500*%
%ADD26R,0.02400X0.08700*%
%ADD27R,0.01181X0.06299*%
%ADD28R,0.01969X0.05906*%
%ADD29R,0.05906X0.01969*%
%ADD30R,0.05787X0.05000*%
%ADD31R,0.07400X0.07400*%
%ADD32C,0.07400*%
%ADD33OC8,0.07400*%
%ADD34R,0.09606X0.06811*%
%ADD35R,0.06811X0.09606*%
%ADD36C,0.01600*%
%ADD37C,0.03969*%
%ADD38C,0.04362*%
%ADD39C,0.01000*%
%ADD40C,0.05000*%
%ADD41C,0.03200*%
%ADD42C,0.01200*%
%ADD43C,0.04756*%
%ADD44C,0.02400*%
%ADD45C,0.08600*%
%ADD46C,0.05600*%
%ADD47C,0.10000*%
%ADD48C,0.15000*%
D10*
X0202660Y0185256D02*
X0209060Y0185256D01*
X0208060Y0195256D02*
X0201660Y0195256D01*
X0202660Y0205256D02*
X0209060Y0205256D01*
X0208060Y0215256D02*
X0201660Y0215256D01*
X0202660Y0225256D02*
X0209060Y0225256D01*
D11*
X0229128Y0180100D03*
X0232672Y0180100D03*
D12*
X0232261Y0236300D03*
X0243839Y0236300D03*
X0273761Y0236300D03*
X0273761Y0286300D03*
X0243839Y0296339D03*
X0232261Y0286300D03*
X0202339Y0296339D03*
X0190761Y0286300D03*
X0160839Y0296339D03*
X0149261Y0286300D03*
X0119339Y0296339D03*
X0119339Y0236300D03*
X0149261Y0236300D03*
X0160839Y0236300D03*
X0190761Y0236300D03*
X0202339Y0236300D03*
D13*
X0202068Y0341076D03*
X0222068Y0341076D03*
X0242068Y0341076D03*
X0262068Y0341076D03*
X0182068Y0341076D03*
X0162068Y0341076D03*
X0142068Y0341076D03*
X0122068Y0341076D03*
X0102068Y0341076D03*
X0082068Y0341076D03*
X0062068Y0341076D03*
X0042068Y0341076D03*
X0042068Y0043438D03*
X0062068Y0043438D03*
X0082068Y0043438D03*
X0102068Y0043438D03*
X0122068Y0043438D03*
X0142068Y0043438D03*
X0162068Y0043438D03*
X0182068Y0043438D03*
X0202068Y0043438D03*
X0222068Y0043438D03*
X0242068Y0043438D03*
X0262068Y0043438D03*
D14*
X0081900Y0112800D03*
X0081900Y0150300D03*
X0081900Y0162800D03*
X0081900Y0175300D03*
X0081900Y0200300D03*
X0031900Y0200300D03*
X0031900Y0112800D03*
D15*
X0111700Y0169568D03*
X0111700Y0203032D03*
X0044900Y0229668D03*
X0044900Y0263132D03*
D16*
X0047988Y0215300D03*
X0059012Y0215300D03*
D17*
X0095157Y0214600D03*
X0102243Y0214600D03*
X0076443Y0099500D03*
X0069357Y0099500D03*
X0201257Y0119500D03*
X0208343Y0119500D03*
X0208343Y0126900D03*
X0201257Y0126900D03*
X0254557Y0169200D03*
X0254557Y0176300D03*
X0261643Y0176300D03*
X0261643Y0169200D03*
X0263643Y0110700D03*
X0256557Y0110700D03*
D18*
X0222734Y0119400D03*
X0222634Y0127000D03*
X0214366Y0127000D03*
X0214466Y0119400D03*
X0177000Y0119666D03*
X0177000Y0127934D03*
X0168600Y0128034D03*
X0168600Y0119766D03*
X0240166Y0169200D03*
X0240066Y0176100D03*
X0248334Y0176100D03*
X0248434Y0169200D03*
X0179634Y0220600D03*
X0171366Y0220600D03*
X0088634Y0214600D03*
X0080366Y0214600D03*
X0077234Y0092300D03*
X0068966Y0092300D03*
D19*
X0083900Y0092357D03*
X0083900Y0099443D03*
X0091400Y0099443D03*
X0091400Y0092357D03*
X0094200Y0136457D03*
X0094200Y0143543D03*
X0168800Y0140243D03*
X0168800Y0133157D03*
X0177000Y0133057D03*
X0177000Y0140143D03*
X0226600Y0163657D03*
X0226600Y0170743D03*
X0187100Y0210757D03*
X0187100Y0217843D03*
X0270200Y0176143D03*
X0270200Y0169057D03*
D20*
X0208608Y0157060D03*
X0208608Y0154501D03*
X0208608Y0151942D03*
X0208608Y0149383D03*
X0208608Y0146824D03*
X0208608Y0144265D03*
X0208608Y0141706D03*
X0208608Y0139146D03*
X0185380Y0139146D03*
X0185380Y0141706D03*
X0185380Y0144265D03*
X0185380Y0146824D03*
X0185380Y0149383D03*
X0185380Y0151942D03*
X0185380Y0154501D03*
X0185380Y0157060D03*
D21*
X0228825Y0215457D03*
X0231975Y0215457D03*
X0231975Y0222346D03*
X0228825Y0222346D03*
D22*
X0225479Y0222346D03*
X0225479Y0215457D03*
X0235321Y0215457D03*
X0235321Y0222346D03*
D23*
X0101440Y0124819D03*
X0093960Y0124819D03*
X0093960Y0114581D03*
X0097700Y0114581D03*
X0101440Y0114581D03*
D24*
X0042896Y0096700D03*
X0029904Y0096700D03*
D25*
X0236550Y0133700D03*
X0239050Y0133700D03*
X0241550Y0133700D03*
X0244050Y0133700D03*
X0246550Y0133700D03*
X0249050Y0133700D03*
X0251550Y0133700D03*
X0254050Y0133700D03*
X0254050Y0154500D03*
X0251550Y0154500D03*
X0249050Y0154500D03*
X0246550Y0154500D03*
X0244050Y0154500D03*
X0241550Y0154500D03*
X0239050Y0154500D03*
X0236550Y0154500D03*
D26*
X0237200Y0109800D03*
X0242200Y0109800D03*
X0232200Y0109800D03*
X0227200Y0109800D03*
X0227200Y0089200D03*
X0232200Y0089200D03*
X0237200Y0089200D03*
X0242200Y0089200D03*
X0180500Y0088500D03*
X0175500Y0088500D03*
X0170500Y0088500D03*
X0165500Y0088500D03*
X0165500Y0109100D03*
X0170500Y0109100D03*
X0175500Y0109100D03*
X0180500Y0109100D03*
D27*
X0223742Y0139807D03*
X0226301Y0139807D03*
X0228899Y0139807D03*
X0231458Y0139807D03*
X0231419Y0153154D03*
X0228880Y0153193D03*
X0226301Y0153193D03*
X0223742Y0153232D03*
D28*
X0180048Y0165965D03*
X0176898Y0165965D03*
X0173749Y0165965D03*
X0170599Y0165965D03*
X0167450Y0165965D03*
X0164300Y0165965D03*
X0161150Y0165965D03*
X0158001Y0165965D03*
X0154851Y0165965D03*
X0151702Y0165965D03*
X0148552Y0165965D03*
X0148552Y0211635D03*
X0151702Y0211635D03*
X0154851Y0211635D03*
X0158001Y0211635D03*
X0161150Y0211635D03*
X0164300Y0211635D03*
X0167450Y0211635D03*
X0170599Y0211635D03*
X0173749Y0211635D03*
X0176898Y0211635D03*
X0180048Y0211635D03*
D29*
X0187135Y0204548D03*
X0187135Y0201398D03*
X0187135Y0198249D03*
X0187135Y0195099D03*
X0187135Y0191950D03*
X0187135Y0188800D03*
X0187135Y0185650D03*
X0187135Y0182501D03*
X0187135Y0179351D03*
X0187135Y0176202D03*
X0187135Y0173052D03*
X0141465Y0173052D03*
X0141465Y0176202D03*
X0141465Y0179351D03*
X0141465Y0182501D03*
X0141465Y0185650D03*
X0141465Y0188800D03*
X0141465Y0191950D03*
X0141465Y0195099D03*
X0141465Y0198249D03*
X0141465Y0201398D03*
X0141465Y0204548D03*
D30*
X0043600Y0280835D03*
X0043600Y0297765D03*
D31*
X0272300Y0126300D03*
D32*
X0273300Y0136300D03*
X0272300Y0146300D03*
X0273300Y0156300D03*
D33*
X0136600Y0139900D03*
X0136600Y0129900D03*
X0136600Y0119900D03*
X0136600Y0109900D03*
X0136600Y0099900D03*
X0125600Y0099900D03*
X0125600Y0109900D03*
X0125600Y0119900D03*
X0125600Y0129900D03*
X0125600Y0139900D03*
D34*
X0072584Y0297361D03*
D35*
X0106600Y0296203D03*
X0106600Y0279400D03*
X0106600Y0263400D03*
X0106600Y0247597D03*
X0071600Y0228400D03*
D36*
X0020653Y0361270D02*
X0020653Y0023244D01*
X0186800Y0023244D01*
X0186800Y0039852D01*
X0185399Y0038452D01*
X0183238Y0037556D01*
X0180898Y0037556D01*
X0178736Y0038452D01*
X0177082Y0040106D01*
X0176186Y0042268D01*
X0176186Y0044608D01*
X0176696Y0045839D01*
X0174630Y0047906D01*
X0173400Y0049136D01*
X0173400Y0082787D01*
X0173000Y0083187D01*
X0172600Y0082787D01*
X0172600Y0051000D01*
X0170635Y0049035D01*
X0167439Y0045839D01*
X0167949Y0044608D01*
X0167949Y0042268D01*
X0167054Y0040106D01*
X0165399Y0038452D01*
X0163238Y0037556D01*
X0160898Y0037556D01*
X0158736Y0038452D01*
X0157082Y0040106D01*
X0156186Y0042268D01*
X0156186Y0044608D01*
X0157082Y0046769D01*
X0158736Y0048424D01*
X0160898Y0049319D01*
X0163238Y0049319D01*
X0164469Y0048809D01*
X0167665Y0052005D01*
X0168400Y0052740D01*
X0168400Y0082787D01*
X0168141Y0083046D01*
X0168140Y0083045D01*
X0167805Y0082710D01*
X0167395Y0082473D01*
X0166937Y0082350D01*
X0165500Y0082350D01*
X0165500Y0088500D01*
X0165500Y0088500D01*
X0165500Y0094650D01*
X0166937Y0094650D01*
X0167395Y0094527D01*
X0167805Y0094290D01*
X0168140Y0093955D01*
X0168141Y0093954D01*
X0168637Y0094450D01*
X0172363Y0094450D01*
X0173000Y0093813D01*
X0173637Y0094450D01*
X0177363Y0094450D01*
X0178000Y0093813D01*
X0178637Y0094450D01*
X0182363Y0094450D01*
X0183300Y0093513D01*
X0183300Y0089517D01*
X0184187Y0089884D01*
X0185613Y0089884D01*
X0186800Y0089393D01*
X0186800Y0106800D01*
X0188474Y0106800D01*
X0187528Y0107747D01*
X0186922Y0109209D01*
X0186922Y0110791D01*
X0187528Y0112253D01*
X0188500Y0113226D01*
X0188500Y0117077D01*
X0188865Y0117959D01*
X0191600Y0120694D01*
X0191600Y0120730D01*
X0191230Y0121100D01*
X0181730Y0121100D01*
X0180962Y0121868D01*
X0180962Y0118674D01*
X0182500Y0117136D01*
X0182500Y0114913D01*
X0183300Y0114113D01*
X0183300Y0104087D01*
X0182363Y0103150D01*
X0178637Y0103150D01*
X0178000Y0103787D01*
X0177900Y0103687D01*
X0177900Y0099630D01*
X0176670Y0098400D01*
X0176570Y0098300D01*
X0160730Y0098300D01*
X0159500Y0099530D01*
X0155100Y0103930D01*
X0155100Y0151542D01*
X0154739Y0150670D01*
X0153730Y0149661D01*
X0153714Y0149655D01*
X0154239Y0149130D01*
X0154784Y0147813D01*
X0154784Y0146387D01*
X0154239Y0145070D01*
X0153230Y0144061D01*
X0151913Y0143516D01*
X0150487Y0143516D01*
X0149170Y0144061D01*
X0148161Y0145070D01*
X0147616Y0146387D01*
X0147616Y0147573D01*
X0142300Y0152889D01*
X0142300Y0167489D01*
X0139321Y0170468D01*
X0137850Y0170468D01*
X0136913Y0171405D01*
X0136913Y0174102D01*
X0133284Y0174102D01*
X0133284Y0173187D01*
X0132739Y0171870D01*
X0131730Y0170861D01*
X0130413Y0170316D01*
X0128987Y0170316D01*
X0128722Y0170426D01*
X0129305Y0169842D01*
X0129881Y0168452D01*
X0129881Y0166948D01*
X0129305Y0165558D01*
X0128242Y0164495D01*
X0126852Y0163919D01*
X0125348Y0163919D01*
X0125306Y0163936D01*
X0123300Y0161930D01*
X0123300Y0153730D01*
X0120300Y0150730D01*
X0119070Y0149500D01*
X0110370Y0149500D01*
X0110200Y0149330D01*
X0110200Y0109130D01*
X0108100Y0107030D01*
X0106870Y0105800D01*
X0100369Y0105800D01*
X0099630Y0105061D01*
X0099400Y0104966D01*
X0099400Y0101323D01*
X0099035Y0100441D01*
X0098359Y0099765D01*
X0096003Y0097409D01*
X0095256Y0097099D01*
X0094425Y0096269D01*
X0088375Y0096269D01*
X0087650Y0096994D01*
X0086925Y0096269D01*
X0080875Y0096269D01*
X0080071Y0097072D01*
X0079618Y0097076D01*
X0079618Y0096475D01*
X0079405Y0096262D01*
X0080259Y0096262D01*
X0080990Y0095531D01*
X0086925Y0095531D01*
X0087650Y0094806D01*
X0088375Y0095531D01*
X0094425Y0095531D01*
X0095144Y0094813D01*
X0096070Y0095739D01*
X0097387Y0096284D01*
X0098813Y0096284D01*
X0100130Y0095739D01*
X0101139Y0094730D01*
X0101684Y0093413D01*
X0101684Y0091987D01*
X0101139Y0090670D01*
X0100130Y0089661D01*
X0098813Y0089116D01*
X0097387Y0089116D01*
X0096070Y0089661D01*
X0095774Y0089957D01*
X0095200Y0089957D01*
X0094425Y0089182D01*
X0088375Y0089182D01*
X0087650Y0089907D01*
X0086925Y0089182D01*
X0081103Y0089182D01*
X0080259Y0088338D01*
X0074209Y0088338D01*
X0073272Y0089275D01*
X0073272Y0095325D01*
X0073845Y0095898D01*
X0073269Y0096475D01*
X0073269Y0102525D01*
X0074206Y0103462D01*
X0078681Y0103462D01*
X0079618Y0102525D01*
X0079618Y0101876D01*
X0080129Y0101872D01*
X0080875Y0102618D01*
X0086925Y0102618D01*
X0087650Y0101893D01*
X0088375Y0102618D01*
X0094424Y0102618D01*
X0094600Y0102794D01*
X0094600Y0106031D01*
X0094561Y0106070D01*
X0094016Y0107387D01*
X0094016Y0108813D01*
X0094561Y0110130D01*
X0095050Y0110619D01*
X0092214Y0110619D01*
X0091277Y0111557D01*
X0091277Y0117606D01*
X0092214Y0118544D01*
X0095705Y0118544D01*
X0095830Y0118419D01*
X0095955Y0118544D01*
X0099445Y0118544D01*
X0099476Y0118513D01*
X0099663Y0118621D01*
X0100120Y0118744D01*
X0101440Y0118744D01*
X0101440Y0114582D01*
X0101440Y0114582D01*
X0101440Y0118744D01*
X0102760Y0118744D01*
X0103218Y0118621D01*
X0103628Y0118384D01*
X0103963Y0118049D01*
X0104200Y0117638D01*
X0104323Y0117181D01*
X0104323Y0114582D01*
X0101440Y0114582D01*
X0101440Y0114581D01*
X0101440Y0114581D01*
X0101440Y0110419D01*
X0100350Y0110419D01*
X0100639Y0110130D01*
X0100693Y0110000D01*
X0105130Y0110000D01*
X0106000Y0110870D01*
X0106000Y0151070D01*
X0107230Y0152300D01*
X0108630Y0153700D01*
X0117330Y0153700D01*
X0119100Y0155470D01*
X0119100Y0163670D01*
X0120330Y0164900D01*
X0122336Y0166906D01*
X0122319Y0166948D01*
X0122319Y0168452D01*
X0122895Y0169842D01*
X0123958Y0170905D01*
X0125348Y0171481D01*
X0126852Y0171481D01*
X0127190Y0171341D01*
X0126661Y0171870D01*
X0126116Y0173187D01*
X0126116Y0174613D01*
X0126661Y0175930D01*
X0127670Y0176939D01*
X0128987Y0177484D01*
X0130314Y0177484D01*
X0131132Y0178302D01*
X0133229Y0178302D01*
X0133000Y0178530D01*
X0131730Y0179800D01*
X0102170Y0179800D01*
X0100600Y0178230D01*
X0100600Y0170223D01*
X0100642Y0170205D01*
X0101705Y0169142D01*
X0102281Y0167752D01*
X0102281Y0166248D01*
X0101705Y0164858D01*
X0100642Y0163795D01*
X0099252Y0163219D01*
X0097748Y0163219D01*
X0096358Y0163795D01*
X0095295Y0164858D01*
X0094719Y0166248D01*
X0094719Y0167752D01*
X0095295Y0169142D01*
X0096358Y0170205D01*
X0096400Y0170223D01*
X0096400Y0179970D01*
X0099200Y0182770D01*
X0100430Y0184000D01*
X0132630Y0184000D01*
X0131730Y0184900D01*
X0115399Y0184900D01*
X0114713Y0184616D01*
X0113287Y0184616D01*
X0111970Y0185161D01*
X0110961Y0186170D01*
X0110416Y0187487D01*
X0110416Y0188913D01*
X0110961Y0190230D01*
X0111970Y0191239D01*
X0113287Y0191784D01*
X0114616Y0191784D01*
X0114616Y0191813D01*
X0115161Y0193130D01*
X0116170Y0194139D01*
X0117487Y0194684D01*
X0118141Y0194684D01*
X0118016Y0194987D01*
X0118016Y0196413D01*
X0118561Y0197730D01*
X0119570Y0198739D01*
X0120887Y0199284D01*
X0122313Y0199284D01*
X0123630Y0198739D01*
X0124639Y0197730D01*
X0124859Y0197199D01*
X0136913Y0197199D01*
X0136913Y0206195D01*
X0137850Y0207132D01*
X0138599Y0207132D01*
X0138261Y0207470D01*
X0137716Y0208787D01*
X0137716Y0210213D01*
X0138261Y0211530D01*
X0139270Y0212539D01*
X0140587Y0213084D01*
X0142013Y0213084D01*
X0143330Y0212539D01*
X0144339Y0211530D01*
X0144884Y0210213D01*
X0144884Y0209400D01*
X0145968Y0209400D01*
X0145968Y0215250D01*
X0146905Y0216187D01*
X0159337Y0216187D01*
X0159471Y0216265D01*
X0159929Y0216387D01*
X0161150Y0216387D01*
X0161150Y0211635D01*
X0161150Y0211635D01*
X0161150Y0216387D01*
X0162372Y0216387D01*
X0162829Y0216265D01*
X0162963Y0216187D01*
X0181695Y0216187D01*
X0182632Y0215250D01*
X0182632Y0208019D01*
X0181695Y0207082D01*
X0166426Y0207082D01*
X0166530Y0207039D01*
X0167539Y0206030D01*
X0168084Y0204713D01*
X0168084Y0203287D01*
X0167539Y0201970D01*
X0166530Y0200961D01*
X0165213Y0200416D01*
X0163787Y0200416D01*
X0162470Y0200961D01*
X0161550Y0201881D01*
X0160630Y0200961D01*
X0159313Y0200416D01*
X0158584Y0200416D01*
X0158584Y0199087D01*
X0158039Y0197770D01*
X0157030Y0196761D01*
X0155713Y0196216D01*
X0154287Y0196216D01*
X0152970Y0196761D01*
X0151961Y0197770D01*
X0151416Y0199087D01*
X0151416Y0200224D01*
X0150913Y0200016D01*
X0149487Y0200016D01*
X0148170Y0200561D01*
X0148150Y0200581D01*
X0147941Y0200371D01*
X0150000Y0198311D01*
X0150000Y0198170D01*
X0150600Y0197570D01*
X0150600Y0193723D01*
X0150642Y0193705D01*
X0151705Y0192642D01*
X0152281Y0191252D01*
X0152281Y0189748D01*
X0151705Y0188358D01*
X0150642Y0187295D01*
X0149252Y0186719D01*
X0147748Y0186719D01*
X0146358Y0187295D01*
X0146018Y0187635D01*
X0146018Y0171405D01*
X0145312Y0170699D01*
X0145411Y0170600D01*
X0146199Y0169812D01*
X0146905Y0170518D01*
X0162487Y0170518D01*
X0162621Y0170595D01*
X0163079Y0170718D01*
X0164300Y0170718D01*
X0164300Y0165965D01*
X0164300Y0161213D01*
X0164300Y0165965D01*
X0164300Y0165965D01*
X0164300Y0170718D01*
X0165521Y0170718D01*
X0165979Y0170595D01*
X0166113Y0170518D01*
X0179448Y0170518D01*
X0179530Y0170600D01*
X0183387Y0170600D01*
X0182582Y0171405D01*
X0182582Y0206195D01*
X0183519Y0207132D01*
X0185000Y0207132D01*
X0185000Y0207582D01*
X0184075Y0207582D01*
X0183138Y0208519D01*
X0183138Y0212994D01*
X0184075Y0213931D01*
X0190125Y0213931D01*
X0191062Y0212994D01*
X0191062Y0208519D01*
X0190125Y0207582D01*
X0189200Y0207582D01*
X0189200Y0207132D01*
X0190750Y0207132D01*
X0191687Y0206195D01*
X0191687Y0195399D01*
X0193800Y0197511D01*
X0193800Y0223711D01*
X0196700Y0226611D01*
X0197989Y0227900D01*
X0198560Y0227900D01*
X0198591Y0227975D01*
X0199941Y0229325D01*
X0201705Y0230056D01*
X0210015Y0230056D01*
X0211779Y0229325D01*
X0213129Y0227975D01*
X0213860Y0226211D01*
X0213860Y0224301D01*
X0213129Y0222537D01*
X0211779Y0221187D01*
X0210015Y0220456D01*
X0201705Y0220456D01*
X0199941Y0221187D01*
X0198719Y0222408D01*
X0198200Y0221889D01*
X0198200Y0218584D01*
X0198941Y0219325D01*
X0200705Y0220056D01*
X0209015Y0220056D01*
X0210779Y0219325D01*
X0212129Y0217975D01*
X0212860Y0216211D01*
X0212860Y0214301D01*
X0212129Y0212537D01*
X0210779Y0211187D01*
X0209015Y0210456D01*
X0200705Y0210456D01*
X0198941Y0211187D01*
X0198200Y0211928D01*
X0198200Y0207516D01*
X0198383Y0207876D01*
X0198846Y0208513D01*
X0199403Y0209070D01*
X0200039Y0209532D01*
X0200741Y0209890D01*
X0201489Y0210133D01*
X0202266Y0210256D01*
X0205660Y0210256D01*
X0205660Y0205456D01*
X0206060Y0205456D01*
X0206060Y0210256D01*
X0209453Y0210256D01*
X0210231Y0210133D01*
X0210979Y0209890D01*
X0211680Y0209532D01*
X0212317Y0209070D01*
X0212874Y0208513D01*
X0213282Y0207952D01*
X0216300Y0210970D01*
X0217530Y0212200D01*
X0223355Y0212200D01*
X0223360Y0212853D01*
X0222894Y0213318D01*
X0222894Y0217596D01*
X0223832Y0218533D01*
X0227126Y0218533D01*
X0227250Y0218408D01*
X0227375Y0218533D01*
X0230275Y0218533D01*
X0230400Y0218408D01*
X0230525Y0218533D01*
X0233425Y0218533D01*
X0233550Y0218408D01*
X0233674Y0218533D01*
X0236968Y0218533D01*
X0237905Y0217596D01*
X0237905Y0213318D01*
X0237430Y0212842D01*
X0237450Y0206525D01*
X0237453Y0206523D01*
X0237453Y0205655D01*
X0237456Y0204790D01*
X0237453Y0204787D01*
X0237453Y0204783D01*
X0236840Y0204170D01*
X0236229Y0203556D01*
X0236225Y0203556D01*
X0233900Y0201230D01*
X0232670Y0200000D01*
X0224470Y0200000D01*
X0224000Y0199530D01*
X0224000Y0173918D01*
X0229625Y0173918D01*
X0230543Y0173000D01*
X0231370Y0173000D01*
X0231500Y0172870D01*
X0231500Y0176000D01*
X0231207Y0176000D01*
X0231073Y0175923D01*
X0230615Y0175800D01*
X0229128Y0175800D01*
X0229128Y0180100D01*
X0229128Y0180100D01*
X0226078Y0180100D01*
X0226078Y0177363D01*
X0226201Y0176905D01*
X0226438Y0176495D01*
X0226773Y0176160D01*
X0227184Y0175923D01*
X0227641Y0175800D01*
X0229128Y0175800D01*
X0229128Y0180100D01*
X0226078Y0180100D01*
X0226078Y0182837D01*
X0226201Y0183295D01*
X0226438Y0183705D01*
X0226773Y0184040D01*
X0227184Y0184277D01*
X0227641Y0184400D01*
X0229128Y0184400D01*
X0229128Y0180100D01*
X0229128Y0180100D01*
X0229128Y0180100D01*
X0229128Y0184400D01*
X0230615Y0184400D01*
X0231073Y0184277D01*
X0231207Y0184200D01*
X0234584Y0184200D01*
X0235522Y0183263D01*
X0235522Y0180248D01*
X0235700Y0180070D01*
X0235700Y0164070D01*
X0237470Y0162300D01*
X0238700Y0161070D01*
X0238700Y0158350D01*
X0239450Y0158350D01*
X0239450Y0161539D01*
X0238689Y0162300D01*
X0237400Y0163589D01*
X0237400Y0165238D01*
X0237141Y0165238D01*
X0236204Y0166175D01*
X0236204Y0172225D01*
X0236579Y0172600D01*
X0236104Y0173075D01*
X0236104Y0179125D01*
X0237041Y0180062D01*
X0238600Y0180062D01*
X0238600Y0185831D01*
X0237761Y0186670D01*
X0237216Y0187987D01*
X0237216Y0189413D01*
X0237761Y0190730D01*
X0238770Y0191739D01*
X0240087Y0192284D01*
X0241513Y0192284D01*
X0242830Y0191739D01*
X0243839Y0190730D01*
X0244384Y0189413D01*
X0244384Y0187987D01*
X0243839Y0186670D01*
X0243000Y0185831D01*
X0243000Y0180062D01*
X0243091Y0180062D01*
X0244028Y0179125D01*
X0244028Y0173075D01*
X0243653Y0172700D01*
X0244128Y0172225D01*
X0244128Y0166175D01*
X0243191Y0165238D01*
X0241973Y0165238D01*
X0243750Y0163461D01*
X0243750Y0161639D01*
X0243650Y0161539D01*
X0243650Y0158550D01*
X0244050Y0158550D01*
X0244050Y0154500D01*
X0244050Y0154500D01*
X0244050Y0150450D01*
X0244450Y0150450D01*
X0244450Y0149651D01*
X0244119Y0148852D01*
X0244119Y0147348D01*
X0244507Y0146411D01*
X0243979Y0146400D01*
X0243650Y0146400D01*
X0243650Y0148720D01*
X0241900Y0150470D01*
X0241720Y0150650D01*
X0242396Y0150650D01*
X0242530Y0150573D01*
X0242988Y0150450D01*
X0244050Y0150450D01*
X0244050Y0154500D01*
X0244050Y0154500D01*
X0244050Y0158550D01*
X0245112Y0158550D01*
X0245570Y0158427D01*
X0245704Y0158350D01*
X0249450Y0158350D01*
X0249450Y0161120D01*
X0251400Y0163070D01*
X0252630Y0164300D01*
X0265130Y0164300D01*
X0265300Y0164470D01*
X0265300Y0166926D01*
X0265226Y0167000D01*
X0264818Y0167000D01*
X0264818Y0166175D01*
X0263881Y0165238D01*
X0259406Y0165238D01*
X0258469Y0166175D01*
X0258469Y0172225D01*
X0258994Y0172750D01*
X0258469Y0173275D01*
X0258469Y0179325D01*
X0259406Y0180262D01*
X0263881Y0180262D01*
X0264818Y0179325D01*
X0264818Y0173275D01*
X0264293Y0172750D01*
X0264818Y0172225D01*
X0264818Y0171400D01*
X0266344Y0171400D01*
X0267175Y0172231D01*
X0273225Y0172231D01*
X0274162Y0171294D01*
X0274162Y0166819D01*
X0273225Y0165882D01*
X0269500Y0165882D01*
X0269500Y0162730D01*
X0268270Y0161500D01*
X0266870Y0160100D01*
X0254370Y0160100D01*
X0253650Y0159380D01*
X0253650Y0158350D01*
X0255538Y0158350D01*
X0256475Y0157413D01*
X0256475Y0156700D01*
X0258611Y0156700D01*
X0266911Y0148400D01*
X0267433Y0148400D01*
X0267807Y0149302D01*
X0269298Y0150793D01*
X0271022Y0151507D01*
X0270298Y0151807D01*
X0268807Y0153298D01*
X0268000Y0155246D01*
X0268000Y0157354D01*
X0268807Y0159302D01*
X0270298Y0160793D01*
X0272246Y0161600D01*
X0274354Y0161600D01*
X0276302Y0160793D01*
X0277793Y0159302D01*
X0278600Y0157354D01*
X0278600Y0155246D01*
X0277793Y0153298D01*
X0276302Y0151807D01*
X0274578Y0151093D01*
X0275302Y0150793D01*
X0276793Y0149302D01*
X0277600Y0147354D01*
X0277600Y0145246D01*
X0276793Y0143298D01*
X0275302Y0141807D01*
X0274578Y0141507D01*
X0276302Y0140793D01*
X0277793Y0139302D01*
X0278600Y0137354D01*
X0278600Y0135246D01*
X0277793Y0133298D01*
X0276302Y0131807D01*
X0276266Y0131792D01*
X0276695Y0131677D01*
X0277105Y0131440D01*
X0277440Y0131105D01*
X0277677Y0130695D01*
X0277800Y0130237D01*
X0277800Y0126500D01*
X0272500Y0126500D01*
X0272500Y0126100D01*
X0277800Y0126100D01*
X0277800Y0122363D01*
X0277677Y0121905D01*
X0277440Y0121495D01*
X0277105Y0121160D01*
X0276695Y0120923D01*
X0276237Y0120800D01*
X0272500Y0120800D01*
X0272500Y0126100D01*
X0272100Y0126100D01*
X0272100Y0120800D01*
X0268363Y0120800D01*
X0267905Y0120923D01*
X0267495Y0121160D01*
X0267160Y0121495D01*
X0266923Y0121905D01*
X0266800Y0122363D01*
X0266800Y0126100D01*
X0272100Y0126100D01*
X0272100Y0126500D01*
X0266800Y0126500D01*
X0266800Y0130237D01*
X0266923Y0130695D01*
X0267160Y0131105D01*
X0267495Y0131440D01*
X0267905Y0131677D01*
X0268363Y0131800D01*
X0270314Y0131800D01*
X0270298Y0131807D01*
X0268807Y0133298D01*
X0268475Y0134100D01*
X0259911Y0134100D01*
X0257311Y0131500D01*
X0256475Y0131500D01*
X0256475Y0130787D01*
X0255538Y0129850D01*
X0248204Y0129850D01*
X0248070Y0129773D01*
X0247612Y0129650D01*
X0246550Y0129650D01*
X0246550Y0133700D01*
X0246550Y0133700D01*
X0246550Y0137750D01*
X0247612Y0137750D01*
X0247843Y0137688D01*
X0246861Y0138670D01*
X0246316Y0139987D01*
X0246316Y0141413D01*
X0246642Y0142200D01*
X0244021Y0142200D01*
X0243650Y0142192D01*
X0243650Y0137550D01*
X0244896Y0137550D01*
X0245030Y0137627D01*
X0245488Y0137750D01*
X0246550Y0137750D01*
X0246550Y0133700D01*
X0246550Y0133700D01*
X0246550Y0129650D01*
X0246200Y0129650D01*
X0246200Y0129130D01*
X0244970Y0127900D01*
X0243970Y0126900D01*
X0228730Y0126900D01*
X0227500Y0128130D01*
X0226596Y0129034D01*
X0226596Y0127774D01*
X0228270Y0126100D01*
X0235270Y0126100D01*
X0238070Y0123300D01*
X0239300Y0122070D01*
X0239300Y0120026D01*
X0240347Y0121072D01*
X0241809Y0121678D01*
X0243391Y0121678D01*
X0244853Y0121072D01*
X0245972Y0119953D01*
X0246578Y0118491D01*
X0246578Y0116909D01*
X0245972Y0115447D01*
X0245000Y0114474D01*
X0245000Y0113100D01*
X0253382Y0113100D01*
X0253382Y0113725D01*
X0254319Y0114662D01*
X0258794Y0114662D01*
X0259731Y0113725D01*
X0259731Y0107675D01*
X0258856Y0106800D01*
X0261132Y0106800D01*
X0260963Y0106897D01*
X0260628Y0107233D01*
X0260391Y0107643D01*
X0260269Y0108101D01*
X0260269Y0110700D01*
X0263643Y0110700D01*
X0263643Y0110700D01*
X0260268Y0110700D01*
X0260269Y0113299D01*
X0260391Y0113757D01*
X0260628Y0114167D01*
X0260963Y0114503D01*
X0261374Y0114740D01*
X0261832Y0114862D01*
X0263643Y0114862D01*
X0263643Y0110700D01*
X0263643Y0110700D01*
X0263643Y0114862D01*
X0265455Y0114862D01*
X0265913Y0114740D01*
X0266323Y0114503D01*
X0266658Y0114167D01*
X0266895Y0113757D01*
X0267018Y0113299D01*
X0267018Y0110700D01*
X0263643Y0110700D01*
X0263643Y0110700D01*
X0267018Y0110700D01*
X0267018Y0108101D01*
X0266895Y0107643D01*
X0266658Y0107233D01*
X0266323Y0106897D01*
X0266155Y0106800D01*
X0283482Y0106800D01*
X0283482Y0361270D01*
X0020653Y0361270D01*
X0020653Y0361242D02*
X0283482Y0361242D01*
X0283482Y0359644D02*
X0020653Y0359644D01*
X0020653Y0358045D02*
X0283482Y0358045D01*
X0283482Y0356447D02*
X0020653Y0356447D01*
X0020653Y0354848D02*
X0283482Y0354848D01*
X0283482Y0353250D02*
X0020653Y0353250D01*
X0020653Y0351651D02*
X0283482Y0351651D01*
X0283482Y0350053D02*
X0044175Y0350053D01*
X0043878Y0350176D02*
X0040258Y0350176D01*
X0036913Y0348790D01*
X0034353Y0346230D01*
X0032968Y0342886D01*
X0032968Y0297487D01*
X0034353Y0294142D01*
X0038445Y0290050D01*
X0041790Y0288665D01*
X0045410Y0288665D01*
X0048755Y0290050D01*
X0051315Y0292610D01*
X0052700Y0295954D01*
X0052700Y0299575D01*
X0051315Y0302919D01*
X0051168Y0303066D01*
X0051168Y0342886D01*
X0049782Y0346230D01*
X0047222Y0348790D01*
X0043878Y0350176D01*
X0039961Y0350053D02*
X0020653Y0350053D01*
X0020653Y0348454D02*
X0036577Y0348454D01*
X0034978Y0346856D02*
X0020653Y0346856D01*
X0020653Y0345257D02*
X0033950Y0345257D01*
X0033288Y0343659D02*
X0020653Y0343659D01*
X0020653Y0342060D02*
X0032968Y0342060D01*
X0032968Y0340462D02*
X0020653Y0340462D01*
X0020653Y0338863D02*
X0032968Y0338863D01*
X0032968Y0337265D02*
X0020653Y0337265D01*
X0020653Y0335666D02*
X0032968Y0335666D01*
X0032968Y0334068D02*
X0020653Y0334068D01*
X0020653Y0332469D02*
X0032968Y0332469D01*
X0032968Y0330870D02*
X0020653Y0330870D01*
X0020653Y0329272D02*
X0032968Y0329272D01*
X0032968Y0327673D02*
X0020653Y0327673D01*
X0020653Y0326075D02*
X0032968Y0326075D01*
X0032968Y0324476D02*
X0020653Y0324476D01*
X0020653Y0322878D02*
X0032968Y0322878D01*
X0032968Y0321279D02*
X0020653Y0321279D01*
X0020653Y0319681D02*
X0032968Y0319681D01*
X0032968Y0318082D02*
X0020653Y0318082D01*
X0020653Y0316484D02*
X0032968Y0316484D01*
X0032968Y0314885D02*
X0020653Y0314885D01*
X0020653Y0313287D02*
X0032968Y0313287D01*
X0032968Y0311688D02*
X0020653Y0311688D01*
X0020653Y0310090D02*
X0032968Y0310090D01*
X0032968Y0308491D02*
X0020653Y0308491D01*
X0020653Y0306893D02*
X0032968Y0306893D01*
X0032968Y0305294D02*
X0020653Y0305294D01*
X0020653Y0303696D02*
X0032968Y0303696D01*
X0032968Y0302097D02*
X0020653Y0302097D01*
X0020653Y0300499D02*
X0032968Y0300499D01*
X0032968Y0298900D02*
X0020653Y0298900D01*
X0020653Y0297302D02*
X0033044Y0297302D01*
X0033706Y0295703D02*
X0020653Y0295703D01*
X0020653Y0294105D02*
X0034391Y0294105D01*
X0035989Y0292506D02*
X0020653Y0292506D01*
X0020653Y0290908D02*
X0037588Y0290908D01*
X0040234Y0289309D02*
X0020653Y0289309D01*
X0020653Y0287711D02*
X0073820Y0287711D01*
X0073761Y0287770D02*
X0074700Y0286831D01*
X0074700Y0275900D01*
X0074598Y0275764D01*
X0074700Y0275051D01*
X0074700Y0274330D01*
X0074816Y0274214D01*
X0074816Y0273287D01*
X0075361Y0271970D01*
X0076370Y0270961D01*
X0077687Y0270416D01*
X0079113Y0270416D01*
X0080430Y0270961D01*
X0081439Y0271970D01*
X0081984Y0273287D01*
X0081984Y0274713D01*
X0081439Y0276030D01*
X0080430Y0277039D01*
X0079113Y0277584D01*
X0078900Y0277584D01*
X0078900Y0286831D01*
X0079839Y0287770D01*
X0080384Y0289087D01*
X0080384Y0290513D01*
X0079839Y0291830D01*
X0078830Y0292839D01*
X0078820Y0292843D01*
X0078828Y0292850D01*
X0079065Y0293260D01*
X0079187Y0293718D01*
X0079187Y0296561D01*
X0073384Y0296561D01*
X0073384Y0298161D01*
X0071784Y0298161D01*
X0071784Y0302566D01*
X0067544Y0302566D01*
X0067086Y0302443D01*
X0066676Y0302206D01*
X0066341Y0301871D01*
X0066104Y0301461D01*
X0065981Y0301003D01*
X0065981Y0298161D01*
X0071784Y0298161D01*
X0071784Y0296561D01*
X0065981Y0296561D01*
X0065981Y0293718D01*
X0066104Y0293260D01*
X0066341Y0292850D01*
X0066676Y0292515D01*
X0067086Y0292278D01*
X0067544Y0292155D01*
X0071784Y0292155D01*
X0071784Y0296561D01*
X0073384Y0296561D01*
X0073384Y0292155D01*
X0074086Y0292155D01*
X0073761Y0291830D01*
X0073216Y0290513D01*
X0073216Y0289087D01*
X0073761Y0287770D01*
X0073216Y0289309D02*
X0046966Y0289309D01*
X0049612Y0290908D02*
X0073379Y0290908D01*
X0073384Y0292506D02*
X0071784Y0292506D01*
X0071784Y0294105D02*
X0073384Y0294105D01*
X0073384Y0295703D02*
X0071784Y0295703D01*
X0071784Y0297302D02*
X0052700Y0297302D01*
X0052700Y0298900D02*
X0065981Y0298900D01*
X0065981Y0300499D02*
X0052317Y0300499D01*
X0051655Y0302097D02*
X0066567Y0302097D01*
X0065981Y0295703D02*
X0052596Y0295703D01*
X0051934Y0294105D02*
X0065981Y0294105D01*
X0066691Y0292506D02*
X0051211Y0292506D01*
X0051168Y0303696D02*
X0113439Y0303696D01*
X0113439Y0305294D02*
X0051168Y0305294D01*
X0051168Y0306893D02*
X0113439Y0306893D01*
X0113439Y0308491D02*
X0051168Y0308491D01*
X0051168Y0310090D02*
X0113439Y0310090D01*
X0113439Y0311688D02*
X0051168Y0311688D01*
X0051168Y0313287D02*
X0113439Y0313287D01*
X0113439Y0314313D02*
X0113439Y0295166D01*
X0114338Y0292997D01*
X0115997Y0291338D01*
X0118166Y0290439D01*
X0120513Y0290439D01*
X0122681Y0291338D01*
X0124341Y0292997D01*
X0125239Y0295166D01*
X0125239Y0310695D01*
X0129244Y0314700D01*
X0157074Y0314700D01*
X0159242Y0315598D01*
X0165542Y0321898D01*
X0167202Y0323558D01*
X0168100Y0325726D01*
X0168100Y0342117D01*
X0167202Y0344285D01*
X0165410Y0346077D01*
X0163241Y0346976D01*
X0160894Y0346976D01*
X0158726Y0346077D01*
X0157066Y0344418D01*
X0156168Y0342249D01*
X0156168Y0339902D01*
X0156300Y0339583D01*
X0156300Y0329344D01*
X0153456Y0326500D01*
X0125626Y0326500D01*
X0123458Y0325602D01*
X0121798Y0323942D01*
X0114338Y0316481D01*
X0113439Y0314313D01*
X0113676Y0314885D02*
X0051168Y0314885D01*
X0051168Y0316484D02*
X0114340Y0316484D01*
X0115939Y0318082D02*
X0051168Y0318082D01*
X0051168Y0319681D02*
X0117537Y0319681D01*
X0119136Y0321279D02*
X0051168Y0321279D01*
X0051168Y0322878D02*
X0120734Y0322878D01*
X0122333Y0324476D02*
X0051168Y0324476D01*
X0051168Y0326075D02*
X0124600Y0326075D01*
X0123238Y0335194D02*
X0120898Y0335194D01*
X0118736Y0336089D01*
X0117082Y0337744D01*
X0116186Y0339906D01*
X0116186Y0342245D01*
X0117082Y0344407D01*
X0118736Y0346062D01*
X0120898Y0346957D01*
X0123238Y0346957D01*
X0125399Y0346062D01*
X0127054Y0344407D01*
X0127949Y0342245D01*
X0127949Y0339906D01*
X0127054Y0337744D01*
X0125399Y0336089D01*
X0123238Y0335194D01*
X0124377Y0335666D02*
X0139758Y0335666D01*
X0138736Y0336089D02*
X0140898Y0335194D01*
X0143238Y0335194D01*
X0145399Y0336089D01*
X0147054Y0337744D01*
X0147949Y0339906D01*
X0147949Y0342245D01*
X0147054Y0344407D01*
X0145399Y0346062D01*
X0143238Y0346957D01*
X0140898Y0346957D01*
X0138736Y0346062D01*
X0137082Y0344407D01*
X0136186Y0342245D01*
X0136186Y0339906D01*
X0137082Y0337744D01*
X0138736Y0336089D01*
X0137561Y0337265D02*
X0126574Y0337265D01*
X0127517Y0338863D02*
X0136618Y0338863D01*
X0136186Y0340462D02*
X0127949Y0340462D01*
X0127949Y0342060D02*
X0136186Y0342060D01*
X0136772Y0343659D02*
X0127364Y0343659D01*
X0126204Y0345257D02*
X0137932Y0345257D01*
X0140653Y0346856D02*
X0123483Y0346856D01*
X0120653Y0346856D02*
X0103483Y0346856D01*
X0103238Y0346957D02*
X0100898Y0346957D01*
X0098736Y0346062D01*
X0097082Y0344407D01*
X0096186Y0342245D01*
X0096186Y0339906D01*
X0097082Y0337744D01*
X0098736Y0336089D01*
X0100898Y0335194D01*
X0103238Y0335194D01*
X0105399Y0336089D01*
X0107054Y0337744D01*
X0107949Y0339906D01*
X0107949Y0342245D01*
X0107054Y0344407D01*
X0105399Y0346062D01*
X0103238Y0346957D01*
X0100653Y0346856D02*
X0083483Y0346856D01*
X0083238Y0346957D02*
X0080898Y0346957D01*
X0078736Y0346062D01*
X0077082Y0344407D01*
X0076186Y0342245D01*
X0076186Y0339906D01*
X0077082Y0337744D01*
X0078736Y0336089D01*
X0080898Y0335194D01*
X0083238Y0335194D01*
X0085399Y0336089D01*
X0087054Y0337744D01*
X0087949Y0339906D01*
X0087949Y0342245D01*
X0087054Y0344407D01*
X0085399Y0346062D01*
X0083238Y0346957D01*
X0080653Y0346856D02*
X0063959Y0346856D01*
X0064402Y0346712D02*
X0063492Y0347007D01*
X0062695Y0347134D01*
X0062695Y0341703D01*
X0061441Y0341703D01*
X0061441Y0347134D01*
X0060644Y0347007D01*
X0059733Y0346712D01*
X0058880Y0346277D01*
X0058106Y0345714D01*
X0057429Y0345037D01*
X0056866Y0344263D01*
X0056432Y0343410D01*
X0056136Y0342500D01*
X0056010Y0341703D01*
X0061440Y0341703D01*
X0061440Y0340448D01*
X0056010Y0340448D01*
X0056136Y0339651D01*
X0056432Y0338741D01*
X0056866Y0337888D01*
X0057429Y0337114D01*
X0058106Y0336437D01*
X0058880Y0335874D01*
X0059733Y0335440D01*
X0060644Y0335144D01*
X0061441Y0335018D01*
X0061441Y0340448D01*
X0062695Y0340448D01*
X0062695Y0335018D01*
X0063492Y0335144D01*
X0064402Y0335440D01*
X0065255Y0335874D01*
X0066030Y0336437D01*
X0066706Y0337114D01*
X0067269Y0337888D01*
X0067704Y0338741D01*
X0067999Y0339651D01*
X0068126Y0340448D01*
X0062695Y0340448D01*
X0062695Y0341703D01*
X0068126Y0341703D01*
X0067999Y0342500D01*
X0067704Y0343410D01*
X0067269Y0344263D01*
X0066706Y0345037D01*
X0066030Y0345714D01*
X0065255Y0346277D01*
X0064402Y0346712D01*
X0062695Y0346856D02*
X0061441Y0346856D01*
X0060177Y0346856D02*
X0049157Y0346856D01*
X0050185Y0345257D02*
X0057649Y0345257D01*
X0056558Y0343659D02*
X0050848Y0343659D01*
X0051168Y0342060D02*
X0056066Y0342060D01*
X0056392Y0338863D02*
X0051168Y0338863D01*
X0051168Y0337265D02*
X0057319Y0337265D01*
X0059289Y0335666D02*
X0051168Y0335666D01*
X0051168Y0334068D02*
X0156300Y0334068D01*
X0156300Y0335666D02*
X0144377Y0335666D01*
X0146574Y0337265D02*
X0156300Y0337265D01*
X0156300Y0338863D02*
X0147517Y0338863D01*
X0147949Y0340462D02*
X0156168Y0340462D01*
X0156168Y0342060D02*
X0147949Y0342060D01*
X0147364Y0343659D02*
X0156752Y0343659D01*
X0157905Y0345257D02*
X0146204Y0345257D01*
X0143483Y0346856D02*
X0160604Y0346856D01*
X0163531Y0346856D02*
X0180604Y0346856D01*
X0180894Y0346976D02*
X0178726Y0346077D01*
X0177066Y0344418D01*
X0176168Y0342249D01*
X0176168Y0293819D01*
X0177066Y0291651D01*
X0187419Y0281298D01*
X0189587Y0280400D01*
X0191934Y0280400D01*
X0194103Y0281298D01*
X0195762Y0282958D01*
X0196661Y0285126D01*
X0196661Y0287474D01*
X0195762Y0289642D01*
X0187968Y0297437D01*
X0187968Y0342249D01*
X0187069Y0344418D01*
X0185410Y0346077D01*
X0183241Y0346976D01*
X0180894Y0346976D01*
X0183531Y0346856D02*
X0200177Y0346856D01*
X0199733Y0346712D02*
X0198880Y0346277D01*
X0198106Y0345714D01*
X0197429Y0345037D01*
X0196866Y0344263D01*
X0196432Y0343410D01*
X0196136Y0342500D01*
X0196010Y0341703D01*
X0201440Y0341703D01*
X0201440Y0340448D01*
X0196010Y0340448D01*
X0196136Y0339651D01*
X0196432Y0338741D01*
X0196866Y0337888D01*
X0197429Y0337114D01*
X0198106Y0336437D01*
X0198880Y0335874D01*
X0199733Y0335440D01*
X0200644Y0335144D01*
X0201441Y0335018D01*
X0201441Y0340448D01*
X0202695Y0340448D01*
X0202695Y0335018D01*
X0203492Y0335144D01*
X0204402Y0335440D01*
X0205255Y0335874D01*
X0206030Y0336437D01*
X0206706Y0337114D01*
X0207269Y0337888D01*
X0207704Y0338741D01*
X0207999Y0339651D01*
X0208126Y0340448D01*
X0202695Y0340448D01*
X0202695Y0341703D01*
X0201441Y0341703D01*
X0201441Y0347134D01*
X0200644Y0347007D01*
X0199733Y0346712D01*
X0201441Y0346856D02*
X0202695Y0346856D01*
X0202695Y0347134D02*
X0203492Y0347007D01*
X0204402Y0346712D01*
X0205255Y0346277D01*
X0206030Y0345714D01*
X0206706Y0345037D01*
X0207269Y0344263D01*
X0207704Y0343410D01*
X0207999Y0342500D01*
X0208126Y0341703D01*
X0202695Y0341703D01*
X0202695Y0347134D01*
X0203959Y0346856D02*
X0220604Y0346856D01*
X0220894Y0346976D02*
X0218726Y0346077D01*
X0217066Y0344418D01*
X0216168Y0342249D01*
X0216168Y0295319D01*
X0217066Y0293151D01*
X0228919Y0281298D01*
X0231087Y0280400D01*
X0233434Y0280400D01*
X0235603Y0281298D01*
X0237262Y0282958D01*
X0238161Y0285126D01*
X0238161Y0287474D01*
X0237262Y0289642D01*
X0227968Y0298937D01*
X0227968Y0342249D01*
X0227069Y0344418D01*
X0225410Y0346077D01*
X0223241Y0346976D01*
X0220894Y0346976D01*
X0223531Y0346856D02*
X0240177Y0346856D01*
X0239733Y0346712D02*
X0240644Y0347007D01*
X0241441Y0347134D01*
X0241441Y0341703D01*
X0242695Y0341703D01*
X0242695Y0347134D01*
X0243492Y0347007D01*
X0244402Y0346712D01*
X0245255Y0346277D01*
X0246030Y0345714D01*
X0246706Y0345037D01*
X0247269Y0344263D01*
X0247704Y0343410D01*
X0247999Y0342500D01*
X0248126Y0341703D01*
X0242695Y0341703D01*
X0242695Y0340448D01*
X0242695Y0335018D01*
X0243492Y0335144D01*
X0244402Y0335440D01*
X0245255Y0335874D01*
X0246030Y0336437D01*
X0246706Y0337114D01*
X0247269Y0337888D01*
X0247704Y0338741D01*
X0247999Y0339651D01*
X0248126Y0340448D01*
X0242695Y0340448D01*
X0241441Y0340448D01*
X0241441Y0335018D01*
X0240644Y0335144D01*
X0239733Y0335440D01*
X0238880Y0335874D01*
X0238106Y0336437D01*
X0237429Y0337114D01*
X0236866Y0337888D01*
X0236432Y0338741D01*
X0236136Y0339651D01*
X0236010Y0340448D01*
X0241440Y0340448D01*
X0241440Y0341703D01*
X0236010Y0341703D01*
X0236136Y0342500D01*
X0236432Y0343410D01*
X0236866Y0344263D01*
X0237429Y0345037D01*
X0238106Y0345714D01*
X0238880Y0346277D01*
X0239733Y0346712D01*
X0241441Y0346856D02*
X0242695Y0346856D01*
X0243959Y0346856D02*
X0260604Y0346856D01*
X0260894Y0346976D02*
X0258726Y0346077D01*
X0257066Y0344418D01*
X0256168Y0342249D01*
X0256168Y0296819D01*
X0257066Y0294651D01*
X0270419Y0281298D01*
X0272587Y0280400D01*
X0274934Y0280400D01*
X0277103Y0281298D01*
X0278762Y0282958D01*
X0279661Y0285126D01*
X0279661Y0287474D01*
X0278762Y0289642D01*
X0267968Y0300437D01*
X0267968Y0342249D01*
X0267069Y0344418D01*
X0265410Y0346077D01*
X0263241Y0346976D01*
X0260894Y0346976D01*
X0263531Y0346856D02*
X0283482Y0346856D01*
X0283482Y0348454D02*
X0047559Y0348454D01*
X0051168Y0340462D02*
X0061440Y0340462D01*
X0062695Y0340462D02*
X0076186Y0340462D01*
X0076186Y0342060D02*
X0068069Y0342060D01*
X0067577Y0343659D02*
X0076772Y0343659D01*
X0077932Y0345257D02*
X0066487Y0345257D01*
X0062695Y0345257D02*
X0061441Y0345257D01*
X0061441Y0343659D02*
X0062695Y0343659D01*
X0062695Y0342060D02*
X0061441Y0342060D01*
X0061441Y0338863D02*
X0062695Y0338863D01*
X0062695Y0337265D02*
X0061441Y0337265D01*
X0061441Y0335666D02*
X0062695Y0335666D01*
X0064846Y0335666D02*
X0079758Y0335666D01*
X0077561Y0337265D02*
X0066816Y0337265D01*
X0067743Y0338863D02*
X0076618Y0338863D01*
X0084377Y0335666D02*
X0099758Y0335666D01*
X0097561Y0337265D02*
X0086574Y0337265D01*
X0087517Y0338863D02*
X0096618Y0338863D01*
X0096186Y0340462D02*
X0087949Y0340462D01*
X0087949Y0342060D02*
X0096186Y0342060D01*
X0096772Y0343659D02*
X0087364Y0343659D01*
X0086204Y0345257D02*
X0097932Y0345257D01*
X0106204Y0345257D02*
X0117932Y0345257D01*
X0116772Y0343659D02*
X0107364Y0343659D01*
X0107949Y0342060D02*
X0116186Y0342060D01*
X0116186Y0340462D02*
X0107949Y0340462D01*
X0107517Y0338863D02*
X0116618Y0338863D01*
X0117561Y0337265D02*
X0106574Y0337265D01*
X0104377Y0335666D02*
X0119758Y0335666D01*
X0127831Y0313287D02*
X0176168Y0313287D01*
X0176168Y0314885D02*
X0157521Y0314885D01*
X0160128Y0316484D02*
X0176168Y0316484D01*
X0176168Y0318082D02*
X0161726Y0318082D01*
X0163325Y0319681D02*
X0176168Y0319681D01*
X0176168Y0321279D02*
X0164923Y0321279D01*
X0166522Y0322878D02*
X0176168Y0322878D01*
X0176168Y0324476D02*
X0167582Y0324476D01*
X0168100Y0326075D02*
X0176168Y0326075D01*
X0176168Y0327673D02*
X0168100Y0327673D01*
X0168100Y0329272D02*
X0176168Y0329272D01*
X0176168Y0330870D02*
X0168100Y0330870D01*
X0168100Y0332469D02*
X0176168Y0332469D01*
X0176168Y0334068D02*
X0168100Y0334068D01*
X0168100Y0335666D02*
X0176168Y0335666D01*
X0176168Y0337265D02*
X0168100Y0337265D01*
X0168100Y0338863D02*
X0176168Y0338863D01*
X0176168Y0340462D02*
X0168100Y0340462D01*
X0168100Y0342060D02*
X0176168Y0342060D01*
X0176752Y0343659D02*
X0167461Y0343659D01*
X0166230Y0345257D02*
X0177905Y0345257D01*
X0186230Y0345257D02*
X0197649Y0345257D01*
X0196558Y0343659D02*
X0187384Y0343659D01*
X0187968Y0342060D02*
X0196066Y0342060D01*
X0196392Y0338863D02*
X0187968Y0338863D01*
X0187968Y0337265D02*
X0197319Y0337265D01*
X0199289Y0335666D02*
X0187968Y0335666D01*
X0187968Y0334068D02*
X0216168Y0334068D01*
X0216168Y0335666D02*
X0204846Y0335666D01*
X0202695Y0335666D02*
X0201441Y0335666D01*
X0201441Y0337265D02*
X0202695Y0337265D01*
X0202695Y0338863D02*
X0201441Y0338863D01*
X0201440Y0340462D02*
X0187968Y0340462D01*
X0187968Y0332469D02*
X0216168Y0332469D01*
X0216168Y0330870D02*
X0187968Y0330870D01*
X0187968Y0329272D02*
X0216168Y0329272D01*
X0216168Y0327673D02*
X0187968Y0327673D01*
X0187968Y0326075D02*
X0216168Y0326075D01*
X0216168Y0324476D02*
X0187968Y0324476D01*
X0187968Y0322878D02*
X0216168Y0322878D01*
X0216168Y0321279D02*
X0187968Y0321279D01*
X0187968Y0319681D02*
X0216168Y0319681D01*
X0216168Y0318082D02*
X0187968Y0318082D01*
X0187968Y0316484D02*
X0216168Y0316484D01*
X0216168Y0314885D02*
X0187968Y0314885D01*
X0187968Y0313287D02*
X0216168Y0313287D01*
X0216168Y0311688D02*
X0187968Y0311688D01*
X0187968Y0310090D02*
X0216168Y0310090D01*
X0216168Y0308491D02*
X0187968Y0308491D01*
X0187968Y0306893D02*
X0216168Y0306893D01*
X0216168Y0305294D02*
X0187968Y0305294D01*
X0187968Y0303696D02*
X0216168Y0303696D01*
X0216168Y0302097D02*
X0187968Y0302097D01*
X0187968Y0300499D02*
X0198807Y0300499D01*
X0199259Y0300950D02*
X0197729Y0299420D01*
X0196901Y0297421D01*
X0196901Y0295258D01*
X0197729Y0293259D01*
X0199259Y0291729D01*
X0201258Y0290901D01*
X0203421Y0290901D01*
X0205420Y0291729D01*
X0206950Y0293259D01*
X0207778Y0295258D01*
X0207778Y0297421D01*
X0206950Y0299420D01*
X0205420Y0300950D01*
X0203421Y0301778D01*
X0201258Y0301778D01*
X0199259Y0300950D01*
X0197513Y0298900D02*
X0187968Y0298900D01*
X0188103Y0297302D02*
X0196901Y0297302D01*
X0196901Y0295703D02*
X0189701Y0295703D01*
X0191300Y0294105D02*
X0197378Y0294105D01*
X0198481Y0292506D02*
X0192898Y0292506D01*
X0194497Y0290908D02*
X0201241Y0290908D01*
X0203438Y0290908D02*
X0219309Y0290908D01*
X0217711Y0292506D02*
X0206198Y0292506D01*
X0207300Y0294105D02*
X0216671Y0294105D01*
X0216168Y0295703D02*
X0207778Y0295703D01*
X0207778Y0297302D02*
X0216168Y0297302D01*
X0216168Y0298900D02*
X0207165Y0298900D01*
X0205871Y0300499D02*
X0216168Y0300499D01*
X0220908Y0289309D02*
X0195900Y0289309D01*
X0196562Y0287711D02*
X0222506Y0287711D01*
X0224105Y0286112D02*
X0196661Y0286112D01*
X0196407Y0284514D02*
X0225703Y0284514D01*
X0227302Y0282915D02*
X0195720Y0282915D01*
X0194121Y0281317D02*
X0228900Y0281317D01*
X0235621Y0281317D02*
X0270400Y0281317D01*
X0268802Y0282915D02*
X0237220Y0282915D01*
X0237907Y0284514D02*
X0267203Y0284514D01*
X0265605Y0286112D02*
X0238161Y0286112D01*
X0238062Y0287711D02*
X0264006Y0287711D01*
X0262408Y0289309D02*
X0237400Y0289309D01*
X0235997Y0290908D02*
X0242741Y0290908D01*
X0242758Y0290901D02*
X0244921Y0290901D01*
X0246920Y0291729D01*
X0248450Y0293259D01*
X0249278Y0295258D01*
X0249278Y0297421D01*
X0248450Y0299420D01*
X0246920Y0300950D01*
X0244921Y0301778D01*
X0242758Y0301778D01*
X0240759Y0300950D01*
X0239229Y0299420D01*
X0238401Y0297421D01*
X0238401Y0295258D01*
X0239229Y0293259D01*
X0240759Y0291729D01*
X0242758Y0290901D01*
X0244938Y0290908D02*
X0260809Y0290908D01*
X0259211Y0292506D02*
X0247698Y0292506D01*
X0248800Y0294105D02*
X0257612Y0294105D01*
X0256630Y0295703D02*
X0249278Y0295703D01*
X0249278Y0297302D02*
X0256168Y0297302D01*
X0256168Y0298900D02*
X0248665Y0298900D01*
X0247371Y0300499D02*
X0256168Y0300499D01*
X0256168Y0302097D02*
X0227968Y0302097D01*
X0227968Y0300499D02*
X0240307Y0300499D01*
X0239013Y0298900D02*
X0228004Y0298900D01*
X0229603Y0297302D02*
X0238401Y0297302D01*
X0238401Y0295703D02*
X0231201Y0295703D01*
X0232800Y0294105D02*
X0238878Y0294105D01*
X0239981Y0292506D02*
X0234398Y0292506D01*
X0227968Y0303696D02*
X0256168Y0303696D01*
X0256168Y0305294D02*
X0227968Y0305294D01*
X0227968Y0306893D02*
X0256168Y0306893D01*
X0256168Y0308491D02*
X0227968Y0308491D01*
X0227968Y0310090D02*
X0256168Y0310090D01*
X0256168Y0311688D02*
X0227968Y0311688D01*
X0227968Y0313287D02*
X0256168Y0313287D01*
X0256168Y0314885D02*
X0227968Y0314885D01*
X0227968Y0316484D02*
X0256168Y0316484D01*
X0256168Y0318082D02*
X0227968Y0318082D01*
X0227968Y0319681D02*
X0256168Y0319681D01*
X0256168Y0321279D02*
X0227968Y0321279D01*
X0227968Y0322878D02*
X0256168Y0322878D01*
X0256168Y0324476D02*
X0227968Y0324476D01*
X0227968Y0326075D02*
X0256168Y0326075D01*
X0256168Y0327673D02*
X0227968Y0327673D01*
X0227968Y0329272D02*
X0256168Y0329272D01*
X0256168Y0330870D02*
X0227968Y0330870D01*
X0227968Y0332469D02*
X0256168Y0332469D01*
X0256168Y0334068D02*
X0227968Y0334068D01*
X0227968Y0335666D02*
X0239289Y0335666D01*
X0241441Y0335666D02*
X0242695Y0335666D01*
X0242695Y0337265D02*
X0241441Y0337265D01*
X0241441Y0338863D02*
X0242695Y0338863D01*
X0242695Y0340462D02*
X0256168Y0340462D01*
X0256168Y0342060D02*
X0248069Y0342060D01*
X0247577Y0343659D02*
X0256752Y0343659D01*
X0257905Y0345257D02*
X0246487Y0345257D01*
X0247743Y0338863D02*
X0256168Y0338863D01*
X0256168Y0337265D02*
X0246816Y0337265D01*
X0244846Y0335666D02*
X0256168Y0335666D01*
X0266230Y0345257D02*
X0283482Y0345257D01*
X0283482Y0343659D02*
X0267384Y0343659D01*
X0267968Y0342060D02*
X0283482Y0342060D01*
X0283482Y0340462D02*
X0267968Y0340462D01*
X0267968Y0338863D02*
X0283482Y0338863D01*
X0283482Y0337265D02*
X0267968Y0337265D01*
X0267968Y0335666D02*
X0283482Y0335666D01*
X0283482Y0334068D02*
X0267968Y0334068D01*
X0267968Y0332469D02*
X0283482Y0332469D01*
X0283482Y0330870D02*
X0267968Y0330870D01*
X0267968Y0329272D02*
X0283482Y0329272D01*
X0283482Y0327673D02*
X0267968Y0327673D01*
X0267968Y0326075D02*
X0283482Y0326075D01*
X0283482Y0324476D02*
X0267968Y0324476D01*
X0267968Y0322878D02*
X0283482Y0322878D01*
X0283482Y0321279D02*
X0267968Y0321279D01*
X0267968Y0319681D02*
X0283482Y0319681D01*
X0283482Y0318082D02*
X0267968Y0318082D01*
X0267968Y0316484D02*
X0283482Y0316484D01*
X0283482Y0314885D02*
X0267968Y0314885D01*
X0267968Y0313287D02*
X0283482Y0313287D01*
X0283482Y0311688D02*
X0267968Y0311688D01*
X0267968Y0310090D02*
X0283482Y0310090D01*
X0283482Y0308491D02*
X0267968Y0308491D01*
X0267968Y0306893D02*
X0283482Y0306893D01*
X0283482Y0305294D02*
X0267968Y0305294D01*
X0267968Y0303696D02*
X0283482Y0303696D01*
X0283482Y0302097D02*
X0267968Y0302097D01*
X0267968Y0300499D02*
X0283482Y0300499D01*
X0283482Y0298900D02*
X0269504Y0298900D01*
X0271103Y0297302D02*
X0283482Y0297302D01*
X0283482Y0295703D02*
X0272701Y0295703D01*
X0274300Y0294105D02*
X0283482Y0294105D01*
X0283482Y0292506D02*
X0275898Y0292506D01*
X0277497Y0290908D02*
X0283482Y0290908D01*
X0283482Y0289309D02*
X0278900Y0289309D01*
X0279562Y0287711D02*
X0283482Y0287711D01*
X0283482Y0286112D02*
X0279661Y0286112D01*
X0279407Y0284514D02*
X0283482Y0284514D01*
X0283482Y0282915D02*
X0278720Y0282915D01*
X0277121Y0281317D02*
X0283482Y0281317D01*
X0283482Y0279718D02*
X0130416Y0279718D01*
X0130626Y0279928D02*
X0131250Y0281434D01*
X0131250Y0282160D01*
X0131500Y0282763D01*
X0131500Y0285059D01*
X0131884Y0285987D01*
X0131884Y0287413D01*
X0131339Y0288730D01*
X0130330Y0289739D01*
X0129013Y0290284D01*
X0127587Y0290284D01*
X0126270Y0289739D01*
X0125261Y0288730D01*
X0124716Y0287413D01*
X0124716Y0285987D01*
X0124825Y0285723D01*
X0122602Y0283500D01*
X0111605Y0283500D01*
X0111605Y0284866D01*
X0110700Y0285771D01*
X0110700Y0289832D01*
X0111605Y0290737D01*
X0111605Y0301669D01*
X0110668Y0302606D01*
X0102532Y0302606D01*
X0101594Y0301669D01*
X0101594Y0290737D01*
X0102500Y0289832D01*
X0102500Y0285771D01*
X0101594Y0284866D01*
X0101594Y0282711D01*
X0095695Y0282711D01*
X0094189Y0282087D01*
X0091478Y0279376D01*
X0090324Y0278222D01*
X0089700Y0276716D01*
X0089700Y0276169D01*
X0088730Y0277139D01*
X0087413Y0277684D01*
X0087400Y0277684D01*
X0087400Y0286630D01*
X0087850Y0287080D01*
X0088142Y0287346D01*
X0088448Y0287219D01*
X0089952Y0287219D01*
X0091342Y0287795D01*
X0092405Y0288858D01*
X0092981Y0290248D01*
X0092981Y0291752D01*
X0092405Y0293142D01*
X0091342Y0294205D01*
X0089952Y0294781D01*
X0088448Y0294781D01*
X0087058Y0294205D01*
X0085995Y0293142D01*
X0085419Y0291752D01*
X0085419Y0290589D01*
X0084950Y0290120D01*
X0084344Y0289569D01*
X0084341Y0289511D01*
X0083200Y0288370D01*
X0083200Y0275773D01*
X0083086Y0275613D01*
X0083189Y0274990D01*
X0083116Y0274813D01*
X0083116Y0273387D01*
X0083661Y0272070D01*
X0084670Y0271061D01*
X0085987Y0270516D01*
X0087413Y0270516D01*
X0088730Y0271061D01*
X0089700Y0272031D01*
X0089700Y0270198D01*
X0088278Y0268776D01*
X0088278Y0268776D01*
X0087124Y0267622D01*
X0086500Y0266116D01*
X0086500Y0252584D01*
X0087124Y0251078D01*
X0090378Y0247824D01*
X0091884Y0247200D01*
X0093516Y0247200D01*
X0095022Y0247824D01*
X0096176Y0248978D01*
X0096800Y0250484D01*
X0096800Y0252116D01*
X0096176Y0253622D01*
X0094700Y0255098D01*
X0094700Y0263602D01*
X0096122Y0265024D01*
X0097276Y0266178D01*
X0097900Y0267684D01*
X0097900Y0274202D01*
X0098209Y0274511D01*
X0101594Y0274511D01*
X0101594Y0273934D01*
X0102532Y0272997D01*
X0110668Y0272997D01*
X0111605Y0273934D01*
X0111605Y0275300D01*
X0125116Y0275300D01*
X0126622Y0275924D01*
X0130626Y0279928D01*
X0131201Y0281317D02*
X0147080Y0281317D01*
X0146180Y0281689D02*
X0148179Y0280861D01*
X0150342Y0280861D01*
X0152341Y0281689D01*
X0153871Y0283219D01*
X0154699Y0285218D01*
X0154699Y0287382D01*
X0153871Y0289381D01*
X0152341Y0290911D01*
X0150342Y0291739D01*
X0148179Y0291739D01*
X0146180Y0290911D01*
X0144650Y0289381D01*
X0143822Y0287382D01*
X0143822Y0285218D01*
X0144650Y0283219D01*
X0146180Y0281689D01*
X0144954Y0282915D02*
X0131500Y0282915D01*
X0131500Y0284514D02*
X0144114Y0284514D01*
X0143822Y0286112D02*
X0131884Y0286112D01*
X0131761Y0287711D02*
X0143958Y0287711D01*
X0144620Y0289309D02*
X0130760Y0289309D01*
X0125840Y0289309D02*
X0110700Y0289309D01*
X0110700Y0287711D02*
X0124839Y0287711D01*
X0124716Y0286112D02*
X0110700Y0286112D01*
X0111605Y0284514D02*
X0123615Y0284514D01*
X0121644Y0290908D02*
X0146177Y0290908D01*
X0152344Y0290908D02*
X0159741Y0290908D01*
X0159758Y0290901D02*
X0161921Y0290901D01*
X0163920Y0291729D01*
X0165450Y0293259D01*
X0166278Y0295258D01*
X0166278Y0297421D01*
X0165450Y0299420D01*
X0163920Y0300950D01*
X0161921Y0301778D01*
X0159758Y0301778D01*
X0157759Y0300950D01*
X0156229Y0299420D01*
X0155401Y0297421D01*
X0155401Y0295258D01*
X0156229Y0293259D01*
X0157759Y0291729D01*
X0159758Y0290901D01*
X0161938Y0290908D02*
X0177809Y0290908D01*
X0176712Y0292506D02*
X0164698Y0292506D01*
X0165800Y0294105D02*
X0176168Y0294105D01*
X0176168Y0295703D02*
X0166278Y0295703D01*
X0166278Y0297302D02*
X0176168Y0297302D01*
X0176168Y0298900D02*
X0165665Y0298900D01*
X0164371Y0300499D02*
X0176168Y0300499D01*
X0176168Y0302097D02*
X0125239Y0302097D01*
X0125239Y0300499D02*
X0157307Y0300499D01*
X0156013Y0298900D02*
X0125239Y0298900D01*
X0125239Y0297302D02*
X0155401Y0297302D01*
X0155401Y0295703D02*
X0125239Y0295703D01*
X0124800Y0294105D02*
X0155878Y0294105D01*
X0156981Y0292506D02*
X0123850Y0292506D01*
X0117035Y0290908D02*
X0111605Y0290908D01*
X0111605Y0292506D02*
X0114829Y0292506D01*
X0113879Y0294105D02*
X0111605Y0294105D01*
X0111605Y0295703D02*
X0113439Y0295703D01*
X0113439Y0297302D02*
X0111605Y0297302D01*
X0111605Y0298900D02*
X0113439Y0298900D01*
X0113439Y0300499D02*
X0111605Y0300499D01*
X0111177Y0302097D02*
X0113439Y0302097D01*
X0102023Y0302097D02*
X0078602Y0302097D01*
X0078493Y0302206D02*
X0078082Y0302443D01*
X0077624Y0302566D01*
X0073384Y0302566D01*
X0073384Y0298161D01*
X0079187Y0298161D01*
X0079187Y0301003D01*
X0079065Y0301461D01*
X0078828Y0301871D01*
X0078493Y0302206D01*
X0079187Y0300499D02*
X0101594Y0300499D01*
X0101594Y0298900D02*
X0079187Y0298900D01*
X0079187Y0295703D02*
X0101594Y0295703D01*
X0101594Y0294105D02*
X0091443Y0294105D01*
X0092669Y0292506D02*
X0101594Y0292506D01*
X0101594Y0290908D02*
X0092981Y0290908D01*
X0092592Y0289309D02*
X0102500Y0289309D01*
X0102500Y0287711D02*
X0091139Y0287711D01*
X0087400Y0286112D02*
X0102500Y0286112D01*
X0101594Y0284514D02*
X0087400Y0284514D01*
X0087400Y0282915D02*
X0101594Y0282915D01*
X0102205Y0273324D02*
X0097900Y0273324D01*
X0097900Y0271726D02*
X0283482Y0271726D01*
X0283482Y0273324D02*
X0110995Y0273324D01*
X0111605Y0274923D02*
X0283482Y0274923D01*
X0283482Y0276521D02*
X0127219Y0276521D01*
X0128818Y0278120D02*
X0283482Y0278120D01*
X0283482Y0270127D02*
X0097900Y0270127D01*
X0097900Y0268529D02*
X0101594Y0268529D01*
X0101594Y0268866D02*
X0101594Y0265591D01*
X0100652Y0265981D01*
X0099148Y0265981D01*
X0097758Y0265405D01*
X0096695Y0264342D01*
X0096119Y0262952D01*
X0096119Y0261448D01*
X0096695Y0260058D01*
X0097758Y0258995D01*
X0099148Y0258419D01*
X0100652Y0258419D01*
X0101594Y0258809D01*
X0101594Y0257934D01*
X0102532Y0256997D01*
X0110668Y0256997D01*
X0111605Y0257934D01*
X0111605Y0268866D01*
X0110668Y0269803D01*
X0102532Y0269803D01*
X0101594Y0268866D01*
X0101594Y0266930D02*
X0097587Y0266930D01*
X0097684Y0265332D02*
X0096430Y0265332D01*
X0096122Y0265024D02*
X0096122Y0265024D01*
X0096442Y0263733D02*
X0094831Y0263733D01*
X0094700Y0262134D02*
X0096119Y0262134D01*
X0096497Y0260536D02*
X0094700Y0260536D01*
X0094700Y0258937D02*
X0097896Y0258937D01*
X0094700Y0257339D02*
X0102190Y0257339D01*
X0102958Y0254200D02*
X0102500Y0254077D01*
X0102089Y0253840D01*
X0101754Y0253505D01*
X0101517Y0253095D01*
X0101394Y0252637D01*
X0101394Y0248397D01*
X0105800Y0248397D01*
X0105800Y0254200D01*
X0102958Y0254200D01*
X0102741Y0254142D02*
X0095656Y0254142D01*
X0094700Y0255740D02*
X0213712Y0255740D01*
X0214058Y0255395D02*
X0215448Y0254819D01*
X0216952Y0254819D01*
X0218342Y0255395D01*
X0219405Y0256458D01*
X0219981Y0257848D01*
X0219981Y0259352D01*
X0219405Y0260742D01*
X0218342Y0261805D01*
X0216952Y0262381D01*
X0215448Y0262381D01*
X0214058Y0261805D01*
X0212995Y0260742D01*
X0212977Y0260700D01*
X0192370Y0260700D01*
X0190064Y0263006D01*
X0190081Y0263048D01*
X0190081Y0264552D01*
X0189505Y0265942D01*
X0188442Y0267005D01*
X0187052Y0267581D01*
X0185548Y0267581D01*
X0184158Y0267005D01*
X0183095Y0265942D01*
X0182519Y0264552D01*
X0182519Y0263048D01*
X0183095Y0261658D01*
X0184158Y0260595D01*
X0185548Y0260019D01*
X0187052Y0260019D01*
X0187094Y0260036D01*
X0190630Y0256500D01*
X0212977Y0256500D01*
X0212995Y0256458D01*
X0214058Y0255395D01*
X0218688Y0255740D02*
X0247893Y0255740D01*
X0247395Y0255242D02*
X0246819Y0253852D01*
X0246819Y0252348D01*
X0247395Y0250958D01*
X0248458Y0249895D01*
X0249848Y0249319D01*
X0250000Y0249319D01*
X0250000Y0230700D01*
X0229230Y0230700D01*
X0228000Y0229470D01*
X0227944Y0229414D01*
X0227942Y0229414D01*
X0227331Y0228801D01*
X0226716Y0228186D01*
X0226716Y0228183D01*
X0226714Y0228182D01*
X0226716Y0227315D01*
X0226716Y0226446D01*
X0226717Y0226444D01*
X0226719Y0225423D01*
X0226347Y0225423D01*
X0225270Y0226500D01*
X0221900Y0226500D01*
X0221900Y0238570D01*
X0219864Y0240606D01*
X0219881Y0240648D01*
X0219881Y0242152D01*
X0219305Y0243542D01*
X0218242Y0244605D01*
X0216852Y0245181D01*
X0215348Y0245181D01*
X0213958Y0244605D01*
X0212895Y0243542D01*
X0212319Y0242152D01*
X0212319Y0240648D01*
X0212895Y0239258D01*
X0213958Y0238195D01*
X0215348Y0237619D01*
X0216852Y0237619D01*
X0216894Y0237636D01*
X0217700Y0236830D01*
X0217700Y0224430D01*
X0218930Y0223200D01*
X0219830Y0222300D01*
X0222894Y0222300D01*
X0222894Y0220207D01*
X0223832Y0219270D01*
X0227126Y0219270D01*
X0227250Y0219395D01*
X0227375Y0219270D01*
X0230275Y0219270D01*
X0230400Y0219395D01*
X0230525Y0219270D01*
X0233425Y0219270D01*
X0233550Y0219395D01*
X0233674Y0219270D01*
X0236968Y0219270D01*
X0237175Y0219477D01*
X0238158Y0218495D01*
X0239548Y0217919D01*
X0241052Y0217919D01*
X0242442Y0218495D01*
X0243505Y0219558D01*
X0244081Y0220948D01*
X0244081Y0222452D01*
X0243505Y0223842D01*
X0242947Y0224400D01*
X0253770Y0224400D01*
X0255970Y0226600D01*
X0257200Y0227830D01*
X0257200Y0258553D01*
X0257205Y0258558D01*
X0257781Y0259948D01*
X0257781Y0261452D01*
X0257205Y0262842D01*
X0256142Y0263905D01*
X0254752Y0264481D01*
X0253248Y0264481D01*
X0251858Y0263905D01*
X0250795Y0262842D01*
X0250219Y0261452D01*
X0250219Y0259948D01*
X0250795Y0258558D01*
X0251858Y0257495D01*
X0253000Y0257022D01*
X0253000Y0256047D01*
X0252742Y0256305D01*
X0251352Y0256881D01*
X0249848Y0256881D01*
X0248458Y0256305D01*
X0247395Y0255242D01*
X0246939Y0254142D02*
X0240257Y0254142D01*
X0239875Y0254300D02*
X0121625Y0254300D01*
X0120008Y0253630D01*
X0118770Y0252392D01*
X0115609Y0249232D01*
X0114939Y0247615D01*
X0114939Y0240700D01*
X0077600Y0240700D01*
X0077600Y0253511D01*
X0076311Y0254800D01*
X0074811Y0256300D01*
X0067501Y0256300D01*
X0067500Y0256505D01*
X0067500Y0257411D01*
X0067496Y0257415D01*
X0067400Y0279591D01*
X0067411Y0280484D01*
X0067396Y0280499D01*
X0067396Y0280521D01*
X0066762Y0281149D01*
X0063392Y0284604D01*
X0063392Y0284631D01*
X0062758Y0285253D01*
X0062138Y0285889D01*
X0062111Y0285889D01*
X0062091Y0285908D01*
X0061204Y0285900D01*
X0060316Y0285911D01*
X0060296Y0285892D01*
X0039091Y0285700D01*
X0038189Y0285700D01*
X0038180Y0285692D01*
X0038169Y0285692D01*
X0037538Y0285049D01*
X0034600Y0282111D01*
X0034600Y0255089D01*
X0036807Y0252882D01*
X0036807Y0252872D01*
X0037450Y0252239D01*
X0038089Y0251600D01*
X0038099Y0251600D01*
X0038105Y0251593D01*
X0039008Y0251600D01*
X0039911Y0251600D01*
X0039918Y0251607D01*
X0051097Y0251692D01*
X0053900Y0248889D01*
X0053900Y0209989D01*
X0055189Y0208700D01*
X0057089Y0206800D01*
X0074211Y0206800D01*
X0075500Y0208089D01*
X0077600Y0210189D01*
X0077600Y0210483D01*
X0077767Y0210438D01*
X0079985Y0210438D01*
X0079985Y0214219D01*
X0080747Y0214219D01*
X0080747Y0210438D01*
X0082965Y0210438D01*
X0083423Y0210560D01*
X0083834Y0210797D01*
X0084169Y0211133D01*
X0084406Y0211543D01*
X0084528Y0212001D01*
X0084528Y0214219D01*
X0080747Y0214219D01*
X0080747Y0214981D01*
X0079985Y0214981D01*
X0079985Y0218762D01*
X0077767Y0218762D01*
X0077600Y0218717D01*
X0077600Y0231900D01*
X0116048Y0231900D01*
X0116259Y0231689D01*
X0118258Y0230861D01*
X0120421Y0230861D01*
X0122420Y0231689D01*
X0123950Y0233219D01*
X0124778Y0235218D01*
X0124778Y0237382D01*
X0123950Y0239381D01*
X0123739Y0239591D01*
X0123739Y0244917D01*
X0124323Y0245500D01*
X0156439Y0245500D01*
X0156439Y0239591D01*
X0156229Y0239381D01*
X0155401Y0237382D01*
X0155401Y0235218D01*
X0156229Y0233219D01*
X0157759Y0231689D01*
X0159758Y0230861D01*
X0161921Y0230861D01*
X0163920Y0231689D01*
X0165450Y0233219D01*
X0166278Y0235218D01*
X0166278Y0237382D01*
X0165450Y0239381D01*
X0165239Y0239591D01*
X0165239Y0245500D01*
X0197939Y0245500D01*
X0197939Y0239591D01*
X0197729Y0239381D01*
X0196901Y0237382D01*
X0196901Y0235218D01*
X0197729Y0233219D01*
X0199259Y0231689D01*
X0201258Y0230861D01*
X0203421Y0230861D01*
X0205420Y0231689D01*
X0206950Y0233219D01*
X0207778Y0235218D01*
X0207778Y0237382D01*
X0206950Y0239381D01*
X0206739Y0239591D01*
X0206739Y0245500D01*
X0237177Y0245500D01*
X0239500Y0243177D01*
X0239500Y0239652D01*
X0239229Y0239381D01*
X0238401Y0237382D01*
X0238401Y0235218D01*
X0239229Y0233219D01*
X0240759Y0231689D01*
X0242758Y0230861D01*
X0244921Y0230861D01*
X0246920Y0231689D01*
X0248450Y0233219D01*
X0249278Y0235218D01*
X0249278Y0237382D01*
X0248450Y0239381D01*
X0248300Y0239531D01*
X0248300Y0245875D01*
X0247630Y0247492D01*
X0246392Y0248730D01*
X0241492Y0253630D01*
X0239875Y0254300D01*
X0242579Y0252543D02*
X0246819Y0252543D01*
X0247408Y0250945D02*
X0244178Y0250945D01*
X0245776Y0249346D02*
X0249781Y0249346D01*
X0250000Y0247748D02*
X0247375Y0247748D01*
X0248186Y0246149D02*
X0250000Y0246149D01*
X0250000Y0244551D02*
X0248300Y0244551D01*
X0248300Y0242952D02*
X0250000Y0242952D01*
X0250000Y0241354D02*
X0248300Y0241354D01*
X0248300Y0239755D02*
X0250000Y0239755D01*
X0250000Y0238157D02*
X0248957Y0238157D01*
X0249278Y0236558D02*
X0250000Y0236558D01*
X0250000Y0234960D02*
X0249171Y0234960D01*
X0248509Y0233361D02*
X0250000Y0233361D01*
X0250000Y0231763D02*
X0246993Y0231763D01*
X0240685Y0231763D02*
X0235415Y0231763D01*
X0235341Y0231689D02*
X0236871Y0233219D01*
X0237699Y0235218D01*
X0237699Y0237382D01*
X0236871Y0239381D01*
X0235341Y0240911D01*
X0233342Y0241739D01*
X0231179Y0241739D01*
X0229180Y0240911D01*
X0227650Y0239381D01*
X0226822Y0237382D01*
X0226822Y0235218D01*
X0227650Y0233219D01*
X0229180Y0231689D01*
X0231179Y0230861D01*
X0233342Y0230861D01*
X0235341Y0231689D01*
X0236930Y0233361D02*
X0239170Y0233361D01*
X0238508Y0234960D02*
X0237592Y0234960D01*
X0237699Y0236558D02*
X0238401Y0236558D01*
X0238722Y0238157D02*
X0237378Y0238157D01*
X0236497Y0239755D02*
X0239500Y0239755D01*
X0239500Y0241354D02*
X0234271Y0241354D01*
X0238127Y0244551D02*
X0218296Y0244551D01*
X0219550Y0242952D02*
X0239500Y0242952D01*
X0230250Y0241354D02*
X0219881Y0241354D01*
X0220714Y0239755D02*
X0228025Y0239755D01*
X0227143Y0238157D02*
X0221900Y0238157D01*
X0221900Y0236558D02*
X0226822Y0236558D01*
X0226929Y0234960D02*
X0221900Y0234960D01*
X0221900Y0233361D02*
X0227591Y0233361D01*
X0229107Y0231763D02*
X0221900Y0231763D01*
X0221900Y0230164D02*
X0228694Y0230164D01*
X0227096Y0228566D02*
X0221900Y0228566D01*
X0221900Y0226967D02*
X0226716Y0226967D01*
X0222894Y0222172D02*
X0212764Y0222172D01*
X0213640Y0223770D02*
X0218360Y0223770D01*
X0217700Y0225369D02*
X0213860Y0225369D01*
X0213546Y0226967D02*
X0217700Y0226967D01*
X0217700Y0228566D02*
X0212538Y0228566D01*
X0217700Y0230164D02*
X0132733Y0230164D01*
X0132784Y0230287D02*
X0132239Y0228970D01*
X0131230Y0227961D01*
X0129913Y0227416D01*
X0129576Y0227416D01*
X0125986Y0223826D01*
X0124957Y0223400D01*
X0110900Y0223400D01*
X0110900Y0215830D01*
X0109670Y0214600D01*
X0107570Y0212500D01*
X0105418Y0212500D01*
X0105418Y0211575D01*
X0104481Y0210638D01*
X0100006Y0210638D01*
X0099069Y0211575D01*
X0099069Y0217625D01*
X0100006Y0218562D01*
X0104481Y0218562D01*
X0105418Y0217625D01*
X0105418Y0216700D01*
X0105830Y0216700D01*
X0106700Y0217570D01*
X0106700Y0223400D01*
X0099069Y0223400D01*
X0098830Y0223161D01*
X0097513Y0222616D01*
X0096087Y0222616D01*
X0094770Y0223161D01*
X0093761Y0224170D01*
X0093216Y0225487D01*
X0093216Y0226913D01*
X0093761Y0228230D01*
X0094770Y0229239D01*
X0096087Y0229784D01*
X0097513Y0229784D01*
X0098830Y0229239D01*
X0099069Y0229000D01*
X0123240Y0229000D01*
X0125616Y0231376D01*
X0125616Y0231713D01*
X0126161Y0233030D01*
X0127170Y0234039D01*
X0128487Y0234584D01*
X0129913Y0234584D01*
X0131230Y0234039D01*
X0132239Y0233030D01*
X0132784Y0231713D01*
X0132784Y0230287D01*
X0132764Y0231763D02*
X0146107Y0231763D01*
X0146180Y0231689D02*
X0148179Y0230861D01*
X0150342Y0230861D01*
X0152341Y0231689D01*
X0153871Y0233219D01*
X0154699Y0235218D01*
X0154699Y0237382D01*
X0153871Y0239381D01*
X0152341Y0240911D01*
X0150342Y0241739D01*
X0148179Y0241739D01*
X0146180Y0240911D01*
X0144650Y0239381D01*
X0143822Y0237382D01*
X0143822Y0235218D01*
X0144650Y0233219D01*
X0146180Y0231689D01*
X0144591Y0233361D02*
X0131908Y0233361D01*
X0129200Y0231000D02*
X0128800Y0230600D01*
X0125636Y0231763D02*
X0122493Y0231763D01*
X0124009Y0233361D02*
X0126492Y0233361D01*
X0124671Y0234960D02*
X0143929Y0234960D01*
X0143822Y0236558D02*
X0124778Y0236558D01*
X0124457Y0238157D02*
X0144143Y0238157D01*
X0145025Y0239755D02*
X0123739Y0239755D01*
X0123739Y0241354D02*
X0147250Y0241354D01*
X0151271Y0241354D02*
X0156439Y0241354D01*
X0156439Y0242952D02*
X0123739Y0242952D01*
X0123739Y0244551D02*
X0156439Y0244551D01*
X0156439Y0239755D02*
X0153497Y0239755D01*
X0154378Y0238157D02*
X0155722Y0238157D01*
X0155401Y0236558D02*
X0154699Y0236558D01*
X0154592Y0234960D02*
X0155508Y0234960D01*
X0156170Y0233361D02*
X0153930Y0233361D01*
X0152415Y0231763D02*
X0157685Y0231763D01*
X0163993Y0231763D02*
X0187607Y0231763D01*
X0187680Y0231689D02*
X0189679Y0230861D01*
X0191842Y0230861D01*
X0193841Y0231689D01*
X0195371Y0233219D01*
X0196199Y0235218D01*
X0196199Y0237382D01*
X0195371Y0239381D01*
X0193841Y0240911D01*
X0191842Y0241739D01*
X0189679Y0241739D01*
X0187680Y0240911D01*
X0186150Y0239381D01*
X0185322Y0237382D01*
X0185322Y0235218D01*
X0186150Y0233219D01*
X0187680Y0231689D01*
X0186091Y0233361D02*
X0165509Y0233361D01*
X0166171Y0234960D02*
X0185429Y0234960D01*
X0185322Y0236558D02*
X0166278Y0236558D01*
X0165957Y0238157D02*
X0185643Y0238157D01*
X0186525Y0239755D02*
X0165239Y0239755D01*
X0165239Y0241354D02*
X0188750Y0241354D01*
X0192771Y0241354D02*
X0197939Y0241354D01*
X0197939Y0242952D02*
X0165239Y0242952D01*
X0165239Y0244551D02*
X0197939Y0244551D01*
X0197939Y0239755D02*
X0194997Y0239755D01*
X0195878Y0238157D02*
X0197222Y0238157D01*
X0196901Y0236558D02*
X0196199Y0236558D01*
X0196092Y0234960D02*
X0197008Y0234960D01*
X0197670Y0233361D02*
X0195430Y0233361D01*
X0193915Y0231763D02*
X0199185Y0231763D01*
X0199181Y0228566D02*
X0131835Y0228566D01*
X0129127Y0226967D02*
X0197056Y0226967D01*
X0195457Y0225369D02*
X0127529Y0225369D01*
X0125851Y0223770D02*
X0167392Y0223770D01*
X0167327Y0223657D02*
X0167204Y0223199D01*
X0167204Y0220981D01*
X0170985Y0220981D01*
X0170985Y0220219D01*
X0167204Y0220219D01*
X0167204Y0218001D01*
X0167327Y0217543D01*
X0167564Y0217133D01*
X0167899Y0216797D01*
X0168309Y0216560D01*
X0168767Y0216438D01*
X0170985Y0216438D01*
X0170985Y0220219D01*
X0171747Y0220219D01*
X0171747Y0216438D01*
X0173965Y0216438D01*
X0174423Y0216560D01*
X0174834Y0216797D01*
X0175169Y0217133D01*
X0175406Y0217543D01*
X0175528Y0218001D01*
X0175528Y0220219D01*
X0171747Y0220219D01*
X0171747Y0220981D01*
X0170985Y0220981D01*
X0170985Y0224762D01*
X0168767Y0224762D01*
X0168309Y0224640D01*
X0167899Y0224403D01*
X0167564Y0224067D01*
X0167327Y0223657D01*
X0167204Y0222172D02*
X0110900Y0222172D01*
X0110900Y0220573D02*
X0170985Y0220573D01*
X0171747Y0220573D02*
X0175672Y0220573D01*
X0175528Y0220981D02*
X0175528Y0223199D01*
X0175406Y0223657D01*
X0175169Y0224067D01*
X0174834Y0224403D01*
X0174423Y0224640D01*
X0173965Y0224762D01*
X0171747Y0224762D01*
X0171747Y0220981D01*
X0175528Y0220981D01*
X0175528Y0222172D02*
X0175672Y0222172D01*
X0175672Y0223625D02*
X0175672Y0217575D01*
X0176609Y0216638D01*
X0182659Y0216638D01*
X0183138Y0217117D01*
X0183138Y0215606D01*
X0184075Y0214669D01*
X0190125Y0214669D01*
X0191062Y0215606D01*
X0191062Y0220081D01*
X0190125Y0221018D01*
X0187752Y0221018D01*
X0186070Y0222700D01*
X0183596Y0222700D01*
X0183596Y0223625D01*
X0182659Y0224562D01*
X0176609Y0224562D01*
X0175672Y0223625D01*
X0175817Y0223770D02*
X0175340Y0223770D01*
X0171747Y0223770D02*
X0170985Y0223770D01*
X0170985Y0222172D02*
X0171747Y0222172D01*
X0171747Y0218975D02*
X0170985Y0218975D01*
X0170985Y0217376D02*
X0171747Y0217376D01*
X0175309Y0217376D02*
X0175871Y0217376D01*
X0175672Y0218975D02*
X0175528Y0218975D01*
X0182105Y0215778D02*
X0183138Y0215778D01*
X0182632Y0214179D02*
X0193800Y0214179D01*
X0193800Y0212581D02*
X0191062Y0212581D01*
X0191062Y0210982D02*
X0193800Y0210982D01*
X0193800Y0209384D02*
X0191062Y0209384D01*
X0190328Y0207785D02*
X0193800Y0207785D01*
X0193800Y0206187D02*
X0191687Y0206187D01*
X0191687Y0204588D02*
X0193800Y0204588D01*
X0193800Y0202990D02*
X0191687Y0202990D01*
X0191687Y0201391D02*
X0193800Y0201391D01*
X0193800Y0199793D02*
X0191687Y0199793D01*
X0191687Y0198194D02*
X0193800Y0198194D01*
X0192884Y0196596D02*
X0191687Y0196596D01*
X0198200Y0198584D02*
X0198200Y0202995D01*
X0198383Y0202635D01*
X0198846Y0201999D01*
X0199403Y0201442D01*
X0200039Y0200980D01*
X0200741Y0200622D01*
X0201489Y0200379D01*
X0202266Y0200256D01*
X0205660Y0200256D01*
X0205660Y0205056D01*
X0206060Y0205056D01*
X0206060Y0200256D01*
X0209453Y0200256D01*
X0210231Y0200379D01*
X0210979Y0200622D01*
X0211680Y0200980D01*
X0212317Y0201442D01*
X0212874Y0201999D01*
X0213200Y0202448D01*
X0213200Y0187804D01*
X0213129Y0187975D01*
X0211779Y0189325D01*
X0210015Y0190056D01*
X0201705Y0190056D01*
X0199941Y0189325D01*
X0198591Y0187975D01*
X0198485Y0187720D01*
X0193690Y0187720D01*
X0193870Y0187900D01*
X0198049Y0192079D01*
X0198941Y0191187D01*
X0200705Y0190456D01*
X0209015Y0190456D01*
X0210779Y0191187D01*
X0212129Y0192537D01*
X0212860Y0194301D01*
X0212860Y0196211D01*
X0212129Y0197975D01*
X0210779Y0199325D01*
X0209015Y0200056D01*
X0200705Y0200056D01*
X0198941Y0199325D01*
X0198200Y0198584D01*
X0198200Y0199793D02*
X0200069Y0199793D01*
X0199473Y0201391D02*
X0198200Y0201391D01*
X0198200Y0202990D02*
X0198203Y0202990D01*
X0198200Y0207785D02*
X0198337Y0207785D01*
X0198200Y0209384D02*
X0199835Y0209384D01*
X0199435Y0210982D02*
X0198200Y0210982D01*
X0193800Y0215778D02*
X0191062Y0215778D01*
X0191062Y0217376D02*
X0193800Y0217376D01*
X0193800Y0218975D02*
X0191062Y0218975D01*
X0190570Y0220573D02*
X0193800Y0220573D01*
X0193800Y0222172D02*
X0186598Y0222172D01*
X0183451Y0223770D02*
X0193859Y0223770D01*
X0198483Y0222172D02*
X0198956Y0222172D01*
X0198200Y0220573D02*
X0201422Y0220573D01*
X0198590Y0218975D02*
X0198200Y0218975D01*
X0205660Y0209384D02*
X0206060Y0209384D01*
X0206060Y0207785D02*
X0205660Y0207785D01*
X0205660Y0206187D02*
X0206060Y0206187D01*
X0206060Y0204588D02*
X0205660Y0204588D01*
X0205660Y0202990D02*
X0206060Y0202990D01*
X0206060Y0201391D02*
X0205660Y0201391D01*
X0209650Y0199793D02*
X0213200Y0199793D01*
X0213200Y0201391D02*
X0212247Y0201391D01*
X0211910Y0198194D02*
X0213200Y0198194D01*
X0213200Y0196596D02*
X0212700Y0196596D01*
X0212860Y0194997D02*
X0213200Y0194997D01*
X0213200Y0193399D02*
X0212486Y0193399D01*
X0213200Y0191800D02*
X0211392Y0191800D01*
X0213200Y0190201D02*
X0196171Y0190201D01*
X0194573Y0188603D02*
X0199219Y0188603D01*
X0198328Y0191800D02*
X0197770Y0191800D01*
X0205495Y0185620D02*
X0205860Y0185256D01*
X0212501Y0188603D02*
X0213200Y0188603D01*
X0224000Y0188603D02*
X0237216Y0188603D01*
X0237542Y0190201D02*
X0224000Y0190201D01*
X0224000Y0191800D02*
X0238918Y0191800D01*
X0242682Y0191800D02*
X0283482Y0191800D01*
X0283482Y0193399D02*
X0224000Y0193399D01*
X0224000Y0194997D02*
X0283482Y0194997D01*
X0283482Y0196596D02*
X0224000Y0196596D01*
X0224000Y0198194D02*
X0283482Y0198194D01*
X0283482Y0199793D02*
X0224262Y0199793D01*
X0224000Y0187004D02*
X0237623Y0187004D01*
X0238600Y0185406D02*
X0224000Y0185406D01*
X0224000Y0183807D02*
X0226540Y0183807D01*
X0226078Y0182209D02*
X0224000Y0182209D01*
X0224000Y0180610D02*
X0226078Y0180610D01*
X0226078Y0179012D02*
X0224000Y0179012D01*
X0224000Y0177413D02*
X0226078Y0177413D01*
X0227586Y0175815D02*
X0224000Y0175815D01*
X0224000Y0174216D02*
X0231500Y0174216D01*
X0231500Y0175815D02*
X0230671Y0175815D01*
X0229128Y0175815D02*
X0229128Y0175815D01*
X0229128Y0177413D02*
X0229128Y0177413D01*
X0229128Y0179012D02*
X0229128Y0179012D01*
X0229128Y0180610D02*
X0229128Y0180610D01*
X0229128Y0182209D02*
X0229128Y0182209D01*
X0229128Y0183807D02*
X0229128Y0183807D01*
X0234977Y0183807D02*
X0238600Y0183807D01*
X0238600Y0182209D02*
X0235522Y0182209D01*
X0235522Y0180610D02*
X0238600Y0180610D01*
X0236104Y0179012D02*
X0235700Y0179012D01*
X0235700Y0177413D02*
X0236104Y0177413D01*
X0236104Y0175815D02*
X0235700Y0175815D01*
X0235700Y0174216D02*
X0236104Y0174216D01*
X0235700Y0172618D02*
X0236561Y0172618D01*
X0236204Y0171019D02*
X0235700Y0171019D01*
X0235700Y0169421D02*
X0236204Y0169421D01*
X0236204Y0167822D02*
X0235700Y0167822D01*
X0235700Y0166224D02*
X0236204Y0166224D01*
X0235700Y0164625D02*
X0237400Y0164625D01*
X0237962Y0163027D02*
X0236743Y0163027D01*
X0238342Y0161428D02*
X0239450Y0161428D01*
X0239450Y0159830D02*
X0238700Y0159830D01*
X0242586Y0164625D02*
X0265300Y0164625D01*
X0265300Y0166224D02*
X0264818Y0166224D01*
X0269500Y0164625D02*
X0283482Y0164625D01*
X0283482Y0163027D02*
X0269500Y0163027D01*
X0268198Y0161428D02*
X0271831Y0161428D01*
X0274769Y0161428D02*
X0283482Y0161428D01*
X0283482Y0159830D02*
X0277266Y0159830D01*
X0278237Y0158231D02*
X0283482Y0158231D01*
X0283482Y0156633D02*
X0278600Y0156633D01*
X0278512Y0155034D02*
X0283482Y0155034D01*
X0283482Y0153436D02*
X0277850Y0153436D01*
X0276333Y0151837D02*
X0283482Y0151837D01*
X0283482Y0150239D02*
X0275857Y0150239D01*
X0277067Y0148640D02*
X0283482Y0148640D01*
X0283482Y0147042D02*
X0277600Y0147042D01*
X0277600Y0145443D02*
X0283482Y0145443D01*
X0283482Y0143845D02*
X0277020Y0143845D01*
X0275741Y0142246D02*
X0283482Y0142246D01*
X0283482Y0140648D02*
X0276448Y0140648D01*
X0277898Y0139049D02*
X0283482Y0139049D01*
X0283482Y0137451D02*
X0278560Y0137451D01*
X0278600Y0135852D02*
X0283482Y0135852D01*
X0283482Y0134254D02*
X0278189Y0134254D01*
X0277150Y0132655D02*
X0283482Y0132655D01*
X0283482Y0131057D02*
X0277468Y0131057D01*
X0277800Y0129458D02*
X0283482Y0129458D01*
X0283482Y0127860D02*
X0277800Y0127860D01*
X0277800Y0124663D02*
X0283482Y0124663D01*
X0283482Y0126261D02*
X0272500Y0126261D01*
X0272100Y0126261D02*
X0228109Y0126261D01*
X0227771Y0127860D02*
X0226596Y0127860D01*
X0224201Y0132888D02*
X0223955Y0133115D01*
X0223370Y0133700D01*
X0223321Y0133700D01*
X0218100Y0138519D01*
X0218100Y0144530D01*
X0218430Y0144200D01*
X0218494Y0144200D01*
X0218854Y0143876D01*
X0219430Y0143300D01*
X0219494Y0143300D01*
X0219542Y0143257D01*
X0220355Y0143300D01*
X0221380Y0143300D01*
X0221351Y0143194D01*
X0221351Y0139807D01*
X0221351Y0136420D01*
X0221474Y0135963D01*
X0221711Y0135552D01*
X0222046Y0135217D01*
X0222456Y0134980D01*
X0222914Y0134857D01*
X0223742Y0134857D01*
X0224201Y0134857D01*
X0224201Y0132888D01*
X0224201Y0134254D02*
X0222721Y0134254D01*
X0223742Y0134857D02*
X0223742Y0139807D01*
X0223742Y0134857D01*
X0223742Y0135852D02*
X0223742Y0135852D01*
X0223742Y0137451D02*
X0223742Y0137451D01*
X0223742Y0139049D02*
X0223742Y0139049D01*
X0223742Y0139807D02*
X0223742Y0139807D01*
X0221351Y0139807D01*
X0223742Y0139807D01*
X0223742Y0139807D01*
X0221351Y0139049D02*
X0218100Y0139049D01*
X0218100Y0140648D02*
X0221351Y0140648D01*
X0221351Y0142246D02*
X0218100Y0142246D01*
X0218100Y0143845D02*
X0218885Y0143845D01*
X0219258Y0137451D02*
X0221351Y0137451D01*
X0221538Y0135852D02*
X0220990Y0135852D01*
X0216400Y0131175D02*
X0216400Y0130962D01*
X0211341Y0130962D01*
X0210911Y0130532D01*
X0210581Y0130862D01*
X0206106Y0130862D01*
X0205169Y0129925D01*
X0205169Y0123875D01*
X0205844Y0123200D01*
X0205169Y0122525D01*
X0205169Y0116475D01*
X0206106Y0115538D01*
X0210581Y0115538D01*
X0210961Y0115918D01*
X0211441Y0115438D01*
X0217491Y0115438D01*
X0218428Y0116375D01*
X0218428Y0117224D01*
X0218772Y0117262D01*
X0218772Y0116375D01*
X0219709Y0115438D01*
X0224742Y0115438D01*
X0224560Y0115255D01*
X0224323Y0114845D01*
X0224200Y0114387D01*
X0224200Y0109800D01*
X0227200Y0109800D01*
X0227200Y0109800D01*
X0227200Y0115950D01*
X0228637Y0115950D01*
X0229095Y0115827D01*
X0229505Y0115590D01*
X0229840Y0115255D01*
X0229841Y0115254D01*
X0230100Y0115513D01*
X0230100Y0115730D01*
X0228530Y0117300D01*
X0226696Y0117300D01*
X0226696Y0116375D01*
X0226271Y0115950D01*
X0227200Y0115950D01*
X0227200Y0109800D01*
X0227200Y0109800D01*
X0224200Y0109800D01*
X0224200Y0106800D01*
X0193326Y0106800D01*
X0194272Y0107747D01*
X0194878Y0109209D01*
X0194878Y0110791D01*
X0194272Y0112253D01*
X0193300Y0113226D01*
X0193300Y0115606D01*
X0194994Y0117300D01*
X0198082Y0117300D01*
X0198082Y0116475D01*
X0199019Y0115538D01*
X0200306Y0115538D01*
X0200387Y0115457D01*
X0201115Y0115457D01*
X0201837Y0115359D01*
X0201965Y0115457D01*
X0202127Y0115457D01*
X0202208Y0115538D01*
X0203494Y0115538D01*
X0204431Y0116475D01*
X0204431Y0122525D01*
X0203756Y0123200D01*
X0204431Y0123875D01*
X0204431Y0129925D01*
X0203952Y0130405D01*
X0204330Y0130561D01*
X0205339Y0131570D01*
X0205884Y0132887D01*
X0205884Y0134313D01*
X0205339Y0135630D01*
X0204330Y0136639D01*
X0203699Y0136900D01*
X0204655Y0136900D01*
X0204796Y0136759D01*
X0211682Y0136759D01*
X0211700Y0136353D01*
X0211700Y0135530D01*
X0211738Y0135492D01*
X0211741Y0135438D01*
X0212348Y0134882D01*
X0212930Y0134300D01*
X0212984Y0134300D01*
X0216400Y0131175D01*
X0216400Y0131057D02*
X0204825Y0131057D01*
X0205169Y0129458D02*
X0204431Y0129458D01*
X0204431Y0127860D02*
X0205169Y0127860D01*
X0205169Y0126261D02*
X0204431Y0126261D01*
X0204431Y0124663D02*
X0205169Y0124663D01*
X0205708Y0123064D02*
X0203892Y0123064D01*
X0204431Y0121466D02*
X0205169Y0121466D01*
X0205169Y0119867D02*
X0204431Y0119867D01*
X0204431Y0118268D02*
X0205169Y0118268D01*
X0205169Y0116670D02*
X0204431Y0116670D01*
X0201257Y0119500D02*
X0201057Y0119700D01*
X0201057Y0126457D01*
X0201900Y0127300D01*
X0201657Y0127300D01*
X0201257Y0126900D01*
X0201257Y0132557D01*
X0202300Y0133600D01*
X0200901Y0136900D02*
X0200270Y0136639D01*
X0199261Y0135630D01*
X0198716Y0134313D01*
X0198716Y0132887D01*
X0198857Y0132547D01*
X0198857Y0130700D01*
X0198082Y0129925D01*
X0198082Y0123875D01*
X0198657Y0123300D01*
X0198657Y0123100D01*
X0198082Y0122525D01*
X0198082Y0122100D01*
X0195800Y0122100D01*
X0195800Y0122470D01*
X0194570Y0123700D01*
X0192970Y0125300D01*
X0183800Y0125300D01*
X0183800Y0136559D01*
X0185379Y0136559D01*
X0185379Y0139146D01*
X0185380Y0139146D01*
X0185380Y0136559D01*
X0188766Y0136559D01*
X0189224Y0136682D01*
X0189634Y0136919D01*
X0189969Y0137254D01*
X0190206Y0137664D01*
X0190329Y0138122D01*
X0190329Y0138601D01*
X0191030Y0137900D01*
X0191030Y0137900D01*
X0192030Y0136900D01*
X0200901Y0136900D01*
X0199483Y0135852D02*
X0183800Y0135852D01*
X0183800Y0134254D02*
X0198716Y0134254D01*
X0198812Y0132655D02*
X0183800Y0132655D01*
X0183800Y0131057D02*
X0198857Y0131057D01*
X0198082Y0129458D02*
X0183800Y0129458D01*
X0183800Y0127860D02*
X0198082Y0127860D01*
X0198082Y0126261D02*
X0183800Y0126261D01*
X0181365Y0121466D02*
X0180962Y0121466D01*
X0180962Y0119867D02*
X0190773Y0119867D01*
X0189174Y0118268D02*
X0181367Y0118268D01*
X0182500Y0116670D02*
X0188500Y0116670D01*
X0188500Y0115071D02*
X0182500Y0115071D01*
X0183300Y0113473D02*
X0188500Y0113473D01*
X0187371Y0111874D02*
X0183300Y0111874D01*
X0183300Y0110276D02*
X0186922Y0110276D01*
X0187142Y0108677D02*
X0183300Y0108677D01*
X0183300Y0107079D02*
X0188195Y0107079D01*
X0186800Y0105480D02*
X0183300Y0105480D01*
X0183095Y0103882D02*
X0186800Y0103882D01*
X0186800Y0102283D02*
X0177900Y0102283D01*
X0177900Y0100685D02*
X0186800Y0100685D01*
X0186800Y0099086D02*
X0177356Y0099086D01*
X0177522Y0094291D02*
X0178478Y0094291D01*
X0173478Y0094291D02*
X0172522Y0094291D01*
X0168478Y0094291D02*
X0167804Y0094291D01*
X0165500Y0094291D02*
X0165500Y0094291D01*
X0165500Y0094650D02*
X0164063Y0094650D01*
X0163605Y0094527D01*
X0163195Y0094290D01*
X0162860Y0093955D01*
X0162623Y0093545D01*
X0162500Y0093087D01*
X0162500Y0088500D01*
X0165500Y0088500D01*
X0165500Y0088500D01*
X0165500Y0088500D01*
X0165500Y0094650D01*
X0165500Y0092692D02*
X0165500Y0092692D01*
X0165500Y0091094D02*
X0165500Y0091094D01*
X0165500Y0089495D02*
X0165500Y0089495D01*
X0165500Y0088500D02*
X0162500Y0088500D01*
X0162500Y0083913D01*
X0162623Y0083455D01*
X0162860Y0083045D01*
X0163195Y0082710D01*
X0163605Y0082473D01*
X0164063Y0082350D01*
X0165500Y0082350D01*
X0165500Y0088500D01*
X0165500Y0087897D02*
X0165500Y0087897D01*
X0165500Y0086298D02*
X0165500Y0086298D01*
X0165500Y0084700D02*
X0165500Y0084700D01*
X0165500Y0083101D02*
X0165500Y0083101D01*
X0162827Y0083101D02*
X0157251Y0083101D01*
X0157174Y0082914D02*
X0157600Y0083943D01*
X0157600Y0098157D01*
X0157174Y0099186D01*
X0154474Y0101886D01*
X0153686Y0102674D01*
X0152657Y0103100D01*
X0140895Y0103100D01*
X0139095Y0104900D01*
X0141900Y0107705D01*
X0141900Y0112095D01*
X0139095Y0114900D01*
X0141900Y0117705D01*
X0141900Y0122095D01*
X0139095Y0124900D01*
X0141900Y0127705D01*
X0141900Y0132095D01*
X0139095Y0134900D01*
X0141900Y0137705D01*
X0141900Y0142095D01*
X0138795Y0145200D01*
X0134405Y0145200D01*
X0131300Y0142095D01*
X0131300Y0137705D01*
X0134105Y0134900D01*
X0131300Y0132095D01*
X0131300Y0127705D01*
X0134105Y0124900D01*
X0131300Y0122095D01*
X0131300Y0117705D01*
X0134105Y0114900D01*
X0131300Y0112095D01*
X0131300Y0107705D01*
X0134105Y0104900D01*
X0131300Y0102095D01*
X0131300Y0097705D01*
X0134405Y0094600D01*
X0138795Y0094600D01*
X0141695Y0097500D01*
X0150940Y0097500D01*
X0152000Y0096440D01*
X0152000Y0085660D01*
X0149440Y0083100D01*
X0076069Y0083100D01*
X0075830Y0083339D01*
X0074513Y0083884D01*
X0073087Y0083884D01*
X0071770Y0083339D01*
X0070761Y0082330D01*
X0070216Y0081013D01*
X0070216Y0079587D01*
X0070761Y0078270D01*
X0071770Y0077261D01*
X0073087Y0076716D01*
X0074513Y0076716D01*
X0075830Y0077261D01*
X0076069Y0077500D01*
X0151157Y0077500D01*
X0152186Y0077926D01*
X0156386Y0082126D01*
X0157174Y0082914D01*
X0157600Y0084700D02*
X0162500Y0084700D01*
X0162500Y0086298D02*
X0157600Y0086298D01*
X0157600Y0087897D02*
X0162500Y0087897D01*
X0162500Y0089495D02*
X0157600Y0089495D01*
X0157600Y0091094D02*
X0162500Y0091094D01*
X0162500Y0092692D02*
X0157600Y0092692D01*
X0157600Y0094291D02*
X0163196Y0094291D01*
X0159944Y0099086D02*
X0157215Y0099086D01*
X0157600Y0097488D02*
X0186800Y0097488D01*
X0186800Y0095889D02*
X0157600Y0095889D01*
X0158345Y0100685D02*
X0155675Y0100685D01*
X0156747Y0102283D02*
X0154076Y0102283D01*
X0155148Y0103882D02*
X0140113Y0103882D01*
X0139676Y0105480D02*
X0155100Y0105480D01*
X0155100Y0107079D02*
X0141274Y0107079D01*
X0141900Y0108677D02*
X0155100Y0108677D01*
X0155100Y0110276D02*
X0141900Y0110276D01*
X0141900Y0111874D02*
X0155100Y0111874D01*
X0155100Y0113473D02*
X0140522Y0113473D01*
X0139267Y0115071D02*
X0155100Y0115071D01*
X0155100Y0116670D02*
X0140865Y0116670D01*
X0141900Y0118268D02*
X0155100Y0118268D01*
X0155100Y0119867D02*
X0141900Y0119867D01*
X0141900Y0121466D02*
X0155100Y0121466D01*
X0155100Y0123064D02*
X0140931Y0123064D01*
X0139333Y0124663D02*
X0155100Y0124663D01*
X0155100Y0126261D02*
X0140456Y0126261D01*
X0141900Y0127860D02*
X0155100Y0127860D01*
X0155100Y0129458D02*
X0141900Y0129458D01*
X0141900Y0131057D02*
X0155100Y0131057D01*
X0155100Y0132655D02*
X0141340Y0132655D01*
X0139742Y0134254D02*
X0155100Y0134254D01*
X0155100Y0135852D02*
X0140047Y0135852D01*
X0141646Y0137451D02*
X0155100Y0137451D01*
X0155100Y0139049D02*
X0141900Y0139049D01*
X0141900Y0140648D02*
X0155100Y0140648D01*
X0155100Y0142246D02*
X0141749Y0142246D01*
X0140151Y0143845D02*
X0149693Y0143845D01*
X0148007Y0145443D02*
X0110200Y0145443D01*
X0110200Y0143845D02*
X0122049Y0143845D01*
X0123405Y0145200D02*
X0120300Y0142095D01*
X0120300Y0137705D01*
X0123105Y0134900D01*
X0120300Y0132095D01*
X0120300Y0127705D01*
X0123105Y0124900D01*
X0120300Y0122095D01*
X0120300Y0117705D01*
X0123105Y0114900D01*
X0120300Y0112095D01*
X0120300Y0107705D01*
X0122963Y0105041D01*
X0120100Y0102178D01*
X0120100Y0100100D01*
X0125400Y0100100D01*
X0125400Y0099700D01*
X0120100Y0099700D01*
X0120100Y0097622D01*
X0123322Y0094400D01*
X0125400Y0094400D01*
X0125400Y0099700D01*
X0125800Y0099700D01*
X0125800Y0100100D01*
X0131100Y0100100D01*
X0131100Y0102178D01*
X0128237Y0105041D01*
X0130900Y0107705D01*
X0130900Y0112095D01*
X0128095Y0114900D01*
X0130900Y0117705D01*
X0130900Y0122095D01*
X0128095Y0124900D01*
X0130900Y0127705D01*
X0130900Y0132095D01*
X0128095Y0134900D01*
X0130900Y0137705D01*
X0130900Y0142095D01*
X0127795Y0145200D01*
X0123405Y0145200D01*
X0120451Y0142246D02*
X0110200Y0142246D01*
X0110200Y0140648D02*
X0120300Y0140648D01*
X0120300Y0139049D02*
X0110200Y0139049D01*
X0110200Y0137451D02*
X0120554Y0137451D01*
X0122153Y0135852D02*
X0110200Y0135852D01*
X0110200Y0134254D02*
X0122458Y0134254D01*
X0120860Y0132655D02*
X0110200Y0132655D01*
X0110200Y0131057D02*
X0120300Y0131057D01*
X0120300Y0129458D02*
X0110200Y0129458D01*
X0110200Y0127860D02*
X0120300Y0127860D01*
X0121744Y0126261D02*
X0110200Y0126261D01*
X0110200Y0124663D02*
X0122867Y0124663D01*
X0121269Y0123064D02*
X0110200Y0123064D01*
X0110200Y0121466D02*
X0120300Y0121466D01*
X0120300Y0119867D02*
X0110200Y0119867D01*
X0110200Y0118268D02*
X0120300Y0118268D01*
X0121335Y0116670D02*
X0110200Y0116670D01*
X0110200Y0115071D02*
X0122933Y0115071D01*
X0121678Y0113473D02*
X0110200Y0113473D01*
X0110200Y0111874D02*
X0120300Y0111874D01*
X0120300Y0110276D02*
X0110200Y0110276D01*
X0109747Y0108677D02*
X0120300Y0108677D01*
X0120926Y0107079D02*
X0108149Y0107079D01*
X0106842Y0104305D02*
X0105452Y0104881D01*
X0103948Y0104881D01*
X0102558Y0104305D01*
X0101495Y0103242D01*
X0100919Y0101852D01*
X0100919Y0100348D01*
X0101495Y0098958D01*
X0102558Y0097895D01*
X0103200Y0097629D01*
X0103200Y0089430D01*
X0104430Y0088200D01*
X0106130Y0086500D01*
X0142277Y0086500D01*
X0142295Y0086458D01*
X0143358Y0085395D01*
X0144748Y0084819D01*
X0146252Y0084819D01*
X0147642Y0085395D01*
X0148705Y0086458D01*
X0149281Y0087848D01*
X0149281Y0089352D01*
X0148705Y0090742D01*
X0147642Y0091805D01*
X0146252Y0092381D01*
X0144748Y0092381D01*
X0143358Y0091805D01*
X0142295Y0090742D01*
X0142277Y0090700D01*
X0107870Y0090700D01*
X0107400Y0091170D01*
X0107400Y0098453D01*
X0107905Y0098958D01*
X0108481Y0100348D01*
X0108481Y0101852D01*
X0107905Y0103242D01*
X0106842Y0104305D01*
X0107265Y0103882D02*
X0121804Y0103882D01*
X0122524Y0105480D02*
X0100049Y0105480D01*
X0099400Y0103882D02*
X0102135Y0103882D01*
X0101098Y0102283D02*
X0099400Y0102283D01*
X0099136Y0100685D02*
X0100919Y0100685D01*
X0101441Y0099086D02*
X0097680Y0099086D01*
X0096082Y0097488D02*
X0103200Y0097488D01*
X0103200Y0095889D02*
X0099766Y0095889D01*
X0101321Y0094291D02*
X0103200Y0094291D01*
X0103200Y0092692D02*
X0101684Y0092692D01*
X0101314Y0091094D02*
X0103200Y0091094D01*
X0103200Y0089495D02*
X0099729Y0089495D01*
X0096471Y0089495D02*
X0094738Y0089495D01*
X0097757Y0092357D02*
X0091400Y0092357D01*
X0088062Y0089495D02*
X0087238Y0089495D01*
X0083900Y0092357D02*
X0083843Y0092300D01*
X0077234Y0092300D01*
X0073272Y0092692D02*
X0073128Y0092692D01*
X0073128Y0092681D02*
X0073128Y0094899D01*
X0073006Y0095357D01*
X0072769Y0095767D01*
X0072434Y0096103D01*
X0072418Y0096112D01*
X0072609Y0096443D01*
X0072731Y0096901D01*
X0072731Y0099500D01*
X0072731Y0102099D01*
X0072609Y0102557D01*
X0072372Y0102967D01*
X0072037Y0103303D01*
X0071626Y0103540D01*
X0071168Y0103662D01*
X0069357Y0103662D01*
X0069357Y0099500D01*
X0072731Y0099500D01*
X0069357Y0099500D01*
X0069357Y0099500D01*
X0069357Y0099500D01*
X0069357Y0103662D01*
X0067545Y0103662D01*
X0067087Y0103540D01*
X0066677Y0103303D01*
X0066342Y0102967D01*
X0066105Y0102557D01*
X0065982Y0102099D01*
X0065982Y0099500D01*
X0065982Y0096901D01*
X0066105Y0096443D01*
X0066130Y0096399D01*
X0065909Y0096340D01*
X0065499Y0096103D01*
X0065164Y0095767D01*
X0064927Y0095357D01*
X0064804Y0094899D01*
X0064804Y0092681D01*
X0068585Y0092681D01*
X0068585Y0091919D01*
X0064804Y0091919D01*
X0064804Y0089701D01*
X0064927Y0089243D01*
X0065164Y0088833D01*
X0065499Y0088497D01*
X0065909Y0088260D01*
X0066367Y0088138D01*
X0068585Y0088138D01*
X0068585Y0091919D01*
X0069347Y0091919D01*
X0069347Y0088138D01*
X0071565Y0088138D01*
X0072023Y0088260D01*
X0072434Y0088497D01*
X0072769Y0088833D01*
X0073006Y0089243D01*
X0073128Y0089701D01*
X0073128Y0091919D01*
X0069347Y0091919D01*
X0069347Y0092681D01*
X0073128Y0092681D01*
X0073128Y0091094D02*
X0073272Y0091094D01*
X0073272Y0089495D02*
X0073073Y0089495D01*
X0073128Y0094291D02*
X0073272Y0094291D01*
X0073836Y0095889D02*
X0072647Y0095889D01*
X0072731Y0097488D02*
X0073269Y0097488D01*
X0073269Y0099086D02*
X0072731Y0099086D01*
X0072731Y0100685D02*
X0073269Y0100685D01*
X0073269Y0102283D02*
X0072682Y0102283D01*
X0069357Y0102283D02*
X0069357Y0102283D01*
X0069357Y0100685D02*
X0069357Y0100685D01*
X0069357Y0099500D02*
X0069357Y0099500D01*
X0065982Y0099500D01*
X0069357Y0099500D01*
X0065982Y0099086D02*
X0063200Y0099086D01*
X0063200Y0097488D02*
X0065982Y0097488D01*
X0065285Y0095889D02*
X0063200Y0095889D01*
X0063200Y0094291D02*
X0064804Y0094291D01*
X0064804Y0092692D02*
X0063200Y0092692D01*
X0063200Y0091094D02*
X0064804Y0091094D01*
X0064859Y0089495D02*
X0063200Y0089495D01*
X0063200Y0087897D02*
X0104733Y0087897D01*
X0107476Y0091094D02*
X0142647Y0091094D01*
X0142454Y0086298D02*
X0063200Y0086298D01*
X0063200Y0084700D02*
X0151040Y0084700D01*
X0152000Y0086298D02*
X0148546Y0086298D01*
X0149281Y0087897D02*
X0152000Y0087897D01*
X0152000Y0089495D02*
X0149222Y0089495D01*
X0148353Y0091094D02*
X0152000Y0091094D01*
X0152000Y0092692D02*
X0107400Y0092692D01*
X0107400Y0094291D02*
X0152000Y0094291D01*
X0152000Y0095889D02*
X0140085Y0095889D01*
X0141683Y0097488D02*
X0150952Y0097488D01*
X0149441Y0083101D02*
X0076068Y0083101D01*
X0071532Y0083101D02*
X0063200Y0083101D01*
X0063200Y0081503D02*
X0070419Y0081503D01*
X0070216Y0079904D02*
X0063200Y0079904D01*
X0063200Y0078306D02*
X0070746Y0078306D01*
X0063200Y0076707D02*
X0168400Y0076707D01*
X0168400Y0075109D02*
X0063200Y0075109D01*
X0063200Y0073510D02*
X0168400Y0073510D01*
X0168400Y0071912D02*
X0063200Y0071912D01*
X0063200Y0070434D02*
X0063200Y0171366D01*
X0072734Y0180900D01*
X0075300Y0180900D01*
X0075300Y0173987D01*
X0076305Y0171561D01*
X0078161Y0169705D01*
X0080488Y0168741D01*
X0078485Y0167911D01*
X0076789Y0166215D01*
X0075871Y0163999D01*
X0075871Y0161601D01*
X0076789Y0159385D01*
X0077674Y0158500D01*
X0075830Y0158500D01*
X0074600Y0157270D01*
X0072700Y0155370D01*
X0072700Y0130347D01*
X0072495Y0130142D01*
X0071919Y0128752D01*
X0071919Y0127248D01*
X0072495Y0125858D01*
X0073558Y0124795D01*
X0074948Y0124219D01*
X0076452Y0124219D01*
X0077842Y0124795D01*
X0078905Y0125858D01*
X0079481Y0127248D01*
X0079481Y0128752D01*
X0078905Y0130142D01*
X0077842Y0131205D01*
X0076900Y0131596D01*
X0076900Y0146774D01*
X0078485Y0145189D01*
X0080701Y0144271D01*
X0083099Y0144271D01*
X0085315Y0145189D01*
X0087011Y0146885D01*
X0087929Y0149101D01*
X0087929Y0151499D01*
X0087011Y0153715D01*
X0086426Y0154300D01*
X0097187Y0154300D01*
X0098600Y0152887D01*
X0098600Y0151364D01*
X0098458Y0151305D01*
X0097395Y0150242D01*
X0096819Y0148852D01*
X0096819Y0147348D01*
X0097022Y0146858D01*
X0096799Y0146918D01*
X0094200Y0146918D01*
X0094200Y0143543D01*
X0094200Y0140169D01*
X0096799Y0140169D01*
X0097257Y0140291D01*
X0097667Y0140528D01*
X0098003Y0140863D01*
X0098240Y0141274D01*
X0098362Y0141732D01*
X0098362Y0143543D01*
X0094200Y0143543D01*
X0094200Y0143543D01*
X0094200Y0140168D01*
X0091601Y0140169D01*
X0091143Y0140291D01*
X0090733Y0140528D01*
X0090397Y0140863D01*
X0090160Y0141274D01*
X0090038Y0141732D01*
X0090038Y0143543D01*
X0094200Y0143543D01*
X0094200Y0143543D01*
X0094200Y0143543D01*
X0098362Y0143543D01*
X0098362Y0144991D01*
X0098458Y0144895D01*
X0099848Y0144319D01*
X0101352Y0144319D01*
X0102742Y0144895D01*
X0103805Y0145958D01*
X0104381Y0147348D01*
X0104381Y0148852D01*
X0103805Y0150242D01*
X0102800Y0151247D01*
X0102800Y0154627D01*
X0101570Y0155857D01*
X0098927Y0158500D01*
X0086126Y0158500D01*
X0087011Y0159385D01*
X0087929Y0161601D01*
X0087929Y0163999D01*
X0087011Y0166215D01*
X0085315Y0167911D01*
X0083312Y0168741D01*
X0085639Y0169705D01*
X0087495Y0171561D01*
X0088500Y0173987D01*
X0088500Y0187266D01*
X0088534Y0187300D01*
X0094275Y0187300D01*
X0095892Y0187970D01*
X0097130Y0189208D01*
X0102292Y0194370D01*
X0102292Y0194370D01*
X0103530Y0195608D01*
X0103601Y0195778D01*
X0106950Y0199128D01*
X0106950Y0194692D01*
X0107888Y0193755D01*
X0115512Y0193755D01*
X0116450Y0194692D01*
X0116450Y0211372D01*
X0115512Y0212309D01*
X0107888Y0212309D01*
X0106950Y0211372D01*
X0106950Y0208200D01*
X0104525Y0208200D01*
X0102908Y0207530D01*
X0101670Y0206292D01*
X0096070Y0200692D01*
X0095999Y0200522D01*
X0091577Y0196100D01*
X0088534Y0196100D01*
X0088500Y0196134D01*
X0088500Y0201613D01*
X0087495Y0204039D01*
X0085639Y0205895D01*
X0083213Y0206900D01*
X0080587Y0206900D01*
X0078161Y0205895D01*
X0076305Y0204039D01*
X0075300Y0201613D01*
X0075300Y0194100D01*
X0068687Y0194100D01*
X0066763Y0193303D01*
X0070776Y0197316D01*
X0071113Y0197316D01*
X0072430Y0197861D01*
X0073439Y0198870D01*
X0073984Y0200187D01*
X0073984Y0201613D01*
X0073439Y0202930D01*
X0072430Y0203939D01*
X0071113Y0204484D01*
X0069687Y0204484D01*
X0068370Y0203939D01*
X0067361Y0202930D01*
X0066816Y0201613D01*
X0066816Y0201276D01*
X0058840Y0193300D01*
X0028643Y0193300D01*
X0027614Y0192874D01*
X0026826Y0192086D01*
X0025226Y0190486D01*
X0024800Y0189457D01*
X0024800Y0140369D01*
X0024561Y0140130D01*
X0024016Y0138813D01*
X0024016Y0137387D01*
X0024561Y0136070D01*
X0025570Y0135061D01*
X0026887Y0134516D01*
X0028313Y0134516D01*
X0029630Y0135061D01*
X0030639Y0136070D01*
X0031184Y0137387D01*
X0031184Y0138813D01*
X0030639Y0140130D01*
X0030400Y0140369D01*
X0030400Y0162630D01*
X0030730Y0162300D01*
X0047470Y0162300D01*
X0048700Y0163530D01*
X0049600Y0164430D01*
X0049600Y0187700D01*
X0060557Y0187700D01*
X0061085Y0187919D01*
X0052861Y0179695D01*
X0051005Y0177839D01*
X0050000Y0175413D01*
X0050000Y0066387D01*
X0051005Y0063961D01*
X0052861Y0062105D01*
X0055468Y0059498D01*
X0055468Y0042125D01*
X0056473Y0039699D01*
X0058329Y0037843D01*
X0060755Y0036838D01*
X0063381Y0036838D01*
X0065806Y0037843D01*
X0067663Y0039699D01*
X0068668Y0042125D01*
X0068668Y0063545D01*
X0067663Y0065971D01*
X0063200Y0070434D01*
X0063321Y0070313D02*
X0168400Y0070313D01*
X0168400Y0068715D02*
X0064919Y0068715D01*
X0066518Y0067116D02*
X0168400Y0067116D01*
X0168400Y0065518D02*
X0067851Y0065518D01*
X0068513Y0063919D02*
X0168400Y0063919D01*
X0168400Y0062321D02*
X0068668Y0062321D01*
X0068668Y0060722D02*
X0168400Y0060722D01*
X0168400Y0059124D02*
X0068668Y0059124D01*
X0068668Y0057525D02*
X0168400Y0057525D01*
X0168400Y0055927D02*
X0068668Y0055927D01*
X0068668Y0054328D02*
X0168400Y0054328D01*
X0168390Y0052730D02*
X0068668Y0052730D01*
X0068668Y0051131D02*
X0166791Y0051131D01*
X0165193Y0049532D02*
X0068668Y0049532D01*
X0068668Y0047934D02*
X0078246Y0047934D01*
X0078736Y0048424D02*
X0077082Y0046769D01*
X0076186Y0044608D01*
X0076186Y0042268D01*
X0077082Y0040106D01*
X0078736Y0038452D01*
X0080898Y0037556D01*
X0083238Y0037556D01*
X0085399Y0038452D01*
X0087054Y0040106D01*
X0087949Y0042268D01*
X0087949Y0044608D01*
X0087054Y0046769D01*
X0085399Y0048424D01*
X0083238Y0049319D01*
X0080898Y0049319D01*
X0078736Y0048424D01*
X0076902Y0046335D02*
X0068668Y0046335D01*
X0068668Y0044737D02*
X0076240Y0044737D01*
X0076186Y0043138D02*
X0068668Y0043138D01*
X0068425Y0041540D02*
X0076488Y0041540D01*
X0077246Y0039941D02*
X0067763Y0039941D01*
X0066307Y0038343D02*
X0078999Y0038343D01*
X0085137Y0038343D02*
X0098999Y0038343D01*
X0098736Y0038452D02*
X0100898Y0037556D01*
X0103238Y0037556D01*
X0105399Y0038452D01*
X0107054Y0040106D01*
X0107949Y0042268D01*
X0107949Y0044608D01*
X0107054Y0046769D01*
X0105399Y0048424D01*
X0103238Y0049319D01*
X0100898Y0049319D01*
X0098736Y0048424D01*
X0097082Y0046769D01*
X0096186Y0044608D01*
X0096186Y0042268D01*
X0097082Y0040106D01*
X0098736Y0038452D01*
X0097246Y0039941D02*
X0086889Y0039941D01*
X0087648Y0041540D02*
X0096488Y0041540D01*
X0096186Y0043138D02*
X0087949Y0043138D01*
X0087896Y0044737D02*
X0096240Y0044737D01*
X0096902Y0046335D02*
X0087234Y0046335D01*
X0085889Y0047934D02*
X0098246Y0047934D01*
X0105889Y0047934D02*
X0117963Y0047934D01*
X0118106Y0048076D02*
X0117429Y0047400D01*
X0116866Y0046625D01*
X0116432Y0045772D01*
X0116136Y0044862D01*
X0116010Y0044065D01*
X0121440Y0044065D01*
X0121440Y0042811D01*
X0116010Y0042811D01*
X0116136Y0042014D01*
X0116432Y0041103D01*
X0116866Y0040250D01*
X0117429Y0039476D01*
X0118106Y0038799D01*
X0118880Y0038236D01*
X0119733Y0037802D01*
X0120644Y0037506D01*
X0121441Y0037380D01*
X0121441Y0042811D01*
X0122695Y0042811D01*
X0122695Y0044065D01*
X0128126Y0044065D01*
X0127999Y0044862D01*
X0127704Y0045772D01*
X0127269Y0046625D01*
X0126706Y0047400D01*
X0126030Y0048076D01*
X0125255Y0048639D01*
X0124402Y0049074D01*
X0123492Y0049370D01*
X0122695Y0049496D01*
X0122695Y0044065D01*
X0121441Y0044065D01*
X0121441Y0049496D01*
X0120644Y0049370D01*
X0119733Y0049074D01*
X0118880Y0048639D01*
X0118106Y0048076D01*
X0116719Y0046335D02*
X0107234Y0046335D01*
X0107896Y0044737D02*
X0116116Y0044737D01*
X0116290Y0041540D02*
X0107648Y0041540D01*
X0107949Y0043138D02*
X0121440Y0043138D01*
X0122695Y0043138D02*
X0136186Y0043138D01*
X0136186Y0042268D02*
X0136186Y0044608D01*
X0137082Y0046769D01*
X0138736Y0048424D01*
X0140898Y0049319D01*
X0143238Y0049319D01*
X0145399Y0048424D01*
X0147054Y0046769D01*
X0147949Y0044608D01*
X0147949Y0042268D01*
X0147054Y0040106D01*
X0145399Y0038452D01*
X0143238Y0037556D01*
X0140898Y0037556D01*
X0138736Y0038452D01*
X0137082Y0040106D01*
X0136186Y0042268D01*
X0136488Y0041540D02*
X0127846Y0041540D01*
X0127704Y0041103D02*
X0127999Y0042014D01*
X0128126Y0042811D01*
X0122695Y0042811D01*
X0122695Y0037380D01*
X0123492Y0037506D01*
X0124402Y0037802D01*
X0125255Y0038236D01*
X0126030Y0038799D01*
X0126706Y0039476D01*
X0127269Y0040250D01*
X0127704Y0041103D01*
X0127045Y0039941D02*
X0137246Y0039941D01*
X0138999Y0038343D02*
X0125402Y0038343D01*
X0122695Y0038343D02*
X0121441Y0038343D01*
X0121441Y0039941D02*
X0122695Y0039941D01*
X0122695Y0041540D02*
X0121441Y0041540D01*
X0121441Y0044737D02*
X0122695Y0044737D01*
X0122695Y0046335D02*
X0121441Y0046335D01*
X0121441Y0047934D02*
X0122695Y0047934D01*
X0126172Y0047934D02*
X0138246Y0047934D01*
X0136902Y0046335D02*
X0127417Y0046335D01*
X0128019Y0044737D02*
X0136240Y0044737D01*
X0145137Y0038343D02*
X0158999Y0038343D01*
X0157246Y0039941D02*
X0146889Y0039941D01*
X0147648Y0041540D02*
X0156488Y0041540D01*
X0156186Y0043138D02*
X0147949Y0043138D01*
X0147896Y0044737D02*
X0156240Y0044737D01*
X0156902Y0046335D02*
X0147234Y0046335D01*
X0145889Y0047934D02*
X0158246Y0047934D01*
X0166889Y0039941D02*
X0177246Y0039941D01*
X0176488Y0041540D02*
X0167648Y0041540D01*
X0167949Y0043138D02*
X0176186Y0043138D01*
X0176240Y0044737D02*
X0167896Y0044737D01*
X0167935Y0046335D02*
X0176200Y0046335D01*
X0174602Y0047934D02*
X0169534Y0047934D01*
X0171132Y0049532D02*
X0173400Y0049532D01*
X0173400Y0051131D02*
X0172600Y0051131D01*
X0172600Y0052730D02*
X0173400Y0052730D01*
X0173400Y0054328D02*
X0172600Y0054328D01*
X0172600Y0055927D02*
X0173400Y0055927D01*
X0173400Y0057525D02*
X0172600Y0057525D01*
X0172600Y0059124D02*
X0173400Y0059124D01*
X0173400Y0060722D02*
X0172600Y0060722D01*
X0172600Y0062321D02*
X0173400Y0062321D01*
X0173400Y0063919D02*
X0172600Y0063919D01*
X0172600Y0065518D02*
X0173400Y0065518D01*
X0173400Y0067116D02*
X0172600Y0067116D01*
X0172600Y0068715D02*
X0173400Y0068715D01*
X0173400Y0070313D02*
X0172600Y0070313D01*
X0172600Y0071912D02*
X0173400Y0071912D01*
X0173400Y0073510D02*
X0172600Y0073510D01*
X0172600Y0075109D02*
X0173400Y0075109D01*
X0173400Y0076707D02*
X0172600Y0076707D01*
X0172600Y0078306D02*
X0173400Y0078306D01*
X0173400Y0079904D02*
X0172600Y0079904D01*
X0172600Y0081503D02*
X0173400Y0081503D01*
X0173086Y0083101D02*
X0172914Y0083101D01*
X0168400Y0081503D02*
X0155763Y0081503D01*
X0154164Y0079904D02*
X0168400Y0079904D01*
X0168400Y0078306D02*
X0152565Y0078306D01*
X0133115Y0095889D02*
X0129367Y0095889D01*
X0127878Y0094400D02*
X0131100Y0097622D01*
X0131100Y0099700D01*
X0125800Y0099700D01*
X0125800Y0094400D01*
X0127878Y0094400D01*
X0125800Y0095889D02*
X0125400Y0095889D01*
X0125400Y0097488D02*
X0125800Y0097488D01*
X0125800Y0099086D02*
X0125400Y0099086D01*
X0121833Y0095889D02*
X0107400Y0095889D01*
X0107400Y0097488D02*
X0120234Y0097488D01*
X0120100Y0099086D02*
X0107959Y0099086D01*
X0108481Y0100685D02*
X0120100Y0100685D01*
X0120205Y0102283D02*
X0108302Y0102283D01*
X0105406Y0110276D02*
X0100493Y0110276D01*
X0101440Y0110419D02*
X0102760Y0110419D01*
X0103218Y0110542D01*
X0103628Y0110779D01*
X0103963Y0111114D01*
X0104200Y0111525D01*
X0104323Y0111982D01*
X0104323Y0114581D01*
X0101440Y0114581D01*
X0101440Y0110419D01*
X0101440Y0111874D02*
X0101440Y0111874D01*
X0101440Y0113473D02*
X0101440Y0113473D01*
X0101440Y0115071D02*
X0101440Y0115071D01*
X0101440Y0116670D02*
X0101440Y0116670D01*
X0101440Y0118268D02*
X0101440Y0118268D01*
X0103744Y0118268D02*
X0106000Y0118268D01*
X0106000Y0116670D02*
X0104323Y0116670D01*
X0104323Y0115071D02*
X0106000Y0115071D01*
X0106000Y0113473D02*
X0104323Y0113473D01*
X0104294Y0111874D02*
X0106000Y0111874D01*
X0106000Y0119867D02*
X0063200Y0119867D01*
X0063200Y0121466D02*
X0091605Y0121466D01*
X0091277Y0121794D02*
X0092214Y0120856D01*
X0095705Y0120856D01*
X0096643Y0121794D01*
X0096643Y0127843D01*
X0096400Y0128086D01*
X0096400Y0133282D01*
X0097225Y0133282D01*
X0098162Y0134219D01*
X0098162Y0138694D01*
X0097225Y0139631D01*
X0091175Y0139631D01*
X0090238Y0138694D01*
X0090238Y0134257D01*
X0089470Y0133939D01*
X0088461Y0132930D01*
X0087916Y0131613D01*
X0087916Y0130187D01*
X0088461Y0128870D01*
X0089470Y0127861D01*
X0090787Y0127316D01*
X0091277Y0127316D01*
X0091277Y0121794D01*
X0091277Y0123064D02*
X0063200Y0123064D01*
X0063200Y0124663D02*
X0073877Y0124663D01*
X0072328Y0126261D02*
X0063200Y0126261D01*
X0063200Y0127860D02*
X0071919Y0127860D01*
X0072211Y0129458D02*
X0063200Y0129458D01*
X0063200Y0131057D02*
X0072700Y0131057D01*
X0072700Y0132655D02*
X0063200Y0132655D01*
X0063200Y0134254D02*
X0072700Y0134254D01*
X0072700Y0135852D02*
X0063200Y0135852D01*
X0063200Y0137451D02*
X0072700Y0137451D01*
X0072700Y0139049D02*
X0063200Y0139049D01*
X0063200Y0140648D02*
X0072700Y0140648D01*
X0072700Y0142246D02*
X0063200Y0142246D01*
X0063200Y0143845D02*
X0072700Y0143845D01*
X0072700Y0145443D02*
X0063200Y0145443D01*
X0063200Y0147042D02*
X0072700Y0147042D01*
X0072700Y0148640D02*
X0063200Y0148640D01*
X0063200Y0150239D02*
X0072700Y0150239D01*
X0072700Y0151837D02*
X0063200Y0151837D01*
X0063200Y0153436D02*
X0072700Y0153436D01*
X0072700Y0155034D02*
X0063200Y0155034D01*
X0063200Y0156633D02*
X0073963Y0156633D01*
X0075561Y0158231D02*
X0063200Y0158231D01*
X0063200Y0159830D02*
X0076604Y0159830D01*
X0075942Y0161428D02*
X0063200Y0161428D01*
X0063200Y0163027D02*
X0075871Y0163027D01*
X0076130Y0164625D02*
X0063200Y0164625D01*
X0063200Y0166224D02*
X0076797Y0166224D01*
X0078396Y0167822D02*
X0063200Y0167822D01*
X0063200Y0169421D02*
X0078847Y0169421D01*
X0076847Y0171019D02*
X0063200Y0171019D01*
X0064452Y0172618D02*
X0075867Y0172618D01*
X0075300Y0174216D02*
X0066050Y0174216D01*
X0067649Y0175815D02*
X0075300Y0175815D01*
X0075300Y0177413D02*
X0069247Y0177413D01*
X0070846Y0179012D02*
X0075300Y0179012D01*
X0075300Y0180610D02*
X0072444Y0180610D01*
X0066994Y0193399D02*
X0066858Y0193399D01*
X0068457Y0194997D02*
X0075300Y0194997D01*
X0075300Y0196596D02*
X0070055Y0196596D01*
X0072763Y0198194D02*
X0075300Y0198194D01*
X0075300Y0199793D02*
X0073821Y0199793D01*
X0073984Y0201391D02*
X0075300Y0201391D01*
X0075870Y0202990D02*
X0073379Y0202990D01*
X0076854Y0204588D02*
X0036421Y0204588D01*
X0036651Y0204358D02*
X0035958Y0205051D01*
X0035165Y0205628D01*
X0034291Y0206073D01*
X0033359Y0206376D01*
X0032576Y0206500D01*
X0032576Y0200976D01*
X0031224Y0200976D01*
X0031224Y0199624D01*
X0025700Y0199624D01*
X0025824Y0198841D01*
X0026127Y0197909D01*
X0026572Y0197035D01*
X0027149Y0196242D01*
X0027842Y0195549D01*
X0028635Y0194972D01*
X0029509Y0194527D01*
X0030441Y0194224D01*
X0031224Y0194100D01*
X0031224Y0199624D01*
X0032576Y0199624D01*
X0032576Y0200976D01*
X0038100Y0200976D01*
X0037976Y0201759D01*
X0037673Y0202691D01*
X0037228Y0203565D01*
X0036651Y0204358D01*
X0037521Y0202990D02*
X0067421Y0202990D01*
X0066816Y0201391D02*
X0038034Y0201391D01*
X0038100Y0199624D02*
X0032576Y0199624D01*
X0032576Y0194100D01*
X0033359Y0194224D01*
X0034291Y0194527D01*
X0035165Y0194972D01*
X0035958Y0195549D01*
X0036651Y0196242D01*
X0037228Y0197035D01*
X0037673Y0197909D01*
X0037976Y0198841D01*
X0038100Y0199624D01*
X0037765Y0198194D02*
X0063734Y0198194D01*
X0062136Y0196596D02*
X0036908Y0196596D01*
X0035199Y0194997D02*
X0060537Y0194997D01*
X0058939Y0193399D02*
X0020653Y0193399D01*
X0020653Y0194997D02*
X0028601Y0194997D01*
X0026892Y0196596D02*
X0020653Y0196596D01*
X0020653Y0198194D02*
X0026035Y0198194D01*
X0025700Y0200976D02*
X0031224Y0200976D01*
X0031224Y0206500D01*
X0030441Y0206376D01*
X0029509Y0206073D01*
X0028635Y0205628D01*
X0027842Y0205051D01*
X0027149Y0204358D01*
X0026572Y0203565D01*
X0026127Y0202691D01*
X0025824Y0201759D01*
X0025700Y0200976D01*
X0025766Y0201391D02*
X0020653Y0201391D01*
X0020653Y0199793D02*
X0031224Y0199793D01*
X0032576Y0199793D02*
X0065333Y0199793D01*
X0056104Y0207785D02*
X0020653Y0207785D01*
X0020653Y0206187D02*
X0029859Y0206187D01*
X0031224Y0206187D02*
X0032576Y0206187D01*
X0033941Y0206187D02*
X0078865Y0206187D01*
X0076795Y0209384D02*
X0106950Y0209384D01*
X0106950Y0210982D02*
X0104825Y0210982D01*
X0107650Y0212581D02*
X0139371Y0212581D01*
X0138034Y0210982D02*
X0116450Y0210982D01*
X0116450Y0209384D02*
X0137716Y0209384D01*
X0138131Y0207785D02*
X0116450Y0207785D01*
X0116450Y0206187D02*
X0136913Y0206187D01*
X0136913Y0204588D02*
X0116450Y0204588D01*
X0116450Y0202990D02*
X0136913Y0202990D01*
X0136913Y0201391D02*
X0116450Y0201391D01*
X0116450Y0199793D02*
X0136913Y0199793D01*
X0136913Y0198194D02*
X0124175Y0198194D01*
X0119025Y0198194D02*
X0116450Y0198194D01*
X0116450Y0196596D02*
X0118091Y0196596D01*
X0118016Y0194997D02*
X0116450Y0194997D01*
X0115430Y0193399D02*
X0101321Y0193399D01*
X0102920Y0194997D02*
X0106950Y0194997D01*
X0106950Y0196596D02*
X0104418Y0196596D01*
X0106017Y0198194D02*
X0106950Y0198194D01*
X0101564Y0206187D02*
X0084935Y0206187D01*
X0086946Y0204588D02*
X0099966Y0204588D01*
X0098367Y0202990D02*
X0087930Y0202990D01*
X0088500Y0201391D02*
X0096769Y0201391D01*
X0095270Y0199793D02*
X0088500Y0199793D01*
X0088500Y0198194D02*
X0093672Y0198194D01*
X0092073Y0196596D02*
X0088500Y0196596D01*
X0088500Y0187004D02*
X0110616Y0187004D01*
X0110416Y0188603D02*
X0096526Y0188603D01*
X0097130Y0189208D02*
X0097130Y0189208D01*
X0098124Y0190201D02*
X0110949Y0190201D01*
X0114616Y0191800D02*
X0099723Y0191800D01*
X0100238Y0183807D02*
X0088500Y0183807D01*
X0088500Y0182209D02*
X0098639Y0182209D01*
X0097041Y0180610D02*
X0088500Y0180610D01*
X0088500Y0179012D02*
X0096400Y0179012D01*
X0096400Y0177413D02*
X0088500Y0177413D01*
X0088500Y0175815D02*
X0096400Y0175815D01*
X0096400Y0174216D02*
X0088500Y0174216D01*
X0087933Y0172618D02*
X0096400Y0172618D01*
X0096400Y0171019D02*
X0086953Y0171019D01*
X0084953Y0169421D02*
X0095574Y0169421D01*
X0094748Y0167822D02*
X0085404Y0167822D01*
X0087003Y0166224D02*
X0094729Y0166224D01*
X0095527Y0164625D02*
X0087670Y0164625D01*
X0087929Y0163027D02*
X0106750Y0163027D01*
X0106750Y0161654D02*
X0106873Y0161196D01*
X0107110Y0160785D01*
X0107445Y0160450D01*
X0107856Y0160213D01*
X0108313Y0160091D01*
X0110925Y0160091D01*
X0110925Y0168793D01*
X0106750Y0168793D01*
X0106750Y0161654D01*
X0106811Y0161428D02*
X0087858Y0161428D01*
X0087196Y0159830D02*
X0119100Y0159830D01*
X0119100Y0161428D02*
X0116589Y0161428D01*
X0116650Y0161654D02*
X0116650Y0168793D01*
X0112475Y0168793D01*
X0112475Y0170343D01*
X0110925Y0170343D01*
X0110925Y0179045D01*
X0108313Y0179045D01*
X0107856Y0178922D01*
X0107445Y0178685D01*
X0107110Y0178350D01*
X0106873Y0177940D01*
X0106750Y0177482D01*
X0106750Y0170343D01*
X0110925Y0170343D01*
X0110925Y0168793D01*
X0112475Y0168793D01*
X0112475Y0160091D01*
X0115087Y0160091D01*
X0115544Y0160213D01*
X0115955Y0160450D01*
X0116290Y0160785D01*
X0116527Y0161196D01*
X0116650Y0161654D01*
X0116650Y0163027D02*
X0119100Y0163027D01*
X0120055Y0164625D02*
X0116650Y0164625D01*
X0116650Y0166224D02*
X0121654Y0166224D01*
X0122319Y0167822D02*
X0116650Y0167822D01*
X0116650Y0170343D02*
X0116650Y0177482D01*
X0116527Y0177940D01*
X0116290Y0178350D01*
X0115955Y0178685D01*
X0115544Y0178922D01*
X0115087Y0179045D01*
X0112475Y0179045D01*
X0112475Y0170343D01*
X0116650Y0170343D01*
X0116650Y0171019D02*
X0124233Y0171019D01*
X0122720Y0169421D02*
X0112475Y0169421D01*
X0110925Y0169421D02*
X0101426Y0169421D01*
X0100600Y0171019D02*
X0106750Y0171019D01*
X0106750Y0172618D02*
X0100600Y0172618D01*
X0100600Y0174216D02*
X0106750Y0174216D01*
X0106750Y0175815D02*
X0100600Y0175815D01*
X0100600Y0177413D02*
X0106750Y0177413D01*
X0108190Y0179012D02*
X0101382Y0179012D01*
X0110925Y0179012D02*
X0112475Y0179012D01*
X0112475Y0177413D02*
X0110925Y0177413D01*
X0110925Y0175815D02*
X0112475Y0175815D01*
X0112475Y0174216D02*
X0110925Y0174216D01*
X0110925Y0172618D02*
X0112475Y0172618D01*
X0112475Y0171019D02*
X0110925Y0171019D01*
X0110925Y0167822D02*
X0112475Y0167822D01*
X0112475Y0166224D02*
X0110925Y0166224D01*
X0110925Y0164625D02*
X0112475Y0164625D01*
X0112475Y0163027D02*
X0110925Y0163027D01*
X0110925Y0161428D02*
X0112475Y0161428D01*
X0106750Y0164625D02*
X0101473Y0164625D01*
X0102271Y0166224D02*
X0106750Y0166224D01*
X0106750Y0167822D02*
X0102252Y0167822D01*
X0099195Y0158231D02*
X0119100Y0158231D01*
X0119100Y0156633D02*
X0100794Y0156633D01*
X0102392Y0155034D02*
X0118664Y0155034D01*
X0121407Y0151837D02*
X0143352Y0151837D01*
X0142300Y0153436D02*
X0123006Y0153436D01*
X0123300Y0155034D02*
X0142300Y0155034D01*
X0142300Y0156633D02*
X0123300Y0156633D01*
X0123300Y0158231D02*
X0142300Y0158231D01*
X0142300Y0159830D02*
X0123300Y0159830D01*
X0123300Y0161428D02*
X0142300Y0161428D01*
X0142300Y0163027D02*
X0124397Y0163027D01*
X0128373Y0164625D02*
X0142300Y0164625D01*
X0142300Y0166224D02*
X0129581Y0166224D01*
X0129881Y0167822D02*
X0141966Y0167822D01*
X0140368Y0169421D02*
X0129480Y0169421D01*
X0131888Y0171019D02*
X0137298Y0171019D01*
X0136913Y0172618D02*
X0133048Y0172618D01*
X0128816Y0177413D02*
X0116650Y0177413D01*
X0116650Y0175815D02*
X0126614Y0175815D01*
X0126116Y0174216D02*
X0116650Y0174216D01*
X0116650Y0172618D02*
X0126352Y0172618D01*
X0132518Y0179012D02*
X0115210Y0179012D01*
X0111725Y0185406D02*
X0088500Y0185406D01*
X0101670Y0206292D02*
X0101670Y0206292D01*
X0103523Y0207785D02*
X0075196Y0207785D01*
X0079985Y0210982D02*
X0080747Y0210982D01*
X0080747Y0212581D02*
X0079985Y0212581D01*
X0079985Y0214179D02*
X0080747Y0214179D01*
X0080747Y0214981D02*
X0084528Y0214981D01*
X0084528Y0217199D01*
X0084406Y0217657D01*
X0084169Y0218067D01*
X0083834Y0218403D01*
X0083423Y0218640D01*
X0082965Y0218762D01*
X0080747Y0218762D01*
X0080747Y0214981D01*
X0080747Y0215778D02*
X0079985Y0215778D01*
X0079985Y0217376D02*
X0080747Y0217376D01*
X0077600Y0218975D02*
X0106700Y0218975D01*
X0106700Y0220573D02*
X0077600Y0220573D01*
X0077600Y0222172D02*
X0106700Y0222172D01*
X0110900Y0218975D02*
X0167204Y0218975D01*
X0167423Y0217376D02*
X0110900Y0217376D01*
X0110848Y0215778D02*
X0146495Y0215778D01*
X0145968Y0214179D02*
X0109249Y0214179D01*
X0106506Y0217376D02*
X0105418Y0217376D01*
X0099069Y0217376D02*
X0098331Y0217376D01*
X0098331Y0217625D02*
X0098331Y0211575D01*
X0097394Y0210638D01*
X0092919Y0210638D01*
X0092289Y0211268D01*
X0091659Y0210638D01*
X0085609Y0210638D01*
X0084672Y0211575D01*
X0084672Y0217625D01*
X0085609Y0218562D01*
X0091659Y0218562D01*
X0092289Y0217932D01*
X0092919Y0218562D01*
X0097394Y0218562D01*
X0098331Y0217625D01*
X0098331Y0215778D02*
X0099069Y0215778D01*
X0099069Y0214179D02*
X0098331Y0214179D01*
X0098331Y0212581D02*
X0099069Y0212581D01*
X0099661Y0210982D02*
X0097739Y0210982D01*
X0092575Y0210982D02*
X0092003Y0210982D01*
X0085265Y0210982D02*
X0084018Y0210982D01*
X0084528Y0212581D02*
X0084672Y0212581D01*
X0084672Y0214179D02*
X0084528Y0214179D01*
X0084528Y0215778D02*
X0084672Y0215778D01*
X0084672Y0217376D02*
X0084481Y0217376D01*
X0077600Y0223770D02*
X0094161Y0223770D01*
X0093265Y0225369D02*
X0077600Y0225369D01*
X0077600Y0226967D02*
X0093238Y0226967D01*
X0094097Y0228566D02*
X0077600Y0228566D01*
X0077600Y0230164D02*
X0124404Y0230164D01*
X0116185Y0231763D02*
X0077600Y0231763D01*
X0077600Y0241354D02*
X0102089Y0241354D01*
X0102089Y0241353D02*
X0102500Y0241116D01*
X0102958Y0240994D01*
X0105800Y0240994D01*
X0105800Y0246797D01*
X0101394Y0246797D01*
X0101394Y0242557D01*
X0101517Y0242099D01*
X0101754Y0241688D01*
X0102089Y0241353D01*
X0101394Y0242952D02*
X0077600Y0242952D01*
X0077600Y0244551D02*
X0101394Y0244551D01*
X0101394Y0246149D02*
X0077600Y0246149D01*
X0077600Y0247748D02*
X0090562Y0247748D01*
X0088855Y0249346D02*
X0077600Y0249346D01*
X0077600Y0250945D02*
X0087257Y0250945D01*
X0086517Y0252543D02*
X0077600Y0252543D01*
X0076969Y0254142D02*
X0086500Y0254142D01*
X0086500Y0255740D02*
X0075371Y0255740D01*
X0067500Y0257339D02*
X0086500Y0257339D01*
X0086500Y0258937D02*
X0067489Y0258937D01*
X0067483Y0260536D02*
X0086500Y0260536D01*
X0086500Y0262134D02*
X0067476Y0262134D01*
X0067469Y0263733D02*
X0086500Y0263733D01*
X0086500Y0265332D02*
X0067462Y0265332D01*
X0067455Y0266930D02*
X0086837Y0266930D01*
X0088030Y0268529D02*
X0067448Y0268529D01*
X0067441Y0270127D02*
X0089629Y0270127D01*
X0089700Y0271726D02*
X0089394Y0271726D01*
X0089348Y0276521D02*
X0089700Y0276521D01*
X0090282Y0278120D02*
X0087400Y0278120D01*
X0087400Y0279718D02*
X0091820Y0279718D01*
X0093418Y0281317D02*
X0087400Y0281317D01*
X0083200Y0281317D02*
X0078900Y0281317D01*
X0078900Y0282915D02*
X0083200Y0282915D01*
X0083200Y0284514D02*
X0078900Y0284514D01*
X0078900Y0286112D02*
X0083200Y0286112D01*
X0083200Y0287711D02*
X0079780Y0287711D01*
X0080384Y0289309D02*
X0084139Y0289309D01*
X0085419Y0290908D02*
X0080221Y0290908D01*
X0079163Y0292506D02*
X0085731Y0292506D01*
X0086957Y0294105D02*
X0079187Y0294105D01*
X0073384Y0297302D02*
X0101594Y0297302D01*
X0083200Y0279718D02*
X0078900Y0279718D01*
X0078900Y0278120D02*
X0083200Y0278120D01*
X0083200Y0276521D02*
X0080948Y0276521D01*
X0081897Y0274923D02*
X0083161Y0274923D01*
X0083142Y0273324D02*
X0081984Y0273324D01*
X0081194Y0271726D02*
X0084006Y0271726D01*
X0075606Y0271726D02*
X0067434Y0271726D01*
X0067427Y0273324D02*
X0074816Y0273324D01*
X0074700Y0274923D02*
X0067420Y0274923D01*
X0067413Y0276521D02*
X0074700Y0276521D01*
X0074700Y0278120D02*
X0067406Y0278120D01*
X0067402Y0279718D02*
X0074700Y0279718D01*
X0074700Y0281317D02*
X0066599Y0281317D01*
X0065039Y0282915D02*
X0074700Y0282915D01*
X0074700Y0284514D02*
X0063480Y0284514D01*
X0071784Y0298900D02*
X0073384Y0298900D01*
X0073384Y0300499D02*
X0071784Y0300499D01*
X0071784Y0302097D02*
X0073384Y0302097D01*
X0074700Y0286112D02*
X0020653Y0286112D01*
X0020653Y0284514D02*
X0037002Y0284514D01*
X0035404Y0282915D02*
X0020653Y0282915D01*
X0020653Y0281317D02*
X0034600Y0281317D01*
X0034600Y0279718D02*
X0020653Y0279718D01*
X0020653Y0278120D02*
X0034600Y0278120D01*
X0034600Y0276521D02*
X0020653Y0276521D01*
X0020653Y0274923D02*
X0034600Y0274923D01*
X0034600Y0273324D02*
X0020653Y0273324D01*
X0020653Y0271726D02*
X0034600Y0271726D01*
X0034600Y0270127D02*
X0020653Y0270127D01*
X0020653Y0268529D02*
X0034600Y0268529D01*
X0034600Y0266930D02*
X0020653Y0266930D01*
X0020653Y0265332D02*
X0034600Y0265332D01*
X0034600Y0263733D02*
X0020653Y0263733D01*
X0020653Y0262134D02*
X0034600Y0262134D01*
X0034600Y0260536D02*
X0020653Y0260536D01*
X0020653Y0258937D02*
X0034600Y0258937D01*
X0034600Y0257339D02*
X0020653Y0257339D01*
X0020653Y0255740D02*
X0034600Y0255740D01*
X0035547Y0254142D02*
X0020653Y0254142D01*
X0020653Y0252543D02*
X0037141Y0252543D01*
X0041056Y0239022D02*
X0040645Y0238785D01*
X0040310Y0238450D01*
X0040073Y0238040D01*
X0039950Y0237582D01*
X0039950Y0230443D01*
X0044125Y0230443D01*
X0044125Y0239145D01*
X0041513Y0239145D01*
X0041056Y0239022D01*
X0040141Y0238157D02*
X0020653Y0238157D01*
X0020653Y0239755D02*
X0053900Y0239755D01*
X0053900Y0238157D02*
X0049659Y0238157D01*
X0049727Y0238040D02*
X0049490Y0238450D01*
X0049155Y0238785D01*
X0048744Y0239022D01*
X0048287Y0239145D01*
X0045675Y0239145D01*
X0045675Y0230443D01*
X0044125Y0230443D01*
X0044125Y0228893D01*
X0039950Y0228893D01*
X0039950Y0221754D01*
X0040073Y0221296D01*
X0040310Y0220885D01*
X0040645Y0220550D01*
X0041056Y0220313D01*
X0041513Y0220191D01*
X0043640Y0220191D01*
X0043398Y0219949D01*
X0043161Y0219538D01*
X0043039Y0219080D01*
X0043039Y0216075D01*
X0047213Y0216075D01*
X0047213Y0214525D01*
X0043039Y0214525D01*
X0043039Y0211520D01*
X0043161Y0211062D01*
X0043398Y0210651D01*
X0043733Y0210316D01*
X0044144Y0210079D01*
X0044602Y0209957D01*
X0047213Y0209957D01*
X0047213Y0214525D01*
X0048763Y0214525D01*
X0048763Y0209957D01*
X0051375Y0209957D01*
X0051833Y0210079D01*
X0052243Y0210316D01*
X0052578Y0210651D01*
X0052815Y0211062D01*
X0052938Y0211520D01*
X0052938Y0214525D01*
X0048763Y0214525D01*
X0048763Y0216075D01*
X0052938Y0216075D01*
X0052938Y0219080D01*
X0052815Y0219538D01*
X0052578Y0219949D01*
X0052243Y0220284D01*
X0051833Y0220521D01*
X0051375Y0220643D01*
X0049248Y0220643D01*
X0049490Y0220885D01*
X0049727Y0221296D01*
X0049850Y0221754D01*
X0049850Y0228893D01*
X0045675Y0228893D01*
X0045675Y0230443D01*
X0049850Y0230443D01*
X0049850Y0237582D01*
X0049727Y0238040D01*
X0049850Y0236558D02*
X0053900Y0236558D01*
X0053900Y0234960D02*
X0049850Y0234960D01*
X0049850Y0233361D02*
X0053900Y0233361D01*
X0053900Y0231763D02*
X0049850Y0231763D01*
X0049850Y0228566D02*
X0053900Y0228566D01*
X0053900Y0230164D02*
X0045675Y0230164D01*
X0044125Y0230164D02*
X0020653Y0230164D01*
X0020653Y0228566D02*
X0039950Y0228566D01*
X0039950Y0226967D02*
X0020653Y0226967D01*
X0020653Y0225369D02*
X0039950Y0225369D01*
X0039950Y0223770D02*
X0020653Y0223770D01*
X0020653Y0222172D02*
X0039950Y0222172D01*
X0040622Y0220573D02*
X0020653Y0220573D01*
X0020653Y0218975D02*
X0043039Y0218975D01*
X0043039Y0217376D02*
X0020653Y0217376D01*
X0020653Y0215778D02*
X0047213Y0215778D01*
X0048763Y0215778D02*
X0053900Y0215778D01*
X0053900Y0217376D02*
X0052938Y0217376D01*
X0052938Y0218975D02*
X0053900Y0218975D01*
X0053900Y0220573D02*
X0051636Y0220573D01*
X0049850Y0222172D02*
X0053900Y0222172D01*
X0053900Y0223770D02*
X0049850Y0223770D01*
X0049850Y0225369D02*
X0053900Y0225369D01*
X0053900Y0226967D02*
X0049850Y0226967D01*
X0045675Y0231763D02*
X0044125Y0231763D01*
X0044125Y0233361D02*
X0045675Y0233361D01*
X0045675Y0234960D02*
X0044125Y0234960D01*
X0044125Y0236558D02*
X0045675Y0236558D01*
X0045675Y0238157D02*
X0044125Y0238157D01*
X0039950Y0236558D02*
X0020653Y0236558D01*
X0020653Y0234960D02*
X0039950Y0234960D01*
X0039950Y0233361D02*
X0020653Y0233361D01*
X0020653Y0231763D02*
X0039950Y0231763D01*
X0053900Y0241354D02*
X0020653Y0241354D01*
X0020653Y0242952D02*
X0053900Y0242952D01*
X0053900Y0244551D02*
X0020653Y0244551D01*
X0020653Y0246149D02*
X0053900Y0246149D01*
X0053900Y0247748D02*
X0020653Y0247748D01*
X0020653Y0249346D02*
X0053442Y0249346D01*
X0051844Y0250945D02*
X0020653Y0250945D01*
X0020653Y0214179D02*
X0043039Y0214179D01*
X0043039Y0212581D02*
X0020653Y0212581D01*
X0020653Y0210982D02*
X0043207Y0210982D01*
X0047213Y0210982D02*
X0048763Y0210982D01*
X0048763Y0212581D02*
X0047213Y0212581D01*
X0047213Y0214179D02*
X0048763Y0214179D01*
X0052938Y0214179D02*
X0053900Y0214179D01*
X0053900Y0212581D02*
X0052938Y0212581D01*
X0052769Y0210982D02*
X0053900Y0210982D01*
X0054505Y0209384D02*
X0020653Y0209384D01*
X0020653Y0204588D02*
X0027379Y0204588D01*
X0026279Y0202990D02*
X0020653Y0202990D01*
X0020653Y0191800D02*
X0026540Y0191800D01*
X0025108Y0190201D02*
X0020653Y0190201D01*
X0020653Y0188603D02*
X0024800Y0188603D01*
X0024800Y0187004D02*
X0020653Y0187004D01*
X0020653Y0185406D02*
X0024800Y0185406D01*
X0024800Y0183807D02*
X0020653Y0183807D01*
X0020653Y0182209D02*
X0024800Y0182209D01*
X0024800Y0180610D02*
X0020653Y0180610D01*
X0020653Y0179012D02*
X0024800Y0179012D01*
X0024800Y0177413D02*
X0020653Y0177413D01*
X0020653Y0175815D02*
X0024800Y0175815D01*
X0024800Y0174216D02*
X0020653Y0174216D01*
X0020653Y0172618D02*
X0024800Y0172618D01*
X0024800Y0171019D02*
X0020653Y0171019D01*
X0020653Y0169421D02*
X0024800Y0169421D01*
X0024800Y0167822D02*
X0020653Y0167822D01*
X0020653Y0166224D02*
X0024800Y0166224D01*
X0024800Y0164625D02*
X0020653Y0164625D01*
X0020653Y0163027D02*
X0024800Y0163027D01*
X0024800Y0161428D02*
X0020653Y0161428D01*
X0020653Y0159830D02*
X0024800Y0159830D01*
X0024800Y0158231D02*
X0020653Y0158231D01*
X0020653Y0156633D02*
X0024800Y0156633D01*
X0024800Y0155034D02*
X0020653Y0155034D01*
X0020653Y0153436D02*
X0024800Y0153436D01*
X0024800Y0151837D02*
X0020653Y0151837D01*
X0020653Y0150239D02*
X0024800Y0150239D01*
X0024800Y0148640D02*
X0020653Y0148640D01*
X0020653Y0147042D02*
X0024800Y0147042D01*
X0024800Y0145443D02*
X0020653Y0145443D01*
X0020653Y0143845D02*
X0024800Y0143845D01*
X0024800Y0142246D02*
X0020653Y0142246D01*
X0020653Y0140648D02*
X0024800Y0140648D01*
X0024114Y0139049D02*
X0020653Y0139049D01*
X0020653Y0137451D02*
X0024016Y0137451D01*
X0024779Y0135852D02*
X0020653Y0135852D01*
X0020653Y0134254D02*
X0050000Y0134254D01*
X0050000Y0135852D02*
X0030421Y0135852D01*
X0031184Y0137451D02*
X0050000Y0137451D01*
X0050000Y0139049D02*
X0031086Y0139049D01*
X0030400Y0140648D02*
X0050000Y0140648D01*
X0050000Y0142246D02*
X0030400Y0142246D01*
X0030400Y0143845D02*
X0050000Y0143845D01*
X0050000Y0145443D02*
X0030400Y0145443D01*
X0030400Y0147042D02*
X0050000Y0147042D01*
X0050000Y0148640D02*
X0030400Y0148640D01*
X0030400Y0150239D02*
X0050000Y0150239D01*
X0050000Y0151837D02*
X0030400Y0151837D01*
X0030400Y0153436D02*
X0050000Y0153436D01*
X0050000Y0155034D02*
X0030400Y0155034D01*
X0030400Y0156633D02*
X0050000Y0156633D01*
X0050000Y0158231D02*
X0030400Y0158231D01*
X0030400Y0159830D02*
X0050000Y0159830D01*
X0050000Y0161428D02*
X0030400Y0161428D01*
X0048197Y0163027D02*
X0050000Y0163027D01*
X0050000Y0164625D02*
X0049600Y0164625D01*
X0049600Y0166224D02*
X0050000Y0166224D01*
X0050000Y0167822D02*
X0049600Y0167822D01*
X0049600Y0169421D02*
X0050000Y0169421D01*
X0050000Y0171019D02*
X0049600Y0171019D01*
X0049600Y0172618D02*
X0050000Y0172618D01*
X0050000Y0174216D02*
X0049600Y0174216D01*
X0049600Y0175815D02*
X0050167Y0175815D01*
X0049600Y0177413D02*
X0050829Y0177413D01*
X0049600Y0179012D02*
X0052178Y0179012D01*
X0052861Y0179695D02*
X0052861Y0179695D01*
X0053777Y0180610D02*
X0049600Y0180610D01*
X0049600Y0182209D02*
X0055375Y0182209D01*
X0056974Y0183807D02*
X0049600Y0183807D01*
X0049600Y0185406D02*
X0058572Y0185406D01*
X0060171Y0187004D02*
X0049600Y0187004D01*
X0032576Y0194997D02*
X0031224Y0194997D01*
X0031224Y0196596D02*
X0032576Y0196596D01*
X0032576Y0198194D02*
X0031224Y0198194D01*
X0031224Y0201391D02*
X0032576Y0201391D01*
X0032576Y0202990D02*
X0031224Y0202990D01*
X0031224Y0204588D02*
X0032576Y0204588D01*
X0076900Y0145443D02*
X0078230Y0145443D01*
X0076900Y0143845D02*
X0090038Y0143845D01*
X0090038Y0143543D02*
X0090038Y0145355D01*
X0090160Y0145813D01*
X0090397Y0146223D01*
X0090733Y0146558D01*
X0091143Y0146795D01*
X0091601Y0146918D01*
X0094200Y0146918D01*
X0094200Y0143543D01*
X0090038Y0143543D01*
X0090038Y0142246D02*
X0076900Y0142246D01*
X0076900Y0140648D02*
X0090613Y0140648D01*
X0090593Y0139049D02*
X0076900Y0139049D01*
X0076900Y0137451D02*
X0090238Y0137451D01*
X0090238Y0135852D02*
X0076900Y0135852D01*
X0076900Y0134254D02*
X0090230Y0134254D01*
X0088347Y0132655D02*
X0076900Y0132655D01*
X0077991Y0131057D02*
X0087916Y0131057D01*
X0088218Y0129458D02*
X0079189Y0129458D01*
X0079481Y0127860D02*
X0089474Y0127860D01*
X0091277Y0126261D02*
X0079072Y0126261D01*
X0077523Y0124663D02*
X0091277Y0124663D01*
X0096643Y0124663D02*
X0098757Y0124663D01*
X0098757Y0126261D02*
X0096643Y0126261D01*
X0096626Y0127860D02*
X0098774Y0127860D01*
X0098757Y0127843D02*
X0098757Y0121794D01*
X0099695Y0120856D01*
X0103186Y0120856D01*
X0104123Y0121794D01*
X0104123Y0127843D01*
X0103668Y0128299D01*
X0104439Y0129070D01*
X0104984Y0130387D01*
X0104984Y0131813D01*
X0104439Y0133130D01*
X0103430Y0134139D01*
X0102113Y0134684D01*
X0100687Y0134684D01*
X0099370Y0134139D01*
X0098361Y0133130D01*
X0097816Y0131813D01*
X0097816Y0130387D01*
X0098361Y0129070D01*
X0099173Y0128259D01*
X0098757Y0127843D01*
X0098201Y0129458D02*
X0096400Y0129458D01*
X0096400Y0131057D02*
X0097816Y0131057D01*
X0098165Y0132655D02*
X0096400Y0132655D01*
X0098162Y0134254D02*
X0099647Y0134254D01*
X0098162Y0135852D02*
X0106000Y0135852D01*
X0106000Y0134254D02*
X0103153Y0134254D01*
X0104635Y0132655D02*
X0106000Y0132655D01*
X0106000Y0131057D02*
X0104984Y0131057D01*
X0104599Y0129458D02*
X0106000Y0129458D01*
X0106000Y0127860D02*
X0104107Y0127860D01*
X0104123Y0126261D02*
X0106000Y0126261D01*
X0106000Y0124663D02*
X0104123Y0124663D01*
X0104123Y0123064D02*
X0106000Y0123064D01*
X0106000Y0121466D02*
X0103795Y0121466D01*
X0099086Y0121466D02*
X0096314Y0121466D01*
X0096643Y0123064D02*
X0098757Y0123064D01*
X0091939Y0118268D02*
X0084453Y0118268D01*
X0085315Y0117911D02*
X0083099Y0118829D01*
X0080701Y0118829D01*
X0078485Y0117911D01*
X0076789Y0116215D01*
X0075871Y0113999D01*
X0075871Y0111601D01*
X0076789Y0109385D01*
X0078485Y0107689D01*
X0080701Y0106771D01*
X0083099Y0106771D01*
X0085315Y0107689D01*
X0087011Y0109385D01*
X0087929Y0111601D01*
X0087929Y0113999D01*
X0087011Y0116215D01*
X0085315Y0117911D01*
X0086556Y0116670D02*
X0091277Y0116670D01*
X0091277Y0115071D02*
X0087485Y0115071D01*
X0087929Y0113473D02*
X0091277Y0113473D01*
X0091277Y0111874D02*
X0087929Y0111874D01*
X0087380Y0110276D02*
X0094707Y0110276D01*
X0094016Y0108677D02*
X0086304Y0108677D01*
X0083843Y0107079D02*
X0094143Y0107079D01*
X0094600Y0105480D02*
X0063200Y0105480D01*
X0063200Y0103882D02*
X0094600Y0103882D01*
X0097000Y0101800D02*
X0097000Y0107500D01*
X0097250Y0107750D01*
X0097000Y0101800D02*
X0094643Y0099443D01*
X0091400Y0099443D01*
X0083900Y0099443D01*
X0076443Y0099500D01*
X0079618Y0102283D02*
X0080540Y0102283D01*
X0079957Y0107079D02*
X0063200Y0107079D01*
X0063200Y0108677D02*
X0077496Y0108677D01*
X0076420Y0110276D02*
X0063200Y0110276D01*
X0063200Y0111874D02*
X0075871Y0111874D01*
X0075871Y0113473D02*
X0063200Y0113473D01*
X0063200Y0115071D02*
X0076315Y0115071D01*
X0077243Y0116670D02*
X0063200Y0116670D01*
X0063200Y0118268D02*
X0079347Y0118268D01*
X0087260Y0102283D02*
X0088040Y0102283D01*
X0080632Y0095889D02*
X0096434Y0095889D01*
X0098100Y0092700D02*
X0097757Y0092357D01*
X0069347Y0091094D02*
X0068585Y0091094D01*
X0068585Y0089495D02*
X0069347Y0089495D01*
X0065982Y0100685D02*
X0063200Y0100685D01*
X0063200Y0102283D02*
X0066031Y0102283D01*
X0050000Y0102283D02*
X0045296Y0102283D01*
X0045296Y0101450D02*
X0045296Y0106323D01*
X0045630Y0106461D01*
X0046639Y0107470D01*
X0047184Y0108787D01*
X0047184Y0110213D01*
X0046639Y0111530D01*
X0045630Y0112539D01*
X0044313Y0113084D01*
X0042887Y0113084D01*
X0041570Y0112539D01*
X0040561Y0111530D01*
X0040016Y0110213D01*
X0040016Y0108787D01*
X0040496Y0107627D01*
X0040496Y0101450D01*
X0038493Y0101450D01*
X0037556Y0100512D01*
X0037556Y0092888D01*
X0038493Y0091950D01*
X0047299Y0091950D01*
X0048236Y0092888D01*
X0048236Y0100512D01*
X0047299Y0101450D01*
X0045296Y0101450D01*
X0045296Y0103882D02*
X0050000Y0103882D01*
X0050000Y0105480D02*
X0045296Y0105480D01*
X0046248Y0107079D02*
X0050000Y0107079D01*
X0050000Y0108677D02*
X0047139Y0108677D01*
X0047158Y0110276D02*
X0050000Y0110276D01*
X0050000Y0111874D02*
X0046294Y0111874D01*
X0043600Y0109500D02*
X0042896Y0108796D01*
X0042896Y0096700D01*
X0048236Y0097488D02*
X0050000Y0097488D01*
X0050000Y0099086D02*
X0048236Y0099086D01*
X0048064Y0100685D02*
X0050000Y0100685D01*
X0050000Y0095889D02*
X0048236Y0095889D01*
X0048236Y0094291D02*
X0050000Y0094291D01*
X0050000Y0092692D02*
X0048041Y0092692D01*
X0050000Y0091094D02*
X0020653Y0091094D01*
X0020653Y0092692D02*
X0024581Y0092692D01*
X0024486Y0092856D02*
X0024723Y0092445D01*
X0025059Y0092110D01*
X0025469Y0091873D01*
X0025927Y0091750D01*
X0029129Y0091750D01*
X0029129Y0095925D01*
X0030679Y0095925D01*
X0030679Y0097475D01*
X0035444Y0097475D01*
X0035444Y0100087D01*
X0035321Y0100544D01*
X0035084Y0100955D01*
X0034749Y0101290D01*
X0034339Y0101527D01*
X0033881Y0101650D01*
X0030679Y0101650D01*
X0030679Y0097475D01*
X0029129Y0097475D01*
X0029129Y0101650D01*
X0025927Y0101650D01*
X0025469Y0101527D01*
X0025059Y0101290D01*
X0024723Y0100955D01*
X0024486Y0100544D01*
X0024364Y0100087D01*
X0024364Y0097475D01*
X0029129Y0097475D01*
X0029129Y0095925D01*
X0024364Y0095925D01*
X0024364Y0093313D01*
X0024486Y0092856D01*
X0024364Y0094291D02*
X0020653Y0094291D01*
X0020653Y0095889D02*
X0024364Y0095889D01*
X0024364Y0097488D02*
X0020653Y0097488D01*
X0020653Y0099086D02*
X0024364Y0099086D01*
X0024568Y0100685D02*
X0020653Y0100685D01*
X0020653Y0102283D02*
X0040496Y0102283D01*
X0040496Y0103882D02*
X0020653Y0103882D01*
X0020653Y0105480D02*
X0040496Y0105480D01*
X0040496Y0107079D02*
X0034393Y0107079D01*
X0034291Y0107027D02*
X0035165Y0107472D01*
X0035958Y0108049D01*
X0036651Y0108742D01*
X0037228Y0109535D01*
X0037673Y0110409D01*
X0037976Y0111341D01*
X0038100Y0112124D01*
X0032576Y0112124D01*
X0032576Y0113476D01*
X0031224Y0113476D01*
X0031224Y0112124D01*
X0025700Y0112124D01*
X0025824Y0111341D01*
X0026127Y0110409D01*
X0026572Y0109535D01*
X0027149Y0108742D01*
X0027842Y0108049D01*
X0028635Y0107472D01*
X0029509Y0107027D01*
X0030441Y0106724D01*
X0031224Y0106600D01*
X0031224Y0112124D01*
X0032576Y0112124D01*
X0032576Y0106600D01*
X0033359Y0106724D01*
X0034291Y0107027D01*
X0032576Y0107079D02*
X0031224Y0107079D01*
X0031224Y0108677D02*
X0032576Y0108677D01*
X0032576Y0110276D02*
X0031224Y0110276D01*
X0031224Y0111874D02*
X0032576Y0111874D01*
X0032576Y0113473D02*
X0050000Y0113473D01*
X0050000Y0115071D02*
X0037712Y0115071D01*
X0037673Y0115191D02*
X0037228Y0116065D01*
X0036651Y0116858D01*
X0035958Y0117551D01*
X0035165Y0118128D01*
X0034291Y0118573D01*
X0033359Y0118876D01*
X0032576Y0119000D01*
X0032576Y0113476D01*
X0038100Y0113476D01*
X0037976Y0114259D01*
X0037673Y0115191D01*
X0036788Y0116670D02*
X0050000Y0116670D01*
X0050000Y0118268D02*
X0034888Y0118268D01*
X0032576Y0118268D02*
X0031224Y0118268D01*
X0031224Y0119000D02*
X0030441Y0118876D01*
X0029509Y0118573D01*
X0028635Y0118128D01*
X0027842Y0117551D01*
X0027149Y0116858D01*
X0026572Y0116065D01*
X0026127Y0115191D01*
X0025824Y0114259D01*
X0025700Y0113476D01*
X0031224Y0113476D01*
X0031224Y0119000D01*
X0031224Y0116670D02*
X0032576Y0116670D01*
X0032576Y0115071D02*
X0031224Y0115071D01*
X0031224Y0113473D02*
X0020653Y0113473D01*
X0020653Y0115071D02*
X0026088Y0115071D01*
X0027012Y0116670D02*
X0020653Y0116670D01*
X0020653Y0118268D02*
X0028912Y0118268D01*
X0025740Y0111874D02*
X0020653Y0111874D01*
X0020653Y0110276D02*
X0026195Y0110276D01*
X0027213Y0108677D02*
X0020653Y0108677D01*
X0020653Y0107079D02*
X0029407Y0107079D01*
X0029129Y0100685D02*
X0030679Y0100685D01*
X0030679Y0099086D02*
X0029129Y0099086D01*
X0029129Y0097488D02*
X0030679Y0097488D01*
X0030679Y0095925D02*
X0035444Y0095925D01*
X0035444Y0093313D01*
X0035321Y0092856D01*
X0035084Y0092445D01*
X0034749Y0092110D01*
X0034339Y0091873D01*
X0033881Y0091750D01*
X0030679Y0091750D01*
X0030679Y0095925D01*
X0030679Y0095889D02*
X0029129Y0095889D01*
X0029129Y0094291D02*
X0030679Y0094291D01*
X0030679Y0092692D02*
X0029129Y0092692D01*
X0035227Y0092692D02*
X0037751Y0092692D01*
X0037556Y0094291D02*
X0035444Y0094291D01*
X0035444Y0095889D02*
X0037556Y0095889D01*
X0037556Y0097488D02*
X0035444Y0097488D01*
X0035444Y0099086D02*
X0037556Y0099086D01*
X0037728Y0100685D02*
X0035240Y0100685D01*
X0036587Y0108677D02*
X0040061Y0108677D01*
X0040042Y0110276D02*
X0037605Y0110276D01*
X0038060Y0111874D02*
X0040906Y0111874D01*
X0050000Y0119867D02*
X0020653Y0119867D01*
X0020653Y0121466D02*
X0050000Y0121466D01*
X0050000Y0123064D02*
X0020653Y0123064D01*
X0020653Y0124663D02*
X0050000Y0124663D01*
X0050000Y0126261D02*
X0020653Y0126261D01*
X0020653Y0127860D02*
X0050000Y0127860D01*
X0050000Y0129458D02*
X0020653Y0129458D01*
X0020653Y0131057D02*
X0050000Y0131057D01*
X0050000Y0132655D02*
X0020653Y0132655D01*
X0020653Y0089495D02*
X0050000Y0089495D01*
X0050000Y0087897D02*
X0020653Y0087897D01*
X0020653Y0086298D02*
X0050000Y0086298D01*
X0050000Y0084700D02*
X0020653Y0084700D01*
X0020653Y0083101D02*
X0050000Y0083101D01*
X0050000Y0081503D02*
X0020653Y0081503D01*
X0020653Y0079904D02*
X0050000Y0079904D01*
X0050000Y0078306D02*
X0020653Y0078306D01*
X0020653Y0076707D02*
X0050000Y0076707D01*
X0050000Y0075109D02*
X0020653Y0075109D01*
X0020653Y0073510D02*
X0050000Y0073510D01*
X0050000Y0071912D02*
X0020653Y0071912D01*
X0020653Y0070313D02*
X0050000Y0070313D01*
X0050000Y0068715D02*
X0020653Y0068715D01*
X0020653Y0067116D02*
X0050000Y0067116D01*
X0050360Y0065518D02*
X0020653Y0065518D01*
X0020653Y0063919D02*
X0051047Y0063919D01*
X0052646Y0062321D02*
X0020653Y0062321D01*
X0020653Y0060722D02*
X0054244Y0060722D01*
X0055468Y0059124D02*
X0020653Y0059124D01*
X0020653Y0057525D02*
X0055468Y0057525D01*
X0055468Y0055927D02*
X0020653Y0055927D01*
X0020653Y0054328D02*
X0055468Y0054328D01*
X0055468Y0052730D02*
X0020653Y0052730D01*
X0020653Y0051131D02*
X0055468Y0051131D01*
X0055468Y0049532D02*
X0020653Y0049532D01*
X0020653Y0047934D02*
X0037963Y0047934D01*
X0038106Y0048076D02*
X0037429Y0047400D01*
X0036866Y0046625D01*
X0036432Y0045772D01*
X0036136Y0044862D01*
X0036010Y0044065D01*
X0041440Y0044065D01*
X0041440Y0042811D01*
X0036010Y0042811D01*
X0036136Y0042014D01*
X0036432Y0041103D01*
X0036866Y0040250D01*
X0037429Y0039476D01*
X0038106Y0038799D01*
X0038880Y0038236D01*
X0039733Y0037802D01*
X0040644Y0037506D01*
X0041441Y0037380D01*
X0041441Y0042811D01*
X0042695Y0042811D01*
X0042695Y0044065D01*
X0048126Y0044065D01*
X0047999Y0044862D01*
X0047704Y0045772D01*
X0047269Y0046625D01*
X0046706Y0047400D01*
X0046030Y0048076D01*
X0045255Y0048639D01*
X0044402Y0049074D01*
X0043492Y0049370D01*
X0042695Y0049496D01*
X0042695Y0044065D01*
X0041441Y0044065D01*
X0041441Y0049496D01*
X0040644Y0049370D01*
X0039733Y0049074D01*
X0038880Y0048639D01*
X0038106Y0048076D01*
X0036719Y0046335D02*
X0020653Y0046335D01*
X0020653Y0044737D02*
X0036116Y0044737D01*
X0036290Y0041540D02*
X0020653Y0041540D01*
X0020653Y0043138D02*
X0041440Y0043138D01*
X0042695Y0043138D02*
X0055468Y0043138D01*
X0055468Y0044737D02*
X0048019Y0044737D01*
X0047417Y0046335D02*
X0055468Y0046335D01*
X0055468Y0047934D02*
X0046172Y0047934D01*
X0042695Y0047934D02*
X0041441Y0047934D01*
X0041441Y0046335D02*
X0042695Y0046335D01*
X0042695Y0044737D02*
X0041441Y0044737D01*
X0042695Y0042811D02*
X0048126Y0042811D01*
X0047999Y0042014D01*
X0047704Y0041103D01*
X0047269Y0040250D01*
X0046706Y0039476D01*
X0046030Y0038799D01*
X0045255Y0038236D01*
X0044402Y0037802D01*
X0043492Y0037506D01*
X0042695Y0037380D01*
X0042695Y0042811D01*
X0042695Y0041540D02*
X0041441Y0041540D01*
X0041441Y0039941D02*
X0042695Y0039941D01*
X0042695Y0038343D02*
X0041441Y0038343D01*
X0038734Y0038343D02*
X0020653Y0038343D01*
X0020653Y0039941D02*
X0037091Y0039941D01*
X0045402Y0038343D02*
X0057829Y0038343D01*
X0056372Y0039941D02*
X0047045Y0039941D01*
X0047846Y0041540D02*
X0055710Y0041540D01*
X0020653Y0036744D02*
X0186800Y0036744D01*
X0186800Y0035146D02*
X0020653Y0035146D01*
X0020653Y0033547D02*
X0186800Y0033547D01*
X0186800Y0031949D02*
X0020653Y0031949D01*
X0020653Y0030350D02*
X0186800Y0030350D01*
X0186800Y0028752D02*
X0020653Y0028752D01*
X0020653Y0027153D02*
X0186800Y0027153D01*
X0186800Y0025555D02*
X0020653Y0025555D01*
X0020653Y0023956D02*
X0186800Y0023956D01*
X0186800Y0038343D02*
X0185137Y0038343D01*
X0178999Y0038343D02*
X0165137Y0038343D01*
X0202068Y0043438D02*
X0202300Y0043670D01*
X0202300Y0081300D01*
X0206000Y0085000D01*
X0206100Y0085000D01*
X0208600Y0087500D01*
X0216200Y0087500D01*
X0216100Y0087400D01*
X0216200Y0087500D02*
X0225500Y0087500D01*
X0227200Y0089200D01*
X0232200Y0089200D02*
X0232200Y0080200D01*
X0231800Y0079800D01*
X0231350Y0079350D01*
X0222300Y0070300D01*
X0222300Y0043670D01*
X0222068Y0043438D01*
X0242068Y0043438D02*
X0242800Y0044170D01*
X0242800Y0070800D01*
X0237350Y0076250D01*
X0237200Y0076400D01*
X0237200Y0089200D01*
X0242200Y0089200D02*
X0242200Y0086600D01*
X0243800Y0085000D01*
X0255200Y0085000D01*
X0255700Y0085000D01*
X0258600Y0085000D01*
X0262300Y0081300D01*
X0262300Y0043670D01*
X0262068Y0043438D01*
X0237200Y0076400D02*
X0236800Y0076800D01*
X0224200Y0107079D02*
X0193605Y0107079D01*
X0194658Y0108677D02*
X0224200Y0108677D01*
X0224200Y0110276D02*
X0194878Y0110276D01*
X0194429Y0111874D02*
X0224200Y0111874D01*
X0224200Y0113473D02*
X0193300Y0113473D01*
X0193300Y0115071D02*
X0224454Y0115071D01*
X0227200Y0115071D02*
X0227200Y0115071D01*
X0227200Y0113473D02*
X0227200Y0113473D01*
X0227200Y0111874D02*
X0227200Y0111874D01*
X0227200Y0110276D02*
X0227200Y0110276D01*
X0226696Y0116670D02*
X0229160Y0116670D01*
X0236707Y0124663D02*
X0266800Y0124663D01*
X0266800Y0123064D02*
X0238306Y0123064D01*
X0239300Y0121466D02*
X0241296Y0121466D01*
X0243904Y0121466D02*
X0267189Y0121466D01*
X0272100Y0121466D02*
X0272500Y0121466D01*
X0272500Y0123064D02*
X0272100Y0123064D01*
X0272100Y0124663D02*
X0272500Y0124663D01*
X0277800Y0123064D02*
X0283482Y0123064D01*
X0283482Y0121466D02*
X0277411Y0121466D01*
X0283482Y0119867D02*
X0246008Y0119867D01*
X0246578Y0118268D02*
X0283482Y0118268D01*
X0283482Y0116670D02*
X0246479Y0116670D01*
X0245597Y0115071D02*
X0283482Y0115071D01*
X0283482Y0113473D02*
X0266972Y0113473D01*
X0267018Y0111874D02*
X0283482Y0111874D01*
X0283482Y0110276D02*
X0267018Y0110276D01*
X0267018Y0108677D02*
X0283482Y0108677D01*
X0283482Y0107079D02*
X0266505Y0107079D01*
X0263643Y0111874D02*
X0263643Y0111874D01*
X0263643Y0113473D02*
X0263643Y0113473D01*
X0260315Y0113473D02*
X0259731Y0113473D01*
X0259731Y0111874D02*
X0260269Y0111874D01*
X0260269Y0110276D02*
X0259731Y0110276D01*
X0259731Y0108677D02*
X0260269Y0108677D01*
X0260782Y0107079D02*
X0259135Y0107079D01*
X0256557Y0110700D02*
X0241900Y0110700D01*
X0241800Y0110600D01*
X0245000Y0113473D02*
X0253382Y0113473D01*
X0244929Y0127860D02*
X0266800Y0127860D01*
X0266800Y0129458D02*
X0246200Y0129458D01*
X0246550Y0131057D02*
X0246550Y0131057D01*
X0246550Y0132655D02*
X0246550Y0132655D01*
X0246550Y0134254D02*
X0246550Y0134254D01*
X0246550Y0135852D02*
X0246550Y0135852D01*
X0246550Y0137451D02*
X0246550Y0137451D01*
X0246704Y0139049D02*
X0243650Y0139049D01*
X0243650Y0140648D02*
X0246316Y0140648D01*
X0244246Y0147042D02*
X0243650Y0147042D01*
X0243650Y0148640D02*
X0244119Y0148640D01*
X0244450Y0150239D02*
X0242131Y0150239D01*
X0244050Y0151837D02*
X0244050Y0151837D01*
X0244050Y0153436D02*
X0244050Y0153436D01*
X0244050Y0155034D02*
X0244050Y0155034D01*
X0244050Y0156633D02*
X0244050Y0156633D01*
X0244050Y0158231D02*
X0244050Y0158231D01*
X0243650Y0159830D02*
X0249450Y0159830D01*
X0249758Y0161428D02*
X0243650Y0161428D01*
X0243750Y0163027D02*
X0251357Y0163027D01*
X0251459Y0165238D02*
X0251889Y0165668D01*
X0252319Y0165238D01*
X0256794Y0165238D01*
X0257731Y0166175D01*
X0257731Y0172225D01*
X0257206Y0172750D01*
X0257731Y0173275D01*
X0257731Y0179325D01*
X0256794Y0180262D01*
X0252319Y0180262D01*
X0251739Y0179682D01*
X0251359Y0180062D01*
X0245309Y0180062D01*
X0244372Y0179125D01*
X0244372Y0173075D01*
X0244847Y0172600D01*
X0244472Y0172225D01*
X0244472Y0166175D01*
X0245409Y0165238D01*
X0251459Y0165238D01*
X0254100Y0159830D02*
X0269334Y0159830D01*
X0268363Y0158231D02*
X0255656Y0158231D01*
X0258679Y0156633D02*
X0268000Y0156633D01*
X0268088Y0155034D02*
X0260277Y0155034D01*
X0261876Y0153436D02*
X0268750Y0153436D01*
X0270267Y0151837D02*
X0263474Y0151837D01*
X0265073Y0150239D02*
X0268743Y0150239D01*
X0267533Y0148640D02*
X0266671Y0148640D01*
X0269450Y0132655D02*
X0258466Y0132655D01*
X0256475Y0131057D02*
X0267132Y0131057D01*
X0239450Y0137550D02*
X0235062Y0137550D01*
X0234125Y0136613D01*
X0234125Y0135700D01*
X0233574Y0135700D01*
X0233726Y0135963D01*
X0233849Y0136420D01*
X0233849Y0139807D01*
X0231458Y0139807D01*
X0231458Y0139807D01*
X0233849Y0139807D01*
X0233849Y0143194D01*
X0233726Y0143651D01*
X0233489Y0144062D01*
X0233154Y0144397D01*
X0232744Y0144634D01*
X0232712Y0144642D01*
X0233500Y0145430D01*
X0233500Y0148230D01*
X0234230Y0147500D01*
X0238930Y0147500D01*
X0239450Y0146980D01*
X0239450Y0145095D01*
X0239433Y0145077D01*
X0239450Y0144229D01*
X0239450Y0137550D01*
X0239450Y0139049D02*
X0233849Y0139049D01*
X0233849Y0137451D02*
X0234963Y0137451D01*
X0234125Y0135852D02*
X0233662Y0135852D01*
X0233849Y0140648D02*
X0239450Y0140648D01*
X0239450Y0142246D02*
X0233849Y0142246D01*
X0233615Y0143845D02*
X0239450Y0143845D01*
X0239450Y0145443D02*
X0233500Y0145443D01*
X0233500Y0147042D02*
X0239388Y0147042D01*
X0244128Y0166224D02*
X0244472Y0166224D01*
X0244472Y0167822D02*
X0244128Y0167822D01*
X0244128Y0169421D02*
X0244472Y0169421D01*
X0244472Y0171019D02*
X0244128Y0171019D01*
X0243735Y0172618D02*
X0244829Y0172618D01*
X0244372Y0174216D02*
X0244028Y0174216D01*
X0244028Y0175815D02*
X0244372Y0175815D01*
X0244372Y0177413D02*
X0244028Y0177413D01*
X0244028Y0179012D02*
X0244372Y0179012D01*
X0243000Y0180610D02*
X0283482Y0180610D01*
X0283482Y0179012D02*
X0273814Y0179012D01*
X0273667Y0179158D02*
X0273257Y0179395D01*
X0272799Y0179518D01*
X0270200Y0179518D01*
X0270200Y0176143D01*
X0270200Y0172769D01*
X0272799Y0172769D01*
X0273257Y0172891D01*
X0273667Y0173128D01*
X0274003Y0173463D01*
X0274240Y0173874D01*
X0274362Y0174332D01*
X0274362Y0176143D01*
X0270200Y0176143D01*
X0270200Y0176143D01*
X0270200Y0172768D01*
X0267601Y0172769D01*
X0267143Y0172891D01*
X0266733Y0173128D01*
X0266397Y0173463D01*
X0266160Y0173874D01*
X0266038Y0174332D01*
X0266038Y0176143D01*
X0270200Y0176143D01*
X0270200Y0176143D01*
X0270200Y0176143D01*
X0274362Y0176143D01*
X0274362Y0177955D01*
X0274240Y0178413D01*
X0274003Y0178823D01*
X0273667Y0179158D01*
X0274362Y0177413D02*
X0283482Y0177413D01*
X0283482Y0175815D02*
X0274362Y0175815D01*
X0274331Y0174216D02*
X0283482Y0174216D01*
X0283482Y0172618D02*
X0264425Y0172618D01*
X0264818Y0174216D02*
X0266069Y0174216D01*
X0266038Y0175815D02*
X0264818Y0175815D01*
X0266038Y0176143D02*
X0266038Y0177955D01*
X0266160Y0178413D01*
X0266397Y0178823D01*
X0266733Y0179158D01*
X0267143Y0179395D01*
X0267601Y0179518D01*
X0270200Y0179518D01*
X0270200Y0176143D01*
X0266038Y0176143D01*
X0266038Y0177413D02*
X0264818Y0177413D01*
X0264818Y0179012D02*
X0266586Y0179012D01*
X0270200Y0179012D02*
X0270200Y0179012D01*
X0270200Y0177413D02*
X0270200Y0177413D01*
X0270200Y0176143D02*
X0270200Y0176143D01*
X0270200Y0175815D02*
X0270200Y0175815D01*
X0270200Y0174216D02*
X0270200Y0174216D01*
X0274162Y0171019D02*
X0283482Y0171019D01*
X0283482Y0169421D02*
X0274162Y0169421D01*
X0274162Y0167822D02*
X0283482Y0167822D01*
X0283482Y0166224D02*
X0273567Y0166224D01*
X0283482Y0182209D02*
X0243000Y0182209D01*
X0243000Y0183807D02*
X0283482Y0183807D01*
X0283482Y0185406D02*
X0243000Y0185406D01*
X0243977Y0187004D02*
X0283482Y0187004D01*
X0283482Y0188603D02*
X0244384Y0188603D01*
X0244058Y0190201D02*
X0283482Y0190201D01*
X0283482Y0201391D02*
X0234061Y0201391D01*
X0235659Y0202990D02*
X0283482Y0202990D01*
X0283482Y0204588D02*
X0237258Y0204588D01*
X0237453Y0206187D02*
X0283482Y0206187D01*
X0283482Y0207785D02*
X0237446Y0207785D01*
X0237441Y0209384D02*
X0283482Y0209384D01*
X0283482Y0210982D02*
X0237436Y0210982D01*
X0237430Y0212581D02*
X0283482Y0212581D01*
X0283482Y0214179D02*
X0237905Y0214179D01*
X0237905Y0215778D02*
X0283482Y0215778D01*
X0283482Y0217376D02*
X0237905Y0217376D01*
X0237678Y0218975D02*
X0211129Y0218975D01*
X0210298Y0220573D02*
X0222894Y0220573D01*
X0222894Y0217376D02*
X0212377Y0217376D01*
X0212860Y0215778D02*
X0222894Y0215778D01*
X0222894Y0214179D02*
X0212809Y0214179D01*
X0212147Y0212581D02*
X0223358Y0212581D01*
X0216312Y0210982D02*
X0210285Y0210982D01*
X0211885Y0209384D02*
X0214714Y0209384D01*
X0217700Y0231763D02*
X0205493Y0231763D01*
X0207009Y0233361D02*
X0217700Y0233361D01*
X0217700Y0234960D02*
X0207671Y0234960D01*
X0207778Y0236558D02*
X0217700Y0236558D01*
X0214049Y0238157D02*
X0207457Y0238157D01*
X0206739Y0239755D02*
X0212689Y0239755D01*
X0212319Y0241354D02*
X0206739Y0241354D01*
X0206739Y0242952D02*
X0212650Y0242952D01*
X0213904Y0244551D02*
X0206739Y0244551D01*
X0219770Y0257339D02*
X0252234Y0257339D01*
X0250637Y0258937D02*
X0219981Y0258937D01*
X0219491Y0260536D02*
X0250219Y0260536D01*
X0250502Y0262134D02*
X0217547Y0262134D01*
X0214853Y0262134D02*
X0190935Y0262134D01*
X0190081Y0263733D02*
X0251686Y0263733D01*
X0256314Y0263733D02*
X0283482Y0263733D01*
X0283482Y0262134D02*
X0257498Y0262134D01*
X0257781Y0260536D02*
X0283482Y0260536D01*
X0283482Y0258937D02*
X0257363Y0258937D01*
X0257200Y0257339D02*
X0283482Y0257339D01*
X0283482Y0255740D02*
X0257200Y0255740D01*
X0257200Y0254142D02*
X0283482Y0254142D01*
X0283482Y0252543D02*
X0257200Y0252543D01*
X0257200Y0250945D02*
X0283482Y0250945D01*
X0283482Y0249346D02*
X0257200Y0249346D01*
X0257200Y0247748D02*
X0283482Y0247748D01*
X0283482Y0246149D02*
X0257200Y0246149D01*
X0257200Y0244551D02*
X0283482Y0244551D01*
X0283482Y0242952D02*
X0257200Y0242952D01*
X0257200Y0241354D02*
X0271750Y0241354D01*
X0272679Y0241739D02*
X0270680Y0240911D01*
X0269150Y0239381D01*
X0268322Y0237382D01*
X0268322Y0235218D01*
X0269150Y0233219D01*
X0270680Y0231689D01*
X0272679Y0230861D01*
X0274842Y0230861D01*
X0276841Y0231689D01*
X0278371Y0233219D01*
X0279199Y0235218D01*
X0279199Y0237382D01*
X0278371Y0239381D01*
X0276841Y0240911D01*
X0274842Y0241739D01*
X0272679Y0241739D01*
X0275771Y0241354D02*
X0283482Y0241354D01*
X0283482Y0239755D02*
X0277997Y0239755D01*
X0278878Y0238157D02*
X0283482Y0238157D01*
X0283482Y0236558D02*
X0279199Y0236558D01*
X0279092Y0234960D02*
X0283482Y0234960D01*
X0283482Y0233361D02*
X0278430Y0233361D01*
X0276915Y0231763D02*
X0283482Y0231763D01*
X0283482Y0230164D02*
X0257200Y0230164D01*
X0257200Y0228566D02*
X0283482Y0228566D01*
X0283482Y0226967D02*
X0256337Y0226967D01*
X0255970Y0226600D02*
X0255970Y0226600D01*
X0254739Y0225369D02*
X0283482Y0225369D01*
X0283482Y0223770D02*
X0243535Y0223770D01*
X0244081Y0222172D02*
X0283482Y0222172D01*
X0283482Y0220573D02*
X0243926Y0220573D01*
X0242922Y0218975D02*
X0283482Y0218975D01*
X0270607Y0231763D02*
X0257200Y0231763D01*
X0257200Y0233361D02*
X0269091Y0233361D01*
X0268429Y0234960D02*
X0257200Y0234960D01*
X0257200Y0236558D02*
X0268322Y0236558D01*
X0268643Y0238157D02*
X0257200Y0238157D01*
X0257200Y0239755D02*
X0269525Y0239755D01*
X0283482Y0265332D02*
X0189758Y0265332D01*
X0188517Y0266930D02*
X0283482Y0266930D01*
X0283482Y0268529D02*
X0111605Y0268529D01*
X0111605Y0266930D02*
X0184083Y0266930D01*
X0182842Y0265332D02*
X0111605Y0265332D01*
X0111605Y0263733D02*
X0182519Y0263733D01*
X0182897Y0262134D02*
X0111605Y0262134D01*
X0111605Y0260536D02*
X0184300Y0260536D01*
X0188193Y0258937D02*
X0111605Y0258937D01*
X0111010Y0257339D02*
X0189791Y0257339D01*
X0187400Y0281317D02*
X0151441Y0281317D01*
X0153567Y0282915D02*
X0185802Y0282915D01*
X0184203Y0284514D02*
X0154407Y0284514D01*
X0154699Y0286112D02*
X0182605Y0286112D01*
X0181006Y0287711D02*
X0154563Y0287711D01*
X0153901Y0289309D02*
X0179408Y0289309D01*
X0176168Y0303696D02*
X0125239Y0303696D01*
X0125239Y0305294D02*
X0176168Y0305294D01*
X0176168Y0306893D02*
X0125239Y0306893D01*
X0125239Y0308491D02*
X0176168Y0308491D01*
X0176168Y0310090D02*
X0125239Y0310090D01*
X0126232Y0311688D02*
X0176168Y0311688D01*
X0156228Y0329272D02*
X0051168Y0329272D01*
X0051168Y0330870D02*
X0156300Y0330870D01*
X0156300Y0332469D02*
X0051168Y0332469D01*
X0051168Y0327673D02*
X0154630Y0327673D01*
X0201441Y0342060D02*
X0202695Y0342060D01*
X0202695Y0340462D02*
X0216168Y0340462D01*
X0216168Y0342060D02*
X0208069Y0342060D01*
X0207577Y0343659D02*
X0216752Y0343659D01*
X0217905Y0345257D02*
X0206487Y0345257D01*
X0207743Y0338863D02*
X0216168Y0338863D01*
X0216168Y0337265D02*
X0206816Y0337265D01*
X0202695Y0343659D02*
X0201441Y0343659D01*
X0201441Y0345257D02*
X0202695Y0345257D01*
X0226230Y0345257D02*
X0237649Y0345257D01*
X0236558Y0343659D02*
X0227384Y0343659D01*
X0227968Y0342060D02*
X0236066Y0342060D01*
X0236392Y0338863D02*
X0227968Y0338863D01*
X0227968Y0337265D02*
X0237319Y0337265D01*
X0241440Y0340462D02*
X0227968Y0340462D01*
X0241441Y0342060D02*
X0242695Y0342060D01*
X0242695Y0343659D02*
X0241441Y0343659D01*
X0241441Y0345257D02*
X0242695Y0345257D01*
X0161150Y0215778D02*
X0161150Y0215778D01*
X0161150Y0214179D02*
X0161150Y0214179D01*
X0161150Y0212581D02*
X0161150Y0212581D01*
X0161150Y0211635D02*
X0161150Y0206882D01*
X0160787Y0206882D01*
X0161550Y0206119D01*
X0162200Y0206769D01*
X0162200Y0206882D01*
X0161150Y0206882D01*
X0161150Y0211635D01*
X0161150Y0211635D01*
X0161150Y0210982D02*
X0161150Y0210982D01*
X0161150Y0209384D02*
X0161150Y0209384D01*
X0161150Y0207785D02*
X0161150Y0207785D01*
X0161482Y0206187D02*
X0161618Y0206187D01*
X0162040Y0201391D02*
X0161060Y0201391D01*
X0158584Y0199793D02*
X0182582Y0199793D01*
X0182582Y0201391D02*
X0166960Y0201391D01*
X0167961Y0202990D02*
X0182582Y0202990D01*
X0182582Y0204588D02*
X0168084Y0204588D01*
X0167382Y0206187D02*
X0182582Y0206187D01*
X0182398Y0207785D02*
X0183872Y0207785D01*
X0183138Y0209384D02*
X0182632Y0209384D01*
X0182632Y0210982D02*
X0183138Y0210982D01*
X0183138Y0212581D02*
X0182632Y0212581D01*
X0182582Y0198194D02*
X0158214Y0198194D01*
X0156630Y0196596D02*
X0182582Y0196596D01*
X0182582Y0194997D02*
X0150600Y0194997D01*
X0150600Y0196596D02*
X0153370Y0196596D01*
X0151786Y0198194D02*
X0150000Y0198194D01*
X0151416Y0199793D02*
X0148519Y0199793D01*
X0150949Y0193399D02*
X0182582Y0193399D01*
X0182582Y0191800D02*
X0152054Y0191800D01*
X0152281Y0190201D02*
X0182582Y0190201D01*
X0182582Y0188603D02*
X0151807Y0188603D01*
X0149942Y0187004D02*
X0182582Y0187004D01*
X0182582Y0185406D02*
X0146018Y0185406D01*
X0146018Y0187004D02*
X0147058Y0187004D01*
X0146018Y0183807D02*
X0182582Y0183807D01*
X0182582Y0182209D02*
X0146018Y0182209D01*
X0146018Y0180610D02*
X0182582Y0180610D01*
X0182582Y0179012D02*
X0146018Y0179012D01*
X0146018Y0177413D02*
X0167050Y0177413D01*
X0166870Y0177339D02*
X0168187Y0177884D01*
X0169613Y0177884D01*
X0170930Y0177339D01*
X0171939Y0176330D01*
X0172484Y0175013D01*
X0172484Y0173587D01*
X0171939Y0172270D01*
X0170930Y0171261D01*
X0169613Y0170716D01*
X0168187Y0170716D01*
X0168160Y0170727D01*
X0166557Y0170727D01*
X0165327Y0171957D01*
X0165327Y0173560D01*
X0165316Y0173587D01*
X0165316Y0175013D01*
X0165861Y0176330D01*
X0166870Y0177339D01*
X0165648Y0175815D02*
X0146018Y0175815D01*
X0146018Y0174216D02*
X0165316Y0174216D01*
X0165327Y0172618D02*
X0146018Y0172618D01*
X0145632Y0171019D02*
X0166264Y0171019D01*
X0164300Y0169421D02*
X0164300Y0169421D01*
X0164300Y0167822D02*
X0164300Y0167822D01*
X0164300Y0166224D02*
X0164300Y0166224D01*
X0164300Y0165965D02*
X0164300Y0165965D01*
X0164300Y0164625D02*
X0164300Y0164625D01*
X0164300Y0163027D02*
X0164300Y0163027D01*
X0164300Y0161428D02*
X0164300Y0161428D01*
X0164300Y0161213D02*
X0163228Y0161213D01*
X0163228Y0159442D01*
X0164170Y0158500D01*
X0165400Y0157270D01*
X0165400Y0143043D01*
X0165775Y0143418D01*
X0171825Y0143418D01*
X0172762Y0142481D01*
X0172762Y0142143D01*
X0173038Y0142143D01*
X0173038Y0142381D01*
X0173975Y0143318D01*
X0180025Y0143318D01*
X0180469Y0142874D01*
X0180498Y0142985D01*
X0180430Y0143240D01*
X0180430Y0144264D01*
X0181887Y0144264D01*
X0181887Y0144265D01*
X0180430Y0144265D01*
X0180430Y0145289D01*
X0180553Y0145747D01*
X0180630Y0145881D01*
X0180630Y0148961D01*
X0180530Y0148861D01*
X0179213Y0148316D01*
X0177787Y0148316D01*
X0176470Y0148861D01*
X0175461Y0149870D01*
X0174916Y0151187D01*
X0174916Y0152613D01*
X0175461Y0153930D01*
X0176470Y0154939D01*
X0176618Y0155000D01*
X0172069Y0155000D01*
X0171130Y0154061D01*
X0169813Y0153516D01*
X0168387Y0153516D01*
X0167070Y0154061D01*
X0166061Y0155070D01*
X0165516Y0156387D01*
X0165516Y0157813D01*
X0166061Y0159130D01*
X0167070Y0160139D01*
X0168387Y0160684D01*
X0168476Y0160684D01*
X0168476Y0161413D01*
X0166113Y0161413D01*
X0165979Y0161335D01*
X0165521Y0161213D01*
X0164300Y0161213D01*
X0163228Y0159830D02*
X0166761Y0159830D01*
X0165689Y0158231D02*
X0164439Y0158231D01*
X0165400Y0156633D02*
X0165516Y0156633D01*
X0165400Y0155034D02*
X0166097Y0155034D01*
X0165400Y0153436D02*
X0175257Y0153436D01*
X0174916Y0151837D02*
X0165400Y0151837D01*
X0165400Y0150239D02*
X0175309Y0150239D01*
X0177004Y0148640D02*
X0165400Y0148640D01*
X0165400Y0147042D02*
X0180630Y0147042D01*
X0180630Y0148640D02*
X0179996Y0148640D01*
X0180471Y0145443D02*
X0165400Y0145443D01*
X0165400Y0143845D02*
X0180430Y0143845D01*
X0185379Y0143845D02*
X0185380Y0143845D01*
X0185379Y0144264D02*
X0185379Y0141734D01*
X0185379Y0141706D01*
X0185380Y0141706D01*
X0185380Y0144264D01*
X0185379Y0144264D01*
X0185379Y0142246D02*
X0185380Y0142246D01*
X0185379Y0141705D02*
X0185379Y0139147D01*
X0185380Y0139147D01*
X0185380Y0141705D01*
X0185379Y0141705D01*
X0185379Y0140648D02*
X0185380Y0140648D01*
X0185379Y0139049D02*
X0185380Y0139049D01*
X0185379Y0137451D02*
X0185380Y0137451D01*
X0190083Y0137451D02*
X0191480Y0137451D01*
X0193607Y0124663D02*
X0198082Y0124663D01*
X0198621Y0123064D02*
X0195206Y0123064D01*
X0194000Y0119700D02*
X0201057Y0119700D01*
X0198082Y0116670D02*
X0194364Y0116670D01*
X0193850Y0119550D02*
X0194000Y0119700D01*
X0193850Y0119550D02*
X0190900Y0116600D01*
X0190900Y0110000D01*
X0186800Y0094291D02*
X0182522Y0094291D01*
X0183300Y0092692D02*
X0186800Y0092692D01*
X0186800Y0091094D02*
X0183300Y0091094D01*
X0186552Y0089495D02*
X0186800Y0089495D01*
X0218428Y0116670D02*
X0218772Y0116670D01*
X0214782Y0132655D02*
X0205788Y0132655D01*
X0205884Y0134254D02*
X0213035Y0134254D01*
X0211700Y0135852D02*
X0205117Y0135852D01*
X0210645Y0170600D02*
X0190882Y0170600D01*
X0191687Y0171405D01*
X0191687Y0177221D01*
X0192009Y0177221D01*
X0194800Y0174430D01*
X0196030Y0173200D01*
X0213309Y0173200D01*
X0210645Y0170600D01*
X0211075Y0171019D02*
X0191302Y0171019D01*
X0191687Y0172618D02*
X0212713Y0172618D01*
X0195014Y0174216D02*
X0191687Y0174216D01*
X0191687Y0175815D02*
X0193415Y0175815D01*
X0182582Y0175815D02*
X0172152Y0175815D01*
X0172484Y0174216D02*
X0182582Y0174216D01*
X0182582Y0172618D02*
X0172083Y0172618D01*
X0170346Y0171019D02*
X0182968Y0171019D01*
X0182582Y0177413D02*
X0170750Y0177413D01*
X0155100Y0150239D02*
X0154308Y0150239D01*
X0154442Y0148640D02*
X0155100Y0148640D01*
X0155100Y0147042D02*
X0154784Y0147042D01*
X0155100Y0145443D02*
X0154393Y0145443D01*
X0155100Y0143845D02*
X0152707Y0143845D01*
X0147616Y0147042D02*
X0110200Y0147042D01*
X0110200Y0148640D02*
X0146549Y0148640D01*
X0144950Y0150239D02*
X0119809Y0150239D01*
X0129151Y0143845D02*
X0133049Y0143845D01*
X0131451Y0142246D02*
X0130749Y0142246D01*
X0130900Y0140648D02*
X0131300Y0140648D01*
X0131300Y0139049D02*
X0130900Y0139049D01*
X0130646Y0137451D02*
X0131554Y0137451D01*
X0133153Y0135852D02*
X0129047Y0135852D01*
X0128742Y0134254D02*
X0133458Y0134254D01*
X0131860Y0132655D02*
X0130340Y0132655D01*
X0130900Y0131057D02*
X0131300Y0131057D01*
X0131300Y0129458D02*
X0130900Y0129458D01*
X0130900Y0127860D02*
X0131300Y0127860D01*
X0132744Y0126261D02*
X0129456Y0126261D01*
X0128333Y0124663D02*
X0133867Y0124663D01*
X0132269Y0123064D02*
X0129931Y0123064D01*
X0130900Y0121466D02*
X0131300Y0121466D01*
X0131300Y0119867D02*
X0130900Y0119867D01*
X0130900Y0118268D02*
X0131300Y0118268D01*
X0132335Y0116670D02*
X0129865Y0116670D01*
X0128267Y0115071D02*
X0133933Y0115071D01*
X0132678Y0113473D02*
X0129522Y0113473D01*
X0130900Y0111874D02*
X0131300Y0111874D01*
X0131300Y0110276D02*
X0130900Y0110276D01*
X0130900Y0108677D02*
X0131300Y0108677D01*
X0131926Y0107079D02*
X0130274Y0107079D01*
X0128676Y0105480D02*
X0133524Y0105480D01*
X0133087Y0103882D02*
X0129396Y0103882D01*
X0130995Y0102283D02*
X0131488Y0102283D01*
X0131300Y0100685D02*
X0131100Y0100685D01*
X0131100Y0099086D02*
X0131300Y0099086D01*
X0131517Y0097488D02*
X0130966Y0097488D01*
X0106000Y0137451D02*
X0098162Y0137451D01*
X0097807Y0139049D02*
X0106000Y0139049D01*
X0106000Y0140648D02*
X0097787Y0140648D01*
X0098362Y0142246D02*
X0106000Y0142246D01*
X0106000Y0143845D02*
X0098362Y0143845D01*
X0096946Y0147042D02*
X0087076Y0147042D01*
X0087738Y0148640D02*
X0096819Y0148640D01*
X0097393Y0150239D02*
X0087929Y0150239D01*
X0087789Y0151837D02*
X0098600Y0151837D01*
X0098051Y0153436D02*
X0087127Y0153436D01*
X0085570Y0145443D02*
X0090061Y0145443D01*
X0094200Y0145443D02*
X0094200Y0145443D01*
X0094200Y0143845D02*
X0094200Y0143845D01*
X0094200Y0143543D02*
X0094200Y0143543D01*
X0094200Y0142246D02*
X0094200Y0142246D01*
X0094200Y0140648D02*
X0094200Y0140648D01*
X0103290Y0145443D02*
X0106000Y0145443D01*
X0106000Y0147042D02*
X0104254Y0147042D01*
X0104381Y0148640D02*
X0106000Y0148640D01*
X0106000Y0150239D02*
X0103807Y0150239D01*
X0102800Y0151837D02*
X0106767Y0151837D01*
X0108366Y0153436D02*
X0102800Y0153436D01*
X0144566Y0210982D02*
X0145968Y0210982D01*
X0145968Y0212581D02*
X0143229Y0212581D01*
X0114939Y0241354D02*
X0111111Y0241354D01*
X0111111Y0241353D02*
X0111446Y0241688D01*
X0111683Y0242099D01*
X0111805Y0242557D01*
X0111805Y0246797D01*
X0107400Y0246797D01*
X0107400Y0248397D01*
X0105800Y0248397D01*
X0105800Y0246797D01*
X0107400Y0246797D01*
X0107400Y0240994D01*
X0110242Y0240994D01*
X0110700Y0241116D01*
X0111111Y0241353D01*
X0111805Y0242952D02*
X0114939Y0242952D01*
X0114939Y0244551D02*
X0111805Y0244551D01*
X0111805Y0246149D02*
X0114939Y0246149D01*
X0114995Y0247748D02*
X0107400Y0247748D01*
X0107400Y0248397D02*
X0111805Y0248397D01*
X0111805Y0252637D01*
X0111683Y0253095D01*
X0111446Y0253505D01*
X0111111Y0253840D01*
X0110700Y0254077D01*
X0110242Y0254200D01*
X0107400Y0254200D01*
X0107400Y0248397D01*
X0107400Y0249346D02*
X0105800Y0249346D01*
X0105800Y0247748D02*
X0094838Y0247748D01*
X0096329Y0249346D02*
X0101394Y0249346D01*
X0101394Y0250945D02*
X0096800Y0250945D01*
X0096623Y0252543D02*
X0101394Y0252543D01*
X0105800Y0252543D02*
X0107400Y0252543D01*
X0107400Y0250945D02*
X0105800Y0250945D01*
X0105800Y0254142D02*
X0107400Y0254142D01*
X0110459Y0254142D02*
X0121243Y0254142D01*
X0118921Y0252543D02*
X0111805Y0252543D01*
X0111805Y0250945D02*
X0117322Y0250945D01*
X0115724Y0249346D02*
X0111805Y0249346D01*
X0107400Y0246149D02*
X0105800Y0246149D01*
X0105800Y0244551D02*
X0107400Y0244551D01*
X0107400Y0242952D02*
X0105800Y0242952D01*
X0105800Y0241354D02*
X0107400Y0241354D01*
X0172762Y0142246D02*
X0173038Y0142246D01*
X0117091Y0039941D02*
X0106889Y0039941D01*
X0105137Y0038343D02*
X0118734Y0038343D01*
X0257731Y0166224D02*
X0258469Y0166224D01*
X0258469Y0167822D02*
X0257731Y0167822D01*
X0257731Y0169421D02*
X0258469Y0169421D01*
X0258469Y0171019D02*
X0257731Y0171019D01*
X0257339Y0172618D02*
X0258861Y0172618D01*
X0258469Y0174216D02*
X0257731Y0174216D01*
X0257731Y0175815D02*
X0258469Y0175815D01*
X0258469Y0177413D02*
X0257731Y0177413D01*
X0257731Y0179012D02*
X0258469Y0179012D01*
D37*
X0240800Y0188700D03*
X0215600Y0150600D03*
X0220000Y0139200D03*
X0202300Y0133600D03*
X0178500Y0151900D03*
X0169100Y0157100D03*
X0168900Y0174300D03*
X0151700Y0152700D03*
X0151200Y0147100D03*
X0129700Y0173900D03*
X0118200Y0191100D03*
X0114000Y0188200D03*
X0121600Y0195700D03*
X0141300Y0209500D03*
X0150200Y0203600D03*
X0155000Y0199800D03*
X0158600Y0204000D03*
X0164500Y0204000D03*
X0129200Y0231000D03*
X0096800Y0226200D03*
X0092700Y0251300D03*
X0086700Y0274100D03*
X0078400Y0274000D03*
X0069400Y0285700D03*
X0076800Y0289800D03*
X0076200Y0313100D03*
X0089500Y0312900D03*
X0060400Y0265400D03*
X0054700Y0265300D03*
X0054800Y0260300D03*
X0057600Y0256300D03*
X0060400Y0260200D03*
X0070400Y0200900D03*
X0041600Y0184500D03*
X0041500Y0180300D03*
X0041500Y0176200D03*
X0041500Y0171900D03*
X0039600Y0168200D03*
X0037100Y0171700D03*
X0037200Y0175900D03*
X0037100Y0180300D03*
X0037200Y0184500D03*
X0032900Y0184600D03*
X0032900Y0180200D03*
X0032500Y0175900D03*
X0032300Y0171700D03*
X0034500Y0168000D03*
X0027600Y0138100D03*
X0043600Y0109500D03*
X0073800Y0080300D03*
X0098100Y0092700D03*
X0097600Y0108100D03*
X0101400Y0131100D03*
X0091500Y0130900D03*
X0184900Y0086300D03*
X0249900Y0140700D03*
X0255200Y0085000D03*
X0128300Y0286700D03*
D38*
X0099900Y0262200D03*
X0089200Y0291000D03*
X0145100Y0222600D03*
X0123100Y0217500D03*
X0148500Y0190500D03*
X0157100Y0192400D03*
X0176600Y0174300D03*
X0193700Y0172900D03*
X0193100Y0157300D03*
X0202000Y0146200D03*
X0211200Y0162100D03*
X0218000Y0158100D03*
X0216700Y0168700D03*
X0236000Y0144800D03*
X0247900Y0148100D03*
X0253800Y0120600D03*
X0216100Y0087400D03*
X0207700Y0113200D03*
X0189800Y0132000D03*
X0145500Y0088600D03*
X0104700Y0101100D03*
X0075700Y0128000D03*
X0100600Y0148100D03*
X0098500Y0167000D03*
X0126100Y0167700D03*
X0184100Y0226100D03*
X0186300Y0263800D03*
X0216200Y0258600D03*
X0216100Y0241400D03*
X0240300Y0221700D03*
X0250600Y0253100D03*
X0254000Y0260700D03*
X0271600Y0187600D03*
D39*
X0269400Y0169400D02*
X0269743Y0169057D01*
X0270200Y0169057D01*
X0267400Y0167937D02*
X0267400Y0163600D01*
X0266000Y0162200D01*
X0253500Y0162200D01*
X0251550Y0160250D01*
X0251550Y0154500D01*
X0251600Y0154450D01*
X0251600Y0145500D01*
X0250400Y0144300D01*
X0244000Y0144300D01*
X0241550Y0144250D01*
X0241550Y0147850D01*
X0239800Y0149600D01*
X0235100Y0149600D01*
X0233700Y0151000D01*
X0233700Y0158900D01*
X0231300Y0161300D01*
X0231300Y0170100D01*
X0230500Y0170900D01*
X0226757Y0170900D01*
X0226600Y0170743D01*
X0226443Y0170900D01*
X0222900Y0170900D01*
X0222200Y0170200D01*
X0222200Y0159200D01*
X0223642Y0157758D01*
X0223642Y0153332D01*
X0223742Y0153232D01*
X0226200Y0153092D02*
X0226301Y0153193D01*
X0226200Y0153092D02*
X0226200Y0152400D01*
X0226300Y0152500D01*
X0226300Y0163300D01*
X0226600Y0163600D01*
X0226600Y0163657D01*
X0233600Y0163200D02*
X0236600Y0160200D01*
X0236600Y0154550D01*
X0236550Y0154500D01*
X0231400Y0153472D02*
X0231400Y0146300D01*
X0230500Y0145400D01*
X0220300Y0145400D01*
X0219300Y0146300D01*
X0219300Y0152600D01*
X0217599Y0154501D01*
X0208608Y0154501D01*
X0208608Y0157060D02*
X0209600Y0156968D01*
X0209600Y0160800D01*
X0210900Y0162100D01*
X0211200Y0162100D01*
X0211500Y0168500D02*
X0219800Y0176600D01*
X0219800Y0201900D01*
X0222100Y0204200D01*
X0229100Y0204200D01*
X0231984Y0207084D01*
X0231975Y0215457D01*
X0228825Y0215457D02*
X0228816Y0209616D01*
X0226800Y0207600D01*
X0220300Y0207600D01*
X0217400Y0204700D01*
X0217400Y0178700D01*
X0214000Y0175300D01*
X0196900Y0175300D01*
X0192879Y0179321D01*
X0187165Y0179321D01*
X0187135Y0179351D01*
X0187165Y0182471D02*
X0187135Y0182501D01*
X0187165Y0182471D02*
X0194129Y0182471D01*
X0198300Y0178300D01*
X0212800Y0178300D01*
X0215300Y0180800D01*
X0215300Y0207000D01*
X0218400Y0210100D01*
X0224373Y0210100D01*
X0225447Y0211174D01*
X0225479Y0215457D01*
X0225479Y0222346D02*
X0225447Y0223353D01*
X0224400Y0224400D01*
X0220700Y0224400D01*
X0219800Y0225300D01*
X0219800Y0237700D01*
X0216100Y0241400D01*
X0216200Y0258600D02*
X0191500Y0258600D01*
X0186300Y0263800D01*
X0185200Y0220600D02*
X0179634Y0220600D01*
X0185200Y0220600D02*
X0187100Y0218700D01*
X0187100Y0217843D01*
X0187100Y0210757D02*
X0187100Y0204583D01*
X0187135Y0204548D01*
X0187135Y0191950D02*
X0191290Y0191950D01*
X0191320Y0191920D01*
X0191740Y0188800D02*
X0191770Y0188770D01*
X0197800Y0194800D01*
X0204404Y0194800D01*
X0204860Y0195256D01*
X0205495Y0185620D02*
X0187165Y0185620D01*
X0187135Y0185650D01*
X0187135Y0188800D02*
X0191740Y0188800D01*
X0180400Y0168500D02*
X0211500Y0168500D01*
X0216700Y0168700D02*
X0221900Y0173900D01*
X0221900Y0200400D01*
X0223600Y0202100D01*
X0231800Y0202100D01*
X0235353Y0205653D01*
X0235321Y0215457D01*
X0235459Y0222159D02*
X0235700Y0222600D01*
X0239300Y0222600D01*
X0240300Y0221700D01*
X0235459Y0222159D02*
X0235321Y0222346D01*
X0231975Y0222346D02*
X0231984Y0225484D01*
X0233000Y0226500D01*
X0252900Y0226500D01*
X0255100Y0228700D01*
X0255100Y0259600D01*
X0254000Y0260700D01*
X0250600Y0253100D02*
X0252100Y0251600D01*
X0252100Y0229600D01*
X0251100Y0228600D01*
X0230100Y0228600D01*
X0228816Y0227316D01*
X0228825Y0222346D01*
X0232672Y0180100D02*
X0232700Y0180100D01*
X0233600Y0179200D01*
X0233600Y0163200D01*
X0228800Y0153572D02*
X0228800Y0148700D01*
X0228100Y0148000D01*
X0222000Y0148000D01*
X0221200Y0148700D01*
X0221200Y0155400D01*
X0218300Y0158100D01*
X0218000Y0158100D01*
X0215600Y0150600D02*
X0216000Y0149700D01*
X0216000Y0137600D01*
X0222500Y0131600D01*
X0222500Y0127134D01*
X0222634Y0127000D01*
X0224400Y0127000D01*
X0227400Y0124000D01*
X0234400Y0124000D01*
X0237200Y0121200D01*
X0237200Y0109800D01*
X0241800Y0109900D02*
X0241800Y0110600D01*
X0241800Y0116900D01*
X0242600Y0117700D01*
X0242800Y0110900D02*
X0241800Y0109900D01*
X0232200Y0109800D02*
X0232200Y0116600D01*
X0229400Y0119400D01*
X0222734Y0119400D01*
X0219000Y0119400D01*
X0218500Y0119800D01*
X0218500Y0132100D01*
X0213800Y0136400D01*
X0213800Y0145600D01*
X0212276Y0146824D01*
X0208608Y0146824D01*
X0209525Y0149200D02*
X0208608Y0149383D01*
X0209525Y0149200D02*
X0203300Y0149200D01*
X0202000Y0148000D01*
X0202000Y0146200D01*
X0197200Y0149700D02*
X0199400Y0151900D01*
X0199400Y0161100D01*
X0196900Y0163600D01*
X0190700Y0163600D01*
X0188600Y0161600D01*
X0174600Y0161600D01*
X0173726Y0162574D01*
X0173726Y0166126D01*
X0173749Y0166103D01*
X0173749Y0165965D01*
X0173726Y0166126D02*
X0174100Y0166500D01*
X0170599Y0165965D02*
X0170576Y0165943D01*
X0170576Y0161224D01*
X0172100Y0159700D01*
X0189700Y0159700D01*
X0191300Y0161200D01*
X0195900Y0161200D01*
X0197200Y0159900D01*
X0197200Y0153500D01*
X0195600Y0151900D01*
X0193100Y0151900D01*
X0191900Y0150700D01*
X0191900Y0140000D01*
X0192900Y0139000D01*
X0209561Y0139000D01*
X0208608Y0139146D01*
X0208608Y0141706D02*
X0209602Y0141600D01*
X0195300Y0141600D01*
X0194100Y0142800D01*
X0194100Y0148700D01*
X0195100Y0149700D01*
X0197200Y0149700D01*
X0191801Y0154401D02*
X0192800Y0155400D01*
X0192800Y0157000D01*
X0193100Y0157300D01*
X0191801Y0154401D02*
X0185380Y0154501D01*
X0185380Y0157060D02*
X0186239Y0157100D01*
X0169100Y0157100D01*
X0163300Y0156400D02*
X0163300Y0125700D01*
X0165200Y0123800D01*
X0176400Y0123800D01*
X0177000Y0123200D01*
X0177000Y0119666D01*
X0180400Y0116266D01*
X0180400Y0108300D01*
X0180500Y0108400D01*
X0180500Y0109100D01*
X0180400Y0108300D02*
X0180400Y0107400D01*
X0175800Y0108400D02*
X0175800Y0100500D01*
X0175700Y0100400D01*
X0171100Y0100400D01*
X0170500Y0101000D01*
X0171100Y0100400D02*
X0161600Y0100400D01*
X0157200Y0104800D01*
X0157200Y0154600D01*
X0151679Y0160121D01*
X0151679Y0165943D01*
X0151702Y0165965D01*
X0148552Y0165965D02*
X0148529Y0165943D01*
X0148529Y0155871D01*
X0157978Y0157922D02*
X0157978Y0165943D01*
X0158001Y0165965D01*
X0160900Y0165715D02*
X0161150Y0165965D01*
X0160900Y0165715D02*
X0160900Y0165500D01*
X0161128Y0165272D01*
X0161128Y0158572D01*
X0163300Y0156400D01*
X0160200Y0155700D02*
X0160200Y0108900D01*
X0162400Y0106700D01*
X0164900Y0106700D01*
X0164900Y0108500D01*
X0165500Y0109100D01*
X0165500Y0118900D01*
X0166766Y0119766D01*
X0168600Y0119766D01*
X0168600Y0128034D02*
X0168800Y0128534D01*
X0168800Y0133157D01*
X0169657Y0139943D02*
X0169400Y0140900D01*
X0168957Y0140900D01*
X0168800Y0140243D01*
X0169000Y0140043D01*
X0177400Y0140043D01*
X0177300Y0140143D01*
X0177000Y0140143D01*
X0177400Y0140043D02*
X0178157Y0140043D01*
X0181700Y0136500D01*
X0181700Y0124100D01*
X0182600Y0123200D01*
X0192100Y0123200D01*
X0193700Y0121600D01*
X0193700Y0119700D01*
X0193850Y0119550D01*
X0199700Y0119600D02*
X0201257Y0117557D01*
X0201257Y0119500D01*
X0208343Y0119500D02*
X0208443Y0119400D01*
X0214466Y0119400D01*
X0214366Y0127000D02*
X0208243Y0127000D01*
X0208343Y0126900D01*
X0208243Y0127000D02*
X0207500Y0127000D01*
X0226301Y0132299D02*
X0229600Y0129000D01*
X0243100Y0129000D01*
X0244100Y0130000D01*
X0244100Y0133100D01*
X0244100Y0133650D01*
X0244050Y0133700D01*
X0244100Y0133650D02*
X0244100Y0133900D01*
X0243800Y0134200D01*
X0243800Y0133400D01*
X0244100Y0133100D01*
X0241550Y0133700D02*
X0241550Y0144250D01*
X0246550Y0149450D02*
X0246550Y0154500D01*
X0249050Y0154500D02*
X0251550Y0154500D01*
X0246550Y0149450D02*
X0247900Y0148100D01*
X0241550Y0154500D02*
X0241550Y0162550D01*
X0228900Y0140106D02*
X0228900Y0134700D01*
X0230000Y0133600D01*
X0236450Y0133600D01*
X0236550Y0133700D01*
X0226301Y0132299D02*
X0226301Y0139807D01*
X0251550Y0139050D02*
X0251550Y0133700D01*
X0184900Y0086300D02*
X0180900Y0086300D01*
X0175500Y0088500D02*
X0175500Y0050006D01*
X0182068Y0043438D01*
X0170500Y0051870D02*
X0169765Y0051135D01*
X0162068Y0043438D01*
X0170500Y0051870D02*
X0170500Y0088500D01*
X0175800Y0108400D02*
X0175600Y0108600D01*
X0175500Y0108600D01*
X0175250Y0108850D01*
X0175500Y0109100D01*
X0175250Y0108850D02*
X0175000Y0109100D01*
X0170500Y0109100D01*
X0177100Y0127100D02*
X0177100Y0127834D01*
X0177000Y0127934D01*
X0177000Y0127200D01*
X0177100Y0127100D01*
X0177000Y0127934D02*
X0177000Y0133057D01*
X0160200Y0155700D02*
X0157978Y0157922D01*
X0167427Y0172827D02*
X0168900Y0174300D01*
X0180025Y0168125D02*
X0180025Y0165988D01*
X0180048Y0165965D01*
X0180025Y0168125D02*
X0180400Y0168500D01*
X0155000Y0199800D02*
X0155000Y0211433D01*
X0158000Y0211583D02*
X0158000Y0204700D01*
X0158600Y0204100D01*
X0158600Y0204000D01*
X0164277Y0204223D02*
X0164500Y0204000D01*
X0164300Y0204200D01*
X0164300Y0211635D01*
X0151700Y0211583D02*
X0151700Y0204300D01*
X0151000Y0203600D01*
X0150200Y0203600D01*
X0146500Y0201900D02*
X0146100Y0201500D01*
X0141574Y0201500D01*
X0141465Y0198249D02*
X0141495Y0198219D01*
X0146981Y0198219D01*
X0147800Y0197400D02*
X0148500Y0196700D01*
X0148500Y0190500D01*
X0141465Y0191950D02*
X0119244Y0191950D01*
X0118924Y0191630D01*
X0118200Y0191100D01*
X0118924Y0191630D02*
X0119320Y0191920D01*
X0122231Y0195069D02*
X0122201Y0195099D01*
X0121600Y0195700D01*
X0122201Y0195099D02*
X0141465Y0195099D01*
X0146500Y0201900D02*
X0146500Y0206200D01*
X0145400Y0207300D01*
X0142200Y0207300D01*
X0141300Y0208200D01*
X0141300Y0209500D01*
X0132600Y0187000D02*
X0115200Y0187000D01*
X0114000Y0188200D01*
X0101300Y0181900D02*
X0132600Y0181900D01*
X0135100Y0179400D01*
X0141417Y0179400D01*
X0141465Y0179351D01*
X0141435Y0182471D02*
X0141465Y0182501D01*
X0141435Y0182471D02*
X0137129Y0182471D01*
X0132600Y0187000D01*
X0132002Y0176202D02*
X0141465Y0176202D01*
X0141465Y0173052D02*
X0141465Y0171480D01*
X0141443Y0171457D01*
X0132002Y0176202D02*
X0129700Y0173900D01*
X0126100Y0167700D02*
X0121200Y0162800D01*
X0121200Y0154600D01*
X0118200Y0151600D01*
X0109500Y0151600D01*
X0108100Y0150200D01*
X0108100Y0110000D01*
X0106000Y0107900D01*
X0097800Y0107900D01*
X0097600Y0108100D01*
X0104700Y0101100D02*
X0105300Y0100500D01*
X0105300Y0090300D01*
X0107000Y0088600D01*
X0145500Y0088600D01*
X0094200Y0130700D02*
X0094000Y0130900D01*
X0091500Y0130900D01*
X0100600Y0148100D02*
X0100700Y0149200D01*
X0100700Y0153757D01*
X0098057Y0156400D01*
X0076700Y0156400D01*
X0074800Y0154500D01*
X0074800Y0129300D01*
X0075700Y0128400D01*
X0075700Y0128000D01*
X0098500Y0167000D02*
X0098500Y0179100D01*
X0101300Y0181900D01*
X0102243Y0214600D02*
X0106700Y0214600D01*
X0108800Y0216700D01*
X0108800Y0225600D01*
X0108200Y0226200D01*
X0105400Y0262200D02*
X0099900Y0262200D01*
X0105400Y0262200D02*
X0106600Y0263400D01*
X0086700Y0274100D02*
X0085300Y0275100D01*
X0085300Y0287500D01*
X0086400Y0288600D01*
X0088600Y0290600D01*
X0089200Y0291000D01*
X0076800Y0289800D02*
X0076800Y0275200D01*
X0078400Y0274000D01*
X0047000Y0187700D02*
X0030600Y0187700D01*
X0030400Y0187500D01*
X0030400Y0165600D01*
X0031600Y0164400D01*
X0046600Y0164400D01*
X0047500Y0165300D01*
X0047500Y0187200D01*
X0047000Y0187700D01*
X0047500Y0186807D02*
X0030400Y0186807D01*
X0030400Y0185809D02*
X0047500Y0185809D01*
X0047500Y0184810D02*
X0030400Y0184810D01*
X0030400Y0183812D02*
X0047500Y0183812D01*
X0047500Y0182813D02*
X0030400Y0182813D01*
X0030400Y0181815D02*
X0047500Y0181815D01*
X0047500Y0180816D02*
X0030400Y0180816D01*
X0030400Y0179818D02*
X0047500Y0179818D01*
X0047500Y0178819D02*
X0030400Y0178819D01*
X0030400Y0177821D02*
X0047500Y0177821D01*
X0047500Y0176822D02*
X0030400Y0176822D01*
X0030400Y0175824D02*
X0047500Y0175824D01*
X0047500Y0174825D02*
X0030400Y0174825D01*
X0030400Y0173827D02*
X0047500Y0173827D01*
X0047500Y0172828D02*
X0030400Y0172828D01*
X0030400Y0171830D02*
X0047500Y0171830D01*
X0047500Y0170831D02*
X0030400Y0170831D01*
X0030400Y0169833D02*
X0047500Y0169833D01*
X0047500Y0168834D02*
X0030400Y0168834D01*
X0030400Y0167836D02*
X0047500Y0167836D01*
X0047500Y0166837D02*
X0030400Y0166837D01*
X0030400Y0165839D02*
X0047500Y0165839D01*
X0047040Y0164840D02*
X0031160Y0164840D01*
D40*
X0092700Y0251300D02*
X0090600Y0253400D01*
X0090600Y0265300D01*
X0093800Y0268500D01*
X0093800Y0275900D01*
X0096511Y0278611D01*
X0105811Y0278611D01*
X0106600Y0279400D01*
X0124300Y0279400D01*
X0127150Y0282250D01*
X0106600Y0279400D02*
X0106600Y0296203D01*
D41*
X0123511Y0278611D02*
X0127150Y0282250D01*
X0128300Y0283400D01*
X0128300Y0286700D01*
D42*
X0075400Y0252600D02*
X0075400Y0211100D01*
X0073300Y0209000D01*
X0058000Y0209000D01*
X0056100Y0210900D01*
X0056100Y0249800D01*
X0051800Y0254100D01*
X0073900Y0254100D01*
X0075400Y0252600D01*
X0075076Y0252924D02*
X0052976Y0252924D01*
X0054174Y0251726D02*
X0075400Y0251726D01*
X0075400Y0250527D02*
X0055373Y0250527D01*
X0056100Y0249329D02*
X0075400Y0249329D01*
X0075400Y0248130D02*
X0056100Y0248130D01*
X0056100Y0246932D02*
X0075400Y0246932D01*
X0075400Y0245733D02*
X0056100Y0245733D01*
X0056100Y0244534D02*
X0075400Y0244534D01*
X0075400Y0243336D02*
X0056100Y0243336D01*
X0056100Y0242137D02*
X0075400Y0242137D01*
X0075400Y0240939D02*
X0056100Y0240939D01*
X0056100Y0239740D02*
X0075400Y0239740D01*
X0075400Y0238542D02*
X0056100Y0238542D01*
X0056100Y0237343D02*
X0075400Y0237343D01*
X0075400Y0236145D02*
X0056100Y0236145D01*
X0056100Y0234946D02*
X0075400Y0234946D01*
X0075400Y0233748D02*
X0056100Y0233748D01*
X0056100Y0232549D02*
X0075400Y0232549D01*
X0075400Y0231351D02*
X0056100Y0231351D01*
X0056100Y0230152D02*
X0075400Y0230152D01*
X0075400Y0228954D02*
X0056100Y0228954D01*
X0056100Y0227755D02*
X0075400Y0227755D01*
X0075400Y0226557D02*
X0056100Y0226557D01*
X0056100Y0225358D02*
X0075400Y0225358D01*
X0075400Y0224160D02*
X0056100Y0224160D01*
X0056100Y0222961D02*
X0075400Y0222961D01*
X0075400Y0221763D02*
X0056100Y0221763D01*
X0056100Y0220564D02*
X0075400Y0220564D01*
X0075400Y0219366D02*
X0056100Y0219366D01*
X0056100Y0218167D02*
X0075400Y0218167D01*
X0075400Y0216969D02*
X0056100Y0216969D01*
X0056100Y0215770D02*
X0075400Y0215770D01*
X0075400Y0214572D02*
X0056100Y0214572D01*
X0056100Y0213373D02*
X0075400Y0213373D01*
X0075400Y0212175D02*
X0056100Y0212175D01*
X0056100Y0210976D02*
X0075276Y0210976D01*
X0074078Y0209778D02*
X0057222Y0209778D01*
X0088634Y0214600D02*
X0095157Y0214600D01*
X0065300Y0254000D02*
X0039000Y0253800D01*
X0036800Y0256000D01*
X0036800Y0281200D01*
X0039100Y0283500D01*
X0061200Y0283700D01*
X0065200Y0279600D01*
X0065300Y0256500D01*
X0065300Y0254000D01*
X0065300Y0254123D02*
X0038677Y0254123D01*
X0037479Y0255321D02*
X0065300Y0255321D01*
X0065300Y0256520D02*
X0036800Y0256520D01*
X0036800Y0257718D02*
X0065295Y0257718D01*
X0065290Y0258917D02*
X0036800Y0258917D01*
X0036800Y0260115D02*
X0065284Y0260115D01*
X0065279Y0261314D02*
X0036800Y0261314D01*
X0036800Y0262512D02*
X0065274Y0262512D01*
X0065269Y0263711D02*
X0036800Y0263711D01*
X0036800Y0264909D02*
X0065264Y0264909D01*
X0065258Y0266108D02*
X0036800Y0266108D01*
X0036800Y0267306D02*
X0065253Y0267306D01*
X0065248Y0268505D02*
X0036800Y0268505D01*
X0036800Y0269703D02*
X0065243Y0269703D01*
X0065238Y0270902D02*
X0036800Y0270902D01*
X0036800Y0272100D02*
X0065232Y0272100D01*
X0065227Y0273299D02*
X0036800Y0273299D01*
X0036800Y0274497D02*
X0065222Y0274497D01*
X0065217Y0275696D02*
X0036800Y0275696D01*
X0036800Y0276894D02*
X0065212Y0276894D01*
X0065207Y0278093D02*
X0036800Y0278093D01*
X0036800Y0279291D02*
X0065201Y0279291D01*
X0064332Y0280490D02*
X0036800Y0280490D01*
X0037288Y0281688D02*
X0063163Y0281688D01*
X0061993Y0282887D02*
X0038487Y0282887D01*
X0141443Y0171457D02*
X0144500Y0168400D01*
X0144500Y0153800D01*
X0151200Y0147100D01*
X0151700Y0152700D02*
X0148529Y0155871D01*
X0178500Y0151900D02*
X0186321Y0151900D01*
X0185380Y0151942D01*
X0191320Y0191920D02*
X0196000Y0196600D01*
X0196000Y0222800D01*
X0198900Y0225700D01*
X0205416Y0225700D01*
X0205860Y0225256D01*
X0240800Y0188700D02*
X0240800Y0177300D01*
X0240600Y0177100D01*
X0240600Y0176600D01*
X0240500Y0176500D01*
X0240466Y0176500D01*
X0240066Y0176100D01*
X0240166Y0169200D02*
X0239600Y0168634D01*
X0239600Y0164500D01*
X0241550Y0162550D01*
X0248434Y0169200D02*
X0248734Y0168900D01*
X0249000Y0168900D01*
X0249300Y0169200D01*
X0254557Y0169200D01*
X0254557Y0176300D02*
X0248534Y0176300D01*
X0248334Y0176100D01*
X0261643Y0176300D02*
X0261643Y0169943D01*
X0261200Y0169500D01*
X0261343Y0169500D01*
X0261643Y0169200D01*
X0269200Y0169200D01*
X0269400Y0169400D01*
X0268863Y0169400D01*
X0267400Y0167937D01*
X0257700Y0154500D02*
X0266000Y0146200D01*
X0272200Y0146200D01*
X0272300Y0146300D01*
X0273300Y0136300D02*
X0259000Y0136300D01*
X0256400Y0133700D01*
X0254050Y0133700D01*
X0251550Y0139050D02*
X0249900Y0140700D01*
X0254050Y0154500D02*
X0257700Y0154500D01*
X0147800Y0197400D02*
X0146981Y0198219D01*
X0094200Y0136457D02*
X0094200Y0130700D01*
X0094200Y0125359D01*
X0101400Y0125078D02*
X0101400Y0131100D01*
X0097600Y0108100D02*
X0097250Y0107750D01*
X0097000Y0107500D02*
X0097000Y0104300D01*
D43*
X0190900Y0110000D03*
X0242600Y0117700D03*
D44*
X0154800Y0097600D02*
X0154800Y0084500D01*
X0150600Y0080300D01*
X0073800Y0080300D01*
X0027600Y0138100D02*
X0027600Y0188900D01*
X0029200Y0190500D01*
X0060000Y0190500D01*
X0070400Y0200900D01*
X0096800Y0226200D02*
X0108200Y0226200D01*
X0124400Y0226200D01*
X0129200Y0231000D01*
X0137400Y0100300D02*
X0136800Y0099700D01*
X0137400Y0100300D02*
X0152100Y0100300D01*
X0154800Y0097600D01*
D45*
X0190761Y0286300D02*
X0182068Y0294993D01*
X0182068Y0341076D01*
X0162200Y0340943D02*
X0162200Y0326900D01*
X0155900Y0320600D01*
X0126800Y0320600D01*
X0119339Y0313139D01*
X0119339Y0296339D01*
X0162200Y0340943D02*
X0162068Y0341076D01*
X0222068Y0341076D02*
X0222068Y0296493D01*
X0232261Y0286300D01*
X0262068Y0297993D02*
X0273761Y0286300D01*
X0262068Y0297993D02*
X0262068Y0341076D01*
D46*
X0239000Y0249900D02*
X0201600Y0249900D01*
X0202339Y0249161D01*
X0202339Y0236300D01*
X0201600Y0249900D02*
X0161500Y0249900D01*
X0160839Y0249239D01*
X0160839Y0236300D01*
X0161500Y0249900D02*
X0122500Y0249900D01*
X0119339Y0246739D01*
X0119339Y0236300D01*
X0071800Y0236300D01*
X0070900Y0235400D01*
X0070900Y0227728D01*
X0083600Y0191700D02*
X0093400Y0191700D01*
X0099800Y0198100D01*
X0099800Y0198200D01*
X0105400Y0203800D01*
X0110932Y0203800D01*
X0111700Y0203032D01*
X0239000Y0249900D02*
X0243900Y0245000D01*
X0243900Y0236361D01*
X0243839Y0236300D01*
D47*
X0083600Y0191700D02*
X0081900Y0190000D01*
X0081900Y0187600D01*
X0081900Y0175300D01*
X0081800Y0187500D02*
X0070000Y0187500D01*
X0056600Y0174100D01*
X0056600Y0067700D01*
X0062068Y0062232D01*
X0062068Y0043438D01*
X0081800Y0187500D02*
X0081900Y0187600D01*
X0081900Y0190000D02*
X0081900Y0200300D01*
D48*
X0043600Y0297765D02*
X0042068Y0299297D01*
X0042068Y0341076D01*
M02*
