G75*
%MOIN*%
%OFA0B0*%
%FSLAX25Y25*%
%IPPOS*%
%LPD*%
%AMOC8*
5,1,8,0,0,1.08239X$1,22.5*
%
%ADD10C,0.01000*%
%ADD11C,0.03750*%
%ADD12C,0.00800*%
%ADD13C,0.00500*%
%ADD14C,0.00600*%
%ADD15C,0.00000*%
%ADD16C,0.00100*%
D10*
X0049162Y0036633D02*
X0048662Y0166133D01*
X0498662Y0166133D01*
X0499162Y0036633D01*
X0049162Y0036633D01*
X0074358Y0075770D02*
X0074358Y0076437D01*
X0071689Y0079106D01*
X0071689Y0079773D01*
X0074358Y0079773D01*
X0076293Y0079106D02*
X0076960Y0079773D01*
X0078295Y0079773D01*
X0078962Y0079106D01*
X0078962Y0076437D01*
X0078295Y0075770D01*
X0076960Y0075770D01*
X0076293Y0076437D01*
X0124162Y0093989D02*
X0124162Y0095323D01*
X0124829Y0095990D01*
X0124162Y0097925D02*
X0124162Y0100594D01*
X0124162Y0099260D02*
X0128165Y0099260D01*
X0126831Y0097925D01*
X0127498Y0095990D02*
X0128165Y0095323D01*
X0128165Y0093989D01*
X0127498Y0093321D01*
X0124829Y0093321D01*
X0124162Y0093989D01*
X0124162Y0102529D02*
X0124162Y0105198D01*
X0124162Y0103864D02*
X0128165Y0103864D01*
X0126831Y0102529D01*
X0074615Y0132400D02*
X0073948Y0131733D01*
X0071279Y0131733D01*
X0070612Y0132400D01*
X0070612Y0133735D01*
X0071279Y0134402D01*
X0071279Y0136337D02*
X0070612Y0137004D01*
X0070612Y0138339D01*
X0071279Y0139006D01*
X0071946Y0139006D01*
X0072614Y0138339D01*
X0072614Y0136337D01*
X0071279Y0136337D01*
X0072614Y0136337D02*
X0073948Y0137671D01*
X0074615Y0139006D01*
X0073948Y0134402D02*
X0074615Y0133735D01*
X0074615Y0132400D01*
X0201497Y0066236D02*
X0204166Y0066236D01*
X0204166Y0064235D01*
X0202831Y0064902D01*
X0202164Y0064902D01*
X0201497Y0064235D01*
X0201497Y0062900D01*
X0202164Y0062233D01*
X0203499Y0062233D01*
X0204166Y0062900D01*
X0206101Y0062900D02*
X0206101Y0066236D01*
X0208770Y0066236D02*
X0208770Y0062900D01*
X0208102Y0062233D01*
X0206768Y0062233D01*
X0206101Y0062900D01*
X0205660Y0048386D02*
X0206995Y0048386D01*
X0207662Y0047719D01*
X0207662Y0045050D01*
X0206995Y0044383D01*
X0205660Y0044383D01*
X0204993Y0045050D01*
X0203058Y0044383D02*
X0200389Y0044383D01*
X0201723Y0044383D02*
X0201723Y0048386D01*
X0203058Y0047052D01*
X0204993Y0047719D02*
X0205660Y0048386D01*
X0198454Y0047719D02*
X0197787Y0048386D01*
X0196452Y0048386D01*
X0195785Y0047719D01*
X0195785Y0047052D01*
X0198454Y0044383D01*
X0195785Y0044383D01*
X0250312Y0044190D02*
X0251646Y0042856D01*
X0251646Y0043523D02*
X0251646Y0041521D01*
X0250312Y0041521D02*
X0254315Y0041521D01*
X0254315Y0043523D01*
X0253648Y0044190D01*
X0252314Y0044190D01*
X0251646Y0043523D01*
X0257512Y0043590D02*
X0258846Y0042256D01*
X0258846Y0042923D02*
X0258846Y0040921D01*
X0257512Y0040921D02*
X0261515Y0040921D01*
X0261515Y0042923D01*
X0260848Y0043590D01*
X0259514Y0043590D01*
X0258846Y0042923D01*
X0257512Y0045525D02*
X0257512Y0048194D01*
X0257512Y0046860D02*
X0261515Y0046860D01*
X0260181Y0045525D01*
X0254315Y0047460D02*
X0250312Y0047460D01*
X0250312Y0048794D02*
X0250312Y0046125D01*
X0252981Y0046125D02*
X0254315Y0047460D01*
X0254315Y0050729D02*
X0254315Y0053398D01*
X0253648Y0053398D01*
X0250979Y0050729D01*
X0250312Y0050729D01*
X0257512Y0050796D02*
X0257512Y0052131D01*
X0258179Y0052798D01*
X0258846Y0052798D01*
X0259514Y0052131D01*
X0259514Y0050129D01*
X0258179Y0050129D01*
X0257512Y0050796D01*
X0259514Y0050129D02*
X0260848Y0051464D01*
X0261515Y0052798D01*
X0383189Y0083437D02*
X0383189Y0086106D01*
X0383856Y0086773D01*
X0385191Y0086773D01*
X0385858Y0086106D01*
X0385858Y0085439D01*
X0385191Y0084772D01*
X0383189Y0084772D01*
X0383189Y0083437D02*
X0383856Y0082770D01*
X0385191Y0082770D01*
X0385858Y0083437D01*
X0385597Y0083718D02*
X0385597Y0083050D01*
X0386264Y0082383D01*
X0387599Y0082383D01*
X0388266Y0083050D01*
X0388266Y0083718D01*
X0387599Y0084385D01*
X0386264Y0084385D01*
X0385597Y0083718D01*
X0386264Y0084385D02*
X0385597Y0085052D01*
X0385597Y0085719D01*
X0386264Y0086386D01*
X0387599Y0086386D01*
X0388266Y0085719D01*
X0388266Y0085052D01*
X0387599Y0084385D01*
X0387793Y0083437D02*
X0388460Y0082770D01*
X0389795Y0082770D01*
X0390462Y0083437D01*
X0390462Y0086106D01*
X0389795Y0086773D01*
X0388460Y0086773D01*
X0387793Y0086106D01*
X0390201Y0085719D02*
X0390868Y0086386D01*
X0392202Y0086386D01*
X0392870Y0085719D01*
X0392870Y0083050D01*
X0392202Y0082383D01*
X0390868Y0082383D01*
X0390201Y0083050D01*
X0385435Y0110833D02*
X0382766Y0110833D01*
X0382099Y0111500D01*
X0382099Y0112835D01*
X0382766Y0113502D01*
X0382766Y0115437D02*
X0382099Y0116104D01*
X0382099Y0117439D01*
X0382766Y0118106D01*
X0384101Y0118106D01*
X0384768Y0117439D01*
X0384768Y0116771D01*
X0384101Y0115437D01*
X0386102Y0115437D01*
X0386102Y0118106D01*
X0385435Y0113502D02*
X0386102Y0112835D01*
X0386102Y0111500D01*
X0385435Y0110833D01*
X0361615Y0115300D02*
X0360948Y0114633D01*
X0358279Y0114633D01*
X0357612Y0115300D01*
X0357612Y0116635D01*
X0358279Y0117302D01*
X0357612Y0119237D02*
X0357612Y0121906D01*
X0357612Y0120571D02*
X0361615Y0120571D01*
X0360281Y0119237D01*
X0360948Y0117302D02*
X0361615Y0116635D01*
X0361615Y0115300D01*
X0360948Y0123841D02*
X0361615Y0124508D01*
X0361615Y0125843D01*
X0360948Y0126510D01*
X0358279Y0123841D01*
X0357612Y0124508D01*
X0357612Y0125843D01*
X0358279Y0126510D01*
X0360948Y0126510D01*
X0360948Y0123841D02*
X0358279Y0123841D01*
D11*
X0353962Y0138133D02*
X0342962Y0128133D01*
X0336912Y0118183D02*
X0330912Y0124683D01*
X0322162Y0127933D02*
X0314662Y0127933D01*
X0328312Y0135683D02*
X0321212Y0143583D01*
X0321112Y0143783D02*
X0321012Y0155383D01*
X0301262Y0154933D02*
X0301262Y0112383D01*
X0292162Y0106933D02*
X0284662Y0106933D01*
X0270762Y0105433D02*
X0258262Y0105433D01*
X0249862Y0106033D02*
X0237362Y0106033D01*
X0230262Y0106533D02*
X0217662Y0106533D01*
X0208362Y0106633D02*
X0195862Y0106633D01*
X0185062Y0111033D02*
X0185062Y0139033D01*
X0159962Y0126633D02*
X0159962Y0154633D01*
X0135562Y0157633D02*
X0135562Y0093133D01*
X0142662Y0106433D02*
X0155162Y0106433D01*
X0162262Y0106533D02*
X0174762Y0106533D01*
X0216462Y0126133D02*
X0216462Y0154133D01*
X0236962Y0154133D02*
X0236962Y0126133D01*
X0256462Y0125133D02*
X0256462Y0154633D01*
X0276462Y0155133D02*
X0276462Y0117133D01*
X0284662Y0127933D02*
X0292162Y0127933D01*
X0336962Y0118133D02*
X0336962Y0102633D01*
X0322162Y0106933D02*
X0314662Y0106933D01*
X0354162Y0138433D02*
X0416162Y0138433D01*
X0416362Y0138633D02*
X0416362Y0160633D01*
X0099362Y0155633D02*
X0099362Y0058133D01*
D12*
X0080386Y0081822D02*
X0070937Y0081822D01*
X0070937Y0089696D01*
X0080386Y0089696D02*
X0080386Y0081822D01*
X0080386Y0097570D02*
X0080386Y0103869D01*
X0078811Y0105444D01*
X0072512Y0105444D01*
X0070937Y0103869D01*
X0070937Y0097570D01*
X0209962Y0059796D02*
X0209962Y0047470D01*
X0209962Y0047471D02*
X0209953Y0047400D01*
X0209948Y0047329D01*
X0209947Y0047257D01*
X0209950Y0047186D01*
X0209957Y0047115D01*
X0209967Y0047044D01*
X0209981Y0046975D01*
X0210000Y0046905D01*
X0210021Y0046837D01*
X0210047Y0046771D01*
X0210076Y0046706D01*
X0210108Y0046642D01*
X0210144Y0046580D01*
X0210183Y0046521D01*
X0210226Y0046463D01*
X0210271Y0046408D01*
X0210320Y0046356D01*
X0210371Y0046306D01*
X0210424Y0046259D01*
X0210481Y0046215D01*
X0210539Y0046174D01*
X0210600Y0046136D01*
X0210662Y0046102D01*
X0210727Y0046071D01*
X0210793Y0046044D01*
X0210860Y0046020D01*
X0210928Y0046000D01*
X0210998Y0045983D01*
X0211068Y0045971D01*
X0211068Y0045970D02*
X0244862Y0045970D01*
X0244862Y0045971D02*
X0244932Y0045962D01*
X0245004Y0045957D01*
X0245075Y0045956D01*
X0245146Y0045959D01*
X0245217Y0045966D01*
X0245288Y0045976D01*
X0245358Y0045990D01*
X0245427Y0046008D01*
X0245495Y0046030D01*
X0245562Y0046056D01*
X0245627Y0046085D01*
X0245690Y0046117D01*
X0245752Y0046153D01*
X0245812Y0046192D01*
X0245869Y0046235D01*
X0245924Y0046280D01*
X0245977Y0046328D01*
X0246027Y0046380D01*
X0246074Y0046433D01*
X0246118Y0046489D01*
X0246158Y0046548D01*
X0246196Y0046609D01*
X0246230Y0046671D01*
X0246261Y0046735D01*
X0246289Y0046801D01*
X0246312Y0046869D01*
X0246332Y0046937D01*
X0246349Y0047007D01*
X0246361Y0047077D01*
X0246362Y0047077D02*
X0246362Y0051033D01*
X0246162Y0051033D02*
X0246064Y0051035D01*
X0245966Y0051041D01*
X0245868Y0051050D01*
X0245771Y0051064D01*
X0245674Y0051081D01*
X0245578Y0051102D01*
X0245483Y0051127D01*
X0245389Y0051155D01*
X0245297Y0051188D01*
X0245205Y0051223D01*
X0245115Y0051263D01*
X0245027Y0051305D01*
X0244940Y0051352D01*
X0244856Y0051401D01*
X0244773Y0051454D01*
X0244693Y0051510D01*
X0244614Y0051570D01*
X0244538Y0051632D01*
X0244465Y0051697D01*
X0244394Y0051765D01*
X0244326Y0051836D01*
X0244261Y0051909D01*
X0244199Y0051985D01*
X0244139Y0052064D01*
X0244083Y0052144D01*
X0244030Y0052227D01*
X0243981Y0052311D01*
X0243934Y0052398D01*
X0243892Y0052486D01*
X0243852Y0052576D01*
X0243817Y0052668D01*
X0243784Y0052760D01*
X0243756Y0052854D01*
X0243731Y0052949D01*
X0243710Y0053045D01*
X0243693Y0053142D01*
X0243679Y0053239D01*
X0243670Y0053337D01*
X0243664Y0053435D01*
X0243662Y0053533D01*
X0243664Y0053631D01*
X0243670Y0053729D01*
X0243679Y0053827D01*
X0243693Y0053924D01*
X0243710Y0054021D01*
X0243731Y0054117D01*
X0243756Y0054212D01*
X0243784Y0054306D01*
X0243817Y0054398D01*
X0243852Y0054490D01*
X0243892Y0054580D01*
X0243934Y0054668D01*
X0243981Y0054755D01*
X0244030Y0054839D01*
X0244083Y0054922D01*
X0244139Y0055002D01*
X0244199Y0055081D01*
X0244261Y0055157D01*
X0244326Y0055230D01*
X0244394Y0055301D01*
X0244465Y0055369D01*
X0244538Y0055434D01*
X0244614Y0055496D01*
X0244693Y0055556D01*
X0244773Y0055612D01*
X0244856Y0055665D01*
X0244940Y0055714D01*
X0245027Y0055761D01*
X0245115Y0055803D01*
X0245205Y0055843D01*
X0245297Y0055878D01*
X0245389Y0055911D01*
X0245483Y0055939D01*
X0245578Y0055964D01*
X0245674Y0055985D01*
X0245771Y0056002D01*
X0245868Y0056016D01*
X0245966Y0056025D01*
X0246064Y0056031D01*
X0246162Y0056033D01*
X0246362Y0056033D02*
X0246362Y0059352D01*
X0246362Y0059402D02*
X0246369Y0059483D01*
X0246373Y0059564D01*
X0246372Y0059645D01*
X0246368Y0059727D01*
X0246360Y0059807D01*
X0246348Y0059888D01*
X0246333Y0059968D01*
X0246313Y0060047D01*
X0246290Y0060125D01*
X0246263Y0060201D01*
X0246233Y0060277D01*
X0246199Y0060351D01*
X0246161Y0060423D01*
X0246120Y0060493D01*
X0246076Y0060561D01*
X0246029Y0060627D01*
X0245978Y0060691D01*
X0245925Y0060752D01*
X0245868Y0060811D01*
X0245809Y0060867D01*
X0245748Y0060920D01*
X0245684Y0060970D01*
X0245617Y0061017D01*
X0245549Y0061061D01*
X0245478Y0061101D01*
X0245406Y0061138D01*
X0245332Y0061172D01*
X0245256Y0061201D01*
X0245179Y0061228D01*
X0245101Y0061250D01*
X0245022Y0061269D01*
X0244942Y0061284D01*
X0244861Y0061296D01*
X0244862Y0061296D02*
X0211462Y0061296D01*
X0211461Y0061296D02*
X0211385Y0061294D01*
X0211310Y0061288D01*
X0211234Y0061279D01*
X0211159Y0061265D01*
X0211085Y0061248D01*
X0211012Y0061227D01*
X0210940Y0061203D01*
X0210870Y0061175D01*
X0210801Y0061143D01*
X0210733Y0061108D01*
X0210668Y0061069D01*
X0210604Y0061027D01*
X0210543Y0060982D01*
X0210484Y0060934D01*
X0210428Y0060883D01*
X0210374Y0060829D01*
X0210323Y0060773D01*
X0210275Y0060714D01*
X0210230Y0060653D01*
X0210188Y0060589D01*
X0210149Y0060524D01*
X0210114Y0060456D01*
X0210082Y0060387D01*
X0210054Y0060317D01*
X0210030Y0060245D01*
X0210009Y0060172D01*
X0209992Y0060098D01*
X0209978Y0060023D01*
X0209969Y0059947D01*
X0209963Y0059872D01*
X0209961Y0059796D01*
X0326803Y0089290D02*
X0326803Y0094802D01*
X0331921Y0094802D01*
X0331921Y0089290D01*
X0331921Y0094802D02*
X0331921Y0096376D01*
X0326803Y0096376D02*
X0326803Y0094802D01*
X0369151Y0096983D02*
X0369151Y0090683D01*
X0370726Y0089109D01*
X0377025Y0089109D01*
X0384899Y0089109D02*
X0392773Y0089109D01*
X0392773Y0098557D01*
X0384899Y0098557D01*
X0377025Y0098557D02*
X0370726Y0098557D01*
X0369151Y0096983D01*
X0372212Y0107322D02*
X0370637Y0108897D01*
X0370637Y0115196D01*
X0380086Y0115196D02*
X0380086Y0108897D01*
X0378511Y0107322D01*
X0372212Y0107322D01*
X0370637Y0123070D02*
X0370637Y0130944D01*
X0380086Y0130944D01*
X0380086Y0123070D01*
D13*
X0379362Y0117633D02*
X0371362Y0117633D01*
X0379462Y0097833D02*
X0379462Y0089833D01*
X0119052Y0099133D02*
X0119054Y0099191D01*
X0119060Y0099249D01*
X0119070Y0099306D01*
X0119083Y0099363D01*
X0119101Y0099418D01*
X0119122Y0099472D01*
X0119146Y0099525D01*
X0119175Y0099576D01*
X0119206Y0099624D01*
X0119241Y0099671D01*
X0119279Y0099715D01*
X0119319Y0099756D01*
X0119363Y0099795D01*
X0119409Y0099830D01*
X0119457Y0099863D01*
X0119507Y0099892D01*
X0119560Y0099917D01*
X0119613Y0099939D01*
X0119668Y0099958D01*
X0119725Y0099972D01*
X0119782Y0099983D01*
X0119839Y0099990D01*
X0119897Y0099993D01*
X0119956Y0099992D01*
X0120013Y0099987D01*
X0120071Y0099978D01*
X0120128Y0099966D01*
X0120183Y0099949D01*
X0120238Y0099929D01*
X0120291Y0099905D01*
X0120342Y0099878D01*
X0120391Y0099847D01*
X0120438Y0099813D01*
X0120483Y0099776D01*
X0120525Y0099736D01*
X0120565Y0099693D01*
X0120601Y0099648D01*
X0120634Y0099600D01*
X0120664Y0099550D01*
X0120690Y0099499D01*
X0120713Y0099445D01*
X0120733Y0099390D01*
X0120748Y0099334D01*
X0120760Y0099278D01*
X0120768Y0099220D01*
X0120772Y0099162D01*
X0120772Y0099104D01*
X0120768Y0099046D01*
X0120760Y0098988D01*
X0120748Y0098932D01*
X0120733Y0098876D01*
X0120713Y0098821D01*
X0120690Y0098767D01*
X0120664Y0098716D01*
X0120634Y0098666D01*
X0120601Y0098618D01*
X0120565Y0098573D01*
X0120525Y0098530D01*
X0120483Y0098490D01*
X0120438Y0098453D01*
X0120391Y0098419D01*
X0120342Y0098388D01*
X0120291Y0098361D01*
X0120238Y0098337D01*
X0120183Y0098317D01*
X0120128Y0098300D01*
X0120071Y0098288D01*
X0120013Y0098279D01*
X0119956Y0098274D01*
X0119897Y0098273D01*
X0119839Y0098276D01*
X0119782Y0098283D01*
X0119725Y0098294D01*
X0119668Y0098308D01*
X0119613Y0098327D01*
X0119560Y0098349D01*
X0119507Y0098374D01*
X0119457Y0098403D01*
X0119409Y0098436D01*
X0119363Y0098471D01*
X0119319Y0098510D01*
X0119279Y0098551D01*
X0119241Y0098595D01*
X0119206Y0098642D01*
X0119175Y0098690D01*
X0119146Y0098741D01*
X0119122Y0098794D01*
X0119101Y0098848D01*
X0119083Y0098903D01*
X0119070Y0098960D01*
X0119060Y0099017D01*
X0119054Y0099075D01*
X0119052Y0099133D01*
X0119812Y0099133D02*
X0119814Y0099153D01*
X0119820Y0099171D01*
X0119829Y0099189D01*
X0119841Y0099204D01*
X0119856Y0099216D01*
X0119874Y0099225D01*
X0119892Y0099231D01*
X0119912Y0099233D01*
X0119932Y0099231D01*
X0119950Y0099225D01*
X0119968Y0099216D01*
X0119983Y0099204D01*
X0119995Y0099189D01*
X0120004Y0099171D01*
X0120010Y0099153D01*
X0120012Y0099133D01*
X0120010Y0099113D01*
X0120004Y0099095D01*
X0119995Y0099077D01*
X0119983Y0099062D01*
X0119968Y0099050D01*
X0119950Y0099041D01*
X0119932Y0099035D01*
X0119912Y0099033D01*
X0119892Y0099035D01*
X0119874Y0099041D01*
X0119856Y0099050D01*
X0119841Y0099062D01*
X0119829Y0099077D01*
X0119820Y0099095D01*
X0119814Y0099113D01*
X0119812Y0099133D01*
X0119412Y0099133D02*
X0119414Y0099177D01*
X0119420Y0099221D01*
X0119430Y0099264D01*
X0119443Y0099306D01*
X0119460Y0099347D01*
X0119481Y0099386D01*
X0119505Y0099423D01*
X0119532Y0099458D01*
X0119562Y0099490D01*
X0119595Y0099520D01*
X0119631Y0099546D01*
X0119668Y0099570D01*
X0119708Y0099589D01*
X0119749Y0099606D01*
X0119792Y0099618D01*
X0119835Y0099627D01*
X0119879Y0099632D01*
X0119923Y0099633D01*
X0119967Y0099630D01*
X0120011Y0099623D01*
X0120054Y0099612D01*
X0120096Y0099598D01*
X0120136Y0099580D01*
X0120175Y0099558D01*
X0120211Y0099534D01*
X0120245Y0099506D01*
X0120277Y0099475D01*
X0120306Y0099441D01*
X0120332Y0099405D01*
X0120354Y0099367D01*
X0120373Y0099327D01*
X0120388Y0099285D01*
X0120400Y0099243D01*
X0120408Y0099199D01*
X0120412Y0099155D01*
X0120412Y0099111D01*
X0120408Y0099067D01*
X0120400Y0099023D01*
X0120388Y0098981D01*
X0120373Y0098939D01*
X0120354Y0098899D01*
X0120332Y0098861D01*
X0120306Y0098825D01*
X0120277Y0098791D01*
X0120245Y0098760D01*
X0120211Y0098732D01*
X0120175Y0098708D01*
X0120136Y0098686D01*
X0120096Y0098668D01*
X0120054Y0098654D01*
X0120011Y0098643D01*
X0119967Y0098636D01*
X0119923Y0098633D01*
X0119879Y0098634D01*
X0119835Y0098639D01*
X0119792Y0098648D01*
X0119749Y0098660D01*
X0119708Y0098677D01*
X0119668Y0098696D01*
X0119631Y0098720D01*
X0119595Y0098746D01*
X0119562Y0098776D01*
X0119532Y0098808D01*
X0119505Y0098843D01*
X0119481Y0098880D01*
X0119460Y0098919D01*
X0119443Y0098960D01*
X0119430Y0099002D01*
X0119420Y0099045D01*
X0119414Y0099089D01*
X0119412Y0099133D01*
X0079662Y0095133D02*
X0071662Y0095133D01*
D14*
X0069900Y0123452D02*
X0069900Y0125814D01*
X0074624Y0125814D02*
X0074624Y0123452D01*
X0249900Y0061214D02*
X0249900Y0058852D01*
X0254624Y0058852D02*
X0254624Y0061214D01*
X0257100Y0061314D02*
X0257100Y0058952D01*
X0261824Y0058952D02*
X0261824Y0061314D01*
X0203343Y0054495D02*
X0200981Y0054495D01*
X0200981Y0049771D02*
X0203343Y0049771D01*
X0376981Y0082771D02*
X0379343Y0082771D01*
X0379343Y0087495D02*
X0376981Y0087495D01*
X0368724Y0117952D02*
X0368724Y0120314D01*
X0364000Y0120314D02*
X0364000Y0117952D01*
D15*
X0479662Y0078633D02*
X0479664Y0078794D01*
X0479670Y0078954D01*
X0479680Y0079115D01*
X0479694Y0079275D01*
X0479712Y0079435D01*
X0479733Y0079594D01*
X0479759Y0079753D01*
X0479789Y0079911D01*
X0479822Y0080068D01*
X0479860Y0080225D01*
X0479901Y0080380D01*
X0479946Y0080534D01*
X0479995Y0080687D01*
X0480048Y0080839D01*
X0480104Y0080990D01*
X0480165Y0081139D01*
X0480228Y0081287D01*
X0480296Y0081433D01*
X0480367Y0081577D01*
X0480441Y0081719D01*
X0480519Y0081860D01*
X0480601Y0081998D01*
X0480686Y0082135D01*
X0480774Y0082269D01*
X0480866Y0082401D01*
X0480961Y0082531D01*
X0481059Y0082659D01*
X0481160Y0082784D01*
X0481264Y0082906D01*
X0481371Y0083026D01*
X0481481Y0083143D01*
X0481594Y0083258D01*
X0481710Y0083369D01*
X0481829Y0083478D01*
X0481950Y0083583D01*
X0482074Y0083686D01*
X0482200Y0083786D01*
X0482328Y0083882D01*
X0482459Y0083975D01*
X0482593Y0084065D01*
X0482728Y0084152D01*
X0482866Y0084235D01*
X0483005Y0084315D01*
X0483147Y0084391D01*
X0483290Y0084464D01*
X0483435Y0084533D01*
X0483582Y0084599D01*
X0483730Y0084661D01*
X0483880Y0084719D01*
X0484031Y0084774D01*
X0484184Y0084825D01*
X0484338Y0084872D01*
X0484493Y0084915D01*
X0484649Y0084954D01*
X0484805Y0084990D01*
X0484963Y0085021D01*
X0485121Y0085049D01*
X0485280Y0085073D01*
X0485440Y0085093D01*
X0485600Y0085109D01*
X0485760Y0085121D01*
X0485921Y0085129D01*
X0486082Y0085133D01*
X0486242Y0085133D01*
X0486403Y0085129D01*
X0486564Y0085121D01*
X0486724Y0085109D01*
X0486884Y0085093D01*
X0487044Y0085073D01*
X0487203Y0085049D01*
X0487361Y0085021D01*
X0487519Y0084990D01*
X0487675Y0084954D01*
X0487831Y0084915D01*
X0487986Y0084872D01*
X0488140Y0084825D01*
X0488293Y0084774D01*
X0488444Y0084719D01*
X0488594Y0084661D01*
X0488742Y0084599D01*
X0488889Y0084533D01*
X0489034Y0084464D01*
X0489177Y0084391D01*
X0489319Y0084315D01*
X0489458Y0084235D01*
X0489596Y0084152D01*
X0489731Y0084065D01*
X0489865Y0083975D01*
X0489996Y0083882D01*
X0490124Y0083786D01*
X0490250Y0083686D01*
X0490374Y0083583D01*
X0490495Y0083478D01*
X0490614Y0083369D01*
X0490730Y0083258D01*
X0490843Y0083143D01*
X0490953Y0083026D01*
X0491060Y0082906D01*
X0491164Y0082784D01*
X0491265Y0082659D01*
X0491363Y0082531D01*
X0491458Y0082401D01*
X0491550Y0082269D01*
X0491638Y0082135D01*
X0491723Y0081998D01*
X0491805Y0081860D01*
X0491883Y0081719D01*
X0491957Y0081577D01*
X0492028Y0081433D01*
X0492096Y0081287D01*
X0492159Y0081139D01*
X0492220Y0080990D01*
X0492276Y0080839D01*
X0492329Y0080687D01*
X0492378Y0080534D01*
X0492423Y0080380D01*
X0492464Y0080225D01*
X0492502Y0080068D01*
X0492535Y0079911D01*
X0492565Y0079753D01*
X0492591Y0079594D01*
X0492612Y0079435D01*
X0492630Y0079275D01*
X0492644Y0079115D01*
X0492654Y0078954D01*
X0492660Y0078794D01*
X0492662Y0078633D01*
X0492660Y0078472D01*
X0492654Y0078312D01*
X0492644Y0078151D01*
X0492630Y0077991D01*
X0492612Y0077831D01*
X0492591Y0077672D01*
X0492565Y0077513D01*
X0492535Y0077355D01*
X0492502Y0077198D01*
X0492464Y0077041D01*
X0492423Y0076886D01*
X0492378Y0076732D01*
X0492329Y0076579D01*
X0492276Y0076427D01*
X0492220Y0076276D01*
X0492159Y0076127D01*
X0492096Y0075979D01*
X0492028Y0075833D01*
X0491957Y0075689D01*
X0491883Y0075547D01*
X0491805Y0075406D01*
X0491723Y0075268D01*
X0491638Y0075131D01*
X0491550Y0074997D01*
X0491458Y0074865D01*
X0491363Y0074735D01*
X0491265Y0074607D01*
X0491164Y0074482D01*
X0491060Y0074360D01*
X0490953Y0074240D01*
X0490843Y0074123D01*
X0490730Y0074008D01*
X0490614Y0073897D01*
X0490495Y0073788D01*
X0490374Y0073683D01*
X0490250Y0073580D01*
X0490124Y0073480D01*
X0489996Y0073384D01*
X0489865Y0073291D01*
X0489731Y0073201D01*
X0489596Y0073114D01*
X0489458Y0073031D01*
X0489319Y0072951D01*
X0489177Y0072875D01*
X0489034Y0072802D01*
X0488889Y0072733D01*
X0488742Y0072667D01*
X0488594Y0072605D01*
X0488444Y0072547D01*
X0488293Y0072492D01*
X0488140Y0072441D01*
X0487986Y0072394D01*
X0487831Y0072351D01*
X0487675Y0072312D01*
X0487519Y0072276D01*
X0487361Y0072245D01*
X0487203Y0072217D01*
X0487044Y0072193D01*
X0486884Y0072173D01*
X0486724Y0072157D01*
X0486564Y0072145D01*
X0486403Y0072137D01*
X0486242Y0072133D01*
X0486082Y0072133D01*
X0485921Y0072137D01*
X0485760Y0072145D01*
X0485600Y0072157D01*
X0485440Y0072173D01*
X0485280Y0072193D01*
X0485121Y0072217D01*
X0484963Y0072245D01*
X0484805Y0072276D01*
X0484649Y0072312D01*
X0484493Y0072351D01*
X0484338Y0072394D01*
X0484184Y0072441D01*
X0484031Y0072492D01*
X0483880Y0072547D01*
X0483730Y0072605D01*
X0483582Y0072667D01*
X0483435Y0072733D01*
X0483290Y0072802D01*
X0483147Y0072875D01*
X0483005Y0072951D01*
X0482866Y0073031D01*
X0482728Y0073114D01*
X0482593Y0073201D01*
X0482459Y0073291D01*
X0482328Y0073384D01*
X0482200Y0073480D01*
X0482074Y0073580D01*
X0481950Y0073683D01*
X0481829Y0073788D01*
X0481710Y0073897D01*
X0481594Y0074008D01*
X0481481Y0074123D01*
X0481371Y0074240D01*
X0481264Y0074360D01*
X0481160Y0074482D01*
X0481059Y0074607D01*
X0480961Y0074735D01*
X0480866Y0074865D01*
X0480774Y0074997D01*
X0480686Y0075131D01*
X0480601Y0075268D01*
X0480519Y0075406D01*
X0480441Y0075547D01*
X0480367Y0075689D01*
X0480296Y0075833D01*
X0480228Y0075979D01*
X0480165Y0076127D01*
X0480104Y0076276D01*
X0480048Y0076427D01*
X0479995Y0076579D01*
X0479946Y0076732D01*
X0479901Y0076886D01*
X0479860Y0077041D01*
X0479822Y0077198D01*
X0479789Y0077355D01*
X0479759Y0077513D01*
X0479733Y0077672D01*
X0479712Y0077831D01*
X0479694Y0077991D01*
X0479680Y0078151D01*
X0479670Y0078312D01*
X0479664Y0078472D01*
X0479662Y0078633D01*
X0065162Y0153133D02*
X0065164Y0153294D01*
X0065170Y0153454D01*
X0065180Y0153615D01*
X0065194Y0153775D01*
X0065212Y0153935D01*
X0065233Y0154094D01*
X0065259Y0154253D01*
X0065289Y0154411D01*
X0065322Y0154568D01*
X0065360Y0154725D01*
X0065401Y0154880D01*
X0065446Y0155034D01*
X0065495Y0155187D01*
X0065548Y0155339D01*
X0065604Y0155490D01*
X0065665Y0155639D01*
X0065728Y0155787D01*
X0065796Y0155933D01*
X0065867Y0156077D01*
X0065941Y0156219D01*
X0066019Y0156360D01*
X0066101Y0156498D01*
X0066186Y0156635D01*
X0066274Y0156769D01*
X0066366Y0156901D01*
X0066461Y0157031D01*
X0066559Y0157159D01*
X0066660Y0157284D01*
X0066764Y0157406D01*
X0066871Y0157526D01*
X0066981Y0157643D01*
X0067094Y0157758D01*
X0067210Y0157869D01*
X0067329Y0157978D01*
X0067450Y0158083D01*
X0067574Y0158186D01*
X0067700Y0158286D01*
X0067828Y0158382D01*
X0067959Y0158475D01*
X0068093Y0158565D01*
X0068228Y0158652D01*
X0068366Y0158735D01*
X0068505Y0158815D01*
X0068647Y0158891D01*
X0068790Y0158964D01*
X0068935Y0159033D01*
X0069082Y0159099D01*
X0069230Y0159161D01*
X0069380Y0159219D01*
X0069531Y0159274D01*
X0069684Y0159325D01*
X0069838Y0159372D01*
X0069993Y0159415D01*
X0070149Y0159454D01*
X0070305Y0159490D01*
X0070463Y0159521D01*
X0070621Y0159549D01*
X0070780Y0159573D01*
X0070940Y0159593D01*
X0071100Y0159609D01*
X0071260Y0159621D01*
X0071421Y0159629D01*
X0071582Y0159633D01*
X0071742Y0159633D01*
X0071903Y0159629D01*
X0072064Y0159621D01*
X0072224Y0159609D01*
X0072384Y0159593D01*
X0072544Y0159573D01*
X0072703Y0159549D01*
X0072861Y0159521D01*
X0073019Y0159490D01*
X0073175Y0159454D01*
X0073331Y0159415D01*
X0073486Y0159372D01*
X0073640Y0159325D01*
X0073793Y0159274D01*
X0073944Y0159219D01*
X0074094Y0159161D01*
X0074242Y0159099D01*
X0074389Y0159033D01*
X0074534Y0158964D01*
X0074677Y0158891D01*
X0074819Y0158815D01*
X0074958Y0158735D01*
X0075096Y0158652D01*
X0075231Y0158565D01*
X0075365Y0158475D01*
X0075496Y0158382D01*
X0075624Y0158286D01*
X0075750Y0158186D01*
X0075874Y0158083D01*
X0075995Y0157978D01*
X0076114Y0157869D01*
X0076230Y0157758D01*
X0076343Y0157643D01*
X0076453Y0157526D01*
X0076560Y0157406D01*
X0076664Y0157284D01*
X0076765Y0157159D01*
X0076863Y0157031D01*
X0076958Y0156901D01*
X0077050Y0156769D01*
X0077138Y0156635D01*
X0077223Y0156498D01*
X0077305Y0156360D01*
X0077383Y0156219D01*
X0077457Y0156077D01*
X0077528Y0155933D01*
X0077596Y0155787D01*
X0077659Y0155639D01*
X0077720Y0155490D01*
X0077776Y0155339D01*
X0077829Y0155187D01*
X0077878Y0155034D01*
X0077923Y0154880D01*
X0077964Y0154725D01*
X0078002Y0154568D01*
X0078035Y0154411D01*
X0078065Y0154253D01*
X0078091Y0154094D01*
X0078112Y0153935D01*
X0078130Y0153775D01*
X0078144Y0153615D01*
X0078154Y0153454D01*
X0078160Y0153294D01*
X0078162Y0153133D01*
X0078160Y0152972D01*
X0078154Y0152812D01*
X0078144Y0152651D01*
X0078130Y0152491D01*
X0078112Y0152331D01*
X0078091Y0152172D01*
X0078065Y0152013D01*
X0078035Y0151855D01*
X0078002Y0151698D01*
X0077964Y0151541D01*
X0077923Y0151386D01*
X0077878Y0151232D01*
X0077829Y0151079D01*
X0077776Y0150927D01*
X0077720Y0150776D01*
X0077659Y0150627D01*
X0077596Y0150479D01*
X0077528Y0150333D01*
X0077457Y0150189D01*
X0077383Y0150047D01*
X0077305Y0149906D01*
X0077223Y0149768D01*
X0077138Y0149631D01*
X0077050Y0149497D01*
X0076958Y0149365D01*
X0076863Y0149235D01*
X0076765Y0149107D01*
X0076664Y0148982D01*
X0076560Y0148860D01*
X0076453Y0148740D01*
X0076343Y0148623D01*
X0076230Y0148508D01*
X0076114Y0148397D01*
X0075995Y0148288D01*
X0075874Y0148183D01*
X0075750Y0148080D01*
X0075624Y0147980D01*
X0075496Y0147884D01*
X0075365Y0147791D01*
X0075231Y0147701D01*
X0075096Y0147614D01*
X0074958Y0147531D01*
X0074819Y0147451D01*
X0074677Y0147375D01*
X0074534Y0147302D01*
X0074389Y0147233D01*
X0074242Y0147167D01*
X0074094Y0147105D01*
X0073944Y0147047D01*
X0073793Y0146992D01*
X0073640Y0146941D01*
X0073486Y0146894D01*
X0073331Y0146851D01*
X0073175Y0146812D01*
X0073019Y0146776D01*
X0072861Y0146745D01*
X0072703Y0146717D01*
X0072544Y0146693D01*
X0072384Y0146673D01*
X0072224Y0146657D01*
X0072064Y0146645D01*
X0071903Y0146637D01*
X0071742Y0146633D01*
X0071582Y0146633D01*
X0071421Y0146637D01*
X0071260Y0146645D01*
X0071100Y0146657D01*
X0070940Y0146673D01*
X0070780Y0146693D01*
X0070621Y0146717D01*
X0070463Y0146745D01*
X0070305Y0146776D01*
X0070149Y0146812D01*
X0069993Y0146851D01*
X0069838Y0146894D01*
X0069684Y0146941D01*
X0069531Y0146992D01*
X0069380Y0147047D01*
X0069230Y0147105D01*
X0069082Y0147167D01*
X0068935Y0147233D01*
X0068790Y0147302D01*
X0068647Y0147375D01*
X0068505Y0147451D01*
X0068366Y0147531D01*
X0068228Y0147614D01*
X0068093Y0147701D01*
X0067959Y0147791D01*
X0067828Y0147884D01*
X0067700Y0147980D01*
X0067574Y0148080D01*
X0067450Y0148183D01*
X0067329Y0148288D01*
X0067210Y0148397D01*
X0067094Y0148508D01*
X0066981Y0148623D01*
X0066871Y0148740D01*
X0066764Y0148860D01*
X0066660Y0148982D01*
X0066559Y0149107D01*
X0066461Y0149235D01*
X0066366Y0149365D01*
X0066274Y0149497D01*
X0066186Y0149631D01*
X0066101Y0149768D01*
X0066019Y0149906D01*
X0065941Y0150047D01*
X0065867Y0150189D01*
X0065796Y0150333D01*
X0065728Y0150479D01*
X0065665Y0150627D01*
X0065604Y0150776D01*
X0065548Y0150927D01*
X0065495Y0151079D01*
X0065446Y0151232D01*
X0065401Y0151386D01*
X0065360Y0151541D01*
X0065322Y0151698D01*
X0065289Y0151855D01*
X0065259Y0152013D01*
X0065233Y0152172D01*
X0065212Y0152331D01*
X0065194Y0152491D01*
X0065180Y0152651D01*
X0065170Y0152812D01*
X0065164Y0152972D01*
X0065162Y0153133D01*
X0054162Y0048533D02*
X0054164Y0048694D01*
X0054170Y0048854D01*
X0054180Y0049015D01*
X0054194Y0049175D01*
X0054212Y0049335D01*
X0054233Y0049494D01*
X0054259Y0049653D01*
X0054289Y0049811D01*
X0054322Y0049968D01*
X0054360Y0050125D01*
X0054401Y0050280D01*
X0054446Y0050434D01*
X0054495Y0050587D01*
X0054548Y0050739D01*
X0054604Y0050890D01*
X0054665Y0051039D01*
X0054728Y0051187D01*
X0054796Y0051333D01*
X0054867Y0051477D01*
X0054941Y0051619D01*
X0055019Y0051760D01*
X0055101Y0051898D01*
X0055186Y0052035D01*
X0055274Y0052169D01*
X0055366Y0052301D01*
X0055461Y0052431D01*
X0055559Y0052559D01*
X0055660Y0052684D01*
X0055764Y0052806D01*
X0055871Y0052926D01*
X0055981Y0053043D01*
X0056094Y0053158D01*
X0056210Y0053269D01*
X0056329Y0053378D01*
X0056450Y0053483D01*
X0056574Y0053586D01*
X0056700Y0053686D01*
X0056828Y0053782D01*
X0056959Y0053875D01*
X0057093Y0053965D01*
X0057228Y0054052D01*
X0057366Y0054135D01*
X0057505Y0054215D01*
X0057647Y0054291D01*
X0057790Y0054364D01*
X0057935Y0054433D01*
X0058082Y0054499D01*
X0058230Y0054561D01*
X0058380Y0054619D01*
X0058531Y0054674D01*
X0058684Y0054725D01*
X0058838Y0054772D01*
X0058993Y0054815D01*
X0059149Y0054854D01*
X0059305Y0054890D01*
X0059463Y0054921D01*
X0059621Y0054949D01*
X0059780Y0054973D01*
X0059940Y0054993D01*
X0060100Y0055009D01*
X0060260Y0055021D01*
X0060421Y0055029D01*
X0060582Y0055033D01*
X0060742Y0055033D01*
X0060903Y0055029D01*
X0061064Y0055021D01*
X0061224Y0055009D01*
X0061384Y0054993D01*
X0061544Y0054973D01*
X0061703Y0054949D01*
X0061861Y0054921D01*
X0062019Y0054890D01*
X0062175Y0054854D01*
X0062331Y0054815D01*
X0062486Y0054772D01*
X0062640Y0054725D01*
X0062793Y0054674D01*
X0062944Y0054619D01*
X0063094Y0054561D01*
X0063242Y0054499D01*
X0063389Y0054433D01*
X0063534Y0054364D01*
X0063677Y0054291D01*
X0063819Y0054215D01*
X0063958Y0054135D01*
X0064096Y0054052D01*
X0064231Y0053965D01*
X0064365Y0053875D01*
X0064496Y0053782D01*
X0064624Y0053686D01*
X0064750Y0053586D01*
X0064874Y0053483D01*
X0064995Y0053378D01*
X0065114Y0053269D01*
X0065230Y0053158D01*
X0065343Y0053043D01*
X0065453Y0052926D01*
X0065560Y0052806D01*
X0065664Y0052684D01*
X0065765Y0052559D01*
X0065863Y0052431D01*
X0065958Y0052301D01*
X0066050Y0052169D01*
X0066138Y0052035D01*
X0066223Y0051898D01*
X0066305Y0051760D01*
X0066383Y0051619D01*
X0066457Y0051477D01*
X0066528Y0051333D01*
X0066596Y0051187D01*
X0066659Y0051039D01*
X0066720Y0050890D01*
X0066776Y0050739D01*
X0066829Y0050587D01*
X0066878Y0050434D01*
X0066923Y0050280D01*
X0066964Y0050125D01*
X0067002Y0049968D01*
X0067035Y0049811D01*
X0067065Y0049653D01*
X0067091Y0049494D01*
X0067112Y0049335D01*
X0067130Y0049175D01*
X0067144Y0049015D01*
X0067154Y0048854D01*
X0067160Y0048694D01*
X0067162Y0048533D01*
X0067160Y0048372D01*
X0067154Y0048212D01*
X0067144Y0048051D01*
X0067130Y0047891D01*
X0067112Y0047731D01*
X0067091Y0047572D01*
X0067065Y0047413D01*
X0067035Y0047255D01*
X0067002Y0047098D01*
X0066964Y0046941D01*
X0066923Y0046786D01*
X0066878Y0046632D01*
X0066829Y0046479D01*
X0066776Y0046327D01*
X0066720Y0046176D01*
X0066659Y0046027D01*
X0066596Y0045879D01*
X0066528Y0045733D01*
X0066457Y0045589D01*
X0066383Y0045447D01*
X0066305Y0045306D01*
X0066223Y0045168D01*
X0066138Y0045031D01*
X0066050Y0044897D01*
X0065958Y0044765D01*
X0065863Y0044635D01*
X0065765Y0044507D01*
X0065664Y0044382D01*
X0065560Y0044260D01*
X0065453Y0044140D01*
X0065343Y0044023D01*
X0065230Y0043908D01*
X0065114Y0043797D01*
X0064995Y0043688D01*
X0064874Y0043583D01*
X0064750Y0043480D01*
X0064624Y0043380D01*
X0064496Y0043284D01*
X0064365Y0043191D01*
X0064231Y0043101D01*
X0064096Y0043014D01*
X0063958Y0042931D01*
X0063819Y0042851D01*
X0063677Y0042775D01*
X0063534Y0042702D01*
X0063389Y0042633D01*
X0063242Y0042567D01*
X0063094Y0042505D01*
X0062944Y0042447D01*
X0062793Y0042392D01*
X0062640Y0042341D01*
X0062486Y0042294D01*
X0062331Y0042251D01*
X0062175Y0042212D01*
X0062019Y0042176D01*
X0061861Y0042145D01*
X0061703Y0042117D01*
X0061544Y0042093D01*
X0061384Y0042073D01*
X0061224Y0042057D01*
X0061064Y0042045D01*
X0060903Y0042037D01*
X0060742Y0042033D01*
X0060582Y0042033D01*
X0060421Y0042037D01*
X0060260Y0042045D01*
X0060100Y0042057D01*
X0059940Y0042073D01*
X0059780Y0042093D01*
X0059621Y0042117D01*
X0059463Y0042145D01*
X0059305Y0042176D01*
X0059149Y0042212D01*
X0058993Y0042251D01*
X0058838Y0042294D01*
X0058684Y0042341D01*
X0058531Y0042392D01*
X0058380Y0042447D01*
X0058230Y0042505D01*
X0058082Y0042567D01*
X0057935Y0042633D01*
X0057790Y0042702D01*
X0057647Y0042775D01*
X0057505Y0042851D01*
X0057366Y0042931D01*
X0057228Y0043014D01*
X0057093Y0043101D01*
X0056959Y0043191D01*
X0056828Y0043284D01*
X0056700Y0043380D01*
X0056574Y0043480D01*
X0056450Y0043583D01*
X0056329Y0043688D01*
X0056210Y0043797D01*
X0056094Y0043908D01*
X0055981Y0044023D01*
X0055871Y0044140D01*
X0055764Y0044260D01*
X0055660Y0044382D01*
X0055559Y0044507D01*
X0055461Y0044635D01*
X0055366Y0044765D01*
X0055274Y0044897D01*
X0055186Y0045031D01*
X0055101Y0045168D01*
X0055019Y0045306D01*
X0054941Y0045447D01*
X0054867Y0045589D01*
X0054796Y0045733D01*
X0054728Y0045879D01*
X0054665Y0046027D01*
X0054604Y0046176D01*
X0054548Y0046327D01*
X0054495Y0046479D01*
X0054446Y0046632D01*
X0054401Y0046786D01*
X0054360Y0046941D01*
X0054322Y0047098D01*
X0054289Y0047255D01*
X0054259Y0047413D01*
X0054233Y0047572D01*
X0054212Y0047731D01*
X0054194Y0047891D01*
X0054180Y0048051D01*
X0054170Y0048212D01*
X0054164Y0048372D01*
X0054162Y0048533D01*
D16*
X0323812Y0093437D02*
X0323812Y0094187D01*
X0324062Y0094437D01*
X0325063Y0094437D01*
X0325313Y0094187D01*
X0325313Y0093437D01*
X0323812Y0093437D01*
X0324062Y0094910D02*
X0323812Y0095160D01*
X0323812Y0095660D01*
X0324062Y0095911D01*
X0324312Y0095911D01*
X0324562Y0095660D01*
X0324562Y0095410D01*
X0324562Y0095660D02*
X0324813Y0095911D01*
X0325063Y0095911D01*
X0325313Y0095660D01*
X0325313Y0095160D01*
X0325063Y0094910D01*
M02*
