G75*
%MOIN*%
%OFA0B0*%
%FSLAX25Y25*%
%IPPOS*%
%LPD*%
%AMOC8*
5,1,8,0,0,1.08239X$1,22.5*
%
%ADD10C,0.06400*%
%ADD11R,0.06299X0.03150*%
%ADD12R,0.03150X0.06299*%
%ADD13R,0.06337X0.06337*%
%ADD14C,0.07000*%
%ADD15R,0.05906X0.01969*%
%ADD16R,0.01969X0.05906*%
%ADD17R,0.04724X0.03150*%
%ADD18R,0.02165X0.04724*%
%ADD19R,0.03150X0.04724*%
%ADD20R,0.02953X0.01575*%
%ADD21R,0.02953X0.01969*%
%ADD22R,0.04724X0.02165*%
%ADD23R,0.08700X0.02400*%
%ADD24R,0.11811X0.06299*%
%ADD25R,0.22500X0.19000*%
%ADD26R,0.03150X0.03543*%
%ADD27R,0.04724X0.04724*%
%ADD28R,0.05787X0.05000*%
%ADD29R,0.05512X0.05512*%
%ADD30R,0.07480X0.06299*%
%ADD31R,0.01600X0.03200*%
%ADD32R,0.03937X0.04331*%
%ADD33C,0.06731*%
%ADD34C,0.01600*%
%ADD35C,0.04000*%
%ADD36C,0.01200*%
%ADD37C,0.03969*%
%ADD38C,0.02400*%
%ADD39C,0.03200*%
%ADD40C,0.01000*%
%ADD41C,0.03200*%
%ADD42C,0.04362*%
D10*
X0172300Y0140600D02*
X0172300Y0147000D01*
X0182300Y0148000D02*
X0182300Y0141600D01*
X0192300Y0140600D02*
X0192300Y0147000D01*
X0202300Y0148000D02*
X0202300Y0141600D01*
X0212300Y0140600D02*
X0212300Y0147000D01*
D11*
X0079784Y0212816D03*
X0079784Y0217540D03*
X0079784Y0222265D03*
X0079784Y0226989D03*
X0079784Y0231713D03*
X0079784Y0236438D03*
X0079784Y0241162D03*
X0079784Y0245887D03*
X0079784Y0250611D03*
X0079784Y0255335D03*
X0079784Y0260060D03*
X0079784Y0264784D03*
X0027816Y0264784D03*
X0027816Y0260060D03*
X0027816Y0255335D03*
X0027816Y0250611D03*
X0027816Y0245887D03*
X0027816Y0241162D03*
X0027816Y0236438D03*
X0027816Y0231713D03*
X0027816Y0226989D03*
X0027816Y0222265D03*
X0027816Y0217540D03*
X0027816Y0212816D03*
D12*
X0037571Y0201792D03*
X0041595Y0201792D03*
X0046320Y0201792D03*
X0051044Y0201792D03*
X0056556Y0201792D03*
X0061280Y0201792D03*
X0066005Y0201792D03*
X0070029Y0201792D03*
D13*
X0138300Y0307800D03*
D14*
X0128300Y0307800D03*
X0118300Y0307800D03*
X0108300Y0307800D03*
X0098300Y0307800D03*
X0088300Y0307800D03*
D15*
X0115965Y0214548D03*
X0115965Y0211398D03*
X0115965Y0208249D03*
X0115965Y0205099D03*
X0115965Y0201950D03*
X0115965Y0198800D03*
X0115965Y0195650D03*
X0115965Y0192501D03*
X0115965Y0189351D03*
X0115965Y0186202D03*
X0115965Y0183052D03*
X0161635Y0183052D03*
X0161635Y0186202D03*
X0161635Y0189351D03*
X0161635Y0192501D03*
X0161635Y0195650D03*
X0161635Y0198800D03*
X0161635Y0201950D03*
X0161635Y0205099D03*
X0161635Y0208249D03*
X0161635Y0211398D03*
X0161635Y0214548D03*
D16*
X0154548Y0221635D03*
X0151398Y0221635D03*
X0148249Y0221635D03*
X0145099Y0221635D03*
X0141950Y0221635D03*
X0138800Y0221635D03*
X0135650Y0221635D03*
X0132501Y0221635D03*
X0129351Y0221635D03*
X0126202Y0221635D03*
X0123052Y0221635D03*
X0123052Y0175965D03*
X0126202Y0175965D03*
X0129351Y0175965D03*
X0132501Y0175965D03*
X0135650Y0175965D03*
X0138800Y0175965D03*
X0141950Y0175965D03*
X0145099Y0175965D03*
X0148249Y0175965D03*
X0151398Y0175965D03*
X0154548Y0175965D03*
D17*
X0160800Y0171843D03*
X0160800Y0164757D03*
X0139800Y0151843D03*
X0139800Y0144757D03*
X0085800Y0112343D03*
X0079050Y0112593D03*
X0079050Y0105507D03*
X0085800Y0105257D03*
X0069800Y0104507D03*
X0069800Y0111593D03*
X0060800Y0111593D03*
X0060800Y0104507D03*
X0049800Y0107093D03*
X0049800Y0100007D03*
X0135800Y0230257D03*
X0135800Y0237343D03*
X0143800Y0237343D03*
X0143800Y0230257D03*
X0167800Y0254257D03*
X0167800Y0261343D03*
X0174800Y0261093D03*
X0174800Y0254007D03*
X0111800Y0251757D03*
X0111800Y0258843D03*
X0250300Y0162843D03*
X0250300Y0155757D03*
X0279800Y0155757D03*
X0279800Y0162843D03*
D18*
X0126040Y0142419D03*
X0118560Y0142419D03*
X0118560Y0132181D03*
X0122300Y0132181D03*
X0126040Y0132181D03*
D19*
X0126843Y0123300D03*
X0119757Y0123300D03*
X0128257Y0110800D03*
X0135343Y0110800D03*
X0135343Y0103550D03*
X0128257Y0103550D03*
X0257257Y0195800D03*
X0264343Y0195800D03*
X0267843Y0166800D03*
X0260757Y0166800D03*
X0257257Y0249300D03*
X0264343Y0249300D03*
X0273757Y0284800D03*
X0280843Y0284800D03*
X0110593Y0241050D03*
X0103507Y0241050D03*
X0098843Y0259800D03*
X0091757Y0259800D03*
D20*
X0173257Y0195875D03*
X0173257Y0192725D03*
X0180146Y0192725D03*
X0180146Y0195875D03*
D21*
X0180146Y0199221D03*
X0173257Y0199221D03*
X0173257Y0189379D03*
X0180146Y0189379D03*
D22*
X0192682Y0190040D03*
X0192682Y0186300D03*
X0192682Y0182560D03*
X0192682Y0175040D03*
X0192682Y0171300D03*
X0192682Y0167560D03*
X0202918Y0167560D03*
X0202918Y0171300D03*
X0202918Y0175040D03*
X0202918Y0182560D03*
X0202918Y0186300D03*
X0202918Y0190040D03*
X0202918Y0198060D03*
X0202918Y0201800D03*
X0202918Y0205540D03*
X0203418Y0215560D03*
X0203418Y0219300D03*
X0203418Y0223040D03*
X0193182Y0223040D03*
X0193182Y0219300D03*
X0193182Y0215560D03*
X0192682Y0205540D03*
X0192682Y0201800D03*
X0192682Y0198060D03*
X0196182Y0262560D03*
X0196182Y0266300D03*
X0196182Y0270040D03*
X0206418Y0270040D03*
X0206418Y0266300D03*
X0206418Y0262560D03*
X0205918Y0283060D03*
X0205918Y0286800D03*
X0205918Y0290540D03*
X0195682Y0290540D03*
X0195682Y0286800D03*
X0195682Y0283060D03*
D23*
X0049850Y0126550D03*
X0049850Y0121550D03*
X0049850Y0116550D03*
X0049850Y0111550D03*
X0029250Y0111550D03*
X0029250Y0116550D03*
X0029250Y0121550D03*
X0029250Y0126550D03*
D24*
X0248394Y0223324D03*
X0248394Y0241276D03*
X0248394Y0257324D03*
X0248394Y0275276D03*
X0247394Y0292824D03*
X0247394Y0310776D03*
D25*
X0274552Y0301800D03*
X0275552Y0266300D03*
X0275552Y0232300D03*
D26*
X0130290Y0254113D03*
X0126550Y0262381D03*
X0122810Y0254113D03*
D27*
X0101934Y0251800D03*
X0093666Y0251800D03*
X0089666Y0241050D03*
X0097934Y0241050D03*
X0167800Y0173434D03*
X0167800Y0165166D03*
X0085550Y0127184D03*
X0079050Y0127184D03*
X0079050Y0118916D03*
X0085550Y0118916D03*
X0069800Y0118166D03*
X0069800Y0126434D03*
X0060800Y0125184D03*
X0060800Y0116916D03*
X0258666Y0284800D03*
X0266934Y0284800D03*
X0270166Y0249300D03*
X0278434Y0249300D03*
X0280434Y0196050D03*
X0272166Y0196050D03*
D28*
X0250300Y0188265D03*
X0250300Y0171335D03*
D29*
X0264820Y0183800D03*
X0279780Y0183800D03*
D30*
X0279796Y0204300D03*
X0266804Y0204300D03*
D31*
X0078316Y0184654D03*
X0075757Y0184654D03*
X0073198Y0184654D03*
X0070639Y0184654D03*
X0068080Y0184654D03*
X0065520Y0184654D03*
X0062961Y0184654D03*
X0060402Y0184654D03*
X0057843Y0184654D03*
X0055284Y0184654D03*
X0055284Y0153946D03*
X0057843Y0153946D03*
X0060402Y0153946D03*
X0062961Y0153946D03*
X0065520Y0153946D03*
X0068080Y0153946D03*
X0070639Y0153946D03*
X0073198Y0153946D03*
X0075757Y0153946D03*
X0078316Y0153946D03*
D32*
X0214300Y0160954D03*
X0214300Y0167646D03*
X0219300Y0178454D03*
X0219300Y0185146D03*
X0219300Y0194454D03*
X0219300Y0201146D03*
X0219300Y0209454D03*
X0219300Y0216146D03*
X0216300Y0255954D03*
X0216300Y0262646D03*
X0216800Y0276454D03*
X0216800Y0283146D03*
D33*
X0206725Y0086499D03*
X0206725Y0076656D03*
X0206725Y0066814D03*
X0206725Y0056971D03*
X0192158Y0056971D03*
X0192158Y0066814D03*
X0192158Y0076656D03*
X0192158Y0086499D03*
X0178379Y0086499D03*
X0178379Y0076656D03*
X0178379Y0066814D03*
X0178379Y0056971D03*
X0168536Y0056971D03*
X0158694Y0056971D03*
X0158694Y0066814D03*
X0158694Y0076656D03*
X0168536Y0076656D03*
X0168536Y0066814D03*
X0168536Y0086499D03*
X0158694Y0086499D03*
X0148851Y0086499D03*
X0139009Y0086499D03*
X0139009Y0076656D03*
X0139009Y0066814D03*
X0148851Y0066814D03*
X0148851Y0076656D03*
X0148851Y0056971D03*
X0139009Y0056971D03*
X0129166Y0056971D03*
X0119324Y0056971D03*
X0119324Y0066814D03*
X0119324Y0076656D03*
X0129166Y0076656D03*
X0129166Y0066814D03*
X0129166Y0086499D03*
X0119324Y0086499D03*
X0109481Y0086499D03*
X0099639Y0086499D03*
X0099639Y0076656D03*
X0099639Y0066814D03*
X0109481Y0066814D03*
X0109481Y0076656D03*
X0109481Y0056971D03*
X0099639Y0056971D03*
X0089796Y0056971D03*
X0089796Y0066814D03*
X0089796Y0076656D03*
X0089796Y0086499D03*
D34*
X0010350Y0029100D02*
X0010350Y0315000D01*
X0026237Y0315000D01*
X0026200Y0314963D01*
X0026200Y0268159D01*
X0024429Y0268159D01*
X0023971Y0268036D01*
X0023561Y0267799D01*
X0023226Y0267464D01*
X0022989Y0267054D01*
X0022866Y0266596D01*
X0022866Y0264784D01*
X0022866Y0262972D01*
X0022989Y0262515D01*
X0023097Y0262328D01*
X0023066Y0262297D01*
X0023066Y0257822D01*
X0023191Y0257698D01*
X0023066Y0257573D01*
X0023066Y0253098D01*
X0023191Y0252973D01*
X0023066Y0252849D01*
X0023066Y0248373D01*
X0023191Y0248249D01*
X0023066Y0248124D01*
X0023066Y0243649D01*
X0023191Y0243524D01*
X0023066Y0243400D01*
X0023066Y0238925D01*
X0023191Y0238800D01*
X0023066Y0238675D01*
X0023066Y0234200D01*
X0023191Y0234076D01*
X0023066Y0233951D01*
X0023066Y0229476D01*
X0023191Y0229351D01*
X0023066Y0229227D01*
X0023066Y0224751D01*
X0023191Y0224627D01*
X0023066Y0224502D01*
X0023066Y0220027D01*
X0023191Y0219902D01*
X0023066Y0219778D01*
X0023066Y0215303D01*
X0023097Y0215272D01*
X0022989Y0215085D01*
X0022866Y0214628D01*
X0022866Y0212816D01*
X0027816Y0212816D01*
X0032765Y0212816D01*
X0032765Y0214628D01*
X0032715Y0214816D01*
X0033020Y0214511D01*
X0034337Y0213966D01*
X0035763Y0213966D01*
X0037080Y0214511D01*
X0038089Y0215520D01*
X0038634Y0216837D01*
X0038634Y0218263D01*
X0038089Y0219580D01*
X0037080Y0220589D01*
X0035763Y0221134D01*
X0034337Y0221134D01*
X0033020Y0220589D01*
X0032565Y0220134D01*
X0032565Y0224502D01*
X0032441Y0224627D01*
X0032565Y0224751D01*
X0032565Y0229227D01*
X0032441Y0229351D01*
X0032565Y0229476D01*
X0032565Y0233951D01*
X0032441Y0234076D01*
X0032565Y0234200D01*
X0032565Y0238675D01*
X0032441Y0238800D01*
X0032565Y0238925D01*
X0032565Y0243400D01*
X0032441Y0243524D01*
X0032565Y0243649D01*
X0032565Y0248124D01*
X0032441Y0248249D01*
X0032565Y0248373D01*
X0032565Y0252849D01*
X0032441Y0252973D01*
X0032565Y0253098D01*
X0032565Y0257573D01*
X0032441Y0257698D01*
X0032565Y0257822D01*
X0032565Y0262297D01*
X0032535Y0262328D01*
X0032643Y0262515D01*
X0032765Y0262972D01*
X0032765Y0264784D01*
X0027816Y0264784D01*
X0027816Y0264784D01*
X0032765Y0264784D01*
X0032765Y0266200D01*
X0075035Y0266200D01*
X0075035Y0262547D01*
X0075159Y0262422D01*
X0075035Y0262297D01*
X0075035Y0257822D01*
X0075159Y0257698D01*
X0075035Y0257573D01*
X0075035Y0253098D01*
X0075159Y0252973D01*
X0075035Y0252849D01*
X0075035Y0248373D01*
X0075159Y0248249D01*
X0075035Y0248124D01*
X0075035Y0243649D01*
X0075159Y0243524D01*
X0075035Y0243400D01*
X0075035Y0238925D01*
X0075159Y0238800D01*
X0075035Y0238675D01*
X0075035Y0234200D01*
X0075159Y0234076D01*
X0075035Y0233951D01*
X0075035Y0229476D01*
X0075159Y0229351D01*
X0075035Y0229227D01*
X0075035Y0224751D01*
X0075159Y0224627D01*
X0075035Y0224502D01*
X0075035Y0220027D01*
X0075159Y0219902D01*
X0075035Y0219778D01*
X0075035Y0215303D01*
X0075159Y0215178D01*
X0075035Y0215053D01*
X0075035Y0210578D01*
X0075972Y0209641D01*
X0083597Y0209641D01*
X0084534Y0210578D01*
X0084534Y0210616D01*
X0090004Y0210616D01*
X0089850Y0210461D01*
X0089850Y0191500D01*
X0087711Y0191500D01*
X0084000Y0195211D01*
X0082711Y0196500D01*
X0046139Y0196500D01*
X0041139Y0191500D01*
X0039850Y0190211D01*
X0039850Y0187319D01*
X0039580Y0187589D01*
X0038263Y0188134D01*
X0036837Y0188134D01*
X0035520Y0187589D01*
X0034881Y0186950D01*
X0021323Y0186950D01*
X0020441Y0186585D01*
X0013941Y0180085D01*
X0013265Y0179409D01*
X0012900Y0178527D01*
X0012900Y0103573D01*
X0013265Y0102691D01*
X0015265Y0100691D01*
X0015265Y0100691D01*
X0015941Y0100015D01*
X0016823Y0099650D01*
X0025556Y0099650D01*
X0028700Y0096506D01*
X0028700Y0059334D01*
X0029248Y0058011D01*
X0030261Y0056998D01*
X0045261Y0041998D01*
X0046584Y0041450D01*
X0252016Y0041450D01*
X0253339Y0041998D01*
X0262352Y0051011D01*
X0262900Y0052334D01*
X0262900Y0053766D01*
X0262352Y0055089D01*
X0261339Y0056102D01*
X0260016Y0056650D01*
X0258584Y0056650D01*
X0257261Y0056102D01*
X0249809Y0048650D01*
X0152051Y0048650D01*
X0152051Y0053149D01*
X0153061Y0054159D01*
X0153772Y0055877D01*
X0154484Y0054159D01*
X0155881Y0052762D01*
X0157706Y0052006D01*
X0159681Y0052006D01*
X0161506Y0052762D01*
X0162903Y0054159D01*
X0163615Y0055877D01*
X0164327Y0054159D01*
X0165724Y0052762D01*
X0167549Y0052006D01*
X0169524Y0052006D01*
X0171349Y0052762D01*
X0172746Y0054159D01*
X0173371Y0055668D01*
X0173592Y0054988D01*
X0173961Y0054264D01*
X0174439Y0053606D01*
X0175014Y0053031D01*
X0175671Y0052553D01*
X0176396Y0052184D01*
X0177169Y0051933D01*
X0177972Y0051806D01*
X0178096Y0051806D01*
X0178096Y0056688D01*
X0178661Y0056688D01*
X0178661Y0051806D01*
X0178785Y0051806D01*
X0179588Y0051933D01*
X0180362Y0052184D01*
X0181086Y0052553D01*
X0181744Y0053031D01*
X0182319Y0053606D01*
X0182797Y0054264D01*
X0183166Y0054988D01*
X0183417Y0055762D01*
X0183544Y0056565D01*
X0183544Y0056689D01*
X0178661Y0056689D01*
X0178661Y0057254D01*
X0183544Y0057254D01*
X0183544Y0057378D01*
X0183417Y0058181D01*
X0183166Y0058954D01*
X0182797Y0059678D01*
X0182319Y0060336D01*
X0181744Y0060911D01*
X0181086Y0061389D01*
X0180362Y0061758D01*
X0179682Y0061979D01*
X0181191Y0062604D01*
X0182588Y0064001D01*
X0183344Y0065826D01*
X0183344Y0067801D01*
X0183090Y0068414D01*
X0188113Y0073437D01*
X0188218Y0073291D01*
X0188793Y0072716D01*
X0189451Y0072238D01*
X0190175Y0071869D01*
X0190589Y0071735D01*
X0190175Y0071601D01*
X0189451Y0071232D01*
X0188793Y0070754D01*
X0188218Y0070179D01*
X0187740Y0069521D01*
X0187371Y0068797D01*
X0187120Y0068023D01*
X0186993Y0067220D01*
X0186993Y0067096D01*
X0191876Y0067096D01*
X0191876Y0066531D01*
X0192441Y0066531D01*
X0192441Y0057254D01*
X0191876Y0057254D01*
X0191876Y0062137D01*
X0191876Y0066531D01*
X0186993Y0066531D01*
X0186993Y0066407D01*
X0187120Y0065604D01*
X0187371Y0064831D01*
X0187740Y0064107D01*
X0188218Y0063449D01*
X0188793Y0062874D01*
X0189451Y0062396D01*
X0190175Y0062027D01*
X0190589Y0061893D01*
X0190175Y0061758D01*
X0189451Y0061389D01*
X0188793Y0060911D01*
X0188218Y0060336D01*
X0187740Y0059678D01*
X0187371Y0058954D01*
X0187120Y0058181D01*
X0186993Y0057378D01*
X0186993Y0057254D01*
X0191876Y0057254D01*
X0191876Y0056689D01*
X0191876Y0056688D02*
X0192441Y0056688D01*
X0192441Y0051806D01*
X0192565Y0051806D01*
X0193368Y0051933D01*
X0194141Y0052184D01*
X0194866Y0052553D01*
X0195523Y0053031D01*
X0196098Y0053606D01*
X0196576Y0054264D01*
X0196945Y0054988D01*
X0197196Y0055762D01*
X0197324Y0056565D01*
X0197324Y0056689D01*
X0192441Y0056689D01*
X0192441Y0057254D01*
X0197324Y0057254D01*
X0197324Y0057378D01*
X0197196Y0058181D01*
X0196945Y0058954D01*
X0196576Y0059678D01*
X0196098Y0060336D01*
X0195523Y0060911D01*
X0194866Y0061389D01*
X0194141Y0061758D01*
X0193728Y0061893D01*
X0194141Y0062027D01*
X0194866Y0062396D01*
X0195523Y0062874D01*
X0196098Y0063449D01*
X0196576Y0064107D01*
X0196945Y0064831D01*
X0197196Y0065604D01*
X0197324Y0066407D01*
X0197324Y0066531D01*
X0192441Y0066531D01*
X0192441Y0067096D01*
X0197324Y0067096D01*
X0197324Y0067220D01*
X0197196Y0068023D01*
X0196945Y0068797D01*
X0196576Y0069521D01*
X0196098Y0070179D01*
X0195523Y0070754D01*
X0194866Y0071232D01*
X0194141Y0071601D01*
X0193728Y0071735D01*
X0194141Y0071869D01*
X0194866Y0072238D01*
X0195523Y0072716D01*
X0196098Y0073291D01*
X0196576Y0073949D01*
X0196945Y0074673D01*
X0197196Y0075447D01*
X0197324Y0076250D01*
X0197324Y0076374D01*
X0192441Y0076374D01*
X0192441Y0076939D01*
X0197324Y0076939D01*
X0197324Y0077063D01*
X0197196Y0077866D01*
X0196945Y0078639D01*
X0196576Y0079364D01*
X0196098Y0080021D01*
X0195523Y0080596D01*
X0194866Y0081074D01*
X0194141Y0081443D01*
X0193728Y0081578D01*
X0194141Y0081712D01*
X0194866Y0082081D01*
X0195523Y0082559D01*
X0196098Y0083134D01*
X0196576Y0083792D01*
X0196945Y0084516D01*
X0197196Y0085289D01*
X0197324Y0086092D01*
X0197324Y0086216D01*
X0192441Y0086216D01*
X0192441Y0076939D01*
X0191876Y0076939D01*
X0191876Y0081822D01*
X0191876Y0086216D01*
X0192441Y0086216D01*
X0192441Y0086781D01*
X0197324Y0086781D01*
X0197324Y0086905D01*
X0197196Y0087708D01*
X0196945Y0088482D01*
X0196576Y0089206D01*
X0196098Y0089864D01*
X0195523Y0090439D01*
X0194866Y0090917D01*
X0194141Y0091286D01*
X0193368Y0091537D01*
X0192565Y0091664D01*
X0192441Y0091664D01*
X0192441Y0086782D01*
X0191876Y0086782D01*
X0191876Y0091664D01*
X0191752Y0091664D01*
X0190949Y0091537D01*
X0190175Y0091286D01*
X0189451Y0090917D01*
X0188793Y0090439D01*
X0188500Y0090145D01*
X0188500Y0097139D01*
X0201211Y0109850D01*
X0219211Y0109850D01*
X0220500Y0111139D01*
X0235211Y0125850D01*
X0235211Y0125850D01*
X0236500Y0127139D01*
X0236500Y0204456D01*
X0238265Y0202691D01*
X0238265Y0202691D01*
X0238941Y0202015D01*
X0239823Y0201650D01*
X0246400Y0201650D01*
X0246400Y0192021D01*
X0245806Y0191427D01*
X0245806Y0185102D01*
X0246744Y0184165D01*
X0253856Y0184165D01*
X0254794Y0185102D01*
X0254794Y0191427D01*
X0253856Y0192365D01*
X0251200Y0192365D01*
X0251200Y0204527D01*
X0250835Y0205409D01*
X0250159Y0206085D01*
X0249277Y0206450D01*
X0241294Y0206450D01*
X0238700Y0209044D01*
X0238700Y0228527D01*
X0238335Y0229409D01*
X0237659Y0230085D01*
X0235159Y0232585D01*
X0234277Y0232950D01*
X0203200Y0232950D01*
X0203200Y0260070D01*
X0203393Y0259877D01*
X0209443Y0259877D01*
X0209926Y0260360D01*
X0212731Y0260360D01*
X0212731Y0259818D01*
X0213250Y0259300D01*
X0212731Y0258782D01*
X0212731Y0253125D01*
X0213669Y0252188D01*
X0214254Y0252188D01*
X0214254Y0241572D01*
X0213511Y0240830D01*
X0212966Y0239513D01*
X0212966Y0238087D01*
X0213511Y0236770D01*
X0214520Y0235761D01*
X0215837Y0235216D01*
X0217263Y0235216D01*
X0218580Y0235761D01*
X0219550Y0236731D01*
X0220270Y0236011D01*
X0221587Y0235466D01*
X0223013Y0235466D01*
X0224330Y0236011D01*
X0225339Y0237020D01*
X0225884Y0238337D01*
X0225884Y0239763D01*
X0225339Y0241080D01*
X0224330Y0242089D01*
X0223500Y0242432D01*
X0223500Y0269961D01*
X0222211Y0271250D01*
X0220102Y0273359D01*
X0220368Y0273625D01*
X0220368Y0279282D01*
X0219850Y0279800D01*
X0220368Y0280318D01*
X0220368Y0285975D01*
X0219431Y0286912D01*
X0214169Y0286912D01*
X0213231Y0285975D01*
X0213231Y0285160D01*
X0209994Y0285160D01*
X0210080Y0285480D01*
X0210080Y0286800D01*
X0210080Y0288120D01*
X0209958Y0288577D01*
X0209850Y0288764D01*
X0209880Y0288795D01*
X0209880Y0291118D01*
X0210830Y0291511D01*
X0211839Y0292520D01*
X0212384Y0293837D01*
X0212384Y0295263D01*
X0211839Y0296580D01*
X0210830Y0297589D01*
X0209513Y0298134D01*
X0208087Y0298134D01*
X0206770Y0297589D01*
X0205761Y0296580D01*
X0205216Y0295263D01*
X0205216Y0293837D01*
X0205470Y0293223D01*
X0202893Y0293223D01*
X0201956Y0292286D01*
X0201956Y0288795D01*
X0201986Y0288764D01*
X0201879Y0288577D01*
X0201834Y0288410D01*
X0201409Y0288835D01*
X0200527Y0289200D01*
X0199644Y0289200D01*
X0199644Y0292286D01*
X0198707Y0293223D01*
X0192657Y0293223D01*
X0192074Y0292640D01*
X0167420Y0292640D01*
X0166430Y0291650D01*
X0165200Y0290420D01*
X0165200Y0264518D01*
X0164775Y0264518D01*
X0163838Y0263581D01*
X0163838Y0259106D01*
X0164775Y0258169D01*
X0170825Y0258169D01*
X0171175Y0258519D01*
X0171775Y0257919D01*
X0177825Y0257919D01*
X0178762Y0258856D01*
X0178762Y0263331D01*
X0177825Y0264268D01*
X0176400Y0264268D01*
X0176400Y0266180D01*
X0178160Y0267940D01*
X0192220Y0267940D01*
X0192220Y0265199D01*
X0191830Y0265589D01*
X0190513Y0266134D01*
X0189087Y0266134D01*
X0187770Y0265589D01*
X0186761Y0264580D01*
X0186216Y0263263D01*
X0186216Y0261837D01*
X0186761Y0260520D01*
X0187770Y0259511D01*
X0189087Y0258966D01*
X0190513Y0258966D01*
X0191830Y0259511D01*
X0192676Y0260358D01*
X0193157Y0259877D01*
X0198400Y0259877D01*
X0198400Y0231544D01*
X0197338Y0230482D01*
X0196670Y0231150D01*
X0181269Y0231150D01*
X0180330Y0232089D01*
X0179013Y0232634D01*
X0177587Y0232634D01*
X0176270Y0232089D01*
X0175261Y0231080D01*
X0174716Y0229763D01*
X0174716Y0228337D01*
X0175261Y0227020D01*
X0176270Y0226011D01*
X0177587Y0225466D01*
X0179013Y0225466D01*
X0180330Y0226011D01*
X0181269Y0226950D01*
X0194930Y0226950D01*
X0195400Y0226480D01*
X0195400Y0225723D01*
X0190157Y0225723D01*
X0190084Y0225650D01*
X0181930Y0225650D01*
X0180700Y0224420D01*
X0178046Y0221766D01*
X0178046Y0201805D01*
X0178007Y0201805D01*
X0177070Y0200868D01*
X0177070Y0197574D01*
X0177195Y0197450D01*
X0177070Y0197325D01*
X0177070Y0194425D01*
X0177195Y0194300D01*
X0177070Y0194175D01*
X0177070Y0191275D01*
X0177195Y0191150D01*
X0177070Y0191026D01*
X0177070Y0187732D01*
X0178007Y0186794D01*
X0178046Y0186794D01*
X0178046Y0176334D01*
X0180200Y0174180D01*
X0181430Y0172950D01*
X0188720Y0172950D01*
X0188720Y0170634D01*
X0187513Y0171134D01*
X0186087Y0171134D01*
X0184770Y0170589D01*
X0183761Y0169580D01*
X0183216Y0168263D01*
X0183216Y0166837D01*
X0183761Y0165520D01*
X0184770Y0164511D01*
X0186087Y0163966D01*
X0187513Y0163966D01*
X0188830Y0164511D01*
X0189427Y0165108D01*
X0189657Y0164877D01*
X0195707Y0164877D01*
X0196644Y0165814D01*
X0196644Y0168900D01*
X0197027Y0168900D01*
X0197909Y0169265D01*
X0198756Y0170112D01*
X0198756Y0169980D01*
X0198879Y0169523D01*
X0198986Y0169336D01*
X0198956Y0169305D01*
X0198956Y0165814D01*
X0199893Y0164877D01*
X0205943Y0164877D01*
X0206426Y0165360D01*
X0210731Y0165360D01*
X0210731Y0164818D01*
X0211250Y0164300D01*
X0210731Y0163782D01*
X0210731Y0158125D01*
X0211669Y0157188D01*
X0214954Y0157188D01*
X0217100Y0155042D01*
X0217100Y0134961D01*
X0212389Y0130250D01*
X0181148Y0130250D01*
X0180337Y0130322D01*
X0180251Y0130250D01*
X0180139Y0130250D01*
X0179563Y0129675D01*
X0168001Y0120000D01*
X0167889Y0120000D01*
X0167313Y0119425D01*
X0166689Y0118902D01*
X0166679Y0118791D01*
X0166600Y0118711D01*
X0166600Y0117898D01*
X0166528Y0117087D01*
X0166600Y0117001D01*
X0166600Y0091071D01*
X0165724Y0090708D01*
X0164327Y0089311D01*
X0163615Y0087593D01*
X0162903Y0089311D01*
X0161506Y0090708D01*
X0159681Y0091464D01*
X0157706Y0091464D01*
X0155881Y0090708D01*
X0154484Y0089311D01*
X0153772Y0087593D01*
X0153061Y0089311D01*
X0151664Y0090708D01*
X0149839Y0091464D01*
X0147863Y0091464D01*
X0146039Y0090708D01*
X0144642Y0089311D01*
X0143930Y0087593D01*
X0143218Y0089311D01*
X0141821Y0090708D01*
X0141209Y0090962D01*
X0141209Y0103003D01*
X0140000Y0104211D01*
X0138711Y0105500D01*
X0138518Y0105500D01*
X0138518Y0106575D01*
X0138059Y0107034D01*
X0138358Y0107333D01*
X0138595Y0107743D01*
X0138718Y0108201D01*
X0138718Y0110800D01*
X0138718Y0113399D01*
X0138595Y0113857D01*
X0138358Y0114267D01*
X0138023Y0114603D01*
X0137613Y0114840D01*
X0137155Y0114962D01*
X0135343Y0114962D01*
X0133532Y0114962D01*
X0133074Y0114840D01*
X0132663Y0114603D01*
X0132328Y0114267D01*
X0132091Y0113857D01*
X0131969Y0113399D01*
X0131968Y0110800D01*
X0135343Y0110800D01*
X0135343Y0110800D01*
X0131969Y0110800D01*
X0131969Y0108201D01*
X0132091Y0107743D01*
X0132328Y0107333D01*
X0132627Y0107034D01*
X0132169Y0106575D01*
X0132169Y0100525D01*
X0133106Y0099588D01*
X0136809Y0099588D01*
X0136809Y0090962D01*
X0136196Y0090708D01*
X0134799Y0089311D01*
X0134174Y0087802D01*
X0133953Y0088482D01*
X0133584Y0089206D01*
X0133106Y0089864D01*
X0132531Y0090439D01*
X0131873Y0090917D01*
X0131149Y0091286D01*
X0130376Y0091537D01*
X0129573Y0091664D01*
X0129449Y0091664D01*
X0129449Y0086782D01*
X0128883Y0086782D01*
X0128883Y0091664D01*
X0128760Y0091664D01*
X0127957Y0091537D01*
X0127183Y0091286D01*
X0126459Y0090917D01*
X0125801Y0090439D01*
X0125226Y0089864D01*
X0124748Y0089206D01*
X0124379Y0088482D01*
X0124158Y0087802D01*
X0123533Y0089311D01*
X0122136Y0090708D01*
X0120311Y0091464D01*
X0118336Y0091464D01*
X0116511Y0090708D01*
X0116500Y0090697D01*
X0116500Y0123445D01*
X0116582Y0123364D01*
X0116582Y0120275D01*
X0117519Y0119338D01*
X0121994Y0119338D01*
X0122931Y0120275D01*
X0122931Y0126325D01*
X0121994Y0127262D01*
X0119623Y0127262D01*
X0120510Y0128149D01*
X0120523Y0128142D01*
X0120980Y0128019D01*
X0122300Y0128019D01*
X0123620Y0128019D01*
X0124077Y0128142D01*
X0124090Y0128149D01*
X0124600Y0127639D01*
X0124830Y0127408D01*
X0124574Y0127340D01*
X0124163Y0127103D01*
X0123828Y0126767D01*
X0123591Y0126357D01*
X0123469Y0125899D01*
X0123468Y0123300D01*
X0126843Y0123300D01*
X0126843Y0123300D01*
X0123469Y0123300D01*
X0123469Y0120701D01*
X0123591Y0120243D01*
X0123828Y0119833D01*
X0124163Y0119497D01*
X0124574Y0119260D01*
X0125032Y0119138D01*
X0126843Y0119138D01*
X0126843Y0123300D01*
X0126843Y0123300D01*
X0126843Y0119138D01*
X0128655Y0119138D01*
X0129100Y0119257D01*
X0129100Y0118961D01*
X0126057Y0115918D01*
X0126057Y0114762D01*
X0126019Y0114762D01*
X0125082Y0113825D01*
X0125082Y0107775D01*
X0125682Y0107175D01*
X0125082Y0106575D01*
X0125082Y0100525D01*
X0126019Y0099588D01*
X0130494Y0099588D01*
X0131431Y0100525D01*
X0131431Y0106575D01*
X0130831Y0107175D01*
X0131431Y0107775D01*
X0131431Y0113825D01*
X0130809Y0114448D01*
X0133500Y0117139D01*
X0133500Y0127961D01*
X0132931Y0128530D01*
X0133087Y0128466D01*
X0134513Y0128466D01*
X0135338Y0128807D01*
X0135216Y0128513D01*
X0135216Y0127087D01*
X0135761Y0125770D01*
X0136770Y0124761D01*
X0138087Y0124216D01*
X0139513Y0124216D01*
X0140830Y0124761D01*
X0141669Y0125600D01*
X0165961Y0125600D01*
X0170711Y0130350D01*
X0177711Y0130350D01*
X0183211Y0135850D01*
X0184500Y0137139D01*
X0184500Y0137316D01*
X0185019Y0137531D01*
X0186369Y0138881D01*
X0187100Y0140645D01*
X0187100Y0148955D01*
X0186369Y0150719D01*
X0185238Y0151850D01*
X0191046Y0151850D01*
X0190381Y0151634D01*
X0189679Y0151276D01*
X0189043Y0150814D01*
X0188486Y0150257D01*
X0188024Y0149621D01*
X0187666Y0148919D01*
X0187423Y0148171D01*
X0187300Y0147394D01*
X0187300Y0144000D01*
X0192100Y0144000D01*
X0192100Y0143600D01*
X0192500Y0143600D01*
X0192500Y0144000D01*
X0197300Y0144000D01*
X0197300Y0147394D01*
X0197177Y0148171D01*
X0196934Y0148919D01*
X0196576Y0149621D01*
X0196114Y0150257D01*
X0195557Y0150814D01*
X0194921Y0151276D01*
X0194219Y0151634D01*
X0193553Y0151850D01*
X0198389Y0151850D01*
X0198875Y0151363D01*
X0198231Y0150719D01*
X0197500Y0148955D01*
X0197500Y0140645D01*
X0198231Y0138881D01*
X0199581Y0137531D01*
X0201345Y0136800D01*
X0203255Y0136800D01*
X0205019Y0137531D01*
X0206369Y0138881D01*
X0207100Y0140645D01*
X0207100Y0148955D01*
X0206369Y0150719D01*
X0205019Y0152069D01*
X0203949Y0152513D01*
X0202611Y0153850D01*
X0203389Y0153850D01*
X0208023Y0149216D01*
X0207500Y0147955D01*
X0207500Y0139645D01*
X0208231Y0137881D01*
X0209581Y0136531D01*
X0211345Y0135800D01*
X0213255Y0135800D01*
X0215019Y0136531D01*
X0216369Y0137881D01*
X0217100Y0139645D01*
X0217100Y0147955D01*
X0216369Y0149719D01*
X0215019Y0151069D01*
X0213255Y0151800D01*
X0211661Y0151800D01*
X0205211Y0158250D01*
X0171861Y0158250D01*
X0172500Y0158889D01*
X0173625Y0160014D01*
X0178000Y0164389D01*
X0178000Y0178711D01*
X0176711Y0180000D01*
X0169460Y0187251D01*
X0170661Y0187251D01*
X0171118Y0186794D01*
X0175396Y0186794D01*
X0176333Y0187732D01*
X0176333Y0191026D01*
X0176208Y0191150D01*
X0176333Y0191275D01*
X0176333Y0194175D01*
X0176208Y0194300D01*
X0176333Y0194425D01*
X0176333Y0197325D01*
X0176208Y0197450D01*
X0176333Y0197574D01*
X0176333Y0200868D01*
X0175400Y0201801D01*
X0175400Y0204920D01*
X0174170Y0206150D01*
X0173121Y0207199D01*
X0169919Y0207199D01*
X0172400Y0209680D01*
X0172400Y0229680D01*
X0176900Y0234180D01*
X0176900Y0250832D01*
X0177825Y0250832D01*
X0178762Y0251769D01*
X0178762Y0256244D01*
X0177825Y0257181D01*
X0171775Y0257181D01*
X0171425Y0256831D01*
X0170825Y0257431D01*
X0164775Y0257431D01*
X0163838Y0256494D01*
X0163838Y0252019D01*
X0164775Y0251082D01*
X0165700Y0251082D01*
X0165700Y0233420D01*
X0164430Y0232150D01*
X0152930Y0232150D01*
X0151700Y0230920D01*
X0149298Y0228518D01*
X0149298Y0226187D01*
X0147500Y0226187D01*
X0147500Y0227757D01*
X0147762Y0228019D01*
X0147762Y0232494D01*
X0146825Y0233431D01*
X0140775Y0233431D01*
X0139838Y0232494D01*
X0139838Y0228019D01*
X0140775Y0227082D01*
X0143100Y0227082D01*
X0143100Y0226187D01*
X0131500Y0226187D01*
X0131500Y0227139D01*
X0132109Y0227748D01*
X0132775Y0227082D01*
X0138825Y0227082D01*
X0139762Y0228019D01*
X0139762Y0232494D01*
X0138825Y0233431D01*
X0132775Y0233431D01*
X0132500Y0233156D01*
X0132500Y0234444D01*
X0132775Y0234169D01*
X0138825Y0234169D01*
X0139200Y0234543D01*
X0140400Y0234543D01*
X0140775Y0234169D01*
X0143380Y0234169D01*
X0143786Y0234000D01*
X0154531Y0234000D01*
X0154770Y0233761D01*
X0156087Y0233216D01*
X0157513Y0233216D01*
X0158830Y0233761D01*
X0159839Y0234770D01*
X0160384Y0236087D01*
X0160384Y0237513D01*
X0159839Y0238830D01*
X0158830Y0239839D01*
X0157513Y0240384D01*
X0156087Y0240384D01*
X0154770Y0239839D01*
X0154531Y0239600D01*
X0147743Y0239600D01*
X0146825Y0240518D01*
X0140775Y0240518D01*
X0140400Y0240143D01*
X0139200Y0240143D01*
X0138825Y0240518D01*
X0132775Y0240518D01*
X0132500Y0240243D01*
X0132500Y0250741D01*
X0132528Y0250741D01*
X0133465Y0251679D01*
X0133465Y0254177D01*
X0133500Y0254212D01*
X0133500Y0264961D01*
X0132211Y0266250D01*
X0130211Y0268250D01*
X0118500Y0268250D01*
X0118500Y0285139D01*
X0121343Y0287981D01*
X0122587Y0287466D01*
X0124013Y0287466D01*
X0125330Y0288011D01*
X0126339Y0289020D01*
X0126884Y0290337D01*
X0126884Y0291763D01*
X0126339Y0293080D01*
X0125769Y0293650D01*
X0140306Y0293650D01*
X0143941Y0290015D01*
X0144823Y0289650D01*
X0147631Y0289650D01*
X0148270Y0289011D01*
X0149587Y0288466D01*
X0151013Y0288466D01*
X0152330Y0289011D01*
X0153339Y0290020D01*
X0153884Y0291337D01*
X0153884Y0292763D01*
X0153339Y0294080D01*
X0152330Y0295089D01*
X0151013Y0295634D01*
X0149587Y0295634D01*
X0148270Y0295089D01*
X0147631Y0294450D01*
X0146294Y0294450D01*
X0143335Y0297409D01*
X0142659Y0298085D01*
X0141777Y0298450D01*
X0121823Y0298450D01*
X0120941Y0298085D01*
X0115441Y0292585D01*
X0110941Y0288085D01*
X0110265Y0287409D01*
X0109900Y0286527D01*
X0109900Y0267719D01*
X0109261Y0267080D01*
X0108716Y0265763D01*
X0108716Y0264337D01*
X0109261Y0263020D01*
X0109900Y0262381D01*
X0109900Y0262018D01*
X0108775Y0262018D01*
X0107838Y0261081D01*
X0107838Y0256606D01*
X0108775Y0255669D01*
X0114570Y0255669D01*
X0117100Y0253139D01*
X0118389Y0251850D01*
X0119635Y0251850D01*
X0119635Y0251679D01*
X0120572Y0250741D01*
X0122626Y0250741D01*
X0120959Y0249250D01*
X0120889Y0249250D01*
X0120287Y0248649D01*
X0119654Y0248082D01*
X0119650Y0248011D01*
X0119600Y0247961D01*
X0119600Y0247111D01*
X0119553Y0246262D01*
X0119600Y0246209D01*
X0119600Y0239961D01*
X0118273Y0238634D01*
X0117087Y0238634D01*
X0115770Y0238089D01*
X0114931Y0237250D01*
X0113276Y0237250D01*
X0113608Y0237583D01*
X0113845Y0237993D01*
X0113968Y0238451D01*
X0113968Y0241050D01*
X0113968Y0243649D01*
X0113845Y0244107D01*
X0113608Y0244517D01*
X0113273Y0244853D01*
X0112863Y0245090D01*
X0112405Y0245212D01*
X0110593Y0245212D01*
X0108782Y0245212D01*
X0108324Y0245090D01*
X0107913Y0244853D01*
X0107578Y0244517D01*
X0107341Y0244107D01*
X0107219Y0243649D01*
X0107218Y0241050D01*
X0110593Y0241050D01*
X0110593Y0241050D01*
X0107219Y0241050D01*
X0107219Y0238451D01*
X0107341Y0237993D01*
X0107578Y0237583D01*
X0107913Y0237247D01*
X0108324Y0237010D01*
X0108782Y0236888D01*
X0109027Y0236888D01*
X0108100Y0235961D01*
X0098389Y0226250D01*
X0097447Y0226250D01*
X0096442Y0227255D01*
X0095052Y0227831D01*
X0093548Y0227831D01*
X0092158Y0227255D01*
X0091500Y0226597D01*
X0091500Y0228181D01*
X0092339Y0229020D01*
X0092884Y0230337D01*
X0092884Y0231763D01*
X0092339Y0233080D01*
X0091330Y0234089D01*
X0090013Y0234634D01*
X0088587Y0234634D01*
X0087270Y0234089D01*
X0086261Y0233080D01*
X0085716Y0231763D01*
X0085716Y0230337D01*
X0086261Y0229020D01*
X0087100Y0228181D01*
X0087100Y0220961D01*
X0085389Y0219250D01*
X0084534Y0219250D01*
X0084534Y0219778D01*
X0084409Y0219902D01*
X0084534Y0220027D01*
X0084534Y0224502D01*
X0084409Y0224627D01*
X0084534Y0224751D01*
X0084534Y0229227D01*
X0084409Y0229351D01*
X0084534Y0229476D01*
X0084534Y0233951D01*
X0084409Y0234076D01*
X0084534Y0234200D01*
X0084534Y0238675D01*
X0084409Y0238800D01*
X0084534Y0238925D01*
X0084534Y0238962D01*
X0085704Y0238962D01*
X0085704Y0238025D01*
X0086641Y0237088D01*
X0092691Y0237088D01*
X0093628Y0238025D01*
X0093628Y0244075D01*
X0092691Y0245012D01*
X0086641Y0245012D01*
X0085704Y0244075D01*
X0085704Y0243362D01*
X0084534Y0243362D01*
X0084534Y0243400D01*
X0084409Y0243524D01*
X0084534Y0243649D01*
X0084534Y0248124D01*
X0084409Y0248249D01*
X0084534Y0248373D01*
X0084534Y0248411D01*
X0090068Y0248411D01*
X0090641Y0247838D01*
X0096691Y0247838D01*
X0097628Y0248775D01*
X0097628Y0254825D01*
X0096736Y0255717D01*
X0097032Y0255638D01*
X0098785Y0255638D01*
X0097972Y0254825D01*
X0097972Y0248775D01*
X0098909Y0247838D01*
X0104959Y0247838D01*
X0105896Y0248775D01*
X0105896Y0249600D01*
X0107838Y0249600D01*
X0107838Y0249519D01*
X0108775Y0248582D01*
X0114825Y0248582D01*
X0115762Y0249519D01*
X0115762Y0253994D01*
X0114825Y0254931D01*
X0108775Y0254931D01*
X0107844Y0254000D01*
X0105896Y0254000D01*
X0105896Y0254825D01*
X0104959Y0255762D01*
X0101116Y0255762D01*
X0101523Y0255997D01*
X0101858Y0256333D01*
X0102095Y0256743D01*
X0102218Y0257201D01*
X0102218Y0259800D01*
X0102218Y0262399D01*
X0102095Y0262857D01*
X0101858Y0263267D01*
X0101523Y0263603D01*
X0101113Y0263840D01*
X0100655Y0263962D01*
X0098843Y0263962D01*
X0097032Y0263962D01*
X0096574Y0263840D01*
X0096163Y0263603D01*
X0095828Y0263267D01*
X0095591Y0262857D01*
X0095469Y0262399D01*
X0095468Y0259800D01*
X0098843Y0259800D01*
X0098843Y0259800D01*
X0095469Y0259800D01*
X0095469Y0257201D01*
X0095591Y0256743D01*
X0095828Y0256333D01*
X0096163Y0255997D01*
X0096571Y0255762D01*
X0090830Y0255762D01*
X0090906Y0255838D01*
X0093994Y0255838D01*
X0094931Y0256775D01*
X0094931Y0262825D01*
X0093994Y0263762D01*
X0089519Y0263762D01*
X0088582Y0262825D01*
X0088582Y0259736D01*
X0086381Y0257535D01*
X0084534Y0257535D01*
X0084534Y0257573D01*
X0084409Y0257698D01*
X0084534Y0257822D01*
X0084534Y0262297D01*
X0084409Y0262422D01*
X0084534Y0262547D01*
X0084534Y0267022D01*
X0083597Y0267959D01*
X0081900Y0267959D01*
X0081900Y0314963D01*
X0081863Y0315000D01*
X0240031Y0315000D01*
X0239812Y0314621D01*
X0239689Y0314163D01*
X0239689Y0311551D01*
X0246620Y0311551D01*
X0246620Y0310002D01*
X0239689Y0310002D01*
X0239689Y0307390D01*
X0239812Y0306932D01*
X0240049Y0306522D01*
X0240384Y0306186D01*
X0240794Y0305949D01*
X0241252Y0305827D01*
X0246620Y0305827D01*
X0246620Y0310001D01*
X0248169Y0310001D01*
X0248169Y0305827D01*
X0253537Y0305827D01*
X0253995Y0305949D01*
X0254405Y0306186D01*
X0254740Y0306522D01*
X0254977Y0306932D01*
X0255100Y0307390D01*
X0255100Y0310002D01*
X0248169Y0310002D01*
X0248169Y0311551D01*
X0255100Y0311551D01*
X0255100Y0314163D01*
X0254977Y0314621D01*
X0254758Y0315000D01*
X0259100Y0315000D01*
X0259100Y0289139D01*
X0259277Y0288962D01*
X0259047Y0288962D01*
X0259047Y0285181D01*
X0258285Y0285181D01*
X0258285Y0284419D01*
X0254504Y0284419D01*
X0254504Y0282201D01*
X0254627Y0281743D01*
X0254864Y0281333D01*
X0255199Y0280997D01*
X0255609Y0280760D01*
X0256067Y0280638D01*
X0258285Y0280638D01*
X0258285Y0284419D01*
X0259047Y0284419D01*
X0259047Y0280638D01*
X0261265Y0280638D01*
X0261723Y0280760D01*
X0262134Y0280997D01*
X0262469Y0281333D01*
X0262706Y0281743D01*
X0262828Y0282201D01*
X0262828Y0284419D01*
X0259047Y0284419D01*
X0259047Y0285181D01*
X0262828Y0285181D01*
X0262828Y0287399D01*
X0262708Y0287850D01*
X0262997Y0287850D01*
X0262972Y0287825D01*
X0262972Y0281775D01*
X0263909Y0280838D01*
X0269959Y0280838D01*
X0270739Y0281618D01*
X0271519Y0280838D01*
X0275994Y0280838D01*
X0276931Y0281775D01*
X0276931Y0287825D01*
X0276906Y0287850D01*
X0277694Y0287850D01*
X0277669Y0287825D01*
X0277669Y0281775D01*
X0278606Y0280838D01*
X0283081Y0280838D01*
X0284018Y0281775D01*
X0284018Y0282603D01*
X0284409Y0282765D01*
X0285659Y0284015D01*
X0286250Y0284606D01*
X0286250Y0277600D01*
X0276352Y0277600D01*
X0276352Y0267100D01*
X0274752Y0267100D01*
X0274752Y0277600D01*
X0264065Y0277600D01*
X0263607Y0277477D01*
X0263197Y0277240D01*
X0262862Y0276905D01*
X0262625Y0276495D01*
X0262502Y0276037D01*
X0262502Y0267100D01*
X0274752Y0267100D01*
X0274752Y0265500D01*
X0276352Y0265500D01*
X0276352Y0255000D01*
X0286250Y0255000D01*
X0286250Y0243600D01*
X0276352Y0243600D01*
X0276352Y0233100D01*
X0274752Y0233100D01*
X0274752Y0243600D01*
X0264065Y0243600D01*
X0263607Y0243477D01*
X0263197Y0243240D01*
X0262862Y0242905D01*
X0262625Y0242495D01*
X0262502Y0242037D01*
X0262502Y0233100D01*
X0274752Y0233100D01*
X0274752Y0231500D01*
X0276352Y0231500D01*
X0276352Y0221000D01*
X0286250Y0221000D01*
X0286250Y0029100D01*
X0010350Y0029100D01*
X0010350Y0030247D02*
X0286250Y0030247D01*
X0286250Y0031846D02*
X0010350Y0031846D01*
X0010350Y0033444D02*
X0286250Y0033444D01*
X0286250Y0035043D02*
X0010350Y0035043D01*
X0010350Y0036641D02*
X0286250Y0036641D01*
X0286250Y0038240D02*
X0010350Y0038240D01*
X0010350Y0039838D02*
X0286250Y0039838D01*
X0286250Y0041437D02*
X0010350Y0041437D01*
X0010350Y0043035D02*
X0044224Y0043035D01*
X0042625Y0044634D02*
X0010350Y0044634D01*
X0010350Y0046232D02*
X0041027Y0046232D01*
X0039428Y0047831D02*
X0010350Y0047831D01*
X0010350Y0049429D02*
X0037830Y0049429D01*
X0036231Y0051028D02*
X0010350Y0051028D01*
X0010350Y0052626D02*
X0034633Y0052626D01*
X0033034Y0054225D02*
X0010350Y0054225D01*
X0010350Y0055823D02*
X0031436Y0055823D01*
X0029837Y0057422D02*
X0010350Y0057422D01*
X0010350Y0059020D02*
X0028830Y0059020D01*
X0028700Y0060619D02*
X0010350Y0060619D01*
X0010350Y0062217D02*
X0028700Y0062217D01*
X0028700Y0063816D02*
X0010350Y0063816D01*
X0010350Y0065414D02*
X0028700Y0065414D01*
X0028700Y0067013D02*
X0010350Y0067013D01*
X0010350Y0068611D02*
X0028700Y0068611D01*
X0028700Y0070210D02*
X0010350Y0070210D01*
X0010350Y0071808D02*
X0028700Y0071808D01*
X0028700Y0073407D02*
X0010350Y0073407D01*
X0010350Y0075005D02*
X0028700Y0075005D01*
X0028700Y0076604D02*
X0010350Y0076604D01*
X0010350Y0078202D02*
X0028700Y0078202D01*
X0028700Y0079801D02*
X0010350Y0079801D01*
X0010350Y0081399D02*
X0028700Y0081399D01*
X0028700Y0082998D02*
X0010350Y0082998D01*
X0010350Y0084596D02*
X0028700Y0084596D01*
X0028700Y0086195D02*
X0010350Y0086195D01*
X0010350Y0087793D02*
X0028700Y0087793D01*
X0028700Y0089392D02*
X0010350Y0089392D01*
X0010350Y0090990D02*
X0028700Y0090990D01*
X0028700Y0092589D02*
X0010350Y0092589D01*
X0010350Y0094187D02*
X0028700Y0094187D01*
X0028700Y0095786D02*
X0010350Y0095786D01*
X0010350Y0097384D02*
X0027821Y0097384D01*
X0026223Y0098983D02*
X0010350Y0098983D01*
X0010350Y0100582D02*
X0015374Y0100582D01*
X0013776Y0102180D02*
X0010350Y0102180D01*
X0010350Y0103779D02*
X0012900Y0103779D01*
X0012900Y0105377D02*
X0010350Y0105377D01*
X0010350Y0106976D02*
X0012900Y0106976D01*
X0012900Y0108574D02*
X0010350Y0108574D01*
X0010350Y0110173D02*
X0012900Y0110173D01*
X0012900Y0111771D02*
X0010350Y0111771D01*
X0010350Y0113370D02*
X0012900Y0113370D01*
X0012900Y0114968D02*
X0010350Y0114968D01*
X0010350Y0116567D02*
X0012900Y0116567D01*
X0012900Y0118165D02*
X0010350Y0118165D01*
X0010350Y0119764D02*
X0012900Y0119764D01*
X0012900Y0121362D02*
X0010350Y0121362D01*
X0010350Y0122961D02*
X0012900Y0122961D01*
X0012900Y0124559D02*
X0010350Y0124559D01*
X0010350Y0126158D02*
X0012900Y0126158D01*
X0012900Y0127756D02*
X0010350Y0127756D01*
X0010350Y0129355D02*
X0012900Y0129355D01*
X0012900Y0130953D02*
X0010350Y0130953D01*
X0010350Y0132552D02*
X0012900Y0132552D01*
X0012900Y0134150D02*
X0010350Y0134150D01*
X0010350Y0135749D02*
X0012900Y0135749D01*
X0012900Y0137347D02*
X0010350Y0137347D01*
X0010350Y0138946D02*
X0012900Y0138946D01*
X0012900Y0140544D02*
X0010350Y0140544D01*
X0010350Y0142143D02*
X0012900Y0142143D01*
X0012900Y0143741D02*
X0010350Y0143741D01*
X0010350Y0145340D02*
X0012900Y0145340D01*
X0012900Y0146938D02*
X0010350Y0146938D01*
X0010350Y0148537D02*
X0012900Y0148537D01*
X0012900Y0150135D02*
X0010350Y0150135D01*
X0010350Y0151734D02*
X0012900Y0151734D01*
X0012900Y0153332D02*
X0010350Y0153332D01*
X0010350Y0154931D02*
X0012900Y0154931D01*
X0012900Y0156529D02*
X0010350Y0156529D01*
X0010350Y0158128D02*
X0012900Y0158128D01*
X0012900Y0159726D02*
X0010350Y0159726D01*
X0010350Y0161325D02*
X0012900Y0161325D01*
X0012900Y0162923D02*
X0010350Y0162923D01*
X0010350Y0164522D02*
X0012900Y0164522D01*
X0012900Y0166120D02*
X0010350Y0166120D01*
X0010350Y0167719D02*
X0012900Y0167719D01*
X0012900Y0169318D02*
X0010350Y0169318D01*
X0010350Y0170916D02*
X0012900Y0170916D01*
X0012900Y0172515D02*
X0010350Y0172515D01*
X0010350Y0174113D02*
X0012900Y0174113D01*
X0012900Y0175712D02*
X0010350Y0175712D01*
X0010350Y0177310D02*
X0012900Y0177310D01*
X0013058Y0178909D02*
X0010350Y0178909D01*
X0010350Y0180507D02*
X0014363Y0180507D01*
X0015961Y0182106D02*
X0010350Y0182106D01*
X0010350Y0183704D02*
X0017560Y0183704D01*
X0019159Y0185303D02*
X0010350Y0185303D01*
X0010350Y0186901D02*
X0021205Y0186901D01*
X0021800Y0184550D02*
X0015300Y0178050D01*
X0015300Y0104050D01*
X0017300Y0102050D01*
X0026550Y0102050D01*
X0032300Y0096300D01*
X0032094Y0099900D02*
X0027909Y0104085D01*
X0027027Y0104450D01*
X0018294Y0104450D01*
X0017700Y0105044D01*
X0017700Y0177056D01*
X0022794Y0182150D01*
X0034881Y0182150D01*
X0035520Y0181511D01*
X0036837Y0180966D01*
X0038263Y0180966D01*
X0039580Y0181511D01*
X0039850Y0181781D01*
X0039850Y0168711D01*
X0018100Y0146961D01*
X0018100Y0120639D01*
X0018100Y0119139D01*
X0019389Y0117850D01*
X0021389Y0115850D01*
X0022889Y0114350D01*
X0023637Y0114350D01*
X0023937Y0114050D01*
X0023300Y0113413D01*
X0023300Y0109687D01*
X0024237Y0108750D01*
X0034263Y0108750D01*
X0034863Y0109350D01*
X0035711Y0109350D01*
X0037000Y0110639D01*
X0037750Y0111389D01*
X0037750Y0128389D01*
X0039500Y0130139D01*
X0039500Y0133850D01*
X0050166Y0133850D01*
X0049716Y0132763D01*
X0049716Y0131337D01*
X0050261Y0130020D01*
X0050931Y0129350D01*
X0044837Y0129350D01*
X0043900Y0128413D01*
X0043900Y0126620D01*
X0043263Y0126884D01*
X0041837Y0126884D01*
X0040520Y0126339D01*
X0039511Y0125330D01*
X0038966Y0124013D01*
X0038966Y0122587D01*
X0039511Y0121270D01*
X0040520Y0120261D01*
X0040603Y0120227D01*
X0040270Y0120089D01*
X0039261Y0119080D01*
X0038716Y0117763D01*
X0038716Y0116337D01*
X0039261Y0115020D01*
X0040270Y0114011D01*
X0041587Y0113466D01*
X0043013Y0113466D01*
X0044135Y0113930D01*
X0044060Y0113855D01*
X0043823Y0113445D01*
X0043700Y0112987D01*
X0043700Y0111550D01*
X0049850Y0111550D01*
X0049850Y0111550D01*
X0043700Y0111550D01*
X0043700Y0110113D01*
X0043823Y0109655D01*
X0044060Y0109245D01*
X0044395Y0108910D01*
X0044805Y0108673D01*
X0045263Y0108550D01*
X0045638Y0108550D01*
X0045638Y0107093D01*
X0045638Y0105282D01*
X0045760Y0104824D01*
X0045997Y0104413D01*
X0046333Y0104078D01*
X0046743Y0103841D01*
X0047201Y0103719D01*
X0049800Y0103718D01*
X0049800Y0107093D01*
X0049800Y0103719D01*
X0052399Y0103719D01*
X0052857Y0103841D01*
X0053267Y0104078D01*
X0053603Y0104413D01*
X0053840Y0104824D01*
X0053962Y0105282D01*
X0053962Y0107093D01*
X0049800Y0107093D01*
X0049800Y0107093D01*
X0049800Y0107093D01*
X0045638Y0107093D01*
X0049800Y0107093D01*
X0049800Y0107093D01*
X0053962Y0107093D01*
X0053962Y0108550D01*
X0054100Y0108550D01*
X0054100Y0099100D01*
X0053762Y0099100D01*
X0053762Y0102244D01*
X0052825Y0103181D01*
X0046775Y0103181D01*
X0045838Y0102244D01*
X0045838Y0099100D01*
X0034591Y0099100D01*
X0034339Y0099352D01*
X0033016Y0099900D01*
X0032094Y0099900D01*
X0031413Y0100582D02*
X0045838Y0100582D01*
X0045838Y0102180D02*
X0029814Y0102180D01*
X0028216Y0103779D02*
X0046977Y0103779D01*
X0045638Y0105377D02*
X0017700Y0105377D01*
X0017700Y0106976D02*
X0045638Y0106976D01*
X0045173Y0108574D02*
X0017700Y0108574D01*
X0017700Y0110173D02*
X0023300Y0110173D01*
X0023300Y0111771D02*
X0017700Y0111771D01*
X0017700Y0113370D02*
X0023300Y0113370D01*
X0022271Y0114968D02*
X0017700Y0114968D01*
X0017700Y0116567D02*
X0020672Y0116567D01*
X0019074Y0118165D02*
X0017700Y0118165D01*
X0017700Y0119764D02*
X0018100Y0119764D01*
X0018100Y0121362D02*
X0017700Y0121362D01*
X0017700Y0122961D02*
X0018100Y0122961D01*
X0018100Y0124559D02*
X0017700Y0124559D01*
X0017700Y0126158D02*
X0018100Y0126158D01*
X0018100Y0127756D02*
X0017700Y0127756D01*
X0017700Y0129355D02*
X0018100Y0129355D01*
X0018100Y0130953D02*
X0017700Y0130953D01*
X0017700Y0132552D02*
X0018100Y0132552D01*
X0018100Y0134150D02*
X0017700Y0134150D01*
X0017700Y0135749D02*
X0018100Y0135749D01*
X0018100Y0137347D02*
X0017700Y0137347D01*
X0017700Y0138946D02*
X0018100Y0138946D01*
X0018100Y0140544D02*
X0017700Y0140544D01*
X0017700Y0142143D02*
X0018100Y0142143D01*
X0018100Y0143741D02*
X0017700Y0143741D01*
X0017700Y0145340D02*
X0018100Y0145340D01*
X0018100Y0146938D02*
X0017700Y0146938D01*
X0017700Y0148537D02*
X0019676Y0148537D01*
X0021274Y0150135D02*
X0017700Y0150135D01*
X0017700Y0151734D02*
X0022873Y0151734D01*
X0024471Y0153332D02*
X0017700Y0153332D01*
X0017700Y0154931D02*
X0026070Y0154931D01*
X0027668Y0156529D02*
X0017700Y0156529D01*
X0017700Y0158128D02*
X0029267Y0158128D01*
X0030865Y0159726D02*
X0017700Y0159726D01*
X0017700Y0161325D02*
X0032464Y0161325D01*
X0034062Y0162923D02*
X0017700Y0162923D01*
X0017700Y0164522D02*
X0035661Y0164522D01*
X0037259Y0166120D02*
X0017700Y0166120D01*
X0017700Y0167719D02*
X0038858Y0167719D01*
X0039850Y0169318D02*
X0017700Y0169318D01*
X0017700Y0170916D02*
X0039850Y0170916D01*
X0039850Y0172515D02*
X0017700Y0172515D01*
X0017700Y0174113D02*
X0039850Y0174113D01*
X0039850Y0175712D02*
X0017700Y0175712D01*
X0017954Y0177310D02*
X0039850Y0177310D01*
X0039850Y0178909D02*
X0019553Y0178909D01*
X0021151Y0180507D02*
X0039850Y0180507D01*
X0037550Y0184550D02*
X0021800Y0184550D01*
X0022750Y0182106D02*
X0034926Y0182106D01*
X0039850Y0188500D02*
X0010350Y0188500D01*
X0010350Y0190098D02*
X0039850Y0190098D01*
X0041335Y0191697D02*
X0010350Y0191697D01*
X0010350Y0193295D02*
X0042934Y0193295D01*
X0044532Y0194894D02*
X0010350Y0194894D01*
X0010350Y0196492D02*
X0046131Y0196492D01*
X0044082Y0197043D02*
X0048557Y0197043D01*
X0048682Y0197167D01*
X0048807Y0197043D01*
X0053282Y0197043D01*
X0053800Y0197561D01*
X0054318Y0197043D01*
X0058793Y0197043D01*
X0058918Y0197167D01*
X0059043Y0197043D01*
X0063518Y0197043D01*
X0063548Y0197073D01*
X0063735Y0196965D01*
X0064193Y0196843D01*
X0066005Y0196843D01*
X0067816Y0196843D01*
X0068274Y0196965D01*
X0068408Y0197043D01*
X0072267Y0197043D01*
X0073204Y0197980D01*
X0073204Y0205604D01*
X0072267Y0206542D01*
X0068408Y0206542D01*
X0068274Y0206619D01*
X0067816Y0206742D01*
X0066005Y0206742D01*
X0066005Y0201792D01*
X0066005Y0196843D01*
X0066005Y0201792D01*
X0066005Y0201792D01*
X0066005Y0201792D01*
X0066005Y0206742D01*
X0064193Y0206742D01*
X0063735Y0206619D01*
X0063548Y0206511D01*
X0063518Y0206542D01*
X0059043Y0206542D01*
X0058918Y0206417D01*
X0058793Y0206542D01*
X0054318Y0206542D01*
X0053800Y0206023D01*
X0053282Y0206542D01*
X0048807Y0206542D01*
X0048682Y0206417D01*
X0048557Y0206542D01*
X0044082Y0206542D01*
X0044052Y0206511D01*
X0043865Y0206619D01*
X0043407Y0206742D01*
X0041595Y0206742D01*
X0039783Y0206742D01*
X0039326Y0206619D01*
X0039192Y0206542D01*
X0035333Y0206542D01*
X0034396Y0205604D01*
X0034396Y0197980D01*
X0035333Y0197043D01*
X0039192Y0197043D01*
X0039326Y0196965D01*
X0039783Y0196843D01*
X0041595Y0196843D01*
X0041595Y0201792D01*
X0041595Y0201792D01*
X0041595Y0206742D01*
X0041595Y0201792D01*
X0041595Y0201792D01*
X0041595Y0196843D01*
X0043407Y0196843D01*
X0043865Y0196965D01*
X0044052Y0197073D01*
X0044082Y0197043D01*
X0041595Y0198091D02*
X0041595Y0198091D01*
X0041595Y0199689D02*
X0041595Y0199689D01*
X0041595Y0201288D02*
X0041595Y0201288D01*
X0041595Y0202886D02*
X0041595Y0202886D01*
X0041595Y0204485D02*
X0041595Y0204485D01*
X0041595Y0206083D02*
X0041595Y0206083D01*
X0034875Y0206083D02*
X0010350Y0206083D01*
X0010350Y0204485D02*
X0034396Y0204485D01*
X0034396Y0202886D02*
X0010350Y0202886D01*
X0010350Y0201288D02*
X0034396Y0201288D01*
X0034396Y0199689D02*
X0010350Y0199689D01*
X0010350Y0198091D02*
X0034396Y0198091D01*
X0031202Y0209441D02*
X0027816Y0209441D01*
X0027816Y0212816D01*
X0027816Y0212816D01*
X0032765Y0212816D01*
X0032765Y0211004D01*
X0032643Y0210546D01*
X0032406Y0210136D01*
X0032071Y0209801D01*
X0031660Y0209564D01*
X0031202Y0209441D01*
X0032732Y0210879D02*
X0075035Y0210879D01*
X0075035Y0212477D02*
X0032765Y0212477D01*
X0032765Y0214076D02*
X0034071Y0214076D01*
X0036029Y0214076D02*
X0075035Y0214076D01*
X0075035Y0215674D02*
X0038153Y0215674D01*
X0038634Y0217273D02*
X0075035Y0217273D01*
X0075035Y0218871D02*
X0038382Y0218871D01*
X0037199Y0220470D02*
X0075035Y0220470D01*
X0075035Y0222068D02*
X0032565Y0222068D01*
X0032565Y0220470D02*
X0032901Y0220470D01*
X0032565Y0223667D02*
X0075035Y0223667D01*
X0075035Y0225265D02*
X0032565Y0225265D01*
X0032565Y0226864D02*
X0075035Y0226864D01*
X0075035Y0228462D02*
X0032565Y0228462D01*
X0032565Y0230061D02*
X0075035Y0230061D01*
X0075035Y0231659D02*
X0032565Y0231659D01*
X0032565Y0233258D02*
X0075035Y0233258D01*
X0075035Y0234856D02*
X0032565Y0234856D01*
X0032565Y0236455D02*
X0075035Y0236455D01*
X0075035Y0238053D02*
X0032565Y0238053D01*
X0032565Y0239652D02*
X0075035Y0239652D01*
X0075035Y0241251D02*
X0032565Y0241251D01*
X0032565Y0242849D02*
X0075035Y0242849D01*
X0075035Y0244448D02*
X0032565Y0244448D01*
X0032565Y0246046D02*
X0075035Y0246046D01*
X0075035Y0247645D02*
X0032565Y0247645D01*
X0032565Y0249243D02*
X0075035Y0249243D01*
X0075035Y0250842D02*
X0032565Y0250842D01*
X0032565Y0252440D02*
X0075035Y0252440D01*
X0075035Y0254039D02*
X0032565Y0254039D01*
X0032565Y0255637D02*
X0075035Y0255637D01*
X0075035Y0257236D02*
X0032565Y0257236D01*
X0032565Y0258834D02*
X0075035Y0258834D01*
X0075035Y0260433D02*
X0032565Y0260433D01*
X0032565Y0262031D02*
X0075035Y0262031D01*
X0075035Y0263630D02*
X0032765Y0263630D01*
X0032765Y0265228D02*
X0075035Y0265228D01*
X0081900Y0268425D02*
X0109900Y0268425D01*
X0109900Y0270024D02*
X0081900Y0270024D01*
X0081900Y0271622D02*
X0109900Y0271622D01*
X0109900Y0273221D02*
X0081900Y0273221D01*
X0081900Y0274819D02*
X0109900Y0274819D01*
X0109900Y0276418D02*
X0081900Y0276418D01*
X0081900Y0278016D02*
X0109900Y0278016D01*
X0109900Y0279615D02*
X0081900Y0279615D01*
X0081900Y0281213D02*
X0109900Y0281213D01*
X0109900Y0282812D02*
X0081900Y0282812D01*
X0081900Y0284410D02*
X0109900Y0284410D01*
X0109900Y0286009D02*
X0081900Y0286009D01*
X0081900Y0287607D02*
X0110463Y0287607D01*
X0112062Y0289206D02*
X0081900Y0289206D01*
X0081900Y0290804D02*
X0113660Y0290804D01*
X0115259Y0292403D02*
X0081900Y0292403D01*
X0081900Y0294001D02*
X0116857Y0294001D01*
X0118456Y0295600D02*
X0081900Y0295600D01*
X0081900Y0297198D02*
X0120054Y0297198D01*
X0122300Y0296050D02*
X0116800Y0290550D01*
X0112300Y0286050D01*
X0112300Y0265050D01*
X0112300Y0259343D01*
X0111800Y0258843D01*
X0109900Y0262031D02*
X0102218Y0262031D01*
X0102218Y0260433D02*
X0107838Y0260433D01*
X0107838Y0258834D02*
X0102218Y0258834D01*
X0102218Y0259800D02*
X0098843Y0259800D01*
X0098843Y0263962D01*
X0098843Y0259800D01*
X0098843Y0259800D01*
X0102218Y0259800D01*
X0102218Y0257236D02*
X0107838Y0257236D01*
X0105084Y0255637D02*
X0114602Y0255637D01*
X0115718Y0254039D02*
X0116200Y0254039D01*
X0115762Y0252440D02*
X0117799Y0252440D01*
X0115762Y0250842D02*
X0120472Y0250842D01*
X0120882Y0249243D02*
X0115486Y0249243D01*
X0119600Y0247645D02*
X0084534Y0247645D01*
X0084534Y0246046D02*
X0119600Y0246046D01*
X0119600Y0244448D02*
X0113649Y0244448D01*
X0113968Y0242849D02*
X0119600Y0242849D01*
X0119600Y0241251D02*
X0113968Y0241251D01*
X0113968Y0241050D02*
X0110593Y0241050D01*
X0110593Y0245212D01*
X0110593Y0241050D01*
X0110593Y0241050D01*
X0110593Y0241050D01*
X0113968Y0241050D01*
X0113968Y0239652D02*
X0119291Y0239652D01*
X0115735Y0238053D02*
X0113862Y0238053D01*
X0110593Y0241251D02*
X0110593Y0241251D01*
X0110593Y0242849D02*
X0110593Y0242849D01*
X0110593Y0244448D02*
X0110593Y0244448D01*
X0107538Y0244448D02*
X0106309Y0244448D01*
X0106681Y0244075D02*
X0105744Y0245012D01*
X0101269Y0245012D01*
X0101114Y0244857D01*
X0100959Y0245012D01*
X0094909Y0245012D01*
X0093972Y0244075D01*
X0093972Y0238025D01*
X0094909Y0237088D01*
X0100959Y0237088D01*
X0101114Y0237243D01*
X0101269Y0237088D01*
X0105744Y0237088D01*
X0106681Y0238025D01*
X0106681Y0244075D01*
X0106681Y0242849D02*
X0107219Y0242849D01*
X0107219Y0241251D02*
X0106681Y0241251D01*
X0106681Y0239652D02*
X0107219Y0239652D01*
X0107325Y0238053D02*
X0106681Y0238053D01*
X0108594Y0236455D02*
X0084534Y0236455D01*
X0084534Y0238053D02*
X0085704Y0238053D01*
X0084534Y0234856D02*
X0106995Y0234856D01*
X0105397Y0233258D02*
X0092161Y0233258D01*
X0092884Y0231659D02*
X0103798Y0231659D01*
X0102200Y0230061D02*
X0092770Y0230061D01*
X0091781Y0228462D02*
X0100601Y0228462D01*
X0099003Y0226864D02*
X0096833Y0226864D01*
X0091767Y0226864D02*
X0091500Y0226864D01*
X0087100Y0226864D02*
X0084534Y0226864D01*
X0084534Y0228462D02*
X0086819Y0228462D01*
X0085830Y0230061D02*
X0084534Y0230061D01*
X0084534Y0231659D02*
X0085716Y0231659D01*
X0086439Y0233258D02*
X0084534Y0233258D01*
X0084534Y0225265D02*
X0087100Y0225265D01*
X0087100Y0223667D02*
X0084534Y0223667D01*
X0084534Y0222068D02*
X0087100Y0222068D01*
X0086609Y0220470D02*
X0084534Y0220470D01*
X0089850Y0209280D02*
X0010350Y0209280D01*
X0010350Y0207682D02*
X0089850Y0207682D01*
X0089850Y0206083D02*
X0072725Y0206083D01*
X0073204Y0204485D02*
X0089850Y0204485D01*
X0089850Y0202886D02*
X0073204Y0202886D01*
X0073204Y0201288D02*
X0089850Y0201288D01*
X0089850Y0199689D02*
X0073204Y0199689D01*
X0073204Y0198091D02*
X0089850Y0198091D01*
X0089850Y0196492D02*
X0082719Y0196492D01*
X0084318Y0194894D02*
X0089850Y0194894D01*
X0089850Y0193295D02*
X0085916Y0193295D01*
X0087515Y0191697D02*
X0089850Y0191697D01*
X0106323Y0175712D02*
X0120468Y0175712D01*
X0120468Y0177310D02*
X0107921Y0177310D01*
X0107711Y0177100D02*
X0109000Y0178389D01*
X0109000Y0182389D01*
X0110461Y0183850D01*
X0111413Y0183850D01*
X0111413Y0181405D01*
X0112350Y0180468D01*
X0119581Y0180468D01*
X0120518Y0181405D01*
X0120518Y0193450D01*
X0120831Y0193450D01*
X0121520Y0192761D01*
X0122837Y0192216D01*
X0124263Y0192216D01*
X0125580Y0192761D01*
X0126589Y0193770D01*
X0127134Y0195087D01*
X0127134Y0196513D01*
X0126589Y0197830D01*
X0125580Y0198839D01*
X0124263Y0199384D01*
X0122837Y0199384D01*
X0121520Y0198839D01*
X0120718Y0198037D01*
X0120718Y0198800D01*
X0120718Y0200021D01*
X0120595Y0200479D01*
X0120518Y0200613D01*
X0120518Y0216195D01*
X0119581Y0217132D01*
X0112350Y0217132D01*
X0111966Y0216748D01*
X0106109Y0216748D01*
X0108796Y0219435D01*
X0120468Y0219435D01*
X0120468Y0218019D01*
X0121405Y0217082D01*
X0127151Y0217082D01*
X0127151Y0191970D01*
X0126261Y0191080D01*
X0125716Y0189763D01*
X0125716Y0188337D01*
X0126261Y0187020D01*
X0127270Y0186011D01*
X0128587Y0185466D01*
X0130013Y0185466D01*
X0131330Y0186011D01*
X0132339Y0187020D01*
X0132884Y0188337D01*
X0132884Y0189763D01*
X0132339Y0191080D01*
X0131551Y0191868D01*
X0131551Y0194730D01*
X0132270Y0194011D01*
X0133587Y0193466D01*
X0135013Y0193466D01*
X0136330Y0194011D01*
X0137339Y0195020D01*
X0137884Y0196337D01*
X0137884Y0197523D01*
X0138716Y0198354D01*
X0138716Y0198337D01*
X0139261Y0197020D01*
X0140270Y0196011D01*
X0141587Y0195466D01*
X0143013Y0195466D01*
X0144330Y0196011D01*
X0145339Y0197020D01*
X0145884Y0198337D01*
X0145884Y0198649D01*
X0146010Y0198649D01*
X0146488Y0199126D01*
X0147004Y0199458D01*
X0146716Y0198763D01*
X0146716Y0197337D01*
X0147261Y0196020D01*
X0148270Y0195011D01*
X0149587Y0194466D01*
X0151013Y0194466D01*
X0152330Y0195011D01*
X0153339Y0196020D01*
X0153579Y0196600D01*
X0157082Y0196600D01*
X0157082Y0181405D01*
X0158019Y0180468D01*
X0165250Y0180468D01*
X0166187Y0181405D01*
X0166187Y0184002D01*
X0166487Y0184002D01*
X0173600Y0176889D01*
X0173600Y0166211D01*
X0171762Y0164373D01*
X0171762Y0168191D01*
X0170825Y0169128D01*
X0164775Y0169128D01*
X0163838Y0168191D01*
X0163838Y0167919D01*
X0163825Y0167931D01*
X0157775Y0167931D01*
X0156838Y0166994D01*
X0156838Y0162519D01*
X0157607Y0161750D01*
X0127389Y0161750D01*
X0126100Y0160461D01*
X0123840Y0158201D01*
X0123840Y0145926D01*
X0123357Y0145443D01*
X0123357Y0140250D01*
X0121243Y0140250D01*
X0121243Y0145443D01*
X0121127Y0145559D01*
X0122089Y0146520D01*
X0122634Y0147837D01*
X0122634Y0149263D01*
X0122089Y0150580D01*
X0121080Y0151589D01*
X0119763Y0152134D01*
X0118337Y0152134D01*
X0117020Y0151589D01*
X0116011Y0150580D01*
X0115466Y0149263D01*
X0115466Y0147837D01*
X0116011Y0146520D01*
X0116360Y0146171D01*
X0116360Y0146101D01*
X0115211Y0147250D01*
X0113211Y0149250D01*
X0104569Y0149250D01*
X0105339Y0150020D01*
X0105884Y0151337D01*
X0105884Y0152763D01*
X0105436Y0153845D01*
X0106270Y0153011D01*
X0107587Y0152466D01*
X0109013Y0152466D01*
X0110330Y0153011D01*
X0111339Y0154020D01*
X0111884Y0155337D01*
X0111884Y0156763D01*
X0111339Y0158080D01*
X0110330Y0159089D01*
X0109013Y0159634D01*
X0107587Y0159634D01*
X0106270Y0159089D01*
X0105431Y0158250D01*
X0099820Y0158250D01*
X0096920Y0161150D01*
X0076430Y0161150D01*
X0075200Y0159920D01*
X0073700Y0158420D01*
X0073700Y0157146D01*
X0056913Y0157146D01*
X0056779Y0157223D01*
X0056321Y0157346D01*
X0055284Y0157346D01*
X0054247Y0157346D01*
X0053789Y0157223D01*
X0053379Y0156986D01*
X0053044Y0156651D01*
X0052807Y0156240D01*
X0052684Y0155783D01*
X0052684Y0153946D01*
X0055284Y0153946D01*
X0055284Y0157346D01*
X0055284Y0153946D01*
X0055284Y0153946D01*
X0055284Y0153946D01*
X0052684Y0153946D01*
X0052684Y0152109D01*
X0052807Y0151651D01*
X0053044Y0151240D01*
X0053379Y0150905D01*
X0053789Y0150668D01*
X0054247Y0150546D01*
X0055284Y0150546D01*
X0055284Y0153946D01*
X0055284Y0153946D01*
X0055284Y0150546D01*
X0055643Y0150546D01*
X0055643Y0143595D01*
X0059989Y0139250D01*
X0059595Y0139250D01*
X0058595Y0140250D01*
X0041415Y0140250D01*
X0040683Y0141248D01*
X0041134Y0142337D01*
X0041134Y0143763D01*
X0040589Y0145080D01*
X0039750Y0145919D01*
X0039750Y0153708D01*
X0047898Y0162786D01*
X0048500Y0163389D01*
X0048500Y0163458D01*
X0048546Y0163509D01*
X0048500Y0164359D01*
X0048500Y0182281D01*
X0049270Y0181511D01*
X0050587Y0180966D01*
X0052013Y0180966D01*
X0053330Y0181511D01*
X0053547Y0181728D01*
X0053822Y0181454D01*
X0055643Y0181454D01*
X0055643Y0167345D01*
X0059600Y0163389D01*
X0060889Y0162100D01*
X0147711Y0162100D01*
X0152211Y0166600D01*
X0153500Y0167889D01*
X0153500Y0171413D01*
X0154074Y0171413D01*
X0155843Y0169643D01*
X0156838Y0169643D01*
X0156838Y0169606D01*
X0157775Y0168669D01*
X0163825Y0168669D01*
X0164621Y0169465D01*
X0164743Y0169394D01*
X0165201Y0169272D01*
X0167419Y0169272D01*
X0167419Y0173053D01*
X0168181Y0173053D01*
X0168181Y0173815D01*
X0167419Y0173815D01*
X0167419Y0177596D01*
X0165201Y0177596D01*
X0164743Y0177473D01*
X0164333Y0177236D01*
X0163997Y0176901D01*
X0163760Y0176491D01*
X0163638Y0176033D01*
X0163638Y0175018D01*
X0157775Y0175018D01*
X0157233Y0174476D01*
X0157132Y0174577D01*
X0157132Y0179581D01*
X0156195Y0180518D01*
X0144250Y0180518D01*
X0144250Y0180771D01*
X0144830Y0181011D01*
X0145839Y0182020D01*
X0146384Y0183337D01*
X0146384Y0184763D01*
X0145839Y0186080D01*
X0144830Y0187089D01*
X0143513Y0187634D01*
X0142384Y0187634D01*
X0142384Y0188763D01*
X0141839Y0190080D01*
X0140830Y0191089D01*
X0139513Y0191634D01*
X0138087Y0191634D01*
X0136770Y0191089D01*
X0135761Y0190080D01*
X0135216Y0188763D01*
X0135216Y0187337D01*
X0135403Y0186884D01*
X0134337Y0186884D01*
X0133020Y0186339D01*
X0132011Y0185330D01*
X0131466Y0184013D01*
X0131466Y0182587D01*
X0132011Y0181270D01*
X0132763Y0180518D01*
X0121405Y0180518D01*
X0120468Y0179581D01*
X0120468Y0173250D01*
X0103861Y0173250D01*
X0107711Y0177100D01*
X0109000Y0178909D02*
X0120468Y0178909D01*
X0119620Y0180507D02*
X0121394Y0180507D01*
X0120518Y0182106D02*
X0131665Y0182106D01*
X0131466Y0183704D02*
X0120518Y0183704D01*
X0120518Y0185303D02*
X0132000Y0185303D01*
X0132220Y0186901D02*
X0135396Y0186901D01*
X0135216Y0188500D02*
X0132884Y0188500D01*
X0132745Y0190098D02*
X0135779Y0190098D01*
X0131722Y0191697D02*
X0157082Y0191697D01*
X0157082Y0193295D02*
X0131551Y0193295D01*
X0127151Y0193295D02*
X0126114Y0193295D01*
X0126878Y0191697D02*
X0120518Y0191697D01*
X0120518Y0193295D02*
X0120986Y0193295D01*
X0120518Y0190098D02*
X0125855Y0190098D01*
X0125716Y0188500D02*
X0120518Y0188500D01*
X0120518Y0186901D02*
X0126380Y0186901D01*
X0127054Y0194894D02*
X0127151Y0194894D01*
X0127134Y0196492D02*
X0127151Y0196492D01*
X0127151Y0198091D02*
X0126328Y0198091D01*
X0127151Y0199689D02*
X0120718Y0199689D01*
X0120718Y0198800D02*
X0115965Y0198800D01*
X0115965Y0198800D01*
X0120718Y0198800D01*
X0120718Y0198091D02*
X0120772Y0198091D01*
X0120518Y0201288D02*
X0127151Y0201288D01*
X0127151Y0202886D02*
X0120518Y0202886D01*
X0120518Y0204485D02*
X0127151Y0204485D01*
X0127151Y0206083D02*
X0120518Y0206083D01*
X0120518Y0207682D02*
X0127151Y0207682D01*
X0127151Y0209280D02*
X0120518Y0209280D01*
X0120518Y0210879D02*
X0127151Y0210879D01*
X0127151Y0212477D02*
X0120518Y0212477D01*
X0120518Y0214076D02*
X0127151Y0214076D01*
X0127151Y0215674D02*
X0120518Y0215674D01*
X0121214Y0217273D02*
X0106634Y0217273D01*
X0108233Y0218871D02*
X0120468Y0218871D01*
X0131500Y0226864D02*
X0143100Y0226864D01*
X0139838Y0228462D02*
X0139762Y0228462D01*
X0139762Y0230061D02*
X0139838Y0230061D01*
X0139838Y0231659D02*
X0139762Y0231659D01*
X0138998Y0233258D02*
X0140602Y0233258D01*
X0146998Y0233258D02*
X0155985Y0233258D01*
X0157615Y0233258D02*
X0165538Y0233258D01*
X0165700Y0234856D02*
X0159875Y0234856D01*
X0160384Y0236455D02*
X0165700Y0236455D01*
X0165700Y0238053D02*
X0160160Y0238053D01*
X0159017Y0239652D02*
X0165700Y0239652D01*
X0165700Y0241251D02*
X0132500Y0241251D01*
X0132500Y0242849D02*
X0165700Y0242849D01*
X0165700Y0244448D02*
X0132500Y0244448D01*
X0132500Y0246046D02*
X0165700Y0246046D01*
X0165700Y0247645D02*
X0132500Y0247645D01*
X0132500Y0249243D02*
X0165700Y0249243D01*
X0165700Y0250842D02*
X0132628Y0250842D01*
X0133465Y0252440D02*
X0163838Y0252440D01*
X0163838Y0254039D02*
X0133465Y0254039D01*
X0133500Y0255637D02*
X0163838Y0255637D01*
X0164579Y0257236D02*
X0133500Y0257236D01*
X0133500Y0258834D02*
X0164109Y0258834D01*
X0163838Y0260433D02*
X0133500Y0260433D01*
X0133500Y0262031D02*
X0163838Y0262031D01*
X0163887Y0263630D02*
X0133500Y0263630D01*
X0133233Y0265228D02*
X0165200Y0265228D01*
X0165200Y0266827D02*
X0131635Y0266827D01*
X0118500Y0268425D02*
X0165200Y0268425D01*
X0165200Y0270024D02*
X0118500Y0270024D01*
X0118500Y0271622D02*
X0165200Y0271622D01*
X0165200Y0273221D02*
X0118500Y0273221D01*
X0118500Y0274819D02*
X0165200Y0274819D01*
X0165200Y0276418D02*
X0118500Y0276418D01*
X0118500Y0278016D02*
X0165200Y0278016D01*
X0165200Y0279615D02*
X0118500Y0279615D01*
X0118500Y0281213D02*
X0165200Y0281213D01*
X0165200Y0282812D02*
X0118500Y0282812D01*
X0118500Y0284410D02*
X0165200Y0284410D01*
X0165200Y0286009D02*
X0119370Y0286009D01*
X0120969Y0287607D02*
X0122245Y0287607D01*
X0124355Y0287607D02*
X0165200Y0287607D01*
X0165200Y0289206D02*
X0152525Y0289206D01*
X0153664Y0290804D02*
X0165585Y0290804D01*
X0167183Y0292403D02*
X0153884Y0292403D01*
X0153371Y0294001D02*
X0205216Y0294001D01*
X0205355Y0295600D02*
X0151096Y0295600D01*
X0149504Y0295600D02*
X0145144Y0295600D01*
X0143546Y0297198D02*
X0206380Y0297198D01*
X0211220Y0297198D02*
X0240451Y0297198D01*
X0240826Y0297573D02*
X0239889Y0296636D01*
X0239889Y0289011D01*
X0240826Y0288074D01*
X0244794Y0288074D01*
X0244794Y0280026D01*
X0241826Y0280026D01*
X0240889Y0279089D01*
X0240889Y0271464D01*
X0241826Y0270527D01*
X0254963Y0270527D01*
X0255900Y0271464D01*
X0255900Y0279089D01*
X0254963Y0280026D01*
X0251994Y0280026D01*
X0251994Y0288074D01*
X0253963Y0288074D01*
X0254900Y0289011D01*
X0254900Y0296636D01*
X0253963Y0297573D01*
X0240826Y0297573D01*
X0239889Y0295600D02*
X0212245Y0295600D01*
X0212384Y0294001D02*
X0239889Y0294001D01*
X0239889Y0292403D02*
X0211722Y0292403D01*
X0209880Y0290804D02*
X0239889Y0290804D01*
X0239889Y0289206D02*
X0209880Y0289206D01*
X0210080Y0287607D02*
X0244794Y0287607D01*
X0244794Y0286009D02*
X0220334Y0286009D01*
X0220368Y0284410D02*
X0244794Y0284410D01*
X0244794Y0282812D02*
X0220368Y0282812D01*
X0220368Y0281213D02*
X0244794Y0281213D01*
X0241415Y0279615D02*
X0220035Y0279615D01*
X0220368Y0278016D02*
X0240889Y0278016D01*
X0240889Y0276418D02*
X0220368Y0276418D01*
X0220368Y0274819D02*
X0240889Y0274819D01*
X0240889Y0273221D02*
X0220241Y0273221D01*
X0221839Y0271622D02*
X0240889Y0271622D01*
X0241826Y0262073D02*
X0240889Y0261136D01*
X0240889Y0260924D01*
X0240858Y0260924D01*
X0239534Y0260376D01*
X0235748Y0256589D01*
X0235200Y0255266D01*
X0235200Y0253834D01*
X0235748Y0252511D01*
X0236761Y0251498D01*
X0238084Y0250950D01*
X0239516Y0250950D01*
X0240839Y0251498D01*
X0241915Y0252574D01*
X0246194Y0252574D01*
X0246194Y0251044D01*
X0249100Y0248139D01*
X0250389Y0246850D01*
X0254082Y0246850D01*
X0254082Y0246275D01*
X0254331Y0246026D01*
X0241826Y0246026D01*
X0240889Y0245089D01*
X0240889Y0237464D01*
X0241826Y0236527D01*
X0254963Y0236527D01*
X0255900Y0237464D01*
X0255900Y0245089D01*
X0255651Y0245338D01*
X0259494Y0245338D01*
X0260431Y0246275D01*
X0260431Y0252325D01*
X0259494Y0253262D01*
X0255651Y0253262D01*
X0255900Y0253511D01*
X0255900Y0261136D01*
X0254963Y0262073D01*
X0241826Y0262073D01*
X0241784Y0262031D02*
X0223500Y0262031D01*
X0223500Y0260433D02*
X0239672Y0260433D01*
X0237993Y0258834D02*
X0223500Y0258834D01*
X0223500Y0257236D02*
X0236394Y0257236D01*
X0235354Y0255637D02*
X0223500Y0255637D01*
X0223500Y0254039D02*
X0235200Y0254039D01*
X0235819Y0252440D02*
X0223500Y0252440D01*
X0223500Y0250842D02*
X0246397Y0250842D01*
X0246194Y0252440D02*
X0241781Y0252440D01*
X0247996Y0249243D02*
X0223500Y0249243D01*
X0223500Y0247645D02*
X0249594Y0247645D01*
X0254311Y0246046D02*
X0223500Y0246046D01*
X0223500Y0244448D02*
X0240889Y0244448D01*
X0240889Y0242849D02*
X0223500Y0242849D01*
X0225168Y0241251D02*
X0240889Y0241251D01*
X0240889Y0239652D02*
X0225884Y0239652D01*
X0225767Y0238053D02*
X0240889Y0238053D01*
X0236085Y0231659D02*
X0274752Y0231659D01*
X0274752Y0231500D02*
X0262502Y0231500D01*
X0262502Y0222563D01*
X0262625Y0222105D01*
X0262862Y0221695D01*
X0263197Y0221360D01*
X0263607Y0221123D01*
X0264065Y0221000D01*
X0274752Y0221000D01*
X0274752Y0231500D01*
X0274752Y0230061D02*
X0276352Y0230061D01*
X0276352Y0228462D02*
X0274752Y0228462D01*
X0274752Y0226864D02*
X0276352Y0226864D01*
X0276352Y0225265D02*
X0274752Y0225265D01*
X0274752Y0223667D02*
X0276352Y0223667D01*
X0276352Y0222068D02*
X0274752Y0222068D01*
X0274752Y0233258D02*
X0276352Y0233258D01*
X0276352Y0234856D02*
X0274752Y0234856D01*
X0274752Y0236455D02*
X0276352Y0236455D01*
X0276352Y0238053D02*
X0274752Y0238053D01*
X0274752Y0239652D02*
X0276352Y0239652D01*
X0276352Y0241251D02*
X0274752Y0241251D01*
X0274752Y0242849D02*
X0276352Y0242849D01*
X0275835Y0245138D02*
X0278053Y0245138D01*
X0278053Y0248919D01*
X0278815Y0248919D01*
X0278815Y0249681D01*
X0282596Y0249681D01*
X0282596Y0251899D01*
X0282473Y0252357D01*
X0282236Y0252767D01*
X0281901Y0253103D01*
X0281491Y0253340D01*
X0281033Y0253462D01*
X0278815Y0253462D01*
X0278815Y0249681D01*
X0278053Y0249681D01*
X0278053Y0253462D01*
X0275835Y0253462D01*
X0275377Y0253340D01*
X0274966Y0253103D01*
X0274631Y0252767D01*
X0274394Y0252357D01*
X0274272Y0251899D01*
X0274272Y0249681D01*
X0278053Y0249681D01*
X0278053Y0248919D01*
X0274272Y0248919D01*
X0274272Y0246701D01*
X0274394Y0246243D01*
X0274631Y0245833D01*
X0274966Y0245497D01*
X0275377Y0245260D01*
X0275835Y0245138D01*
X0274508Y0246046D02*
X0273899Y0246046D01*
X0274128Y0246275D02*
X0274128Y0252325D01*
X0273191Y0253262D01*
X0267141Y0253262D01*
X0266861Y0252982D01*
X0266581Y0253262D01*
X0262106Y0253262D01*
X0261169Y0252325D01*
X0261169Y0246275D01*
X0262106Y0245338D01*
X0266581Y0245338D01*
X0266861Y0245618D01*
X0267141Y0245338D01*
X0273191Y0245338D01*
X0274128Y0246275D01*
X0274128Y0247645D02*
X0274272Y0247645D01*
X0274128Y0249243D02*
X0278053Y0249243D01*
X0278815Y0249243D02*
X0286250Y0249243D01*
X0286250Y0247645D02*
X0282596Y0247645D01*
X0282596Y0246701D02*
X0282596Y0248919D01*
X0278815Y0248919D01*
X0278815Y0245138D01*
X0281033Y0245138D01*
X0281491Y0245260D01*
X0281901Y0245497D01*
X0282236Y0245833D01*
X0282473Y0246243D01*
X0282596Y0246701D01*
X0282360Y0246046D02*
X0286250Y0246046D01*
X0286250Y0244448D02*
X0255900Y0244448D01*
X0255900Y0242849D02*
X0262829Y0242849D01*
X0262502Y0241251D02*
X0255900Y0241251D01*
X0255900Y0239652D02*
X0262502Y0239652D01*
X0262502Y0238053D02*
X0255900Y0238053D01*
X0262502Y0236455D02*
X0224774Y0236455D01*
X0219826Y0236455D02*
X0219274Y0236455D01*
X0213826Y0236455D02*
X0203200Y0236455D01*
X0203200Y0238053D02*
X0212980Y0238053D01*
X0213023Y0239652D02*
X0203200Y0239652D01*
X0203200Y0241251D02*
X0213932Y0241251D01*
X0214254Y0242849D02*
X0203200Y0242849D01*
X0203200Y0244448D02*
X0214254Y0244448D01*
X0214254Y0246046D02*
X0203200Y0246046D01*
X0203200Y0247645D02*
X0214254Y0247645D01*
X0214254Y0249243D02*
X0203200Y0249243D01*
X0203200Y0250842D02*
X0214254Y0250842D01*
X0213417Y0252440D02*
X0203200Y0252440D01*
X0203200Y0254039D02*
X0212731Y0254039D01*
X0212731Y0255637D02*
X0203200Y0255637D01*
X0203200Y0257236D02*
X0212731Y0257236D01*
X0212784Y0258834D02*
X0203200Y0258834D01*
X0198400Y0258834D02*
X0178741Y0258834D01*
X0178762Y0260433D02*
X0186848Y0260433D01*
X0186216Y0262031D02*
X0178762Y0262031D01*
X0178463Y0263630D02*
X0186368Y0263630D01*
X0187409Y0265228D02*
X0176400Y0265228D01*
X0177047Y0266827D02*
X0192220Y0266827D01*
X0192191Y0265228D02*
X0192220Y0265228D01*
X0196182Y0266300D02*
X0200550Y0266300D01*
X0200800Y0266550D01*
X0200800Y0231050D01*
X0201300Y0230550D01*
X0233800Y0230550D01*
X0236300Y0228050D01*
X0236300Y0208050D01*
X0240300Y0204050D01*
X0248800Y0204050D01*
X0248800Y0189765D01*
X0250300Y0188265D01*
X0254794Y0188500D02*
X0286250Y0188500D01*
X0286250Y0190098D02*
X0254794Y0190098D01*
X0254524Y0191697D02*
X0286250Y0191697D01*
X0286250Y0193295D02*
X0284554Y0193295D01*
X0284596Y0193451D02*
X0284596Y0195669D01*
X0280815Y0195669D01*
X0280815Y0196431D01*
X0284596Y0196431D01*
X0284596Y0198649D01*
X0284473Y0199107D01*
X0284254Y0199487D01*
X0284641Y0199710D01*
X0284977Y0200045D01*
X0285214Y0200456D01*
X0285336Y0200913D01*
X0285336Y0203525D01*
X0280571Y0203525D01*
X0280571Y0205075D01*
X0279021Y0205075D01*
X0279021Y0203525D01*
X0274256Y0203525D01*
X0274256Y0200913D01*
X0274379Y0200456D01*
X0274616Y0200045D01*
X0274649Y0200012D01*
X0271669Y0200012D01*
X0272144Y0200488D01*
X0272144Y0208112D01*
X0271207Y0209050D01*
X0262401Y0209050D01*
X0261464Y0208112D01*
X0261464Y0200488D01*
X0262189Y0199762D01*
X0262106Y0199762D01*
X0261169Y0198825D01*
X0261169Y0197543D01*
X0260743Y0196516D01*
X0260743Y0195084D01*
X0261169Y0194057D01*
X0261169Y0192775D01*
X0262106Y0191838D01*
X0266581Y0191838D01*
X0266943Y0192200D01*
X0269029Y0192200D01*
X0269141Y0192088D01*
X0275191Y0192088D01*
X0276128Y0193025D01*
X0276128Y0199075D01*
X0275853Y0199350D01*
X0276535Y0199350D01*
X0276394Y0199107D01*
X0276272Y0198649D01*
X0276272Y0196431D01*
X0280053Y0196431D01*
X0280053Y0200212D01*
X0279021Y0200212D01*
X0279021Y0203525D01*
X0280571Y0203525D01*
X0280571Y0199350D01*
X0280815Y0199350D01*
X0280815Y0196431D01*
X0280053Y0196431D01*
X0280053Y0195669D01*
X0280815Y0195669D01*
X0280815Y0191888D01*
X0283033Y0191888D01*
X0283491Y0192010D01*
X0283901Y0192247D01*
X0284236Y0192583D01*
X0284473Y0192993D01*
X0284596Y0193451D01*
X0284596Y0194894D02*
X0286250Y0194894D01*
X0286250Y0196492D02*
X0284596Y0196492D01*
X0284596Y0198091D02*
X0286250Y0198091D01*
X0286250Y0199689D02*
X0284605Y0199689D01*
X0285336Y0201288D02*
X0286250Y0201288D01*
X0286250Y0202886D02*
X0285336Y0202886D01*
X0286250Y0204485D02*
X0280571Y0204485D01*
X0280571Y0205075D02*
X0285336Y0205075D01*
X0285336Y0207687D01*
X0285214Y0208144D01*
X0284977Y0208555D01*
X0284641Y0208890D01*
X0284231Y0209127D01*
X0283773Y0209250D01*
X0280571Y0209250D01*
X0280571Y0205075D01*
X0280571Y0206083D02*
X0279021Y0206083D01*
X0279021Y0205075D02*
X0279021Y0209250D01*
X0275819Y0209250D01*
X0275361Y0209127D01*
X0274951Y0208890D01*
X0274616Y0208555D01*
X0274379Y0208144D01*
X0274256Y0207687D01*
X0274256Y0205075D01*
X0279021Y0205075D01*
X0279021Y0204485D02*
X0272144Y0204485D01*
X0272144Y0206083D02*
X0274256Y0206083D01*
X0274256Y0207682D02*
X0272144Y0207682D01*
X0272144Y0202886D02*
X0274256Y0202886D01*
X0274256Y0201288D02*
X0272144Y0201288D01*
X0276128Y0198091D02*
X0276272Y0198091D01*
X0276272Y0196492D02*
X0276128Y0196492D01*
X0276272Y0195669D02*
X0276272Y0193451D01*
X0276394Y0192993D01*
X0276631Y0192583D01*
X0276966Y0192247D01*
X0277377Y0192010D01*
X0277835Y0191888D01*
X0280053Y0191888D01*
X0280053Y0195669D01*
X0276272Y0195669D01*
X0276272Y0194894D02*
X0276128Y0194894D01*
X0276128Y0193295D02*
X0276313Y0193295D01*
X0280053Y0193295D02*
X0280815Y0193295D01*
X0280815Y0194894D02*
X0280053Y0194894D01*
X0280053Y0196492D02*
X0280815Y0196492D01*
X0280815Y0198091D02*
X0280053Y0198091D01*
X0280053Y0199689D02*
X0280571Y0199689D01*
X0280571Y0201288D02*
X0279021Y0201288D01*
X0279021Y0202886D02*
X0280571Y0202886D01*
X0280571Y0207682D02*
X0279021Y0207682D01*
X0285336Y0207682D02*
X0286250Y0207682D01*
X0286250Y0209280D02*
X0238700Y0209280D01*
X0238700Y0210879D02*
X0286250Y0210879D01*
X0286250Y0212477D02*
X0238700Y0212477D01*
X0238700Y0214076D02*
X0286250Y0214076D01*
X0286250Y0215674D02*
X0238700Y0215674D01*
X0238700Y0217273D02*
X0286250Y0217273D01*
X0286250Y0218871D02*
X0255260Y0218871D01*
X0254963Y0218574D02*
X0255900Y0219511D01*
X0255900Y0227136D01*
X0254963Y0228073D01*
X0241826Y0228073D01*
X0240889Y0227136D01*
X0240889Y0219511D01*
X0241826Y0218574D01*
X0254963Y0218574D01*
X0255900Y0220470D02*
X0286250Y0220470D01*
X0286250Y0206083D02*
X0285336Y0206083D01*
X0282773Y0188356D02*
X0280358Y0188356D01*
X0280358Y0184378D01*
X0279202Y0184378D01*
X0279202Y0183222D01*
X0275224Y0183222D01*
X0275224Y0180807D01*
X0275347Y0180349D01*
X0275584Y0179939D01*
X0275919Y0179604D01*
X0276330Y0179367D01*
X0276787Y0179244D01*
X0279202Y0179244D01*
X0279202Y0183222D01*
X0280358Y0183222D01*
X0280358Y0179244D01*
X0282773Y0179244D01*
X0283231Y0179367D01*
X0283641Y0179604D01*
X0283977Y0179939D01*
X0284214Y0180349D01*
X0284336Y0180807D01*
X0284336Y0183222D01*
X0280358Y0183222D01*
X0280358Y0184378D01*
X0284336Y0184378D01*
X0284336Y0186793D01*
X0284214Y0187251D01*
X0283977Y0187661D01*
X0283641Y0187996D01*
X0283231Y0188233D01*
X0282773Y0188356D01*
X0284307Y0186901D02*
X0286250Y0186901D01*
X0286250Y0185303D02*
X0284336Y0185303D01*
X0286250Y0183704D02*
X0280358Y0183704D01*
X0279202Y0183704D02*
X0269176Y0183704D01*
X0269176Y0182106D02*
X0275224Y0182106D01*
X0275305Y0180507D02*
X0269176Y0180507D01*
X0269176Y0180381D02*
X0268238Y0179444D01*
X0264357Y0179444D01*
X0264357Y0166084D01*
X0263931Y0165057D01*
X0263931Y0163775D01*
X0262994Y0162838D01*
X0258519Y0162838D01*
X0258157Y0163200D01*
X0254262Y0163200D01*
X0254262Y0160606D01*
X0253325Y0159669D01*
X0252043Y0159669D01*
X0251153Y0159300D01*
X0252043Y0158931D01*
X0253325Y0158931D01*
X0254262Y0157994D01*
X0254262Y0153519D01*
X0253900Y0153157D01*
X0253900Y0129241D01*
X0254761Y0130102D01*
X0256084Y0130650D01*
X0257516Y0130650D01*
X0258839Y0130102D01*
X0259852Y0129089D01*
X0260400Y0127766D01*
X0260400Y0101334D01*
X0259852Y0100011D01*
X0244022Y0084181D01*
X0246455Y0085189D01*
X0250382Y0085189D01*
X0254009Y0083686D01*
X0256786Y0080909D01*
X0258289Y0077281D01*
X0258289Y0073354D01*
X0256786Y0069726D01*
X0254009Y0066950D01*
X0250872Y0065650D01*
X0264809Y0065650D01*
X0275950Y0076791D01*
X0275950Y0095516D01*
X0276200Y0096120D01*
X0276200Y0153157D01*
X0275838Y0153519D01*
X0275838Y0157994D01*
X0276775Y0158931D01*
X0278057Y0158931D01*
X0279084Y0159357D01*
X0280516Y0159357D01*
X0281543Y0158931D01*
X0282825Y0158931D01*
X0283762Y0157994D01*
X0283762Y0153519D01*
X0283400Y0153157D01*
X0283400Y0090686D01*
X0283150Y0090083D01*
X0283150Y0074584D01*
X0282602Y0073261D01*
X0281589Y0072248D01*
X0268339Y0058998D01*
X0267016Y0058450D01*
X0234584Y0058450D01*
X0233261Y0058998D01*
X0232248Y0060011D01*
X0229045Y0063214D01*
X0210147Y0063214D01*
X0209538Y0062604D01*
X0208028Y0061979D01*
X0208708Y0061758D01*
X0209432Y0061389D01*
X0210090Y0060911D01*
X0210665Y0060336D01*
X0211143Y0059678D01*
X0211512Y0058954D01*
X0211763Y0058181D01*
X0211891Y0057378D01*
X0211891Y0057254D01*
X0207008Y0057254D01*
X0207008Y0056689D01*
X0211891Y0056689D01*
X0211891Y0056565D01*
X0211763Y0055762D01*
X0211512Y0054988D01*
X0211143Y0054264D01*
X0210665Y0053606D01*
X0210090Y0053031D01*
X0209432Y0052553D01*
X0208708Y0052184D01*
X0207935Y0051933D01*
X0207132Y0051806D01*
X0207008Y0051806D01*
X0207008Y0056688D01*
X0206442Y0056688D01*
X0206442Y0051806D01*
X0206319Y0051806D01*
X0205516Y0051933D01*
X0204742Y0052184D01*
X0204018Y0052553D01*
X0203360Y0053031D01*
X0202785Y0053606D01*
X0202307Y0054264D01*
X0201938Y0054988D01*
X0201687Y0055762D01*
X0201560Y0056565D01*
X0201560Y0056689D01*
X0206442Y0056689D01*
X0206442Y0057254D01*
X0201560Y0057254D01*
X0201560Y0057378D01*
X0201687Y0058181D01*
X0201938Y0058954D01*
X0202307Y0059678D01*
X0202785Y0060336D01*
X0203360Y0060911D01*
X0204018Y0061389D01*
X0204742Y0061758D01*
X0205422Y0061979D01*
X0203913Y0062604D01*
X0202516Y0064001D01*
X0201760Y0065826D01*
X0201760Y0067801D01*
X0202516Y0069626D01*
X0203913Y0071023D01*
X0205631Y0071735D01*
X0203913Y0072447D01*
X0202516Y0073844D01*
X0201760Y0075669D01*
X0201760Y0077644D01*
X0202516Y0079469D01*
X0203913Y0080866D01*
X0205631Y0081578D01*
X0203913Y0082289D01*
X0202516Y0083686D01*
X0201760Y0085511D01*
X0201760Y0087486D01*
X0202516Y0089311D01*
X0203125Y0089921D01*
X0203125Y0092191D01*
X0203673Y0093514D01*
X0212248Y0102089D01*
X0213261Y0103102D01*
X0214584Y0103650D01*
X0245809Y0103650D01*
X0246700Y0104541D01*
X0246700Y0153157D01*
X0246338Y0153519D01*
X0246338Y0157994D01*
X0247275Y0158931D01*
X0248557Y0158931D01*
X0249447Y0159300D01*
X0248557Y0159669D01*
X0247275Y0159669D01*
X0246338Y0160606D01*
X0246338Y0165081D01*
X0246700Y0165443D01*
X0246700Y0167279D01*
X0245806Y0168173D01*
X0245806Y0174498D01*
X0246744Y0175435D01*
X0253856Y0175435D01*
X0254794Y0174498D01*
X0254794Y0170400D01*
X0257157Y0170400D01*
X0257157Y0183709D01*
X0257146Y0184397D01*
X0257157Y0184424D01*
X0257157Y0184453D01*
X0257420Y0185089D01*
X0257674Y0185729D01*
X0257694Y0185749D01*
X0257705Y0185776D01*
X0258191Y0186263D01*
X0258670Y0186757D01*
X0258697Y0186768D01*
X0258717Y0186789D01*
X0259353Y0187052D01*
X0259985Y0187325D01*
X0260014Y0187326D01*
X0260041Y0187337D01*
X0260582Y0187337D01*
X0261401Y0188156D01*
X0268238Y0188156D01*
X0269176Y0187219D01*
X0269176Y0180381D01*
X0269176Y0185303D02*
X0275224Y0185303D01*
X0275224Y0184378D02*
X0279202Y0184378D01*
X0279202Y0188356D01*
X0276787Y0188356D01*
X0276330Y0188233D01*
X0275919Y0187996D01*
X0275584Y0187661D01*
X0275347Y0187251D01*
X0275224Y0186793D01*
X0275224Y0184378D01*
X0275253Y0186901D02*
X0269176Y0186901D01*
X0264357Y0178909D02*
X0286250Y0178909D01*
X0286250Y0180507D02*
X0284256Y0180507D01*
X0284336Y0182106D02*
X0286250Y0182106D01*
X0286250Y0177310D02*
X0264357Y0177310D01*
X0264357Y0175712D02*
X0286250Y0175712D01*
X0286250Y0174113D02*
X0264357Y0174113D01*
X0264357Y0172515D02*
X0286250Y0172515D01*
X0286250Y0170916D02*
X0269827Y0170916D01*
X0269655Y0170962D02*
X0267843Y0170962D01*
X0266032Y0170962D01*
X0265574Y0170840D01*
X0265163Y0170603D01*
X0264828Y0170267D01*
X0264591Y0169857D01*
X0264469Y0169399D01*
X0264468Y0166800D01*
X0267843Y0166800D01*
X0267843Y0166800D01*
X0264469Y0166800D01*
X0264469Y0164201D01*
X0264591Y0163743D01*
X0264828Y0163333D01*
X0265163Y0162997D01*
X0265574Y0162760D01*
X0266032Y0162638D01*
X0267843Y0162638D01*
X0267843Y0166800D01*
X0267843Y0170962D01*
X0267843Y0166800D01*
X0267843Y0166800D01*
X0267843Y0166800D01*
X0267843Y0162638D01*
X0269655Y0162638D01*
X0270113Y0162760D01*
X0270523Y0162997D01*
X0270858Y0163333D01*
X0271095Y0163743D01*
X0271218Y0164201D01*
X0271218Y0166800D01*
X0271218Y0169399D01*
X0271095Y0169857D01*
X0270858Y0170267D01*
X0270523Y0170603D01*
X0270113Y0170840D01*
X0269655Y0170962D01*
X0267843Y0170916D02*
X0267843Y0170916D01*
X0267843Y0169318D02*
X0267843Y0169318D01*
X0267843Y0167719D02*
X0267843Y0167719D01*
X0267843Y0166800D02*
X0271218Y0166800D01*
X0267843Y0166800D01*
X0267843Y0166800D01*
X0267843Y0166120D02*
X0267843Y0166120D01*
X0267843Y0164522D02*
X0267843Y0164522D01*
X0267843Y0162923D02*
X0267843Y0162923D01*
X0265291Y0162923D02*
X0263080Y0162923D01*
X0263931Y0164522D02*
X0264469Y0164522D01*
X0264469Y0166120D02*
X0264357Y0166120D01*
X0264357Y0167719D02*
X0264469Y0167719D01*
X0264469Y0169318D02*
X0264357Y0169318D01*
X0264357Y0170916D02*
X0265859Y0170916D01*
X0271218Y0169318D02*
X0286250Y0169318D01*
X0286250Y0167719D02*
X0271218Y0167719D01*
X0271218Y0166120D02*
X0276837Y0166120D01*
X0276743Y0166095D02*
X0276333Y0165858D01*
X0275997Y0165523D01*
X0275760Y0165113D01*
X0275638Y0164655D01*
X0275638Y0162843D01*
X0275638Y0161032D01*
X0275760Y0160574D01*
X0275997Y0160163D01*
X0276333Y0159828D01*
X0276743Y0159591D01*
X0277201Y0159469D01*
X0279800Y0159468D01*
X0279800Y0162843D01*
X0279800Y0159469D01*
X0282399Y0159469D01*
X0282857Y0159591D01*
X0283267Y0159828D01*
X0283603Y0160163D01*
X0283840Y0160574D01*
X0283962Y0161032D01*
X0283962Y0162843D01*
X0279800Y0162843D01*
X0279800Y0162843D01*
X0279800Y0162843D01*
X0275638Y0162843D01*
X0279800Y0162843D01*
X0279800Y0162843D01*
X0283962Y0162843D01*
X0283962Y0164655D01*
X0283840Y0165113D01*
X0283603Y0165523D01*
X0283267Y0165858D01*
X0282857Y0166095D01*
X0282399Y0166218D01*
X0279800Y0166218D01*
X0279800Y0162843D01*
X0279800Y0166218D01*
X0277201Y0166218D01*
X0276743Y0166095D01*
X0275638Y0164522D02*
X0271218Y0164522D01*
X0270395Y0162923D02*
X0275638Y0162923D01*
X0275638Y0161325D02*
X0254262Y0161325D01*
X0254262Y0162923D02*
X0258433Y0162923D01*
X0253383Y0159726D02*
X0276509Y0159726D01*
X0275971Y0158128D02*
X0254128Y0158128D01*
X0254262Y0156529D02*
X0275838Y0156529D01*
X0275838Y0154931D02*
X0254262Y0154931D01*
X0254075Y0153332D02*
X0276025Y0153332D01*
X0276200Y0151734D02*
X0253900Y0151734D01*
X0253900Y0150135D02*
X0276200Y0150135D01*
X0276200Y0148537D02*
X0253900Y0148537D01*
X0253900Y0146938D02*
X0276200Y0146938D01*
X0276200Y0145340D02*
X0253900Y0145340D01*
X0253900Y0143741D02*
X0276200Y0143741D01*
X0276200Y0142143D02*
X0253900Y0142143D01*
X0253900Y0140544D02*
X0276200Y0140544D01*
X0276200Y0138946D02*
X0253900Y0138946D01*
X0253900Y0137347D02*
X0276200Y0137347D01*
X0276200Y0135749D02*
X0253900Y0135749D01*
X0253900Y0134150D02*
X0276200Y0134150D01*
X0276200Y0132552D02*
X0253900Y0132552D01*
X0253900Y0130953D02*
X0276200Y0130953D01*
X0276200Y0129355D02*
X0259586Y0129355D01*
X0260400Y0127756D02*
X0276200Y0127756D01*
X0276200Y0126158D02*
X0260400Y0126158D01*
X0260400Y0124559D02*
X0276200Y0124559D01*
X0276200Y0122961D02*
X0260400Y0122961D01*
X0260400Y0121362D02*
X0276200Y0121362D01*
X0276200Y0119764D02*
X0260400Y0119764D01*
X0260400Y0118165D02*
X0276200Y0118165D01*
X0276200Y0116567D02*
X0260400Y0116567D01*
X0260400Y0114968D02*
X0276200Y0114968D01*
X0276200Y0113370D02*
X0260400Y0113370D01*
X0260400Y0111771D02*
X0276200Y0111771D01*
X0276200Y0110173D02*
X0260400Y0110173D01*
X0260400Y0108574D02*
X0276200Y0108574D01*
X0276200Y0106976D02*
X0260400Y0106976D01*
X0260400Y0105377D02*
X0276200Y0105377D01*
X0276200Y0103779D02*
X0260400Y0103779D01*
X0260400Y0102180D02*
X0276200Y0102180D01*
X0276200Y0100582D02*
X0260088Y0100582D01*
X0258824Y0098983D02*
X0276200Y0098983D01*
X0276200Y0097384D02*
X0257226Y0097384D01*
X0255627Y0095786D02*
X0276062Y0095786D01*
X0275950Y0094187D02*
X0254029Y0094187D01*
X0252430Y0092589D02*
X0275950Y0092589D01*
X0275950Y0090990D02*
X0250832Y0090990D01*
X0249233Y0089392D02*
X0275950Y0089392D01*
X0275950Y0087793D02*
X0247635Y0087793D01*
X0246036Y0086195D02*
X0275950Y0086195D01*
X0275950Y0084596D02*
X0251811Y0084596D01*
X0254697Y0082998D02*
X0275950Y0082998D01*
X0275950Y0081399D02*
X0256296Y0081399D01*
X0257245Y0079801D02*
X0275950Y0079801D01*
X0275950Y0078202D02*
X0257907Y0078202D01*
X0258289Y0076604D02*
X0275763Y0076604D01*
X0274164Y0075005D02*
X0258289Y0075005D01*
X0258289Y0073407D02*
X0272566Y0073407D01*
X0270967Y0071808D02*
X0257649Y0071808D01*
X0256986Y0070210D02*
X0269369Y0070210D01*
X0267770Y0068611D02*
X0255671Y0068611D01*
X0254073Y0067013D02*
X0266172Y0067013D01*
X0271558Y0062217D02*
X0286250Y0062217D01*
X0286250Y0060619D02*
X0269960Y0060619D01*
X0268361Y0059020D02*
X0286250Y0059020D01*
X0286250Y0057422D02*
X0211884Y0057422D01*
X0211773Y0055823D02*
X0256982Y0055823D01*
X0255384Y0054225D02*
X0211114Y0054225D01*
X0209533Y0052626D02*
X0253785Y0052626D01*
X0252187Y0051028D02*
X0152051Y0051028D01*
X0152051Y0052626D02*
X0156209Y0052626D01*
X0154457Y0054225D02*
X0153088Y0054225D01*
X0153750Y0055823D02*
X0153795Y0055823D01*
X0152051Y0049429D02*
X0250588Y0049429D01*
X0255975Y0044634D02*
X0286250Y0044634D01*
X0286250Y0046232D02*
X0257573Y0046232D01*
X0259172Y0047831D02*
X0286250Y0047831D01*
X0286250Y0049429D02*
X0260770Y0049429D01*
X0262359Y0051028D02*
X0286250Y0051028D01*
X0286250Y0052626D02*
X0262900Y0052626D01*
X0262710Y0054225D02*
X0286250Y0054225D01*
X0286250Y0055823D02*
X0261618Y0055823D01*
X0273157Y0063816D02*
X0286250Y0063816D01*
X0286250Y0065414D02*
X0274755Y0065414D01*
X0276354Y0067013D02*
X0286250Y0067013D01*
X0286250Y0068611D02*
X0277952Y0068611D01*
X0279551Y0070210D02*
X0286250Y0070210D01*
X0286250Y0071808D02*
X0281149Y0071808D01*
X0282662Y0073407D02*
X0286250Y0073407D01*
X0286250Y0075005D02*
X0283150Y0075005D01*
X0283150Y0076604D02*
X0286250Y0076604D01*
X0286250Y0078202D02*
X0283150Y0078202D01*
X0283150Y0079801D02*
X0286250Y0079801D01*
X0286250Y0081399D02*
X0283150Y0081399D01*
X0283150Y0082998D02*
X0286250Y0082998D01*
X0286250Y0084596D02*
X0283150Y0084596D01*
X0283150Y0086195D02*
X0286250Y0086195D01*
X0286250Y0087793D02*
X0283150Y0087793D01*
X0283150Y0089392D02*
X0286250Y0089392D01*
X0286250Y0090990D02*
X0283400Y0090990D01*
X0283400Y0092589D02*
X0286250Y0092589D01*
X0286250Y0094187D02*
X0283400Y0094187D01*
X0283400Y0095786D02*
X0286250Y0095786D01*
X0286250Y0097384D02*
X0283400Y0097384D01*
X0283400Y0098983D02*
X0286250Y0098983D01*
X0286250Y0100582D02*
X0283400Y0100582D01*
X0283400Y0102180D02*
X0286250Y0102180D01*
X0286250Y0103779D02*
X0283400Y0103779D01*
X0283400Y0105377D02*
X0286250Y0105377D01*
X0286250Y0106976D02*
X0283400Y0106976D01*
X0283400Y0108574D02*
X0286250Y0108574D01*
X0286250Y0110173D02*
X0283400Y0110173D01*
X0283400Y0111771D02*
X0286250Y0111771D01*
X0286250Y0113370D02*
X0283400Y0113370D01*
X0283400Y0114968D02*
X0286250Y0114968D01*
X0286250Y0116567D02*
X0283400Y0116567D01*
X0283400Y0118165D02*
X0286250Y0118165D01*
X0286250Y0119764D02*
X0283400Y0119764D01*
X0283400Y0121362D02*
X0286250Y0121362D01*
X0286250Y0122961D02*
X0283400Y0122961D01*
X0283400Y0124559D02*
X0286250Y0124559D01*
X0286250Y0126158D02*
X0283400Y0126158D01*
X0283400Y0127756D02*
X0286250Y0127756D01*
X0286250Y0129355D02*
X0283400Y0129355D01*
X0283400Y0130953D02*
X0286250Y0130953D01*
X0286250Y0132552D02*
X0283400Y0132552D01*
X0283400Y0134150D02*
X0286250Y0134150D01*
X0286250Y0135749D02*
X0283400Y0135749D01*
X0283400Y0137347D02*
X0286250Y0137347D01*
X0286250Y0138946D02*
X0283400Y0138946D01*
X0283400Y0140544D02*
X0286250Y0140544D01*
X0286250Y0142143D02*
X0283400Y0142143D01*
X0283400Y0143741D02*
X0286250Y0143741D01*
X0286250Y0145340D02*
X0283400Y0145340D01*
X0283400Y0146938D02*
X0286250Y0146938D01*
X0286250Y0148537D02*
X0283400Y0148537D01*
X0283400Y0150135D02*
X0286250Y0150135D01*
X0286250Y0151734D02*
X0283400Y0151734D01*
X0283575Y0153332D02*
X0286250Y0153332D01*
X0286250Y0154931D02*
X0283762Y0154931D01*
X0283762Y0156529D02*
X0286250Y0156529D01*
X0286250Y0158128D02*
X0283628Y0158128D01*
X0283091Y0159726D02*
X0286250Y0159726D01*
X0286250Y0161325D02*
X0283962Y0161325D01*
X0283962Y0162923D02*
X0286250Y0162923D01*
X0286250Y0164522D02*
X0283962Y0164522D01*
X0282763Y0166120D02*
X0286250Y0166120D01*
X0279800Y0166120D02*
X0279800Y0166120D01*
X0279800Y0164522D02*
X0279800Y0164522D01*
X0279800Y0162923D02*
X0279800Y0162923D01*
X0279800Y0162843D02*
X0279800Y0162843D01*
X0279800Y0161325D02*
X0279800Y0161325D01*
X0279800Y0159726D02*
X0279800Y0159726D01*
X0280358Y0180507D02*
X0279202Y0180507D01*
X0279202Y0182106D02*
X0280358Y0182106D01*
X0280358Y0185303D02*
X0279202Y0185303D01*
X0279202Y0186901D02*
X0280358Y0186901D01*
X0261169Y0193295D02*
X0260431Y0193295D01*
X0260431Y0192775D02*
X0260431Y0198825D01*
X0259494Y0199762D01*
X0255019Y0199762D01*
X0254082Y0198825D01*
X0254082Y0192775D01*
X0255019Y0191838D01*
X0259494Y0191838D01*
X0260431Y0192775D01*
X0260431Y0194894D02*
X0260822Y0194894D01*
X0260743Y0196492D02*
X0260431Y0196492D01*
X0260431Y0198091D02*
X0261169Y0198091D01*
X0262033Y0199689D02*
X0259567Y0199689D01*
X0261464Y0201288D02*
X0251200Y0201288D01*
X0251200Y0202886D02*
X0261464Y0202886D01*
X0261464Y0204485D02*
X0251200Y0204485D01*
X0250161Y0206083D02*
X0261464Y0206083D01*
X0261464Y0207682D02*
X0240062Y0207682D01*
X0238070Y0202886D02*
X0236500Y0202886D01*
X0236500Y0201288D02*
X0246400Y0201288D01*
X0246400Y0199689D02*
X0236500Y0199689D01*
X0236500Y0198091D02*
X0246400Y0198091D01*
X0246400Y0196492D02*
X0236500Y0196492D01*
X0236500Y0194894D02*
X0246400Y0194894D01*
X0246400Y0193295D02*
X0236500Y0193295D01*
X0236500Y0191697D02*
X0246076Y0191697D01*
X0245806Y0190098D02*
X0236500Y0190098D01*
X0236500Y0188500D02*
X0245806Y0188500D01*
X0245806Y0186901D02*
X0236500Y0186901D01*
X0236500Y0185303D02*
X0245806Y0185303D01*
X0236500Y0183704D02*
X0257157Y0183704D01*
X0257157Y0182106D02*
X0236500Y0182106D01*
X0236500Y0180507D02*
X0257157Y0180507D01*
X0257157Y0178909D02*
X0236500Y0178909D01*
X0236500Y0177310D02*
X0257157Y0177310D01*
X0257157Y0175712D02*
X0236500Y0175712D01*
X0236500Y0174113D02*
X0245806Y0174113D01*
X0245806Y0172515D02*
X0236500Y0172515D01*
X0236500Y0170916D02*
X0245806Y0170916D01*
X0245806Y0169318D02*
X0236500Y0169318D01*
X0236500Y0167719D02*
X0246260Y0167719D01*
X0246700Y0166120D02*
X0236500Y0166120D01*
X0236500Y0164522D02*
X0246338Y0164522D01*
X0246338Y0162923D02*
X0236500Y0162923D01*
X0236500Y0161325D02*
X0246338Y0161325D01*
X0247217Y0159726D02*
X0236500Y0159726D01*
X0236500Y0158128D02*
X0246471Y0158128D01*
X0246338Y0156529D02*
X0236500Y0156529D01*
X0236500Y0154931D02*
X0246338Y0154931D01*
X0246525Y0153332D02*
X0236500Y0153332D01*
X0236500Y0151734D02*
X0246700Y0151734D01*
X0246700Y0150135D02*
X0236500Y0150135D01*
X0236500Y0148537D02*
X0246700Y0148537D01*
X0246700Y0146938D02*
X0236500Y0146938D01*
X0236500Y0145340D02*
X0246700Y0145340D01*
X0246700Y0143741D02*
X0236500Y0143741D01*
X0236500Y0142143D02*
X0246700Y0142143D01*
X0246700Y0140544D02*
X0236500Y0140544D01*
X0236500Y0138946D02*
X0246700Y0138946D01*
X0246700Y0137347D02*
X0236500Y0137347D01*
X0236500Y0135749D02*
X0246700Y0135749D01*
X0246700Y0134150D02*
X0236500Y0134150D01*
X0236500Y0132552D02*
X0246700Y0132552D01*
X0246700Y0130953D02*
X0236500Y0130953D01*
X0236500Y0129355D02*
X0246700Y0129355D01*
X0246700Y0127756D02*
X0236500Y0127756D01*
X0235519Y0126158D02*
X0246700Y0126158D01*
X0246700Y0124559D02*
X0233920Y0124559D01*
X0232322Y0122961D02*
X0246700Y0122961D01*
X0246700Y0121362D02*
X0230723Y0121362D01*
X0229125Y0119764D02*
X0246700Y0119764D01*
X0246700Y0118165D02*
X0227526Y0118165D01*
X0225928Y0116567D02*
X0246700Y0116567D01*
X0246700Y0114968D02*
X0224329Y0114968D01*
X0222731Y0113370D02*
X0246700Y0113370D01*
X0246700Y0111771D02*
X0221132Y0111771D01*
X0219534Y0110173D02*
X0246700Y0110173D01*
X0246700Y0108574D02*
X0199935Y0108574D01*
X0198337Y0106976D02*
X0246700Y0106976D01*
X0246700Y0105377D02*
X0196738Y0105377D01*
X0195140Y0103779D02*
X0245937Y0103779D01*
X0245025Y0084596D02*
X0244438Y0084596D01*
X0230042Y0062217D02*
X0208603Y0062217D01*
X0210383Y0060619D02*
X0231640Y0060619D01*
X0233239Y0059020D02*
X0211478Y0059020D01*
X0207008Y0055823D02*
X0206442Y0055823D01*
X0206442Y0054225D02*
X0207008Y0054225D01*
X0207008Y0052626D02*
X0206442Y0052626D01*
X0203918Y0052626D02*
X0194966Y0052626D01*
X0196547Y0054225D02*
X0202336Y0054225D01*
X0201677Y0055823D02*
X0197206Y0055823D01*
X0197317Y0057422D02*
X0201567Y0057422D01*
X0201972Y0059020D02*
X0196911Y0059020D01*
X0195816Y0060619D02*
X0203068Y0060619D01*
X0204847Y0062217D02*
X0194515Y0062217D01*
X0192441Y0062217D02*
X0191876Y0062217D01*
X0191876Y0060619D02*
X0192441Y0060619D01*
X0192441Y0059020D02*
X0191876Y0059020D01*
X0191876Y0057422D02*
X0192441Y0057422D01*
X0191876Y0056689D02*
X0186993Y0056689D01*
X0186993Y0056565D01*
X0187120Y0055762D01*
X0187371Y0054988D01*
X0187740Y0054264D01*
X0188218Y0053606D01*
X0188793Y0053031D01*
X0189451Y0052553D01*
X0190175Y0052184D01*
X0190949Y0051933D01*
X0191752Y0051806D01*
X0191876Y0051806D01*
X0191876Y0056688D01*
X0191876Y0055823D02*
X0192441Y0055823D01*
X0192441Y0054225D02*
X0191876Y0054225D01*
X0191876Y0052626D02*
X0192441Y0052626D01*
X0189351Y0052626D02*
X0181186Y0052626D01*
X0182768Y0054225D02*
X0187769Y0054225D01*
X0187110Y0055823D02*
X0183427Y0055823D01*
X0183537Y0057422D02*
X0187000Y0057422D01*
X0187405Y0059020D02*
X0183132Y0059020D01*
X0182036Y0060619D02*
X0188501Y0060619D01*
X0189802Y0062217D02*
X0180257Y0062217D01*
X0182403Y0063816D02*
X0187952Y0063816D01*
X0187182Y0065414D02*
X0183173Y0065414D01*
X0183344Y0067013D02*
X0191876Y0067013D01*
X0191876Y0067097D02*
X0191876Y0071979D01*
X0191876Y0076374D01*
X0192441Y0076374D01*
X0192441Y0067097D01*
X0191876Y0067097D01*
X0192441Y0067013D02*
X0201760Y0067013D01*
X0201930Y0065414D02*
X0197135Y0065414D01*
X0196365Y0063816D02*
X0202701Y0063816D01*
X0202095Y0068611D02*
X0197005Y0068611D01*
X0196067Y0070210D02*
X0203099Y0070210D01*
X0205454Y0071808D02*
X0193953Y0071808D01*
X0192441Y0071808D02*
X0191876Y0071808D01*
X0190363Y0071808D02*
X0186485Y0071808D01*
X0188083Y0073407D02*
X0188134Y0073407D01*
X0188249Y0070210D02*
X0184886Y0070210D01*
X0183288Y0068611D02*
X0187311Y0068611D01*
X0191876Y0068611D02*
X0192441Y0068611D01*
X0192441Y0070210D02*
X0191876Y0070210D01*
X0191876Y0073407D02*
X0192441Y0073407D01*
X0192441Y0075005D02*
X0191876Y0075005D01*
X0192441Y0076604D02*
X0201760Y0076604D01*
X0201991Y0078202D02*
X0197087Y0078202D01*
X0196258Y0079801D02*
X0202848Y0079801D01*
X0205201Y0081399D02*
X0194227Y0081399D01*
X0192441Y0081399D02*
X0191876Y0081399D01*
X0191876Y0079801D02*
X0192441Y0079801D01*
X0192441Y0078202D02*
X0191876Y0078202D01*
X0191876Y0082998D02*
X0192441Y0082998D01*
X0192441Y0084596D02*
X0191876Y0084596D01*
X0191876Y0086195D02*
X0192441Y0086195D01*
X0192441Y0087793D02*
X0191876Y0087793D01*
X0191876Y0089392D02*
X0192441Y0089392D01*
X0192441Y0090990D02*
X0191876Y0090990D01*
X0189596Y0090990D02*
X0188500Y0090990D01*
X0188500Y0092589D02*
X0203290Y0092589D01*
X0203125Y0090990D02*
X0194721Y0090990D01*
X0196441Y0089392D02*
X0202596Y0089392D01*
X0201887Y0087793D02*
X0197169Y0087793D01*
X0197324Y0086195D02*
X0201760Y0086195D01*
X0202139Y0084596D02*
X0196971Y0084596D01*
X0195962Y0082998D02*
X0203204Y0082998D01*
X0202035Y0075005D02*
X0197053Y0075005D01*
X0196182Y0073407D02*
X0202953Y0073407D01*
X0192441Y0065414D02*
X0191876Y0065414D01*
X0191876Y0063816D02*
X0192441Y0063816D01*
X0178661Y0055823D02*
X0178096Y0055823D01*
X0178096Y0054225D02*
X0178661Y0054225D01*
X0178661Y0052626D02*
X0178096Y0052626D01*
X0175571Y0052626D02*
X0171021Y0052626D01*
X0172773Y0054225D02*
X0173989Y0054225D01*
X0166051Y0052626D02*
X0161179Y0052626D01*
X0162930Y0054225D02*
X0164299Y0054225D01*
X0163637Y0055823D02*
X0163593Y0055823D01*
X0145651Y0053149D02*
X0145651Y0048650D01*
X0048791Y0048650D01*
X0035900Y0061541D01*
X0035900Y0093500D01*
X0053681Y0093500D01*
X0053261Y0093080D01*
X0052716Y0091763D01*
X0052716Y0090337D01*
X0053261Y0089020D01*
X0054100Y0088181D01*
X0054100Y0086139D01*
X0055389Y0084850D01*
X0058100Y0082139D01*
X0058100Y0082139D01*
X0059389Y0080850D01*
X0062806Y0080850D01*
X0085084Y0058572D01*
X0084831Y0057959D01*
X0084831Y0055984D01*
X0085587Y0054159D01*
X0086983Y0052762D01*
X0088808Y0052006D01*
X0090784Y0052006D01*
X0092609Y0052762D01*
X0094005Y0054159D01*
X0094717Y0055877D01*
X0095429Y0054159D01*
X0096826Y0052762D01*
X0098651Y0052006D01*
X0100626Y0052006D01*
X0102451Y0052762D01*
X0103848Y0054159D01*
X0104473Y0055668D01*
X0104694Y0054988D01*
X0105063Y0054264D01*
X0105541Y0053606D01*
X0106116Y0053031D01*
X0106774Y0052553D01*
X0107498Y0052184D01*
X0108272Y0051933D01*
X0109075Y0051806D01*
X0109198Y0051806D01*
X0109198Y0056688D01*
X0109764Y0056688D01*
X0109764Y0051806D01*
X0109888Y0051806D01*
X0110691Y0051933D01*
X0111464Y0052184D01*
X0112188Y0052553D01*
X0112846Y0053031D01*
X0113421Y0053606D01*
X0113899Y0054264D01*
X0114268Y0054988D01*
X0114402Y0055402D01*
X0114537Y0054988D01*
X0114906Y0054264D01*
X0115384Y0053606D01*
X0115959Y0053031D01*
X0116616Y0052553D01*
X0117341Y0052184D01*
X0118114Y0051933D01*
X0118917Y0051806D01*
X0119041Y0051806D01*
X0119041Y0056688D01*
X0119606Y0056688D01*
X0119606Y0051806D01*
X0119730Y0051806D01*
X0120533Y0051933D01*
X0121306Y0052184D01*
X0122031Y0052553D01*
X0122689Y0053031D01*
X0123264Y0053606D01*
X0123741Y0054264D01*
X0124111Y0054988D01*
X0124245Y0055402D01*
X0124379Y0054988D01*
X0124748Y0054264D01*
X0125226Y0053606D01*
X0125801Y0053031D01*
X0126459Y0052553D01*
X0127183Y0052184D01*
X0127957Y0051933D01*
X0128760Y0051806D01*
X0128883Y0051806D01*
X0128883Y0056688D01*
X0129449Y0056688D01*
X0129449Y0051806D01*
X0129573Y0051806D01*
X0130376Y0051933D01*
X0131149Y0052184D01*
X0131873Y0052553D01*
X0132531Y0053031D01*
X0133106Y0053606D01*
X0133584Y0054264D01*
X0133953Y0054988D01*
X0134087Y0055402D01*
X0134222Y0054988D01*
X0134591Y0054264D01*
X0135069Y0053606D01*
X0135644Y0053031D01*
X0136301Y0052553D01*
X0137026Y0052184D01*
X0137799Y0051933D01*
X0138602Y0051806D01*
X0138726Y0051806D01*
X0138726Y0056688D01*
X0139291Y0056688D01*
X0139291Y0051806D01*
X0139415Y0051806D01*
X0140218Y0051933D01*
X0140991Y0052184D01*
X0141716Y0052553D01*
X0142374Y0053031D01*
X0142949Y0053606D01*
X0143426Y0054264D01*
X0143796Y0054988D01*
X0144016Y0055668D01*
X0144642Y0054159D01*
X0145651Y0053149D01*
X0145651Y0052626D02*
X0141816Y0052626D01*
X0143398Y0054225D02*
X0144614Y0054225D01*
X0145651Y0051028D02*
X0046413Y0051028D01*
X0044815Y0052626D02*
X0087311Y0052626D01*
X0085559Y0054225D02*
X0043216Y0054225D01*
X0041618Y0055823D02*
X0084897Y0055823D01*
X0084831Y0057422D02*
X0040019Y0057422D01*
X0038421Y0059020D02*
X0084636Y0059020D01*
X0083037Y0060619D02*
X0036822Y0060619D01*
X0035900Y0062217D02*
X0081439Y0062217D01*
X0079840Y0063816D02*
X0035900Y0063816D01*
X0035900Y0065414D02*
X0045940Y0065414D01*
X0046337Y0065250D02*
X0050263Y0065250D01*
X0053891Y0066753D01*
X0056668Y0069529D01*
X0058171Y0073157D01*
X0058171Y0077084D01*
X0056668Y0080712D01*
X0053891Y0083489D01*
X0050263Y0084992D01*
X0046337Y0084992D01*
X0042709Y0083489D01*
X0039932Y0080712D01*
X0038429Y0077084D01*
X0038429Y0073157D01*
X0039932Y0069529D01*
X0042709Y0066753D01*
X0046337Y0065250D01*
X0042449Y0067013D02*
X0035900Y0067013D01*
X0035900Y0068611D02*
X0040850Y0068611D01*
X0039650Y0070210D02*
X0035900Y0070210D01*
X0035900Y0071808D02*
X0038988Y0071808D01*
X0038429Y0073407D02*
X0035900Y0073407D01*
X0035900Y0075005D02*
X0038429Y0075005D01*
X0038429Y0076604D02*
X0035900Y0076604D01*
X0035900Y0078202D02*
X0038892Y0078202D01*
X0039554Y0079801D02*
X0035900Y0079801D01*
X0035900Y0081399D02*
X0040619Y0081399D01*
X0042218Y0082998D02*
X0035900Y0082998D01*
X0035900Y0084596D02*
X0045382Y0084596D01*
X0051218Y0084596D02*
X0055642Y0084596D01*
X0055389Y0084850D02*
X0055389Y0084850D01*
X0054100Y0086195D02*
X0035900Y0086195D01*
X0035900Y0087793D02*
X0054100Y0087793D01*
X0053107Y0089392D02*
X0035900Y0089392D01*
X0035900Y0090990D02*
X0052716Y0090990D01*
X0053058Y0092589D02*
X0035900Y0092589D01*
X0049757Y0100050D02*
X0049800Y0100007D01*
X0053762Y0100582D02*
X0054100Y0100582D01*
X0054100Y0102180D02*
X0053762Y0102180D01*
X0054100Y0103779D02*
X0052623Y0103779D01*
X0053962Y0105377D02*
X0054100Y0105377D01*
X0054100Y0106976D02*
X0053962Y0106976D01*
X0049800Y0106976D02*
X0049800Y0106976D01*
X0049800Y0105377D02*
X0049800Y0105377D01*
X0049800Y0103779D02*
X0049800Y0103779D01*
X0043700Y0110173D02*
X0036534Y0110173D01*
X0037750Y0111771D02*
X0043700Y0111771D01*
X0043803Y0113370D02*
X0037750Y0113370D01*
X0037750Y0114968D02*
X0039313Y0114968D01*
X0038716Y0116567D02*
X0037750Y0116567D01*
X0037750Y0118165D02*
X0038882Y0118165D01*
X0039945Y0119764D02*
X0037750Y0119764D01*
X0037750Y0121362D02*
X0039473Y0121362D01*
X0038966Y0122961D02*
X0037750Y0122961D01*
X0037750Y0124559D02*
X0039192Y0124559D01*
X0040339Y0126158D02*
X0037750Y0126158D01*
X0037750Y0127756D02*
X0043900Y0127756D01*
X0039500Y0130953D02*
X0049875Y0130953D01*
X0049716Y0132552D02*
X0039500Y0132552D01*
X0038716Y0129355D02*
X0050926Y0129355D01*
X0058694Y0140544D02*
X0041199Y0140544D01*
X0041054Y0142143D02*
X0057096Y0142143D01*
X0055643Y0143741D02*
X0041134Y0143741D01*
X0040329Y0145340D02*
X0055643Y0145340D01*
X0055643Y0146938D02*
X0039750Y0146938D01*
X0039750Y0148537D02*
X0055643Y0148537D01*
X0055643Y0150135D02*
X0039750Y0150135D01*
X0039750Y0151734D02*
X0052785Y0151734D01*
X0052684Y0153332D02*
X0039750Y0153332D01*
X0040848Y0154931D02*
X0052684Y0154931D01*
X0052974Y0156529D02*
X0042282Y0156529D01*
X0043717Y0158128D02*
X0073700Y0158128D01*
X0075007Y0159726D02*
X0045152Y0159726D01*
X0046586Y0161325D02*
X0126964Y0161325D01*
X0125365Y0159726D02*
X0098343Y0159726D01*
X0095180Y0156950D02*
X0096850Y0155280D01*
X0096850Y0155139D01*
X0098139Y0153850D01*
X0099166Y0153850D01*
X0098716Y0152763D01*
X0098716Y0152150D01*
X0080916Y0152150D01*
X0080916Y0153946D01*
X0080916Y0155783D01*
X0080793Y0156240D01*
X0080556Y0156651D01*
X0080257Y0156950D01*
X0095180Y0156950D01*
X0095601Y0156529D02*
X0080626Y0156529D01*
X0080916Y0154931D02*
X0097058Y0154931D01*
X0098952Y0153332D02*
X0080916Y0153332D01*
X0080916Y0153946D02*
X0078316Y0153946D01*
X0080916Y0153946D01*
X0078316Y0153946D02*
X0078316Y0153946D01*
X0060065Y0162923D02*
X0048035Y0162923D01*
X0048500Y0164522D02*
X0058467Y0164522D01*
X0056868Y0166120D02*
X0048500Y0166120D01*
X0048500Y0167719D02*
X0055643Y0167719D01*
X0055643Y0169318D02*
X0048500Y0169318D01*
X0048500Y0170916D02*
X0055643Y0170916D01*
X0055643Y0172515D02*
X0048500Y0172515D01*
X0048500Y0174113D02*
X0055643Y0174113D01*
X0055643Y0175712D02*
X0048500Y0175712D01*
X0048500Y0177310D02*
X0055643Y0177310D01*
X0055643Y0178909D02*
X0048500Y0178909D01*
X0048500Y0180507D02*
X0055643Y0180507D01*
X0048676Y0182106D02*
X0048500Y0182106D01*
X0066005Y0198091D02*
X0066005Y0198091D01*
X0066005Y0199689D02*
X0066005Y0199689D01*
X0066005Y0201288D02*
X0066005Y0201288D01*
X0066005Y0202886D02*
X0066005Y0202886D01*
X0066005Y0204485D02*
X0066005Y0204485D01*
X0066005Y0206083D02*
X0066005Y0206083D01*
X0053860Y0206083D02*
X0053740Y0206083D01*
X0027816Y0209441D02*
X0027816Y0212816D01*
X0027816Y0212816D01*
X0027816Y0212816D01*
X0022866Y0212816D01*
X0022866Y0211004D01*
X0022989Y0210546D01*
X0023226Y0210136D01*
X0023561Y0209801D01*
X0023971Y0209564D01*
X0024429Y0209441D01*
X0027816Y0209441D01*
X0027816Y0210879D02*
X0027816Y0210879D01*
X0027816Y0212477D02*
X0027816Y0212477D01*
X0022866Y0212477D02*
X0010350Y0212477D01*
X0010350Y0210879D02*
X0022900Y0210879D01*
X0022866Y0214076D02*
X0010350Y0214076D01*
X0010350Y0215674D02*
X0023066Y0215674D01*
X0023066Y0217273D02*
X0010350Y0217273D01*
X0010350Y0218871D02*
X0023066Y0218871D01*
X0023066Y0220470D02*
X0010350Y0220470D01*
X0010350Y0222068D02*
X0023066Y0222068D01*
X0023066Y0223667D02*
X0010350Y0223667D01*
X0010350Y0225265D02*
X0023066Y0225265D01*
X0023066Y0226864D02*
X0010350Y0226864D01*
X0010350Y0228462D02*
X0023066Y0228462D01*
X0023066Y0230061D02*
X0010350Y0230061D01*
X0010350Y0231659D02*
X0023066Y0231659D01*
X0023066Y0233258D02*
X0010350Y0233258D01*
X0010350Y0234856D02*
X0023066Y0234856D01*
X0023066Y0236455D02*
X0010350Y0236455D01*
X0010350Y0238053D02*
X0023066Y0238053D01*
X0023066Y0239652D02*
X0010350Y0239652D01*
X0010350Y0241251D02*
X0023066Y0241251D01*
X0023066Y0242849D02*
X0010350Y0242849D01*
X0010350Y0244448D02*
X0023066Y0244448D01*
X0023066Y0246046D02*
X0010350Y0246046D01*
X0010350Y0247645D02*
X0023066Y0247645D01*
X0023066Y0249243D02*
X0010350Y0249243D01*
X0010350Y0250842D02*
X0023066Y0250842D01*
X0023066Y0252440D02*
X0010350Y0252440D01*
X0010350Y0254039D02*
X0023066Y0254039D01*
X0023066Y0255637D02*
X0010350Y0255637D01*
X0010350Y0257236D02*
X0023066Y0257236D01*
X0023066Y0258834D02*
X0010350Y0258834D01*
X0010350Y0260433D02*
X0023066Y0260433D01*
X0023066Y0262031D02*
X0010350Y0262031D01*
X0010350Y0263630D02*
X0022866Y0263630D01*
X0022866Y0264784D02*
X0027816Y0264784D01*
X0027816Y0264784D01*
X0022866Y0264784D01*
X0022866Y0265228D02*
X0010350Y0265228D01*
X0010350Y0266827D02*
X0022928Y0266827D01*
X0026200Y0268425D02*
X0010350Y0268425D01*
X0010350Y0270024D02*
X0026200Y0270024D01*
X0026200Y0271622D02*
X0010350Y0271622D01*
X0010350Y0273221D02*
X0026200Y0273221D01*
X0026200Y0274819D02*
X0010350Y0274819D01*
X0010350Y0276418D02*
X0026200Y0276418D01*
X0026200Y0278016D02*
X0010350Y0278016D01*
X0010350Y0279615D02*
X0026200Y0279615D01*
X0026200Y0281213D02*
X0010350Y0281213D01*
X0010350Y0282812D02*
X0026200Y0282812D01*
X0026200Y0284410D02*
X0010350Y0284410D01*
X0010350Y0286009D02*
X0026200Y0286009D01*
X0026200Y0287607D02*
X0010350Y0287607D01*
X0010350Y0289206D02*
X0026200Y0289206D01*
X0026200Y0290804D02*
X0010350Y0290804D01*
X0010350Y0292403D02*
X0026200Y0292403D01*
X0026200Y0294001D02*
X0010350Y0294001D01*
X0010350Y0295600D02*
X0026200Y0295600D01*
X0026200Y0297198D02*
X0010350Y0297198D01*
X0010350Y0298797D02*
X0026200Y0298797D01*
X0026200Y0300395D02*
X0010350Y0300395D01*
X0010350Y0301994D02*
X0026200Y0301994D01*
X0026200Y0303592D02*
X0010350Y0303592D01*
X0010350Y0305191D02*
X0026200Y0305191D01*
X0026200Y0306789D02*
X0010350Y0306789D01*
X0010350Y0308388D02*
X0026200Y0308388D01*
X0026200Y0309987D02*
X0010350Y0309987D01*
X0010350Y0311585D02*
X0026200Y0311585D01*
X0026200Y0313184D02*
X0010350Y0313184D01*
X0010350Y0314782D02*
X0026200Y0314782D01*
X0081900Y0314782D02*
X0239905Y0314782D01*
X0239689Y0313184D02*
X0081900Y0313184D01*
X0081900Y0311585D02*
X0084590Y0311585D01*
X0084847Y0311843D02*
X0084257Y0311253D01*
X0083767Y0310578D01*
X0083388Y0309834D01*
X0083130Y0309041D01*
X0083000Y0308217D01*
X0083000Y0308000D01*
X0088100Y0308000D01*
X0088100Y0313100D01*
X0087883Y0313100D01*
X0087059Y0312969D01*
X0086266Y0312712D01*
X0085522Y0312333D01*
X0084847Y0311843D01*
X0083466Y0309987D02*
X0081900Y0309987D01*
X0081900Y0308388D02*
X0083027Y0308388D01*
X0083000Y0307600D02*
X0083000Y0307383D01*
X0083130Y0306559D01*
X0083388Y0305766D01*
X0083767Y0305022D01*
X0084257Y0304347D01*
X0084847Y0303757D01*
X0085522Y0303267D01*
X0086266Y0302888D01*
X0087059Y0302630D01*
X0087883Y0302500D01*
X0088100Y0302500D01*
X0088100Y0307600D01*
X0088500Y0307600D01*
X0088500Y0302500D01*
X0088717Y0302500D01*
X0089541Y0302630D01*
X0090334Y0302888D01*
X0091078Y0303267D01*
X0091753Y0303757D01*
X0092343Y0304347D01*
X0092833Y0305022D01*
X0093212Y0305766D01*
X0093392Y0306321D01*
X0093976Y0304911D01*
X0095411Y0303476D01*
X0097286Y0302700D01*
X0099314Y0302700D01*
X0101189Y0303476D01*
X0102624Y0304911D01*
X0103300Y0306544D01*
X0103976Y0304911D01*
X0105411Y0303476D01*
X0107286Y0302700D01*
X0109314Y0302700D01*
X0111189Y0303476D01*
X0112624Y0304911D01*
X0113300Y0306544D01*
X0113976Y0304911D01*
X0115411Y0303476D01*
X0117286Y0302700D01*
X0119314Y0302700D01*
X0121189Y0303476D01*
X0122624Y0304911D01*
X0123300Y0306544D01*
X0123976Y0304911D01*
X0125411Y0303476D01*
X0127286Y0302700D01*
X0129314Y0302700D01*
X0131189Y0303476D01*
X0132624Y0304911D01*
X0133400Y0306786D01*
X0133400Y0308814D01*
X0132624Y0310689D01*
X0131189Y0312124D01*
X0129314Y0312900D01*
X0127286Y0312900D01*
X0125411Y0312124D01*
X0123976Y0310689D01*
X0123300Y0309056D01*
X0122624Y0310689D01*
X0121189Y0312124D01*
X0119314Y0312900D01*
X0117286Y0312900D01*
X0115411Y0312124D01*
X0113976Y0310689D01*
X0113300Y0309056D01*
X0112624Y0310689D01*
X0111189Y0312124D01*
X0109314Y0312900D01*
X0107286Y0312900D01*
X0105411Y0312124D01*
X0103976Y0310689D01*
X0103300Y0309056D01*
X0102624Y0310689D01*
X0101189Y0312124D01*
X0099314Y0312900D01*
X0097286Y0312900D01*
X0095411Y0312124D01*
X0093976Y0310689D01*
X0093392Y0309279D01*
X0093212Y0309834D01*
X0092833Y0310578D01*
X0092343Y0311253D01*
X0091753Y0311843D01*
X0091078Y0312333D01*
X0090334Y0312712D01*
X0089541Y0312969D01*
X0088717Y0313100D01*
X0088500Y0313100D01*
X0088500Y0308000D01*
X0088100Y0308000D01*
X0088100Y0307600D01*
X0083000Y0307600D01*
X0083094Y0306789D02*
X0081900Y0306789D01*
X0081900Y0305191D02*
X0083681Y0305191D01*
X0085074Y0303592D02*
X0081900Y0303592D01*
X0081900Y0301994D02*
X0259100Y0301994D01*
X0259100Y0303592D02*
X0142692Y0303592D01*
X0143068Y0303969D02*
X0143068Y0311631D01*
X0142131Y0312568D01*
X0134469Y0312568D01*
X0133531Y0311631D01*
X0133531Y0303969D01*
X0134469Y0303031D01*
X0142131Y0303031D01*
X0143068Y0303969D01*
X0143068Y0305191D02*
X0259100Y0305191D01*
X0259100Y0306789D02*
X0254895Y0306789D01*
X0255100Y0308388D02*
X0259100Y0308388D01*
X0259100Y0309987D02*
X0255100Y0309987D01*
X0255100Y0311585D02*
X0259100Y0311585D01*
X0259100Y0313184D02*
X0255100Y0313184D01*
X0254884Y0314782D02*
X0259100Y0314782D01*
X0248169Y0309987D02*
X0246620Y0309987D01*
X0246620Y0308388D02*
X0248169Y0308388D01*
X0248169Y0306789D02*
X0246620Y0306789D01*
X0239894Y0306789D02*
X0143068Y0306789D01*
X0143068Y0308388D02*
X0239689Y0308388D01*
X0239689Y0309987D02*
X0143068Y0309987D01*
X0143068Y0311585D02*
X0239689Y0311585D01*
X0254338Y0297198D02*
X0259100Y0297198D01*
X0259100Y0295600D02*
X0254900Y0295600D01*
X0254900Y0294001D02*
X0259100Y0294001D01*
X0259100Y0292403D02*
X0254900Y0292403D01*
X0254900Y0290804D02*
X0259100Y0290804D01*
X0259100Y0289206D02*
X0254900Y0289206D01*
X0255199Y0288603D02*
X0254864Y0288267D01*
X0254627Y0287857D01*
X0254504Y0287399D01*
X0254504Y0285181D01*
X0258285Y0285181D01*
X0258285Y0288962D01*
X0256067Y0288962D01*
X0255609Y0288840D01*
X0255199Y0288603D01*
X0254560Y0287607D02*
X0251994Y0287607D01*
X0251994Y0286009D02*
X0254504Y0286009D01*
X0254504Y0284410D02*
X0251994Y0284410D01*
X0251994Y0282812D02*
X0254504Y0282812D01*
X0254983Y0281213D02*
X0251994Y0281213D01*
X0255374Y0279615D02*
X0286250Y0279615D01*
X0286250Y0281213D02*
X0283456Y0281213D01*
X0284456Y0282812D02*
X0286250Y0282812D01*
X0286250Y0284410D02*
X0286054Y0284410D01*
X0284300Y0286050D02*
X0284300Y0292050D01*
X0284300Y0286050D02*
X0283050Y0284800D01*
X0280843Y0284800D01*
X0277669Y0284410D02*
X0276931Y0284410D01*
X0276931Y0282812D02*
X0277669Y0282812D01*
X0278230Y0281213D02*
X0276370Y0281213D01*
X0273757Y0284800D02*
X0266934Y0284800D01*
X0262972Y0284410D02*
X0262828Y0284410D01*
X0262828Y0282812D02*
X0262972Y0282812D01*
X0263533Y0281213D02*
X0262349Y0281213D01*
X0259047Y0281213D02*
X0258285Y0281213D01*
X0258285Y0282812D02*
X0259047Y0282812D01*
X0259047Y0284410D02*
X0258285Y0284410D01*
X0258285Y0286009D02*
X0259047Y0286009D01*
X0259047Y0287607D02*
X0258285Y0287607D01*
X0262773Y0287607D02*
X0262972Y0287607D01*
X0262972Y0286009D02*
X0262828Y0286009D01*
X0270334Y0281213D02*
X0271144Y0281213D01*
X0274752Y0276418D02*
X0276352Y0276418D01*
X0276352Y0274819D02*
X0274752Y0274819D01*
X0274752Y0273221D02*
X0276352Y0273221D01*
X0276352Y0271622D02*
X0274752Y0271622D01*
X0274752Y0270024D02*
X0276352Y0270024D01*
X0276352Y0268425D02*
X0274752Y0268425D01*
X0274752Y0266827D02*
X0223500Y0266827D01*
X0223500Y0268425D02*
X0262502Y0268425D01*
X0262502Y0270024D02*
X0223438Y0270024D01*
X0223500Y0265228D02*
X0262502Y0265228D01*
X0262502Y0265500D02*
X0262502Y0256563D01*
X0262625Y0256105D01*
X0262862Y0255695D01*
X0263197Y0255360D01*
X0263607Y0255123D01*
X0264065Y0255000D01*
X0274752Y0255000D01*
X0274752Y0265500D01*
X0262502Y0265500D01*
X0262502Y0263630D02*
X0223500Y0263630D01*
X0219100Y0266243D02*
X0218931Y0266412D01*
X0213669Y0266412D01*
X0212731Y0265475D01*
X0212731Y0264760D01*
X0210521Y0264760D01*
X0210580Y0264980D01*
X0210580Y0266300D01*
X0210580Y0267620D01*
X0210458Y0268077D01*
X0210350Y0268264D01*
X0210380Y0268295D01*
X0210380Y0271786D01*
X0210145Y0272021D01*
X0211330Y0272511D01*
X0212339Y0273520D01*
X0212884Y0274837D01*
X0212884Y0276263D01*
X0212339Y0277580D01*
X0211330Y0278589D01*
X0210013Y0279134D01*
X0208587Y0279134D01*
X0207270Y0278589D01*
X0206261Y0277580D01*
X0205716Y0276263D01*
X0205716Y0274936D01*
X0205430Y0274650D01*
X0204200Y0273420D01*
X0204200Y0272723D01*
X0203393Y0272723D01*
X0203200Y0272530D01*
X0203200Y0280377D01*
X0208943Y0280377D01*
X0209526Y0280960D01*
X0213231Y0280960D01*
X0213231Y0280318D01*
X0213750Y0279800D01*
X0213231Y0279282D01*
X0213231Y0273625D01*
X0214169Y0272688D01*
X0214600Y0272688D01*
X0214600Y0272639D01*
X0219100Y0268139D01*
X0219100Y0266243D01*
X0219100Y0266827D02*
X0210580Y0266827D01*
X0210580Y0266300D02*
X0206418Y0266300D01*
X0206418Y0266300D01*
X0210580Y0266300D01*
X0210580Y0265228D02*
X0212731Y0265228D01*
X0210380Y0268425D02*
X0218814Y0268425D01*
X0217215Y0270024D02*
X0210380Y0270024D01*
X0210380Y0271622D02*
X0215616Y0271622D01*
X0213636Y0273221D02*
X0212040Y0273221D01*
X0212877Y0274819D02*
X0213231Y0274819D01*
X0213231Y0276418D02*
X0212820Y0276418D01*
X0213231Y0278016D02*
X0211903Y0278016D01*
X0213565Y0279615D02*
X0203200Y0279615D01*
X0203200Y0278016D02*
X0206697Y0278016D01*
X0205780Y0276418D02*
X0203200Y0276418D01*
X0203200Y0274819D02*
X0205599Y0274819D01*
X0204200Y0273221D02*
X0203200Y0273221D01*
X0200800Y0266550D02*
X0200800Y0286050D01*
X0200050Y0286800D01*
X0195682Y0286800D01*
X0199644Y0289206D02*
X0201956Y0289206D01*
X0201956Y0290804D02*
X0199644Y0290804D01*
X0199527Y0292403D02*
X0202073Y0292403D01*
X0205918Y0286800D02*
X0210080Y0286800D01*
X0205918Y0286800D01*
X0205918Y0286800D01*
X0210080Y0286009D02*
X0213266Y0286009D01*
X0198400Y0257236D02*
X0171021Y0257236D01*
X0177835Y0250842D02*
X0198400Y0250842D01*
X0198400Y0252440D02*
X0178762Y0252440D01*
X0178762Y0254039D02*
X0198400Y0254039D01*
X0198400Y0255637D02*
X0178762Y0255637D01*
X0176900Y0249243D02*
X0198400Y0249243D01*
X0198400Y0247645D02*
X0176900Y0247645D01*
X0176900Y0246046D02*
X0198400Y0246046D01*
X0198400Y0244448D02*
X0176900Y0244448D01*
X0176900Y0242849D02*
X0198400Y0242849D01*
X0198400Y0241251D02*
X0176900Y0241251D01*
X0176900Y0239652D02*
X0198400Y0239652D01*
X0198400Y0238053D02*
X0176900Y0238053D01*
X0176900Y0236455D02*
X0198400Y0236455D01*
X0198400Y0234856D02*
X0176900Y0234856D01*
X0175978Y0233258D02*
X0198400Y0233258D01*
X0198400Y0231659D02*
X0180759Y0231659D01*
X0181183Y0226864D02*
X0195016Y0226864D01*
X0197800Y0227050D02*
X0197800Y0227550D01*
X0200800Y0230550D01*
X0201300Y0230550D01*
X0203200Y0233258D02*
X0262502Y0233258D01*
X0262502Y0234856D02*
X0203200Y0234856D01*
X0197800Y0227050D02*
X0197800Y0219050D01*
X0197550Y0219300D01*
X0193182Y0219300D01*
X0197800Y0219050D02*
X0197800Y0201550D01*
X0197550Y0201800D01*
X0192682Y0201800D01*
X0197800Y0201550D02*
X0197800Y0186550D01*
X0197550Y0186300D01*
X0192682Y0186300D01*
X0197800Y0186550D02*
X0197800Y0172550D01*
X0196550Y0171300D01*
X0192682Y0171300D01*
X0188720Y0170916D02*
X0188040Y0170916D01*
X0188720Y0172515D02*
X0178000Y0172515D01*
X0178000Y0174113D02*
X0180267Y0174113D01*
X0178669Y0175712D02*
X0178000Y0175712D01*
X0178000Y0177310D02*
X0178046Y0177310D01*
X0178046Y0178909D02*
X0177803Y0178909D01*
X0178046Y0180507D02*
X0176204Y0180507D01*
X0174606Y0182106D02*
X0178046Y0182106D01*
X0178046Y0183704D02*
X0173007Y0183704D01*
X0171409Y0185303D02*
X0178046Y0185303D01*
X0177901Y0186901D02*
X0175502Y0186901D01*
X0176333Y0188500D02*
X0177070Y0188500D01*
X0177070Y0190098D02*
X0176333Y0190098D01*
X0176333Y0191697D02*
X0177070Y0191697D01*
X0177070Y0193295D02*
X0176333Y0193295D01*
X0176333Y0194894D02*
X0177070Y0194894D01*
X0177070Y0196492D02*
X0176333Y0196492D01*
X0176333Y0198091D02*
X0177070Y0198091D01*
X0177070Y0199689D02*
X0176333Y0199689D01*
X0175914Y0201288D02*
X0177490Y0201288D01*
X0178046Y0202886D02*
X0175400Y0202886D01*
X0175400Y0204485D02*
X0178046Y0204485D01*
X0178046Y0206083D02*
X0174237Y0206083D01*
X0172000Y0209280D02*
X0178046Y0209280D01*
X0178046Y0207682D02*
X0170402Y0207682D01*
X0172400Y0210879D02*
X0178046Y0210879D01*
X0178046Y0212477D02*
X0172400Y0212477D01*
X0172400Y0214076D02*
X0178046Y0214076D01*
X0178046Y0215674D02*
X0172400Y0215674D01*
X0172400Y0217273D02*
X0178046Y0217273D01*
X0178046Y0218871D02*
X0172400Y0218871D01*
X0172400Y0220470D02*
X0178046Y0220470D01*
X0178349Y0222068D02*
X0172400Y0222068D01*
X0172400Y0223667D02*
X0179947Y0223667D01*
X0181546Y0225265D02*
X0172400Y0225265D01*
X0172400Y0226864D02*
X0175417Y0226864D01*
X0174716Y0228462D02*
X0172400Y0228462D01*
X0172781Y0230061D02*
X0174839Y0230061D01*
X0174379Y0231659D02*
X0175841Y0231659D01*
X0168200Y0229980D02*
X0168200Y0211420D01*
X0167129Y0210349D01*
X0166187Y0210349D01*
X0166187Y0216195D01*
X0165250Y0217132D01*
X0158019Y0217132D01*
X0157082Y0216195D01*
X0157082Y0203763D01*
X0157005Y0203629D01*
X0156882Y0203171D01*
X0156882Y0201950D01*
X0161635Y0201950D01*
X0166387Y0201950D01*
X0166387Y0202999D01*
X0171200Y0202999D01*
X0171200Y0201805D01*
X0171118Y0201805D01*
X0170180Y0200868D01*
X0170180Y0197750D01*
X0166187Y0197750D01*
X0166187Y0200137D01*
X0166265Y0200271D01*
X0166387Y0200728D01*
X0166387Y0201950D01*
X0161635Y0201950D01*
X0161635Y0201950D01*
X0161635Y0201950D01*
X0156882Y0201950D01*
X0156882Y0201000D01*
X0152419Y0201000D01*
X0152330Y0201089D01*
X0151013Y0201634D01*
X0149587Y0201634D01*
X0148270Y0201089D01*
X0147299Y0200118D01*
X0147299Y0200613D01*
X0147443Y0201272D01*
X0147299Y0201495D01*
X0147299Y0217082D01*
X0156195Y0217082D01*
X0157132Y0218019D01*
X0157132Y0225250D01*
X0156195Y0226187D01*
X0153498Y0226187D01*
X0153498Y0226779D01*
X0154670Y0227950D01*
X0166170Y0227950D01*
X0168200Y0229980D01*
X0168200Y0228462D02*
X0166682Y0228462D01*
X0168200Y0226864D02*
X0153584Y0226864D01*
X0157117Y0225265D02*
X0168200Y0225265D01*
X0168200Y0223667D02*
X0157132Y0223667D01*
X0157132Y0222068D02*
X0168200Y0222068D01*
X0168200Y0220470D02*
X0157132Y0220470D01*
X0157132Y0218871D02*
X0168200Y0218871D01*
X0168200Y0217273D02*
X0156386Y0217273D01*
X0157082Y0215674D02*
X0147299Y0215674D01*
X0147299Y0214076D02*
X0157082Y0214076D01*
X0157082Y0212477D02*
X0147299Y0212477D01*
X0147299Y0210879D02*
X0157082Y0210879D01*
X0157082Y0209280D02*
X0147299Y0209280D01*
X0147299Y0207682D02*
X0157082Y0207682D01*
X0157082Y0206083D02*
X0147299Y0206083D01*
X0147299Y0204485D02*
X0157082Y0204485D01*
X0156882Y0202886D02*
X0147299Y0202886D01*
X0147433Y0201288D02*
X0148751Y0201288D01*
X0151849Y0201288D02*
X0156882Y0201288D01*
X0157082Y0196492D02*
X0153534Y0196492D01*
X0152046Y0194894D02*
X0157082Y0194894D01*
X0157082Y0190098D02*
X0141821Y0190098D01*
X0142384Y0188500D02*
X0157082Y0188500D01*
X0157082Y0186901D02*
X0145018Y0186901D01*
X0146161Y0185303D02*
X0157082Y0185303D01*
X0157082Y0183704D02*
X0146384Y0183704D01*
X0145874Y0182106D02*
X0157082Y0182106D01*
X0156206Y0180507D02*
X0157980Y0180507D01*
X0157132Y0178909D02*
X0171580Y0178909D01*
X0170857Y0177473D02*
X0170399Y0177596D01*
X0168181Y0177596D01*
X0168181Y0173815D01*
X0171962Y0173815D01*
X0171962Y0176033D01*
X0171840Y0176491D01*
X0171603Y0176901D01*
X0171267Y0177236D01*
X0170857Y0177473D01*
X0171140Y0177310D02*
X0173179Y0177310D01*
X0173600Y0175712D02*
X0171962Y0175712D01*
X0171962Y0174113D02*
X0173600Y0174113D01*
X0173600Y0172515D02*
X0171962Y0172515D01*
X0171962Y0173053D02*
X0168181Y0173053D01*
X0168181Y0169272D01*
X0170399Y0169272D01*
X0170857Y0169394D01*
X0171267Y0169631D01*
X0171603Y0169966D01*
X0171840Y0170377D01*
X0171962Y0170835D01*
X0171962Y0173053D01*
X0171962Y0170916D02*
X0173600Y0170916D01*
X0173600Y0169318D02*
X0170570Y0169318D01*
X0171762Y0167719D02*
X0173600Y0167719D01*
X0173509Y0166120D02*
X0171762Y0166120D01*
X0171762Y0164522D02*
X0171911Y0164522D01*
X0174936Y0161325D02*
X0210731Y0161325D01*
X0210731Y0162923D02*
X0176535Y0162923D01*
X0178000Y0164522D02*
X0184759Y0164522D01*
X0183513Y0166120D02*
X0178000Y0166120D01*
X0178000Y0167719D02*
X0183216Y0167719D01*
X0183653Y0169318D02*
X0178000Y0169318D01*
X0178000Y0170916D02*
X0185560Y0170916D01*
X0188841Y0164522D02*
X0211028Y0164522D01*
X0210731Y0169760D02*
X0207021Y0169760D01*
X0207080Y0169980D01*
X0207080Y0171300D01*
X0207080Y0172620D01*
X0206992Y0172950D01*
X0207170Y0172950D01*
X0208400Y0174180D01*
X0209400Y0175180D01*
X0209400Y0176081D01*
X0210339Y0177020D01*
X0210884Y0178337D01*
X0210884Y0179763D01*
X0210637Y0180360D01*
X0213471Y0180360D01*
X0215211Y0182100D01*
X0215950Y0182100D01*
X0216250Y0181800D01*
X0215731Y0181282D01*
X0215731Y0175625D01*
X0216669Y0174688D01*
X0217100Y0174688D01*
X0217100Y0174139D01*
X0218389Y0172850D01*
X0220100Y0171139D01*
X0220100Y0158265D01*
X0217868Y0160496D01*
X0217868Y0163782D01*
X0217350Y0164300D01*
X0217868Y0164818D01*
X0217868Y0170475D01*
X0216931Y0171412D01*
X0211669Y0171412D01*
X0210731Y0170475D01*
X0210731Y0169760D01*
X0211173Y0170916D02*
X0207080Y0170916D01*
X0207080Y0171300D02*
X0202918Y0171300D01*
X0207080Y0171300D01*
X0207080Y0172515D02*
X0218724Y0172515D01*
X0217427Y0170916D02*
X0220100Y0170916D01*
X0220100Y0169318D02*
X0217868Y0169318D01*
X0217868Y0167719D02*
X0220100Y0167719D01*
X0220100Y0166120D02*
X0217868Y0166120D01*
X0217572Y0164522D02*
X0220100Y0164522D01*
X0220100Y0162923D02*
X0217868Y0162923D01*
X0217868Y0161325D02*
X0220100Y0161325D01*
X0220100Y0159726D02*
X0218638Y0159726D01*
X0215613Y0156529D02*
X0206932Y0156529D01*
X0208530Y0154931D02*
X0217100Y0154931D01*
X0217100Y0153332D02*
X0210129Y0153332D01*
X0213414Y0151734D02*
X0217100Y0151734D01*
X0217100Y0150135D02*
X0215953Y0150135D01*
X0216859Y0148537D02*
X0217100Y0148537D01*
X0217100Y0146938D02*
X0217100Y0146938D01*
X0217100Y0145340D02*
X0217100Y0145340D01*
X0217100Y0143741D02*
X0217100Y0143741D01*
X0217100Y0142143D02*
X0217100Y0142143D01*
X0217100Y0140544D02*
X0217100Y0140544D01*
X0217100Y0138946D02*
X0216810Y0138946D01*
X0217100Y0137347D02*
X0215835Y0137347D01*
X0217100Y0135749D02*
X0193550Y0135749D01*
X0193471Y0135723D02*
X0194219Y0135966D01*
X0194921Y0136324D01*
X0195557Y0136786D01*
X0196114Y0137343D01*
X0196576Y0137979D01*
X0196934Y0138681D01*
X0197177Y0139429D01*
X0197300Y0140206D01*
X0197300Y0143600D01*
X0192500Y0143600D01*
X0192500Y0135600D01*
X0192694Y0135600D01*
X0193471Y0135723D01*
X0192500Y0135749D02*
X0192100Y0135749D01*
X0192100Y0135600D02*
X0192100Y0143600D01*
X0187300Y0143600D01*
X0187300Y0140206D01*
X0187423Y0139429D01*
X0187666Y0138681D01*
X0188024Y0137979D01*
X0188486Y0137343D01*
X0189043Y0136786D01*
X0189679Y0136324D01*
X0190381Y0135966D01*
X0191129Y0135723D01*
X0191906Y0135600D01*
X0192100Y0135600D01*
X0191050Y0135749D02*
X0183110Y0135749D01*
X0184576Y0137347D02*
X0188483Y0137347D01*
X0187580Y0138946D02*
X0186396Y0138946D01*
X0187058Y0140544D02*
X0187300Y0140544D01*
X0187300Y0142143D02*
X0187100Y0142143D01*
X0187100Y0143741D02*
X0192100Y0143741D01*
X0192500Y0143741D02*
X0197500Y0143741D01*
X0197500Y0142143D02*
X0197300Y0142143D01*
X0197300Y0140544D02*
X0197542Y0140544D01*
X0197020Y0138946D02*
X0198204Y0138946D01*
X0200024Y0137347D02*
X0196117Y0137347D01*
X0192500Y0137347D02*
X0192100Y0137347D01*
X0192100Y0138946D02*
X0192500Y0138946D01*
X0192500Y0140544D02*
X0192100Y0140544D01*
X0192100Y0142143D02*
X0192500Y0142143D01*
X0197300Y0145340D02*
X0197500Y0145340D01*
X0197500Y0146938D02*
X0197300Y0146938D01*
X0197500Y0148537D02*
X0197058Y0148537D01*
X0196202Y0150135D02*
X0197989Y0150135D01*
X0198505Y0151734D02*
X0193911Y0151734D01*
X0190689Y0151734D02*
X0185354Y0151734D01*
X0186611Y0150135D02*
X0188398Y0150135D01*
X0187542Y0148537D02*
X0187100Y0148537D01*
X0187100Y0146938D02*
X0187300Y0146938D01*
X0187300Y0145340D02*
X0187100Y0145340D01*
X0181512Y0134150D02*
X0216289Y0134150D01*
X0214690Y0132552D02*
X0179913Y0132552D01*
X0178315Y0130953D02*
X0213092Y0130953D01*
X0208764Y0137347D02*
X0204576Y0137347D01*
X0206396Y0138946D02*
X0207790Y0138946D01*
X0207500Y0140544D02*
X0207058Y0140544D01*
X0207100Y0142143D02*
X0207500Y0142143D01*
X0207500Y0143741D02*
X0207100Y0143741D01*
X0207100Y0145340D02*
X0207500Y0145340D01*
X0207500Y0146938D02*
X0207100Y0146938D01*
X0207100Y0148537D02*
X0207741Y0148537D01*
X0207103Y0150135D02*
X0206611Y0150135D01*
X0205505Y0151734D02*
X0205354Y0151734D01*
X0203906Y0153332D02*
X0203129Y0153332D01*
X0205333Y0158128D02*
X0210731Y0158128D01*
X0210731Y0159726D02*
X0173338Y0159726D01*
X0168181Y0169318D02*
X0167419Y0169318D01*
X0167419Y0170916D02*
X0168181Y0170916D01*
X0168181Y0172515D02*
X0167419Y0172515D01*
X0167419Y0174113D02*
X0168181Y0174113D01*
X0168181Y0175712D02*
X0167419Y0175712D01*
X0167419Y0177310D02*
X0168181Y0177310D01*
X0169982Y0180507D02*
X0165290Y0180507D01*
X0166187Y0182106D02*
X0168383Y0182106D01*
X0166785Y0183704D02*
X0166187Y0183704D01*
X0169810Y0186901D02*
X0171011Y0186901D01*
X0170180Y0198091D02*
X0166187Y0198091D01*
X0166187Y0199689D02*
X0170180Y0199689D01*
X0170600Y0201288D02*
X0166387Y0201288D01*
X0166387Y0202886D02*
X0171200Y0202886D01*
X0167659Y0210879D02*
X0166187Y0210879D01*
X0166187Y0212477D02*
X0168200Y0212477D01*
X0168200Y0214076D02*
X0166187Y0214076D01*
X0166187Y0215674D02*
X0168200Y0215674D01*
X0149298Y0226864D02*
X0147500Y0226864D01*
X0147762Y0228462D02*
X0149298Y0228462D01*
X0147762Y0230061D02*
X0150841Y0230061D01*
X0152440Y0231659D02*
X0147762Y0231659D01*
X0147691Y0239652D02*
X0154583Y0239652D01*
X0132602Y0233258D02*
X0132500Y0233258D01*
X0108114Y0249243D02*
X0105896Y0249243D01*
X0105896Y0254039D02*
X0107882Y0254039D01*
X0098784Y0255637D02*
X0096816Y0255637D01*
X0097628Y0254039D02*
X0097972Y0254039D01*
X0097972Y0252440D02*
X0097628Y0252440D01*
X0097628Y0250842D02*
X0097972Y0250842D01*
X0097972Y0249243D02*
X0097628Y0249243D01*
X0094344Y0244448D02*
X0093256Y0244448D01*
X0093628Y0242849D02*
X0093972Y0242849D01*
X0093972Y0241251D02*
X0093628Y0241251D01*
X0093628Y0239652D02*
X0093972Y0239652D01*
X0093972Y0238053D02*
X0093628Y0238053D01*
X0086077Y0244448D02*
X0084534Y0244448D01*
X0084534Y0258834D02*
X0087680Y0258834D01*
X0088582Y0260433D02*
X0084534Y0260433D01*
X0084534Y0262031D02*
X0088582Y0262031D01*
X0089387Y0263630D02*
X0084534Y0263630D01*
X0084534Y0265228D02*
X0108716Y0265228D01*
X0109009Y0263630D02*
X0101476Y0263630D01*
X0098843Y0263630D02*
X0098843Y0263630D01*
X0098843Y0262031D02*
X0098843Y0262031D01*
X0098843Y0260433D02*
X0098843Y0260433D01*
X0098843Y0259800D02*
X0098843Y0259800D01*
X0095469Y0260433D02*
X0094931Y0260433D01*
X0094931Y0262031D02*
X0095469Y0262031D01*
X0096210Y0263630D02*
X0094127Y0263630D01*
X0094931Y0258834D02*
X0095469Y0258834D01*
X0095469Y0257236D02*
X0094931Y0257236D01*
X0084534Y0266827D02*
X0109156Y0266827D01*
X0126416Y0289206D02*
X0148075Y0289206D01*
X0150300Y0292050D02*
X0145300Y0292050D01*
X0141300Y0296050D01*
X0122300Y0296050D01*
X0126619Y0292403D02*
X0141553Y0292403D01*
X0143152Y0290804D02*
X0126884Y0290804D01*
X0125295Y0303592D02*
X0121305Y0303592D01*
X0122739Y0305191D02*
X0123860Y0305191D01*
X0123685Y0309987D02*
X0122915Y0309987D01*
X0121727Y0311585D02*
X0124873Y0311585D01*
X0131727Y0311585D02*
X0133531Y0311585D01*
X0133531Y0309987D02*
X0132915Y0309987D01*
X0133400Y0308388D02*
X0133531Y0308388D01*
X0133531Y0306789D02*
X0133400Y0306789D01*
X0133531Y0305191D02*
X0132739Y0305191D01*
X0133908Y0303592D02*
X0131305Y0303592D01*
X0115295Y0303592D02*
X0111305Y0303592D01*
X0112739Y0305191D02*
X0113860Y0305191D01*
X0113685Y0309987D02*
X0112915Y0309987D01*
X0111727Y0311585D02*
X0114873Y0311585D01*
X0104873Y0311585D02*
X0101727Y0311585D01*
X0102915Y0309987D02*
X0103685Y0309987D01*
X0103860Y0305191D02*
X0102739Y0305191D01*
X0101305Y0303592D02*
X0105295Y0303592D01*
X0095295Y0303592D02*
X0091526Y0303592D01*
X0092919Y0305191D02*
X0093860Y0305191D01*
X0093685Y0309987D02*
X0093134Y0309987D01*
X0092010Y0311585D02*
X0094873Y0311585D01*
X0088500Y0311585D02*
X0088100Y0311585D01*
X0088100Y0309987D02*
X0088500Y0309987D01*
X0088500Y0308388D02*
X0088100Y0308388D01*
X0088100Y0306789D02*
X0088500Y0306789D01*
X0088500Y0305191D02*
X0088100Y0305191D01*
X0088100Y0303592D02*
X0088500Y0303592D01*
X0081900Y0300395D02*
X0259100Y0300395D01*
X0259100Y0298797D02*
X0081900Y0298797D01*
X0138452Y0198091D02*
X0138818Y0198091D01*
X0137884Y0196492D02*
X0139789Y0196492D01*
X0137213Y0194894D02*
X0148554Y0194894D01*
X0147066Y0196492D02*
X0144811Y0196492D01*
X0145782Y0198091D02*
X0146716Y0198091D01*
X0157132Y0177310D02*
X0164460Y0177310D01*
X0163638Y0175712D02*
X0157132Y0175712D01*
X0154571Y0170916D02*
X0153500Y0170916D01*
X0153500Y0169318D02*
X0157126Y0169318D01*
X0157563Y0167719D02*
X0153330Y0167719D01*
X0151732Y0166120D02*
X0156838Y0166120D01*
X0156838Y0164522D02*
X0150133Y0164522D01*
X0148535Y0162923D02*
X0156838Y0162923D01*
X0164474Y0169318D02*
X0165030Y0169318D01*
X0196644Y0167719D02*
X0198956Y0167719D01*
X0198956Y0166120D02*
X0196644Y0166120D01*
X0197962Y0169318D02*
X0198968Y0169318D01*
X0202918Y0171300D02*
X0202918Y0171300D01*
X0208333Y0174113D02*
X0217126Y0174113D01*
X0215731Y0175712D02*
X0209400Y0175712D01*
X0210459Y0177310D02*
X0215731Y0177310D01*
X0215731Y0178909D02*
X0210884Y0178909D01*
X0213618Y0180507D02*
X0215731Y0180507D01*
X0211649Y0184760D02*
X0207021Y0184760D01*
X0207080Y0184980D01*
X0207080Y0186300D01*
X0207080Y0187620D01*
X0206958Y0188077D01*
X0206850Y0188264D01*
X0206880Y0188295D01*
X0206880Y0189160D01*
X0206900Y0189180D01*
X0208400Y0190680D01*
X0208400Y0191081D01*
X0209339Y0192020D01*
X0209884Y0193337D01*
X0209884Y0194763D01*
X0209430Y0195860D01*
X0213221Y0195860D01*
X0215731Y0198370D01*
X0215731Y0198318D01*
X0216250Y0197800D01*
X0215731Y0197282D01*
X0215731Y0191625D01*
X0216669Y0190688D01*
X0218551Y0190688D01*
X0220327Y0188912D01*
X0216669Y0188912D01*
X0215731Y0187975D01*
X0215731Y0186500D01*
X0213389Y0186500D01*
X0212100Y0185211D01*
X0211649Y0184760D01*
X0212191Y0185303D02*
X0207080Y0185303D01*
X0207080Y0186300D02*
X0202918Y0186300D01*
X0207080Y0186300D01*
X0207080Y0186901D02*
X0215731Y0186901D01*
X0216257Y0188500D02*
X0206880Y0188500D01*
X0207818Y0190098D02*
X0219141Y0190098D01*
X0215731Y0191697D02*
X0209016Y0191697D01*
X0209867Y0193295D02*
X0215731Y0193295D01*
X0215731Y0194894D02*
X0209830Y0194894D01*
X0213853Y0196492D02*
X0215731Y0196492D01*
X0215959Y0198091D02*
X0215452Y0198091D01*
X0212426Y0201288D02*
X0207080Y0201288D01*
X0207080Y0201800D02*
X0202918Y0201800D01*
X0207080Y0201800D01*
X0207080Y0203120D01*
X0206958Y0203577D01*
X0206850Y0203764D01*
X0206880Y0203795D01*
X0206880Y0207286D01*
X0206492Y0207673D01*
X0206839Y0208020D01*
X0207384Y0209337D01*
X0207384Y0210763D01*
X0206839Y0212080D01*
X0206042Y0212877D01*
X0206443Y0212877D01*
X0206926Y0213360D01*
X0215731Y0213360D01*
X0215731Y0213318D01*
X0216250Y0212800D01*
X0215731Y0212282D01*
X0215731Y0206625D01*
X0216669Y0205688D01*
X0219551Y0205688D01*
X0220327Y0204912D01*
X0216669Y0204912D01*
X0215731Y0203975D01*
X0215731Y0203250D01*
X0214389Y0203250D01*
X0213100Y0201961D01*
X0211399Y0200260D01*
X0207021Y0200260D01*
X0207080Y0200480D01*
X0207080Y0201800D01*
X0207080Y0202886D02*
X0214025Y0202886D01*
X0216242Y0204485D02*
X0206880Y0204485D01*
X0206880Y0206083D02*
X0216274Y0206083D01*
X0215731Y0207682D02*
X0206501Y0207682D01*
X0207361Y0209280D02*
X0215731Y0209280D01*
X0215731Y0210879D02*
X0207336Y0210879D01*
X0206442Y0212477D02*
X0215927Y0212477D01*
X0215731Y0217760D02*
X0207521Y0217760D01*
X0207580Y0217980D01*
X0207580Y0219300D01*
X0207580Y0220620D01*
X0207458Y0221077D01*
X0207350Y0221264D01*
X0207380Y0221295D01*
X0207380Y0221660D01*
X0208400Y0222680D01*
X0208400Y0222680D01*
X0209161Y0223441D01*
X0209330Y0223511D01*
X0210339Y0224520D01*
X0210884Y0225837D01*
X0210884Y0227263D01*
X0210517Y0228150D01*
X0232806Y0228150D01*
X0233900Y0227056D01*
X0233900Y0207573D01*
X0233908Y0207553D01*
X0230500Y0210961D01*
X0230500Y0222409D01*
X0230884Y0223337D01*
X0230884Y0224763D01*
X0230339Y0226080D01*
X0229330Y0227089D01*
X0228013Y0227634D01*
X0226587Y0227634D01*
X0225270Y0227089D01*
X0224261Y0226080D01*
X0223771Y0224897D01*
X0223330Y0225339D01*
X0222013Y0225884D01*
X0220587Y0225884D01*
X0219270Y0225339D01*
X0218261Y0224330D01*
X0217716Y0223013D01*
X0217716Y0221587D01*
X0218261Y0220270D01*
X0218619Y0219912D01*
X0216669Y0219912D01*
X0215731Y0218975D01*
X0215731Y0217760D01*
X0215731Y0218871D02*
X0207580Y0218871D01*
X0207580Y0219300D02*
X0203418Y0219300D01*
X0207580Y0219300D01*
X0207580Y0220470D02*
X0218178Y0220470D01*
X0217716Y0222068D02*
X0207788Y0222068D01*
X0209486Y0223667D02*
X0217987Y0223667D01*
X0219197Y0225265D02*
X0210647Y0225265D01*
X0210884Y0226864D02*
X0225045Y0226864D01*
X0223924Y0225265D02*
X0223403Y0225265D01*
X0229555Y0226864D02*
X0233900Y0226864D01*
X0233900Y0225265D02*
X0230676Y0225265D01*
X0230884Y0223667D02*
X0233900Y0223667D01*
X0233900Y0222068D02*
X0230500Y0222068D01*
X0230500Y0220470D02*
X0233900Y0220470D01*
X0233900Y0218871D02*
X0230500Y0218871D01*
X0230500Y0217273D02*
X0233900Y0217273D01*
X0233900Y0215674D02*
X0230500Y0215674D01*
X0230500Y0214076D02*
X0233900Y0214076D01*
X0233900Y0212477D02*
X0230500Y0212477D01*
X0230582Y0210879D02*
X0233900Y0210879D01*
X0233900Y0209280D02*
X0232181Y0209280D01*
X0233779Y0207682D02*
X0233900Y0207682D01*
X0238700Y0218871D02*
X0241529Y0218871D01*
X0240889Y0220470D02*
X0238700Y0220470D01*
X0238700Y0222068D02*
X0240889Y0222068D01*
X0240889Y0223667D02*
X0238700Y0223667D01*
X0238700Y0225265D02*
X0240889Y0225265D01*
X0240889Y0226864D02*
X0238700Y0226864D01*
X0238700Y0228462D02*
X0262502Y0228462D01*
X0262502Y0226864D02*
X0255900Y0226864D01*
X0255900Y0225265D02*
X0262502Y0225265D01*
X0262502Y0223667D02*
X0255900Y0223667D01*
X0255900Y0222068D02*
X0262646Y0222068D01*
X0262502Y0230061D02*
X0237683Y0230061D01*
X0260202Y0246046D02*
X0261398Y0246046D01*
X0261169Y0247645D02*
X0260431Y0247645D01*
X0260431Y0249243D02*
X0261169Y0249243D01*
X0261169Y0250842D02*
X0260431Y0250842D01*
X0260316Y0252440D02*
X0261284Y0252440D01*
X0262919Y0255637D02*
X0255900Y0255637D01*
X0255900Y0254039D02*
X0286250Y0254039D01*
X0286250Y0252440D02*
X0282425Y0252440D01*
X0282596Y0250842D02*
X0286250Y0250842D01*
X0278815Y0250842D02*
X0278053Y0250842D01*
X0278053Y0252440D02*
X0278815Y0252440D01*
X0276352Y0255637D02*
X0274752Y0255637D01*
X0274752Y0257236D02*
X0276352Y0257236D01*
X0276352Y0258834D02*
X0274752Y0258834D01*
X0274752Y0260433D02*
X0276352Y0260433D01*
X0276352Y0262031D02*
X0274752Y0262031D01*
X0274752Y0263630D02*
X0276352Y0263630D01*
X0276352Y0265228D02*
X0274752Y0265228D01*
X0262502Y0262031D02*
X0255005Y0262031D01*
X0255900Y0260433D02*
X0262502Y0260433D01*
X0262502Y0258834D02*
X0255900Y0258834D01*
X0255900Y0257236D02*
X0262502Y0257236D01*
X0274013Y0252440D02*
X0274442Y0252440D01*
X0274272Y0250842D02*
X0274128Y0250842D01*
X0278053Y0247645D02*
X0278815Y0247645D01*
X0278815Y0246046D02*
X0278053Y0246046D01*
X0262502Y0271622D02*
X0255900Y0271622D01*
X0255900Y0273221D02*
X0262502Y0273221D01*
X0262502Y0274819D02*
X0255900Y0274819D01*
X0255900Y0276418D02*
X0262604Y0276418D01*
X0255900Y0278016D02*
X0286250Y0278016D01*
X0277669Y0286009D02*
X0276931Y0286009D01*
X0276931Y0287607D02*
X0277669Y0287607D01*
X0203418Y0219300D02*
X0203418Y0219300D01*
X0202918Y0201800D02*
X0202918Y0201800D01*
X0202918Y0186300D02*
X0202918Y0186300D01*
X0251200Y0193295D02*
X0254082Y0193295D01*
X0254082Y0194894D02*
X0251200Y0194894D01*
X0251200Y0196492D02*
X0254082Y0196492D01*
X0254082Y0198091D02*
X0251200Y0198091D01*
X0251200Y0199689D02*
X0254946Y0199689D01*
X0254794Y0186901D02*
X0258988Y0186901D01*
X0257505Y0185303D02*
X0254794Y0185303D01*
X0254794Y0174113D02*
X0257157Y0174113D01*
X0257157Y0172515D02*
X0254794Y0172515D01*
X0254794Y0170916D02*
X0257157Y0170916D01*
X0254014Y0129355D02*
X0253900Y0129355D01*
X0212339Y0102180D02*
X0193541Y0102180D01*
X0191943Y0100582D02*
X0210740Y0100582D01*
X0209142Y0098983D02*
X0190344Y0098983D01*
X0188746Y0097384D02*
X0207543Y0097384D01*
X0205945Y0095786D02*
X0188500Y0095786D01*
X0188500Y0094187D02*
X0204346Y0094187D01*
X0175360Y0126158D02*
X0166519Y0126158D01*
X0168117Y0127756D02*
X0177271Y0127756D01*
X0179181Y0129355D02*
X0169716Y0129355D01*
X0173450Y0124559D02*
X0140342Y0124559D01*
X0137258Y0124559D02*
X0133500Y0124559D01*
X0133500Y0122961D02*
X0171539Y0122961D01*
X0169629Y0121362D02*
X0133500Y0121362D01*
X0133500Y0119764D02*
X0167652Y0119764D01*
X0166600Y0118165D02*
X0133500Y0118165D01*
X0132928Y0116567D02*
X0166600Y0116567D01*
X0166600Y0114968D02*
X0131329Y0114968D01*
X0131431Y0113370D02*
X0131969Y0113370D01*
X0131969Y0111771D02*
X0131431Y0111771D01*
X0131431Y0110173D02*
X0131969Y0110173D01*
X0131969Y0108574D02*
X0131431Y0108574D01*
X0131031Y0106976D02*
X0132569Y0106976D01*
X0132169Y0105377D02*
X0131431Y0105377D01*
X0131431Y0103779D02*
X0132169Y0103779D01*
X0132169Y0102180D02*
X0131431Y0102180D01*
X0131431Y0100582D02*
X0132169Y0100582D01*
X0136809Y0098983D02*
X0116500Y0098983D01*
X0116500Y0097384D02*
X0136809Y0097384D01*
X0136809Y0095786D02*
X0116500Y0095786D01*
X0116500Y0094187D02*
X0136809Y0094187D01*
X0136809Y0092589D02*
X0116500Y0092589D01*
X0116500Y0090990D02*
X0117192Y0090990D01*
X0121455Y0090990D02*
X0126604Y0090990D01*
X0128883Y0090990D02*
X0129449Y0090990D01*
X0129449Y0089392D02*
X0128883Y0089392D01*
X0128883Y0087793D02*
X0129449Y0087793D01*
X0129449Y0086216D02*
X0128883Y0086216D01*
X0128883Y0081333D01*
X0128883Y0076939D01*
X0129449Y0076939D01*
X0138726Y0076939D01*
X0138726Y0076374D01*
X0133843Y0076374D01*
X0129449Y0076374D01*
X0129449Y0076939D01*
X0129449Y0086216D01*
X0129449Y0086195D02*
X0128883Y0086195D01*
X0128883Y0084596D02*
X0129449Y0084596D01*
X0129449Y0082998D02*
X0128883Y0082998D01*
X0128883Y0081399D02*
X0129449Y0081399D01*
X0129449Y0079801D02*
X0128883Y0079801D01*
X0128883Y0078202D02*
X0129449Y0078202D01*
X0129449Y0076604D02*
X0138726Y0076604D01*
X0138726Y0076374D02*
X0139291Y0076374D01*
X0139291Y0067097D01*
X0138726Y0067097D01*
X0138726Y0071979D01*
X0138726Y0076374D01*
X0138726Y0075005D02*
X0139291Y0075005D01*
X0139291Y0073407D02*
X0138726Y0073407D01*
X0138726Y0071808D02*
X0139291Y0071808D01*
X0139291Y0070210D02*
X0138726Y0070210D01*
X0138726Y0068611D02*
X0139291Y0068611D01*
X0138726Y0067096D02*
X0138726Y0066531D01*
X0139291Y0066531D01*
X0139291Y0057254D01*
X0138726Y0057254D01*
X0138726Y0062137D01*
X0138726Y0066531D01*
X0133843Y0066531D01*
X0129449Y0066531D01*
X0129449Y0067096D01*
X0138726Y0067096D01*
X0138726Y0067013D02*
X0129449Y0067013D01*
X0129449Y0067097D02*
X0128883Y0067097D01*
X0128883Y0071979D01*
X0128883Y0076374D01*
X0129449Y0076374D01*
X0129449Y0067097D01*
X0128883Y0067096D02*
X0128883Y0066531D01*
X0124489Y0066531D01*
X0119606Y0066531D01*
X0119606Y0057254D01*
X0119041Y0057254D01*
X0119041Y0062137D01*
X0119041Y0066531D01*
X0119606Y0066531D01*
X0119606Y0067096D01*
X0128883Y0067096D01*
X0128883Y0067013D02*
X0119606Y0067013D01*
X0119041Y0067013D02*
X0109764Y0067013D01*
X0109764Y0067096D02*
X0119041Y0067096D01*
X0119041Y0066531D01*
X0114158Y0066531D01*
X0109764Y0066531D01*
X0109764Y0067096D01*
X0109764Y0066531D02*
X0109764Y0057254D01*
X0119041Y0057254D01*
X0119041Y0056689D01*
X0114158Y0056689D01*
X0109764Y0056689D01*
X0109764Y0057254D01*
X0109198Y0057254D01*
X0109198Y0062137D01*
X0109198Y0066531D01*
X0109764Y0066531D01*
X0109764Y0065414D02*
X0109198Y0065414D01*
X0109198Y0063816D02*
X0109764Y0063816D01*
X0109764Y0062217D02*
X0109198Y0062217D01*
X0109198Y0060619D02*
X0109764Y0060619D01*
X0109764Y0059020D02*
X0109198Y0059020D01*
X0109198Y0057422D02*
X0109764Y0057422D01*
X0109764Y0055823D02*
X0109198Y0055823D01*
X0109198Y0054225D02*
X0109764Y0054225D01*
X0109764Y0052626D02*
X0109198Y0052626D01*
X0106674Y0052626D02*
X0102124Y0052626D01*
X0103875Y0054225D02*
X0105092Y0054225D01*
X0112288Y0052626D02*
X0116516Y0052626D01*
X0114934Y0054225D02*
X0113870Y0054225D01*
X0119041Y0054225D02*
X0119606Y0054225D01*
X0119606Y0055823D02*
X0119041Y0055823D01*
X0119606Y0056689D02*
X0119606Y0057254D01*
X0128883Y0057254D01*
X0128883Y0056689D01*
X0124489Y0056689D01*
X0119606Y0056689D01*
X0119606Y0057422D02*
X0119041Y0057422D01*
X0119041Y0059020D02*
X0119606Y0059020D01*
X0119606Y0060619D02*
X0119041Y0060619D01*
X0119041Y0062217D02*
X0119606Y0062217D01*
X0119606Y0063816D02*
X0119041Y0063816D01*
X0119041Y0065414D02*
X0119606Y0065414D01*
X0128883Y0065414D02*
X0129449Y0065414D01*
X0129449Y0066531D02*
X0129449Y0057254D01*
X0138726Y0057254D01*
X0138726Y0056689D01*
X0133843Y0056689D01*
X0129449Y0056689D01*
X0129449Y0057254D01*
X0128883Y0057254D01*
X0128883Y0062137D01*
X0128883Y0066531D01*
X0129449Y0066531D01*
X0129449Y0068611D02*
X0128883Y0068611D01*
X0128883Y0070210D02*
X0129449Y0070210D01*
X0129449Y0071808D02*
X0128883Y0071808D01*
X0128883Y0073407D02*
X0129449Y0073407D01*
X0129449Y0075005D02*
X0128883Y0075005D01*
X0128883Y0063816D02*
X0129449Y0063816D01*
X0129449Y0062217D02*
X0128883Y0062217D01*
X0128883Y0060619D02*
X0129449Y0060619D01*
X0129449Y0059020D02*
X0128883Y0059020D01*
X0128883Y0057422D02*
X0129449Y0057422D01*
X0129449Y0055823D02*
X0128883Y0055823D01*
X0128883Y0054225D02*
X0129449Y0054225D01*
X0129449Y0052626D02*
X0128883Y0052626D01*
X0126359Y0052626D02*
X0122131Y0052626D01*
X0123713Y0054225D02*
X0124777Y0054225D01*
X0119606Y0052626D02*
X0119041Y0052626D01*
X0131973Y0052626D02*
X0136201Y0052626D01*
X0134619Y0054225D02*
X0133555Y0054225D01*
X0138726Y0054225D02*
X0139291Y0054225D01*
X0139291Y0055823D02*
X0138726Y0055823D01*
X0138726Y0057422D02*
X0139291Y0057422D01*
X0139291Y0059020D02*
X0138726Y0059020D01*
X0138726Y0060619D02*
X0139291Y0060619D01*
X0139291Y0062217D02*
X0138726Y0062217D01*
X0138726Y0063816D02*
X0139291Y0063816D01*
X0139291Y0065414D02*
X0138726Y0065414D01*
X0138726Y0052626D02*
X0139291Y0052626D01*
X0145651Y0049429D02*
X0048012Y0049429D01*
X0050660Y0065414D02*
X0078242Y0065414D01*
X0076643Y0067013D02*
X0054151Y0067013D01*
X0055750Y0068611D02*
X0075045Y0068611D01*
X0073446Y0070210D02*
X0056950Y0070210D01*
X0057612Y0071808D02*
X0071848Y0071808D01*
X0070249Y0073407D02*
X0058171Y0073407D01*
X0058171Y0075005D02*
X0068651Y0075005D01*
X0067052Y0076604D02*
X0058171Y0076604D01*
X0057708Y0078202D02*
X0065454Y0078202D01*
X0063855Y0079801D02*
X0057046Y0079801D01*
X0055981Y0081399D02*
X0058839Y0081399D01*
X0057241Y0082998D02*
X0054382Y0082998D01*
X0056300Y0096300D02*
X0060550Y0096300D01*
X0061300Y0097050D01*
X0069300Y0097050D01*
X0070300Y0096050D01*
X0069800Y0104507D01*
X0078300Y0105257D02*
X0078300Y0096300D01*
X0078300Y0105257D02*
X0079050Y0105507D01*
X0116500Y0105377D02*
X0125082Y0105377D01*
X0125082Y0103779D02*
X0116500Y0103779D01*
X0116500Y0102180D02*
X0125082Y0102180D01*
X0125082Y0100582D02*
X0116500Y0100582D01*
X0116500Y0106976D02*
X0125483Y0106976D01*
X0125082Y0108574D02*
X0116500Y0108574D01*
X0116500Y0110173D02*
X0125082Y0110173D01*
X0125082Y0111771D02*
X0116500Y0111771D01*
X0116500Y0113370D02*
X0125082Y0113370D01*
X0126057Y0114968D02*
X0116500Y0114968D01*
X0116500Y0116567D02*
X0126705Y0116567D01*
X0128304Y0118165D02*
X0116500Y0118165D01*
X0116500Y0119764D02*
X0117093Y0119764D01*
X0116582Y0121362D02*
X0116500Y0121362D01*
X0116500Y0122961D02*
X0116582Y0122961D01*
X0122931Y0122961D02*
X0123469Y0122961D01*
X0123469Y0124559D02*
X0122931Y0124559D01*
X0122931Y0126158D02*
X0123538Y0126158D01*
X0124483Y0127756D02*
X0120117Y0127756D01*
X0122300Y0128019D02*
X0122300Y0132181D01*
X0122300Y0128019D01*
X0122300Y0129355D02*
X0122300Y0129355D01*
X0122300Y0130953D02*
X0122300Y0130953D01*
X0122300Y0132181D02*
X0122300Y0132181D01*
X0121243Y0140544D02*
X0123357Y0140544D01*
X0123357Y0142143D02*
X0121243Y0142143D01*
X0121243Y0143741D02*
X0123357Y0143741D01*
X0123357Y0145340D02*
X0121243Y0145340D01*
X0122262Y0146938D02*
X0123840Y0146938D01*
X0123840Y0148537D02*
X0122634Y0148537D01*
X0122273Y0150135D02*
X0123840Y0150135D01*
X0123840Y0151734D02*
X0120730Y0151734D01*
X0117370Y0151734D02*
X0105884Y0151734D01*
X0105949Y0153332D02*
X0105648Y0153332D01*
X0105386Y0150135D02*
X0115827Y0150135D01*
X0115466Y0148537D02*
X0113924Y0148537D01*
X0115523Y0146938D02*
X0115838Y0146938D01*
X0110651Y0153332D02*
X0123840Y0153332D01*
X0123840Y0154931D02*
X0111716Y0154931D01*
X0111884Y0156529D02*
X0123840Y0156529D01*
X0123840Y0158128D02*
X0111291Y0158128D01*
X0104724Y0174113D02*
X0120468Y0174113D01*
X0112310Y0180507D02*
X0109000Y0180507D01*
X0109000Y0182106D02*
X0111413Y0182106D01*
X0111413Y0183704D02*
X0110315Y0183704D01*
X0133500Y0127756D02*
X0135216Y0127756D01*
X0135601Y0126158D02*
X0133500Y0126158D01*
X0126843Y0122961D02*
X0126843Y0122961D01*
X0126843Y0121362D02*
X0126843Y0121362D01*
X0126843Y0119764D02*
X0126843Y0119764D01*
X0123897Y0119764D02*
X0122420Y0119764D01*
X0122931Y0121362D02*
X0123469Y0121362D01*
X0135343Y0114962D02*
X0135343Y0110800D01*
X0135343Y0110800D01*
X0135343Y0114962D01*
X0135343Y0113370D02*
X0135343Y0113370D01*
X0135343Y0111771D02*
X0135343Y0111771D01*
X0135343Y0110800D02*
X0138718Y0110800D01*
X0135343Y0110800D01*
X0135343Y0110800D01*
X0138718Y0110173D02*
X0166600Y0110173D01*
X0166600Y0111771D02*
X0138718Y0111771D01*
X0138718Y0113370D02*
X0166600Y0113370D01*
X0166600Y0108574D02*
X0138718Y0108574D01*
X0138117Y0106976D02*
X0166600Y0106976D01*
X0166600Y0105377D02*
X0138834Y0105377D01*
X0140433Y0103779D02*
X0166600Y0103779D01*
X0166600Y0102180D02*
X0141209Y0102180D01*
X0141209Y0100582D02*
X0166600Y0100582D01*
X0166600Y0098983D02*
X0141209Y0098983D01*
X0141209Y0097384D02*
X0166600Y0097384D01*
X0166600Y0095786D02*
X0141209Y0095786D01*
X0141209Y0094187D02*
X0166600Y0094187D01*
X0166600Y0092589D02*
X0141209Y0092589D01*
X0141209Y0090990D02*
X0146720Y0090990D01*
X0144722Y0089392D02*
X0143138Y0089392D01*
X0143847Y0087793D02*
X0144013Y0087793D01*
X0150982Y0090990D02*
X0156562Y0090990D01*
X0154565Y0089392D02*
X0152980Y0089392D01*
X0153689Y0087793D02*
X0153855Y0087793D01*
X0160825Y0090990D02*
X0166405Y0090990D01*
X0164407Y0089392D02*
X0162823Y0089392D01*
X0163532Y0087793D02*
X0163698Y0087793D01*
X0136809Y0090990D02*
X0131728Y0090990D01*
X0133449Y0089392D02*
X0134880Y0089392D01*
X0124883Y0089392D02*
X0123453Y0089392D01*
X0094740Y0055823D02*
X0094695Y0055823D01*
X0094033Y0054225D02*
X0095402Y0054225D01*
X0097153Y0052626D02*
X0092281Y0052626D01*
X0055284Y0151734D02*
X0055284Y0151734D01*
X0055284Y0153332D02*
X0055284Y0153332D01*
X0055284Y0154931D02*
X0055284Y0154931D01*
X0055284Y0156529D02*
X0055284Y0156529D01*
X0254376Y0043035D02*
X0286250Y0043035D01*
D35*
X0266300Y0062050D02*
X0279550Y0075300D01*
X0279550Y0094800D01*
X0279800Y0095050D01*
X0279800Y0155757D01*
X0279800Y0162843D02*
X0279800Y0166800D01*
X0279780Y0166820D01*
X0279780Y0183800D01*
X0279796Y0187816D01*
X0279796Y0204300D01*
X0272166Y0196050D02*
X0271916Y0195800D01*
X0264343Y0195800D01*
X0264820Y0183800D02*
X0260757Y0183737D01*
X0260757Y0166800D01*
X0250300Y0166800D01*
X0250300Y0171335D01*
X0250300Y0166800D02*
X0250300Y0162843D01*
X0250300Y0155757D02*
X0250300Y0103050D01*
X0247300Y0100050D01*
X0215300Y0100050D01*
X0206725Y0091475D01*
X0206725Y0086499D01*
X0206869Y0076800D02*
X0206725Y0076656D01*
X0206869Y0076800D02*
X0231550Y0076800D01*
X0256800Y0102050D01*
X0256800Y0127050D01*
X0279800Y0095050D02*
X0279800Y0091402D01*
X0266300Y0062050D02*
X0235300Y0062050D01*
X0230536Y0066814D01*
X0206725Y0066814D01*
X0251300Y0045050D02*
X0259300Y0053050D01*
X0251300Y0045050D02*
X0148300Y0045050D01*
X0047300Y0045050D01*
X0032300Y0060050D01*
X0032300Y0096300D01*
X0238800Y0254550D02*
X0241574Y0257324D01*
X0248394Y0257324D01*
X0248394Y0275276D02*
X0248394Y0291824D01*
X0247394Y0292824D01*
X0274300Y0302050D02*
X0274550Y0301800D01*
X0274552Y0301800D01*
X0279800Y0166800D02*
X0267843Y0166800D01*
D36*
X0234300Y0204050D02*
X0234300Y0128050D01*
X0218300Y0112050D01*
X0200300Y0112050D01*
X0186300Y0098050D01*
X0186300Y0074735D01*
X0178379Y0066814D01*
X0178379Y0076656D02*
X0183300Y0081578D01*
X0183300Y0101050D01*
X0197300Y0115050D01*
X0217300Y0115050D01*
X0231300Y0129050D01*
X0231300Y0203050D01*
X0225300Y0209050D01*
X0225300Y0219050D01*
X0222050Y0222300D01*
X0221300Y0222300D01*
X0227300Y0223050D02*
X0228300Y0222050D01*
X0228300Y0210050D01*
X0234300Y0204050D01*
X0228300Y0200050D02*
X0228300Y0130050D01*
X0217300Y0119050D01*
X0192300Y0119050D01*
X0178300Y0105050D01*
X0178300Y0086578D01*
X0178379Y0086499D01*
X0173550Y0081670D02*
X0168536Y0076656D01*
X0173550Y0081670D02*
X0173550Y0116300D01*
X0184300Y0125050D01*
X0215300Y0125050D01*
X0222300Y0132050D01*
X0222300Y0172050D01*
X0219300Y0175050D01*
X0219300Y0178454D01*
X0218454Y0184300D02*
X0214300Y0184300D01*
X0212560Y0182560D01*
X0202918Y0182560D01*
X0202918Y0167560D02*
X0214213Y0167560D01*
X0214300Y0167646D01*
X0214300Y0160954D02*
X0219300Y0155954D01*
X0219300Y0134050D01*
X0213300Y0128050D01*
X0181050Y0128050D01*
X0168800Y0117800D01*
X0168800Y0086763D01*
X0168536Y0086499D01*
X0180300Y0115050D02*
X0187300Y0122050D01*
X0216300Y0122050D01*
X0225300Y0131050D01*
X0225300Y0187050D01*
X0219300Y0193050D01*
X0219300Y0194454D01*
X0219204Y0201050D02*
X0215300Y0201050D01*
X0212310Y0198060D01*
X0202918Y0198060D01*
X0219204Y0201050D02*
X0219300Y0201146D01*
X0219300Y0209050D02*
X0228300Y0200050D01*
X0219300Y0209050D02*
X0219300Y0209454D01*
X0218887Y0215560D02*
X0219300Y0216146D01*
X0218887Y0215560D02*
X0203418Y0215560D01*
X0216550Y0238800D02*
X0216454Y0238896D01*
X0216454Y0255800D01*
X0216300Y0255954D01*
X0216213Y0262560D02*
X0206418Y0262560D01*
X0216213Y0262560D02*
X0216300Y0262646D01*
X0221300Y0269050D02*
X0221300Y0240050D01*
X0222300Y0239050D01*
X0227300Y0224050D02*
X0227300Y0223050D01*
X0251300Y0249050D02*
X0257007Y0249050D01*
X0257257Y0249300D01*
X0251300Y0249050D02*
X0248394Y0251956D01*
X0248394Y0257324D01*
X0264343Y0249300D02*
X0270166Y0249300D01*
X0261300Y0290050D02*
X0261300Y0315050D01*
X0286450Y0315050D01*
X0286450Y0312773D01*
X0286420Y0312791D01*
X0286013Y0312900D01*
X0275152Y0312900D01*
X0275152Y0302400D01*
X0286450Y0302400D01*
X0286450Y0301200D01*
X0275152Y0301200D01*
X0275152Y0302400D01*
X0273952Y0302400D01*
X0273952Y0312900D01*
X0263091Y0312900D01*
X0262684Y0312791D01*
X0262320Y0312580D01*
X0262022Y0312282D01*
X0261811Y0311918D01*
X0261702Y0311511D01*
X0261702Y0302400D01*
X0273952Y0302400D01*
X0273952Y0301200D01*
X0275152Y0301200D01*
X0275152Y0290700D01*
X0286013Y0290700D01*
X0286420Y0290809D01*
X0286450Y0290827D01*
X0286450Y0290050D01*
X0261300Y0290050D01*
X0261300Y0290722D02*
X0263007Y0290722D01*
X0263091Y0290700D02*
X0273952Y0290700D01*
X0273952Y0301200D01*
X0261702Y0301200D01*
X0261702Y0292089D01*
X0261811Y0291682D01*
X0262022Y0291318D01*
X0262320Y0291020D01*
X0262684Y0290809D01*
X0263091Y0290700D01*
X0261747Y0291921D02*
X0261300Y0291921D01*
X0261300Y0293120D02*
X0261702Y0293120D01*
X0261702Y0294318D02*
X0261300Y0294318D01*
X0261300Y0295517D02*
X0261702Y0295517D01*
X0261702Y0296715D02*
X0261300Y0296715D01*
X0261300Y0297914D02*
X0261702Y0297914D01*
X0261702Y0299112D02*
X0261300Y0299112D01*
X0261300Y0300311D02*
X0261702Y0300311D01*
X0261300Y0301509D02*
X0273952Y0301509D01*
X0273952Y0300311D02*
X0275152Y0300311D01*
X0275152Y0301509D02*
X0286450Y0301509D01*
X0286450Y0290722D02*
X0286097Y0290722D01*
X0275152Y0290722D02*
X0273952Y0290722D01*
X0273952Y0291921D02*
X0275152Y0291921D01*
X0275152Y0293120D02*
X0273952Y0293120D01*
X0273952Y0294318D02*
X0275152Y0294318D01*
X0275152Y0295517D02*
X0273952Y0295517D01*
X0273952Y0296715D02*
X0275152Y0296715D01*
X0275152Y0297914D02*
X0273952Y0297914D01*
X0273952Y0299112D02*
X0275152Y0299112D01*
X0275152Y0302708D02*
X0273952Y0302708D01*
X0273952Y0303906D02*
X0275152Y0303906D01*
X0275152Y0305105D02*
X0273952Y0305105D01*
X0273952Y0306303D02*
X0275152Y0306303D01*
X0275152Y0307502D02*
X0273952Y0307502D01*
X0273952Y0308700D02*
X0275152Y0308700D01*
X0275152Y0309899D02*
X0273952Y0309899D01*
X0273952Y0311097D02*
X0275152Y0311097D01*
X0275152Y0312296D02*
X0273952Y0312296D01*
X0262035Y0312296D02*
X0261300Y0312296D01*
X0261300Y0313494D02*
X0286450Y0313494D01*
X0286450Y0314693D02*
X0261300Y0314693D01*
X0261300Y0311097D02*
X0261702Y0311097D01*
X0261702Y0309899D02*
X0261300Y0309899D01*
X0261300Y0308700D02*
X0261702Y0308700D01*
X0261702Y0307502D02*
X0261300Y0307502D01*
X0261300Y0306303D02*
X0261702Y0306303D01*
X0261702Y0305105D02*
X0261300Y0305105D01*
X0261300Y0303906D02*
X0261702Y0303906D01*
X0261702Y0302708D02*
X0261300Y0302708D01*
X0221300Y0269050D02*
X0216800Y0273550D01*
X0216800Y0276454D01*
X0145300Y0229050D02*
X0145300Y0221835D01*
X0145099Y0221635D01*
X0145099Y0200849D01*
X0142300Y0199050D01*
X0141950Y0204700D02*
X0134300Y0197050D01*
X0141950Y0204700D02*
X0141950Y0221635D01*
X0145050Y0221684D02*
X0145099Y0221635D01*
X0145300Y0229050D02*
X0144093Y0230257D01*
X0143800Y0230257D01*
X0135800Y0230257D02*
X0134093Y0230050D01*
X0131300Y0230050D01*
X0129300Y0228050D01*
X0129300Y0221686D01*
X0129351Y0221635D01*
X0129351Y0189101D01*
X0129300Y0189050D01*
X0135050Y0183300D02*
X0135650Y0182700D01*
X0135650Y0175965D01*
X0138800Y0175965D02*
X0138800Y0188050D01*
X0142800Y0184050D02*
X0142050Y0183300D01*
X0142050Y0176066D01*
X0141950Y0175965D01*
X0145050Y0175916D02*
X0145050Y0171300D01*
X0142550Y0168800D01*
X0065050Y0168800D01*
X0062961Y0170889D01*
X0062961Y0184654D01*
X0060402Y0184654D02*
X0060402Y0169198D01*
X0063050Y0166550D01*
X0145050Y0166550D01*
X0148300Y0169800D01*
X0148300Y0175914D01*
X0148249Y0175965D01*
X0151300Y0175867D02*
X0151398Y0175965D01*
X0151300Y0175867D02*
X0151300Y0168800D01*
X0146800Y0164300D01*
X0061800Y0164300D01*
X0057843Y0168257D01*
X0057843Y0184654D01*
X0055284Y0184654D02*
X0051404Y0184654D01*
X0051300Y0184550D01*
X0048800Y0189300D02*
X0046300Y0186800D01*
X0046300Y0164300D01*
X0037550Y0154550D01*
X0037550Y0143050D01*
X0037550Y0141800D01*
X0040300Y0138050D01*
X0057684Y0138050D01*
X0058684Y0137050D01*
X0062300Y0137050D01*
X0064300Y0135050D01*
X0084300Y0135050D01*
X0086300Y0133050D01*
X0086300Y0127934D01*
X0085550Y0127184D01*
X0079050Y0127184D02*
X0078050Y0130300D01*
X0075300Y0133050D01*
X0063300Y0133050D01*
X0061300Y0135050D01*
X0055300Y0135050D01*
X0054300Y0136050D01*
X0037300Y0136050D01*
X0037300Y0131050D01*
X0035550Y0129300D01*
X0035550Y0112300D01*
X0034800Y0111550D01*
X0029250Y0111550D01*
X0029250Y0116550D02*
X0023800Y0116550D01*
X0022300Y0118050D01*
X0020300Y0120050D01*
X0020300Y0121550D01*
X0023800Y0121550D01*
X0027050Y0121550D01*
X0029250Y0121550D01*
X0029250Y0126550D02*
X0026800Y0126550D01*
X0026300Y0126050D01*
X0026300Y0138050D01*
X0028300Y0141050D01*
X0029300Y0143050D01*
X0033550Y0139800D02*
X0033550Y0155300D01*
X0044300Y0166050D01*
X0044300Y0188300D01*
X0047550Y0191550D01*
X0081050Y0191550D01*
X0085800Y0186800D01*
X0092800Y0186800D01*
X0094300Y0188300D01*
X0094300Y0208050D01*
X0107885Y0221635D01*
X0123052Y0221635D01*
X0126202Y0221635D02*
X0126202Y0227148D01*
X0125050Y0228300D01*
X0121050Y0228300D01*
X0120050Y0227300D01*
X0120050Y0225300D01*
X0118800Y0224050D01*
X0106550Y0224050D01*
X0092050Y0209550D01*
X0092050Y0190300D01*
X0091050Y0189300D01*
X0086800Y0189300D01*
X0081800Y0194300D01*
X0047050Y0194300D01*
X0042050Y0189300D01*
X0042050Y0168050D01*
X0042050Y0167800D01*
X0020300Y0146050D01*
X0020300Y0121550D01*
X0037300Y0136050D02*
X0037300Y0138050D01*
X0036800Y0138550D01*
X0036300Y0139050D01*
X0034300Y0139050D01*
X0033550Y0139800D01*
X0042550Y0123300D02*
X0043800Y0122050D01*
X0049350Y0122050D01*
X0049850Y0121550D01*
X0049850Y0126550D02*
X0055050Y0126550D01*
X0056300Y0125300D01*
X0056300Y0102550D01*
X0057300Y0103550D01*
X0061757Y0103550D01*
X0060800Y0104507D01*
X0056300Y0102550D02*
X0056300Y0096300D01*
X0052800Y0096800D02*
X0052300Y0096300D01*
X0049800Y0096300D02*
X0049800Y0100007D01*
X0056300Y0091050D02*
X0056300Y0087050D01*
X0060300Y0083050D01*
X0063717Y0083050D01*
X0089796Y0056971D01*
X0089796Y0066814D02*
X0074050Y0082560D01*
X0074050Y0124800D01*
X0071416Y0126434D01*
X0069800Y0126434D01*
X0070300Y0127800D01*
X0067300Y0131050D01*
X0059300Y0131050D01*
X0059300Y0126050D02*
X0053300Y0132050D01*
X0059300Y0126050D02*
X0060934Y0126050D01*
X0060800Y0125184D01*
X0062666Y0125184D01*
X0065050Y0122800D01*
X0065050Y0100550D01*
X0060800Y0111593D02*
X0060800Y0116916D01*
X0060800Y0125184D02*
X0061800Y0126550D01*
X0069800Y0118166D02*
X0069800Y0111593D01*
X0079050Y0112593D02*
X0079050Y0118916D01*
X0085550Y0118916D02*
X0085550Y0112593D01*
X0085800Y0112343D01*
X0085800Y0105257D02*
X0085800Y0096300D01*
X0078300Y0096300D01*
X0089796Y0086499D02*
X0090550Y0086745D01*
X0090550Y0134800D01*
X0088300Y0137050D01*
X0065300Y0137050D01*
X0057843Y0144507D01*
X0057843Y0153946D01*
X0060402Y0153946D02*
X0060402Y0144948D01*
X0066300Y0139050D01*
X0092300Y0139050D01*
X0094800Y0136550D01*
X0094800Y0081660D01*
X0089796Y0076656D01*
X0099639Y0076656D02*
X0104550Y0081568D01*
X0104550Y0140800D01*
X0102300Y0143050D01*
X0068300Y0143050D01*
X0065520Y0145830D01*
X0065520Y0153946D01*
X0062961Y0153946D02*
X0062961Y0145389D01*
X0067300Y0141050D01*
X0097050Y0141050D01*
X0099550Y0138550D01*
X0099550Y0086587D01*
X0099639Y0086499D01*
X0109300Y0086680D02*
X0109481Y0086499D01*
X0109300Y0086680D02*
X0109300Y0143050D01*
X0107300Y0145050D01*
X0070300Y0145050D01*
X0068080Y0147270D01*
X0068080Y0153946D01*
X0070639Y0153946D02*
X0070639Y0147711D01*
X0071300Y0147050D01*
X0112300Y0147050D01*
X0114300Y0145050D01*
X0114300Y0081475D01*
X0109481Y0076656D01*
X0135593Y0103300D02*
X0135343Y0103550D01*
X0135593Y0103300D02*
X0137800Y0103300D01*
X0139009Y0102091D01*
X0139009Y0086499D01*
X0128257Y0103550D02*
X0128257Y0110800D01*
X0128257Y0115007D01*
X0131300Y0118050D01*
X0131300Y0127050D01*
X0130300Y0128050D01*
X0127300Y0128050D01*
X0126800Y0128550D01*
X0127300Y0128050D01*
X0126800Y0128550D02*
X0126040Y0129310D01*
X0126040Y0132181D01*
X0125300Y0138050D02*
X0119800Y0138050D01*
X0118550Y0136800D01*
X0118550Y0132191D01*
X0118560Y0132181D01*
X0118560Y0129310D01*
X0117300Y0128050D01*
X0117300Y0125757D01*
X0119757Y0123300D01*
X0125300Y0138050D02*
X0126040Y0138790D01*
X0126040Y0142419D01*
X0126040Y0157290D01*
X0128300Y0159550D01*
X0170050Y0159550D01*
X0170300Y0159800D01*
X0171425Y0160925D01*
X0175800Y0165300D01*
X0175800Y0177800D01*
X0167398Y0186202D01*
X0161635Y0186202D01*
X0154548Y0175965D02*
X0154548Y0174050D01*
X0156755Y0171843D01*
X0160800Y0171843D01*
X0160800Y0164757D02*
X0167391Y0164757D01*
X0167800Y0165166D01*
X0166300Y0154050D02*
X0163300Y0151050D01*
X0163300Y0148050D01*
X0166300Y0154050D02*
X0199300Y0154050D01*
X0202300Y0151050D01*
X0202300Y0144800D01*
X0212300Y0143800D02*
X0212300Y0148050D01*
X0204300Y0156050D01*
X0149300Y0156050D01*
X0145093Y0151843D01*
X0139800Y0151843D01*
X0128550Y0171050D02*
X0129300Y0171800D01*
X0129300Y0175914D01*
X0129351Y0175965D01*
X0128550Y0171050D02*
X0066800Y0171050D01*
X0065520Y0172330D01*
X0065520Y0184654D01*
X0068080Y0184654D02*
X0068080Y0174770D01*
X0068800Y0174050D01*
X0101550Y0174050D01*
X0106800Y0179300D01*
X0106800Y0183300D01*
X0109550Y0186050D01*
X0115814Y0186050D01*
X0115965Y0186202D01*
X0115914Y0189300D02*
X0115965Y0189351D01*
X0115914Y0189300D02*
X0107800Y0189300D01*
X0104300Y0185800D01*
X0104300Y0180800D01*
X0100050Y0176550D01*
X0070800Y0176550D01*
X0070639Y0176711D01*
X0070639Y0184654D01*
X0073198Y0184654D02*
X0073198Y0179402D01*
X0073300Y0179300D01*
X0098550Y0179300D01*
X0101800Y0182550D01*
X0101800Y0187300D01*
X0107050Y0192550D01*
X0115916Y0192550D01*
X0115965Y0192501D01*
X0115965Y0195650D02*
X0123400Y0195650D01*
X0123550Y0195800D01*
X0115965Y0201950D02*
X0110450Y0201950D01*
X0108300Y0198800D01*
X0105300Y0204050D02*
X0106349Y0205099D01*
X0115965Y0205099D01*
X0115965Y0208249D02*
X0115914Y0208300D01*
X0101800Y0208300D01*
X0099300Y0205800D01*
X0099300Y0184300D01*
X0096300Y0181300D01*
X0075800Y0181300D01*
X0075757Y0181343D01*
X0075757Y0184654D01*
X0079300Y0189300D02*
X0048800Y0189300D01*
X0079300Y0189300D02*
X0084300Y0184300D01*
X0094300Y0184300D01*
X0096800Y0186800D01*
X0096800Y0206800D01*
X0104548Y0214548D01*
X0115965Y0214548D01*
X0118300Y0229050D02*
X0108300Y0229050D01*
X0092066Y0212816D01*
X0079784Y0212816D01*
X0080274Y0217050D02*
X0079784Y0217540D01*
X0080274Y0217050D02*
X0086300Y0217050D01*
X0089300Y0220050D01*
X0089300Y0231050D01*
X0094300Y0224050D02*
X0099300Y0224050D01*
X0110300Y0235050D01*
X0117800Y0235050D01*
X0121800Y0239050D01*
X0121800Y0247050D01*
X0126550Y0251300D01*
X0126550Y0262381D01*
X0129300Y0266050D02*
X0131300Y0264050D01*
X0131300Y0255123D01*
X0130290Y0254113D01*
X0130300Y0254103D01*
X0130300Y0234050D01*
X0129300Y0233050D01*
X0122300Y0233050D01*
X0118300Y0229050D01*
X0117800Y0235050D02*
X0117300Y0235550D01*
X0103507Y0241050D02*
X0097934Y0241050D01*
X0089666Y0241050D02*
X0089554Y0241162D01*
X0079784Y0241162D01*
X0079784Y0250611D02*
X0092477Y0250611D01*
X0093666Y0251800D01*
X0087292Y0255335D02*
X0091757Y0259800D01*
X0087292Y0255335D02*
X0079784Y0255335D01*
X0101934Y0251800D02*
X0111757Y0251800D01*
X0111800Y0251757D01*
X0112300Y0259343D02*
X0114007Y0259343D01*
X0119300Y0254050D01*
X0122747Y0254050D01*
X0122810Y0254113D01*
X0117300Y0266050D02*
X0129300Y0266050D01*
X0117300Y0266050D02*
X0116300Y0267050D01*
X0116300Y0286050D01*
X0121300Y0291050D01*
X0123300Y0291050D01*
X0118300Y0292050D02*
X0116800Y0290550D01*
X0035050Y0217550D02*
X0035040Y0217540D01*
X0027816Y0217540D01*
X0073198Y0153946D02*
X0073300Y0153843D01*
X0075757Y0153946D02*
X0075800Y0153902D01*
X0099050Y0156050D02*
X0108300Y0156050D01*
X0102300Y0152050D02*
X0101800Y0152050D01*
X0118560Y0148060D02*
X0118560Y0142419D01*
X0118560Y0148060D02*
X0119050Y0148550D01*
X0138800Y0127800D02*
X0165050Y0127800D01*
X0169800Y0132550D01*
X0176800Y0132550D01*
X0182300Y0138050D01*
X0182300Y0144800D01*
X0172300Y0143800D02*
X0172300Y0140050D01*
X0164550Y0132300D01*
X0145050Y0175916D02*
X0145099Y0175965D01*
X0150300Y0198050D02*
X0151050Y0198800D01*
X0161635Y0198800D01*
X0218454Y0184300D02*
X0219300Y0185146D01*
X0079050Y0127184D02*
X0078300Y0127434D01*
X0049850Y0116550D02*
X0042800Y0116550D01*
X0042300Y0117050D01*
X0049800Y0111800D02*
X0049800Y0107093D01*
D37*
X0039300Y0104050D03*
X0042300Y0117050D03*
X0042550Y0123300D03*
X0053300Y0132050D03*
X0059300Y0131050D03*
X0037550Y0143050D03*
X0029300Y0143050D03*
X0037550Y0184550D03*
X0051300Y0184550D03*
X0035050Y0217550D03*
X0036300Y0252050D03*
X0089300Y0231050D03*
X0105300Y0204050D03*
X0108300Y0198800D03*
X0123550Y0195800D03*
X0129300Y0189050D03*
X0135050Y0183300D03*
X0138800Y0188050D03*
X0142800Y0184050D03*
X0142300Y0199050D03*
X0134300Y0197050D03*
X0150300Y0198050D03*
X0151400Y0215250D03*
X0164800Y0221050D03*
X0156800Y0236800D03*
X0178300Y0229050D03*
X0184300Y0215550D03*
X0187300Y0203550D03*
X0203800Y0210050D03*
X0212800Y0207050D03*
X0206300Y0194050D03*
X0212300Y0193050D03*
X0207300Y0179050D03*
X0211800Y0173550D03*
X0186800Y0167550D03*
X0186800Y0181550D03*
X0149300Y0156050D03*
X0130300Y0147050D03*
X0119050Y0148550D03*
X0108300Y0156050D03*
X0102300Y0152050D03*
X0085300Y0154050D03*
X0133800Y0132050D03*
X0138800Y0127800D03*
X0180300Y0115050D03*
X0256800Y0127050D03*
X0259300Y0053050D03*
X0123050Y0214550D03*
X0117800Y0235050D03*
X0112300Y0265050D03*
X0123300Y0291050D03*
X0150300Y0292050D03*
X0173800Y0287050D03*
X0190300Y0283050D03*
X0209300Y0275550D03*
X0212800Y0268550D03*
X0216300Y0289050D03*
X0208800Y0294550D03*
X0189800Y0262550D03*
X0216550Y0238800D03*
X0222300Y0239050D03*
X0227300Y0224050D03*
X0221300Y0222300D03*
X0213800Y0222050D03*
X0207300Y0226550D03*
X0238800Y0254550D03*
X0264300Y0292050D03*
X0264300Y0297050D03*
X0264300Y0302050D03*
X0264300Y0307050D03*
X0264300Y0312050D03*
X0269300Y0312050D03*
X0269300Y0307050D03*
X0274300Y0307050D03*
X0274300Y0312050D03*
X0279300Y0312050D03*
X0279300Y0307050D03*
X0284300Y0307050D03*
X0284300Y0312050D03*
X0284300Y0302050D03*
X0284300Y0297050D03*
X0279300Y0297050D03*
X0279300Y0302050D03*
X0274300Y0302050D03*
X0274300Y0297050D03*
X0269300Y0297050D03*
X0269300Y0302050D03*
X0269300Y0292050D03*
X0274300Y0292050D03*
X0279300Y0292050D03*
X0284300Y0292050D03*
X0078300Y0096300D03*
X0070300Y0096050D03*
X0056300Y0091050D03*
D38*
X0056300Y0096300D02*
X0052300Y0096300D01*
X0049800Y0096300D01*
X0032300Y0096300D01*
X0144343Y0236800D02*
X0143800Y0237343D01*
X0135800Y0237343D01*
X0144343Y0236800D02*
X0156800Y0236800D01*
X0248343Y0257375D02*
X0248394Y0257324D01*
X0284843Y0296507D02*
X0284300Y0297050D01*
D39*
X0148851Y0056971D02*
X0148851Y0045601D01*
X0148300Y0045050D01*
D40*
X0133800Y0132050D02*
X0163800Y0132050D01*
X0164550Y0132300D01*
X0160007Y0144757D02*
X0163300Y0148050D01*
X0160007Y0144757D02*
X0139800Y0144757D01*
X0139693Y0144650D01*
X0132900Y0144650D01*
X0130500Y0147050D01*
X0130300Y0147050D01*
X0102300Y0152050D02*
X0100300Y0150050D01*
X0074300Y0150050D01*
X0073300Y0151050D01*
X0073300Y0153843D01*
X0075800Y0153902D02*
X0075800Y0157550D01*
X0077300Y0159050D01*
X0096050Y0159050D01*
X0099050Y0156050D01*
X0161635Y0189351D02*
X0173229Y0189351D01*
X0173257Y0189379D01*
X0173032Y0192501D02*
X0173257Y0192725D01*
X0173032Y0192501D02*
X0161635Y0192501D01*
X0161635Y0195650D02*
X0173032Y0195650D01*
X0173257Y0195875D01*
X0173257Y0199221D02*
X0173300Y0199265D01*
X0173300Y0204050D01*
X0172251Y0205099D01*
X0161635Y0205099D01*
X0161635Y0208249D02*
X0167999Y0208249D01*
X0170300Y0210550D01*
X0170300Y0230550D01*
X0174800Y0235050D01*
X0174800Y0254007D01*
X0174800Y0261093D02*
X0174300Y0261593D01*
X0174300Y0267050D01*
X0177290Y0270040D01*
X0196182Y0270040D01*
X0196182Y0262560D02*
X0195172Y0262550D01*
X0189800Y0262550D01*
X0206300Y0270158D02*
X0206418Y0270040D01*
X0206300Y0270158D02*
X0206300Y0272550D01*
X0209300Y0275550D01*
X0205918Y0283060D02*
X0216713Y0283060D01*
X0216800Y0283146D01*
X0208800Y0293422D02*
X0205918Y0290540D01*
X0208800Y0293422D02*
X0208800Y0294550D01*
X0195682Y0290540D02*
X0168290Y0290540D01*
X0167300Y0289550D01*
X0167300Y0261843D01*
X0167800Y0261343D01*
X0167800Y0254257D02*
X0167800Y0232550D01*
X0165300Y0230050D01*
X0153800Y0230050D01*
X0151398Y0227648D01*
X0151398Y0221635D01*
X0178300Y0229050D02*
X0195800Y0229050D01*
X0197800Y0227050D01*
X0193182Y0223040D02*
X0192672Y0223550D01*
X0182800Y0223550D01*
X0180146Y0220896D01*
X0180146Y0199221D01*
X0180146Y0195875D02*
X0183125Y0195875D01*
X0183800Y0196550D01*
X0183800Y0205550D01*
X0185300Y0207050D01*
X0192172Y0207050D01*
X0192682Y0205540D01*
X0187300Y0203550D02*
X0187300Y0198550D01*
X0187800Y0198050D01*
X0192672Y0198050D01*
X0192682Y0198060D01*
X0192672Y0190050D02*
X0185300Y0190050D01*
X0182625Y0192725D01*
X0180146Y0192725D01*
X0180146Y0189379D02*
X0180146Y0177204D01*
X0182300Y0175050D01*
X0192672Y0175050D01*
X0192682Y0175040D01*
X0192682Y0167560D02*
X0192672Y0167550D01*
X0186800Y0167550D01*
X0186800Y0181550D02*
X0187800Y0182550D01*
X0192672Y0182550D01*
X0192682Y0182560D01*
X0192682Y0190040D02*
X0192672Y0190050D01*
X0202918Y0190040D02*
X0202928Y0190050D01*
X0204800Y0190050D01*
X0206300Y0191550D01*
X0206300Y0194050D01*
X0202918Y0205540D02*
X0203800Y0206422D01*
X0203800Y0210050D01*
X0193182Y0215560D02*
X0193172Y0215550D01*
X0184300Y0215550D01*
X0203418Y0223040D02*
X0203928Y0223550D01*
X0206300Y0223550D01*
X0207300Y0224550D01*
X0207300Y0226550D01*
X0207300Y0179050D02*
X0207300Y0176050D01*
X0206300Y0175050D01*
X0202928Y0175050D01*
X0202918Y0175040D01*
X0195672Y0283050D02*
X0190300Y0283050D01*
X0195672Y0283050D02*
X0195682Y0283060D01*
X0195682Y0286800D02*
X0195432Y0287050D01*
X0173800Y0287050D01*
D41*
X0065050Y0100550D03*
D42*
X0094300Y0224050D03*
M02*
