G75*
%MOIN*%
%OFA0B0*%
%FSLAX25Y25*%
%IPPOS*%
%LPD*%
%AMOC8*
5,1,8,0,0,1.08239X$1,22.5*
%
%ADD10C,0.07200*%
%ADD11R,0.07137X0.07137*%
%ADD12C,0.07800*%
%ADD13R,0.03950X0.05524*%
%ADD14R,0.03753X0.02375*%
%ADD15R,0.03753X0.02769*%
%ADD16R,0.07099X0.08280*%
%ADD17R,0.05524X0.03950*%
%ADD18R,0.04343X0.03950*%
%ADD19C,0.07531*%
%ADD20C,0.09658*%
%ADD21C,0.16942*%
D10*
X0172300Y0140600D02*
X0172300Y0147000D01*
X0182300Y0148000D02*
X0182300Y0141600D01*
X0192300Y0140600D02*
X0192300Y0147000D01*
X0202300Y0148000D02*
X0202300Y0141600D01*
X0212300Y0140600D02*
X0212300Y0147000D01*
D11*
X0138300Y0307800D03*
D12*
X0128300Y0307800D03*
X0118300Y0307800D03*
X0108300Y0307800D03*
X0098300Y0307800D03*
X0088300Y0307800D03*
D13*
X0122757Y0283300D03*
X0129843Y0283300D03*
X0128507Y0291300D03*
X0135593Y0291300D03*
X0130093Y0245050D03*
X0123007Y0245050D03*
X0123007Y0236050D03*
X0130093Y0236050D03*
D14*
X0175757Y0195875D03*
X0175757Y0192725D03*
X0182646Y0192725D03*
X0182646Y0195875D03*
X0188757Y0195875D03*
X0188757Y0192725D03*
X0195646Y0192725D03*
X0195646Y0195875D03*
X0184343Y0274725D03*
X0184343Y0277875D03*
X0177454Y0277875D03*
X0177454Y0274725D03*
D15*
X0177454Y0271379D03*
X0184343Y0271379D03*
X0184343Y0281221D03*
X0177454Y0281221D03*
X0175757Y0199221D03*
X0182646Y0199221D03*
X0188757Y0199221D03*
X0195646Y0199221D03*
X0195646Y0189379D03*
X0188757Y0189379D03*
X0182646Y0189379D03*
X0175757Y0189379D03*
D16*
X0249300Y0221304D03*
X0249300Y0234296D03*
X0240800Y0270304D03*
X0240800Y0283296D03*
X0236300Y0295804D03*
X0226300Y0295804D03*
X0226300Y0308796D03*
X0236300Y0308796D03*
D17*
X0249800Y0276093D03*
X0249800Y0269007D03*
X0150300Y0209743D03*
X0150300Y0202657D03*
X0127800Y0202257D03*
X0127800Y0209343D03*
X0118550Y0160093D03*
X0118550Y0153007D03*
X0049550Y0122093D03*
X0049550Y0115007D03*
X0041050Y0217507D03*
X0041050Y0224593D03*
D18*
X0116969Y0271800D03*
X0125237Y0268060D03*
X0125237Y0275540D03*
D19*
X0129166Y0086499D03*
X0119324Y0086499D03*
X0119324Y0076656D03*
X0119324Y0066814D03*
X0129166Y0066814D03*
X0129166Y0076656D03*
X0139009Y0076656D03*
X0139009Y0066814D03*
X0148851Y0066814D03*
X0148851Y0076656D03*
X0148851Y0086499D03*
X0139009Y0086499D03*
X0158694Y0086499D03*
X0168536Y0086499D03*
X0168536Y0076656D03*
X0168536Y0066814D03*
X0158694Y0066814D03*
X0158694Y0076656D03*
X0158694Y0056971D03*
X0168536Y0056971D03*
X0178379Y0056971D03*
X0178379Y0066814D03*
X0178379Y0076656D03*
X0178379Y0086499D03*
X0192158Y0086499D03*
X0192158Y0076656D03*
X0192158Y0066814D03*
X0192158Y0056971D03*
X0206725Y0056971D03*
X0206725Y0066814D03*
X0206725Y0076656D03*
X0206725Y0086499D03*
X0148851Y0056971D03*
X0139009Y0056971D03*
X0129166Y0056971D03*
X0119324Y0056971D03*
X0109481Y0056971D03*
X0099639Y0056971D03*
X0099639Y0066814D03*
X0099639Y0076656D03*
X0109481Y0076656D03*
X0109481Y0066814D03*
X0109481Y0086499D03*
X0099639Y0086499D03*
X0089796Y0086499D03*
X0089796Y0076656D03*
X0089796Y0066814D03*
X0089796Y0056971D03*
D20*
X0064520Y0090515D03*
X0232198Y0090436D03*
D21*
X0048300Y0075121D03*
X0248418Y0075318D03*
M02*
