G75*
%MOIN*%
%OFA0B0*%
%FSLAX25Y25*%
%IPPOS*%
%LPD*%
%AMOC8*
5,1,8,0,0,1.08239X$1,22.5*
%
%ADD10C,0.00600*%
%ADD11C,0.01000*%
%ADD12C,0.00800*%
%ADD13C,0.00500*%
%ADD14C,0.00400*%
%ADD15C,0.00000*%
D10*
X0098138Y0058520D02*
X0098138Y0060882D01*
X0102862Y0060882D02*
X0102862Y0058520D01*
X0125019Y0062439D02*
X0127381Y0062439D01*
X0127381Y0067163D02*
X0125019Y0067163D01*
X0125019Y0074439D02*
X0127381Y0074439D01*
X0127381Y0079163D02*
X0125019Y0079163D01*
X0146738Y0078082D02*
X0146738Y0075720D01*
X0151462Y0075720D02*
X0151462Y0078082D01*
X0164319Y0074163D02*
X0166681Y0074163D01*
X0166681Y0069439D02*
X0164319Y0069439D01*
X0164262Y0064382D02*
X0164262Y0062020D01*
X0159538Y0062020D02*
X0159538Y0064382D01*
X0150962Y0065382D02*
X0150962Y0063020D01*
X0146238Y0063020D02*
X0146238Y0065382D01*
X0172138Y0065082D02*
X0172138Y0062720D01*
X0176862Y0062720D02*
X0176862Y0065082D01*
X0176762Y0074220D02*
X0176762Y0076582D01*
X0172038Y0076582D02*
X0172038Y0074220D01*
X0183919Y0081039D02*
X0186281Y0081039D01*
X0186281Y0085763D02*
X0183919Y0085763D01*
X0182662Y0093920D02*
X0182662Y0096282D01*
X0177938Y0096282D02*
X0177938Y0093920D01*
X0195119Y0102339D02*
X0197481Y0102339D01*
X0197481Y0107063D02*
X0195119Y0107063D01*
X0195619Y0112439D02*
X0197981Y0112439D01*
X0197981Y0117163D02*
X0195619Y0117163D01*
X0185381Y0119239D02*
X0183019Y0119239D01*
X0183019Y0123963D02*
X0185381Y0123963D01*
X0183198Y0134102D02*
X0169002Y0134102D01*
X0159162Y0137820D02*
X0159162Y0140182D01*
X0154438Y0140182D02*
X0154438Y0137820D01*
X0169002Y0152700D02*
X0183198Y0152700D01*
X0184519Y0154839D02*
X0186881Y0154839D01*
X0186881Y0159563D02*
X0184519Y0159563D01*
X0193638Y0153982D02*
X0193638Y0151620D01*
X0198362Y0151620D02*
X0198362Y0153982D01*
X0200138Y0155620D02*
X0200138Y0157982D01*
X0204862Y0157982D02*
X0204862Y0155620D01*
X0198362Y0139782D02*
X0198362Y0137420D01*
X0193638Y0137420D02*
X0193638Y0139782D01*
X0204119Y0130663D02*
X0206481Y0130663D01*
X0206481Y0125939D02*
X0204119Y0125939D01*
X0176662Y0113682D02*
X0176662Y0111320D01*
X0171938Y0111320D02*
X0171938Y0113682D01*
X0152762Y0104182D02*
X0152762Y0101820D01*
X0148038Y0101820D02*
X0148038Y0104182D01*
X0145598Y0101212D02*
X0145228Y0101212D01*
X0145598Y0101212D02*
X0145598Y0107590D01*
X0145228Y0107590D01*
X0142055Y0107590D02*
X0141685Y0107590D01*
X0138315Y0107590D02*
X0137945Y0107590D01*
X0134772Y0107590D02*
X0134402Y0107590D01*
X0134402Y0101212D01*
X0134772Y0101212D01*
X0137945Y0101212D02*
X0142055Y0101212D01*
X0130762Y0113220D02*
X0130762Y0115582D01*
X0126038Y0115582D02*
X0126038Y0113220D01*
X0122862Y0113320D02*
X0122862Y0115682D01*
X0118138Y0115682D02*
X0118138Y0113320D01*
X0114762Y0129920D02*
X0114762Y0132282D01*
X0110038Y0132282D02*
X0110038Y0129920D01*
X0076281Y0123563D02*
X0073919Y0123563D01*
X0073919Y0118839D02*
X0076281Y0118839D01*
X0076119Y0094063D02*
X0078481Y0094063D01*
X0078481Y0089339D02*
X0076119Y0089339D01*
X0053199Y0084199D02*
X0053199Y0070002D01*
X0034601Y0070002D02*
X0034601Y0084199D01*
X0032262Y0071182D02*
X0032262Y0068820D01*
X0027538Y0068820D02*
X0027538Y0071182D01*
X0019862Y0120520D02*
X0019862Y0122882D01*
X0015138Y0122882D02*
X0015138Y0120520D01*
X0025219Y0128739D02*
X0027581Y0128739D01*
X0027581Y0133463D02*
X0025219Y0133463D01*
X0163738Y0158120D02*
X0163738Y0160482D01*
X0168462Y0160482D02*
X0168462Y0158120D01*
X0226238Y0085882D02*
X0226238Y0083520D01*
X0230962Y0083520D02*
X0230962Y0085882D01*
X0220481Y0083463D02*
X0218119Y0083463D01*
X0218119Y0078739D02*
X0220481Y0078739D01*
X0211562Y0079682D02*
X0211562Y0077320D01*
X0206838Y0077320D02*
X0206838Y0079682D01*
X0198862Y0068282D02*
X0198862Y0065920D01*
X0194138Y0065920D02*
X0194138Y0068282D01*
D11*
X0189808Y0075351D02*
X0189808Y0079354D01*
X0187806Y0079354D01*
X0187139Y0078687D01*
X0187139Y0077352D01*
X0187806Y0076685D01*
X0189808Y0076685D01*
X0188473Y0076685D02*
X0187139Y0075351D01*
X0185204Y0076018D02*
X0185204Y0077352D01*
X0183202Y0077352D01*
X0182535Y0076685D01*
X0182535Y0076018D01*
X0183202Y0075351D01*
X0184537Y0075351D01*
X0185204Y0076018D01*
X0185204Y0077352D02*
X0183869Y0078687D01*
X0182535Y0079354D01*
X0175553Y0082601D02*
X0175553Y0084602D01*
X0174886Y0085270D01*
X0173552Y0085270D01*
X0172884Y0084602D01*
X0172884Y0082601D01*
X0171550Y0082601D02*
X0175553Y0082601D01*
X0172884Y0083935D02*
X0171550Y0085270D01*
X0172217Y0087205D02*
X0171550Y0087872D01*
X0171550Y0089206D01*
X0172217Y0089874D01*
X0173552Y0089874D01*
X0174219Y0089206D01*
X0174219Y0088539D01*
X0173552Y0087205D01*
X0175553Y0087205D01*
X0175553Y0089874D01*
X0184950Y0089368D02*
X0185617Y0088701D01*
X0188286Y0088701D01*
X0188953Y0089368D01*
X0188953Y0090702D01*
X0188286Y0091370D01*
X0187619Y0093305D02*
X0188953Y0094639D01*
X0184950Y0094639D01*
X0184950Y0093305D02*
X0184950Y0095974D01*
X0185617Y0097909D02*
X0188286Y0100578D01*
X0185617Y0100578D01*
X0184950Y0099910D01*
X0184950Y0098576D01*
X0185617Y0097909D01*
X0188286Y0097909D01*
X0188953Y0098576D01*
X0188953Y0099910D01*
X0188286Y0100578D01*
X0176003Y0100670D02*
X0172667Y0100670D01*
X0172000Y0100002D01*
X0172000Y0098668D01*
X0172667Y0098001D01*
X0176003Y0098001D01*
X0176003Y0102605D02*
X0174002Y0102605D01*
X0174669Y0103939D01*
X0174669Y0104606D01*
X0174002Y0105274D01*
X0172667Y0105274D01*
X0172000Y0104606D01*
X0172000Y0103272D01*
X0172667Y0102605D01*
X0176003Y0102605D02*
X0176003Y0105274D01*
X0169853Y0106101D02*
X0169853Y0108102D01*
X0169186Y0108770D01*
X0167852Y0108770D01*
X0167184Y0108102D01*
X0167184Y0106101D01*
X0165850Y0106101D02*
X0169853Y0106101D01*
X0167184Y0107435D02*
X0165850Y0108770D01*
X0165850Y0110705D02*
X0168519Y0113374D01*
X0169186Y0113374D01*
X0169853Y0112706D01*
X0169853Y0111372D01*
X0169186Y0110705D01*
X0165850Y0110705D02*
X0165850Y0113374D01*
X0165850Y0115309D02*
X0168519Y0117978D01*
X0169186Y0117978D01*
X0169853Y0117310D01*
X0169853Y0115976D01*
X0169186Y0115309D01*
X0165850Y0115309D02*
X0165850Y0117978D01*
X0163700Y0117974D02*
X0163700Y0115305D01*
X0163033Y0114638D01*
X0161698Y0114638D01*
X0161031Y0115305D01*
X0159096Y0114638D02*
X0156427Y0114638D01*
X0154492Y0115305D02*
X0151823Y0117974D01*
X0151823Y0115305D01*
X0152490Y0114638D01*
X0153825Y0114638D01*
X0154492Y0115305D01*
X0154492Y0117974D01*
X0153825Y0118641D01*
X0152490Y0118641D01*
X0151823Y0117974D01*
X0156427Y0117974D02*
X0157094Y0118641D01*
X0158429Y0118641D01*
X0159096Y0117974D01*
X0161031Y0117974D02*
X0161698Y0118641D01*
X0163033Y0118641D01*
X0163700Y0117974D01*
X0159096Y0114638D02*
X0156427Y0117307D01*
X0156427Y0117974D01*
X0156484Y0109578D02*
X0155817Y0109578D01*
X0155150Y0108910D01*
X0155150Y0107576D01*
X0155817Y0106909D01*
X0156484Y0106909D01*
X0157152Y0107576D01*
X0157152Y0108910D01*
X0156484Y0109578D01*
X0157152Y0108910D02*
X0157819Y0109578D01*
X0158486Y0109578D01*
X0159153Y0108910D01*
X0159153Y0107576D01*
X0158486Y0106909D01*
X0157819Y0106909D01*
X0157152Y0107576D01*
X0155150Y0104974D02*
X0155150Y0102305D01*
X0155150Y0103639D02*
X0159153Y0103639D01*
X0157819Y0102305D01*
X0158486Y0100370D02*
X0159153Y0099702D01*
X0159153Y0098368D01*
X0158486Y0097701D01*
X0155817Y0097701D01*
X0155150Y0098368D01*
X0155150Y0099702D01*
X0155817Y0100370D01*
X0143700Y0095704D02*
X0143700Y0092368D01*
X0143033Y0091701D01*
X0141698Y0091701D01*
X0141031Y0092368D01*
X0141031Y0095704D01*
X0139096Y0093702D02*
X0137094Y0093702D01*
X0136427Y0093035D01*
X0136427Y0092368D01*
X0137094Y0091701D01*
X0138429Y0091701D01*
X0139096Y0092368D01*
X0139096Y0093702D01*
X0137762Y0095037D01*
X0136427Y0095704D01*
X0127753Y0096068D02*
X0127086Y0095401D01*
X0124417Y0095401D01*
X0123750Y0096068D01*
X0123750Y0097402D01*
X0124417Y0098070D01*
X0123750Y0100005D02*
X0126419Y0102674D01*
X0127086Y0102674D01*
X0127753Y0102006D01*
X0127753Y0100672D01*
X0127086Y0100005D01*
X0127086Y0098070D02*
X0127753Y0097402D01*
X0127753Y0096068D01*
X0123750Y0100005D02*
X0123750Y0102674D01*
X0123750Y0104609D02*
X0126419Y0107278D01*
X0127086Y0107278D01*
X0127753Y0106610D01*
X0127753Y0105276D01*
X0127086Y0104609D01*
X0123750Y0104609D02*
X0123750Y0107278D01*
X0120853Y0107031D02*
X0116850Y0107031D01*
X0116850Y0105697D02*
X0116850Y0108366D01*
X0119519Y0105697D02*
X0120853Y0107031D01*
X0120186Y0103762D02*
X0120853Y0103095D01*
X0120853Y0101760D01*
X0120186Y0101093D01*
X0120186Y0099158D02*
X0120853Y0098491D01*
X0120853Y0097156D01*
X0120186Y0096489D01*
X0117517Y0096489D01*
X0116850Y0097156D01*
X0116850Y0098491D01*
X0117517Y0099158D01*
X0116850Y0101093D02*
X0119519Y0103762D01*
X0120186Y0103762D01*
X0116850Y0103762D02*
X0116850Y0101093D01*
X0134537Y0115568D02*
X0134537Y0116902D01*
X0135204Y0117570D01*
X0134537Y0119505D02*
X0134537Y0122174D01*
X0134537Y0120839D02*
X0138540Y0120839D01*
X0137206Y0119505D01*
X0137873Y0117570D02*
X0138540Y0116902D01*
X0138540Y0115568D01*
X0137873Y0114901D01*
X0135204Y0114901D01*
X0134537Y0115568D01*
X0136539Y0124109D02*
X0136539Y0126778D01*
X0138540Y0126110D02*
X0134537Y0126110D01*
X0136539Y0124109D02*
X0138540Y0126110D01*
X0149417Y0137589D02*
X0148750Y0138256D01*
X0148750Y0139591D01*
X0149417Y0140258D01*
X0148750Y0142193D02*
X0148750Y0144862D01*
X0148750Y0143527D02*
X0152753Y0143527D01*
X0151419Y0142193D01*
X0152086Y0140258D02*
X0152753Y0139591D01*
X0152753Y0138256D01*
X0152086Y0137589D01*
X0149417Y0137589D01*
X0149417Y0146797D02*
X0148750Y0147464D01*
X0148750Y0148799D01*
X0149417Y0149466D01*
X0150752Y0149466D01*
X0151419Y0148799D01*
X0151419Y0148131D01*
X0150752Y0146797D01*
X0152753Y0146797D01*
X0152753Y0149466D01*
X0158717Y0154993D02*
X0158050Y0155660D01*
X0158050Y0156995D01*
X0158717Y0157662D01*
X0158717Y0159597D02*
X0158050Y0160264D01*
X0158050Y0161599D01*
X0158717Y0162266D01*
X0161386Y0162266D01*
X0162053Y0161599D01*
X0162053Y0160264D01*
X0161386Y0159597D01*
X0160719Y0159597D01*
X0160052Y0160264D01*
X0160052Y0162266D01*
X0161386Y0157662D02*
X0162053Y0156995D01*
X0162053Y0155660D01*
X0161386Y0154993D01*
X0158717Y0154993D01*
X0171627Y0155068D02*
X0172294Y0154401D01*
X0173629Y0154401D01*
X0174296Y0155068D01*
X0172962Y0156402D02*
X0172294Y0156402D01*
X0171627Y0155735D01*
X0171627Y0155068D01*
X0172294Y0156402D02*
X0171627Y0157070D01*
X0171627Y0157737D01*
X0172294Y0158404D01*
X0173629Y0158404D01*
X0174296Y0157737D01*
X0176231Y0158404D02*
X0176231Y0155068D01*
X0176898Y0154401D01*
X0178233Y0154401D01*
X0178900Y0155068D01*
X0178900Y0158404D01*
X0180302Y0162651D02*
X0181637Y0162651D01*
X0182304Y0163318D01*
X0180969Y0164652D02*
X0180302Y0164652D01*
X0179635Y0163985D01*
X0179635Y0163318D01*
X0180302Y0162651D01*
X0180302Y0164652D02*
X0179635Y0165320D01*
X0179635Y0165987D01*
X0180302Y0166654D01*
X0181637Y0166654D01*
X0182304Y0165987D01*
X0185573Y0166654D02*
X0185573Y0162651D01*
X0184239Y0162651D02*
X0186908Y0162651D01*
X0188843Y0162651D02*
X0190177Y0163985D01*
X0189510Y0163985D02*
X0191512Y0163985D01*
X0191512Y0162651D02*
X0191512Y0166654D01*
X0189510Y0166654D01*
X0188843Y0165987D01*
X0188843Y0164652D01*
X0189510Y0163985D01*
X0186908Y0165320D02*
X0185573Y0166654D01*
X0193950Y0167262D02*
X0193950Y0164593D01*
X0193950Y0165927D02*
X0197953Y0165927D01*
X0196619Y0164593D01*
X0197286Y0162658D02*
X0195952Y0162658D01*
X0195284Y0161991D01*
X0195284Y0159989D01*
X0193950Y0159989D02*
X0197953Y0159989D01*
X0197953Y0161991D01*
X0197286Y0162658D01*
X0195284Y0161323D02*
X0193950Y0162658D01*
X0193950Y0169197D02*
X0193950Y0171866D01*
X0193950Y0170531D02*
X0197953Y0170531D01*
X0196619Y0169197D01*
X0207150Y0163110D02*
X0207150Y0161776D01*
X0207817Y0161109D01*
X0209152Y0162443D02*
X0209152Y0163110D01*
X0208484Y0163778D01*
X0207817Y0163778D01*
X0207150Y0163110D01*
X0209152Y0163110D02*
X0209819Y0163778D01*
X0210486Y0163778D01*
X0211153Y0163110D01*
X0211153Y0161776D01*
X0210486Y0161109D01*
X0207150Y0159174D02*
X0207150Y0156505D01*
X0207150Y0157839D02*
X0211153Y0157839D01*
X0209819Y0156505D01*
X0210486Y0154570D02*
X0211153Y0153902D01*
X0211153Y0152568D01*
X0210486Y0151901D01*
X0207817Y0151901D01*
X0207150Y0152568D01*
X0207150Y0153902D01*
X0207817Y0154570D01*
X0203486Y0145166D02*
X0200817Y0145166D01*
X0200150Y0144499D01*
X0200150Y0143164D01*
X0200817Y0142497D01*
X0203486Y0145166D01*
X0204153Y0144499D01*
X0204153Y0143164D01*
X0203486Y0142497D01*
X0200817Y0142497D01*
X0200150Y0140562D02*
X0200150Y0137893D01*
X0200150Y0139227D02*
X0204153Y0139227D01*
X0202819Y0137893D01*
X0203486Y0135958D02*
X0202152Y0135958D01*
X0201484Y0135291D01*
X0201484Y0133289D01*
X0200150Y0133289D02*
X0204153Y0133289D01*
X0204153Y0135291D01*
X0203486Y0135958D01*
X0201484Y0134623D02*
X0200150Y0135958D01*
X0189412Y0130154D02*
X0187410Y0130154D01*
X0186743Y0129487D01*
X0186743Y0128152D01*
X0187410Y0127485D01*
X0189412Y0127485D01*
X0189412Y0126151D02*
X0189412Y0130154D01*
X0188077Y0127485D02*
X0186743Y0126151D01*
X0184808Y0126151D02*
X0182139Y0128820D01*
X0182139Y0129487D01*
X0182806Y0130154D01*
X0184141Y0130154D01*
X0184808Y0129487D01*
X0184808Y0126151D02*
X0182139Y0126151D01*
X0180204Y0126818D02*
X0177535Y0129487D01*
X0177535Y0126818D01*
X0178202Y0126151D01*
X0179537Y0126151D01*
X0180204Y0126818D01*
X0180204Y0129487D01*
X0179537Y0130154D01*
X0178202Y0130154D01*
X0177535Y0129487D01*
X0191558Y0123354D02*
X0191558Y0119351D01*
X0192892Y0119351D02*
X0190223Y0119351D01*
X0192892Y0122020D02*
X0191558Y0123354D01*
X0194827Y0122687D02*
X0195494Y0123354D01*
X0196829Y0123354D01*
X0197496Y0122687D01*
X0199431Y0122687D02*
X0199431Y0121352D01*
X0200098Y0120685D01*
X0202100Y0120685D01*
X0202100Y0119351D02*
X0202100Y0123354D01*
X0200098Y0123354D01*
X0199431Y0122687D01*
X0200766Y0120685D02*
X0199431Y0119351D01*
X0197496Y0119351D02*
X0194827Y0122020D01*
X0194827Y0122687D01*
X0194827Y0119351D02*
X0197496Y0119351D01*
X0204727Y0120418D02*
X0205394Y0119751D01*
X0206729Y0119751D01*
X0207396Y0120418D01*
X0206062Y0121752D02*
X0205394Y0121752D01*
X0204727Y0121085D01*
X0204727Y0120418D01*
X0205394Y0121752D02*
X0204727Y0122420D01*
X0204727Y0123087D01*
X0205394Y0123754D01*
X0206729Y0123754D01*
X0207396Y0123087D01*
X0209331Y0119751D02*
X0212000Y0119751D01*
X0212000Y0123754D01*
X0210662Y0107154D02*
X0210662Y0103151D01*
X0211996Y0103151D02*
X0209327Y0103151D01*
X0207392Y0103818D02*
X0206725Y0103151D01*
X0205390Y0103151D01*
X0204723Y0103818D01*
X0204723Y0106487D01*
X0205390Y0107154D01*
X0206725Y0107154D01*
X0207392Y0106487D01*
X0207392Y0105820D01*
X0206725Y0105152D01*
X0204723Y0105152D01*
X0210662Y0107154D02*
X0211996Y0105820D01*
X0213931Y0106487D02*
X0213931Y0105152D01*
X0214598Y0104485D01*
X0216600Y0104485D01*
X0216600Y0103151D02*
X0216600Y0107154D01*
X0214598Y0107154D01*
X0213931Y0106487D01*
X0215266Y0104485D02*
X0213931Y0103151D01*
X0210173Y0098078D02*
X0207504Y0098078D01*
X0206837Y0097410D01*
X0206837Y0096076D01*
X0207504Y0095409D01*
X0208839Y0096076D02*
X0208839Y0098078D01*
X0210173Y0098078D02*
X0210840Y0097410D01*
X0210840Y0096076D01*
X0210173Y0095409D01*
X0209506Y0095409D01*
X0208839Y0096076D01*
X0206837Y0093474D02*
X0206837Y0090805D01*
X0206837Y0092139D02*
X0210840Y0092139D01*
X0209506Y0090805D01*
X0210173Y0088870D02*
X0210840Y0088202D01*
X0210840Y0086868D01*
X0210173Y0086201D01*
X0207504Y0086201D01*
X0206837Y0086868D01*
X0206837Y0088202D01*
X0207504Y0088870D01*
X0215835Y0088687D02*
X0216502Y0089354D01*
X0217837Y0089354D01*
X0218504Y0088687D01*
X0215835Y0088687D02*
X0215835Y0088020D01*
X0218504Y0085351D01*
X0215835Y0085351D01*
X0220439Y0085351D02*
X0223108Y0085351D01*
X0223108Y0089354D01*
X0226850Y0092968D02*
X0227517Y0092301D01*
X0230186Y0092301D01*
X0230853Y0092968D01*
X0230853Y0094302D01*
X0230186Y0094970D01*
X0229519Y0096905D02*
X0230853Y0098239D01*
X0226850Y0098239D01*
X0226850Y0096905D02*
X0226850Y0099574D01*
X0227517Y0094970D02*
X0226850Y0094302D01*
X0226850Y0092968D01*
X0245337Y0086606D02*
X0249340Y0086606D01*
X0247339Y0084605D01*
X0247339Y0087274D01*
X0248673Y0082670D02*
X0249340Y0082002D01*
X0249340Y0080668D01*
X0248673Y0080001D01*
X0246004Y0080001D01*
X0245337Y0080668D01*
X0245337Y0082002D01*
X0246004Y0082670D01*
X0225300Y0077054D02*
X0225300Y0073051D01*
X0225300Y0074385D02*
X0223298Y0074385D01*
X0222631Y0075052D01*
X0222631Y0076387D01*
X0223298Y0077054D01*
X0225300Y0077054D01*
X0223966Y0074385D02*
X0222631Y0073051D01*
X0220696Y0073051D02*
X0218027Y0075720D01*
X0218027Y0076387D01*
X0218694Y0077054D01*
X0220029Y0077054D01*
X0220696Y0076387D01*
X0220696Y0073051D02*
X0218027Y0073051D01*
X0216092Y0073718D02*
X0216092Y0075052D01*
X0214090Y0075052D01*
X0213423Y0074385D01*
X0213423Y0073718D01*
X0214090Y0073051D01*
X0215425Y0073051D01*
X0216092Y0073718D01*
X0216092Y0075052D02*
X0214758Y0076387D01*
X0213423Y0077054D01*
X0196952Y0058766D02*
X0196952Y0056097D01*
X0198953Y0058099D01*
X0194950Y0058099D01*
X0194950Y0054162D02*
X0194950Y0051493D01*
X0197619Y0054162D01*
X0198286Y0054162D01*
X0198953Y0053495D01*
X0198953Y0052160D01*
X0198286Y0051493D01*
X0198286Y0049558D02*
X0198953Y0048891D01*
X0198953Y0047556D01*
X0198286Y0046889D01*
X0195617Y0046889D01*
X0194950Y0047556D01*
X0194950Y0048891D01*
X0195617Y0049558D01*
X0191776Y0048288D02*
X0191108Y0047621D01*
X0189774Y0047621D01*
X0189107Y0048288D01*
X0189107Y0051625D01*
X0187172Y0050290D02*
X0185837Y0051625D01*
X0185837Y0047621D01*
X0184503Y0047621D02*
X0187172Y0047621D01*
X0191776Y0048288D02*
X0191776Y0051625D01*
X0182568Y0050957D02*
X0182568Y0048288D01*
X0179899Y0050957D01*
X0179899Y0048288D01*
X0180566Y0047621D01*
X0181900Y0047621D01*
X0182568Y0048288D01*
X0182568Y0050957D02*
X0181900Y0051625D01*
X0180566Y0051625D01*
X0179899Y0050957D01*
X0176153Y0051795D02*
X0175486Y0052462D01*
X0174152Y0052462D01*
X0173484Y0051795D01*
X0173484Y0049793D01*
X0172150Y0049793D02*
X0176153Y0049793D01*
X0176153Y0051795D01*
X0175486Y0054397D02*
X0174819Y0054397D01*
X0174152Y0055064D01*
X0174152Y0057066D01*
X0175486Y0057066D02*
X0176153Y0056399D01*
X0176153Y0055064D01*
X0175486Y0054397D01*
X0172817Y0054397D02*
X0172150Y0055064D01*
X0172150Y0056399D01*
X0172817Y0057066D01*
X0175486Y0057066D01*
X0169753Y0057902D02*
X0169753Y0055901D01*
X0165750Y0055901D01*
X0167084Y0055901D02*
X0167084Y0057902D01*
X0167752Y0058570D01*
X0169086Y0058570D01*
X0169753Y0057902D01*
X0167084Y0057235D02*
X0165750Y0058570D01*
X0165750Y0060505D02*
X0168419Y0063174D01*
X0169086Y0063174D01*
X0169753Y0062506D01*
X0169753Y0061172D01*
X0169086Y0060505D01*
X0165750Y0060505D02*
X0165750Y0063174D01*
X0165750Y0065109D02*
X0166417Y0065109D01*
X0169086Y0067778D01*
X0169753Y0067778D01*
X0169753Y0065109D01*
X0156753Y0064293D02*
X0156753Y0066295D01*
X0156086Y0066962D01*
X0154752Y0066962D01*
X0154084Y0066295D01*
X0154084Y0064293D01*
X0152750Y0064293D02*
X0156753Y0064293D01*
X0154084Y0065627D02*
X0152750Y0066962D01*
X0153417Y0068897D02*
X0152750Y0069564D01*
X0152750Y0070899D01*
X0153417Y0071566D01*
X0154084Y0071566D01*
X0154752Y0070899D01*
X0154752Y0070231D01*
X0154752Y0070899D02*
X0155419Y0071566D01*
X0156086Y0071566D01*
X0156753Y0070899D01*
X0156753Y0069564D01*
X0156086Y0068897D01*
X0156853Y0074293D02*
X0152850Y0074293D01*
X0154184Y0074293D02*
X0154184Y0076295D01*
X0154852Y0076962D01*
X0156186Y0076962D01*
X0156853Y0076295D01*
X0156853Y0074293D01*
X0159102Y0076101D02*
X0160437Y0076101D01*
X0161104Y0076768D01*
X0158435Y0079437D01*
X0158435Y0076768D01*
X0159102Y0076101D01*
X0161104Y0076768D02*
X0161104Y0079437D01*
X0160437Y0080104D01*
X0159102Y0080104D01*
X0158435Y0079437D01*
X0156853Y0080231D02*
X0152850Y0080231D01*
X0152850Y0078897D02*
X0152850Y0081566D01*
X0155519Y0078897D02*
X0156853Y0080231D01*
X0152850Y0076962D02*
X0154184Y0075627D01*
X0163039Y0078102D02*
X0165708Y0078102D01*
X0163706Y0080104D01*
X0163706Y0076101D01*
X0167643Y0076768D02*
X0168310Y0076101D01*
X0169645Y0076101D01*
X0170312Y0076768D01*
X0170312Y0079437D01*
X0169645Y0080104D01*
X0168310Y0080104D01*
X0167643Y0079437D01*
X0184950Y0089368D02*
X0184950Y0090702D01*
X0185617Y0091370D01*
X0144858Y0087137D02*
X0144858Y0084468D01*
X0144191Y0083801D01*
X0142856Y0083801D01*
X0142189Y0084468D01*
X0142189Y0087137D01*
X0142856Y0087804D01*
X0144191Y0087804D01*
X0144858Y0087137D01*
X0143523Y0085135D02*
X0142189Y0083801D01*
X0140254Y0083801D02*
X0137585Y0083801D01*
X0138919Y0083801D02*
X0138919Y0087804D01*
X0140254Y0086470D01*
X0129000Y0084854D02*
X0129000Y0080851D01*
X0129000Y0082185D02*
X0126998Y0082185D01*
X0126331Y0082852D01*
X0126331Y0084187D01*
X0126998Y0084854D01*
X0129000Y0084854D01*
X0127666Y0082185D02*
X0126331Y0080851D01*
X0124396Y0080851D02*
X0121727Y0083520D01*
X0121727Y0084187D01*
X0122394Y0084854D01*
X0123729Y0084854D01*
X0124396Y0084187D01*
X0124396Y0080851D02*
X0121727Y0080851D01*
X0122294Y0072554D02*
X0124296Y0070552D01*
X0121627Y0070552D01*
X0122294Y0068551D02*
X0122294Y0072554D01*
X0126231Y0071887D02*
X0126231Y0070552D01*
X0126898Y0069885D01*
X0128900Y0069885D01*
X0128900Y0068551D02*
X0128900Y0072554D01*
X0126898Y0072554D01*
X0126231Y0071887D01*
X0127566Y0069885D02*
X0126231Y0068551D01*
X0135152Y0056804D02*
X0136487Y0056804D01*
X0137154Y0056137D01*
X0139089Y0056137D02*
X0139089Y0053468D01*
X0139756Y0052801D01*
X0141091Y0052801D01*
X0141758Y0053468D01*
X0141758Y0056137D01*
X0141091Y0056804D01*
X0139756Y0056804D01*
X0139089Y0056137D01*
X0140423Y0054135D02*
X0139089Y0052801D01*
X0137154Y0052801D02*
X0134485Y0055470D01*
X0134485Y0056137D01*
X0135152Y0056804D01*
X0134485Y0052801D02*
X0137154Y0052801D01*
X0172150Y0052462D02*
X0173484Y0051127D01*
X0096453Y0056160D02*
X0095786Y0055493D01*
X0093117Y0055493D01*
X0092450Y0056160D01*
X0092450Y0057495D01*
X0093117Y0058162D01*
X0095786Y0058162D02*
X0096453Y0057495D01*
X0096453Y0056160D01*
X0095786Y0060097D02*
X0095119Y0060097D01*
X0094452Y0060764D01*
X0094452Y0062099D01*
X0093784Y0062766D01*
X0093117Y0062766D01*
X0092450Y0062099D01*
X0092450Y0060764D01*
X0093117Y0060097D01*
X0093784Y0060097D01*
X0094452Y0060764D01*
X0094452Y0062099D02*
X0095119Y0062766D01*
X0095786Y0062766D01*
X0096453Y0062099D01*
X0096453Y0060764D01*
X0095786Y0060097D01*
X0079403Y0069593D02*
X0079403Y0071595D01*
X0078736Y0072262D01*
X0076067Y0072262D01*
X0075400Y0071595D01*
X0075400Y0069593D01*
X0079403Y0069593D01*
X0078069Y0074197D02*
X0079403Y0075531D01*
X0075400Y0075531D01*
X0075400Y0074197D02*
X0075400Y0076866D01*
X0059903Y0070199D02*
X0057902Y0068197D01*
X0057902Y0070866D01*
X0059903Y0070199D02*
X0055900Y0070199D01*
X0056567Y0066262D02*
X0059903Y0066262D01*
X0056567Y0066262D02*
X0055900Y0065595D01*
X0055900Y0064260D01*
X0056567Y0063593D01*
X0059903Y0063593D01*
X0032853Y0078168D02*
X0032186Y0077501D01*
X0029517Y0077501D01*
X0028850Y0078168D01*
X0028850Y0079502D01*
X0029517Y0080170D01*
X0029517Y0082105D02*
X0028850Y0082772D01*
X0028850Y0084106D01*
X0029517Y0084774D01*
X0030852Y0084774D01*
X0031519Y0084106D01*
X0031519Y0083439D01*
X0030852Y0082105D01*
X0032853Y0082105D01*
X0032853Y0084774D01*
X0032186Y0080170D02*
X0032853Y0079502D01*
X0032853Y0078168D01*
X0073635Y0098987D02*
X0076304Y0096318D01*
X0076304Y0095651D01*
X0078239Y0096318D02*
X0078906Y0095651D01*
X0080241Y0095651D01*
X0080908Y0096318D01*
X0080908Y0098987D01*
X0080241Y0099654D01*
X0078906Y0099654D01*
X0078239Y0098987D01*
X0076304Y0099654D02*
X0073635Y0099654D01*
X0073635Y0098987D01*
X0073002Y0112951D02*
X0072335Y0113618D01*
X0072335Y0114285D01*
X0073002Y0114952D01*
X0075004Y0114952D01*
X0075004Y0113618D01*
X0074337Y0112951D01*
X0073002Y0112951D01*
X0075004Y0114952D02*
X0073669Y0116287D01*
X0072335Y0116954D01*
X0076939Y0116287D02*
X0077606Y0116954D01*
X0078941Y0116954D01*
X0079608Y0116287D01*
X0079608Y0113618D01*
X0078941Y0112951D01*
X0077606Y0112951D01*
X0076939Y0113618D01*
X0116450Y0127493D02*
X0120453Y0127493D01*
X0120453Y0129495D01*
X0119786Y0130162D01*
X0118452Y0130162D01*
X0117784Y0129495D01*
X0117784Y0127493D01*
X0117784Y0128827D02*
X0116450Y0130162D01*
X0117117Y0132097D02*
X0117784Y0132097D01*
X0118452Y0132764D01*
X0118452Y0134099D01*
X0117784Y0134766D01*
X0117117Y0134766D01*
X0116450Y0134099D01*
X0116450Y0132764D01*
X0117117Y0132097D01*
X0118452Y0132764D02*
X0119119Y0132097D01*
X0119786Y0132097D01*
X0120453Y0132764D01*
X0120453Y0134099D01*
X0119786Y0134766D01*
X0119119Y0134766D01*
X0118452Y0134099D01*
X0032712Y0135051D02*
X0032712Y0139054D01*
X0030710Y0139054D01*
X0030043Y0138387D01*
X0030043Y0137052D01*
X0030710Y0136385D01*
X0032712Y0136385D01*
X0031377Y0136385D02*
X0030043Y0135051D01*
X0028108Y0135051D02*
X0025439Y0135051D01*
X0026773Y0135051D02*
X0026773Y0139054D01*
X0028108Y0137720D01*
X0023504Y0137052D02*
X0022169Y0137720D01*
X0021502Y0137720D01*
X0020835Y0137052D01*
X0020835Y0135718D01*
X0021502Y0135051D01*
X0022837Y0135051D01*
X0023504Y0135718D01*
X0023504Y0137052D02*
X0023504Y0139054D01*
X0020835Y0139054D01*
X0022317Y0126378D02*
X0021650Y0125710D01*
X0021650Y0124376D01*
X0022317Y0123709D01*
X0023652Y0124376D02*
X0024319Y0123709D01*
X0024986Y0123709D01*
X0025653Y0124376D01*
X0025653Y0125710D01*
X0024986Y0126378D01*
X0022317Y0126378D01*
X0023652Y0126378D02*
X0023652Y0124376D01*
X0024319Y0121774D02*
X0024986Y0121774D01*
X0025653Y0121106D01*
X0025653Y0119772D01*
X0024986Y0119105D01*
X0024986Y0117170D02*
X0023652Y0117170D01*
X0022984Y0116502D01*
X0022984Y0114501D01*
X0021650Y0114501D02*
X0025653Y0114501D01*
X0025653Y0116502D01*
X0024986Y0117170D01*
X0022984Y0115835D02*
X0021650Y0117170D01*
X0021650Y0119105D02*
X0024319Y0121774D01*
X0021650Y0121774D02*
X0021650Y0119105D01*
D12*
X0036235Y0081001D02*
X0036237Y0081048D01*
X0036243Y0081095D01*
X0036253Y0081142D01*
X0036266Y0081187D01*
X0036284Y0081231D01*
X0036305Y0081273D01*
X0036329Y0081314D01*
X0036357Y0081352D01*
X0036388Y0081388D01*
X0036422Y0081421D01*
X0036458Y0081451D01*
X0036497Y0081478D01*
X0036538Y0081502D01*
X0036581Y0081522D01*
X0036625Y0081538D01*
X0036671Y0081551D01*
X0036717Y0081560D01*
X0036765Y0081565D01*
X0036812Y0081566D01*
X0036859Y0081563D01*
X0036906Y0081556D01*
X0036952Y0081545D01*
X0036997Y0081531D01*
X0037041Y0081512D01*
X0037082Y0081490D01*
X0037122Y0081465D01*
X0037160Y0081436D01*
X0037195Y0081405D01*
X0037228Y0081370D01*
X0037257Y0081333D01*
X0037283Y0081294D01*
X0037306Y0081252D01*
X0037325Y0081209D01*
X0037341Y0081164D01*
X0037353Y0081118D01*
X0037361Y0081072D01*
X0037365Y0081025D01*
X0037365Y0080977D01*
X0037361Y0080930D01*
X0037353Y0080884D01*
X0037341Y0080838D01*
X0037325Y0080793D01*
X0037306Y0080750D01*
X0037283Y0080708D01*
X0037257Y0080669D01*
X0037228Y0080632D01*
X0037195Y0080597D01*
X0037160Y0080566D01*
X0037122Y0080537D01*
X0037083Y0080512D01*
X0037041Y0080490D01*
X0036997Y0080471D01*
X0036952Y0080457D01*
X0036906Y0080446D01*
X0036859Y0080439D01*
X0036812Y0080436D01*
X0036765Y0080437D01*
X0036717Y0080442D01*
X0036671Y0080451D01*
X0036625Y0080464D01*
X0036581Y0080480D01*
X0036538Y0080500D01*
X0036497Y0080524D01*
X0036458Y0080551D01*
X0036422Y0080581D01*
X0036388Y0080614D01*
X0036357Y0080650D01*
X0036329Y0080688D01*
X0036305Y0080729D01*
X0036284Y0080771D01*
X0036266Y0080815D01*
X0036253Y0080860D01*
X0036243Y0080907D01*
X0036237Y0080954D01*
X0036235Y0081001D01*
X0083545Y0078409D02*
X0083545Y0076638D01*
X0083545Y0078409D02*
X0101655Y0078409D01*
X0101655Y0076638D01*
X0101655Y0068764D02*
X0101655Y0066992D01*
X0083545Y0066992D01*
X0083545Y0068764D01*
X0088663Y0068764D02*
X0088663Y0076638D01*
X0135844Y0073751D02*
X0135844Y0071389D01*
X0138994Y0071389D01*
X0138994Y0069913D02*
X0135844Y0069913D01*
X0135844Y0067550D01*
X0135844Y0061251D02*
X0135844Y0058889D01*
X0138994Y0058889D01*
X0135844Y0080050D02*
X0135844Y0082413D01*
X0138994Y0082413D01*
X0178400Y0108010D02*
X0178400Y0111391D01*
X0182943Y0106510D02*
X0185057Y0106510D01*
X0189600Y0108010D02*
X0189600Y0111391D01*
X0176111Y0121751D02*
X0174536Y0120176D01*
X0168237Y0120176D01*
X0160363Y0120176D02*
X0152489Y0120176D01*
X0152489Y0129625D01*
X0160363Y0129625D01*
X0168237Y0129625D02*
X0174536Y0129625D01*
X0176111Y0128050D01*
X0176111Y0121751D01*
X0171635Y0136301D02*
X0171637Y0136348D01*
X0171643Y0136395D01*
X0171653Y0136442D01*
X0171666Y0136487D01*
X0171684Y0136531D01*
X0171705Y0136573D01*
X0171729Y0136614D01*
X0171757Y0136652D01*
X0171788Y0136688D01*
X0171822Y0136721D01*
X0171858Y0136751D01*
X0171897Y0136778D01*
X0171938Y0136802D01*
X0171981Y0136822D01*
X0172025Y0136838D01*
X0172071Y0136851D01*
X0172117Y0136860D01*
X0172165Y0136865D01*
X0172212Y0136866D01*
X0172259Y0136863D01*
X0172306Y0136856D01*
X0172352Y0136845D01*
X0172397Y0136831D01*
X0172441Y0136812D01*
X0172482Y0136790D01*
X0172522Y0136765D01*
X0172560Y0136736D01*
X0172595Y0136705D01*
X0172628Y0136670D01*
X0172657Y0136633D01*
X0172683Y0136594D01*
X0172706Y0136552D01*
X0172725Y0136509D01*
X0172741Y0136464D01*
X0172753Y0136418D01*
X0172761Y0136372D01*
X0172765Y0136325D01*
X0172765Y0136277D01*
X0172761Y0136230D01*
X0172753Y0136184D01*
X0172741Y0136138D01*
X0172725Y0136093D01*
X0172706Y0136050D01*
X0172683Y0136008D01*
X0172657Y0135969D01*
X0172628Y0135932D01*
X0172595Y0135897D01*
X0172560Y0135866D01*
X0172522Y0135837D01*
X0172483Y0135812D01*
X0172441Y0135790D01*
X0172397Y0135771D01*
X0172352Y0135757D01*
X0172306Y0135746D01*
X0172259Y0135739D01*
X0172212Y0135736D01*
X0172165Y0135737D01*
X0172117Y0135742D01*
X0172071Y0135751D01*
X0172025Y0135764D01*
X0171981Y0135780D01*
X0171938Y0135800D01*
X0171897Y0135824D01*
X0171858Y0135851D01*
X0171822Y0135881D01*
X0171788Y0135914D01*
X0171757Y0135950D01*
X0171729Y0135988D01*
X0171705Y0136029D01*
X0171684Y0136071D01*
X0171666Y0136115D01*
X0171653Y0136160D01*
X0171643Y0136207D01*
X0171637Y0136254D01*
X0171635Y0136301D01*
X0149624Y0134837D02*
X0149624Y0128538D01*
X0140176Y0128538D02*
X0140176Y0134837D01*
X0141750Y0136412D01*
X0148050Y0136412D01*
X0149624Y0134837D01*
X0149624Y0120664D02*
X0149624Y0112790D01*
X0140176Y0112790D01*
X0140176Y0120664D01*
X0195276Y0099712D02*
X0195276Y0091838D01*
X0204724Y0091838D02*
X0204724Y0099712D01*
X0195276Y0099712D01*
X0195276Y0083964D02*
X0195276Y0077665D01*
X0196850Y0076090D01*
X0203150Y0076090D01*
X0204724Y0077665D01*
X0204724Y0083964D01*
X0233476Y0083464D02*
X0233476Y0077165D01*
X0235050Y0075590D01*
X0241350Y0075590D01*
X0242924Y0077165D01*
X0242924Y0083464D01*
X0242924Y0091338D02*
X0242924Y0099212D01*
X0233476Y0099212D01*
X0233476Y0091338D01*
D13*
X0234200Y0085901D02*
X0242200Y0085901D01*
X0204000Y0086401D02*
X0196000Y0086401D01*
X0192399Y0067625D02*
X0180194Y0067625D01*
X0180194Y0058176D01*
X0192399Y0058176D01*
X0192399Y0067625D01*
X0181137Y0064869D02*
X0181139Y0064944D01*
X0181145Y0065019D01*
X0181155Y0065093D01*
X0181169Y0065167D01*
X0181186Y0065240D01*
X0181208Y0065311D01*
X0181233Y0065382D01*
X0181262Y0065451D01*
X0181294Y0065519D01*
X0181330Y0065584D01*
X0181370Y0065648D01*
X0181413Y0065710D01*
X0181459Y0065769D01*
X0181508Y0065826D01*
X0181560Y0065880D01*
X0181614Y0065931D01*
X0181672Y0065979D01*
X0181731Y0066024D01*
X0181794Y0066066D01*
X0181858Y0066105D01*
X0181924Y0066140D01*
X0181992Y0066172D01*
X0182062Y0066200D01*
X0182132Y0066224D01*
X0182205Y0066245D01*
X0182278Y0066261D01*
X0182352Y0066274D01*
X0182426Y0066283D01*
X0182501Y0066288D01*
X0182576Y0066289D01*
X0182651Y0066286D01*
X0182725Y0066279D01*
X0182799Y0066268D01*
X0182873Y0066253D01*
X0182946Y0066235D01*
X0183017Y0066212D01*
X0183087Y0066186D01*
X0183156Y0066156D01*
X0183223Y0066123D01*
X0183289Y0066086D01*
X0183352Y0066046D01*
X0183413Y0066002D01*
X0183471Y0065955D01*
X0183527Y0065906D01*
X0183581Y0065853D01*
X0183631Y0065798D01*
X0183679Y0065740D01*
X0183723Y0065679D01*
X0183764Y0065617D01*
X0183802Y0065552D01*
X0183836Y0065485D01*
X0183867Y0065417D01*
X0183894Y0065347D01*
X0183918Y0065276D01*
X0183937Y0065203D01*
X0183953Y0065130D01*
X0183965Y0065056D01*
X0183973Y0064981D01*
X0183977Y0064906D01*
X0183977Y0064832D01*
X0183973Y0064757D01*
X0183965Y0064682D01*
X0183953Y0064608D01*
X0183937Y0064535D01*
X0183918Y0064462D01*
X0183894Y0064391D01*
X0183867Y0064321D01*
X0183836Y0064253D01*
X0183802Y0064186D01*
X0183764Y0064121D01*
X0183723Y0064059D01*
X0183679Y0063998D01*
X0183631Y0063940D01*
X0183581Y0063885D01*
X0183527Y0063832D01*
X0183471Y0063783D01*
X0183413Y0063736D01*
X0183352Y0063692D01*
X0183289Y0063652D01*
X0183223Y0063615D01*
X0183156Y0063582D01*
X0183087Y0063552D01*
X0183017Y0063526D01*
X0182946Y0063503D01*
X0182873Y0063485D01*
X0182799Y0063470D01*
X0182725Y0063459D01*
X0182651Y0063452D01*
X0182576Y0063449D01*
X0182501Y0063450D01*
X0182426Y0063455D01*
X0182352Y0063464D01*
X0182278Y0063477D01*
X0182205Y0063493D01*
X0182132Y0063514D01*
X0182062Y0063538D01*
X0181992Y0063566D01*
X0181924Y0063598D01*
X0181858Y0063633D01*
X0181794Y0063672D01*
X0181731Y0063714D01*
X0181672Y0063759D01*
X0181614Y0063807D01*
X0181560Y0063858D01*
X0181508Y0063912D01*
X0181459Y0063969D01*
X0181413Y0064028D01*
X0181370Y0064090D01*
X0181330Y0064154D01*
X0181294Y0064219D01*
X0181262Y0064287D01*
X0181233Y0064356D01*
X0181208Y0064427D01*
X0181186Y0064498D01*
X0181169Y0064571D01*
X0181155Y0064645D01*
X0181145Y0064719D01*
X0181139Y0064794D01*
X0181137Y0064869D01*
X0135669Y0105582D02*
X0135671Y0105621D01*
X0135677Y0105660D01*
X0135687Y0105698D01*
X0135700Y0105735D01*
X0135717Y0105770D01*
X0135737Y0105804D01*
X0135761Y0105835D01*
X0135788Y0105864D01*
X0135817Y0105890D01*
X0135849Y0105913D01*
X0135883Y0105933D01*
X0135919Y0105949D01*
X0135956Y0105961D01*
X0135995Y0105970D01*
X0136034Y0105975D01*
X0136073Y0105976D01*
X0136112Y0105973D01*
X0136151Y0105966D01*
X0136188Y0105955D01*
X0136225Y0105941D01*
X0136260Y0105923D01*
X0136293Y0105902D01*
X0136324Y0105877D01*
X0136352Y0105850D01*
X0136377Y0105820D01*
X0136399Y0105787D01*
X0136418Y0105753D01*
X0136433Y0105717D01*
X0136445Y0105679D01*
X0136453Y0105641D01*
X0136457Y0105602D01*
X0136457Y0105562D01*
X0136453Y0105523D01*
X0136445Y0105485D01*
X0136433Y0105447D01*
X0136418Y0105411D01*
X0136399Y0105377D01*
X0136377Y0105344D01*
X0136352Y0105314D01*
X0136324Y0105287D01*
X0136293Y0105262D01*
X0136260Y0105241D01*
X0136225Y0105223D01*
X0136188Y0105209D01*
X0136151Y0105198D01*
X0136112Y0105191D01*
X0136073Y0105188D01*
X0136034Y0105189D01*
X0135995Y0105194D01*
X0135956Y0105203D01*
X0135919Y0105215D01*
X0135883Y0105231D01*
X0135849Y0105251D01*
X0135817Y0105274D01*
X0135788Y0105300D01*
X0135761Y0105329D01*
X0135737Y0105360D01*
X0135717Y0105394D01*
X0135700Y0105429D01*
X0135687Y0105466D01*
X0135677Y0105504D01*
X0135671Y0105543D01*
X0135669Y0105582D01*
X0165800Y0120901D02*
X0165800Y0128901D01*
X0148900Y0126101D02*
X0140900Y0126101D01*
D14*
X0179127Y0072941D02*
X0179127Y0068337D01*
X0180661Y0068337D02*
X0177592Y0068337D01*
X0180661Y0071406D02*
X0179127Y0072941D01*
D15*
X0005000Y0021701D02*
X0005000Y0176701D01*
X0265000Y0176701D01*
X0265000Y0021701D01*
X0005000Y0021701D01*
X0128110Y0161701D02*
X0128112Y0161870D01*
X0128118Y0162039D01*
X0128129Y0162208D01*
X0128143Y0162376D01*
X0128162Y0162544D01*
X0128185Y0162712D01*
X0128211Y0162879D01*
X0128242Y0163045D01*
X0128277Y0163211D01*
X0128316Y0163375D01*
X0128360Y0163539D01*
X0128407Y0163701D01*
X0128458Y0163862D01*
X0128513Y0164022D01*
X0128572Y0164181D01*
X0128634Y0164338D01*
X0128701Y0164493D01*
X0128772Y0164647D01*
X0128846Y0164799D01*
X0128924Y0164949D01*
X0129005Y0165097D01*
X0129090Y0165243D01*
X0129179Y0165387D01*
X0129271Y0165529D01*
X0129367Y0165668D01*
X0129466Y0165805D01*
X0129568Y0165940D01*
X0129674Y0166072D01*
X0129783Y0166201D01*
X0129895Y0166328D01*
X0130010Y0166452D01*
X0130128Y0166573D01*
X0130249Y0166691D01*
X0130373Y0166806D01*
X0130500Y0166918D01*
X0130629Y0167027D01*
X0130761Y0167133D01*
X0130896Y0167235D01*
X0131033Y0167334D01*
X0131172Y0167430D01*
X0131314Y0167522D01*
X0131458Y0167611D01*
X0131604Y0167696D01*
X0131752Y0167777D01*
X0131902Y0167855D01*
X0132054Y0167929D01*
X0132208Y0168000D01*
X0132363Y0168067D01*
X0132520Y0168129D01*
X0132679Y0168188D01*
X0132839Y0168243D01*
X0133000Y0168294D01*
X0133162Y0168341D01*
X0133326Y0168385D01*
X0133490Y0168424D01*
X0133656Y0168459D01*
X0133822Y0168490D01*
X0133989Y0168516D01*
X0134157Y0168539D01*
X0134325Y0168558D01*
X0134493Y0168572D01*
X0134662Y0168583D01*
X0134831Y0168589D01*
X0135000Y0168591D01*
X0135169Y0168589D01*
X0135338Y0168583D01*
X0135507Y0168572D01*
X0135675Y0168558D01*
X0135843Y0168539D01*
X0136011Y0168516D01*
X0136178Y0168490D01*
X0136344Y0168459D01*
X0136510Y0168424D01*
X0136674Y0168385D01*
X0136838Y0168341D01*
X0137000Y0168294D01*
X0137161Y0168243D01*
X0137321Y0168188D01*
X0137480Y0168129D01*
X0137637Y0168067D01*
X0137792Y0168000D01*
X0137946Y0167929D01*
X0138098Y0167855D01*
X0138248Y0167777D01*
X0138396Y0167696D01*
X0138542Y0167611D01*
X0138686Y0167522D01*
X0138828Y0167430D01*
X0138967Y0167334D01*
X0139104Y0167235D01*
X0139239Y0167133D01*
X0139371Y0167027D01*
X0139500Y0166918D01*
X0139627Y0166806D01*
X0139751Y0166691D01*
X0139872Y0166573D01*
X0139990Y0166452D01*
X0140105Y0166328D01*
X0140217Y0166201D01*
X0140326Y0166072D01*
X0140432Y0165940D01*
X0140534Y0165805D01*
X0140633Y0165668D01*
X0140729Y0165529D01*
X0140821Y0165387D01*
X0140910Y0165243D01*
X0140995Y0165097D01*
X0141076Y0164949D01*
X0141154Y0164799D01*
X0141228Y0164647D01*
X0141299Y0164493D01*
X0141366Y0164338D01*
X0141428Y0164181D01*
X0141487Y0164022D01*
X0141542Y0163862D01*
X0141593Y0163701D01*
X0141640Y0163539D01*
X0141684Y0163375D01*
X0141723Y0163211D01*
X0141758Y0163045D01*
X0141789Y0162879D01*
X0141815Y0162712D01*
X0141838Y0162544D01*
X0141857Y0162376D01*
X0141871Y0162208D01*
X0141882Y0162039D01*
X0141888Y0161870D01*
X0141890Y0161701D01*
X0141888Y0161532D01*
X0141882Y0161363D01*
X0141871Y0161194D01*
X0141857Y0161026D01*
X0141838Y0160858D01*
X0141815Y0160690D01*
X0141789Y0160523D01*
X0141758Y0160357D01*
X0141723Y0160191D01*
X0141684Y0160027D01*
X0141640Y0159863D01*
X0141593Y0159701D01*
X0141542Y0159540D01*
X0141487Y0159380D01*
X0141428Y0159221D01*
X0141366Y0159064D01*
X0141299Y0158909D01*
X0141228Y0158755D01*
X0141154Y0158603D01*
X0141076Y0158453D01*
X0140995Y0158305D01*
X0140910Y0158159D01*
X0140821Y0158015D01*
X0140729Y0157873D01*
X0140633Y0157734D01*
X0140534Y0157597D01*
X0140432Y0157462D01*
X0140326Y0157330D01*
X0140217Y0157201D01*
X0140105Y0157074D01*
X0139990Y0156950D01*
X0139872Y0156829D01*
X0139751Y0156711D01*
X0139627Y0156596D01*
X0139500Y0156484D01*
X0139371Y0156375D01*
X0139239Y0156269D01*
X0139104Y0156167D01*
X0138967Y0156068D01*
X0138828Y0155972D01*
X0138686Y0155880D01*
X0138542Y0155791D01*
X0138396Y0155706D01*
X0138248Y0155625D01*
X0138098Y0155547D01*
X0137946Y0155473D01*
X0137792Y0155402D01*
X0137637Y0155335D01*
X0137480Y0155273D01*
X0137321Y0155214D01*
X0137161Y0155159D01*
X0137000Y0155108D01*
X0136838Y0155061D01*
X0136674Y0155017D01*
X0136510Y0154978D01*
X0136344Y0154943D01*
X0136178Y0154912D01*
X0136011Y0154886D01*
X0135843Y0154863D01*
X0135675Y0154844D01*
X0135507Y0154830D01*
X0135338Y0154819D01*
X0135169Y0154813D01*
X0135000Y0154811D01*
X0134831Y0154813D01*
X0134662Y0154819D01*
X0134493Y0154830D01*
X0134325Y0154844D01*
X0134157Y0154863D01*
X0133989Y0154886D01*
X0133822Y0154912D01*
X0133656Y0154943D01*
X0133490Y0154978D01*
X0133326Y0155017D01*
X0133162Y0155061D01*
X0133000Y0155108D01*
X0132839Y0155159D01*
X0132679Y0155214D01*
X0132520Y0155273D01*
X0132363Y0155335D01*
X0132208Y0155402D01*
X0132054Y0155473D01*
X0131902Y0155547D01*
X0131752Y0155625D01*
X0131604Y0155706D01*
X0131458Y0155791D01*
X0131314Y0155880D01*
X0131172Y0155972D01*
X0131033Y0156068D01*
X0130896Y0156167D01*
X0130761Y0156269D01*
X0130629Y0156375D01*
X0130500Y0156484D01*
X0130373Y0156596D01*
X0130249Y0156711D01*
X0130128Y0156829D01*
X0130010Y0156950D01*
X0129895Y0157074D01*
X0129783Y0157201D01*
X0129674Y0157330D01*
X0129568Y0157462D01*
X0129466Y0157597D01*
X0129367Y0157734D01*
X0129271Y0157873D01*
X0129179Y0158015D01*
X0129090Y0158159D01*
X0129005Y0158305D01*
X0128924Y0158453D01*
X0128846Y0158603D01*
X0128772Y0158755D01*
X0128701Y0158909D01*
X0128634Y0159064D01*
X0128572Y0159221D01*
X0128513Y0159380D01*
X0128458Y0159540D01*
X0128407Y0159701D01*
X0128360Y0159863D01*
X0128316Y0160027D01*
X0128277Y0160191D01*
X0128242Y0160357D01*
X0128211Y0160523D01*
X0128185Y0160690D01*
X0128162Y0160858D01*
X0128143Y0161026D01*
X0128129Y0161194D01*
X0128118Y0161363D01*
X0128112Y0161532D01*
X0128110Y0161701D01*
M02*
