G75*
%MOIN*%
%OFA0B0*%
%FSLAX25Y25*%
%IPPOS*%
%LPD*%
%AMOC8*
5,1,8,0,0,1.08239X$1,22.5*
%
%ADD10C,0.00600*%
%ADD11C,0.01000*%
%ADD12C,0.00800*%
%ADD13C,0.00500*%
%ADD14C,0.00000*%
D10*
X0034638Y0118619D02*
X0034638Y0120981D01*
X0039362Y0120981D02*
X0039362Y0118619D01*
X0068438Y0138819D02*
X0068438Y0141181D01*
X0073162Y0141181D02*
X0073162Y0138819D01*
X0075938Y0138819D02*
X0075938Y0141181D01*
X0080662Y0141181D02*
X0080662Y0138819D01*
X0103238Y0139819D02*
X0103238Y0142181D01*
X0107962Y0142181D02*
X0107962Y0139819D01*
X0119919Y0132962D02*
X0122281Y0132962D01*
X0122281Y0128238D02*
X0119919Y0128238D01*
X0138019Y0110162D02*
X0140381Y0110162D01*
X0140381Y0105438D02*
X0138019Y0105438D01*
X0138019Y0104262D02*
X0140381Y0104262D01*
X0140381Y0099538D02*
X0138019Y0099538D01*
X0161638Y0096581D02*
X0161638Y0094219D01*
X0166362Y0094219D02*
X0166362Y0096581D01*
X0161481Y0075062D02*
X0159119Y0075062D01*
X0159119Y0070338D02*
X0161481Y0070338D01*
X0186522Y0120647D02*
X0188884Y0120647D01*
X0189081Y0126553D02*
X0186719Y0126553D01*
X0186262Y0132519D02*
X0186262Y0134881D01*
X0181538Y0134881D02*
X0181538Y0132519D01*
X0202347Y0142019D02*
X0202347Y0144381D01*
X0208253Y0144184D02*
X0208253Y0141822D01*
X0214938Y0141919D02*
X0214938Y0144281D01*
X0219662Y0144281D02*
X0219662Y0141919D01*
X0218781Y0121562D02*
X0216419Y0121562D01*
X0216419Y0116838D02*
X0218781Y0116838D01*
X0235738Y0085181D02*
X0235738Y0082819D01*
X0240462Y0082819D02*
X0240462Y0085181D01*
X0142081Y0138838D02*
X0139719Y0138838D01*
X0139719Y0143562D02*
X0142081Y0143562D01*
X0129162Y0151919D02*
X0129162Y0154281D01*
X0124438Y0154281D02*
X0124438Y0151919D01*
X0117881Y0161038D02*
X0115519Y0161038D01*
X0115519Y0165762D02*
X0117881Y0165762D01*
X0174819Y0209838D02*
X0177181Y0209838D01*
X0177181Y0214562D02*
X0174819Y0214562D01*
X0049662Y0174281D02*
X0049662Y0171919D01*
X0044938Y0171919D02*
X0044938Y0174281D01*
X0047062Y0152581D02*
X0047062Y0150219D01*
X0042338Y0150219D02*
X0042338Y0152581D01*
X0022362Y0153481D02*
X0022362Y0151119D01*
X0017638Y0151119D02*
X0017638Y0153481D01*
D11*
X0014553Y0152696D02*
X0012552Y0152696D01*
X0013219Y0154031D01*
X0013219Y0154698D01*
X0012552Y0155365D01*
X0011217Y0155365D01*
X0010550Y0154698D01*
X0010550Y0153363D01*
X0011217Y0152696D01*
X0011217Y0150761D02*
X0010550Y0150094D01*
X0010550Y0148759D01*
X0011217Y0148092D01*
X0013886Y0148092D01*
X0014553Y0148759D01*
X0014553Y0150094D01*
X0013886Y0150761D01*
X0014553Y0152696D02*
X0014553Y0155365D01*
X0031927Y0154839D02*
X0034596Y0154839D01*
X0032594Y0156840D01*
X0032594Y0152837D01*
X0036531Y0153504D02*
X0037198Y0152837D01*
X0038533Y0152837D01*
X0039200Y0153504D01*
X0039200Y0156173D01*
X0038533Y0156840D01*
X0037198Y0156840D01*
X0036531Y0156173D01*
X0049950Y0155696D02*
X0050617Y0155696D01*
X0053286Y0158365D01*
X0053953Y0158365D01*
X0053953Y0155696D01*
X0053953Y0152427D02*
X0049950Y0152427D01*
X0049950Y0153761D02*
X0049950Y0151092D01*
X0050617Y0149157D02*
X0049950Y0148490D01*
X0049950Y0147155D01*
X0050617Y0146488D01*
X0053286Y0146488D01*
X0053953Y0147155D01*
X0053953Y0148490D01*
X0053286Y0149157D01*
X0052619Y0151092D02*
X0053953Y0152427D01*
X0056819Y0145503D02*
X0056819Y0141500D01*
X0055485Y0141500D02*
X0058154Y0141500D01*
X0060089Y0141500D02*
X0061423Y0142834D01*
X0060756Y0141500D02*
X0062091Y0141500D01*
X0062758Y0142167D01*
X0062758Y0144836D01*
X0062091Y0145503D01*
X0060756Y0145503D01*
X0060089Y0144836D01*
X0060089Y0142167D01*
X0060756Y0141500D01*
X0058154Y0144169D02*
X0056819Y0145503D01*
X0069150Y0130706D02*
X0073153Y0130706D01*
X0071152Y0128704D01*
X0071152Y0131373D01*
X0071152Y0126769D02*
X0070484Y0126102D01*
X0070484Y0124100D01*
X0069150Y0124100D02*
X0073153Y0124100D01*
X0073153Y0126102D01*
X0072486Y0126769D01*
X0071152Y0126769D01*
X0070484Y0125434D02*
X0069150Y0126769D01*
X0076150Y0127361D02*
X0077484Y0126027D01*
X0077484Y0126694D02*
X0077484Y0124692D01*
X0076150Y0124692D02*
X0080153Y0124692D01*
X0080153Y0126694D01*
X0079486Y0127361D01*
X0078152Y0127361D01*
X0077484Y0126694D01*
X0076150Y0129296D02*
X0078819Y0131965D01*
X0079486Y0131965D01*
X0080153Y0131298D01*
X0080153Y0129963D01*
X0079486Y0129296D01*
X0076150Y0129296D02*
X0076150Y0131965D01*
X0097350Y0137467D02*
X0097350Y0138802D01*
X0098017Y0139469D01*
X0098017Y0141404D02*
X0097350Y0142071D01*
X0097350Y0143406D01*
X0098017Y0144073D01*
X0098684Y0144073D01*
X0099352Y0143406D01*
X0099352Y0142738D01*
X0099352Y0143406D02*
X0100019Y0144073D01*
X0100686Y0144073D01*
X0101353Y0143406D01*
X0101353Y0142071D01*
X0100686Y0141404D01*
X0100686Y0139469D02*
X0101353Y0138802D01*
X0101353Y0137467D01*
X0100686Y0136800D01*
X0098017Y0136800D01*
X0097350Y0137467D01*
X0106127Y0132553D02*
X0107462Y0131886D01*
X0108796Y0130552D01*
X0106794Y0130552D01*
X0106127Y0129884D01*
X0106127Y0129217D01*
X0106794Y0128550D01*
X0108129Y0128550D01*
X0108796Y0129217D01*
X0108796Y0130552D01*
X0110731Y0131886D02*
X0111398Y0132553D01*
X0112733Y0132553D01*
X0113400Y0131886D01*
X0113400Y0129217D01*
X0112733Y0128550D01*
X0111398Y0128550D01*
X0110731Y0129217D01*
X0121090Y0139650D02*
X0120423Y0140317D01*
X0120423Y0140984D01*
X0121090Y0141652D01*
X0123092Y0141652D01*
X0123092Y0140317D01*
X0122425Y0139650D01*
X0121090Y0139650D01*
X0123092Y0141652D02*
X0121758Y0142986D01*
X0120423Y0143653D01*
X0125027Y0142986D02*
X0125694Y0143653D01*
X0127029Y0143653D01*
X0127696Y0142986D01*
X0129631Y0142986D02*
X0129631Y0141652D01*
X0130298Y0140984D01*
X0132300Y0140984D01*
X0132300Y0139650D02*
X0132300Y0143653D01*
X0130298Y0143653D01*
X0129631Y0142986D01*
X0130966Y0140984D02*
X0129631Y0139650D01*
X0127696Y0139650D02*
X0125027Y0142319D01*
X0125027Y0142986D01*
X0125027Y0139650D02*
X0127696Y0139650D01*
X0130550Y0150600D02*
X0130550Y0153269D01*
X0131217Y0155204D02*
X0130550Y0155871D01*
X0130550Y0157206D01*
X0131217Y0157873D01*
X0131884Y0157873D01*
X0132552Y0157206D01*
X0132552Y0156538D01*
X0132552Y0157206D02*
X0133219Y0157873D01*
X0133886Y0157873D01*
X0134553Y0157206D01*
X0134553Y0155871D01*
X0133886Y0155204D01*
X0134553Y0150600D02*
X0130550Y0150600D01*
X0122333Y0168350D02*
X0120998Y0168350D01*
X0120331Y0169017D01*
X0118396Y0168350D02*
X0115727Y0168350D01*
X0117062Y0168350D02*
X0117062Y0172353D01*
X0118396Y0171019D01*
X0120331Y0171686D02*
X0120998Y0172353D01*
X0122333Y0172353D01*
X0123000Y0171686D01*
X0123000Y0169017D01*
X0122333Y0168350D01*
X0113792Y0168350D02*
X0111123Y0168350D01*
X0112458Y0168350D02*
X0112458Y0172353D01*
X0113792Y0171019D01*
X0161527Y0160273D02*
X0161527Y0159606D01*
X0162194Y0158939D01*
X0163529Y0158939D01*
X0164196Y0159606D01*
X0164196Y0160273D01*
X0163529Y0160940D01*
X0162194Y0160940D01*
X0161527Y0160273D01*
X0162194Y0158939D02*
X0161527Y0158271D01*
X0161527Y0157604D01*
X0162194Y0156937D01*
X0163529Y0156937D01*
X0164196Y0157604D01*
X0164196Y0158271D01*
X0163529Y0158939D01*
X0166131Y0160273D02*
X0166798Y0160940D01*
X0168133Y0160940D01*
X0168800Y0160273D01*
X0168800Y0157604D01*
X0168133Y0156937D01*
X0166798Y0156937D01*
X0166131Y0157604D01*
X0173000Y0157859D02*
X0173000Y0159194D01*
X0173667Y0159861D01*
X0173000Y0161796D02*
X0173000Y0164465D01*
X0173000Y0163131D02*
X0177003Y0163131D01*
X0175669Y0161796D01*
X0176336Y0159861D02*
X0177003Y0159194D01*
X0177003Y0157859D01*
X0176336Y0157192D01*
X0173667Y0157192D01*
X0173000Y0157859D01*
X0182385Y0150803D02*
X0182385Y0150136D01*
X0185054Y0147467D01*
X0185054Y0146800D01*
X0186989Y0146800D02*
X0188323Y0148134D01*
X0186989Y0147467D02*
X0187656Y0146800D01*
X0188991Y0146800D01*
X0189658Y0147467D01*
X0189658Y0150136D01*
X0188991Y0150803D01*
X0187656Y0150803D01*
X0186989Y0150136D01*
X0186989Y0147467D01*
X0185054Y0150803D02*
X0182385Y0150803D01*
X0188023Y0135453D02*
X0188023Y0134786D01*
X0190692Y0132117D01*
X0190692Y0131450D01*
X0192627Y0131450D02*
X0195296Y0131450D01*
X0192627Y0134119D01*
X0192627Y0134786D01*
X0193294Y0135453D01*
X0194629Y0135453D01*
X0195296Y0134786D01*
X0197231Y0134786D02*
X0197231Y0133452D01*
X0197898Y0132784D01*
X0199900Y0132784D01*
X0199900Y0131450D02*
X0199900Y0135453D01*
X0197898Y0135453D01*
X0197231Y0134786D01*
X0198566Y0132784D02*
X0197231Y0131450D01*
X0190692Y0135453D02*
X0188023Y0135453D01*
X0204450Y0135698D02*
X0204450Y0134363D01*
X0205117Y0133696D01*
X0206452Y0133696D01*
X0206452Y0135698D01*
X0205784Y0136365D01*
X0205117Y0136365D01*
X0204450Y0135698D01*
X0206452Y0133696D02*
X0207786Y0135031D01*
X0208453Y0136365D01*
X0207786Y0131761D02*
X0206452Y0131761D01*
X0205784Y0131094D01*
X0205784Y0129092D01*
X0204450Y0129092D02*
X0208453Y0129092D01*
X0208453Y0131094D01*
X0207786Y0131761D01*
X0205784Y0130427D02*
X0204450Y0131761D01*
X0195200Y0118703D02*
X0193198Y0118703D01*
X0192531Y0118036D01*
X0192531Y0116702D01*
X0193198Y0116034D01*
X0195200Y0116034D01*
X0195200Y0114700D02*
X0195200Y0118703D01*
X0193866Y0116034D02*
X0192531Y0114700D01*
X0190596Y0114700D02*
X0187927Y0117369D01*
X0187927Y0118036D01*
X0188594Y0118703D01*
X0189929Y0118703D01*
X0190596Y0118036D01*
X0190596Y0114700D02*
X0187927Y0114700D01*
X0185992Y0115367D02*
X0183323Y0118036D01*
X0183323Y0115367D01*
X0183990Y0114700D01*
X0185325Y0114700D01*
X0185992Y0115367D01*
X0185992Y0118036D01*
X0185325Y0118703D01*
X0183990Y0118703D01*
X0183323Y0118036D01*
X0157712Y0109853D02*
X0157712Y0105850D01*
X0157712Y0107184D02*
X0155710Y0107184D01*
X0155043Y0107852D01*
X0155043Y0109186D01*
X0155710Y0109853D01*
X0157712Y0109853D01*
X0156377Y0107184D02*
X0155043Y0105850D01*
X0153108Y0105850D02*
X0150439Y0105850D01*
X0151773Y0105850D02*
X0151773Y0109853D01*
X0153108Y0108519D01*
X0148504Y0108519D02*
X0148504Y0109186D01*
X0147837Y0109853D01*
X0146502Y0109853D01*
X0145835Y0109186D01*
X0145835Y0108519D01*
X0146502Y0107852D01*
X0147837Y0107852D01*
X0148504Y0108519D01*
X0147837Y0107852D02*
X0148504Y0107184D01*
X0148504Y0106517D01*
X0147837Y0105850D01*
X0146502Y0105850D01*
X0145835Y0106517D01*
X0145835Y0107184D01*
X0146502Y0107852D01*
X0146235Y0103053D02*
X0148904Y0103053D01*
X0148904Y0101052D01*
X0147569Y0101719D01*
X0146902Y0101719D01*
X0146235Y0101052D01*
X0146235Y0099717D01*
X0146902Y0099050D01*
X0148237Y0099050D01*
X0148904Y0099717D01*
X0150839Y0099050D02*
X0152173Y0100384D01*
X0151506Y0100384D02*
X0153508Y0100384D01*
X0153508Y0099050D02*
X0153508Y0103053D01*
X0151506Y0103053D01*
X0150839Y0102386D01*
X0150839Y0101052D01*
X0151506Y0100384D01*
X0155750Y0099910D02*
X0159753Y0099910D01*
X0157752Y0097908D01*
X0157752Y0100577D01*
X0155750Y0095973D02*
X0155750Y0093304D01*
X0155750Y0094638D02*
X0159753Y0094638D01*
X0158419Y0093304D01*
X0159086Y0091369D02*
X0159753Y0090702D01*
X0159753Y0089367D01*
X0159086Y0088700D01*
X0156417Y0088700D01*
X0155750Y0089367D01*
X0155750Y0090702D01*
X0156417Y0091369D01*
X0153012Y0073953D02*
X0151010Y0073953D01*
X0150343Y0073286D01*
X0150343Y0071952D01*
X0151010Y0071284D01*
X0153012Y0071284D01*
X0153012Y0069950D02*
X0153012Y0073953D01*
X0151677Y0071284D02*
X0150343Y0069950D01*
X0148408Y0070617D02*
X0147741Y0069950D01*
X0146406Y0069950D01*
X0145739Y0070617D01*
X0145739Y0071284D01*
X0146406Y0071952D01*
X0147073Y0071952D01*
X0146406Y0071952D02*
X0145739Y0072619D01*
X0145739Y0073286D01*
X0146406Y0073953D01*
X0147741Y0073953D01*
X0148408Y0073286D01*
X0143804Y0072619D02*
X0142469Y0073953D01*
X0142469Y0069950D01*
X0141135Y0069950D02*
X0143804Y0069950D01*
X0184727Y0084600D02*
X0187396Y0084600D01*
X0184727Y0087269D01*
X0184727Y0087936D01*
X0185394Y0088603D01*
X0186729Y0088603D01*
X0187396Y0087936D01*
X0189331Y0087936D02*
X0189998Y0088603D01*
X0191333Y0088603D01*
X0192000Y0087936D01*
X0192000Y0085267D01*
X0191333Y0084600D01*
X0189998Y0084600D01*
X0189331Y0085267D01*
X0210923Y0111250D02*
X0213592Y0111250D01*
X0212258Y0111250D02*
X0212258Y0115253D01*
X0213592Y0113919D01*
X0215527Y0113919D02*
X0215527Y0114586D01*
X0216194Y0115253D01*
X0217529Y0115253D01*
X0218196Y0114586D01*
X0220131Y0114586D02*
X0220131Y0113252D01*
X0220798Y0112584D01*
X0222800Y0112584D01*
X0222800Y0111250D02*
X0222800Y0115253D01*
X0220798Y0115253D01*
X0220131Y0114586D01*
X0221466Y0112584D02*
X0220131Y0111250D01*
X0218196Y0111250D02*
X0215527Y0113919D01*
X0215527Y0111250D02*
X0218196Y0111250D01*
X0226167Y0123538D02*
X0225500Y0124205D01*
X0225500Y0125540D01*
X0226167Y0126207D01*
X0228836Y0126207D01*
X0229503Y0125540D01*
X0229503Y0124205D01*
X0228836Y0123538D01*
X0226167Y0123538D01*
X0226834Y0124873D02*
X0225500Y0126207D01*
X0225500Y0128142D02*
X0225500Y0130811D01*
X0225500Y0129477D02*
X0229503Y0129477D01*
X0228169Y0128142D01*
X0228836Y0132746D02*
X0226167Y0132746D01*
X0228836Y0135415D01*
X0226167Y0135415D01*
X0225500Y0134748D01*
X0225500Y0133413D01*
X0226167Y0132746D01*
X0228836Y0132746D02*
X0229503Y0133413D01*
X0229503Y0134748D01*
X0228836Y0135415D01*
X0225653Y0137900D02*
X0225653Y0139902D01*
X0224986Y0140569D01*
X0223652Y0140569D01*
X0222984Y0139902D01*
X0222984Y0137900D01*
X0221650Y0137900D02*
X0225653Y0137900D01*
X0222984Y0139234D02*
X0221650Y0140569D01*
X0222317Y0142504D02*
X0221650Y0143171D01*
X0221650Y0144506D01*
X0222317Y0145173D01*
X0222984Y0145173D01*
X0223652Y0144506D01*
X0223652Y0143838D01*
X0223652Y0144506D02*
X0224319Y0145173D01*
X0224986Y0145173D01*
X0225653Y0144506D01*
X0225653Y0143171D01*
X0224986Y0142504D01*
X0224986Y0147108D02*
X0225653Y0147775D01*
X0225653Y0149110D01*
X0224986Y0149777D01*
X0224319Y0149777D01*
X0223652Y0149110D01*
X0222984Y0149777D01*
X0222317Y0149777D01*
X0221650Y0149110D01*
X0221650Y0147775D01*
X0222317Y0147108D01*
X0223652Y0148442D02*
X0223652Y0149110D01*
X0176933Y0203250D02*
X0175598Y0203250D01*
X0174931Y0203917D01*
X0172996Y0203250D02*
X0170327Y0203250D01*
X0171662Y0203250D02*
X0171662Y0207253D01*
X0172996Y0205919D01*
X0174931Y0206586D02*
X0175598Y0207253D01*
X0176933Y0207253D01*
X0177600Y0206586D01*
X0177600Y0203917D01*
X0176933Y0203250D01*
X0168392Y0203917D02*
X0167725Y0203250D01*
X0166390Y0203250D01*
X0165723Y0203917D01*
X0165723Y0204584D01*
X0166390Y0205252D01*
X0167058Y0205252D01*
X0166390Y0205252D02*
X0165723Y0205919D01*
X0165723Y0206586D01*
X0166390Y0207253D01*
X0167725Y0207253D01*
X0168392Y0206586D01*
X0241850Y0088773D02*
X0241850Y0086104D01*
X0244519Y0088773D01*
X0245186Y0088773D01*
X0245853Y0088106D01*
X0245853Y0086771D01*
X0245186Y0086104D01*
X0241850Y0084169D02*
X0241850Y0081500D01*
X0245853Y0081500D01*
X0049653Y0181555D02*
X0048986Y0180888D01*
X0046317Y0180888D01*
X0045650Y0181555D01*
X0045650Y0182890D01*
X0046317Y0183557D01*
X0045650Y0185492D02*
X0045650Y0188161D01*
X0045650Y0186827D02*
X0049653Y0186827D01*
X0048319Y0185492D01*
X0048986Y0183557D02*
X0049653Y0182890D01*
X0049653Y0181555D01*
X0048986Y0190096D02*
X0048319Y0190096D01*
X0047652Y0190763D01*
X0047652Y0192098D01*
X0046984Y0192765D01*
X0046317Y0192765D01*
X0045650Y0192098D01*
X0045650Y0190763D01*
X0046317Y0190096D01*
X0046984Y0190096D01*
X0047652Y0190763D01*
X0047652Y0192098D02*
X0048319Y0192765D01*
X0048986Y0192765D01*
X0049653Y0192098D01*
X0049653Y0190763D01*
X0048986Y0190096D01*
X0038186Y0112573D02*
X0037519Y0112573D01*
X0036852Y0111906D01*
X0036184Y0112573D01*
X0035517Y0112573D01*
X0034850Y0111906D01*
X0034850Y0110571D01*
X0035517Y0109904D01*
X0036852Y0111238D02*
X0036852Y0111906D01*
X0038186Y0112573D02*
X0038853Y0111906D01*
X0038853Y0110571D01*
X0038186Y0109904D01*
X0038186Y0107969D02*
X0036852Y0107969D01*
X0036184Y0107302D01*
X0036184Y0105300D01*
X0034850Y0105300D02*
X0038853Y0105300D01*
X0038853Y0107302D01*
X0038186Y0107969D01*
X0036184Y0106634D02*
X0034850Y0107969D01*
D12*
X0055444Y0128488D02*
X0058594Y0128488D01*
X0055444Y0128488D02*
X0055444Y0130850D01*
X0055444Y0137150D02*
X0055444Y0139512D01*
X0058594Y0139512D01*
X0041324Y0158589D02*
X0041324Y0166463D01*
X0041324Y0174337D02*
X0041324Y0180636D01*
X0039750Y0182211D01*
X0033450Y0182211D01*
X0031876Y0180636D01*
X0031876Y0174337D01*
X0031876Y0166463D02*
X0031876Y0158589D01*
X0041324Y0158589D01*
X0155789Y0153350D02*
X0155789Y0147050D01*
X0157364Y0145476D01*
X0163663Y0145476D01*
X0171537Y0145476D02*
X0179411Y0145476D01*
X0179411Y0154924D01*
X0171537Y0154924D01*
X0179615Y0157094D02*
X0183552Y0153157D01*
X0191426Y0153157D01*
X0192044Y0148712D02*
X0195194Y0148712D01*
X0192044Y0148712D02*
X0192044Y0146350D01*
X0192044Y0140050D02*
X0192044Y0137688D01*
X0195194Y0137688D01*
X0211988Y0132756D02*
X0211988Y0129606D01*
X0211988Y0132756D02*
X0214350Y0132756D01*
X0220650Y0132756D02*
X0223012Y0132756D01*
X0223012Y0129606D01*
X0219685Y0110143D02*
X0207874Y0110143D01*
X0219685Y0110143D02*
X0219685Y0090457D01*
X0207874Y0090457D01*
X0192126Y0090457D02*
X0184252Y0090457D01*
X0180315Y0094394D01*
X0180315Y0106206D01*
X0184252Y0110143D01*
X0192126Y0110143D01*
X0207174Y0153157D02*
X0218985Y0153157D01*
X0218985Y0172843D01*
X0207174Y0172843D01*
X0191426Y0172843D02*
X0183552Y0172843D01*
X0179615Y0168906D01*
X0179615Y0157094D01*
X0163663Y0154924D02*
X0157364Y0154924D01*
X0155789Y0153350D01*
D13*
X0005000Y0295000D02*
X0005000Y0005000D01*
X0285000Y0005000D01*
X0285000Y0295000D01*
X0005000Y0295000D01*
X0032600Y0171900D02*
X0040600Y0171900D01*
X0166100Y0154200D02*
X0166100Y0146200D01*
D14*
X0224469Y0068386D02*
X0224471Y0068518D01*
X0224477Y0068651D01*
X0224487Y0068783D01*
X0224501Y0068915D01*
X0224518Y0069046D01*
X0224540Y0069177D01*
X0224566Y0069307D01*
X0224595Y0069436D01*
X0224629Y0069564D01*
X0224666Y0069691D01*
X0224707Y0069817D01*
X0224751Y0069942D01*
X0224800Y0070066D01*
X0224852Y0070187D01*
X0224908Y0070308D01*
X0224967Y0070426D01*
X0225030Y0070543D01*
X0225096Y0070658D01*
X0225166Y0070770D01*
X0225239Y0070881D01*
X0225315Y0070989D01*
X0225394Y0071095D01*
X0225477Y0071199D01*
X0225563Y0071300D01*
X0225651Y0071398D01*
X0225743Y0071494D01*
X0225837Y0071587D01*
X0225934Y0071677D01*
X0226034Y0071765D01*
X0226137Y0071849D01*
X0226241Y0071930D01*
X0226349Y0072008D01*
X0226458Y0072082D01*
X0226570Y0072154D01*
X0226684Y0072222D01*
X0226799Y0072286D01*
X0226917Y0072347D01*
X0227036Y0072405D01*
X0227157Y0072459D01*
X0227280Y0072509D01*
X0227404Y0072555D01*
X0227529Y0072598D01*
X0227656Y0072637D01*
X0227784Y0072673D01*
X0227912Y0072704D01*
X0228042Y0072732D01*
X0228172Y0072755D01*
X0228303Y0072775D01*
X0228435Y0072791D01*
X0228567Y0072803D01*
X0228699Y0072811D01*
X0228832Y0072815D01*
X0228964Y0072815D01*
X0229097Y0072811D01*
X0229229Y0072803D01*
X0229361Y0072791D01*
X0229493Y0072775D01*
X0229624Y0072755D01*
X0229754Y0072732D01*
X0229884Y0072704D01*
X0230012Y0072673D01*
X0230140Y0072637D01*
X0230267Y0072598D01*
X0230392Y0072555D01*
X0230516Y0072509D01*
X0230639Y0072459D01*
X0230760Y0072405D01*
X0230879Y0072347D01*
X0230997Y0072286D01*
X0231113Y0072222D01*
X0231226Y0072154D01*
X0231338Y0072082D01*
X0231447Y0072008D01*
X0231555Y0071930D01*
X0231659Y0071849D01*
X0231762Y0071765D01*
X0231862Y0071677D01*
X0231959Y0071587D01*
X0232053Y0071494D01*
X0232145Y0071398D01*
X0232233Y0071300D01*
X0232319Y0071199D01*
X0232402Y0071095D01*
X0232481Y0070989D01*
X0232557Y0070881D01*
X0232630Y0070770D01*
X0232700Y0070658D01*
X0232766Y0070543D01*
X0232829Y0070426D01*
X0232888Y0070308D01*
X0232944Y0070187D01*
X0232996Y0070066D01*
X0233045Y0069942D01*
X0233089Y0069817D01*
X0233130Y0069691D01*
X0233167Y0069564D01*
X0233201Y0069436D01*
X0233230Y0069307D01*
X0233256Y0069177D01*
X0233278Y0069046D01*
X0233295Y0068915D01*
X0233309Y0068783D01*
X0233319Y0068651D01*
X0233325Y0068518D01*
X0233327Y0068386D01*
X0233325Y0068254D01*
X0233319Y0068121D01*
X0233309Y0067989D01*
X0233295Y0067857D01*
X0233278Y0067726D01*
X0233256Y0067595D01*
X0233230Y0067465D01*
X0233201Y0067336D01*
X0233167Y0067208D01*
X0233130Y0067081D01*
X0233089Y0066955D01*
X0233045Y0066830D01*
X0232996Y0066706D01*
X0232944Y0066585D01*
X0232888Y0066464D01*
X0232829Y0066346D01*
X0232766Y0066229D01*
X0232700Y0066114D01*
X0232630Y0066002D01*
X0232557Y0065891D01*
X0232481Y0065783D01*
X0232402Y0065677D01*
X0232319Y0065573D01*
X0232233Y0065472D01*
X0232145Y0065374D01*
X0232053Y0065278D01*
X0231959Y0065185D01*
X0231862Y0065095D01*
X0231762Y0065007D01*
X0231659Y0064923D01*
X0231555Y0064842D01*
X0231447Y0064764D01*
X0231338Y0064690D01*
X0231226Y0064618D01*
X0231112Y0064550D01*
X0230997Y0064486D01*
X0230879Y0064425D01*
X0230760Y0064367D01*
X0230639Y0064313D01*
X0230516Y0064263D01*
X0230392Y0064217D01*
X0230267Y0064174D01*
X0230140Y0064135D01*
X0230012Y0064099D01*
X0229884Y0064068D01*
X0229754Y0064040D01*
X0229624Y0064017D01*
X0229493Y0063997D01*
X0229361Y0063981D01*
X0229229Y0063969D01*
X0229097Y0063961D01*
X0228964Y0063957D01*
X0228832Y0063957D01*
X0228699Y0063961D01*
X0228567Y0063969D01*
X0228435Y0063981D01*
X0228303Y0063997D01*
X0228172Y0064017D01*
X0228042Y0064040D01*
X0227912Y0064068D01*
X0227784Y0064099D01*
X0227656Y0064135D01*
X0227529Y0064174D01*
X0227404Y0064217D01*
X0227280Y0064263D01*
X0227157Y0064313D01*
X0227036Y0064367D01*
X0226917Y0064425D01*
X0226799Y0064486D01*
X0226683Y0064550D01*
X0226570Y0064618D01*
X0226458Y0064690D01*
X0226349Y0064764D01*
X0226241Y0064842D01*
X0226137Y0064923D01*
X0226034Y0065007D01*
X0225934Y0065095D01*
X0225837Y0065185D01*
X0225743Y0065278D01*
X0225651Y0065374D01*
X0225563Y0065472D01*
X0225477Y0065573D01*
X0225394Y0065677D01*
X0225315Y0065783D01*
X0225239Y0065891D01*
X0225166Y0066002D01*
X0225096Y0066114D01*
X0225030Y0066229D01*
X0224967Y0066346D01*
X0224908Y0066464D01*
X0224852Y0066585D01*
X0224800Y0066706D01*
X0224751Y0066830D01*
X0224707Y0066955D01*
X0224666Y0067081D01*
X0224629Y0067208D01*
X0224595Y0067336D01*
X0224566Y0067465D01*
X0224540Y0067595D01*
X0224518Y0067726D01*
X0224501Y0067857D01*
X0224487Y0067989D01*
X0224477Y0068121D01*
X0224471Y0068254D01*
X0224469Y0068386D01*
X0237047Y0053268D02*
X0237049Y0053466D01*
X0237057Y0053664D01*
X0237069Y0053862D01*
X0237086Y0054059D01*
X0237108Y0054256D01*
X0237134Y0054452D01*
X0237166Y0054648D01*
X0237202Y0054843D01*
X0237243Y0055036D01*
X0237289Y0055229D01*
X0237339Y0055421D01*
X0237395Y0055611D01*
X0237454Y0055800D01*
X0237519Y0055987D01*
X0237588Y0056173D01*
X0237661Y0056357D01*
X0237739Y0056539D01*
X0237822Y0056719D01*
X0237909Y0056897D01*
X0238000Y0057073D01*
X0238096Y0057246D01*
X0238195Y0057417D01*
X0238299Y0057586D01*
X0238407Y0057752D01*
X0238519Y0057915D01*
X0238635Y0058076D01*
X0238755Y0058234D01*
X0238879Y0058388D01*
X0239007Y0058540D01*
X0239138Y0058688D01*
X0239273Y0058833D01*
X0239411Y0058975D01*
X0239553Y0059113D01*
X0239698Y0059248D01*
X0239846Y0059379D01*
X0239998Y0059507D01*
X0240152Y0059631D01*
X0240310Y0059751D01*
X0240471Y0059867D01*
X0240634Y0059979D01*
X0240800Y0060087D01*
X0240969Y0060191D01*
X0241140Y0060290D01*
X0241313Y0060386D01*
X0241489Y0060477D01*
X0241667Y0060564D01*
X0241847Y0060647D01*
X0242029Y0060725D01*
X0242213Y0060798D01*
X0242399Y0060867D01*
X0242586Y0060932D01*
X0242775Y0060991D01*
X0242965Y0061047D01*
X0243157Y0061097D01*
X0243350Y0061143D01*
X0243543Y0061184D01*
X0243738Y0061220D01*
X0243934Y0061252D01*
X0244130Y0061278D01*
X0244327Y0061300D01*
X0244524Y0061317D01*
X0244722Y0061329D01*
X0244920Y0061337D01*
X0245118Y0061339D01*
X0245316Y0061337D01*
X0245514Y0061329D01*
X0245712Y0061317D01*
X0245909Y0061300D01*
X0246106Y0061278D01*
X0246302Y0061252D01*
X0246498Y0061220D01*
X0246693Y0061184D01*
X0246886Y0061143D01*
X0247079Y0061097D01*
X0247271Y0061047D01*
X0247461Y0060991D01*
X0247650Y0060932D01*
X0247837Y0060867D01*
X0248023Y0060798D01*
X0248207Y0060725D01*
X0248389Y0060647D01*
X0248569Y0060564D01*
X0248747Y0060477D01*
X0248923Y0060386D01*
X0249096Y0060290D01*
X0249267Y0060191D01*
X0249436Y0060087D01*
X0249602Y0059979D01*
X0249765Y0059867D01*
X0249926Y0059751D01*
X0250084Y0059631D01*
X0250238Y0059507D01*
X0250390Y0059379D01*
X0250538Y0059248D01*
X0250683Y0059113D01*
X0250825Y0058975D01*
X0250963Y0058833D01*
X0251098Y0058688D01*
X0251229Y0058540D01*
X0251357Y0058388D01*
X0251481Y0058234D01*
X0251601Y0058076D01*
X0251717Y0057915D01*
X0251829Y0057752D01*
X0251937Y0057586D01*
X0252041Y0057417D01*
X0252140Y0057246D01*
X0252236Y0057073D01*
X0252327Y0056897D01*
X0252414Y0056719D01*
X0252497Y0056539D01*
X0252575Y0056357D01*
X0252648Y0056173D01*
X0252717Y0055987D01*
X0252782Y0055800D01*
X0252841Y0055611D01*
X0252897Y0055421D01*
X0252947Y0055229D01*
X0252993Y0055036D01*
X0253034Y0054843D01*
X0253070Y0054648D01*
X0253102Y0054452D01*
X0253128Y0054256D01*
X0253150Y0054059D01*
X0253167Y0053862D01*
X0253179Y0053664D01*
X0253187Y0053466D01*
X0253189Y0053268D01*
X0253187Y0053070D01*
X0253179Y0052872D01*
X0253167Y0052674D01*
X0253150Y0052477D01*
X0253128Y0052280D01*
X0253102Y0052084D01*
X0253070Y0051888D01*
X0253034Y0051693D01*
X0252993Y0051500D01*
X0252947Y0051307D01*
X0252897Y0051115D01*
X0252841Y0050925D01*
X0252782Y0050736D01*
X0252717Y0050549D01*
X0252648Y0050363D01*
X0252575Y0050179D01*
X0252497Y0049997D01*
X0252414Y0049817D01*
X0252327Y0049639D01*
X0252236Y0049463D01*
X0252140Y0049290D01*
X0252041Y0049119D01*
X0251937Y0048950D01*
X0251829Y0048784D01*
X0251717Y0048621D01*
X0251601Y0048460D01*
X0251481Y0048302D01*
X0251357Y0048148D01*
X0251229Y0047996D01*
X0251098Y0047848D01*
X0250963Y0047703D01*
X0250825Y0047561D01*
X0250683Y0047423D01*
X0250538Y0047288D01*
X0250390Y0047157D01*
X0250238Y0047029D01*
X0250084Y0046905D01*
X0249926Y0046785D01*
X0249765Y0046669D01*
X0249602Y0046557D01*
X0249436Y0046449D01*
X0249267Y0046345D01*
X0249096Y0046246D01*
X0248923Y0046150D01*
X0248747Y0046059D01*
X0248569Y0045972D01*
X0248389Y0045889D01*
X0248207Y0045811D01*
X0248023Y0045738D01*
X0247837Y0045669D01*
X0247650Y0045604D01*
X0247461Y0045545D01*
X0247271Y0045489D01*
X0247079Y0045439D01*
X0246886Y0045393D01*
X0246693Y0045352D01*
X0246498Y0045316D01*
X0246302Y0045284D01*
X0246106Y0045258D01*
X0245909Y0045236D01*
X0245712Y0045219D01*
X0245514Y0045207D01*
X0245316Y0045199D01*
X0245118Y0045197D01*
X0244920Y0045199D01*
X0244722Y0045207D01*
X0244524Y0045219D01*
X0244327Y0045236D01*
X0244130Y0045258D01*
X0243934Y0045284D01*
X0243738Y0045316D01*
X0243543Y0045352D01*
X0243350Y0045393D01*
X0243157Y0045439D01*
X0242965Y0045489D01*
X0242775Y0045545D01*
X0242586Y0045604D01*
X0242399Y0045669D01*
X0242213Y0045738D01*
X0242029Y0045811D01*
X0241847Y0045889D01*
X0241667Y0045972D01*
X0241489Y0046059D01*
X0241313Y0046150D01*
X0241140Y0046246D01*
X0240969Y0046345D01*
X0240800Y0046449D01*
X0240634Y0046557D01*
X0240471Y0046669D01*
X0240310Y0046785D01*
X0240152Y0046905D01*
X0239998Y0047029D01*
X0239846Y0047157D01*
X0239698Y0047288D01*
X0239553Y0047423D01*
X0239411Y0047561D01*
X0239273Y0047703D01*
X0239138Y0047848D01*
X0239007Y0047996D01*
X0238879Y0048148D01*
X0238755Y0048302D01*
X0238635Y0048460D01*
X0238519Y0048621D01*
X0238407Y0048784D01*
X0238299Y0048950D01*
X0238195Y0049119D01*
X0238096Y0049290D01*
X0238000Y0049463D01*
X0237909Y0049639D01*
X0237822Y0049817D01*
X0237739Y0049997D01*
X0237661Y0050179D01*
X0237588Y0050363D01*
X0237519Y0050549D01*
X0237454Y0050736D01*
X0237395Y0050925D01*
X0237339Y0051115D01*
X0237289Y0051307D01*
X0237243Y0051500D01*
X0237202Y0051693D01*
X0237166Y0051888D01*
X0237134Y0052084D01*
X0237108Y0052280D01*
X0237086Y0052477D01*
X0237069Y0052674D01*
X0237057Y0052872D01*
X0237049Y0053070D01*
X0237047Y0053268D01*
X0056791Y0068465D02*
X0056793Y0068597D01*
X0056799Y0068730D01*
X0056809Y0068862D01*
X0056823Y0068994D01*
X0056840Y0069125D01*
X0056862Y0069256D01*
X0056888Y0069386D01*
X0056917Y0069515D01*
X0056951Y0069643D01*
X0056988Y0069770D01*
X0057029Y0069896D01*
X0057073Y0070021D01*
X0057122Y0070145D01*
X0057174Y0070266D01*
X0057230Y0070387D01*
X0057289Y0070505D01*
X0057352Y0070622D01*
X0057418Y0070737D01*
X0057488Y0070849D01*
X0057561Y0070960D01*
X0057637Y0071068D01*
X0057716Y0071174D01*
X0057799Y0071278D01*
X0057885Y0071379D01*
X0057973Y0071477D01*
X0058065Y0071573D01*
X0058159Y0071666D01*
X0058256Y0071756D01*
X0058356Y0071844D01*
X0058459Y0071928D01*
X0058563Y0072009D01*
X0058671Y0072087D01*
X0058780Y0072161D01*
X0058892Y0072233D01*
X0059006Y0072301D01*
X0059121Y0072365D01*
X0059239Y0072426D01*
X0059358Y0072484D01*
X0059479Y0072538D01*
X0059602Y0072588D01*
X0059726Y0072634D01*
X0059851Y0072677D01*
X0059978Y0072716D01*
X0060106Y0072752D01*
X0060234Y0072783D01*
X0060364Y0072811D01*
X0060494Y0072834D01*
X0060625Y0072854D01*
X0060757Y0072870D01*
X0060889Y0072882D01*
X0061021Y0072890D01*
X0061154Y0072894D01*
X0061286Y0072894D01*
X0061419Y0072890D01*
X0061551Y0072882D01*
X0061683Y0072870D01*
X0061815Y0072854D01*
X0061946Y0072834D01*
X0062076Y0072811D01*
X0062206Y0072783D01*
X0062334Y0072752D01*
X0062462Y0072716D01*
X0062589Y0072677D01*
X0062714Y0072634D01*
X0062838Y0072588D01*
X0062961Y0072538D01*
X0063082Y0072484D01*
X0063201Y0072426D01*
X0063319Y0072365D01*
X0063435Y0072301D01*
X0063548Y0072233D01*
X0063660Y0072161D01*
X0063769Y0072087D01*
X0063877Y0072009D01*
X0063981Y0071928D01*
X0064084Y0071844D01*
X0064184Y0071756D01*
X0064281Y0071666D01*
X0064375Y0071573D01*
X0064467Y0071477D01*
X0064555Y0071379D01*
X0064641Y0071278D01*
X0064724Y0071174D01*
X0064803Y0071068D01*
X0064879Y0070960D01*
X0064952Y0070849D01*
X0065022Y0070737D01*
X0065088Y0070622D01*
X0065151Y0070505D01*
X0065210Y0070387D01*
X0065266Y0070266D01*
X0065318Y0070145D01*
X0065367Y0070021D01*
X0065411Y0069896D01*
X0065452Y0069770D01*
X0065489Y0069643D01*
X0065523Y0069515D01*
X0065552Y0069386D01*
X0065578Y0069256D01*
X0065600Y0069125D01*
X0065617Y0068994D01*
X0065631Y0068862D01*
X0065641Y0068730D01*
X0065647Y0068597D01*
X0065649Y0068465D01*
X0065647Y0068333D01*
X0065641Y0068200D01*
X0065631Y0068068D01*
X0065617Y0067936D01*
X0065600Y0067805D01*
X0065578Y0067674D01*
X0065552Y0067544D01*
X0065523Y0067415D01*
X0065489Y0067287D01*
X0065452Y0067160D01*
X0065411Y0067034D01*
X0065367Y0066909D01*
X0065318Y0066785D01*
X0065266Y0066664D01*
X0065210Y0066543D01*
X0065151Y0066425D01*
X0065088Y0066308D01*
X0065022Y0066193D01*
X0064952Y0066081D01*
X0064879Y0065970D01*
X0064803Y0065862D01*
X0064724Y0065756D01*
X0064641Y0065652D01*
X0064555Y0065551D01*
X0064467Y0065453D01*
X0064375Y0065357D01*
X0064281Y0065264D01*
X0064184Y0065174D01*
X0064084Y0065086D01*
X0063981Y0065002D01*
X0063877Y0064921D01*
X0063769Y0064843D01*
X0063660Y0064769D01*
X0063548Y0064697D01*
X0063434Y0064629D01*
X0063319Y0064565D01*
X0063201Y0064504D01*
X0063082Y0064446D01*
X0062961Y0064392D01*
X0062838Y0064342D01*
X0062714Y0064296D01*
X0062589Y0064253D01*
X0062462Y0064214D01*
X0062334Y0064178D01*
X0062206Y0064147D01*
X0062076Y0064119D01*
X0061946Y0064096D01*
X0061815Y0064076D01*
X0061683Y0064060D01*
X0061551Y0064048D01*
X0061419Y0064040D01*
X0061286Y0064036D01*
X0061154Y0064036D01*
X0061021Y0064040D01*
X0060889Y0064048D01*
X0060757Y0064060D01*
X0060625Y0064076D01*
X0060494Y0064096D01*
X0060364Y0064119D01*
X0060234Y0064147D01*
X0060106Y0064178D01*
X0059978Y0064214D01*
X0059851Y0064253D01*
X0059726Y0064296D01*
X0059602Y0064342D01*
X0059479Y0064392D01*
X0059358Y0064446D01*
X0059239Y0064504D01*
X0059121Y0064565D01*
X0059005Y0064629D01*
X0058892Y0064697D01*
X0058780Y0064769D01*
X0058671Y0064843D01*
X0058563Y0064921D01*
X0058459Y0065002D01*
X0058356Y0065086D01*
X0058256Y0065174D01*
X0058159Y0065264D01*
X0058065Y0065357D01*
X0057973Y0065453D01*
X0057885Y0065551D01*
X0057799Y0065652D01*
X0057716Y0065756D01*
X0057637Y0065862D01*
X0057561Y0065970D01*
X0057488Y0066081D01*
X0057418Y0066193D01*
X0057352Y0066308D01*
X0057289Y0066425D01*
X0057230Y0066543D01*
X0057174Y0066664D01*
X0057122Y0066785D01*
X0057073Y0066909D01*
X0057029Y0067034D01*
X0056988Y0067160D01*
X0056951Y0067287D01*
X0056917Y0067415D01*
X0056888Y0067544D01*
X0056862Y0067674D01*
X0056840Y0067805D01*
X0056823Y0067936D01*
X0056809Y0068068D01*
X0056799Y0068200D01*
X0056793Y0068333D01*
X0056791Y0068465D01*
X0036929Y0053071D02*
X0036931Y0053269D01*
X0036939Y0053467D01*
X0036951Y0053665D01*
X0036968Y0053862D01*
X0036990Y0054059D01*
X0037016Y0054255D01*
X0037048Y0054451D01*
X0037084Y0054646D01*
X0037125Y0054839D01*
X0037171Y0055032D01*
X0037221Y0055224D01*
X0037277Y0055414D01*
X0037336Y0055603D01*
X0037401Y0055790D01*
X0037470Y0055976D01*
X0037543Y0056160D01*
X0037621Y0056342D01*
X0037704Y0056522D01*
X0037791Y0056700D01*
X0037882Y0056876D01*
X0037978Y0057049D01*
X0038077Y0057220D01*
X0038181Y0057389D01*
X0038289Y0057555D01*
X0038401Y0057718D01*
X0038517Y0057879D01*
X0038637Y0058037D01*
X0038761Y0058191D01*
X0038889Y0058343D01*
X0039020Y0058491D01*
X0039155Y0058636D01*
X0039293Y0058778D01*
X0039435Y0058916D01*
X0039580Y0059051D01*
X0039728Y0059182D01*
X0039880Y0059310D01*
X0040034Y0059434D01*
X0040192Y0059554D01*
X0040353Y0059670D01*
X0040516Y0059782D01*
X0040682Y0059890D01*
X0040851Y0059994D01*
X0041022Y0060093D01*
X0041195Y0060189D01*
X0041371Y0060280D01*
X0041549Y0060367D01*
X0041729Y0060450D01*
X0041911Y0060528D01*
X0042095Y0060601D01*
X0042281Y0060670D01*
X0042468Y0060735D01*
X0042657Y0060794D01*
X0042847Y0060850D01*
X0043039Y0060900D01*
X0043232Y0060946D01*
X0043425Y0060987D01*
X0043620Y0061023D01*
X0043816Y0061055D01*
X0044012Y0061081D01*
X0044209Y0061103D01*
X0044406Y0061120D01*
X0044604Y0061132D01*
X0044802Y0061140D01*
X0045000Y0061142D01*
X0045198Y0061140D01*
X0045396Y0061132D01*
X0045594Y0061120D01*
X0045791Y0061103D01*
X0045988Y0061081D01*
X0046184Y0061055D01*
X0046380Y0061023D01*
X0046575Y0060987D01*
X0046768Y0060946D01*
X0046961Y0060900D01*
X0047153Y0060850D01*
X0047343Y0060794D01*
X0047532Y0060735D01*
X0047719Y0060670D01*
X0047905Y0060601D01*
X0048089Y0060528D01*
X0048271Y0060450D01*
X0048451Y0060367D01*
X0048629Y0060280D01*
X0048805Y0060189D01*
X0048978Y0060093D01*
X0049149Y0059994D01*
X0049318Y0059890D01*
X0049484Y0059782D01*
X0049647Y0059670D01*
X0049808Y0059554D01*
X0049966Y0059434D01*
X0050120Y0059310D01*
X0050272Y0059182D01*
X0050420Y0059051D01*
X0050565Y0058916D01*
X0050707Y0058778D01*
X0050845Y0058636D01*
X0050980Y0058491D01*
X0051111Y0058343D01*
X0051239Y0058191D01*
X0051363Y0058037D01*
X0051483Y0057879D01*
X0051599Y0057718D01*
X0051711Y0057555D01*
X0051819Y0057389D01*
X0051923Y0057220D01*
X0052022Y0057049D01*
X0052118Y0056876D01*
X0052209Y0056700D01*
X0052296Y0056522D01*
X0052379Y0056342D01*
X0052457Y0056160D01*
X0052530Y0055976D01*
X0052599Y0055790D01*
X0052664Y0055603D01*
X0052723Y0055414D01*
X0052779Y0055224D01*
X0052829Y0055032D01*
X0052875Y0054839D01*
X0052916Y0054646D01*
X0052952Y0054451D01*
X0052984Y0054255D01*
X0053010Y0054059D01*
X0053032Y0053862D01*
X0053049Y0053665D01*
X0053061Y0053467D01*
X0053069Y0053269D01*
X0053071Y0053071D01*
X0053069Y0052873D01*
X0053061Y0052675D01*
X0053049Y0052477D01*
X0053032Y0052280D01*
X0053010Y0052083D01*
X0052984Y0051887D01*
X0052952Y0051691D01*
X0052916Y0051496D01*
X0052875Y0051303D01*
X0052829Y0051110D01*
X0052779Y0050918D01*
X0052723Y0050728D01*
X0052664Y0050539D01*
X0052599Y0050352D01*
X0052530Y0050166D01*
X0052457Y0049982D01*
X0052379Y0049800D01*
X0052296Y0049620D01*
X0052209Y0049442D01*
X0052118Y0049266D01*
X0052022Y0049093D01*
X0051923Y0048922D01*
X0051819Y0048753D01*
X0051711Y0048587D01*
X0051599Y0048424D01*
X0051483Y0048263D01*
X0051363Y0048105D01*
X0051239Y0047951D01*
X0051111Y0047799D01*
X0050980Y0047651D01*
X0050845Y0047506D01*
X0050707Y0047364D01*
X0050565Y0047226D01*
X0050420Y0047091D01*
X0050272Y0046960D01*
X0050120Y0046832D01*
X0049966Y0046708D01*
X0049808Y0046588D01*
X0049647Y0046472D01*
X0049484Y0046360D01*
X0049318Y0046252D01*
X0049149Y0046148D01*
X0048978Y0046049D01*
X0048805Y0045953D01*
X0048629Y0045862D01*
X0048451Y0045775D01*
X0048271Y0045692D01*
X0048089Y0045614D01*
X0047905Y0045541D01*
X0047719Y0045472D01*
X0047532Y0045407D01*
X0047343Y0045348D01*
X0047153Y0045292D01*
X0046961Y0045242D01*
X0046768Y0045196D01*
X0046575Y0045155D01*
X0046380Y0045119D01*
X0046184Y0045087D01*
X0045988Y0045061D01*
X0045791Y0045039D01*
X0045594Y0045022D01*
X0045396Y0045010D01*
X0045198Y0045002D01*
X0045000Y0045000D01*
X0044802Y0045002D01*
X0044604Y0045010D01*
X0044406Y0045022D01*
X0044209Y0045039D01*
X0044012Y0045061D01*
X0043816Y0045087D01*
X0043620Y0045119D01*
X0043425Y0045155D01*
X0043232Y0045196D01*
X0043039Y0045242D01*
X0042847Y0045292D01*
X0042657Y0045348D01*
X0042468Y0045407D01*
X0042281Y0045472D01*
X0042095Y0045541D01*
X0041911Y0045614D01*
X0041729Y0045692D01*
X0041549Y0045775D01*
X0041371Y0045862D01*
X0041195Y0045953D01*
X0041022Y0046049D01*
X0040851Y0046148D01*
X0040682Y0046252D01*
X0040516Y0046360D01*
X0040353Y0046472D01*
X0040192Y0046588D01*
X0040034Y0046708D01*
X0039880Y0046832D01*
X0039728Y0046960D01*
X0039580Y0047091D01*
X0039435Y0047226D01*
X0039293Y0047364D01*
X0039155Y0047506D01*
X0039020Y0047651D01*
X0038889Y0047799D01*
X0038761Y0047951D01*
X0038637Y0048105D01*
X0038517Y0048263D01*
X0038401Y0048424D01*
X0038289Y0048587D01*
X0038181Y0048753D01*
X0038077Y0048922D01*
X0037978Y0049093D01*
X0037882Y0049266D01*
X0037791Y0049442D01*
X0037704Y0049620D01*
X0037621Y0049800D01*
X0037543Y0049982D01*
X0037470Y0050166D01*
X0037401Y0050352D01*
X0037336Y0050539D01*
X0037277Y0050728D01*
X0037221Y0050918D01*
X0037171Y0051110D01*
X0037125Y0051303D01*
X0037084Y0051496D01*
X0037048Y0051691D01*
X0037016Y0051887D01*
X0036990Y0052083D01*
X0036968Y0052280D01*
X0036951Y0052477D01*
X0036939Y0052675D01*
X0036931Y0052873D01*
X0036929Y0053071D01*
M02*
