G75*
G70*
%OFA0B0*%
%FSLAX25Y25*%
%IPPOS*%
%LPD*%
%AMOC8*
5,1,8,0,0,1.08239X$1,22.5*
%
%ADD1008R,0.10249X0.10249*%
%ADD1010R,0.03950X0.05524*%
%ADD1019C,0.07150*%
%ADD1021C,0.05950*%
%ADD1034C,0.17800*%
%ADD1050C,0.04146*%
%ADD1054C,0.05556*%
%ADD1061C,0.09363*%
%ADD1079OC8,0.07400*%
%ADD1082C,0.16942*%
%ADD1202R,0.04737X0.01981*%
%ADD1294R,0.03556X0.04737*%
%ADD14C,0.10400*%
%ADD140R,0.03753X0.02375*%
%ADD146C,0.13398*%
%ADD159R,0.10850X0.10850*%
%ADD167R,0.02375X0.07296*%
%ADD170C,0.12020*%
%ADD172C,0.09000*%
%ADD180C,0.06940*%
%ADD1818R,0.16800X0.06800*%
%ADD1820R,0.07887X0.11430*%
%ADD1830R,0.05131X0.03162*%
%ADD1831R,0.10249X0.06706*%
%ADD1841R,0.05800X0.10800*%
%ADD210R,0.06350X0.06350*%
%ADD211R,0.08280X0.07099*%
%ADD212C,0.19800*%
%ADD225R,0.15200X0.15200*%
%ADD242OC8,0.09800*%
%ADD246C,0.08200*%
%ADD252C,0.10200*%
%ADD254C,0.07887*%
%ADD258C,0.07400*%
%ADD264C,0.03162*%
%ADD277C,0.04800*%
%ADD283R,0.07100X0.07100*%
%ADD31OC8,0.06000*%
%ADD312C,0.05131*%
%ADD330R,0.03200X0.09500*%
%ADD337R,0.09500X0.03200*%
%ADD340OC8,0.06400*%
%ADD342C,0.13792*%
%ADD347C,0.05169*%
%ADD349R,0.07099X0.08280*%
%ADD35C,0.13800*%
%ADD354R,0.06312X0.04737*%
%ADD356R,0.06312X0.07099*%
%ADD375C,0.06343*%
%ADD380R,0.03556X0.03556*%
%ADD392R,0.04737X0.06312*%
%ADD393C,0.14580*%
%ADD396R,0.05524X0.03950*%
%ADD401R,0.06800X0.16800*%
%ADD410R,0.06940X0.06940*%
%ADD411C,0.06800*%
%ADD414R,0.08200X0.08200*%
%ADD42C,0.13300*%
%ADD422R,0.04068X0.03280*%
%ADD459R,0.03162X0.05524*%
%ADD460C,0.04762*%
%ADD462R,0.05800X0.06587*%
%ADD467R,0.07200X0.07200*%
%ADD483C,0.14400*%
%ADD495C,0.03600*%
%ADD515R,0.05800X0.03300*%
%ADD525R,0.10839X0.11430*%
%ADD534C,0.06350*%
%ADD548C,0.07000*%
%ADD557C,0.07531*%
%ADD558C,0.06743*%
%ADD561R,0.12611X0.07099*%
%ADD572R,0.05100X0.07100*%
%ADD603R,0.04343X0.03950*%
%ADD620R,0.03753X0.02769*%
%ADD647R,0.05131X0.04737*%
%ADD663C,0.04369*%
%ADD667C,0.09658*%
%ADD669R,0.02965X0.05524*%
%ADD679R,0.05524X0.02965*%
%ADD686R,0.10800X0.05800*%
%ADD71C,0.06600*%
%ADD727R,0.02375X0.03753*%
%ADD729R,0.06706X0.05918*%
%ADD738R,0.05950X0.05950*%
%ADD741C,0.07800*%
%ADD758R,0.05524X0.03162*%
%ADD769C,0.07200*%
%ADD777C,0.13320*%
%ADD794R,0.07099X0.12611*%
%ADD796C,0.11824*%
%ADD800R,0.23300X0.19800*%
%ADD823R,0.05131X0.08280*%
%ADD825R,0.02769X0.03753*%
%ADD848C,0.19600*%
%ADD856C,0.07296*%
%ADD858R,0.02375X0.05524*%
%ADD862R,0.07887X0.07099*%
%ADD865R,0.06343X0.06343*%
%ADD880R,0.03950X0.04343*%
%ADD897OC8,0.08200*%
%ADD900R,0.01981X0.04737*%
%ADD901R,0.09461X0.03162*%
%ADD902C,0.08477*%
%ADD913R,0.09800X0.09800*%
%ADD924C,0.08600*%
%ADD937R,0.07137X0.07137*%
%ADD951R,0.08300X0.08300*%
%ADD963R,0.04737X0.05131*%
%ADD969R,0.06587X0.05800*%
%ADD972R,0.19800X0.23300*%
X0020000Y0020000D02*
G75*
%LPD*%
D1010*
X0121943Y0153400D03*
X0114857Y0153400D03*
X0235857Y0256000D03*
X0242943Y0256000D03*
D349*
X0088700Y0155796D03*
X0088700Y0142804D03*
D396*
X0111300Y0115243D03*
X0111300Y0108157D03*
X0127300Y0127257D03*
X0127300Y0134343D03*
D769*
X0074200Y0129600D02*
X0067800Y0129600D01*
X0066800Y0119600D02*
X0073200Y0119600D01*
X0074200Y0109600D02*
X0067800Y0109600D01*
X0066800Y0139600D02*
X0073200Y0139600D01*
X0074200Y0149600D02*
X0067800Y0149600D01*
D963*
X0070500Y0159154D03*
X0070500Y0165846D03*
D246*
X0093200Y0196000D03*
X0093200Y0206000D03*
X0093200Y0216000D03*
X0093200Y0226000D03*
X0093200Y0236000D03*
X0093200Y0246000D03*
X0124000Y0077000D03*
X0124000Y0059200D03*
X0149600Y0059200D03*
X0149600Y0077000D03*
D647*
X0111446Y0128400D03*
X0104754Y0128400D03*
D557*
X0250551Y0131024D03*
X0250551Y0140866D03*
X0250551Y0150709D03*
X0250551Y0160551D03*
X0260394Y0160551D03*
X0260394Y0150709D03*
X0260394Y0140866D03*
X0260394Y0131024D03*
X0260394Y0121181D03*
X0260394Y0111339D03*
X0250551Y0111339D03*
X0250551Y0121181D03*
X0250551Y0101496D03*
X0260394Y0101496D03*
X0270236Y0101496D03*
X0270236Y0111339D03*
X0270236Y0121181D03*
X0270236Y0131024D03*
X0270236Y0140866D03*
X0270236Y0150709D03*
X0270236Y0160551D03*
X0270236Y0170394D03*
X0270236Y0180236D03*
X0280079Y0180236D03*
X0280079Y0170394D03*
X0280079Y0160551D03*
X0280079Y0150709D03*
X0280079Y0140866D03*
X0280079Y0131024D03*
X0280079Y0121181D03*
X0280079Y0111339D03*
X0280079Y0101496D03*
X0260394Y0170394D03*
X0260394Y0180236D03*
X0260394Y0190079D03*
X0250551Y0190079D03*
X0250551Y0180236D03*
X0250551Y0170394D03*
X0270236Y0190079D03*
X0280079Y0190079D03*
X0280079Y0203858D03*
X0270236Y0203858D03*
X0260394Y0203858D03*
X0250551Y0203858D03*
X0250551Y0218425D03*
X0260394Y0218425D03*
X0270236Y0218425D03*
X0280079Y0218425D03*
D667*
X0246614Y0243898D03*
X0246535Y0076220D03*
D1082*
X0261929Y0060000D03*
X0261732Y0260118D03*
D140*
X0200946Y0190375D03*
X0200946Y0187225D03*
X0194057Y0187225D03*
X0194057Y0190375D03*
D620*
X0194057Y0193721D03*
X0200946Y0193721D03*
X0200946Y0183879D03*
X0194057Y0183879D03*
X0322500Y0020000D02*
G75*
%LPD*%
D769*
X0506557Y0184062D02*
X0512957Y0184062D01*
X0511957Y0194062D02*
X0505557Y0194062D01*
X0506557Y0204062D02*
X0512957Y0204062D01*
X0511957Y0214062D02*
X0505557Y0214062D01*
X0506557Y0224062D02*
X0512957Y0224062D01*
D515*
X0402997Y0119978D03*
X0402997Y0116434D03*
D902*
X0423236Y0235106D03*
X0453158Y0235106D03*
X0464736Y0235106D03*
X0494658Y0235106D03*
X0506236Y0235106D03*
X0536158Y0235106D03*
X0547736Y0235106D03*
X0577658Y0235106D03*
X0577658Y0285106D03*
X0547736Y0295145D03*
X0536158Y0285106D03*
X0506236Y0295145D03*
X0494658Y0285106D03*
X0464736Y0295145D03*
X0453158Y0285106D03*
X0423236Y0295145D03*
D603*
X0416228Y0302806D03*
X0407960Y0299066D03*
X0407960Y0306546D03*
X0401328Y0302706D03*
X0393060Y0298966D03*
X0393060Y0306446D03*
X0386228Y0303006D03*
X0377960Y0299266D03*
X0377960Y0306746D03*
X0371128Y0303306D03*
X0362860Y0299566D03*
X0362860Y0307046D03*
X0457066Y0248906D03*
X0465334Y0245166D03*
X0465334Y0252646D03*
X0494766Y0247506D03*
X0503034Y0243766D03*
X0503034Y0251246D03*
X0536666Y0248106D03*
X0544934Y0244366D03*
X0544934Y0251846D03*
X0570466Y0250406D03*
X0578734Y0246666D03*
X0578734Y0254146D03*
X0389928Y0136606D03*
X0381660Y0132866D03*
X0381660Y0140346D03*
D727*
X0385425Y0261472D03*
X0388575Y0261472D03*
X0388575Y0268362D03*
X0385425Y0268362D03*
X0385261Y0277440D03*
X0388410Y0277440D03*
X0388410Y0284330D03*
X0385261Y0284330D03*
X0522422Y0273449D03*
X0525572Y0273449D03*
X0525572Y0266560D03*
X0522422Y0266560D03*
D825*
X0519076Y0266560D03*
X0519076Y0273449D03*
X0528918Y0273449D03*
X0528918Y0266560D03*
X0391921Y0268362D03*
X0391921Y0261472D03*
X0382079Y0261472D03*
X0382079Y0268362D03*
X0381914Y0277440D03*
X0381914Y0284330D03*
X0391757Y0284330D03*
X0391757Y0277440D03*
D1061*
X0345965Y0042244D03*
X0365965Y0042244D03*
X0385965Y0042244D03*
X0405965Y0042244D03*
X0425965Y0042244D03*
X0445965Y0042244D03*
X0465965Y0042244D03*
X0485965Y0042244D03*
X0505965Y0042244D03*
X0525965Y0042244D03*
X0545965Y0042244D03*
X0565965Y0042244D03*
X0565965Y0339882D03*
X0545965Y0339882D03*
X0525965Y0339882D03*
X0505965Y0339882D03*
X0485965Y0339882D03*
X0465965Y0339882D03*
X0445965Y0339882D03*
X0425965Y0339882D03*
X0405965Y0339882D03*
X0385965Y0339882D03*
X0365965Y0339882D03*
X0345965Y0339882D03*
D667*
X0335797Y0199106D03*
X0385797Y0199106D03*
X0385797Y0174106D03*
X0385797Y0161606D03*
X0385797Y0149106D03*
X0385797Y0111606D03*
X0335797Y0111606D03*
D396*
X0375597Y0154363D03*
X0375597Y0161449D03*
X0404597Y0159649D03*
X0404597Y0152563D03*
X0495097Y0213963D03*
X0495097Y0221049D03*
X0510497Y0173049D03*
X0510497Y0165963D03*
X0563797Y0169349D03*
X0563797Y0162263D03*
X0432797Y0269263D03*
X0432797Y0276349D03*
X0403097Y0273449D03*
X0403097Y0266363D03*
D349*
X0422697Y0265910D03*
X0422697Y0278902D03*
X0561697Y0148302D03*
X0561697Y0135310D03*
D1010*
X0541640Y0073906D03*
X0534554Y0073906D03*
X0483140Y0108806D03*
X0476054Y0108806D03*
X0474354Y0093606D03*
X0481440Y0093606D03*
X0466640Y0173106D03*
X0459554Y0173106D03*
X0473054Y0202506D03*
X0480140Y0202506D03*
X0373740Y0139806D03*
X0373640Y0131706D03*
X0366554Y0131706D03*
X0366654Y0139806D03*
D167*
X0412722Y0155498D03*
X0415281Y0155498D03*
X0417840Y0155498D03*
X0420399Y0155498D03*
X0422958Y0155498D03*
X0425517Y0155498D03*
X0428077Y0155498D03*
X0430636Y0155498D03*
X0433195Y0155498D03*
X0435754Y0155498D03*
X0438313Y0155498D03*
X0440872Y0155498D03*
X0440872Y0179514D03*
X0438313Y0179514D03*
X0435754Y0179514D03*
X0433195Y0179514D03*
X0430636Y0179514D03*
X0428077Y0179514D03*
X0425517Y0179514D03*
X0422958Y0179514D03*
X0420399Y0179514D03*
X0417840Y0179514D03*
X0415281Y0179514D03*
X0412722Y0179514D03*
D794*
X0349073Y0148700D03*
X0331121Y0148700D03*
D972*
X0340097Y0175858D03*
D211*
X0531501Y0083506D03*
X0544493Y0083506D03*
D414*
X0576197Y0125106D03*
D246*
X0577197Y0135106D03*
X0576197Y0145106D03*
X0577197Y0155106D03*
D897*
X0440497Y0138706D03*
X0440497Y0128706D03*
X0440497Y0118706D03*
X0440497Y0108706D03*
X0440497Y0098706D03*
X0429497Y0098706D03*
X0429497Y0108706D03*
X0429497Y0118706D03*
X0429497Y0128706D03*
X0429497Y0138706D03*
D1054*
X0494797Y0108806D03*
X0546497Y0116506D03*
X0020000Y0312500D02*
G75*
%LPD*%
D769*
X0196450Y0476500D02*
X0190050Y0476500D01*
X0189050Y0486500D02*
X0195450Y0486500D01*
X0196450Y0496500D02*
X0190050Y0496500D01*
X0189050Y0506500D02*
X0195450Y0506500D01*
X0196450Y0516500D02*
X0190050Y0516500D01*
D937*
X0029250Y0442500D03*
D741*
X0029250Y0432500D03*
X0029250Y0422500D03*
X0029250Y0412500D03*
X0029250Y0402500D03*
X0029250Y0392500D03*
D396*
X0053750Y0426957D03*
X0053750Y0434043D03*
X0045750Y0432707D03*
X0045750Y0439793D03*
X0092000Y0434293D03*
X0092000Y0427207D03*
X0101000Y0427207D03*
X0101000Y0434293D03*
D727*
X0141175Y0479957D03*
X0144325Y0479957D03*
X0144325Y0486846D03*
X0141175Y0486846D03*
X0141175Y0492957D03*
X0144325Y0492957D03*
X0144325Y0499846D03*
X0141175Y0499846D03*
X0062325Y0488543D03*
X0059175Y0488543D03*
X0059175Y0481654D03*
X0062325Y0481654D03*
D825*
X0065671Y0481654D03*
X0065671Y0488543D03*
X0055829Y0488543D03*
X0055829Y0481654D03*
X0137829Y0479957D03*
X0137829Y0486846D03*
X0137829Y0492957D03*
X0137829Y0499846D03*
X0147671Y0499846D03*
X0147671Y0492957D03*
X0147671Y0486846D03*
X0147671Y0479957D03*
D211*
X0115746Y0553500D03*
X0102754Y0553500D03*
X0066746Y0545000D03*
X0053754Y0545000D03*
X0041246Y0540500D03*
X0041246Y0530500D03*
X0028254Y0530500D03*
X0028254Y0540500D03*
D1010*
X0060957Y0554000D03*
X0068043Y0554000D03*
X0127307Y0454500D03*
X0134393Y0454500D03*
X0134793Y0432000D03*
X0127707Y0432000D03*
X0176957Y0422750D03*
X0184043Y0422750D03*
X0214957Y0353750D03*
X0222043Y0353750D03*
X0119543Y0345250D03*
X0112457Y0345250D03*
D880*
X0065250Y0421169D03*
X0068990Y0429437D03*
X0061510Y0429437D03*
D557*
X0250551Y0433366D03*
X0250551Y0423524D03*
X0260394Y0423524D03*
X0270236Y0423524D03*
X0270236Y0433366D03*
X0260394Y0433366D03*
X0260394Y0443209D03*
X0270236Y0443209D03*
X0270236Y0453051D03*
X0260394Y0453051D03*
X0250551Y0453051D03*
X0250551Y0443209D03*
X0250551Y0462894D03*
X0250551Y0472736D03*
X0260394Y0472736D03*
X0270236Y0472736D03*
X0270236Y0462894D03*
X0260394Y0462894D03*
X0280079Y0462894D03*
X0280079Y0472736D03*
X0280079Y0482579D03*
X0270236Y0482579D03*
X0260394Y0482579D03*
X0250551Y0482579D03*
X0250551Y0496358D03*
X0260394Y0496358D03*
X0270236Y0496358D03*
X0280079Y0496358D03*
X0280079Y0510925D03*
X0270236Y0510925D03*
X0260394Y0510925D03*
X0250551Y0510925D03*
X0280079Y0453051D03*
X0280079Y0443209D03*
X0280079Y0433366D03*
X0280079Y0423524D03*
X0280079Y0413681D03*
X0280079Y0403839D03*
X0270236Y0403839D03*
X0260394Y0403839D03*
X0260394Y0413681D03*
X0270236Y0413681D03*
X0250551Y0413681D03*
X0250551Y0403839D03*
X0250551Y0393996D03*
X0260394Y0393996D03*
X0270236Y0393996D03*
X0280079Y0393996D03*
D667*
X0246535Y0368720D03*
X0246614Y0536398D03*
D1082*
X0261929Y0352500D03*
X0261732Y0552618D03*
X0322500Y0374626D02*
G75*
%LPD*%
D796*
X0571500Y0384826D03*
X0333500Y0384826D03*
X0333500Y0737826D03*
D963*
X0413100Y0675973D03*
X0413100Y0669280D03*
X0417100Y0621773D03*
X0417100Y0615080D03*
G36*
X0482706Y0670163D02*
X0477577Y0670190D01*
X0477602Y0674925D01*
X0482731Y0674898D01*
X0482706Y0670163D01*
G37*
G36*
X0489398Y0670128D02*
X0484269Y0670155D01*
X0484294Y0674890D01*
X0489423Y0674863D01*
X0489398Y0670128D01*
G37*
X0521600Y0633473D03*
X0521600Y0626780D03*
X0535500Y0631980D03*
X0535500Y0638673D03*
X0491700Y0610973D03*
X0491700Y0604280D03*
X0545200Y0521773D03*
X0545200Y0515080D03*
X0560000Y0515480D03*
X0560000Y0522173D03*
X0415300Y0506773D03*
X0415300Y0500080D03*
X0415300Y0488773D03*
X0415300Y0482080D03*
X0415300Y0474773D03*
X0415300Y0468080D03*
X0415300Y0457773D03*
X0415300Y0451080D03*
X0415300Y0444773D03*
X0415300Y0438080D03*
X0415300Y0431773D03*
X0415300Y0425080D03*
X0415300Y0414773D03*
X0415300Y0408080D03*
X0415300Y0399773D03*
X0415300Y0393080D03*
D647*
X0407646Y0391426D03*
X0400954Y0391426D03*
X0400954Y0409426D03*
X0407646Y0409426D03*
X0407646Y0427426D03*
X0400954Y0427426D03*
X0400954Y0445426D03*
X0407646Y0445426D03*
X0407646Y0463426D03*
X0400954Y0463426D03*
X0400954Y0481426D03*
X0407646Y0481426D03*
X0407646Y0499426D03*
X0400954Y0499426D03*
X0400954Y0507426D03*
X0407646Y0507426D03*
X0463954Y0472626D03*
X0470646Y0472626D03*
X0542454Y0494426D03*
X0549146Y0494426D03*
X0472046Y0607876D03*
X0465354Y0607876D03*
X0419646Y0607226D03*
X0412954Y0607226D03*
X0407896Y0656576D03*
X0401204Y0656576D03*
X0480154Y0682026D03*
X0480154Y0691626D03*
X0486846Y0691626D03*
X0486846Y0682026D03*
D1010*
X0431143Y0661926D03*
X0424057Y0661926D03*
X0465157Y0597626D03*
X0472243Y0597626D03*
X0467243Y0567626D03*
X0460157Y0567626D03*
X0463757Y0479826D03*
X0470843Y0479826D03*
X0473243Y0459826D03*
X0473043Y0451826D03*
X0465957Y0451826D03*
X0466157Y0459826D03*
D862*
X0472200Y0579615D03*
X0472200Y0590638D03*
X0557900Y0494538D03*
X0557900Y0483515D03*
D225*
X0373850Y0690026D03*
X0337550Y0690026D03*
D159*
X0337550Y0650026D03*
X0373850Y0650026D03*
D467*
X0400100Y0648626D03*
X0468800Y0395926D03*
D769*
X0458800Y0395926D03*
X0448800Y0395926D03*
X0438800Y0395926D03*
X0428800Y0395926D03*
X0430100Y0648626D03*
X0440100Y0648626D03*
X0420100Y0648626D03*
X0410100Y0648626D03*
D414*
X0403500Y0557326D03*
X0403500Y0532326D03*
X0362000Y0532826D03*
X0361500Y0557326D03*
X0570100Y0518326D03*
D246*
X0570100Y0508326D03*
X0570100Y0498326D03*
X0393500Y0533326D03*
X0383500Y0532326D03*
X0373500Y0533326D03*
X0373500Y0558326D03*
X0383500Y0557326D03*
X0393500Y0558326D03*
X0351500Y0558326D03*
X0341500Y0557326D03*
X0331500Y0558326D03*
X0351000Y0532826D03*
X0338300Y0484426D03*
X0337300Y0474426D03*
X0338300Y0464426D03*
X0337300Y0454426D03*
X0338300Y0444426D03*
X0337300Y0434426D03*
X0338300Y0424426D03*
X0337300Y0414426D03*
D242*
X0535000Y0623826D03*
D913*
X0535000Y0646826D03*
X0535000Y0669826D03*
X0558000Y0669826D03*
X0558000Y0646826D03*
X0558000Y0623826D03*
D848*
X0546500Y0558326D03*
X0546500Y0735326D03*
D667*
X0496500Y0691026D03*
X0476500Y0731026D03*
X0456500Y0691026D03*
X0396500Y0691026D03*
X0396500Y0711026D03*
X0396500Y0731026D03*
X0355450Y0613026D03*
X0339150Y0613026D03*
D603*
X0377363Y0503167D03*
X0377363Y0495686D03*
X0385631Y0499426D03*
X0377363Y0485167D03*
X0377363Y0477686D03*
X0385631Y0481426D03*
X0377363Y0467167D03*
X0377363Y0459686D03*
X0385631Y0463426D03*
X0377363Y0449167D03*
X0377363Y0441686D03*
X0377363Y0431167D03*
X0377363Y0423686D03*
X0385631Y0427426D03*
X0377363Y0413167D03*
X0377363Y0405686D03*
X0385631Y0409426D03*
X0377363Y0395167D03*
X0377363Y0387686D03*
X0385631Y0391426D03*
X0385631Y0445426D03*
D396*
X0393300Y0441883D03*
X0393300Y0448970D03*
X0393300Y0459883D03*
X0393300Y0466970D03*
X0393300Y0477883D03*
X0393300Y0484970D03*
X0393300Y0495883D03*
X0393300Y0502970D03*
X0393300Y0430970D03*
X0393300Y0423883D03*
X0393300Y0412970D03*
X0393300Y0405883D03*
X0393300Y0394970D03*
X0393300Y0387883D03*
D140*
X0410757Y0565852D03*
X0410757Y0569001D03*
X0417646Y0569001D03*
X0417646Y0565852D03*
D620*
X0417646Y0562505D03*
X0410757Y0562505D03*
X0410757Y0572348D03*
X0417646Y0572348D03*
G36*
X0419730Y0549722D02*
X0419725Y0546955D01*
X0415974Y0546962D01*
X0415979Y0549729D01*
X0419730Y0549722D01*
G37*
D727*
G36*
X0415973Y0546185D02*
X0419724Y0546178D01*
X0419719Y0543805D01*
X0415968Y0543812D01*
X0415973Y0546185D01*
G37*
G36*
X0415968Y0543035D02*
X0419719Y0543028D01*
X0419714Y0540655D01*
X0415963Y0540662D01*
X0415968Y0543035D01*
G37*
G36*
X0409078Y0543047D02*
X0412829Y0543040D01*
X0412824Y0540667D01*
X0409073Y0540674D01*
X0409078Y0543047D01*
G37*
G36*
X0409083Y0546197D02*
X0412834Y0546190D01*
X0412829Y0543817D01*
X0409078Y0543824D01*
X0409083Y0546197D01*
G37*
D825*
G36*
X0409089Y0549741D02*
X0412840Y0549734D01*
X0412835Y0546967D01*
X0409084Y0546974D01*
X0409089Y0549741D01*
G37*
G36*
X0409072Y0539898D02*
X0412823Y0539891D01*
X0412818Y0537124D01*
X0409067Y0537131D01*
X0409072Y0539898D01*
G37*
G36*
X0415962Y0539886D02*
X0419713Y0539879D01*
X0419708Y0537112D01*
X0415957Y0537119D01*
X0415962Y0539886D01*
G37*
D558*
X0368300Y0508426D03*
X0368300Y0490426D03*
X0368300Y0472426D03*
X0368300Y0454426D03*
X0368300Y0436426D03*
X0368300Y0418426D03*
X0368300Y0400426D03*
X0353536Y0400426D03*
X0353536Y0418426D03*
X0353536Y0436426D03*
X0353536Y0454426D03*
X0353536Y0472426D03*
X0353536Y0490426D03*
X0353536Y0508426D03*
D951*
X0507500Y0585252D03*
X0507500Y0388401D03*
D330*
X0437600Y0670726D03*
X0432600Y0670726D03*
X0427600Y0670726D03*
X0422600Y0670726D03*
X0422600Y0691326D03*
X0427600Y0691326D03*
X0432600Y0691326D03*
X0437600Y0691326D03*
D337*
X0501200Y0654326D03*
X0501200Y0649326D03*
X0501200Y0644326D03*
X0501200Y0639326D03*
X0521800Y0639326D03*
X0521800Y0644326D03*
X0521800Y0649326D03*
X0521800Y0654326D03*
D1294*
X0414040Y0716102D03*
X0410300Y0716102D03*
X0406560Y0716102D03*
X0406560Y0725551D03*
X0410300Y0725551D03*
X0414040Y0725551D03*
D679*
X0547581Y0509567D03*
X0547581Y0502086D03*
X0557819Y0502086D03*
X0557819Y0505826D03*
X0557819Y0509567D03*
D777*
X0372969Y0613026D03*
X0020000Y0605000D02*
G75*
%LPD*%
D411*
X0100350Y0699300D02*
X0100350Y0705300D01*
X0090350Y0704300D02*
X0090350Y0698300D01*
X0080350Y0699300D02*
X0080350Y0705300D01*
X0070350Y0704300D02*
X0070350Y0698300D01*
X0060350Y0699300D02*
X0060350Y0705300D01*
X0037650Y0708450D02*
X0037650Y0714450D01*
X0027650Y0704450D02*
X0027650Y0698450D01*
X0037650Y0694450D02*
X0037650Y0688450D01*
D172*
X0041493Y0675030D03*
X0041493Y0647470D03*
D548*
X0031650Y0651407D03*
X0031650Y0671093D03*
D246*
X0158650Y0839850D03*
X0158650Y0851250D03*
D396*
X0115600Y0822843D03*
X0115600Y0815757D03*
X0113300Y0788643D03*
X0113300Y0781557D03*
X0124900Y0769043D03*
X0124900Y0761957D03*
X0119900Y0729743D03*
X0119900Y0722657D03*
X0131900Y0722657D03*
X0131900Y0729743D03*
X0105000Y0680843D03*
X0105000Y0673757D03*
X0075500Y0671557D03*
X0075500Y0678643D03*
X0065600Y0629943D03*
X0065600Y0622857D03*
X0075100Y0780657D03*
X0075100Y0787743D03*
X0081900Y0793257D03*
X0081900Y0800343D03*
X0092000Y0799843D03*
X0092000Y0792757D03*
X0068400Y0801757D03*
X0068400Y0808843D03*
X0039500Y0789243D03*
X0039500Y0782157D03*
D1010*
X0040357Y0796000D03*
X0043444Y0802500D03*
X0047444Y0796000D03*
X0054557Y0796000D03*
X0061644Y0796000D03*
X0080657Y0774300D03*
X0087744Y0774300D03*
X0098057Y0780300D03*
X0105144Y0780300D03*
X0117757Y0774400D03*
X0124844Y0774400D03*
X0129257Y0774500D03*
X0136344Y0774500D03*
X0137044Y0761900D03*
X0129957Y0761900D03*
X0128957Y0748600D03*
X0123344Y0749100D03*
X0116257Y0749100D03*
X0097244Y0750400D03*
X0090157Y0750400D03*
X0085844Y0728400D03*
X0085744Y0720500D03*
X0078657Y0720500D03*
X0078757Y0728400D03*
X0069144Y0712400D03*
X0062057Y0712400D03*
X0061244Y0756800D03*
X0054157Y0756800D03*
X0040944Y0766100D03*
X0033857Y0766100D03*
X0036357Y0802500D03*
X0108457Y0828600D03*
X0115544Y0828600D03*
X0114657Y0809200D03*
X0121744Y0809200D03*
X0126057Y0796500D03*
X0133144Y0796500D03*
X0136044Y0748600D03*
X0133457Y0700500D03*
X0140544Y0700500D03*
X0130244Y0629900D03*
X0123157Y0629900D03*
X0078544Y0617500D03*
X0071457Y0617500D03*
D330*
X0060800Y0765800D03*
X0055800Y0765800D03*
X0050800Y0765800D03*
X0045800Y0765800D03*
X0045800Y0786400D03*
X0050800Y0786400D03*
X0055800Y0786400D03*
X0060800Y0786400D03*
D337*
X0109300Y0651400D03*
X0109300Y0646400D03*
X0109300Y0641400D03*
X0109300Y0636400D03*
X0129900Y0636400D03*
X0129900Y0641400D03*
X0129900Y0646400D03*
X0129900Y0651400D03*
D679*
X0097418Y0736260D03*
X0097418Y0740000D03*
X0097418Y0743740D03*
X0087182Y0743740D03*
X0087182Y0740000D03*
X0087182Y0736260D03*
X0092119Y0780260D03*
X0092119Y0787740D03*
X0081882Y0787740D03*
X0081882Y0784000D03*
X0081882Y0780260D03*
D211*
X0102304Y0800000D03*
X0115296Y0800000D03*
X0115796Y0838200D03*
X0102804Y0838200D03*
X0078596Y0744900D03*
X0065604Y0744900D03*
D349*
X0071800Y0757804D03*
X0071800Y0770796D03*
D1818*
X0028500Y0823000D03*
X0028500Y0843000D03*
D1202*
X0126123Y0789939D03*
X0126123Y0787380D03*
X0126123Y0784820D03*
X0126123Y0782261D03*
X0141379Y0782261D03*
X0141379Y0784820D03*
X0141379Y0787380D03*
X0141379Y0789939D03*
D969*
X0124000Y0701065D03*
X0124000Y0684135D03*
D880*
X0119800Y0734269D03*
X0116060Y0742537D03*
X0123540Y0742537D03*
X0128560Y0742537D03*
X0132300Y0734269D03*
X0136040Y0742537D03*
D393*
X0035000Y0735000D03*
D738*
X0159252Y0675866D03*
D1021*
X0159252Y0683740D03*
X0159252Y0691614D03*
X0159252Y0699488D03*
X0159252Y0707362D03*
X0159252Y0715236D03*
X0159252Y0723110D03*
X0159252Y0730984D03*
X0159252Y0738858D03*
X0159252Y0746732D03*
X0159252Y0754606D03*
X0159252Y0762480D03*
X0159252Y0770354D03*
X0159252Y0778228D03*
X0159252Y0786102D03*
X0159252Y0793976D03*
X0167126Y0793976D03*
X0167126Y0786102D03*
X0167126Y0778228D03*
X0167126Y0770354D03*
X0167126Y0762480D03*
X0167126Y0754606D03*
X0167126Y0746732D03*
X0167126Y0738858D03*
X0167126Y0730984D03*
X0167126Y0723110D03*
X0167126Y0715236D03*
X0167126Y0707362D03*
X0167126Y0699488D03*
X0167126Y0691614D03*
X0167126Y0683740D03*
X0167126Y0675866D03*
D460*
X0130400Y0706500D03*
X0117100Y0706600D03*
X0126100Y0838600D03*
X0027100Y0812200D03*
X0026000Y0750200D03*
D663*
X0158900Y0626800D03*
X0140700Y0630400D03*
X0120500Y0638600D03*
X0105600Y0655600D03*
X0101000Y0651500D03*
X0105000Y0669000D03*
X0112600Y0687200D03*
X0119100Y0672600D03*
X0127600Y0668100D03*
X0132700Y0679000D03*
X0136700Y0684100D03*
X0139900Y0676500D03*
X0139700Y0713400D03*
X0126600Y0713000D03*
X0120000Y0717000D03*
X0126400Y0733300D03*
X0113600Y0734100D03*
X0106700Y0721700D03*
X0097400Y0731000D03*
X0110200Y0755000D03*
X0112200Y0759800D03*
X0110200Y0764800D03*
X0097400Y0764100D03*
X0087600Y0780900D03*
X0069600Y0794900D03*
X0081900Y0807300D03*
X0090900Y0813900D03*
X0104300Y0815800D03*
X0113200Y0792800D03*
X0125900Y0809000D03*
X0134400Y0789100D03*
X0143100Y0746500D03*
X0074900Y0728000D03*
X0056300Y0714500D03*
X0075000Y0666000D03*
X0063600Y0634900D03*
X0063800Y0617200D03*
X0050000Y0620000D03*
X0050000Y0625000D03*
X0050000Y0630000D03*
X0050000Y0635000D03*
X0045000Y0635000D03*
X0045000Y0630000D03*
X0045000Y0625000D03*
X0045000Y0620000D03*
X0040000Y0620000D03*
X0035000Y0620000D03*
X0035000Y0625000D03*
X0035000Y0630000D03*
X0035000Y0635000D03*
X0040000Y0635000D03*
X0040000Y0630000D03*
X0040000Y0625000D03*
X0030000Y0625000D03*
X0030000Y0630000D03*
X0030000Y0635000D03*
X0030000Y0620000D03*
X0046500Y0773400D03*
D277*
X0136300Y0754600D03*
X0594000Y0374626D02*
G75*
%LPD*%
D71*
X0747122Y0463126D02*
X0747122Y0515626D01*
X0742122Y0520626D01*
X0713122Y0520626D01*
X0696122Y0537626D01*
X0670122Y0537626D01*
X0670122Y0517126D02*
X0695122Y0517126D01*
X0703622Y0508626D01*
X0730622Y0508626D01*
X0729622Y0532626D02*
X0730122Y0533126D01*
X0729622Y0532626D02*
X0717122Y0532626D01*
X0687622Y0562126D01*
X0669622Y0562126D01*
X0670622Y0584626D02*
X0683122Y0584626D01*
X0722622Y0545126D01*
X0740622Y0545126D01*
X0747622Y0538126D01*
X0747622Y0535126D01*
X0729122Y0484126D02*
X0731622Y0481626D01*
X0731622Y0462626D01*
X0729122Y0484126D02*
X0700622Y0484126D01*
X0691622Y0493126D01*
X0671622Y0493126D01*
D823*
X0783331Y0609248D03*
X0792386Y0609248D03*
X0792386Y0623815D03*
X0783331Y0623815D03*
D35*
X0847622Y0474626D03*
X0847622Y0644626D03*
D349*
X0742822Y0630922D03*
X0742822Y0617930D03*
X0724172Y0686837D03*
X0724172Y0699829D03*
D1010*
X0731861Y0699908D03*
X0738948Y0699908D03*
X0785079Y0632226D03*
X0792165Y0632226D03*
X0770065Y0622226D03*
X0762979Y0622226D03*
X0784279Y0601126D03*
X0791365Y0601126D03*
X0818641Y0593528D03*
X0825727Y0593528D03*
X0757465Y0584026D03*
X0750379Y0584026D03*
X0749279Y0592926D03*
X0756365Y0592926D03*
X0737565Y0579926D03*
X0730479Y0579926D03*
X0745479Y0555426D03*
X0752565Y0555426D03*
X0649265Y0380826D03*
X0642179Y0380826D03*
X0635486Y0381083D03*
X0628399Y0381083D03*
D414*
X0785322Y0471226D03*
X0754099Y0711628D03*
D246*
X0744099Y0712628D03*
X0734099Y0711628D03*
X0724099Y0712628D03*
X0766622Y0712826D03*
X0776622Y0711826D03*
X0786622Y0712826D03*
X0796622Y0711826D03*
X0806622Y0712826D03*
X0816622Y0711826D03*
X0826622Y0712826D03*
X0836622Y0711826D03*
X0826122Y0497226D03*
X0808322Y0497226D03*
X0786322Y0481226D03*
X0785322Y0491226D03*
X0808322Y0471626D03*
X0826122Y0471626D03*
D396*
X0813022Y0511383D03*
X0813022Y0518469D03*
X0776422Y0596083D03*
X0776422Y0603169D03*
X0757200Y0606069D03*
X0757200Y0598983D03*
D667*
X0747772Y0532626D03*
X0731472Y0532626D03*
X0731472Y0508626D03*
X0747772Y0508626D03*
X0747772Y0484626D03*
X0731472Y0484626D03*
X0731472Y0460626D03*
X0747772Y0460626D03*
X0728500Y0437626D03*
X0768500Y0437626D03*
X0748500Y0397626D03*
X0828500Y0397626D03*
X0828500Y0417626D03*
X0828500Y0437626D03*
D14*
X0667700Y0469526D03*
X0667800Y0492626D03*
X0667800Y0515626D03*
X0667800Y0538626D03*
X0667800Y0561626D03*
X0667800Y0584626D03*
X0667800Y0607626D03*
X0667800Y0630626D03*
X0644200Y0630626D03*
X0644200Y0607626D03*
X0644200Y0584626D03*
X0644200Y0561626D03*
X0644200Y0538626D03*
X0644200Y0515626D03*
X0644200Y0492626D03*
X0644200Y0469626D03*
D1019*
X0644200Y0653626D03*
D212*
X0656000Y0695126D03*
X0656000Y0405126D03*
D777*
X0765291Y0460626D03*
X0765291Y0484626D03*
X0765291Y0508626D03*
X0765291Y0532626D03*
D347*
X0894883Y0494917D03*
X0899804Y0494917D03*
X0899610Y0623747D03*
X0894689Y0623747D03*
D769*
X0767622Y0571026D02*
X0767622Y0564626D01*
X0757622Y0565626D02*
X0757622Y0572026D01*
X0747622Y0571026D02*
X0747622Y0564626D01*
X0737622Y0565626D02*
X0737622Y0572026D01*
X0727622Y0571026D02*
X0727622Y0564626D01*
X0020000Y0877500D02*
G75*
%LPD*%
D769*
X0152600Y0912400D02*
X0152600Y0918800D01*
X0142600Y0917800D02*
X0142600Y0911400D01*
X0132600Y0912400D02*
X0132600Y0918800D01*
X0122600Y0917800D02*
X0122600Y0911400D01*
X0112600Y0912400D02*
X0112600Y0918800D01*
D729*
X0112500Y0903246D03*
X0112500Y0896554D03*
D414*
X0034900Y1117200D03*
D246*
X0033900Y1107200D03*
X0034900Y1097200D03*
X0033900Y1087200D03*
D1008*
X0028961Y0967739D03*
X0028961Y0947661D03*
X0049040Y0947661D03*
X0049040Y0967739D03*
D667*
X0039000Y0957700D03*
D422*
X0164400Y0903572D03*
X0164400Y0912628D03*
D515*
X0036200Y0906472D03*
X0036200Y0902928D03*
D1820*
X0144339Y0892900D03*
X0161662Y0892900D03*
D534*
X0167126Y0948366D03*
X0167126Y0956240D03*
X0167126Y0964114D03*
X0167126Y0971988D03*
X0167126Y0979862D03*
X0167126Y0987736D03*
X0167126Y0995610D03*
X0167126Y1003484D03*
X0167126Y1011358D03*
X0167126Y1019232D03*
X0167126Y1027106D03*
X0167126Y1034980D03*
X0167126Y1042854D03*
X0167126Y1050728D03*
X0167126Y1058602D03*
X0167126Y1066476D03*
X0159252Y1066476D03*
X0159252Y1058602D03*
X0159252Y1050728D03*
X0159252Y1042854D03*
X0159252Y1034980D03*
X0159252Y1027106D03*
X0159252Y1019232D03*
X0159252Y1011358D03*
X0159252Y1003484D03*
X0159252Y0995610D03*
X0159252Y0987736D03*
X0159252Y0979862D03*
X0159252Y0971988D03*
X0159252Y0964114D03*
X0159252Y0956240D03*
X0130733Y1040293D03*
X0122859Y1040293D03*
X0114985Y1040293D03*
X0107111Y1040293D03*
X0099237Y1040293D03*
X0091363Y1040293D03*
X0083489Y1040293D03*
X0075615Y1040293D03*
X0067741Y1040293D03*
X0059867Y1040293D03*
X0059867Y1126907D03*
X0067741Y1126907D03*
X0075615Y1126907D03*
X0083489Y1126907D03*
X0091363Y1126907D03*
X0099237Y1126907D03*
X0107111Y1126907D03*
X0114985Y1126907D03*
X0122859Y1126907D03*
X0130733Y1126907D03*
D1050*
X0068906Y1017900D03*
X0057095Y1017900D03*
D393*
X0035000Y1007500D03*
D210*
X0159252Y0948366D03*
D349*
X0087000Y0957304D03*
X0087000Y0970296D03*
X0030200Y1061204D03*
X0030200Y1074196D03*
D396*
X0038500Y1073743D03*
X0038500Y1066657D03*
X0120600Y0964743D03*
X0120600Y0957657D03*
X0151700Y0943143D03*
X0151700Y0936057D03*
X0104600Y0911043D03*
X0104600Y0903957D03*
X0087900Y0932357D03*
X0087900Y0939443D03*
D858*
X0142362Y0956829D03*
X0144921Y0956829D03*
X0147480Y0956829D03*
X0150039Y0956829D03*
X0150039Y0972971D03*
X0147480Y0972971D03*
X0144921Y0972971D03*
X0142362Y0972971D03*
D180*
X0135170Y0903643D02*
X0129030Y0903643D01*
X0129030Y0883957D02*
X0135170Y0883957D01*
D1010*
X0134544Y0893000D03*
X0127457Y0893000D03*
X0123144Y0927500D03*
X0126557Y0935400D03*
X0133644Y0935400D03*
X0114544Y0936500D03*
X0107457Y0936500D03*
X0116057Y0927500D03*
X0104744Y0963900D03*
X0097657Y0963900D03*
X0053144Y0900600D03*
X0052344Y0893100D03*
X0045257Y0893100D03*
X0046057Y0900600D03*
X0061157Y1061500D03*
X0068244Y1061500D03*
D211*
X0074396Y1051400D03*
X0061404Y1051400D03*
D679*
X0108982Y0980140D03*
X0108982Y0972660D03*
X0119219Y0972660D03*
X0119219Y0976400D03*
X0119219Y0980140D03*
D140*
X0062047Y0987225D03*
X0062047Y0990375D03*
X0055157Y0990375D03*
X0055157Y0987225D03*
D620*
X0055157Y0983879D03*
X0062047Y0983879D03*
X0062047Y0993721D03*
X0055157Y0993721D03*
X0601929Y0020000D02*
G75*
%LPD*%
D411*
X0768829Y0160600D02*
X0768829Y0166600D01*
X0778829Y0167600D02*
X0778829Y0161600D01*
X0788829Y0160600D02*
X0788829Y0166600D01*
X0798829Y0167600D02*
X0798829Y0161600D01*
X0808829Y0160600D02*
X0808829Y0166600D01*
D393*
X0731929Y0160000D03*
D738*
X0672795Y0035748D03*
D1021*
X0680669Y0035748D03*
X0688543Y0035748D03*
X0696417Y0035748D03*
X0704291Y0035748D03*
X0712165Y0035748D03*
X0720039Y0035748D03*
X0727913Y0035748D03*
X0735787Y0035748D03*
X0743661Y0035748D03*
X0751535Y0035748D03*
X0759409Y0035748D03*
X0767283Y0035748D03*
X0775157Y0035748D03*
X0783031Y0035748D03*
X0790905Y0035748D03*
X0790905Y0027874D03*
X0783031Y0027874D03*
X0775157Y0027874D03*
X0767283Y0027874D03*
X0759409Y0027874D03*
X0751535Y0027874D03*
X0743661Y0027874D03*
X0735787Y0027874D03*
X0727913Y0027874D03*
X0720039Y0027874D03*
X0712165Y0027874D03*
X0704291Y0027874D03*
X0696417Y0027874D03*
X0688543Y0027874D03*
X0680669Y0027874D03*
X0672795Y0027874D03*
D396*
X0705529Y0055157D03*
X0705529Y0062243D03*
X0726629Y0087357D03*
X0726629Y0094443D03*
X0764429Y0096057D03*
X0764429Y0103143D03*
X0769129Y0076643D03*
X0769129Y0069557D03*
X0825229Y0070243D03*
X0825229Y0063157D03*
X0704329Y0151757D03*
X0704329Y0158843D03*
X0681429Y0159143D03*
X0681429Y0152057D03*
X0659629Y0152157D03*
X0659629Y0159243D03*
X0636429Y0160143D03*
X0636429Y0153057D03*
X0666529Y0119543D03*
X0666529Y0112457D03*
X0674829Y0111143D03*
X0674829Y0104057D03*
D1010*
X0649372Y0110700D03*
X0642286Y0110700D03*
X0636272Y0122100D03*
X0629186Y0122100D03*
X0671986Y0125000D03*
X0679072Y0125000D03*
X0695086Y0126800D03*
X0702172Y0126800D03*
X0737586Y0116000D03*
X0744672Y0116000D03*
X0749586Y0115900D03*
X0756672Y0115900D03*
X0795386Y0093000D03*
X0802472Y0093000D03*
X0782072Y0069900D03*
X0774986Y0069900D03*
X0844186Y0069200D03*
X0851272Y0069200D03*
X0854272Y0125400D03*
X0847186Y0125400D03*
X0847286Y0138600D03*
X0854372Y0138600D03*
X0813772Y0124600D03*
X0806686Y0124600D03*
X0807172Y0151400D03*
X0800086Y0151400D03*
X0700872Y0078700D03*
X0693786Y0078700D03*
X0694672Y0071500D03*
X0687586Y0071500D03*
X0635072Y0079400D03*
X0627986Y0079400D03*
X0622272Y0162800D03*
X0615186Y0162800D03*
D900*
X0774790Y0092177D03*
X0777349Y0092177D03*
X0779909Y0092177D03*
X0782468Y0092177D03*
X0782468Y0076921D03*
X0779909Y0076921D03*
X0777349Y0076921D03*
X0774790Y0076921D03*
D862*
X0736229Y0083488D03*
X0736229Y0094512D03*
D414*
X0740929Y0134100D03*
X0762529Y0133900D03*
D246*
X0751529Y0133900D03*
X0729929Y0134100D03*
D758*
X0708853Y0116300D03*
X0708853Y0111300D03*
X0708853Y0106300D03*
X0708853Y0101300D03*
X0708853Y0096300D03*
X0708853Y0091300D03*
X0708853Y0086300D03*
X0686805Y0086300D03*
X0686805Y0091300D03*
X0686805Y0096300D03*
X0686805Y0101300D03*
X0686805Y0106300D03*
X0686805Y0111300D03*
X0686805Y0116300D03*
D679*
X0734710Y0109940D03*
X0744948Y0109940D03*
X0744948Y0106200D03*
X0744948Y0102460D03*
X0734710Y0102460D03*
D669*
X0750889Y0105119D03*
X0754629Y0105119D03*
X0758369Y0105119D03*
X0758369Y0094881D03*
X0750889Y0094881D03*
D963*
X0744729Y0097146D03*
X0744729Y0090454D03*
D647*
X0751483Y0088500D03*
X0758175Y0088500D03*
X0729075Y0102300D03*
X0722383Y0102300D03*
D495*
X0609129Y0029700D03*
X0651829Y0051700D03*
X0661829Y0057500D03*
X0686829Y0043500D03*
X0705429Y0067600D03*
X0688070Y0080600D03*
X0694629Y0086500D03*
X0700329Y0090700D03*
X0717229Y0082100D03*
X0720929Y0087500D03*
X0751029Y0099700D03*
X0726929Y0110200D03*
X0696729Y0112400D03*
X0682429Y0120100D03*
X0672029Y0115600D03*
X0666429Y0130000D03*
X0656329Y0132900D03*
X0646129Y0127700D03*
X0641329Y0118800D03*
X0624929Y0121600D03*
X0609729Y0133700D03*
X0607429Y0106500D03*
X0623929Y0101200D03*
X0610629Y0090000D03*
X0638229Y0074200D03*
X0616329Y0069400D03*
X0650829Y0090100D03*
X0642429Y0103300D03*
X0690429Y0132800D03*
X0709029Y0133500D03*
X0712329Y0130000D03*
X0726229Y0140200D03*
X0716429Y0147800D03*
X0692329Y0149600D03*
X0687729Y0157600D03*
X0697029Y0166500D03*
X0665229Y0157800D03*
X0647429Y0167700D03*
X0636529Y0168200D03*
X0630029Y0166000D03*
X0615229Y0167700D03*
X0659129Y0141100D03*
X0762929Y0143400D03*
X0770929Y0144400D03*
X0772429Y0149400D03*
X0792329Y0147300D03*
X0791629Y0142600D03*
X0824429Y0155100D03*
X0830729Y0140900D03*
X0795629Y0113600D03*
X0791829Y0109900D03*
X0796029Y0108300D03*
X0783429Y0087700D03*
X0786629Y0076300D03*
X0806429Y0067000D03*
X0831229Y0074200D03*
X0856029Y0069600D03*
X0766029Y0063000D03*
X0751429Y0064800D03*
X0764229Y0080200D03*
D663*
X0760429Y0083700D03*
X0741929Y0072600D03*
X0722229Y0080900D03*
X0706729Y0073700D03*
X0692429Y0059600D03*
X0672729Y0073400D03*
X0641929Y0095400D03*
X0632329Y0074000D03*
X0611029Y0037700D03*
X0699929Y0040800D03*
X0730029Y0047300D03*
X0749329Y0048600D03*
X0766129Y0055100D03*
X0789829Y0066200D03*
X0818929Y0066200D03*
X0831629Y0058200D03*
X0814929Y0091700D03*
X0818829Y0100800D03*
X0798129Y0101900D03*
X0795429Y0121500D03*
X0803829Y0138700D03*
X0768129Y0126000D03*
X0747129Y0128200D03*
X0718629Y0141900D03*
X0690429Y0139500D03*
X0666529Y0125000D03*
X0649629Y0145400D03*
X0625129Y0150500D03*
X0699629Y0102300D03*
X0702429Y0096700D03*
X0701829Y0116300D03*
X0848229Y0153500D03*
X0851029Y0113400D03*
D460*
X0854829Y0119500D03*
X0855929Y0132300D03*
X0801329Y0124500D03*
X0807529Y0092800D03*
X0704329Y0164600D03*
X0681429Y0165200D03*
X0659629Y0165400D03*
X0601929Y0187500D02*
G75*
%LPD*%
D246*
X0702629Y0297300D02*
X0702629Y0304700D01*
X0722629Y0304700D02*
X0722629Y0297300D01*
X0742629Y0297300D02*
X0742629Y0304700D01*
X0762629Y0304700D02*
X0762629Y0297300D01*
X0782629Y0297300D02*
X0782629Y0304700D01*
X0802629Y0304700D02*
X0802629Y0297300D01*
X0822629Y0297300D02*
X0822629Y0304700D01*
X0842629Y0304700D02*
X0842629Y0297300D01*
X0862629Y0297300D02*
X0862629Y0304700D01*
X0882629Y0304700D02*
X0882629Y0297300D01*
D349*
X0928629Y0276496D03*
X0928629Y0263504D03*
X0628929Y0250996D03*
X0628929Y0238004D03*
D396*
X0625529Y0271957D03*
X0625529Y0279043D03*
X0805529Y0214443D03*
X0812729Y0214543D03*
X0812729Y0207457D03*
X0805529Y0207357D03*
X0919629Y0266457D03*
X0919629Y0273543D03*
D1010*
X0927886Y0236000D03*
X0934972Y0236000D03*
X0758972Y0203000D03*
X0751886Y0203000D03*
D211*
X0927733Y0244700D03*
X0940725Y0244700D03*
D246*
X0987629Y0246500D03*
X0987629Y0236500D03*
X0615929Y0246000D03*
X0614929Y0236000D03*
X0615929Y0226000D03*
X0614929Y0216000D03*
X0614929Y0256000D03*
X0615929Y0266000D03*
X0614929Y0276000D03*
X0615929Y0286000D03*
D35*
X0613929Y0199400D03*
X0624929Y0304000D03*
X1039429Y0229500D03*
D340*
X0943429Y0279500D03*
X0943429Y0299500D03*
D963*
X0673179Y0253347D03*
X0673179Y0246654D03*
D459*
X0766429Y0215524D03*
X0771429Y0215524D03*
X0776429Y0215524D03*
X0781429Y0215524D03*
X0786429Y0215524D03*
X0791429Y0215524D03*
X0796429Y0215524D03*
X0796429Y0193476D03*
X0791429Y0193476D03*
X0786429Y0193476D03*
X0781429Y0193476D03*
X0776429Y0193476D03*
X0771429Y0193476D03*
X0766429Y0193476D03*
D422*
X0882629Y0239173D03*
X0882629Y0248228D03*
X0020000Y1150000D02*
G75*
%LPD*%
D246*
X0178700Y1342600D03*
X0178700Y1360400D03*
X0159600Y1356300D03*
X0149600Y1356300D03*
X0139600Y1356300D03*
X0129600Y1356300D03*
X0119600Y1356300D03*
X0204300Y1360400D03*
X0204300Y1342600D03*
D392*
X0206443Y1268600D03*
X0199357Y1268600D03*
D354*
X0220300Y1284657D03*
X0220300Y1291743D03*
D1010*
X0229057Y1264200D03*
X0236143Y1264200D03*
X0178843Y1217700D03*
X0171757Y1217700D03*
X0157743Y1246900D03*
X0157743Y1252800D03*
X0150657Y1252800D03*
X0150657Y1246900D03*
X0139643Y1275600D03*
X0132557Y1275600D03*
X0152357Y1286200D03*
X0159443Y1286200D03*
X0135243Y1308400D03*
X0128157Y1308400D03*
X0187457Y1357200D03*
X0194543Y1357200D03*
D396*
X0141800Y1301643D03*
X0141800Y1294557D03*
X0120600Y1289543D03*
X0120600Y1282457D03*
X0093300Y1281457D03*
X0093300Y1288543D03*
X0085800Y1288543D03*
X0085800Y1281457D03*
X0059700Y1292857D03*
X0059700Y1299943D03*
X0062300Y1314557D03*
X0062300Y1321643D03*
X0035000Y1300843D03*
X0035000Y1293757D03*
X0052000Y1268343D03*
X0052000Y1261257D03*
X0179000Y1243943D03*
X0179000Y1236857D03*
X0198900Y1275157D03*
X0198900Y1282243D03*
X0232300Y1284557D03*
X0232300Y1291643D03*
X0253100Y1232543D03*
X0253100Y1225457D03*
D603*
X0213737Y1284460D03*
X0213737Y1291940D03*
X0205469Y1288200D03*
X0077137Y1282740D03*
X0077137Y1275260D03*
X0068869Y1279000D03*
D414*
X0109600Y1356300D03*
D557*
X0108400Y1392000D03*
X0118400Y1392000D03*
X0128400Y1392000D03*
X0138400Y1392000D03*
X0148400Y1392000D03*
X0148400Y1422000D03*
X0138400Y1422000D03*
X0128400Y1422000D03*
X0118400Y1422000D03*
X0108400Y1422000D03*
X0061000Y1278500D03*
X0061000Y1268500D03*
X0061000Y1258500D03*
X0061000Y1248500D03*
X0061000Y1238500D03*
X0031000Y1238500D03*
X0031000Y1248500D03*
X0031000Y1258500D03*
X0031000Y1268500D03*
X0031000Y1278500D03*
X0101496Y1209449D03*
X0101496Y1199606D03*
X0101496Y1189764D03*
X0101496Y1179921D03*
X0111339Y1179921D03*
X0121181Y1179921D03*
X0131024Y1179921D03*
X0131024Y1189764D03*
X0121181Y1189764D03*
X0111339Y1189764D03*
X0111339Y1199606D03*
X0121181Y1199606D03*
X0131024Y1199606D03*
X0131024Y1209449D03*
X0121181Y1209449D03*
X0111339Y1209449D03*
X0140866Y1209449D03*
X0150709Y1209449D03*
X0150709Y1199606D03*
X0140866Y1199606D03*
X0140866Y1189764D03*
X0150709Y1189764D03*
X0150709Y1179921D03*
X0140866Y1179921D03*
X0160551Y1179921D03*
X0170394Y1179921D03*
X0180236Y1179921D03*
X0180236Y1189764D03*
X0170394Y1189764D03*
X0160551Y1189764D03*
X0160551Y1199606D03*
X0170394Y1199606D03*
X0180236Y1199606D03*
X0180236Y1209449D03*
X0170394Y1209449D03*
X0160551Y1209449D03*
X0190079Y1209449D03*
X0190079Y1199606D03*
X0190079Y1189764D03*
X0190079Y1179921D03*
X0203858Y1179921D03*
X0203858Y1189764D03*
X0203858Y1199606D03*
X0203858Y1209449D03*
X0218425Y1209449D03*
X0218425Y1199606D03*
X0218425Y1189764D03*
X0218425Y1179921D03*
D667*
X0243898Y1213386D03*
X0240000Y1232300D03*
X0190000Y1232300D03*
X0190000Y1257300D03*
X0190000Y1269800D03*
X0190000Y1282300D03*
X0190000Y1319800D03*
X0240000Y1319800D03*
X0076220Y1213465D03*
D1082*
X0060000Y1198071D03*
X0260118Y1198268D03*
D769*
X0225000Y1374200D02*
X0225000Y1380600D01*
X0215000Y1381600D02*
X0215000Y1375200D01*
X0205000Y1374200D02*
X0205000Y1380600D01*
X0195000Y1381600D02*
X0195000Y1375200D01*
X0185000Y1374200D02*
X0185000Y1380600D01*
D349*
X0051600Y1321896D03*
X0051600Y1308904D03*
D211*
X0176104Y1295200D03*
X0189096Y1295200D03*
D880*
X0228760Y1271063D03*
X0232500Y1279331D03*
X0236240Y1271063D03*
D525*
X0227480Y1245300D03*
X0202520Y1245300D03*
X0201820Y1308000D03*
X0226780Y1308000D03*
X0187500Y0605000D02*
G75*
%LPD*%
D342*
X0229823Y0615295D03*
X0229488Y0750531D03*
D1841*
X0266240Y0614842D03*
X0266240Y0634527D03*
X0266240Y0654212D03*
X0266240Y0673897D03*
X0266161Y0694055D03*
X0266240Y0713267D03*
X0266240Y0732952D03*
X0266240Y0752637D03*
X0195374Y0752637D03*
X0195374Y0732952D03*
X0195374Y0713267D03*
X0195374Y0693582D03*
X0195374Y0673897D03*
X0195374Y0654212D03*
X0195374Y0634527D03*
X0195374Y0614842D03*
D170*
X0243405Y0616023D03*
X0256397Y0616811D03*
X0920122Y0329500D02*
G75*
%LPD*%
D35*
X1120122Y0349500D03*
X1120122Y0619500D03*
X1120122Y0889500D03*
X0940122Y0889500D03*
X0940122Y0619500D03*
X0940122Y0349500D03*
D897*
X1121422Y0638300D03*
X1121422Y0648300D03*
X1121422Y0658300D03*
X1121422Y0668300D03*
X1121422Y0678300D03*
X1121422Y0688300D03*
X1131422Y0688300D03*
X1131422Y0678300D03*
X1131422Y0668300D03*
X1131422Y0658300D03*
X1131422Y0648300D03*
X1131422Y0638300D03*
D393*
X0940122Y0756900D03*
X0940122Y0485100D03*
D410*
X1064374Y0425966D03*
X1064374Y0697766D03*
D180*
X1064374Y0705640D03*
X1064374Y0713514D03*
X1064374Y0721388D03*
X1064374Y0729262D03*
X1064374Y0737136D03*
X1064374Y0745010D03*
X1064374Y0752884D03*
X1064374Y0760758D03*
X1064374Y0768632D03*
X1064374Y0776506D03*
X1064374Y0784380D03*
X1064374Y0792254D03*
X1064374Y0800128D03*
X1064374Y0808002D03*
X1064374Y0815876D03*
X1072248Y0815876D03*
X1072248Y0808002D03*
X1072248Y0800128D03*
X1072248Y0792254D03*
X1072248Y0784380D03*
X1072248Y0776506D03*
X1072248Y0768632D03*
X1072248Y0760758D03*
X1072248Y0752884D03*
X1072248Y0745010D03*
X1072248Y0737136D03*
X1072248Y0729262D03*
X1072248Y0721388D03*
X1072248Y0713514D03*
X1072248Y0705640D03*
X1072248Y0697766D03*
X1072248Y0544076D03*
X1072248Y0536202D03*
X1072248Y0528328D03*
X1072248Y0520454D03*
X1072248Y0512580D03*
X1072248Y0504706D03*
X1072248Y0496832D03*
X1072248Y0488958D03*
X1072248Y0481084D03*
X1072248Y0473210D03*
X1072248Y0465336D03*
X1072248Y0457462D03*
X1072248Y0449588D03*
X1072248Y0441714D03*
X1072248Y0433840D03*
X1072248Y0425966D03*
X1064374Y0433840D03*
X1064374Y0441714D03*
X1064374Y0449588D03*
X1064374Y0457462D03*
X1064374Y0465336D03*
X1064374Y0473210D03*
X1064374Y0481084D03*
X1064374Y0488958D03*
X1064374Y0496832D03*
X1064374Y0504706D03*
X1064374Y0512580D03*
X1064374Y0520454D03*
X1064374Y0528328D03*
X1064374Y0536202D03*
X1064374Y0544076D03*
D414*
X1119622Y0829500D03*
D246*
X1120622Y0839500D03*
X1119622Y0849500D03*
X1120622Y0859500D03*
X0187500Y0773011D02*
G75*
%LPD*%
D1010*
X0565943Y0816411D03*
X0558857Y0816411D03*
X0591657Y1048011D03*
X0598743Y1048011D03*
X0598743Y1054511D03*
X0591657Y1054511D03*
X0591657Y1061011D03*
X0598743Y1061011D03*
D356*
X0565912Y0828611D03*
X0554888Y0828611D03*
D963*
X0565900Y0839964D03*
X0565900Y0846657D03*
D1008*
X0627539Y0822971D03*
X0607461Y0822971D03*
X0607461Y0843050D03*
X0627539Y0843050D03*
D667*
X0617500Y0833011D03*
D396*
X0488900Y0897018D03*
X0488900Y0904104D03*
X0451200Y0900054D03*
X0451200Y0892968D03*
X0268700Y0922168D03*
X0262200Y0922168D03*
X0262200Y0929254D03*
X0268700Y0929254D03*
D354*
X0513619Y0810661D03*
X0522281Y0814401D03*
X0522281Y0806921D03*
D172*
X0619657Y1004231D03*
X0619657Y1031790D03*
D548*
X0629500Y1027853D03*
X0629500Y1008168D03*
D411*
X0448200Y0951911D02*
X0442200Y0951911D01*
X0443200Y0941911D02*
X0449200Y0941911D01*
X0448200Y0931911D02*
X0442200Y0931911D01*
X0443200Y0921911D02*
X0449200Y0921911D01*
X0448200Y0911911D02*
X0442200Y0911911D01*
D1034*
X0229937Y1017611D03*
X0206315Y1017611D03*
X0218126Y0999107D03*
D258*
X0613687Y1059511D03*
X0613687Y1071511D03*
X0621313Y1076511D03*
D1079*
X0621313Y1065511D03*
D856*
X0611100Y0977853D03*
X0611100Y0968011D03*
X0611100Y0958168D03*
X0586494Y0958168D03*
X0586494Y0977853D03*
D35*
X0587500Y1083011D03*
X0217500Y1083011D03*
X0217500Y0793011D03*
X0587500Y0793011D03*
D246*
X0503600Y0892311D03*
X0502600Y0902311D03*
X0503600Y0912311D03*
D31*
X0337500Y0916011D03*
X0337500Y0946011D03*
D254*
X0594010Y0914710D03*
X0606215Y0922584D03*
X0625900Y0926127D03*
X0594010Y0902112D03*
X0625900Y0889513D03*
D312*
X0625900Y0908411D03*
X0606215Y0908411D03*
D483*
X0405500Y0830611D03*
X0267500Y1048311D03*
D42*
X0336500Y1048361D03*
X0336500Y0830861D03*
D924*
X0374100Y0798511D03*
X0298900Y0798511D03*
X0298900Y1080711D03*
X0374100Y1080711D03*
D252*
X0405500Y1080811D03*
D663*
X0517500Y1033011D03*
X0522500Y1033011D03*
X0527500Y1033011D03*
X0532500Y1033011D03*
X0537500Y1033011D03*
X0537500Y1028011D03*
X0532500Y1028011D03*
X0527500Y1028011D03*
X0522500Y1028011D03*
X0517500Y1028011D03*
X0517500Y1023011D03*
X0522500Y1023011D03*
X0527500Y1023011D03*
X0532500Y1023011D03*
X0537500Y1023011D03*
X0553000Y0940211D03*
X0477450Y0922511D03*
X0472650Y0924461D03*
X0468450Y0928361D03*
X0462100Y0922311D03*
X0539500Y0874011D03*
X0539500Y0869011D03*
X0539500Y0864011D03*
X0543500Y0861011D03*
X0548500Y0861011D03*
X0553500Y0861011D03*
X0557500Y0864011D03*
X0559500Y0870011D03*
X0564500Y0870011D03*
X0569500Y0870011D03*
X0574500Y0870011D03*
X0578500Y0867011D03*
X0577500Y0863011D03*
X0588500Y0871011D03*
X0593500Y0871011D03*
X0598500Y0871011D03*
X0603500Y0871011D03*
X0608500Y0869011D03*
X0613500Y0869011D03*
X0617500Y0866011D03*
X0621500Y0862011D03*
X0621500Y0857011D03*
X0621500Y0852011D03*
X0611500Y0852011D03*
X0601500Y0857011D03*
X0596500Y0857011D03*
X0590500Y0857011D03*
X0586500Y0876011D03*
X0583500Y0879011D03*
X0578500Y0879011D03*
X0573500Y0879011D03*
X0568500Y0879011D03*
X0563500Y0879011D03*
X0558500Y0879011D03*
X0553500Y0879011D03*
X0548500Y0878011D03*
X0543500Y0878011D03*
X0231000Y0906211D03*
X0226800Y0906211D03*
X0222300Y0906311D03*
X0224100Y0912011D03*
X0229100Y0911911D03*
X0229100Y0916711D03*
X0229100Y0921411D03*
X0224100Y0921411D03*
X0224000Y0916711D03*
X0209300Y0913311D03*
X0206200Y0917111D03*
X0226600Y0928211D03*
X0231000Y0928211D03*
D460*
X0207600Y0926511D03*
X0223300Y0898711D03*
X0261500Y0916311D03*
X0268700Y0916411D03*
X0278600Y0942911D03*
X0405200Y0929211D03*
X0411200Y0925911D03*
X0422500Y0928011D03*
X0457400Y0933511D03*
X0481500Y0934361D03*
X0481950Y0957161D03*
X0464850Y0955661D03*
X0432500Y0983011D03*
X0417900Y0967811D03*
X0406100Y0966011D03*
X0427500Y1008011D03*
X0427500Y1013011D03*
X0432500Y1013011D03*
X0437500Y1013011D03*
X0442500Y1013011D03*
X0447500Y1013011D03*
X0452500Y1013011D03*
X0457500Y1013011D03*
X0457500Y1008011D03*
X0452500Y1008011D03*
X0447500Y1008011D03*
X0442500Y1008011D03*
X0437500Y1008011D03*
X0432500Y1008011D03*
X0432500Y1018011D03*
X0432500Y1023011D03*
X0432500Y1028011D03*
X0437500Y1028011D03*
X0437500Y1023011D03*
X0437500Y1018011D03*
X0427500Y1018011D03*
X0427500Y1023011D03*
X0427500Y1028011D03*
X0427500Y1033011D03*
X0427500Y1038011D03*
X0427500Y1043011D03*
X0427500Y1048011D03*
X0432500Y1048011D03*
X0437500Y1048011D03*
X0442500Y1048011D03*
X0447500Y1048011D03*
X0452500Y1048011D03*
X0457500Y1048011D03*
X0457500Y1043011D03*
X0452500Y1043011D03*
X0447500Y1043011D03*
X0442500Y1043011D03*
X0437500Y1043011D03*
X0432500Y1043011D03*
X0432500Y1038011D03*
X0437500Y1038011D03*
X0437500Y1033011D03*
X0432500Y1033011D03*
X0497700Y1025261D03*
X0578250Y1062061D03*
X0599325Y1038236D03*
X0519750Y0964811D03*
X0519600Y0959711D03*
X0514200Y0959861D03*
X0542850Y0933461D03*
X0557700Y0946661D03*
X0584650Y0925861D03*
X0575800Y0898211D03*
X0581100Y0891911D03*
X0542800Y0893811D03*
X0488750Y0911711D03*
X0476100Y0886361D03*
X0454200Y0906161D03*
X0432500Y0882611D03*
X0447000Y0841661D03*
X0457050Y0832661D03*
X0471250Y0825511D03*
X0498800Y0832661D03*
X0520550Y0841661D03*
X0503550Y0810461D03*
X0577000Y0816911D03*
X0287100Y0864011D03*
X0263900Y0846611D03*
X0312500Y1115511D02*
G75*
%LPD*%
D769*
X0336600Y1254511D02*
X0330200Y1254511D01*
X0329200Y1264511D02*
X0335600Y1264511D01*
X0336600Y1274511D02*
X0330200Y1274511D01*
X0329200Y1284511D02*
X0335600Y1284511D01*
X0336600Y1294511D02*
X0330200Y1294511D01*
D246*
X0336900Y1317311D03*
X0336900Y1327311D03*
X0336900Y1337311D03*
X0336900Y1347311D03*
X0336900Y1357311D03*
X0336900Y1367311D03*
X0328400Y1158411D03*
X0346200Y1158411D03*
X0346200Y1132811D03*
X0328400Y1132811D03*
D557*
X0543051Y1197007D03*
X0543051Y1206850D03*
X0543051Y1216692D03*
X0543051Y1226535D03*
X0543051Y1236377D03*
X0543051Y1246220D03*
X0543051Y1256062D03*
X0552894Y1256062D03*
X0552894Y1246220D03*
X0552894Y1236377D03*
X0552894Y1226535D03*
X0552894Y1216692D03*
X0552894Y1206850D03*
X0552894Y1197007D03*
X0562736Y1197007D03*
X0562736Y1206850D03*
X0562736Y1216692D03*
X0562736Y1226535D03*
X0562736Y1236377D03*
X0562736Y1246220D03*
X0562736Y1256062D03*
X0562736Y1265905D03*
X0562736Y1275747D03*
X0572579Y1275747D03*
X0572579Y1265905D03*
X0572579Y1256062D03*
X0572579Y1246220D03*
X0572579Y1236377D03*
X0572579Y1226535D03*
X0572579Y1216692D03*
X0572579Y1206850D03*
X0572579Y1197007D03*
X0552894Y1265905D03*
X0552894Y1275747D03*
X0552894Y1285590D03*
X0543051Y1285590D03*
X0543051Y1275747D03*
X0543051Y1265905D03*
X0562736Y1285590D03*
X0572579Y1285590D03*
X0572579Y1299369D03*
X0562736Y1299369D03*
X0552894Y1299369D03*
X0543051Y1299369D03*
X0543051Y1313936D03*
X0552894Y1313936D03*
X0562736Y1313936D03*
X0572579Y1313936D03*
D667*
X0539114Y1339409D03*
X0539035Y1171731D03*
D1082*
X0554429Y1155511D03*
X0554232Y1355629D03*
D963*
X0553800Y1138257D03*
X0553800Y1131565D03*
X0543400Y1131365D03*
X0543400Y1138057D03*
D647*
X0468846Y1122911D03*
X0462154Y1122911D03*
D337*
X0588000Y1131711D03*
X0588000Y1136711D03*
X0588000Y1141711D03*
X0588000Y1146711D03*
X0567400Y1146711D03*
X0567400Y1141711D03*
X0567400Y1136711D03*
X0567400Y1131711D03*
X0650000Y0737126D02*
G75*
%LPD*%
D264*
X0800200Y0836176D03*
X0721200Y0836176D03*
D396*
X0773200Y0861633D03*
X0773200Y0868719D03*
X0824200Y0810719D03*
X0824200Y0803633D03*
X0838800Y0801119D03*
X0838800Y0794033D03*
X0752800Y0787319D03*
X0745700Y0787219D03*
X0745700Y0780133D03*
X0752800Y0780233D03*
D1010*
X0829743Y0768176D03*
X0822657Y0768176D03*
X0812743Y0798176D03*
X0805657Y0798176D03*
X0754343Y0766276D03*
X0747257Y0766276D03*
X0700743Y0787176D03*
X0693657Y0787176D03*
X0693657Y0801176D03*
X0700743Y0801176D03*
X0740157Y0818976D03*
X0747243Y0818976D03*
X0747443Y0855576D03*
X0740357Y0855576D03*
X0793057Y0866176D03*
X0800143Y0866176D03*
X0800143Y0873976D03*
X0793057Y0873976D03*
D246*
X0728100Y0925276D03*
X0716700Y0925276D03*
X0668201Y0894850D03*
X0668201Y0884850D03*
X0668201Y0874850D03*
X0668201Y0864850D03*
X0668201Y0854850D03*
X0668201Y0844850D03*
X0667700Y0804176D03*
X0668700Y0794176D03*
X0667700Y0784176D03*
X0787200Y0754676D03*
X0797200Y0755676D03*
X0807200Y0754676D03*
X0817200Y0755676D03*
X0827200Y0754676D03*
X0862800Y0780776D03*
X0862800Y0790776D03*
X0862800Y0800776D03*
X0862800Y0810776D03*
X0862800Y0820776D03*
X0862800Y0830776D03*
X0862800Y0841176D03*
X0862800Y0851176D03*
X0862800Y0861176D03*
X0862800Y0871176D03*
X0862800Y0881176D03*
X0862800Y0891176D03*
D414*
X0668700Y0814176D03*
D380*
X0779641Y0861918D03*
X0784759Y0861918D03*
X0782200Y0854634D03*
D1830*
X0753635Y0830548D03*
X0753635Y0827004D03*
D1831*
X0775485Y0828776D03*
D663*
X0775400Y0835876D03*
X0762600Y0835776D03*
X0747700Y0834176D03*
X0750500Y0849276D03*
X0755200Y0854976D03*
X0759100Y0850176D03*
X0776200Y0881176D03*
X0797200Y0881176D03*
X0805600Y0872976D03*
X0805400Y0865976D03*
X0822400Y0860576D03*
X0829000Y0869176D03*
X0822400Y0876376D03*
X0844600Y0877976D03*
X0844000Y0861576D03*
X0843800Y0835776D03*
X0846000Y0800976D03*
X0830800Y0795176D03*
X0795600Y0799076D03*
X0760700Y0788176D03*
X0743300Y0800876D03*
X0738900Y0812476D03*
X0715200Y0800676D03*
X0715200Y0787176D03*
X0679200Y0787176D03*
X0679200Y0800676D03*
X0750200Y0751176D03*
X0757700Y0750676D03*
X0766200Y0751176D03*
X0773700Y0750676D03*
D460*
X0740800Y0765176D03*
X0736000Y0772376D03*
X0739200Y0787176D03*
X0778400Y0783976D03*
X0777600Y0797576D03*
X0817200Y0806176D03*
X0838400Y0807176D03*
X0842600Y0818976D03*
X0821800Y0839776D03*
X0824900Y0844376D03*
X0773700Y0856176D03*
X0766000Y0880176D03*
X0749200Y0839676D03*
X0694800Y0878976D03*
X0883800Y0922300D02*
G75*
%LPD*%
D375*
X0937450Y0930800D03*
X0947450Y0930800D03*
X0957450Y0930800D03*
X0967450Y0930800D03*
X0977450Y0930800D03*
X0997850Y0930800D03*
X1007850Y0930800D03*
X1017850Y0930800D03*
X1027850Y0930800D03*
X1037850Y0930800D03*
X0994150Y1002000D03*
X0994150Y1014400D03*
X0987900Y1025150D03*
X0981650Y1014400D03*
X0981650Y1002000D03*
X0969150Y1002000D03*
X0969150Y1014400D03*
X0962900Y1025150D03*
X0956650Y1014400D03*
X0950400Y1025150D03*
X0950400Y1037650D03*
X0956650Y1048400D03*
X0962900Y1037650D03*
X0969150Y1048400D03*
X0969150Y1060800D03*
X0981650Y1060800D03*
X0981650Y1048400D03*
X0975400Y1037650D03*
X0975400Y1025150D03*
X0987900Y1037650D03*
X0994150Y1048400D03*
X0994150Y1060800D03*
X1006650Y1048400D03*
X1000400Y1037650D03*
X1000400Y1025150D03*
X1006650Y1014400D03*
X1012900Y1025150D03*
X1012900Y1037650D03*
X1011524Y1125399D03*
X1001524Y1125399D03*
X1021524Y1125399D03*
X1031524Y1125399D03*
X1041524Y1125399D03*
X0980724Y1125411D03*
X0970724Y1125411D03*
X0960724Y1125411D03*
X0950724Y1125411D03*
X0940724Y1125411D03*
D246*
X1050124Y1052052D03*
X1060124Y1052052D03*
X1070124Y1052052D03*
D865*
X0927450Y0930800D03*
X0987850Y0930800D03*
X0991524Y1125399D03*
X0930724Y1125411D03*
D963*
X0928823Y0971841D03*
X0928823Y0965148D03*
X0937346Y0965148D03*
X0937346Y0971841D03*
X0945535Y0971841D03*
X0945535Y0965148D03*
X0953724Y0965348D03*
X0953724Y0972041D03*
D647*
X1002904Y0987800D03*
X1009596Y0987800D03*
D460*
X1016650Y0985000D03*
X1025050Y0964000D03*
X0987850Y0969000D03*
X0953850Y0978000D03*
X0945050Y0979200D03*
X0937450Y0979200D03*
X0929050Y0977600D03*
X1034850Y1047400D03*
X1042450Y1032400D03*
X0650000Y0947276D02*
G75*
%LPD*%
D375*
X0862800Y1000926D03*
X0862800Y1010926D03*
X0862800Y1020926D03*
X0862800Y1030926D03*
X0862800Y1040926D03*
X0862800Y1061326D03*
X0862800Y1071326D03*
X0862800Y1081326D03*
X0862800Y1091326D03*
X0862800Y1101326D03*
X0791600Y1057626D03*
X0779200Y1057626D03*
X0768450Y1051376D03*
X0779200Y1045126D03*
X0791600Y1045126D03*
X0791600Y1032626D03*
X0779200Y1032626D03*
X0768450Y1026376D03*
X0779200Y1020126D03*
X0768450Y1013876D03*
X0755950Y1013876D03*
X0745200Y1020126D03*
X0755950Y1026376D03*
X0745200Y1032626D03*
X0732800Y1032626D03*
X0732800Y1045126D03*
X0745200Y1045126D03*
X0755950Y1038876D03*
X0768450Y1038876D03*
X0755950Y1051376D03*
X0745200Y1057626D03*
X0732800Y1057626D03*
X0745200Y1070126D03*
X0755950Y1063876D03*
X0768450Y1063876D03*
X0779200Y1070126D03*
X0768450Y1076376D03*
X0755950Y1076376D03*
X0668201Y1075000D03*
X0668201Y1065000D03*
X0668201Y1085000D03*
X0668201Y1095000D03*
X0668201Y1105000D03*
X0668189Y1044200D03*
X0668189Y1034200D03*
X0668189Y1024200D03*
X0668189Y1014200D03*
X0668189Y1004200D03*
D246*
X0741548Y1113600D03*
X0741548Y1123600D03*
X0741548Y1133600D03*
D865*
X0862800Y0990926D03*
X0862800Y1051326D03*
X0668201Y1055000D03*
X0668189Y0994200D03*
D647*
X0821759Y0992299D03*
X0828452Y0992299D03*
X0828452Y1000822D03*
X0821759Y1000822D03*
X0821759Y1009011D03*
X0828452Y1009011D03*
X0828252Y1017200D03*
X0821559Y1017200D03*
D963*
X0805800Y1066380D03*
X0805800Y1073072D03*
D460*
X0808600Y1080126D03*
X0829600Y1088526D03*
X0824600Y1051326D03*
X0815600Y1017326D03*
X0814400Y1008526D03*
X0814400Y1000926D03*
X0816000Y0992526D03*
X0746200Y1098326D03*
X0761200Y1105926D03*
X0883800Y1156100D02*
G75*
%LPD*%
D769*
X0891600Y1271700D02*
X0891600Y1278100D01*
X0901600Y1279100D02*
X0901600Y1272700D01*
X0911600Y1271700D02*
X0911600Y1278100D01*
X0921600Y1279100D02*
X0921600Y1272700D01*
X0931600Y1271700D02*
X0931600Y1278100D01*
D963*
X0901000Y1194753D03*
X0901000Y1201446D03*
X0913900Y1226753D03*
X0913900Y1233446D03*
X0898700Y1232053D03*
X0898700Y1238746D03*
X1032100Y1206146D03*
X1032100Y1199453D03*
X1133600Y1282053D03*
X1133600Y1288746D03*
X1133600Y1299453D03*
X1133600Y1306146D03*
D534*
X1128607Y1271133D03*
X1128607Y1263259D03*
X1128607Y1255385D03*
X1128607Y1247511D03*
X1128607Y1239637D03*
X1128607Y1231763D03*
X1128607Y1223889D03*
X1128607Y1216015D03*
X1128607Y1208141D03*
X1128607Y1200267D03*
X1072777Y1171848D03*
X1064903Y1171848D03*
X1057029Y1171848D03*
X1049155Y1171848D03*
X1041281Y1171848D03*
X1033407Y1171848D03*
X1025533Y1171848D03*
X1017659Y1171848D03*
X1009785Y1171848D03*
X1001910Y1171848D03*
X0994036Y1171848D03*
X0986162Y1171848D03*
X0978288Y1171848D03*
X0970414Y1171848D03*
X0962540Y1171848D03*
X0962540Y1163974D03*
X0970414Y1163974D03*
X0978288Y1163974D03*
X0986162Y1163974D03*
X0994036Y1163974D03*
X1001910Y1163974D03*
X1009785Y1163974D03*
X1017659Y1163974D03*
X1025533Y1163974D03*
X1033407Y1163974D03*
X1041281Y1163974D03*
X1049155Y1163974D03*
X1057029Y1163974D03*
X1064903Y1163974D03*
X1072777Y1163974D03*
X1041993Y1200267D03*
X1041993Y1208141D03*
X1041993Y1216015D03*
X1041993Y1223889D03*
X1041993Y1231763D03*
X1041993Y1239637D03*
X1041993Y1247511D03*
X1041993Y1255385D03*
X1041993Y1263259D03*
X1041993Y1271133D03*
X0954666Y1163974D03*
D1050*
X1016800Y1263994D03*
X1016800Y1275805D03*
D647*
X0940947Y1227700D03*
X0934254Y1227700D03*
X0933047Y1198900D03*
X0926354Y1198900D03*
X0897447Y1261500D03*
X0890754Y1261500D03*
X0923254Y1264900D03*
X0929947Y1264900D03*
D211*
X0943404Y1251700D03*
X0956396Y1251700D03*
D414*
X1120100Y1301900D03*
D246*
X1110100Y1302900D03*
X1100100Y1301900D03*
X1090100Y1302900D03*
D393*
X1013800Y1296100D03*
D210*
X0954666Y1171848D03*
D727*
X0954225Y1271556D03*
X0957375Y1271556D03*
X0957375Y1278446D03*
X0954225Y1278446D03*
X0983925Y1278446D03*
X0987075Y1278446D03*
X0987075Y1271556D03*
X0983925Y1271556D03*
D825*
X0980579Y1271556D03*
X0980579Y1278446D03*
X0990422Y1278446D03*
X0990422Y1271556D03*
X0960722Y1271556D03*
X0960722Y1278446D03*
X0950879Y1278446D03*
X0950879Y1271556D03*
X0874429Y0020000D02*
G75*
%LPD*%
D411*
X0968729Y0094650D02*
X0974729Y0094650D01*
X0973729Y0104650D02*
X0967729Y0104650D01*
X0968729Y0114650D02*
X0974729Y0114650D01*
X0973729Y0124650D02*
X0967729Y0124650D01*
X0968729Y0134650D02*
X0974729Y0134650D01*
X0977879Y0157350D02*
X0983879Y0157350D01*
X0973879Y0167350D02*
X0967879Y0167350D01*
X0963879Y0157350D02*
X0957879Y0157350D01*
D172*
X0944459Y0153507D03*
X0916899Y0153507D03*
D548*
X0920836Y0163350D03*
X0940522Y0163350D03*
D246*
X1109279Y0036350D03*
X1120679Y0036350D03*
D1010*
X1092272Y0079400D03*
X1085186Y0079400D03*
X1058072Y0081700D03*
X1050986Y0081700D03*
X1038472Y0070100D03*
X1031386Y0070100D03*
X0999172Y0075100D03*
X0992086Y0075100D03*
X0992086Y0063100D03*
X0999172Y0063100D03*
X0950272Y0090000D03*
X0943186Y0090000D03*
X0940986Y0119500D03*
X0948072Y0119500D03*
X0899372Y0129400D03*
X0892286Y0129400D03*
X1050086Y0119900D03*
X1057172Y0119900D03*
X1062686Y0113100D03*
X1069772Y0113100D03*
X1069272Y0103000D03*
X1062186Y0103000D03*
X1071186Y0126600D03*
X1078272Y0126600D03*
X1058672Y0155500D03*
X1051586Y0155500D03*
D396*
X1065429Y0154643D03*
X1071929Y0151556D03*
X1065429Y0147556D03*
X1065429Y0140443D03*
X1065429Y0133356D03*
X1043729Y0114343D03*
X1043729Y0107256D03*
X1049729Y0096943D03*
X1049729Y0089856D03*
X1043829Y0077243D03*
X1043829Y0070156D03*
X1043929Y0065743D03*
X1043929Y0058656D03*
X1031329Y0057956D03*
X1031329Y0065043D03*
X1018029Y0066043D03*
X1018529Y0071656D03*
X1018529Y0078743D03*
X1019829Y0097756D03*
X1019829Y0104843D03*
X0997829Y0109156D03*
X0989929Y0109256D03*
X0989929Y0116343D03*
X0997829Y0116243D03*
X0981829Y0125856D03*
X0981829Y0132943D03*
X1026229Y0133756D03*
X1026229Y0140843D03*
X1035529Y0154056D03*
X1035529Y0161143D03*
X1071929Y0158643D03*
X1098029Y0086543D03*
X1098029Y0079456D03*
X1078629Y0080343D03*
X1078629Y0073256D03*
X1065929Y0068943D03*
X1065929Y0061856D03*
X1018029Y0058956D03*
X0969929Y0061543D03*
X0969929Y0054456D03*
X0899329Y0064756D03*
X0899329Y0071843D03*
X0886929Y0116456D03*
X0886929Y0123543D03*
D337*
X1035229Y0134200D03*
X1035229Y0139200D03*
X1035229Y0144200D03*
X1035229Y0149200D03*
X1055829Y0149200D03*
X1055829Y0144200D03*
X1055829Y0139200D03*
X1055829Y0134200D03*
D330*
X0920829Y0085700D03*
X0915829Y0085700D03*
X0910829Y0085700D03*
X0905829Y0085700D03*
X0905829Y0065100D03*
X0910829Y0065100D03*
X0915829Y0065100D03*
X0920829Y0065100D03*
D669*
X1005689Y0097582D03*
X1009429Y0097582D03*
X1013169Y0097582D03*
X1013169Y0107818D03*
X1009429Y0107818D03*
X1005689Y0107818D03*
X1049689Y0102881D03*
X1057169Y0102881D03*
X1057169Y0113118D03*
X1053429Y0113118D03*
X1049689Y0113118D03*
D349*
X1069429Y0092696D03*
X1069429Y0079704D03*
X1107629Y0079204D03*
X1107629Y0092196D03*
X1014329Y0116404D03*
X1014329Y0129396D03*
D211*
X1027233Y0123200D03*
X1040225Y0123200D03*
D401*
X1092429Y0166500D03*
X1112429Y0166500D03*
D900*
X1059368Y0068877D03*
X1056809Y0068877D03*
X1054249Y0068877D03*
X1051690Y0068877D03*
X1051690Y0053621D03*
X1054249Y0053621D03*
X1056809Y0053621D03*
X1059368Y0053621D03*
D462*
X0970494Y0071000D03*
X0953564Y0071000D03*
D603*
X1003698Y0075200D03*
X1011966Y0078940D03*
X1011966Y0071460D03*
X1011966Y0066440D03*
X1003698Y0062700D03*
X1011966Y0058960D03*
D393*
X1004429Y0160000D03*
D738*
X0945295Y0035748D03*
D1021*
X0953169Y0035748D03*
X0961043Y0035748D03*
X0968917Y0035748D03*
X0976791Y0035748D03*
X0984665Y0035748D03*
X0992539Y0035748D03*
X1000413Y0035748D03*
X1008287Y0035748D03*
X1016161Y0035748D03*
X1024035Y0035748D03*
X1031909Y0035748D03*
X1039783Y0035748D03*
X1047657Y0035748D03*
X1055531Y0035748D03*
X1063405Y0035748D03*
X1063405Y0027874D03*
X1055531Y0027874D03*
X1047657Y0027874D03*
X1039783Y0027874D03*
X1031909Y0027874D03*
X1024035Y0027874D03*
X1016161Y0027874D03*
X1008287Y0027874D03*
X1000413Y0027874D03*
X0992539Y0027874D03*
X0984665Y0027874D03*
X0976791Y0027874D03*
X0968917Y0027874D03*
X0961043Y0027874D03*
X0953169Y0027874D03*
X0945295Y0027874D03*
D460*
X0975929Y0064600D03*
X0976029Y0077900D03*
X1108029Y0068900D03*
X1081629Y0167900D03*
X1019629Y0169000D03*
D663*
X0896229Y0036100D03*
X0899829Y0054300D03*
X0908029Y0074500D03*
X0925029Y0089400D03*
X0920929Y0094000D03*
X0938429Y0090000D03*
X0956629Y0082400D03*
X0942029Y0075900D03*
X0937529Y0067400D03*
X0948429Y0062300D03*
X0953529Y0058300D03*
X0945929Y0055100D03*
X0982829Y0055300D03*
X0982429Y0068400D03*
X0986429Y0075000D03*
X1002729Y0068600D03*
X1003529Y0081400D03*
X0991129Y0088300D03*
X1000429Y0097600D03*
X1024429Y0084800D03*
X1029229Y0082800D03*
X1034229Y0084800D03*
X1033529Y0097600D03*
X1050329Y0107400D03*
X1064329Y0125400D03*
X1076729Y0113100D03*
X1083329Y0104100D03*
X1085229Y0090700D03*
X1062229Y0081800D03*
X1078429Y0069100D03*
X1058529Y0060600D03*
X1015929Y0051900D03*
X0997429Y0120100D03*
X0983929Y0138700D03*
X0935429Y0120000D03*
X0904329Y0131400D03*
X0886629Y0131200D03*
X0889429Y0145000D03*
X0894429Y0145000D03*
X0899429Y0145000D03*
X0904429Y0145000D03*
X0904429Y0150000D03*
X0899429Y0150000D03*
X0894429Y0150000D03*
X0889429Y0150000D03*
X0889429Y0155000D03*
X0889429Y0160000D03*
X0894429Y0160000D03*
X0899429Y0160000D03*
X0904429Y0160000D03*
X0904429Y0155000D03*
X0899429Y0155000D03*
X0894429Y0155000D03*
X0894429Y0165000D03*
X0899429Y0165000D03*
X0904429Y0165000D03*
X0889429Y0165000D03*
X1042829Y0148500D03*
D277*
X1024029Y0058700D03*
X0615000Y1157426D02*
G75*
%LPD*%
D146*
X0625000Y1187426D03*
X0815000Y1187426D03*
D392*
X0727043Y1175426D03*
X0719957Y1175426D03*
X0714043Y1175426D03*
X0706957Y1175426D03*
X0701043Y1175426D03*
X0693957Y1175426D03*
D354*
X0731075Y1189263D03*
X0749000Y1193883D03*
X0749000Y1200969D03*
X0731075Y1196350D03*
X0770583Y1187897D03*
X0770583Y1180810D03*
D901*
X0722032Y1185251D03*
X0722032Y1190251D03*
X0722032Y1195251D03*
X0722032Y1200251D03*
X0701559Y1200251D03*
X0701559Y1195251D03*
X0701559Y1190251D03*
X0701559Y1185251D03*
D561*
X0654784Y1182157D03*
X0654784Y1200110D03*
D800*
X0681942Y1191133D03*
D686*
X0651500Y1162426D03*
X0671500Y1162426D03*
X0691500Y1162426D03*
X0711500Y1162426D03*
X0731500Y1162426D03*
X0751500Y1162426D03*
X0771500Y1162426D03*
X0791500Y1162426D03*
X0791500Y1212426D03*
X0771500Y1212426D03*
X0751500Y1212426D03*
X0731500Y1212426D03*
X0711500Y1212426D03*
X0691500Y1212426D03*
X0671500Y1212426D03*
X0651500Y1212426D03*
D572*
X0753880Y1176407D03*
X0763280Y1176407D03*
D283*
X0758580Y1187807D03*
D667*
X0643100Y1177026D03*
X0615000Y1229926D02*
G75*
%LPD*%
D264*
X0765200Y1328976D03*
X0686200Y1328976D03*
D396*
X0738200Y1354433D03*
X0738200Y1361519D03*
X0789200Y1303519D03*
X0789200Y1296433D03*
X0803800Y1293919D03*
X0803800Y1286833D03*
X0717800Y1280119D03*
X0710700Y1280019D03*
X0710700Y1272933D03*
X0717800Y1273033D03*
D1010*
X0794743Y1260976D03*
X0787657Y1260976D03*
X0777743Y1290976D03*
X0770657Y1290976D03*
X0719343Y1259076D03*
X0712257Y1259076D03*
X0665743Y1279976D03*
X0658657Y1279976D03*
X0658657Y1293976D03*
X0665743Y1293976D03*
X0705157Y1311776D03*
X0712243Y1311776D03*
X0712443Y1348376D03*
X0705357Y1348376D03*
X0758057Y1358976D03*
X0765143Y1358976D03*
X0765143Y1366776D03*
X0758057Y1366776D03*
D246*
X0693100Y1418076D03*
X0681700Y1418076D03*
X0633201Y1387650D03*
X0633201Y1377650D03*
X0633201Y1367650D03*
X0633201Y1357650D03*
X0633201Y1347650D03*
X0633201Y1337650D03*
X0632700Y1296976D03*
X0633700Y1286976D03*
X0632700Y1276976D03*
X0752200Y1247476D03*
X0762200Y1248476D03*
X0772200Y1247476D03*
X0782200Y1248476D03*
X0792200Y1247476D03*
X0827800Y1273576D03*
X0827800Y1283576D03*
X0827800Y1293576D03*
X0827800Y1303576D03*
X0827800Y1313576D03*
X0827800Y1323576D03*
X0827800Y1333976D03*
X0827800Y1343976D03*
X0827800Y1353976D03*
X0827800Y1363976D03*
X0827800Y1373976D03*
X0827800Y1383976D03*
D414*
X0633700Y1306976D03*
D380*
X0744641Y1354718D03*
X0749759Y1354718D03*
X0747200Y1347434D03*
D1830*
X0718635Y1323348D03*
X0718635Y1319804D03*
D1831*
X0740485Y1321576D03*
D663*
X0740400Y1328676D03*
X0727600Y1328576D03*
X0712700Y1326976D03*
X0715500Y1342076D03*
X0720200Y1347776D03*
X0724100Y1342976D03*
X0741200Y1373976D03*
X0762200Y1373976D03*
X0770600Y1365776D03*
X0770400Y1358776D03*
X0787400Y1353376D03*
X0794000Y1361976D03*
X0787400Y1369176D03*
X0809600Y1370776D03*
X0809000Y1354376D03*
X0808800Y1328576D03*
X0811000Y1293776D03*
X0795800Y1287976D03*
X0760600Y1291876D03*
X0725700Y1280976D03*
X0708300Y1293676D03*
X0703900Y1305276D03*
X0680200Y1293476D03*
X0680200Y1279976D03*
X0644200Y1279976D03*
X0644200Y1293476D03*
X0715200Y1243976D03*
X0722700Y1243476D03*
X0731200Y1243976D03*
X0738700Y1243476D03*
D460*
X0705800Y1257976D03*
X0701000Y1265176D03*
X0704200Y1279976D03*
X0743400Y1276776D03*
X0742600Y1290376D03*
X0782200Y1298976D03*
X0803400Y1299976D03*
X0807600Y1311776D03*
X0786800Y1332576D03*
X0789900Y1337176D03*
X0738700Y1348976D03*
X0731000Y1372976D03*
X0714200Y1332476D03*
X0659800Y1371776D03*
M02*
