%
T01C0.013500
X23650Y36925
X41430Y57903
X41750Y58203
X41050Y59533
X42000Y59583
X42350Y60083
X43350Y59683
X42250Y61608
X42510Y62463
X42900Y61983
X41700Y62708
X42000Y63883
X41575Y64358
X41800Y66133
X43525Y65383
X44450Y66483
X45250Y66933
X45700Y66283
X46550Y66283
X47250Y66783
X48650Y65783
X49150Y65433
X49000Y63883
X47750Y61483
X46650Y60258
X46095Y60238
X45250Y61683
X44850Y60733
X46500Y62283
X45350Y64583
X49170Y59463
X47870Y58313
X47150Y56733
X45595Y56763
X43950Y57483
X43950Y54583
X42130Y55213
X41170Y55263
X41125Y55883
X40125Y57183
X38350Y54258
X39380Y50893
X40030Y48743
X40130Y46943
X40330Y45143
X40230Y43343
X40830Y41543
X42030Y42543
X42230Y40843
X42330Y40343
X40230Y39743
X42830Y44093
X43180Y45343
X42230Y46843
X42230Y47593
X42030Y48843
X43480Y48443
X44450Y49633
X44050Y50483
X43650Y51283
X47510Y47623
X47690Y46503
X47760Y45963
X47735Y45163
X46880Y43243
X46200Y44733
X53775Y49833
X55250Y50133
X55350Y51983
X49850Y55983
X40500Y60883
X40350Y60433
X40190Y66823
X40400Y72083
X40750Y57908
X46400Y57833
X80963Y53062
X81023Y53542
X81023Y54022
X79083Y61602
X77763Y61622
X80613Y62772
X81023Y62582
X81203Y62102
X76103Y65552
X73243Y65402
X15000Y96350
X14450Y96360
X13770Y98070
X12590Y99310
X12990Y100610
X13710Y101990
X14530Y101220
X14960Y101050
X15420Y100780
X13400Y103170
X15230Y104460
X14960Y106000
X13560Y105550
X9240Y102940
X7380Y102740
X6790Y102590
X7360Y101160
X6800Y100230
X4840Y99800
X4820Y99260
X4730Y98490
X4760Y97970
X4040Y98120
X7070Y94560
X6660Y93900
X7530Y94590
X8810Y94410
X8760Y94990
X11010Y95090
X11390Y95360
X11530Y96130
X12080Y95370
X12030Y93800
X10570Y91960
X9940Y92010
X11400Y88340
X6830Y88550
X5530Y91390
X4770Y90930
X4050Y89810
X3580Y89300
X3610Y91100
X8820Y98500
X12430Y97200
X5540Y103520
X4870Y104040
X4070Y102410
X6440Y107740
X4210Y110250
X4080Y109010
X11250Y112040
X60913Y2970
X65183Y5170
X66183Y5750
X68683Y4350
X70543Y6760
X68807Y8060
X69463Y8650
X70033Y9070
X71723Y8210
X72093Y8750
X75103Y9970
X72693Y11020
X69673Y11240
X68243Y12010
X67203Y11560
X66643Y13000
X65633Y13290
X64613Y12770
X64133Y11880
X62493Y12160
X60973Y13370
X60743Y10650
X62393Y10120
X61063Y9000
X63823Y7420
X61633Y6940
X65083Y9010
X64243Y10330
X69043Y13280
X70903Y13350
X71233Y13000
X72623Y14020
X71643Y14780
X69233Y14960
X68773Y15760
X69703Y16650
X66523Y15780
X64743Y16770
X63653Y16820
X63003Y16600
X61523Y16770
X65913Y14110
X76293Y14340
X77093Y14440
X77243Y14940
X79233Y14730
X79163Y14260
X82443Y15510
X83073Y14090
X79563Y11360
X79183Y10990
X79603Y10830
X78343Y8770
X78663Y7630
X80643Y6700
X83123Y7420
X85603Y6960
X76603Y6300
X75143Y6480
X76423Y8020
X76893Y19940
X77503Y19900
X78693Y19860
X77153Y20600
X76643Y21020
X77803Y21070
X78513Y20930
X67843Y23550
X62963Y25930
X90693Y26010
X91133Y25560
X15670Y127720
X16810Y125800
X17390Y125800
X16750Y132410
X27200Y136170
X5970Y130500
X3530Y130500
X3600Y133850
X5690Y134160
X96460Y123820
X90960Y121020
X92190Y121030
X92970Y121260
X92180Y125810
X94550Y126320
X95130Y126410
X108870Y127590
X110130Y127560
X110880Y128370
X112820Y127990
X113930Y127490
X112760Y130640
T02C0.021650
X22120Y25610
X23590Y26210
X19850Y24090
X18680Y22910
X18080Y21910
X17810Y20800
X18190Y19566
X16900Y19230
X16010Y19710
X15885Y20375
X14730Y22600
X14870Y24270
X16110Y26770
X13800Y27690
X12250Y28410
X12100Y23840
X11050Y20990
X15850Y15420
X17290Y13730
X14730Y13220
X12710Y14030
X12100Y14490
X11000Y15340
X10190Y14060
X9630Y13690
X9590Y15280
X12040Y12850
X11150Y12300
X10590Y9730
X9900Y8880
X10730Y8380
X10110Y7720
X10140Y6840
X8710Y10700
X17845Y16915
X18060Y18175
X19900Y22050
X18190Y24490
X27520Y22340
X28510Y20980
X29600Y19760
X28570Y18480
X22280Y14600
X22290Y11980
X24690Y8840
X22180Y8000
X21780Y4840
X28930Y27340
X29270Y28020
X22190Y2560
X20580Y4850
X19370Y6950
X19060Y10130
X16390Y11500
X20810Y13500
X10530Y14700
X10040Y14940
X20470Y24500
X20820Y25650
X20290Y26010
X55770Y11941
X53990Y14361
X55180Y14691
X52190Y15691
X51510Y16091
X52060Y16751
X50590Y14501
X49700Y15611
X49760Y17171
X48050Y17311
X46180Y18291
X46100Y19121
X45240Y18931
X44380Y16261
X43000Y16651
X40450Y14691
X40240Y16581
X37960Y12681
X40860Y9991
X44940Y8741
X45630Y13171
X49370Y13081
X51160Y11201
X52000Y8621
X57550Y18641
X54420Y22051
X52000Y24021
X52010Y25741
X49020Y26261
X48800Y22491
X44900Y22141
X42700Y21631
X40380Y26101
X39310Y28981
X55450Y25191
X55790Y25951
X37770Y7911
X40200Y9151
X40150Y10691
X40530Y12991
X39540Y12971
X43360Y17271
X43940Y18721
X42550Y19451
X42210Y18991
X41790Y18701
X44520Y20831
X45410Y20241
X45890Y19861
X46250Y20281
X46840Y20281
X47280Y17311
X47300Y15591
X48240Y15071
X50620Y13241
X51950Y14941
X52390Y13801
X55380Y13951
X54470Y18751
X48880Y8511
X45510Y14591
X45560Y15151
X40070Y22501
X39660Y25011
X39060Y27291
X38230Y27281
X37330Y28451
X38070Y28861
X38010Y31191
X39340Y31171
X36430Y26421
X35860Y26411
X35870Y25911
X36150Y25511
X36430Y25901
X37430Y19971
X34550Y18331
X34540Y17911
X34540Y17501
X34540Y17071
X34350Y16701
X34100Y17051
X34110Y17471
X34100Y17911
X34110Y18331
X33680Y18341
X33680Y17901
X33640Y17471
X33620Y17051
X33840Y16681
X33150Y13691
X34750Y10831
X43310Y22981
X43220Y28551
X55910Y8381
X12280Y55350
X11300Y39850
X20620Y34690
X24100Y37450
X24075Y38250
X24600Y36050
X22000Y34650
X21375Y34675
X20500Y35750
X20600Y36350
X19400Y34175
X19400Y33350
X15250Y34175
X15250Y35550
X11950Y33925
X8500Y34050
X10600Y39350
X13300Y40950
X13825Y41250
X14125Y42775
X14800Y43350
X15375Y43925
X14900Y44300
X15300Y44700
X13800Y44650
X14000Y43850
X13900Y45450
X12180Y45560
X11600Y46900
X10025Y46100
X10800Y48250
X12150Y48850
X13350Y49150
X12700Y50800
X13000Y51700
X14300Y51050
X14400Y51650
X15800Y51150
X16350Y51600
X16950Y49100
X15550Y49100
X18100Y45350
X19000Y43450
X18850Y42325
X18100Y41250
X18500Y40650
X18300Y38950
X20500Y43800
X20925Y44300
X22200Y48450
X21000Y56100
X28400Y56350
X12250Y42725
X10200Y42200
X7200Y41650
X4600Y42750
X4500Y45450
X5000Y47800
X5400Y49450
X6150Y51350
X6850Y51700
X4800Y52050
X4250Y51300
X7450Y49400
X9825Y52075
X9800Y52650
X11300Y53150
X11475Y52550
X11500Y51800
X11050Y51150
X8250Y54300
X4500Y56850
X4000Y56850
X3500Y56850
X3000Y56850
X2500Y56850
X2500Y57350
X3000Y57350
X3000Y57850
X2500Y57850
X2500Y58350
X3000Y58350
X3000Y58850
X2500Y58850
X3500Y58850
X4000Y58850
X4000Y58350
X3500Y58350
X3500Y57850
X4000Y57850
X4000Y57350
X3500Y57350
X4500Y57350
X4500Y57850
X4500Y58350
X4500Y58850
X46025Y59083
X46475Y59083
X2600Y75020
X2710Y81220
X11710Y70660
X13040Y70650
X12610Y83860
X15890Y62680
X14070Y63040
X12050Y63860
X10560Y65560
X10100Y65150
X10500Y66900
X11260Y68720
X11910Y67260
X12760Y66810
X13270Y67900
X13670Y68410
X13990Y67650
X13970Y71340
X12660Y71300
X12000Y71700
X12640Y73330
X11360Y73410
X10670Y72170
X9740Y73100
X11020Y75500
X11220Y75980
X11020Y76480
X9740Y76410
X8760Y78090
X6960Y79490
X8190Y80730
X9090Y81390
X10430Y81580
X11320Y79280
X12590Y80900
X13440Y78910
X14310Y74650
X7490Y72800
X5630Y71450
X7500Y66600
X6360Y63490
X6380Y61720
X5000Y62000
X5000Y62500
X5000Y63000
X5000Y63500
X4500Y63500
X4500Y63000
X4500Y62500
X4500Y62000
X4000Y62000
X4000Y62500
X4000Y63000
X4000Y63500
X3500Y63500
X3500Y63000
X3500Y62500
X3500Y62000
X3000Y62000
X3000Y62500
X3000Y63000
X3000Y63500
X4650Y77340
X60723Y43862
X60243Y43862
X60223Y44322
X60703Y44342
X60683Y44822
X60683Y45282
X60223Y45282
X60223Y44822
X61163Y44842
X61623Y44842
X61643Y44382
X61183Y44362
X61203Y43862
X61663Y43862
X61623Y45342
X61163Y45322
X60663Y47662
X60663Y48082
X60663Y48542
X63100Y50512
X63100Y51012
X63100Y51512
X61463Y53462
X61463Y53962
X61463Y54462
X61463Y54962
X61463Y55462
X61463Y55962
X60963Y55962
X60963Y55462
X60963Y54962
X60963Y54462
X60963Y53962
X60963Y53462
X60463Y53462
X60463Y53962
X60463Y54462
X60463Y54962
X60463Y55462
X60463Y55962
X60463Y56462
X60963Y56462
X60963Y56962
X60963Y57462
X60463Y57462
X60463Y56962
X59963Y56962
X59963Y57462
X59963Y57962
X60463Y57962
X60463Y58462
X60463Y58962
X60463Y59462
X60463Y59962
X60463Y60462
X59963Y60462
X59963Y59962
X59963Y59462
X59963Y58962
X59963Y58462
X59963Y56462
X59963Y55962
X59963Y55462
X59963Y54962
X59963Y54462
X59963Y53962
X59963Y53462
X63100Y58012
X63100Y58532
X63100Y59012
X60463Y60962
X60463Y61462
X60463Y61962
X60463Y62462
X60463Y62962
X59963Y62962
X59963Y62462
X59963Y61962
X59963Y61462
X59963Y60962
X67443Y59422
X70563Y61482
X70743Y62562
X72043Y63102
X72063Y64522
X72083Y65162
X72043Y66522
X70743Y67122
X71363Y70402
X78283Y66422
X79743Y66442
X81043Y66482
X82523Y66182
X80183Y68622
X78663Y68722
X79483Y64082
X76843Y61282
X77643Y60882
X76743Y60242
X76923Y59262
X76223Y59262
X74583Y59862
X74663Y61062
X75783Y62242
X72543Y60902
X72683Y59502
X72143Y56142
X74083Y55562
X77963Y57642
X81303Y52372
X82883Y45302
X81983Y42922
X80023Y42662
X81743Y40822
X68433Y38402
X84423Y44302
X83763Y40182
X89489Y49491
X89981Y49491
X83103Y52182
X81613Y57362
X83103Y59142
X81363Y59182
X81333Y63802
X81383Y64742
X81233Y65682
X80183Y65082
X80123Y64472
X78183Y65582
X77443Y63682
X75103Y61892
X74363Y68182
X73683Y68822
X81513Y68662
X89469Y62374
X89962Y62374
X65443Y64192
X64183Y64562
X63823Y64562
X63503Y64562
X62923Y66262
X62743Y69702
X63973Y39442
X64523Y39322
X61213Y39062
X61213Y38642
X61203Y38242
X60793Y38232
X60803Y38642
X60793Y39062
X9480Y94640
X9430Y95350
X7280Y90130
X7310Y89380
X16060Y91260
X15260Y90330
X15310Y88620
X12050Y90380
X10530Y89600
X9250Y91630
X7410Y92810
X10270Y95830
X10940Y96400
X10500Y94270
X13180Y97370
X13530Y99750
X8920Y101510
X8630Y102400
X4820Y107230
X4480Y107780
X5530Y107690
X5850Y109640
X6340Y110140
X7090Y110400
X7160Y111670
X3390Y98910
X14380Y92870
X15190Y92910
X85483Y11950
X85593Y13230
X80133Y12450
X80753Y9280
X70433Y16460
X68143Y16520
X65963Y16540
X76043Y8370
X74193Y7260
X72223Y8090
X70673Y7370
X69243Y5960
X67273Y7340
X64193Y9540
X63233Y7400
X61103Y3770
X69993Y4080
X73003Y4730
X74933Y4860
X76613Y5510
X78983Y6620
X81893Y6620
X83163Y5820
X81493Y9170
X81883Y10080
X79813Y10190
X79543Y12150
X80383Y13870
X76813Y12600
X74713Y12820
X71863Y14190
X69043Y13950
X66653Y12500
X64963Y14540
X62513Y15050
X69963Y10230
X70243Y9670
X70183Y11630
X84823Y15350
X85103Y11340
X76583Y23310
X78483Y23400
X73033Y23380
X82363Y27190
X79223Y27240
X78413Y27340
X74733Y27340
X72873Y27400
X69523Y27400
X68343Y29200
X67353Y30910
X85993Y25000
X90193Y26700
X92093Y25900
X92043Y23680
X91433Y23190
X96063Y22290
X97863Y21720
X98463Y21720
X99063Y21720
X99663Y21720
X100263Y21710
X100863Y21710
X101463Y21710
X102063Y21710
X102663Y21710
X103263Y21710
X103863Y21710
X104463Y21710
X104463Y21110
X103863Y21110
X103263Y21110
X102663Y21110
X102063Y21110
X101463Y21110
X100863Y21110
X100263Y21110
X99663Y21120
X99063Y21120
X98463Y21120
X97863Y21120
X97863Y20520
X98463Y20520
X99063Y20520
X99663Y20520
X100263Y20510
X100863Y20510
X101463Y20510
X102063Y20510
X102663Y20510
X103263Y20510
X103863Y20510
X104463Y20510
X104463Y19910
X103863Y19910
X103263Y19910
X102663Y19910
X102063Y19910
X101463Y19910
X100863Y19910
X100263Y19910
X99663Y19920
X99063Y19920
X98463Y19920
X97863Y19920
X97863Y19330
X98463Y19330
X99063Y19330
X99663Y19330
X100263Y19320
X100863Y19320
X101463Y19320
X102063Y19320
X102663Y19320
X103263Y19320
X103863Y19320
X104463Y19320
X102663Y22500
X102063Y22500
X101463Y22500
X100863Y22500
X100263Y22500
X100263Y23100
X100863Y23100
X101463Y23100
X102063Y23100
X102663Y23100
X102663Y23700
X102063Y23700
X101463Y23700
X100863Y23700
X100263Y23700
X100263Y24300
X100863Y24300
X101463Y24300
X102063Y24300
X102663Y24300
X103263Y24300
X103863Y24300
X104463Y24300
X104463Y24900
X103863Y24900
X103263Y24900
X102663Y24900
X102063Y24900
X101463Y24900
X100863Y24900
X100263Y24900
X100263Y25500
X100863Y25500
X101463Y25500
X102063Y25500
X102663Y25500
X103263Y25500
X103863Y25500
X104463Y25500
X104463Y26100
X103863Y26100
X103263Y26100
X102663Y26100
X102063Y26100
X101463Y26100
X100863Y26100
X100263Y26100
X100263Y26700
X100863Y26700
X101463Y26700
X102063Y26700
X102663Y26700
X103263Y26700
X103863Y26700
X104463Y26700
X104463Y27300
X103863Y27300
X103263Y27300
X102663Y27300
X102063Y27300
X101463Y27300
X100863Y27300
X100263Y27300
X99563Y27300
X98963Y27300
X98363Y27300
X98363Y27900
X98963Y27900
X99563Y27900
X100263Y27900
X100863Y27900
X101463Y27900
X102063Y27900
X102663Y27900
X103263Y27900
X103863Y27900
X104463Y27900
X104463Y28500
X103863Y28500
X103263Y28500
X102663Y28500
X102063Y28500
X101463Y28500
X100863Y28500
X100263Y28500
X99563Y28500
X98963Y28500
X98363Y28500
X97763Y28500
X97763Y29100
X98363Y29100
X98963Y29100
X99563Y29100
X100263Y29100
X100863Y29100
X101463Y29100
X102063Y29100
X102663Y29100
X103263Y29100
X103863Y29100
X104463Y29100
X104463Y29700
X103863Y29700
X103263Y29700
X102663Y29700
X102063Y29700
X101463Y29700
X100863Y29700
X100263Y29700
X99563Y29700
X98963Y29700
X98363Y29700
X97763Y29700
X100263Y30300
X100863Y30300
X101463Y30300
X102063Y30300
X102663Y30300
X103263Y30300
X103863Y30300
X104463Y30300
X104463Y30900
X103863Y30900
X103263Y30900
X102663Y30900
X102063Y30900
X101463Y30900
X100863Y30900
X100263Y30900
X99663Y30900
X99063Y30900
X98463Y30900
X97863Y30900
X90693Y29700
X62143Y19300
X62503Y19540
X62843Y19820
X63133Y20160
X63403Y20510
X63623Y20900
X63813Y21310
X63903Y21760
X63893Y22200
X62653Y22090
X63893Y22650
X62213Y23200
X67393Y24050
X69413Y23450
X69743Y23080
X71203Y23440
X72003Y23080
X70473Y21180
X71123Y21020
X68293Y20200
X67173Y20230
X67323Y20980
X71253Y25100
X67293Y25950
X66793Y25350
X63783Y25340
X67293Y26800
X67813Y27130
X66843Y28450
X66843Y28900
X67693Y29090
X66843Y29350
X66843Y29850
X66813Y30390
X63743Y30200
X63743Y30700
X63543Y31100
X63193Y31350
X63743Y29600
X63743Y29100
X63743Y28550
X63163Y26850
X76643Y25100
X80703Y25080
X80703Y23410
X86003Y23680
X88863Y23940
X91933Y24380
X93383Y22970
X80003Y21120
X79463Y19880
X14770Y126010
X14470Y127520
X16250Y126760
X12650Y128930
X13920Y132250
X17510Y132040
X17950Y131580
X21480Y127050
X21430Y126290
X24110Y125430
X26910Y127790
X26910Y128290
X26910Y128790
X26910Y129290
X27410Y129290
X27910Y129290
X27910Y128790
X27910Y128290
X27410Y128290
X27410Y128790
X27410Y127790
X27910Y127790
X27910Y127290
X27410Y127290
X28410Y127290
X28410Y127790
X28410Y128290
X28410Y128790
X28410Y129290
X28410Y129790
X28910Y129790
X28910Y129290
X28910Y128790
X28910Y128290
X28910Y127790
X28910Y127290
X29410Y127290
X29410Y127790
X29410Y128290
X29410Y128790
X29410Y129290
X29410Y129790
X29410Y130290
X22820Y132200
X11650Y137890
X10480Y137400
X8770Y137570
X8000Y138390
X7350Y138460
X5960Y138110
X5370Y138160
X5280Y137000
X3440Y137310
X5190Y141180
X7040Y133880
X4570Y130290
X6990Y130070
X2410Y127370
X6240Y122630
X7760Y123700
X8360Y123720
X5080Y134640
X5030Y133400
X4510Y132200
X6840Y132290
X9460Y132590
X11230Y132720
X14110Y130610
X15420Y130320
X15520Y129680
X17180Y130380
X17610Y128940
X14430Y125300
X14500Y124710
X11960Y123310
X11500Y122250
X10560Y123280
X9780Y124990
X9530Y125670
X7220Y125740
X6990Y122700
X4230Y128400
X3840Y128880
X7120Y135540
X3780Y136440
X6150Y141180
X4490Y142990
X8400Y142780
X15180Y134560
X17500Y135070
X17260Y141420
X25510Y134650
X25490Y126670
X17930Y122960
X21505Y63976
X22116Y63248
X21505Y62520
X20856Y63248
X26598Y62297
X26998Y62617
X25878Y62537
X24918Y65177
X25958Y68137
X26838Y66537
X27078Y68217
X26518Y72137
X24358Y70137
X23878Y70457
X24358Y68457
X22678Y68137
X22598Y67497
X20918Y70377
X20198Y70217
X19638Y68537
X20118Y65017
X19478Y64297
X19718Y72137
X19318Y72457
X23638Y74217
X24118Y74217
X23958Y75737
X110813Y56650
X110313Y57450
X108613Y64850
X109213Y65050
X109913Y65150
X101313Y58450
X101133Y64570
X96213Y63950
X104093Y85990
X22331Y89871
X26151Y91631
X26871Y91641
X27861Y94291
X20761Y92651
X28711Y86401
X26391Y84661
X40521Y92921
X41121Y92591
X42251Y92801
X45741Y93351
X48151Y93436
X48196Y95716
X46486Y95566
X43251Y98301
X41791Y96781
X40611Y96601
X42751Y100801
X43251Y100801
X43751Y100801
X44251Y100801
X44751Y100801
X45251Y100801
X45751Y100801
X45751Y101301
X45251Y101301
X44751Y101301
X44251Y101301
X43751Y101301
X43251Y101301
X42751Y101301
X42751Y101801
X43251Y101801
X43751Y101801
X43751Y102301
X43751Y102801
X43251Y102801
X43251Y102301
X42751Y102301
X42751Y102801
X42751Y103301
X43251Y103301
X43751Y103301
X43751Y103801
X43751Y104301
X44251Y104301
X44751Y104301
X45251Y104301
X45751Y104301
X45751Y104801
X45251Y104801
X44751Y104801
X44251Y104801
X43751Y104801
X43251Y104801
X43251Y104301
X43251Y103801
X42751Y103801
X42751Y104301
X42751Y104801
X49771Y102526
X57826Y106206
X59933Y103824
X51976Y96481
X51961Y95971
X51421Y95986
X54286Y93346
X55771Y94666
X58466Y92586
X57581Y89821
X58111Y89191
X54281Y89381
X48876Y91171
X47611Y88636
X45421Y90616
X43251Y88261
X44701Y84166
X45706Y83266
X47126Y82551
X49881Y83266
X52056Y84166
X50356Y81046
X57701Y81691
X62151Y85201
X62151Y85701
X62151Y86201
X61751Y86601
X61351Y86901
X60851Y86901
X60351Y87101
X59851Y87101
X59351Y87101
X58851Y87101
X57851Y86701
X57751Y86301
X57451Y87001
X56951Y87001
X56451Y87001
X55951Y87001
X55751Y86401
X55351Y86101
X54851Y86101
X54351Y86101
X53951Y86401
X53951Y86901
X53951Y87401
X54351Y87801
X54851Y87801
X55351Y87901
X55851Y87901
X56351Y87901
X56851Y87901
X57351Y87901
X57851Y87901
X58351Y87901
X58651Y87601
X59051Y85701
X59651Y85701
X60151Y85701
X61151Y85201
X47746Y92251
X47266Y92446
X46846Y92836
X46211Y92231
X55301Y94021
X53751Y102301
X53751Y102801
X53251Y102801
X53251Y102301
X52751Y102301
X52751Y102801
X52251Y102801
X52251Y102301
X51751Y102301
X51751Y102801
X51751Y103301
X52251Y103301
X52751Y103301
X53251Y103301
X53751Y103301
X23101Y92821
X22661Y92821
X22911Y92141
X22911Y91671
X22401Y91671
X22411Y92141
X20931Y91331
X20621Y91711
X22411Y91201
X22911Y91191
X23101Y90621
X22681Y90621
X22231Y90631
X49090Y113201
X48290Y112531
X49030Y115131
X48870Y116881
X48530Y117651
X48000Y116861
X48940Y118691
X50170Y119771
X48000Y120531
X47590Y121371
X47590Y123101
X49730Y123041
X50580Y125091
X52440Y125131
X47660Y129291
X47420Y130771
X44190Y131151
X43380Y130591
X42350Y132871
X39090Y130941
X39590Y127051
X41750Y124721
X42840Y127371
X45200Y123261
X47140Y126171
X44140Y119651
X44640Y118991
X44780Y118031
X49930Y117441
X50900Y116971
X52730Y116941
X52870Y118051
X54760Y117671
X53550Y113671
X52460Y113361
X52320Y112491
X51230Y115091
X45520Y112261
X38220Y118581
X37490Y119561
X36200Y120191
X35470Y119481
X35250Y120761
X35870Y118141
X35890Y115571
X36340Y125201
X52900Y112841
X49240Y117421
X46920Y118991
X43300Y115631
X39200Y115221
X48860Y114041
X82490Y84438
X82180Y83978
X80020Y83618
X77370Y85618
X76600Y88018
X74920Y83968
X72120Y83618
X69480Y87898
X77760Y79758
X77840Y78398
X74080Y76518
X73600Y77238
X73920Y78718
X81720Y80618
X83840Y80718
X84260Y81898
X83080Y79518
X84600Y80098
X84380Y83578
X84400Y86158
X82900Y86918
X82240Y87638
X82240Y86058
X80540Y86598
X80560Y87298
X79720Y88118
X77620Y88118
X75520Y85498
X75910Y85018
X75050Y84928
X76260Y83578
X77540Y83588
X74770Y83418
X73890Y81248
X74330Y80088
X76070Y78818
X79560Y79908
X77370Y75068
X76620Y75118
X75770Y75068
X75020Y75118
X71520Y78718
X71520Y80068
X67920Y80068
X67920Y78718
X84460Y87798
X92905Y97760
X93745Y97920
X94505Y97920
X95385Y97800
X98785Y96900
X101665Y98500
X102505Y96400
X104245Y103240
X103485Y104740
X81600Y99253
X81440Y100093
X81440Y100853
X81560Y101733
X82460Y105133
X80860Y108013
X82960Y108853
X76120Y110593
X74620Y109833
X90332Y117260
X94010Y122210
X108272Y127955
X111975Y125627
X98180Y122330
X98610Y122630
X99020Y122300
X99370Y122740
X99710Y123100
X99720Y124100
X100680Y124140
X102170Y123440
X102500Y123950
X102720Y124600
X99590Y126070
X99040Y125720
X98270Y125790
X97600Y125810
X96890Y125850
X93795Y126832
X95110Y128320
X94560Y128410
X96140Y128340
X96640Y128380
X97590Y128400
X98140Y128380
X98950Y128380
X99570Y128390
X93022Y123677
X92280Y124520
X91790Y124280
X91420Y123910
X90520Y123110
X90905Y122355
X91910Y121440
X91410Y121200
X91830Y119870
X92220Y118870
X92840Y118050
X94200Y119880
X96050Y121770
X97300Y121410
X98260Y120032
X98890Y119260
X100840Y119210
X102430Y119610
X103140Y119180
X104530Y118900
X101820Y121250
X101260Y121630
X100710Y121020
X100260Y121520
X97540Y117830
X96320Y117840
X89013Y118172
X88895Y122645
X90420Y125150
X91060Y125610
X90290Y126190
X108307Y128560
X109440Y129430
X110470Y129400
X111710Y129312
X112437Y127600
X111527Y126085
X110327Y126997
X108870Y126550
X110795Y124810
X112225Y125095
X113750Y116110
X101963Y16900
X108163Y16790
X97603Y7790
X97593Y6460
X110803Y6890
X89623Y3610
X89983Y5430
X90803Y7450
X92503Y8940
X92093Y9400
X93843Y9000
X95663Y8240
X94203Y7590
X93753Y6740
X94843Y6230
X95353Y5830
X94593Y5510
X98283Y5530
X98243Y6840
X98643Y7500
X100273Y6860
X100353Y8140
X99113Y8830
X100043Y9760
X102443Y8480
X102923Y8280
X103423Y8480
X103353Y9760
X105033Y10740
X106433Y12540
X107673Y11310
X108333Y10410
X108523Y9070
X106223Y8180
X107843Y6910
X105853Y6060
X101593Y5190
X99743Y12010
X98393Y13870
X93543Y12000
X90433Y13140
X88663Y13120
X88943Y14500
X89443Y14500
X89943Y14500
X90443Y14500
X90443Y15000
X89943Y15000
X89443Y15000
X88943Y15000
X88943Y15500
X89443Y15500
X89943Y15500
X90443Y15500
X90443Y16000
X89943Y16000
X89443Y16000
X88943Y16000
X88943Y16500
X89443Y16500
X89943Y16500
X90443Y16500
X104283Y14850
X71051Y120142
X63751Y116442
X67951Y116742
X69851Y116742
X71951Y116642
X74001Y116542
X75951Y116542
X77951Y116542
X80051Y116742
X77351Y117542
X74251Y118842
X73751Y119342
X75951Y120542
X76351Y121242
X80151Y120642
X77651Y119492
X78251Y118942
X73351Y117942
X72651Y118142
X69051Y118442
X69051Y118842
X68751Y119242
X68251Y119242
X68251Y119742
X68751Y119742
X70051Y120642
X68151Y120742
X64351Y120142
X64051Y120842
X72001Y120892
X72351Y121242
X78990Y133718
X78680Y133258
X76520Y132898
X73870Y134898
X73100Y137298
X71420Y133248
X68620Y132898
X65980Y137178
X74260Y129038
X74340Y127678
X70580Y125798
X70100Y126518
X70420Y127998
X78220Y129898
X80340Y129998
X80760Y131178
X79580Y128798
X81100Y129378
X80880Y132858
X80900Y135438
X79400Y136198
X78740Y136918
X78740Y135338
X77040Y135878
X77060Y136578
X76220Y137398
X74120Y137398
X72020Y134778
X72410Y134298
X71550Y134208
X72760Y132858
X74040Y132868
X71270Y132698
X70390Y130528
X70830Y129368
X72570Y128098
X76060Y129188
X73870Y124348
X73120Y124398
X72270Y124348
X71520Y124398
X68020Y127998
X68020Y129348
X64420Y129348
X64420Y127998
X80960Y137078
T03C0.025800
X54650Y11651
X49480Y10881
X13630Y75460
X102403Y5870
T04C0.033450
X36830Y50843
X36830Y49043
X36830Y47243
X36830Y45443
X36830Y43643
X36830Y41843
X36830Y40043
X35354Y40043
X35354Y41843
X35354Y43643
X35354Y45443
X35354Y47243
X35354Y49043
X35354Y50843
X15925Y75461
X15925Y76248
X15925Y77035
X15925Y77823
X15925Y78610
X15925Y79398
X16713Y79398
X16713Y78610
X16713Y77823
X16713Y77035
X16713Y76248
X16713Y75461
X16713Y74673
X16713Y73886
X16713Y73098
X16713Y72311
X16713Y71524
X16713Y70736
X16713Y69949
X16713Y69161
X16713Y68374
X16713Y67587
X15925Y67587
X15925Y68374
X15925Y69161
X15925Y69949
X15925Y70736
X15925Y71524
X15925Y72311
X15925Y73098
X15925Y73886
X15925Y74673
X3165Y67109
X3165Y65141
X6890Y101790
X5709Y101790
X15925Y94837
X15925Y95624
X15925Y96411
X15925Y97199
X15925Y97986
X15925Y98774
X15925Y99561
X15925Y100348
X15925Y101136
X15925Y101923
X15925Y102711
X15925Y103498
X15925Y104285
X15925Y105073
X15925Y105860
X15925Y106648
X16713Y106648
X16713Y105860
X16713Y105073
X16713Y104285
X16713Y103498
X16713Y102711
X16713Y101923
X16713Y101136
X16713Y100348
X16713Y99561
X16713Y98774
X16713Y97986
X16713Y97199
X16713Y96411
X16713Y95624
X16713Y94837
X13073Y104029
X12286Y104029
X11498Y104029
X10711Y104029
X9924Y104029
X9136Y104029
X8349Y104029
X7561Y104029
X6774Y104029
X5987Y104029
X5987Y112691
X6774Y112691
X7561Y112691
X8349Y112691
X9136Y112691
X9924Y112691
X10711Y112691
X11498Y112691
X12286Y112691
X13073Y112691
X67280Y3575
X68067Y3575
X68854Y3575
X69642Y3575
X70429Y3575
X71217Y3575
X72004Y3575
X72791Y3575
X73579Y3575
X74366Y3575
X75154Y3575
X75941Y3575
X76728Y3575
X77516Y3575
X78303Y3575
X79091Y3575
X79091Y2787
X78303Y2787
X77516Y2787
X76728Y2787
X75941Y2787
X75154Y2787
X74366Y2787
X73579Y2787
X72791Y2787
X72004Y2787
X71217Y2787
X70429Y2787
X69642Y2787
X68854Y2787
X68067Y2787
X67280Y2787
X94343Y29950
X94343Y27950
X98763Y24650
X98763Y23650
X33751Y94601
X33751Y91601
X62951Y100817
X62951Y102785
X61369Y105951
X62132Y106551
X61369Y107151
X62132Y107651
X92745Y93080
X93745Y93080
X94745Y93080
X95745Y93080
X96745Y93080
X97745Y93080
X98785Y93080
X99785Y93080
X100785Y93080
X101785Y93080
X102785Y93080
X103785Y93080
X99415Y100200
X99415Y101440
X98790Y102515
X98165Y101440
X98165Y100200
X96915Y100200
X96915Y101440
X96290Y102515
X95665Y101440
X95040Y102515
X95040Y103765
X95665Y104840
X96290Y103765
X96915Y104840
X96915Y106080
X98165Y106080
X98165Y104840
X97540Y103765
X97540Y102515
X98790Y103765
X99415Y104840
X99415Y106080
X100665Y104840
X100040Y103765
X100040Y102515
X100665Y101440
X101290Y102515
X101290Y103765
X101152Y112540
X100152Y112540
X99152Y112540
X98072Y112541
X97072Y112541
X96072Y112541
X95072Y112541
X94072Y112541
X93072Y112541
X102152Y112540
X103152Y112540
X104152Y112540
X86280Y99093
X86280Y100093
X86280Y101093
X86280Y102093
X86280Y103093
X86280Y104093
X86280Y105133
X86280Y106133
X86280Y107133
X86280Y108133
X86280Y109133
X86280Y110133
X79160Y105763
X77920Y105763
X76845Y105138
X77920Y104513
X79160Y104513
X79160Y103263
X77920Y103263
X76845Y102638
X77920Y102013
X76845Y101388
X75595Y101388
X74520Y102013
X75595Y102638
X74520Y103263
X73280Y103263
X73280Y104513
X74520Y104513
X75595Y103888
X76845Y103888
X75595Y105138
X74520Y105763
X73280Y105763
X74520Y107013
X75595Y106388
X76845Y106388
X77920Y107013
X76845Y107638
X75595Y107638
X66820Y107500
X66820Y106500
X66820Y105500
X66819Y104420
X66819Y103420
X66819Y102420
X66819Y101420
X66819Y100420
X66819Y99420
X66820Y108500
X66820Y109500
X66820Y110500
X101680Y126399
X101680Y127580
X112860Y125538
X112860Y124751
X112860Y123963
X112860Y123176
X112860Y122388
X112860Y121601
X112860Y120814
X112860Y120026
X107277Y117184
X106490Y117184
X105703Y117184
X104915Y117184
X104128Y117184
X103340Y117184
X102553Y117184
X101766Y117184
X100978Y117184
X100191Y117184
X99403Y117184
X98616Y117184
X97829Y117184
X97041Y117184
X96254Y117184
X95466Y117184
X95466Y116397
X96254Y116397
X97041Y116397
X97829Y116397
X98616Y116397
X99403Y116397
X100191Y116397
X100978Y116397
X101766Y116397
X102553Y116397
X103340Y116397
X104128Y116397
X104915Y116397
X105703Y116397
X106490Y116397
X107277Y116397
X104199Y120026
X104199Y120814
X104199Y121601
X104199Y122388
X104199Y123176
X104199Y123963
X104199Y124751
X104199Y125538
X104199Y126325
X104199Y127113
X112860Y127113
X112860Y126325
X102404Y3575
X103191Y3575
X103978Y3575
X104766Y3575
X105553Y3575
X106341Y3575
X106341Y2787
X105553Y2787
X104766Y2787
X103978Y2787
X103191Y2787
X102404Y2787
X101616Y2787
X100829Y2787
X100041Y2787
X99254Y2787
X98467Y2787
X97679Y2787
X96892Y2787
X96104Y2787
X95317Y2787
X94530Y2787
X94530Y3575
X95317Y3575
X96104Y3575
X96892Y3575
X97679Y3575
X98467Y3575
X99254Y3575
X100041Y3575
X100829Y3575
X101616Y3575
X94052Y16335
X92084Y16335
T05C0.038700
X14960Y7700
X14960Y5920
X12400Y5920
X12400Y7700
X7100Y10960
X7000Y11960
X7100Y12960
X7000Y13960
X7100Y14960
X9320Y19600
X9320Y20600
X9320Y21600
X9320Y22600
X9320Y23600
X9320Y24600
X44050Y10871
X44050Y11871
X44050Y12871
X44050Y13871
X42950Y13871
X42950Y12871
X42950Y11871
X42950Y10871
X42950Y9871
X44050Y9871
X50976Y18407
X50876Y19407
X50976Y20407
X50876Y21407
X50976Y22407
X57620Y14511
X57720Y13511
X57620Y12511
X57720Y15511
X2925Y43250
X2925Y42250
X2925Y41250
X2925Y40250
X2925Y39250
X19325Y47650
X19225Y48650
X19325Y49650
X19225Y50650
X19325Y51650
X2925Y44250
X46880Y39593
X45880Y39593
X44880Y39593
X43880Y39593
X42880Y39593
X33730Y41443
X33830Y42443
X33730Y43443
X33830Y44443
X33730Y45443
X33830Y46443
X33730Y47443
X33830Y48443
X35100Y53283
X36200Y53283
X37350Y53333
X38350Y53233
X39350Y53333
X40350Y53233
X40350Y55733
X39350Y55833
X38350Y55733
X37350Y55833
X36150Y55733
X35150Y55833
X34150Y55733
X33150Y55833
X40010Y64863
X41010Y64863
X42010Y64863
X43010Y64863
X44010Y64863
X57010Y50833
X57010Y51833
X57010Y49833
X3765Y69145
X2765Y70145
X3765Y71145
X6035Y70230
X7035Y70130
X8035Y70230
X9035Y70130
X10035Y70230
X15865Y83985
X15865Y85125
X78533Y47122
X78633Y48122
X78533Y49122
X80833Y49722
X82613Y49722
X82613Y47162
X80833Y47162
X76763Y56782
X75763Y56882
X74763Y56782
X73763Y56882
X72763Y56782
X73410Y71162
X72410Y71262
X74410Y71262
X75410Y71162
X76663Y71282
X77663Y71182
X78663Y71282
X79663Y71182
X80663Y71282
X81663Y71182
X82663Y71282
X83663Y71182
X13260Y91560
X12260Y91460
X11260Y91560
X14260Y91460
X15260Y91560
X3390Y108720
X3490Y109720
X3390Y110720
X3490Y111720
X13210Y90364
X13210Y88396
X72993Y13410
X74093Y13410
X75153Y13390
X76253Y13390
X76883Y16360
X77883Y16460
X78883Y16360
X79883Y16460
X80883Y16360
X61593Y24600
X61493Y23600
X61593Y22600
X61493Y21600
X61493Y25600
X61593Y26600
X61493Y27600
X61593Y28600
X17870Y134260
X17870Y136040
X18500Y137740
X19500Y137840
X20500Y137740
X21500Y137840
X22500Y137740
X20430Y136040
X20430Y134260
X15960Y135630
X14960Y135630
X13960Y135630
X12960Y135630
X11960Y135630
X10960Y135630
X112143Y63830
X112143Y64830
X112143Y65830
X112143Y66830
X112143Y67830
X112143Y68830
X113143Y68830
X113143Y67830
X113143Y66830
X113143Y65830
X113143Y64830
X113143Y63830
X111963Y82950
X112063Y83950
X111963Y84950
X112063Y85950
X106438Y81588
X106438Y80800
X106438Y80013
X106438Y79226
X106438Y78438
X106438Y77651
X106438Y76863
X106438Y76076
X106438Y75289
X106438Y74501
X106438Y73714
X106438Y72926
X106438Y72139
X106438Y71352
X106438Y70564
X106438Y69777
X107225Y69777
X107225Y70564
X107225Y71352
X107225Y72139
X107225Y72926
X107225Y73714
X107225Y74501
X107225Y75289
X107225Y76076
X107225Y76863
X107225Y77651
X107225Y78438
X107225Y79226
X107225Y80013
X107225Y80800
X107225Y81588
X107225Y54408
X107225Y53620
X107225Y52833
X107225Y52046
X107225Y51258
X107225Y50471
X107225Y49683
X107225Y48896
X107225Y48109
X107225Y47321
X107225Y46534
X107225Y45746
X107225Y44959
X107225Y44172
X107225Y43384
X107225Y42597
X106438Y42597
X106438Y43384
X106438Y44172
X106438Y44959
X106438Y45746
X106438Y46534
X106438Y47321
X106438Y48109
X106438Y48896
X106438Y49683
X106438Y50471
X106438Y51258
X106438Y52046
X106438Y52833
X106438Y53620
X106438Y54408
X44521Y91191
X44621Y92191
X44521Y93191
X44621Y94191
X44521Y95191
X50361Y91231
X50261Y90231
X50361Y89231
X33340Y125451
X33240Y126451
X33340Y127451
X33240Y128451
X33340Y129451
X33690Y131731
X33690Y132731
X33690Y133731
X33690Y134731
X33690Y135731
X33690Y136731
X32840Y115841
X34620Y115841
X34620Y113281
X32840Y113281
X82720Y75468
X81720Y75568
X80720Y75468
X79720Y75568
X78720Y75468
X86280Y78078
X86280Y79078
X86280Y80078
X86280Y81078
X86280Y82078
X86280Y83078
X86280Y84118
X86280Y85118
X86280Y86118
X86280Y87118
X86280Y88118
X86280Y89118
X72810Y92528
X71670Y92528
X66820Y89485
X66820Y88485
X66820Y87485
X66820Y86485
X66820Y85485
X66820Y84485
X66870Y81418
X66770Y80418
X66870Y79418
X66770Y78418
X105012Y105205
X106012Y105205
X107012Y105205
X74155Y111360
X74155Y112360
X74155Y113360
X109010Y130290
X110010Y130190
X111010Y130290
X112010Y130190
X93160Y127490
X92160Y127590
X91160Y127490
X90160Y127590
X89160Y127490
X96088Y15735
X97088Y16735
X98088Y15735
X97173Y13465
X97073Y12465
X97173Y11465
X97073Y10465
X97173Y9465
X110928Y3635
X112068Y3635
X79220Y124748
X78220Y124848
X77220Y124748
X76220Y124848
X75220Y124748
X82780Y127358
X82780Y128358
X82780Y129358
X82780Y130358
X82780Y131358
X82780Y132358
X82780Y133398
X82780Y134398
X82780Y135398
X82780Y136398
X82780Y137398
X82780Y138398
X69310Y141808
X68170Y141808
X63320Y138765
X63320Y137765
X63320Y136765
X63320Y135765
X63320Y134765
X63320Y133765
X63370Y130698
X63270Y129698
X63370Y128698
X63270Y127698
T06C0.045250
X25055Y21843
X26039Y21843
X27024Y21843
X28008Y21843
X28008Y20386
X27024Y20386
X26039Y20386
X25055Y20386
X25055Y19008
X26039Y19008
X26039Y18024
X25055Y18024
X25055Y17039
X25055Y16055
X25055Y15071
X26039Y15071
X26039Y16055
X26039Y17039
X27024Y17039
X28008Y17039
X28008Y16055
X28008Y15071
X27024Y15071
X27024Y16055
X27024Y14087
X28008Y14087
X28008Y13102
X28008Y12118
X28008Y11134
X27024Y11134
X27024Y12118
X27024Y13102
X26039Y13102
X25055Y13102
X25055Y12118
X25055Y11134
X26039Y11134
X26039Y12118
X26039Y10150
X25055Y10150
X27024Y10150
X28008Y10150
X26039Y14087
X25055Y14087
X27024Y18024
X28008Y18024
X28008Y19008
X27024Y19008
X25055Y51093
X26039Y51093
X27024Y51093
X28008Y51093
X28008Y49636
X27024Y49636
X26039Y49636
X25055Y49636
X25055Y48258
X26039Y48258
X27024Y48258
X28008Y48258
X28008Y47274
X27024Y47274
X26039Y47274
X25055Y47274
X25055Y46289
X26039Y46289
X27024Y46289
X28008Y46289
X28008Y45305
X28008Y44321
X27024Y44321
X26039Y44321
X25055Y44321
X25055Y45305
X26039Y45305
X27024Y45305
X27024Y43337
X26039Y43337
X25055Y43337
X25055Y42352
X25055Y41368
X25055Y40384
X26039Y40384
X27024Y40384
X28008Y40384
X28008Y41368
X28008Y42352
X27024Y42352
X26039Y42352
X26039Y41368
X27024Y41368
X27024Y39400
X26039Y39400
X25055Y39400
X28008Y39400
X28008Y43337
X4149Y67503
X4149Y64747
X70263Y30100
X72263Y30100
X74263Y30100
X76263Y30100
X78263Y30100
X80263Y30100
X82263Y30100
X84263Y30100
X86263Y30100
X88263Y30100
X10840Y139200
X11840Y139200
X12840Y139200
X13840Y139200
X14840Y139200
X14840Y142200
X13840Y142200
X12840Y142200
X11840Y142200
X10840Y142200
X6100Y127850
X6100Y126850
X6100Y125850
X6100Y124850
X6100Y123850
X3100Y123850
X3100Y124850
X3100Y125850
X3100Y126850
X3100Y127850
X10150Y120945
X10150Y119961
X11134Y119961
X11134Y120945
X12118Y120945
X13102Y120945
X13102Y119961
X12118Y119961
X12118Y118976
X12118Y117992
X11134Y117992
X11134Y118976
X10150Y118976
X10150Y117992
X13102Y117992
X13102Y118976
X14087Y118976
X15071Y118976
X15071Y117992
X14087Y117992
X16055Y117992
X17039Y117992
X17039Y118976
X16055Y118976
X16055Y119961
X16055Y120945
X17039Y120945
X17039Y119961
X18024Y119961
X18024Y120945
X19008Y120945
X19008Y119961
X19008Y118976
X19008Y117992
X18024Y117992
X18024Y118976
X20386Y118976
X20386Y117992
X21843Y117992
X21843Y118976
X21843Y119961
X21843Y120945
X20386Y120945
X20386Y119961
X15071Y119961
X15071Y120945
X14087Y120945
X14087Y119961
X62591Y92613
X60622Y92259
X59402Y91471
X59402Y90211
X62591Y88951
X61966Y100423
X61966Y103179
X60622Y90841
X62591Y90841
X61111Y95817
X61111Y96801
X61111Y97785
X58650Y97785
X58650Y95817
X54305Y119701
X54305Y120685
X54305Y121669
X55289Y121669
X55289Y120685
X55289Y119701
X56274Y119701
X57258Y119701
X57258Y120685
X57258Y121669
X56274Y121669
X56274Y120685
X56274Y122654
X57258Y122654
X57258Y123638
X57258Y124622
X57258Y125606
X56274Y125606
X56274Y124622
X56274Y123638
X55289Y123638
X54305Y123638
X54305Y124622
X54305Y125606
X55289Y125606
X55289Y124622
X55289Y126591
X54305Y126591
X54305Y127575
X54305Y128559
X55289Y128559
X55289Y127575
X56274Y127575
X57258Y127575
X57258Y128559
X56274Y128559
X56274Y129937
X57258Y129937
X57258Y131394
X56274Y131394
X55289Y131394
X54305Y131394
X54305Y129937
X55289Y129937
X56274Y126591
X57258Y126591
X55289Y122654
X54305Y122654
X94446Y15351
X91690Y15351
T07C0.051000
X57766Y23511
X54774Y23511
X53616Y23511
X50624Y23511
X49466Y23511
X46474Y23511
X45316Y23511
X42324Y23511
X45316Y28511
X46474Y29515
X49466Y28511
X50624Y29515
X53616Y28511
X54774Y29515
X57766Y28511
X42324Y29515
X50750Y58525
X50750Y38840
X37411Y108071
X29891Y108071
X29891Y79851
X37411Y79851
T08C0.058550
X33580Y19911
X38580Y19911
X38580Y17411
X38580Y16161
X38580Y14911
X38580Y11161
X33580Y11161
X34597Y4225
X36597Y4225
X38597Y4225
X40597Y4225
X42597Y4225
X44597Y4225
X46597Y4225
X48597Y4225
X50597Y4225
X52597Y4225
X54597Y4225
X56597Y4225
X56597Y33989
X54597Y33989
X52597Y33989
X50597Y33989
X48597Y33989
X46597Y33989
X44597Y33989
X42597Y33989
X40597Y33989
X38597Y33989
X36597Y33989
X34597Y33989
X53500Y66983
X53500Y64683
X53500Y62383
X55800Y62383
X55800Y64683
X55800Y66983
X35545Y61303
X33915Y61303
X39650Y69103
X39650Y71103
X39650Y73103
X45650Y69103
X47650Y73103
X49650Y69103
X74778Y53262
X73148Y53262
X73148Y50862
X74778Y50862
X74778Y48462
X73148Y48462
X73148Y46062
X74778Y46062
X72850Y43762
X76850Y43762
X74850Y39762
X82850Y39762
X82850Y41762
X82850Y43762
X3900Y95770
X19000Y123230
X19000Y125730
X19000Y126980
X19000Y128230
X19000Y131980
X24000Y131980
X24000Y123230
X61751Y83301
X64311Y117702
T09C0.065000
X37385Y65003
X33755Y65003
X64420Y63062
X64420Y60762
X64420Y58462
X64420Y56162
X64420Y53862
X64420Y51562
X64420Y49262
X64420Y46962
X66770Y46952
X66780Y49262
X66780Y51562
X66780Y53862
X66780Y56162
X66780Y58462
X66780Y60762
X66780Y63062
X64420Y65362
X4904Y94766
X4904Y96774
X2896Y96774
X2896Y94766
X62755Y82297
X60747Y82297
X60747Y84305
X62755Y84305
T10C0.074800
X24340Y61602
X25639Y61681
T11C0.088600
X24661Y24390
X24654Y7622
X24654Y36872
X24661Y53640
X24390Y121339
X7622Y121346
X53904Y117173
X53911Y133941
T12C0.094000
X40551Y108081
T13C0.104000
X33755Y69003
X37385Y69003
T14C0.110200
X57150Y38483
X33350Y38483
X33350Y73783
T15C0.118000
X22994Y101761
X20632Y101761
X21813Y99911
T16C0.125500
X37297Y61303
X76530Y53262
X76530Y50862
X76530Y48462
X76530Y46062
X33651Y104836
X33651Y83086
X62501Y118742
X81501Y118742
T17C0.129950
X84763Y47462
X84763Y64462
X103943Y22950
X62493Y30400
X61393Y19940
X22982Y61529
X22948Y75053
X112013Y34950
X112013Y61950
X112013Y88950
X94013Y88950
X94013Y61950
X94013Y34950
X21751Y79301
X58751Y79301
X58751Y108301
X21751Y108301
T18C0.136900
X3500Y73500
X3500Y100750
X73193Y16000
X94013Y48510
X94013Y75690
X26751Y104831
X40551Y83061
X101380Y129610
X100443Y16000
T19C0.161400
X26193Y6000
X26173Y26012
X26193Y35250
X26173Y55262
X6000Y119807
X26012Y119827
X55443Y115551
X55423Y135563
T20C0.189000
X54650Y55833
X54650Y73533
X65600Y69512
X65600Y40512
M30
