G75*
%MOIN*%
%OFA0B0*%
%FSLAX25Y25*%
%IPPOS*%
%LPD*%
%AMOC8*
5,1,8,0,0,1.08239X$1,22.5*
%
%ADD10C,0.01000*%
%ADD11C,0.00500*%
%ADD12C,0.00600*%
%ADD13C,0.00800*%
%ADD14R,0.00787X0.00787*%
%ADD15C,0.00300*%
%ADD16R,0.01181X0.00591*%
%ADD17R,0.01181X0.01181*%
%ADD18R,0.00591X0.01181*%
%ADD19R,0.03000X0.03400*%
%ADD20C,0.00252*%
%ADD21C,0.00000*%
D10*
X0042177Y0086500D02*
X0044846Y0086500D01*
X0046781Y0086500D02*
X0046781Y0090503D01*
X0049450Y0090503D01*
X0051385Y0090503D02*
X0051385Y0086500D01*
X0053387Y0086500D01*
X0054054Y0087167D01*
X0054054Y0089836D01*
X0053387Y0090503D01*
X0051385Y0090503D01*
X0052560Y0092600D02*
X0053895Y0092600D01*
X0054562Y0093267D01*
X0056497Y0092600D02*
X0059166Y0092600D01*
X0057831Y0092600D02*
X0057831Y0096603D01*
X0056497Y0095269D01*
X0054562Y0095936D02*
X0053895Y0096603D01*
X0052560Y0096603D01*
X0051893Y0095936D01*
X0051893Y0093267D01*
X0052560Y0092600D01*
X0055989Y0089836D02*
X0056656Y0090503D01*
X0057991Y0090503D01*
X0058658Y0089836D01*
X0058658Y0089169D01*
X0057991Y0088502D01*
X0058658Y0087834D01*
X0058658Y0087167D01*
X0057991Y0086500D01*
X0056656Y0086500D01*
X0055989Y0087167D01*
X0057324Y0088502D02*
X0057991Y0088502D01*
X0061101Y0092600D02*
X0063770Y0095269D01*
X0063770Y0095936D01*
X0063103Y0096603D01*
X0061768Y0096603D01*
X0061101Y0095936D01*
X0063693Y0097500D02*
X0063693Y0101503D01*
X0066362Y0101503D01*
X0068297Y0100169D02*
X0069631Y0101503D01*
X0069631Y0097500D01*
X0068297Y0097500D02*
X0070966Y0097500D01*
X0074193Y0095000D02*
X0078193Y0095000D01*
X0078193Y0087000D02*
X0074193Y0087000D01*
X0063770Y0092600D02*
X0061101Y0092600D01*
X0063693Y0099502D02*
X0065027Y0099502D01*
X0065454Y0114950D02*
X0062785Y0114950D01*
X0064120Y0114950D02*
X0064120Y0118953D01*
X0062785Y0117619D01*
X0062395Y0118500D02*
X0063062Y0119167D01*
X0063062Y0122503D01*
X0061691Y0123300D02*
X0060356Y0123300D01*
X0059689Y0123967D01*
X0062358Y0126636D01*
X0062358Y0123967D01*
X0061691Y0123300D01*
X0060393Y0122503D02*
X0060393Y0119167D01*
X0061060Y0118500D01*
X0062395Y0118500D01*
X0060850Y0118286D02*
X0060850Y0116952D01*
X0060183Y0116284D01*
X0058181Y0116284D01*
X0058181Y0114950D02*
X0058181Y0118953D01*
X0060183Y0118953D01*
X0060850Y0118286D01*
X0059516Y0116284D02*
X0060850Y0114950D01*
X0064997Y0118500D02*
X0067666Y0118500D01*
X0067389Y0118286D02*
X0067389Y0117619D01*
X0068056Y0116952D01*
X0070058Y0116952D01*
X0070058Y0118286D02*
X0070058Y0115617D01*
X0069391Y0114950D01*
X0068056Y0114950D01*
X0067389Y0115617D01*
X0067389Y0118286D02*
X0068056Y0118953D01*
X0069391Y0118953D01*
X0070058Y0118286D01*
X0069601Y0118500D02*
X0072270Y0118500D01*
X0070935Y0118500D02*
X0070935Y0122503D01*
X0069601Y0121169D01*
X0066331Y0122503D02*
X0066331Y0118500D01*
X0064997Y0121169D02*
X0066331Y0122503D01*
X0062358Y0126636D02*
X0061691Y0127303D01*
X0060356Y0127303D01*
X0059689Y0126636D01*
X0059689Y0123967D01*
X0057754Y0125302D02*
X0055085Y0125302D01*
X0057087Y0127303D01*
X0057087Y0123300D01*
X0053150Y0123967D02*
X0052483Y0123300D01*
X0051148Y0123300D01*
X0050481Y0123967D01*
X0050481Y0126636D01*
X0051148Y0127303D01*
X0052483Y0127303D01*
X0053150Y0126636D01*
X0048133Y0126880D02*
X0044130Y0126880D01*
X0044130Y0128882D01*
X0044797Y0129549D01*
X0046131Y0129549D01*
X0046799Y0128882D01*
X0046799Y0126880D01*
X0046799Y0128214D02*
X0048133Y0129549D01*
X0048133Y0131484D02*
X0045464Y0134153D01*
X0044797Y0134153D01*
X0044130Y0133486D01*
X0044130Y0132151D01*
X0044797Y0131484D01*
X0048133Y0131484D02*
X0048133Y0134153D01*
X0050340Y0134502D02*
X0051007Y0135169D01*
X0052341Y0135169D01*
X0053009Y0134502D01*
X0053009Y0132500D01*
X0054343Y0132500D02*
X0050340Y0132500D01*
X0050340Y0134502D01*
X0053009Y0133834D02*
X0054343Y0135169D01*
X0054343Y0137104D02*
X0054343Y0139773D01*
X0054343Y0138438D02*
X0050340Y0138438D01*
X0051674Y0137104D01*
X0048133Y0138090D02*
X0044130Y0138090D01*
X0046131Y0136088D01*
X0046131Y0138757D01*
X0050340Y0143710D02*
X0052341Y0141708D01*
X0052341Y0144377D01*
X0050340Y0143710D02*
X0054343Y0143710D01*
X0066493Y0148867D02*
X0066493Y0152203D01*
X0069162Y0152203D02*
X0069162Y0148867D01*
X0068495Y0148200D01*
X0067160Y0148200D01*
X0066493Y0148867D01*
X0071097Y0148867D02*
X0071097Y0149534D01*
X0071764Y0150202D01*
X0073099Y0150202D01*
X0073766Y0149534D01*
X0073766Y0148867D01*
X0073099Y0148200D01*
X0071764Y0148200D01*
X0071097Y0148867D01*
X0071764Y0150202D02*
X0071097Y0150869D01*
X0071097Y0151536D01*
X0071764Y0152203D01*
X0073099Y0152203D01*
X0073766Y0151536D01*
X0073766Y0150869D01*
X0073099Y0150202D01*
X0070670Y0159400D02*
X0068001Y0159400D01*
X0069335Y0159400D02*
X0069335Y0163403D01*
X0068001Y0162069D01*
X0066066Y0159400D02*
X0063397Y0159400D01*
X0064731Y0159400D02*
X0064731Y0163403D01*
X0063397Y0162069D01*
X0061462Y0162736D02*
X0060795Y0163403D01*
X0059460Y0163403D01*
X0058793Y0162736D01*
X0058793Y0160067D01*
X0059460Y0159400D01*
X0060795Y0159400D01*
X0061462Y0160067D01*
X0060795Y0165600D02*
X0061462Y0166267D01*
X0061462Y0168936D01*
X0060795Y0169603D01*
X0058793Y0169603D01*
X0058793Y0165600D01*
X0060795Y0165600D01*
X0063397Y0165600D02*
X0063397Y0166267D01*
X0066066Y0168936D01*
X0066066Y0169603D01*
X0063397Y0169603D01*
X0072890Y0170688D02*
X0072890Y0173357D01*
X0072890Y0172023D02*
X0076893Y0172023D01*
X0076893Y0175292D02*
X0072890Y0177961D01*
X0073557Y0179896D02*
X0072890Y0180563D01*
X0072890Y0181898D01*
X0073557Y0182565D01*
X0074224Y0182565D01*
X0076893Y0179896D01*
X0076893Y0182565D01*
X0076893Y0177961D02*
X0072890Y0175292D01*
X0079393Y0164603D02*
X0081395Y0164603D01*
X0082062Y0163936D01*
X0082062Y0162602D01*
X0081395Y0161934D01*
X0079393Y0161934D01*
X0079393Y0160600D02*
X0079393Y0164603D01*
X0080727Y0161934D02*
X0082062Y0160600D01*
X0083997Y0160600D02*
X0086666Y0160600D01*
X0085331Y0160600D02*
X0085331Y0164603D01*
X0083997Y0163269D01*
X0088601Y0162602D02*
X0089935Y0163269D01*
X0090603Y0163269D01*
X0091270Y0162602D01*
X0091270Y0161267D01*
X0090603Y0160600D01*
X0089268Y0160600D01*
X0088601Y0161267D01*
X0088601Y0162602D02*
X0088601Y0164603D01*
X0091270Y0164603D01*
X0100690Y0151098D02*
X0102691Y0149096D01*
X0102691Y0151765D01*
X0100690Y0151098D02*
X0104693Y0151098D01*
X0104026Y0147161D02*
X0100690Y0147161D01*
X0100690Y0144492D02*
X0104026Y0144492D01*
X0104693Y0145159D01*
X0104693Y0146494D01*
X0104026Y0147161D01*
X0093893Y0148306D02*
X0089890Y0148306D01*
X0091891Y0146304D01*
X0091891Y0148973D01*
X0090557Y0144369D02*
X0089890Y0143702D01*
X0089890Y0141700D01*
X0093893Y0141700D01*
X0093893Y0143702D01*
X0093226Y0144369D01*
X0090557Y0144369D01*
X0106390Y0131798D02*
X0107057Y0132465D01*
X0107724Y0132465D01*
X0108391Y0131798D01*
X0109059Y0132465D01*
X0109726Y0132465D01*
X0110393Y0131798D01*
X0110393Y0130463D01*
X0109726Y0129796D01*
X0108391Y0131131D02*
X0108391Y0131798D01*
X0106390Y0131798D02*
X0106390Y0130463D01*
X0107057Y0129796D01*
X0107057Y0127861D02*
X0106390Y0127194D01*
X0106390Y0125859D01*
X0107057Y0125192D01*
X0109726Y0125192D01*
X0110393Y0125859D01*
X0110393Y0127194D01*
X0109726Y0127861D01*
X0120693Y0127100D02*
X0122695Y0127100D01*
X0123362Y0127767D01*
X0123362Y0130436D01*
X0122695Y0131103D01*
X0120693Y0131103D01*
X0120693Y0127100D01*
X0125297Y0127767D02*
X0125297Y0129102D01*
X0127299Y0129102D01*
X0127966Y0128434D01*
X0127966Y0127767D01*
X0127299Y0127100D01*
X0125964Y0127100D01*
X0125297Y0127767D01*
X0125297Y0129102D02*
X0126631Y0130436D01*
X0127966Y0131103D01*
X0137481Y0123103D02*
X0139483Y0123103D01*
X0140150Y0122436D01*
X0140150Y0121102D01*
X0139483Y0120434D01*
X0137481Y0120434D01*
X0137481Y0119100D02*
X0137481Y0123103D01*
X0138816Y0120434D02*
X0140150Y0119100D01*
X0142085Y0119100D02*
X0144754Y0119100D01*
X0143420Y0119100D02*
X0143420Y0123103D01*
X0142085Y0121769D01*
X0146689Y0121769D02*
X0146689Y0122436D01*
X0147356Y0123103D01*
X0148691Y0123103D01*
X0149358Y0122436D01*
X0149358Y0121769D01*
X0148691Y0121102D01*
X0147356Y0121102D01*
X0146689Y0121769D01*
X0147356Y0121102D02*
X0146689Y0120434D01*
X0146689Y0119767D01*
X0147356Y0119100D01*
X0148691Y0119100D01*
X0149358Y0119767D01*
X0149358Y0120434D01*
X0148691Y0121102D01*
X0152290Y0131700D02*
X0152290Y0133702D01*
X0152957Y0134369D01*
X0154291Y0134369D01*
X0154959Y0133702D01*
X0154959Y0131700D01*
X0156293Y0131700D02*
X0152290Y0131700D01*
X0154959Y0133034D02*
X0156293Y0134369D01*
X0154291Y0136304D02*
X0154291Y0138973D01*
X0152290Y0138306D02*
X0156293Y0138306D01*
X0159090Y0138463D02*
X0159090Y0139798D01*
X0159757Y0140465D01*
X0160424Y0140465D01*
X0161091Y0139798D01*
X0161759Y0140465D01*
X0162426Y0140465D01*
X0163093Y0139798D01*
X0163093Y0138463D01*
X0162426Y0137796D01*
X0161091Y0139131D02*
X0161091Y0139798D01*
X0159757Y0137796D02*
X0159090Y0138463D01*
X0159757Y0135861D02*
X0161091Y0135861D01*
X0161759Y0135194D01*
X0161759Y0133192D01*
X0163093Y0133192D02*
X0159090Y0133192D01*
X0159090Y0135194D01*
X0159757Y0135861D01*
X0161759Y0134527D02*
X0163093Y0135861D01*
X0154291Y0136304D02*
X0152290Y0138306D01*
X0152993Y0155792D02*
X0148990Y0155792D01*
X0148990Y0157794D01*
X0149657Y0158461D01*
X0152326Y0158461D01*
X0152993Y0157794D01*
X0152993Y0155792D01*
X0152326Y0160396D02*
X0152993Y0161063D01*
X0152993Y0162398D01*
X0152326Y0163065D01*
X0150991Y0163065D01*
X0150324Y0162398D01*
X0150324Y0161731D01*
X0150991Y0160396D01*
X0148990Y0160396D01*
X0148990Y0163065D01*
X0149407Y0166300D02*
X0152076Y0166300D01*
X0152743Y0166967D01*
X0152743Y0168302D01*
X0152076Y0168969D01*
X0152743Y0170904D02*
X0152743Y0173573D01*
X0152743Y0172238D02*
X0148740Y0172238D01*
X0150074Y0170904D01*
X0149407Y0168969D02*
X0148740Y0168302D01*
X0148740Y0166967D01*
X0149407Y0166300D01*
X0149407Y0175508D02*
X0150074Y0175508D01*
X0150741Y0176175D01*
X0150741Y0178177D01*
X0149407Y0178177D02*
X0152076Y0178177D01*
X0152743Y0177510D01*
X0152743Y0176175D01*
X0152076Y0175508D01*
X0149407Y0175508D02*
X0148740Y0176175D01*
X0148740Y0177510D01*
X0149407Y0178177D01*
X0148003Y0184850D02*
X0146668Y0184850D01*
X0146001Y0185517D01*
X0146001Y0186184D01*
X0146668Y0186852D01*
X0148003Y0186852D01*
X0148670Y0186184D01*
X0148670Y0185517D01*
X0148003Y0184850D01*
X0148003Y0186852D02*
X0148670Y0187519D01*
X0148670Y0188186D01*
X0148003Y0188853D01*
X0146668Y0188853D01*
X0146001Y0188186D01*
X0146001Y0187519D01*
X0146668Y0186852D01*
X0144066Y0184850D02*
X0141397Y0184850D01*
X0142731Y0184850D02*
X0142731Y0188853D01*
X0141397Y0187519D01*
X0139462Y0188186D02*
X0138795Y0188853D01*
X0137460Y0188853D01*
X0136793Y0188186D01*
X0136793Y0185517D01*
X0137460Y0184850D01*
X0138795Y0184850D01*
X0139462Y0185517D01*
X0133358Y0198700D02*
X0130689Y0198700D01*
X0132024Y0198700D02*
X0132024Y0202703D01*
X0130689Y0201369D01*
X0128754Y0202703D02*
X0128754Y0199367D01*
X0128087Y0198700D01*
X0126752Y0198700D01*
X0126085Y0199367D01*
X0126085Y0202703D01*
X0110658Y0207900D02*
X0107989Y0207900D01*
X0109324Y0207900D02*
X0109324Y0211903D01*
X0107989Y0210569D01*
X0106054Y0211236D02*
X0106054Y0211903D01*
X0106054Y0211236D02*
X0104720Y0209902D01*
X0104720Y0207900D01*
X0104720Y0209902D02*
X0103385Y0211236D01*
X0103385Y0211903D01*
X0093343Y0221067D02*
X0093343Y0222402D01*
X0092676Y0223069D01*
X0093343Y0225004D02*
X0090674Y0227673D01*
X0090007Y0227673D01*
X0089340Y0227006D01*
X0089340Y0225671D01*
X0090007Y0225004D01*
X0090007Y0223069D02*
X0089340Y0222402D01*
X0089340Y0221067D01*
X0090007Y0220400D01*
X0092676Y0220400D01*
X0093343Y0221067D01*
X0093343Y0225004D02*
X0093343Y0227673D01*
X0092676Y0229608D02*
X0093343Y0230275D01*
X0093343Y0231610D01*
X0092676Y0232277D01*
X0092009Y0232277D01*
X0091341Y0231610D01*
X0091341Y0230942D01*
X0091341Y0231610D02*
X0090674Y0232277D01*
X0090007Y0232277D01*
X0089340Y0231610D01*
X0089340Y0230275D01*
X0090007Y0229608D01*
X0091690Y0241292D02*
X0095026Y0241292D01*
X0095693Y0241959D01*
X0095693Y0243294D01*
X0095026Y0243961D01*
X0091690Y0243961D01*
X0092357Y0245896D02*
X0093024Y0245896D01*
X0093691Y0246563D01*
X0093691Y0248565D01*
X0092357Y0248565D02*
X0095026Y0248565D01*
X0095693Y0247898D01*
X0095693Y0246563D01*
X0095026Y0245896D01*
X0092357Y0245896D02*
X0091690Y0246563D01*
X0091690Y0247898D01*
X0092357Y0248565D01*
X0080058Y0260200D02*
X0077389Y0260200D01*
X0080058Y0262869D01*
X0080058Y0263536D01*
X0079391Y0264203D01*
X0078056Y0264203D01*
X0077389Y0263536D01*
X0075454Y0263536D02*
X0074787Y0264203D01*
X0073452Y0264203D01*
X0072785Y0263536D01*
X0072785Y0262869D01*
X0073452Y0262202D01*
X0074787Y0262202D01*
X0075454Y0261534D01*
X0075454Y0260867D01*
X0074787Y0260200D01*
X0073452Y0260200D01*
X0072785Y0260867D01*
X0073041Y0228777D02*
X0073041Y0226108D01*
X0071040Y0228110D01*
X0075043Y0228110D01*
X0075043Y0224173D02*
X0075043Y0221504D01*
X0072374Y0224173D01*
X0071707Y0224173D01*
X0071040Y0223506D01*
X0071040Y0222171D01*
X0071707Y0221504D01*
X0071707Y0219569D02*
X0071040Y0218902D01*
X0071040Y0217567D01*
X0071707Y0216900D01*
X0074376Y0216900D01*
X0075043Y0217567D01*
X0075043Y0218902D01*
X0074376Y0219569D01*
X0065857Y0211277D02*
X0068526Y0208608D01*
X0069193Y0208608D01*
X0069193Y0206673D02*
X0069193Y0204004D01*
X0066524Y0206673D01*
X0065857Y0206673D01*
X0065190Y0206006D01*
X0065190Y0204671D01*
X0065857Y0204004D01*
X0065857Y0202069D02*
X0067191Y0202069D01*
X0067859Y0201402D01*
X0067859Y0199400D01*
X0069193Y0199400D02*
X0065190Y0199400D01*
X0065190Y0201402D01*
X0065857Y0202069D01*
X0067859Y0200734D02*
X0069193Y0202069D01*
X0065190Y0208608D02*
X0065190Y0211277D01*
X0065857Y0211277D01*
X0058593Y0211510D02*
X0058593Y0210175D01*
X0057926Y0209508D01*
X0057259Y0209508D01*
X0056591Y0210175D01*
X0056591Y0211510D01*
X0057259Y0212177D01*
X0057926Y0212177D01*
X0058593Y0211510D01*
X0056591Y0211510D02*
X0055924Y0212177D01*
X0055257Y0212177D01*
X0054590Y0211510D01*
X0054590Y0210175D01*
X0055257Y0209508D01*
X0055924Y0209508D01*
X0056591Y0210175D01*
X0055924Y0207573D02*
X0055257Y0207573D01*
X0054590Y0206906D01*
X0054590Y0205571D01*
X0055257Y0204904D01*
X0055257Y0202969D02*
X0056591Y0202969D01*
X0057259Y0202302D01*
X0057259Y0200300D01*
X0058593Y0200300D02*
X0054590Y0200300D01*
X0054590Y0202302D01*
X0055257Y0202969D01*
X0057259Y0201634D02*
X0058593Y0202969D01*
X0058593Y0204904D02*
X0055924Y0207573D01*
X0058593Y0207573D02*
X0058593Y0204904D01*
X0053593Y0181365D02*
X0053593Y0178696D01*
X0050924Y0181365D01*
X0050257Y0181365D01*
X0049590Y0180698D01*
X0049590Y0179363D01*
X0050257Y0178696D01*
X0049590Y0176761D02*
X0053593Y0174092D01*
X0053593Y0172157D02*
X0052259Y0170823D01*
X0052259Y0171490D02*
X0052259Y0169488D01*
X0053593Y0169488D02*
X0049590Y0169488D01*
X0049590Y0171490D01*
X0050257Y0172157D01*
X0051591Y0172157D01*
X0052259Y0171490D01*
X0049590Y0174092D02*
X0053593Y0176761D01*
X0076457Y0130173D02*
X0075790Y0129506D01*
X0075790Y0128171D01*
X0076457Y0127504D01*
X0077124Y0127504D01*
X0077791Y0128171D01*
X0077791Y0130173D01*
X0076457Y0130173D02*
X0079126Y0130173D01*
X0079793Y0129506D01*
X0079793Y0128171D01*
X0079126Y0127504D01*
X0079126Y0125569D02*
X0079793Y0124902D01*
X0079793Y0123567D01*
X0079126Y0122900D01*
X0076457Y0122900D01*
X0075790Y0123567D01*
X0075790Y0124902D01*
X0076457Y0125569D01*
X0077693Y0121753D02*
X0079695Y0121753D01*
X0080362Y0121086D01*
X0080362Y0119752D01*
X0079695Y0119084D01*
X0077693Y0119084D01*
X0077693Y0117750D02*
X0077693Y0121753D01*
X0079027Y0119084D02*
X0080362Y0117750D01*
X0082297Y0117750D02*
X0084966Y0117750D01*
X0083631Y0117750D02*
X0083631Y0121753D01*
X0082297Y0120419D01*
X0081685Y0116003D02*
X0083687Y0116003D01*
X0084354Y0115336D01*
X0084354Y0112667D01*
X0083687Y0112000D01*
X0081685Y0112000D01*
X0081685Y0116003D01*
X0086289Y0115336D02*
X0086956Y0116003D01*
X0088291Y0116003D01*
X0088958Y0115336D01*
X0088958Y0114669D01*
X0088291Y0114002D01*
X0088958Y0113334D01*
X0088958Y0112667D01*
X0088291Y0112000D01*
X0086956Y0112000D01*
X0086289Y0112667D01*
X0087624Y0114002D02*
X0088291Y0114002D01*
X0088903Y0117750D02*
X0089570Y0118417D01*
X0089570Y0119084D01*
X0088903Y0119752D01*
X0086901Y0119752D01*
X0086901Y0118417D01*
X0087568Y0117750D01*
X0088903Y0117750D01*
X0086901Y0119752D02*
X0088235Y0121086D01*
X0089570Y0121753D01*
X0106490Y0100731D02*
X0110493Y0100731D01*
X0110493Y0102065D02*
X0110493Y0099396D01*
X0110493Y0097461D02*
X0109159Y0096127D01*
X0109159Y0096794D02*
X0109159Y0094792D01*
X0110493Y0094792D02*
X0106490Y0094792D01*
X0106490Y0096794D01*
X0107157Y0097461D01*
X0108491Y0097461D01*
X0109159Y0096794D01*
X0107824Y0099396D02*
X0106490Y0100731D01*
X0114685Y0092303D02*
X0116687Y0092303D01*
X0117354Y0091636D01*
X0117354Y0090302D01*
X0116687Y0089634D01*
X0114685Y0089634D01*
X0114685Y0088300D02*
X0114685Y0092303D01*
X0116020Y0089634D02*
X0117354Y0088300D01*
X0119289Y0088967D02*
X0119956Y0088300D01*
X0121291Y0088300D01*
X0121958Y0088967D01*
X0121958Y0090302D01*
X0121291Y0090969D01*
X0120624Y0090969D01*
X0119289Y0090302D01*
X0119289Y0092303D01*
X0121958Y0092303D01*
X0132581Y0098567D02*
X0132581Y0101903D01*
X0135250Y0101903D02*
X0135250Y0098567D01*
X0134583Y0097900D01*
X0133248Y0097900D01*
X0132581Y0098567D01*
X0137185Y0097900D02*
X0139854Y0097900D01*
X0138520Y0097900D02*
X0138520Y0101903D01*
X0137185Y0100569D01*
X0141789Y0101236D02*
X0141789Y0098567D01*
X0144458Y0101236D01*
X0144458Y0098567D01*
X0143791Y0097900D01*
X0142456Y0097900D01*
X0141789Y0098567D01*
X0141789Y0101236D02*
X0142456Y0101903D01*
X0143791Y0101903D01*
X0144458Y0101236D01*
X0164185Y0099703D02*
X0164185Y0096367D01*
X0164852Y0095700D01*
X0166187Y0095700D01*
X0166854Y0096367D01*
X0166854Y0099703D01*
X0168789Y0099703D02*
X0171458Y0099703D01*
X0171458Y0099036D01*
X0168789Y0096367D01*
X0168789Y0095700D01*
X0168431Y0117500D02*
X0168431Y0121503D01*
X0167097Y0120169D01*
X0165162Y0120836D02*
X0165162Y0119502D01*
X0164495Y0118834D01*
X0162493Y0118834D01*
X0162493Y0117500D02*
X0162493Y0121503D01*
X0164495Y0121503D01*
X0165162Y0120836D01*
X0163827Y0118834D02*
X0165162Y0117500D01*
X0167097Y0117500D02*
X0169766Y0117500D01*
X0171701Y0117500D02*
X0171701Y0118167D01*
X0174370Y0120836D01*
X0174370Y0121503D01*
X0171701Y0121503D01*
X0174093Y0137200D02*
X0174093Y0141203D01*
X0176095Y0141203D01*
X0176762Y0140536D01*
X0176762Y0139202D01*
X0176095Y0138534D01*
X0174093Y0138534D01*
X0175427Y0138534D02*
X0176762Y0137200D01*
X0178697Y0137200D02*
X0181366Y0137200D01*
X0180031Y0137200D02*
X0180031Y0141203D01*
X0178697Y0139869D01*
X0183301Y0140536D02*
X0183968Y0141203D01*
X0185303Y0141203D01*
X0185970Y0140536D01*
X0183301Y0137867D01*
X0183968Y0137200D01*
X0185303Y0137200D01*
X0185970Y0137867D01*
X0185970Y0140536D01*
X0183301Y0140536D02*
X0183301Y0137867D01*
X0178826Y0148500D02*
X0179493Y0149167D01*
X0179493Y0150502D01*
X0178826Y0151169D01*
X0177491Y0153104D02*
X0177491Y0155773D01*
X0175490Y0155106D02*
X0177491Y0153104D01*
X0176157Y0151169D02*
X0175490Y0150502D01*
X0175490Y0149167D01*
X0176157Y0148500D01*
X0178826Y0148500D01*
X0179493Y0155106D02*
X0175490Y0155106D01*
X0177153Y0168050D02*
X0177153Y0172053D01*
X0175151Y0170052D01*
X0177820Y0170052D01*
X0173216Y0168050D02*
X0170547Y0168050D01*
X0171881Y0168050D02*
X0171881Y0172053D01*
X0170547Y0170719D01*
X0168612Y0171386D02*
X0167945Y0172053D01*
X0165943Y0172053D01*
X0165943Y0168050D01*
X0167945Y0168050D01*
X0168612Y0168717D01*
X0168612Y0171386D01*
X0200193Y0165303D02*
X0200193Y0161300D01*
X0200193Y0162634D02*
X0202195Y0162634D01*
X0202862Y0163302D01*
X0202862Y0164636D01*
X0202195Y0165303D01*
X0200193Y0165303D01*
X0201527Y0162634D02*
X0202862Y0161300D01*
X0204797Y0161300D02*
X0207466Y0161300D01*
X0206131Y0161300D02*
X0206131Y0165303D01*
X0204797Y0163969D01*
X0209401Y0163969D02*
X0210735Y0165303D01*
X0210735Y0161300D01*
X0209401Y0161300D02*
X0212070Y0161300D01*
X0215281Y0160403D02*
X0217283Y0160403D01*
X0217950Y0159736D01*
X0217950Y0158402D01*
X0217283Y0157734D01*
X0215281Y0157734D01*
X0215281Y0156400D02*
X0215281Y0160403D01*
X0216616Y0157734D02*
X0217950Y0156400D01*
X0219885Y0156400D02*
X0222554Y0156400D01*
X0221220Y0156400D02*
X0221220Y0160403D01*
X0219885Y0159069D01*
X0224489Y0159736D02*
X0225156Y0160403D01*
X0226491Y0160403D01*
X0227158Y0159736D01*
X0227158Y0159069D01*
X0224489Y0156400D01*
X0227158Y0156400D01*
X0238081Y0155403D02*
X0238081Y0151400D01*
X0238081Y0152734D02*
X0240083Y0152734D01*
X0240750Y0153402D01*
X0240750Y0154736D01*
X0240083Y0155403D01*
X0238081Y0155403D01*
X0239416Y0152734D02*
X0240750Y0151400D01*
X0242685Y0151400D02*
X0245354Y0151400D01*
X0244020Y0151400D02*
X0244020Y0155403D01*
X0242685Y0154069D01*
X0247289Y0154736D02*
X0247956Y0155403D01*
X0249291Y0155403D01*
X0249958Y0154736D01*
X0249958Y0154069D01*
X0249291Y0153402D01*
X0249958Y0152734D01*
X0249958Y0152067D01*
X0249291Y0151400D01*
X0247956Y0151400D01*
X0247289Y0152067D01*
X0248624Y0153402D02*
X0249291Y0153402D01*
X0271821Y0172480D02*
X0271821Y0176483D01*
X0273823Y0176483D01*
X0274490Y0175816D01*
X0274490Y0174482D01*
X0273823Y0173814D01*
X0271821Y0173814D01*
X0273156Y0173814D02*
X0274490Y0172480D01*
X0276425Y0174482D02*
X0279094Y0174482D01*
X0278427Y0176483D02*
X0276425Y0174482D01*
X0278427Y0176483D02*
X0278427Y0172480D01*
X0281029Y0173147D02*
X0281696Y0172480D01*
X0283031Y0172480D01*
X0283698Y0173147D01*
X0283698Y0173814D01*
X0283031Y0174482D01*
X0282364Y0174482D01*
X0283031Y0174482D02*
X0283698Y0175149D01*
X0283698Y0175816D01*
X0283031Y0176483D01*
X0281696Y0176483D01*
X0281029Y0175816D01*
X0274526Y0187692D02*
X0271857Y0187692D01*
X0271190Y0188359D01*
X0271190Y0189694D01*
X0271857Y0190361D01*
X0271190Y0192296D02*
X0271190Y0194965D01*
X0271857Y0194965D01*
X0274526Y0192296D01*
X0275193Y0192296D01*
X0274526Y0190361D02*
X0275193Y0189694D01*
X0275193Y0188359D01*
X0274526Y0187692D01*
X0299677Y0170003D02*
X0299677Y0166000D01*
X0302346Y0166000D01*
X0304281Y0166000D02*
X0306950Y0166000D01*
X0308885Y0166000D02*
X0310887Y0166000D01*
X0311554Y0166667D01*
X0311554Y0169336D01*
X0310887Y0170003D01*
X0308885Y0170003D01*
X0308885Y0166000D01*
X0305616Y0168002D02*
X0304281Y0168002D01*
X0304281Y0170003D02*
X0304281Y0166000D01*
X0304281Y0170003D02*
X0306950Y0170003D01*
X0313489Y0168669D02*
X0314824Y0170003D01*
X0314824Y0166000D01*
X0316158Y0166000D02*
X0313489Y0166000D01*
X0314556Y0150203D02*
X0313889Y0149536D01*
X0314556Y0150203D02*
X0315891Y0150203D01*
X0316558Y0149536D01*
X0316558Y0148869D01*
X0313889Y0146200D01*
X0316558Y0146200D01*
X0311954Y0146867D02*
X0311954Y0149536D01*
X0311287Y0150203D01*
X0309285Y0150203D01*
X0309285Y0146200D01*
X0311287Y0146200D01*
X0311954Y0146867D01*
X0314897Y0127723D02*
X0314230Y0127056D01*
X0314230Y0125721D01*
X0314897Y0125054D01*
X0314897Y0127723D02*
X0315564Y0127723D01*
X0318233Y0125054D01*
X0318233Y0127723D01*
X0318233Y0123119D02*
X0318233Y0120450D01*
X0314230Y0120450D01*
X0298866Y0116800D02*
X0296197Y0116800D01*
X0297531Y0116800D02*
X0297531Y0120803D01*
X0296197Y0119469D01*
X0294262Y0120136D02*
X0293595Y0120803D01*
X0292260Y0120803D01*
X0291593Y0120136D01*
X0291593Y0117467D01*
X0292260Y0116800D01*
X0293595Y0116800D01*
X0294262Y0117467D01*
X0288308Y0121470D02*
X0288308Y0124139D01*
X0288308Y0126074D02*
X0288308Y0128743D01*
X0288308Y0127408D02*
X0284305Y0127408D01*
X0285639Y0126074D01*
X0284305Y0121470D02*
X0288308Y0121470D01*
X0289794Y0136205D02*
X0292463Y0136205D01*
X0291129Y0136205D02*
X0291129Y0140208D01*
X0289794Y0138874D01*
X0287859Y0137540D02*
X0287859Y0140208D01*
X0287859Y0137540D02*
X0286525Y0136205D01*
X0285190Y0137540D01*
X0285190Y0140208D01*
X0282866Y0152689D02*
X0278863Y0152689D01*
X0278863Y0154691D01*
X0279530Y0155358D01*
X0282199Y0155358D01*
X0282866Y0154691D01*
X0282866Y0152689D01*
X0282866Y0157293D02*
X0282866Y0159962D01*
X0282866Y0158628D02*
X0278863Y0158628D01*
X0280197Y0157293D01*
X0225193Y0201255D02*
X0225193Y0202590D01*
X0224526Y0203257D01*
X0221190Y0203257D01*
X0222524Y0205192D02*
X0221190Y0206527D01*
X0225193Y0206527D01*
X0225193Y0207861D02*
X0225193Y0205192D01*
X0224526Y0209796D02*
X0225193Y0210463D01*
X0225193Y0211798D01*
X0224526Y0212465D01*
X0223859Y0212465D01*
X0223191Y0211798D01*
X0223191Y0211131D01*
X0223191Y0211798D02*
X0222524Y0212465D01*
X0221857Y0212465D01*
X0221190Y0211798D01*
X0221190Y0210463D01*
X0221857Y0209796D01*
X0211993Y0208957D02*
X0210659Y0207623D01*
X0210659Y0208290D02*
X0210659Y0206288D01*
X0211993Y0206288D02*
X0207990Y0206288D01*
X0207990Y0208290D01*
X0208657Y0208957D01*
X0209991Y0208957D01*
X0210659Y0208290D01*
X0211993Y0210892D02*
X0207990Y0213561D01*
X0209324Y0215496D02*
X0207990Y0216831D01*
X0211993Y0216831D01*
X0211993Y0218165D02*
X0211993Y0215496D01*
X0211993Y0213561D02*
X0207990Y0210892D01*
X0195058Y0207686D02*
X0195058Y0205017D01*
X0194391Y0204350D01*
X0193056Y0204350D01*
X0192389Y0205017D01*
X0193056Y0206352D02*
X0195058Y0206352D01*
X0195058Y0207686D02*
X0194391Y0208353D01*
X0193056Y0208353D01*
X0192389Y0207686D01*
X0192389Y0207019D01*
X0193056Y0206352D01*
X0190454Y0207019D02*
X0189787Y0206352D01*
X0190454Y0205684D01*
X0190454Y0205017D01*
X0189787Y0204350D01*
X0188452Y0204350D01*
X0187785Y0205017D01*
X0189120Y0206352D02*
X0189787Y0206352D01*
X0190454Y0207019D02*
X0190454Y0207686D01*
X0189787Y0208353D01*
X0188452Y0208353D01*
X0187785Y0207686D01*
X0185850Y0207686D02*
X0185850Y0206352D01*
X0185183Y0205684D01*
X0183181Y0205684D01*
X0183181Y0204350D02*
X0183181Y0208353D01*
X0185183Y0208353D01*
X0185850Y0207686D01*
X0184516Y0205684D02*
X0185850Y0204350D01*
X0167528Y0206652D02*
X0167530Y0206719D01*
X0167536Y0206785D01*
X0167546Y0206851D01*
X0167560Y0206916D01*
X0167577Y0206980D01*
X0167599Y0207043D01*
X0167624Y0207105D01*
X0167653Y0207165D01*
X0167686Y0207223D01*
X0167721Y0207279D01*
X0167761Y0207333D01*
X0167803Y0207384D01*
X0167848Y0207433D01*
X0167896Y0207479D01*
X0167947Y0207522D01*
X0168000Y0207562D01*
X0168056Y0207599D01*
X0168114Y0207632D01*
X0168173Y0207662D01*
X0168234Y0207688D01*
X0168297Y0207711D01*
X0168361Y0207729D01*
X0168426Y0207744D01*
X0168492Y0207755D01*
X0168558Y0207762D01*
X0168624Y0207765D01*
X0168691Y0207764D01*
X0168757Y0207759D01*
X0168823Y0207750D01*
X0168889Y0207737D01*
X0168953Y0207720D01*
X0169016Y0207700D01*
X0169078Y0207675D01*
X0169139Y0207647D01*
X0169198Y0207616D01*
X0169254Y0207581D01*
X0169309Y0207543D01*
X0169361Y0207501D01*
X0169410Y0207456D01*
X0169457Y0207409D01*
X0169501Y0207359D01*
X0169541Y0207306D01*
X0169579Y0207251D01*
X0169613Y0207194D01*
X0169644Y0207135D01*
X0169671Y0207074D01*
X0169694Y0207012D01*
X0169714Y0206948D01*
X0169730Y0206883D01*
X0169742Y0206818D01*
X0169750Y0206752D01*
X0169754Y0206685D01*
X0169754Y0206619D01*
X0169750Y0206552D01*
X0169742Y0206486D01*
X0169730Y0206421D01*
X0169714Y0206356D01*
X0169694Y0206292D01*
X0169671Y0206230D01*
X0169644Y0206169D01*
X0169613Y0206110D01*
X0169579Y0206053D01*
X0169541Y0205998D01*
X0169501Y0205945D01*
X0169457Y0205895D01*
X0169410Y0205848D01*
X0169361Y0205803D01*
X0169309Y0205761D01*
X0169254Y0205723D01*
X0169197Y0205688D01*
X0169139Y0205657D01*
X0169078Y0205629D01*
X0169016Y0205604D01*
X0168953Y0205584D01*
X0168889Y0205567D01*
X0168823Y0205554D01*
X0168757Y0205545D01*
X0168691Y0205540D01*
X0168624Y0205539D01*
X0168558Y0205542D01*
X0168492Y0205549D01*
X0168426Y0205560D01*
X0168361Y0205575D01*
X0168297Y0205593D01*
X0168234Y0205616D01*
X0168173Y0205642D01*
X0168114Y0205672D01*
X0168056Y0205705D01*
X0168000Y0205742D01*
X0167947Y0205782D01*
X0167896Y0205825D01*
X0167848Y0205871D01*
X0167803Y0205920D01*
X0167761Y0205971D01*
X0167721Y0206025D01*
X0167686Y0206081D01*
X0167653Y0206139D01*
X0167624Y0206199D01*
X0167599Y0206261D01*
X0167577Y0206324D01*
X0167560Y0206388D01*
X0167546Y0206453D01*
X0167536Y0206519D01*
X0167530Y0206585D01*
X0167528Y0206652D01*
X0204893Y0193503D02*
X0204893Y0189500D01*
X0207562Y0189500D01*
X0209497Y0189500D02*
X0209497Y0193503D01*
X0212166Y0193503D01*
X0214101Y0193503D02*
X0216103Y0193503D01*
X0216770Y0192836D01*
X0216770Y0190167D01*
X0216103Y0189500D01*
X0214101Y0189500D01*
X0214101Y0193503D01*
X0210831Y0191502D02*
X0209497Y0191502D01*
X0209497Y0189500D02*
X0212166Y0189500D01*
X0218705Y0189500D02*
X0218705Y0190167D01*
X0221374Y0192836D01*
X0221374Y0193503D01*
X0218705Y0193503D01*
X0221190Y0200588D02*
X0224526Y0200588D01*
X0225193Y0201255D01*
X0240193Y0225900D02*
X0240193Y0229903D01*
X0242195Y0229903D01*
X0242862Y0229236D01*
X0242862Y0227902D01*
X0242195Y0227234D01*
X0240193Y0227234D01*
X0241527Y0227234D02*
X0242862Y0225900D01*
X0244797Y0226567D02*
X0244797Y0227234D01*
X0245464Y0227902D01*
X0246799Y0227902D01*
X0247466Y0227234D01*
X0247466Y0226567D01*
X0246799Y0225900D01*
X0245464Y0225900D01*
X0244797Y0226567D01*
X0245464Y0227902D02*
X0244797Y0228569D01*
X0244797Y0229236D01*
X0245464Y0229903D01*
X0246799Y0229903D01*
X0247466Y0229236D01*
X0247466Y0228569D01*
X0246799Y0227902D01*
X0249401Y0228569D02*
X0250735Y0229903D01*
X0250735Y0225900D01*
X0249401Y0225900D02*
X0252070Y0225900D01*
X0251690Y0236288D02*
X0251690Y0238957D01*
X0251690Y0237623D02*
X0255693Y0237623D01*
X0255693Y0240892D02*
X0251690Y0243561D01*
X0253024Y0245496D02*
X0251690Y0246831D01*
X0255693Y0246831D01*
X0255693Y0248165D02*
X0255693Y0245496D01*
X0255693Y0243561D02*
X0251690Y0240892D01*
X0233870Y0248600D02*
X0231201Y0248600D01*
X0233870Y0251269D01*
X0233870Y0251936D01*
X0233203Y0252603D01*
X0231868Y0252603D01*
X0231201Y0251936D01*
X0229266Y0251936D02*
X0229266Y0251269D01*
X0228599Y0250602D01*
X0227264Y0250602D01*
X0226597Y0251269D01*
X0226597Y0251936D01*
X0227264Y0252603D01*
X0228599Y0252603D01*
X0229266Y0251936D01*
X0228599Y0250602D02*
X0229266Y0249934D01*
X0229266Y0249267D01*
X0228599Y0248600D01*
X0227264Y0248600D01*
X0226597Y0249267D01*
X0226597Y0249934D01*
X0227264Y0250602D01*
X0224662Y0250602D02*
X0223995Y0249934D01*
X0221993Y0249934D01*
X0221993Y0248600D02*
X0221993Y0252603D01*
X0223995Y0252603D01*
X0224662Y0251936D01*
X0224662Y0250602D01*
X0223327Y0249934D02*
X0224662Y0248600D01*
X0214356Y0242506D02*
X0214356Y0241171D01*
X0213689Y0240504D01*
X0213022Y0240504D01*
X0212354Y0241171D01*
X0212354Y0242506D01*
X0213022Y0243173D01*
X0213689Y0243173D01*
X0214356Y0242506D01*
X0212354Y0242506D02*
X0211687Y0243173D01*
X0211020Y0243173D01*
X0210353Y0242506D01*
X0210353Y0241171D01*
X0211020Y0240504D01*
X0211687Y0240504D01*
X0212354Y0241171D01*
X0211020Y0238569D02*
X0210353Y0237902D01*
X0210353Y0236567D01*
X0211020Y0235900D01*
X0213689Y0235900D01*
X0214356Y0236567D01*
X0214356Y0237902D01*
X0213689Y0238569D01*
X0243860Y0269200D02*
X0243193Y0269867D01*
X0243860Y0269200D02*
X0244527Y0269200D01*
X0245195Y0269867D01*
X0245195Y0273203D01*
X0245862Y0273203D02*
X0244527Y0273203D01*
X0247797Y0273203D02*
X0247797Y0269200D01*
X0247797Y0270534D02*
X0249799Y0270534D01*
X0250466Y0271202D01*
X0250466Y0272536D01*
X0249799Y0273203D01*
X0247797Y0273203D01*
X0252401Y0271869D02*
X0253735Y0273203D01*
X0253735Y0269200D01*
X0252401Y0269200D02*
X0255070Y0269200D01*
X0270410Y0263228D02*
X0270410Y0261893D01*
X0271077Y0261226D01*
X0273746Y0261226D01*
X0271077Y0263895D01*
X0273746Y0263895D01*
X0274413Y0263228D01*
X0274413Y0261893D01*
X0273746Y0261226D01*
X0273746Y0259291D02*
X0274413Y0258624D01*
X0274413Y0257289D01*
X0273746Y0256622D01*
X0273079Y0256622D01*
X0272411Y0257289D01*
X0272411Y0258624D01*
X0273079Y0259291D01*
X0273746Y0259291D01*
X0272411Y0258624D02*
X0271744Y0259291D01*
X0271077Y0259291D01*
X0270410Y0258624D01*
X0270410Y0257289D01*
X0271077Y0256622D01*
X0271744Y0256622D01*
X0272411Y0257289D01*
X0271077Y0254687D02*
X0270410Y0254020D01*
X0270410Y0252685D01*
X0271077Y0252018D01*
X0273746Y0252018D01*
X0274413Y0252685D01*
X0274413Y0254020D01*
X0273746Y0254687D01*
X0270410Y0263228D02*
X0271077Y0263895D01*
X0293793Y0245603D02*
X0293793Y0242267D01*
X0294460Y0241600D01*
X0295795Y0241600D01*
X0296462Y0242267D01*
X0296462Y0245603D01*
X0298397Y0244269D02*
X0299731Y0245603D01*
X0299731Y0241600D01*
X0298397Y0241600D02*
X0301066Y0241600D01*
X0303001Y0241600D02*
X0305670Y0244269D01*
X0305670Y0244936D01*
X0305003Y0245603D01*
X0303668Y0245603D01*
X0303001Y0244936D01*
X0303001Y0241600D02*
X0305670Y0241600D01*
X0223958Y0272767D02*
X0223958Y0275436D01*
X0223291Y0276103D01*
X0221956Y0276103D01*
X0221289Y0275436D01*
X0221289Y0274769D01*
X0221956Y0274102D01*
X0223958Y0274102D01*
X0223958Y0272767D02*
X0223291Y0272100D01*
X0221956Y0272100D01*
X0221289Y0272767D01*
X0219354Y0274102D02*
X0218687Y0273434D01*
X0216685Y0273434D01*
X0216685Y0272100D02*
X0216685Y0276103D01*
X0218687Y0276103D01*
X0219354Y0275436D01*
X0219354Y0274102D01*
X0214750Y0276103D02*
X0213416Y0276103D01*
X0214083Y0276103D02*
X0214083Y0272767D01*
X0213416Y0272100D01*
X0212748Y0272100D01*
X0212081Y0272767D01*
X0166893Y0292167D02*
X0166893Y0293502D01*
X0166226Y0294169D01*
X0166893Y0296104D02*
X0164224Y0298773D01*
X0163557Y0298773D01*
X0162890Y0298106D01*
X0162890Y0296771D01*
X0163557Y0296104D01*
X0163557Y0294169D02*
X0162890Y0293502D01*
X0162890Y0292167D01*
X0163557Y0291500D01*
X0166226Y0291500D01*
X0166893Y0292167D01*
X0166893Y0296104D02*
X0166893Y0298773D01*
X0166893Y0300708D02*
X0166893Y0303377D01*
X0166893Y0302042D02*
X0162890Y0302042D01*
X0164224Y0300708D01*
X0146293Y0298677D02*
X0146293Y0296008D01*
X0143624Y0298677D01*
X0142957Y0298677D01*
X0142290Y0298010D01*
X0142290Y0296675D01*
X0142957Y0296008D01*
X0142957Y0294073D02*
X0142290Y0293406D01*
X0142290Y0292071D01*
X0142957Y0291404D01*
X0142957Y0289469D02*
X0142290Y0288802D01*
X0142290Y0287467D01*
X0142957Y0286800D01*
X0145626Y0286800D01*
X0146293Y0287467D01*
X0146293Y0288802D01*
X0145626Y0289469D01*
X0146293Y0291404D02*
X0143624Y0294073D01*
X0142957Y0294073D01*
X0146293Y0294073D02*
X0146293Y0291404D01*
X0137970Y0293617D02*
X0137303Y0292950D01*
X0135968Y0292950D01*
X0135301Y0293617D01*
X0137970Y0296286D01*
X0137970Y0293617D01*
X0135301Y0293617D02*
X0135301Y0296286D01*
X0135968Y0296953D01*
X0137303Y0296953D01*
X0137970Y0296286D01*
X0133366Y0294952D02*
X0130697Y0294952D01*
X0132699Y0296953D01*
X0132699Y0292950D01*
X0128762Y0292950D02*
X0127427Y0294284D01*
X0128095Y0294284D02*
X0126093Y0294284D01*
X0126093Y0292950D02*
X0126093Y0296953D01*
X0128095Y0296953D01*
X0128762Y0296286D01*
X0128762Y0294952D01*
X0128095Y0294284D01*
X0121761Y0291103D02*
X0120426Y0289769D01*
X0121761Y0291103D02*
X0121761Y0287100D01*
X0123095Y0287100D02*
X0120426Y0287100D01*
X0117824Y0287767D02*
X0117824Y0291103D01*
X0117157Y0291103D02*
X0118491Y0291103D01*
X0117824Y0287767D02*
X0117157Y0287100D01*
X0116489Y0287100D01*
X0115822Y0287767D01*
X0113887Y0287767D02*
X0113220Y0287100D01*
X0111885Y0287100D01*
X0111218Y0287767D01*
X0111885Y0289102D02*
X0113220Y0289102D01*
X0113887Y0288434D01*
X0113887Y0287767D01*
X0111885Y0289102D02*
X0111218Y0289769D01*
X0111218Y0290436D01*
X0111885Y0291103D01*
X0113220Y0291103D01*
X0113887Y0290436D01*
X0112683Y0274453D02*
X0110681Y0274453D01*
X0110681Y0270450D01*
X0110681Y0271784D02*
X0112683Y0271784D01*
X0113350Y0272452D01*
X0113350Y0273786D01*
X0112683Y0274453D01*
X0112016Y0271784D02*
X0113350Y0270450D01*
X0115285Y0272452D02*
X0117954Y0272452D01*
X0119889Y0273119D02*
X0121224Y0274453D01*
X0121224Y0270450D01*
X0122558Y0270450D02*
X0119889Y0270450D01*
X0117287Y0270450D02*
X0117287Y0274453D01*
X0115285Y0272452D01*
X0147490Y0274263D02*
X0147490Y0275598D01*
X0148157Y0276265D01*
X0148824Y0276265D01*
X0149491Y0275598D01*
X0150159Y0276265D01*
X0150826Y0276265D01*
X0151493Y0275598D01*
X0151493Y0274263D01*
X0150826Y0273596D01*
X0149491Y0274931D02*
X0149491Y0275598D01*
X0148157Y0273596D02*
X0147490Y0274263D01*
X0151493Y0271661D02*
X0151493Y0268992D01*
X0147490Y0268992D01*
X0132326Y0159073D02*
X0132993Y0158406D01*
X0132993Y0157071D01*
X0132326Y0156404D01*
X0130991Y0156404D02*
X0130324Y0157738D01*
X0130324Y0158406D01*
X0130991Y0159073D01*
X0132326Y0159073D01*
X0130991Y0156404D02*
X0128990Y0156404D01*
X0128990Y0159073D01*
X0129657Y0154469D02*
X0128990Y0153802D01*
X0128990Y0152467D01*
X0129657Y0151800D01*
X0132326Y0151800D01*
X0132993Y0152467D01*
X0132993Y0153802D01*
X0132326Y0154469D01*
X0124826Y0115773D02*
X0124159Y0115773D01*
X0123491Y0115106D01*
X0123491Y0113104D01*
X0124826Y0113104D01*
X0125493Y0113771D01*
X0125493Y0115106D01*
X0124826Y0115773D01*
X0122157Y0114438D02*
X0123491Y0113104D01*
X0122157Y0114438D02*
X0121490Y0115773D01*
X0122157Y0111169D02*
X0121490Y0110502D01*
X0121490Y0109167D01*
X0122157Y0108500D01*
X0124826Y0108500D01*
X0125493Y0109167D01*
X0125493Y0110502D01*
X0124826Y0111169D01*
X0194490Y0099498D02*
X0194490Y0098163D01*
X0195157Y0097496D01*
X0195824Y0097496D01*
X0196491Y0098163D01*
X0196491Y0100165D01*
X0195157Y0100165D02*
X0194490Y0099498D01*
X0195157Y0100165D02*
X0197826Y0100165D01*
X0198493Y0099498D01*
X0198493Y0098163D01*
X0197826Y0097496D01*
X0198493Y0095561D02*
X0197159Y0094227D01*
X0197159Y0094894D02*
X0197159Y0092892D01*
X0198493Y0092892D02*
X0194490Y0092892D01*
X0194490Y0094894D01*
X0195157Y0095561D01*
X0196491Y0095561D01*
X0197159Y0094894D01*
X0211090Y0094694D02*
X0211757Y0095361D01*
X0213091Y0095361D01*
X0213759Y0094694D01*
X0213759Y0092692D01*
X0215093Y0092692D02*
X0211090Y0092692D01*
X0211090Y0094694D01*
X0211757Y0097296D02*
X0211090Y0097963D01*
X0211090Y0099298D01*
X0211757Y0099965D01*
X0212424Y0099965D01*
X0213091Y0099298D01*
X0213091Y0097963D01*
X0212424Y0097296D01*
X0211757Y0097296D01*
X0213091Y0097963D02*
X0213759Y0097296D01*
X0214426Y0097296D01*
X0215093Y0097963D01*
X0215093Y0099298D01*
X0214426Y0099965D01*
X0213759Y0099965D01*
X0213091Y0099298D01*
X0215093Y0095361D02*
X0213759Y0094027D01*
X0227190Y0094794D02*
X0227857Y0095461D01*
X0229191Y0095461D01*
X0229859Y0094794D01*
X0229859Y0092792D01*
X0231193Y0092792D02*
X0227190Y0092792D01*
X0227190Y0094794D01*
X0227190Y0097396D02*
X0227190Y0100065D01*
X0227857Y0100065D01*
X0230526Y0097396D01*
X0231193Y0097396D01*
X0231193Y0095461D02*
X0229859Y0094127D01*
X0244590Y0094663D02*
X0245257Y0093996D01*
X0244590Y0094663D02*
X0244590Y0095998D01*
X0245257Y0096665D01*
X0245924Y0096665D01*
X0248593Y0093996D01*
X0248593Y0096665D01*
X0248593Y0092061D02*
X0247259Y0090727D01*
X0247259Y0091394D02*
X0247259Y0089392D01*
X0248593Y0089392D02*
X0244590Y0089392D01*
X0244590Y0091394D01*
X0245257Y0092061D01*
X0246591Y0092061D01*
X0247259Y0091394D01*
X0312293Y0021903D02*
X0314295Y0021903D01*
X0314962Y0021236D01*
X0314962Y0019902D01*
X0314295Y0019234D01*
X0312293Y0019234D01*
X0312293Y0017900D02*
X0312293Y0021903D01*
X0313627Y0019234D02*
X0314962Y0017900D01*
X0316897Y0018567D02*
X0317564Y0017900D01*
X0318231Y0017900D01*
X0318899Y0018567D01*
X0318899Y0021903D01*
X0319566Y0021903D02*
X0318231Y0021903D01*
X0049450Y0086500D02*
X0046781Y0086500D01*
X0046781Y0088502D02*
X0048116Y0088502D01*
X0042177Y0090503D02*
X0042177Y0086500D01*
D11*
X0041393Y0014500D02*
X0041393Y0304500D01*
X0321393Y0304500D01*
X0321393Y0014500D01*
X0041393Y0014500D01*
X0095763Y0014500D02*
X0267023Y0014500D01*
X0321393Y0084500D02*
X0041393Y0084500D01*
X0054633Y0103000D02*
X0054635Y0103058D01*
X0054641Y0103116D01*
X0054651Y0103173D01*
X0054664Y0103230D01*
X0054682Y0103285D01*
X0054703Y0103339D01*
X0054727Y0103392D01*
X0054756Y0103443D01*
X0054787Y0103491D01*
X0054822Y0103538D01*
X0054860Y0103582D01*
X0054900Y0103623D01*
X0054944Y0103662D01*
X0054990Y0103697D01*
X0055038Y0103730D01*
X0055088Y0103759D01*
X0055141Y0103784D01*
X0055194Y0103806D01*
X0055249Y0103825D01*
X0055306Y0103839D01*
X0055363Y0103850D01*
X0055420Y0103857D01*
X0055478Y0103860D01*
X0055537Y0103859D01*
X0055594Y0103854D01*
X0055652Y0103845D01*
X0055709Y0103833D01*
X0055764Y0103816D01*
X0055819Y0103796D01*
X0055872Y0103772D01*
X0055923Y0103745D01*
X0055972Y0103714D01*
X0056019Y0103680D01*
X0056064Y0103643D01*
X0056106Y0103603D01*
X0056146Y0103560D01*
X0056182Y0103515D01*
X0056215Y0103467D01*
X0056245Y0103417D01*
X0056271Y0103366D01*
X0056294Y0103312D01*
X0056314Y0103257D01*
X0056329Y0103201D01*
X0056341Y0103145D01*
X0056349Y0103087D01*
X0056353Y0103029D01*
X0056353Y0102971D01*
X0056349Y0102913D01*
X0056341Y0102855D01*
X0056329Y0102799D01*
X0056314Y0102743D01*
X0056294Y0102688D01*
X0056271Y0102634D01*
X0056245Y0102583D01*
X0056215Y0102533D01*
X0056182Y0102485D01*
X0056146Y0102440D01*
X0056106Y0102397D01*
X0056064Y0102357D01*
X0056019Y0102320D01*
X0055972Y0102286D01*
X0055923Y0102255D01*
X0055872Y0102228D01*
X0055819Y0102204D01*
X0055764Y0102184D01*
X0055709Y0102167D01*
X0055652Y0102155D01*
X0055594Y0102146D01*
X0055537Y0102141D01*
X0055478Y0102140D01*
X0055420Y0102143D01*
X0055363Y0102150D01*
X0055306Y0102161D01*
X0055249Y0102175D01*
X0055194Y0102194D01*
X0055141Y0102216D01*
X0055088Y0102241D01*
X0055038Y0102270D01*
X0054990Y0102303D01*
X0054944Y0102338D01*
X0054900Y0102377D01*
X0054860Y0102418D01*
X0054822Y0102462D01*
X0054787Y0102509D01*
X0054756Y0102557D01*
X0054727Y0102608D01*
X0054703Y0102661D01*
X0054682Y0102715D01*
X0054664Y0102770D01*
X0054651Y0102827D01*
X0054641Y0102884D01*
X0054635Y0102942D01*
X0054633Y0103000D01*
X0055393Y0103000D02*
X0055395Y0103020D01*
X0055401Y0103038D01*
X0055410Y0103056D01*
X0055422Y0103071D01*
X0055437Y0103083D01*
X0055455Y0103092D01*
X0055473Y0103098D01*
X0055493Y0103100D01*
X0055513Y0103098D01*
X0055531Y0103092D01*
X0055549Y0103083D01*
X0055564Y0103071D01*
X0055576Y0103056D01*
X0055585Y0103038D01*
X0055591Y0103020D01*
X0055593Y0103000D01*
X0055591Y0102980D01*
X0055585Y0102962D01*
X0055576Y0102944D01*
X0055564Y0102929D01*
X0055549Y0102917D01*
X0055531Y0102908D01*
X0055513Y0102902D01*
X0055493Y0102900D01*
X0055473Y0102902D01*
X0055455Y0102908D01*
X0055437Y0102917D01*
X0055422Y0102929D01*
X0055410Y0102944D01*
X0055401Y0102962D01*
X0055395Y0102980D01*
X0055393Y0103000D01*
X0054993Y0103000D02*
X0054995Y0103044D01*
X0055001Y0103088D01*
X0055011Y0103131D01*
X0055024Y0103173D01*
X0055041Y0103214D01*
X0055062Y0103253D01*
X0055086Y0103290D01*
X0055113Y0103325D01*
X0055143Y0103357D01*
X0055176Y0103387D01*
X0055212Y0103413D01*
X0055249Y0103437D01*
X0055289Y0103456D01*
X0055330Y0103473D01*
X0055373Y0103485D01*
X0055416Y0103494D01*
X0055460Y0103499D01*
X0055504Y0103500D01*
X0055548Y0103497D01*
X0055592Y0103490D01*
X0055635Y0103479D01*
X0055677Y0103465D01*
X0055717Y0103447D01*
X0055756Y0103425D01*
X0055792Y0103401D01*
X0055826Y0103373D01*
X0055858Y0103342D01*
X0055887Y0103308D01*
X0055913Y0103272D01*
X0055935Y0103234D01*
X0055954Y0103194D01*
X0055969Y0103152D01*
X0055981Y0103110D01*
X0055989Y0103066D01*
X0055993Y0103022D01*
X0055993Y0102978D01*
X0055989Y0102934D01*
X0055981Y0102890D01*
X0055969Y0102848D01*
X0055954Y0102806D01*
X0055935Y0102766D01*
X0055913Y0102728D01*
X0055887Y0102692D01*
X0055858Y0102658D01*
X0055826Y0102627D01*
X0055792Y0102599D01*
X0055756Y0102575D01*
X0055717Y0102553D01*
X0055677Y0102535D01*
X0055635Y0102521D01*
X0055592Y0102510D01*
X0055548Y0102503D01*
X0055504Y0102500D01*
X0055460Y0102501D01*
X0055416Y0102506D01*
X0055373Y0102515D01*
X0055330Y0102527D01*
X0055289Y0102544D01*
X0055249Y0102563D01*
X0055212Y0102587D01*
X0055176Y0102613D01*
X0055143Y0102643D01*
X0055113Y0102675D01*
X0055086Y0102710D01*
X0055062Y0102747D01*
X0055041Y0102786D01*
X0055024Y0102827D01*
X0055011Y0102869D01*
X0055001Y0102912D01*
X0054995Y0102956D01*
X0054993Y0103000D01*
X0063062Y0109319D02*
X0063064Y0109358D01*
X0063070Y0109397D01*
X0063080Y0109435D01*
X0063093Y0109472D01*
X0063110Y0109507D01*
X0063130Y0109541D01*
X0063154Y0109572D01*
X0063181Y0109601D01*
X0063210Y0109627D01*
X0063242Y0109650D01*
X0063276Y0109670D01*
X0063312Y0109686D01*
X0063349Y0109698D01*
X0063388Y0109707D01*
X0063427Y0109712D01*
X0063466Y0109713D01*
X0063505Y0109710D01*
X0063544Y0109703D01*
X0063581Y0109692D01*
X0063618Y0109678D01*
X0063653Y0109660D01*
X0063686Y0109639D01*
X0063717Y0109614D01*
X0063745Y0109587D01*
X0063770Y0109557D01*
X0063792Y0109524D01*
X0063811Y0109490D01*
X0063826Y0109454D01*
X0063838Y0109416D01*
X0063846Y0109378D01*
X0063850Y0109339D01*
X0063850Y0109299D01*
X0063846Y0109260D01*
X0063838Y0109222D01*
X0063826Y0109184D01*
X0063811Y0109148D01*
X0063792Y0109114D01*
X0063770Y0109081D01*
X0063745Y0109051D01*
X0063717Y0109024D01*
X0063686Y0108999D01*
X0063653Y0108978D01*
X0063618Y0108960D01*
X0063581Y0108946D01*
X0063544Y0108935D01*
X0063505Y0108928D01*
X0063466Y0108925D01*
X0063427Y0108926D01*
X0063388Y0108931D01*
X0063349Y0108940D01*
X0063312Y0108952D01*
X0063276Y0108968D01*
X0063242Y0108988D01*
X0063210Y0109011D01*
X0063181Y0109037D01*
X0063154Y0109066D01*
X0063130Y0109097D01*
X0063110Y0109131D01*
X0063093Y0109166D01*
X0063080Y0109203D01*
X0063070Y0109241D01*
X0063064Y0109280D01*
X0063062Y0109319D01*
X0055133Y0116500D02*
X0055135Y0116558D01*
X0055141Y0116616D01*
X0055151Y0116673D01*
X0055164Y0116730D01*
X0055182Y0116785D01*
X0055203Y0116839D01*
X0055227Y0116892D01*
X0055256Y0116943D01*
X0055287Y0116991D01*
X0055322Y0117038D01*
X0055360Y0117082D01*
X0055400Y0117123D01*
X0055444Y0117162D01*
X0055490Y0117197D01*
X0055538Y0117230D01*
X0055588Y0117259D01*
X0055641Y0117284D01*
X0055694Y0117306D01*
X0055749Y0117325D01*
X0055806Y0117339D01*
X0055863Y0117350D01*
X0055920Y0117357D01*
X0055978Y0117360D01*
X0056037Y0117359D01*
X0056094Y0117354D01*
X0056152Y0117345D01*
X0056209Y0117333D01*
X0056264Y0117316D01*
X0056319Y0117296D01*
X0056372Y0117272D01*
X0056423Y0117245D01*
X0056472Y0117214D01*
X0056519Y0117180D01*
X0056564Y0117143D01*
X0056606Y0117103D01*
X0056646Y0117060D01*
X0056682Y0117015D01*
X0056715Y0116967D01*
X0056745Y0116917D01*
X0056771Y0116866D01*
X0056794Y0116812D01*
X0056814Y0116757D01*
X0056829Y0116701D01*
X0056841Y0116645D01*
X0056849Y0116587D01*
X0056853Y0116529D01*
X0056853Y0116471D01*
X0056849Y0116413D01*
X0056841Y0116355D01*
X0056829Y0116299D01*
X0056814Y0116243D01*
X0056794Y0116188D01*
X0056771Y0116134D01*
X0056745Y0116083D01*
X0056715Y0116033D01*
X0056682Y0115985D01*
X0056646Y0115940D01*
X0056606Y0115897D01*
X0056564Y0115857D01*
X0056519Y0115820D01*
X0056472Y0115786D01*
X0056423Y0115755D01*
X0056372Y0115728D01*
X0056319Y0115704D01*
X0056264Y0115684D01*
X0056209Y0115667D01*
X0056152Y0115655D01*
X0056094Y0115646D01*
X0056037Y0115641D01*
X0055978Y0115640D01*
X0055920Y0115643D01*
X0055863Y0115650D01*
X0055806Y0115661D01*
X0055749Y0115675D01*
X0055694Y0115694D01*
X0055641Y0115716D01*
X0055588Y0115741D01*
X0055538Y0115770D01*
X0055490Y0115803D01*
X0055444Y0115838D01*
X0055400Y0115877D01*
X0055360Y0115918D01*
X0055322Y0115962D01*
X0055287Y0116009D01*
X0055256Y0116057D01*
X0055227Y0116108D01*
X0055203Y0116161D01*
X0055182Y0116215D01*
X0055164Y0116270D01*
X0055151Y0116327D01*
X0055141Y0116384D01*
X0055135Y0116442D01*
X0055133Y0116500D01*
X0055893Y0116500D02*
X0055895Y0116520D01*
X0055901Y0116538D01*
X0055910Y0116556D01*
X0055922Y0116571D01*
X0055937Y0116583D01*
X0055955Y0116592D01*
X0055973Y0116598D01*
X0055993Y0116600D01*
X0056013Y0116598D01*
X0056031Y0116592D01*
X0056049Y0116583D01*
X0056064Y0116571D01*
X0056076Y0116556D01*
X0056085Y0116538D01*
X0056091Y0116520D01*
X0056093Y0116500D01*
X0056091Y0116480D01*
X0056085Y0116462D01*
X0056076Y0116444D01*
X0056064Y0116429D01*
X0056049Y0116417D01*
X0056031Y0116408D01*
X0056013Y0116402D01*
X0055993Y0116400D01*
X0055973Y0116402D01*
X0055955Y0116408D01*
X0055937Y0116417D01*
X0055922Y0116429D01*
X0055910Y0116444D01*
X0055901Y0116462D01*
X0055895Y0116480D01*
X0055893Y0116500D01*
X0055493Y0116500D02*
X0055495Y0116544D01*
X0055501Y0116588D01*
X0055511Y0116631D01*
X0055524Y0116673D01*
X0055541Y0116714D01*
X0055562Y0116753D01*
X0055586Y0116790D01*
X0055613Y0116825D01*
X0055643Y0116857D01*
X0055676Y0116887D01*
X0055712Y0116913D01*
X0055749Y0116937D01*
X0055789Y0116956D01*
X0055830Y0116973D01*
X0055873Y0116985D01*
X0055916Y0116994D01*
X0055960Y0116999D01*
X0056004Y0117000D01*
X0056048Y0116997D01*
X0056092Y0116990D01*
X0056135Y0116979D01*
X0056177Y0116965D01*
X0056217Y0116947D01*
X0056256Y0116925D01*
X0056292Y0116901D01*
X0056326Y0116873D01*
X0056358Y0116842D01*
X0056387Y0116808D01*
X0056413Y0116772D01*
X0056435Y0116734D01*
X0056454Y0116694D01*
X0056469Y0116652D01*
X0056481Y0116610D01*
X0056489Y0116566D01*
X0056493Y0116522D01*
X0056493Y0116478D01*
X0056489Y0116434D01*
X0056481Y0116390D01*
X0056469Y0116348D01*
X0056454Y0116306D01*
X0056435Y0116266D01*
X0056413Y0116228D01*
X0056387Y0116192D01*
X0056358Y0116158D01*
X0056326Y0116127D01*
X0056292Y0116099D01*
X0056256Y0116075D01*
X0056217Y0116053D01*
X0056177Y0116035D01*
X0056135Y0116021D01*
X0056092Y0116010D01*
X0056048Y0116003D01*
X0056004Y0116000D01*
X0055960Y0116001D01*
X0055916Y0116006D01*
X0055873Y0116015D01*
X0055830Y0116027D01*
X0055789Y0116044D01*
X0055749Y0116063D01*
X0055712Y0116087D01*
X0055676Y0116113D01*
X0055643Y0116143D01*
X0055613Y0116175D01*
X0055586Y0116210D01*
X0055562Y0116247D01*
X0055541Y0116286D01*
X0055524Y0116327D01*
X0055511Y0116369D01*
X0055501Y0116412D01*
X0055495Y0116456D01*
X0055493Y0116500D01*
X0045333Y0120000D02*
X0045335Y0120058D01*
X0045341Y0120116D01*
X0045351Y0120173D01*
X0045364Y0120230D01*
X0045382Y0120285D01*
X0045403Y0120339D01*
X0045427Y0120392D01*
X0045456Y0120443D01*
X0045487Y0120491D01*
X0045522Y0120538D01*
X0045560Y0120582D01*
X0045600Y0120623D01*
X0045644Y0120662D01*
X0045690Y0120697D01*
X0045738Y0120730D01*
X0045788Y0120759D01*
X0045841Y0120784D01*
X0045894Y0120806D01*
X0045949Y0120825D01*
X0046006Y0120839D01*
X0046063Y0120850D01*
X0046120Y0120857D01*
X0046178Y0120860D01*
X0046237Y0120859D01*
X0046294Y0120854D01*
X0046352Y0120845D01*
X0046409Y0120833D01*
X0046464Y0120816D01*
X0046519Y0120796D01*
X0046572Y0120772D01*
X0046623Y0120745D01*
X0046672Y0120714D01*
X0046719Y0120680D01*
X0046764Y0120643D01*
X0046806Y0120603D01*
X0046846Y0120560D01*
X0046882Y0120515D01*
X0046915Y0120467D01*
X0046945Y0120417D01*
X0046971Y0120366D01*
X0046994Y0120312D01*
X0047014Y0120257D01*
X0047029Y0120201D01*
X0047041Y0120145D01*
X0047049Y0120087D01*
X0047053Y0120029D01*
X0047053Y0119971D01*
X0047049Y0119913D01*
X0047041Y0119855D01*
X0047029Y0119799D01*
X0047014Y0119743D01*
X0046994Y0119688D01*
X0046971Y0119634D01*
X0046945Y0119583D01*
X0046915Y0119533D01*
X0046882Y0119485D01*
X0046846Y0119440D01*
X0046806Y0119397D01*
X0046764Y0119357D01*
X0046719Y0119320D01*
X0046672Y0119286D01*
X0046623Y0119255D01*
X0046572Y0119228D01*
X0046519Y0119204D01*
X0046464Y0119184D01*
X0046409Y0119167D01*
X0046352Y0119155D01*
X0046294Y0119146D01*
X0046237Y0119141D01*
X0046178Y0119140D01*
X0046120Y0119143D01*
X0046063Y0119150D01*
X0046006Y0119161D01*
X0045949Y0119175D01*
X0045894Y0119194D01*
X0045841Y0119216D01*
X0045788Y0119241D01*
X0045738Y0119270D01*
X0045690Y0119303D01*
X0045644Y0119338D01*
X0045600Y0119377D01*
X0045560Y0119418D01*
X0045522Y0119462D01*
X0045487Y0119509D01*
X0045456Y0119557D01*
X0045427Y0119608D01*
X0045403Y0119661D01*
X0045382Y0119715D01*
X0045364Y0119770D01*
X0045351Y0119827D01*
X0045341Y0119884D01*
X0045335Y0119942D01*
X0045333Y0120000D01*
X0046093Y0120000D02*
X0046095Y0120020D01*
X0046101Y0120038D01*
X0046110Y0120056D01*
X0046122Y0120071D01*
X0046137Y0120083D01*
X0046155Y0120092D01*
X0046173Y0120098D01*
X0046193Y0120100D01*
X0046213Y0120098D01*
X0046231Y0120092D01*
X0046249Y0120083D01*
X0046264Y0120071D01*
X0046276Y0120056D01*
X0046285Y0120038D01*
X0046291Y0120020D01*
X0046293Y0120000D01*
X0046291Y0119980D01*
X0046285Y0119962D01*
X0046276Y0119944D01*
X0046264Y0119929D01*
X0046249Y0119917D01*
X0046231Y0119908D01*
X0046213Y0119902D01*
X0046193Y0119900D01*
X0046173Y0119902D01*
X0046155Y0119908D01*
X0046137Y0119917D01*
X0046122Y0119929D01*
X0046110Y0119944D01*
X0046101Y0119962D01*
X0046095Y0119980D01*
X0046093Y0120000D01*
X0045693Y0120000D02*
X0045695Y0120044D01*
X0045701Y0120088D01*
X0045711Y0120131D01*
X0045724Y0120173D01*
X0045741Y0120214D01*
X0045762Y0120253D01*
X0045786Y0120290D01*
X0045813Y0120325D01*
X0045843Y0120357D01*
X0045876Y0120387D01*
X0045912Y0120413D01*
X0045949Y0120437D01*
X0045989Y0120456D01*
X0046030Y0120473D01*
X0046073Y0120485D01*
X0046116Y0120494D01*
X0046160Y0120499D01*
X0046204Y0120500D01*
X0046248Y0120497D01*
X0046292Y0120490D01*
X0046335Y0120479D01*
X0046377Y0120465D01*
X0046417Y0120447D01*
X0046456Y0120425D01*
X0046492Y0120401D01*
X0046526Y0120373D01*
X0046558Y0120342D01*
X0046587Y0120308D01*
X0046613Y0120272D01*
X0046635Y0120234D01*
X0046654Y0120194D01*
X0046669Y0120152D01*
X0046681Y0120110D01*
X0046689Y0120066D01*
X0046693Y0120022D01*
X0046693Y0119978D01*
X0046689Y0119934D01*
X0046681Y0119890D01*
X0046669Y0119848D01*
X0046654Y0119806D01*
X0046635Y0119766D01*
X0046613Y0119728D01*
X0046587Y0119692D01*
X0046558Y0119658D01*
X0046526Y0119627D01*
X0046492Y0119599D01*
X0046456Y0119575D01*
X0046417Y0119553D01*
X0046377Y0119535D01*
X0046335Y0119521D01*
X0046292Y0119510D01*
X0046248Y0119503D01*
X0046204Y0119500D01*
X0046160Y0119501D01*
X0046116Y0119506D01*
X0046073Y0119515D01*
X0046030Y0119527D01*
X0045989Y0119544D01*
X0045949Y0119563D01*
X0045912Y0119587D01*
X0045876Y0119613D01*
X0045843Y0119643D01*
X0045813Y0119675D01*
X0045786Y0119710D01*
X0045762Y0119747D01*
X0045741Y0119786D01*
X0045724Y0119827D01*
X0045711Y0119869D01*
X0045701Y0119912D01*
X0045695Y0119956D01*
X0045693Y0120000D01*
X0102133Y0100000D02*
X0102135Y0100058D01*
X0102141Y0100116D01*
X0102151Y0100173D01*
X0102164Y0100230D01*
X0102182Y0100285D01*
X0102203Y0100339D01*
X0102227Y0100392D01*
X0102256Y0100443D01*
X0102287Y0100491D01*
X0102322Y0100538D01*
X0102360Y0100582D01*
X0102400Y0100623D01*
X0102444Y0100662D01*
X0102490Y0100697D01*
X0102538Y0100730D01*
X0102588Y0100759D01*
X0102641Y0100784D01*
X0102694Y0100806D01*
X0102749Y0100825D01*
X0102806Y0100839D01*
X0102863Y0100850D01*
X0102920Y0100857D01*
X0102978Y0100860D01*
X0103037Y0100859D01*
X0103094Y0100854D01*
X0103152Y0100845D01*
X0103209Y0100833D01*
X0103264Y0100816D01*
X0103319Y0100796D01*
X0103372Y0100772D01*
X0103423Y0100745D01*
X0103472Y0100714D01*
X0103519Y0100680D01*
X0103564Y0100643D01*
X0103606Y0100603D01*
X0103646Y0100560D01*
X0103682Y0100515D01*
X0103715Y0100467D01*
X0103745Y0100417D01*
X0103771Y0100366D01*
X0103794Y0100312D01*
X0103814Y0100257D01*
X0103829Y0100201D01*
X0103841Y0100145D01*
X0103849Y0100087D01*
X0103853Y0100029D01*
X0103853Y0099971D01*
X0103849Y0099913D01*
X0103841Y0099855D01*
X0103829Y0099799D01*
X0103814Y0099743D01*
X0103794Y0099688D01*
X0103771Y0099634D01*
X0103745Y0099583D01*
X0103715Y0099533D01*
X0103682Y0099485D01*
X0103646Y0099440D01*
X0103606Y0099397D01*
X0103564Y0099357D01*
X0103519Y0099320D01*
X0103472Y0099286D01*
X0103423Y0099255D01*
X0103372Y0099228D01*
X0103319Y0099204D01*
X0103264Y0099184D01*
X0103209Y0099167D01*
X0103152Y0099155D01*
X0103094Y0099146D01*
X0103037Y0099141D01*
X0102978Y0099140D01*
X0102920Y0099143D01*
X0102863Y0099150D01*
X0102806Y0099161D01*
X0102749Y0099175D01*
X0102694Y0099194D01*
X0102641Y0099216D01*
X0102588Y0099241D01*
X0102538Y0099270D01*
X0102490Y0099303D01*
X0102444Y0099338D01*
X0102400Y0099377D01*
X0102360Y0099418D01*
X0102322Y0099462D01*
X0102287Y0099509D01*
X0102256Y0099557D01*
X0102227Y0099608D01*
X0102203Y0099661D01*
X0102182Y0099715D01*
X0102164Y0099770D01*
X0102151Y0099827D01*
X0102141Y0099884D01*
X0102135Y0099942D01*
X0102133Y0100000D01*
X0102893Y0100000D02*
X0102895Y0100020D01*
X0102901Y0100038D01*
X0102910Y0100056D01*
X0102922Y0100071D01*
X0102937Y0100083D01*
X0102955Y0100092D01*
X0102973Y0100098D01*
X0102993Y0100100D01*
X0103013Y0100098D01*
X0103031Y0100092D01*
X0103049Y0100083D01*
X0103064Y0100071D01*
X0103076Y0100056D01*
X0103085Y0100038D01*
X0103091Y0100020D01*
X0103093Y0100000D01*
X0103091Y0099980D01*
X0103085Y0099962D01*
X0103076Y0099944D01*
X0103064Y0099929D01*
X0103049Y0099917D01*
X0103031Y0099908D01*
X0103013Y0099902D01*
X0102993Y0099900D01*
X0102973Y0099902D01*
X0102955Y0099908D01*
X0102937Y0099917D01*
X0102922Y0099929D01*
X0102910Y0099944D01*
X0102901Y0099962D01*
X0102895Y0099980D01*
X0102893Y0100000D01*
X0102493Y0100000D02*
X0102495Y0100044D01*
X0102501Y0100088D01*
X0102511Y0100131D01*
X0102524Y0100173D01*
X0102541Y0100214D01*
X0102562Y0100253D01*
X0102586Y0100290D01*
X0102613Y0100325D01*
X0102643Y0100357D01*
X0102676Y0100387D01*
X0102712Y0100413D01*
X0102749Y0100437D01*
X0102789Y0100456D01*
X0102830Y0100473D01*
X0102873Y0100485D01*
X0102916Y0100494D01*
X0102960Y0100499D01*
X0103004Y0100500D01*
X0103048Y0100497D01*
X0103092Y0100490D01*
X0103135Y0100479D01*
X0103177Y0100465D01*
X0103217Y0100447D01*
X0103256Y0100425D01*
X0103292Y0100401D01*
X0103326Y0100373D01*
X0103358Y0100342D01*
X0103387Y0100308D01*
X0103413Y0100272D01*
X0103435Y0100234D01*
X0103454Y0100194D01*
X0103469Y0100152D01*
X0103481Y0100110D01*
X0103489Y0100066D01*
X0103493Y0100022D01*
X0103493Y0099978D01*
X0103489Y0099934D01*
X0103481Y0099890D01*
X0103469Y0099848D01*
X0103454Y0099806D01*
X0103435Y0099766D01*
X0103413Y0099728D01*
X0103387Y0099692D01*
X0103358Y0099658D01*
X0103326Y0099627D01*
X0103292Y0099599D01*
X0103256Y0099575D01*
X0103217Y0099553D01*
X0103177Y0099535D01*
X0103135Y0099521D01*
X0103092Y0099510D01*
X0103048Y0099503D01*
X0103004Y0099500D01*
X0102960Y0099501D01*
X0102916Y0099506D01*
X0102873Y0099515D01*
X0102830Y0099527D01*
X0102789Y0099544D01*
X0102749Y0099563D01*
X0102712Y0099587D01*
X0102676Y0099613D01*
X0102643Y0099643D01*
X0102613Y0099675D01*
X0102586Y0099710D01*
X0102562Y0099747D01*
X0102541Y0099786D01*
X0102524Y0099827D01*
X0102511Y0099869D01*
X0102501Y0099912D01*
X0102495Y0099956D01*
X0102493Y0100000D01*
X0116233Y0097400D02*
X0116235Y0097458D01*
X0116241Y0097516D01*
X0116251Y0097573D01*
X0116264Y0097630D01*
X0116282Y0097685D01*
X0116303Y0097739D01*
X0116327Y0097792D01*
X0116356Y0097843D01*
X0116387Y0097891D01*
X0116422Y0097938D01*
X0116460Y0097982D01*
X0116500Y0098023D01*
X0116544Y0098062D01*
X0116590Y0098097D01*
X0116638Y0098130D01*
X0116688Y0098159D01*
X0116741Y0098184D01*
X0116794Y0098206D01*
X0116849Y0098225D01*
X0116906Y0098239D01*
X0116963Y0098250D01*
X0117020Y0098257D01*
X0117078Y0098260D01*
X0117137Y0098259D01*
X0117194Y0098254D01*
X0117252Y0098245D01*
X0117309Y0098233D01*
X0117364Y0098216D01*
X0117419Y0098196D01*
X0117472Y0098172D01*
X0117523Y0098145D01*
X0117572Y0098114D01*
X0117619Y0098080D01*
X0117664Y0098043D01*
X0117706Y0098003D01*
X0117746Y0097960D01*
X0117782Y0097915D01*
X0117815Y0097867D01*
X0117845Y0097817D01*
X0117871Y0097766D01*
X0117894Y0097712D01*
X0117914Y0097657D01*
X0117929Y0097601D01*
X0117941Y0097545D01*
X0117949Y0097487D01*
X0117953Y0097429D01*
X0117953Y0097371D01*
X0117949Y0097313D01*
X0117941Y0097255D01*
X0117929Y0097199D01*
X0117914Y0097143D01*
X0117894Y0097088D01*
X0117871Y0097034D01*
X0117845Y0096983D01*
X0117815Y0096933D01*
X0117782Y0096885D01*
X0117746Y0096840D01*
X0117706Y0096797D01*
X0117664Y0096757D01*
X0117619Y0096720D01*
X0117572Y0096686D01*
X0117523Y0096655D01*
X0117472Y0096628D01*
X0117419Y0096604D01*
X0117364Y0096584D01*
X0117309Y0096567D01*
X0117252Y0096555D01*
X0117194Y0096546D01*
X0117137Y0096541D01*
X0117078Y0096540D01*
X0117020Y0096543D01*
X0116963Y0096550D01*
X0116906Y0096561D01*
X0116849Y0096575D01*
X0116794Y0096594D01*
X0116741Y0096616D01*
X0116688Y0096641D01*
X0116638Y0096670D01*
X0116590Y0096703D01*
X0116544Y0096738D01*
X0116500Y0096777D01*
X0116460Y0096818D01*
X0116422Y0096862D01*
X0116387Y0096909D01*
X0116356Y0096957D01*
X0116327Y0097008D01*
X0116303Y0097061D01*
X0116282Y0097115D01*
X0116264Y0097170D01*
X0116251Y0097227D01*
X0116241Y0097284D01*
X0116235Y0097342D01*
X0116233Y0097400D01*
X0116993Y0097400D02*
X0116995Y0097420D01*
X0117001Y0097438D01*
X0117010Y0097456D01*
X0117022Y0097471D01*
X0117037Y0097483D01*
X0117055Y0097492D01*
X0117073Y0097498D01*
X0117093Y0097500D01*
X0117113Y0097498D01*
X0117131Y0097492D01*
X0117149Y0097483D01*
X0117164Y0097471D01*
X0117176Y0097456D01*
X0117185Y0097438D01*
X0117191Y0097420D01*
X0117193Y0097400D01*
X0117191Y0097380D01*
X0117185Y0097362D01*
X0117176Y0097344D01*
X0117164Y0097329D01*
X0117149Y0097317D01*
X0117131Y0097308D01*
X0117113Y0097302D01*
X0117093Y0097300D01*
X0117073Y0097302D01*
X0117055Y0097308D01*
X0117037Y0097317D01*
X0117022Y0097329D01*
X0117010Y0097344D01*
X0117001Y0097362D01*
X0116995Y0097380D01*
X0116993Y0097400D01*
X0116593Y0097400D02*
X0116595Y0097444D01*
X0116601Y0097488D01*
X0116611Y0097531D01*
X0116624Y0097573D01*
X0116641Y0097614D01*
X0116662Y0097653D01*
X0116686Y0097690D01*
X0116713Y0097725D01*
X0116743Y0097757D01*
X0116776Y0097787D01*
X0116812Y0097813D01*
X0116849Y0097837D01*
X0116889Y0097856D01*
X0116930Y0097873D01*
X0116973Y0097885D01*
X0117016Y0097894D01*
X0117060Y0097899D01*
X0117104Y0097900D01*
X0117148Y0097897D01*
X0117192Y0097890D01*
X0117235Y0097879D01*
X0117277Y0097865D01*
X0117317Y0097847D01*
X0117356Y0097825D01*
X0117392Y0097801D01*
X0117426Y0097773D01*
X0117458Y0097742D01*
X0117487Y0097708D01*
X0117513Y0097672D01*
X0117535Y0097634D01*
X0117554Y0097594D01*
X0117569Y0097552D01*
X0117581Y0097510D01*
X0117589Y0097466D01*
X0117593Y0097422D01*
X0117593Y0097378D01*
X0117589Y0097334D01*
X0117581Y0097290D01*
X0117569Y0097248D01*
X0117554Y0097206D01*
X0117535Y0097166D01*
X0117513Y0097128D01*
X0117487Y0097092D01*
X0117458Y0097058D01*
X0117426Y0097027D01*
X0117392Y0096999D01*
X0117356Y0096975D01*
X0117317Y0096953D01*
X0117277Y0096935D01*
X0117235Y0096921D01*
X0117192Y0096910D01*
X0117148Y0096903D01*
X0117104Y0096900D01*
X0117060Y0096901D01*
X0117016Y0096906D01*
X0116973Y0096915D01*
X0116930Y0096927D01*
X0116889Y0096944D01*
X0116849Y0096963D01*
X0116812Y0096987D01*
X0116776Y0097013D01*
X0116743Y0097043D01*
X0116713Y0097075D01*
X0116686Y0097110D01*
X0116662Y0097147D01*
X0116641Y0097186D01*
X0116624Y0097227D01*
X0116611Y0097269D01*
X0116601Y0097312D01*
X0116595Y0097356D01*
X0116593Y0097400D01*
X0143633Y0126500D02*
X0143635Y0126558D01*
X0143641Y0126616D01*
X0143651Y0126673D01*
X0143664Y0126730D01*
X0143682Y0126785D01*
X0143703Y0126839D01*
X0143727Y0126892D01*
X0143756Y0126943D01*
X0143787Y0126991D01*
X0143822Y0127038D01*
X0143860Y0127082D01*
X0143900Y0127123D01*
X0143944Y0127162D01*
X0143990Y0127197D01*
X0144038Y0127230D01*
X0144088Y0127259D01*
X0144141Y0127284D01*
X0144194Y0127306D01*
X0144249Y0127325D01*
X0144306Y0127339D01*
X0144363Y0127350D01*
X0144420Y0127357D01*
X0144478Y0127360D01*
X0144537Y0127359D01*
X0144594Y0127354D01*
X0144652Y0127345D01*
X0144709Y0127333D01*
X0144764Y0127316D01*
X0144819Y0127296D01*
X0144872Y0127272D01*
X0144923Y0127245D01*
X0144972Y0127214D01*
X0145019Y0127180D01*
X0145064Y0127143D01*
X0145106Y0127103D01*
X0145146Y0127060D01*
X0145182Y0127015D01*
X0145215Y0126967D01*
X0145245Y0126917D01*
X0145271Y0126866D01*
X0145294Y0126812D01*
X0145314Y0126757D01*
X0145329Y0126701D01*
X0145341Y0126645D01*
X0145349Y0126587D01*
X0145353Y0126529D01*
X0145353Y0126471D01*
X0145349Y0126413D01*
X0145341Y0126355D01*
X0145329Y0126299D01*
X0145314Y0126243D01*
X0145294Y0126188D01*
X0145271Y0126134D01*
X0145245Y0126083D01*
X0145215Y0126033D01*
X0145182Y0125985D01*
X0145146Y0125940D01*
X0145106Y0125897D01*
X0145064Y0125857D01*
X0145019Y0125820D01*
X0144972Y0125786D01*
X0144923Y0125755D01*
X0144872Y0125728D01*
X0144819Y0125704D01*
X0144764Y0125684D01*
X0144709Y0125667D01*
X0144652Y0125655D01*
X0144594Y0125646D01*
X0144537Y0125641D01*
X0144478Y0125640D01*
X0144420Y0125643D01*
X0144363Y0125650D01*
X0144306Y0125661D01*
X0144249Y0125675D01*
X0144194Y0125694D01*
X0144141Y0125716D01*
X0144088Y0125741D01*
X0144038Y0125770D01*
X0143990Y0125803D01*
X0143944Y0125838D01*
X0143900Y0125877D01*
X0143860Y0125918D01*
X0143822Y0125962D01*
X0143787Y0126009D01*
X0143756Y0126057D01*
X0143727Y0126108D01*
X0143703Y0126161D01*
X0143682Y0126215D01*
X0143664Y0126270D01*
X0143651Y0126327D01*
X0143641Y0126384D01*
X0143635Y0126442D01*
X0143633Y0126500D01*
X0144393Y0126500D02*
X0144395Y0126520D01*
X0144401Y0126538D01*
X0144410Y0126556D01*
X0144422Y0126571D01*
X0144437Y0126583D01*
X0144455Y0126592D01*
X0144473Y0126598D01*
X0144493Y0126600D01*
X0144513Y0126598D01*
X0144531Y0126592D01*
X0144549Y0126583D01*
X0144564Y0126571D01*
X0144576Y0126556D01*
X0144585Y0126538D01*
X0144591Y0126520D01*
X0144593Y0126500D01*
X0144591Y0126480D01*
X0144585Y0126462D01*
X0144576Y0126444D01*
X0144564Y0126429D01*
X0144549Y0126417D01*
X0144531Y0126408D01*
X0144513Y0126402D01*
X0144493Y0126400D01*
X0144473Y0126402D01*
X0144455Y0126408D01*
X0144437Y0126417D01*
X0144422Y0126429D01*
X0144410Y0126444D01*
X0144401Y0126462D01*
X0144395Y0126480D01*
X0144393Y0126500D01*
X0143993Y0126500D02*
X0143995Y0126544D01*
X0144001Y0126588D01*
X0144011Y0126631D01*
X0144024Y0126673D01*
X0144041Y0126714D01*
X0144062Y0126753D01*
X0144086Y0126790D01*
X0144113Y0126825D01*
X0144143Y0126857D01*
X0144176Y0126887D01*
X0144212Y0126913D01*
X0144249Y0126937D01*
X0144289Y0126956D01*
X0144330Y0126973D01*
X0144373Y0126985D01*
X0144416Y0126994D01*
X0144460Y0126999D01*
X0144504Y0127000D01*
X0144548Y0126997D01*
X0144592Y0126990D01*
X0144635Y0126979D01*
X0144677Y0126965D01*
X0144717Y0126947D01*
X0144756Y0126925D01*
X0144792Y0126901D01*
X0144826Y0126873D01*
X0144858Y0126842D01*
X0144887Y0126808D01*
X0144913Y0126772D01*
X0144935Y0126734D01*
X0144954Y0126694D01*
X0144969Y0126652D01*
X0144981Y0126610D01*
X0144989Y0126566D01*
X0144993Y0126522D01*
X0144993Y0126478D01*
X0144989Y0126434D01*
X0144981Y0126390D01*
X0144969Y0126348D01*
X0144954Y0126306D01*
X0144935Y0126266D01*
X0144913Y0126228D01*
X0144887Y0126192D01*
X0144858Y0126158D01*
X0144826Y0126127D01*
X0144792Y0126099D01*
X0144756Y0126075D01*
X0144717Y0126053D01*
X0144677Y0126035D01*
X0144635Y0126021D01*
X0144592Y0126010D01*
X0144548Y0126003D01*
X0144504Y0126000D01*
X0144460Y0126001D01*
X0144416Y0126006D01*
X0144373Y0126015D01*
X0144330Y0126027D01*
X0144289Y0126044D01*
X0144249Y0126063D01*
X0144212Y0126087D01*
X0144176Y0126113D01*
X0144143Y0126143D01*
X0144113Y0126175D01*
X0144086Y0126210D01*
X0144062Y0126247D01*
X0144041Y0126286D01*
X0144024Y0126327D01*
X0144011Y0126369D01*
X0144001Y0126412D01*
X0143995Y0126456D01*
X0143993Y0126500D01*
X0146633Y0139500D02*
X0146635Y0139558D01*
X0146641Y0139616D01*
X0146651Y0139673D01*
X0146664Y0139730D01*
X0146682Y0139785D01*
X0146703Y0139839D01*
X0146727Y0139892D01*
X0146756Y0139943D01*
X0146787Y0139991D01*
X0146822Y0140038D01*
X0146860Y0140082D01*
X0146900Y0140123D01*
X0146944Y0140162D01*
X0146990Y0140197D01*
X0147038Y0140230D01*
X0147088Y0140259D01*
X0147141Y0140284D01*
X0147194Y0140306D01*
X0147249Y0140325D01*
X0147306Y0140339D01*
X0147363Y0140350D01*
X0147420Y0140357D01*
X0147478Y0140360D01*
X0147537Y0140359D01*
X0147594Y0140354D01*
X0147652Y0140345D01*
X0147709Y0140333D01*
X0147764Y0140316D01*
X0147819Y0140296D01*
X0147872Y0140272D01*
X0147923Y0140245D01*
X0147972Y0140214D01*
X0148019Y0140180D01*
X0148064Y0140143D01*
X0148106Y0140103D01*
X0148146Y0140060D01*
X0148182Y0140015D01*
X0148215Y0139967D01*
X0148245Y0139917D01*
X0148271Y0139866D01*
X0148294Y0139812D01*
X0148314Y0139757D01*
X0148329Y0139701D01*
X0148341Y0139645D01*
X0148349Y0139587D01*
X0148353Y0139529D01*
X0148353Y0139471D01*
X0148349Y0139413D01*
X0148341Y0139355D01*
X0148329Y0139299D01*
X0148314Y0139243D01*
X0148294Y0139188D01*
X0148271Y0139134D01*
X0148245Y0139083D01*
X0148215Y0139033D01*
X0148182Y0138985D01*
X0148146Y0138940D01*
X0148106Y0138897D01*
X0148064Y0138857D01*
X0148019Y0138820D01*
X0147972Y0138786D01*
X0147923Y0138755D01*
X0147872Y0138728D01*
X0147819Y0138704D01*
X0147764Y0138684D01*
X0147709Y0138667D01*
X0147652Y0138655D01*
X0147594Y0138646D01*
X0147537Y0138641D01*
X0147478Y0138640D01*
X0147420Y0138643D01*
X0147363Y0138650D01*
X0147306Y0138661D01*
X0147249Y0138675D01*
X0147194Y0138694D01*
X0147141Y0138716D01*
X0147088Y0138741D01*
X0147038Y0138770D01*
X0146990Y0138803D01*
X0146944Y0138838D01*
X0146900Y0138877D01*
X0146860Y0138918D01*
X0146822Y0138962D01*
X0146787Y0139009D01*
X0146756Y0139057D01*
X0146727Y0139108D01*
X0146703Y0139161D01*
X0146682Y0139215D01*
X0146664Y0139270D01*
X0146651Y0139327D01*
X0146641Y0139384D01*
X0146635Y0139442D01*
X0146633Y0139500D01*
X0147393Y0139500D02*
X0147395Y0139520D01*
X0147401Y0139538D01*
X0147410Y0139556D01*
X0147422Y0139571D01*
X0147437Y0139583D01*
X0147455Y0139592D01*
X0147473Y0139598D01*
X0147493Y0139600D01*
X0147513Y0139598D01*
X0147531Y0139592D01*
X0147549Y0139583D01*
X0147564Y0139571D01*
X0147576Y0139556D01*
X0147585Y0139538D01*
X0147591Y0139520D01*
X0147593Y0139500D01*
X0147591Y0139480D01*
X0147585Y0139462D01*
X0147576Y0139444D01*
X0147564Y0139429D01*
X0147549Y0139417D01*
X0147531Y0139408D01*
X0147513Y0139402D01*
X0147493Y0139400D01*
X0147473Y0139402D01*
X0147455Y0139408D01*
X0147437Y0139417D01*
X0147422Y0139429D01*
X0147410Y0139444D01*
X0147401Y0139462D01*
X0147395Y0139480D01*
X0147393Y0139500D01*
X0146993Y0139500D02*
X0146995Y0139544D01*
X0147001Y0139588D01*
X0147011Y0139631D01*
X0147024Y0139673D01*
X0147041Y0139714D01*
X0147062Y0139753D01*
X0147086Y0139790D01*
X0147113Y0139825D01*
X0147143Y0139857D01*
X0147176Y0139887D01*
X0147212Y0139913D01*
X0147249Y0139937D01*
X0147289Y0139956D01*
X0147330Y0139973D01*
X0147373Y0139985D01*
X0147416Y0139994D01*
X0147460Y0139999D01*
X0147504Y0140000D01*
X0147548Y0139997D01*
X0147592Y0139990D01*
X0147635Y0139979D01*
X0147677Y0139965D01*
X0147717Y0139947D01*
X0147756Y0139925D01*
X0147792Y0139901D01*
X0147826Y0139873D01*
X0147858Y0139842D01*
X0147887Y0139808D01*
X0147913Y0139772D01*
X0147935Y0139734D01*
X0147954Y0139694D01*
X0147969Y0139652D01*
X0147981Y0139610D01*
X0147989Y0139566D01*
X0147993Y0139522D01*
X0147993Y0139478D01*
X0147989Y0139434D01*
X0147981Y0139390D01*
X0147969Y0139348D01*
X0147954Y0139306D01*
X0147935Y0139266D01*
X0147913Y0139228D01*
X0147887Y0139192D01*
X0147858Y0139158D01*
X0147826Y0139127D01*
X0147792Y0139099D01*
X0147756Y0139075D01*
X0147717Y0139053D01*
X0147677Y0139035D01*
X0147635Y0139021D01*
X0147592Y0139010D01*
X0147548Y0139003D01*
X0147504Y0139000D01*
X0147460Y0139001D01*
X0147416Y0139006D01*
X0147373Y0139015D01*
X0147330Y0139027D01*
X0147289Y0139044D01*
X0147249Y0139063D01*
X0147212Y0139087D01*
X0147176Y0139113D01*
X0147143Y0139143D01*
X0147113Y0139175D01*
X0147086Y0139210D01*
X0147062Y0139247D01*
X0147041Y0139286D01*
X0147024Y0139327D01*
X0147011Y0139369D01*
X0147001Y0139412D01*
X0146995Y0139456D01*
X0146993Y0139500D01*
X0165833Y0137700D02*
X0165835Y0137758D01*
X0165841Y0137816D01*
X0165851Y0137873D01*
X0165864Y0137930D01*
X0165882Y0137985D01*
X0165903Y0138039D01*
X0165927Y0138092D01*
X0165956Y0138143D01*
X0165987Y0138191D01*
X0166022Y0138238D01*
X0166060Y0138282D01*
X0166100Y0138323D01*
X0166144Y0138362D01*
X0166190Y0138397D01*
X0166238Y0138430D01*
X0166288Y0138459D01*
X0166341Y0138484D01*
X0166394Y0138506D01*
X0166449Y0138525D01*
X0166506Y0138539D01*
X0166563Y0138550D01*
X0166620Y0138557D01*
X0166678Y0138560D01*
X0166737Y0138559D01*
X0166794Y0138554D01*
X0166852Y0138545D01*
X0166909Y0138533D01*
X0166964Y0138516D01*
X0167019Y0138496D01*
X0167072Y0138472D01*
X0167123Y0138445D01*
X0167172Y0138414D01*
X0167219Y0138380D01*
X0167264Y0138343D01*
X0167306Y0138303D01*
X0167346Y0138260D01*
X0167382Y0138215D01*
X0167415Y0138167D01*
X0167445Y0138117D01*
X0167471Y0138066D01*
X0167494Y0138012D01*
X0167514Y0137957D01*
X0167529Y0137901D01*
X0167541Y0137845D01*
X0167549Y0137787D01*
X0167553Y0137729D01*
X0167553Y0137671D01*
X0167549Y0137613D01*
X0167541Y0137555D01*
X0167529Y0137499D01*
X0167514Y0137443D01*
X0167494Y0137388D01*
X0167471Y0137334D01*
X0167445Y0137283D01*
X0167415Y0137233D01*
X0167382Y0137185D01*
X0167346Y0137140D01*
X0167306Y0137097D01*
X0167264Y0137057D01*
X0167219Y0137020D01*
X0167172Y0136986D01*
X0167123Y0136955D01*
X0167072Y0136928D01*
X0167019Y0136904D01*
X0166964Y0136884D01*
X0166909Y0136867D01*
X0166852Y0136855D01*
X0166794Y0136846D01*
X0166737Y0136841D01*
X0166678Y0136840D01*
X0166620Y0136843D01*
X0166563Y0136850D01*
X0166506Y0136861D01*
X0166449Y0136875D01*
X0166394Y0136894D01*
X0166341Y0136916D01*
X0166288Y0136941D01*
X0166238Y0136970D01*
X0166190Y0137003D01*
X0166144Y0137038D01*
X0166100Y0137077D01*
X0166060Y0137118D01*
X0166022Y0137162D01*
X0165987Y0137209D01*
X0165956Y0137257D01*
X0165927Y0137308D01*
X0165903Y0137361D01*
X0165882Y0137415D01*
X0165864Y0137470D01*
X0165851Y0137527D01*
X0165841Y0137584D01*
X0165835Y0137642D01*
X0165833Y0137700D01*
X0166593Y0137700D02*
X0166595Y0137720D01*
X0166601Y0137738D01*
X0166610Y0137756D01*
X0166622Y0137771D01*
X0166637Y0137783D01*
X0166655Y0137792D01*
X0166673Y0137798D01*
X0166693Y0137800D01*
X0166713Y0137798D01*
X0166731Y0137792D01*
X0166749Y0137783D01*
X0166764Y0137771D01*
X0166776Y0137756D01*
X0166785Y0137738D01*
X0166791Y0137720D01*
X0166793Y0137700D01*
X0166791Y0137680D01*
X0166785Y0137662D01*
X0166776Y0137644D01*
X0166764Y0137629D01*
X0166749Y0137617D01*
X0166731Y0137608D01*
X0166713Y0137602D01*
X0166693Y0137600D01*
X0166673Y0137602D01*
X0166655Y0137608D01*
X0166637Y0137617D01*
X0166622Y0137629D01*
X0166610Y0137644D01*
X0166601Y0137662D01*
X0166595Y0137680D01*
X0166593Y0137700D01*
X0166193Y0137700D02*
X0166195Y0137744D01*
X0166201Y0137788D01*
X0166211Y0137831D01*
X0166224Y0137873D01*
X0166241Y0137914D01*
X0166262Y0137953D01*
X0166286Y0137990D01*
X0166313Y0138025D01*
X0166343Y0138057D01*
X0166376Y0138087D01*
X0166412Y0138113D01*
X0166449Y0138137D01*
X0166489Y0138156D01*
X0166530Y0138173D01*
X0166573Y0138185D01*
X0166616Y0138194D01*
X0166660Y0138199D01*
X0166704Y0138200D01*
X0166748Y0138197D01*
X0166792Y0138190D01*
X0166835Y0138179D01*
X0166877Y0138165D01*
X0166917Y0138147D01*
X0166956Y0138125D01*
X0166992Y0138101D01*
X0167026Y0138073D01*
X0167058Y0138042D01*
X0167087Y0138008D01*
X0167113Y0137972D01*
X0167135Y0137934D01*
X0167154Y0137894D01*
X0167169Y0137852D01*
X0167181Y0137810D01*
X0167189Y0137766D01*
X0167193Y0137722D01*
X0167193Y0137678D01*
X0167189Y0137634D01*
X0167181Y0137590D01*
X0167169Y0137548D01*
X0167154Y0137506D01*
X0167135Y0137466D01*
X0167113Y0137428D01*
X0167087Y0137392D01*
X0167058Y0137358D01*
X0167026Y0137327D01*
X0166992Y0137299D01*
X0166956Y0137275D01*
X0166917Y0137253D01*
X0166877Y0137235D01*
X0166835Y0137221D01*
X0166792Y0137210D01*
X0166748Y0137203D01*
X0166704Y0137200D01*
X0166660Y0137201D01*
X0166616Y0137206D01*
X0166573Y0137215D01*
X0166530Y0137227D01*
X0166489Y0137244D01*
X0166449Y0137263D01*
X0166412Y0137287D01*
X0166376Y0137313D01*
X0166343Y0137343D01*
X0166313Y0137375D01*
X0166286Y0137410D01*
X0166262Y0137447D01*
X0166241Y0137486D01*
X0166224Y0137527D01*
X0166211Y0137569D01*
X0166201Y0137612D01*
X0166195Y0137656D01*
X0166193Y0137700D01*
X0167833Y0126300D02*
X0167835Y0126358D01*
X0167841Y0126416D01*
X0167851Y0126473D01*
X0167864Y0126530D01*
X0167882Y0126585D01*
X0167903Y0126639D01*
X0167927Y0126692D01*
X0167956Y0126743D01*
X0167987Y0126791D01*
X0168022Y0126838D01*
X0168060Y0126882D01*
X0168100Y0126923D01*
X0168144Y0126962D01*
X0168190Y0126997D01*
X0168238Y0127030D01*
X0168288Y0127059D01*
X0168341Y0127084D01*
X0168394Y0127106D01*
X0168449Y0127125D01*
X0168506Y0127139D01*
X0168563Y0127150D01*
X0168620Y0127157D01*
X0168678Y0127160D01*
X0168737Y0127159D01*
X0168794Y0127154D01*
X0168852Y0127145D01*
X0168909Y0127133D01*
X0168964Y0127116D01*
X0169019Y0127096D01*
X0169072Y0127072D01*
X0169123Y0127045D01*
X0169172Y0127014D01*
X0169219Y0126980D01*
X0169264Y0126943D01*
X0169306Y0126903D01*
X0169346Y0126860D01*
X0169382Y0126815D01*
X0169415Y0126767D01*
X0169445Y0126717D01*
X0169471Y0126666D01*
X0169494Y0126612D01*
X0169514Y0126557D01*
X0169529Y0126501D01*
X0169541Y0126445D01*
X0169549Y0126387D01*
X0169553Y0126329D01*
X0169553Y0126271D01*
X0169549Y0126213D01*
X0169541Y0126155D01*
X0169529Y0126099D01*
X0169514Y0126043D01*
X0169494Y0125988D01*
X0169471Y0125934D01*
X0169445Y0125883D01*
X0169415Y0125833D01*
X0169382Y0125785D01*
X0169346Y0125740D01*
X0169306Y0125697D01*
X0169264Y0125657D01*
X0169219Y0125620D01*
X0169172Y0125586D01*
X0169123Y0125555D01*
X0169072Y0125528D01*
X0169019Y0125504D01*
X0168964Y0125484D01*
X0168909Y0125467D01*
X0168852Y0125455D01*
X0168794Y0125446D01*
X0168737Y0125441D01*
X0168678Y0125440D01*
X0168620Y0125443D01*
X0168563Y0125450D01*
X0168506Y0125461D01*
X0168449Y0125475D01*
X0168394Y0125494D01*
X0168341Y0125516D01*
X0168288Y0125541D01*
X0168238Y0125570D01*
X0168190Y0125603D01*
X0168144Y0125638D01*
X0168100Y0125677D01*
X0168060Y0125718D01*
X0168022Y0125762D01*
X0167987Y0125809D01*
X0167956Y0125857D01*
X0167927Y0125908D01*
X0167903Y0125961D01*
X0167882Y0126015D01*
X0167864Y0126070D01*
X0167851Y0126127D01*
X0167841Y0126184D01*
X0167835Y0126242D01*
X0167833Y0126300D01*
X0168593Y0126300D02*
X0168595Y0126320D01*
X0168601Y0126338D01*
X0168610Y0126356D01*
X0168622Y0126371D01*
X0168637Y0126383D01*
X0168655Y0126392D01*
X0168673Y0126398D01*
X0168693Y0126400D01*
X0168713Y0126398D01*
X0168731Y0126392D01*
X0168749Y0126383D01*
X0168764Y0126371D01*
X0168776Y0126356D01*
X0168785Y0126338D01*
X0168791Y0126320D01*
X0168793Y0126300D01*
X0168791Y0126280D01*
X0168785Y0126262D01*
X0168776Y0126244D01*
X0168764Y0126229D01*
X0168749Y0126217D01*
X0168731Y0126208D01*
X0168713Y0126202D01*
X0168693Y0126200D01*
X0168673Y0126202D01*
X0168655Y0126208D01*
X0168637Y0126217D01*
X0168622Y0126229D01*
X0168610Y0126244D01*
X0168601Y0126262D01*
X0168595Y0126280D01*
X0168593Y0126300D01*
X0168193Y0126300D02*
X0168195Y0126344D01*
X0168201Y0126388D01*
X0168211Y0126431D01*
X0168224Y0126473D01*
X0168241Y0126514D01*
X0168262Y0126553D01*
X0168286Y0126590D01*
X0168313Y0126625D01*
X0168343Y0126657D01*
X0168376Y0126687D01*
X0168412Y0126713D01*
X0168449Y0126737D01*
X0168489Y0126756D01*
X0168530Y0126773D01*
X0168573Y0126785D01*
X0168616Y0126794D01*
X0168660Y0126799D01*
X0168704Y0126800D01*
X0168748Y0126797D01*
X0168792Y0126790D01*
X0168835Y0126779D01*
X0168877Y0126765D01*
X0168917Y0126747D01*
X0168956Y0126725D01*
X0168992Y0126701D01*
X0169026Y0126673D01*
X0169058Y0126642D01*
X0169087Y0126608D01*
X0169113Y0126572D01*
X0169135Y0126534D01*
X0169154Y0126494D01*
X0169169Y0126452D01*
X0169181Y0126410D01*
X0169189Y0126366D01*
X0169193Y0126322D01*
X0169193Y0126278D01*
X0169189Y0126234D01*
X0169181Y0126190D01*
X0169169Y0126148D01*
X0169154Y0126106D01*
X0169135Y0126066D01*
X0169113Y0126028D01*
X0169087Y0125992D01*
X0169058Y0125958D01*
X0169026Y0125927D01*
X0168992Y0125899D01*
X0168956Y0125875D01*
X0168917Y0125853D01*
X0168877Y0125835D01*
X0168835Y0125821D01*
X0168792Y0125810D01*
X0168748Y0125803D01*
X0168704Y0125800D01*
X0168660Y0125801D01*
X0168616Y0125806D01*
X0168573Y0125815D01*
X0168530Y0125827D01*
X0168489Y0125844D01*
X0168449Y0125863D01*
X0168412Y0125887D01*
X0168376Y0125913D01*
X0168343Y0125943D01*
X0168313Y0125975D01*
X0168286Y0126010D01*
X0168262Y0126047D01*
X0168241Y0126086D01*
X0168224Y0126127D01*
X0168211Y0126169D01*
X0168201Y0126212D01*
X0168195Y0126256D01*
X0168193Y0126300D01*
X0179133Y0129100D02*
X0179135Y0129158D01*
X0179141Y0129216D01*
X0179151Y0129273D01*
X0179164Y0129330D01*
X0179182Y0129385D01*
X0179203Y0129439D01*
X0179227Y0129492D01*
X0179256Y0129543D01*
X0179287Y0129591D01*
X0179322Y0129638D01*
X0179360Y0129682D01*
X0179400Y0129723D01*
X0179444Y0129762D01*
X0179490Y0129797D01*
X0179538Y0129830D01*
X0179588Y0129859D01*
X0179641Y0129884D01*
X0179694Y0129906D01*
X0179749Y0129925D01*
X0179806Y0129939D01*
X0179863Y0129950D01*
X0179920Y0129957D01*
X0179978Y0129960D01*
X0180037Y0129959D01*
X0180094Y0129954D01*
X0180152Y0129945D01*
X0180209Y0129933D01*
X0180264Y0129916D01*
X0180319Y0129896D01*
X0180372Y0129872D01*
X0180423Y0129845D01*
X0180472Y0129814D01*
X0180519Y0129780D01*
X0180564Y0129743D01*
X0180606Y0129703D01*
X0180646Y0129660D01*
X0180682Y0129615D01*
X0180715Y0129567D01*
X0180745Y0129517D01*
X0180771Y0129466D01*
X0180794Y0129412D01*
X0180814Y0129357D01*
X0180829Y0129301D01*
X0180841Y0129245D01*
X0180849Y0129187D01*
X0180853Y0129129D01*
X0180853Y0129071D01*
X0180849Y0129013D01*
X0180841Y0128955D01*
X0180829Y0128899D01*
X0180814Y0128843D01*
X0180794Y0128788D01*
X0180771Y0128734D01*
X0180745Y0128683D01*
X0180715Y0128633D01*
X0180682Y0128585D01*
X0180646Y0128540D01*
X0180606Y0128497D01*
X0180564Y0128457D01*
X0180519Y0128420D01*
X0180472Y0128386D01*
X0180423Y0128355D01*
X0180372Y0128328D01*
X0180319Y0128304D01*
X0180264Y0128284D01*
X0180209Y0128267D01*
X0180152Y0128255D01*
X0180094Y0128246D01*
X0180037Y0128241D01*
X0179978Y0128240D01*
X0179920Y0128243D01*
X0179863Y0128250D01*
X0179806Y0128261D01*
X0179749Y0128275D01*
X0179694Y0128294D01*
X0179641Y0128316D01*
X0179588Y0128341D01*
X0179538Y0128370D01*
X0179490Y0128403D01*
X0179444Y0128438D01*
X0179400Y0128477D01*
X0179360Y0128518D01*
X0179322Y0128562D01*
X0179287Y0128609D01*
X0179256Y0128657D01*
X0179227Y0128708D01*
X0179203Y0128761D01*
X0179182Y0128815D01*
X0179164Y0128870D01*
X0179151Y0128927D01*
X0179141Y0128984D01*
X0179135Y0129042D01*
X0179133Y0129100D01*
X0179893Y0129100D02*
X0179895Y0129120D01*
X0179901Y0129138D01*
X0179910Y0129156D01*
X0179922Y0129171D01*
X0179937Y0129183D01*
X0179955Y0129192D01*
X0179973Y0129198D01*
X0179993Y0129200D01*
X0180013Y0129198D01*
X0180031Y0129192D01*
X0180049Y0129183D01*
X0180064Y0129171D01*
X0180076Y0129156D01*
X0180085Y0129138D01*
X0180091Y0129120D01*
X0180093Y0129100D01*
X0180091Y0129080D01*
X0180085Y0129062D01*
X0180076Y0129044D01*
X0180064Y0129029D01*
X0180049Y0129017D01*
X0180031Y0129008D01*
X0180013Y0129002D01*
X0179993Y0129000D01*
X0179973Y0129002D01*
X0179955Y0129008D01*
X0179937Y0129017D01*
X0179922Y0129029D01*
X0179910Y0129044D01*
X0179901Y0129062D01*
X0179895Y0129080D01*
X0179893Y0129100D01*
X0179493Y0129100D02*
X0179495Y0129144D01*
X0179501Y0129188D01*
X0179511Y0129231D01*
X0179524Y0129273D01*
X0179541Y0129314D01*
X0179562Y0129353D01*
X0179586Y0129390D01*
X0179613Y0129425D01*
X0179643Y0129457D01*
X0179676Y0129487D01*
X0179712Y0129513D01*
X0179749Y0129537D01*
X0179789Y0129556D01*
X0179830Y0129573D01*
X0179873Y0129585D01*
X0179916Y0129594D01*
X0179960Y0129599D01*
X0180004Y0129600D01*
X0180048Y0129597D01*
X0180092Y0129590D01*
X0180135Y0129579D01*
X0180177Y0129565D01*
X0180217Y0129547D01*
X0180256Y0129525D01*
X0180292Y0129501D01*
X0180326Y0129473D01*
X0180358Y0129442D01*
X0180387Y0129408D01*
X0180413Y0129372D01*
X0180435Y0129334D01*
X0180454Y0129294D01*
X0180469Y0129252D01*
X0180481Y0129210D01*
X0180489Y0129166D01*
X0180493Y0129122D01*
X0180493Y0129078D01*
X0180489Y0129034D01*
X0180481Y0128990D01*
X0180469Y0128948D01*
X0180454Y0128906D01*
X0180435Y0128866D01*
X0180413Y0128828D01*
X0180387Y0128792D01*
X0180358Y0128758D01*
X0180326Y0128727D01*
X0180292Y0128699D01*
X0180256Y0128675D01*
X0180217Y0128653D01*
X0180177Y0128635D01*
X0180135Y0128621D01*
X0180092Y0128610D01*
X0180048Y0128603D01*
X0180004Y0128600D01*
X0179960Y0128601D01*
X0179916Y0128606D01*
X0179873Y0128615D01*
X0179830Y0128627D01*
X0179789Y0128644D01*
X0179749Y0128663D01*
X0179712Y0128687D01*
X0179676Y0128713D01*
X0179643Y0128743D01*
X0179613Y0128775D01*
X0179586Y0128810D01*
X0179562Y0128847D01*
X0179541Y0128886D01*
X0179524Y0128927D01*
X0179511Y0128969D01*
X0179501Y0129012D01*
X0179495Y0129056D01*
X0179493Y0129100D01*
X0204833Y0153300D02*
X0204835Y0153358D01*
X0204841Y0153416D01*
X0204851Y0153473D01*
X0204864Y0153530D01*
X0204882Y0153585D01*
X0204903Y0153639D01*
X0204927Y0153692D01*
X0204956Y0153743D01*
X0204987Y0153791D01*
X0205022Y0153838D01*
X0205060Y0153882D01*
X0205100Y0153923D01*
X0205144Y0153962D01*
X0205190Y0153997D01*
X0205238Y0154030D01*
X0205288Y0154059D01*
X0205341Y0154084D01*
X0205394Y0154106D01*
X0205449Y0154125D01*
X0205506Y0154139D01*
X0205563Y0154150D01*
X0205620Y0154157D01*
X0205678Y0154160D01*
X0205737Y0154159D01*
X0205794Y0154154D01*
X0205852Y0154145D01*
X0205909Y0154133D01*
X0205964Y0154116D01*
X0206019Y0154096D01*
X0206072Y0154072D01*
X0206123Y0154045D01*
X0206172Y0154014D01*
X0206219Y0153980D01*
X0206264Y0153943D01*
X0206306Y0153903D01*
X0206346Y0153860D01*
X0206382Y0153815D01*
X0206415Y0153767D01*
X0206445Y0153717D01*
X0206471Y0153666D01*
X0206494Y0153612D01*
X0206514Y0153557D01*
X0206529Y0153501D01*
X0206541Y0153445D01*
X0206549Y0153387D01*
X0206553Y0153329D01*
X0206553Y0153271D01*
X0206549Y0153213D01*
X0206541Y0153155D01*
X0206529Y0153099D01*
X0206514Y0153043D01*
X0206494Y0152988D01*
X0206471Y0152934D01*
X0206445Y0152883D01*
X0206415Y0152833D01*
X0206382Y0152785D01*
X0206346Y0152740D01*
X0206306Y0152697D01*
X0206264Y0152657D01*
X0206219Y0152620D01*
X0206172Y0152586D01*
X0206123Y0152555D01*
X0206072Y0152528D01*
X0206019Y0152504D01*
X0205964Y0152484D01*
X0205909Y0152467D01*
X0205852Y0152455D01*
X0205794Y0152446D01*
X0205737Y0152441D01*
X0205678Y0152440D01*
X0205620Y0152443D01*
X0205563Y0152450D01*
X0205506Y0152461D01*
X0205449Y0152475D01*
X0205394Y0152494D01*
X0205341Y0152516D01*
X0205288Y0152541D01*
X0205238Y0152570D01*
X0205190Y0152603D01*
X0205144Y0152638D01*
X0205100Y0152677D01*
X0205060Y0152718D01*
X0205022Y0152762D01*
X0204987Y0152809D01*
X0204956Y0152857D01*
X0204927Y0152908D01*
X0204903Y0152961D01*
X0204882Y0153015D01*
X0204864Y0153070D01*
X0204851Y0153127D01*
X0204841Y0153184D01*
X0204835Y0153242D01*
X0204833Y0153300D01*
X0205593Y0153300D02*
X0205595Y0153320D01*
X0205601Y0153338D01*
X0205610Y0153356D01*
X0205622Y0153371D01*
X0205637Y0153383D01*
X0205655Y0153392D01*
X0205673Y0153398D01*
X0205693Y0153400D01*
X0205713Y0153398D01*
X0205731Y0153392D01*
X0205749Y0153383D01*
X0205764Y0153371D01*
X0205776Y0153356D01*
X0205785Y0153338D01*
X0205791Y0153320D01*
X0205793Y0153300D01*
X0205791Y0153280D01*
X0205785Y0153262D01*
X0205776Y0153244D01*
X0205764Y0153229D01*
X0205749Y0153217D01*
X0205731Y0153208D01*
X0205713Y0153202D01*
X0205693Y0153200D01*
X0205673Y0153202D01*
X0205655Y0153208D01*
X0205637Y0153217D01*
X0205622Y0153229D01*
X0205610Y0153244D01*
X0205601Y0153262D01*
X0205595Y0153280D01*
X0205593Y0153300D01*
X0205193Y0153300D02*
X0205195Y0153344D01*
X0205201Y0153388D01*
X0205211Y0153431D01*
X0205224Y0153473D01*
X0205241Y0153514D01*
X0205262Y0153553D01*
X0205286Y0153590D01*
X0205313Y0153625D01*
X0205343Y0153657D01*
X0205376Y0153687D01*
X0205412Y0153713D01*
X0205449Y0153737D01*
X0205489Y0153756D01*
X0205530Y0153773D01*
X0205573Y0153785D01*
X0205616Y0153794D01*
X0205660Y0153799D01*
X0205704Y0153800D01*
X0205748Y0153797D01*
X0205792Y0153790D01*
X0205835Y0153779D01*
X0205877Y0153765D01*
X0205917Y0153747D01*
X0205956Y0153725D01*
X0205992Y0153701D01*
X0206026Y0153673D01*
X0206058Y0153642D01*
X0206087Y0153608D01*
X0206113Y0153572D01*
X0206135Y0153534D01*
X0206154Y0153494D01*
X0206169Y0153452D01*
X0206181Y0153410D01*
X0206189Y0153366D01*
X0206193Y0153322D01*
X0206193Y0153278D01*
X0206189Y0153234D01*
X0206181Y0153190D01*
X0206169Y0153148D01*
X0206154Y0153106D01*
X0206135Y0153066D01*
X0206113Y0153028D01*
X0206087Y0152992D01*
X0206058Y0152958D01*
X0206026Y0152927D01*
X0205992Y0152899D01*
X0205956Y0152875D01*
X0205917Y0152853D01*
X0205877Y0152835D01*
X0205835Y0152821D01*
X0205792Y0152810D01*
X0205748Y0152803D01*
X0205704Y0152800D01*
X0205660Y0152801D01*
X0205616Y0152806D01*
X0205573Y0152815D01*
X0205530Y0152827D01*
X0205489Y0152844D01*
X0205449Y0152863D01*
X0205412Y0152887D01*
X0205376Y0152913D01*
X0205343Y0152943D01*
X0205313Y0152975D01*
X0205286Y0153010D01*
X0205262Y0153047D01*
X0205241Y0153086D01*
X0205224Y0153127D01*
X0205211Y0153169D01*
X0205201Y0153212D01*
X0205195Y0153256D01*
X0205193Y0153300D01*
X0220433Y0151100D02*
X0220435Y0151158D01*
X0220441Y0151216D01*
X0220451Y0151273D01*
X0220464Y0151330D01*
X0220482Y0151385D01*
X0220503Y0151439D01*
X0220527Y0151492D01*
X0220556Y0151543D01*
X0220587Y0151591D01*
X0220622Y0151638D01*
X0220660Y0151682D01*
X0220700Y0151723D01*
X0220744Y0151762D01*
X0220790Y0151797D01*
X0220838Y0151830D01*
X0220888Y0151859D01*
X0220941Y0151884D01*
X0220994Y0151906D01*
X0221049Y0151925D01*
X0221106Y0151939D01*
X0221163Y0151950D01*
X0221220Y0151957D01*
X0221278Y0151960D01*
X0221337Y0151959D01*
X0221394Y0151954D01*
X0221452Y0151945D01*
X0221509Y0151933D01*
X0221564Y0151916D01*
X0221619Y0151896D01*
X0221672Y0151872D01*
X0221723Y0151845D01*
X0221772Y0151814D01*
X0221819Y0151780D01*
X0221864Y0151743D01*
X0221906Y0151703D01*
X0221946Y0151660D01*
X0221982Y0151615D01*
X0222015Y0151567D01*
X0222045Y0151517D01*
X0222071Y0151466D01*
X0222094Y0151412D01*
X0222114Y0151357D01*
X0222129Y0151301D01*
X0222141Y0151245D01*
X0222149Y0151187D01*
X0222153Y0151129D01*
X0222153Y0151071D01*
X0222149Y0151013D01*
X0222141Y0150955D01*
X0222129Y0150899D01*
X0222114Y0150843D01*
X0222094Y0150788D01*
X0222071Y0150734D01*
X0222045Y0150683D01*
X0222015Y0150633D01*
X0221982Y0150585D01*
X0221946Y0150540D01*
X0221906Y0150497D01*
X0221864Y0150457D01*
X0221819Y0150420D01*
X0221772Y0150386D01*
X0221723Y0150355D01*
X0221672Y0150328D01*
X0221619Y0150304D01*
X0221564Y0150284D01*
X0221509Y0150267D01*
X0221452Y0150255D01*
X0221394Y0150246D01*
X0221337Y0150241D01*
X0221278Y0150240D01*
X0221220Y0150243D01*
X0221163Y0150250D01*
X0221106Y0150261D01*
X0221049Y0150275D01*
X0220994Y0150294D01*
X0220941Y0150316D01*
X0220888Y0150341D01*
X0220838Y0150370D01*
X0220790Y0150403D01*
X0220744Y0150438D01*
X0220700Y0150477D01*
X0220660Y0150518D01*
X0220622Y0150562D01*
X0220587Y0150609D01*
X0220556Y0150657D01*
X0220527Y0150708D01*
X0220503Y0150761D01*
X0220482Y0150815D01*
X0220464Y0150870D01*
X0220451Y0150927D01*
X0220441Y0150984D01*
X0220435Y0151042D01*
X0220433Y0151100D01*
X0221193Y0151100D02*
X0221195Y0151120D01*
X0221201Y0151138D01*
X0221210Y0151156D01*
X0221222Y0151171D01*
X0221237Y0151183D01*
X0221255Y0151192D01*
X0221273Y0151198D01*
X0221293Y0151200D01*
X0221313Y0151198D01*
X0221331Y0151192D01*
X0221349Y0151183D01*
X0221364Y0151171D01*
X0221376Y0151156D01*
X0221385Y0151138D01*
X0221391Y0151120D01*
X0221393Y0151100D01*
X0221391Y0151080D01*
X0221385Y0151062D01*
X0221376Y0151044D01*
X0221364Y0151029D01*
X0221349Y0151017D01*
X0221331Y0151008D01*
X0221313Y0151002D01*
X0221293Y0151000D01*
X0221273Y0151002D01*
X0221255Y0151008D01*
X0221237Y0151017D01*
X0221222Y0151029D01*
X0221210Y0151044D01*
X0221201Y0151062D01*
X0221195Y0151080D01*
X0221193Y0151100D01*
X0220793Y0151100D02*
X0220795Y0151144D01*
X0220801Y0151188D01*
X0220811Y0151231D01*
X0220824Y0151273D01*
X0220841Y0151314D01*
X0220862Y0151353D01*
X0220886Y0151390D01*
X0220913Y0151425D01*
X0220943Y0151457D01*
X0220976Y0151487D01*
X0221012Y0151513D01*
X0221049Y0151537D01*
X0221089Y0151556D01*
X0221130Y0151573D01*
X0221173Y0151585D01*
X0221216Y0151594D01*
X0221260Y0151599D01*
X0221304Y0151600D01*
X0221348Y0151597D01*
X0221392Y0151590D01*
X0221435Y0151579D01*
X0221477Y0151565D01*
X0221517Y0151547D01*
X0221556Y0151525D01*
X0221592Y0151501D01*
X0221626Y0151473D01*
X0221658Y0151442D01*
X0221687Y0151408D01*
X0221713Y0151372D01*
X0221735Y0151334D01*
X0221754Y0151294D01*
X0221769Y0151252D01*
X0221781Y0151210D01*
X0221789Y0151166D01*
X0221793Y0151122D01*
X0221793Y0151078D01*
X0221789Y0151034D01*
X0221781Y0150990D01*
X0221769Y0150948D01*
X0221754Y0150906D01*
X0221735Y0150866D01*
X0221713Y0150828D01*
X0221687Y0150792D01*
X0221658Y0150758D01*
X0221626Y0150727D01*
X0221592Y0150699D01*
X0221556Y0150675D01*
X0221517Y0150653D01*
X0221477Y0150635D01*
X0221435Y0150621D01*
X0221392Y0150610D01*
X0221348Y0150603D01*
X0221304Y0150600D01*
X0221260Y0150601D01*
X0221216Y0150606D01*
X0221173Y0150615D01*
X0221130Y0150627D01*
X0221089Y0150644D01*
X0221049Y0150663D01*
X0221012Y0150687D01*
X0220976Y0150713D01*
X0220943Y0150743D01*
X0220913Y0150775D01*
X0220886Y0150810D01*
X0220862Y0150847D01*
X0220841Y0150886D01*
X0220824Y0150927D01*
X0220811Y0150969D01*
X0220801Y0151012D01*
X0220795Y0151056D01*
X0220793Y0151100D01*
X0242933Y0146300D02*
X0242935Y0146358D01*
X0242941Y0146416D01*
X0242951Y0146473D01*
X0242964Y0146530D01*
X0242982Y0146585D01*
X0243003Y0146639D01*
X0243027Y0146692D01*
X0243056Y0146743D01*
X0243087Y0146791D01*
X0243122Y0146838D01*
X0243160Y0146882D01*
X0243200Y0146923D01*
X0243244Y0146962D01*
X0243290Y0146997D01*
X0243338Y0147030D01*
X0243388Y0147059D01*
X0243441Y0147084D01*
X0243494Y0147106D01*
X0243549Y0147125D01*
X0243606Y0147139D01*
X0243663Y0147150D01*
X0243720Y0147157D01*
X0243778Y0147160D01*
X0243837Y0147159D01*
X0243894Y0147154D01*
X0243952Y0147145D01*
X0244009Y0147133D01*
X0244064Y0147116D01*
X0244119Y0147096D01*
X0244172Y0147072D01*
X0244223Y0147045D01*
X0244272Y0147014D01*
X0244319Y0146980D01*
X0244364Y0146943D01*
X0244406Y0146903D01*
X0244446Y0146860D01*
X0244482Y0146815D01*
X0244515Y0146767D01*
X0244545Y0146717D01*
X0244571Y0146666D01*
X0244594Y0146612D01*
X0244614Y0146557D01*
X0244629Y0146501D01*
X0244641Y0146445D01*
X0244649Y0146387D01*
X0244653Y0146329D01*
X0244653Y0146271D01*
X0244649Y0146213D01*
X0244641Y0146155D01*
X0244629Y0146099D01*
X0244614Y0146043D01*
X0244594Y0145988D01*
X0244571Y0145934D01*
X0244545Y0145883D01*
X0244515Y0145833D01*
X0244482Y0145785D01*
X0244446Y0145740D01*
X0244406Y0145697D01*
X0244364Y0145657D01*
X0244319Y0145620D01*
X0244272Y0145586D01*
X0244223Y0145555D01*
X0244172Y0145528D01*
X0244119Y0145504D01*
X0244064Y0145484D01*
X0244009Y0145467D01*
X0243952Y0145455D01*
X0243894Y0145446D01*
X0243837Y0145441D01*
X0243778Y0145440D01*
X0243720Y0145443D01*
X0243663Y0145450D01*
X0243606Y0145461D01*
X0243549Y0145475D01*
X0243494Y0145494D01*
X0243441Y0145516D01*
X0243388Y0145541D01*
X0243338Y0145570D01*
X0243290Y0145603D01*
X0243244Y0145638D01*
X0243200Y0145677D01*
X0243160Y0145718D01*
X0243122Y0145762D01*
X0243087Y0145809D01*
X0243056Y0145857D01*
X0243027Y0145908D01*
X0243003Y0145961D01*
X0242982Y0146015D01*
X0242964Y0146070D01*
X0242951Y0146127D01*
X0242941Y0146184D01*
X0242935Y0146242D01*
X0242933Y0146300D01*
X0243693Y0146300D02*
X0243695Y0146320D01*
X0243701Y0146338D01*
X0243710Y0146356D01*
X0243722Y0146371D01*
X0243737Y0146383D01*
X0243755Y0146392D01*
X0243773Y0146398D01*
X0243793Y0146400D01*
X0243813Y0146398D01*
X0243831Y0146392D01*
X0243849Y0146383D01*
X0243864Y0146371D01*
X0243876Y0146356D01*
X0243885Y0146338D01*
X0243891Y0146320D01*
X0243893Y0146300D01*
X0243891Y0146280D01*
X0243885Y0146262D01*
X0243876Y0146244D01*
X0243864Y0146229D01*
X0243849Y0146217D01*
X0243831Y0146208D01*
X0243813Y0146202D01*
X0243793Y0146200D01*
X0243773Y0146202D01*
X0243755Y0146208D01*
X0243737Y0146217D01*
X0243722Y0146229D01*
X0243710Y0146244D01*
X0243701Y0146262D01*
X0243695Y0146280D01*
X0243693Y0146300D01*
X0243293Y0146300D02*
X0243295Y0146344D01*
X0243301Y0146388D01*
X0243311Y0146431D01*
X0243324Y0146473D01*
X0243341Y0146514D01*
X0243362Y0146553D01*
X0243386Y0146590D01*
X0243413Y0146625D01*
X0243443Y0146657D01*
X0243476Y0146687D01*
X0243512Y0146713D01*
X0243549Y0146737D01*
X0243589Y0146756D01*
X0243630Y0146773D01*
X0243673Y0146785D01*
X0243716Y0146794D01*
X0243760Y0146799D01*
X0243804Y0146800D01*
X0243848Y0146797D01*
X0243892Y0146790D01*
X0243935Y0146779D01*
X0243977Y0146765D01*
X0244017Y0146747D01*
X0244056Y0146725D01*
X0244092Y0146701D01*
X0244126Y0146673D01*
X0244158Y0146642D01*
X0244187Y0146608D01*
X0244213Y0146572D01*
X0244235Y0146534D01*
X0244254Y0146494D01*
X0244269Y0146452D01*
X0244281Y0146410D01*
X0244289Y0146366D01*
X0244293Y0146322D01*
X0244293Y0146278D01*
X0244289Y0146234D01*
X0244281Y0146190D01*
X0244269Y0146148D01*
X0244254Y0146106D01*
X0244235Y0146066D01*
X0244213Y0146028D01*
X0244187Y0145992D01*
X0244158Y0145958D01*
X0244126Y0145927D01*
X0244092Y0145899D01*
X0244056Y0145875D01*
X0244017Y0145853D01*
X0243977Y0145835D01*
X0243935Y0145821D01*
X0243892Y0145810D01*
X0243848Y0145803D01*
X0243804Y0145800D01*
X0243760Y0145801D01*
X0243716Y0145806D01*
X0243673Y0145815D01*
X0243630Y0145827D01*
X0243589Y0145844D01*
X0243549Y0145863D01*
X0243512Y0145887D01*
X0243476Y0145913D01*
X0243443Y0145943D01*
X0243413Y0145975D01*
X0243386Y0146010D01*
X0243362Y0146047D01*
X0243341Y0146086D01*
X0243324Y0146127D01*
X0243311Y0146169D01*
X0243301Y0146212D01*
X0243295Y0146256D01*
X0243293Y0146300D01*
X0220733Y0096800D02*
X0220735Y0096858D01*
X0220741Y0096916D01*
X0220751Y0096973D01*
X0220764Y0097030D01*
X0220782Y0097085D01*
X0220803Y0097139D01*
X0220827Y0097192D01*
X0220856Y0097243D01*
X0220887Y0097291D01*
X0220922Y0097338D01*
X0220960Y0097382D01*
X0221000Y0097423D01*
X0221044Y0097462D01*
X0221090Y0097497D01*
X0221138Y0097530D01*
X0221188Y0097559D01*
X0221241Y0097584D01*
X0221294Y0097606D01*
X0221349Y0097625D01*
X0221406Y0097639D01*
X0221463Y0097650D01*
X0221520Y0097657D01*
X0221578Y0097660D01*
X0221637Y0097659D01*
X0221694Y0097654D01*
X0221752Y0097645D01*
X0221809Y0097633D01*
X0221864Y0097616D01*
X0221919Y0097596D01*
X0221972Y0097572D01*
X0222023Y0097545D01*
X0222072Y0097514D01*
X0222119Y0097480D01*
X0222164Y0097443D01*
X0222206Y0097403D01*
X0222246Y0097360D01*
X0222282Y0097315D01*
X0222315Y0097267D01*
X0222345Y0097217D01*
X0222371Y0097166D01*
X0222394Y0097112D01*
X0222414Y0097057D01*
X0222429Y0097001D01*
X0222441Y0096945D01*
X0222449Y0096887D01*
X0222453Y0096829D01*
X0222453Y0096771D01*
X0222449Y0096713D01*
X0222441Y0096655D01*
X0222429Y0096599D01*
X0222414Y0096543D01*
X0222394Y0096488D01*
X0222371Y0096434D01*
X0222345Y0096383D01*
X0222315Y0096333D01*
X0222282Y0096285D01*
X0222246Y0096240D01*
X0222206Y0096197D01*
X0222164Y0096157D01*
X0222119Y0096120D01*
X0222072Y0096086D01*
X0222023Y0096055D01*
X0221972Y0096028D01*
X0221919Y0096004D01*
X0221864Y0095984D01*
X0221809Y0095967D01*
X0221752Y0095955D01*
X0221694Y0095946D01*
X0221637Y0095941D01*
X0221578Y0095940D01*
X0221520Y0095943D01*
X0221463Y0095950D01*
X0221406Y0095961D01*
X0221349Y0095975D01*
X0221294Y0095994D01*
X0221241Y0096016D01*
X0221188Y0096041D01*
X0221138Y0096070D01*
X0221090Y0096103D01*
X0221044Y0096138D01*
X0221000Y0096177D01*
X0220960Y0096218D01*
X0220922Y0096262D01*
X0220887Y0096309D01*
X0220856Y0096357D01*
X0220827Y0096408D01*
X0220803Y0096461D01*
X0220782Y0096515D01*
X0220764Y0096570D01*
X0220751Y0096627D01*
X0220741Y0096684D01*
X0220735Y0096742D01*
X0220733Y0096800D01*
X0221493Y0096800D02*
X0221495Y0096820D01*
X0221501Y0096838D01*
X0221510Y0096856D01*
X0221522Y0096871D01*
X0221537Y0096883D01*
X0221555Y0096892D01*
X0221573Y0096898D01*
X0221593Y0096900D01*
X0221613Y0096898D01*
X0221631Y0096892D01*
X0221649Y0096883D01*
X0221664Y0096871D01*
X0221676Y0096856D01*
X0221685Y0096838D01*
X0221691Y0096820D01*
X0221693Y0096800D01*
X0221691Y0096780D01*
X0221685Y0096762D01*
X0221676Y0096744D01*
X0221664Y0096729D01*
X0221649Y0096717D01*
X0221631Y0096708D01*
X0221613Y0096702D01*
X0221593Y0096700D01*
X0221573Y0096702D01*
X0221555Y0096708D01*
X0221537Y0096717D01*
X0221522Y0096729D01*
X0221510Y0096744D01*
X0221501Y0096762D01*
X0221495Y0096780D01*
X0221493Y0096800D01*
X0221093Y0096800D02*
X0221095Y0096844D01*
X0221101Y0096888D01*
X0221111Y0096931D01*
X0221124Y0096973D01*
X0221141Y0097014D01*
X0221162Y0097053D01*
X0221186Y0097090D01*
X0221213Y0097125D01*
X0221243Y0097157D01*
X0221276Y0097187D01*
X0221312Y0097213D01*
X0221349Y0097237D01*
X0221389Y0097256D01*
X0221430Y0097273D01*
X0221473Y0097285D01*
X0221516Y0097294D01*
X0221560Y0097299D01*
X0221604Y0097300D01*
X0221648Y0097297D01*
X0221692Y0097290D01*
X0221735Y0097279D01*
X0221777Y0097265D01*
X0221817Y0097247D01*
X0221856Y0097225D01*
X0221892Y0097201D01*
X0221926Y0097173D01*
X0221958Y0097142D01*
X0221987Y0097108D01*
X0222013Y0097072D01*
X0222035Y0097034D01*
X0222054Y0096994D01*
X0222069Y0096952D01*
X0222081Y0096910D01*
X0222089Y0096866D01*
X0222093Y0096822D01*
X0222093Y0096778D01*
X0222089Y0096734D01*
X0222081Y0096690D01*
X0222069Y0096648D01*
X0222054Y0096606D01*
X0222035Y0096566D01*
X0222013Y0096528D01*
X0221987Y0096492D01*
X0221958Y0096458D01*
X0221926Y0096427D01*
X0221892Y0096399D01*
X0221856Y0096375D01*
X0221817Y0096353D01*
X0221777Y0096335D01*
X0221735Y0096321D01*
X0221692Y0096310D01*
X0221648Y0096303D01*
X0221604Y0096300D01*
X0221560Y0096301D01*
X0221516Y0096306D01*
X0221473Y0096315D01*
X0221430Y0096327D01*
X0221389Y0096344D01*
X0221349Y0096363D01*
X0221312Y0096387D01*
X0221276Y0096413D01*
X0221243Y0096443D01*
X0221213Y0096475D01*
X0221186Y0096510D01*
X0221162Y0096547D01*
X0221141Y0096586D01*
X0221124Y0096627D01*
X0221111Y0096669D01*
X0221101Y0096712D01*
X0221095Y0096756D01*
X0221093Y0096800D01*
X0204633Y0097000D02*
X0204635Y0097058D01*
X0204641Y0097116D01*
X0204651Y0097173D01*
X0204664Y0097230D01*
X0204682Y0097285D01*
X0204703Y0097339D01*
X0204727Y0097392D01*
X0204756Y0097443D01*
X0204787Y0097491D01*
X0204822Y0097538D01*
X0204860Y0097582D01*
X0204900Y0097623D01*
X0204944Y0097662D01*
X0204990Y0097697D01*
X0205038Y0097730D01*
X0205088Y0097759D01*
X0205141Y0097784D01*
X0205194Y0097806D01*
X0205249Y0097825D01*
X0205306Y0097839D01*
X0205363Y0097850D01*
X0205420Y0097857D01*
X0205478Y0097860D01*
X0205537Y0097859D01*
X0205594Y0097854D01*
X0205652Y0097845D01*
X0205709Y0097833D01*
X0205764Y0097816D01*
X0205819Y0097796D01*
X0205872Y0097772D01*
X0205923Y0097745D01*
X0205972Y0097714D01*
X0206019Y0097680D01*
X0206064Y0097643D01*
X0206106Y0097603D01*
X0206146Y0097560D01*
X0206182Y0097515D01*
X0206215Y0097467D01*
X0206245Y0097417D01*
X0206271Y0097366D01*
X0206294Y0097312D01*
X0206314Y0097257D01*
X0206329Y0097201D01*
X0206341Y0097145D01*
X0206349Y0097087D01*
X0206353Y0097029D01*
X0206353Y0096971D01*
X0206349Y0096913D01*
X0206341Y0096855D01*
X0206329Y0096799D01*
X0206314Y0096743D01*
X0206294Y0096688D01*
X0206271Y0096634D01*
X0206245Y0096583D01*
X0206215Y0096533D01*
X0206182Y0096485D01*
X0206146Y0096440D01*
X0206106Y0096397D01*
X0206064Y0096357D01*
X0206019Y0096320D01*
X0205972Y0096286D01*
X0205923Y0096255D01*
X0205872Y0096228D01*
X0205819Y0096204D01*
X0205764Y0096184D01*
X0205709Y0096167D01*
X0205652Y0096155D01*
X0205594Y0096146D01*
X0205537Y0096141D01*
X0205478Y0096140D01*
X0205420Y0096143D01*
X0205363Y0096150D01*
X0205306Y0096161D01*
X0205249Y0096175D01*
X0205194Y0096194D01*
X0205141Y0096216D01*
X0205088Y0096241D01*
X0205038Y0096270D01*
X0204990Y0096303D01*
X0204944Y0096338D01*
X0204900Y0096377D01*
X0204860Y0096418D01*
X0204822Y0096462D01*
X0204787Y0096509D01*
X0204756Y0096557D01*
X0204727Y0096608D01*
X0204703Y0096661D01*
X0204682Y0096715D01*
X0204664Y0096770D01*
X0204651Y0096827D01*
X0204641Y0096884D01*
X0204635Y0096942D01*
X0204633Y0097000D01*
X0205393Y0097000D02*
X0205395Y0097020D01*
X0205401Y0097038D01*
X0205410Y0097056D01*
X0205422Y0097071D01*
X0205437Y0097083D01*
X0205455Y0097092D01*
X0205473Y0097098D01*
X0205493Y0097100D01*
X0205513Y0097098D01*
X0205531Y0097092D01*
X0205549Y0097083D01*
X0205564Y0097071D01*
X0205576Y0097056D01*
X0205585Y0097038D01*
X0205591Y0097020D01*
X0205593Y0097000D01*
X0205591Y0096980D01*
X0205585Y0096962D01*
X0205576Y0096944D01*
X0205564Y0096929D01*
X0205549Y0096917D01*
X0205531Y0096908D01*
X0205513Y0096902D01*
X0205493Y0096900D01*
X0205473Y0096902D01*
X0205455Y0096908D01*
X0205437Y0096917D01*
X0205422Y0096929D01*
X0205410Y0096944D01*
X0205401Y0096962D01*
X0205395Y0096980D01*
X0205393Y0097000D01*
X0204993Y0097000D02*
X0204995Y0097044D01*
X0205001Y0097088D01*
X0205011Y0097131D01*
X0205024Y0097173D01*
X0205041Y0097214D01*
X0205062Y0097253D01*
X0205086Y0097290D01*
X0205113Y0097325D01*
X0205143Y0097357D01*
X0205176Y0097387D01*
X0205212Y0097413D01*
X0205249Y0097437D01*
X0205289Y0097456D01*
X0205330Y0097473D01*
X0205373Y0097485D01*
X0205416Y0097494D01*
X0205460Y0097499D01*
X0205504Y0097500D01*
X0205548Y0097497D01*
X0205592Y0097490D01*
X0205635Y0097479D01*
X0205677Y0097465D01*
X0205717Y0097447D01*
X0205756Y0097425D01*
X0205792Y0097401D01*
X0205826Y0097373D01*
X0205858Y0097342D01*
X0205887Y0097308D01*
X0205913Y0097272D01*
X0205935Y0097234D01*
X0205954Y0097194D01*
X0205969Y0097152D01*
X0205981Y0097110D01*
X0205989Y0097066D01*
X0205993Y0097022D01*
X0205993Y0096978D01*
X0205989Y0096934D01*
X0205981Y0096890D01*
X0205969Y0096848D01*
X0205954Y0096806D01*
X0205935Y0096766D01*
X0205913Y0096728D01*
X0205887Y0096692D01*
X0205858Y0096658D01*
X0205826Y0096627D01*
X0205792Y0096599D01*
X0205756Y0096575D01*
X0205717Y0096553D01*
X0205677Y0096535D01*
X0205635Y0096521D01*
X0205592Y0096510D01*
X0205548Y0096503D01*
X0205504Y0096500D01*
X0205460Y0096501D01*
X0205416Y0096506D01*
X0205373Y0096515D01*
X0205330Y0096527D01*
X0205289Y0096544D01*
X0205249Y0096563D01*
X0205212Y0096587D01*
X0205176Y0096613D01*
X0205143Y0096643D01*
X0205113Y0096675D01*
X0205086Y0096710D01*
X0205062Y0096747D01*
X0205041Y0096786D01*
X0205024Y0096827D01*
X0205011Y0096869D01*
X0205001Y0096912D01*
X0204995Y0096956D01*
X0204993Y0097000D01*
X0188033Y0097300D02*
X0188035Y0097358D01*
X0188041Y0097416D01*
X0188051Y0097473D01*
X0188064Y0097530D01*
X0188082Y0097585D01*
X0188103Y0097639D01*
X0188127Y0097692D01*
X0188156Y0097743D01*
X0188187Y0097791D01*
X0188222Y0097838D01*
X0188260Y0097882D01*
X0188300Y0097923D01*
X0188344Y0097962D01*
X0188390Y0097997D01*
X0188438Y0098030D01*
X0188488Y0098059D01*
X0188541Y0098084D01*
X0188594Y0098106D01*
X0188649Y0098125D01*
X0188706Y0098139D01*
X0188763Y0098150D01*
X0188820Y0098157D01*
X0188878Y0098160D01*
X0188937Y0098159D01*
X0188994Y0098154D01*
X0189052Y0098145D01*
X0189109Y0098133D01*
X0189164Y0098116D01*
X0189219Y0098096D01*
X0189272Y0098072D01*
X0189323Y0098045D01*
X0189372Y0098014D01*
X0189419Y0097980D01*
X0189464Y0097943D01*
X0189506Y0097903D01*
X0189546Y0097860D01*
X0189582Y0097815D01*
X0189615Y0097767D01*
X0189645Y0097717D01*
X0189671Y0097666D01*
X0189694Y0097612D01*
X0189714Y0097557D01*
X0189729Y0097501D01*
X0189741Y0097445D01*
X0189749Y0097387D01*
X0189753Y0097329D01*
X0189753Y0097271D01*
X0189749Y0097213D01*
X0189741Y0097155D01*
X0189729Y0097099D01*
X0189714Y0097043D01*
X0189694Y0096988D01*
X0189671Y0096934D01*
X0189645Y0096883D01*
X0189615Y0096833D01*
X0189582Y0096785D01*
X0189546Y0096740D01*
X0189506Y0096697D01*
X0189464Y0096657D01*
X0189419Y0096620D01*
X0189372Y0096586D01*
X0189323Y0096555D01*
X0189272Y0096528D01*
X0189219Y0096504D01*
X0189164Y0096484D01*
X0189109Y0096467D01*
X0189052Y0096455D01*
X0188994Y0096446D01*
X0188937Y0096441D01*
X0188878Y0096440D01*
X0188820Y0096443D01*
X0188763Y0096450D01*
X0188706Y0096461D01*
X0188649Y0096475D01*
X0188594Y0096494D01*
X0188541Y0096516D01*
X0188488Y0096541D01*
X0188438Y0096570D01*
X0188390Y0096603D01*
X0188344Y0096638D01*
X0188300Y0096677D01*
X0188260Y0096718D01*
X0188222Y0096762D01*
X0188187Y0096809D01*
X0188156Y0096857D01*
X0188127Y0096908D01*
X0188103Y0096961D01*
X0188082Y0097015D01*
X0188064Y0097070D01*
X0188051Y0097127D01*
X0188041Y0097184D01*
X0188035Y0097242D01*
X0188033Y0097300D01*
X0188793Y0097300D02*
X0188795Y0097320D01*
X0188801Y0097338D01*
X0188810Y0097356D01*
X0188822Y0097371D01*
X0188837Y0097383D01*
X0188855Y0097392D01*
X0188873Y0097398D01*
X0188893Y0097400D01*
X0188913Y0097398D01*
X0188931Y0097392D01*
X0188949Y0097383D01*
X0188964Y0097371D01*
X0188976Y0097356D01*
X0188985Y0097338D01*
X0188991Y0097320D01*
X0188993Y0097300D01*
X0188991Y0097280D01*
X0188985Y0097262D01*
X0188976Y0097244D01*
X0188964Y0097229D01*
X0188949Y0097217D01*
X0188931Y0097208D01*
X0188913Y0097202D01*
X0188893Y0097200D01*
X0188873Y0097202D01*
X0188855Y0097208D01*
X0188837Y0097217D01*
X0188822Y0097229D01*
X0188810Y0097244D01*
X0188801Y0097262D01*
X0188795Y0097280D01*
X0188793Y0097300D01*
X0188393Y0097300D02*
X0188395Y0097344D01*
X0188401Y0097388D01*
X0188411Y0097431D01*
X0188424Y0097473D01*
X0188441Y0097514D01*
X0188462Y0097553D01*
X0188486Y0097590D01*
X0188513Y0097625D01*
X0188543Y0097657D01*
X0188576Y0097687D01*
X0188612Y0097713D01*
X0188649Y0097737D01*
X0188689Y0097756D01*
X0188730Y0097773D01*
X0188773Y0097785D01*
X0188816Y0097794D01*
X0188860Y0097799D01*
X0188904Y0097800D01*
X0188948Y0097797D01*
X0188992Y0097790D01*
X0189035Y0097779D01*
X0189077Y0097765D01*
X0189117Y0097747D01*
X0189156Y0097725D01*
X0189192Y0097701D01*
X0189226Y0097673D01*
X0189258Y0097642D01*
X0189287Y0097608D01*
X0189313Y0097572D01*
X0189335Y0097534D01*
X0189354Y0097494D01*
X0189369Y0097452D01*
X0189381Y0097410D01*
X0189389Y0097366D01*
X0189393Y0097322D01*
X0189393Y0097278D01*
X0189389Y0097234D01*
X0189381Y0097190D01*
X0189369Y0097148D01*
X0189354Y0097106D01*
X0189335Y0097066D01*
X0189313Y0097028D01*
X0189287Y0096992D01*
X0189258Y0096958D01*
X0189226Y0096927D01*
X0189192Y0096899D01*
X0189156Y0096875D01*
X0189117Y0096853D01*
X0189077Y0096835D01*
X0189035Y0096821D01*
X0188992Y0096810D01*
X0188948Y0096803D01*
X0188904Y0096800D01*
X0188860Y0096801D01*
X0188816Y0096806D01*
X0188773Y0096815D01*
X0188730Y0096827D01*
X0188689Y0096844D01*
X0188649Y0096863D01*
X0188612Y0096887D01*
X0188576Y0096913D01*
X0188543Y0096943D01*
X0188513Y0096975D01*
X0188486Y0097010D01*
X0188462Y0097047D01*
X0188441Y0097086D01*
X0188424Y0097127D01*
X0188411Y0097169D01*
X0188401Y0097212D01*
X0188395Y0097256D01*
X0188393Y0097300D01*
X0237533Y0093100D02*
X0237535Y0093158D01*
X0237541Y0093216D01*
X0237551Y0093273D01*
X0237564Y0093330D01*
X0237582Y0093385D01*
X0237603Y0093439D01*
X0237627Y0093492D01*
X0237656Y0093543D01*
X0237687Y0093591D01*
X0237722Y0093638D01*
X0237760Y0093682D01*
X0237800Y0093723D01*
X0237844Y0093762D01*
X0237890Y0093797D01*
X0237938Y0093830D01*
X0237988Y0093859D01*
X0238041Y0093884D01*
X0238094Y0093906D01*
X0238149Y0093925D01*
X0238206Y0093939D01*
X0238263Y0093950D01*
X0238320Y0093957D01*
X0238378Y0093960D01*
X0238437Y0093959D01*
X0238494Y0093954D01*
X0238552Y0093945D01*
X0238609Y0093933D01*
X0238664Y0093916D01*
X0238719Y0093896D01*
X0238772Y0093872D01*
X0238823Y0093845D01*
X0238872Y0093814D01*
X0238919Y0093780D01*
X0238964Y0093743D01*
X0239006Y0093703D01*
X0239046Y0093660D01*
X0239082Y0093615D01*
X0239115Y0093567D01*
X0239145Y0093517D01*
X0239171Y0093466D01*
X0239194Y0093412D01*
X0239214Y0093357D01*
X0239229Y0093301D01*
X0239241Y0093245D01*
X0239249Y0093187D01*
X0239253Y0093129D01*
X0239253Y0093071D01*
X0239249Y0093013D01*
X0239241Y0092955D01*
X0239229Y0092899D01*
X0239214Y0092843D01*
X0239194Y0092788D01*
X0239171Y0092734D01*
X0239145Y0092683D01*
X0239115Y0092633D01*
X0239082Y0092585D01*
X0239046Y0092540D01*
X0239006Y0092497D01*
X0238964Y0092457D01*
X0238919Y0092420D01*
X0238872Y0092386D01*
X0238823Y0092355D01*
X0238772Y0092328D01*
X0238719Y0092304D01*
X0238664Y0092284D01*
X0238609Y0092267D01*
X0238552Y0092255D01*
X0238494Y0092246D01*
X0238437Y0092241D01*
X0238378Y0092240D01*
X0238320Y0092243D01*
X0238263Y0092250D01*
X0238206Y0092261D01*
X0238149Y0092275D01*
X0238094Y0092294D01*
X0238041Y0092316D01*
X0237988Y0092341D01*
X0237938Y0092370D01*
X0237890Y0092403D01*
X0237844Y0092438D01*
X0237800Y0092477D01*
X0237760Y0092518D01*
X0237722Y0092562D01*
X0237687Y0092609D01*
X0237656Y0092657D01*
X0237627Y0092708D01*
X0237603Y0092761D01*
X0237582Y0092815D01*
X0237564Y0092870D01*
X0237551Y0092927D01*
X0237541Y0092984D01*
X0237535Y0093042D01*
X0237533Y0093100D01*
X0238293Y0093100D02*
X0238295Y0093120D01*
X0238301Y0093138D01*
X0238310Y0093156D01*
X0238322Y0093171D01*
X0238337Y0093183D01*
X0238355Y0093192D01*
X0238373Y0093198D01*
X0238393Y0093200D01*
X0238413Y0093198D01*
X0238431Y0093192D01*
X0238449Y0093183D01*
X0238464Y0093171D01*
X0238476Y0093156D01*
X0238485Y0093138D01*
X0238491Y0093120D01*
X0238493Y0093100D01*
X0238491Y0093080D01*
X0238485Y0093062D01*
X0238476Y0093044D01*
X0238464Y0093029D01*
X0238449Y0093017D01*
X0238431Y0093008D01*
X0238413Y0093002D01*
X0238393Y0093000D01*
X0238373Y0093002D01*
X0238355Y0093008D01*
X0238337Y0093017D01*
X0238322Y0093029D01*
X0238310Y0093044D01*
X0238301Y0093062D01*
X0238295Y0093080D01*
X0238293Y0093100D01*
X0237893Y0093100D02*
X0237895Y0093144D01*
X0237901Y0093188D01*
X0237911Y0093231D01*
X0237924Y0093273D01*
X0237941Y0093314D01*
X0237962Y0093353D01*
X0237986Y0093390D01*
X0238013Y0093425D01*
X0238043Y0093457D01*
X0238076Y0093487D01*
X0238112Y0093513D01*
X0238149Y0093537D01*
X0238189Y0093556D01*
X0238230Y0093573D01*
X0238273Y0093585D01*
X0238316Y0093594D01*
X0238360Y0093599D01*
X0238404Y0093600D01*
X0238448Y0093597D01*
X0238492Y0093590D01*
X0238535Y0093579D01*
X0238577Y0093565D01*
X0238617Y0093547D01*
X0238656Y0093525D01*
X0238692Y0093501D01*
X0238726Y0093473D01*
X0238758Y0093442D01*
X0238787Y0093408D01*
X0238813Y0093372D01*
X0238835Y0093334D01*
X0238854Y0093294D01*
X0238869Y0093252D01*
X0238881Y0093210D01*
X0238889Y0093166D01*
X0238893Y0093122D01*
X0238893Y0093078D01*
X0238889Y0093034D01*
X0238881Y0092990D01*
X0238869Y0092948D01*
X0238854Y0092906D01*
X0238835Y0092866D01*
X0238813Y0092828D01*
X0238787Y0092792D01*
X0238758Y0092758D01*
X0238726Y0092727D01*
X0238692Y0092699D01*
X0238656Y0092675D01*
X0238617Y0092653D01*
X0238577Y0092635D01*
X0238535Y0092621D01*
X0238492Y0092610D01*
X0238448Y0092603D01*
X0238404Y0092600D01*
X0238360Y0092601D01*
X0238316Y0092606D01*
X0238273Y0092615D01*
X0238230Y0092627D01*
X0238189Y0092644D01*
X0238149Y0092663D01*
X0238112Y0092687D01*
X0238076Y0092713D01*
X0238043Y0092743D01*
X0238013Y0092775D01*
X0237986Y0092810D01*
X0237962Y0092847D01*
X0237941Y0092886D01*
X0237924Y0092927D01*
X0237911Y0092969D01*
X0237901Y0093012D01*
X0237895Y0093056D01*
X0237893Y0093100D01*
X0297666Y0146052D02*
X0297666Y0146445D01*
X0297666Y0146052D02*
X0300028Y0146052D01*
X0300028Y0148414D01*
X0300422Y0148020D01*
X0300422Y0146052D01*
X0300028Y0146052D01*
X0300422Y0146052D02*
X0305540Y0146052D01*
X0305540Y0146445D01*
X0305540Y0149595D02*
X0305540Y0149989D01*
X0300422Y0149989D01*
X0300422Y0148020D01*
X0300028Y0148414D02*
X0300028Y0149989D01*
X0300422Y0149989D01*
X0300028Y0149989D02*
X0297666Y0149989D01*
X0297666Y0149595D01*
X0235833Y0234900D02*
X0235835Y0234958D01*
X0235841Y0235016D01*
X0235851Y0235073D01*
X0235864Y0235130D01*
X0235882Y0235185D01*
X0235903Y0235239D01*
X0235927Y0235292D01*
X0235956Y0235343D01*
X0235987Y0235391D01*
X0236022Y0235438D01*
X0236060Y0235482D01*
X0236100Y0235523D01*
X0236144Y0235562D01*
X0236190Y0235597D01*
X0236238Y0235630D01*
X0236288Y0235659D01*
X0236341Y0235684D01*
X0236394Y0235706D01*
X0236449Y0235725D01*
X0236506Y0235739D01*
X0236563Y0235750D01*
X0236620Y0235757D01*
X0236678Y0235760D01*
X0236737Y0235759D01*
X0236794Y0235754D01*
X0236852Y0235745D01*
X0236909Y0235733D01*
X0236964Y0235716D01*
X0237019Y0235696D01*
X0237072Y0235672D01*
X0237123Y0235645D01*
X0237172Y0235614D01*
X0237219Y0235580D01*
X0237264Y0235543D01*
X0237306Y0235503D01*
X0237346Y0235460D01*
X0237382Y0235415D01*
X0237415Y0235367D01*
X0237445Y0235317D01*
X0237471Y0235266D01*
X0237494Y0235212D01*
X0237514Y0235157D01*
X0237529Y0235101D01*
X0237541Y0235045D01*
X0237549Y0234987D01*
X0237553Y0234929D01*
X0237553Y0234871D01*
X0237549Y0234813D01*
X0237541Y0234755D01*
X0237529Y0234699D01*
X0237514Y0234643D01*
X0237494Y0234588D01*
X0237471Y0234534D01*
X0237445Y0234483D01*
X0237415Y0234433D01*
X0237382Y0234385D01*
X0237346Y0234340D01*
X0237306Y0234297D01*
X0237264Y0234257D01*
X0237219Y0234220D01*
X0237172Y0234186D01*
X0237123Y0234155D01*
X0237072Y0234128D01*
X0237019Y0234104D01*
X0236964Y0234084D01*
X0236909Y0234067D01*
X0236852Y0234055D01*
X0236794Y0234046D01*
X0236737Y0234041D01*
X0236678Y0234040D01*
X0236620Y0234043D01*
X0236563Y0234050D01*
X0236506Y0234061D01*
X0236449Y0234075D01*
X0236394Y0234094D01*
X0236341Y0234116D01*
X0236288Y0234141D01*
X0236238Y0234170D01*
X0236190Y0234203D01*
X0236144Y0234238D01*
X0236100Y0234277D01*
X0236060Y0234318D01*
X0236022Y0234362D01*
X0235987Y0234409D01*
X0235956Y0234457D01*
X0235927Y0234508D01*
X0235903Y0234561D01*
X0235882Y0234615D01*
X0235864Y0234670D01*
X0235851Y0234727D01*
X0235841Y0234784D01*
X0235835Y0234842D01*
X0235833Y0234900D01*
X0236593Y0234900D02*
X0236595Y0234920D01*
X0236601Y0234938D01*
X0236610Y0234956D01*
X0236622Y0234971D01*
X0236637Y0234983D01*
X0236655Y0234992D01*
X0236673Y0234998D01*
X0236693Y0235000D01*
X0236713Y0234998D01*
X0236731Y0234992D01*
X0236749Y0234983D01*
X0236764Y0234971D01*
X0236776Y0234956D01*
X0236785Y0234938D01*
X0236791Y0234920D01*
X0236793Y0234900D01*
X0236791Y0234880D01*
X0236785Y0234862D01*
X0236776Y0234844D01*
X0236764Y0234829D01*
X0236749Y0234817D01*
X0236731Y0234808D01*
X0236713Y0234802D01*
X0236693Y0234800D01*
X0236673Y0234802D01*
X0236655Y0234808D01*
X0236637Y0234817D01*
X0236622Y0234829D01*
X0236610Y0234844D01*
X0236601Y0234862D01*
X0236595Y0234880D01*
X0236593Y0234900D01*
X0236193Y0234900D02*
X0236195Y0234944D01*
X0236201Y0234988D01*
X0236211Y0235031D01*
X0236224Y0235073D01*
X0236241Y0235114D01*
X0236262Y0235153D01*
X0236286Y0235190D01*
X0236313Y0235225D01*
X0236343Y0235257D01*
X0236376Y0235287D01*
X0236412Y0235313D01*
X0236449Y0235337D01*
X0236489Y0235356D01*
X0236530Y0235373D01*
X0236573Y0235385D01*
X0236616Y0235394D01*
X0236660Y0235399D01*
X0236704Y0235400D01*
X0236748Y0235397D01*
X0236792Y0235390D01*
X0236835Y0235379D01*
X0236877Y0235365D01*
X0236917Y0235347D01*
X0236956Y0235325D01*
X0236992Y0235301D01*
X0237026Y0235273D01*
X0237058Y0235242D01*
X0237087Y0235208D01*
X0237113Y0235172D01*
X0237135Y0235134D01*
X0237154Y0235094D01*
X0237169Y0235052D01*
X0237181Y0235010D01*
X0237189Y0234966D01*
X0237193Y0234922D01*
X0237193Y0234878D01*
X0237189Y0234834D01*
X0237181Y0234790D01*
X0237169Y0234748D01*
X0237154Y0234706D01*
X0237135Y0234666D01*
X0237113Y0234628D01*
X0237087Y0234592D01*
X0237058Y0234558D01*
X0237026Y0234527D01*
X0236992Y0234499D01*
X0236956Y0234475D01*
X0236917Y0234453D01*
X0236877Y0234435D01*
X0236835Y0234421D01*
X0236792Y0234410D01*
X0236748Y0234403D01*
X0236704Y0234400D01*
X0236660Y0234401D01*
X0236616Y0234406D01*
X0236573Y0234415D01*
X0236530Y0234427D01*
X0236489Y0234444D01*
X0236449Y0234463D01*
X0236412Y0234487D01*
X0236376Y0234513D01*
X0236343Y0234543D01*
X0236313Y0234575D01*
X0236286Y0234610D01*
X0236262Y0234647D01*
X0236241Y0234686D01*
X0236224Y0234727D01*
X0236211Y0234769D01*
X0236201Y0234812D01*
X0236195Y0234856D01*
X0236193Y0234900D01*
X0226133Y0243200D02*
X0226135Y0243258D01*
X0226141Y0243316D01*
X0226151Y0243373D01*
X0226164Y0243430D01*
X0226182Y0243485D01*
X0226203Y0243539D01*
X0226227Y0243592D01*
X0226256Y0243643D01*
X0226287Y0243691D01*
X0226322Y0243738D01*
X0226360Y0243782D01*
X0226400Y0243823D01*
X0226444Y0243862D01*
X0226490Y0243897D01*
X0226538Y0243930D01*
X0226588Y0243959D01*
X0226641Y0243984D01*
X0226694Y0244006D01*
X0226749Y0244025D01*
X0226806Y0244039D01*
X0226863Y0244050D01*
X0226920Y0244057D01*
X0226978Y0244060D01*
X0227037Y0244059D01*
X0227094Y0244054D01*
X0227152Y0244045D01*
X0227209Y0244033D01*
X0227264Y0244016D01*
X0227319Y0243996D01*
X0227372Y0243972D01*
X0227423Y0243945D01*
X0227472Y0243914D01*
X0227519Y0243880D01*
X0227564Y0243843D01*
X0227606Y0243803D01*
X0227646Y0243760D01*
X0227682Y0243715D01*
X0227715Y0243667D01*
X0227745Y0243617D01*
X0227771Y0243566D01*
X0227794Y0243512D01*
X0227814Y0243457D01*
X0227829Y0243401D01*
X0227841Y0243345D01*
X0227849Y0243287D01*
X0227853Y0243229D01*
X0227853Y0243171D01*
X0227849Y0243113D01*
X0227841Y0243055D01*
X0227829Y0242999D01*
X0227814Y0242943D01*
X0227794Y0242888D01*
X0227771Y0242834D01*
X0227745Y0242783D01*
X0227715Y0242733D01*
X0227682Y0242685D01*
X0227646Y0242640D01*
X0227606Y0242597D01*
X0227564Y0242557D01*
X0227519Y0242520D01*
X0227472Y0242486D01*
X0227423Y0242455D01*
X0227372Y0242428D01*
X0227319Y0242404D01*
X0227264Y0242384D01*
X0227209Y0242367D01*
X0227152Y0242355D01*
X0227094Y0242346D01*
X0227037Y0242341D01*
X0226978Y0242340D01*
X0226920Y0242343D01*
X0226863Y0242350D01*
X0226806Y0242361D01*
X0226749Y0242375D01*
X0226694Y0242394D01*
X0226641Y0242416D01*
X0226588Y0242441D01*
X0226538Y0242470D01*
X0226490Y0242503D01*
X0226444Y0242538D01*
X0226400Y0242577D01*
X0226360Y0242618D01*
X0226322Y0242662D01*
X0226287Y0242709D01*
X0226256Y0242757D01*
X0226227Y0242808D01*
X0226203Y0242861D01*
X0226182Y0242915D01*
X0226164Y0242970D01*
X0226151Y0243027D01*
X0226141Y0243084D01*
X0226135Y0243142D01*
X0226133Y0243200D01*
X0226893Y0243200D02*
X0226895Y0243220D01*
X0226901Y0243238D01*
X0226910Y0243256D01*
X0226922Y0243271D01*
X0226937Y0243283D01*
X0226955Y0243292D01*
X0226973Y0243298D01*
X0226993Y0243300D01*
X0227013Y0243298D01*
X0227031Y0243292D01*
X0227049Y0243283D01*
X0227064Y0243271D01*
X0227076Y0243256D01*
X0227085Y0243238D01*
X0227091Y0243220D01*
X0227093Y0243200D01*
X0227091Y0243180D01*
X0227085Y0243162D01*
X0227076Y0243144D01*
X0227064Y0243129D01*
X0227049Y0243117D01*
X0227031Y0243108D01*
X0227013Y0243102D01*
X0226993Y0243100D01*
X0226973Y0243102D01*
X0226955Y0243108D01*
X0226937Y0243117D01*
X0226922Y0243129D01*
X0226910Y0243144D01*
X0226901Y0243162D01*
X0226895Y0243180D01*
X0226893Y0243200D01*
X0226493Y0243200D02*
X0226495Y0243244D01*
X0226501Y0243288D01*
X0226511Y0243331D01*
X0226524Y0243373D01*
X0226541Y0243414D01*
X0226562Y0243453D01*
X0226586Y0243490D01*
X0226613Y0243525D01*
X0226643Y0243557D01*
X0226676Y0243587D01*
X0226712Y0243613D01*
X0226749Y0243637D01*
X0226789Y0243656D01*
X0226830Y0243673D01*
X0226873Y0243685D01*
X0226916Y0243694D01*
X0226960Y0243699D01*
X0227004Y0243700D01*
X0227048Y0243697D01*
X0227092Y0243690D01*
X0227135Y0243679D01*
X0227177Y0243665D01*
X0227217Y0243647D01*
X0227256Y0243625D01*
X0227292Y0243601D01*
X0227326Y0243573D01*
X0227358Y0243542D01*
X0227387Y0243508D01*
X0227413Y0243472D01*
X0227435Y0243434D01*
X0227454Y0243394D01*
X0227469Y0243352D01*
X0227481Y0243310D01*
X0227489Y0243266D01*
X0227493Y0243222D01*
X0227493Y0243178D01*
X0227489Y0243134D01*
X0227481Y0243090D01*
X0227469Y0243048D01*
X0227454Y0243006D01*
X0227435Y0242966D01*
X0227413Y0242928D01*
X0227387Y0242892D01*
X0227358Y0242858D01*
X0227326Y0242827D01*
X0227292Y0242799D01*
X0227256Y0242775D01*
X0227217Y0242753D01*
X0227177Y0242735D01*
X0227135Y0242721D01*
X0227092Y0242710D01*
X0227048Y0242703D01*
X0227004Y0242700D01*
X0226960Y0242701D01*
X0226916Y0242706D01*
X0226873Y0242715D01*
X0226830Y0242727D01*
X0226789Y0242744D01*
X0226749Y0242763D01*
X0226712Y0242787D01*
X0226676Y0242813D01*
X0226643Y0242843D01*
X0226613Y0242875D01*
X0226586Y0242910D01*
X0226562Y0242947D01*
X0226541Y0242986D01*
X0226524Y0243027D01*
X0226511Y0243069D01*
X0226501Y0243112D01*
X0226495Y0243156D01*
X0226493Y0243200D01*
X0207493Y0241200D02*
X0199493Y0241200D01*
X0187933Y0199400D02*
X0187935Y0199458D01*
X0187941Y0199516D01*
X0187951Y0199573D01*
X0187964Y0199630D01*
X0187982Y0199685D01*
X0188003Y0199739D01*
X0188027Y0199792D01*
X0188056Y0199843D01*
X0188087Y0199891D01*
X0188122Y0199938D01*
X0188160Y0199982D01*
X0188200Y0200023D01*
X0188244Y0200062D01*
X0188290Y0200097D01*
X0188338Y0200130D01*
X0188388Y0200159D01*
X0188441Y0200184D01*
X0188494Y0200206D01*
X0188549Y0200225D01*
X0188606Y0200239D01*
X0188663Y0200250D01*
X0188720Y0200257D01*
X0188778Y0200260D01*
X0188837Y0200259D01*
X0188894Y0200254D01*
X0188952Y0200245D01*
X0189009Y0200233D01*
X0189064Y0200216D01*
X0189119Y0200196D01*
X0189172Y0200172D01*
X0189223Y0200145D01*
X0189272Y0200114D01*
X0189319Y0200080D01*
X0189364Y0200043D01*
X0189406Y0200003D01*
X0189446Y0199960D01*
X0189482Y0199915D01*
X0189515Y0199867D01*
X0189545Y0199817D01*
X0189571Y0199766D01*
X0189594Y0199712D01*
X0189614Y0199657D01*
X0189629Y0199601D01*
X0189641Y0199545D01*
X0189649Y0199487D01*
X0189653Y0199429D01*
X0189653Y0199371D01*
X0189649Y0199313D01*
X0189641Y0199255D01*
X0189629Y0199199D01*
X0189614Y0199143D01*
X0189594Y0199088D01*
X0189571Y0199034D01*
X0189545Y0198983D01*
X0189515Y0198933D01*
X0189482Y0198885D01*
X0189446Y0198840D01*
X0189406Y0198797D01*
X0189364Y0198757D01*
X0189319Y0198720D01*
X0189272Y0198686D01*
X0189223Y0198655D01*
X0189172Y0198628D01*
X0189119Y0198604D01*
X0189064Y0198584D01*
X0189009Y0198567D01*
X0188952Y0198555D01*
X0188894Y0198546D01*
X0188837Y0198541D01*
X0188778Y0198540D01*
X0188720Y0198543D01*
X0188663Y0198550D01*
X0188606Y0198561D01*
X0188549Y0198575D01*
X0188494Y0198594D01*
X0188441Y0198616D01*
X0188388Y0198641D01*
X0188338Y0198670D01*
X0188290Y0198703D01*
X0188244Y0198738D01*
X0188200Y0198777D01*
X0188160Y0198818D01*
X0188122Y0198862D01*
X0188087Y0198909D01*
X0188056Y0198957D01*
X0188027Y0199008D01*
X0188003Y0199061D01*
X0187982Y0199115D01*
X0187964Y0199170D01*
X0187951Y0199227D01*
X0187941Y0199284D01*
X0187935Y0199342D01*
X0187933Y0199400D01*
X0188693Y0199400D02*
X0188695Y0199420D01*
X0188701Y0199438D01*
X0188710Y0199456D01*
X0188722Y0199471D01*
X0188737Y0199483D01*
X0188755Y0199492D01*
X0188773Y0199498D01*
X0188793Y0199500D01*
X0188813Y0199498D01*
X0188831Y0199492D01*
X0188849Y0199483D01*
X0188864Y0199471D01*
X0188876Y0199456D01*
X0188885Y0199438D01*
X0188891Y0199420D01*
X0188893Y0199400D01*
X0188891Y0199380D01*
X0188885Y0199362D01*
X0188876Y0199344D01*
X0188864Y0199329D01*
X0188849Y0199317D01*
X0188831Y0199308D01*
X0188813Y0199302D01*
X0188793Y0199300D01*
X0188773Y0199302D01*
X0188755Y0199308D01*
X0188737Y0199317D01*
X0188722Y0199329D01*
X0188710Y0199344D01*
X0188701Y0199362D01*
X0188695Y0199380D01*
X0188693Y0199400D01*
X0188293Y0199400D02*
X0188295Y0199444D01*
X0188301Y0199488D01*
X0188311Y0199531D01*
X0188324Y0199573D01*
X0188341Y0199614D01*
X0188362Y0199653D01*
X0188386Y0199690D01*
X0188413Y0199725D01*
X0188443Y0199757D01*
X0188476Y0199787D01*
X0188512Y0199813D01*
X0188549Y0199837D01*
X0188589Y0199856D01*
X0188630Y0199873D01*
X0188673Y0199885D01*
X0188716Y0199894D01*
X0188760Y0199899D01*
X0188804Y0199900D01*
X0188848Y0199897D01*
X0188892Y0199890D01*
X0188935Y0199879D01*
X0188977Y0199865D01*
X0189017Y0199847D01*
X0189056Y0199825D01*
X0189092Y0199801D01*
X0189126Y0199773D01*
X0189158Y0199742D01*
X0189187Y0199708D01*
X0189213Y0199672D01*
X0189235Y0199634D01*
X0189254Y0199594D01*
X0189269Y0199552D01*
X0189281Y0199510D01*
X0189289Y0199466D01*
X0189293Y0199422D01*
X0189293Y0199378D01*
X0189289Y0199334D01*
X0189281Y0199290D01*
X0189269Y0199248D01*
X0189254Y0199206D01*
X0189235Y0199166D01*
X0189213Y0199128D01*
X0189187Y0199092D01*
X0189158Y0199058D01*
X0189126Y0199027D01*
X0189092Y0198999D01*
X0189056Y0198975D01*
X0189017Y0198953D01*
X0188977Y0198935D01*
X0188935Y0198921D01*
X0188892Y0198910D01*
X0188848Y0198903D01*
X0188804Y0198900D01*
X0188760Y0198901D01*
X0188716Y0198906D01*
X0188673Y0198915D01*
X0188630Y0198927D01*
X0188589Y0198944D01*
X0188549Y0198963D01*
X0188512Y0198987D01*
X0188476Y0199013D01*
X0188443Y0199043D01*
X0188413Y0199075D01*
X0188386Y0199110D01*
X0188362Y0199147D01*
X0188341Y0199186D01*
X0188324Y0199227D01*
X0188311Y0199269D01*
X0188301Y0199312D01*
X0188295Y0199356D01*
X0188293Y0199400D01*
X0259563Y0245720D02*
X0259563Y0253220D01*
X0259063Y0261220D02*
X0259063Y0265220D01*
X0260063Y0266220D01*
X0267563Y0266220D01*
X0269063Y0264720D01*
X0269063Y0261720D01*
X0268563Y0253220D02*
X0268563Y0245720D01*
X0259563Y0245720D01*
X0151133Y0288400D02*
X0151135Y0288458D01*
X0151141Y0288516D01*
X0151151Y0288573D01*
X0151164Y0288630D01*
X0151182Y0288685D01*
X0151203Y0288739D01*
X0151227Y0288792D01*
X0151256Y0288843D01*
X0151287Y0288891D01*
X0151322Y0288938D01*
X0151360Y0288982D01*
X0151400Y0289023D01*
X0151444Y0289062D01*
X0151490Y0289097D01*
X0151538Y0289130D01*
X0151588Y0289159D01*
X0151641Y0289184D01*
X0151694Y0289206D01*
X0151749Y0289225D01*
X0151806Y0289239D01*
X0151863Y0289250D01*
X0151920Y0289257D01*
X0151978Y0289260D01*
X0152037Y0289259D01*
X0152094Y0289254D01*
X0152152Y0289245D01*
X0152209Y0289233D01*
X0152264Y0289216D01*
X0152319Y0289196D01*
X0152372Y0289172D01*
X0152423Y0289145D01*
X0152472Y0289114D01*
X0152519Y0289080D01*
X0152564Y0289043D01*
X0152606Y0289003D01*
X0152646Y0288960D01*
X0152682Y0288915D01*
X0152715Y0288867D01*
X0152745Y0288817D01*
X0152771Y0288766D01*
X0152794Y0288712D01*
X0152814Y0288657D01*
X0152829Y0288601D01*
X0152841Y0288545D01*
X0152849Y0288487D01*
X0152853Y0288429D01*
X0152853Y0288371D01*
X0152849Y0288313D01*
X0152841Y0288255D01*
X0152829Y0288199D01*
X0152814Y0288143D01*
X0152794Y0288088D01*
X0152771Y0288034D01*
X0152745Y0287983D01*
X0152715Y0287933D01*
X0152682Y0287885D01*
X0152646Y0287840D01*
X0152606Y0287797D01*
X0152564Y0287757D01*
X0152519Y0287720D01*
X0152472Y0287686D01*
X0152423Y0287655D01*
X0152372Y0287628D01*
X0152319Y0287604D01*
X0152264Y0287584D01*
X0152209Y0287567D01*
X0152152Y0287555D01*
X0152094Y0287546D01*
X0152037Y0287541D01*
X0151978Y0287540D01*
X0151920Y0287543D01*
X0151863Y0287550D01*
X0151806Y0287561D01*
X0151749Y0287575D01*
X0151694Y0287594D01*
X0151641Y0287616D01*
X0151588Y0287641D01*
X0151538Y0287670D01*
X0151490Y0287703D01*
X0151444Y0287738D01*
X0151400Y0287777D01*
X0151360Y0287818D01*
X0151322Y0287862D01*
X0151287Y0287909D01*
X0151256Y0287957D01*
X0151227Y0288008D01*
X0151203Y0288061D01*
X0151182Y0288115D01*
X0151164Y0288170D01*
X0151151Y0288227D01*
X0151141Y0288284D01*
X0151135Y0288342D01*
X0151133Y0288400D01*
X0151893Y0288400D02*
X0151895Y0288420D01*
X0151901Y0288438D01*
X0151910Y0288456D01*
X0151922Y0288471D01*
X0151937Y0288483D01*
X0151955Y0288492D01*
X0151973Y0288498D01*
X0151993Y0288500D01*
X0152013Y0288498D01*
X0152031Y0288492D01*
X0152049Y0288483D01*
X0152064Y0288471D01*
X0152076Y0288456D01*
X0152085Y0288438D01*
X0152091Y0288420D01*
X0152093Y0288400D01*
X0152091Y0288380D01*
X0152085Y0288362D01*
X0152076Y0288344D01*
X0152064Y0288329D01*
X0152049Y0288317D01*
X0152031Y0288308D01*
X0152013Y0288302D01*
X0151993Y0288300D01*
X0151973Y0288302D01*
X0151955Y0288308D01*
X0151937Y0288317D01*
X0151922Y0288329D01*
X0151910Y0288344D01*
X0151901Y0288362D01*
X0151895Y0288380D01*
X0151893Y0288400D01*
X0151493Y0288400D02*
X0151495Y0288444D01*
X0151501Y0288488D01*
X0151511Y0288531D01*
X0151524Y0288573D01*
X0151541Y0288614D01*
X0151562Y0288653D01*
X0151586Y0288690D01*
X0151613Y0288725D01*
X0151643Y0288757D01*
X0151676Y0288787D01*
X0151712Y0288813D01*
X0151749Y0288837D01*
X0151789Y0288856D01*
X0151830Y0288873D01*
X0151873Y0288885D01*
X0151916Y0288894D01*
X0151960Y0288899D01*
X0152004Y0288900D01*
X0152048Y0288897D01*
X0152092Y0288890D01*
X0152135Y0288879D01*
X0152177Y0288865D01*
X0152217Y0288847D01*
X0152256Y0288825D01*
X0152292Y0288801D01*
X0152326Y0288773D01*
X0152358Y0288742D01*
X0152387Y0288708D01*
X0152413Y0288672D01*
X0152435Y0288634D01*
X0152454Y0288594D01*
X0152469Y0288552D01*
X0152481Y0288510D01*
X0152489Y0288466D01*
X0152493Y0288422D01*
X0152493Y0288378D01*
X0152489Y0288334D01*
X0152481Y0288290D01*
X0152469Y0288248D01*
X0152454Y0288206D01*
X0152435Y0288166D01*
X0152413Y0288128D01*
X0152387Y0288092D01*
X0152358Y0288058D01*
X0152326Y0288027D01*
X0152292Y0287999D01*
X0152256Y0287975D01*
X0152217Y0287953D01*
X0152177Y0287935D01*
X0152135Y0287921D01*
X0152092Y0287910D01*
X0152048Y0287903D01*
X0152004Y0287900D01*
X0151960Y0287901D01*
X0151916Y0287906D01*
X0151873Y0287915D01*
X0151830Y0287927D01*
X0151789Y0287944D01*
X0151749Y0287963D01*
X0151712Y0287987D01*
X0151676Y0288013D01*
X0151643Y0288043D01*
X0151613Y0288075D01*
X0151586Y0288110D01*
X0151562Y0288147D01*
X0151541Y0288186D01*
X0151524Y0288227D01*
X0151511Y0288269D01*
X0151501Y0288312D01*
X0151495Y0288356D01*
X0151493Y0288400D01*
D12*
X0136746Y0286481D02*
X0136746Y0284119D01*
X0130840Y0283922D02*
X0130840Y0286284D01*
X0130046Y0277381D02*
X0130046Y0275019D01*
X0124140Y0274822D02*
X0124140Y0277184D01*
X0100655Y0226881D02*
X0100655Y0224519D01*
X0095931Y0224519D02*
X0095931Y0226881D01*
X0075755Y0210381D02*
X0075755Y0208019D01*
X0071031Y0208019D02*
X0071031Y0210381D01*
X0070646Y0192778D02*
X0070646Y0190416D01*
X0064740Y0190219D02*
X0064740Y0192581D01*
X0060046Y0192678D02*
X0060046Y0190316D01*
X0054140Y0190119D02*
X0054140Y0192481D01*
X0106394Y0154998D02*
X0106394Y0140802D01*
X0124992Y0140802D02*
X0124992Y0154998D01*
X0140112Y0168238D02*
X0142474Y0168238D01*
X0142474Y0172962D02*
X0140112Y0172962D01*
X0140212Y0178038D02*
X0142574Y0178038D01*
X0142574Y0182762D02*
X0140212Y0182762D01*
X0069674Y0125062D02*
X0067312Y0125062D01*
X0067312Y0120338D02*
X0069674Y0120338D01*
X0069448Y0113689D02*
X0065338Y0113689D01*
X0062165Y0113689D02*
X0061795Y0113689D01*
X0061795Y0107311D01*
X0062165Y0107311D01*
X0065338Y0107311D02*
X0065708Y0107311D01*
X0069078Y0107311D02*
X0069448Y0107311D01*
X0072621Y0107311D02*
X0072991Y0107311D01*
X0072991Y0113689D01*
X0072621Y0113689D01*
X0079012Y0111638D02*
X0081374Y0111638D01*
X0081374Y0116362D02*
X0079012Y0116362D01*
X0060455Y0133819D02*
X0060455Y0136181D01*
X0055731Y0136181D02*
X0055731Y0133819D01*
X0130294Y0108698D02*
X0130294Y0094502D01*
X0148892Y0094502D02*
X0148892Y0108698D01*
X0154294Y0107898D02*
X0154294Y0093702D01*
X0172892Y0093702D02*
X0172892Y0107898D01*
X0226994Y0198902D02*
X0226994Y0213098D01*
X0245592Y0213098D02*
X0245592Y0198902D01*
X0290352Y0177242D02*
X0292714Y0177242D01*
X0292714Y0172518D02*
X0290352Y0172518D01*
D13*
X0289419Y0180857D02*
X0281545Y0180857D01*
X0277608Y0184794D01*
X0277608Y0196606D01*
X0281545Y0200543D01*
X0289419Y0200543D01*
X0283093Y0213198D02*
X0283093Y0239002D01*
X0306693Y0239000D01*
X0306693Y0213200D02*
X0283093Y0213198D01*
X0305167Y0200543D02*
X0316978Y0200543D01*
X0316978Y0180857D01*
X0305167Y0180857D01*
X0245717Y0130043D02*
X0245717Y0110357D01*
X0237352Y0112326D02*
X0237354Y0112385D01*
X0237360Y0112444D01*
X0237370Y0112502D01*
X0237383Y0112560D01*
X0237401Y0112616D01*
X0237422Y0112671D01*
X0237447Y0112725D01*
X0237476Y0112777D01*
X0237507Y0112827D01*
X0237542Y0112874D01*
X0237581Y0112920D01*
X0237622Y0112962D01*
X0237666Y0113002D01*
X0237712Y0113038D01*
X0237761Y0113072D01*
X0237812Y0113102D01*
X0237864Y0113129D01*
X0237919Y0113152D01*
X0237975Y0113171D01*
X0238032Y0113187D01*
X0238090Y0113199D01*
X0238148Y0113207D01*
X0238207Y0113211D01*
X0238267Y0113211D01*
X0238326Y0113207D01*
X0238384Y0113199D01*
X0238442Y0113187D01*
X0238499Y0113171D01*
X0238555Y0113152D01*
X0238610Y0113129D01*
X0238662Y0113102D01*
X0238713Y0113072D01*
X0238762Y0113038D01*
X0238808Y0113002D01*
X0238852Y0112962D01*
X0238893Y0112920D01*
X0238932Y0112874D01*
X0238967Y0112827D01*
X0238998Y0112777D01*
X0239027Y0112725D01*
X0239052Y0112671D01*
X0239073Y0112616D01*
X0239091Y0112560D01*
X0239104Y0112502D01*
X0239114Y0112444D01*
X0239120Y0112385D01*
X0239122Y0112326D01*
X0239120Y0112267D01*
X0239114Y0112208D01*
X0239104Y0112150D01*
X0239091Y0112092D01*
X0239073Y0112036D01*
X0239052Y0111981D01*
X0239027Y0111927D01*
X0238998Y0111875D01*
X0238967Y0111825D01*
X0238932Y0111778D01*
X0238893Y0111732D01*
X0238852Y0111690D01*
X0238808Y0111650D01*
X0238762Y0111614D01*
X0238713Y0111580D01*
X0238662Y0111550D01*
X0238610Y0111523D01*
X0238555Y0111500D01*
X0238499Y0111481D01*
X0238442Y0111465D01*
X0238384Y0111453D01*
X0238326Y0111445D01*
X0238267Y0111441D01*
X0238207Y0111441D01*
X0238148Y0111445D01*
X0238090Y0111453D01*
X0238032Y0111465D01*
X0237975Y0111481D01*
X0237919Y0111500D01*
X0237864Y0111523D01*
X0237812Y0111550D01*
X0237761Y0111580D01*
X0237712Y0111614D01*
X0237666Y0111650D01*
X0237622Y0111690D01*
X0237581Y0111732D01*
X0237542Y0111778D01*
X0237507Y0111825D01*
X0237476Y0111875D01*
X0237447Y0111927D01*
X0237422Y0111981D01*
X0237401Y0112036D01*
X0237383Y0112092D01*
X0237370Y0112150D01*
X0237360Y0112208D01*
X0237354Y0112267D01*
X0237352Y0112326D01*
X0235875Y0110357D02*
X0235875Y0130043D01*
X0228717Y0130443D02*
X0228717Y0110757D01*
X0220352Y0112726D02*
X0220354Y0112785D01*
X0220360Y0112844D01*
X0220370Y0112902D01*
X0220383Y0112960D01*
X0220401Y0113016D01*
X0220422Y0113071D01*
X0220447Y0113125D01*
X0220476Y0113177D01*
X0220507Y0113227D01*
X0220542Y0113274D01*
X0220581Y0113320D01*
X0220622Y0113362D01*
X0220666Y0113402D01*
X0220712Y0113438D01*
X0220761Y0113472D01*
X0220812Y0113502D01*
X0220864Y0113529D01*
X0220919Y0113552D01*
X0220975Y0113571D01*
X0221032Y0113587D01*
X0221090Y0113599D01*
X0221148Y0113607D01*
X0221207Y0113611D01*
X0221267Y0113611D01*
X0221326Y0113607D01*
X0221384Y0113599D01*
X0221442Y0113587D01*
X0221499Y0113571D01*
X0221555Y0113552D01*
X0221610Y0113529D01*
X0221662Y0113502D01*
X0221713Y0113472D01*
X0221762Y0113438D01*
X0221808Y0113402D01*
X0221852Y0113362D01*
X0221893Y0113320D01*
X0221932Y0113274D01*
X0221967Y0113227D01*
X0221998Y0113177D01*
X0222027Y0113125D01*
X0222052Y0113071D01*
X0222073Y0113016D01*
X0222091Y0112960D01*
X0222104Y0112902D01*
X0222114Y0112844D01*
X0222120Y0112785D01*
X0222122Y0112726D01*
X0222120Y0112667D01*
X0222114Y0112608D01*
X0222104Y0112550D01*
X0222091Y0112492D01*
X0222073Y0112436D01*
X0222052Y0112381D01*
X0222027Y0112327D01*
X0221998Y0112275D01*
X0221967Y0112225D01*
X0221932Y0112178D01*
X0221893Y0112132D01*
X0221852Y0112090D01*
X0221808Y0112050D01*
X0221762Y0112014D01*
X0221713Y0111980D01*
X0221662Y0111950D01*
X0221610Y0111923D01*
X0221555Y0111900D01*
X0221499Y0111881D01*
X0221442Y0111865D01*
X0221384Y0111853D01*
X0221326Y0111845D01*
X0221267Y0111841D01*
X0221207Y0111841D01*
X0221148Y0111845D01*
X0221090Y0111853D01*
X0221032Y0111865D01*
X0220975Y0111881D01*
X0220919Y0111900D01*
X0220864Y0111923D01*
X0220812Y0111950D01*
X0220761Y0111980D01*
X0220712Y0112014D01*
X0220666Y0112050D01*
X0220622Y0112090D01*
X0220581Y0112132D01*
X0220542Y0112178D01*
X0220507Y0112225D01*
X0220476Y0112275D01*
X0220447Y0112327D01*
X0220422Y0112381D01*
X0220401Y0112436D01*
X0220383Y0112492D01*
X0220370Y0112550D01*
X0220360Y0112608D01*
X0220354Y0112667D01*
X0220352Y0112726D01*
X0218875Y0110757D02*
X0218875Y0130443D01*
X0212917Y0130543D02*
X0212917Y0110857D01*
X0204552Y0112826D02*
X0204554Y0112885D01*
X0204560Y0112944D01*
X0204570Y0113002D01*
X0204583Y0113060D01*
X0204601Y0113116D01*
X0204622Y0113171D01*
X0204647Y0113225D01*
X0204676Y0113277D01*
X0204707Y0113327D01*
X0204742Y0113374D01*
X0204781Y0113420D01*
X0204822Y0113462D01*
X0204866Y0113502D01*
X0204912Y0113538D01*
X0204961Y0113572D01*
X0205012Y0113602D01*
X0205064Y0113629D01*
X0205119Y0113652D01*
X0205175Y0113671D01*
X0205232Y0113687D01*
X0205290Y0113699D01*
X0205348Y0113707D01*
X0205407Y0113711D01*
X0205467Y0113711D01*
X0205526Y0113707D01*
X0205584Y0113699D01*
X0205642Y0113687D01*
X0205699Y0113671D01*
X0205755Y0113652D01*
X0205810Y0113629D01*
X0205862Y0113602D01*
X0205913Y0113572D01*
X0205962Y0113538D01*
X0206008Y0113502D01*
X0206052Y0113462D01*
X0206093Y0113420D01*
X0206132Y0113374D01*
X0206167Y0113327D01*
X0206198Y0113277D01*
X0206227Y0113225D01*
X0206252Y0113171D01*
X0206273Y0113116D01*
X0206291Y0113060D01*
X0206304Y0113002D01*
X0206314Y0112944D01*
X0206320Y0112885D01*
X0206322Y0112826D01*
X0206320Y0112767D01*
X0206314Y0112708D01*
X0206304Y0112650D01*
X0206291Y0112592D01*
X0206273Y0112536D01*
X0206252Y0112481D01*
X0206227Y0112427D01*
X0206198Y0112375D01*
X0206167Y0112325D01*
X0206132Y0112278D01*
X0206093Y0112232D01*
X0206052Y0112190D01*
X0206008Y0112150D01*
X0205962Y0112114D01*
X0205913Y0112080D01*
X0205862Y0112050D01*
X0205810Y0112023D01*
X0205755Y0112000D01*
X0205699Y0111981D01*
X0205642Y0111965D01*
X0205584Y0111953D01*
X0205526Y0111945D01*
X0205467Y0111941D01*
X0205407Y0111941D01*
X0205348Y0111945D01*
X0205290Y0111953D01*
X0205232Y0111965D01*
X0205175Y0111981D01*
X0205119Y0112000D01*
X0205064Y0112023D01*
X0205012Y0112050D01*
X0204961Y0112080D01*
X0204912Y0112114D01*
X0204866Y0112150D01*
X0204822Y0112190D01*
X0204781Y0112232D01*
X0204742Y0112278D01*
X0204707Y0112325D01*
X0204676Y0112375D01*
X0204647Y0112427D01*
X0204622Y0112481D01*
X0204601Y0112536D01*
X0204583Y0112592D01*
X0204570Y0112650D01*
X0204560Y0112708D01*
X0204554Y0112767D01*
X0204552Y0112826D01*
X0203075Y0110857D02*
X0203075Y0130543D01*
X0196017Y0130043D02*
X0196017Y0110357D01*
X0187652Y0112326D02*
X0187654Y0112385D01*
X0187660Y0112444D01*
X0187670Y0112502D01*
X0187683Y0112560D01*
X0187701Y0112616D01*
X0187722Y0112671D01*
X0187747Y0112725D01*
X0187776Y0112777D01*
X0187807Y0112827D01*
X0187842Y0112874D01*
X0187881Y0112920D01*
X0187922Y0112962D01*
X0187966Y0113002D01*
X0188012Y0113038D01*
X0188061Y0113072D01*
X0188112Y0113102D01*
X0188164Y0113129D01*
X0188219Y0113152D01*
X0188275Y0113171D01*
X0188332Y0113187D01*
X0188390Y0113199D01*
X0188448Y0113207D01*
X0188507Y0113211D01*
X0188567Y0113211D01*
X0188626Y0113207D01*
X0188684Y0113199D01*
X0188742Y0113187D01*
X0188799Y0113171D01*
X0188855Y0113152D01*
X0188910Y0113129D01*
X0188962Y0113102D01*
X0189013Y0113072D01*
X0189062Y0113038D01*
X0189108Y0113002D01*
X0189152Y0112962D01*
X0189193Y0112920D01*
X0189232Y0112874D01*
X0189267Y0112827D01*
X0189298Y0112777D01*
X0189327Y0112725D01*
X0189352Y0112671D01*
X0189373Y0112616D01*
X0189391Y0112560D01*
X0189404Y0112502D01*
X0189414Y0112444D01*
X0189420Y0112385D01*
X0189422Y0112326D01*
X0189420Y0112267D01*
X0189414Y0112208D01*
X0189404Y0112150D01*
X0189391Y0112092D01*
X0189373Y0112036D01*
X0189352Y0111981D01*
X0189327Y0111927D01*
X0189298Y0111875D01*
X0189267Y0111825D01*
X0189232Y0111778D01*
X0189193Y0111732D01*
X0189152Y0111690D01*
X0189108Y0111650D01*
X0189062Y0111614D01*
X0189013Y0111580D01*
X0188962Y0111550D01*
X0188910Y0111523D01*
X0188855Y0111500D01*
X0188799Y0111481D01*
X0188742Y0111465D01*
X0188684Y0111453D01*
X0188626Y0111445D01*
X0188567Y0111441D01*
X0188507Y0111441D01*
X0188448Y0111445D01*
X0188390Y0111453D01*
X0188332Y0111465D01*
X0188275Y0111481D01*
X0188219Y0111500D01*
X0188164Y0111523D01*
X0188112Y0111550D01*
X0188061Y0111580D01*
X0188012Y0111614D01*
X0187966Y0111650D01*
X0187922Y0111690D01*
X0187881Y0111732D01*
X0187842Y0111778D01*
X0187807Y0111825D01*
X0187776Y0111875D01*
X0187747Y0111927D01*
X0187722Y0111981D01*
X0187701Y0112036D01*
X0187683Y0112092D01*
X0187670Y0112150D01*
X0187660Y0112208D01*
X0187654Y0112267D01*
X0187652Y0112326D01*
X0186175Y0110357D02*
X0186175Y0130043D01*
X0170128Y0104700D02*
X0170130Y0104747D01*
X0170136Y0104794D01*
X0170146Y0104841D01*
X0170159Y0104886D01*
X0170177Y0104930D01*
X0170198Y0104972D01*
X0170222Y0105013D01*
X0170250Y0105051D01*
X0170281Y0105087D01*
X0170315Y0105120D01*
X0170351Y0105150D01*
X0170390Y0105177D01*
X0170431Y0105201D01*
X0170474Y0105221D01*
X0170518Y0105237D01*
X0170564Y0105250D01*
X0170610Y0105259D01*
X0170658Y0105264D01*
X0170705Y0105265D01*
X0170752Y0105262D01*
X0170799Y0105255D01*
X0170845Y0105244D01*
X0170890Y0105230D01*
X0170934Y0105211D01*
X0170975Y0105189D01*
X0171015Y0105164D01*
X0171053Y0105135D01*
X0171088Y0105104D01*
X0171121Y0105069D01*
X0171150Y0105032D01*
X0171176Y0104993D01*
X0171199Y0104951D01*
X0171218Y0104908D01*
X0171234Y0104863D01*
X0171246Y0104817D01*
X0171254Y0104771D01*
X0171258Y0104724D01*
X0171258Y0104676D01*
X0171254Y0104629D01*
X0171246Y0104583D01*
X0171234Y0104537D01*
X0171218Y0104492D01*
X0171199Y0104449D01*
X0171176Y0104407D01*
X0171150Y0104368D01*
X0171121Y0104331D01*
X0171088Y0104296D01*
X0171053Y0104265D01*
X0171015Y0104236D01*
X0170976Y0104211D01*
X0170934Y0104189D01*
X0170890Y0104170D01*
X0170845Y0104156D01*
X0170799Y0104145D01*
X0170752Y0104138D01*
X0170705Y0104135D01*
X0170658Y0104136D01*
X0170610Y0104141D01*
X0170564Y0104150D01*
X0170518Y0104163D01*
X0170474Y0104179D01*
X0170431Y0104199D01*
X0170390Y0104223D01*
X0170351Y0104250D01*
X0170315Y0104280D01*
X0170281Y0104313D01*
X0170250Y0104349D01*
X0170222Y0104387D01*
X0170198Y0104428D01*
X0170177Y0104470D01*
X0170159Y0104514D01*
X0170146Y0104559D01*
X0170136Y0104606D01*
X0170130Y0104653D01*
X0170128Y0104700D01*
X0146128Y0105500D02*
X0146130Y0105547D01*
X0146136Y0105594D01*
X0146146Y0105641D01*
X0146159Y0105686D01*
X0146177Y0105730D01*
X0146198Y0105772D01*
X0146222Y0105813D01*
X0146250Y0105851D01*
X0146281Y0105887D01*
X0146315Y0105920D01*
X0146351Y0105950D01*
X0146390Y0105977D01*
X0146431Y0106001D01*
X0146474Y0106021D01*
X0146518Y0106037D01*
X0146564Y0106050D01*
X0146610Y0106059D01*
X0146658Y0106064D01*
X0146705Y0106065D01*
X0146752Y0106062D01*
X0146799Y0106055D01*
X0146845Y0106044D01*
X0146890Y0106030D01*
X0146934Y0106011D01*
X0146975Y0105989D01*
X0147015Y0105964D01*
X0147053Y0105935D01*
X0147088Y0105904D01*
X0147121Y0105869D01*
X0147150Y0105832D01*
X0147176Y0105793D01*
X0147199Y0105751D01*
X0147218Y0105708D01*
X0147234Y0105663D01*
X0147246Y0105617D01*
X0147254Y0105571D01*
X0147258Y0105524D01*
X0147258Y0105476D01*
X0147254Y0105429D01*
X0147246Y0105383D01*
X0147234Y0105337D01*
X0147218Y0105292D01*
X0147199Y0105249D01*
X0147176Y0105207D01*
X0147150Y0105168D01*
X0147121Y0105131D01*
X0147088Y0105096D01*
X0147053Y0105065D01*
X0147015Y0105036D01*
X0146976Y0105011D01*
X0146934Y0104989D01*
X0146890Y0104970D01*
X0146845Y0104956D01*
X0146799Y0104945D01*
X0146752Y0104938D01*
X0146705Y0104935D01*
X0146658Y0104936D01*
X0146610Y0104941D01*
X0146564Y0104950D01*
X0146518Y0104963D01*
X0146474Y0104979D01*
X0146431Y0104999D01*
X0146390Y0105023D01*
X0146351Y0105050D01*
X0146315Y0105080D01*
X0146281Y0105113D01*
X0146250Y0105149D01*
X0146222Y0105187D01*
X0146198Y0105228D01*
X0146177Y0105270D01*
X0146159Y0105314D01*
X0146146Y0105359D01*
X0146136Y0105406D01*
X0146130Y0105453D01*
X0146128Y0105500D01*
X0127436Y0120441D02*
X0125862Y0120441D01*
X0125862Y0125559D01*
X0120350Y0125559D01*
X0120350Y0120441D02*
X0125862Y0120441D01*
X0125862Y0125559D02*
X0127436Y0125559D01*
X0122228Y0151800D02*
X0122230Y0151847D01*
X0122236Y0151894D01*
X0122246Y0151941D01*
X0122259Y0151986D01*
X0122277Y0152030D01*
X0122298Y0152072D01*
X0122322Y0152113D01*
X0122350Y0152151D01*
X0122381Y0152187D01*
X0122415Y0152220D01*
X0122451Y0152250D01*
X0122490Y0152277D01*
X0122531Y0152301D01*
X0122574Y0152321D01*
X0122618Y0152337D01*
X0122664Y0152350D01*
X0122710Y0152359D01*
X0122758Y0152364D01*
X0122805Y0152365D01*
X0122852Y0152362D01*
X0122899Y0152355D01*
X0122945Y0152344D01*
X0122990Y0152330D01*
X0123034Y0152311D01*
X0123075Y0152289D01*
X0123115Y0152264D01*
X0123153Y0152235D01*
X0123188Y0152204D01*
X0123221Y0152169D01*
X0123250Y0152132D01*
X0123276Y0152093D01*
X0123299Y0152051D01*
X0123318Y0152008D01*
X0123334Y0151963D01*
X0123346Y0151917D01*
X0123354Y0151871D01*
X0123358Y0151824D01*
X0123358Y0151776D01*
X0123354Y0151729D01*
X0123346Y0151683D01*
X0123334Y0151637D01*
X0123318Y0151592D01*
X0123299Y0151549D01*
X0123276Y0151507D01*
X0123250Y0151468D01*
X0123221Y0151431D01*
X0123188Y0151396D01*
X0123153Y0151365D01*
X0123115Y0151336D01*
X0123076Y0151311D01*
X0123034Y0151289D01*
X0122990Y0151270D01*
X0122945Y0151256D01*
X0122899Y0151245D01*
X0122852Y0151238D01*
X0122805Y0151235D01*
X0122758Y0151236D01*
X0122710Y0151241D01*
X0122664Y0151250D01*
X0122618Y0151263D01*
X0122574Y0151279D01*
X0122531Y0151299D01*
X0122490Y0151323D01*
X0122451Y0151350D01*
X0122415Y0151380D01*
X0122381Y0151413D01*
X0122350Y0151449D01*
X0122322Y0151487D01*
X0122298Y0151528D01*
X0122277Y0151570D01*
X0122259Y0151614D01*
X0122246Y0151659D01*
X0122236Y0151706D01*
X0122230Y0151753D01*
X0122228Y0151800D01*
X0138650Y0157541D02*
X0144162Y0157541D01*
X0144162Y0162659D01*
X0138650Y0162659D01*
X0144162Y0162659D02*
X0145736Y0162659D01*
X0145736Y0157541D02*
X0144162Y0157541D01*
X0164750Y0160091D02*
X0166324Y0160091D01*
X0166324Y0165209D01*
X0171836Y0165209D01*
X0171836Y0160091D02*
X0166324Y0160091D01*
X0166324Y0165209D02*
X0164750Y0165209D01*
X0170216Y0203502D02*
X0135570Y0203502D01*
X0133995Y0205077D01*
X0133995Y0239723D01*
X0135570Y0241298D01*
X0170216Y0241298D01*
X0171791Y0239723D01*
X0171791Y0205077D01*
X0170216Y0203502D01*
X0198769Y0227889D02*
X0198769Y0235763D01*
X0198769Y0227889D02*
X0208217Y0227889D01*
X0208217Y0235763D01*
X0208217Y0243637D02*
X0208217Y0249936D01*
X0206643Y0251511D01*
X0200343Y0251511D01*
X0198769Y0249936D01*
X0198769Y0243637D01*
X0176493Y0279100D02*
X0175393Y0280200D01*
X0175393Y0284100D01*
X0175393Y0288000D01*
X0176493Y0289100D01*
X0176393Y0284100D02*
X0175393Y0284100D01*
X0184393Y0284100D02*
X0186393Y0284100D01*
X0194393Y0284100D02*
X0196393Y0284100D01*
X0204393Y0284100D02*
X0206393Y0284100D01*
X0214393Y0284100D02*
X0216393Y0284100D01*
X0224393Y0284100D02*
X0225393Y0284100D01*
X0225393Y0288000D01*
X0224293Y0289100D01*
X0225393Y0284100D02*
X0225393Y0280200D01*
X0224293Y0279100D01*
X0238193Y0277600D02*
X0240693Y0275100D01*
X0245693Y0275100D01*
X0248193Y0277600D01*
X0250693Y0275100D01*
X0255693Y0275100D01*
X0258193Y0277600D01*
X0260693Y0275100D01*
X0265693Y0275100D01*
X0268193Y0277600D01*
X0270693Y0275100D01*
X0275693Y0275100D01*
X0278193Y0277600D01*
X0280693Y0275100D01*
X0285693Y0275100D01*
X0288193Y0277600D01*
X0290693Y0275100D01*
X0295693Y0275100D01*
X0298193Y0277600D01*
X0298193Y0282600D01*
X0295693Y0285100D01*
X0290693Y0285100D01*
X0288193Y0282600D01*
X0285693Y0285100D01*
X0280693Y0285100D01*
X0278193Y0282600D01*
X0275693Y0285100D01*
X0270693Y0285100D01*
X0268193Y0282600D01*
X0265693Y0285100D01*
X0260693Y0285100D01*
X0258193Y0282600D01*
X0255693Y0285100D01*
X0250693Y0285100D01*
X0248193Y0282600D01*
X0245693Y0285100D01*
X0240693Y0285100D01*
X0238193Y0282600D01*
X0238193Y0277600D01*
X0242828Y0209900D02*
X0242830Y0209947D01*
X0242836Y0209994D01*
X0242846Y0210041D01*
X0242859Y0210086D01*
X0242877Y0210130D01*
X0242898Y0210172D01*
X0242922Y0210213D01*
X0242950Y0210251D01*
X0242981Y0210287D01*
X0243015Y0210320D01*
X0243051Y0210350D01*
X0243090Y0210377D01*
X0243131Y0210401D01*
X0243174Y0210421D01*
X0243218Y0210437D01*
X0243264Y0210450D01*
X0243310Y0210459D01*
X0243358Y0210464D01*
X0243405Y0210465D01*
X0243452Y0210462D01*
X0243499Y0210455D01*
X0243545Y0210444D01*
X0243590Y0210430D01*
X0243634Y0210411D01*
X0243675Y0210389D01*
X0243715Y0210364D01*
X0243753Y0210335D01*
X0243788Y0210304D01*
X0243821Y0210269D01*
X0243850Y0210232D01*
X0243876Y0210193D01*
X0243899Y0210151D01*
X0243918Y0210108D01*
X0243934Y0210063D01*
X0243946Y0210017D01*
X0243954Y0209971D01*
X0243958Y0209924D01*
X0243958Y0209876D01*
X0243954Y0209829D01*
X0243946Y0209783D01*
X0243934Y0209737D01*
X0243918Y0209692D01*
X0243899Y0209649D01*
X0243876Y0209607D01*
X0243850Y0209568D01*
X0243821Y0209531D01*
X0243788Y0209496D01*
X0243753Y0209465D01*
X0243715Y0209436D01*
X0243676Y0209411D01*
X0243634Y0209389D01*
X0243590Y0209370D01*
X0243545Y0209356D01*
X0243499Y0209345D01*
X0243452Y0209338D01*
X0243405Y0209335D01*
X0243358Y0209336D01*
X0243310Y0209341D01*
X0243264Y0209350D01*
X0243218Y0209363D01*
X0243174Y0209379D01*
X0243131Y0209399D01*
X0243090Y0209423D01*
X0243051Y0209450D01*
X0243015Y0209480D01*
X0242981Y0209513D01*
X0242950Y0209549D01*
X0242922Y0209587D01*
X0242898Y0209628D01*
X0242877Y0209670D01*
X0242859Y0209714D01*
X0242846Y0209759D01*
X0242836Y0209806D01*
X0242830Y0209853D01*
X0242828Y0209900D01*
X0114230Y0277350D02*
X0114230Y0283650D01*
X0114231Y0283650D02*
X0114217Y0283709D01*
X0114200Y0283767D01*
X0114179Y0283824D01*
X0114155Y0283880D01*
X0114127Y0283934D01*
X0114097Y0283986D01*
X0114063Y0284037D01*
X0114026Y0284085D01*
X0113987Y0284131D01*
X0113944Y0284174D01*
X0113900Y0284215D01*
X0113852Y0284253D01*
X0113803Y0284288D01*
X0113751Y0284320D01*
X0113698Y0284349D01*
X0113643Y0284375D01*
X0113587Y0284397D01*
X0113529Y0284416D01*
X0113470Y0284432D01*
X0113411Y0284443D01*
X0113351Y0284452D01*
X0113290Y0284456D01*
X0113230Y0284457D01*
X0113169Y0284454D01*
X0113109Y0284448D01*
X0113049Y0284438D01*
X0107537Y0284438D02*
X0107475Y0284448D01*
X0107412Y0284454D01*
X0107349Y0284457D01*
X0107286Y0284456D01*
X0107223Y0284450D01*
X0107161Y0284441D01*
X0107099Y0284428D01*
X0107038Y0284411D01*
X0106979Y0284390D01*
X0106921Y0284365D01*
X0106864Y0284337D01*
X0106810Y0284305D01*
X0106757Y0284270D01*
X0106707Y0284232D01*
X0106659Y0284191D01*
X0106614Y0284147D01*
X0106572Y0284100D01*
X0106533Y0284050D01*
X0106497Y0283998D01*
X0106465Y0283944D01*
X0106435Y0283889D01*
X0106410Y0283831D01*
X0106388Y0283772D01*
X0106370Y0283711D01*
X0106355Y0283650D01*
X0106356Y0283650D02*
X0106356Y0277350D01*
X0106355Y0277350D02*
X0106370Y0277289D01*
X0106388Y0277228D01*
X0106410Y0277169D01*
X0106435Y0277111D01*
X0106465Y0277056D01*
X0106497Y0277002D01*
X0106533Y0276950D01*
X0106572Y0276900D01*
X0106614Y0276853D01*
X0106659Y0276809D01*
X0106707Y0276768D01*
X0106757Y0276730D01*
X0106810Y0276695D01*
X0106864Y0276663D01*
X0106921Y0276635D01*
X0106979Y0276610D01*
X0107038Y0276589D01*
X0107099Y0276572D01*
X0107161Y0276559D01*
X0107223Y0276550D01*
X0107286Y0276544D01*
X0107349Y0276543D01*
X0107412Y0276546D01*
X0107475Y0276552D01*
X0107537Y0276562D01*
X0113049Y0276562D02*
X0113109Y0276552D01*
X0113169Y0276546D01*
X0113230Y0276543D01*
X0113290Y0276544D01*
X0113351Y0276548D01*
X0113411Y0276557D01*
X0113470Y0276568D01*
X0113529Y0276584D01*
X0113587Y0276603D01*
X0113643Y0276625D01*
X0113698Y0276651D01*
X0113751Y0276680D01*
X0113803Y0276712D01*
X0113852Y0276747D01*
X0113900Y0276785D01*
X0113944Y0276826D01*
X0113987Y0276869D01*
X0114026Y0276915D01*
X0114063Y0276963D01*
X0114097Y0277014D01*
X0114127Y0277066D01*
X0114155Y0277120D01*
X0114179Y0277176D01*
X0114200Y0277233D01*
X0114217Y0277291D01*
X0114231Y0277350D01*
X0108184Y0250000D02*
X0104802Y0250000D01*
X0109684Y0245457D02*
X0109684Y0243343D01*
X0108184Y0238800D02*
X0104802Y0238800D01*
X0093355Y0215999D02*
X0088631Y0215999D01*
X0081150Y0210881D02*
X0081150Y0208519D01*
X0088631Y0203401D02*
X0093355Y0203401D01*
X0100836Y0208519D02*
X0100836Y0210881D01*
X0061636Y0163859D02*
X0056124Y0163859D01*
X0056124Y0158741D01*
X0061636Y0158741D01*
X0056124Y0158741D02*
X0054550Y0158741D01*
X0054550Y0163859D02*
X0056124Y0163859D01*
X0063893Y0140891D02*
X0063893Y0137509D01*
X0068436Y0142391D02*
X0070550Y0142391D01*
X0075093Y0140891D02*
X0075093Y0137509D01*
X0080250Y0136941D02*
X0085762Y0136941D01*
X0085762Y0142059D01*
X0080250Y0142059D01*
X0085762Y0142059D02*
X0087336Y0142059D01*
X0087336Y0136941D02*
X0085762Y0136941D01*
X0091834Y0121143D02*
X0091834Y0115631D01*
X0096952Y0115631D01*
X0096952Y0121143D01*
X0096952Y0115631D02*
X0096952Y0114057D01*
X0091834Y0114057D02*
X0091834Y0115631D01*
X0079993Y0267700D02*
X0062993Y0267700D01*
X0059493Y0275771D02*
X0059493Y0283700D01*
X0062993Y0291700D02*
X0079993Y0291700D01*
X0083493Y0283700D02*
X0083493Y0275653D01*
X0064493Y0279700D02*
X0064495Y0279872D01*
X0064501Y0280043D01*
X0064512Y0280215D01*
X0064527Y0280386D01*
X0064546Y0280557D01*
X0064569Y0280727D01*
X0064596Y0280897D01*
X0064628Y0281066D01*
X0064663Y0281234D01*
X0064703Y0281401D01*
X0064747Y0281567D01*
X0064794Y0281732D01*
X0064846Y0281896D01*
X0064902Y0282058D01*
X0064962Y0282219D01*
X0065026Y0282379D01*
X0065094Y0282537D01*
X0065165Y0282693D01*
X0065240Y0282847D01*
X0065320Y0283000D01*
X0065402Y0283150D01*
X0065489Y0283299D01*
X0065579Y0283445D01*
X0065673Y0283589D01*
X0065770Y0283731D01*
X0065871Y0283870D01*
X0065975Y0284007D01*
X0066082Y0284141D01*
X0066193Y0284272D01*
X0066306Y0284401D01*
X0066423Y0284527D01*
X0066543Y0284650D01*
X0066666Y0284770D01*
X0066792Y0284887D01*
X0066921Y0285000D01*
X0067052Y0285111D01*
X0067186Y0285218D01*
X0067323Y0285322D01*
X0067462Y0285423D01*
X0067604Y0285520D01*
X0067748Y0285614D01*
X0067894Y0285704D01*
X0068043Y0285791D01*
X0068193Y0285873D01*
X0068346Y0285953D01*
X0068500Y0286028D01*
X0068656Y0286099D01*
X0068814Y0286167D01*
X0068974Y0286231D01*
X0069135Y0286291D01*
X0069297Y0286347D01*
X0069461Y0286399D01*
X0069626Y0286446D01*
X0069792Y0286490D01*
X0069959Y0286530D01*
X0070127Y0286565D01*
X0070296Y0286597D01*
X0070466Y0286624D01*
X0070636Y0286647D01*
X0070807Y0286666D01*
X0070978Y0286681D01*
X0071150Y0286692D01*
X0071321Y0286698D01*
X0071493Y0286700D01*
X0071665Y0286698D01*
X0071836Y0286692D01*
X0072008Y0286681D01*
X0072179Y0286666D01*
X0072350Y0286647D01*
X0072520Y0286624D01*
X0072690Y0286597D01*
X0072859Y0286565D01*
X0073027Y0286530D01*
X0073194Y0286490D01*
X0073360Y0286446D01*
X0073525Y0286399D01*
X0073689Y0286347D01*
X0073851Y0286291D01*
X0074012Y0286231D01*
X0074172Y0286167D01*
X0074330Y0286099D01*
X0074486Y0286028D01*
X0074640Y0285953D01*
X0074793Y0285873D01*
X0074943Y0285791D01*
X0075092Y0285704D01*
X0075238Y0285614D01*
X0075382Y0285520D01*
X0075524Y0285423D01*
X0075663Y0285322D01*
X0075800Y0285218D01*
X0075934Y0285111D01*
X0076065Y0285000D01*
X0076194Y0284887D01*
X0076320Y0284770D01*
X0076443Y0284650D01*
X0076563Y0284527D01*
X0076680Y0284401D01*
X0076793Y0284272D01*
X0076904Y0284141D01*
X0077011Y0284007D01*
X0077115Y0283870D01*
X0077216Y0283731D01*
X0077313Y0283589D01*
X0077407Y0283445D01*
X0077497Y0283299D01*
X0077584Y0283150D01*
X0077666Y0283000D01*
X0077746Y0282847D01*
X0077821Y0282693D01*
X0077892Y0282537D01*
X0077960Y0282379D01*
X0078024Y0282219D01*
X0078084Y0282058D01*
X0078140Y0281896D01*
X0078192Y0281732D01*
X0078239Y0281567D01*
X0078283Y0281401D01*
X0078323Y0281234D01*
X0078358Y0281066D01*
X0078390Y0280897D01*
X0078417Y0280727D01*
X0078440Y0280557D01*
X0078459Y0280386D01*
X0078474Y0280215D01*
X0078485Y0280043D01*
X0078491Y0279872D01*
X0078493Y0279700D01*
X0078491Y0279528D01*
X0078485Y0279357D01*
X0078474Y0279185D01*
X0078459Y0279014D01*
X0078440Y0278843D01*
X0078417Y0278673D01*
X0078390Y0278503D01*
X0078358Y0278334D01*
X0078323Y0278166D01*
X0078283Y0277999D01*
X0078239Y0277833D01*
X0078192Y0277668D01*
X0078140Y0277504D01*
X0078084Y0277342D01*
X0078024Y0277181D01*
X0077960Y0277021D01*
X0077892Y0276863D01*
X0077821Y0276707D01*
X0077746Y0276553D01*
X0077666Y0276400D01*
X0077584Y0276250D01*
X0077497Y0276101D01*
X0077407Y0275955D01*
X0077313Y0275811D01*
X0077216Y0275669D01*
X0077115Y0275530D01*
X0077011Y0275393D01*
X0076904Y0275259D01*
X0076793Y0275128D01*
X0076680Y0274999D01*
X0076563Y0274873D01*
X0076443Y0274750D01*
X0076320Y0274630D01*
X0076194Y0274513D01*
X0076065Y0274400D01*
X0075934Y0274289D01*
X0075800Y0274182D01*
X0075663Y0274078D01*
X0075524Y0273977D01*
X0075382Y0273880D01*
X0075238Y0273786D01*
X0075092Y0273696D01*
X0074943Y0273609D01*
X0074793Y0273527D01*
X0074640Y0273447D01*
X0074486Y0273372D01*
X0074330Y0273301D01*
X0074172Y0273233D01*
X0074012Y0273169D01*
X0073851Y0273109D01*
X0073689Y0273053D01*
X0073525Y0273001D01*
X0073360Y0272954D01*
X0073194Y0272910D01*
X0073027Y0272870D01*
X0072859Y0272835D01*
X0072690Y0272803D01*
X0072520Y0272776D01*
X0072350Y0272753D01*
X0072179Y0272734D01*
X0072008Y0272719D01*
X0071836Y0272708D01*
X0071665Y0272702D01*
X0071493Y0272700D01*
X0071321Y0272702D01*
X0071150Y0272708D01*
X0070978Y0272719D01*
X0070807Y0272734D01*
X0070636Y0272753D01*
X0070466Y0272776D01*
X0070296Y0272803D01*
X0070127Y0272835D01*
X0069959Y0272870D01*
X0069792Y0272910D01*
X0069626Y0272954D01*
X0069461Y0273001D01*
X0069297Y0273053D01*
X0069135Y0273109D01*
X0068974Y0273169D01*
X0068814Y0273233D01*
X0068656Y0273301D01*
X0068500Y0273372D01*
X0068346Y0273447D01*
X0068193Y0273527D01*
X0068043Y0273609D01*
X0067894Y0273696D01*
X0067748Y0273786D01*
X0067604Y0273880D01*
X0067462Y0273977D01*
X0067323Y0274078D01*
X0067186Y0274182D01*
X0067052Y0274289D01*
X0066921Y0274400D01*
X0066792Y0274513D01*
X0066666Y0274630D01*
X0066543Y0274750D01*
X0066423Y0274873D01*
X0066306Y0274999D01*
X0066193Y0275128D01*
X0066082Y0275259D01*
X0065975Y0275393D01*
X0065871Y0275530D01*
X0065770Y0275669D01*
X0065673Y0275811D01*
X0065579Y0275955D01*
X0065489Y0276101D01*
X0065402Y0276250D01*
X0065320Y0276400D01*
X0065240Y0276553D01*
X0065165Y0276707D01*
X0065094Y0276863D01*
X0065026Y0277021D01*
X0064962Y0277181D01*
X0064902Y0277342D01*
X0064846Y0277504D01*
X0064794Y0277668D01*
X0064747Y0277833D01*
X0064703Y0277999D01*
X0064663Y0278166D01*
X0064628Y0278334D01*
X0064596Y0278503D01*
X0064569Y0278673D01*
X0064546Y0278843D01*
X0064527Y0279014D01*
X0064512Y0279185D01*
X0064501Y0279357D01*
X0064495Y0279528D01*
X0064493Y0279700D01*
D14*
X0068093Y0172806D03*
X0057493Y0171906D03*
X0215593Y0217906D03*
X0245693Y0241606D03*
D15*
X0198126Y0200401D02*
X0195657Y0200401D01*
X0196891Y0199167D02*
X0196891Y0201636D01*
X0300057Y0177301D02*
X0302526Y0177301D01*
X0301291Y0176067D02*
X0301291Y0178536D01*
X0050129Y0111102D02*
X0047660Y0111102D01*
X0048894Y0112336D02*
X0048894Y0109867D01*
D16*
X0205484Y0195338D03*
X0205484Y0200062D03*
X0309884Y0176962D03*
X0309884Y0172238D03*
D17*
X0309884Y0174600D03*
X0205484Y0197700D03*
X0046193Y0102509D03*
D18*
X0043831Y0102509D03*
X0048555Y0102509D03*
D19*
X0281193Y0226100D03*
D20*
X0092080Y0158787D02*
X0076725Y0158787D01*
X0076725Y0154456D01*
X0076725Y0148944D02*
X0076725Y0144613D01*
X0092080Y0144613D01*
X0092080Y0145007D01*
X0092473Y0148944D02*
X0092473Y0154456D01*
X0092080Y0158393D02*
X0092080Y0158787D01*
D21*
X0093184Y0077965D02*
X0093186Y0078097D01*
X0093192Y0078230D01*
X0093202Y0078362D01*
X0093216Y0078494D01*
X0093233Y0078625D01*
X0093255Y0078756D01*
X0093281Y0078886D01*
X0093310Y0079015D01*
X0093344Y0079143D01*
X0093381Y0079270D01*
X0093422Y0079396D01*
X0093466Y0079521D01*
X0093515Y0079645D01*
X0093567Y0079766D01*
X0093623Y0079887D01*
X0093682Y0080005D01*
X0093745Y0080122D01*
X0093811Y0080237D01*
X0093881Y0080349D01*
X0093954Y0080460D01*
X0094030Y0080568D01*
X0094109Y0080674D01*
X0094192Y0080778D01*
X0094278Y0080879D01*
X0094366Y0080977D01*
X0094458Y0081073D01*
X0094552Y0081166D01*
X0094649Y0081256D01*
X0094749Y0081344D01*
X0094852Y0081428D01*
X0094956Y0081509D01*
X0095064Y0081587D01*
X0095173Y0081661D01*
X0095285Y0081733D01*
X0095399Y0081801D01*
X0095514Y0081865D01*
X0095632Y0081926D01*
X0095751Y0081984D01*
X0095872Y0082038D01*
X0095995Y0082088D01*
X0096119Y0082134D01*
X0096244Y0082177D01*
X0096371Y0082216D01*
X0096499Y0082252D01*
X0096627Y0082283D01*
X0096757Y0082311D01*
X0096887Y0082334D01*
X0097018Y0082354D01*
X0097150Y0082370D01*
X0097282Y0082382D01*
X0097414Y0082390D01*
X0097547Y0082394D01*
X0097679Y0082394D01*
X0097812Y0082390D01*
X0097944Y0082382D01*
X0098076Y0082370D01*
X0098208Y0082354D01*
X0098339Y0082334D01*
X0098469Y0082311D01*
X0098599Y0082283D01*
X0098727Y0082252D01*
X0098855Y0082216D01*
X0098982Y0082177D01*
X0099107Y0082134D01*
X0099231Y0082088D01*
X0099354Y0082038D01*
X0099475Y0081984D01*
X0099594Y0081926D01*
X0099712Y0081865D01*
X0099828Y0081801D01*
X0099941Y0081733D01*
X0100053Y0081661D01*
X0100162Y0081587D01*
X0100270Y0081509D01*
X0100374Y0081428D01*
X0100477Y0081344D01*
X0100577Y0081256D01*
X0100674Y0081166D01*
X0100768Y0081073D01*
X0100860Y0080977D01*
X0100948Y0080879D01*
X0101034Y0080778D01*
X0101117Y0080674D01*
X0101196Y0080568D01*
X0101272Y0080460D01*
X0101345Y0080349D01*
X0101415Y0080237D01*
X0101481Y0080122D01*
X0101544Y0080005D01*
X0101603Y0079887D01*
X0101659Y0079766D01*
X0101711Y0079645D01*
X0101760Y0079521D01*
X0101804Y0079396D01*
X0101845Y0079270D01*
X0101882Y0079143D01*
X0101916Y0079015D01*
X0101945Y0078886D01*
X0101971Y0078756D01*
X0101993Y0078625D01*
X0102010Y0078494D01*
X0102024Y0078362D01*
X0102034Y0078230D01*
X0102040Y0078097D01*
X0102042Y0077965D01*
X0102040Y0077833D01*
X0102034Y0077700D01*
X0102024Y0077568D01*
X0102010Y0077436D01*
X0101993Y0077305D01*
X0101971Y0077174D01*
X0101945Y0077044D01*
X0101916Y0076915D01*
X0101882Y0076787D01*
X0101845Y0076660D01*
X0101804Y0076534D01*
X0101760Y0076409D01*
X0101711Y0076285D01*
X0101659Y0076164D01*
X0101603Y0076043D01*
X0101544Y0075925D01*
X0101481Y0075808D01*
X0101415Y0075693D01*
X0101345Y0075581D01*
X0101272Y0075470D01*
X0101196Y0075362D01*
X0101117Y0075256D01*
X0101034Y0075152D01*
X0100948Y0075051D01*
X0100860Y0074953D01*
X0100768Y0074857D01*
X0100674Y0074764D01*
X0100577Y0074674D01*
X0100477Y0074586D01*
X0100374Y0074502D01*
X0100270Y0074421D01*
X0100162Y0074343D01*
X0100053Y0074269D01*
X0099941Y0074197D01*
X0099827Y0074129D01*
X0099712Y0074065D01*
X0099594Y0074004D01*
X0099475Y0073946D01*
X0099354Y0073892D01*
X0099231Y0073842D01*
X0099107Y0073796D01*
X0098982Y0073753D01*
X0098855Y0073714D01*
X0098727Y0073678D01*
X0098599Y0073647D01*
X0098469Y0073619D01*
X0098339Y0073596D01*
X0098208Y0073576D01*
X0098076Y0073560D01*
X0097944Y0073548D01*
X0097812Y0073540D01*
X0097679Y0073536D01*
X0097547Y0073536D01*
X0097414Y0073540D01*
X0097282Y0073548D01*
X0097150Y0073560D01*
X0097018Y0073576D01*
X0096887Y0073596D01*
X0096757Y0073619D01*
X0096627Y0073647D01*
X0096499Y0073678D01*
X0096371Y0073714D01*
X0096244Y0073753D01*
X0096119Y0073796D01*
X0095995Y0073842D01*
X0095872Y0073892D01*
X0095751Y0073946D01*
X0095632Y0074004D01*
X0095514Y0074065D01*
X0095398Y0074129D01*
X0095285Y0074197D01*
X0095173Y0074269D01*
X0095064Y0074343D01*
X0094956Y0074421D01*
X0094852Y0074502D01*
X0094749Y0074586D01*
X0094649Y0074674D01*
X0094552Y0074764D01*
X0094458Y0074857D01*
X0094366Y0074953D01*
X0094278Y0075051D01*
X0094192Y0075152D01*
X0094109Y0075256D01*
X0094030Y0075362D01*
X0093954Y0075470D01*
X0093881Y0075581D01*
X0093811Y0075693D01*
X0093745Y0075808D01*
X0093682Y0075925D01*
X0093623Y0076043D01*
X0093567Y0076164D01*
X0093515Y0076285D01*
X0093466Y0076409D01*
X0093422Y0076534D01*
X0093381Y0076660D01*
X0093344Y0076787D01*
X0093310Y0076915D01*
X0093281Y0077044D01*
X0093255Y0077174D01*
X0093233Y0077305D01*
X0093216Y0077436D01*
X0093202Y0077568D01*
X0093192Y0077700D01*
X0093186Y0077833D01*
X0093184Y0077965D01*
X0073322Y0062571D02*
X0073324Y0062769D01*
X0073332Y0062967D01*
X0073344Y0063165D01*
X0073361Y0063362D01*
X0073383Y0063559D01*
X0073409Y0063755D01*
X0073441Y0063951D01*
X0073477Y0064146D01*
X0073518Y0064339D01*
X0073564Y0064532D01*
X0073614Y0064724D01*
X0073670Y0064914D01*
X0073729Y0065103D01*
X0073794Y0065290D01*
X0073863Y0065476D01*
X0073936Y0065660D01*
X0074014Y0065842D01*
X0074097Y0066022D01*
X0074184Y0066200D01*
X0074275Y0066376D01*
X0074371Y0066549D01*
X0074470Y0066720D01*
X0074574Y0066889D01*
X0074682Y0067055D01*
X0074794Y0067218D01*
X0074910Y0067379D01*
X0075030Y0067537D01*
X0075154Y0067691D01*
X0075282Y0067843D01*
X0075413Y0067991D01*
X0075548Y0068136D01*
X0075686Y0068278D01*
X0075828Y0068416D01*
X0075973Y0068551D01*
X0076121Y0068682D01*
X0076273Y0068810D01*
X0076427Y0068934D01*
X0076585Y0069054D01*
X0076746Y0069170D01*
X0076909Y0069282D01*
X0077075Y0069390D01*
X0077244Y0069494D01*
X0077415Y0069593D01*
X0077588Y0069689D01*
X0077764Y0069780D01*
X0077942Y0069867D01*
X0078122Y0069950D01*
X0078304Y0070028D01*
X0078488Y0070101D01*
X0078674Y0070170D01*
X0078861Y0070235D01*
X0079050Y0070294D01*
X0079240Y0070350D01*
X0079432Y0070400D01*
X0079625Y0070446D01*
X0079818Y0070487D01*
X0080013Y0070523D01*
X0080209Y0070555D01*
X0080405Y0070581D01*
X0080602Y0070603D01*
X0080799Y0070620D01*
X0080997Y0070632D01*
X0081195Y0070640D01*
X0081393Y0070642D01*
X0081591Y0070640D01*
X0081789Y0070632D01*
X0081987Y0070620D01*
X0082184Y0070603D01*
X0082381Y0070581D01*
X0082577Y0070555D01*
X0082773Y0070523D01*
X0082968Y0070487D01*
X0083161Y0070446D01*
X0083354Y0070400D01*
X0083546Y0070350D01*
X0083736Y0070294D01*
X0083925Y0070235D01*
X0084112Y0070170D01*
X0084298Y0070101D01*
X0084482Y0070028D01*
X0084664Y0069950D01*
X0084844Y0069867D01*
X0085022Y0069780D01*
X0085198Y0069689D01*
X0085371Y0069593D01*
X0085542Y0069494D01*
X0085711Y0069390D01*
X0085877Y0069282D01*
X0086040Y0069170D01*
X0086201Y0069054D01*
X0086359Y0068934D01*
X0086513Y0068810D01*
X0086665Y0068682D01*
X0086813Y0068551D01*
X0086958Y0068416D01*
X0087100Y0068278D01*
X0087238Y0068136D01*
X0087373Y0067991D01*
X0087504Y0067843D01*
X0087632Y0067691D01*
X0087756Y0067537D01*
X0087876Y0067379D01*
X0087992Y0067218D01*
X0088104Y0067055D01*
X0088212Y0066889D01*
X0088316Y0066720D01*
X0088415Y0066549D01*
X0088511Y0066376D01*
X0088602Y0066200D01*
X0088689Y0066022D01*
X0088772Y0065842D01*
X0088850Y0065660D01*
X0088923Y0065476D01*
X0088992Y0065290D01*
X0089057Y0065103D01*
X0089116Y0064914D01*
X0089172Y0064724D01*
X0089222Y0064532D01*
X0089268Y0064339D01*
X0089309Y0064146D01*
X0089345Y0063951D01*
X0089377Y0063755D01*
X0089403Y0063559D01*
X0089425Y0063362D01*
X0089442Y0063165D01*
X0089454Y0062967D01*
X0089462Y0062769D01*
X0089464Y0062571D01*
X0089462Y0062373D01*
X0089454Y0062175D01*
X0089442Y0061977D01*
X0089425Y0061780D01*
X0089403Y0061583D01*
X0089377Y0061387D01*
X0089345Y0061191D01*
X0089309Y0060996D01*
X0089268Y0060803D01*
X0089222Y0060610D01*
X0089172Y0060418D01*
X0089116Y0060228D01*
X0089057Y0060039D01*
X0088992Y0059852D01*
X0088923Y0059666D01*
X0088850Y0059482D01*
X0088772Y0059300D01*
X0088689Y0059120D01*
X0088602Y0058942D01*
X0088511Y0058766D01*
X0088415Y0058593D01*
X0088316Y0058422D01*
X0088212Y0058253D01*
X0088104Y0058087D01*
X0087992Y0057924D01*
X0087876Y0057763D01*
X0087756Y0057605D01*
X0087632Y0057451D01*
X0087504Y0057299D01*
X0087373Y0057151D01*
X0087238Y0057006D01*
X0087100Y0056864D01*
X0086958Y0056726D01*
X0086813Y0056591D01*
X0086665Y0056460D01*
X0086513Y0056332D01*
X0086359Y0056208D01*
X0086201Y0056088D01*
X0086040Y0055972D01*
X0085877Y0055860D01*
X0085711Y0055752D01*
X0085542Y0055648D01*
X0085371Y0055549D01*
X0085198Y0055453D01*
X0085022Y0055362D01*
X0084844Y0055275D01*
X0084664Y0055192D01*
X0084482Y0055114D01*
X0084298Y0055041D01*
X0084112Y0054972D01*
X0083925Y0054907D01*
X0083736Y0054848D01*
X0083546Y0054792D01*
X0083354Y0054742D01*
X0083161Y0054696D01*
X0082968Y0054655D01*
X0082773Y0054619D01*
X0082577Y0054587D01*
X0082381Y0054561D01*
X0082184Y0054539D01*
X0081987Y0054522D01*
X0081789Y0054510D01*
X0081591Y0054502D01*
X0081393Y0054500D01*
X0081195Y0054502D01*
X0080997Y0054510D01*
X0080799Y0054522D01*
X0080602Y0054539D01*
X0080405Y0054561D01*
X0080209Y0054587D01*
X0080013Y0054619D01*
X0079818Y0054655D01*
X0079625Y0054696D01*
X0079432Y0054742D01*
X0079240Y0054792D01*
X0079050Y0054848D01*
X0078861Y0054907D01*
X0078674Y0054972D01*
X0078488Y0055041D01*
X0078304Y0055114D01*
X0078122Y0055192D01*
X0077942Y0055275D01*
X0077764Y0055362D01*
X0077588Y0055453D01*
X0077415Y0055549D01*
X0077244Y0055648D01*
X0077075Y0055752D01*
X0076909Y0055860D01*
X0076746Y0055972D01*
X0076585Y0056088D01*
X0076427Y0056208D01*
X0076273Y0056332D01*
X0076121Y0056460D01*
X0075973Y0056591D01*
X0075828Y0056726D01*
X0075686Y0056864D01*
X0075548Y0057006D01*
X0075413Y0057151D01*
X0075282Y0057299D01*
X0075154Y0057451D01*
X0075030Y0057605D01*
X0074910Y0057763D01*
X0074794Y0057924D01*
X0074682Y0058087D01*
X0074574Y0058253D01*
X0074470Y0058422D01*
X0074371Y0058593D01*
X0074275Y0058766D01*
X0074184Y0058942D01*
X0074097Y0059120D01*
X0074014Y0059300D01*
X0073936Y0059482D01*
X0073863Y0059666D01*
X0073794Y0059852D01*
X0073729Y0060039D01*
X0073670Y0060228D01*
X0073614Y0060418D01*
X0073564Y0060610D01*
X0073518Y0060803D01*
X0073477Y0060996D01*
X0073441Y0061191D01*
X0073409Y0061387D01*
X0073383Y0061583D01*
X0073361Y0061780D01*
X0073344Y0061977D01*
X0073332Y0062175D01*
X0073324Y0062373D01*
X0073322Y0062571D01*
X0260862Y0077886D02*
X0260864Y0078018D01*
X0260870Y0078151D01*
X0260880Y0078283D01*
X0260894Y0078415D01*
X0260911Y0078546D01*
X0260933Y0078677D01*
X0260959Y0078807D01*
X0260988Y0078936D01*
X0261022Y0079064D01*
X0261059Y0079191D01*
X0261100Y0079317D01*
X0261144Y0079442D01*
X0261193Y0079566D01*
X0261245Y0079687D01*
X0261301Y0079808D01*
X0261360Y0079926D01*
X0261423Y0080043D01*
X0261489Y0080158D01*
X0261559Y0080270D01*
X0261632Y0080381D01*
X0261708Y0080489D01*
X0261787Y0080595D01*
X0261870Y0080699D01*
X0261956Y0080800D01*
X0262044Y0080898D01*
X0262136Y0080994D01*
X0262230Y0081087D01*
X0262327Y0081177D01*
X0262427Y0081265D01*
X0262530Y0081349D01*
X0262634Y0081430D01*
X0262742Y0081508D01*
X0262851Y0081582D01*
X0262963Y0081654D01*
X0263077Y0081722D01*
X0263192Y0081786D01*
X0263310Y0081847D01*
X0263429Y0081905D01*
X0263550Y0081959D01*
X0263673Y0082009D01*
X0263797Y0082055D01*
X0263922Y0082098D01*
X0264049Y0082137D01*
X0264177Y0082173D01*
X0264305Y0082204D01*
X0264435Y0082232D01*
X0264565Y0082255D01*
X0264696Y0082275D01*
X0264828Y0082291D01*
X0264960Y0082303D01*
X0265092Y0082311D01*
X0265225Y0082315D01*
X0265357Y0082315D01*
X0265490Y0082311D01*
X0265622Y0082303D01*
X0265754Y0082291D01*
X0265886Y0082275D01*
X0266017Y0082255D01*
X0266147Y0082232D01*
X0266277Y0082204D01*
X0266405Y0082173D01*
X0266533Y0082137D01*
X0266660Y0082098D01*
X0266785Y0082055D01*
X0266909Y0082009D01*
X0267032Y0081959D01*
X0267153Y0081905D01*
X0267272Y0081847D01*
X0267390Y0081786D01*
X0267506Y0081722D01*
X0267619Y0081654D01*
X0267731Y0081582D01*
X0267840Y0081508D01*
X0267948Y0081430D01*
X0268052Y0081349D01*
X0268155Y0081265D01*
X0268255Y0081177D01*
X0268352Y0081087D01*
X0268446Y0080994D01*
X0268538Y0080898D01*
X0268626Y0080800D01*
X0268712Y0080699D01*
X0268795Y0080595D01*
X0268874Y0080489D01*
X0268950Y0080381D01*
X0269023Y0080270D01*
X0269093Y0080158D01*
X0269159Y0080043D01*
X0269222Y0079926D01*
X0269281Y0079808D01*
X0269337Y0079687D01*
X0269389Y0079566D01*
X0269438Y0079442D01*
X0269482Y0079317D01*
X0269523Y0079191D01*
X0269560Y0079064D01*
X0269594Y0078936D01*
X0269623Y0078807D01*
X0269649Y0078677D01*
X0269671Y0078546D01*
X0269688Y0078415D01*
X0269702Y0078283D01*
X0269712Y0078151D01*
X0269718Y0078018D01*
X0269720Y0077886D01*
X0269718Y0077754D01*
X0269712Y0077621D01*
X0269702Y0077489D01*
X0269688Y0077357D01*
X0269671Y0077226D01*
X0269649Y0077095D01*
X0269623Y0076965D01*
X0269594Y0076836D01*
X0269560Y0076708D01*
X0269523Y0076581D01*
X0269482Y0076455D01*
X0269438Y0076330D01*
X0269389Y0076206D01*
X0269337Y0076085D01*
X0269281Y0075964D01*
X0269222Y0075846D01*
X0269159Y0075729D01*
X0269093Y0075614D01*
X0269023Y0075502D01*
X0268950Y0075391D01*
X0268874Y0075283D01*
X0268795Y0075177D01*
X0268712Y0075073D01*
X0268626Y0074972D01*
X0268538Y0074874D01*
X0268446Y0074778D01*
X0268352Y0074685D01*
X0268255Y0074595D01*
X0268155Y0074507D01*
X0268052Y0074423D01*
X0267948Y0074342D01*
X0267840Y0074264D01*
X0267731Y0074190D01*
X0267619Y0074118D01*
X0267505Y0074050D01*
X0267390Y0073986D01*
X0267272Y0073925D01*
X0267153Y0073867D01*
X0267032Y0073813D01*
X0266909Y0073763D01*
X0266785Y0073717D01*
X0266660Y0073674D01*
X0266533Y0073635D01*
X0266405Y0073599D01*
X0266277Y0073568D01*
X0266147Y0073540D01*
X0266017Y0073517D01*
X0265886Y0073497D01*
X0265754Y0073481D01*
X0265622Y0073469D01*
X0265490Y0073461D01*
X0265357Y0073457D01*
X0265225Y0073457D01*
X0265092Y0073461D01*
X0264960Y0073469D01*
X0264828Y0073481D01*
X0264696Y0073497D01*
X0264565Y0073517D01*
X0264435Y0073540D01*
X0264305Y0073568D01*
X0264177Y0073599D01*
X0264049Y0073635D01*
X0263922Y0073674D01*
X0263797Y0073717D01*
X0263673Y0073763D01*
X0263550Y0073813D01*
X0263429Y0073867D01*
X0263310Y0073925D01*
X0263192Y0073986D01*
X0263076Y0074050D01*
X0262963Y0074118D01*
X0262851Y0074190D01*
X0262742Y0074264D01*
X0262634Y0074342D01*
X0262530Y0074423D01*
X0262427Y0074507D01*
X0262327Y0074595D01*
X0262230Y0074685D01*
X0262136Y0074778D01*
X0262044Y0074874D01*
X0261956Y0074972D01*
X0261870Y0075073D01*
X0261787Y0075177D01*
X0261708Y0075283D01*
X0261632Y0075391D01*
X0261559Y0075502D01*
X0261489Y0075614D01*
X0261423Y0075729D01*
X0261360Y0075846D01*
X0261301Y0075964D01*
X0261245Y0076085D01*
X0261193Y0076206D01*
X0261144Y0076330D01*
X0261100Y0076455D01*
X0261059Y0076581D01*
X0261022Y0076708D01*
X0260988Y0076836D01*
X0260959Y0076965D01*
X0260933Y0077095D01*
X0260911Y0077226D01*
X0260894Y0077357D01*
X0260880Y0077489D01*
X0260870Y0077621D01*
X0260864Y0077754D01*
X0260862Y0077886D01*
X0273440Y0062768D02*
X0273442Y0062966D01*
X0273450Y0063164D01*
X0273462Y0063362D01*
X0273479Y0063559D01*
X0273501Y0063756D01*
X0273527Y0063952D01*
X0273559Y0064148D01*
X0273595Y0064343D01*
X0273636Y0064536D01*
X0273682Y0064729D01*
X0273732Y0064921D01*
X0273788Y0065111D01*
X0273847Y0065300D01*
X0273912Y0065487D01*
X0273981Y0065673D01*
X0274054Y0065857D01*
X0274132Y0066039D01*
X0274215Y0066219D01*
X0274302Y0066397D01*
X0274393Y0066573D01*
X0274489Y0066746D01*
X0274588Y0066917D01*
X0274692Y0067086D01*
X0274800Y0067252D01*
X0274912Y0067415D01*
X0275028Y0067576D01*
X0275148Y0067734D01*
X0275272Y0067888D01*
X0275400Y0068040D01*
X0275531Y0068188D01*
X0275666Y0068333D01*
X0275804Y0068475D01*
X0275946Y0068613D01*
X0276091Y0068748D01*
X0276239Y0068879D01*
X0276391Y0069007D01*
X0276545Y0069131D01*
X0276703Y0069251D01*
X0276864Y0069367D01*
X0277027Y0069479D01*
X0277193Y0069587D01*
X0277362Y0069691D01*
X0277533Y0069790D01*
X0277706Y0069886D01*
X0277882Y0069977D01*
X0278060Y0070064D01*
X0278240Y0070147D01*
X0278422Y0070225D01*
X0278606Y0070298D01*
X0278792Y0070367D01*
X0278979Y0070432D01*
X0279168Y0070491D01*
X0279358Y0070547D01*
X0279550Y0070597D01*
X0279743Y0070643D01*
X0279936Y0070684D01*
X0280131Y0070720D01*
X0280327Y0070752D01*
X0280523Y0070778D01*
X0280720Y0070800D01*
X0280917Y0070817D01*
X0281115Y0070829D01*
X0281313Y0070837D01*
X0281511Y0070839D01*
X0281709Y0070837D01*
X0281907Y0070829D01*
X0282105Y0070817D01*
X0282302Y0070800D01*
X0282499Y0070778D01*
X0282695Y0070752D01*
X0282891Y0070720D01*
X0283086Y0070684D01*
X0283279Y0070643D01*
X0283472Y0070597D01*
X0283664Y0070547D01*
X0283854Y0070491D01*
X0284043Y0070432D01*
X0284230Y0070367D01*
X0284416Y0070298D01*
X0284600Y0070225D01*
X0284782Y0070147D01*
X0284962Y0070064D01*
X0285140Y0069977D01*
X0285316Y0069886D01*
X0285489Y0069790D01*
X0285660Y0069691D01*
X0285829Y0069587D01*
X0285995Y0069479D01*
X0286158Y0069367D01*
X0286319Y0069251D01*
X0286477Y0069131D01*
X0286631Y0069007D01*
X0286783Y0068879D01*
X0286931Y0068748D01*
X0287076Y0068613D01*
X0287218Y0068475D01*
X0287356Y0068333D01*
X0287491Y0068188D01*
X0287622Y0068040D01*
X0287750Y0067888D01*
X0287874Y0067734D01*
X0287994Y0067576D01*
X0288110Y0067415D01*
X0288222Y0067252D01*
X0288330Y0067086D01*
X0288434Y0066917D01*
X0288533Y0066746D01*
X0288629Y0066573D01*
X0288720Y0066397D01*
X0288807Y0066219D01*
X0288890Y0066039D01*
X0288968Y0065857D01*
X0289041Y0065673D01*
X0289110Y0065487D01*
X0289175Y0065300D01*
X0289234Y0065111D01*
X0289290Y0064921D01*
X0289340Y0064729D01*
X0289386Y0064536D01*
X0289427Y0064343D01*
X0289463Y0064148D01*
X0289495Y0063952D01*
X0289521Y0063756D01*
X0289543Y0063559D01*
X0289560Y0063362D01*
X0289572Y0063164D01*
X0289580Y0062966D01*
X0289582Y0062768D01*
X0289580Y0062570D01*
X0289572Y0062372D01*
X0289560Y0062174D01*
X0289543Y0061977D01*
X0289521Y0061780D01*
X0289495Y0061584D01*
X0289463Y0061388D01*
X0289427Y0061193D01*
X0289386Y0061000D01*
X0289340Y0060807D01*
X0289290Y0060615D01*
X0289234Y0060425D01*
X0289175Y0060236D01*
X0289110Y0060049D01*
X0289041Y0059863D01*
X0288968Y0059679D01*
X0288890Y0059497D01*
X0288807Y0059317D01*
X0288720Y0059139D01*
X0288629Y0058963D01*
X0288533Y0058790D01*
X0288434Y0058619D01*
X0288330Y0058450D01*
X0288222Y0058284D01*
X0288110Y0058121D01*
X0287994Y0057960D01*
X0287874Y0057802D01*
X0287750Y0057648D01*
X0287622Y0057496D01*
X0287491Y0057348D01*
X0287356Y0057203D01*
X0287218Y0057061D01*
X0287076Y0056923D01*
X0286931Y0056788D01*
X0286783Y0056657D01*
X0286631Y0056529D01*
X0286477Y0056405D01*
X0286319Y0056285D01*
X0286158Y0056169D01*
X0285995Y0056057D01*
X0285829Y0055949D01*
X0285660Y0055845D01*
X0285489Y0055746D01*
X0285316Y0055650D01*
X0285140Y0055559D01*
X0284962Y0055472D01*
X0284782Y0055389D01*
X0284600Y0055311D01*
X0284416Y0055238D01*
X0284230Y0055169D01*
X0284043Y0055104D01*
X0283854Y0055045D01*
X0283664Y0054989D01*
X0283472Y0054939D01*
X0283279Y0054893D01*
X0283086Y0054852D01*
X0282891Y0054816D01*
X0282695Y0054784D01*
X0282499Y0054758D01*
X0282302Y0054736D01*
X0282105Y0054719D01*
X0281907Y0054707D01*
X0281709Y0054699D01*
X0281511Y0054697D01*
X0281313Y0054699D01*
X0281115Y0054707D01*
X0280917Y0054719D01*
X0280720Y0054736D01*
X0280523Y0054758D01*
X0280327Y0054784D01*
X0280131Y0054816D01*
X0279936Y0054852D01*
X0279743Y0054893D01*
X0279550Y0054939D01*
X0279358Y0054989D01*
X0279168Y0055045D01*
X0278979Y0055104D01*
X0278792Y0055169D01*
X0278606Y0055238D01*
X0278422Y0055311D01*
X0278240Y0055389D01*
X0278060Y0055472D01*
X0277882Y0055559D01*
X0277706Y0055650D01*
X0277533Y0055746D01*
X0277362Y0055845D01*
X0277193Y0055949D01*
X0277027Y0056057D01*
X0276864Y0056169D01*
X0276703Y0056285D01*
X0276545Y0056405D01*
X0276391Y0056529D01*
X0276239Y0056657D01*
X0276091Y0056788D01*
X0275946Y0056923D01*
X0275804Y0057061D01*
X0275666Y0057203D01*
X0275531Y0057348D01*
X0275400Y0057496D01*
X0275272Y0057648D01*
X0275148Y0057802D01*
X0275028Y0057960D01*
X0274912Y0058121D01*
X0274800Y0058284D01*
X0274692Y0058450D01*
X0274588Y0058619D01*
X0274489Y0058790D01*
X0274393Y0058963D01*
X0274302Y0059139D01*
X0274215Y0059317D01*
X0274132Y0059497D01*
X0274054Y0059679D01*
X0273981Y0059863D01*
X0273912Y0060049D01*
X0273847Y0060236D01*
X0273788Y0060425D01*
X0273732Y0060615D01*
X0273682Y0060807D01*
X0273636Y0061000D01*
X0273595Y0061193D01*
X0273559Y0061388D01*
X0273527Y0061584D01*
X0273501Y0061780D01*
X0273479Y0061977D01*
X0273462Y0062174D01*
X0273450Y0062372D01*
X0273442Y0062570D01*
X0273440Y0062768D01*
M02*
