G75*
%MOIN*%
%OFA0B0*%
%FSLAX25Y25*%
%IPPOS*%
%LPD*%
%AMOC8*
5,1,8,0,0,1.08239X$1,22.5*
%
%ADD10C,0.01000*%
%ADD11C,0.00500*%
%ADD12C,0.00600*%
%ADD13C,0.00800*%
%ADD14R,0.00787X0.00787*%
%ADD15C,0.00300*%
%ADD16R,0.01181X0.00591*%
%ADD17R,0.01181X0.01181*%
%ADD18R,0.00591X0.01181*%
%ADD19R,0.03000X0.03400*%
%ADD20C,0.00252*%
%ADD21C,0.00000*%
D10*
X0041184Y0085500D02*
X0043853Y0085500D01*
X0045788Y0085500D02*
X0048457Y0085500D01*
X0050392Y0085500D02*
X0052394Y0085500D01*
X0053061Y0086167D01*
X0053061Y0088836D01*
X0052394Y0089503D01*
X0050392Y0089503D01*
X0050392Y0085500D01*
X0047123Y0087502D02*
X0045788Y0087502D01*
X0045788Y0089503D02*
X0045788Y0085500D01*
X0041184Y0085500D02*
X0041184Y0089503D01*
X0045788Y0089503D02*
X0048457Y0089503D01*
X0054996Y0088836D02*
X0055663Y0089503D01*
X0056998Y0089503D01*
X0057665Y0088836D01*
X0057665Y0088169D01*
X0056998Y0087502D01*
X0057665Y0086834D01*
X0057665Y0086167D01*
X0056998Y0085500D01*
X0055663Y0085500D01*
X0054996Y0086167D01*
X0056331Y0087502D02*
X0056998Y0087502D01*
X0057055Y0097100D02*
X0056388Y0097767D01*
X0056388Y0100436D01*
X0057055Y0101103D01*
X0058390Y0101103D01*
X0059057Y0100436D01*
X0060992Y0099769D02*
X0062327Y0101103D01*
X0062327Y0097100D01*
X0063661Y0097100D02*
X0060992Y0097100D01*
X0059057Y0097767D02*
X0058390Y0097100D01*
X0057055Y0097100D01*
X0065596Y0097100D02*
X0068265Y0099769D01*
X0068265Y0100436D01*
X0067598Y0101103D01*
X0066263Y0101103D01*
X0065596Y0100436D01*
X0065596Y0097100D02*
X0068265Y0097100D01*
X0066698Y0114950D02*
X0067365Y0115617D01*
X0067365Y0118286D01*
X0066698Y0118953D01*
X0065363Y0118953D01*
X0064696Y0118286D01*
X0064696Y0117619D01*
X0065363Y0116952D01*
X0067365Y0116952D01*
X0066908Y0118500D02*
X0069577Y0118500D01*
X0068242Y0118500D02*
X0068242Y0122503D01*
X0066908Y0121169D01*
X0064973Y0118500D02*
X0062304Y0118500D01*
X0061427Y0118953D02*
X0061427Y0114950D01*
X0062761Y0114950D02*
X0060092Y0114950D01*
X0058157Y0114950D02*
X0056823Y0116284D01*
X0057490Y0116284D02*
X0055488Y0116284D01*
X0055488Y0114950D02*
X0055488Y0118953D01*
X0057490Y0118953D01*
X0058157Y0118286D01*
X0058157Y0116952D01*
X0057490Y0116284D01*
X0058367Y0118500D02*
X0059702Y0118500D01*
X0060369Y0119167D01*
X0060369Y0122503D01*
X0058998Y0123300D02*
X0057663Y0123300D01*
X0056996Y0123967D01*
X0059665Y0126636D01*
X0059665Y0123967D01*
X0058998Y0123300D01*
X0057700Y0122503D02*
X0057700Y0119167D01*
X0058367Y0118500D01*
X0060092Y0117619D02*
X0061427Y0118953D01*
X0063638Y0118500D02*
X0063638Y0122503D01*
X0062304Y0121169D01*
X0056996Y0123967D02*
X0056996Y0126636D01*
X0057663Y0127303D01*
X0058998Y0127303D01*
X0059665Y0126636D01*
X0055061Y0125302D02*
X0052392Y0125302D01*
X0054394Y0127303D01*
X0054394Y0123300D01*
X0050457Y0123967D02*
X0049790Y0123300D01*
X0048455Y0123300D01*
X0047788Y0123967D01*
X0047788Y0126636D01*
X0048455Y0127303D01*
X0049790Y0127303D01*
X0050457Y0126636D01*
X0045440Y0126880D02*
X0041437Y0126880D01*
X0041437Y0128882D01*
X0042104Y0129549D01*
X0043438Y0129549D01*
X0044106Y0128882D01*
X0044106Y0126880D01*
X0044106Y0128214D02*
X0045440Y0129549D01*
X0045440Y0131484D02*
X0042771Y0134153D01*
X0042104Y0134153D01*
X0041437Y0133486D01*
X0041437Y0132151D01*
X0042104Y0131484D01*
X0045440Y0131484D02*
X0045440Y0134153D01*
X0047647Y0134502D02*
X0048314Y0135169D01*
X0049648Y0135169D01*
X0050316Y0134502D01*
X0050316Y0132500D01*
X0051650Y0132500D02*
X0047647Y0132500D01*
X0047647Y0134502D01*
X0050316Y0133834D02*
X0051650Y0135169D01*
X0051650Y0137104D02*
X0051650Y0139773D01*
X0051650Y0138438D02*
X0047647Y0138438D01*
X0048981Y0137104D01*
X0045440Y0138090D02*
X0041437Y0138090D01*
X0043438Y0136088D01*
X0043438Y0138757D01*
X0047647Y0143710D02*
X0049648Y0141708D01*
X0049648Y0144377D01*
X0047647Y0143710D02*
X0051650Y0143710D01*
X0063800Y0148867D02*
X0063800Y0152203D01*
X0066469Y0152203D02*
X0066469Y0148867D01*
X0065802Y0148200D01*
X0064467Y0148200D01*
X0063800Y0148867D01*
X0068404Y0148867D02*
X0068404Y0149534D01*
X0069071Y0150202D01*
X0070406Y0150202D01*
X0071073Y0149534D01*
X0071073Y0148867D01*
X0070406Y0148200D01*
X0069071Y0148200D01*
X0068404Y0148867D01*
X0069071Y0150202D02*
X0068404Y0150869D01*
X0068404Y0151536D01*
X0069071Y0152203D01*
X0070406Y0152203D01*
X0071073Y0151536D01*
X0071073Y0150869D01*
X0070406Y0150202D01*
X0067977Y0159400D02*
X0065308Y0159400D01*
X0066642Y0159400D02*
X0066642Y0163403D01*
X0065308Y0162069D01*
X0063373Y0159400D02*
X0060704Y0159400D01*
X0062038Y0159400D02*
X0062038Y0163403D01*
X0060704Y0162069D01*
X0058769Y0162736D02*
X0058102Y0163403D01*
X0056767Y0163403D01*
X0056100Y0162736D01*
X0056100Y0160067D01*
X0056767Y0159400D01*
X0058102Y0159400D01*
X0058769Y0160067D01*
X0058102Y0165600D02*
X0056100Y0165600D01*
X0056100Y0169603D01*
X0058102Y0169603D01*
X0058769Y0168936D01*
X0058769Y0166267D01*
X0058102Y0165600D01*
X0060704Y0165600D02*
X0060704Y0166267D01*
X0063373Y0168936D01*
X0063373Y0169603D01*
X0060704Y0169603D01*
X0070197Y0170688D02*
X0070197Y0173357D01*
X0070197Y0172023D02*
X0074200Y0172023D01*
X0074200Y0175292D02*
X0070197Y0177961D01*
X0070864Y0179896D02*
X0070197Y0180563D01*
X0070197Y0181898D01*
X0070864Y0182565D01*
X0071531Y0182565D01*
X0074200Y0179896D01*
X0074200Y0182565D01*
X0074200Y0177961D02*
X0070197Y0175292D01*
X0076700Y0164603D02*
X0078702Y0164603D01*
X0079369Y0163936D01*
X0079369Y0162602D01*
X0078702Y0161934D01*
X0076700Y0161934D01*
X0076700Y0160600D02*
X0076700Y0164603D01*
X0078034Y0161934D02*
X0079369Y0160600D01*
X0081304Y0160600D02*
X0083973Y0160600D01*
X0082638Y0160600D02*
X0082638Y0164603D01*
X0081304Y0163269D01*
X0085908Y0162602D02*
X0087242Y0163269D01*
X0087910Y0163269D01*
X0088577Y0162602D01*
X0088577Y0161267D01*
X0087910Y0160600D01*
X0086575Y0160600D01*
X0085908Y0161267D01*
X0085908Y0162602D02*
X0085908Y0164603D01*
X0088577Y0164603D01*
X0097997Y0151098D02*
X0099998Y0149096D01*
X0099998Y0151765D01*
X0097997Y0151098D02*
X0102000Y0151098D01*
X0101333Y0147161D02*
X0097997Y0147161D01*
X0097997Y0144492D02*
X0101333Y0144492D01*
X0102000Y0145159D01*
X0102000Y0146494D01*
X0101333Y0147161D01*
X0091200Y0148306D02*
X0087197Y0148306D01*
X0089198Y0146304D01*
X0089198Y0148973D01*
X0087864Y0144369D02*
X0087197Y0143702D01*
X0087197Y0141700D01*
X0091200Y0141700D01*
X0091200Y0143702D01*
X0090533Y0144369D01*
X0087864Y0144369D01*
X0076433Y0130173D02*
X0073764Y0130173D01*
X0073097Y0129506D01*
X0073097Y0128171D01*
X0073764Y0127504D01*
X0074431Y0127504D01*
X0075098Y0128171D01*
X0075098Y0130173D01*
X0076433Y0130173D02*
X0077100Y0129506D01*
X0077100Y0128171D01*
X0076433Y0127504D01*
X0076433Y0125569D02*
X0077100Y0124902D01*
X0077100Y0123567D01*
X0076433Y0122900D01*
X0073764Y0122900D01*
X0073097Y0123567D01*
X0073097Y0124902D01*
X0073764Y0125569D01*
X0075000Y0121753D02*
X0077002Y0121753D01*
X0077669Y0121086D01*
X0077669Y0119752D01*
X0077002Y0119084D01*
X0075000Y0119084D01*
X0075000Y0117750D02*
X0075000Y0121753D01*
X0076334Y0119084D02*
X0077669Y0117750D01*
X0079604Y0117750D02*
X0082273Y0117750D01*
X0080938Y0117750D02*
X0080938Y0121753D01*
X0079604Y0120419D01*
X0078992Y0116003D02*
X0080994Y0116003D01*
X0081661Y0115336D01*
X0081661Y0112667D01*
X0080994Y0112000D01*
X0078992Y0112000D01*
X0078992Y0116003D01*
X0083596Y0115336D02*
X0084263Y0116003D01*
X0085598Y0116003D01*
X0086265Y0115336D01*
X0086265Y0114669D01*
X0085598Y0114002D01*
X0086265Y0113334D01*
X0086265Y0112667D01*
X0085598Y0112000D01*
X0084263Y0112000D01*
X0083596Y0112667D01*
X0084931Y0114002D02*
X0085598Y0114002D01*
X0086210Y0117750D02*
X0084875Y0117750D01*
X0084208Y0118417D01*
X0084208Y0119752D01*
X0086210Y0119752D01*
X0086877Y0119084D01*
X0086877Y0118417D01*
X0086210Y0117750D01*
X0084208Y0119752D02*
X0085542Y0121086D01*
X0086877Y0121753D01*
X0103697Y0125859D02*
X0104364Y0125192D01*
X0107033Y0125192D01*
X0107700Y0125859D01*
X0107700Y0127194D01*
X0107033Y0127861D01*
X0107033Y0129796D02*
X0107700Y0130463D01*
X0107700Y0131798D01*
X0107033Y0132465D01*
X0106366Y0132465D01*
X0105698Y0131798D01*
X0105698Y0131131D01*
X0105698Y0131798D02*
X0105031Y0132465D01*
X0104364Y0132465D01*
X0103697Y0131798D01*
X0103697Y0130463D01*
X0104364Y0129796D01*
X0104364Y0127861D02*
X0103697Y0127194D01*
X0103697Y0125859D01*
X0118000Y0127100D02*
X0120002Y0127100D01*
X0120669Y0127767D01*
X0120669Y0130436D01*
X0120002Y0131103D01*
X0118000Y0131103D01*
X0118000Y0127100D01*
X0122604Y0127767D02*
X0122604Y0129102D01*
X0124606Y0129102D01*
X0125273Y0128434D01*
X0125273Y0127767D01*
X0124606Y0127100D01*
X0123271Y0127100D01*
X0122604Y0127767D01*
X0122604Y0129102D02*
X0123938Y0130436D01*
X0125273Y0131103D01*
X0134788Y0123103D02*
X0136790Y0123103D01*
X0137457Y0122436D01*
X0137457Y0121102D01*
X0136790Y0120434D01*
X0134788Y0120434D01*
X0134788Y0119100D02*
X0134788Y0123103D01*
X0136123Y0120434D02*
X0137457Y0119100D01*
X0139392Y0119100D02*
X0142061Y0119100D01*
X0140727Y0119100D02*
X0140727Y0123103D01*
X0139392Y0121769D01*
X0143996Y0121769D02*
X0144663Y0121102D01*
X0145998Y0121102D01*
X0146665Y0120434D01*
X0146665Y0119767D01*
X0145998Y0119100D01*
X0144663Y0119100D01*
X0143996Y0119767D01*
X0143996Y0120434D01*
X0144663Y0121102D01*
X0143996Y0121769D02*
X0143996Y0122436D01*
X0144663Y0123103D01*
X0145998Y0123103D01*
X0146665Y0122436D01*
X0146665Y0121769D01*
X0145998Y0121102D01*
X0159800Y0121503D02*
X0159800Y0117500D01*
X0159800Y0118834D02*
X0161802Y0118834D01*
X0162469Y0119502D01*
X0162469Y0120836D01*
X0161802Y0121503D01*
X0159800Y0121503D01*
X0161134Y0118834D02*
X0162469Y0117500D01*
X0164404Y0117500D02*
X0167073Y0117500D01*
X0165738Y0117500D02*
X0165738Y0121503D01*
X0164404Y0120169D01*
X0169008Y0121503D02*
X0171677Y0121503D01*
X0171677Y0120836D01*
X0169008Y0118167D01*
X0169008Y0117500D01*
X0168765Y0099703D02*
X0166096Y0099703D01*
X0164161Y0099703D02*
X0164161Y0096367D01*
X0163494Y0095700D01*
X0162159Y0095700D01*
X0161492Y0096367D01*
X0161492Y0099703D01*
X0166096Y0096367D02*
X0166096Y0095700D01*
X0166096Y0096367D02*
X0168765Y0099036D01*
X0168765Y0099703D01*
X0191797Y0099498D02*
X0191797Y0098163D01*
X0192464Y0097496D01*
X0193131Y0097496D01*
X0193798Y0098163D01*
X0193798Y0100165D01*
X0192464Y0100165D02*
X0191797Y0099498D01*
X0192464Y0100165D02*
X0195133Y0100165D01*
X0195800Y0099498D01*
X0195800Y0098163D01*
X0195133Y0097496D01*
X0195800Y0095561D02*
X0194466Y0094227D01*
X0194466Y0094894D02*
X0194466Y0092892D01*
X0195800Y0092892D02*
X0191797Y0092892D01*
X0191797Y0094894D01*
X0192464Y0095561D01*
X0193798Y0095561D01*
X0194466Y0094894D01*
X0208397Y0094694D02*
X0209064Y0095361D01*
X0210398Y0095361D01*
X0211066Y0094694D01*
X0211066Y0092692D01*
X0212400Y0092692D02*
X0208397Y0092692D01*
X0208397Y0094694D01*
X0209064Y0097296D02*
X0209731Y0097296D01*
X0210398Y0097963D01*
X0210398Y0099298D01*
X0211066Y0099965D01*
X0211733Y0099965D01*
X0212400Y0099298D01*
X0212400Y0097963D01*
X0211733Y0097296D01*
X0211066Y0097296D01*
X0210398Y0097963D01*
X0210398Y0099298D02*
X0209731Y0099965D01*
X0209064Y0099965D01*
X0208397Y0099298D01*
X0208397Y0097963D01*
X0209064Y0097296D01*
X0211066Y0094027D02*
X0212400Y0095361D01*
X0224497Y0094794D02*
X0225164Y0095461D01*
X0226498Y0095461D01*
X0227166Y0094794D01*
X0227166Y0092792D01*
X0228500Y0092792D02*
X0224497Y0092792D01*
X0224497Y0094794D01*
X0224497Y0097396D02*
X0224497Y0100065D01*
X0225164Y0100065D01*
X0227833Y0097396D01*
X0228500Y0097396D01*
X0228500Y0095461D02*
X0227166Y0094127D01*
X0241897Y0094663D02*
X0242564Y0093996D01*
X0241897Y0094663D02*
X0241897Y0095998D01*
X0242564Y0096665D01*
X0243231Y0096665D01*
X0245900Y0093996D01*
X0245900Y0096665D01*
X0245900Y0092061D02*
X0244566Y0090727D01*
X0244566Y0091394D02*
X0244566Y0089392D01*
X0245900Y0089392D02*
X0241897Y0089392D01*
X0241897Y0091394D01*
X0242564Y0092061D01*
X0243898Y0092061D01*
X0244566Y0091394D01*
X0281612Y0121470D02*
X0285615Y0121470D01*
X0285615Y0124139D01*
X0285615Y0126074D02*
X0285615Y0128743D01*
X0285615Y0127408D02*
X0281612Y0127408D01*
X0282946Y0126074D01*
X0288900Y0120136D02*
X0288900Y0117467D01*
X0289567Y0116800D01*
X0290902Y0116800D01*
X0291569Y0117467D01*
X0293504Y0116800D02*
X0296173Y0116800D01*
X0294838Y0116800D02*
X0294838Y0120803D01*
X0293504Y0119469D01*
X0291569Y0120136D02*
X0290902Y0120803D01*
X0289567Y0120803D01*
X0288900Y0120136D01*
X0288436Y0136205D02*
X0288436Y0140208D01*
X0287101Y0138874D01*
X0285166Y0137540D02*
X0285166Y0140208D01*
X0285166Y0137540D02*
X0283832Y0136205D01*
X0282497Y0137540D01*
X0282497Y0140208D01*
X0287101Y0136205D02*
X0289770Y0136205D01*
X0280173Y0152689D02*
X0276170Y0152689D01*
X0276170Y0154691D01*
X0276837Y0155358D01*
X0279506Y0155358D01*
X0280173Y0154691D01*
X0280173Y0152689D01*
X0280173Y0157293D02*
X0280173Y0159962D01*
X0280173Y0158628D02*
X0276170Y0158628D01*
X0277504Y0157293D01*
X0279003Y0172480D02*
X0278336Y0173147D01*
X0279003Y0172480D02*
X0280338Y0172480D01*
X0281005Y0173147D01*
X0281005Y0173814D01*
X0280338Y0174482D01*
X0279671Y0174482D01*
X0280338Y0174482D02*
X0281005Y0175149D01*
X0281005Y0175816D01*
X0280338Y0176483D01*
X0279003Y0176483D01*
X0278336Y0175816D01*
X0276401Y0174482D02*
X0273732Y0174482D01*
X0275734Y0176483D01*
X0275734Y0172480D01*
X0271797Y0172480D02*
X0270463Y0173814D01*
X0271130Y0173814D02*
X0269128Y0173814D01*
X0269128Y0172480D02*
X0269128Y0176483D01*
X0271130Y0176483D01*
X0271797Y0175816D01*
X0271797Y0174482D01*
X0271130Y0173814D01*
X0271833Y0187692D02*
X0269164Y0187692D01*
X0268497Y0188359D01*
X0268497Y0189694D01*
X0269164Y0190361D01*
X0268497Y0192296D02*
X0268497Y0194965D01*
X0269164Y0194965D01*
X0271833Y0192296D01*
X0272500Y0192296D01*
X0271833Y0190361D02*
X0272500Y0189694D01*
X0272500Y0188359D01*
X0271833Y0187692D01*
X0296984Y0170003D02*
X0296984Y0166000D01*
X0299653Y0166000D01*
X0301588Y0166000D02*
X0304257Y0166000D01*
X0306192Y0166000D02*
X0308194Y0166000D01*
X0308861Y0166667D01*
X0308861Y0169336D01*
X0308194Y0170003D01*
X0306192Y0170003D01*
X0306192Y0166000D01*
X0302923Y0168002D02*
X0301588Y0168002D01*
X0301588Y0170003D02*
X0301588Y0166000D01*
X0301588Y0170003D02*
X0304257Y0170003D01*
X0310796Y0168669D02*
X0312131Y0170003D01*
X0312131Y0166000D01*
X0313465Y0166000D02*
X0310796Y0166000D01*
X0311863Y0150203D02*
X0311196Y0149536D01*
X0311863Y0150203D02*
X0313198Y0150203D01*
X0313865Y0149536D01*
X0313865Y0148869D01*
X0311196Y0146200D01*
X0313865Y0146200D01*
X0309261Y0146867D02*
X0309261Y0149536D01*
X0308594Y0150203D01*
X0306592Y0150203D01*
X0306592Y0146200D01*
X0308594Y0146200D01*
X0309261Y0146867D01*
X0312204Y0127723D02*
X0311537Y0127056D01*
X0311537Y0125721D01*
X0312204Y0125054D01*
X0312204Y0127723D02*
X0312871Y0127723D01*
X0315540Y0125054D01*
X0315540Y0127723D01*
X0315540Y0123119D02*
X0315540Y0120450D01*
X0311537Y0120450D01*
X0247265Y0152067D02*
X0246598Y0151400D01*
X0245263Y0151400D01*
X0244596Y0152067D01*
X0245931Y0153402D02*
X0246598Y0153402D01*
X0247265Y0152734D01*
X0247265Y0152067D01*
X0246598Y0153402D02*
X0247265Y0154069D01*
X0247265Y0154736D01*
X0246598Y0155403D01*
X0245263Y0155403D01*
X0244596Y0154736D01*
X0241327Y0155403D02*
X0241327Y0151400D01*
X0242661Y0151400D02*
X0239992Y0151400D01*
X0238057Y0151400D02*
X0236723Y0152734D01*
X0237390Y0152734D02*
X0235388Y0152734D01*
X0235388Y0151400D02*
X0235388Y0155403D01*
X0237390Y0155403D01*
X0238057Y0154736D01*
X0238057Y0153402D01*
X0237390Y0152734D01*
X0239992Y0154069D02*
X0241327Y0155403D01*
X0224465Y0156400D02*
X0221796Y0156400D01*
X0224465Y0159069D01*
X0224465Y0159736D01*
X0223798Y0160403D01*
X0222463Y0160403D01*
X0221796Y0159736D01*
X0218527Y0160403D02*
X0218527Y0156400D01*
X0219861Y0156400D02*
X0217192Y0156400D01*
X0215257Y0156400D02*
X0213923Y0157734D01*
X0214590Y0157734D02*
X0212588Y0157734D01*
X0212588Y0156400D02*
X0212588Y0160403D01*
X0214590Y0160403D01*
X0215257Y0159736D01*
X0215257Y0158402D01*
X0214590Y0157734D01*
X0217192Y0159069D02*
X0218527Y0160403D01*
X0209377Y0161300D02*
X0206708Y0161300D01*
X0208042Y0161300D02*
X0208042Y0165303D01*
X0206708Y0163969D01*
X0204773Y0161300D02*
X0202104Y0161300D01*
X0203438Y0161300D02*
X0203438Y0165303D01*
X0202104Y0163969D01*
X0200169Y0164636D02*
X0200169Y0163302D01*
X0199502Y0162634D01*
X0197500Y0162634D01*
X0197500Y0161300D02*
X0197500Y0165303D01*
X0199502Y0165303D01*
X0200169Y0164636D01*
X0198834Y0162634D02*
X0200169Y0161300D01*
X0182610Y0141203D02*
X0181275Y0141203D01*
X0180608Y0140536D01*
X0180608Y0137867D01*
X0183277Y0140536D01*
X0183277Y0137867D01*
X0182610Y0137200D01*
X0181275Y0137200D01*
X0180608Y0137867D01*
X0178673Y0137200D02*
X0176004Y0137200D01*
X0177338Y0137200D02*
X0177338Y0141203D01*
X0176004Y0139869D01*
X0174069Y0140536D02*
X0173402Y0141203D01*
X0171400Y0141203D01*
X0171400Y0137200D01*
X0171400Y0138534D02*
X0173402Y0138534D01*
X0174069Y0139202D01*
X0174069Y0140536D01*
X0172734Y0138534D02*
X0174069Y0137200D01*
X0182610Y0141203D02*
X0183277Y0140536D01*
X0176133Y0148500D02*
X0173464Y0148500D01*
X0172797Y0149167D01*
X0172797Y0150502D01*
X0173464Y0151169D01*
X0174798Y0153104D02*
X0172797Y0155106D01*
X0176800Y0155106D01*
X0174798Y0155773D02*
X0174798Y0153104D01*
X0176133Y0151169D02*
X0176800Y0150502D01*
X0176800Y0149167D01*
X0176133Y0148500D01*
X0160400Y0139798D02*
X0160400Y0138463D01*
X0159733Y0137796D01*
X0158398Y0139131D02*
X0158398Y0139798D01*
X0159066Y0140465D01*
X0159733Y0140465D01*
X0160400Y0139798D01*
X0158398Y0139798D02*
X0157731Y0140465D01*
X0157064Y0140465D01*
X0156397Y0139798D01*
X0156397Y0138463D01*
X0157064Y0137796D01*
X0157064Y0135861D02*
X0156397Y0135194D01*
X0156397Y0133192D01*
X0160400Y0133192D01*
X0159066Y0133192D02*
X0159066Y0135194D01*
X0158398Y0135861D01*
X0157064Y0135861D01*
X0159066Y0134527D02*
X0160400Y0135861D01*
X0153600Y0134369D02*
X0152266Y0133034D01*
X0152266Y0133702D02*
X0152266Y0131700D01*
X0153600Y0131700D02*
X0149597Y0131700D01*
X0149597Y0133702D01*
X0150264Y0134369D01*
X0151598Y0134369D01*
X0152266Y0133702D01*
X0151598Y0136304D02*
X0151598Y0138973D01*
X0149597Y0138306D02*
X0151598Y0136304D01*
X0149597Y0138306D02*
X0153600Y0138306D01*
X0150300Y0155792D02*
X0146297Y0155792D01*
X0146297Y0157794D01*
X0146964Y0158461D01*
X0149633Y0158461D01*
X0150300Y0157794D01*
X0150300Y0155792D01*
X0149633Y0160396D02*
X0150300Y0161063D01*
X0150300Y0162398D01*
X0149633Y0163065D01*
X0148298Y0163065D01*
X0147631Y0162398D01*
X0147631Y0161731D01*
X0148298Y0160396D01*
X0146297Y0160396D01*
X0146297Y0163065D01*
X0146714Y0166300D02*
X0149383Y0166300D01*
X0150050Y0166967D01*
X0150050Y0168302D01*
X0149383Y0168969D01*
X0150050Y0170904D02*
X0150050Y0173573D01*
X0150050Y0172238D02*
X0146047Y0172238D01*
X0147381Y0170904D01*
X0146714Y0168969D02*
X0146047Y0168302D01*
X0146047Y0166967D01*
X0146714Y0166300D01*
X0146714Y0175508D02*
X0147381Y0175508D01*
X0148048Y0176175D01*
X0148048Y0178177D01*
X0146714Y0178177D02*
X0146047Y0177510D01*
X0146047Y0176175D01*
X0146714Y0175508D01*
X0149383Y0175508D02*
X0150050Y0176175D01*
X0150050Y0177510D01*
X0149383Y0178177D01*
X0146714Y0178177D01*
X0145310Y0184850D02*
X0143975Y0184850D01*
X0143308Y0185517D01*
X0143308Y0186184D01*
X0143975Y0186852D01*
X0145310Y0186852D01*
X0145977Y0186184D01*
X0145977Y0185517D01*
X0145310Y0184850D01*
X0145310Y0186852D02*
X0145977Y0187519D01*
X0145977Y0188186D01*
X0145310Y0188853D01*
X0143975Y0188853D01*
X0143308Y0188186D01*
X0143308Y0187519D01*
X0143975Y0186852D01*
X0141373Y0184850D02*
X0138704Y0184850D01*
X0140038Y0184850D02*
X0140038Y0188853D01*
X0138704Y0187519D01*
X0136769Y0188186D02*
X0136102Y0188853D01*
X0134767Y0188853D01*
X0134100Y0188186D01*
X0134100Y0185517D01*
X0134767Y0184850D01*
X0136102Y0184850D01*
X0136769Y0185517D01*
X0130665Y0198700D02*
X0127996Y0198700D01*
X0129331Y0198700D02*
X0129331Y0202703D01*
X0127996Y0201369D01*
X0126061Y0202703D02*
X0126061Y0199367D01*
X0125394Y0198700D01*
X0124059Y0198700D01*
X0123392Y0199367D01*
X0123392Y0202703D01*
X0107965Y0207900D02*
X0105296Y0207900D01*
X0106631Y0207900D02*
X0106631Y0211903D01*
X0105296Y0210569D01*
X0103361Y0211236D02*
X0103361Y0211903D01*
X0103361Y0211236D02*
X0102027Y0209902D01*
X0102027Y0207900D01*
X0102027Y0209902D02*
X0100692Y0211236D01*
X0100692Y0211903D01*
X0090650Y0221067D02*
X0090650Y0222402D01*
X0089983Y0223069D01*
X0090650Y0225004D02*
X0087981Y0227673D01*
X0087314Y0227673D01*
X0086647Y0227006D01*
X0086647Y0225671D01*
X0087314Y0225004D01*
X0087314Y0223069D02*
X0086647Y0222402D01*
X0086647Y0221067D01*
X0087314Y0220400D01*
X0089983Y0220400D01*
X0090650Y0221067D01*
X0090650Y0225004D02*
X0090650Y0227673D01*
X0089983Y0229608D02*
X0090650Y0230275D01*
X0090650Y0231610D01*
X0089983Y0232277D01*
X0089316Y0232277D01*
X0088648Y0231610D01*
X0088648Y0230942D01*
X0088648Y0231610D02*
X0087981Y0232277D01*
X0087314Y0232277D01*
X0086647Y0231610D01*
X0086647Y0230275D01*
X0087314Y0229608D01*
X0088997Y0241292D02*
X0092333Y0241292D01*
X0093000Y0241959D01*
X0093000Y0243294D01*
X0092333Y0243961D01*
X0088997Y0243961D01*
X0089664Y0245896D02*
X0090331Y0245896D01*
X0090998Y0246563D01*
X0090998Y0248565D01*
X0089664Y0248565D02*
X0088997Y0247898D01*
X0088997Y0246563D01*
X0089664Y0245896D01*
X0092333Y0245896D02*
X0093000Y0246563D01*
X0093000Y0247898D01*
X0092333Y0248565D01*
X0089664Y0248565D01*
X0077365Y0260200D02*
X0074696Y0260200D01*
X0077365Y0262869D01*
X0077365Y0263536D01*
X0076698Y0264203D01*
X0075363Y0264203D01*
X0074696Y0263536D01*
X0072761Y0263536D02*
X0072094Y0264203D01*
X0070759Y0264203D01*
X0070092Y0263536D01*
X0070092Y0262869D01*
X0070759Y0262202D01*
X0072094Y0262202D01*
X0072761Y0261534D01*
X0072761Y0260867D01*
X0072094Y0260200D01*
X0070759Y0260200D01*
X0070092Y0260867D01*
X0070348Y0228777D02*
X0070348Y0226108D01*
X0068347Y0228110D01*
X0072350Y0228110D01*
X0072350Y0224173D02*
X0072350Y0221504D01*
X0069681Y0224173D01*
X0069014Y0224173D01*
X0068347Y0223506D01*
X0068347Y0222171D01*
X0069014Y0221504D01*
X0069014Y0219569D02*
X0068347Y0218902D01*
X0068347Y0217567D01*
X0069014Y0216900D01*
X0071683Y0216900D01*
X0072350Y0217567D01*
X0072350Y0218902D01*
X0071683Y0219569D01*
X0063164Y0211277D02*
X0065833Y0208608D01*
X0066500Y0208608D01*
X0066500Y0206673D02*
X0066500Y0204004D01*
X0063831Y0206673D01*
X0063164Y0206673D01*
X0062497Y0206006D01*
X0062497Y0204671D01*
X0063164Y0204004D01*
X0063164Y0202069D02*
X0064498Y0202069D01*
X0065166Y0201402D01*
X0065166Y0199400D01*
X0066500Y0199400D02*
X0062497Y0199400D01*
X0062497Y0201402D01*
X0063164Y0202069D01*
X0065166Y0200734D02*
X0066500Y0202069D01*
X0062497Y0208608D02*
X0062497Y0211277D01*
X0063164Y0211277D01*
X0055900Y0211510D02*
X0055900Y0210175D01*
X0055233Y0209508D01*
X0054566Y0209508D01*
X0053898Y0210175D01*
X0053898Y0211510D01*
X0054566Y0212177D01*
X0055233Y0212177D01*
X0055900Y0211510D01*
X0053898Y0211510D02*
X0053231Y0212177D01*
X0052564Y0212177D01*
X0051897Y0211510D01*
X0051897Y0210175D01*
X0052564Y0209508D01*
X0053231Y0209508D01*
X0053898Y0210175D01*
X0053231Y0207573D02*
X0052564Y0207573D01*
X0051897Y0206906D01*
X0051897Y0205571D01*
X0052564Y0204904D01*
X0052564Y0202969D02*
X0053898Y0202969D01*
X0054566Y0202302D01*
X0054566Y0200300D01*
X0055900Y0200300D02*
X0051897Y0200300D01*
X0051897Y0202302D01*
X0052564Y0202969D01*
X0054566Y0201634D02*
X0055900Y0202969D01*
X0055900Y0204904D02*
X0053231Y0207573D01*
X0055900Y0207573D02*
X0055900Y0204904D01*
X0050900Y0181365D02*
X0050900Y0178696D01*
X0048231Y0181365D01*
X0047564Y0181365D01*
X0046897Y0180698D01*
X0046897Y0179363D01*
X0047564Y0178696D01*
X0046897Y0176761D02*
X0050900Y0174092D01*
X0050900Y0172157D02*
X0049566Y0170823D01*
X0049566Y0171490D02*
X0049566Y0169488D01*
X0050900Y0169488D02*
X0046897Y0169488D01*
X0046897Y0171490D01*
X0047564Y0172157D01*
X0048898Y0172157D01*
X0049566Y0171490D01*
X0046897Y0174092D02*
X0050900Y0176761D01*
X0015700Y0125865D02*
X0015700Y0123196D01*
X0015700Y0124531D02*
X0011697Y0124531D01*
X0013031Y0123196D01*
X0011697Y0121261D02*
X0011697Y0118592D01*
X0015700Y0118592D01*
X0013698Y0118592D02*
X0013698Y0119927D01*
X0017000Y0110800D02*
X0017000Y0106800D01*
X0009000Y0106800D02*
X0009000Y0110800D01*
X0064696Y0115617D02*
X0065363Y0114950D01*
X0066698Y0114950D01*
X0103797Y0100731D02*
X0107800Y0100731D01*
X0107800Y0102065D02*
X0107800Y0099396D01*
X0107800Y0097461D02*
X0106466Y0096127D01*
X0106466Y0096794D02*
X0106466Y0094792D01*
X0107800Y0094792D02*
X0103797Y0094792D01*
X0103797Y0096794D01*
X0104464Y0097461D01*
X0105798Y0097461D01*
X0106466Y0096794D01*
X0105131Y0099396D02*
X0103797Y0100731D01*
X0111992Y0092303D02*
X0113994Y0092303D01*
X0114661Y0091636D01*
X0114661Y0090302D01*
X0113994Y0089634D01*
X0111992Y0089634D01*
X0111992Y0088300D02*
X0111992Y0092303D01*
X0113327Y0089634D02*
X0114661Y0088300D01*
X0116596Y0088967D02*
X0117263Y0088300D01*
X0118598Y0088300D01*
X0119265Y0088967D01*
X0119265Y0090302D01*
X0118598Y0090969D01*
X0117931Y0090969D01*
X0116596Y0090302D01*
X0116596Y0092303D01*
X0119265Y0092303D01*
X0129888Y0098567D02*
X0129888Y0101903D01*
X0132557Y0101903D02*
X0132557Y0098567D01*
X0131890Y0097900D01*
X0130555Y0097900D01*
X0129888Y0098567D01*
X0134492Y0097900D02*
X0137161Y0097900D01*
X0135827Y0097900D02*
X0135827Y0101903D01*
X0134492Y0100569D01*
X0139096Y0101236D02*
X0139096Y0098567D01*
X0141765Y0101236D01*
X0141765Y0098567D01*
X0141098Y0097900D01*
X0139763Y0097900D01*
X0139096Y0098567D01*
X0139096Y0101236D02*
X0139763Y0101903D01*
X0141098Y0101903D01*
X0141765Y0101236D01*
X0122800Y0109167D02*
X0122133Y0108500D01*
X0119464Y0108500D01*
X0118797Y0109167D01*
X0118797Y0110502D01*
X0119464Y0111169D01*
X0120798Y0113104D02*
X0120798Y0115106D01*
X0121466Y0115773D01*
X0122133Y0115773D01*
X0122800Y0115106D01*
X0122800Y0113771D01*
X0122133Y0113104D01*
X0120798Y0113104D01*
X0119464Y0114438D01*
X0118797Y0115773D01*
X0122133Y0111169D02*
X0122800Y0110502D01*
X0122800Y0109167D01*
X0126964Y0151800D02*
X0129633Y0151800D01*
X0130300Y0152467D01*
X0130300Y0153802D01*
X0129633Y0154469D01*
X0129633Y0156404D02*
X0130300Y0157071D01*
X0130300Y0158406D01*
X0129633Y0159073D01*
X0128298Y0159073D01*
X0127631Y0158406D01*
X0127631Y0157738D01*
X0128298Y0156404D01*
X0126297Y0156404D01*
X0126297Y0159073D01*
X0126964Y0154469D02*
X0126297Y0153802D01*
X0126297Y0152467D01*
X0126964Y0151800D01*
X0163250Y0168050D02*
X0165252Y0168050D01*
X0165919Y0168717D01*
X0165919Y0171386D01*
X0165252Y0172053D01*
X0163250Y0172053D01*
X0163250Y0168050D01*
X0167854Y0168050D02*
X0170523Y0168050D01*
X0169188Y0168050D02*
X0169188Y0172053D01*
X0167854Y0170719D01*
X0172458Y0170052D02*
X0175127Y0170052D01*
X0174460Y0172053D02*
X0172458Y0170052D01*
X0174460Y0172053D02*
X0174460Y0168050D01*
X0202200Y0189500D02*
X0204869Y0189500D01*
X0206804Y0189500D02*
X0206804Y0193503D01*
X0209473Y0193503D01*
X0211408Y0193503D02*
X0211408Y0189500D01*
X0213410Y0189500D01*
X0214077Y0190167D01*
X0214077Y0192836D01*
X0213410Y0193503D01*
X0211408Y0193503D01*
X0208138Y0191502D02*
X0206804Y0191502D01*
X0206804Y0189500D02*
X0209473Y0189500D01*
X0216012Y0189500D02*
X0216012Y0190167D01*
X0218681Y0192836D01*
X0218681Y0193503D01*
X0216012Y0193503D01*
X0218497Y0200588D02*
X0221833Y0200588D01*
X0222500Y0201255D01*
X0222500Y0202590D01*
X0221833Y0203257D01*
X0218497Y0203257D01*
X0219831Y0205192D02*
X0218497Y0206527D01*
X0222500Y0206527D01*
X0222500Y0207861D02*
X0222500Y0205192D01*
X0221833Y0209796D02*
X0222500Y0210463D01*
X0222500Y0211798D01*
X0221833Y0212465D01*
X0221166Y0212465D01*
X0220498Y0211798D01*
X0220498Y0211131D01*
X0220498Y0211798D02*
X0219831Y0212465D01*
X0219164Y0212465D01*
X0218497Y0211798D01*
X0218497Y0210463D01*
X0219164Y0209796D01*
X0209300Y0208957D02*
X0207966Y0207623D01*
X0207966Y0208290D02*
X0207966Y0206288D01*
X0209300Y0206288D02*
X0205297Y0206288D01*
X0205297Y0208290D01*
X0205964Y0208957D01*
X0207298Y0208957D01*
X0207966Y0208290D01*
X0209300Y0210892D02*
X0205297Y0213561D01*
X0206631Y0215496D02*
X0205297Y0216831D01*
X0209300Y0216831D01*
X0209300Y0218165D02*
X0209300Y0215496D01*
X0209300Y0213561D02*
X0205297Y0210892D01*
X0192365Y0207686D02*
X0192365Y0205017D01*
X0191698Y0204350D01*
X0190363Y0204350D01*
X0189696Y0205017D01*
X0190363Y0206352D02*
X0192365Y0206352D01*
X0192365Y0207686D02*
X0191698Y0208353D01*
X0190363Y0208353D01*
X0189696Y0207686D01*
X0189696Y0207019D01*
X0190363Y0206352D01*
X0187761Y0207019D02*
X0187761Y0207686D01*
X0187094Y0208353D01*
X0185759Y0208353D01*
X0185092Y0207686D01*
X0186427Y0206352D02*
X0187094Y0206352D01*
X0187761Y0205684D01*
X0187761Y0205017D01*
X0187094Y0204350D01*
X0185759Y0204350D01*
X0185092Y0205017D01*
X0183157Y0204350D02*
X0181823Y0205684D01*
X0182490Y0205684D02*
X0180488Y0205684D01*
X0180488Y0204350D02*
X0180488Y0208353D01*
X0182490Y0208353D01*
X0183157Y0207686D01*
X0183157Y0206352D01*
X0182490Y0205684D01*
X0187094Y0206352D02*
X0187761Y0207019D01*
X0202200Y0193503D02*
X0202200Y0189500D01*
X0164835Y0206652D02*
X0164837Y0206719D01*
X0164843Y0206785D01*
X0164853Y0206851D01*
X0164867Y0206916D01*
X0164884Y0206980D01*
X0164906Y0207043D01*
X0164931Y0207105D01*
X0164960Y0207165D01*
X0164993Y0207223D01*
X0165028Y0207279D01*
X0165068Y0207333D01*
X0165110Y0207384D01*
X0165155Y0207433D01*
X0165203Y0207479D01*
X0165254Y0207522D01*
X0165307Y0207562D01*
X0165363Y0207599D01*
X0165421Y0207632D01*
X0165480Y0207662D01*
X0165541Y0207688D01*
X0165604Y0207711D01*
X0165668Y0207729D01*
X0165733Y0207744D01*
X0165799Y0207755D01*
X0165865Y0207762D01*
X0165931Y0207765D01*
X0165998Y0207764D01*
X0166064Y0207759D01*
X0166130Y0207750D01*
X0166196Y0207737D01*
X0166260Y0207720D01*
X0166323Y0207700D01*
X0166385Y0207675D01*
X0166446Y0207647D01*
X0166505Y0207616D01*
X0166561Y0207581D01*
X0166616Y0207543D01*
X0166668Y0207501D01*
X0166717Y0207456D01*
X0166764Y0207409D01*
X0166808Y0207359D01*
X0166848Y0207306D01*
X0166886Y0207251D01*
X0166920Y0207194D01*
X0166951Y0207135D01*
X0166978Y0207074D01*
X0167001Y0207012D01*
X0167021Y0206948D01*
X0167037Y0206883D01*
X0167049Y0206818D01*
X0167057Y0206752D01*
X0167061Y0206685D01*
X0167061Y0206619D01*
X0167057Y0206552D01*
X0167049Y0206486D01*
X0167037Y0206421D01*
X0167021Y0206356D01*
X0167001Y0206292D01*
X0166978Y0206230D01*
X0166951Y0206169D01*
X0166920Y0206110D01*
X0166886Y0206053D01*
X0166848Y0205998D01*
X0166808Y0205945D01*
X0166764Y0205895D01*
X0166717Y0205848D01*
X0166668Y0205803D01*
X0166616Y0205761D01*
X0166561Y0205723D01*
X0166504Y0205688D01*
X0166446Y0205657D01*
X0166385Y0205629D01*
X0166323Y0205604D01*
X0166260Y0205584D01*
X0166196Y0205567D01*
X0166130Y0205554D01*
X0166064Y0205545D01*
X0165998Y0205540D01*
X0165931Y0205539D01*
X0165865Y0205542D01*
X0165799Y0205549D01*
X0165733Y0205560D01*
X0165668Y0205575D01*
X0165604Y0205593D01*
X0165541Y0205616D01*
X0165480Y0205642D01*
X0165421Y0205672D01*
X0165363Y0205705D01*
X0165307Y0205742D01*
X0165254Y0205782D01*
X0165203Y0205825D01*
X0165155Y0205871D01*
X0165110Y0205920D01*
X0165068Y0205971D01*
X0165028Y0206025D01*
X0164993Y0206081D01*
X0164960Y0206139D01*
X0164931Y0206199D01*
X0164906Y0206261D01*
X0164884Y0206324D01*
X0164867Y0206388D01*
X0164853Y0206453D01*
X0164843Y0206519D01*
X0164837Y0206585D01*
X0164835Y0206652D01*
X0207660Y0236567D02*
X0208327Y0235900D01*
X0210996Y0235900D01*
X0211663Y0236567D01*
X0211663Y0237902D01*
X0210996Y0238569D01*
X0210996Y0240504D02*
X0210329Y0240504D01*
X0209661Y0241171D01*
X0209661Y0242506D01*
X0210329Y0243173D01*
X0210996Y0243173D01*
X0211663Y0242506D01*
X0211663Y0241171D01*
X0210996Y0240504D01*
X0209661Y0241171D02*
X0208994Y0240504D01*
X0208327Y0240504D01*
X0207660Y0241171D01*
X0207660Y0242506D01*
X0208327Y0243173D01*
X0208994Y0243173D01*
X0209661Y0242506D01*
X0208327Y0238569D02*
X0207660Y0237902D01*
X0207660Y0236567D01*
X0219300Y0248600D02*
X0219300Y0252603D01*
X0221302Y0252603D01*
X0221969Y0251936D01*
X0221969Y0250602D01*
X0221302Y0249934D01*
X0219300Y0249934D01*
X0220634Y0249934D02*
X0221969Y0248600D01*
X0223904Y0249267D02*
X0223904Y0249934D01*
X0224571Y0250602D01*
X0225906Y0250602D01*
X0226573Y0249934D01*
X0226573Y0249267D01*
X0225906Y0248600D01*
X0224571Y0248600D01*
X0223904Y0249267D01*
X0224571Y0250602D02*
X0223904Y0251269D01*
X0223904Y0251936D01*
X0224571Y0252603D01*
X0225906Y0252603D01*
X0226573Y0251936D01*
X0226573Y0251269D01*
X0225906Y0250602D01*
X0228508Y0251936D02*
X0229175Y0252603D01*
X0230510Y0252603D01*
X0231177Y0251936D01*
X0231177Y0251269D01*
X0228508Y0248600D01*
X0231177Y0248600D01*
X0248997Y0246831D02*
X0250331Y0245496D01*
X0248997Y0246831D02*
X0253000Y0246831D01*
X0253000Y0248165D02*
X0253000Y0245496D01*
X0253000Y0243561D02*
X0248997Y0240892D01*
X0248997Y0238957D02*
X0248997Y0236288D01*
X0248997Y0237623D02*
X0253000Y0237623D01*
X0253000Y0240892D02*
X0248997Y0243561D01*
X0248042Y0229903D02*
X0248042Y0225900D01*
X0246708Y0225900D02*
X0249377Y0225900D01*
X0246708Y0228569D02*
X0248042Y0229903D01*
X0244773Y0229236D02*
X0244773Y0228569D01*
X0244106Y0227902D01*
X0242771Y0227902D01*
X0242104Y0228569D01*
X0242104Y0229236D01*
X0242771Y0229903D01*
X0244106Y0229903D01*
X0244773Y0229236D01*
X0244106Y0227902D02*
X0244773Y0227234D01*
X0244773Y0226567D01*
X0244106Y0225900D01*
X0242771Y0225900D01*
X0242104Y0226567D01*
X0242104Y0227234D01*
X0242771Y0227902D01*
X0240169Y0227902D02*
X0239502Y0227234D01*
X0237500Y0227234D01*
X0237500Y0225900D02*
X0237500Y0229903D01*
X0239502Y0229903D01*
X0240169Y0229236D01*
X0240169Y0227902D01*
X0238834Y0227234D02*
X0240169Y0225900D01*
X0267717Y0252685D02*
X0268384Y0252018D01*
X0271053Y0252018D01*
X0271720Y0252685D01*
X0271720Y0254020D01*
X0271053Y0254687D01*
X0271053Y0256622D02*
X0270386Y0256622D01*
X0269718Y0257289D01*
X0269718Y0258624D01*
X0270386Y0259291D01*
X0271053Y0259291D01*
X0271720Y0258624D01*
X0271720Y0257289D01*
X0271053Y0256622D01*
X0269718Y0257289D02*
X0269051Y0256622D01*
X0268384Y0256622D01*
X0267717Y0257289D01*
X0267717Y0258624D01*
X0268384Y0259291D01*
X0269051Y0259291D01*
X0269718Y0258624D01*
X0268384Y0261226D02*
X0267717Y0261893D01*
X0267717Y0263228D01*
X0268384Y0263895D01*
X0271053Y0261226D01*
X0271720Y0261893D01*
X0271720Y0263228D01*
X0271053Y0263895D01*
X0268384Y0263895D01*
X0268384Y0261226D02*
X0271053Y0261226D01*
X0268384Y0254687D02*
X0267717Y0254020D01*
X0267717Y0252685D01*
X0252377Y0269200D02*
X0249708Y0269200D01*
X0251042Y0269200D02*
X0251042Y0273203D01*
X0249708Y0271869D01*
X0247773Y0272536D02*
X0247773Y0271202D01*
X0247106Y0270534D01*
X0245104Y0270534D01*
X0245104Y0269200D02*
X0245104Y0273203D01*
X0247106Y0273203D01*
X0247773Y0272536D01*
X0243169Y0273203D02*
X0241834Y0273203D01*
X0242502Y0273203D02*
X0242502Y0269867D01*
X0241834Y0269200D01*
X0241167Y0269200D01*
X0240500Y0269867D01*
X0221265Y0272767D02*
X0221265Y0275436D01*
X0220598Y0276103D01*
X0219263Y0276103D01*
X0218596Y0275436D01*
X0218596Y0274769D01*
X0219263Y0274102D01*
X0221265Y0274102D01*
X0221265Y0272767D02*
X0220598Y0272100D01*
X0219263Y0272100D01*
X0218596Y0272767D01*
X0216661Y0274102D02*
X0216661Y0275436D01*
X0215994Y0276103D01*
X0213992Y0276103D01*
X0213992Y0272100D01*
X0213992Y0273434D02*
X0215994Y0273434D01*
X0216661Y0274102D01*
X0212057Y0276103D02*
X0210723Y0276103D01*
X0211390Y0276103D02*
X0211390Y0272767D01*
X0210723Y0272100D01*
X0210055Y0272100D01*
X0209388Y0272767D01*
X0164200Y0292167D02*
X0164200Y0293502D01*
X0163533Y0294169D01*
X0164200Y0296104D02*
X0161531Y0298773D01*
X0160864Y0298773D01*
X0160197Y0298106D01*
X0160197Y0296771D01*
X0160864Y0296104D01*
X0160864Y0294169D02*
X0160197Y0293502D01*
X0160197Y0292167D01*
X0160864Y0291500D01*
X0163533Y0291500D01*
X0164200Y0292167D01*
X0164200Y0296104D02*
X0164200Y0298773D01*
X0164200Y0300708D02*
X0164200Y0303377D01*
X0164200Y0302042D02*
X0160197Y0302042D01*
X0161531Y0300708D01*
X0143600Y0298677D02*
X0143600Y0296008D01*
X0140931Y0298677D01*
X0140264Y0298677D01*
X0139597Y0298010D01*
X0139597Y0296675D01*
X0140264Y0296008D01*
X0140264Y0294073D02*
X0139597Y0293406D01*
X0139597Y0292071D01*
X0140264Y0291404D01*
X0140264Y0289469D02*
X0139597Y0288802D01*
X0139597Y0287467D01*
X0140264Y0286800D01*
X0142933Y0286800D01*
X0143600Y0287467D01*
X0143600Y0288802D01*
X0142933Y0289469D01*
X0143600Y0291404D02*
X0140931Y0294073D01*
X0140264Y0294073D01*
X0143600Y0294073D02*
X0143600Y0291404D01*
X0135277Y0293617D02*
X0134610Y0292950D01*
X0133275Y0292950D01*
X0132608Y0293617D01*
X0135277Y0296286D01*
X0135277Y0293617D01*
X0132608Y0293617D02*
X0132608Y0296286D01*
X0133275Y0296953D01*
X0134610Y0296953D01*
X0135277Y0296286D01*
X0130673Y0294952D02*
X0128004Y0294952D01*
X0130006Y0296953D01*
X0130006Y0292950D01*
X0126069Y0292950D02*
X0124734Y0294284D01*
X0125402Y0294284D02*
X0123400Y0294284D01*
X0123400Y0292950D02*
X0123400Y0296953D01*
X0125402Y0296953D01*
X0126069Y0296286D01*
X0126069Y0294952D01*
X0125402Y0294284D01*
X0119068Y0291103D02*
X0117733Y0289769D01*
X0119068Y0291103D02*
X0119068Y0287100D01*
X0120402Y0287100D02*
X0117733Y0287100D01*
X0115131Y0287767D02*
X0115131Y0291103D01*
X0114464Y0291103D02*
X0115798Y0291103D01*
X0115131Y0287767D02*
X0114464Y0287100D01*
X0113796Y0287100D01*
X0113129Y0287767D01*
X0111194Y0287767D02*
X0110527Y0287100D01*
X0109192Y0287100D01*
X0108525Y0287767D01*
X0109192Y0289102D02*
X0110527Y0289102D01*
X0111194Y0288434D01*
X0111194Y0287767D01*
X0109192Y0289102D02*
X0108525Y0289769D01*
X0108525Y0290436D01*
X0109192Y0291103D01*
X0110527Y0291103D01*
X0111194Y0290436D01*
X0109990Y0274453D02*
X0110657Y0273786D01*
X0110657Y0272452D01*
X0109990Y0271784D01*
X0107988Y0271784D01*
X0107988Y0270450D02*
X0107988Y0274453D01*
X0109990Y0274453D01*
X0109323Y0271784D02*
X0110657Y0270450D01*
X0112592Y0272452D02*
X0115261Y0272452D01*
X0117196Y0273119D02*
X0118531Y0274453D01*
X0118531Y0270450D01*
X0119865Y0270450D02*
X0117196Y0270450D01*
X0114594Y0270450D02*
X0114594Y0274453D01*
X0112592Y0272452D01*
X0144797Y0274263D02*
X0144797Y0275598D01*
X0145464Y0276265D01*
X0146131Y0276265D01*
X0146798Y0275598D01*
X0147466Y0276265D01*
X0148133Y0276265D01*
X0148800Y0275598D01*
X0148800Y0274263D01*
X0148133Y0273596D01*
X0146798Y0274931D02*
X0146798Y0275598D01*
X0145464Y0273596D02*
X0144797Y0274263D01*
X0148800Y0271661D02*
X0148800Y0268992D01*
X0144797Y0268992D01*
X0291100Y0245603D02*
X0291100Y0242267D01*
X0291767Y0241600D01*
X0293102Y0241600D01*
X0293769Y0242267D01*
X0293769Y0245603D01*
X0295704Y0244269D02*
X0297038Y0245603D01*
X0297038Y0241600D01*
X0295704Y0241600D02*
X0298373Y0241600D01*
X0300308Y0241600D02*
X0302977Y0244269D01*
X0302977Y0244936D01*
X0302310Y0245603D01*
X0300975Y0245603D01*
X0300308Y0244936D01*
X0300308Y0241600D02*
X0302977Y0241600D01*
X0309600Y0021903D02*
X0311602Y0021903D01*
X0312269Y0021236D01*
X0312269Y0019902D01*
X0311602Y0019234D01*
X0309600Y0019234D01*
X0309600Y0017900D02*
X0309600Y0021903D01*
X0310934Y0019234D02*
X0312269Y0017900D01*
X0314204Y0018567D02*
X0314871Y0017900D01*
X0315538Y0017900D01*
X0316206Y0018567D01*
X0316206Y0021903D01*
X0316873Y0021903D02*
X0315538Y0021903D01*
D11*
X0038700Y0014500D02*
X0038700Y0304500D01*
X0318700Y0304500D01*
X0318700Y0014500D01*
X0038700Y0014500D01*
X0093070Y0014500D02*
X0264330Y0014500D01*
X0318700Y0084500D02*
X0038700Y0084500D01*
X0051940Y0103000D02*
X0051942Y0103058D01*
X0051948Y0103116D01*
X0051958Y0103173D01*
X0051971Y0103230D01*
X0051989Y0103285D01*
X0052010Y0103339D01*
X0052034Y0103392D01*
X0052063Y0103443D01*
X0052094Y0103491D01*
X0052129Y0103538D01*
X0052167Y0103582D01*
X0052207Y0103623D01*
X0052251Y0103662D01*
X0052297Y0103697D01*
X0052345Y0103730D01*
X0052395Y0103759D01*
X0052448Y0103784D01*
X0052501Y0103806D01*
X0052556Y0103825D01*
X0052613Y0103839D01*
X0052670Y0103850D01*
X0052727Y0103857D01*
X0052785Y0103860D01*
X0052844Y0103859D01*
X0052901Y0103854D01*
X0052959Y0103845D01*
X0053016Y0103833D01*
X0053071Y0103816D01*
X0053126Y0103796D01*
X0053179Y0103772D01*
X0053230Y0103745D01*
X0053279Y0103714D01*
X0053326Y0103680D01*
X0053371Y0103643D01*
X0053413Y0103603D01*
X0053453Y0103560D01*
X0053489Y0103515D01*
X0053522Y0103467D01*
X0053552Y0103417D01*
X0053578Y0103366D01*
X0053601Y0103312D01*
X0053621Y0103257D01*
X0053636Y0103201D01*
X0053648Y0103145D01*
X0053656Y0103087D01*
X0053660Y0103029D01*
X0053660Y0102971D01*
X0053656Y0102913D01*
X0053648Y0102855D01*
X0053636Y0102799D01*
X0053621Y0102743D01*
X0053601Y0102688D01*
X0053578Y0102634D01*
X0053552Y0102583D01*
X0053522Y0102533D01*
X0053489Y0102485D01*
X0053453Y0102440D01*
X0053413Y0102397D01*
X0053371Y0102357D01*
X0053326Y0102320D01*
X0053279Y0102286D01*
X0053230Y0102255D01*
X0053179Y0102228D01*
X0053126Y0102204D01*
X0053071Y0102184D01*
X0053016Y0102167D01*
X0052959Y0102155D01*
X0052901Y0102146D01*
X0052844Y0102141D01*
X0052785Y0102140D01*
X0052727Y0102143D01*
X0052670Y0102150D01*
X0052613Y0102161D01*
X0052556Y0102175D01*
X0052501Y0102194D01*
X0052448Y0102216D01*
X0052395Y0102241D01*
X0052345Y0102270D01*
X0052297Y0102303D01*
X0052251Y0102338D01*
X0052207Y0102377D01*
X0052167Y0102418D01*
X0052129Y0102462D01*
X0052094Y0102509D01*
X0052063Y0102557D01*
X0052034Y0102608D01*
X0052010Y0102661D01*
X0051989Y0102715D01*
X0051971Y0102770D01*
X0051958Y0102827D01*
X0051948Y0102884D01*
X0051942Y0102942D01*
X0051940Y0103000D01*
X0052700Y0103000D02*
X0052702Y0103020D01*
X0052708Y0103038D01*
X0052717Y0103056D01*
X0052729Y0103071D01*
X0052744Y0103083D01*
X0052762Y0103092D01*
X0052780Y0103098D01*
X0052800Y0103100D01*
X0052820Y0103098D01*
X0052838Y0103092D01*
X0052856Y0103083D01*
X0052871Y0103071D01*
X0052883Y0103056D01*
X0052892Y0103038D01*
X0052898Y0103020D01*
X0052900Y0103000D01*
X0052898Y0102980D01*
X0052892Y0102962D01*
X0052883Y0102944D01*
X0052871Y0102929D01*
X0052856Y0102917D01*
X0052838Y0102908D01*
X0052820Y0102902D01*
X0052800Y0102900D01*
X0052780Y0102902D01*
X0052762Y0102908D01*
X0052744Y0102917D01*
X0052729Y0102929D01*
X0052717Y0102944D01*
X0052708Y0102962D01*
X0052702Y0102980D01*
X0052700Y0103000D01*
X0052300Y0103000D02*
X0052302Y0103044D01*
X0052308Y0103088D01*
X0052318Y0103131D01*
X0052331Y0103173D01*
X0052348Y0103214D01*
X0052369Y0103253D01*
X0052393Y0103290D01*
X0052420Y0103325D01*
X0052450Y0103357D01*
X0052483Y0103387D01*
X0052519Y0103413D01*
X0052556Y0103437D01*
X0052596Y0103456D01*
X0052637Y0103473D01*
X0052680Y0103485D01*
X0052723Y0103494D01*
X0052767Y0103499D01*
X0052811Y0103500D01*
X0052855Y0103497D01*
X0052899Y0103490D01*
X0052942Y0103479D01*
X0052984Y0103465D01*
X0053024Y0103447D01*
X0053063Y0103425D01*
X0053099Y0103401D01*
X0053133Y0103373D01*
X0053165Y0103342D01*
X0053194Y0103308D01*
X0053220Y0103272D01*
X0053242Y0103234D01*
X0053261Y0103194D01*
X0053276Y0103152D01*
X0053288Y0103110D01*
X0053296Y0103066D01*
X0053300Y0103022D01*
X0053300Y0102978D01*
X0053296Y0102934D01*
X0053288Y0102890D01*
X0053276Y0102848D01*
X0053261Y0102806D01*
X0053242Y0102766D01*
X0053220Y0102728D01*
X0053194Y0102692D01*
X0053165Y0102658D01*
X0053133Y0102627D01*
X0053099Y0102599D01*
X0053063Y0102575D01*
X0053024Y0102553D01*
X0052984Y0102535D01*
X0052942Y0102521D01*
X0052899Y0102510D01*
X0052855Y0102503D01*
X0052811Y0102500D01*
X0052767Y0102501D01*
X0052723Y0102506D01*
X0052680Y0102515D01*
X0052637Y0102527D01*
X0052596Y0102544D01*
X0052556Y0102563D01*
X0052519Y0102587D01*
X0052483Y0102613D01*
X0052450Y0102643D01*
X0052420Y0102675D01*
X0052393Y0102710D01*
X0052369Y0102747D01*
X0052348Y0102786D01*
X0052331Y0102827D01*
X0052318Y0102869D01*
X0052308Y0102912D01*
X0052302Y0102956D01*
X0052300Y0103000D01*
X0060369Y0109319D02*
X0060371Y0109358D01*
X0060377Y0109397D01*
X0060387Y0109435D01*
X0060400Y0109472D01*
X0060417Y0109507D01*
X0060437Y0109541D01*
X0060461Y0109572D01*
X0060488Y0109601D01*
X0060517Y0109627D01*
X0060549Y0109650D01*
X0060583Y0109670D01*
X0060619Y0109686D01*
X0060656Y0109698D01*
X0060695Y0109707D01*
X0060734Y0109712D01*
X0060773Y0109713D01*
X0060812Y0109710D01*
X0060851Y0109703D01*
X0060888Y0109692D01*
X0060925Y0109678D01*
X0060960Y0109660D01*
X0060993Y0109639D01*
X0061024Y0109614D01*
X0061052Y0109587D01*
X0061077Y0109557D01*
X0061099Y0109524D01*
X0061118Y0109490D01*
X0061133Y0109454D01*
X0061145Y0109416D01*
X0061153Y0109378D01*
X0061157Y0109339D01*
X0061157Y0109299D01*
X0061153Y0109260D01*
X0061145Y0109222D01*
X0061133Y0109184D01*
X0061118Y0109148D01*
X0061099Y0109114D01*
X0061077Y0109081D01*
X0061052Y0109051D01*
X0061024Y0109024D01*
X0060993Y0108999D01*
X0060960Y0108978D01*
X0060925Y0108960D01*
X0060888Y0108946D01*
X0060851Y0108935D01*
X0060812Y0108928D01*
X0060773Y0108925D01*
X0060734Y0108926D01*
X0060695Y0108931D01*
X0060656Y0108940D01*
X0060619Y0108952D01*
X0060583Y0108968D01*
X0060549Y0108988D01*
X0060517Y0109011D01*
X0060488Y0109037D01*
X0060461Y0109066D01*
X0060437Y0109097D01*
X0060417Y0109131D01*
X0060400Y0109166D01*
X0060387Y0109203D01*
X0060377Y0109241D01*
X0060371Y0109280D01*
X0060369Y0109319D01*
X0052440Y0116500D02*
X0052442Y0116558D01*
X0052448Y0116616D01*
X0052458Y0116673D01*
X0052471Y0116730D01*
X0052489Y0116785D01*
X0052510Y0116839D01*
X0052534Y0116892D01*
X0052563Y0116943D01*
X0052594Y0116991D01*
X0052629Y0117038D01*
X0052667Y0117082D01*
X0052707Y0117123D01*
X0052751Y0117162D01*
X0052797Y0117197D01*
X0052845Y0117230D01*
X0052895Y0117259D01*
X0052948Y0117284D01*
X0053001Y0117306D01*
X0053056Y0117325D01*
X0053113Y0117339D01*
X0053170Y0117350D01*
X0053227Y0117357D01*
X0053285Y0117360D01*
X0053344Y0117359D01*
X0053401Y0117354D01*
X0053459Y0117345D01*
X0053516Y0117333D01*
X0053571Y0117316D01*
X0053626Y0117296D01*
X0053679Y0117272D01*
X0053730Y0117245D01*
X0053779Y0117214D01*
X0053826Y0117180D01*
X0053871Y0117143D01*
X0053913Y0117103D01*
X0053953Y0117060D01*
X0053989Y0117015D01*
X0054022Y0116967D01*
X0054052Y0116917D01*
X0054078Y0116866D01*
X0054101Y0116812D01*
X0054121Y0116757D01*
X0054136Y0116701D01*
X0054148Y0116645D01*
X0054156Y0116587D01*
X0054160Y0116529D01*
X0054160Y0116471D01*
X0054156Y0116413D01*
X0054148Y0116355D01*
X0054136Y0116299D01*
X0054121Y0116243D01*
X0054101Y0116188D01*
X0054078Y0116134D01*
X0054052Y0116083D01*
X0054022Y0116033D01*
X0053989Y0115985D01*
X0053953Y0115940D01*
X0053913Y0115897D01*
X0053871Y0115857D01*
X0053826Y0115820D01*
X0053779Y0115786D01*
X0053730Y0115755D01*
X0053679Y0115728D01*
X0053626Y0115704D01*
X0053571Y0115684D01*
X0053516Y0115667D01*
X0053459Y0115655D01*
X0053401Y0115646D01*
X0053344Y0115641D01*
X0053285Y0115640D01*
X0053227Y0115643D01*
X0053170Y0115650D01*
X0053113Y0115661D01*
X0053056Y0115675D01*
X0053001Y0115694D01*
X0052948Y0115716D01*
X0052895Y0115741D01*
X0052845Y0115770D01*
X0052797Y0115803D01*
X0052751Y0115838D01*
X0052707Y0115877D01*
X0052667Y0115918D01*
X0052629Y0115962D01*
X0052594Y0116009D01*
X0052563Y0116057D01*
X0052534Y0116108D01*
X0052510Y0116161D01*
X0052489Y0116215D01*
X0052471Y0116270D01*
X0052458Y0116327D01*
X0052448Y0116384D01*
X0052442Y0116442D01*
X0052440Y0116500D01*
X0053200Y0116500D02*
X0053202Y0116520D01*
X0053208Y0116538D01*
X0053217Y0116556D01*
X0053229Y0116571D01*
X0053244Y0116583D01*
X0053262Y0116592D01*
X0053280Y0116598D01*
X0053300Y0116600D01*
X0053320Y0116598D01*
X0053338Y0116592D01*
X0053356Y0116583D01*
X0053371Y0116571D01*
X0053383Y0116556D01*
X0053392Y0116538D01*
X0053398Y0116520D01*
X0053400Y0116500D01*
X0053398Y0116480D01*
X0053392Y0116462D01*
X0053383Y0116444D01*
X0053371Y0116429D01*
X0053356Y0116417D01*
X0053338Y0116408D01*
X0053320Y0116402D01*
X0053300Y0116400D01*
X0053280Y0116402D01*
X0053262Y0116408D01*
X0053244Y0116417D01*
X0053229Y0116429D01*
X0053217Y0116444D01*
X0053208Y0116462D01*
X0053202Y0116480D01*
X0053200Y0116500D01*
X0052800Y0116500D02*
X0052802Y0116544D01*
X0052808Y0116588D01*
X0052818Y0116631D01*
X0052831Y0116673D01*
X0052848Y0116714D01*
X0052869Y0116753D01*
X0052893Y0116790D01*
X0052920Y0116825D01*
X0052950Y0116857D01*
X0052983Y0116887D01*
X0053019Y0116913D01*
X0053056Y0116937D01*
X0053096Y0116956D01*
X0053137Y0116973D01*
X0053180Y0116985D01*
X0053223Y0116994D01*
X0053267Y0116999D01*
X0053311Y0117000D01*
X0053355Y0116997D01*
X0053399Y0116990D01*
X0053442Y0116979D01*
X0053484Y0116965D01*
X0053524Y0116947D01*
X0053563Y0116925D01*
X0053599Y0116901D01*
X0053633Y0116873D01*
X0053665Y0116842D01*
X0053694Y0116808D01*
X0053720Y0116772D01*
X0053742Y0116734D01*
X0053761Y0116694D01*
X0053776Y0116652D01*
X0053788Y0116610D01*
X0053796Y0116566D01*
X0053800Y0116522D01*
X0053800Y0116478D01*
X0053796Y0116434D01*
X0053788Y0116390D01*
X0053776Y0116348D01*
X0053761Y0116306D01*
X0053742Y0116266D01*
X0053720Y0116228D01*
X0053694Y0116192D01*
X0053665Y0116158D01*
X0053633Y0116127D01*
X0053599Y0116099D01*
X0053563Y0116075D01*
X0053524Y0116053D01*
X0053484Y0116035D01*
X0053442Y0116021D01*
X0053399Y0116010D01*
X0053355Y0116003D01*
X0053311Y0116000D01*
X0053267Y0116001D01*
X0053223Y0116006D01*
X0053180Y0116015D01*
X0053137Y0116027D01*
X0053096Y0116044D01*
X0053056Y0116063D01*
X0053019Y0116087D01*
X0052983Y0116113D01*
X0052950Y0116143D01*
X0052920Y0116175D01*
X0052893Y0116210D01*
X0052869Y0116247D01*
X0052848Y0116286D01*
X0052831Y0116327D01*
X0052818Y0116369D01*
X0052808Y0116412D01*
X0052802Y0116456D01*
X0052800Y0116500D01*
X0042640Y0120000D02*
X0042642Y0120058D01*
X0042648Y0120116D01*
X0042658Y0120173D01*
X0042671Y0120230D01*
X0042689Y0120285D01*
X0042710Y0120339D01*
X0042734Y0120392D01*
X0042763Y0120443D01*
X0042794Y0120491D01*
X0042829Y0120538D01*
X0042867Y0120582D01*
X0042907Y0120623D01*
X0042951Y0120662D01*
X0042997Y0120697D01*
X0043045Y0120730D01*
X0043095Y0120759D01*
X0043148Y0120784D01*
X0043201Y0120806D01*
X0043256Y0120825D01*
X0043313Y0120839D01*
X0043370Y0120850D01*
X0043427Y0120857D01*
X0043485Y0120860D01*
X0043544Y0120859D01*
X0043601Y0120854D01*
X0043659Y0120845D01*
X0043716Y0120833D01*
X0043771Y0120816D01*
X0043826Y0120796D01*
X0043879Y0120772D01*
X0043930Y0120745D01*
X0043979Y0120714D01*
X0044026Y0120680D01*
X0044071Y0120643D01*
X0044113Y0120603D01*
X0044153Y0120560D01*
X0044189Y0120515D01*
X0044222Y0120467D01*
X0044252Y0120417D01*
X0044278Y0120366D01*
X0044301Y0120312D01*
X0044321Y0120257D01*
X0044336Y0120201D01*
X0044348Y0120145D01*
X0044356Y0120087D01*
X0044360Y0120029D01*
X0044360Y0119971D01*
X0044356Y0119913D01*
X0044348Y0119855D01*
X0044336Y0119799D01*
X0044321Y0119743D01*
X0044301Y0119688D01*
X0044278Y0119634D01*
X0044252Y0119583D01*
X0044222Y0119533D01*
X0044189Y0119485D01*
X0044153Y0119440D01*
X0044113Y0119397D01*
X0044071Y0119357D01*
X0044026Y0119320D01*
X0043979Y0119286D01*
X0043930Y0119255D01*
X0043879Y0119228D01*
X0043826Y0119204D01*
X0043771Y0119184D01*
X0043716Y0119167D01*
X0043659Y0119155D01*
X0043601Y0119146D01*
X0043544Y0119141D01*
X0043485Y0119140D01*
X0043427Y0119143D01*
X0043370Y0119150D01*
X0043313Y0119161D01*
X0043256Y0119175D01*
X0043201Y0119194D01*
X0043148Y0119216D01*
X0043095Y0119241D01*
X0043045Y0119270D01*
X0042997Y0119303D01*
X0042951Y0119338D01*
X0042907Y0119377D01*
X0042867Y0119418D01*
X0042829Y0119462D01*
X0042794Y0119509D01*
X0042763Y0119557D01*
X0042734Y0119608D01*
X0042710Y0119661D01*
X0042689Y0119715D01*
X0042671Y0119770D01*
X0042658Y0119827D01*
X0042648Y0119884D01*
X0042642Y0119942D01*
X0042640Y0120000D01*
X0043400Y0120000D02*
X0043402Y0120020D01*
X0043408Y0120038D01*
X0043417Y0120056D01*
X0043429Y0120071D01*
X0043444Y0120083D01*
X0043462Y0120092D01*
X0043480Y0120098D01*
X0043500Y0120100D01*
X0043520Y0120098D01*
X0043538Y0120092D01*
X0043556Y0120083D01*
X0043571Y0120071D01*
X0043583Y0120056D01*
X0043592Y0120038D01*
X0043598Y0120020D01*
X0043600Y0120000D01*
X0043598Y0119980D01*
X0043592Y0119962D01*
X0043583Y0119944D01*
X0043571Y0119929D01*
X0043556Y0119917D01*
X0043538Y0119908D01*
X0043520Y0119902D01*
X0043500Y0119900D01*
X0043480Y0119902D01*
X0043462Y0119908D01*
X0043444Y0119917D01*
X0043429Y0119929D01*
X0043417Y0119944D01*
X0043408Y0119962D01*
X0043402Y0119980D01*
X0043400Y0120000D01*
X0043000Y0120000D02*
X0043002Y0120044D01*
X0043008Y0120088D01*
X0043018Y0120131D01*
X0043031Y0120173D01*
X0043048Y0120214D01*
X0043069Y0120253D01*
X0043093Y0120290D01*
X0043120Y0120325D01*
X0043150Y0120357D01*
X0043183Y0120387D01*
X0043219Y0120413D01*
X0043256Y0120437D01*
X0043296Y0120456D01*
X0043337Y0120473D01*
X0043380Y0120485D01*
X0043423Y0120494D01*
X0043467Y0120499D01*
X0043511Y0120500D01*
X0043555Y0120497D01*
X0043599Y0120490D01*
X0043642Y0120479D01*
X0043684Y0120465D01*
X0043724Y0120447D01*
X0043763Y0120425D01*
X0043799Y0120401D01*
X0043833Y0120373D01*
X0043865Y0120342D01*
X0043894Y0120308D01*
X0043920Y0120272D01*
X0043942Y0120234D01*
X0043961Y0120194D01*
X0043976Y0120152D01*
X0043988Y0120110D01*
X0043996Y0120066D01*
X0044000Y0120022D01*
X0044000Y0119978D01*
X0043996Y0119934D01*
X0043988Y0119890D01*
X0043976Y0119848D01*
X0043961Y0119806D01*
X0043942Y0119766D01*
X0043920Y0119728D01*
X0043894Y0119692D01*
X0043865Y0119658D01*
X0043833Y0119627D01*
X0043799Y0119599D01*
X0043763Y0119575D01*
X0043724Y0119553D01*
X0043684Y0119535D01*
X0043642Y0119521D01*
X0043599Y0119510D01*
X0043555Y0119503D01*
X0043511Y0119500D01*
X0043467Y0119501D01*
X0043423Y0119506D01*
X0043380Y0119515D01*
X0043337Y0119527D01*
X0043296Y0119544D01*
X0043256Y0119563D01*
X0043219Y0119587D01*
X0043183Y0119613D01*
X0043150Y0119643D01*
X0043120Y0119675D01*
X0043093Y0119710D01*
X0043069Y0119747D01*
X0043048Y0119786D01*
X0043031Y0119827D01*
X0043018Y0119869D01*
X0043008Y0119912D01*
X0043002Y0119956D01*
X0043000Y0120000D01*
X0099440Y0100000D02*
X0099442Y0100058D01*
X0099448Y0100116D01*
X0099458Y0100173D01*
X0099471Y0100230D01*
X0099489Y0100285D01*
X0099510Y0100339D01*
X0099534Y0100392D01*
X0099563Y0100443D01*
X0099594Y0100491D01*
X0099629Y0100538D01*
X0099667Y0100582D01*
X0099707Y0100623D01*
X0099751Y0100662D01*
X0099797Y0100697D01*
X0099845Y0100730D01*
X0099895Y0100759D01*
X0099948Y0100784D01*
X0100001Y0100806D01*
X0100056Y0100825D01*
X0100113Y0100839D01*
X0100170Y0100850D01*
X0100227Y0100857D01*
X0100285Y0100860D01*
X0100344Y0100859D01*
X0100401Y0100854D01*
X0100459Y0100845D01*
X0100516Y0100833D01*
X0100571Y0100816D01*
X0100626Y0100796D01*
X0100679Y0100772D01*
X0100730Y0100745D01*
X0100779Y0100714D01*
X0100826Y0100680D01*
X0100871Y0100643D01*
X0100913Y0100603D01*
X0100953Y0100560D01*
X0100989Y0100515D01*
X0101022Y0100467D01*
X0101052Y0100417D01*
X0101078Y0100366D01*
X0101101Y0100312D01*
X0101121Y0100257D01*
X0101136Y0100201D01*
X0101148Y0100145D01*
X0101156Y0100087D01*
X0101160Y0100029D01*
X0101160Y0099971D01*
X0101156Y0099913D01*
X0101148Y0099855D01*
X0101136Y0099799D01*
X0101121Y0099743D01*
X0101101Y0099688D01*
X0101078Y0099634D01*
X0101052Y0099583D01*
X0101022Y0099533D01*
X0100989Y0099485D01*
X0100953Y0099440D01*
X0100913Y0099397D01*
X0100871Y0099357D01*
X0100826Y0099320D01*
X0100779Y0099286D01*
X0100730Y0099255D01*
X0100679Y0099228D01*
X0100626Y0099204D01*
X0100571Y0099184D01*
X0100516Y0099167D01*
X0100459Y0099155D01*
X0100401Y0099146D01*
X0100344Y0099141D01*
X0100285Y0099140D01*
X0100227Y0099143D01*
X0100170Y0099150D01*
X0100113Y0099161D01*
X0100056Y0099175D01*
X0100001Y0099194D01*
X0099948Y0099216D01*
X0099895Y0099241D01*
X0099845Y0099270D01*
X0099797Y0099303D01*
X0099751Y0099338D01*
X0099707Y0099377D01*
X0099667Y0099418D01*
X0099629Y0099462D01*
X0099594Y0099509D01*
X0099563Y0099557D01*
X0099534Y0099608D01*
X0099510Y0099661D01*
X0099489Y0099715D01*
X0099471Y0099770D01*
X0099458Y0099827D01*
X0099448Y0099884D01*
X0099442Y0099942D01*
X0099440Y0100000D01*
X0100200Y0100000D02*
X0100202Y0100020D01*
X0100208Y0100038D01*
X0100217Y0100056D01*
X0100229Y0100071D01*
X0100244Y0100083D01*
X0100262Y0100092D01*
X0100280Y0100098D01*
X0100300Y0100100D01*
X0100320Y0100098D01*
X0100338Y0100092D01*
X0100356Y0100083D01*
X0100371Y0100071D01*
X0100383Y0100056D01*
X0100392Y0100038D01*
X0100398Y0100020D01*
X0100400Y0100000D01*
X0100398Y0099980D01*
X0100392Y0099962D01*
X0100383Y0099944D01*
X0100371Y0099929D01*
X0100356Y0099917D01*
X0100338Y0099908D01*
X0100320Y0099902D01*
X0100300Y0099900D01*
X0100280Y0099902D01*
X0100262Y0099908D01*
X0100244Y0099917D01*
X0100229Y0099929D01*
X0100217Y0099944D01*
X0100208Y0099962D01*
X0100202Y0099980D01*
X0100200Y0100000D01*
X0099800Y0100000D02*
X0099802Y0100044D01*
X0099808Y0100088D01*
X0099818Y0100131D01*
X0099831Y0100173D01*
X0099848Y0100214D01*
X0099869Y0100253D01*
X0099893Y0100290D01*
X0099920Y0100325D01*
X0099950Y0100357D01*
X0099983Y0100387D01*
X0100019Y0100413D01*
X0100056Y0100437D01*
X0100096Y0100456D01*
X0100137Y0100473D01*
X0100180Y0100485D01*
X0100223Y0100494D01*
X0100267Y0100499D01*
X0100311Y0100500D01*
X0100355Y0100497D01*
X0100399Y0100490D01*
X0100442Y0100479D01*
X0100484Y0100465D01*
X0100524Y0100447D01*
X0100563Y0100425D01*
X0100599Y0100401D01*
X0100633Y0100373D01*
X0100665Y0100342D01*
X0100694Y0100308D01*
X0100720Y0100272D01*
X0100742Y0100234D01*
X0100761Y0100194D01*
X0100776Y0100152D01*
X0100788Y0100110D01*
X0100796Y0100066D01*
X0100800Y0100022D01*
X0100800Y0099978D01*
X0100796Y0099934D01*
X0100788Y0099890D01*
X0100776Y0099848D01*
X0100761Y0099806D01*
X0100742Y0099766D01*
X0100720Y0099728D01*
X0100694Y0099692D01*
X0100665Y0099658D01*
X0100633Y0099627D01*
X0100599Y0099599D01*
X0100563Y0099575D01*
X0100524Y0099553D01*
X0100484Y0099535D01*
X0100442Y0099521D01*
X0100399Y0099510D01*
X0100355Y0099503D01*
X0100311Y0099500D01*
X0100267Y0099501D01*
X0100223Y0099506D01*
X0100180Y0099515D01*
X0100137Y0099527D01*
X0100096Y0099544D01*
X0100056Y0099563D01*
X0100019Y0099587D01*
X0099983Y0099613D01*
X0099950Y0099643D01*
X0099920Y0099675D01*
X0099893Y0099710D01*
X0099869Y0099747D01*
X0099848Y0099786D01*
X0099831Y0099827D01*
X0099818Y0099869D01*
X0099808Y0099912D01*
X0099802Y0099956D01*
X0099800Y0100000D01*
X0113540Y0097400D02*
X0113542Y0097458D01*
X0113548Y0097516D01*
X0113558Y0097573D01*
X0113571Y0097630D01*
X0113589Y0097685D01*
X0113610Y0097739D01*
X0113634Y0097792D01*
X0113663Y0097843D01*
X0113694Y0097891D01*
X0113729Y0097938D01*
X0113767Y0097982D01*
X0113807Y0098023D01*
X0113851Y0098062D01*
X0113897Y0098097D01*
X0113945Y0098130D01*
X0113995Y0098159D01*
X0114048Y0098184D01*
X0114101Y0098206D01*
X0114156Y0098225D01*
X0114213Y0098239D01*
X0114270Y0098250D01*
X0114327Y0098257D01*
X0114385Y0098260D01*
X0114444Y0098259D01*
X0114501Y0098254D01*
X0114559Y0098245D01*
X0114616Y0098233D01*
X0114671Y0098216D01*
X0114726Y0098196D01*
X0114779Y0098172D01*
X0114830Y0098145D01*
X0114879Y0098114D01*
X0114926Y0098080D01*
X0114971Y0098043D01*
X0115013Y0098003D01*
X0115053Y0097960D01*
X0115089Y0097915D01*
X0115122Y0097867D01*
X0115152Y0097817D01*
X0115178Y0097766D01*
X0115201Y0097712D01*
X0115221Y0097657D01*
X0115236Y0097601D01*
X0115248Y0097545D01*
X0115256Y0097487D01*
X0115260Y0097429D01*
X0115260Y0097371D01*
X0115256Y0097313D01*
X0115248Y0097255D01*
X0115236Y0097199D01*
X0115221Y0097143D01*
X0115201Y0097088D01*
X0115178Y0097034D01*
X0115152Y0096983D01*
X0115122Y0096933D01*
X0115089Y0096885D01*
X0115053Y0096840D01*
X0115013Y0096797D01*
X0114971Y0096757D01*
X0114926Y0096720D01*
X0114879Y0096686D01*
X0114830Y0096655D01*
X0114779Y0096628D01*
X0114726Y0096604D01*
X0114671Y0096584D01*
X0114616Y0096567D01*
X0114559Y0096555D01*
X0114501Y0096546D01*
X0114444Y0096541D01*
X0114385Y0096540D01*
X0114327Y0096543D01*
X0114270Y0096550D01*
X0114213Y0096561D01*
X0114156Y0096575D01*
X0114101Y0096594D01*
X0114048Y0096616D01*
X0113995Y0096641D01*
X0113945Y0096670D01*
X0113897Y0096703D01*
X0113851Y0096738D01*
X0113807Y0096777D01*
X0113767Y0096818D01*
X0113729Y0096862D01*
X0113694Y0096909D01*
X0113663Y0096957D01*
X0113634Y0097008D01*
X0113610Y0097061D01*
X0113589Y0097115D01*
X0113571Y0097170D01*
X0113558Y0097227D01*
X0113548Y0097284D01*
X0113542Y0097342D01*
X0113540Y0097400D01*
X0114300Y0097400D02*
X0114302Y0097420D01*
X0114308Y0097438D01*
X0114317Y0097456D01*
X0114329Y0097471D01*
X0114344Y0097483D01*
X0114362Y0097492D01*
X0114380Y0097498D01*
X0114400Y0097500D01*
X0114420Y0097498D01*
X0114438Y0097492D01*
X0114456Y0097483D01*
X0114471Y0097471D01*
X0114483Y0097456D01*
X0114492Y0097438D01*
X0114498Y0097420D01*
X0114500Y0097400D01*
X0114498Y0097380D01*
X0114492Y0097362D01*
X0114483Y0097344D01*
X0114471Y0097329D01*
X0114456Y0097317D01*
X0114438Y0097308D01*
X0114420Y0097302D01*
X0114400Y0097300D01*
X0114380Y0097302D01*
X0114362Y0097308D01*
X0114344Y0097317D01*
X0114329Y0097329D01*
X0114317Y0097344D01*
X0114308Y0097362D01*
X0114302Y0097380D01*
X0114300Y0097400D01*
X0113900Y0097400D02*
X0113902Y0097444D01*
X0113908Y0097488D01*
X0113918Y0097531D01*
X0113931Y0097573D01*
X0113948Y0097614D01*
X0113969Y0097653D01*
X0113993Y0097690D01*
X0114020Y0097725D01*
X0114050Y0097757D01*
X0114083Y0097787D01*
X0114119Y0097813D01*
X0114156Y0097837D01*
X0114196Y0097856D01*
X0114237Y0097873D01*
X0114280Y0097885D01*
X0114323Y0097894D01*
X0114367Y0097899D01*
X0114411Y0097900D01*
X0114455Y0097897D01*
X0114499Y0097890D01*
X0114542Y0097879D01*
X0114584Y0097865D01*
X0114624Y0097847D01*
X0114663Y0097825D01*
X0114699Y0097801D01*
X0114733Y0097773D01*
X0114765Y0097742D01*
X0114794Y0097708D01*
X0114820Y0097672D01*
X0114842Y0097634D01*
X0114861Y0097594D01*
X0114876Y0097552D01*
X0114888Y0097510D01*
X0114896Y0097466D01*
X0114900Y0097422D01*
X0114900Y0097378D01*
X0114896Y0097334D01*
X0114888Y0097290D01*
X0114876Y0097248D01*
X0114861Y0097206D01*
X0114842Y0097166D01*
X0114820Y0097128D01*
X0114794Y0097092D01*
X0114765Y0097058D01*
X0114733Y0097027D01*
X0114699Y0096999D01*
X0114663Y0096975D01*
X0114624Y0096953D01*
X0114584Y0096935D01*
X0114542Y0096921D01*
X0114499Y0096910D01*
X0114455Y0096903D01*
X0114411Y0096900D01*
X0114367Y0096901D01*
X0114323Y0096906D01*
X0114280Y0096915D01*
X0114237Y0096927D01*
X0114196Y0096944D01*
X0114156Y0096963D01*
X0114119Y0096987D01*
X0114083Y0097013D01*
X0114050Y0097043D01*
X0114020Y0097075D01*
X0113993Y0097110D01*
X0113969Y0097147D01*
X0113948Y0097186D01*
X0113931Y0097227D01*
X0113918Y0097269D01*
X0113908Y0097312D01*
X0113902Y0097356D01*
X0113900Y0097400D01*
X0140940Y0126500D02*
X0140942Y0126558D01*
X0140948Y0126616D01*
X0140958Y0126673D01*
X0140971Y0126730D01*
X0140989Y0126785D01*
X0141010Y0126839D01*
X0141034Y0126892D01*
X0141063Y0126943D01*
X0141094Y0126991D01*
X0141129Y0127038D01*
X0141167Y0127082D01*
X0141207Y0127123D01*
X0141251Y0127162D01*
X0141297Y0127197D01*
X0141345Y0127230D01*
X0141395Y0127259D01*
X0141448Y0127284D01*
X0141501Y0127306D01*
X0141556Y0127325D01*
X0141613Y0127339D01*
X0141670Y0127350D01*
X0141727Y0127357D01*
X0141785Y0127360D01*
X0141844Y0127359D01*
X0141901Y0127354D01*
X0141959Y0127345D01*
X0142016Y0127333D01*
X0142071Y0127316D01*
X0142126Y0127296D01*
X0142179Y0127272D01*
X0142230Y0127245D01*
X0142279Y0127214D01*
X0142326Y0127180D01*
X0142371Y0127143D01*
X0142413Y0127103D01*
X0142453Y0127060D01*
X0142489Y0127015D01*
X0142522Y0126967D01*
X0142552Y0126917D01*
X0142578Y0126866D01*
X0142601Y0126812D01*
X0142621Y0126757D01*
X0142636Y0126701D01*
X0142648Y0126645D01*
X0142656Y0126587D01*
X0142660Y0126529D01*
X0142660Y0126471D01*
X0142656Y0126413D01*
X0142648Y0126355D01*
X0142636Y0126299D01*
X0142621Y0126243D01*
X0142601Y0126188D01*
X0142578Y0126134D01*
X0142552Y0126083D01*
X0142522Y0126033D01*
X0142489Y0125985D01*
X0142453Y0125940D01*
X0142413Y0125897D01*
X0142371Y0125857D01*
X0142326Y0125820D01*
X0142279Y0125786D01*
X0142230Y0125755D01*
X0142179Y0125728D01*
X0142126Y0125704D01*
X0142071Y0125684D01*
X0142016Y0125667D01*
X0141959Y0125655D01*
X0141901Y0125646D01*
X0141844Y0125641D01*
X0141785Y0125640D01*
X0141727Y0125643D01*
X0141670Y0125650D01*
X0141613Y0125661D01*
X0141556Y0125675D01*
X0141501Y0125694D01*
X0141448Y0125716D01*
X0141395Y0125741D01*
X0141345Y0125770D01*
X0141297Y0125803D01*
X0141251Y0125838D01*
X0141207Y0125877D01*
X0141167Y0125918D01*
X0141129Y0125962D01*
X0141094Y0126009D01*
X0141063Y0126057D01*
X0141034Y0126108D01*
X0141010Y0126161D01*
X0140989Y0126215D01*
X0140971Y0126270D01*
X0140958Y0126327D01*
X0140948Y0126384D01*
X0140942Y0126442D01*
X0140940Y0126500D01*
X0141700Y0126500D02*
X0141702Y0126520D01*
X0141708Y0126538D01*
X0141717Y0126556D01*
X0141729Y0126571D01*
X0141744Y0126583D01*
X0141762Y0126592D01*
X0141780Y0126598D01*
X0141800Y0126600D01*
X0141820Y0126598D01*
X0141838Y0126592D01*
X0141856Y0126583D01*
X0141871Y0126571D01*
X0141883Y0126556D01*
X0141892Y0126538D01*
X0141898Y0126520D01*
X0141900Y0126500D01*
X0141898Y0126480D01*
X0141892Y0126462D01*
X0141883Y0126444D01*
X0141871Y0126429D01*
X0141856Y0126417D01*
X0141838Y0126408D01*
X0141820Y0126402D01*
X0141800Y0126400D01*
X0141780Y0126402D01*
X0141762Y0126408D01*
X0141744Y0126417D01*
X0141729Y0126429D01*
X0141717Y0126444D01*
X0141708Y0126462D01*
X0141702Y0126480D01*
X0141700Y0126500D01*
X0141300Y0126500D02*
X0141302Y0126544D01*
X0141308Y0126588D01*
X0141318Y0126631D01*
X0141331Y0126673D01*
X0141348Y0126714D01*
X0141369Y0126753D01*
X0141393Y0126790D01*
X0141420Y0126825D01*
X0141450Y0126857D01*
X0141483Y0126887D01*
X0141519Y0126913D01*
X0141556Y0126937D01*
X0141596Y0126956D01*
X0141637Y0126973D01*
X0141680Y0126985D01*
X0141723Y0126994D01*
X0141767Y0126999D01*
X0141811Y0127000D01*
X0141855Y0126997D01*
X0141899Y0126990D01*
X0141942Y0126979D01*
X0141984Y0126965D01*
X0142024Y0126947D01*
X0142063Y0126925D01*
X0142099Y0126901D01*
X0142133Y0126873D01*
X0142165Y0126842D01*
X0142194Y0126808D01*
X0142220Y0126772D01*
X0142242Y0126734D01*
X0142261Y0126694D01*
X0142276Y0126652D01*
X0142288Y0126610D01*
X0142296Y0126566D01*
X0142300Y0126522D01*
X0142300Y0126478D01*
X0142296Y0126434D01*
X0142288Y0126390D01*
X0142276Y0126348D01*
X0142261Y0126306D01*
X0142242Y0126266D01*
X0142220Y0126228D01*
X0142194Y0126192D01*
X0142165Y0126158D01*
X0142133Y0126127D01*
X0142099Y0126099D01*
X0142063Y0126075D01*
X0142024Y0126053D01*
X0141984Y0126035D01*
X0141942Y0126021D01*
X0141899Y0126010D01*
X0141855Y0126003D01*
X0141811Y0126000D01*
X0141767Y0126001D01*
X0141723Y0126006D01*
X0141680Y0126015D01*
X0141637Y0126027D01*
X0141596Y0126044D01*
X0141556Y0126063D01*
X0141519Y0126087D01*
X0141483Y0126113D01*
X0141450Y0126143D01*
X0141420Y0126175D01*
X0141393Y0126210D01*
X0141369Y0126247D01*
X0141348Y0126286D01*
X0141331Y0126327D01*
X0141318Y0126369D01*
X0141308Y0126412D01*
X0141302Y0126456D01*
X0141300Y0126500D01*
X0143940Y0139500D02*
X0143942Y0139558D01*
X0143948Y0139616D01*
X0143958Y0139673D01*
X0143971Y0139730D01*
X0143989Y0139785D01*
X0144010Y0139839D01*
X0144034Y0139892D01*
X0144063Y0139943D01*
X0144094Y0139991D01*
X0144129Y0140038D01*
X0144167Y0140082D01*
X0144207Y0140123D01*
X0144251Y0140162D01*
X0144297Y0140197D01*
X0144345Y0140230D01*
X0144395Y0140259D01*
X0144448Y0140284D01*
X0144501Y0140306D01*
X0144556Y0140325D01*
X0144613Y0140339D01*
X0144670Y0140350D01*
X0144727Y0140357D01*
X0144785Y0140360D01*
X0144844Y0140359D01*
X0144901Y0140354D01*
X0144959Y0140345D01*
X0145016Y0140333D01*
X0145071Y0140316D01*
X0145126Y0140296D01*
X0145179Y0140272D01*
X0145230Y0140245D01*
X0145279Y0140214D01*
X0145326Y0140180D01*
X0145371Y0140143D01*
X0145413Y0140103D01*
X0145453Y0140060D01*
X0145489Y0140015D01*
X0145522Y0139967D01*
X0145552Y0139917D01*
X0145578Y0139866D01*
X0145601Y0139812D01*
X0145621Y0139757D01*
X0145636Y0139701D01*
X0145648Y0139645D01*
X0145656Y0139587D01*
X0145660Y0139529D01*
X0145660Y0139471D01*
X0145656Y0139413D01*
X0145648Y0139355D01*
X0145636Y0139299D01*
X0145621Y0139243D01*
X0145601Y0139188D01*
X0145578Y0139134D01*
X0145552Y0139083D01*
X0145522Y0139033D01*
X0145489Y0138985D01*
X0145453Y0138940D01*
X0145413Y0138897D01*
X0145371Y0138857D01*
X0145326Y0138820D01*
X0145279Y0138786D01*
X0145230Y0138755D01*
X0145179Y0138728D01*
X0145126Y0138704D01*
X0145071Y0138684D01*
X0145016Y0138667D01*
X0144959Y0138655D01*
X0144901Y0138646D01*
X0144844Y0138641D01*
X0144785Y0138640D01*
X0144727Y0138643D01*
X0144670Y0138650D01*
X0144613Y0138661D01*
X0144556Y0138675D01*
X0144501Y0138694D01*
X0144448Y0138716D01*
X0144395Y0138741D01*
X0144345Y0138770D01*
X0144297Y0138803D01*
X0144251Y0138838D01*
X0144207Y0138877D01*
X0144167Y0138918D01*
X0144129Y0138962D01*
X0144094Y0139009D01*
X0144063Y0139057D01*
X0144034Y0139108D01*
X0144010Y0139161D01*
X0143989Y0139215D01*
X0143971Y0139270D01*
X0143958Y0139327D01*
X0143948Y0139384D01*
X0143942Y0139442D01*
X0143940Y0139500D01*
X0144700Y0139500D02*
X0144702Y0139520D01*
X0144708Y0139538D01*
X0144717Y0139556D01*
X0144729Y0139571D01*
X0144744Y0139583D01*
X0144762Y0139592D01*
X0144780Y0139598D01*
X0144800Y0139600D01*
X0144820Y0139598D01*
X0144838Y0139592D01*
X0144856Y0139583D01*
X0144871Y0139571D01*
X0144883Y0139556D01*
X0144892Y0139538D01*
X0144898Y0139520D01*
X0144900Y0139500D01*
X0144898Y0139480D01*
X0144892Y0139462D01*
X0144883Y0139444D01*
X0144871Y0139429D01*
X0144856Y0139417D01*
X0144838Y0139408D01*
X0144820Y0139402D01*
X0144800Y0139400D01*
X0144780Y0139402D01*
X0144762Y0139408D01*
X0144744Y0139417D01*
X0144729Y0139429D01*
X0144717Y0139444D01*
X0144708Y0139462D01*
X0144702Y0139480D01*
X0144700Y0139500D01*
X0144300Y0139500D02*
X0144302Y0139544D01*
X0144308Y0139588D01*
X0144318Y0139631D01*
X0144331Y0139673D01*
X0144348Y0139714D01*
X0144369Y0139753D01*
X0144393Y0139790D01*
X0144420Y0139825D01*
X0144450Y0139857D01*
X0144483Y0139887D01*
X0144519Y0139913D01*
X0144556Y0139937D01*
X0144596Y0139956D01*
X0144637Y0139973D01*
X0144680Y0139985D01*
X0144723Y0139994D01*
X0144767Y0139999D01*
X0144811Y0140000D01*
X0144855Y0139997D01*
X0144899Y0139990D01*
X0144942Y0139979D01*
X0144984Y0139965D01*
X0145024Y0139947D01*
X0145063Y0139925D01*
X0145099Y0139901D01*
X0145133Y0139873D01*
X0145165Y0139842D01*
X0145194Y0139808D01*
X0145220Y0139772D01*
X0145242Y0139734D01*
X0145261Y0139694D01*
X0145276Y0139652D01*
X0145288Y0139610D01*
X0145296Y0139566D01*
X0145300Y0139522D01*
X0145300Y0139478D01*
X0145296Y0139434D01*
X0145288Y0139390D01*
X0145276Y0139348D01*
X0145261Y0139306D01*
X0145242Y0139266D01*
X0145220Y0139228D01*
X0145194Y0139192D01*
X0145165Y0139158D01*
X0145133Y0139127D01*
X0145099Y0139099D01*
X0145063Y0139075D01*
X0145024Y0139053D01*
X0144984Y0139035D01*
X0144942Y0139021D01*
X0144899Y0139010D01*
X0144855Y0139003D01*
X0144811Y0139000D01*
X0144767Y0139001D01*
X0144723Y0139006D01*
X0144680Y0139015D01*
X0144637Y0139027D01*
X0144596Y0139044D01*
X0144556Y0139063D01*
X0144519Y0139087D01*
X0144483Y0139113D01*
X0144450Y0139143D01*
X0144420Y0139175D01*
X0144393Y0139210D01*
X0144369Y0139247D01*
X0144348Y0139286D01*
X0144331Y0139327D01*
X0144318Y0139369D01*
X0144308Y0139412D01*
X0144302Y0139456D01*
X0144300Y0139500D01*
X0163140Y0137700D02*
X0163142Y0137758D01*
X0163148Y0137816D01*
X0163158Y0137873D01*
X0163171Y0137930D01*
X0163189Y0137985D01*
X0163210Y0138039D01*
X0163234Y0138092D01*
X0163263Y0138143D01*
X0163294Y0138191D01*
X0163329Y0138238D01*
X0163367Y0138282D01*
X0163407Y0138323D01*
X0163451Y0138362D01*
X0163497Y0138397D01*
X0163545Y0138430D01*
X0163595Y0138459D01*
X0163648Y0138484D01*
X0163701Y0138506D01*
X0163756Y0138525D01*
X0163813Y0138539D01*
X0163870Y0138550D01*
X0163927Y0138557D01*
X0163985Y0138560D01*
X0164044Y0138559D01*
X0164101Y0138554D01*
X0164159Y0138545D01*
X0164216Y0138533D01*
X0164271Y0138516D01*
X0164326Y0138496D01*
X0164379Y0138472D01*
X0164430Y0138445D01*
X0164479Y0138414D01*
X0164526Y0138380D01*
X0164571Y0138343D01*
X0164613Y0138303D01*
X0164653Y0138260D01*
X0164689Y0138215D01*
X0164722Y0138167D01*
X0164752Y0138117D01*
X0164778Y0138066D01*
X0164801Y0138012D01*
X0164821Y0137957D01*
X0164836Y0137901D01*
X0164848Y0137845D01*
X0164856Y0137787D01*
X0164860Y0137729D01*
X0164860Y0137671D01*
X0164856Y0137613D01*
X0164848Y0137555D01*
X0164836Y0137499D01*
X0164821Y0137443D01*
X0164801Y0137388D01*
X0164778Y0137334D01*
X0164752Y0137283D01*
X0164722Y0137233D01*
X0164689Y0137185D01*
X0164653Y0137140D01*
X0164613Y0137097D01*
X0164571Y0137057D01*
X0164526Y0137020D01*
X0164479Y0136986D01*
X0164430Y0136955D01*
X0164379Y0136928D01*
X0164326Y0136904D01*
X0164271Y0136884D01*
X0164216Y0136867D01*
X0164159Y0136855D01*
X0164101Y0136846D01*
X0164044Y0136841D01*
X0163985Y0136840D01*
X0163927Y0136843D01*
X0163870Y0136850D01*
X0163813Y0136861D01*
X0163756Y0136875D01*
X0163701Y0136894D01*
X0163648Y0136916D01*
X0163595Y0136941D01*
X0163545Y0136970D01*
X0163497Y0137003D01*
X0163451Y0137038D01*
X0163407Y0137077D01*
X0163367Y0137118D01*
X0163329Y0137162D01*
X0163294Y0137209D01*
X0163263Y0137257D01*
X0163234Y0137308D01*
X0163210Y0137361D01*
X0163189Y0137415D01*
X0163171Y0137470D01*
X0163158Y0137527D01*
X0163148Y0137584D01*
X0163142Y0137642D01*
X0163140Y0137700D01*
X0163900Y0137700D02*
X0163902Y0137720D01*
X0163908Y0137738D01*
X0163917Y0137756D01*
X0163929Y0137771D01*
X0163944Y0137783D01*
X0163962Y0137792D01*
X0163980Y0137798D01*
X0164000Y0137800D01*
X0164020Y0137798D01*
X0164038Y0137792D01*
X0164056Y0137783D01*
X0164071Y0137771D01*
X0164083Y0137756D01*
X0164092Y0137738D01*
X0164098Y0137720D01*
X0164100Y0137700D01*
X0164098Y0137680D01*
X0164092Y0137662D01*
X0164083Y0137644D01*
X0164071Y0137629D01*
X0164056Y0137617D01*
X0164038Y0137608D01*
X0164020Y0137602D01*
X0164000Y0137600D01*
X0163980Y0137602D01*
X0163962Y0137608D01*
X0163944Y0137617D01*
X0163929Y0137629D01*
X0163917Y0137644D01*
X0163908Y0137662D01*
X0163902Y0137680D01*
X0163900Y0137700D01*
X0163500Y0137700D02*
X0163502Y0137744D01*
X0163508Y0137788D01*
X0163518Y0137831D01*
X0163531Y0137873D01*
X0163548Y0137914D01*
X0163569Y0137953D01*
X0163593Y0137990D01*
X0163620Y0138025D01*
X0163650Y0138057D01*
X0163683Y0138087D01*
X0163719Y0138113D01*
X0163756Y0138137D01*
X0163796Y0138156D01*
X0163837Y0138173D01*
X0163880Y0138185D01*
X0163923Y0138194D01*
X0163967Y0138199D01*
X0164011Y0138200D01*
X0164055Y0138197D01*
X0164099Y0138190D01*
X0164142Y0138179D01*
X0164184Y0138165D01*
X0164224Y0138147D01*
X0164263Y0138125D01*
X0164299Y0138101D01*
X0164333Y0138073D01*
X0164365Y0138042D01*
X0164394Y0138008D01*
X0164420Y0137972D01*
X0164442Y0137934D01*
X0164461Y0137894D01*
X0164476Y0137852D01*
X0164488Y0137810D01*
X0164496Y0137766D01*
X0164500Y0137722D01*
X0164500Y0137678D01*
X0164496Y0137634D01*
X0164488Y0137590D01*
X0164476Y0137548D01*
X0164461Y0137506D01*
X0164442Y0137466D01*
X0164420Y0137428D01*
X0164394Y0137392D01*
X0164365Y0137358D01*
X0164333Y0137327D01*
X0164299Y0137299D01*
X0164263Y0137275D01*
X0164224Y0137253D01*
X0164184Y0137235D01*
X0164142Y0137221D01*
X0164099Y0137210D01*
X0164055Y0137203D01*
X0164011Y0137200D01*
X0163967Y0137201D01*
X0163923Y0137206D01*
X0163880Y0137215D01*
X0163837Y0137227D01*
X0163796Y0137244D01*
X0163756Y0137263D01*
X0163719Y0137287D01*
X0163683Y0137313D01*
X0163650Y0137343D01*
X0163620Y0137375D01*
X0163593Y0137410D01*
X0163569Y0137447D01*
X0163548Y0137486D01*
X0163531Y0137527D01*
X0163518Y0137569D01*
X0163508Y0137612D01*
X0163502Y0137656D01*
X0163500Y0137700D01*
X0165140Y0126300D02*
X0165142Y0126358D01*
X0165148Y0126416D01*
X0165158Y0126473D01*
X0165171Y0126530D01*
X0165189Y0126585D01*
X0165210Y0126639D01*
X0165234Y0126692D01*
X0165263Y0126743D01*
X0165294Y0126791D01*
X0165329Y0126838D01*
X0165367Y0126882D01*
X0165407Y0126923D01*
X0165451Y0126962D01*
X0165497Y0126997D01*
X0165545Y0127030D01*
X0165595Y0127059D01*
X0165648Y0127084D01*
X0165701Y0127106D01*
X0165756Y0127125D01*
X0165813Y0127139D01*
X0165870Y0127150D01*
X0165927Y0127157D01*
X0165985Y0127160D01*
X0166044Y0127159D01*
X0166101Y0127154D01*
X0166159Y0127145D01*
X0166216Y0127133D01*
X0166271Y0127116D01*
X0166326Y0127096D01*
X0166379Y0127072D01*
X0166430Y0127045D01*
X0166479Y0127014D01*
X0166526Y0126980D01*
X0166571Y0126943D01*
X0166613Y0126903D01*
X0166653Y0126860D01*
X0166689Y0126815D01*
X0166722Y0126767D01*
X0166752Y0126717D01*
X0166778Y0126666D01*
X0166801Y0126612D01*
X0166821Y0126557D01*
X0166836Y0126501D01*
X0166848Y0126445D01*
X0166856Y0126387D01*
X0166860Y0126329D01*
X0166860Y0126271D01*
X0166856Y0126213D01*
X0166848Y0126155D01*
X0166836Y0126099D01*
X0166821Y0126043D01*
X0166801Y0125988D01*
X0166778Y0125934D01*
X0166752Y0125883D01*
X0166722Y0125833D01*
X0166689Y0125785D01*
X0166653Y0125740D01*
X0166613Y0125697D01*
X0166571Y0125657D01*
X0166526Y0125620D01*
X0166479Y0125586D01*
X0166430Y0125555D01*
X0166379Y0125528D01*
X0166326Y0125504D01*
X0166271Y0125484D01*
X0166216Y0125467D01*
X0166159Y0125455D01*
X0166101Y0125446D01*
X0166044Y0125441D01*
X0165985Y0125440D01*
X0165927Y0125443D01*
X0165870Y0125450D01*
X0165813Y0125461D01*
X0165756Y0125475D01*
X0165701Y0125494D01*
X0165648Y0125516D01*
X0165595Y0125541D01*
X0165545Y0125570D01*
X0165497Y0125603D01*
X0165451Y0125638D01*
X0165407Y0125677D01*
X0165367Y0125718D01*
X0165329Y0125762D01*
X0165294Y0125809D01*
X0165263Y0125857D01*
X0165234Y0125908D01*
X0165210Y0125961D01*
X0165189Y0126015D01*
X0165171Y0126070D01*
X0165158Y0126127D01*
X0165148Y0126184D01*
X0165142Y0126242D01*
X0165140Y0126300D01*
X0165900Y0126300D02*
X0165902Y0126320D01*
X0165908Y0126338D01*
X0165917Y0126356D01*
X0165929Y0126371D01*
X0165944Y0126383D01*
X0165962Y0126392D01*
X0165980Y0126398D01*
X0166000Y0126400D01*
X0166020Y0126398D01*
X0166038Y0126392D01*
X0166056Y0126383D01*
X0166071Y0126371D01*
X0166083Y0126356D01*
X0166092Y0126338D01*
X0166098Y0126320D01*
X0166100Y0126300D01*
X0166098Y0126280D01*
X0166092Y0126262D01*
X0166083Y0126244D01*
X0166071Y0126229D01*
X0166056Y0126217D01*
X0166038Y0126208D01*
X0166020Y0126202D01*
X0166000Y0126200D01*
X0165980Y0126202D01*
X0165962Y0126208D01*
X0165944Y0126217D01*
X0165929Y0126229D01*
X0165917Y0126244D01*
X0165908Y0126262D01*
X0165902Y0126280D01*
X0165900Y0126300D01*
X0165500Y0126300D02*
X0165502Y0126344D01*
X0165508Y0126388D01*
X0165518Y0126431D01*
X0165531Y0126473D01*
X0165548Y0126514D01*
X0165569Y0126553D01*
X0165593Y0126590D01*
X0165620Y0126625D01*
X0165650Y0126657D01*
X0165683Y0126687D01*
X0165719Y0126713D01*
X0165756Y0126737D01*
X0165796Y0126756D01*
X0165837Y0126773D01*
X0165880Y0126785D01*
X0165923Y0126794D01*
X0165967Y0126799D01*
X0166011Y0126800D01*
X0166055Y0126797D01*
X0166099Y0126790D01*
X0166142Y0126779D01*
X0166184Y0126765D01*
X0166224Y0126747D01*
X0166263Y0126725D01*
X0166299Y0126701D01*
X0166333Y0126673D01*
X0166365Y0126642D01*
X0166394Y0126608D01*
X0166420Y0126572D01*
X0166442Y0126534D01*
X0166461Y0126494D01*
X0166476Y0126452D01*
X0166488Y0126410D01*
X0166496Y0126366D01*
X0166500Y0126322D01*
X0166500Y0126278D01*
X0166496Y0126234D01*
X0166488Y0126190D01*
X0166476Y0126148D01*
X0166461Y0126106D01*
X0166442Y0126066D01*
X0166420Y0126028D01*
X0166394Y0125992D01*
X0166365Y0125958D01*
X0166333Y0125927D01*
X0166299Y0125899D01*
X0166263Y0125875D01*
X0166224Y0125853D01*
X0166184Y0125835D01*
X0166142Y0125821D01*
X0166099Y0125810D01*
X0166055Y0125803D01*
X0166011Y0125800D01*
X0165967Y0125801D01*
X0165923Y0125806D01*
X0165880Y0125815D01*
X0165837Y0125827D01*
X0165796Y0125844D01*
X0165756Y0125863D01*
X0165719Y0125887D01*
X0165683Y0125913D01*
X0165650Y0125943D01*
X0165620Y0125975D01*
X0165593Y0126010D01*
X0165569Y0126047D01*
X0165548Y0126086D01*
X0165531Y0126127D01*
X0165518Y0126169D01*
X0165508Y0126212D01*
X0165502Y0126256D01*
X0165500Y0126300D01*
X0176440Y0129100D02*
X0176442Y0129158D01*
X0176448Y0129216D01*
X0176458Y0129273D01*
X0176471Y0129330D01*
X0176489Y0129385D01*
X0176510Y0129439D01*
X0176534Y0129492D01*
X0176563Y0129543D01*
X0176594Y0129591D01*
X0176629Y0129638D01*
X0176667Y0129682D01*
X0176707Y0129723D01*
X0176751Y0129762D01*
X0176797Y0129797D01*
X0176845Y0129830D01*
X0176895Y0129859D01*
X0176948Y0129884D01*
X0177001Y0129906D01*
X0177056Y0129925D01*
X0177113Y0129939D01*
X0177170Y0129950D01*
X0177227Y0129957D01*
X0177285Y0129960D01*
X0177344Y0129959D01*
X0177401Y0129954D01*
X0177459Y0129945D01*
X0177516Y0129933D01*
X0177571Y0129916D01*
X0177626Y0129896D01*
X0177679Y0129872D01*
X0177730Y0129845D01*
X0177779Y0129814D01*
X0177826Y0129780D01*
X0177871Y0129743D01*
X0177913Y0129703D01*
X0177953Y0129660D01*
X0177989Y0129615D01*
X0178022Y0129567D01*
X0178052Y0129517D01*
X0178078Y0129466D01*
X0178101Y0129412D01*
X0178121Y0129357D01*
X0178136Y0129301D01*
X0178148Y0129245D01*
X0178156Y0129187D01*
X0178160Y0129129D01*
X0178160Y0129071D01*
X0178156Y0129013D01*
X0178148Y0128955D01*
X0178136Y0128899D01*
X0178121Y0128843D01*
X0178101Y0128788D01*
X0178078Y0128734D01*
X0178052Y0128683D01*
X0178022Y0128633D01*
X0177989Y0128585D01*
X0177953Y0128540D01*
X0177913Y0128497D01*
X0177871Y0128457D01*
X0177826Y0128420D01*
X0177779Y0128386D01*
X0177730Y0128355D01*
X0177679Y0128328D01*
X0177626Y0128304D01*
X0177571Y0128284D01*
X0177516Y0128267D01*
X0177459Y0128255D01*
X0177401Y0128246D01*
X0177344Y0128241D01*
X0177285Y0128240D01*
X0177227Y0128243D01*
X0177170Y0128250D01*
X0177113Y0128261D01*
X0177056Y0128275D01*
X0177001Y0128294D01*
X0176948Y0128316D01*
X0176895Y0128341D01*
X0176845Y0128370D01*
X0176797Y0128403D01*
X0176751Y0128438D01*
X0176707Y0128477D01*
X0176667Y0128518D01*
X0176629Y0128562D01*
X0176594Y0128609D01*
X0176563Y0128657D01*
X0176534Y0128708D01*
X0176510Y0128761D01*
X0176489Y0128815D01*
X0176471Y0128870D01*
X0176458Y0128927D01*
X0176448Y0128984D01*
X0176442Y0129042D01*
X0176440Y0129100D01*
X0177200Y0129100D02*
X0177202Y0129120D01*
X0177208Y0129138D01*
X0177217Y0129156D01*
X0177229Y0129171D01*
X0177244Y0129183D01*
X0177262Y0129192D01*
X0177280Y0129198D01*
X0177300Y0129200D01*
X0177320Y0129198D01*
X0177338Y0129192D01*
X0177356Y0129183D01*
X0177371Y0129171D01*
X0177383Y0129156D01*
X0177392Y0129138D01*
X0177398Y0129120D01*
X0177400Y0129100D01*
X0177398Y0129080D01*
X0177392Y0129062D01*
X0177383Y0129044D01*
X0177371Y0129029D01*
X0177356Y0129017D01*
X0177338Y0129008D01*
X0177320Y0129002D01*
X0177300Y0129000D01*
X0177280Y0129002D01*
X0177262Y0129008D01*
X0177244Y0129017D01*
X0177229Y0129029D01*
X0177217Y0129044D01*
X0177208Y0129062D01*
X0177202Y0129080D01*
X0177200Y0129100D01*
X0176800Y0129100D02*
X0176802Y0129144D01*
X0176808Y0129188D01*
X0176818Y0129231D01*
X0176831Y0129273D01*
X0176848Y0129314D01*
X0176869Y0129353D01*
X0176893Y0129390D01*
X0176920Y0129425D01*
X0176950Y0129457D01*
X0176983Y0129487D01*
X0177019Y0129513D01*
X0177056Y0129537D01*
X0177096Y0129556D01*
X0177137Y0129573D01*
X0177180Y0129585D01*
X0177223Y0129594D01*
X0177267Y0129599D01*
X0177311Y0129600D01*
X0177355Y0129597D01*
X0177399Y0129590D01*
X0177442Y0129579D01*
X0177484Y0129565D01*
X0177524Y0129547D01*
X0177563Y0129525D01*
X0177599Y0129501D01*
X0177633Y0129473D01*
X0177665Y0129442D01*
X0177694Y0129408D01*
X0177720Y0129372D01*
X0177742Y0129334D01*
X0177761Y0129294D01*
X0177776Y0129252D01*
X0177788Y0129210D01*
X0177796Y0129166D01*
X0177800Y0129122D01*
X0177800Y0129078D01*
X0177796Y0129034D01*
X0177788Y0128990D01*
X0177776Y0128948D01*
X0177761Y0128906D01*
X0177742Y0128866D01*
X0177720Y0128828D01*
X0177694Y0128792D01*
X0177665Y0128758D01*
X0177633Y0128727D01*
X0177599Y0128699D01*
X0177563Y0128675D01*
X0177524Y0128653D01*
X0177484Y0128635D01*
X0177442Y0128621D01*
X0177399Y0128610D01*
X0177355Y0128603D01*
X0177311Y0128600D01*
X0177267Y0128601D01*
X0177223Y0128606D01*
X0177180Y0128615D01*
X0177137Y0128627D01*
X0177096Y0128644D01*
X0177056Y0128663D01*
X0177019Y0128687D01*
X0176983Y0128713D01*
X0176950Y0128743D01*
X0176920Y0128775D01*
X0176893Y0128810D01*
X0176869Y0128847D01*
X0176848Y0128886D01*
X0176831Y0128927D01*
X0176818Y0128969D01*
X0176808Y0129012D01*
X0176802Y0129056D01*
X0176800Y0129100D01*
X0202140Y0153300D02*
X0202142Y0153358D01*
X0202148Y0153416D01*
X0202158Y0153473D01*
X0202171Y0153530D01*
X0202189Y0153585D01*
X0202210Y0153639D01*
X0202234Y0153692D01*
X0202263Y0153743D01*
X0202294Y0153791D01*
X0202329Y0153838D01*
X0202367Y0153882D01*
X0202407Y0153923D01*
X0202451Y0153962D01*
X0202497Y0153997D01*
X0202545Y0154030D01*
X0202595Y0154059D01*
X0202648Y0154084D01*
X0202701Y0154106D01*
X0202756Y0154125D01*
X0202813Y0154139D01*
X0202870Y0154150D01*
X0202927Y0154157D01*
X0202985Y0154160D01*
X0203044Y0154159D01*
X0203101Y0154154D01*
X0203159Y0154145D01*
X0203216Y0154133D01*
X0203271Y0154116D01*
X0203326Y0154096D01*
X0203379Y0154072D01*
X0203430Y0154045D01*
X0203479Y0154014D01*
X0203526Y0153980D01*
X0203571Y0153943D01*
X0203613Y0153903D01*
X0203653Y0153860D01*
X0203689Y0153815D01*
X0203722Y0153767D01*
X0203752Y0153717D01*
X0203778Y0153666D01*
X0203801Y0153612D01*
X0203821Y0153557D01*
X0203836Y0153501D01*
X0203848Y0153445D01*
X0203856Y0153387D01*
X0203860Y0153329D01*
X0203860Y0153271D01*
X0203856Y0153213D01*
X0203848Y0153155D01*
X0203836Y0153099D01*
X0203821Y0153043D01*
X0203801Y0152988D01*
X0203778Y0152934D01*
X0203752Y0152883D01*
X0203722Y0152833D01*
X0203689Y0152785D01*
X0203653Y0152740D01*
X0203613Y0152697D01*
X0203571Y0152657D01*
X0203526Y0152620D01*
X0203479Y0152586D01*
X0203430Y0152555D01*
X0203379Y0152528D01*
X0203326Y0152504D01*
X0203271Y0152484D01*
X0203216Y0152467D01*
X0203159Y0152455D01*
X0203101Y0152446D01*
X0203044Y0152441D01*
X0202985Y0152440D01*
X0202927Y0152443D01*
X0202870Y0152450D01*
X0202813Y0152461D01*
X0202756Y0152475D01*
X0202701Y0152494D01*
X0202648Y0152516D01*
X0202595Y0152541D01*
X0202545Y0152570D01*
X0202497Y0152603D01*
X0202451Y0152638D01*
X0202407Y0152677D01*
X0202367Y0152718D01*
X0202329Y0152762D01*
X0202294Y0152809D01*
X0202263Y0152857D01*
X0202234Y0152908D01*
X0202210Y0152961D01*
X0202189Y0153015D01*
X0202171Y0153070D01*
X0202158Y0153127D01*
X0202148Y0153184D01*
X0202142Y0153242D01*
X0202140Y0153300D01*
X0202900Y0153300D02*
X0202902Y0153320D01*
X0202908Y0153338D01*
X0202917Y0153356D01*
X0202929Y0153371D01*
X0202944Y0153383D01*
X0202962Y0153392D01*
X0202980Y0153398D01*
X0203000Y0153400D01*
X0203020Y0153398D01*
X0203038Y0153392D01*
X0203056Y0153383D01*
X0203071Y0153371D01*
X0203083Y0153356D01*
X0203092Y0153338D01*
X0203098Y0153320D01*
X0203100Y0153300D01*
X0203098Y0153280D01*
X0203092Y0153262D01*
X0203083Y0153244D01*
X0203071Y0153229D01*
X0203056Y0153217D01*
X0203038Y0153208D01*
X0203020Y0153202D01*
X0203000Y0153200D01*
X0202980Y0153202D01*
X0202962Y0153208D01*
X0202944Y0153217D01*
X0202929Y0153229D01*
X0202917Y0153244D01*
X0202908Y0153262D01*
X0202902Y0153280D01*
X0202900Y0153300D01*
X0202500Y0153300D02*
X0202502Y0153344D01*
X0202508Y0153388D01*
X0202518Y0153431D01*
X0202531Y0153473D01*
X0202548Y0153514D01*
X0202569Y0153553D01*
X0202593Y0153590D01*
X0202620Y0153625D01*
X0202650Y0153657D01*
X0202683Y0153687D01*
X0202719Y0153713D01*
X0202756Y0153737D01*
X0202796Y0153756D01*
X0202837Y0153773D01*
X0202880Y0153785D01*
X0202923Y0153794D01*
X0202967Y0153799D01*
X0203011Y0153800D01*
X0203055Y0153797D01*
X0203099Y0153790D01*
X0203142Y0153779D01*
X0203184Y0153765D01*
X0203224Y0153747D01*
X0203263Y0153725D01*
X0203299Y0153701D01*
X0203333Y0153673D01*
X0203365Y0153642D01*
X0203394Y0153608D01*
X0203420Y0153572D01*
X0203442Y0153534D01*
X0203461Y0153494D01*
X0203476Y0153452D01*
X0203488Y0153410D01*
X0203496Y0153366D01*
X0203500Y0153322D01*
X0203500Y0153278D01*
X0203496Y0153234D01*
X0203488Y0153190D01*
X0203476Y0153148D01*
X0203461Y0153106D01*
X0203442Y0153066D01*
X0203420Y0153028D01*
X0203394Y0152992D01*
X0203365Y0152958D01*
X0203333Y0152927D01*
X0203299Y0152899D01*
X0203263Y0152875D01*
X0203224Y0152853D01*
X0203184Y0152835D01*
X0203142Y0152821D01*
X0203099Y0152810D01*
X0203055Y0152803D01*
X0203011Y0152800D01*
X0202967Y0152801D01*
X0202923Y0152806D01*
X0202880Y0152815D01*
X0202837Y0152827D01*
X0202796Y0152844D01*
X0202756Y0152863D01*
X0202719Y0152887D01*
X0202683Y0152913D01*
X0202650Y0152943D01*
X0202620Y0152975D01*
X0202593Y0153010D01*
X0202569Y0153047D01*
X0202548Y0153086D01*
X0202531Y0153127D01*
X0202518Y0153169D01*
X0202508Y0153212D01*
X0202502Y0153256D01*
X0202500Y0153300D01*
X0217740Y0151100D02*
X0217742Y0151158D01*
X0217748Y0151216D01*
X0217758Y0151273D01*
X0217771Y0151330D01*
X0217789Y0151385D01*
X0217810Y0151439D01*
X0217834Y0151492D01*
X0217863Y0151543D01*
X0217894Y0151591D01*
X0217929Y0151638D01*
X0217967Y0151682D01*
X0218007Y0151723D01*
X0218051Y0151762D01*
X0218097Y0151797D01*
X0218145Y0151830D01*
X0218195Y0151859D01*
X0218248Y0151884D01*
X0218301Y0151906D01*
X0218356Y0151925D01*
X0218413Y0151939D01*
X0218470Y0151950D01*
X0218527Y0151957D01*
X0218585Y0151960D01*
X0218644Y0151959D01*
X0218701Y0151954D01*
X0218759Y0151945D01*
X0218816Y0151933D01*
X0218871Y0151916D01*
X0218926Y0151896D01*
X0218979Y0151872D01*
X0219030Y0151845D01*
X0219079Y0151814D01*
X0219126Y0151780D01*
X0219171Y0151743D01*
X0219213Y0151703D01*
X0219253Y0151660D01*
X0219289Y0151615D01*
X0219322Y0151567D01*
X0219352Y0151517D01*
X0219378Y0151466D01*
X0219401Y0151412D01*
X0219421Y0151357D01*
X0219436Y0151301D01*
X0219448Y0151245D01*
X0219456Y0151187D01*
X0219460Y0151129D01*
X0219460Y0151071D01*
X0219456Y0151013D01*
X0219448Y0150955D01*
X0219436Y0150899D01*
X0219421Y0150843D01*
X0219401Y0150788D01*
X0219378Y0150734D01*
X0219352Y0150683D01*
X0219322Y0150633D01*
X0219289Y0150585D01*
X0219253Y0150540D01*
X0219213Y0150497D01*
X0219171Y0150457D01*
X0219126Y0150420D01*
X0219079Y0150386D01*
X0219030Y0150355D01*
X0218979Y0150328D01*
X0218926Y0150304D01*
X0218871Y0150284D01*
X0218816Y0150267D01*
X0218759Y0150255D01*
X0218701Y0150246D01*
X0218644Y0150241D01*
X0218585Y0150240D01*
X0218527Y0150243D01*
X0218470Y0150250D01*
X0218413Y0150261D01*
X0218356Y0150275D01*
X0218301Y0150294D01*
X0218248Y0150316D01*
X0218195Y0150341D01*
X0218145Y0150370D01*
X0218097Y0150403D01*
X0218051Y0150438D01*
X0218007Y0150477D01*
X0217967Y0150518D01*
X0217929Y0150562D01*
X0217894Y0150609D01*
X0217863Y0150657D01*
X0217834Y0150708D01*
X0217810Y0150761D01*
X0217789Y0150815D01*
X0217771Y0150870D01*
X0217758Y0150927D01*
X0217748Y0150984D01*
X0217742Y0151042D01*
X0217740Y0151100D01*
X0218500Y0151100D02*
X0218502Y0151120D01*
X0218508Y0151138D01*
X0218517Y0151156D01*
X0218529Y0151171D01*
X0218544Y0151183D01*
X0218562Y0151192D01*
X0218580Y0151198D01*
X0218600Y0151200D01*
X0218620Y0151198D01*
X0218638Y0151192D01*
X0218656Y0151183D01*
X0218671Y0151171D01*
X0218683Y0151156D01*
X0218692Y0151138D01*
X0218698Y0151120D01*
X0218700Y0151100D01*
X0218698Y0151080D01*
X0218692Y0151062D01*
X0218683Y0151044D01*
X0218671Y0151029D01*
X0218656Y0151017D01*
X0218638Y0151008D01*
X0218620Y0151002D01*
X0218600Y0151000D01*
X0218580Y0151002D01*
X0218562Y0151008D01*
X0218544Y0151017D01*
X0218529Y0151029D01*
X0218517Y0151044D01*
X0218508Y0151062D01*
X0218502Y0151080D01*
X0218500Y0151100D01*
X0218100Y0151100D02*
X0218102Y0151144D01*
X0218108Y0151188D01*
X0218118Y0151231D01*
X0218131Y0151273D01*
X0218148Y0151314D01*
X0218169Y0151353D01*
X0218193Y0151390D01*
X0218220Y0151425D01*
X0218250Y0151457D01*
X0218283Y0151487D01*
X0218319Y0151513D01*
X0218356Y0151537D01*
X0218396Y0151556D01*
X0218437Y0151573D01*
X0218480Y0151585D01*
X0218523Y0151594D01*
X0218567Y0151599D01*
X0218611Y0151600D01*
X0218655Y0151597D01*
X0218699Y0151590D01*
X0218742Y0151579D01*
X0218784Y0151565D01*
X0218824Y0151547D01*
X0218863Y0151525D01*
X0218899Y0151501D01*
X0218933Y0151473D01*
X0218965Y0151442D01*
X0218994Y0151408D01*
X0219020Y0151372D01*
X0219042Y0151334D01*
X0219061Y0151294D01*
X0219076Y0151252D01*
X0219088Y0151210D01*
X0219096Y0151166D01*
X0219100Y0151122D01*
X0219100Y0151078D01*
X0219096Y0151034D01*
X0219088Y0150990D01*
X0219076Y0150948D01*
X0219061Y0150906D01*
X0219042Y0150866D01*
X0219020Y0150828D01*
X0218994Y0150792D01*
X0218965Y0150758D01*
X0218933Y0150727D01*
X0218899Y0150699D01*
X0218863Y0150675D01*
X0218824Y0150653D01*
X0218784Y0150635D01*
X0218742Y0150621D01*
X0218699Y0150610D01*
X0218655Y0150603D01*
X0218611Y0150600D01*
X0218567Y0150601D01*
X0218523Y0150606D01*
X0218480Y0150615D01*
X0218437Y0150627D01*
X0218396Y0150644D01*
X0218356Y0150663D01*
X0218319Y0150687D01*
X0218283Y0150713D01*
X0218250Y0150743D01*
X0218220Y0150775D01*
X0218193Y0150810D01*
X0218169Y0150847D01*
X0218148Y0150886D01*
X0218131Y0150927D01*
X0218118Y0150969D01*
X0218108Y0151012D01*
X0218102Y0151056D01*
X0218100Y0151100D01*
X0240240Y0146300D02*
X0240242Y0146358D01*
X0240248Y0146416D01*
X0240258Y0146473D01*
X0240271Y0146530D01*
X0240289Y0146585D01*
X0240310Y0146639D01*
X0240334Y0146692D01*
X0240363Y0146743D01*
X0240394Y0146791D01*
X0240429Y0146838D01*
X0240467Y0146882D01*
X0240507Y0146923D01*
X0240551Y0146962D01*
X0240597Y0146997D01*
X0240645Y0147030D01*
X0240695Y0147059D01*
X0240748Y0147084D01*
X0240801Y0147106D01*
X0240856Y0147125D01*
X0240913Y0147139D01*
X0240970Y0147150D01*
X0241027Y0147157D01*
X0241085Y0147160D01*
X0241144Y0147159D01*
X0241201Y0147154D01*
X0241259Y0147145D01*
X0241316Y0147133D01*
X0241371Y0147116D01*
X0241426Y0147096D01*
X0241479Y0147072D01*
X0241530Y0147045D01*
X0241579Y0147014D01*
X0241626Y0146980D01*
X0241671Y0146943D01*
X0241713Y0146903D01*
X0241753Y0146860D01*
X0241789Y0146815D01*
X0241822Y0146767D01*
X0241852Y0146717D01*
X0241878Y0146666D01*
X0241901Y0146612D01*
X0241921Y0146557D01*
X0241936Y0146501D01*
X0241948Y0146445D01*
X0241956Y0146387D01*
X0241960Y0146329D01*
X0241960Y0146271D01*
X0241956Y0146213D01*
X0241948Y0146155D01*
X0241936Y0146099D01*
X0241921Y0146043D01*
X0241901Y0145988D01*
X0241878Y0145934D01*
X0241852Y0145883D01*
X0241822Y0145833D01*
X0241789Y0145785D01*
X0241753Y0145740D01*
X0241713Y0145697D01*
X0241671Y0145657D01*
X0241626Y0145620D01*
X0241579Y0145586D01*
X0241530Y0145555D01*
X0241479Y0145528D01*
X0241426Y0145504D01*
X0241371Y0145484D01*
X0241316Y0145467D01*
X0241259Y0145455D01*
X0241201Y0145446D01*
X0241144Y0145441D01*
X0241085Y0145440D01*
X0241027Y0145443D01*
X0240970Y0145450D01*
X0240913Y0145461D01*
X0240856Y0145475D01*
X0240801Y0145494D01*
X0240748Y0145516D01*
X0240695Y0145541D01*
X0240645Y0145570D01*
X0240597Y0145603D01*
X0240551Y0145638D01*
X0240507Y0145677D01*
X0240467Y0145718D01*
X0240429Y0145762D01*
X0240394Y0145809D01*
X0240363Y0145857D01*
X0240334Y0145908D01*
X0240310Y0145961D01*
X0240289Y0146015D01*
X0240271Y0146070D01*
X0240258Y0146127D01*
X0240248Y0146184D01*
X0240242Y0146242D01*
X0240240Y0146300D01*
X0241000Y0146300D02*
X0241002Y0146320D01*
X0241008Y0146338D01*
X0241017Y0146356D01*
X0241029Y0146371D01*
X0241044Y0146383D01*
X0241062Y0146392D01*
X0241080Y0146398D01*
X0241100Y0146400D01*
X0241120Y0146398D01*
X0241138Y0146392D01*
X0241156Y0146383D01*
X0241171Y0146371D01*
X0241183Y0146356D01*
X0241192Y0146338D01*
X0241198Y0146320D01*
X0241200Y0146300D01*
X0241198Y0146280D01*
X0241192Y0146262D01*
X0241183Y0146244D01*
X0241171Y0146229D01*
X0241156Y0146217D01*
X0241138Y0146208D01*
X0241120Y0146202D01*
X0241100Y0146200D01*
X0241080Y0146202D01*
X0241062Y0146208D01*
X0241044Y0146217D01*
X0241029Y0146229D01*
X0241017Y0146244D01*
X0241008Y0146262D01*
X0241002Y0146280D01*
X0241000Y0146300D01*
X0240600Y0146300D02*
X0240602Y0146344D01*
X0240608Y0146388D01*
X0240618Y0146431D01*
X0240631Y0146473D01*
X0240648Y0146514D01*
X0240669Y0146553D01*
X0240693Y0146590D01*
X0240720Y0146625D01*
X0240750Y0146657D01*
X0240783Y0146687D01*
X0240819Y0146713D01*
X0240856Y0146737D01*
X0240896Y0146756D01*
X0240937Y0146773D01*
X0240980Y0146785D01*
X0241023Y0146794D01*
X0241067Y0146799D01*
X0241111Y0146800D01*
X0241155Y0146797D01*
X0241199Y0146790D01*
X0241242Y0146779D01*
X0241284Y0146765D01*
X0241324Y0146747D01*
X0241363Y0146725D01*
X0241399Y0146701D01*
X0241433Y0146673D01*
X0241465Y0146642D01*
X0241494Y0146608D01*
X0241520Y0146572D01*
X0241542Y0146534D01*
X0241561Y0146494D01*
X0241576Y0146452D01*
X0241588Y0146410D01*
X0241596Y0146366D01*
X0241600Y0146322D01*
X0241600Y0146278D01*
X0241596Y0146234D01*
X0241588Y0146190D01*
X0241576Y0146148D01*
X0241561Y0146106D01*
X0241542Y0146066D01*
X0241520Y0146028D01*
X0241494Y0145992D01*
X0241465Y0145958D01*
X0241433Y0145927D01*
X0241399Y0145899D01*
X0241363Y0145875D01*
X0241324Y0145853D01*
X0241284Y0145835D01*
X0241242Y0145821D01*
X0241199Y0145810D01*
X0241155Y0145803D01*
X0241111Y0145800D01*
X0241067Y0145801D01*
X0241023Y0145806D01*
X0240980Y0145815D01*
X0240937Y0145827D01*
X0240896Y0145844D01*
X0240856Y0145863D01*
X0240819Y0145887D01*
X0240783Y0145913D01*
X0240750Y0145943D01*
X0240720Y0145975D01*
X0240693Y0146010D01*
X0240669Y0146047D01*
X0240648Y0146086D01*
X0240631Y0146127D01*
X0240618Y0146169D01*
X0240608Y0146212D01*
X0240602Y0146256D01*
X0240600Y0146300D01*
X0218040Y0096800D02*
X0218042Y0096858D01*
X0218048Y0096916D01*
X0218058Y0096973D01*
X0218071Y0097030D01*
X0218089Y0097085D01*
X0218110Y0097139D01*
X0218134Y0097192D01*
X0218163Y0097243D01*
X0218194Y0097291D01*
X0218229Y0097338D01*
X0218267Y0097382D01*
X0218307Y0097423D01*
X0218351Y0097462D01*
X0218397Y0097497D01*
X0218445Y0097530D01*
X0218495Y0097559D01*
X0218548Y0097584D01*
X0218601Y0097606D01*
X0218656Y0097625D01*
X0218713Y0097639D01*
X0218770Y0097650D01*
X0218827Y0097657D01*
X0218885Y0097660D01*
X0218944Y0097659D01*
X0219001Y0097654D01*
X0219059Y0097645D01*
X0219116Y0097633D01*
X0219171Y0097616D01*
X0219226Y0097596D01*
X0219279Y0097572D01*
X0219330Y0097545D01*
X0219379Y0097514D01*
X0219426Y0097480D01*
X0219471Y0097443D01*
X0219513Y0097403D01*
X0219553Y0097360D01*
X0219589Y0097315D01*
X0219622Y0097267D01*
X0219652Y0097217D01*
X0219678Y0097166D01*
X0219701Y0097112D01*
X0219721Y0097057D01*
X0219736Y0097001D01*
X0219748Y0096945D01*
X0219756Y0096887D01*
X0219760Y0096829D01*
X0219760Y0096771D01*
X0219756Y0096713D01*
X0219748Y0096655D01*
X0219736Y0096599D01*
X0219721Y0096543D01*
X0219701Y0096488D01*
X0219678Y0096434D01*
X0219652Y0096383D01*
X0219622Y0096333D01*
X0219589Y0096285D01*
X0219553Y0096240D01*
X0219513Y0096197D01*
X0219471Y0096157D01*
X0219426Y0096120D01*
X0219379Y0096086D01*
X0219330Y0096055D01*
X0219279Y0096028D01*
X0219226Y0096004D01*
X0219171Y0095984D01*
X0219116Y0095967D01*
X0219059Y0095955D01*
X0219001Y0095946D01*
X0218944Y0095941D01*
X0218885Y0095940D01*
X0218827Y0095943D01*
X0218770Y0095950D01*
X0218713Y0095961D01*
X0218656Y0095975D01*
X0218601Y0095994D01*
X0218548Y0096016D01*
X0218495Y0096041D01*
X0218445Y0096070D01*
X0218397Y0096103D01*
X0218351Y0096138D01*
X0218307Y0096177D01*
X0218267Y0096218D01*
X0218229Y0096262D01*
X0218194Y0096309D01*
X0218163Y0096357D01*
X0218134Y0096408D01*
X0218110Y0096461D01*
X0218089Y0096515D01*
X0218071Y0096570D01*
X0218058Y0096627D01*
X0218048Y0096684D01*
X0218042Y0096742D01*
X0218040Y0096800D01*
X0218800Y0096800D02*
X0218802Y0096820D01*
X0218808Y0096838D01*
X0218817Y0096856D01*
X0218829Y0096871D01*
X0218844Y0096883D01*
X0218862Y0096892D01*
X0218880Y0096898D01*
X0218900Y0096900D01*
X0218920Y0096898D01*
X0218938Y0096892D01*
X0218956Y0096883D01*
X0218971Y0096871D01*
X0218983Y0096856D01*
X0218992Y0096838D01*
X0218998Y0096820D01*
X0219000Y0096800D01*
X0218998Y0096780D01*
X0218992Y0096762D01*
X0218983Y0096744D01*
X0218971Y0096729D01*
X0218956Y0096717D01*
X0218938Y0096708D01*
X0218920Y0096702D01*
X0218900Y0096700D01*
X0218880Y0096702D01*
X0218862Y0096708D01*
X0218844Y0096717D01*
X0218829Y0096729D01*
X0218817Y0096744D01*
X0218808Y0096762D01*
X0218802Y0096780D01*
X0218800Y0096800D01*
X0218400Y0096800D02*
X0218402Y0096844D01*
X0218408Y0096888D01*
X0218418Y0096931D01*
X0218431Y0096973D01*
X0218448Y0097014D01*
X0218469Y0097053D01*
X0218493Y0097090D01*
X0218520Y0097125D01*
X0218550Y0097157D01*
X0218583Y0097187D01*
X0218619Y0097213D01*
X0218656Y0097237D01*
X0218696Y0097256D01*
X0218737Y0097273D01*
X0218780Y0097285D01*
X0218823Y0097294D01*
X0218867Y0097299D01*
X0218911Y0097300D01*
X0218955Y0097297D01*
X0218999Y0097290D01*
X0219042Y0097279D01*
X0219084Y0097265D01*
X0219124Y0097247D01*
X0219163Y0097225D01*
X0219199Y0097201D01*
X0219233Y0097173D01*
X0219265Y0097142D01*
X0219294Y0097108D01*
X0219320Y0097072D01*
X0219342Y0097034D01*
X0219361Y0096994D01*
X0219376Y0096952D01*
X0219388Y0096910D01*
X0219396Y0096866D01*
X0219400Y0096822D01*
X0219400Y0096778D01*
X0219396Y0096734D01*
X0219388Y0096690D01*
X0219376Y0096648D01*
X0219361Y0096606D01*
X0219342Y0096566D01*
X0219320Y0096528D01*
X0219294Y0096492D01*
X0219265Y0096458D01*
X0219233Y0096427D01*
X0219199Y0096399D01*
X0219163Y0096375D01*
X0219124Y0096353D01*
X0219084Y0096335D01*
X0219042Y0096321D01*
X0218999Y0096310D01*
X0218955Y0096303D01*
X0218911Y0096300D01*
X0218867Y0096301D01*
X0218823Y0096306D01*
X0218780Y0096315D01*
X0218737Y0096327D01*
X0218696Y0096344D01*
X0218656Y0096363D01*
X0218619Y0096387D01*
X0218583Y0096413D01*
X0218550Y0096443D01*
X0218520Y0096475D01*
X0218493Y0096510D01*
X0218469Y0096547D01*
X0218448Y0096586D01*
X0218431Y0096627D01*
X0218418Y0096669D01*
X0218408Y0096712D01*
X0218402Y0096756D01*
X0218400Y0096800D01*
X0201940Y0097000D02*
X0201942Y0097058D01*
X0201948Y0097116D01*
X0201958Y0097173D01*
X0201971Y0097230D01*
X0201989Y0097285D01*
X0202010Y0097339D01*
X0202034Y0097392D01*
X0202063Y0097443D01*
X0202094Y0097491D01*
X0202129Y0097538D01*
X0202167Y0097582D01*
X0202207Y0097623D01*
X0202251Y0097662D01*
X0202297Y0097697D01*
X0202345Y0097730D01*
X0202395Y0097759D01*
X0202448Y0097784D01*
X0202501Y0097806D01*
X0202556Y0097825D01*
X0202613Y0097839D01*
X0202670Y0097850D01*
X0202727Y0097857D01*
X0202785Y0097860D01*
X0202844Y0097859D01*
X0202901Y0097854D01*
X0202959Y0097845D01*
X0203016Y0097833D01*
X0203071Y0097816D01*
X0203126Y0097796D01*
X0203179Y0097772D01*
X0203230Y0097745D01*
X0203279Y0097714D01*
X0203326Y0097680D01*
X0203371Y0097643D01*
X0203413Y0097603D01*
X0203453Y0097560D01*
X0203489Y0097515D01*
X0203522Y0097467D01*
X0203552Y0097417D01*
X0203578Y0097366D01*
X0203601Y0097312D01*
X0203621Y0097257D01*
X0203636Y0097201D01*
X0203648Y0097145D01*
X0203656Y0097087D01*
X0203660Y0097029D01*
X0203660Y0096971D01*
X0203656Y0096913D01*
X0203648Y0096855D01*
X0203636Y0096799D01*
X0203621Y0096743D01*
X0203601Y0096688D01*
X0203578Y0096634D01*
X0203552Y0096583D01*
X0203522Y0096533D01*
X0203489Y0096485D01*
X0203453Y0096440D01*
X0203413Y0096397D01*
X0203371Y0096357D01*
X0203326Y0096320D01*
X0203279Y0096286D01*
X0203230Y0096255D01*
X0203179Y0096228D01*
X0203126Y0096204D01*
X0203071Y0096184D01*
X0203016Y0096167D01*
X0202959Y0096155D01*
X0202901Y0096146D01*
X0202844Y0096141D01*
X0202785Y0096140D01*
X0202727Y0096143D01*
X0202670Y0096150D01*
X0202613Y0096161D01*
X0202556Y0096175D01*
X0202501Y0096194D01*
X0202448Y0096216D01*
X0202395Y0096241D01*
X0202345Y0096270D01*
X0202297Y0096303D01*
X0202251Y0096338D01*
X0202207Y0096377D01*
X0202167Y0096418D01*
X0202129Y0096462D01*
X0202094Y0096509D01*
X0202063Y0096557D01*
X0202034Y0096608D01*
X0202010Y0096661D01*
X0201989Y0096715D01*
X0201971Y0096770D01*
X0201958Y0096827D01*
X0201948Y0096884D01*
X0201942Y0096942D01*
X0201940Y0097000D01*
X0202700Y0097000D02*
X0202702Y0097020D01*
X0202708Y0097038D01*
X0202717Y0097056D01*
X0202729Y0097071D01*
X0202744Y0097083D01*
X0202762Y0097092D01*
X0202780Y0097098D01*
X0202800Y0097100D01*
X0202820Y0097098D01*
X0202838Y0097092D01*
X0202856Y0097083D01*
X0202871Y0097071D01*
X0202883Y0097056D01*
X0202892Y0097038D01*
X0202898Y0097020D01*
X0202900Y0097000D01*
X0202898Y0096980D01*
X0202892Y0096962D01*
X0202883Y0096944D01*
X0202871Y0096929D01*
X0202856Y0096917D01*
X0202838Y0096908D01*
X0202820Y0096902D01*
X0202800Y0096900D01*
X0202780Y0096902D01*
X0202762Y0096908D01*
X0202744Y0096917D01*
X0202729Y0096929D01*
X0202717Y0096944D01*
X0202708Y0096962D01*
X0202702Y0096980D01*
X0202700Y0097000D01*
X0202300Y0097000D02*
X0202302Y0097044D01*
X0202308Y0097088D01*
X0202318Y0097131D01*
X0202331Y0097173D01*
X0202348Y0097214D01*
X0202369Y0097253D01*
X0202393Y0097290D01*
X0202420Y0097325D01*
X0202450Y0097357D01*
X0202483Y0097387D01*
X0202519Y0097413D01*
X0202556Y0097437D01*
X0202596Y0097456D01*
X0202637Y0097473D01*
X0202680Y0097485D01*
X0202723Y0097494D01*
X0202767Y0097499D01*
X0202811Y0097500D01*
X0202855Y0097497D01*
X0202899Y0097490D01*
X0202942Y0097479D01*
X0202984Y0097465D01*
X0203024Y0097447D01*
X0203063Y0097425D01*
X0203099Y0097401D01*
X0203133Y0097373D01*
X0203165Y0097342D01*
X0203194Y0097308D01*
X0203220Y0097272D01*
X0203242Y0097234D01*
X0203261Y0097194D01*
X0203276Y0097152D01*
X0203288Y0097110D01*
X0203296Y0097066D01*
X0203300Y0097022D01*
X0203300Y0096978D01*
X0203296Y0096934D01*
X0203288Y0096890D01*
X0203276Y0096848D01*
X0203261Y0096806D01*
X0203242Y0096766D01*
X0203220Y0096728D01*
X0203194Y0096692D01*
X0203165Y0096658D01*
X0203133Y0096627D01*
X0203099Y0096599D01*
X0203063Y0096575D01*
X0203024Y0096553D01*
X0202984Y0096535D01*
X0202942Y0096521D01*
X0202899Y0096510D01*
X0202855Y0096503D01*
X0202811Y0096500D01*
X0202767Y0096501D01*
X0202723Y0096506D01*
X0202680Y0096515D01*
X0202637Y0096527D01*
X0202596Y0096544D01*
X0202556Y0096563D01*
X0202519Y0096587D01*
X0202483Y0096613D01*
X0202450Y0096643D01*
X0202420Y0096675D01*
X0202393Y0096710D01*
X0202369Y0096747D01*
X0202348Y0096786D01*
X0202331Y0096827D01*
X0202318Y0096869D01*
X0202308Y0096912D01*
X0202302Y0096956D01*
X0202300Y0097000D01*
X0185340Y0097300D02*
X0185342Y0097358D01*
X0185348Y0097416D01*
X0185358Y0097473D01*
X0185371Y0097530D01*
X0185389Y0097585D01*
X0185410Y0097639D01*
X0185434Y0097692D01*
X0185463Y0097743D01*
X0185494Y0097791D01*
X0185529Y0097838D01*
X0185567Y0097882D01*
X0185607Y0097923D01*
X0185651Y0097962D01*
X0185697Y0097997D01*
X0185745Y0098030D01*
X0185795Y0098059D01*
X0185848Y0098084D01*
X0185901Y0098106D01*
X0185956Y0098125D01*
X0186013Y0098139D01*
X0186070Y0098150D01*
X0186127Y0098157D01*
X0186185Y0098160D01*
X0186244Y0098159D01*
X0186301Y0098154D01*
X0186359Y0098145D01*
X0186416Y0098133D01*
X0186471Y0098116D01*
X0186526Y0098096D01*
X0186579Y0098072D01*
X0186630Y0098045D01*
X0186679Y0098014D01*
X0186726Y0097980D01*
X0186771Y0097943D01*
X0186813Y0097903D01*
X0186853Y0097860D01*
X0186889Y0097815D01*
X0186922Y0097767D01*
X0186952Y0097717D01*
X0186978Y0097666D01*
X0187001Y0097612D01*
X0187021Y0097557D01*
X0187036Y0097501D01*
X0187048Y0097445D01*
X0187056Y0097387D01*
X0187060Y0097329D01*
X0187060Y0097271D01*
X0187056Y0097213D01*
X0187048Y0097155D01*
X0187036Y0097099D01*
X0187021Y0097043D01*
X0187001Y0096988D01*
X0186978Y0096934D01*
X0186952Y0096883D01*
X0186922Y0096833D01*
X0186889Y0096785D01*
X0186853Y0096740D01*
X0186813Y0096697D01*
X0186771Y0096657D01*
X0186726Y0096620D01*
X0186679Y0096586D01*
X0186630Y0096555D01*
X0186579Y0096528D01*
X0186526Y0096504D01*
X0186471Y0096484D01*
X0186416Y0096467D01*
X0186359Y0096455D01*
X0186301Y0096446D01*
X0186244Y0096441D01*
X0186185Y0096440D01*
X0186127Y0096443D01*
X0186070Y0096450D01*
X0186013Y0096461D01*
X0185956Y0096475D01*
X0185901Y0096494D01*
X0185848Y0096516D01*
X0185795Y0096541D01*
X0185745Y0096570D01*
X0185697Y0096603D01*
X0185651Y0096638D01*
X0185607Y0096677D01*
X0185567Y0096718D01*
X0185529Y0096762D01*
X0185494Y0096809D01*
X0185463Y0096857D01*
X0185434Y0096908D01*
X0185410Y0096961D01*
X0185389Y0097015D01*
X0185371Y0097070D01*
X0185358Y0097127D01*
X0185348Y0097184D01*
X0185342Y0097242D01*
X0185340Y0097300D01*
X0186100Y0097300D02*
X0186102Y0097320D01*
X0186108Y0097338D01*
X0186117Y0097356D01*
X0186129Y0097371D01*
X0186144Y0097383D01*
X0186162Y0097392D01*
X0186180Y0097398D01*
X0186200Y0097400D01*
X0186220Y0097398D01*
X0186238Y0097392D01*
X0186256Y0097383D01*
X0186271Y0097371D01*
X0186283Y0097356D01*
X0186292Y0097338D01*
X0186298Y0097320D01*
X0186300Y0097300D01*
X0186298Y0097280D01*
X0186292Y0097262D01*
X0186283Y0097244D01*
X0186271Y0097229D01*
X0186256Y0097217D01*
X0186238Y0097208D01*
X0186220Y0097202D01*
X0186200Y0097200D01*
X0186180Y0097202D01*
X0186162Y0097208D01*
X0186144Y0097217D01*
X0186129Y0097229D01*
X0186117Y0097244D01*
X0186108Y0097262D01*
X0186102Y0097280D01*
X0186100Y0097300D01*
X0185700Y0097300D02*
X0185702Y0097344D01*
X0185708Y0097388D01*
X0185718Y0097431D01*
X0185731Y0097473D01*
X0185748Y0097514D01*
X0185769Y0097553D01*
X0185793Y0097590D01*
X0185820Y0097625D01*
X0185850Y0097657D01*
X0185883Y0097687D01*
X0185919Y0097713D01*
X0185956Y0097737D01*
X0185996Y0097756D01*
X0186037Y0097773D01*
X0186080Y0097785D01*
X0186123Y0097794D01*
X0186167Y0097799D01*
X0186211Y0097800D01*
X0186255Y0097797D01*
X0186299Y0097790D01*
X0186342Y0097779D01*
X0186384Y0097765D01*
X0186424Y0097747D01*
X0186463Y0097725D01*
X0186499Y0097701D01*
X0186533Y0097673D01*
X0186565Y0097642D01*
X0186594Y0097608D01*
X0186620Y0097572D01*
X0186642Y0097534D01*
X0186661Y0097494D01*
X0186676Y0097452D01*
X0186688Y0097410D01*
X0186696Y0097366D01*
X0186700Y0097322D01*
X0186700Y0097278D01*
X0186696Y0097234D01*
X0186688Y0097190D01*
X0186676Y0097148D01*
X0186661Y0097106D01*
X0186642Y0097066D01*
X0186620Y0097028D01*
X0186594Y0096992D01*
X0186565Y0096958D01*
X0186533Y0096927D01*
X0186499Y0096899D01*
X0186463Y0096875D01*
X0186424Y0096853D01*
X0186384Y0096835D01*
X0186342Y0096821D01*
X0186299Y0096810D01*
X0186255Y0096803D01*
X0186211Y0096800D01*
X0186167Y0096801D01*
X0186123Y0096806D01*
X0186080Y0096815D01*
X0186037Y0096827D01*
X0185996Y0096844D01*
X0185956Y0096863D01*
X0185919Y0096887D01*
X0185883Y0096913D01*
X0185850Y0096943D01*
X0185820Y0096975D01*
X0185793Y0097010D01*
X0185769Y0097047D01*
X0185748Y0097086D01*
X0185731Y0097127D01*
X0185718Y0097169D01*
X0185708Y0097212D01*
X0185702Y0097256D01*
X0185700Y0097300D01*
X0234840Y0093100D02*
X0234842Y0093158D01*
X0234848Y0093216D01*
X0234858Y0093273D01*
X0234871Y0093330D01*
X0234889Y0093385D01*
X0234910Y0093439D01*
X0234934Y0093492D01*
X0234963Y0093543D01*
X0234994Y0093591D01*
X0235029Y0093638D01*
X0235067Y0093682D01*
X0235107Y0093723D01*
X0235151Y0093762D01*
X0235197Y0093797D01*
X0235245Y0093830D01*
X0235295Y0093859D01*
X0235348Y0093884D01*
X0235401Y0093906D01*
X0235456Y0093925D01*
X0235513Y0093939D01*
X0235570Y0093950D01*
X0235627Y0093957D01*
X0235685Y0093960D01*
X0235744Y0093959D01*
X0235801Y0093954D01*
X0235859Y0093945D01*
X0235916Y0093933D01*
X0235971Y0093916D01*
X0236026Y0093896D01*
X0236079Y0093872D01*
X0236130Y0093845D01*
X0236179Y0093814D01*
X0236226Y0093780D01*
X0236271Y0093743D01*
X0236313Y0093703D01*
X0236353Y0093660D01*
X0236389Y0093615D01*
X0236422Y0093567D01*
X0236452Y0093517D01*
X0236478Y0093466D01*
X0236501Y0093412D01*
X0236521Y0093357D01*
X0236536Y0093301D01*
X0236548Y0093245D01*
X0236556Y0093187D01*
X0236560Y0093129D01*
X0236560Y0093071D01*
X0236556Y0093013D01*
X0236548Y0092955D01*
X0236536Y0092899D01*
X0236521Y0092843D01*
X0236501Y0092788D01*
X0236478Y0092734D01*
X0236452Y0092683D01*
X0236422Y0092633D01*
X0236389Y0092585D01*
X0236353Y0092540D01*
X0236313Y0092497D01*
X0236271Y0092457D01*
X0236226Y0092420D01*
X0236179Y0092386D01*
X0236130Y0092355D01*
X0236079Y0092328D01*
X0236026Y0092304D01*
X0235971Y0092284D01*
X0235916Y0092267D01*
X0235859Y0092255D01*
X0235801Y0092246D01*
X0235744Y0092241D01*
X0235685Y0092240D01*
X0235627Y0092243D01*
X0235570Y0092250D01*
X0235513Y0092261D01*
X0235456Y0092275D01*
X0235401Y0092294D01*
X0235348Y0092316D01*
X0235295Y0092341D01*
X0235245Y0092370D01*
X0235197Y0092403D01*
X0235151Y0092438D01*
X0235107Y0092477D01*
X0235067Y0092518D01*
X0235029Y0092562D01*
X0234994Y0092609D01*
X0234963Y0092657D01*
X0234934Y0092708D01*
X0234910Y0092761D01*
X0234889Y0092815D01*
X0234871Y0092870D01*
X0234858Y0092927D01*
X0234848Y0092984D01*
X0234842Y0093042D01*
X0234840Y0093100D01*
X0235600Y0093100D02*
X0235602Y0093120D01*
X0235608Y0093138D01*
X0235617Y0093156D01*
X0235629Y0093171D01*
X0235644Y0093183D01*
X0235662Y0093192D01*
X0235680Y0093198D01*
X0235700Y0093200D01*
X0235720Y0093198D01*
X0235738Y0093192D01*
X0235756Y0093183D01*
X0235771Y0093171D01*
X0235783Y0093156D01*
X0235792Y0093138D01*
X0235798Y0093120D01*
X0235800Y0093100D01*
X0235798Y0093080D01*
X0235792Y0093062D01*
X0235783Y0093044D01*
X0235771Y0093029D01*
X0235756Y0093017D01*
X0235738Y0093008D01*
X0235720Y0093002D01*
X0235700Y0093000D01*
X0235680Y0093002D01*
X0235662Y0093008D01*
X0235644Y0093017D01*
X0235629Y0093029D01*
X0235617Y0093044D01*
X0235608Y0093062D01*
X0235602Y0093080D01*
X0235600Y0093100D01*
X0235200Y0093100D02*
X0235202Y0093144D01*
X0235208Y0093188D01*
X0235218Y0093231D01*
X0235231Y0093273D01*
X0235248Y0093314D01*
X0235269Y0093353D01*
X0235293Y0093390D01*
X0235320Y0093425D01*
X0235350Y0093457D01*
X0235383Y0093487D01*
X0235419Y0093513D01*
X0235456Y0093537D01*
X0235496Y0093556D01*
X0235537Y0093573D01*
X0235580Y0093585D01*
X0235623Y0093594D01*
X0235667Y0093599D01*
X0235711Y0093600D01*
X0235755Y0093597D01*
X0235799Y0093590D01*
X0235842Y0093579D01*
X0235884Y0093565D01*
X0235924Y0093547D01*
X0235963Y0093525D01*
X0235999Y0093501D01*
X0236033Y0093473D01*
X0236065Y0093442D01*
X0236094Y0093408D01*
X0236120Y0093372D01*
X0236142Y0093334D01*
X0236161Y0093294D01*
X0236176Y0093252D01*
X0236188Y0093210D01*
X0236196Y0093166D01*
X0236200Y0093122D01*
X0236200Y0093078D01*
X0236196Y0093034D01*
X0236188Y0092990D01*
X0236176Y0092948D01*
X0236161Y0092906D01*
X0236142Y0092866D01*
X0236120Y0092828D01*
X0236094Y0092792D01*
X0236065Y0092758D01*
X0236033Y0092727D01*
X0235999Y0092699D01*
X0235963Y0092675D01*
X0235924Y0092653D01*
X0235884Y0092635D01*
X0235842Y0092621D01*
X0235799Y0092610D01*
X0235755Y0092603D01*
X0235711Y0092600D01*
X0235667Y0092601D01*
X0235623Y0092606D01*
X0235580Y0092615D01*
X0235537Y0092627D01*
X0235496Y0092644D01*
X0235456Y0092663D01*
X0235419Y0092687D01*
X0235383Y0092713D01*
X0235350Y0092743D01*
X0235320Y0092775D01*
X0235293Y0092810D01*
X0235269Y0092847D01*
X0235248Y0092886D01*
X0235231Y0092927D01*
X0235218Y0092969D01*
X0235208Y0093012D01*
X0235202Y0093056D01*
X0235200Y0093100D01*
X0294973Y0146052D02*
X0294973Y0146445D01*
X0294973Y0146052D02*
X0297335Y0146052D01*
X0297335Y0148414D01*
X0297729Y0148020D01*
X0297729Y0146052D01*
X0297335Y0146052D01*
X0297729Y0146052D02*
X0302847Y0146052D01*
X0302847Y0146445D01*
X0302847Y0149595D02*
X0302847Y0149989D01*
X0297729Y0149989D01*
X0297729Y0148020D01*
X0297335Y0148414D02*
X0297335Y0149989D01*
X0297729Y0149989D01*
X0297335Y0149989D02*
X0294973Y0149989D01*
X0294973Y0149595D01*
X0233140Y0234900D02*
X0233142Y0234958D01*
X0233148Y0235016D01*
X0233158Y0235073D01*
X0233171Y0235130D01*
X0233189Y0235185D01*
X0233210Y0235239D01*
X0233234Y0235292D01*
X0233263Y0235343D01*
X0233294Y0235391D01*
X0233329Y0235438D01*
X0233367Y0235482D01*
X0233407Y0235523D01*
X0233451Y0235562D01*
X0233497Y0235597D01*
X0233545Y0235630D01*
X0233595Y0235659D01*
X0233648Y0235684D01*
X0233701Y0235706D01*
X0233756Y0235725D01*
X0233813Y0235739D01*
X0233870Y0235750D01*
X0233927Y0235757D01*
X0233985Y0235760D01*
X0234044Y0235759D01*
X0234101Y0235754D01*
X0234159Y0235745D01*
X0234216Y0235733D01*
X0234271Y0235716D01*
X0234326Y0235696D01*
X0234379Y0235672D01*
X0234430Y0235645D01*
X0234479Y0235614D01*
X0234526Y0235580D01*
X0234571Y0235543D01*
X0234613Y0235503D01*
X0234653Y0235460D01*
X0234689Y0235415D01*
X0234722Y0235367D01*
X0234752Y0235317D01*
X0234778Y0235266D01*
X0234801Y0235212D01*
X0234821Y0235157D01*
X0234836Y0235101D01*
X0234848Y0235045D01*
X0234856Y0234987D01*
X0234860Y0234929D01*
X0234860Y0234871D01*
X0234856Y0234813D01*
X0234848Y0234755D01*
X0234836Y0234699D01*
X0234821Y0234643D01*
X0234801Y0234588D01*
X0234778Y0234534D01*
X0234752Y0234483D01*
X0234722Y0234433D01*
X0234689Y0234385D01*
X0234653Y0234340D01*
X0234613Y0234297D01*
X0234571Y0234257D01*
X0234526Y0234220D01*
X0234479Y0234186D01*
X0234430Y0234155D01*
X0234379Y0234128D01*
X0234326Y0234104D01*
X0234271Y0234084D01*
X0234216Y0234067D01*
X0234159Y0234055D01*
X0234101Y0234046D01*
X0234044Y0234041D01*
X0233985Y0234040D01*
X0233927Y0234043D01*
X0233870Y0234050D01*
X0233813Y0234061D01*
X0233756Y0234075D01*
X0233701Y0234094D01*
X0233648Y0234116D01*
X0233595Y0234141D01*
X0233545Y0234170D01*
X0233497Y0234203D01*
X0233451Y0234238D01*
X0233407Y0234277D01*
X0233367Y0234318D01*
X0233329Y0234362D01*
X0233294Y0234409D01*
X0233263Y0234457D01*
X0233234Y0234508D01*
X0233210Y0234561D01*
X0233189Y0234615D01*
X0233171Y0234670D01*
X0233158Y0234727D01*
X0233148Y0234784D01*
X0233142Y0234842D01*
X0233140Y0234900D01*
X0233900Y0234900D02*
X0233902Y0234920D01*
X0233908Y0234938D01*
X0233917Y0234956D01*
X0233929Y0234971D01*
X0233944Y0234983D01*
X0233962Y0234992D01*
X0233980Y0234998D01*
X0234000Y0235000D01*
X0234020Y0234998D01*
X0234038Y0234992D01*
X0234056Y0234983D01*
X0234071Y0234971D01*
X0234083Y0234956D01*
X0234092Y0234938D01*
X0234098Y0234920D01*
X0234100Y0234900D01*
X0234098Y0234880D01*
X0234092Y0234862D01*
X0234083Y0234844D01*
X0234071Y0234829D01*
X0234056Y0234817D01*
X0234038Y0234808D01*
X0234020Y0234802D01*
X0234000Y0234800D01*
X0233980Y0234802D01*
X0233962Y0234808D01*
X0233944Y0234817D01*
X0233929Y0234829D01*
X0233917Y0234844D01*
X0233908Y0234862D01*
X0233902Y0234880D01*
X0233900Y0234900D01*
X0233500Y0234900D02*
X0233502Y0234944D01*
X0233508Y0234988D01*
X0233518Y0235031D01*
X0233531Y0235073D01*
X0233548Y0235114D01*
X0233569Y0235153D01*
X0233593Y0235190D01*
X0233620Y0235225D01*
X0233650Y0235257D01*
X0233683Y0235287D01*
X0233719Y0235313D01*
X0233756Y0235337D01*
X0233796Y0235356D01*
X0233837Y0235373D01*
X0233880Y0235385D01*
X0233923Y0235394D01*
X0233967Y0235399D01*
X0234011Y0235400D01*
X0234055Y0235397D01*
X0234099Y0235390D01*
X0234142Y0235379D01*
X0234184Y0235365D01*
X0234224Y0235347D01*
X0234263Y0235325D01*
X0234299Y0235301D01*
X0234333Y0235273D01*
X0234365Y0235242D01*
X0234394Y0235208D01*
X0234420Y0235172D01*
X0234442Y0235134D01*
X0234461Y0235094D01*
X0234476Y0235052D01*
X0234488Y0235010D01*
X0234496Y0234966D01*
X0234500Y0234922D01*
X0234500Y0234878D01*
X0234496Y0234834D01*
X0234488Y0234790D01*
X0234476Y0234748D01*
X0234461Y0234706D01*
X0234442Y0234666D01*
X0234420Y0234628D01*
X0234394Y0234592D01*
X0234365Y0234558D01*
X0234333Y0234527D01*
X0234299Y0234499D01*
X0234263Y0234475D01*
X0234224Y0234453D01*
X0234184Y0234435D01*
X0234142Y0234421D01*
X0234099Y0234410D01*
X0234055Y0234403D01*
X0234011Y0234400D01*
X0233967Y0234401D01*
X0233923Y0234406D01*
X0233880Y0234415D01*
X0233837Y0234427D01*
X0233796Y0234444D01*
X0233756Y0234463D01*
X0233719Y0234487D01*
X0233683Y0234513D01*
X0233650Y0234543D01*
X0233620Y0234575D01*
X0233593Y0234610D01*
X0233569Y0234647D01*
X0233548Y0234686D01*
X0233531Y0234727D01*
X0233518Y0234769D01*
X0233508Y0234812D01*
X0233502Y0234856D01*
X0233500Y0234900D01*
X0223440Y0243200D02*
X0223442Y0243258D01*
X0223448Y0243316D01*
X0223458Y0243373D01*
X0223471Y0243430D01*
X0223489Y0243485D01*
X0223510Y0243539D01*
X0223534Y0243592D01*
X0223563Y0243643D01*
X0223594Y0243691D01*
X0223629Y0243738D01*
X0223667Y0243782D01*
X0223707Y0243823D01*
X0223751Y0243862D01*
X0223797Y0243897D01*
X0223845Y0243930D01*
X0223895Y0243959D01*
X0223948Y0243984D01*
X0224001Y0244006D01*
X0224056Y0244025D01*
X0224113Y0244039D01*
X0224170Y0244050D01*
X0224227Y0244057D01*
X0224285Y0244060D01*
X0224344Y0244059D01*
X0224401Y0244054D01*
X0224459Y0244045D01*
X0224516Y0244033D01*
X0224571Y0244016D01*
X0224626Y0243996D01*
X0224679Y0243972D01*
X0224730Y0243945D01*
X0224779Y0243914D01*
X0224826Y0243880D01*
X0224871Y0243843D01*
X0224913Y0243803D01*
X0224953Y0243760D01*
X0224989Y0243715D01*
X0225022Y0243667D01*
X0225052Y0243617D01*
X0225078Y0243566D01*
X0225101Y0243512D01*
X0225121Y0243457D01*
X0225136Y0243401D01*
X0225148Y0243345D01*
X0225156Y0243287D01*
X0225160Y0243229D01*
X0225160Y0243171D01*
X0225156Y0243113D01*
X0225148Y0243055D01*
X0225136Y0242999D01*
X0225121Y0242943D01*
X0225101Y0242888D01*
X0225078Y0242834D01*
X0225052Y0242783D01*
X0225022Y0242733D01*
X0224989Y0242685D01*
X0224953Y0242640D01*
X0224913Y0242597D01*
X0224871Y0242557D01*
X0224826Y0242520D01*
X0224779Y0242486D01*
X0224730Y0242455D01*
X0224679Y0242428D01*
X0224626Y0242404D01*
X0224571Y0242384D01*
X0224516Y0242367D01*
X0224459Y0242355D01*
X0224401Y0242346D01*
X0224344Y0242341D01*
X0224285Y0242340D01*
X0224227Y0242343D01*
X0224170Y0242350D01*
X0224113Y0242361D01*
X0224056Y0242375D01*
X0224001Y0242394D01*
X0223948Y0242416D01*
X0223895Y0242441D01*
X0223845Y0242470D01*
X0223797Y0242503D01*
X0223751Y0242538D01*
X0223707Y0242577D01*
X0223667Y0242618D01*
X0223629Y0242662D01*
X0223594Y0242709D01*
X0223563Y0242757D01*
X0223534Y0242808D01*
X0223510Y0242861D01*
X0223489Y0242915D01*
X0223471Y0242970D01*
X0223458Y0243027D01*
X0223448Y0243084D01*
X0223442Y0243142D01*
X0223440Y0243200D01*
X0224200Y0243200D02*
X0224202Y0243220D01*
X0224208Y0243238D01*
X0224217Y0243256D01*
X0224229Y0243271D01*
X0224244Y0243283D01*
X0224262Y0243292D01*
X0224280Y0243298D01*
X0224300Y0243300D01*
X0224320Y0243298D01*
X0224338Y0243292D01*
X0224356Y0243283D01*
X0224371Y0243271D01*
X0224383Y0243256D01*
X0224392Y0243238D01*
X0224398Y0243220D01*
X0224400Y0243200D01*
X0224398Y0243180D01*
X0224392Y0243162D01*
X0224383Y0243144D01*
X0224371Y0243129D01*
X0224356Y0243117D01*
X0224338Y0243108D01*
X0224320Y0243102D01*
X0224300Y0243100D01*
X0224280Y0243102D01*
X0224262Y0243108D01*
X0224244Y0243117D01*
X0224229Y0243129D01*
X0224217Y0243144D01*
X0224208Y0243162D01*
X0224202Y0243180D01*
X0224200Y0243200D01*
X0223800Y0243200D02*
X0223802Y0243244D01*
X0223808Y0243288D01*
X0223818Y0243331D01*
X0223831Y0243373D01*
X0223848Y0243414D01*
X0223869Y0243453D01*
X0223893Y0243490D01*
X0223920Y0243525D01*
X0223950Y0243557D01*
X0223983Y0243587D01*
X0224019Y0243613D01*
X0224056Y0243637D01*
X0224096Y0243656D01*
X0224137Y0243673D01*
X0224180Y0243685D01*
X0224223Y0243694D01*
X0224267Y0243699D01*
X0224311Y0243700D01*
X0224355Y0243697D01*
X0224399Y0243690D01*
X0224442Y0243679D01*
X0224484Y0243665D01*
X0224524Y0243647D01*
X0224563Y0243625D01*
X0224599Y0243601D01*
X0224633Y0243573D01*
X0224665Y0243542D01*
X0224694Y0243508D01*
X0224720Y0243472D01*
X0224742Y0243434D01*
X0224761Y0243394D01*
X0224776Y0243352D01*
X0224788Y0243310D01*
X0224796Y0243266D01*
X0224800Y0243222D01*
X0224800Y0243178D01*
X0224796Y0243134D01*
X0224788Y0243090D01*
X0224776Y0243048D01*
X0224761Y0243006D01*
X0224742Y0242966D01*
X0224720Y0242928D01*
X0224694Y0242892D01*
X0224665Y0242858D01*
X0224633Y0242827D01*
X0224599Y0242799D01*
X0224563Y0242775D01*
X0224524Y0242753D01*
X0224484Y0242735D01*
X0224442Y0242721D01*
X0224399Y0242710D01*
X0224355Y0242703D01*
X0224311Y0242700D01*
X0224267Y0242701D01*
X0224223Y0242706D01*
X0224180Y0242715D01*
X0224137Y0242727D01*
X0224096Y0242744D01*
X0224056Y0242763D01*
X0224019Y0242787D01*
X0223983Y0242813D01*
X0223950Y0242843D01*
X0223920Y0242875D01*
X0223893Y0242910D01*
X0223869Y0242947D01*
X0223848Y0242986D01*
X0223831Y0243027D01*
X0223818Y0243069D01*
X0223808Y0243112D01*
X0223802Y0243156D01*
X0223800Y0243200D01*
X0204800Y0241200D02*
X0196800Y0241200D01*
X0185240Y0199400D02*
X0185242Y0199458D01*
X0185248Y0199516D01*
X0185258Y0199573D01*
X0185271Y0199630D01*
X0185289Y0199685D01*
X0185310Y0199739D01*
X0185334Y0199792D01*
X0185363Y0199843D01*
X0185394Y0199891D01*
X0185429Y0199938D01*
X0185467Y0199982D01*
X0185507Y0200023D01*
X0185551Y0200062D01*
X0185597Y0200097D01*
X0185645Y0200130D01*
X0185695Y0200159D01*
X0185748Y0200184D01*
X0185801Y0200206D01*
X0185856Y0200225D01*
X0185913Y0200239D01*
X0185970Y0200250D01*
X0186027Y0200257D01*
X0186085Y0200260D01*
X0186144Y0200259D01*
X0186201Y0200254D01*
X0186259Y0200245D01*
X0186316Y0200233D01*
X0186371Y0200216D01*
X0186426Y0200196D01*
X0186479Y0200172D01*
X0186530Y0200145D01*
X0186579Y0200114D01*
X0186626Y0200080D01*
X0186671Y0200043D01*
X0186713Y0200003D01*
X0186753Y0199960D01*
X0186789Y0199915D01*
X0186822Y0199867D01*
X0186852Y0199817D01*
X0186878Y0199766D01*
X0186901Y0199712D01*
X0186921Y0199657D01*
X0186936Y0199601D01*
X0186948Y0199545D01*
X0186956Y0199487D01*
X0186960Y0199429D01*
X0186960Y0199371D01*
X0186956Y0199313D01*
X0186948Y0199255D01*
X0186936Y0199199D01*
X0186921Y0199143D01*
X0186901Y0199088D01*
X0186878Y0199034D01*
X0186852Y0198983D01*
X0186822Y0198933D01*
X0186789Y0198885D01*
X0186753Y0198840D01*
X0186713Y0198797D01*
X0186671Y0198757D01*
X0186626Y0198720D01*
X0186579Y0198686D01*
X0186530Y0198655D01*
X0186479Y0198628D01*
X0186426Y0198604D01*
X0186371Y0198584D01*
X0186316Y0198567D01*
X0186259Y0198555D01*
X0186201Y0198546D01*
X0186144Y0198541D01*
X0186085Y0198540D01*
X0186027Y0198543D01*
X0185970Y0198550D01*
X0185913Y0198561D01*
X0185856Y0198575D01*
X0185801Y0198594D01*
X0185748Y0198616D01*
X0185695Y0198641D01*
X0185645Y0198670D01*
X0185597Y0198703D01*
X0185551Y0198738D01*
X0185507Y0198777D01*
X0185467Y0198818D01*
X0185429Y0198862D01*
X0185394Y0198909D01*
X0185363Y0198957D01*
X0185334Y0199008D01*
X0185310Y0199061D01*
X0185289Y0199115D01*
X0185271Y0199170D01*
X0185258Y0199227D01*
X0185248Y0199284D01*
X0185242Y0199342D01*
X0185240Y0199400D01*
X0186000Y0199400D02*
X0186002Y0199420D01*
X0186008Y0199438D01*
X0186017Y0199456D01*
X0186029Y0199471D01*
X0186044Y0199483D01*
X0186062Y0199492D01*
X0186080Y0199498D01*
X0186100Y0199500D01*
X0186120Y0199498D01*
X0186138Y0199492D01*
X0186156Y0199483D01*
X0186171Y0199471D01*
X0186183Y0199456D01*
X0186192Y0199438D01*
X0186198Y0199420D01*
X0186200Y0199400D01*
X0186198Y0199380D01*
X0186192Y0199362D01*
X0186183Y0199344D01*
X0186171Y0199329D01*
X0186156Y0199317D01*
X0186138Y0199308D01*
X0186120Y0199302D01*
X0186100Y0199300D01*
X0186080Y0199302D01*
X0186062Y0199308D01*
X0186044Y0199317D01*
X0186029Y0199329D01*
X0186017Y0199344D01*
X0186008Y0199362D01*
X0186002Y0199380D01*
X0186000Y0199400D01*
X0185600Y0199400D02*
X0185602Y0199444D01*
X0185608Y0199488D01*
X0185618Y0199531D01*
X0185631Y0199573D01*
X0185648Y0199614D01*
X0185669Y0199653D01*
X0185693Y0199690D01*
X0185720Y0199725D01*
X0185750Y0199757D01*
X0185783Y0199787D01*
X0185819Y0199813D01*
X0185856Y0199837D01*
X0185896Y0199856D01*
X0185937Y0199873D01*
X0185980Y0199885D01*
X0186023Y0199894D01*
X0186067Y0199899D01*
X0186111Y0199900D01*
X0186155Y0199897D01*
X0186199Y0199890D01*
X0186242Y0199879D01*
X0186284Y0199865D01*
X0186324Y0199847D01*
X0186363Y0199825D01*
X0186399Y0199801D01*
X0186433Y0199773D01*
X0186465Y0199742D01*
X0186494Y0199708D01*
X0186520Y0199672D01*
X0186542Y0199634D01*
X0186561Y0199594D01*
X0186576Y0199552D01*
X0186588Y0199510D01*
X0186596Y0199466D01*
X0186600Y0199422D01*
X0186600Y0199378D01*
X0186596Y0199334D01*
X0186588Y0199290D01*
X0186576Y0199248D01*
X0186561Y0199206D01*
X0186542Y0199166D01*
X0186520Y0199128D01*
X0186494Y0199092D01*
X0186465Y0199058D01*
X0186433Y0199027D01*
X0186399Y0198999D01*
X0186363Y0198975D01*
X0186324Y0198953D01*
X0186284Y0198935D01*
X0186242Y0198921D01*
X0186199Y0198910D01*
X0186155Y0198903D01*
X0186111Y0198900D01*
X0186067Y0198901D01*
X0186023Y0198906D01*
X0185980Y0198915D01*
X0185937Y0198927D01*
X0185896Y0198944D01*
X0185856Y0198963D01*
X0185819Y0198987D01*
X0185783Y0199013D01*
X0185750Y0199043D01*
X0185720Y0199075D01*
X0185693Y0199110D01*
X0185669Y0199147D01*
X0185648Y0199186D01*
X0185631Y0199227D01*
X0185618Y0199269D01*
X0185608Y0199312D01*
X0185602Y0199356D01*
X0185600Y0199400D01*
X0256870Y0245720D02*
X0256870Y0253220D01*
X0256370Y0261220D02*
X0256370Y0265220D01*
X0257370Y0266220D01*
X0264870Y0266220D01*
X0266370Y0264720D01*
X0266370Y0261720D01*
X0265870Y0253220D02*
X0265870Y0245720D01*
X0256870Y0245720D01*
X0148440Y0288400D02*
X0148442Y0288458D01*
X0148448Y0288516D01*
X0148458Y0288573D01*
X0148471Y0288630D01*
X0148489Y0288685D01*
X0148510Y0288739D01*
X0148534Y0288792D01*
X0148563Y0288843D01*
X0148594Y0288891D01*
X0148629Y0288938D01*
X0148667Y0288982D01*
X0148707Y0289023D01*
X0148751Y0289062D01*
X0148797Y0289097D01*
X0148845Y0289130D01*
X0148895Y0289159D01*
X0148948Y0289184D01*
X0149001Y0289206D01*
X0149056Y0289225D01*
X0149113Y0289239D01*
X0149170Y0289250D01*
X0149227Y0289257D01*
X0149285Y0289260D01*
X0149344Y0289259D01*
X0149401Y0289254D01*
X0149459Y0289245D01*
X0149516Y0289233D01*
X0149571Y0289216D01*
X0149626Y0289196D01*
X0149679Y0289172D01*
X0149730Y0289145D01*
X0149779Y0289114D01*
X0149826Y0289080D01*
X0149871Y0289043D01*
X0149913Y0289003D01*
X0149953Y0288960D01*
X0149989Y0288915D01*
X0150022Y0288867D01*
X0150052Y0288817D01*
X0150078Y0288766D01*
X0150101Y0288712D01*
X0150121Y0288657D01*
X0150136Y0288601D01*
X0150148Y0288545D01*
X0150156Y0288487D01*
X0150160Y0288429D01*
X0150160Y0288371D01*
X0150156Y0288313D01*
X0150148Y0288255D01*
X0150136Y0288199D01*
X0150121Y0288143D01*
X0150101Y0288088D01*
X0150078Y0288034D01*
X0150052Y0287983D01*
X0150022Y0287933D01*
X0149989Y0287885D01*
X0149953Y0287840D01*
X0149913Y0287797D01*
X0149871Y0287757D01*
X0149826Y0287720D01*
X0149779Y0287686D01*
X0149730Y0287655D01*
X0149679Y0287628D01*
X0149626Y0287604D01*
X0149571Y0287584D01*
X0149516Y0287567D01*
X0149459Y0287555D01*
X0149401Y0287546D01*
X0149344Y0287541D01*
X0149285Y0287540D01*
X0149227Y0287543D01*
X0149170Y0287550D01*
X0149113Y0287561D01*
X0149056Y0287575D01*
X0149001Y0287594D01*
X0148948Y0287616D01*
X0148895Y0287641D01*
X0148845Y0287670D01*
X0148797Y0287703D01*
X0148751Y0287738D01*
X0148707Y0287777D01*
X0148667Y0287818D01*
X0148629Y0287862D01*
X0148594Y0287909D01*
X0148563Y0287957D01*
X0148534Y0288008D01*
X0148510Y0288061D01*
X0148489Y0288115D01*
X0148471Y0288170D01*
X0148458Y0288227D01*
X0148448Y0288284D01*
X0148442Y0288342D01*
X0148440Y0288400D01*
X0149200Y0288400D02*
X0149202Y0288420D01*
X0149208Y0288438D01*
X0149217Y0288456D01*
X0149229Y0288471D01*
X0149244Y0288483D01*
X0149262Y0288492D01*
X0149280Y0288498D01*
X0149300Y0288500D01*
X0149320Y0288498D01*
X0149338Y0288492D01*
X0149356Y0288483D01*
X0149371Y0288471D01*
X0149383Y0288456D01*
X0149392Y0288438D01*
X0149398Y0288420D01*
X0149400Y0288400D01*
X0149398Y0288380D01*
X0149392Y0288362D01*
X0149383Y0288344D01*
X0149371Y0288329D01*
X0149356Y0288317D01*
X0149338Y0288308D01*
X0149320Y0288302D01*
X0149300Y0288300D01*
X0149280Y0288302D01*
X0149262Y0288308D01*
X0149244Y0288317D01*
X0149229Y0288329D01*
X0149217Y0288344D01*
X0149208Y0288362D01*
X0149202Y0288380D01*
X0149200Y0288400D01*
X0148800Y0288400D02*
X0148802Y0288444D01*
X0148808Y0288488D01*
X0148818Y0288531D01*
X0148831Y0288573D01*
X0148848Y0288614D01*
X0148869Y0288653D01*
X0148893Y0288690D01*
X0148920Y0288725D01*
X0148950Y0288757D01*
X0148983Y0288787D01*
X0149019Y0288813D01*
X0149056Y0288837D01*
X0149096Y0288856D01*
X0149137Y0288873D01*
X0149180Y0288885D01*
X0149223Y0288894D01*
X0149267Y0288899D01*
X0149311Y0288900D01*
X0149355Y0288897D01*
X0149399Y0288890D01*
X0149442Y0288879D01*
X0149484Y0288865D01*
X0149524Y0288847D01*
X0149563Y0288825D01*
X0149599Y0288801D01*
X0149633Y0288773D01*
X0149665Y0288742D01*
X0149694Y0288708D01*
X0149720Y0288672D01*
X0149742Y0288634D01*
X0149761Y0288594D01*
X0149776Y0288552D01*
X0149788Y0288510D01*
X0149796Y0288466D01*
X0149800Y0288422D01*
X0149800Y0288378D01*
X0149796Y0288334D01*
X0149788Y0288290D01*
X0149776Y0288248D01*
X0149761Y0288206D01*
X0149742Y0288166D01*
X0149720Y0288128D01*
X0149694Y0288092D01*
X0149665Y0288058D01*
X0149633Y0288027D01*
X0149599Y0287999D01*
X0149563Y0287975D01*
X0149524Y0287953D01*
X0149484Y0287935D01*
X0149442Y0287921D01*
X0149399Y0287910D01*
X0149355Y0287903D01*
X0149311Y0287900D01*
X0149267Y0287901D01*
X0149223Y0287906D01*
X0149180Y0287915D01*
X0149137Y0287927D01*
X0149096Y0287944D01*
X0149056Y0287963D01*
X0149019Y0287987D01*
X0148983Y0288013D01*
X0148950Y0288043D01*
X0148920Y0288075D01*
X0148893Y0288110D01*
X0148869Y0288147D01*
X0148848Y0288186D01*
X0148831Y0288227D01*
X0148818Y0288269D01*
X0148808Y0288312D01*
X0148802Y0288356D01*
X0148800Y0288400D01*
D12*
X0134053Y0286481D02*
X0134053Y0284119D01*
X0128147Y0283922D02*
X0128147Y0286284D01*
X0127353Y0277381D02*
X0127353Y0275019D01*
X0121447Y0274822D02*
X0121447Y0277184D01*
X0097962Y0226881D02*
X0097962Y0224519D01*
X0093238Y0224519D02*
X0093238Y0226881D01*
X0073062Y0210381D02*
X0073062Y0208019D01*
X0068338Y0208019D02*
X0068338Y0210381D01*
X0067953Y0192778D02*
X0067953Y0190416D01*
X0062047Y0190219D02*
X0062047Y0192581D01*
X0057353Y0192678D02*
X0057353Y0190316D01*
X0051447Y0190119D02*
X0051447Y0192481D01*
X0103701Y0154998D02*
X0103701Y0140802D01*
X0122299Y0140802D02*
X0122299Y0154998D01*
X0137419Y0168238D02*
X0139781Y0168238D01*
X0139781Y0172962D02*
X0137419Y0172962D01*
X0137519Y0178038D02*
X0139881Y0178038D01*
X0139881Y0182762D02*
X0137519Y0182762D01*
X0066981Y0125062D02*
X0064619Y0125062D01*
X0064619Y0120338D02*
X0066981Y0120338D01*
X0066755Y0113689D02*
X0062645Y0113689D01*
X0059472Y0113689D02*
X0059102Y0113689D01*
X0059102Y0107311D01*
X0059472Y0107311D01*
X0062645Y0107311D02*
X0063015Y0107311D01*
X0066385Y0107311D02*
X0066755Y0107311D01*
X0069928Y0107311D02*
X0070298Y0107311D01*
X0070298Y0113689D01*
X0069928Y0113689D01*
X0076319Y0111638D02*
X0078681Y0111638D01*
X0078681Y0116362D02*
X0076319Y0116362D01*
X0057762Y0133819D02*
X0057762Y0136181D01*
X0053038Y0136181D02*
X0053038Y0133819D01*
X0127601Y0108698D02*
X0127601Y0094502D01*
X0146199Y0094502D02*
X0146199Y0108698D01*
X0151601Y0107898D02*
X0151601Y0093702D01*
X0170199Y0093702D02*
X0170199Y0107898D01*
X0224301Y0198902D02*
X0224301Y0213098D01*
X0242899Y0213098D02*
X0242899Y0198902D01*
X0287659Y0177242D02*
X0290021Y0177242D01*
X0290021Y0172518D02*
X0287659Y0172518D01*
D13*
X0286726Y0180857D02*
X0278852Y0180857D01*
X0274915Y0184794D01*
X0274915Y0196606D01*
X0278852Y0200543D01*
X0286726Y0200543D01*
X0280400Y0213198D02*
X0280400Y0239002D01*
X0304000Y0239000D01*
X0304000Y0213200D02*
X0280400Y0213198D01*
X0302474Y0200543D02*
X0314285Y0200543D01*
X0314285Y0180857D01*
X0302474Y0180857D01*
X0243024Y0130043D02*
X0243024Y0110357D01*
X0234659Y0112326D02*
X0234661Y0112385D01*
X0234667Y0112444D01*
X0234677Y0112502D01*
X0234690Y0112560D01*
X0234708Y0112616D01*
X0234729Y0112671D01*
X0234754Y0112725D01*
X0234783Y0112777D01*
X0234814Y0112827D01*
X0234849Y0112874D01*
X0234888Y0112920D01*
X0234929Y0112962D01*
X0234973Y0113002D01*
X0235019Y0113038D01*
X0235068Y0113072D01*
X0235119Y0113102D01*
X0235171Y0113129D01*
X0235226Y0113152D01*
X0235282Y0113171D01*
X0235339Y0113187D01*
X0235397Y0113199D01*
X0235455Y0113207D01*
X0235514Y0113211D01*
X0235574Y0113211D01*
X0235633Y0113207D01*
X0235691Y0113199D01*
X0235749Y0113187D01*
X0235806Y0113171D01*
X0235862Y0113152D01*
X0235917Y0113129D01*
X0235969Y0113102D01*
X0236020Y0113072D01*
X0236069Y0113038D01*
X0236115Y0113002D01*
X0236159Y0112962D01*
X0236200Y0112920D01*
X0236239Y0112874D01*
X0236274Y0112827D01*
X0236305Y0112777D01*
X0236334Y0112725D01*
X0236359Y0112671D01*
X0236380Y0112616D01*
X0236398Y0112560D01*
X0236411Y0112502D01*
X0236421Y0112444D01*
X0236427Y0112385D01*
X0236429Y0112326D01*
X0236427Y0112267D01*
X0236421Y0112208D01*
X0236411Y0112150D01*
X0236398Y0112092D01*
X0236380Y0112036D01*
X0236359Y0111981D01*
X0236334Y0111927D01*
X0236305Y0111875D01*
X0236274Y0111825D01*
X0236239Y0111778D01*
X0236200Y0111732D01*
X0236159Y0111690D01*
X0236115Y0111650D01*
X0236069Y0111614D01*
X0236020Y0111580D01*
X0235969Y0111550D01*
X0235917Y0111523D01*
X0235862Y0111500D01*
X0235806Y0111481D01*
X0235749Y0111465D01*
X0235691Y0111453D01*
X0235633Y0111445D01*
X0235574Y0111441D01*
X0235514Y0111441D01*
X0235455Y0111445D01*
X0235397Y0111453D01*
X0235339Y0111465D01*
X0235282Y0111481D01*
X0235226Y0111500D01*
X0235171Y0111523D01*
X0235119Y0111550D01*
X0235068Y0111580D01*
X0235019Y0111614D01*
X0234973Y0111650D01*
X0234929Y0111690D01*
X0234888Y0111732D01*
X0234849Y0111778D01*
X0234814Y0111825D01*
X0234783Y0111875D01*
X0234754Y0111927D01*
X0234729Y0111981D01*
X0234708Y0112036D01*
X0234690Y0112092D01*
X0234677Y0112150D01*
X0234667Y0112208D01*
X0234661Y0112267D01*
X0234659Y0112326D01*
X0233182Y0110357D02*
X0233182Y0130043D01*
X0226024Y0130443D02*
X0226024Y0110757D01*
X0217659Y0112726D02*
X0217661Y0112785D01*
X0217667Y0112844D01*
X0217677Y0112902D01*
X0217690Y0112960D01*
X0217708Y0113016D01*
X0217729Y0113071D01*
X0217754Y0113125D01*
X0217783Y0113177D01*
X0217814Y0113227D01*
X0217849Y0113274D01*
X0217888Y0113320D01*
X0217929Y0113362D01*
X0217973Y0113402D01*
X0218019Y0113438D01*
X0218068Y0113472D01*
X0218119Y0113502D01*
X0218171Y0113529D01*
X0218226Y0113552D01*
X0218282Y0113571D01*
X0218339Y0113587D01*
X0218397Y0113599D01*
X0218455Y0113607D01*
X0218514Y0113611D01*
X0218574Y0113611D01*
X0218633Y0113607D01*
X0218691Y0113599D01*
X0218749Y0113587D01*
X0218806Y0113571D01*
X0218862Y0113552D01*
X0218917Y0113529D01*
X0218969Y0113502D01*
X0219020Y0113472D01*
X0219069Y0113438D01*
X0219115Y0113402D01*
X0219159Y0113362D01*
X0219200Y0113320D01*
X0219239Y0113274D01*
X0219274Y0113227D01*
X0219305Y0113177D01*
X0219334Y0113125D01*
X0219359Y0113071D01*
X0219380Y0113016D01*
X0219398Y0112960D01*
X0219411Y0112902D01*
X0219421Y0112844D01*
X0219427Y0112785D01*
X0219429Y0112726D01*
X0219427Y0112667D01*
X0219421Y0112608D01*
X0219411Y0112550D01*
X0219398Y0112492D01*
X0219380Y0112436D01*
X0219359Y0112381D01*
X0219334Y0112327D01*
X0219305Y0112275D01*
X0219274Y0112225D01*
X0219239Y0112178D01*
X0219200Y0112132D01*
X0219159Y0112090D01*
X0219115Y0112050D01*
X0219069Y0112014D01*
X0219020Y0111980D01*
X0218969Y0111950D01*
X0218917Y0111923D01*
X0218862Y0111900D01*
X0218806Y0111881D01*
X0218749Y0111865D01*
X0218691Y0111853D01*
X0218633Y0111845D01*
X0218574Y0111841D01*
X0218514Y0111841D01*
X0218455Y0111845D01*
X0218397Y0111853D01*
X0218339Y0111865D01*
X0218282Y0111881D01*
X0218226Y0111900D01*
X0218171Y0111923D01*
X0218119Y0111950D01*
X0218068Y0111980D01*
X0218019Y0112014D01*
X0217973Y0112050D01*
X0217929Y0112090D01*
X0217888Y0112132D01*
X0217849Y0112178D01*
X0217814Y0112225D01*
X0217783Y0112275D01*
X0217754Y0112327D01*
X0217729Y0112381D01*
X0217708Y0112436D01*
X0217690Y0112492D01*
X0217677Y0112550D01*
X0217667Y0112608D01*
X0217661Y0112667D01*
X0217659Y0112726D01*
X0216182Y0110757D02*
X0216182Y0130443D01*
X0210224Y0130543D02*
X0210224Y0110857D01*
X0201859Y0112826D02*
X0201861Y0112885D01*
X0201867Y0112944D01*
X0201877Y0113002D01*
X0201890Y0113060D01*
X0201908Y0113116D01*
X0201929Y0113171D01*
X0201954Y0113225D01*
X0201983Y0113277D01*
X0202014Y0113327D01*
X0202049Y0113374D01*
X0202088Y0113420D01*
X0202129Y0113462D01*
X0202173Y0113502D01*
X0202219Y0113538D01*
X0202268Y0113572D01*
X0202319Y0113602D01*
X0202371Y0113629D01*
X0202426Y0113652D01*
X0202482Y0113671D01*
X0202539Y0113687D01*
X0202597Y0113699D01*
X0202655Y0113707D01*
X0202714Y0113711D01*
X0202774Y0113711D01*
X0202833Y0113707D01*
X0202891Y0113699D01*
X0202949Y0113687D01*
X0203006Y0113671D01*
X0203062Y0113652D01*
X0203117Y0113629D01*
X0203169Y0113602D01*
X0203220Y0113572D01*
X0203269Y0113538D01*
X0203315Y0113502D01*
X0203359Y0113462D01*
X0203400Y0113420D01*
X0203439Y0113374D01*
X0203474Y0113327D01*
X0203505Y0113277D01*
X0203534Y0113225D01*
X0203559Y0113171D01*
X0203580Y0113116D01*
X0203598Y0113060D01*
X0203611Y0113002D01*
X0203621Y0112944D01*
X0203627Y0112885D01*
X0203629Y0112826D01*
X0203627Y0112767D01*
X0203621Y0112708D01*
X0203611Y0112650D01*
X0203598Y0112592D01*
X0203580Y0112536D01*
X0203559Y0112481D01*
X0203534Y0112427D01*
X0203505Y0112375D01*
X0203474Y0112325D01*
X0203439Y0112278D01*
X0203400Y0112232D01*
X0203359Y0112190D01*
X0203315Y0112150D01*
X0203269Y0112114D01*
X0203220Y0112080D01*
X0203169Y0112050D01*
X0203117Y0112023D01*
X0203062Y0112000D01*
X0203006Y0111981D01*
X0202949Y0111965D01*
X0202891Y0111953D01*
X0202833Y0111945D01*
X0202774Y0111941D01*
X0202714Y0111941D01*
X0202655Y0111945D01*
X0202597Y0111953D01*
X0202539Y0111965D01*
X0202482Y0111981D01*
X0202426Y0112000D01*
X0202371Y0112023D01*
X0202319Y0112050D01*
X0202268Y0112080D01*
X0202219Y0112114D01*
X0202173Y0112150D01*
X0202129Y0112190D01*
X0202088Y0112232D01*
X0202049Y0112278D01*
X0202014Y0112325D01*
X0201983Y0112375D01*
X0201954Y0112427D01*
X0201929Y0112481D01*
X0201908Y0112536D01*
X0201890Y0112592D01*
X0201877Y0112650D01*
X0201867Y0112708D01*
X0201861Y0112767D01*
X0201859Y0112826D01*
X0200382Y0110857D02*
X0200382Y0130543D01*
X0193324Y0130043D02*
X0193324Y0110357D01*
X0184959Y0112326D02*
X0184961Y0112385D01*
X0184967Y0112444D01*
X0184977Y0112502D01*
X0184990Y0112560D01*
X0185008Y0112616D01*
X0185029Y0112671D01*
X0185054Y0112725D01*
X0185083Y0112777D01*
X0185114Y0112827D01*
X0185149Y0112874D01*
X0185188Y0112920D01*
X0185229Y0112962D01*
X0185273Y0113002D01*
X0185319Y0113038D01*
X0185368Y0113072D01*
X0185419Y0113102D01*
X0185471Y0113129D01*
X0185526Y0113152D01*
X0185582Y0113171D01*
X0185639Y0113187D01*
X0185697Y0113199D01*
X0185755Y0113207D01*
X0185814Y0113211D01*
X0185874Y0113211D01*
X0185933Y0113207D01*
X0185991Y0113199D01*
X0186049Y0113187D01*
X0186106Y0113171D01*
X0186162Y0113152D01*
X0186217Y0113129D01*
X0186269Y0113102D01*
X0186320Y0113072D01*
X0186369Y0113038D01*
X0186415Y0113002D01*
X0186459Y0112962D01*
X0186500Y0112920D01*
X0186539Y0112874D01*
X0186574Y0112827D01*
X0186605Y0112777D01*
X0186634Y0112725D01*
X0186659Y0112671D01*
X0186680Y0112616D01*
X0186698Y0112560D01*
X0186711Y0112502D01*
X0186721Y0112444D01*
X0186727Y0112385D01*
X0186729Y0112326D01*
X0186727Y0112267D01*
X0186721Y0112208D01*
X0186711Y0112150D01*
X0186698Y0112092D01*
X0186680Y0112036D01*
X0186659Y0111981D01*
X0186634Y0111927D01*
X0186605Y0111875D01*
X0186574Y0111825D01*
X0186539Y0111778D01*
X0186500Y0111732D01*
X0186459Y0111690D01*
X0186415Y0111650D01*
X0186369Y0111614D01*
X0186320Y0111580D01*
X0186269Y0111550D01*
X0186217Y0111523D01*
X0186162Y0111500D01*
X0186106Y0111481D01*
X0186049Y0111465D01*
X0185991Y0111453D01*
X0185933Y0111445D01*
X0185874Y0111441D01*
X0185814Y0111441D01*
X0185755Y0111445D01*
X0185697Y0111453D01*
X0185639Y0111465D01*
X0185582Y0111481D01*
X0185526Y0111500D01*
X0185471Y0111523D01*
X0185419Y0111550D01*
X0185368Y0111580D01*
X0185319Y0111614D01*
X0185273Y0111650D01*
X0185229Y0111690D01*
X0185188Y0111732D01*
X0185149Y0111778D01*
X0185114Y0111825D01*
X0185083Y0111875D01*
X0185054Y0111927D01*
X0185029Y0111981D01*
X0185008Y0112036D01*
X0184990Y0112092D01*
X0184977Y0112150D01*
X0184967Y0112208D01*
X0184961Y0112267D01*
X0184959Y0112326D01*
X0183482Y0110357D02*
X0183482Y0130043D01*
X0167435Y0104700D02*
X0167437Y0104747D01*
X0167443Y0104794D01*
X0167453Y0104841D01*
X0167466Y0104886D01*
X0167484Y0104930D01*
X0167505Y0104972D01*
X0167529Y0105013D01*
X0167557Y0105051D01*
X0167588Y0105087D01*
X0167622Y0105120D01*
X0167658Y0105150D01*
X0167697Y0105177D01*
X0167738Y0105201D01*
X0167781Y0105221D01*
X0167825Y0105237D01*
X0167871Y0105250D01*
X0167917Y0105259D01*
X0167965Y0105264D01*
X0168012Y0105265D01*
X0168059Y0105262D01*
X0168106Y0105255D01*
X0168152Y0105244D01*
X0168197Y0105230D01*
X0168241Y0105211D01*
X0168282Y0105189D01*
X0168322Y0105164D01*
X0168360Y0105135D01*
X0168395Y0105104D01*
X0168428Y0105069D01*
X0168457Y0105032D01*
X0168483Y0104993D01*
X0168506Y0104951D01*
X0168525Y0104908D01*
X0168541Y0104863D01*
X0168553Y0104817D01*
X0168561Y0104771D01*
X0168565Y0104724D01*
X0168565Y0104676D01*
X0168561Y0104629D01*
X0168553Y0104583D01*
X0168541Y0104537D01*
X0168525Y0104492D01*
X0168506Y0104449D01*
X0168483Y0104407D01*
X0168457Y0104368D01*
X0168428Y0104331D01*
X0168395Y0104296D01*
X0168360Y0104265D01*
X0168322Y0104236D01*
X0168283Y0104211D01*
X0168241Y0104189D01*
X0168197Y0104170D01*
X0168152Y0104156D01*
X0168106Y0104145D01*
X0168059Y0104138D01*
X0168012Y0104135D01*
X0167965Y0104136D01*
X0167917Y0104141D01*
X0167871Y0104150D01*
X0167825Y0104163D01*
X0167781Y0104179D01*
X0167738Y0104199D01*
X0167697Y0104223D01*
X0167658Y0104250D01*
X0167622Y0104280D01*
X0167588Y0104313D01*
X0167557Y0104349D01*
X0167529Y0104387D01*
X0167505Y0104428D01*
X0167484Y0104470D01*
X0167466Y0104514D01*
X0167453Y0104559D01*
X0167443Y0104606D01*
X0167437Y0104653D01*
X0167435Y0104700D01*
X0143435Y0105500D02*
X0143437Y0105547D01*
X0143443Y0105594D01*
X0143453Y0105641D01*
X0143466Y0105686D01*
X0143484Y0105730D01*
X0143505Y0105772D01*
X0143529Y0105813D01*
X0143557Y0105851D01*
X0143588Y0105887D01*
X0143622Y0105920D01*
X0143658Y0105950D01*
X0143697Y0105977D01*
X0143738Y0106001D01*
X0143781Y0106021D01*
X0143825Y0106037D01*
X0143871Y0106050D01*
X0143917Y0106059D01*
X0143965Y0106064D01*
X0144012Y0106065D01*
X0144059Y0106062D01*
X0144106Y0106055D01*
X0144152Y0106044D01*
X0144197Y0106030D01*
X0144241Y0106011D01*
X0144282Y0105989D01*
X0144322Y0105964D01*
X0144360Y0105935D01*
X0144395Y0105904D01*
X0144428Y0105869D01*
X0144457Y0105832D01*
X0144483Y0105793D01*
X0144506Y0105751D01*
X0144525Y0105708D01*
X0144541Y0105663D01*
X0144553Y0105617D01*
X0144561Y0105571D01*
X0144565Y0105524D01*
X0144565Y0105476D01*
X0144561Y0105429D01*
X0144553Y0105383D01*
X0144541Y0105337D01*
X0144525Y0105292D01*
X0144506Y0105249D01*
X0144483Y0105207D01*
X0144457Y0105168D01*
X0144428Y0105131D01*
X0144395Y0105096D01*
X0144360Y0105065D01*
X0144322Y0105036D01*
X0144283Y0105011D01*
X0144241Y0104989D01*
X0144197Y0104970D01*
X0144152Y0104956D01*
X0144106Y0104945D01*
X0144059Y0104938D01*
X0144012Y0104935D01*
X0143965Y0104936D01*
X0143917Y0104941D01*
X0143871Y0104950D01*
X0143825Y0104963D01*
X0143781Y0104979D01*
X0143738Y0104999D01*
X0143697Y0105023D01*
X0143658Y0105050D01*
X0143622Y0105080D01*
X0143588Y0105113D01*
X0143557Y0105149D01*
X0143529Y0105187D01*
X0143505Y0105228D01*
X0143484Y0105270D01*
X0143466Y0105314D01*
X0143453Y0105359D01*
X0143443Y0105406D01*
X0143437Y0105453D01*
X0143435Y0105500D01*
X0124743Y0120441D02*
X0123169Y0120441D01*
X0123169Y0125559D01*
X0117657Y0125559D01*
X0123169Y0125559D02*
X0124743Y0125559D01*
X0123169Y0120441D02*
X0117657Y0120441D01*
X0094259Y0121143D02*
X0094259Y0115631D01*
X0089141Y0115631D01*
X0089141Y0121143D01*
X0089141Y0115631D02*
X0089141Y0114057D01*
X0094259Y0114057D02*
X0094259Y0115631D01*
X0084643Y0136941D02*
X0083069Y0136941D01*
X0083069Y0142059D01*
X0077557Y0142059D01*
X0072400Y0140891D02*
X0072400Y0137509D01*
X0077557Y0136941D02*
X0083069Y0136941D01*
X0083069Y0142059D02*
X0084643Y0142059D01*
X0067857Y0142391D02*
X0065743Y0142391D01*
X0061200Y0140891D02*
X0061200Y0137509D01*
X0058943Y0158741D02*
X0053431Y0158741D01*
X0053431Y0163859D01*
X0058943Y0163859D01*
X0053431Y0163859D02*
X0051857Y0163859D01*
X0051857Y0158741D02*
X0053431Y0158741D01*
X0085938Y0203401D02*
X0090662Y0203401D01*
X0098143Y0208519D02*
X0098143Y0210881D01*
X0090662Y0215999D02*
X0085938Y0215999D01*
X0078457Y0210881D02*
X0078457Y0208519D01*
X0102109Y0238800D02*
X0105491Y0238800D01*
X0106991Y0243343D02*
X0106991Y0245457D01*
X0105491Y0250000D02*
X0102109Y0250000D01*
X0077300Y0267700D02*
X0060300Y0267700D01*
X0056800Y0275771D02*
X0056800Y0283700D01*
X0060300Y0291700D02*
X0077300Y0291700D01*
X0080800Y0283700D02*
X0080800Y0275653D01*
X0061800Y0279700D02*
X0061802Y0279872D01*
X0061808Y0280043D01*
X0061819Y0280215D01*
X0061834Y0280386D01*
X0061853Y0280557D01*
X0061876Y0280727D01*
X0061903Y0280897D01*
X0061935Y0281066D01*
X0061970Y0281234D01*
X0062010Y0281401D01*
X0062054Y0281567D01*
X0062101Y0281732D01*
X0062153Y0281896D01*
X0062209Y0282058D01*
X0062269Y0282219D01*
X0062333Y0282379D01*
X0062401Y0282537D01*
X0062472Y0282693D01*
X0062547Y0282847D01*
X0062627Y0283000D01*
X0062709Y0283150D01*
X0062796Y0283299D01*
X0062886Y0283445D01*
X0062980Y0283589D01*
X0063077Y0283731D01*
X0063178Y0283870D01*
X0063282Y0284007D01*
X0063389Y0284141D01*
X0063500Y0284272D01*
X0063613Y0284401D01*
X0063730Y0284527D01*
X0063850Y0284650D01*
X0063973Y0284770D01*
X0064099Y0284887D01*
X0064228Y0285000D01*
X0064359Y0285111D01*
X0064493Y0285218D01*
X0064630Y0285322D01*
X0064769Y0285423D01*
X0064911Y0285520D01*
X0065055Y0285614D01*
X0065201Y0285704D01*
X0065350Y0285791D01*
X0065500Y0285873D01*
X0065653Y0285953D01*
X0065807Y0286028D01*
X0065963Y0286099D01*
X0066121Y0286167D01*
X0066281Y0286231D01*
X0066442Y0286291D01*
X0066604Y0286347D01*
X0066768Y0286399D01*
X0066933Y0286446D01*
X0067099Y0286490D01*
X0067266Y0286530D01*
X0067434Y0286565D01*
X0067603Y0286597D01*
X0067773Y0286624D01*
X0067943Y0286647D01*
X0068114Y0286666D01*
X0068285Y0286681D01*
X0068457Y0286692D01*
X0068628Y0286698D01*
X0068800Y0286700D01*
X0068972Y0286698D01*
X0069143Y0286692D01*
X0069315Y0286681D01*
X0069486Y0286666D01*
X0069657Y0286647D01*
X0069827Y0286624D01*
X0069997Y0286597D01*
X0070166Y0286565D01*
X0070334Y0286530D01*
X0070501Y0286490D01*
X0070667Y0286446D01*
X0070832Y0286399D01*
X0070996Y0286347D01*
X0071158Y0286291D01*
X0071319Y0286231D01*
X0071479Y0286167D01*
X0071637Y0286099D01*
X0071793Y0286028D01*
X0071947Y0285953D01*
X0072100Y0285873D01*
X0072250Y0285791D01*
X0072399Y0285704D01*
X0072545Y0285614D01*
X0072689Y0285520D01*
X0072831Y0285423D01*
X0072970Y0285322D01*
X0073107Y0285218D01*
X0073241Y0285111D01*
X0073372Y0285000D01*
X0073501Y0284887D01*
X0073627Y0284770D01*
X0073750Y0284650D01*
X0073870Y0284527D01*
X0073987Y0284401D01*
X0074100Y0284272D01*
X0074211Y0284141D01*
X0074318Y0284007D01*
X0074422Y0283870D01*
X0074523Y0283731D01*
X0074620Y0283589D01*
X0074714Y0283445D01*
X0074804Y0283299D01*
X0074891Y0283150D01*
X0074973Y0283000D01*
X0075053Y0282847D01*
X0075128Y0282693D01*
X0075199Y0282537D01*
X0075267Y0282379D01*
X0075331Y0282219D01*
X0075391Y0282058D01*
X0075447Y0281896D01*
X0075499Y0281732D01*
X0075546Y0281567D01*
X0075590Y0281401D01*
X0075630Y0281234D01*
X0075665Y0281066D01*
X0075697Y0280897D01*
X0075724Y0280727D01*
X0075747Y0280557D01*
X0075766Y0280386D01*
X0075781Y0280215D01*
X0075792Y0280043D01*
X0075798Y0279872D01*
X0075800Y0279700D01*
X0075798Y0279528D01*
X0075792Y0279357D01*
X0075781Y0279185D01*
X0075766Y0279014D01*
X0075747Y0278843D01*
X0075724Y0278673D01*
X0075697Y0278503D01*
X0075665Y0278334D01*
X0075630Y0278166D01*
X0075590Y0277999D01*
X0075546Y0277833D01*
X0075499Y0277668D01*
X0075447Y0277504D01*
X0075391Y0277342D01*
X0075331Y0277181D01*
X0075267Y0277021D01*
X0075199Y0276863D01*
X0075128Y0276707D01*
X0075053Y0276553D01*
X0074973Y0276400D01*
X0074891Y0276250D01*
X0074804Y0276101D01*
X0074714Y0275955D01*
X0074620Y0275811D01*
X0074523Y0275669D01*
X0074422Y0275530D01*
X0074318Y0275393D01*
X0074211Y0275259D01*
X0074100Y0275128D01*
X0073987Y0274999D01*
X0073870Y0274873D01*
X0073750Y0274750D01*
X0073627Y0274630D01*
X0073501Y0274513D01*
X0073372Y0274400D01*
X0073241Y0274289D01*
X0073107Y0274182D01*
X0072970Y0274078D01*
X0072831Y0273977D01*
X0072689Y0273880D01*
X0072545Y0273786D01*
X0072399Y0273696D01*
X0072250Y0273609D01*
X0072100Y0273527D01*
X0071947Y0273447D01*
X0071793Y0273372D01*
X0071637Y0273301D01*
X0071479Y0273233D01*
X0071319Y0273169D01*
X0071158Y0273109D01*
X0070996Y0273053D01*
X0070832Y0273001D01*
X0070667Y0272954D01*
X0070501Y0272910D01*
X0070334Y0272870D01*
X0070166Y0272835D01*
X0069997Y0272803D01*
X0069827Y0272776D01*
X0069657Y0272753D01*
X0069486Y0272734D01*
X0069315Y0272719D01*
X0069143Y0272708D01*
X0068972Y0272702D01*
X0068800Y0272700D01*
X0068628Y0272702D01*
X0068457Y0272708D01*
X0068285Y0272719D01*
X0068114Y0272734D01*
X0067943Y0272753D01*
X0067773Y0272776D01*
X0067603Y0272803D01*
X0067434Y0272835D01*
X0067266Y0272870D01*
X0067099Y0272910D01*
X0066933Y0272954D01*
X0066768Y0273001D01*
X0066604Y0273053D01*
X0066442Y0273109D01*
X0066281Y0273169D01*
X0066121Y0273233D01*
X0065963Y0273301D01*
X0065807Y0273372D01*
X0065653Y0273447D01*
X0065500Y0273527D01*
X0065350Y0273609D01*
X0065201Y0273696D01*
X0065055Y0273786D01*
X0064911Y0273880D01*
X0064769Y0273977D01*
X0064630Y0274078D01*
X0064493Y0274182D01*
X0064359Y0274289D01*
X0064228Y0274400D01*
X0064099Y0274513D01*
X0063973Y0274630D01*
X0063850Y0274750D01*
X0063730Y0274873D01*
X0063613Y0274999D01*
X0063500Y0275128D01*
X0063389Y0275259D01*
X0063282Y0275393D01*
X0063178Y0275530D01*
X0063077Y0275669D01*
X0062980Y0275811D01*
X0062886Y0275955D01*
X0062796Y0276101D01*
X0062709Y0276250D01*
X0062627Y0276400D01*
X0062547Y0276553D01*
X0062472Y0276707D01*
X0062401Y0276863D01*
X0062333Y0277021D01*
X0062269Y0277181D01*
X0062209Y0277342D01*
X0062153Y0277504D01*
X0062101Y0277668D01*
X0062054Y0277833D01*
X0062010Y0277999D01*
X0061970Y0278166D01*
X0061935Y0278334D01*
X0061903Y0278503D01*
X0061876Y0278673D01*
X0061853Y0278843D01*
X0061834Y0279014D01*
X0061819Y0279185D01*
X0061808Y0279357D01*
X0061802Y0279528D01*
X0061800Y0279700D01*
X0103663Y0277350D02*
X0103663Y0283650D01*
X0103662Y0283650D02*
X0103677Y0283711D01*
X0103695Y0283772D01*
X0103717Y0283831D01*
X0103742Y0283889D01*
X0103772Y0283944D01*
X0103804Y0283998D01*
X0103840Y0284050D01*
X0103879Y0284100D01*
X0103921Y0284147D01*
X0103966Y0284191D01*
X0104014Y0284232D01*
X0104064Y0284270D01*
X0104117Y0284305D01*
X0104171Y0284337D01*
X0104228Y0284365D01*
X0104286Y0284390D01*
X0104345Y0284411D01*
X0104406Y0284428D01*
X0104468Y0284441D01*
X0104530Y0284450D01*
X0104593Y0284456D01*
X0104656Y0284457D01*
X0104719Y0284454D01*
X0104782Y0284448D01*
X0104844Y0284438D01*
X0110356Y0284438D02*
X0110416Y0284448D01*
X0110476Y0284454D01*
X0110537Y0284457D01*
X0110597Y0284456D01*
X0110658Y0284452D01*
X0110718Y0284443D01*
X0110777Y0284432D01*
X0110836Y0284416D01*
X0110894Y0284397D01*
X0110950Y0284375D01*
X0111005Y0284349D01*
X0111058Y0284320D01*
X0111110Y0284288D01*
X0111159Y0284253D01*
X0111207Y0284215D01*
X0111251Y0284174D01*
X0111294Y0284131D01*
X0111333Y0284085D01*
X0111370Y0284037D01*
X0111404Y0283986D01*
X0111434Y0283934D01*
X0111462Y0283880D01*
X0111486Y0283824D01*
X0111507Y0283767D01*
X0111524Y0283709D01*
X0111538Y0283650D01*
X0111537Y0283650D02*
X0111537Y0277350D01*
X0111538Y0277350D02*
X0111524Y0277291D01*
X0111507Y0277233D01*
X0111486Y0277176D01*
X0111462Y0277120D01*
X0111434Y0277066D01*
X0111404Y0277014D01*
X0111370Y0276963D01*
X0111333Y0276915D01*
X0111294Y0276869D01*
X0111251Y0276826D01*
X0111207Y0276785D01*
X0111159Y0276747D01*
X0111110Y0276712D01*
X0111058Y0276680D01*
X0111005Y0276651D01*
X0110950Y0276625D01*
X0110894Y0276603D01*
X0110836Y0276584D01*
X0110777Y0276568D01*
X0110718Y0276557D01*
X0110658Y0276548D01*
X0110597Y0276544D01*
X0110537Y0276543D01*
X0110476Y0276546D01*
X0110416Y0276552D01*
X0110356Y0276562D01*
X0104844Y0276562D02*
X0104782Y0276552D01*
X0104719Y0276546D01*
X0104656Y0276543D01*
X0104593Y0276544D01*
X0104530Y0276550D01*
X0104468Y0276559D01*
X0104406Y0276572D01*
X0104345Y0276589D01*
X0104286Y0276610D01*
X0104228Y0276635D01*
X0104171Y0276663D01*
X0104117Y0276695D01*
X0104064Y0276730D01*
X0104014Y0276768D01*
X0103966Y0276809D01*
X0103921Y0276853D01*
X0103879Y0276900D01*
X0103840Y0276950D01*
X0103804Y0277002D01*
X0103772Y0277056D01*
X0103742Y0277111D01*
X0103717Y0277169D01*
X0103695Y0277228D01*
X0103677Y0277289D01*
X0103662Y0277350D01*
X0132877Y0241298D02*
X0131302Y0239723D01*
X0131302Y0205077D01*
X0132877Y0203502D01*
X0167523Y0203502D01*
X0169098Y0205077D01*
X0169098Y0239723D01*
X0167523Y0241298D01*
X0132877Y0241298D01*
X0172700Y0280200D02*
X0173800Y0279100D01*
X0172700Y0280200D02*
X0172700Y0284100D01*
X0172700Y0288000D01*
X0173800Y0289100D01*
X0173700Y0284100D02*
X0172700Y0284100D01*
X0181700Y0284100D02*
X0183700Y0284100D01*
X0191700Y0284100D02*
X0193700Y0284100D01*
X0201700Y0284100D02*
X0203700Y0284100D01*
X0211700Y0284100D02*
X0213700Y0284100D01*
X0221700Y0284100D02*
X0222700Y0284100D01*
X0222700Y0288000D01*
X0221600Y0289100D01*
X0222700Y0284100D02*
X0222700Y0280200D01*
X0221600Y0279100D01*
X0235500Y0277600D02*
X0238000Y0275100D01*
X0243000Y0275100D01*
X0245500Y0277600D01*
X0248000Y0275100D01*
X0253000Y0275100D01*
X0255500Y0277600D01*
X0258000Y0275100D01*
X0263000Y0275100D01*
X0265500Y0277600D01*
X0268000Y0275100D01*
X0273000Y0275100D01*
X0275500Y0277600D01*
X0278000Y0275100D01*
X0283000Y0275100D01*
X0285500Y0277600D01*
X0288000Y0275100D01*
X0293000Y0275100D01*
X0295500Y0277600D01*
X0295500Y0282600D01*
X0293000Y0285100D01*
X0288000Y0285100D01*
X0285500Y0282600D01*
X0283000Y0285100D01*
X0278000Y0285100D01*
X0275500Y0282600D01*
X0273000Y0285100D01*
X0268000Y0285100D01*
X0265500Y0282600D01*
X0263000Y0285100D01*
X0258000Y0285100D01*
X0255500Y0282600D01*
X0253000Y0285100D01*
X0248000Y0285100D01*
X0245500Y0282600D01*
X0243000Y0285100D01*
X0238000Y0285100D01*
X0235500Y0282600D01*
X0235500Y0277600D01*
X0205524Y0249936D02*
X0203950Y0251511D01*
X0197650Y0251511D01*
X0196076Y0249936D01*
X0196076Y0243637D01*
X0205524Y0243637D02*
X0205524Y0249936D01*
X0205524Y0235763D02*
X0205524Y0227889D01*
X0196076Y0227889D01*
X0196076Y0235763D01*
X0240135Y0209900D02*
X0240137Y0209947D01*
X0240143Y0209994D01*
X0240153Y0210041D01*
X0240166Y0210086D01*
X0240184Y0210130D01*
X0240205Y0210172D01*
X0240229Y0210213D01*
X0240257Y0210251D01*
X0240288Y0210287D01*
X0240322Y0210320D01*
X0240358Y0210350D01*
X0240397Y0210377D01*
X0240438Y0210401D01*
X0240481Y0210421D01*
X0240525Y0210437D01*
X0240571Y0210450D01*
X0240617Y0210459D01*
X0240665Y0210464D01*
X0240712Y0210465D01*
X0240759Y0210462D01*
X0240806Y0210455D01*
X0240852Y0210444D01*
X0240897Y0210430D01*
X0240941Y0210411D01*
X0240982Y0210389D01*
X0241022Y0210364D01*
X0241060Y0210335D01*
X0241095Y0210304D01*
X0241128Y0210269D01*
X0241157Y0210232D01*
X0241183Y0210193D01*
X0241206Y0210151D01*
X0241225Y0210108D01*
X0241241Y0210063D01*
X0241253Y0210017D01*
X0241261Y0209971D01*
X0241265Y0209924D01*
X0241265Y0209876D01*
X0241261Y0209829D01*
X0241253Y0209783D01*
X0241241Y0209737D01*
X0241225Y0209692D01*
X0241206Y0209649D01*
X0241183Y0209607D01*
X0241157Y0209568D01*
X0241128Y0209531D01*
X0241095Y0209496D01*
X0241060Y0209465D01*
X0241022Y0209436D01*
X0240983Y0209411D01*
X0240941Y0209389D01*
X0240897Y0209370D01*
X0240852Y0209356D01*
X0240806Y0209345D01*
X0240759Y0209338D01*
X0240712Y0209335D01*
X0240665Y0209336D01*
X0240617Y0209341D01*
X0240571Y0209350D01*
X0240525Y0209363D01*
X0240481Y0209379D01*
X0240438Y0209399D01*
X0240397Y0209423D01*
X0240358Y0209450D01*
X0240322Y0209480D01*
X0240288Y0209513D01*
X0240257Y0209549D01*
X0240229Y0209587D01*
X0240205Y0209628D01*
X0240184Y0209670D01*
X0240166Y0209714D01*
X0240153Y0209759D01*
X0240143Y0209806D01*
X0240137Y0209853D01*
X0240135Y0209900D01*
X0169143Y0165209D02*
X0163631Y0165209D01*
X0163631Y0160091D01*
X0169143Y0160091D01*
X0163631Y0160091D02*
X0162057Y0160091D01*
X0162057Y0165209D02*
X0163631Y0165209D01*
X0143043Y0162659D02*
X0141469Y0162659D01*
X0141469Y0157541D01*
X0135957Y0157541D01*
X0135957Y0162659D02*
X0141469Y0162659D01*
X0141469Y0157541D02*
X0143043Y0157541D01*
X0119535Y0151800D02*
X0119537Y0151847D01*
X0119543Y0151894D01*
X0119553Y0151941D01*
X0119566Y0151986D01*
X0119584Y0152030D01*
X0119605Y0152072D01*
X0119629Y0152113D01*
X0119657Y0152151D01*
X0119688Y0152187D01*
X0119722Y0152220D01*
X0119758Y0152250D01*
X0119797Y0152277D01*
X0119838Y0152301D01*
X0119881Y0152321D01*
X0119925Y0152337D01*
X0119971Y0152350D01*
X0120017Y0152359D01*
X0120065Y0152364D01*
X0120112Y0152365D01*
X0120159Y0152362D01*
X0120206Y0152355D01*
X0120252Y0152344D01*
X0120297Y0152330D01*
X0120341Y0152311D01*
X0120382Y0152289D01*
X0120422Y0152264D01*
X0120460Y0152235D01*
X0120495Y0152204D01*
X0120528Y0152169D01*
X0120557Y0152132D01*
X0120583Y0152093D01*
X0120606Y0152051D01*
X0120625Y0152008D01*
X0120641Y0151963D01*
X0120653Y0151917D01*
X0120661Y0151871D01*
X0120665Y0151824D01*
X0120665Y0151776D01*
X0120661Y0151729D01*
X0120653Y0151683D01*
X0120641Y0151637D01*
X0120625Y0151592D01*
X0120606Y0151549D01*
X0120583Y0151507D01*
X0120557Y0151468D01*
X0120528Y0151431D01*
X0120495Y0151396D01*
X0120460Y0151365D01*
X0120422Y0151336D01*
X0120383Y0151311D01*
X0120341Y0151289D01*
X0120297Y0151270D01*
X0120252Y0151256D01*
X0120206Y0151245D01*
X0120159Y0151238D01*
X0120112Y0151235D01*
X0120065Y0151236D01*
X0120017Y0151241D01*
X0119971Y0151250D01*
X0119925Y0151263D01*
X0119881Y0151279D01*
X0119838Y0151299D01*
X0119797Y0151323D01*
X0119758Y0151350D01*
X0119722Y0151380D01*
X0119688Y0151413D01*
X0119657Y0151449D01*
X0119629Y0151487D01*
X0119605Y0151528D01*
X0119584Y0151570D01*
X0119566Y0151614D01*
X0119553Y0151659D01*
X0119543Y0151706D01*
X0119537Y0151753D01*
X0119535Y0151800D01*
D14*
X0065400Y0172806D03*
X0054800Y0171906D03*
X0212900Y0217906D03*
X0243000Y0241606D03*
D15*
X0195433Y0200401D02*
X0192964Y0200401D01*
X0194198Y0199167D02*
X0194198Y0201636D01*
X0297364Y0177301D02*
X0299833Y0177301D01*
X0298598Y0176067D02*
X0298598Y0178536D01*
X0047436Y0111102D02*
X0044967Y0111102D01*
X0046201Y0112336D02*
X0046201Y0109867D01*
D16*
X0202791Y0195338D03*
X0202791Y0200062D03*
X0307191Y0176962D03*
X0307191Y0172238D03*
D17*
X0307191Y0174600D03*
X0202791Y0197700D03*
X0043500Y0102509D03*
D18*
X0045862Y0102509D03*
X0041138Y0102509D03*
D19*
X0278500Y0226100D03*
D20*
X0089387Y0158787D02*
X0074032Y0158787D01*
X0074032Y0154456D01*
X0074032Y0148944D02*
X0074032Y0144613D01*
X0089387Y0144613D01*
X0089387Y0145007D01*
X0089780Y0148944D02*
X0089780Y0154456D01*
X0089387Y0158393D02*
X0089387Y0158787D01*
D21*
X0090491Y0077965D02*
X0090493Y0078097D01*
X0090499Y0078230D01*
X0090509Y0078362D01*
X0090523Y0078494D01*
X0090540Y0078625D01*
X0090562Y0078756D01*
X0090588Y0078886D01*
X0090617Y0079015D01*
X0090651Y0079143D01*
X0090688Y0079270D01*
X0090729Y0079396D01*
X0090773Y0079521D01*
X0090822Y0079645D01*
X0090874Y0079766D01*
X0090930Y0079887D01*
X0090989Y0080005D01*
X0091052Y0080122D01*
X0091118Y0080237D01*
X0091188Y0080349D01*
X0091261Y0080460D01*
X0091337Y0080568D01*
X0091416Y0080674D01*
X0091499Y0080778D01*
X0091585Y0080879D01*
X0091673Y0080977D01*
X0091765Y0081073D01*
X0091859Y0081166D01*
X0091956Y0081256D01*
X0092056Y0081344D01*
X0092159Y0081428D01*
X0092263Y0081509D01*
X0092371Y0081587D01*
X0092480Y0081661D01*
X0092592Y0081733D01*
X0092706Y0081801D01*
X0092821Y0081865D01*
X0092939Y0081926D01*
X0093058Y0081984D01*
X0093179Y0082038D01*
X0093302Y0082088D01*
X0093426Y0082134D01*
X0093551Y0082177D01*
X0093678Y0082216D01*
X0093806Y0082252D01*
X0093934Y0082283D01*
X0094064Y0082311D01*
X0094194Y0082334D01*
X0094325Y0082354D01*
X0094457Y0082370D01*
X0094589Y0082382D01*
X0094721Y0082390D01*
X0094854Y0082394D01*
X0094986Y0082394D01*
X0095119Y0082390D01*
X0095251Y0082382D01*
X0095383Y0082370D01*
X0095515Y0082354D01*
X0095646Y0082334D01*
X0095776Y0082311D01*
X0095906Y0082283D01*
X0096034Y0082252D01*
X0096162Y0082216D01*
X0096289Y0082177D01*
X0096414Y0082134D01*
X0096538Y0082088D01*
X0096661Y0082038D01*
X0096782Y0081984D01*
X0096901Y0081926D01*
X0097019Y0081865D01*
X0097135Y0081801D01*
X0097248Y0081733D01*
X0097360Y0081661D01*
X0097469Y0081587D01*
X0097577Y0081509D01*
X0097681Y0081428D01*
X0097784Y0081344D01*
X0097884Y0081256D01*
X0097981Y0081166D01*
X0098075Y0081073D01*
X0098167Y0080977D01*
X0098255Y0080879D01*
X0098341Y0080778D01*
X0098424Y0080674D01*
X0098503Y0080568D01*
X0098579Y0080460D01*
X0098652Y0080349D01*
X0098722Y0080237D01*
X0098788Y0080122D01*
X0098851Y0080005D01*
X0098910Y0079887D01*
X0098966Y0079766D01*
X0099018Y0079645D01*
X0099067Y0079521D01*
X0099111Y0079396D01*
X0099152Y0079270D01*
X0099189Y0079143D01*
X0099223Y0079015D01*
X0099252Y0078886D01*
X0099278Y0078756D01*
X0099300Y0078625D01*
X0099317Y0078494D01*
X0099331Y0078362D01*
X0099341Y0078230D01*
X0099347Y0078097D01*
X0099349Y0077965D01*
X0099347Y0077833D01*
X0099341Y0077700D01*
X0099331Y0077568D01*
X0099317Y0077436D01*
X0099300Y0077305D01*
X0099278Y0077174D01*
X0099252Y0077044D01*
X0099223Y0076915D01*
X0099189Y0076787D01*
X0099152Y0076660D01*
X0099111Y0076534D01*
X0099067Y0076409D01*
X0099018Y0076285D01*
X0098966Y0076164D01*
X0098910Y0076043D01*
X0098851Y0075925D01*
X0098788Y0075808D01*
X0098722Y0075693D01*
X0098652Y0075581D01*
X0098579Y0075470D01*
X0098503Y0075362D01*
X0098424Y0075256D01*
X0098341Y0075152D01*
X0098255Y0075051D01*
X0098167Y0074953D01*
X0098075Y0074857D01*
X0097981Y0074764D01*
X0097884Y0074674D01*
X0097784Y0074586D01*
X0097681Y0074502D01*
X0097577Y0074421D01*
X0097469Y0074343D01*
X0097360Y0074269D01*
X0097248Y0074197D01*
X0097134Y0074129D01*
X0097019Y0074065D01*
X0096901Y0074004D01*
X0096782Y0073946D01*
X0096661Y0073892D01*
X0096538Y0073842D01*
X0096414Y0073796D01*
X0096289Y0073753D01*
X0096162Y0073714D01*
X0096034Y0073678D01*
X0095906Y0073647D01*
X0095776Y0073619D01*
X0095646Y0073596D01*
X0095515Y0073576D01*
X0095383Y0073560D01*
X0095251Y0073548D01*
X0095119Y0073540D01*
X0094986Y0073536D01*
X0094854Y0073536D01*
X0094721Y0073540D01*
X0094589Y0073548D01*
X0094457Y0073560D01*
X0094325Y0073576D01*
X0094194Y0073596D01*
X0094064Y0073619D01*
X0093934Y0073647D01*
X0093806Y0073678D01*
X0093678Y0073714D01*
X0093551Y0073753D01*
X0093426Y0073796D01*
X0093302Y0073842D01*
X0093179Y0073892D01*
X0093058Y0073946D01*
X0092939Y0074004D01*
X0092821Y0074065D01*
X0092705Y0074129D01*
X0092592Y0074197D01*
X0092480Y0074269D01*
X0092371Y0074343D01*
X0092263Y0074421D01*
X0092159Y0074502D01*
X0092056Y0074586D01*
X0091956Y0074674D01*
X0091859Y0074764D01*
X0091765Y0074857D01*
X0091673Y0074953D01*
X0091585Y0075051D01*
X0091499Y0075152D01*
X0091416Y0075256D01*
X0091337Y0075362D01*
X0091261Y0075470D01*
X0091188Y0075581D01*
X0091118Y0075693D01*
X0091052Y0075808D01*
X0090989Y0075925D01*
X0090930Y0076043D01*
X0090874Y0076164D01*
X0090822Y0076285D01*
X0090773Y0076409D01*
X0090729Y0076534D01*
X0090688Y0076660D01*
X0090651Y0076787D01*
X0090617Y0076915D01*
X0090588Y0077044D01*
X0090562Y0077174D01*
X0090540Y0077305D01*
X0090523Y0077436D01*
X0090509Y0077568D01*
X0090499Y0077700D01*
X0090493Y0077833D01*
X0090491Y0077965D01*
X0070629Y0062571D02*
X0070631Y0062769D01*
X0070639Y0062967D01*
X0070651Y0063165D01*
X0070668Y0063362D01*
X0070690Y0063559D01*
X0070716Y0063755D01*
X0070748Y0063951D01*
X0070784Y0064146D01*
X0070825Y0064339D01*
X0070871Y0064532D01*
X0070921Y0064724D01*
X0070977Y0064914D01*
X0071036Y0065103D01*
X0071101Y0065290D01*
X0071170Y0065476D01*
X0071243Y0065660D01*
X0071321Y0065842D01*
X0071404Y0066022D01*
X0071491Y0066200D01*
X0071582Y0066376D01*
X0071678Y0066549D01*
X0071777Y0066720D01*
X0071881Y0066889D01*
X0071989Y0067055D01*
X0072101Y0067218D01*
X0072217Y0067379D01*
X0072337Y0067537D01*
X0072461Y0067691D01*
X0072589Y0067843D01*
X0072720Y0067991D01*
X0072855Y0068136D01*
X0072993Y0068278D01*
X0073135Y0068416D01*
X0073280Y0068551D01*
X0073428Y0068682D01*
X0073580Y0068810D01*
X0073734Y0068934D01*
X0073892Y0069054D01*
X0074053Y0069170D01*
X0074216Y0069282D01*
X0074382Y0069390D01*
X0074551Y0069494D01*
X0074722Y0069593D01*
X0074895Y0069689D01*
X0075071Y0069780D01*
X0075249Y0069867D01*
X0075429Y0069950D01*
X0075611Y0070028D01*
X0075795Y0070101D01*
X0075981Y0070170D01*
X0076168Y0070235D01*
X0076357Y0070294D01*
X0076547Y0070350D01*
X0076739Y0070400D01*
X0076932Y0070446D01*
X0077125Y0070487D01*
X0077320Y0070523D01*
X0077516Y0070555D01*
X0077712Y0070581D01*
X0077909Y0070603D01*
X0078106Y0070620D01*
X0078304Y0070632D01*
X0078502Y0070640D01*
X0078700Y0070642D01*
X0078898Y0070640D01*
X0079096Y0070632D01*
X0079294Y0070620D01*
X0079491Y0070603D01*
X0079688Y0070581D01*
X0079884Y0070555D01*
X0080080Y0070523D01*
X0080275Y0070487D01*
X0080468Y0070446D01*
X0080661Y0070400D01*
X0080853Y0070350D01*
X0081043Y0070294D01*
X0081232Y0070235D01*
X0081419Y0070170D01*
X0081605Y0070101D01*
X0081789Y0070028D01*
X0081971Y0069950D01*
X0082151Y0069867D01*
X0082329Y0069780D01*
X0082505Y0069689D01*
X0082678Y0069593D01*
X0082849Y0069494D01*
X0083018Y0069390D01*
X0083184Y0069282D01*
X0083347Y0069170D01*
X0083508Y0069054D01*
X0083666Y0068934D01*
X0083820Y0068810D01*
X0083972Y0068682D01*
X0084120Y0068551D01*
X0084265Y0068416D01*
X0084407Y0068278D01*
X0084545Y0068136D01*
X0084680Y0067991D01*
X0084811Y0067843D01*
X0084939Y0067691D01*
X0085063Y0067537D01*
X0085183Y0067379D01*
X0085299Y0067218D01*
X0085411Y0067055D01*
X0085519Y0066889D01*
X0085623Y0066720D01*
X0085722Y0066549D01*
X0085818Y0066376D01*
X0085909Y0066200D01*
X0085996Y0066022D01*
X0086079Y0065842D01*
X0086157Y0065660D01*
X0086230Y0065476D01*
X0086299Y0065290D01*
X0086364Y0065103D01*
X0086423Y0064914D01*
X0086479Y0064724D01*
X0086529Y0064532D01*
X0086575Y0064339D01*
X0086616Y0064146D01*
X0086652Y0063951D01*
X0086684Y0063755D01*
X0086710Y0063559D01*
X0086732Y0063362D01*
X0086749Y0063165D01*
X0086761Y0062967D01*
X0086769Y0062769D01*
X0086771Y0062571D01*
X0086769Y0062373D01*
X0086761Y0062175D01*
X0086749Y0061977D01*
X0086732Y0061780D01*
X0086710Y0061583D01*
X0086684Y0061387D01*
X0086652Y0061191D01*
X0086616Y0060996D01*
X0086575Y0060803D01*
X0086529Y0060610D01*
X0086479Y0060418D01*
X0086423Y0060228D01*
X0086364Y0060039D01*
X0086299Y0059852D01*
X0086230Y0059666D01*
X0086157Y0059482D01*
X0086079Y0059300D01*
X0085996Y0059120D01*
X0085909Y0058942D01*
X0085818Y0058766D01*
X0085722Y0058593D01*
X0085623Y0058422D01*
X0085519Y0058253D01*
X0085411Y0058087D01*
X0085299Y0057924D01*
X0085183Y0057763D01*
X0085063Y0057605D01*
X0084939Y0057451D01*
X0084811Y0057299D01*
X0084680Y0057151D01*
X0084545Y0057006D01*
X0084407Y0056864D01*
X0084265Y0056726D01*
X0084120Y0056591D01*
X0083972Y0056460D01*
X0083820Y0056332D01*
X0083666Y0056208D01*
X0083508Y0056088D01*
X0083347Y0055972D01*
X0083184Y0055860D01*
X0083018Y0055752D01*
X0082849Y0055648D01*
X0082678Y0055549D01*
X0082505Y0055453D01*
X0082329Y0055362D01*
X0082151Y0055275D01*
X0081971Y0055192D01*
X0081789Y0055114D01*
X0081605Y0055041D01*
X0081419Y0054972D01*
X0081232Y0054907D01*
X0081043Y0054848D01*
X0080853Y0054792D01*
X0080661Y0054742D01*
X0080468Y0054696D01*
X0080275Y0054655D01*
X0080080Y0054619D01*
X0079884Y0054587D01*
X0079688Y0054561D01*
X0079491Y0054539D01*
X0079294Y0054522D01*
X0079096Y0054510D01*
X0078898Y0054502D01*
X0078700Y0054500D01*
X0078502Y0054502D01*
X0078304Y0054510D01*
X0078106Y0054522D01*
X0077909Y0054539D01*
X0077712Y0054561D01*
X0077516Y0054587D01*
X0077320Y0054619D01*
X0077125Y0054655D01*
X0076932Y0054696D01*
X0076739Y0054742D01*
X0076547Y0054792D01*
X0076357Y0054848D01*
X0076168Y0054907D01*
X0075981Y0054972D01*
X0075795Y0055041D01*
X0075611Y0055114D01*
X0075429Y0055192D01*
X0075249Y0055275D01*
X0075071Y0055362D01*
X0074895Y0055453D01*
X0074722Y0055549D01*
X0074551Y0055648D01*
X0074382Y0055752D01*
X0074216Y0055860D01*
X0074053Y0055972D01*
X0073892Y0056088D01*
X0073734Y0056208D01*
X0073580Y0056332D01*
X0073428Y0056460D01*
X0073280Y0056591D01*
X0073135Y0056726D01*
X0072993Y0056864D01*
X0072855Y0057006D01*
X0072720Y0057151D01*
X0072589Y0057299D01*
X0072461Y0057451D01*
X0072337Y0057605D01*
X0072217Y0057763D01*
X0072101Y0057924D01*
X0071989Y0058087D01*
X0071881Y0058253D01*
X0071777Y0058422D01*
X0071678Y0058593D01*
X0071582Y0058766D01*
X0071491Y0058942D01*
X0071404Y0059120D01*
X0071321Y0059300D01*
X0071243Y0059482D01*
X0071170Y0059666D01*
X0071101Y0059852D01*
X0071036Y0060039D01*
X0070977Y0060228D01*
X0070921Y0060418D01*
X0070871Y0060610D01*
X0070825Y0060803D01*
X0070784Y0060996D01*
X0070748Y0061191D01*
X0070716Y0061387D01*
X0070690Y0061583D01*
X0070668Y0061780D01*
X0070651Y0061977D01*
X0070639Y0062175D01*
X0070631Y0062373D01*
X0070629Y0062571D01*
X0258169Y0077886D02*
X0258171Y0078018D01*
X0258177Y0078151D01*
X0258187Y0078283D01*
X0258201Y0078415D01*
X0258218Y0078546D01*
X0258240Y0078677D01*
X0258266Y0078807D01*
X0258295Y0078936D01*
X0258329Y0079064D01*
X0258366Y0079191D01*
X0258407Y0079317D01*
X0258451Y0079442D01*
X0258500Y0079566D01*
X0258552Y0079687D01*
X0258608Y0079808D01*
X0258667Y0079926D01*
X0258730Y0080043D01*
X0258796Y0080158D01*
X0258866Y0080270D01*
X0258939Y0080381D01*
X0259015Y0080489D01*
X0259094Y0080595D01*
X0259177Y0080699D01*
X0259263Y0080800D01*
X0259351Y0080898D01*
X0259443Y0080994D01*
X0259537Y0081087D01*
X0259634Y0081177D01*
X0259734Y0081265D01*
X0259837Y0081349D01*
X0259941Y0081430D01*
X0260049Y0081508D01*
X0260158Y0081582D01*
X0260270Y0081654D01*
X0260384Y0081722D01*
X0260499Y0081786D01*
X0260617Y0081847D01*
X0260736Y0081905D01*
X0260857Y0081959D01*
X0260980Y0082009D01*
X0261104Y0082055D01*
X0261229Y0082098D01*
X0261356Y0082137D01*
X0261484Y0082173D01*
X0261612Y0082204D01*
X0261742Y0082232D01*
X0261872Y0082255D01*
X0262003Y0082275D01*
X0262135Y0082291D01*
X0262267Y0082303D01*
X0262399Y0082311D01*
X0262532Y0082315D01*
X0262664Y0082315D01*
X0262797Y0082311D01*
X0262929Y0082303D01*
X0263061Y0082291D01*
X0263193Y0082275D01*
X0263324Y0082255D01*
X0263454Y0082232D01*
X0263584Y0082204D01*
X0263712Y0082173D01*
X0263840Y0082137D01*
X0263967Y0082098D01*
X0264092Y0082055D01*
X0264216Y0082009D01*
X0264339Y0081959D01*
X0264460Y0081905D01*
X0264579Y0081847D01*
X0264697Y0081786D01*
X0264813Y0081722D01*
X0264926Y0081654D01*
X0265038Y0081582D01*
X0265147Y0081508D01*
X0265255Y0081430D01*
X0265359Y0081349D01*
X0265462Y0081265D01*
X0265562Y0081177D01*
X0265659Y0081087D01*
X0265753Y0080994D01*
X0265845Y0080898D01*
X0265933Y0080800D01*
X0266019Y0080699D01*
X0266102Y0080595D01*
X0266181Y0080489D01*
X0266257Y0080381D01*
X0266330Y0080270D01*
X0266400Y0080158D01*
X0266466Y0080043D01*
X0266529Y0079926D01*
X0266588Y0079808D01*
X0266644Y0079687D01*
X0266696Y0079566D01*
X0266745Y0079442D01*
X0266789Y0079317D01*
X0266830Y0079191D01*
X0266867Y0079064D01*
X0266901Y0078936D01*
X0266930Y0078807D01*
X0266956Y0078677D01*
X0266978Y0078546D01*
X0266995Y0078415D01*
X0267009Y0078283D01*
X0267019Y0078151D01*
X0267025Y0078018D01*
X0267027Y0077886D01*
X0267025Y0077754D01*
X0267019Y0077621D01*
X0267009Y0077489D01*
X0266995Y0077357D01*
X0266978Y0077226D01*
X0266956Y0077095D01*
X0266930Y0076965D01*
X0266901Y0076836D01*
X0266867Y0076708D01*
X0266830Y0076581D01*
X0266789Y0076455D01*
X0266745Y0076330D01*
X0266696Y0076206D01*
X0266644Y0076085D01*
X0266588Y0075964D01*
X0266529Y0075846D01*
X0266466Y0075729D01*
X0266400Y0075614D01*
X0266330Y0075502D01*
X0266257Y0075391D01*
X0266181Y0075283D01*
X0266102Y0075177D01*
X0266019Y0075073D01*
X0265933Y0074972D01*
X0265845Y0074874D01*
X0265753Y0074778D01*
X0265659Y0074685D01*
X0265562Y0074595D01*
X0265462Y0074507D01*
X0265359Y0074423D01*
X0265255Y0074342D01*
X0265147Y0074264D01*
X0265038Y0074190D01*
X0264926Y0074118D01*
X0264812Y0074050D01*
X0264697Y0073986D01*
X0264579Y0073925D01*
X0264460Y0073867D01*
X0264339Y0073813D01*
X0264216Y0073763D01*
X0264092Y0073717D01*
X0263967Y0073674D01*
X0263840Y0073635D01*
X0263712Y0073599D01*
X0263584Y0073568D01*
X0263454Y0073540D01*
X0263324Y0073517D01*
X0263193Y0073497D01*
X0263061Y0073481D01*
X0262929Y0073469D01*
X0262797Y0073461D01*
X0262664Y0073457D01*
X0262532Y0073457D01*
X0262399Y0073461D01*
X0262267Y0073469D01*
X0262135Y0073481D01*
X0262003Y0073497D01*
X0261872Y0073517D01*
X0261742Y0073540D01*
X0261612Y0073568D01*
X0261484Y0073599D01*
X0261356Y0073635D01*
X0261229Y0073674D01*
X0261104Y0073717D01*
X0260980Y0073763D01*
X0260857Y0073813D01*
X0260736Y0073867D01*
X0260617Y0073925D01*
X0260499Y0073986D01*
X0260383Y0074050D01*
X0260270Y0074118D01*
X0260158Y0074190D01*
X0260049Y0074264D01*
X0259941Y0074342D01*
X0259837Y0074423D01*
X0259734Y0074507D01*
X0259634Y0074595D01*
X0259537Y0074685D01*
X0259443Y0074778D01*
X0259351Y0074874D01*
X0259263Y0074972D01*
X0259177Y0075073D01*
X0259094Y0075177D01*
X0259015Y0075283D01*
X0258939Y0075391D01*
X0258866Y0075502D01*
X0258796Y0075614D01*
X0258730Y0075729D01*
X0258667Y0075846D01*
X0258608Y0075964D01*
X0258552Y0076085D01*
X0258500Y0076206D01*
X0258451Y0076330D01*
X0258407Y0076455D01*
X0258366Y0076581D01*
X0258329Y0076708D01*
X0258295Y0076836D01*
X0258266Y0076965D01*
X0258240Y0077095D01*
X0258218Y0077226D01*
X0258201Y0077357D01*
X0258187Y0077489D01*
X0258177Y0077621D01*
X0258171Y0077754D01*
X0258169Y0077886D01*
X0270747Y0062768D02*
X0270749Y0062966D01*
X0270757Y0063164D01*
X0270769Y0063362D01*
X0270786Y0063559D01*
X0270808Y0063756D01*
X0270834Y0063952D01*
X0270866Y0064148D01*
X0270902Y0064343D01*
X0270943Y0064536D01*
X0270989Y0064729D01*
X0271039Y0064921D01*
X0271095Y0065111D01*
X0271154Y0065300D01*
X0271219Y0065487D01*
X0271288Y0065673D01*
X0271361Y0065857D01*
X0271439Y0066039D01*
X0271522Y0066219D01*
X0271609Y0066397D01*
X0271700Y0066573D01*
X0271796Y0066746D01*
X0271895Y0066917D01*
X0271999Y0067086D01*
X0272107Y0067252D01*
X0272219Y0067415D01*
X0272335Y0067576D01*
X0272455Y0067734D01*
X0272579Y0067888D01*
X0272707Y0068040D01*
X0272838Y0068188D01*
X0272973Y0068333D01*
X0273111Y0068475D01*
X0273253Y0068613D01*
X0273398Y0068748D01*
X0273546Y0068879D01*
X0273698Y0069007D01*
X0273852Y0069131D01*
X0274010Y0069251D01*
X0274171Y0069367D01*
X0274334Y0069479D01*
X0274500Y0069587D01*
X0274669Y0069691D01*
X0274840Y0069790D01*
X0275013Y0069886D01*
X0275189Y0069977D01*
X0275367Y0070064D01*
X0275547Y0070147D01*
X0275729Y0070225D01*
X0275913Y0070298D01*
X0276099Y0070367D01*
X0276286Y0070432D01*
X0276475Y0070491D01*
X0276665Y0070547D01*
X0276857Y0070597D01*
X0277050Y0070643D01*
X0277243Y0070684D01*
X0277438Y0070720D01*
X0277634Y0070752D01*
X0277830Y0070778D01*
X0278027Y0070800D01*
X0278224Y0070817D01*
X0278422Y0070829D01*
X0278620Y0070837D01*
X0278818Y0070839D01*
X0279016Y0070837D01*
X0279214Y0070829D01*
X0279412Y0070817D01*
X0279609Y0070800D01*
X0279806Y0070778D01*
X0280002Y0070752D01*
X0280198Y0070720D01*
X0280393Y0070684D01*
X0280586Y0070643D01*
X0280779Y0070597D01*
X0280971Y0070547D01*
X0281161Y0070491D01*
X0281350Y0070432D01*
X0281537Y0070367D01*
X0281723Y0070298D01*
X0281907Y0070225D01*
X0282089Y0070147D01*
X0282269Y0070064D01*
X0282447Y0069977D01*
X0282623Y0069886D01*
X0282796Y0069790D01*
X0282967Y0069691D01*
X0283136Y0069587D01*
X0283302Y0069479D01*
X0283465Y0069367D01*
X0283626Y0069251D01*
X0283784Y0069131D01*
X0283938Y0069007D01*
X0284090Y0068879D01*
X0284238Y0068748D01*
X0284383Y0068613D01*
X0284525Y0068475D01*
X0284663Y0068333D01*
X0284798Y0068188D01*
X0284929Y0068040D01*
X0285057Y0067888D01*
X0285181Y0067734D01*
X0285301Y0067576D01*
X0285417Y0067415D01*
X0285529Y0067252D01*
X0285637Y0067086D01*
X0285741Y0066917D01*
X0285840Y0066746D01*
X0285936Y0066573D01*
X0286027Y0066397D01*
X0286114Y0066219D01*
X0286197Y0066039D01*
X0286275Y0065857D01*
X0286348Y0065673D01*
X0286417Y0065487D01*
X0286482Y0065300D01*
X0286541Y0065111D01*
X0286597Y0064921D01*
X0286647Y0064729D01*
X0286693Y0064536D01*
X0286734Y0064343D01*
X0286770Y0064148D01*
X0286802Y0063952D01*
X0286828Y0063756D01*
X0286850Y0063559D01*
X0286867Y0063362D01*
X0286879Y0063164D01*
X0286887Y0062966D01*
X0286889Y0062768D01*
X0286887Y0062570D01*
X0286879Y0062372D01*
X0286867Y0062174D01*
X0286850Y0061977D01*
X0286828Y0061780D01*
X0286802Y0061584D01*
X0286770Y0061388D01*
X0286734Y0061193D01*
X0286693Y0061000D01*
X0286647Y0060807D01*
X0286597Y0060615D01*
X0286541Y0060425D01*
X0286482Y0060236D01*
X0286417Y0060049D01*
X0286348Y0059863D01*
X0286275Y0059679D01*
X0286197Y0059497D01*
X0286114Y0059317D01*
X0286027Y0059139D01*
X0285936Y0058963D01*
X0285840Y0058790D01*
X0285741Y0058619D01*
X0285637Y0058450D01*
X0285529Y0058284D01*
X0285417Y0058121D01*
X0285301Y0057960D01*
X0285181Y0057802D01*
X0285057Y0057648D01*
X0284929Y0057496D01*
X0284798Y0057348D01*
X0284663Y0057203D01*
X0284525Y0057061D01*
X0284383Y0056923D01*
X0284238Y0056788D01*
X0284090Y0056657D01*
X0283938Y0056529D01*
X0283784Y0056405D01*
X0283626Y0056285D01*
X0283465Y0056169D01*
X0283302Y0056057D01*
X0283136Y0055949D01*
X0282967Y0055845D01*
X0282796Y0055746D01*
X0282623Y0055650D01*
X0282447Y0055559D01*
X0282269Y0055472D01*
X0282089Y0055389D01*
X0281907Y0055311D01*
X0281723Y0055238D01*
X0281537Y0055169D01*
X0281350Y0055104D01*
X0281161Y0055045D01*
X0280971Y0054989D01*
X0280779Y0054939D01*
X0280586Y0054893D01*
X0280393Y0054852D01*
X0280198Y0054816D01*
X0280002Y0054784D01*
X0279806Y0054758D01*
X0279609Y0054736D01*
X0279412Y0054719D01*
X0279214Y0054707D01*
X0279016Y0054699D01*
X0278818Y0054697D01*
X0278620Y0054699D01*
X0278422Y0054707D01*
X0278224Y0054719D01*
X0278027Y0054736D01*
X0277830Y0054758D01*
X0277634Y0054784D01*
X0277438Y0054816D01*
X0277243Y0054852D01*
X0277050Y0054893D01*
X0276857Y0054939D01*
X0276665Y0054989D01*
X0276475Y0055045D01*
X0276286Y0055104D01*
X0276099Y0055169D01*
X0275913Y0055238D01*
X0275729Y0055311D01*
X0275547Y0055389D01*
X0275367Y0055472D01*
X0275189Y0055559D01*
X0275013Y0055650D01*
X0274840Y0055746D01*
X0274669Y0055845D01*
X0274500Y0055949D01*
X0274334Y0056057D01*
X0274171Y0056169D01*
X0274010Y0056285D01*
X0273852Y0056405D01*
X0273698Y0056529D01*
X0273546Y0056657D01*
X0273398Y0056788D01*
X0273253Y0056923D01*
X0273111Y0057061D01*
X0272973Y0057203D01*
X0272838Y0057348D01*
X0272707Y0057496D01*
X0272579Y0057648D01*
X0272455Y0057802D01*
X0272335Y0057960D01*
X0272219Y0058121D01*
X0272107Y0058284D01*
X0271999Y0058450D01*
X0271895Y0058619D01*
X0271796Y0058790D01*
X0271700Y0058963D01*
X0271609Y0059139D01*
X0271522Y0059317D01*
X0271439Y0059497D01*
X0271361Y0059679D01*
X0271288Y0059863D01*
X0271219Y0060049D01*
X0271154Y0060236D01*
X0271095Y0060425D01*
X0271039Y0060615D01*
X0270989Y0060807D01*
X0270943Y0061000D01*
X0270902Y0061193D01*
X0270866Y0061388D01*
X0270834Y0061584D01*
X0270808Y0061780D01*
X0270786Y0061977D01*
X0270769Y0062174D01*
X0270757Y0062372D01*
X0270749Y0062570D01*
X0270747Y0062768D01*
M02*
