G75*
%MOIN*%
%OFA0B0*%
%FSLAX25Y25*%
%IPPOS*%
%LPD*%
%AMOC8*
5,1,8,0,0,1.08239X$1,22.5*
%
%ADD10C,0.01000*%
%ADD11C,0.00500*%
%ADD12C,0.00600*%
%ADD13C,0.00800*%
%ADD14R,0.00787X0.00787*%
%ADD15C,0.00300*%
%ADD16R,0.01181X0.00591*%
%ADD17R,0.01181X0.01181*%
%ADD18R,0.03000X0.03400*%
%ADD19C,0.00400*%
%ADD20C,0.00252*%
%ADD21C,0.00000*%
D10*
X0085492Y0089400D02*
X0085492Y0093403D01*
X0087494Y0093403D01*
X0088161Y0092736D01*
X0088161Y0091402D01*
X0087494Y0090734D01*
X0085492Y0090734D01*
X0086827Y0090734D02*
X0088161Y0089400D01*
X0090096Y0090067D02*
X0090763Y0089400D01*
X0092098Y0089400D01*
X0092765Y0090067D01*
X0092765Y0091402D01*
X0092098Y0092069D01*
X0091431Y0092069D01*
X0090096Y0091402D01*
X0090096Y0093403D01*
X0092765Y0093403D01*
X0092606Y0096000D02*
X0091271Y0096000D01*
X0090604Y0096667D01*
X0090604Y0098002D01*
X0092606Y0098002D01*
X0093273Y0097334D01*
X0093273Y0096667D01*
X0092606Y0096000D01*
X0090604Y0098002D02*
X0091938Y0099336D01*
X0093273Y0100003D01*
X0088669Y0099336D02*
X0088002Y0100003D01*
X0086667Y0100003D01*
X0086000Y0099336D01*
X0086000Y0096667D01*
X0086667Y0096000D01*
X0088002Y0096000D01*
X0088669Y0096667D01*
X0087700Y0117800D02*
X0089702Y0117800D01*
X0090369Y0118467D01*
X0090369Y0121136D01*
X0089702Y0121803D01*
X0087700Y0121803D01*
X0087700Y0117800D01*
X0092304Y0118467D02*
X0092971Y0117800D01*
X0094306Y0117800D01*
X0094973Y0118467D01*
X0094973Y0119134D01*
X0094306Y0119802D01*
X0092304Y0119802D01*
X0092304Y0118467D01*
X0092304Y0119802D02*
X0093638Y0121136D01*
X0094973Y0121803D01*
X0098600Y0121834D02*
X0100602Y0121834D01*
X0101269Y0122502D01*
X0101269Y0123836D01*
X0100602Y0124503D01*
X0098600Y0124503D01*
X0098600Y0120500D01*
X0099934Y0121834D02*
X0101269Y0120500D01*
X0103204Y0120500D02*
X0105873Y0120500D01*
X0104538Y0120500D02*
X0104538Y0124503D01*
X0103204Y0123169D01*
X0107808Y0123169D02*
X0107808Y0123836D01*
X0108475Y0124503D01*
X0109810Y0124503D01*
X0110477Y0123836D01*
X0110477Y0123169D01*
X0109810Y0122502D01*
X0108475Y0122502D01*
X0107808Y0123169D01*
X0108475Y0122502D02*
X0107808Y0121834D01*
X0107808Y0121167D01*
X0108475Y0120500D01*
X0109810Y0120500D01*
X0110477Y0121167D01*
X0110477Y0121834D01*
X0109810Y0122502D01*
X0111697Y0129700D02*
X0111697Y0131702D01*
X0112364Y0132369D01*
X0113698Y0132369D01*
X0114366Y0131702D01*
X0114366Y0129700D01*
X0115700Y0129700D02*
X0111697Y0129700D01*
X0114366Y0131034D02*
X0115700Y0132369D01*
X0113698Y0134304D02*
X0113698Y0136973D01*
X0111697Y0136306D02*
X0113698Y0134304D01*
X0111697Y0136306D02*
X0115700Y0136306D01*
X0106565Y0142667D02*
X0106565Y0144002D01*
X0105898Y0144669D01*
X0105231Y0144669D01*
X0103896Y0144002D01*
X0103896Y0146003D01*
X0106565Y0146003D01*
X0106565Y0142667D02*
X0105898Y0142000D01*
X0104563Y0142000D01*
X0103896Y0142667D01*
X0101961Y0142667D02*
X0101294Y0142000D01*
X0099959Y0142000D01*
X0099292Y0142667D01*
X0099292Y0145336D01*
X0099959Y0146003D01*
X0101294Y0146003D01*
X0101961Y0145336D01*
X0101002Y0149400D02*
X0101669Y0150067D01*
X0101669Y0152736D01*
X0101002Y0153403D01*
X0099000Y0153403D01*
X0099000Y0149400D01*
X0101002Y0149400D01*
X0103604Y0150067D02*
X0104271Y0149400D01*
X0105606Y0149400D01*
X0106273Y0150067D01*
X0106273Y0151402D01*
X0105606Y0152069D01*
X0104938Y0152069D01*
X0103604Y0151402D01*
X0103604Y0153403D01*
X0106273Y0153403D01*
X0126600Y0145236D02*
X0126600Y0142567D01*
X0127267Y0141900D01*
X0128602Y0141900D01*
X0129269Y0142567D01*
X0131204Y0143902D02*
X0133873Y0143902D01*
X0133206Y0145903D02*
X0131204Y0143902D01*
X0129269Y0145236D02*
X0128602Y0145903D01*
X0127267Y0145903D01*
X0126600Y0145236D01*
X0133206Y0145903D02*
X0133206Y0141900D01*
X0138564Y0136365D02*
X0139231Y0136365D01*
X0139898Y0135698D01*
X0140566Y0136365D01*
X0141233Y0136365D01*
X0141900Y0135698D01*
X0141900Y0134363D01*
X0141233Y0133696D01*
X0139898Y0135031D02*
X0139898Y0135698D01*
X0138564Y0136365D02*
X0137897Y0135698D01*
X0137897Y0134363D01*
X0138564Y0133696D01*
X0138564Y0131761D02*
X0139898Y0131761D01*
X0140566Y0131094D01*
X0140566Y0129092D01*
X0141900Y0129092D02*
X0137897Y0129092D01*
X0137897Y0131094D01*
X0138564Y0131761D01*
X0140566Y0130427D02*
X0141900Y0131761D01*
X0136265Y0124403D02*
X0133596Y0124403D01*
X0136265Y0124403D02*
X0136265Y0123736D01*
X0133596Y0121067D01*
X0133596Y0120400D01*
X0131661Y0120400D02*
X0128992Y0120400D01*
X0130327Y0120400D02*
X0130327Y0124403D01*
X0128992Y0123069D01*
X0127057Y0123736D02*
X0127057Y0122402D01*
X0126390Y0121734D01*
X0124388Y0121734D01*
X0124388Y0120400D02*
X0124388Y0124403D01*
X0126390Y0124403D01*
X0127057Y0123736D01*
X0125723Y0121734D02*
X0127057Y0120400D01*
X0127133Y0106865D02*
X0127800Y0106198D01*
X0127800Y0104863D01*
X0127133Y0104196D01*
X0124464Y0106865D01*
X0127133Y0106865D01*
X0127133Y0104196D02*
X0124464Y0104196D01*
X0123797Y0104863D01*
X0123797Y0106198D01*
X0124464Y0106865D01*
X0127800Y0102261D02*
X0127800Y0099592D01*
X0127800Y0100927D02*
X0123797Y0100927D01*
X0125131Y0099592D01*
X0123797Y0097657D02*
X0127133Y0097657D01*
X0127800Y0096990D01*
X0127800Y0095655D01*
X0127133Y0094988D01*
X0123797Y0094988D01*
X0149497Y0096992D02*
X0152833Y0096992D01*
X0153500Y0097659D01*
X0153500Y0098994D01*
X0152833Y0099661D01*
X0149497Y0099661D01*
X0149497Y0101596D02*
X0149497Y0104265D01*
X0150164Y0104265D01*
X0152833Y0101596D01*
X0153500Y0101596D01*
X0163497Y0101698D02*
X0163497Y0100363D01*
X0164164Y0099696D01*
X0164831Y0099696D01*
X0165498Y0100363D01*
X0165498Y0102365D01*
X0164164Y0102365D02*
X0163497Y0101698D01*
X0164164Y0102365D02*
X0166833Y0102365D01*
X0167500Y0101698D01*
X0167500Y0100363D01*
X0166833Y0099696D01*
X0167500Y0097761D02*
X0166166Y0096427D01*
X0166166Y0097094D02*
X0166166Y0095092D01*
X0167500Y0095092D02*
X0163497Y0095092D01*
X0163497Y0097094D01*
X0164164Y0097761D01*
X0165498Y0097761D01*
X0166166Y0097094D01*
X0177297Y0097694D02*
X0177297Y0095692D01*
X0181300Y0095692D01*
X0179966Y0095692D02*
X0179966Y0097694D01*
X0179298Y0098361D01*
X0177964Y0098361D01*
X0177297Y0097694D01*
X0177964Y0100296D02*
X0178631Y0100296D01*
X0179298Y0100963D01*
X0179298Y0102298D01*
X0179966Y0102965D01*
X0180633Y0102965D01*
X0181300Y0102298D01*
X0181300Y0100963D01*
X0180633Y0100296D01*
X0179966Y0100296D01*
X0179298Y0100963D01*
X0179298Y0102298D02*
X0178631Y0102965D01*
X0177964Y0102965D01*
X0177297Y0102298D01*
X0177297Y0100963D01*
X0177964Y0100296D01*
X0179966Y0097027D02*
X0181300Y0098361D01*
X0190997Y0099596D02*
X0190997Y0102265D01*
X0191664Y0102265D01*
X0194333Y0099596D01*
X0195000Y0099596D01*
X0195000Y0097661D02*
X0193666Y0096327D01*
X0193666Y0096994D02*
X0193666Y0094992D01*
X0195000Y0094992D02*
X0190997Y0094992D01*
X0190997Y0096994D01*
X0191664Y0097661D01*
X0192998Y0097661D01*
X0193666Y0096994D01*
X0204497Y0097694D02*
X0204497Y0095692D01*
X0208500Y0095692D01*
X0207166Y0095692D02*
X0207166Y0097694D01*
X0206498Y0098361D01*
X0205164Y0098361D01*
X0204497Y0097694D01*
X0205164Y0100296D02*
X0204497Y0100963D01*
X0204497Y0102298D01*
X0205164Y0102965D01*
X0205831Y0102965D01*
X0208500Y0100296D01*
X0208500Y0102965D01*
X0212400Y0101100D02*
X0212400Y0097100D01*
X0208500Y0098361D02*
X0207166Y0097027D01*
X0220400Y0097100D02*
X0220400Y0101100D01*
X0222397Y0102161D02*
X0222397Y0099492D01*
X0226400Y0099492D01*
X0224398Y0099492D02*
X0224398Y0100827D01*
X0223731Y0104096D02*
X0222397Y0105431D01*
X0226400Y0105431D01*
X0226400Y0106765D02*
X0226400Y0104096D01*
X0228347Y0102827D02*
X0232350Y0102827D01*
X0232350Y0104161D02*
X0232350Y0101492D01*
X0232350Y0099557D02*
X0231016Y0098223D01*
X0231016Y0098890D02*
X0231016Y0096888D01*
X0232350Y0096888D02*
X0228347Y0096888D01*
X0228347Y0098890D01*
X0229014Y0099557D01*
X0230348Y0099557D01*
X0231016Y0098890D01*
X0229681Y0101492D02*
X0228347Y0102827D01*
X0229014Y0106096D02*
X0229681Y0106096D01*
X0230348Y0106763D01*
X0230348Y0108765D01*
X0229014Y0108765D02*
X0231683Y0108765D01*
X0232350Y0108098D01*
X0232350Y0106763D01*
X0231683Y0106096D01*
X0229014Y0106096D02*
X0228347Y0106763D01*
X0228347Y0108098D01*
X0229014Y0108765D01*
X0234797Y0107298D02*
X0235464Y0107965D01*
X0236131Y0107965D01*
X0236798Y0107298D01*
X0237466Y0107965D01*
X0238133Y0107965D01*
X0238800Y0107298D01*
X0238800Y0105963D01*
X0238133Y0105296D01*
X0236798Y0106631D02*
X0236798Y0107298D01*
X0234797Y0107298D02*
X0234797Y0105963D01*
X0235464Y0105296D01*
X0234797Y0102027D02*
X0238800Y0102027D01*
X0238800Y0103361D02*
X0238800Y0100692D01*
X0238133Y0098757D02*
X0234797Y0098757D01*
X0236131Y0100692D02*
X0234797Y0102027D01*
X0238133Y0098757D02*
X0238800Y0098090D01*
X0238800Y0096755D01*
X0238133Y0096088D01*
X0234797Y0096088D01*
X0213200Y0111155D02*
X0213200Y0112490D01*
X0212533Y0113157D01*
X0209197Y0113157D01*
X0210531Y0115092D02*
X0209197Y0116427D01*
X0213200Y0116427D01*
X0213200Y0117761D02*
X0213200Y0115092D01*
X0213200Y0119696D02*
X0213200Y0122365D01*
X0213200Y0121031D02*
X0209197Y0121031D01*
X0210531Y0119696D01*
X0213200Y0111155D02*
X0212533Y0110488D01*
X0209197Y0110488D01*
X0229947Y0129300D02*
X0229947Y0131302D01*
X0230614Y0131969D01*
X0231948Y0131969D01*
X0232616Y0131302D01*
X0232616Y0129300D01*
X0233950Y0129300D02*
X0229947Y0129300D01*
X0232616Y0130634D02*
X0233950Y0131969D01*
X0233950Y0133904D02*
X0233950Y0136573D01*
X0233950Y0135238D02*
X0229947Y0135238D01*
X0231281Y0133904D01*
X0231948Y0138508D02*
X0231948Y0141177D01*
X0229947Y0140510D02*
X0231948Y0138508D01*
X0229947Y0140510D02*
X0233950Y0140510D01*
X0233233Y0145500D02*
X0229897Y0145500D01*
X0229897Y0148169D02*
X0233233Y0148169D01*
X0233900Y0147502D01*
X0233900Y0146167D01*
X0233233Y0145500D01*
X0233233Y0150104D02*
X0232566Y0150104D01*
X0231898Y0150771D01*
X0231898Y0152106D01*
X0232566Y0152773D01*
X0233233Y0152773D01*
X0233900Y0152106D01*
X0233900Y0150771D01*
X0233233Y0150104D01*
X0231898Y0150771D02*
X0231231Y0150104D01*
X0230564Y0150104D01*
X0229897Y0150771D01*
X0229897Y0152106D01*
X0230564Y0152773D01*
X0231231Y0152773D01*
X0231898Y0152106D01*
X0233066Y0154900D02*
X0233066Y0156902D01*
X0232398Y0157569D01*
X0231064Y0157569D01*
X0230397Y0156902D01*
X0230397Y0154900D01*
X0234400Y0154900D01*
X0233066Y0156234D02*
X0234400Y0157569D01*
X0234400Y0159504D02*
X0234400Y0162173D01*
X0234400Y0160838D02*
X0230397Y0160838D01*
X0231731Y0159504D01*
X0232398Y0164108D02*
X0231731Y0165442D01*
X0231731Y0166110D01*
X0232398Y0166777D01*
X0233733Y0166777D01*
X0234400Y0166110D01*
X0234400Y0164775D01*
X0233733Y0164108D01*
X0232398Y0164108D02*
X0230397Y0164108D01*
X0230397Y0166777D01*
X0211800Y0179623D02*
X0207797Y0179623D01*
X0207797Y0180957D02*
X0207797Y0178288D01*
X0207797Y0182892D02*
X0211800Y0185561D01*
X0211800Y0187496D02*
X0211800Y0190165D01*
X0211800Y0188831D02*
X0207797Y0188831D01*
X0209131Y0187496D01*
X0207797Y0185561D02*
X0211800Y0182892D01*
X0211300Y0194088D02*
X0207297Y0194088D01*
X0207297Y0196090D01*
X0207964Y0196757D01*
X0209298Y0196757D01*
X0209966Y0196090D01*
X0209966Y0194088D01*
X0209966Y0195423D02*
X0211300Y0196757D01*
X0210633Y0198692D02*
X0209966Y0198692D01*
X0209298Y0199359D01*
X0209298Y0200694D01*
X0209966Y0201361D01*
X0210633Y0201361D01*
X0211300Y0200694D01*
X0211300Y0199359D01*
X0210633Y0198692D01*
X0209298Y0199359D02*
X0208631Y0198692D01*
X0207964Y0198692D01*
X0207297Y0199359D01*
X0207297Y0200694D01*
X0207964Y0201361D01*
X0208631Y0201361D01*
X0209298Y0200694D01*
X0208631Y0203296D02*
X0207297Y0204631D01*
X0211300Y0204631D01*
X0211300Y0205965D02*
X0211300Y0203296D01*
X0186900Y0203408D02*
X0184231Y0206077D01*
X0183564Y0206077D01*
X0182897Y0205410D01*
X0182897Y0204075D01*
X0183564Y0203408D01*
X0183564Y0201473D02*
X0184231Y0201473D01*
X0184898Y0200806D01*
X0184898Y0199471D01*
X0184231Y0198804D01*
X0183564Y0198804D01*
X0182897Y0199471D01*
X0182897Y0200806D01*
X0183564Y0201473D01*
X0184898Y0200806D02*
X0185566Y0201473D01*
X0186233Y0201473D01*
X0186900Y0200806D01*
X0186900Y0199471D01*
X0186233Y0198804D01*
X0185566Y0198804D01*
X0184898Y0199471D01*
X0184898Y0196869D02*
X0185566Y0196202D01*
X0185566Y0194200D01*
X0186900Y0194200D02*
X0182897Y0194200D01*
X0182897Y0196202D01*
X0183564Y0196869D01*
X0184898Y0196869D01*
X0185566Y0195534D02*
X0186900Y0196869D01*
X0186900Y0203408D02*
X0186900Y0206077D01*
X0173710Y0192353D02*
X0171708Y0190352D01*
X0174377Y0190352D01*
X0173710Y0192353D02*
X0173710Y0188350D01*
X0169773Y0188350D02*
X0167104Y0188350D01*
X0169773Y0191019D01*
X0169773Y0191686D01*
X0169106Y0192353D01*
X0167771Y0192353D01*
X0167104Y0191686D01*
X0165169Y0191686D02*
X0164502Y0192353D01*
X0163167Y0192353D01*
X0162500Y0191686D01*
X0162500Y0189017D01*
X0163167Y0188350D01*
X0164502Y0188350D01*
X0165169Y0189017D01*
X0168100Y0184073D02*
X0168100Y0181404D01*
X0168100Y0182738D02*
X0164097Y0182738D01*
X0165431Y0181404D01*
X0164764Y0179469D02*
X0164097Y0179469D01*
X0164764Y0179469D02*
X0166098Y0178134D01*
X0168100Y0178134D01*
X0166098Y0178134D02*
X0164764Y0176800D01*
X0164097Y0176800D01*
X0165055Y0160653D02*
X0164388Y0159986D01*
X0164388Y0157317D01*
X0165055Y0156650D01*
X0166390Y0156650D01*
X0167057Y0157317D01*
X0168992Y0156650D02*
X0171661Y0159319D01*
X0171661Y0159986D01*
X0170994Y0160653D01*
X0169659Y0160653D01*
X0168992Y0159986D01*
X0167057Y0159986D02*
X0166390Y0160653D01*
X0165055Y0160653D01*
X0168992Y0156650D02*
X0171661Y0156650D01*
X0173596Y0157317D02*
X0174263Y0156650D01*
X0175598Y0156650D01*
X0176265Y0157317D01*
X0176265Y0157984D01*
X0175598Y0158652D01*
X0174931Y0158652D01*
X0175598Y0158652D02*
X0176265Y0159319D01*
X0176265Y0159986D01*
X0175598Y0160653D01*
X0174263Y0160653D01*
X0173596Y0159986D01*
X0176464Y0151977D02*
X0177131Y0151977D01*
X0177798Y0151310D01*
X0178466Y0151977D01*
X0179133Y0151977D01*
X0179800Y0151310D01*
X0179800Y0149975D01*
X0179133Y0149308D01*
X0177798Y0150642D02*
X0177798Y0151310D01*
X0176464Y0151977D02*
X0175797Y0151310D01*
X0175797Y0149975D01*
X0176464Y0149308D01*
X0175797Y0147373D02*
X0178466Y0144704D01*
X0177798Y0145371D02*
X0179800Y0147373D01*
X0179800Y0144704D02*
X0175797Y0144704D01*
X0176464Y0142769D02*
X0175797Y0142102D01*
X0175797Y0140767D01*
X0176464Y0140100D01*
X0179133Y0140100D01*
X0179800Y0140767D01*
X0179800Y0142102D01*
X0179133Y0142769D01*
X0176464Y0142769D01*
X0167500Y0141702D02*
X0167500Y0140367D01*
X0166833Y0139700D01*
X0164164Y0139700D01*
X0163497Y0140367D01*
X0163497Y0141702D01*
X0164164Y0142369D01*
X0166833Y0142369D01*
X0167500Y0141702D01*
X0167500Y0144304D02*
X0163497Y0144304D01*
X0165498Y0144971D02*
X0167500Y0146973D01*
X0165498Y0148908D02*
X0165498Y0151577D01*
X0163497Y0150910D02*
X0165498Y0148908D01*
X0163497Y0146973D02*
X0166166Y0144304D01*
X0167500Y0150910D02*
X0163497Y0150910D01*
X0143160Y0156650D02*
X0143160Y0160653D01*
X0141158Y0158652D01*
X0143827Y0158652D01*
X0139223Y0156650D02*
X0136554Y0156650D01*
X0137888Y0156650D02*
X0137888Y0160653D01*
X0136554Y0159319D01*
X0134619Y0159986D02*
X0134619Y0157317D01*
X0133952Y0156650D01*
X0131950Y0156650D01*
X0131950Y0160653D01*
X0133952Y0160653D01*
X0134619Y0159986D01*
X0183997Y0177688D02*
X0183997Y0179690D01*
X0184664Y0180357D01*
X0185998Y0180357D01*
X0186666Y0179690D01*
X0186666Y0177688D01*
X0188000Y0177688D02*
X0183997Y0177688D01*
X0186666Y0179023D02*
X0188000Y0180357D01*
X0188000Y0182292D02*
X0183997Y0184961D01*
X0185331Y0186896D02*
X0183997Y0188231D01*
X0188000Y0188231D01*
X0188000Y0189565D02*
X0188000Y0186896D01*
X0188000Y0184961D02*
X0183997Y0182292D01*
X0190364Y0151777D02*
X0189697Y0151110D01*
X0189697Y0149775D01*
X0190364Y0149108D01*
X0189697Y0147173D02*
X0192366Y0144504D01*
X0191698Y0145171D02*
X0193700Y0147173D01*
X0193700Y0149108D02*
X0191031Y0151777D01*
X0190364Y0151777D01*
X0193700Y0151777D02*
X0193700Y0149108D01*
X0193700Y0144504D02*
X0189697Y0144504D01*
X0190364Y0142569D02*
X0189697Y0141902D01*
X0189697Y0140567D01*
X0190364Y0139900D01*
X0193033Y0139900D01*
X0193700Y0140567D01*
X0193700Y0141902D01*
X0193033Y0142569D01*
X0190364Y0142569D01*
X0201997Y0141902D02*
X0201997Y0140567D01*
X0202664Y0139900D01*
X0205333Y0139900D01*
X0206000Y0140567D01*
X0206000Y0141902D01*
X0205333Y0142569D01*
X0202664Y0142569D01*
X0201997Y0141902D01*
X0201997Y0144504D02*
X0206000Y0144504D01*
X0204666Y0144504D02*
X0201997Y0147173D01*
X0203331Y0149108D02*
X0201997Y0150442D01*
X0206000Y0150442D01*
X0206000Y0149108D02*
X0206000Y0151777D01*
X0206000Y0147173D02*
X0203998Y0145171D01*
X0208400Y0139853D02*
X0210402Y0139853D01*
X0211069Y0139186D01*
X0211069Y0137852D01*
X0210402Y0137184D01*
X0208400Y0137184D01*
X0208400Y0135850D02*
X0208400Y0139853D01*
X0209734Y0137184D02*
X0211069Y0135850D01*
X0213004Y0135850D02*
X0215673Y0135850D01*
X0214338Y0135850D02*
X0214338Y0139853D01*
X0213004Y0138519D01*
X0217608Y0137852D02*
X0217608Y0136517D01*
X0218275Y0135850D01*
X0219610Y0135850D01*
X0220277Y0136517D01*
X0220277Y0137184D01*
X0219610Y0137852D01*
X0217608Y0137852D01*
X0218942Y0139186D01*
X0220277Y0139853D01*
X0241928Y0140580D02*
X0241928Y0144583D01*
X0243930Y0144583D01*
X0244597Y0143916D01*
X0244597Y0142582D01*
X0243930Y0141914D01*
X0241928Y0141914D01*
X0243263Y0141914D02*
X0244597Y0140580D01*
X0246532Y0142582D02*
X0248534Y0144583D01*
X0248534Y0140580D01*
X0249201Y0142582D02*
X0246532Y0142582D01*
X0251136Y0143916D02*
X0251803Y0144583D01*
X0253138Y0144583D01*
X0253805Y0143916D01*
X0253805Y0143249D01*
X0253138Y0142582D01*
X0253805Y0141914D01*
X0253805Y0141247D01*
X0253138Y0140580D01*
X0251803Y0140580D01*
X0251136Y0141247D01*
X0252471Y0142582D02*
X0253138Y0142582D01*
X0264284Y0144003D02*
X0264284Y0140000D01*
X0266953Y0140000D01*
X0268888Y0140000D02*
X0271557Y0140000D01*
X0273492Y0140000D02*
X0275494Y0140000D01*
X0276161Y0140667D01*
X0276161Y0143336D01*
X0275494Y0144003D01*
X0273492Y0144003D01*
X0273492Y0140000D01*
X0270223Y0142002D02*
X0268888Y0142002D01*
X0268888Y0144003D02*
X0268888Y0140000D01*
X0268888Y0144003D02*
X0271557Y0144003D01*
X0278096Y0142669D02*
X0279431Y0144003D01*
X0279431Y0140000D01*
X0280765Y0140000D02*
X0278096Y0140000D01*
X0278592Y0137703D02*
X0280594Y0137703D01*
X0281261Y0137036D01*
X0281261Y0134367D01*
X0280594Y0133700D01*
X0278592Y0133700D01*
X0278592Y0137703D01*
X0283196Y0137036D02*
X0283863Y0137703D01*
X0285198Y0137703D01*
X0285865Y0137036D01*
X0285865Y0136369D01*
X0283196Y0133700D01*
X0285865Y0133700D01*
X0284771Y0127823D02*
X0284104Y0127823D01*
X0283437Y0127156D01*
X0283437Y0125821D01*
X0284104Y0125154D01*
X0284771Y0127823D02*
X0287440Y0125154D01*
X0287440Y0127823D01*
X0287440Y0123219D02*
X0287440Y0120550D01*
X0283437Y0120550D01*
X0287800Y0095873D02*
X0287800Y0093204D01*
X0287800Y0094538D02*
X0283797Y0094538D01*
X0285131Y0093204D01*
X0284464Y0091269D02*
X0283797Y0090602D01*
X0283797Y0089267D01*
X0284464Y0088600D01*
X0287133Y0088600D01*
X0287800Y0089267D01*
X0287800Y0090602D01*
X0287133Y0091269D01*
X0258115Y0115770D02*
X0258115Y0118439D01*
X0258115Y0120374D02*
X0258115Y0123043D01*
X0258115Y0121708D02*
X0254112Y0121708D01*
X0255446Y0120374D01*
X0256771Y0124295D02*
X0254102Y0124295D01*
X0256771Y0124295D02*
X0258105Y0125629D01*
X0256771Y0126964D01*
X0254102Y0126964D01*
X0255436Y0128899D02*
X0254102Y0130233D01*
X0258105Y0130233D01*
X0258105Y0128899D02*
X0258105Y0131568D01*
X0248976Y0127173D02*
X0246307Y0127173D01*
X0247641Y0127173D02*
X0247641Y0131176D01*
X0246307Y0129842D01*
X0244372Y0130509D02*
X0243705Y0131176D01*
X0241703Y0131176D01*
X0241703Y0127173D01*
X0243705Y0127173D01*
X0244372Y0127840D01*
X0244372Y0130509D01*
X0254112Y0115770D02*
X0258115Y0115770D01*
X0283764Y0152300D02*
X0286433Y0152300D01*
X0287100Y0152967D01*
X0287100Y0154302D01*
X0286433Y0154969D01*
X0286433Y0156904D02*
X0283764Y0159573D01*
X0283097Y0159573D01*
X0283097Y0156904D01*
X0283764Y0154969D02*
X0283097Y0154302D01*
X0283097Y0152967D01*
X0283764Y0152300D01*
X0286433Y0156904D02*
X0287100Y0156904D01*
X0286033Y0161600D02*
X0282697Y0161600D01*
X0282697Y0164269D02*
X0286033Y0164269D01*
X0286700Y0163602D01*
X0286700Y0162267D01*
X0286033Y0161600D01*
X0286700Y0166204D02*
X0286700Y0168873D01*
X0286700Y0167538D02*
X0282697Y0167538D01*
X0284031Y0166204D01*
X0283364Y0170808D02*
X0282697Y0171475D01*
X0282697Y0172810D01*
X0283364Y0173477D01*
X0284031Y0173477D01*
X0286700Y0170808D01*
X0286700Y0173477D01*
X0284428Y0205880D02*
X0283093Y0205880D01*
X0282426Y0206547D01*
X0285095Y0209216D01*
X0285095Y0206547D01*
X0284428Y0205880D01*
X0282426Y0206547D02*
X0282426Y0209216D01*
X0283093Y0209883D01*
X0284428Y0209883D01*
X0285095Y0209216D01*
X0280491Y0209216D02*
X0280491Y0208549D01*
X0279824Y0207882D01*
X0278489Y0207882D01*
X0277822Y0208549D01*
X0277822Y0209216D01*
X0278489Y0209883D01*
X0279824Y0209883D01*
X0280491Y0209216D01*
X0279824Y0207882D02*
X0280491Y0207214D01*
X0280491Y0206547D01*
X0279824Y0205880D01*
X0278489Y0205880D01*
X0277822Y0206547D01*
X0277822Y0207214D01*
X0278489Y0207882D01*
X0275887Y0209216D02*
X0275220Y0209883D01*
X0273885Y0209883D01*
X0273218Y0209216D01*
X0273218Y0206547D01*
X0273885Y0205880D01*
X0275220Y0205880D01*
X0275887Y0206547D01*
X0276869Y0225000D02*
X0274200Y0225000D01*
X0274200Y0229003D01*
X0268885Y0227342D02*
X0266216Y0227342D01*
X0268218Y0229343D01*
X0268218Y0225340D01*
X0264281Y0225340D02*
X0261612Y0225340D01*
X0264281Y0228009D01*
X0264281Y0228676D01*
X0263614Y0229343D01*
X0262279Y0229343D01*
X0261612Y0228676D01*
X0259677Y0228676D02*
X0259677Y0227342D01*
X0259010Y0226674D01*
X0257008Y0226674D01*
X0257008Y0225340D02*
X0257008Y0229343D01*
X0259010Y0229343D01*
X0259677Y0228676D01*
X0258343Y0226674D02*
X0259677Y0225340D01*
X0278804Y0225000D02*
X0281473Y0225000D01*
X0283408Y0225000D02*
X0283408Y0229003D01*
X0285410Y0229003D01*
X0286077Y0228336D01*
X0286077Y0225667D01*
X0285410Y0225000D01*
X0283408Y0225000D01*
X0280138Y0227002D02*
X0278804Y0227002D01*
X0278804Y0229003D02*
X0278804Y0225000D01*
X0278804Y0229003D02*
X0281473Y0229003D01*
X0288012Y0228336D02*
X0288679Y0229003D01*
X0290013Y0229003D01*
X0290681Y0228336D01*
X0290681Y0227669D01*
X0290013Y0227002D01*
X0290681Y0226334D01*
X0290681Y0225667D01*
X0290013Y0225000D01*
X0288679Y0225000D01*
X0288012Y0225667D01*
X0289346Y0227002D02*
X0290013Y0227002D01*
X0235565Y0238200D02*
X0232896Y0238200D01*
X0234231Y0238200D02*
X0234231Y0242203D01*
X0232896Y0240869D01*
X0230961Y0241536D02*
X0230961Y0240202D01*
X0230294Y0239534D01*
X0228292Y0239534D01*
X0228292Y0238200D02*
X0228292Y0242203D01*
X0230294Y0242203D01*
X0230961Y0241536D01*
X0226357Y0242203D02*
X0225023Y0242203D01*
X0225690Y0242203D02*
X0225690Y0238867D01*
X0225023Y0238200D01*
X0224355Y0238200D01*
X0223688Y0238867D01*
X0192981Y0250836D02*
X0190312Y0248167D01*
X0190312Y0247500D01*
X0188377Y0248167D02*
X0188377Y0250836D01*
X0187710Y0251503D01*
X0185708Y0251503D01*
X0185708Y0247500D01*
X0187710Y0247500D01*
X0188377Y0248167D01*
X0190312Y0251503D02*
X0192981Y0251503D01*
X0192981Y0250836D01*
X0183773Y0251503D02*
X0181104Y0251503D01*
X0181104Y0247500D01*
X0183773Y0247500D01*
X0182438Y0249502D02*
X0181104Y0249502D01*
X0179169Y0247500D02*
X0176500Y0247500D01*
X0176500Y0251503D01*
X0171765Y0250286D02*
X0171765Y0247617D01*
X0171098Y0246950D01*
X0169763Y0246950D01*
X0169096Y0247617D01*
X0169763Y0248952D02*
X0171765Y0248952D01*
X0171765Y0250286D02*
X0171098Y0250953D01*
X0169763Y0250953D01*
X0169096Y0250286D01*
X0169096Y0249619D01*
X0169763Y0248952D01*
X0167161Y0249619D02*
X0166494Y0248952D01*
X0167161Y0248284D01*
X0167161Y0247617D01*
X0166494Y0246950D01*
X0165159Y0246950D01*
X0164492Y0247617D01*
X0165827Y0248952D02*
X0166494Y0248952D01*
X0167161Y0249619D02*
X0167161Y0250286D01*
X0166494Y0250953D01*
X0165159Y0250953D01*
X0164492Y0250286D01*
X0162557Y0250286D02*
X0162557Y0248952D01*
X0161890Y0248284D01*
X0159888Y0248284D01*
X0159888Y0246950D02*
X0159888Y0250953D01*
X0161890Y0250953D01*
X0162557Y0250286D01*
X0161223Y0248284D02*
X0162557Y0246950D01*
X0156138Y0237503D02*
X0156138Y0233500D01*
X0154804Y0233500D02*
X0157473Y0233500D01*
X0154804Y0236169D02*
X0156138Y0237503D01*
X0152869Y0237503D02*
X0152869Y0234167D01*
X0152202Y0233500D01*
X0150867Y0233500D01*
X0150200Y0234167D01*
X0150200Y0237503D01*
X0141965Y0242667D02*
X0141965Y0245336D01*
X0141298Y0246003D01*
X0139963Y0246003D01*
X0139296Y0245336D01*
X0139296Y0244669D01*
X0139963Y0244002D01*
X0141965Y0244002D01*
X0141965Y0242667D02*
X0141298Y0242000D01*
X0139963Y0242000D01*
X0139296Y0242667D01*
X0137361Y0244002D02*
X0136694Y0243334D01*
X0134692Y0243334D01*
X0134692Y0242000D02*
X0134692Y0246003D01*
X0136694Y0246003D01*
X0137361Y0245336D01*
X0137361Y0244002D01*
X0132757Y0246003D02*
X0131423Y0246003D01*
X0132090Y0246003D02*
X0132090Y0242667D01*
X0131423Y0242000D01*
X0130755Y0242000D01*
X0130088Y0242667D01*
X0144335Y0228748D02*
X0144337Y0228815D01*
X0144343Y0228881D01*
X0144353Y0228947D01*
X0144367Y0229012D01*
X0144384Y0229076D01*
X0144406Y0229139D01*
X0144431Y0229201D01*
X0144460Y0229261D01*
X0144493Y0229319D01*
X0144528Y0229375D01*
X0144568Y0229429D01*
X0144610Y0229480D01*
X0144655Y0229529D01*
X0144703Y0229575D01*
X0144754Y0229618D01*
X0144807Y0229658D01*
X0144863Y0229695D01*
X0144921Y0229728D01*
X0144980Y0229758D01*
X0145041Y0229784D01*
X0145104Y0229807D01*
X0145168Y0229825D01*
X0145233Y0229840D01*
X0145299Y0229851D01*
X0145365Y0229858D01*
X0145431Y0229861D01*
X0145498Y0229860D01*
X0145564Y0229855D01*
X0145630Y0229846D01*
X0145696Y0229833D01*
X0145760Y0229816D01*
X0145823Y0229796D01*
X0145885Y0229771D01*
X0145946Y0229743D01*
X0146005Y0229712D01*
X0146061Y0229677D01*
X0146116Y0229639D01*
X0146168Y0229597D01*
X0146217Y0229552D01*
X0146264Y0229505D01*
X0146308Y0229455D01*
X0146348Y0229402D01*
X0146386Y0229347D01*
X0146420Y0229290D01*
X0146451Y0229231D01*
X0146478Y0229170D01*
X0146501Y0229108D01*
X0146521Y0229044D01*
X0146537Y0228979D01*
X0146549Y0228914D01*
X0146557Y0228848D01*
X0146561Y0228781D01*
X0146561Y0228715D01*
X0146557Y0228648D01*
X0146549Y0228582D01*
X0146537Y0228517D01*
X0146521Y0228452D01*
X0146501Y0228388D01*
X0146478Y0228326D01*
X0146451Y0228265D01*
X0146420Y0228206D01*
X0146386Y0228149D01*
X0146348Y0228094D01*
X0146308Y0228041D01*
X0146264Y0227991D01*
X0146217Y0227944D01*
X0146168Y0227899D01*
X0146116Y0227857D01*
X0146061Y0227819D01*
X0146004Y0227784D01*
X0145946Y0227753D01*
X0145885Y0227725D01*
X0145823Y0227700D01*
X0145760Y0227680D01*
X0145696Y0227663D01*
X0145630Y0227650D01*
X0145564Y0227641D01*
X0145498Y0227636D01*
X0145431Y0227635D01*
X0145365Y0227638D01*
X0145299Y0227645D01*
X0145233Y0227656D01*
X0145168Y0227671D01*
X0145104Y0227689D01*
X0145041Y0227712D01*
X0144980Y0227738D01*
X0144921Y0227768D01*
X0144863Y0227801D01*
X0144807Y0227838D01*
X0144754Y0227878D01*
X0144703Y0227921D01*
X0144655Y0227967D01*
X0144610Y0228016D01*
X0144568Y0228067D01*
X0144528Y0228121D01*
X0144493Y0228177D01*
X0144460Y0228235D01*
X0144431Y0228295D01*
X0144406Y0228357D01*
X0144384Y0228420D01*
X0144367Y0228484D01*
X0144353Y0228549D01*
X0144343Y0228615D01*
X0144337Y0228681D01*
X0144335Y0228748D01*
X0143800Y0265150D02*
X0143800Y0269153D01*
X0145802Y0269153D01*
X0146469Y0268486D01*
X0146469Y0267152D01*
X0145802Y0266484D01*
X0143800Y0266484D01*
X0145134Y0266484D02*
X0146469Y0265150D01*
X0148404Y0267152D02*
X0151073Y0267152D01*
X0150406Y0269153D02*
X0150406Y0265150D01*
X0153008Y0265817D02*
X0155677Y0268486D01*
X0155677Y0265817D01*
X0155010Y0265150D01*
X0153675Y0265150D01*
X0153008Y0265817D01*
X0153008Y0268486D01*
X0153675Y0269153D01*
X0155010Y0269153D01*
X0155677Y0268486D01*
X0150406Y0269153D02*
X0148404Y0267152D01*
X0078100Y0196265D02*
X0078100Y0193596D01*
X0075431Y0196265D01*
X0074764Y0196265D01*
X0074097Y0195598D01*
X0074097Y0194263D01*
X0074764Y0193596D01*
X0074764Y0191661D02*
X0074097Y0190994D01*
X0074097Y0189659D01*
X0074764Y0188992D01*
X0075431Y0188992D01*
X0076098Y0189659D01*
X0076098Y0190994D01*
X0076766Y0191661D01*
X0077433Y0191661D01*
X0078100Y0190994D01*
X0078100Y0189659D01*
X0077433Y0188992D01*
X0071077Y0216050D02*
X0068408Y0216050D01*
X0069742Y0216050D02*
X0069742Y0220053D01*
X0068408Y0218719D01*
X0066473Y0218052D02*
X0063804Y0218052D01*
X0065806Y0220053D01*
X0065806Y0216050D01*
X0061869Y0216050D02*
X0060534Y0217384D01*
X0061202Y0217384D02*
X0059200Y0217384D01*
X0059200Y0216050D02*
X0059200Y0220053D01*
X0061202Y0220053D01*
X0061869Y0219386D01*
X0061869Y0218052D01*
X0061202Y0217384D01*
X0054202Y0215900D02*
X0051533Y0215900D01*
X0052868Y0215900D02*
X0052868Y0219903D01*
X0051533Y0218569D01*
X0049598Y0219903D02*
X0048264Y0219903D01*
X0048931Y0219903D02*
X0048931Y0216567D01*
X0048264Y0215900D01*
X0047596Y0215900D01*
X0046929Y0216567D01*
X0044994Y0216567D02*
X0044327Y0215900D01*
X0042992Y0215900D01*
X0042325Y0216567D01*
X0042992Y0217902D02*
X0042325Y0218569D01*
X0042325Y0219236D01*
X0042992Y0219903D01*
X0044327Y0219903D01*
X0044994Y0219236D01*
X0044327Y0217902D02*
X0044994Y0217234D01*
X0044994Y0216567D01*
X0044327Y0217902D02*
X0042992Y0217902D01*
X0058097Y0227000D02*
X0061433Y0227000D01*
X0062100Y0227667D01*
X0062100Y0229002D01*
X0061433Y0229669D01*
X0058097Y0229669D01*
X0058764Y0231604D02*
X0059431Y0231604D01*
X0060098Y0232271D01*
X0060098Y0234273D01*
X0058764Y0234273D02*
X0061433Y0234273D01*
X0062100Y0233606D01*
X0062100Y0232271D01*
X0061433Y0231604D01*
X0058764Y0231604D02*
X0058097Y0232271D01*
X0058097Y0233606D01*
X0058764Y0234273D01*
X0059692Y0154903D02*
X0061694Y0154903D01*
X0062361Y0154236D01*
X0062361Y0151567D01*
X0061694Y0150900D01*
X0059692Y0150900D01*
X0059692Y0154903D01*
X0064296Y0154236D02*
X0064963Y0154903D01*
X0066298Y0154903D01*
X0066965Y0154236D01*
X0066965Y0153569D01*
X0066298Y0152902D01*
X0066965Y0152234D01*
X0066965Y0151567D01*
X0066298Y0150900D01*
X0064963Y0150900D01*
X0064296Y0151567D01*
X0065631Y0152902D02*
X0066298Y0152902D01*
X0065498Y0147803D02*
X0064163Y0147803D01*
X0063496Y0147136D01*
X0064831Y0145802D02*
X0065498Y0145802D01*
X0066165Y0145134D01*
X0066165Y0144467D01*
X0065498Y0143800D01*
X0064163Y0143800D01*
X0063496Y0144467D01*
X0061561Y0144467D02*
X0060894Y0143800D01*
X0059559Y0143800D01*
X0058892Y0144467D01*
X0058892Y0147136D01*
X0059559Y0147803D01*
X0060894Y0147803D01*
X0061561Y0147136D01*
X0065498Y0147803D02*
X0066165Y0147136D01*
X0066165Y0146469D01*
X0065498Y0145802D01*
X0074900Y0138573D02*
X0074900Y0135904D01*
X0074900Y0137238D02*
X0070897Y0137238D01*
X0072231Y0135904D01*
X0071564Y0133969D02*
X0072898Y0133969D01*
X0073566Y0133302D01*
X0073566Y0131300D01*
X0074900Y0131300D02*
X0070897Y0131300D01*
X0070897Y0133302D01*
X0071564Y0133969D01*
X0073566Y0132634D02*
X0074900Y0133969D01*
X0068831Y0125403D02*
X0068831Y0121400D01*
X0070165Y0121400D02*
X0067496Y0121400D01*
X0065561Y0121400D02*
X0062892Y0121400D01*
X0065561Y0124069D01*
X0065561Y0124736D01*
X0064894Y0125403D01*
X0063559Y0125403D01*
X0062892Y0124736D01*
X0060957Y0124736D02*
X0060957Y0123402D01*
X0060290Y0122734D01*
X0058288Y0122734D01*
X0058288Y0121400D02*
X0058288Y0125403D01*
X0060290Y0125403D01*
X0060957Y0124736D01*
X0059623Y0122734D02*
X0060957Y0121400D01*
X0061098Y0118265D02*
X0061098Y0115596D01*
X0059097Y0117598D01*
X0063100Y0117598D01*
X0063100Y0113661D02*
X0063100Y0110992D01*
X0063100Y0112327D02*
X0059097Y0112327D01*
X0060431Y0110992D01*
X0059097Y0109057D02*
X0062433Y0109057D01*
X0063100Y0108390D01*
X0063100Y0107055D01*
X0062433Y0106388D01*
X0059097Y0106388D01*
X0049742Y0100603D02*
X0049742Y0096600D01*
X0048408Y0096600D02*
X0051077Y0096600D01*
X0050210Y0094303D02*
X0048875Y0094303D01*
X0048208Y0093636D01*
X0048208Y0090967D01*
X0050877Y0093636D01*
X0050877Y0090967D01*
X0050210Y0090300D01*
X0048875Y0090300D01*
X0048208Y0090967D01*
X0046273Y0090300D02*
X0043604Y0090300D01*
X0046273Y0092969D01*
X0046273Y0093636D01*
X0045606Y0094303D01*
X0044271Y0094303D01*
X0043604Y0093636D01*
X0041669Y0093636D02*
X0041669Y0092302D01*
X0041002Y0091634D01*
X0039000Y0091634D01*
X0039000Y0090300D02*
X0039000Y0094303D01*
X0041002Y0094303D01*
X0041669Y0093636D01*
X0040334Y0091634D02*
X0041669Y0090300D01*
X0041202Y0096600D02*
X0041869Y0097267D01*
X0041202Y0096600D02*
X0039867Y0096600D01*
X0039200Y0097267D01*
X0039200Y0099936D01*
X0039867Y0100603D01*
X0041202Y0100603D01*
X0041869Y0099936D01*
X0043804Y0099269D02*
X0045138Y0100603D01*
X0045138Y0096600D01*
X0043804Y0096600D02*
X0046473Y0096600D01*
X0048408Y0099269D02*
X0049742Y0100603D01*
X0050210Y0094303D02*
X0050877Y0093636D01*
X0028473Y0094703D02*
X0027138Y0094036D01*
X0025804Y0092702D01*
X0027806Y0092702D01*
X0028473Y0092034D01*
X0028473Y0091367D01*
X0027806Y0090700D01*
X0026471Y0090700D01*
X0025804Y0091367D01*
X0025804Y0092702D01*
X0023869Y0092702D02*
X0023202Y0092034D01*
X0021200Y0092034D01*
X0021200Y0090700D02*
X0021200Y0094703D01*
X0023202Y0094703D01*
X0023869Y0094036D01*
X0023869Y0092702D01*
X0022534Y0092034D02*
X0023869Y0090700D01*
X0022394Y0097000D02*
X0023061Y0097667D01*
X0022394Y0097000D02*
X0021059Y0097000D01*
X0020392Y0097667D01*
X0020392Y0100336D01*
X0021059Y0101003D01*
X0022394Y0101003D01*
X0023061Y0100336D01*
X0024996Y0100336D02*
X0024996Y0099669D01*
X0025663Y0099002D01*
X0027665Y0099002D01*
X0027665Y0100336D02*
X0027665Y0097667D01*
X0026998Y0097000D01*
X0025663Y0097000D01*
X0024996Y0097667D01*
X0024996Y0100336D02*
X0025663Y0101003D01*
X0026998Y0101003D01*
X0027665Y0100336D01*
X0026802Y0118600D02*
X0024800Y0118600D01*
X0024800Y0122603D01*
X0026802Y0122603D01*
X0027469Y0121936D01*
X0027469Y0119267D01*
X0026802Y0118600D01*
X0029404Y0120602D02*
X0032073Y0120602D01*
X0031406Y0122603D02*
X0031406Y0118600D01*
X0029404Y0120602D02*
X0031406Y0122603D01*
X0046592Y0121703D02*
X0046592Y0117700D01*
X0048594Y0117700D01*
X0049261Y0118367D01*
X0049261Y0121036D01*
X0048594Y0121703D01*
X0046592Y0121703D01*
X0051196Y0121703D02*
X0053865Y0121703D01*
X0053865Y0121036D01*
X0051196Y0118367D01*
X0051196Y0117700D01*
X0067496Y0124069D02*
X0068831Y0125403D01*
X0281400Y0021903D02*
X0281400Y0017900D01*
X0281400Y0019234D02*
X0283402Y0019234D01*
X0284069Y0019902D01*
X0284069Y0021236D01*
X0283402Y0021903D01*
X0281400Y0021903D01*
X0282734Y0019234D02*
X0284069Y0017900D01*
X0286004Y0018567D02*
X0286671Y0017900D01*
X0287338Y0017900D01*
X0288006Y0018567D01*
X0288006Y0021903D01*
X0288673Y0021903D02*
X0287338Y0021903D01*
D11*
X0010500Y0014500D02*
X0010500Y0304500D01*
X0290500Y0304500D01*
X0290500Y0014500D01*
X0010500Y0014500D01*
X0064870Y0014500D02*
X0236130Y0014500D01*
X0290500Y0084500D02*
X0010500Y0084500D01*
X0031640Y0095500D02*
X0031642Y0095558D01*
X0031648Y0095616D01*
X0031658Y0095673D01*
X0031671Y0095730D01*
X0031689Y0095785D01*
X0031710Y0095839D01*
X0031734Y0095892D01*
X0031763Y0095943D01*
X0031794Y0095991D01*
X0031829Y0096038D01*
X0031867Y0096082D01*
X0031907Y0096123D01*
X0031951Y0096162D01*
X0031997Y0096197D01*
X0032045Y0096230D01*
X0032095Y0096259D01*
X0032148Y0096284D01*
X0032201Y0096306D01*
X0032256Y0096325D01*
X0032313Y0096339D01*
X0032370Y0096350D01*
X0032427Y0096357D01*
X0032485Y0096360D01*
X0032544Y0096359D01*
X0032601Y0096354D01*
X0032659Y0096345D01*
X0032716Y0096333D01*
X0032771Y0096316D01*
X0032826Y0096296D01*
X0032879Y0096272D01*
X0032930Y0096245D01*
X0032979Y0096214D01*
X0033026Y0096180D01*
X0033071Y0096143D01*
X0033113Y0096103D01*
X0033153Y0096060D01*
X0033189Y0096015D01*
X0033222Y0095967D01*
X0033252Y0095917D01*
X0033278Y0095866D01*
X0033301Y0095812D01*
X0033321Y0095757D01*
X0033336Y0095701D01*
X0033348Y0095645D01*
X0033356Y0095587D01*
X0033360Y0095529D01*
X0033360Y0095471D01*
X0033356Y0095413D01*
X0033348Y0095355D01*
X0033336Y0095299D01*
X0033321Y0095243D01*
X0033301Y0095188D01*
X0033278Y0095134D01*
X0033252Y0095083D01*
X0033222Y0095033D01*
X0033189Y0094985D01*
X0033153Y0094940D01*
X0033113Y0094897D01*
X0033071Y0094857D01*
X0033026Y0094820D01*
X0032979Y0094786D01*
X0032930Y0094755D01*
X0032879Y0094728D01*
X0032826Y0094704D01*
X0032771Y0094684D01*
X0032716Y0094667D01*
X0032659Y0094655D01*
X0032601Y0094646D01*
X0032544Y0094641D01*
X0032485Y0094640D01*
X0032427Y0094643D01*
X0032370Y0094650D01*
X0032313Y0094661D01*
X0032256Y0094675D01*
X0032201Y0094694D01*
X0032148Y0094716D01*
X0032095Y0094741D01*
X0032045Y0094770D01*
X0031997Y0094803D01*
X0031951Y0094838D01*
X0031907Y0094877D01*
X0031867Y0094918D01*
X0031829Y0094962D01*
X0031794Y0095009D01*
X0031763Y0095057D01*
X0031734Y0095108D01*
X0031710Y0095161D01*
X0031689Y0095215D01*
X0031671Y0095270D01*
X0031658Y0095327D01*
X0031648Y0095384D01*
X0031642Y0095442D01*
X0031640Y0095500D01*
X0032400Y0095500D02*
X0032402Y0095520D01*
X0032408Y0095538D01*
X0032417Y0095556D01*
X0032429Y0095571D01*
X0032444Y0095583D01*
X0032462Y0095592D01*
X0032480Y0095598D01*
X0032500Y0095600D01*
X0032520Y0095598D01*
X0032538Y0095592D01*
X0032556Y0095583D01*
X0032571Y0095571D01*
X0032583Y0095556D01*
X0032592Y0095538D01*
X0032598Y0095520D01*
X0032600Y0095500D01*
X0032598Y0095480D01*
X0032592Y0095462D01*
X0032583Y0095444D01*
X0032571Y0095429D01*
X0032556Y0095417D01*
X0032538Y0095408D01*
X0032520Y0095402D01*
X0032500Y0095400D01*
X0032480Y0095402D01*
X0032462Y0095408D01*
X0032444Y0095417D01*
X0032429Y0095429D01*
X0032417Y0095444D01*
X0032408Y0095462D01*
X0032402Y0095480D01*
X0032400Y0095500D01*
X0032000Y0095500D02*
X0032002Y0095544D01*
X0032008Y0095588D01*
X0032018Y0095631D01*
X0032031Y0095673D01*
X0032048Y0095714D01*
X0032069Y0095753D01*
X0032093Y0095790D01*
X0032120Y0095825D01*
X0032150Y0095857D01*
X0032183Y0095887D01*
X0032219Y0095913D01*
X0032256Y0095937D01*
X0032296Y0095956D01*
X0032337Y0095973D01*
X0032380Y0095985D01*
X0032423Y0095994D01*
X0032467Y0095999D01*
X0032511Y0096000D01*
X0032555Y0095997D01*
X0032599Y0095990D01*
X0032642Y0095979D01*
X0032684Y0095965D01*
X0032724Y0095947D01*
X0032763Y0095925D01*
X0032799Y0095901D01*
X0032833Y0095873D01*
X0032865Y0095842D01*
X0032894Y0095808D01*
X0032920Y0095772D01*
X0032942Y0095734D01*
X0032961Y0095694D01*
X0032976Y0095652D01*
X0032988Y0095610D01*
X0032996Y0095566D01*
X0033000Y0095522D01*
X0033000Y0095478D01*
X0032996Y0095434D01*
X0032988Y0095390D01*
X0032976Y0095348D01*
X0032961Y0095306D01*
X0032942Y0095266D01*
X0032920Y0095228D01*
X0032894Y0095192D01*
X0032865Y0095158D01*
X0032833Y0095127D01*
X0032799Y0095099D01*
X0032763Y0095075D01*
X0032724Y0095053D01*
X0032684Y0095035D01*
X0032642Y0095021D01*
X0032599Y0095010D01*
X0032555Y0095003D01*
X0032511Y0095000D01*
X0032467Y0095001D01*
X0032423Y0095006D01*
X0032380Y0095015D01*
X0032337Y0095027D01*
X0032296Y0095044D01*
X0032256Y0095063D01*
X0032219Y0095087D01*
X0032183Y0095113D01*
X0032150Y0095143D01*
X0032120Y0095175D01*
X0032093Y0095210D01*
X0032069Y0095247D01*
X0032048Y0095286D01*
X0032031Y0095327D01*
X0032018Y0095369D01*
X0032008Y0095412D01*
X0032002Y0095456D01*
X0032000Y0095500D01*
X0054440Y0095000D02*
X0054442Y0095058D01*
X0054448Y0095116D01*
X0054458Y0095173D01*
X0054471Y0095230D01*
X0054489Y0095285D01*
X0054510Y0095339D01*
X0054534Y0095392D01*
X0054563Y0095443D01*
X0054594Y0095491D01*
X0054629Y0095538D01*
X0054667Y0095582D01*
X0054707Y0095623D01*
X0054751Y0095662D01*
X0054797Y0095697D01*
X0054845Y0095730D01*
X0054895Y0095759D01*
X0054948Y0095784D01*
X0055001Y0095806D01*
X0055056Y0095825D01*
X0055113Y0095839D01*
X0055170Y0095850D01*
X0055227Y0095857D01*
X0055285Y0095860D01*
X0055344Y0095859D01*
X0055401Y0095854D01*
X0055459Y0095845D01*
X0055516Y0095833D01*
X0055571Y0095816D01*
X0055626Y0095796D01*
X0055679Y0095772D01*
X0055730Y0095745D01*
X0055779Y0095714D01*
X0055826Y0095680D01*
X0055871Y0095643D01*
X0055913Y0095603D01*
X0055953Y0095560D01*
X0055989Y0095515D01*
X0056022Y0095467D01*
X0056052Y0095417D01*
X0056078Y0095366D01*
X0056101Y0095312D01*
X0056121Y0095257D01*
X0056136Y0095201D01*
X0056148Y0095145D01*
X0056156Y0095087D01*
X0056160Y0095029D01*
X0056160Y0094971D01*
X0056156Y0094913D01*
X0056148Y0094855D01*
X0056136Y0094799D01*
X0056121Y0094743D01*
X0056101Y0094688D01*
X0056078Y0094634D01*
X0056052Y0094583D01*
X0056022Y0094533D01*
X0055989Y0094485D01*
X0055953Y0094440D01*
X0055913Y0094397D01*
X0055871Y0094357D01*
X0055826Y0094320D01*
X0055779Y0094286D01*
X0055730Y0094255D01*
X0055679Y0094228D01*
X0055626Y0094204D01*
X0055571Y0094184D01*
X0055516Y0094167D01*
X0055459Y0094155D01*
X0055401Y0094146D01*
X0055344Y0094141D01*
X0055285Y0094140D01*
X0055227Y0094143D01*
X0055170Y0094150D01*
X0055113Y0094161D01*
X0055056Y0094175D01*
X0055001Y0094194D01*
X0054948Y0094216D01*
X0054895Y0094241D01*
X0054845Y0094270D01*
X0054797Y0094303D01*
X0054751Y0094338D01*
X0054707Y0094377D01*
X0054667Y0094418D01*
X0054629Y0094462D01*
X0054594Y0094509D01*
X0054563Y0094557D01*
X0054534Y0094608D01*
X0054510Y0094661D01*
X0054489Y0094715D01*
X0054471Y0094770D01*
X0054458Y0094827D01*
X0054448Y0094884D01*
X0054442Y0094942D01*
X0054440Y0095000D01*
X0055200Y0095000D02*
X0055202Y0095020D01*
X0055208Y0095038D01*
X0055217Y0095056D01*
X0055229Y0095071D01*
X0055244Y0095083D01*
X0055262Y0095092D01*
X0055280Y0095098D01*
X0055300Y0095100D01*
X0055320Y0095098D01*
X0055338Y0095092D01*
X0055356Y0095083D01*
X0055371Y0095071D01*
X0055383Y0095056D01*
X0055392Y0095038D01*
X0055398Y0095020D01*
X0055400Y0095000D01*
X0055398Y0094980D01*
X0055392Y0094962D01*
X0055383Y0094944D01*
X0055371Y0094929D01*
X0055356Y0094917D01*
X0055338Y0094908D01*
X0055320Y0094902D01*
X0055300Y0094900D01*
X0055280Y0094902D01*
X0055262Y0094908D01*
X0055244Y0094917D01*
X0055229Y0094929D01*
X0055217Y0094944D01*
X0055208Y0094962D01*
X0055202Y0094980D01*
X0055200Y0095000D01*
X0054800Y0095000D02*
X0054802Y0095044D01*
X0054808Y0095088D01*
X0054818Y0095131D01*
X0054831Y0095173D01*
X0054848Y0095214D01*
X0054869Y0095253D01*
X0054893Y0095290D01*
X0054920Y0095325D01*
X0054950Y0095357D01*
X0054983Y0095387D01*
X0055019Y0095413D01*
X0055056Y0095437D01*
X0055096Y0095456D01*
X0055137Y0095473D01*
X0055180Y0095485D01*
X0055223Y0095494D01*
X0055267Y0095499D01*
X0055311Y0095500D01*
X0055355Y0095497D01*
X0055399Y0095490D01*
X0055442Y0095479D01*
X0055484Y0095465D01*
X0055524Y0095447D01*
X0055563Y0095425D01*
X0055599Y0095401D01*
X0055633Y0095373D01*
X0055665Y0095342D01*
X0055694Y0095308D01*
X0055720Y0095272D01*
X0055742Y0095234D01*
X0055761Y0095194D01*
X0055776Y0095152D01*
X0055788Y0095110D01*
X0055796Y0095066D01*
X0055800Y0095022D01*
X0055800Y0094978D01*
X0055796Y0094934D01*
X0055788Y0094890D01*
X0055776Y0094848D01*
X0055761Y0094806D01*
X0055742Y0094766D01*
X0055720Y0094728D01*
X0055694Y0094692D01*
X0055665Y0094658D01*
X0055633Y0094627D01*
X0055599Y0094599D01*
X0055563Y0094575D01*
X0055524Y0094553D01*
X0055484Y0094535D01*
X0055442Y0094521D01*
X0055399Y0094510D01*
X0055355Y0094503D01*
X0055311Y0094500D01*
X0055267Y0094501D01*
X0055223Y0094506D01*
X0055180Y0094515D01*
X0055137Y0094527D01*
X0055096Y0094544D01*
X0055056Y0094563D01*
X0055019Y0094587D01*
X0054983Y0094613D01*
X0054950Y0094643D01*
X0054920Y0094675D01*
X0054893Y0094710D01*
X0054869Y0094747D01*
X0054848Y0094786D01*
X0054831Y0094827D01*
X0054818Y0094869D01*
X0054808Y0094912D01*
X0054802Y0094956D01*
X0054800Y0095000D01*
X0076440Y0123900D02*
X0076442Y0123958D01*
X0076448Y0124016D01*
X0076458Y0124073D01*
X0076471Y0124130D01*
X0076489Y0124185D01*
X0076510Y0124239D01*
X0076534Y0124292D01*
X0076563Y0124343D01*
X0076594Y0124391D01*
X0076629Y0124438D01*
X0076667Y0124482D01*
X0076707Y0124523D01*
X0076751Y0124562D01*
X0076797Y0124597D01*
X0076845Y0124630D01*
X0076895Y0124659D01*
X0076948Y0124684D01*
X0077001Y0124706D01*
X0077056Y0124725D01*
X0077113Y0124739D01*
X0077170Y0124750D01*
X0077227Y0124757D01*
X0077285Y0124760D01*
X0077344Y0124759D01*
X0077401Y0124754D01*
X0077459Y0124745D01*
X0077516Y0124733D01*
X0077571Y0124716D01*
X0077626Y0124696D01*
X0077679Y0124672D01*
X0077730Y0124645D01*
X0077779Y0124614D01*
X0077826Y0124580D01*
X0077871Y0124543D01*
X0077913Y0124503D01*
X0077953Y0124460D01*
X0077989Y0124415D01*
X0078022Y0124367D01*
X0078052Y0124317D01*
X0078078Y0124266D01*
X0078101Y0124212D01*
X0078121Y0124157D01*
X0078136Y0124101D01*
X0078148Y0124045D01*
X0078156Y0123987D01*
X0078160Y0123929D01*
X0078160Y0123871D01*
X0078156Y0123813D01*
X0078148Y0123755D01*
X0078136Y0123699D01*
X0078121Y0123643D01*
X0078101Y0123588D01*
X0078078Y0123534D01*
X0078052Y0123483D01*
X0078022Y0123433D01*
X0077989Y0123385D01*
X0077953Y0123340D01*
X0077913Y0123297D01*
X0077871Y0123257D01*
X0077826Y0123220D01*
X0077779Y0123186D01*
X0077730Y0123155D01*
X0077679Y0123128D01*
X0077626Y0123104D01*
X0077571Y0123084D01*
X0077516Y0123067D01*
X0077459Y0123055D01*
X0077401Y0123046D01*
X0077344Y0123041D01*
X0077285Y0123040D01*
X0077227Y0123043D01*
X0077170Y0123050D01*
X0077113Y0123061D01*
X0077056Y0123075D01*
X0077001Y0123094D01*
X0076948Y0123116D01*
X0076895Y0123141D01*
X0076845Y0123170D01*
X0076797Y0123203D01*
X0076751Y0123238D01*
X0076707Y0123277D01*
X0076667Y0123318D01*
X0076629Y0123362D01*
X0076594Y0123409D01*
X0076563Y0123457D01*
X0076534Y0123508D01*
X0076510Y0123561D01*
X0076489Y0123615D01*
X0076471Y0123670D01*
X0076458Y0123727D01*
X0076448Y0123784D01*
X0076442Y0123842D01*
X0076440Y0123900D01*
X0077200Y0123900D02*
X0077202Y0123920D01*
X0077208Y0123938D01*
X0077217Y0123956D01*
X0077229Y0123971D01*
X0077244Y0123983D01*
X0077262Y0123992D01*
X0077280Y0123998D01*
X0077300Y0124000D01*
X0077320Y0123998D01*
X0077338Y0123992D01*
X0077356Y0123983D01*
X0077371Y0123971D01*
X0077383Y0123956D01*
X0077392Y0123938D01*
X0077398Y0123920D01*
X0077400Y0123900D01*
X0077398Y0123880D01*
X0077392Y0123862D01*
X0077383Y0123844D01*
X0077371Y0123829D01*
X0077356Y0123817D01*
X0077338Y0123808D01*
X0077320Y0123802D01*
X0077300Y0123800D01*
X0077280Y0123802D01*
X0077262Y0123808D01*
X0077244Y0123817D01*
X0077229Y0123829D01*
X0077217Y0123844D01*
X0077208Y0123862D01*
X0077202Y0123880D01*
X0077200Y0123900D01*
X0076800Y0123900D02*
X0076802Y0123944D01*
X0076808Y0123988D01*
X0076818Y0124031D01*
X0076831Y0124073D01*
X0076848Y0124114D01*
X0076869Y0124153D01*
X0076893Y0124190D01*
X0076920Y0124225D01*
X0076950Y0124257D01*
X0076983Y0124287D01*
X0077019Y0124313D01*
X0077056Y0124337D01*
X0077096Y0124356D01*
X0077137Y0124373D01*
X0077180Y0124385D01*
X0077223Y0124394D01*
X0077267Y0124399D01*
X0077311Y0124400D01*
X0077355Y0124397D01*
X0077399Y0124390D01*
X0077442Y0124379D01*
X0077484Y0124365D01*
X0077524Y0124347D01*
X0077563Y0124325D01*
X0077599Y0124301D01*
X0077633Y0124273D01*
X0077665Y0124242D01*
X0077694Y0124208D01*
X0077720Y0124172D01*
X0077742Y0124134D01*
X0077761Y0124094D01*
X0077776Y0124052D01*
X0077788Y0124010D01*
X0077796Y0123966D01*
X0077800Y0123922D01*
X0077800Y0123878D01*
X0077796Y0123834D01*
X0077788Y0123790D01*
X0077776Y0123748D01*
X0077761Y0123706D01*
X0077742Y0123666D01*
X0077720Y0123628D01*
X0077694Y0123592D01*
X0077665Y0123558D01*
X0077633Y0123527D01*
X0077599Y0123499D01*
X0077563Y0123475D01*
X0077524Y0123453D01*
X0077484Y0123435D01*
X0077442Y0123421D01*
X0077399Y0123410D01*
X0077355Y0123403D01*
X0077311Y0123400D01*
X0077267Y0123401D01*
X0077223Y0123406D01*
X0077180Y0123415D01*
X0077137Y0123427D01*
X0077096Y0123444D01*
X0077056Y0123463D01*
X0077019Y0123487D01*
X0076983Y0123513D01*
X0076950Y0123543D01*
X0076920Y0123575D01*
X0076893Y0123610D01*
X0076869Y0123647D01*
X0076848Y0123686D01*
X0076831Y0123727D01*
X0076818Y0123769D01*
X0076808Y0123812D01*
X0076802Y0123856D01*
X0076800Y0123900D01*
X0078740Y0135000D02*
X0078742Y0135058D01*
X0078748Y0135116D01*
X0078758Y0135173D01*
X0078771Y0135230D01*
X0078789Y0135285D01*
X0078810Y0135339D01*
X0078834Y0135392D01*
X0078863Y0135443D01*
X0078894Y0135491D01*
X0078929Y0135538D01*
X0078967Y0135582D01*
X0079007Y0135623D01*
X0079051Y0135662D01*
X0079097Y0135697D01*
X0079145Y0135730D01*
X0079195Y0135759D01*
X0079248Y0135784D01*
X0079301Y0135806D01*
X0079356Y0135825D01*
X0079413Y0135839D01*
X0079470Y0135850D01*
X0079527Y0135857D01*
X0079585Y0135860D01*
X0079644Y0135859D01*
X0079701Y0135854D01*
X0079759Y0135845D01*
X0079816Y0135833D01*
X0079871Y0135816D01*
X0079926Y0135796D01*
X0079979Y0135772D01*
X0080030Y0135745D01*
X0080079Y0135714D01*
X0080126Y0135680D01*
X0080171Y0135643D01*
X0080213Y0135603D01*
X0080253Y0135560D01*
X0080289Y0135515D01*
X0080322Y0135467D01*
X0080352Y0135417D01*
X0080378Y0135366D01*
X0080401Y0135312D01*
X0080421Y0135257D01*
X0080436Y0135201D01*
X0080448Y0135145D01*
X0080456Y0135087D01*
X0080460Y0135029D01*
X0080460Y0134971D01*
X0080456Y0134913D01*
X0080448Y0134855D01*
X0080436Y0134799D01*
X0080421Y0134743D01*
X0080401Y0134688D01*
X0080378Y0134634D01*
X0080352Y0134583D01*
X0080322Y0134533D01*
X0080289Y0134485D01*
X0080253Y0134440D01*
X0080213Y0134397D01*
X0080171Y0134357D01*
X0080126Y0134320D01*
X0080079Y0134286D01*
X0080030Y0134255D01*
X0079979Y0134228D01*
X0079926Y0134204D01*
X0079871Y0134184D01*
X0079816Y0134167D01*
X0079759Y0134155D01*
X0079701Y0134146D01*
X0079644Y0134141D01*
X0079585Y0134140D01*
X0079527Y0134143D01*
X0079470Y0134150D01*
X0079413Y0134161D01*
X0079356Y0134175D01*
X0079301Y0134194D01*
X0079248Y0134216D01*
X0079195Y0134241D01*
X0079145Y0134270D01*
X0079097Y0134303D01*
X0079051Y0134338D01*
X0079007Y0134377D01*
X0078967Y0134418D01*
X0078929Y0134462D01*
X0078894Y0134509D01*
X0078863Y0134557D01*
X0078834Y0134608D01*
X0078810Y0134661D01*
X0078789Y0134715D01*
X0078771Y0134770D01*
X0078758Y0134827D01*
X0078748Y0134884D01*
X0078742Y0134942D01*
X0078740Y0135000D01*
X0079500Y0135000D02*
X0079502Y0135020D01*
X0079508Y0135038D01*
X0079517Y0135056D01*
X0079529Y0135071D01*
X0079544Y0135083D01*
X0079562Y0135092D01*
X0079580Y0135098D01*
X0079600Y0135100D01*
X0079620Y0135098D01*
X0079638Y0135092D01*
X0079656Y0135083D01*
X0079671Y0135071D01*
X0079683Y0135056D01*
X0079692Y0135038D01*
X0079698Y0135020D01*
X0079700Y0135000D01*
X0079698Y0134980D01*
X0079692Y0134962D01*
X0079683Y0134944D01*
X0079671Y0134929D01*
X0079656Y0134917D01*
X0079638Y0134908D01*
X0079620Y0134902D01*
X0079600Y0134900D01*
X0079580Y0134902D01*
X0079562Y0134908D01*
X0079544Y0134917D01*
X0079529Y0134929D01*
X0079517Y0134944D01*
X0079508Y0134962D01*
X0079502Y0134980D01*
X0079500Y0135000D01*
X0079100Y0135000D02*
X0079102Y0135044D01*
X0079108Y0135088D01*
X0079118Y0135131D01*
X0079131Y0135173D01*
X0079148Y0135214D01*
X0079169Y0135253D01*
X0079193Y0135290D01*
X0079220Y0135325D01*
X0079250Y0135357D01*
X0079283Y0135387D01*
X0079319Y0135413D01*
X0079356Y0135437D01*
X0079396Y0135456D01*
X0079437Y0135473D01*
X0079480Y0135485D01*
X0079523Y0135494D01*
X0079567Y0135499D01*
X0079611Y0135500D01*
X0079655Y0135497D01*
X0079699Y0135490D01*
X0079742Y0135479D01*
X0079784Y0135465D01*
X0079824Y0135447D01*
X0079863Y0135425D01*
X0079899Y0135401D01*
X0079933Y0135373D01*
X0079965Y0135342D01*
X0079994Y0135308D01*
X0080020Y0135272D01*
X0080042Y0135234D01*
X0080061Y0135194D01*
X0080076Y0135152D01*
X0080088Y0135110D01*
X0080096Y0135066D01*
X0080100Y0135022D01*
X0080100Y0134978D01*
X0080096Y0134934D01*
X0080088Y0134890D01*
X0080076Y0134848D01*
X0080061Y0134806D01*
X0080042Y0134766D01*
X0080020Y0134728D01*
X0079994Y0134692D01*
X0079965Y0134658D01*
X0079933Y0134627D01*
X0079899Y0134599D01*
X0079863Y0134575D01*
X0079824Y0134553D01*
X0079784Y0134535D01*
X0079742Y0134521D01*
X0079699Y0134510D01*
X0079655Y0134503D01*
X0079611Y0134500D01*
X0079567Y0134501D01*
X0079523Y0134506D01*
X0079480Y0134515D01*
X0079437Y0134527D01*
X0079396Y0134544D01*
X0079356Y0134563D01*
X0079319Y0134587D01*
X0079283Y0134613D01*
X0079250Y0134643D01*
X0079220Y0134675D01*
X0079193Y0134710D01*
X0079169Y0134747D01*
X0079148Y0134786D01*
X0079131Y0134827D01*
X0079118Y0134869D01*
X0079108Y0134912D01*
X0079102Y0134956D01*
X0079100Y0135000D01*
X0116340Y0122300D02*
X0116342Y0122358D01*
X0116348Y0122416D01*
X0116358Y0122473D01*
X0116371Y0122530D01*
X0116389Y0122585D01*
X0116410Y0122639D01*
X0116434Y0122692D01*
X0116463Y0122743D01*
X0116494Y0122791D01*
X0116529Y0122838D01*
X0116567Y0122882D01*
X0116607Y0122923D01*
X0116651Y0122962D01*
X0116697Y0122997D01*
X0116745Y0123030D01*
X0116795Y0123059D01*
X0116848Y0123084D01*
X0116901Y0123106D01*
X0116956Y0123125D01*
X0117013Y0123139D01*
X0117070Y0123150D01*
X0117127Y0123157D01*
X0117185Y0123160D01*
X0117244Y0123159D01*
X0117301Y0123154D01*
X0117359Y0123145D01*
X0117416Y0123133D01*
X0117471Y0123116D01*
X0117526Y0123096D01*
X0117579Y0123072D01*
X0117630Y0123045D01*
X0117679Y0123014D01*
X0117726Y0122980D01*
X0117771Y0122943D01*
X0117813Y0122903D01*
X0117853Y0122860D01*
X0117889Y0122815D01*
X0117922Y0122767D01*
X0117952Y0122717D01*
X0117978Y0122666D01*
X0118001Y0122612D01*
X0118021Y0122557D01*
X0118036Y0122501D01*
X0118048Y0122445D01*
X0118056Y0122387D01*
X0118060Y0122329D01*
X0118060Y0122271D01*
X0118056Y0122213D01*
X0118048Y0122155D01*
X0118036Y0122099D01*
X0118021Y0122043D01*
X0118001Y0121988D01*
X0117978Y0121934D01*
X0117952Y0121883D01*
X0117922Y0121833D01*
X0117889Y0121785D01*
X0117853Y0121740D01*
X0117813Y0121697D01*
X0117771Y0121657D01*
X0117726Y0121620D01*
X0117679Y0121586D01*
X0117630Y0121555D01*
X0117579Y0121528D01*
X0117526Y0121504D01*
X0117471Y0121484D01*
X0117416Y0121467D01*
X0117359Y0121455D01*
X0117301Y0121446D01*
X0117244Y0121441D01*
X0117185Y0121440D01*
X0117127Y0121443D01*
X0117070Y0121450D01*
X0117013Y0121461D01*
X0116956Y0121475D01*
X0116901Y0121494D01*
X0116848Y0121516D01*
X0116795Y0121541D01*
X0116745Y0121570D01*
X0116697Y0121603D01*
X0116651Y0121638D01*
X0116607Y0121677D01*
X0116567Y0121718D01*
X0116529Y0121762D01*
X0116494Y0121809D01*
X0116463Y0121857D01*
X0116434Y0121908D01*
X0116410Y0121961D01*
X0116389Y0122015D01*
X0116371Y0122070D01*
X0116358Y0122127D01*
X0116348Y0122184D01*
X0116342Y0122242D01*
X0116340Y0122300D01*
X0117100Y0122300D02*
X0117102Y0122320D01*
X0117108Y0122338D01*
X0117117Y0122356D01*
X0117129Y0122371D01*
X0117144Y0122383D01*
X0117162Y0122392D01*
X0117180Y0122398D01*
X0117200Y0122400D01*
X0117220Y0122398D01*
X0117238Y0122392D01*
X0117256Y0122383D01*
X0117271Y0122371D01*
X0117283Y0122356D01*
X0117292Y0122338D01*
X0117298Y0122320D01*
X0117300Y0122300D01*
X0117298Y0122280D01*
X0117292Y0122262D01*
X0117283Y0122244D01*
X0117271Y0122229D01*
X0117256Y0122217D01*
X0117238Y0122208D01*
X0117220Y0122202D01*
X0117200Y0122200D01*
X0117180Y0122202D01*
X0117162Y0122208D01*
X0117144Y0122217D01*
X0117129Y0122229D01*
X0117117Y0122244D01*
X0117108Y0122262D01*
X0117102Y0122280D01*
X0117100Y0122300D01*
X0116700Y0122300D02*
X0116702Y0122344D01*
X0116708Y0122388D01*
X0116718Y0122431D01*
X0116731Y0122473D01*
X0116748Y0122514D01*
X0116769Y0122553D01*
X0116793Y0122590D01*
X0116820Y0122625D01*
X0116850Y0122657D01*
X0116883Y0122687D01*
X0116919Y0122713D01*
X0116956Y0122737D01*
X0116996Y0122756D01*
X0117037Y0122773D01*
X0117080Y0122785D01*
X0117123Y0122794D01*
X0117167Y0122799D01*
X0117211Y0122800D01*
X0117255Y0122797D01*
X0117299Y0122790D01*
X0117342Y0122779D01*
X0117384Y0122765D01*
X0117424Y0122747D01*
X0117463Y0122725D01*
X0117499Y0122701D01*
X0117533Y0122673D01*
X0117565Y0122642D01*
X0117594Y0122608D01*
X0117620Y0122572D01*
X0117642Y0122534D01*
X0117661Y0122494D01*
X0117676Y0122452D01*
X0117688Y0122410D01*
X0117696Y0122366D01*
X0117700Y0122322D01*
X0117700Y0122278D01*
X0117696Y0122234D01*
X0117688Y0122190D01*
X0117676Y0122148D01*
X0117661Y0122106D01*
X0117642Y0122066D01*
X0117620Y0122028D01*
X0117594Y0121992D01*
X0117565Y0121958D01*
X0117533Y0121927D01*
X0117499Y0121899D01*
X0117463Y0121875D01*
X0117424Y0121853D01*
X0117384Y0121835D01*
X0117342Y0121821D01*
X0117299Y0121810D01*
X0117255Y0121803D01*
X0117211Y0121800D01*
X0117167Y0121801D01*
X0117123Y0121806D01*
X0117080Y0121815D01*
X0117037Y0121827D01*
X0116996Y0121844D01*
X0116956Y0121863D01*
X0116919Y0121887D01*
X0116883Y0121913D01*
X0116850Y0121943D01*
X0116820Y0121975D01*
X0116793Y0122010D01*
X0116769Y0122047D01*
X0116748Y0122086D01*
X0116731Y0122127D01*
X0116718Y0122169D01*
X0116708Y0122212D01*
X0116702Y0122256D01*
X0116700Y0122300D01*
X0119540Y0133100D02*
X0119542Y0133158D01*
X0119548Y0133216D01*
X0119558Y0133273D01*
X0119571Y0133330D01*
X0119589Y0133385D01*
X0119610Y0133439D01*
X0119634Y0133492D01*
X0119663Y0133543D01*
X0119694Y0133591D01*
X0119729Y0133638D01*
X0119767Y0133682D01*
X0119807Y0133723D01*
X0119851Y0133762D01*
X0119897Y0133797D01*
X0119945Y0133830D01*
X0119995Y0133859D01*
X0120048Y0133884D01*
X0120101Y0133906D01*
X0120156Y0133925D01*
X0120213Y0133939D01*
X0120270Y0133950D01*
X0120327Y0133957D01*
X0120385Y0133960D01*
X0120444Y0133959D01*
X0120501Y0133954D01*
X0120559Y0133945D01*
X0120616Y0133933D01*
X0120671Y0133916D01*
X0120726Y0133896D01*
X0120779Y0133872D01*
X0120830Y0133845D01*
X0120879Y0133814D01*
X0120926Y0133780D01*
X0120971Y0133743D01*
X0121013Y0133703D01*
X0121053Y0133660D01*
X0121089Y0133615D01*
X0121122Y0133567D01*
X0121152Y0133517D01*
X0121178Y0133466D01*
X0121201Y0133412D01*
X0121221Y0133357D01*
X0121236Y0133301D01*
X0121248Y0133245D01*
X0121256Y0133187D01*
X0121260Y0133129D01*
X0121260Y0133071D01*
X0121256Y0133013D01*
X0121248Y0132955D01*
X0121236Y0132899D01*
X0121221Y0132843D01*
X0121201Y0132788D01*
X0121178Y0132734D01*
X0121152Y0132683D01*
X0121122Y0132633D01*
X0121089Y0132585D01*
X0121053Y0132540D01*
X0121013Y0132497D01*
X0120971Y0132457D01*
X0120926Y0132420D01*
X0120879Y0132386D01*
X0120830Y0132355D01*
X0120779Y0132328D01*
X0120726Y0132304D01*
X0120671Y0132284D01*
X0120616Y0132267D01*
X0120559Y0132255D01*
X0120501Y0132246D01*
X0120444Y0132241D01*
X0120385Y0132240D01*
X0120327Y0132243D01*
X0120270Y0132250D01*
X0120213Y0132261D01*
X0120156Y0132275D01*
X0120101Y0132294D01*
X0120048Y0132316D01*
X0119995Y0132341D01*
X0119945Y0132370D01*
X0119897Y0132403D01*
X0119851Y0132438D01*
X0119807Y0132477D01*
X0119767Y0132518D01*
X0119729Y0132562D01*
X0119694Y0132609D01*
X0119663Y0132657D01*
X0119634Y0132708D01*
X0119610Y0132761D01*
X0119589Y0132815D01*
X0119571Y0132870D01*
X0119558Y0132927D01*
X0119548Y0132984D01*
X0119542Y0133042D01*
X0119540Y0133100D01*
X0120300Y0133100D02*
X0120302Y0133120D01*
X0120308Y0133138D01*
X0120317Y0133156D01*
X0120329Y0133171D01*
X0120344Y0133183D01*
X0120362Y0133192D01*
X0120380Y0133198D01*
X0120400Y0133200D01*
X0120420Y0133198D01*
X0120438Y0133192D01*
X0120456Y0133183D01*
X0120471Y0133171D01*
X0120483Y0133156D01*
X0120492Y0133138D01*
X0120498Y0133120D01*
X0120500Y0133100D01*
X0120498Y0133080D01*
X0120492Y0133062D01*
X0120483Y0133044D01*
X0120471Y0133029D01*
X0120456Y0133017D01*
X0120438Y0133008D01*
X0120420Y0133002D01*
X0120400Y0133000D01*
X0120380Y0133002D01*
X0120362Y0133008D01*
X0120344Y0133017D01*
X0120329Y0133029D01*
X0120317Y0133044D01*
X0120308Y0133062D01*
X0120302Y0133080D01*
X0120300Y0133100D01*
X0119900Y0133100D02*
X0119902Y0133144D01*
X0119908Y0133188D01*
X0119918Y0133231D01*
X0119931Y0133273D01*
X0119948Y0133314D01*
X0119969Y0133353D01*
X0119993Y0133390D01*
X0120020Y0133425D01*
X0120050Y0133457D01*
X0120083Y0133487D01*
X0120119Y0133513D01*
X0120156Y0133537D01*
X0120196Y0133556D01*
X0120237Y0133573D01*
X0120280Y0133585D01*
X0120323Y0133594D01*
X0120367Y0133599D01*
X0120411Y0133600D01*
X0120455Y0133597D01*
X0120499Y0133590D01*
X0120542Y0133579D01*
X0120584Y0133565D01*
X0120624Y0133547D01*
X0120663Y0133525D01*
X0120699Y0133501D01*
X0120733Y0133473D01*
X0120765Y0133442D01*
X0120794Y0133408D01*
X0120820Y0133372D01*
X0120842Y0133334D01*
X0120861Y0133294D01*
X0120876Y0133252D01*
X0120888Y0133210D01*
X0120896Y0133166D01*
X0120900Y0133122D01*
X0120900Y0133078D01*
X0120896Y0133034D01*
X0120888Y0132990D01*
X0120876Y0132948D01*
X0120861Y0132906D01*
X0120842Y0132866D01*
X0120820Y0132828D01*
X0120794Y0132792D01*
X0120765Y0132758D01*
X0120733Y0132727D01*
X0120699Y0132699D01*
X0120663Y0132675D01*
X0120624Y0132653D01*
X0120584Y0132635D01*
X0120542Y0132621D01*
X0120499Y0132610D01*
X0120455Y0132603D01*
X0120411Y0132600D01*
X0120367Y0132601D01*
X0120323Y0132606D01*
X0120280Y0132615D01*
X0120237Y0132627D01*
X0120196Y0132644D01*
X0120156Y0132663D01*
X0120119Y0132687D01*
X0120083Y0132713D01*
X0120050Y0132743D01*
X0120020Y0132775D01*
X0119993Y0132810D01*
X0119969Y0132847D01*
X0119948Y0132886D01*
X0119931Y0132927D01*
X0119918Y0132969D01*
X0119908Y0133012D01*
X0119902Y0133056D01*
X0119900Y0133100D01*
X0142240Y0122300D02*
X0142242Y0122358D01*
X0142248Y0122416D01*
X0142258Y0122473D01*
X0142271Y0122530D01*
X0142289Y0122585D01*
X0142310Y0122639D01*
X0142334Y0122692D01*
X0142363Y0122743D01*
X0142394Y0122791D01*
X0142429Y0122838D01*
X0142467Y0122882D01*
X0142507Y0122923D01*
X0142551Y0122962D01*
X0142597Y0122997D01*
X0142645Y0123030D01*
X0142695Y0123059D01*
X0142748Y0123084D01*
X0142801Y0123106D01*
X0142856Y0123125D01*
X0142913Y0123139D01*
X0142970Y0123150D01*
X0143027Y0123157D01*
X0143085Y0123160D01*
X0143144Y0123159D01*
X0143201Y0123154D01*
X0143259Y0123145D01*
X0143316Y0123133D01*
X0143371Y0123116D01*
X0143426Y0123096D01*
X0143479Y0123072D01*
X0143530Y0123045D01*
X0143579Y0123014D01*
X0143626Y0122980D01*
X0143671Y0122943D01*
X0143713Y0122903D01*
X0143753Y0122860D01*
X0143789Y0122815D01*
X0143822Y0122767D01*
X0143852Y0122717D01*
X0143878Y0122666D01*
X0143901Y0122612D01*
X0143921Y0122557D01*
X0143936Y0122501D01*
X0143948Y0122445D01*
X0143956Y0122387D01*
X0143960Y0122329D01*
X0143960Y0122271D01*
X0143956Y0122213D01*
X0143948Y0122155D01*
X0143936Y0122099D01*
X0143921Y0122043D01*
X0143901Y0121988D01*
X0143878Y0121934D01*
X0143852Y0121883D01*
X0143822Y0121833D01*
X0143789Y0121785D01*
X0143753Y0121740D01*
X0143713Y0121697D01*
X0143671Y0121657D01*
X0143626Y0121620D01*
X0143579Y0121586D01*
X0143530Y0121555D01*
X0143479Y0121528D01*
X0143426Y0121504D01*
X0143371Y0121484D01*
X0143316Y0121467D01*
X0143259Y0121455D01*
X0143201Y0121446D01*
X0143144Y0121441D01*
X0143085Y0121440D01*
X0143027Y0121443D01*
X0142970Y0121450D01*
X0142913Y0121461D01*
X0142856Y0121475D01*
X0142801Y0121494D01*
X0142748Y0121516D01*
X0142695Y0121541D01*
X0142645Y0121570D01*
X0142597Y0121603D01*
X0142551Y0121638D01*
X0142507Y0121677D01*
X0142467Y0121718D01*
X0142429Y0121762D01*
X0142394Y0121809D01*
X0142363Y0121857D01*
X0142334Y0121908D01*
X0142310Y0121961D01*
X0142289Y0122015D01*
X0142271Y0122070D01*
X0142258Y0122127D01*
X0142248Y0122184D01*
X0142242Y0122242D01*
X0142240Y0122300D01*
X0143000Y0122300D02*
X0143002Y0122320D01*
X0143008Y0122338D01*
X0143017Y0122356D01*
X0143029Y0122371D01*
X0143044Y0122383D01*
X0143062Y0122392D01*
X0143080Y0122398D01*
X0143100Y0122400D01*
X0143120Y0122398D01*
X0143138Y0122392D01*
X0143156Y0122383D01*
X0143171Y0122371D01*
X0143183Y0122356D01*
X0143192Y0122338D01*
X0143198Y0122320D01*
X0143200Y0122300D01*
X0143198Y0122280D01*
X0143192Y0122262D01*
X0143183Y0122244D01*
X0143171Y0122229D01*
X0143156Y0122217D01*
X0143138Y0122208D01*
X0143120Y0122202D01*
X0143100Y0122200D01*
X0143080Y0122202D01*
X0143062Y0122208D01*
X0143044Y0122217D01*
X0143029Y0122229D01*
X0143017Y0122244D01*
X0143008Y0122262D01*
X0143002Y0122280D01*
X0143000Y0122300D01*
X0142600Y0122300D02*
X0142602Y0122344D01*
X0142608Y0122388D01*
X0142618Y0122431D01*
X0142631Y0122473D01*
X0142648Y0122514D01*
X0142669Y0122553D01*
X0142693Y0122590D01*
X0142720Y0122625D01*
X0142750Y0122657D01*
X0142783Y0122687D01*
X0142819Y0122713D01*
X0142856Y0122737D01*
X0142896Y0122756D01*
X0142937Y0122773D01*
X0142980Y0122785D01*
X0143023Y0122794D01*
X0143067Y0122799D01*
X0143111Y0122800D01*
X0143155Y0122797D01*
X0143199Y0122790D01*
X0143242Y0122779D01*
X0143284Y0122765D01*
X0143324Y0122747D01*
X0143363Y0122725D01*
X0143399Y0122701D01*
X0143433Y0122673D01*
X0143465Y0122642D01*
X0143494Y0122608D01*
X0143520Y0122572D01*
X0143542Y0122534D01*
X0143561Y0122494D01*
X0143576Y0122452D01*
X0143588Y0122410D01*
X0143596Y0122366D01*
X0143600Y0122322D01*
X0143600Y0122278D01*
X0143596Y0122234D01*
X0143588Y0122190D01*
X0143576Y0122148D01*
X0143561Y0122106D01*
X0143542Y0122066D01*
X0143520Y0122028D01*
X0143494Y0121992D01*
X0143465Y0121958D01*
X0143433Y0121927D01*
X0143399Y0121899D01*
X0143363Y0121875D01*
X0143324Y0121853D01*
X0143284Y0121835D01*
X0143242Y0121821D01*
X0143199Y0121810D01*
X0143155Y0121803D01*
X0143111Y0121800D01*
X0143067Y0121801D01*
X0143023Y0121806D01*
X0142980Y0121815D01*
X0142937Y0121827D01*
X0142896Y0121844D01*
X0142856Y0121863D01*
X0142819Y0121887D01*
X0142783Y0121913D01*
X0142750Y0121943D01*
X0142720Y0121975D01*
X0142693Y0122010D01*
X0142669Y0122047D01*
X0142648Y0122086D01*
X0142631Y0122127D01*
X0142618Y0122169D01*
X0142608Y0122212D01*
X0142602Y0122256D01*
X0142600Y0122300D01*
X0145740Y0132700D02*
X0145742Y0132758D01*
X0145748Y0132816D01*
X0145758Y0132873D01*
X0145771Y0132930D01*
X0145789Y0132985D01*
X0145810Y0133039D01*
X0145834Y0133092D01*
X0145863Y0133143D01*
X0145894Y0133191D01*
X0145929Y0133238D01*
X0145967Y0133282D01*
X0146007Y0133323D01*
X0146051Y0133362D01*
X0146097Y0133397D01*
X0146145Y0133430D01*
X0146195Y0133459D01*
X0146248Y0133484D01*
X0146301Y0133506D01*
X0146356Y0133525D01*
X0146413Y0133539D01*
X0146470Y0133550D01*
X0146527Y0133557D01*
X0146585Y0133560D01*
X0146644Y0133559D01*
X0146701Y0133554D01*
X0146759Y0133545D01*
X0146816Y0133533D01*
X0146871Y0133516D01*
X0146926Y0133496D01*
X0146979Y0133472D01*
X0147030Y0133445D01*
X0147079Y0133414D01*
X0147126Y0133380D01*
X0147171Y0133343D01*
X0147213Y0133303D01*
X0147253Y0133260D01*
X0147289Y0133215D01*
X0147322Y0133167D01*
X0147352Y0133117D01*
X0147378Y0133066D01*
X0147401Y0133012D01*
X0147421Y0132957D01*
X0147436Y0132901D01*
X0147448Y0132845D01*
X0147456Y0132787D01*
X0147460Y0132729D01*
X0147460Y0132671D01*
X0147456Y0132613D01*
X0147448Y0132555D01*
X0147436Y0132499D01*
X0147421Y0132443D01*
X0147401Y0132388D01*
X0147378Y0132334D01*
X0147352Y0132283D01*
X0147322Y0132233D01*
X0147289Y0132185D01*
X0147253Y0132140D01*
X0147213Y0132097D01*
X0147171Y0132057D01*
X0147126Y0132020D01*
X0147079Y0131986D01*
X0147030Y0131955D01*
X0146979Y0131928D01*
X0146926Y0131904D01*
X0146871Y0131884D01*
X0146816Y0131867D01*
X0146759Y0131855D01*
X0146701Y0131846D01*
X0146644Y0131841D01*
X0146585Y0131840D01*
X0146527Y0131843D01*
X0146470Y0131850D01*
X0146413Y0131861D01*
X0146356Y0131875D01*
X0146301Y0131894D01*
X0146248Y0131916D01*
X0146195Y0131941D01*
X0146145Y0131970D01*
X0146097Y0132003D01*
X0146051Y0132038D01*
X0146007Y0132077D01*
X0145967Y0132118D01*
X0145929Y0132162D01*
X0145894Y0132209D01*
X0145863Y0132257D01*
X0145834Y0132308D01*
X0145810Y0132361D01*
X0145789Y0132415D01*
X0145771Y0132470D01*
X0145758Y0132527D01*
X0145748Y0132584D01*
X0145742Y0132642D01*
X0145740Y0132700D01*
X0146500Y0132700D02*
X0146502Y0132720D01*
X0146508Y0132738D01*
X0146517Y0132756D01*
X0146529Y0132771D01*
X0146544Y0132783D01*
X0146562Y0132792D01*
X0146580Y0132798D01*
X0146600Y0132800D01*
X0146620Y0132798D01*
X0146638Y0132792D01*
X0146656Y0132783D01*
X0146671Y0132771D01*
X0146683Y0132756D01*
X0146692Y0132738D01*
X0146698Y0132720D01*
X0146700Y0132700D01*
X0146698Y0132680D01*
X0146692Y0132662D01*
X0146683Y0132644D01*
X0146671Y0132629D01*
X0146656Y0132617D01*
X0146638Y0132608D01*
X0146620Y0132602D01*
X0146600Y0132600D01*
X0146580Y0132602D01*
X0146562Y0132608D01*
X0146544Y0132617D01*
X0146529Y0132629D01*
X0146517Y0132644D01*
X0146508Y0132662D01*
X0146502Y0132680D01*
X0146500Y0132700D01*
X0146100Y0132700D02*
X0146102Y0132744D01*
X0146108Y0132788D01*
X0146118Y0132831D01*
X0146131Y0132873D01*
X0146148Y0132914D01*
X0146169Y0132953D01*
X0146193Y0132990D01*
X0146220Y0133025D01*
X0146250Y0133057D01*
X0146283Y0133087D01*
X0146319Y0133113D01*
X0146356Y0133137D01*
X0146396Y0133156D01*
X0146437Y0133173D01*
X0146480Y0133185D01*
X0146523Y0133194D01*
X0146567Y0133199D01*
X0146611Y0133200D01*
X0146655Y0133197D01*
X0146699Y0133190D01*
X0146742Y0133179D01*
X0146784Y0133165D01*
X0146824Y0133147D01*
X0146863Y0133125D01*
X0146899Y0133101D01*
X0146933Y0133073D01*
X0146965Y0133042D01*
X0146994Y0133008D01*
X0147020Y0132972D01*
X0147042Y0132934D01*
X0147061Y0132894D01*
X0147076Y0132852D01*
X0147088Y0132810D01*
X0147096Y0132766D01*
X0147100Y0132722D01*
X0147100Y0132678D01*
X0147096Y0132634D01*
X0147088Y0132590D01*
X0147076Y0132548D01*
X0147061Y0132506D01*
X0147042Y0132466D01*
X0147020Y0132428D01*
X0146994Y0132392D01*
X0146965Y0132358D01*
X0146933Y0132327D01*
X0146899Y0132299D01*
X0146863Y0132275D01*
X0146824Y0132253D01*
X0146784Y0132235D01*
X0146742Y0132221D01*
X0146699Y0132210D01*
X0146655Y0132203D01*
X0146611Y0132200D01*
X0146567Y0132201D01*
X0146523Y0132206D01*
X0146480Y0132215D01*
X0146437Y0132227D01*
X0146396Y0132244D01*
X0146356Y0132263D01*
X0146319Y0132287D01*
X0146283Y0132313D01*
X0146250Y0132343D01*
X0146220Y0132375D01*
X0146193Y0132410D01*
X0146169Y0132447D01*
X0146148Y0132486D01*
X0146131Y0132527D01*
X0146118Y0132569D01*
X0146108Y0132612D01*
X0146102Y0132656D01*
X0146100Y0132700D01*
X0157940Y0099700D02*
X0157942Y0099758D01*
X0157948Y0099816D01*
X0157958Y0099873D01*
X0157971Y0099930D01*
X0157989Y0099985D01*
X0158010Y0100039D01*
X0158034Y0100092D01*
X0158063Y0100143D01*
X0158094Y0100191D01*
X0158129Y0100238D01*
X0158167Y0100282D01*
X0158207Y0100323D01*
X0158251Y0100362D01*
X0158297Y0100397D01*
X0158345Y0100430D01*
X0158395Y0100459D01*
X0158448Y0100484D01*
X0158501Y0100506D01*
X0158556Y0100525D01*
X0158613Y0100539D01*
X0158670Y0100550D01*
X0158727Y0100557D01*
X0158785Y0100560D01*
X0158844Y0100559D01*
X0158901Y0100554D01*
X0158959Y0100545D01*
X0159016Y0100533D01*
X0159071Y0100516D01*
X0159126Y0100496D01*
X0159179Y0100472D01*
X0159230Y0100445D01*
X0159279Y0100414D01*
X0159326Y0100380D01*
X0159371Y0100343D01*
X0159413Y0100303D01*
X0159453Y0100260D01*
X0159489Y0100215D01*
X0159522Y0100167D01*
X0159552Y0100117D01*
X0159578Y0100066D01*
X0159601Y0100012D01*
X0159621Y0099957D01*
X0159636Y0099901D01*
X0159648Y0099845D01*
X0159656Y0099787D01*
X0159660Y0099729D01*
X0159660Y0099671D01*
X0159656Y0099613D01*
X0159648Y0099555D01*
X0159636Y0099499D01*
X0159621Y0099443D01*
X0159601Y0099388D01*
X0159578Y0099334D01*
X0159552Y0099283D01*
X0159522Y0099233D01*
X0159489Y0099185D01*
X0159453Y0099140D01*
X0159413Y0099097D01*
X0159371Y0099057D01*
X0159326Y0099020D01*
X0159279Y0098986D01*
X0159230Y0098955D01*
X0159179Y0098928D01*
X0159126Y0098904D01*
X0159071Y0098884D01*
X0159016Y0098867D01*
X0158959Y0098855D01*
X0158901Y0098846D01*
X0158844Y0098841D01*
X0158785Y0098840D01*
X0158727Y0098843D01*
X0158670Y0098850D01*
X0158613Y0098861D01*
X0158556Y0098875D01*
X0158501Y0098894D01*
X0158448Y0098916D01*
X0158395Y0098941D01*
X0158345Y0098970D01*
X0158297Y0099003D01*
X0158251Y0099038D01*
X0158207Y0099077D01*
X0158167Y0099118D01*
X0158129Y0099162D01*
X0158094Y0099209D01*
X0158063Y0099257D01*
X0158034Y0099308D01*
X0158010Y0099361D01*
X0157989Y0099415D01*
X0157971Y0099470D01*
X0157958Y0099527D01*
X0157948Y0099584D01*
X0157942Y0099642D01*
X0157940Y0099700D01*
X0158700Y0099700D02*
X0158702Y0099720D01*
X0158708Y0099738D01*
X0158717Y0099756D01*
X0158729Y0099771D01*
X0158744Y0099783D01*
X0158762Y0099792D01*
X0158780Y0099798D01*
X0158800Y0099800D01*
X0158820Y0099798D01*
X0158838Y0099792D01*
X0158856Y0099783D01*
X0158871Y0099771D01*
X0158883Y0099756D01*
X0158892Y0099738D01*
X0158898Y0099720D01*
X0158900Y0099700D01*
X0158898Y0099680D01*
X0158892Y0099662D01*
X0158883Y0099644D01*
X0158871Y0099629D01*
X0158856Y0099617D01*
X0158838Y0099608D01*
X0158820Y0099602D01*
X0158800Y0099600D01*
X0158780Y0099602D01*
X0158762Y0099608D01*
X0158744Y0099617D01*
X0158729Y0099629D01*
X0158717Y0099644D01*
X0158708Y0099662D01*
X0158702Y0099680D01*
X0158700Y0099700D01*
X0158300Y0099700D02*
X0158302Y0099744D01*
X0158308Y0099788D01*
X0158318Y0099831D01*
X0158331Y0099873D01*
X0158348Y0099914D01*
X0158369Y0099953D01*
X0158393Y0099990D01*
X0158420Y0100025D01*
X0158450Y0100057D01*
X0158483Y0100087D01*
X0158519Y0100113D01*
X0158556Y0100137D01*
X0158596Y0100156D01*
X0158637Y0100173D01*
X0158680Y0100185D01*
X0158723Y0100194D01*
X0158767Y0100199D01*
X0158811Y0100200D01*
X0158855Y0100197D01*
X0158899Y0100190D01*
X0158942Y0100179D01*
X0158984Y0100165D01*
X0159024Y0100147D01*
X0159063Y0100125D01*
X0159099Y0100101D01*
X0159133Y0100073D01*
X0159165Y0100042D01*
X0159194Y0100008D01*
X0159220Y0099972D01*
X0159242Y0099934D01*
X0159261Y0099894D01*
X0159276Y0099852D01*
X0159288Y0099810D01*
X0159296Y0099766D01*
X0159300Y0099722D01*
X0159300Y0099678D01*
X0159296Y0099634D01*
X0159288Y0099590D01*
X0159276Y0099548D01*
X0159261Y0099506D01*
X0159242Y0099466D01*
X0159220Y0099428D01*
X0159194Y0099392D01*
X0159165Y0099358D01*
X0159133Y0099327D01*
X0159099Y0099299D01*
X0159063Y0099275D01*
X0159024Y0099253D01*
X0158984Y0099235D01*
X0158942Y0099221D01*
X0158899Y0099210D01*
X0158855Y0099203D01*
X0158811Y0099200D01*
X0158767Y0099201D01*
X0158723Y0099206D01*
X0158680Y0099215D01*
X0158637Y0099227D01*
X0158596Y0099244D01*
X0158556Y0099263D01*
X0158519Y0099287D01*
X0158483Y0099313D01*
X0158450Y0099343D01*
X0158420Y0099375D01*
X0158393Y0099410D01*
X0158369Y0099447D01*
X0158348Y0099486D01*
X0158331Y0099527D01*
X0158318Y0099569D01*
X0158308Y0099612D01*
X0158302Y0099656D01*
X0158300Y0099700D01*
X0171640Y0099800D02*
X0171642Y0099858D01*
X0171648Y0099916D01*
X0171658Y0099973D01*
X0171671Y0100030D01*
X0171689Y0100085D01*
X0171710Y0100139D01*
X0171734Y0100192D01*
X0171763Y0100243D01*
X0171794Y0100291D01*
X0171829Y0100338D01*
X0171867Y0100382D01*
X0171907Y0100423D01*
X0171951Y0100462D01*
X0171997Y0100497D01*
X0172045Y0100530D01*
X0172095Y0100559D01*
X0172148Y0100584D01*
X0172201Y0100606D01*
X0172256Y0100625D01*
X0172313Y0100639D01*
X0172370Y0100650D01*
X0172427Y0100657D01*
X0172485Y0100660D01*
X0172544Y0100659D01*
X0172601Y0100654D01*
X0172659Y0100645D01*
X0172716Y0100633D01*
X0172771Y0100616D01*
X0172826Y0100596D01*
X0172879Y0100572D01*
X0172930Y0100545D01*
X0172979Y0100514D01*
X0173026Y0100480D01*
X0173071Y0100443D01*
X0173113Y0100403D01*
X0173153Y0100360D01*
X0173189Y0100315D01*
X0173222Y0100267D01*
X0173252Y0100217D01*
X0173278Y0100166D01*
X0173301Y0100112D01*
X0173321Y0100057D01*
X0173336Y0100001D01*
X0173348Y0099945D01*
X0173356Y0099887D01*
X0173360Y0099829D01*
X0173360Y0099771D01*
X0173356Y0099713D01*
X0173348Y0099655D01*
X0173336Y0099599D01*
X0173321Y0099543D01*
X0173301Y0099488D01*
X0173278Y0099434D01*
X0173252Y0099383D01*
X0173222Y0099333D01*
X0173189Y0099285D01*
X0173153Y0099240D01*
X0173113Y0099197D01*
X0173071Y0099157D01*
X0173026Y0099120D01*
X0172979Y0099086D01*
X0172930Y0099055D01*
X0172879Y0099028D01*
X0172826Y0099004D01*
X0172771Y0098984D01*
X0172716Y0098967D01*
X0172659Y0098955D01*
X0172601Y0098946D01*
X0172544Y0098941D01*
X0172485Y0098940D01*
X0172427Y0098943D01*
X0172370Y0098950D01*
X0172313Y0098961D01*
X0172256Y0098975D01*
X0172201Y0098994D01*
X0172148Y0099016D01*
X0172095Y0099041D01*
X0172045Y0099070D01*
X0171997Y0099103D01*
X0171951Y0099138D01*
X0171907Y0099177D01*
X0171867Y0099218D01*
X0171829Y0099262D01*
X0171794Y0099309D01*
X0171763Y0099357D01*
X0171734Y0099408D01*
X0171710Y0099461D01*
X0171689Y0099515D01*
X0171671Y0099570D01*
X0171658Y0099627D01*
X0171648Y0099684D01*
X0171642Y0099742D01*
X0171640Y0099800D01*
X0172400Y0099800D02*
X0172402Y0099820D01*
X0172408Y0099838D01*
X0172417Y0099856D01*
X0172429Y0099871D01*
X0172444Y0099883D01*
X0172462Y0099892D01*
X0172480Y0099898D01*
X0172500Y0099900D01*
X0172520Y0099898D01*
X0172538Y0099892D01*
X0172556Y0099883D01*
X0172571Y0099871D01*
X0172583Y0099856D01*
X0172592Y0099838D01*
X0172598Y0099820D01*
X0172600Y0099800D01*
X0172598Y0099780D01*
X0172592Y0099762D01*
X0172583Y0099744D01*
X0172571Y0099729D01*
X0172556Y0099717D01*
X0172538Y0099708D01*
X0172520Y0099702D01*
X0172500Y0099700D01*
X0172480Y0099702D01*
X0172462Y0099708D01*
X0172444Y0099717D01*
X0172429Y0099729D01*
X0172417Y0099744D01*
X0172408Y0099762D01*
X0172402Y0099780D01*
X0172400Y0099800D01*
X0172000Y0099800D02*
X0172002Y0099844D01*
X0172008Y0099888D01*
X0172018Y0099931D01*
X0172031Y0099973D01*
X0172048Y0100014D01*
X0172069Y0100053D01*
X0172093Y0100090D01*
X0172120Y0100125D01*
X0172150Y0100157D01*
X0172183Y0100187D01*
X0172219Y0100213D01*
X0172256Y0100237D01*
X0172296Y0100256D01*
X0172337Y0100273D01*
X0172380Y0100285D01*
X0172423Y0100294D01*
X0172467Y0100299D01*
X0172511Y0100300D01*
X0172555Y0100297D01*
X0172599Y0100290D01*
X0172642Y0100279D01*
X0172684Y0100265D01*
X0172724Y0100247D01*
X0172763Y0100225D01*
X0172799Y0100201D01*
X0172833Y0100173D01*
X0172865Y0100142D01*
X0172894Y0100108D01*
X0172920Y0100072D01*
X0172942Y0100034D01*
X0172961Y0099994D01*
X0172976Y0099952D01*
X0172988Y0099910D01*
X0172996Y0099866D01*
X0173000Y0099822D01*
X0173000Y0099778D01*
X0172996Y0099734D01*
X0172988Y0099690D01*
X0172976Y0099648D01*
X0172961Y0099606D01*
X0172942Y0099566D01*
X0172920Y0099528D01*
X0172894Y0099492D01*
X0172865Y0099458D01*
X0172833Y0099427D01*
X0172799Y0099399D01*
X0172763Y0099375D01*
X0172724Y0099353D01*
X0172684Y0099335D01*
X0172642Y0099321D01*
X0172599Y0099310D01*
X0172555Y0099303D01*
X0172511Y0099300D01*
X0172467Y0099301D01*
X0172423Y0099306D01*
X0172380Y0099315D01*
X0172337Y0099327D01*
X0172296Y0099344D01*
X0172256Y0099363D01*
X0172219Y0099387D01*
X0172183Y0099413D01*
X0172150Y0099443D01*
X0172120Y0099475D01*
X0172093Y0099510D01*
X0172069Y0099547D01*
X0172048Y0099586D01*
X0172031Y0099627D01*
X0172018Y0099669D01*
X0172008Y0099712D01*
X0172002Y0099756D01*
X0172000Y0099800D01*
X0185340Y0099600D02*
X0185342Y0099658D01*
X0185348Y0099716D01*
X0185358Y0099773D01*
X0185371Y0099830D01*
X0185389Y0099885D01*
X0185410Y0099939D01*
X0185434Y0099992D01*
X0185463Y0100043D01*
X0185494Y0100091D01*
X0185529Y0100138D01*
X0185567Y0100182D01*
X0185607Y0100223D01*
X0185651Y0100262D01*
X0185697Y0100297D01*
X0185745Y0100330D01*
X0185795Y0100359D01*
X0185848Y0100384D01*
X0185901Y0100406D01*
X0185956Y0100425D01*
X0186013Y0100439D01*
X0186070Y0100450D01*
X0186127Y0100457D01*
X0186185Y0100460D01*
X0186244Y0100459D01*
X0186301Y0100454D01*
X0186359Y0100445D01*
X0186416Y0100433D01*
X0186471Y0100416D01*
X0186526Y0100396D01*
X0186579Y0100372D01*
X0186630Y0100345D01*
X0186679Y0100314D01*
X0186726Y0100280D01*
X0186771Y0100243D01*
X0186813Y0100203D01*
X0186853Y0100160D01*
X0186889Y0100115D01*
X0186922Y0100067D01*
X0186952Y0100017D01*
X0186978Y0099966D01*
X0187001Y0099912D01*
X0187021Y0099857D01*
X0187036Y0099801D01*
X0187048Y0099745D01*
X0187056Y0099687D01*
X0187060Y0099629D01*
X0187060Y0099571D01*
X0187056Y0099513D01*
X0187048Y0099455D01*
X0187036Y0099399D01*
X0187021Y0099343D01*
X0187001Y0099288D01*
X0186978Y0099234D01*
X0186952Y0099183D01*
X0186922Y0099133D01*
X0186889Y0099085D01*
X0186853Y0099040D01*
X0186813Y0098997D01*
X0186771Y0098957D01*
X0186726Y0098920D01*
X0186679Y0098886D01*
X0186630Y0098855D01*
X0186579Y0098828D01*
X0186526Y0098804D01*
X0186471Y0098784D01*
X0186416Y0098767D01*
X0186359Y0098755D01*
X0186301Y0098746D01*
X0186244Y0098741D01*
X0186185Y0098740D01*
X0186127Y0098743D01*
X0186070Y0098750D01*
X0186013Y0098761D01*
X0185956Y0098775D01*
X0185901Y0098794D01*
X0185848Y0098816D01*
X0185795Y0098841D01*
X0185745Y0098870D01*
X0185697Y0098903D01*
X0185651Y0098938D01*
X0185607Y0098977D01*
X0185567Y0099018D01*
X0185529Y0099062D01*
X0185494Y0099109D01*
X0185463Y0099157D01*
X0185434Y0099208D01*
X0185410Y0099261D01*
X0185389Y0099315D01*
X0185371Y0099370D01*
X0185358Y0099427D01*
X0185348Y0099484D01*
X0185342Y0099542D01*
X0185340Y0099600D01*
X0186100Y0099600D02*
X0186102Y0099620D01*
X0186108Y0099638D01*
X0186117Y0099656D01*
X0186129Y0099671D01*
X0186144Y0099683D01*
X0186162Y0099692D01*
X0186180Y0099698D01*
X0186200Y0099700D01*
X0186220Y0099698D01*
X0186238Y0099692D01*
X0186256Y0099683D01*
X0186271Y0099671D01*
X0186283Y0099656D01*
X0186292Y0099638D01*
X0186298Y0099620D01*
X0186300Y0099600D01*
X0186298Y0099580D01*
X0186292Y0099562D01*
X0186283Y0099544D01*
X0186271Y0099529D01*
X0186256Y0099517D01*
X0186238Y0099508D01*
X0186220Y0099502D01*
X0186200Y0099500D01*
X0186180Y0099502D01*
X0186162Y0099508D01*
X0186144Y0099517D01*
X0186129Y0099529D01*
X0186117Y0099544D01*
X0186108Y0099562D01*
X0186102Y0099580D01*
X0186100Y0099600D01*
X0185700Y0099600D02*
X0185702Y0099644D01*
X0185708Y0099688D01*
X0185718Y0099731D01*
X0185731Y0099773D01*
X0185748Y0099814D01*
X0185769Y0099853D01*
X0185793Y0099890D01*
X0185820Y0099925D01*
X0185850Y0099957D01*
X0185883Y0099987D01*
X0185919Y0100013D01*
X0185956Y0100037D01*
X0185996Y0100056D01*
X0186037Y0100073D01*
X0186080Y0100085D01*
X0186123Y0100094D01*
X0186167Y0100099D01*
X0186211Y0100100D01*
X0186255Y0100097D01*
X0186299Y0100090D01*
X0186342Y0100079D01*
X0186384Y0100065D01*
X0186424Y0100047D01*
X0186463Y0100025D01*
X0186499Y0100001D01*
X0186533Y0099973D01*
X0186565Y0099942D01*
X0186594Y0099908D01*
X0186620Y0099872D01*
X0186642Y0099834D01*
X0186661Y0099794D01*
X0186676Y0099752D01*
X0186688Y0099710D01*
X0186696Y0099666D01*
X0186700Y0099622D01*
X0186700Y0099578D01*
X0186696Y0099534D01*
X0186688Y0099490D01*
X0186676Y0099448D01*
X0186661Y0099406D01*
X0186642Y0099366D01*
X0186620Y0099328D01*
X0186594Y0099292D01*
X0186565Y0099258D01*
X0186533Y0099227D01*
X0186499Y0099199D01*
X0186463Y0099175D01*
X0186424Y0099153D01*
X0186384Y0099135D01*
X0186342Y0099121D01*
X0186299Y0099110D01*
X0186255Y0099103D01*
X0186211Y0099100D01*
X0186167Y0099101D01*
X0186123Y0099106D01*
X0186080Y0099115D01*
X0186037Y0099127D01*
X0185996Y0099144D01*
X0185956Y0099163D01*
X0185919Y0099187D01*
X0185883Y0099213D01*
X0185850Y0099243D01*
X0185820Y0099275D01*
X0185793Y0099310D01*
X0185769Y0099347D01*
X0185748Y0099386D01*
X0185731Y0099427D01*
X0185718Y0099469D01*
X0185708Y0099512D01*
X0185702Y0099556D01*
X0185700Y0099600D01*
X0198940Y0100200D02*
X0198942Y0100258D01*
X0198948Y0100316D01*
X0198958Y0100373D01*
X0198971Y0100430D01*
X0198989Y0100485D01*
X0199010Y0100539D01*
X0199034Y0100592D01*
X0199063Y0100643D01*
X0199094Y0100691D01*
X0199129Y0100738D01*
X0199167Y0100782D01*
X0199207Y0100823D01*
X0199251Y0100862D01*
X0199297Y0100897D01*
X0199345Y0100930D01*
X0199395Y0100959D01*
X0199448Y0100984D01*
X0199501Y0101006D01*
X0199556Y0101025D01*
X0199613Y0101039D01*
X0199670Y0101050D01*
X0199727Y0101057D01*
X0199785Y0101060D01*
X0199844Y0101059D01*
X0199901Y0101054D01*
X0199959Y0101045D01*
X0200016Y0101033D01*
X0200071Y0101016D01*
X0200126Y0100996D01*
X0200179Y0100972D01*
X0200230Y0100945D01*
X0200279Y0100914D01*
X0200326Y0100880D01*
X0200371Y0100843D01*
X0200413Y0100803D01*
X0200453Y0100760D01*
X0200489Y0100715D01*
X0200522Y0100667D01*
X0200552Y0100617D01*
X0200578Y0100566D01*
X0200601Y0100512D01*
X0200621Y0100457D01*
X0200636Y0100401D01*
X0200648Y0100345D01*
X0200656Y0100287D01*
X0200660Y0100229D01*
X0200660Y0100171D01*
X0200656Y0100113D01*
X0200648Y0100055D01*
X0200636Y0099999D01*
X0200621Y0099943D01*
X0200601Y0099888D01*
X0200578Y0099834D01*
X0200552Y0099783D01*
X0200522Y0099733D01*
X0200489Y0099685D01*
X0200453Y0099640D01*
X0200413Y0099597D01*
X0200371Y0099557D01*
X0200326Y0099520D01*
X0200279Y0099486D01*
X0200230Y0099455D01*
X0200179Y0099428D01*
X0200126Y0099404D01*
X0200071Y0099384D01*
X0200016Y0099367D01*
X0199959Y0099355D01*
X0199901Y0099346D01*
X0199844Y0099341D01*
X0199785Y0099340D01*
X0199727Y0099343D01*
X0199670Y0099350D01*
X0199613Y0099361D01*
X0199556Y0099375D01*
X0199501Y0099394D01*
X0199448Y0099416D01*
X0199395Y0099441D01*
X0199345Y0099470D01*
X0199297Y0099503D01*
X0199251Y0099538D01*
X0199207Y0099577D01*
X0199167Y0099618D01*
X0199129Y0099662D01*
X0199094Y0099709D01*
X0199063Y0099757D01*
X0199034Y0099808D01*
X0199010Y0099861D01*
X0198989Y0099915D01*
X0198971Y0099970D01*
X0198958Y0100027D01*
X0198948Y0100084D01*
X0198942Y0100142D01*
X0198940Y0100200D01*
X0199700Y0100200D02*
X0199702Y0100220D01*
X0199708Y0100238D01*
X0199717Y0100256D01*
X0199729Y0100271D01*
X0199744Y0100283D01*
X0199762Y0100292D01*
X0199780Y0100298D01*
X0199800Y0100300D01*
X0199820Y0100298D01*
X0199838Y0100292D01*
X0199856Y0100283D01*
X0199871Y0100271D01*
X0199883Y0100256D01*
X0199892Y0100238D01*
X0199898Y0100220D01*
X0199900Y0100200D01*
X0199898Y0100180D01*
X0199892Y0100162D01*
X0199883Y0100144D01*
X0199871Y0100129D01*
X0199856Y0100117D01*
X0199838Y0100108D01*
X0199820Y0100102D01*
X0199800Y0100100D01*
X0199780Y0100102D01*
X0199762Y0100108D01*
X0199744Y0100117D01*
X0199729Y0100129D01*
X0199717Y0100144D01*
X0199708Y0100162D01*
X0199702Y0100180D01*
X0199700Y0100200D01*
X0199300Y0100200D02*
X0199302Y0100244D01*
X0199308Y0100288D01*
X0199318Y0100331D01*
X0199331Y0100373D01*
X0199348Y0100414D01*
X0199369Y0100453D01*
X0199393Y0100490D01*
X0199420Y0100525D01*
X0199450Y0100557D01*
X0199483Y0100587D01*
X0199519Y0100613D01*
X0199556Y0100637D01*
X0199596Y0100656D01*
X0199637Y0100673D01*
X0199680Y0100685D01*
X0199723Y0100694D01*
X0199767Y0100699D01*
X0199811Y0100700D01*
X0199855Y0100697D01*
X0199899Y0100690D01*
X0199942Y0100679D01*
X0199984Y0100665D01*
X0200024Y0100647D01*
X0200063Y0100625D01*
X0200099Y0100601D01*
X0200133Y0100573D01*
X0200165Y0100542D01*
X0200194Y0100508D01*
X0200220Y0100472D01*
X0200242Y0100434D01*
X0200261Y0100394D01*
X0200276Y0100352D01*
X0200288Y0100310D01*
X0200296Y0100266D01*
X0200300Y0100222D01*
X0200300Y0100178D01*
X0200296Y0100134D01*
X0200288Y0100090D01*
X0200276Y0100048D01*
X0200261Y0100006D01*
X0200242Y0099966D01*
X0200220Y0099928D01*
X0200194Y0099892D01*
X0200165Y0099858D01*
X0200133Y0099827D01*
X0200099Y0099799D01*
X0200063Y0099775D01*
X0200024Y0099753D01*
X0199984Y0099735D01*
X0199942Y0099721D01*
X0199899Y0099710D01*
X0199855Y0099703D01*
X0199811Y0099700D01*
X0199767Y0099701D01*
X0199723Y0099706D01*
X0199680Y0099715D01*
X0199637Y0099727D01*
X0199596Y0099744D01*
X0199556Y0099763D01*
X0199519Y0099787D01*
X0199483Y0099813D01*
X0199450Y0099843D01*
X0199420Y0099875D01*
X0199393Y0099910D01*
X0199369Y0099947D01*
X0199348Y0099986D01*
X0199331Y0100027D01*
X0199318Y0100069D01*
X0199308Y0100112D01*
X0199302Y0100156D01*
X0199300Y0100200D01*
X0223743Y0119581D02*
X0223745Y0119620D01*
X0223751Y0119659D01*
X0223761Y0119697D01*
X0223774Y0119734D01*
X0223791Y0119769D01*
X0223811Y0119803D01*
X0223835Y0119834D01*
X0223862Y0119863D01*
X0223891Y0119889D01*
X0223923Y0119912D01*
X0223957Y0119932D01*
X0223993Y0119948D01*
X0224030Y0119960D01*
X0224069Y0119969D01*
X0224108Y0119974D01*
X0224147Y0119975D01*
X0224186Y0119972D01*
X0224225Y0119965D01*
X0224262Y0119954D01*
X0224299Y0119940D01*
X0224334Y0119922D01*
X0224367Y0119901D01*
X0224398Y0119876D01*
X0224426Y0119849D01*
X0224451Y0119819D01*
X0224473Y0119786D01*
X0224492Y0119752D01*
X0224507Y0119716D01*
X0224519Y0119678D01*
X0224527Y0119640D01*
X0224531Y0119601D01*
X0224531Y0119561D01*
X0224527Y0119522D01*
X0224519Y0119484D01*
X0224507Y0119446D01*
X0224492Y0119410D01*
X0224473Y0119376D01*
X0224451Y0119343D01*
X0224426Y0119313D01*
X0224398Y0119286D01*
X0224367Y0119261D01*
X0224334Y0119240D01*
X0224299Y0119222D01*
X0224262Y0119208D01*
X0224225Y0119197D01*
X0224186Y0119190D01*
X0224147Y0119187D01*
X0224108Y0119188D01*
X0224069Y0119193D01*
X0224030Y0119202D01*
X0223993Y0119214D01*
X0223957Y0119230D01*
X0223923Y0119250D01*
X0223891Y0119273D01*
X0223862Y0119299D01*
X0223835Y0119328D01*
X0223811Y0119359D01*
X0223791Y0119393D01*
X0223774Y0119428D01*
X0223761Y0119465D01*
X0223751Y0119503D01*
X0223745Y0119542D01*
X0223743Y0119581D01*
X0240801Y0106524D02*
X0253006Y0106524D01*
X0253006Y0097076D01*
X0240801Y0097076D01*
X0240801Y0106524D01*
X0249223Y0103769D02*
X0249225Y0103844D01*
X0249231Y0103919D01*
X0249241Y0103993D01*
X0249255Y0104067D01*
X0249272Y0104140D01*
X0249294Y0104211D01*
X0249319Y0104282D01*
X0249348Y0104351D01*
X0249380Y0104419D01*
X0249416Y0104484D01*
X0249456Y0104548D01*
X0249499Y0104610D01*
X0249545Y0104669D01*
X0249594Y0104726D01*
X0249646Y0104780D01*
X0249700Y0104831D01*
X0249758Y0104879D01*
X0249817Y0104924D01*
X0249880Y0104966D01*
X0249944Y0105005D01*
X0250010Y0105040D01*
X0250078Y0105072D01*
X0250148Y0105100D01*
X0250218Y0105124D01*
X0250291Y0105145D01*
X0250364Y0105161D01*
X0250438Y0105174D01*
X0250512Y0105183D01*
X0250587Y0105188D01*
X0250662Y0105189D01*
X0250737Y0105186D01*
X0250811Y0105179D01*
X0250885Y0105168D01*
X0250959Y0105153D01*
X0251032Y0105135D01*
X0251103Y0105112D01*
X0251173Y0105086D01*
X0251242Y0105056D01*
X0251309Y0105023D01*
X0251375Y0104986D01*
X0251438Y0104946D01*
X0251499Y0104902D01*
X0251557Y0104855D01*
X0251613Y0104806D01*
X0251667Y0104753D01*
X0251717Y0104698D01*
X0251765Y0104640D01*
X0251809Y0104579D01*
X0251850Y0104517D01*
X0251888Y0104452D01*
X0251922Y0104385D01*
X0251953Y0104317D01*
X0251980Y0104247D01*
X0252004Y0104176D01*
X0252023Y0104103D01*
X0252039Y0104030D01*
X0252051Y0103956D01*
X0252059Y0103881D01*
X0252063Y0103806D01*
X0252063Y0103732D01*
X0252059Y0103657D01*
X0252051Y0103582D01*
X0252039Y0103508D01*
X0252023Y0103435D01*
X0252004Y0103362D01*
X0251980Y0103291D01*
X0251953Y0103221D01*
X0251922Y0103153D01*
X0251888Y0103086D01*
X0251850Y0103021D01*
X0251809Y0102959D01*
X0251765Y0102898D01*
X0251717Y0102840D01*
X0251667Y0102785D01*
X0251613Y0102732D01*
X0251557Y0102683D01*
X0251499Y0102636D01*
X0251438Y0102592D01*
X0251375Y0102552D01*
X0251309Y0102515D01*
X0251242Y0102482D01*
X0251173Y0102452D01*
X0251103Y0102426D01*
X0251032Y0102403D01*
X0250959Y0102385D01*
X0250885Y0102370D01*
X0250811Y0102359D01*
X0250737Y0102352D01*
X0250662Y0102349D01*
X0250587Y0102350D01*
X0250512Y0102355D01*
X0250438Y0102364D01*
X0250364Y0102377D01*
X0250291Y0102393D01*
X0250218Y0102414D01*
X0250148Y0102438D01*
X0250078Y0102466D01*
X0250010Y0102498D01*
X0249944Y0102533D01*
X0249880Y0102572D01*
X0249817Y0102614D01*
X0249758Y0102659D01*
X0249700Y0102707D01*
X0249646Y0102758D01*
X0249594Y0102812D01*
X0249545Y0102869D01*
X0249499Y0102928D01*
X0249456Y0102990D01*
X0249416Y0103054D01*
X0249380Y0103119D01*
X0249348Y0103187D01*
X0249319Y0103256D01*
X0249294Y0103327D01*
X0249272Y0103398D01*
X0249255Y0103471D01*
X0249241Y0103545D01*
X0249231Y0103619D01*
X0249225Y0103694D01*
X0249223Y0103769D01*
X0266373Y0134152D02*
X0266373Y0134545D01*
X0266373Y0134152D02*
X0268735Y0134152D01*
X0268735Y0136514D01*
X0269129Y0136120D01*
X0269129Y0134152D01*
X0268735Y0134152D01*
X0269129Y0134152D02*
X0274247Y0134152D01*
X0274247Y0134545D01*
X0274247Y0137695D02*
X0274247Y0138089D01*
X0269129Y0138089D01*
X0269129Y0136120D01*
X0268735Y0136514D02*
X0268735Y0138089D01*
X0269129Y0138089D01*
X0268735Y0138089D02*
X0266373Y0138089D01*
X0266373Y0137695D01*
X0266220Y0203130D02*
X0269220Y0203130D01*
X0270720Y0204630D01*
X0270720Y0212130D01*
X0269720Y0213130D01*
X0265720Y0213130D01*
X0263040Y0219700D02*
X0263042Y0219758D01*
X0263048Y0219816D01*
X0263058Y0219873D01*
X0263071Y0219930D01*
X0263089Y0219985D01*
X0263110Y0220039D01*
X0263134Y0220092D01*
X0263163Y0220143D01*
X0263194Y0220191D01*
X0263229Y0220238D01*
X0263267Y0220282D01*
X0263307Y0220323D01*
X0263351Y0220362D01*
X0263397Y0220397D01*
X0263445Y0220430D01*
X0263495Y0220459D01*
X0263548Y0220484D01*
X0263601Y0220506D01*
X0263656Y0220525D01*
X0263713Y0220539D01*
X0263770Y0220550D01*
X0263827Y0220557D01*
X0263885Y0220560D01*
X0263944Y0220559D01*
X0264001Y0220554D01*
X0264059Y0220545D01*
X0264116Y0220533D01*
X0264171Y0220516D01*
X0264226Y0220496D01*
X0264279Y0220472D01*
X0264330Y0220445D01*
X0264379Y0220414D01*
X0264426Y0220380D01*
X0264471Y0220343D01*
X0264513Y0220303D01*
X0264553Y0220260D01*
X0264589Y0220215D01*
X0264622Y0220167D01*
X0264652Y0220117D01*
X0264678Y0220066D01*
X0264701Y0220012D01*
X0264721Y0219957D01*
X0264736Y0219901D01*
X0264748Y0219845D01*
X0264756Y0219787D01*
X0264760Y0219729D01*
X0264760Y0219671D01*
X0264756Y0219613D01*
X0264748Y0219555D01*
X0264736Y0219499D01*
X0264721Y0219443D01*
X0264701Y0219388D01*
X0264678Y0219334D01*
X0264652Y0219283D01*
X0264622Y0219233D01*
X0264589Y0219185D01*
X0264553Y0219140D01*
X0264513Y0219097D01*
X0264471Y0219057D01*
X0264426Y0219020D01*
X0264379Y0218986D01*
X0264330Y0218955D01*
X0264279Y0218928D01*
X0264226Y0218904D01*
X0264171Y0218884D01*
X0264116Y0218867D01*
X0264059Y0218855D01*
X0264001Y0218846D01*
X0263944Y0218841D01*
X0263885Y0218840D01*
X0263827Y0218843D01*
X0263770Y0218850D01*
X0263713Y0218861D01*
X0263656Y0218875D01*
X0263601Y0218894D01*
X0263548Y0218916D01*
X0263495Y0218941D01*
X0263445Y0218970D01*
X0263397Y0219003D01*
X0263351Y0219038D01*
X0263307Y0219077D01*
X0263267Y0219118D01*
X0263229Y0219162D01*
X0263194Y0219209D01*
X0263163Y0219257D01*
X0263134Y0219308D01*
X0263110Y0219361D01*
X0263089Y0219415D01*
X0263071Y0219470D01*
X0263058Y0219527D01*
X0263048Y0219584D01*
X0263042Y0219642D01*
X0263040Y0219700D01*
X0263800Y0219700D02*
X0263802Y0219720D01*
X0263808Y0219738D01*
X0263817Y0219756D01*
X0263829Y0219771D01*
X0263844Y0219783D01*
X0263862Y0219792D01*
X0263880Y0219798D01*
X0263900Y0219800D01*
X0263920Y0219798D01*
X0263938Y0219792D01*
X0263956Y0219783D01*
X0263971Y0219771D01*
X0263983Y0219756D01*
X0263992Y0219738D01*
X0263998Y0219720D01*
X0264000Y0219700D01*
X0263998Y0219680D01*
X0263992Y0219662D01*
X0263983Y0219644D01*
X0263971Y0219629D01*
X0263956Y0219617D01*
X0263938Y0219608D01*
X0263920Y0219602D01*
X0263900Y0219600D01*
X0263880Y0219602D01*
X0263862Y0219608D01*
X0263844Y0219617D01*
X0263829Y0219629D01*
X0263817Y0219644D01*
X0263808Y0219662D01*
X0263802Y0219680D01*
X0263800Y0219700D01*
X0263400Y0219700D02*
X0263402Y0219744D01*
X0263408Y0219788D01*
X0263418Y0219831D01*
X0263431Y0219873D01*
X0263448Y0219914D01*
X0263469Y0219953D01*
X0263493Y0219990D01*
X0263520Y0220025D01*
X0263550Y0220057D01*
X0263583Y0220087D01*
X0263619Y0220113D01*
X0263656Y0220137D01*
X0263696Y0220156D01*
X0263737Y0220173D01*
X0263780Y0220185D01*
X0263823Y0220194D01*
X0263867Y0220199D01*
X0263911Y0220200D01*
X0263955Y0220197D01*
X0263999Y0220190D01*
X0264042Y0220179D01*
X0264084Y0220165D01*
X0264124Y0220147D01*
X0264163Y0220125D01*
X0264199Y0220101D01*
X0264233Y0220073D01*
X0264265Y0220042D01*
X0264294Y0220008D01*
X0264320Y0219972D01*
X0264342Y0219934D01*
X0264361Y0219894D01*
X0264376Y0219852D01*
X0264388Y0219810D01*
X0264396Y0219766D01*
X0264400Y0219722D01*
X0264400Y0219678D01*
X0264396Y0219634D01*
X0264388Y0219590D01*
X0264376Y0219548D01*
X0264361Y0219506D01*
X0264342Y0219466D01*
X0264320Y0219428D01*
X0264294Y0219392D01*
X0264265Y0219358D01*
X0264233Y0219327D01*
X0264199Y0219299D01*
X0264163Y0219275D01*
X0264124Y0219253D01*
X0264084Y0219235D01*
X0264042Y0219221D01*
X0263999Y0219210D01*
X0263955Y0219203D01*
X0263911Y0219200D01*
X0263867Y0219201D01*
X0263823Y0219206D01*
X0263780Y0219215D01*
X0263737Y0219227D01*
X0263696Y0219244D01*
X0263656Y0219263D01*
X0263619Y0219287D01*
X0263583Y0219313D01*
X0263550Y0219343D01*
X0263520Y0219375D01*
X0263493Y0219410D01*
X0263469Y0219447D01*
X0263448Y0219486D01*
X0263431Y0219527D01*
X0263418Y0219569D01*
X0263408Y0219612D01*
X0263402Y0219656D01*
X0263400Y0219700D01*
X0257720Y0212630D02*
X0250220Y0212630D01*
X0250220Y0203630D01*
X0257720Y0203630D01*
X0200740Y0199500D02*
X0200742Y0199558D01*
X0200748Y0199616D01*
X0200758Y0199673D01*
X0200771Y0199730D01*
X0200789Y0199785D01*
X0200810Y0199839D01*
X0200834Y0199892D01*
X0200863Y0199943D01*
X0200894Y0199991D01*
X0200929Y0200038D01*
X0200967Y0200082D01*
X0201007Y0200123D01*
X0201051Y0200162D01*
X0201097Y0200197D01*
X0201145Y0200230D01*
X0201195Y0200259D01*
X0201248Y0200284D01*
X0201301Y0200306D01*
X0201356Y0200325D01*
X0201413Y0200339D01*
X0201470Y0200350D01*
X0201527Y0200357D01*
X0201585Y0200360D01*
X0201644Y0200359D01*
X0201701Y0200354D01*
X0201759Y0200345D01*
X0201816Y0200333D01*
X0201871Y0200316D01*
X0201926Y0200296D01*
X0201979Y0200272D01*
X0202030Y0200245D01*
X0202079Y0200214D01*
X0202126Y0200180D01*
X0202171Y0200143D01*
X0202213Y0200103D01*
X0202253Y0200060D01*
X0202289Y0200015D01*
X0202322Y0199967D01*
X0202352Y0199917D01*
X0202378Y0199866D01*
X0202401Y0199812D01*
X0202421Y0199757D01*
X0202436Y0199701D01*
X0202448Y0199645D01*
X0202456Y0199587D01*
X0202460Y0199529D01*
X0202460Y0199471D01*
X0202456Y0199413D01*
X0202448Y0199355D01*
X0202436Y0199299D01*
X0202421Y0199243D01*
X0202401Y0199188D01*
X0202378Y0199134D01*
X0202352Y0199083D01*
X0202322Y0199033D01*
X0202289Y0198985D01*
X0202253Y0198940D01*
X0202213Y0198897D01*
X0202171Y0198857D01*
X0202126Y0198820D01*
X0202079Y0198786D01*
X0202030Y0198755D01*
X0201979Y0198728D01*
X0201926Y0198704D01*
X0201871Y0198684D01*
X0201816Y0198667D01*
X0201759Y0198655D01*
X0201701Y0198646D01*
X0201644Y0198641D01*
X0201585Y0198640D01*
X0201527Y0198643D01*
X0201470Y0198650D01*
X0201413Y0198661D01*
X0201356Y0198675D01*
X0201301Y0198694D01*
X0201248Y0198716D01*
X0201195Y0198741D01*
X0201145Y0198770D01*
X0201097Y0198803D01*
X0201051Y0198838D01*
X0201007Y0198877D01*
X0200967Y0198918D01*
X0200929Y0198962D01*
X0200894Y0199009D01*
X0200863Y0199057D01*
X0200834Y0199108D01*
X0200810Y0199161D01*
X0200789Y0199215D01*
X0200771Y0199270D01*
X0200758Y0199327D01*
X0200748Y0199384D01*
X0200742Y0199442D01*
X0200740Y0199500D01*
X0201500Y0199500D02*
X0201502Y0199520D01*
X0201508Y0199538D01*
X0201517Y0199556D01*
X0201529Y0199571D01*
X0201544Y0199583D01*
X0201562Y0199592D01*
X0201580Y0199598D01*
X0201600Y0199600D01*
X0201620Y0199598D01*
X0201638Y0199592D01*
X0201656Y0199583D01*
X0201671Y0199571D01*
X0201683Y0199556D01*
X0201692Y0199538D01*
X0201698Y0199520D01*
X0201700Y0199500D01*
X0201698Y0199480D01*
X0201692Y0199462D01*
X0201683Y0199444D01*
X0201671Y0199429D01*
X0201656Y0199417D01*
X0201638Y0199408D01*
X0201620Y0199402D01*
X0201600Y0199400D01*
X0201580Y0199402D01*
X0201562Y0199408D01*
X0201544Y0199417D01*
X0201529Y0199429D01*
X0201517Y0199444D01*
X0201508Y0199462D01*
X0201502Y0199480D01*
X0201500Y0199500D01*
X0201100Y0199500D02*
X0201102Y0199544D01*
X0201108Y0199588D01*
X0201118Y0199631D01*
X0201131Y0199673D01*
X0201148Y0199714D01*
X0201169Y0199753D01*
X0201193Y0199790D01*
X0201220Y0199825D01*
X0201250Y0199857D01*
X0201283Y0199887D01*
X0201319Y0199913D01*
X0201356Y0199937D01*
X0201396Y0199956D01*
X0201437Y0199973D01*
X0201480Y0199985D01*
X0201523Y0199994D01*
X0201567Y0199999D01*
X0201611Y0200000D01*
X0201655Y0199997D01*
X0201699Y0199990D01*
X0201742Y0199979D01*
X0201784Y0199965D01*
X0201824Y0199947D01*
X0201863Y0199925D01*
X0201899Y0199901D01*
X0201933Y0199873D01*
X0201965Y0199842D01*
X0201994Y0199808D01*
X0202020Y0199772D01*
X0202042Y0199734D01*
X0202061Y0199694D01*
X0202076Y0199652D01*
X0202088Y0199610D01*
X0202096Y0199566D01*
X0202100Y0199522D01*
X0202100Y0199478D01*
X0202096Y0199434D01*
X0202088Y0199390D01*
X0202076Y0199348D01*
X0202061Y0199306D01*
X0202042Y0199266D01*
X0202020Y0199228D01*
X0201994Y0199192D01*
X0201965Y0199158D01*
X0201933Y0199127D01*
X0201899Y0199099D01*
X0201863Y0199075D01*
X0201824Y0199053D01*
X0201784Y0199035D01*
X0201742Y0199021D01*
X0201699Y0199010D01*
X0201655Y0199003D01*
X0201611Y0199000D01*
X0201567Y0199001D01*
X0201523Y0199006D01*
X0201480Y0199015D01*
X0201437Y0199027D01*
X0201396Y0199044D01*
X0201356Y0199063D01*
X0201319Y0199087D01*
X0201283Y0199113D01*
X0201250Y0199143D01*
X0201220Y0199175D01*
X0201193Y0199210D01*
X0201169Y0199247D01*
X0201148Y0199286D01*
X0201131Y0199327D01*
X0201118Y0199369D01*
X0201108Y0199412D01*
X0201102Y0199456D01*
X0201100Y0199500D01*
X0191440Y0199200D02*
X0191442Y0199258D01*
X0191448Y0199316D01*
X0191458Y0199373D01*
X0191471Y0199430D01*
X0191489Y0199485D01*
X0191510Y0199539D01*
X0191534Y0199592D01*
X0191563Y0199643D01*
X0191594Y0199691D01*
X0191629Y0199738D01*
X0191667Y0199782D01*
X0191707Y0199823D01*
X0191751Y0199862D01*
X0191797Y0199897D01*
X0191845Y0199930D01*
X0191895Y0199959D01*
X0191948Y0199984D01*
X0192001Y0200006D01*
X0192056Y0200025D01*
X0192113Y0200039D01*
X0192170Y0200050D01*
X0192227Y0200057D01*
X0192285Y0200060D01*
X0192344Y0200059D01*
X0192401Y0200054D01*
X0192459Y0200045D01*
X0192516Y0200033D01*
X0192571Y0200016D01*
X0192626Y0199996D01*
X0192679Y0199972D01*
X0192730Y0199945D01*
X0192779Y0199914D01*
X0192826Y0199880D01*
X0192871Y0199843D01*
X0192913Y0199803D01*
X0192953Y0199760D01*
X0192989Y0199715D01*
X0193022Y0199667D01*
X0193052Y0199617D01*
X0193078Y0199566D01*
X0193101Y0199512D01*
X0193121Y0199457D01*
X0193136Y0199401D01*
X0193148Y0199345D01*
X0193156Y0199287D01*
X0193160Y0199229D01*
X0193160Y0199171D01*
X0193156Y0199113D01*
X0193148Y0199055D01*
X0193136Y0198999D01*
X0193121Y0198943D01*
X0193101Y0198888D01*
X0193078Y0198834D01*
X0193052Y0198783D01*
X0193022Y0198733D01*
X0192989Y0198685D01*
X0192953Y0198640D01*
X0192913Y0198597D01*
X0192871Y0198557D01*
X0192826Y0198520D01*
X0192779Y0198486D01*
X0192730Y0198455D01*
X0192679Y0198428D01*
X0192626Y0198404D01*
X0192571Y0198384D01*
X0192516Y0198367D01*
X0192459Y0198355D01*
X0192401Y0198346D01*
X0192344Y0198341D01*
X0192285Y0198340D01*
X0192227Y0198343D01*
X0192170Y0198350D01*
X0192113Y0198361D01*
X0192056Y0198375D01*
X0192001Y0198394D01*
X0191948Y0198416D01*
X0191895Y0198441D01*
X0191845Y0198470D01*
X0191797Y0198503D01*
X0191751Y0198538D01*
X0191707Y0198577D01*
X0191667Y0198618D01*
X0191629Y0198662D01*
X0191594Y0198709D01*
X0191563Y0198757D01*
X0191534Y0198808D01*
X0191510Y0198861D01*
X0191489Y0198915D01*
X0191471Y0198970D01*
X0191458Y0199027D01*
X0191448Y0199084D01*
X0191442Y0199142D01*
X0191440Y0199200D01*
X0192200Y0199200D02*
X0192202Y0199220D01*
X0192208Y0199238D01*
X0192217Y0199256D01*
X0192229Y0199271D01*
X0192244Y0199283D01*
X0192262Y0199292D01*
X0192280Y0199298D01*
X0192300Y0199300D01*
X0192320Y0199298D01*
X0192338Y0199292D01*
X0192356Y0199283D01*
X0192371Y0199271D01*
X0192383Y0199256D01*
X0192392Y0199238D01*
X0192398Y0199220D01*
X0192400Y0199200D01*
X0192398Y0199180D01*
X0192392Y0199162D01*
X0192383Y0199144D01*
X0192371Y0199129D01*
X0192356Y0199117D01*
X0192338Y0199108D01*
X0192320Y0199102D01*
X0192300Y0199100D01*
X0192280Y0199102D01*
X0192262Y0199108D01*
X0192244Y0199117D01*
X0192229Y0199129D01*
X0192217Y0199144D01*
X0192208Y0199162D01*
X0192202Y0199180D01*
X0192200Y0199200D01*
X0191800Y0199200D02*
X0191802Y0199244D01*
X0191808Y0199288D01*
X0191818Y0199331D01*
X0191831Y0199373D01*
X0191848Y0199414D01*
X0191869Y0199453D01*
X0191893Y0199490D01*
X0191920Y0199525D01*
X0191950Y0199557D01*
X0191983Y0199587D01*
X0192019Y0199613D01*
X0192056Y0199637D01*
X0192096Y0199656D01*
X0192137Y0199673D01*
X0192180Y0199685D01*
X0192223Y0199694D01*
X0192267Y0199699D01*
X0192311Y0199700D01*
X0192355Y0199697D01*
X0192399Y0199690D01*
X0192442Y0199679D01*
X0192484Y0199665D01*
X0192524Y0199647D01*
X0192563Y0199625D01*
X0192599Y0199601D01*
X0192633Y0199573D01*
X0192665Y0199542D01*
X0192694Y0199508D01*
X0192720Y0199472D01*
X0192742Y0199434D01*
X0192761Y0199394D01*
X0192776Y0199352D01*
X0192788Y0199310D01*
X0192796Y0199266D01*
X0192800Y0199222D01*
X0192800Y0199178D01*
X0192796Y0199134D01*
X0192788Y0199090D01*
X0192776Y0199048D01*
X0192761Y0199006D01*
X0192742Y0198966D01*
X0192720Y0198928D01*
X0192694Y0198892D01*
X0192665Y0198858D01*
X0192633Y0198827D01*
X0192599Y0198799D01*
X0192563Y0198775D01*
X0192524Y0198753D01*
X0192484Y0198735D01*
X0192442Y0198721D01*
X0192399Y0198710D01*
X0192355Y0198703D01*
X0192311Y0198700D01*
X0192267Y0198701D01*
X0192223Y0198706D01*
X0192180Y0198715D01*
X0192137Y0198727D01*
X0192096Y0198744D01*
X0192056Y0198763D01*
X0192019Y0198787D01*
X0191983Y0198813D01*
X0191950Y0198843D01*
X0191920Y0198875D01*
X0191893Y0198910D01*
X0191869Y0198947D01*
X0191848Y0198986D01*
X0191831Y0199027D01*
X0191818Y0199069D01*
X0191808Y0199112D01*
X0191802Y0199156D01*
X0191800Y0199200D01*
X0164640Y0242000D02*
X0164642Y0242058D01*
X0164648Y0242116D01*
X0164658Y0242173D01*
X0164671Y0242230D01*
X0164689Y0242285D01*
X0164710Y0242339D01*
X0164734Y0242392D01*
X0164763Y0242443D01*
X0164794Y0242491D01*
X0164829Y0242538D01*
X0164867Y0242582D01*
X0164907Y0242623D01*
X0164951Y0242662D01*
X0164997Y0242697D01*
X0165045Y0242730D01*
X0165095Y0242759D01*
X0165148Y0242784D01*
X0165201Y0242806D01*
X0165256Y0242825D01*
X0165313Y0242839D01*
X0165370Y0242850D01*
X0165427Y0242857D01*
X0165485Y0242860D01*
X0165544Y0242859D01*
X0165601Y0242854D01*
X0165659Y0242845D01*
X0165716Y0242833D01*
X0165771Y0242816D01*
X0165826Y0242796D01*
X0165879Y0242772D01*
X0165930Y0242745D01*
X0165979Y0242714D01*
X0166026Y0242680D01*
X0166071Y0242643D01*
X0166113Y0242603D01*
X0166153Y0242560D01*
X0166189Y0242515D01*
X0166222Y0242467D01*
X0166252Y0242417D01*
X0166278Y0242366D01*
X0166301Y0242312D01*
X0166321Y0242257D01*
X0166336Y0242201D01*
X0166348Y0242145D01*
X0166356Y0242087D01*
X0166360Y0242029D01*
X0166360Y0241971D01*
X0166356Y0241913D01*
X0166348Y0241855D01*
X0166336Y0241799D01*
X0166321Y0241743D01*
X0166301Y0241688D01*
X0166278Y0241634D01*
X0166252Y0241583D01*
X0166222Y0241533D01*
X0166189Y0241485D01*
X0166153Y0241440D01*
X0166113Y0241397D01*
X0166071Y0241357D01*
X0166026Y0241320D01*
X0165979Y0241286D01*
X0165930Y0241255D01*
X0165879Y0241228D01*
X0165826Y0241204D01*
X0165771Y0241184D01*
X0165716Y0241167D01*
X0165659Y0241155D01*
X0165601Y0241146D01*
X0165544Y0241141D01*
X0165485Y0241140D01*
X0165427Y0241143D01*
X0165370Y0241150D01*
X0165313Y0241161D01*
X0165256Y0241175D01*
X0165201Y0241194D01*
X0165148Y0241216D01*
X0165095Y0241241D01*
X0165045Y0241270D01*
X0164997Y0241303D01*
X0164951Y0241338D01*
X0164907Y0241377D01*
X0164867Y0241418D01*
X0164829Y0241462D01*
X0164794Y0241509D01*
X0164763Y0241557D01*
X0164734Y0241608D01*
X0164710Y0241661D01*
X0164689Y0241715D01*
X0164671Y0241770D01*
X0164658Y0241827D01*
X0164648Y0241884D01*
X0164642Y0241942D01*
X0164640Y0242000D01*
X0165400Y0242000D02*
X0165402Y0242020D01*
X0165408Y0242038D01*
X0165417Y0242056D01*
X0165429Y0242071D01*
X0165444Y0242083D01*
X0165462Y0242092D01*
X0165480Y0242098D01*
X0165500Y0242100D01*
X0165520Y0242098D01*
X0165538Y0242092D01*
X0165556Y0242083D01*
X0165571Y0242071D01*
X0165583Y0242056D01*
X0165592Y0242038D01*
X0165598Y0242020D01*
X0165600Y0242000D01*
X0165598Y0241980D01*
X0165592Y0241962D01*
X0165583Y0241944D01*
X0165571Y0241929D01*
X0165556Y0241917D01*
X0165538Y0241908D01*
X0165520Y0241902D01*
X0165500Y0241900D01*
X0165480Y0241902D01*
X0165462Y0241908D01*
X0165444Y0241917D01*
X0165429Y0241929D01*
X0165417Y0241944D01*
X0165408Y0241962D01*
X0165402Y0241980D01*
X0165400Y0242000D01*
X0165000Y0242000D02*
X0165002Y0242044D01*
X0165008Y0242088D01*
X0165018Y0242131D01*
X0165031Y0242173D01*
X0165048Y0242214D01*
X0165069Y0242253D01*
X0165093Y0242290D01*
X0165120Y0242325D01*
X0165150Y0242357D01*
X0165183Y0242387D01*
X0165219Y0242413D01*
X0165256Y0242437D01*
X0165296Y0242456D01*
X0165337Y0242473D01*
X0165380Y0242485D01*
X0165423Y0242494D01*
X0165467Y0242499D01*
X0165511Y0242500D01*
X0165555Y0242497D01*
X0165599Y0242490D01*
X0165642Y0242479D01*
X0165684Y0242465D01*
X0165724Y0242447D01*
X0165763Y0242425D01*
X0165799Y0242401D01*
X0165833Y0242373D01*
X0165865Y0242342D01*
X0165894Y0242308D01*
X0165920Y0242272D01*
X0165942Y0242234D01*
X0165961Y0242194D01*
X0165976Y0242152D01*
X0165988Y0242110D01*
X0165996Y0242066D01*
X0166000Y0242022D01*
X0166000Y0241978D01*
X0165996Y0241934D01*
X0165988Y0241890D01*
X0165976Y0241848D01*
X0165961Y0241806D01*
X0165942Y0241766D01*
X0165920Y0241728D01*
X0165894Y0241692D01*
X0165865Y0241658D01*
X0165833Y0241627D01*
X0165799Y0241599D01*
X0165763Y0241575D01*
X0165724Y0241553D01*
X0165684Y0241535D01*
X0165642Y0241521D01*
X0165599Y0241510D01*
X0165555Y0241503D01*
X0165511Y0241500D01*
X0165467Y0241501D01*
X0165423Y0241506D01*
X0165380Y0241515D01*
X0165337Y0241527D01*
X0165296Y0241544D01*
X0165256Y0241563D01*
X0165219Y0241587D01*
X0165183Y0241613D01*
X0165150Y0241643D01*
X0165120Y0241675D01*
X0165093Y0241710D01*
X0165069Y0241747D01*
X0165048Y0241786D01*
X0165031Y0241827D01*
X0165018Y0241869D01*
X0165008Y0241912D01*
X0165002Y0241956D01*
X0165000Y0242000D01*
X0096940Y0094100D02*
X0096942Y0094158D01*
X0096948Y0094216D01*
X0096958Y0094273D01*
X0096971Y0094330D01*
X0096989Y0094385D01*
X0097010Y0094439D01*
X0097034Y0094492D01*
X0097063Y0094543D01*
X0097094Y0094591D01*
X0097129Y0094638D01*
X0097167Y0094682D01*
X0097207Y0094723D01*
X0097251Y0094762D01*
X0097297Y0094797D01*
X0097345Y0094830D01*
X0097395Y0094859D01*
X0097448Y0094884D01*
X0097501Y0094906D01*
X0097556Y0094925D01*
X0097613Y0094939D01*
X0097670Y0094950D01*
X0097727Y0094957D01*
X0097785Y0094960D01*
X0097844Y0094959D01*
X0097901Y0094954D01*
X0097959Y0094945D01*
X0098016Y0094933D01*
X0098071Y0094916D01*
X0098126Y0094896D01*
X0098179Y0094872D01*
X0098230Y0094845D01*
X0098279Y0094814D01*
X0098326Y0094780D01*
X0098371Y0094743D01*
X0098413Y0094703D01*
X0098453Y0094660D01*
X0098489Y0094615D01*
X0098522Y0094567D01*
X0098552Y0094517D01*
X0098578Y0094466D01*
X0098601Y0094412D01*
X0098621Y0094357D01*
X0098636Y0094301D01*
X0098648Y0094245D01*
X0098656Y0094187D01*
X0098660Y0094129D01*
X0098660Y0094071D01*
X0098656Y0094013D01*
X0098648Y0093955D01*
X0098636Y0093899D01*
X0098621Y0093843D01*
X0098601Y0093788D01*
X0098578Y0093734D01*
X0098552Y0093683D01*
X0098522Y0093633D01*
X0098489Y0093585D01*
X0098453Y0093540D01*
X0098413Y0093497D01*
X0098371Y0093457D01*
X0098326Y0093420D01*
X0098279Y0093386D01*
X0098230Y0093355D01*
X0098179Y0093328D01*
X0098126Y0093304D01*
X0098071Y0093284D01*
X0098016Y0093267D01*
X0097959Y0093255D01*
X0097901Y0093246D01*
X0097844Y0093241D01*
X0097785Y0093240D01*
X0097727Y0093243D01*
X0097670Y0093250D01*
X0097613Y0093261D01*
X0097556Y0093275D01*
X0097501Y0093294D01*
X0097448Y0093316D01*
X0097395Y0093341D01*
X0097345Y0093370D01*
X0097297Y0093403D01*
X0097251Y0093438D01*
X0097207Y0093477D01*
X0097167Y0093518D01*
X0097129Y0093562D01*
X0097094Y0093609D01*
X0097063Y0093657D01*
X0097034Y0093708D01*
X0097010Y0093761D01*
X0096989Y0093815D01*
X0096971Y0093870D01*
X0096958Y0093927D01*
X0096948Y0093984D01*
X0096942Y0094042D01*
X0096940Y0094100D01*
X0097700Y0094100D02*
X0097702Y0094120D01*
X0097708Y0094138D01*
X0097717Y0094156D01*
X0097729Y0094171D01*
X0097744Y0094183D01*
X0097762Y0094192D01*
X0097780Y0094198D01*
X0097800Y0094200D01*
X0097820Y0094198D01*
X0097838Y0094192D01*
X0097856Y0094183D01*
X0097871Y0094171D01*
X0097883Y0094156D01*
X0097892Y0094138D01*
X0097898Y0094120D01*
X0097900Y0094100D01*
X0097898Y0094080D01*
X0097892Y0094062D01*
X0097883Y0094044D01*
X0097871Y0094029D01*
X0097856Y0094017D01*
X0097838Y0094008D01*
X0097820Y0094002D01*
X0097800Y0094000D01*
X0097780Y0094002D01*
X0097762Y0094008D01*
X0097744Y0094017D01*
X0097729Y0094029D01*
X0097717Y0094044D01*
X0097708Y0094062D01*
X0097702Y0094080D01*
X0097700Y0094100D01*
X0097300Y0094100D02*
X0097302Y0094144D01*
X0097308Y0094188D01*
X0097318Y0094231D01*
X0097331Y0094273D01*
X0097348Y0094314D01*
X0097369Y0094353D01*
X0097393Y0094390D01*
X0097420Y0094425D01*
X0097450Y0094457D01*
X0097483Y0094487D01*
X0097519Y0094513D01*
X0097556Y0094537D01*
X0097596Y0094556D01*
X0097637Y0094573D01*
X0097680Y0094585D01*
X0097723Y0094594D01*
X0097767Y0094599D01*
X0097811Y0094600D01*
X0097855Y0094597D01*
X0097899Y0094590D01*
X0097942Y0094579D01*
X0097984Y0094565D01*
X0098024Y0094547D01*
X0098063Y0094525D01*
X0098099Y0094501D01*
X0098133Y0094473D01*
X0098165Y0094442D01*
X0098194Y0094408D01*
X0098220Y0094372D01*
X0098242Y0094334D01*
X0098261Y0094294D01*
X0098276Y0094252D01*
X0098288Y0094210D01*
X0098296Y0094166D01*
X0098300Y0094122D01*
X0098300Y0094078D01*
X0098296Y0094034D01*
X0098288Y0093990D01*
X0098276Y0093948D01*
X0098261Y0093906D01*
X0098242Y0093866D01*
X0098220Y0093828D01*
X0098194Y0093792D01*
X0098165Y0093758D01*
X0098133Y0093727D01*
X0098099Y0093699D01*
X0098063Y0093675D01*
X0098024Y0093653D01*
X0097984Y0093635D01*
X0097942Y0093621D01*
X0097899Y0093610D01*
X0097855Y0093603D01*
X0097811Y0093600D01*
X0097767Y0093601D01*
X0097723Y0093606D01*
X0097680Y0093615D01*
X0097637Y0093627D01*
X0097596Y0093644D01*
X0097556Y0093663D01*
X0097519Y0093687D01*
X0097483Y0093713D01*
X0097450Y0093743D01*
X0097420Y0093775D01*
X0097393Y0093810D01*
X0097369Y0093847D01*
X0097348Y0093886D01*
X0097331Y0093927D01*
X0097318Y0093969D01*
X0097308Y0094012D01*
X0097302Y0094056D01*
X0097300Y0094100D01*
D12*
X0103501Y0094302D02*
X0103501Y0108498D01*
X0122099Y0108498D02*
X0122099Y0094302D01*
X0129501Y0094102D02*
X0129501Y0108298D01*
X0148099Y0108298D02*
X0148099Y0094102D01*
X0154919Y0156138D02*
X0157281Y0156138D01*
X0157281Y0160862D02*
X0154919Y0160862D01*
X0155981Y0187638D02*
X0153619Y0187638D01*
X0153619Y0192362D02*
X0155981Y0192362D01*
X0215019Y0134062D02*
X0217381Y0134062D01*
X0217381Y0129338D02*
X0215019Y0129338D01*
X0214972Y0121589D02*
X0214602Y0121589D01*
X0214602Y0115211D01*
X0214972Y0115211D01*
X0218145Y0115211D02*
X0222255Y0115211D01*
X0225428Y0115211D02*
X0225798Y0115211D01*
X0225798Y0121589D01*
X0225428Y0121589D01*
X0222255Y0121589D02*
X0221885Y0121589D01*
X0218515Y0121589D02*
X0218145Y0121589D01*
X0227738Y0117981D02*
X0227738Y0115619D01*
X0232462Y0115619D02*
X0232462Y0117981D01*
X0228362Y0132419D02*
X0228362Y0134781D01*
X0223638Y0134781D02*
X0223638Y0132419D01*
X0246159Y0146318D02*
X0248521Y0146318D01*
X0248521Y0151042D02*
X0246159Y0151042D01*
X0136681Y0263747D02*
X0134319Y0263747D01*
X0134122Y0269653D02*
X0136484Y0269653D01*
X0065181Y0212953D02*
X0062819Y0212953D01*
X0063016Y0207047D02*
X0065378Y0207047D01*
X0064501Y0110098D02*
X0064501Y0095902D01*
X0083099Y0095902D02*
X0083099Y0110098D01*
D13*
X0080335Y0106900D02*
X0080337Y0106947D01*
X0080343Y0106994D01*
X0080353Y0107041D01*
X0080366Y0107086D01*
X0080384Y0107130D01*
X0080405Y0107172D01*
X0080429Y0107213D01*
X0080457Y0107251D01*
X0080488Y0107287D01*
X0080522Y0107320D01*
X0080558Y0107350D01*
X0080597Y0107377D01*
X0080638Y0107401D01*
X0080681Y0107421D01*
X0080725Y0107437D01*
X0080771Y0107450D01*
X0080817Y0107459D01*
X0080865Y0107464D01*
X0080912Y0107465D01*
X0080959Y0107462D01*
X0081006Y0107455D01*
X0081052Y0107444D01*
X0081097Y0107430D01*
X0081141Y0107411D01*
X0081182Y0107389D01*
X0081222Y0107364D01*
X0081260Y0107335D01*
X0081295Y0107304D01*
X0081328Y0107269D01*
X0081357Y0107232D01*
X0081383Y0107193D01*
X0081406Y0107151D01*
X0081425Y0107108D01*
X0081441Y0107063D01*
X0081453Y0107017D01*
X0081461Y0106971D01*
X0081465Y0106924D01*
X0081465Y0106876D01*
X0081461Y0106829D01*
X0081453Y0106783D01*
X0081441Y0106737D01*
X0081425Y0106692D01*
X0081406Y0106649D01*
X0081383Y0106607D01*
X0081357Y0106568D01*
X0081328Y0106531D01*
X0081295Y0106496D01*
X0081260Y0106465D01*
X0081222Y0106436D01*
X0081183Y0106411D01*
X0081141Y0106389D01*
X0081097Y0106370D01*
X0081052Y0106356D01*
X0081006Y0106345D01*
X0080959Y0106338D01*
X0080912Y0106335D01*
X0080865Y0106336D01*
X0080817Y0106341D01*
X0080771Y0106350D01*
X0080725Y0106363D01*
X0080681Y0106379D01*
X0080638Y0106399D01*
X0080597Y0106423D01*
X0080558Y0106450D01*
X0080522Y0106480D01*
X0080488Y0106513D01*
X0080457Y0106549D01*
X0080429Y0106587D01*
X0080405Y0106628D01*
X0080384Y0106670D01*
X0080366Y0106714D01*
X0080353Y0106759D01*
X0080343Y0106806D01*
X0080337Y0106853D01*
X0080335Y0106900D01*
X0089157Y0110741D02*
X0094669Y0110741D01*
X0094669Y0115859D01*
X0089157Y0115859D01*
X0094669Y0115859D02*
X0096243Y0115859D01*
X0096243Y0110741D02*
X0094669Y0110741D01*
X0119335Y0105300D02*
X0119337Y0105347D01*
X0119343Y0105394D01*
X0119353Y0105441D01*
X0119366Y0105486D01*
X0119384Y0105530D01*
X0119405Y0105572D01*
X0119429Y0105613D01*
X0119457Y0105651D01*
X0119488Y0105687D01*
X0119522Y0105720D01*
X0119558Y0105750D01*
X0119597Y0105777D01*
X0119638Y0105801D01*
X0119681Y0105821D01*
X0119725Y0105837D01*
X0119771Y0105850D01*
X0119817Y0105859D01*
X0119865Y0105864D01*
X0119912Y0105865D01*
X0119959Y0105862D01*
X0120006Y0105855D01*
X0120052Y0105844D01*
X0120097Y0105830D01*
X0120141Y0105811D01*
X0120182Y0105789D01*
X0120222Y0105764D01*
X0120260Y0105735D01*
X0120295Y0105704D01*
X0120328Y0105669D01*
X0120357Y0105632D01*
X0120383Y0105593D01*
X0120406Y0105551D01*
X0120425Y0105508D01*
X0120441Y0105463D01*
X0120453Y0105417D01*
X0120461Y0105371D01*
X0120465Y0105324D01*
X0120465Y0105276D01*
X0120461Y0105229D01*
X0120453Y0105183D01*
X0120441Y0105137D01*
X0120425Y0105092D01*
X0120406Y0105049D01*
X0120383Y0105007D01*
X0120357Y0104968D01*
X0120328Y0104931D01*
X0120295Y0104896D01*
X0120260Y0104865D01*
X0120222Y0104836D01*
X0120183Y0104811D01*
X0120141Y0104789D01*
X0120097Y0104770D01*
X0120052Y0104756D01*
X0120006Y0104745D01*
X0119959Y0104738D01*
X0119912Y0104735D01*
X0119865Y0104736D01*
X0119817Y0104741D01*
X0119771Y0104750D01*
X0119725Y0104763D01*
X0119681Y0104779D01*
X0119638Y0104799D01*
X0119597Y0104823D01*
X0119558Y0104850D01*
X0119522Y0104880D01*
X0119488Y0104913D01*
X0119457Y0104949D01*
X0119429Y0104987D01*
X0119405Y0105028D01*
X0119384Y0105070D01*
X0119366Y0105114D01*
X0119353Y0105159D01*
X0119343Y0105206D01*
X0119337Y0105253D01*
X0119335Y0105300D01*
X0145335Y0105100D02*
X0145337Y0105147D01*
X0145343Y0105194D01*
X0145353Y0105241D01*
X0145366Y0105286D01*
X0145384Y0105330D01*
X0145405Y0105372D01*
X0145429Y0105413D01*
X0145457Y0105451D01*
X0145488Y0105487D01*
X0145522Y0105520D01*
X0145558Y0105550D01*
X0145597Y0105577D01*
X0145638Y0105601D01*
X0145681Y0105621D01*
X0145725Y0105637D01*
X0145771Y0105650D01*
X0145817Y0105659D01*
X0145865Y0105664D01*
X0145912Y0105665D01*
X0145959Y0105662D01*
X0146006Y0105655D01*
X0146052Y0105644D01*
X0146097Y0105630D01*
X0146141Y0105611D01*
X0146182Y0105589D01*
X0146222Y0105564D01*
X0146260Y0105535D01*
X0146295Y0105504D01*
X0146328Y0105469D01*
X0146357Y0105432D01*
X0146383Y0105393D01*
X0146406Y0105351D01*
X0146425Y0105308D01*
X0146441Y0105263D01*
X0146453Y0105217D01*
X0146461Y0105171D01*
X0146465Y0105124D01*
X0146465Y0105076D01*
X0146461Y0105029D01*
X0146453Y0104983D01*
X0146441Y0104937D01*
X0146425Y0104892D01*
X0146406Y0104849D01*
X0146383Y0104807D01*
X0146357Y0104768D01*
X0146328Y0104731D01*
X0146295Y0104696D01*
X0146260Y0104665D01*
X0146222Y0104636D01*
X0146183Y0104611D01*
X0146141Y0104589D01*
X0146097Y0104570D01*
X0146052Y0104556D01*
X0146006Y0104545D01*
X0145959Y0104538D01*
X0145912Y0104535D01*
X0145865Y0104536D01*
X0145817Y0104541D01*
X0145771Y0104550D01*
X0145725Y0104563D01*
X0145681Y0104579D01*
X0145638Y0104599D01*
X0145597Y0104623D01*
X0145558Y0104650D01*
X0145522Y0104680D01*
X0145488Y0104713D01*
X0145457Y0104749D01*
X0145429Y0104787D01*
X0145405Y0104828D01*
X0145384Y0104870D01*
X0145366Y0104914D01*
X0145353Y0104959D01*
X0145343Y0105006D01*
X0145337Y0105053D01*
X0145335Y0105100D01*
X0156182Y0113057D02*
X0156182Y0132743D01*
X0166024Y0132743D02*
X0166024Y0113057D01*
X0169782Y0113257D02*
X0169782Y0132943D01*
X0179624Y0132943D02*
X0179624Y0113257D01*
X0183682Y0113057D02*
X0183682Y0132743D01*
X0193524Y0132743D02*
X0193524Y0113057D01*
X0196982Y0113257D02*
X0196982Y0132943D01*
X0206824Y0132943D02*
X0206824Y0113257D01*
X0198459Y0115226D02*
X0198461Y0115285D01*
X0198467Y0115344D01*
X0198477Y0115402D01*
X0198490Y0115460D01*
X0198508Y0115516D01*
X0198529Y0115571D01*
X0198554Y0115625D01*
X0198583Y0115677D01*
X0198614Y0115727D01*
X0198649Y0115774D01*
X0198688Y0115820D01*
X0198729Y0115862D01*
X0198773Y0115902D01*
X0198819Y0115938D01*
X0198868Y0115972D01*
X0198919Y0116002D01*
X0198971Y0116029D01*
X0199026Y0116052D01*
X0199082Y0116071D01*
X0199139Y0116087D01*
X0199197Y0116099D01*
X0199255Y0116107D01*
X0199314Y0116111D01*
X0199374Y0116111D01*
X0199433Y0116107D01*
X0199491Y0116099D01*
X0199549Y0116087D01*
X0199606Y0116071D01*
X0199662Y0116052D01*
X0199717Y0116029D01*
X0199769Y0116002D01*
X0199820Y0115972D01*
X0199869Y0115938D01*
X0199915Y0115902D01*
X0199959Y0115862D01*
X0200000Y0115820D01*
X0200039Y0115774D01*
X0200074Y0115727D01*
X0200105Y0115677D01*
X0200134Y0115625D01*
X0200159Y0115571D01*
X0200180Y0115516D01*
X0200198Y0115460D01*
X0200211Y0115402D01*
X0200221Y0115344D01*
X0200227Y0115285D01*
X0200229Y0115226D01*
X0200227Y0115167D01*
X0200221Y0115108D01*
X0200211Y0115050D01*
X0200198Y0114992D01*
X0200180Y0114936D01*
X0200159Y0114881D01*
X0200134Y0114827D01*
X0200105Y0114775D01*
X0200074Y0114725D01*
X0200039Y0114678D01*
X0200000Y0114632D01*
X0199959Y0114590D01*
X0199915Y0114550D01*
X0199869Y0114514D01*
X0199820Y0114480D01*
X0199769Y0114450D01*
X0199717Y0114423D01*
X0199662Y0114400D01*
X0199606Y0114381D01*
X0199549Y0114365D01*
X0199491Y0114353D01*
X0199433Y0114345D01*
X0199374Y0114341D01*
X0199314Y0114341D01*
X0199255Y0114345D01*
X0199197Y0114353D01*
X0199139Y0114365D01*
X0199082Y0114381D01*
X0199026Y0114400D01*
X0198971Y0114423D01*
X0198919Y0114450D01*
X0198868Y0114480D01*
X0198819Y0114514D01*
X0198773Y0114550D01*
X0198729Y0114590D01*
X0198688Y0114632D01*
X0198649Y0114678D01*
X0198614Y0114725D01*
X0198583Y0114775D01*
X0198554Y0114827D01*
X0198529Y0114881D01*
X0198508Y0114936D01*
X0198490Y0114992D01*
X0198477Y0115050D01*
X0198467Y0115108D01*
X0198461Y0115167D01*
X0198459Y0115226D01*
X0185159Y0115026D02*
X0185161Y0115085D01*
X0185167Y0115144D01*
X0185177Y0115202D01*
X0185190Y0115260D01*
X0185208Y0115316D01*
X0185229Y0115371D01*
X0185254Y0115425D01*
X0185283Y0115477D01*
X0185314Y0115527D01*
X0185349Y0115574D01*
X0185388Y0115620D01*
X0185429Y0115662D01*
X0185473Y0115702D01*
X0185519Y0115738D01*
X0185568Y0115772D01*
X0185619Y0115802D01*
X0185671Y0115829D01*
X0185726Y0115852D01*
X0185782Y0115871D01*
X0185839Y0115887D01*
X0185897Y0115899D01*
X0185955Y0115907D01*
X0186014Y0115911D01*
X0186074Y0115911D01*
X0186133Y0115907D01*
X0186191Y0115899D01*
X0186249Y0115887D01*
X0186306Y0115871D01*
X0186362Y0115852D01*
X0186417Y0115829D01*
X0186469Y0115802D01*
X0186520Y0115772D01*
X0186569Y0115738D01*
X0186615Y0115702D01*
X0186659Y0115662D01*
X0186700Y0115620D01*
X0186739Y0115574D01*
X0186774Y0115527D01*
X0186805Y0115477D01*
X0186834Y0115425D01*
X0186859Y0115371D01*
X0186880Y0115316D01*
X0186898Y0115260D01*
X0186911Y0115202D01*
X0186921Y0115144D01*
X0186927Y0115085D01*
X0186929Y0115026D01*
X0186927Y0114967D01*
X0186921Y0114908D01*
X0186911Y0114850D01*
X0186898Y0114792D01*
X0186880Y0114736D01*
X0186859Y0114681D01*
X0186834Y0114627D01*
X0186805Y0114575D01*
X0186774Y0114525D01*
X0186739Y0114478D01*
X0186700Y0114432D01*
X0186659Y0114390D01*
X0186615Y0114350D01*
X0186569Y0114314D01*
X0186520Y0114280D01*
X0186469Y0114250D01*
X0186417Y0114223D01*
X0186362Y0114200D01*
X0186306Y0114181D01*
X0186249Y0114165D01*
X0186191Y0114153D01*
X0186133Y0114145D01*
X0186074Y0114141D01*
X0186014Y0114141D01*
X0185955Y0114145D01*
X0185897Y0114153D01*
X0185839Y0114165D01*
X0185782Y0114181D01*
X0185726Y0114200D01*
X0185671Y0114223D01*
X0185619Y0114250D01*
X0185568Y0114280D01*
X0185519Y0114314D01*
X0185473Y0114350D01*
X0185429Y0114390D01*
X0185388Y0114432D01*
X0185349Y0114478D01*
X0185314Y0114525D01*
X0185283Y0114575D01*
X0185254Y0114627D01*
X0185229Y0114681D01*
X0185208Y0114736D01*
X0185190Y0114792D01*
X0185177Y0114850D01*
X0185167Y0114908D01*
X0185161Y0114967D01*
X0185159Y0115026D01*
X0171259Y0115226D02*
X0171261Y0115285D01*
X0171267Y0115344D01*
X0171277Y0115402D01*
X0171290Y0115460D01*
X0171308Y0115516D01*
X0171329Y0115571D01*
X0171354Y0115625D01*
X0171383Y0115677D01*
X0171414Y0115727D01*
X0171449Y0115774D01*
X0171488Y0115820D01*
X0171529Y0115862D01*
X0171573Y0115902D01*
X0171619Y0115938D01*
X0171668Y0115972D01*
X0171719Y0116002D01*
X0171771Y0116029D01*
X0171826Y0116052D01*
X0171882Y0116071D01*
X0171939Y0116087D01*
X0171997Y0116099D01*
X0172055Y0116107D01*
X0172114Y0116111D01*
X0172174Y0116111D01*
X0172233Y0116107D01*
X0172291Y0116099D01*
X0172349Y0116087D01*
X0172406Y0116071D01*
X0172462Y0116052D01*
X0172517Y0116029D01*
X0172569Y0116002D01*
X0172620Y0115972D01*
X0172669Y0115938D01*
X0172715Y0115902D01*
X0172759Y0115862D01*
X0172800Y0115820D01*
X0172839Y0115774D01*
X0172874Y0115727D01*
X0172905Y0115677D01*
X0172934Y0115625D01*
X0172959Y0115571D01*
X0172980Y0115516D01*
X0172998Y0115460D01*
X0173011Y0115402D01*
X0173021Y0115344D01*
X0173027Y0115285D01*
X0173029Y0115226D01*
X0173027Y0115167D01*
X0173021Y0115108D01*
X0173011Y0115050D01*
X0172998Y0114992D01*
X0172980Y0114936D01*
X0172959Y0114881D01*
X0172934Y0114827D01*
X0172905Y0114775D01*
X0172874Y0114725D01*
X0172839Y0114678D01*
X0172800Y0114632D01*
X0172759Y0114590D01*
X0172715Y0114550D01*
X0172669Y0114514D01*
X0172620Y0114480D01*
X0172569Y0114450D01*
X0172517Y0114423D01*
X0172462Y0114400D01*
X0172406Y0114381D01*
X0172349Y0114365D01*
X0172291Y0114353D01*
X0172233Y0114345D01*
X0172174Y0114341D01*
X0172114Y0114341D01*
X0172055Y0114345D01*
X0171997Y0114353D01*
X0171939Y0114365D01*
X0171882Y0114381D01*
X0171826Y0114400D01*
X0171771Y0114423D01*
X0171719Y0114450D01*
X0171668Y0114480D01*
X0171619Y0114514D01*
X0171573Y0114550D01*
X0171529Y0114590D01*
X0171488Y0114632D01*
X0171449Y0114678D01*
X0171414Y0114725D01*
X0171383Y0114775D01*
X0171354Y0114827D01*
X0171329Y0114881D01*
X0171308Y0114936D01*
X0171290Y0114992D01*
X0171277Y0115050D01*
X0171267Y0115108D01*
X0171261Y0115167D01*
X0171259Y0115226D01*
X0157659Y0115026D02*
X0157661Y0115085D01*
X0157667Y0115144D01*
X0157677Y0115202D01*
X0157690Y0115260D01*
X0157708Y0115316D01*
X0157729Y0115371D01*
X0157754Y0115425D01*
X0157783Y0115477D01*
X0157814Y0115527D01*
X0157849Y0115574D01*
X0157888Y0115620D01*
X0157929Y0115662D01*
X0157973Y0115702D01*
X0158019Y0115738D01*
X0158068Y0115772D01*
X0158119Y0115802D01*
X0158171Y0115829D01*
X0158226Y0115852D01*
X0158282Y0115871D01*
X0158339Y0115887D01*
X0158397Y0115899D01*
X0158455Y0115907D01*
X0158514Y0115911D01*
X0158574Y0115911D01*
X0158633Y0115907D01*
X0158691Y0115899D01*
X0158749Y0115887D01*
X0158806Y0115871D01*
X0158862Y0115852D01*
X0158917Y0115829D01*
X0158969Y0115802D01*
X0159020Y0115772D01*
X0159069Y0115738D01*
X0159115Y0115702D01*
X0159159Y0115662D01*
X0159200Y0115620D01*
X0159239Y0115574D01*
X0159274Y0115527D01*
X0159305Y0115477D01*
X0159334Y0115425D01*
X0159359Y0115371D01*
X0159380Y0115316D01*
X0159398Y0115260D01*
X0159411Y0115202D01*
X0159421Y0115144D01*
X0159427Y0115085D01*
X0159429Y0115026D01*
X0159427Y0114967D01*
X0159421Y0114908D01*
X0159411Y0114850D01*
X0159398Y0114792D01*
X0159380Y0114736D01*
X0159359Y0114681D01*
X0159334Y0114627D01*
X0159305Y0114575D01*
X0159274Y0114525D01*
X0159239Y0114478D01*
X0159200Y0114432D01*
X0159159Y0114390D01*
X0159115Y0114350D01*
X0159069Y0114314D01*
X0159020Y0114280D01*
X0158969Y0114250D01*
X0158917Y0114223D01*
X0158862Y0114200D01*
X0158806Y0114181D01*
X0158749Y0114165D01*
X0158691Y0114153D01*
X0158633Y0114145D01*
X0158574Y0114141D01*
X0158514Y0114141D01*
X0158455Y0114145D01*
X0158397Y0114153D01*
X0158339Y0114165D01*
X0158282Y0114181D01*
X0158226Y0114200D01*
X0158171Y0114223D01*
X0158119Y0114250D01*
X0158068Y0114280D01*
X0158019Y0114314D01*
X0157973Y0114350D01*
X0157929Y0114390D01*
X0157888Y0114432D01*
X0157849Y0114478D01*
X0157814Y0114525D01*
X0157783Y0114575D01*
X0157754Y0114627D01*
X0157729Y0114681D01*
X0157708Y0114736D01*
X0157690Y0114792D01*
X0157677Y0114850D01*
X0157667Y0114908D01*
X0157661Y0114967D01*
X0157659Y0115026D01*
X0144543Y0149591D02*
X0142969Y0149591D01*
X0142969Y0154709D01*
X0137457Y0154709D01*
X0137457Y0149591D02*
X0142969Y0149591D01*
X0142969Y0154709D02*
X0144543Y0154709D01*
X0154819Y0164357D02*
X0157181Y0164357D01*
X0162299Y0171838D02*
X0162299Y0176562D01*
X0157181Y0184043D02*
X0154819Y0184043D01*
X0149701Y0176562D02*
X0149701Y0171838D01*
X0147023Y0194102D02*
X0112377Y0194102D01*
X0110802Y0195677D01*
X0110802Y0230323D01*
X0112377Y0231898D01*
X0147023Y0231898D01*
X0148598Y0230323D01*
X0148598Y0195677D01*
X0147023Y0194102D01*
X0181500Y0228800D02*
X0181500Y0233800D01*
X0184000Y0236300D01*
X0189000Y0236300D01*
X0191500Y0233800D01*
X0194000Y0236300D01*
X0199000Y0236300D01*
X0201500Y0233800D01*
X0204000Y0236300D01*
X0209000Y0236300D01*
X0211500Y0233800D01*
X0214000Y0236300D01*
X0219000Y0236300D01*
X0221500Y0233800D01*
X0224000Y0236300D01*
X0229000Y0236300D01*
X0231500Y0233800D01*
X0234000Y0236300D01*
X0239000Y0236300D01*
X0241500Y0233800D01*
X0241500Y0228800D01*
X0239000Y0226300D01*
X0234000Y0226300D01*
X0231500Y0228800D01*
X0229000Y0226300D01*
X0224000Y0226300D01*
X0221500Y0228800D01*
X0219000Y0226300D01*
X0214000Y0226300D01*
X0211500Y0228800D01*
X0209000Y0226300D01*
X0204000Y0226300D01*
X0201500Y0228800D01*
X0199000Y0226300D01*
X0194000Y0226300D01*
X0191500Y0228800D01*
X0189000Y0226300D01*
X0184000Y0226300D01*
X0181500Y0228800D01*
X0145100Y0250100D02*
X0144000Y0249000D01*
X0145100Y0250100D02*
X0145100Y0254000D01*
X0145100Y0257900D01*
X0144000Y0259000D01*
X0144100Y0254000D02*
X0145100Y0254000D01*
X0136100Y0254000D02*
X0134100Y0254000D01*
X0126100Y0254000D02*
X0124100Y0254000D01*
X0116100Y0254000D02*
X0114100Y0254000D01*
X0106100Y0254000D02*
X0104100Y0254000D01*
X0096100Y0254000D02*
X0095100Y0254000D01*
X0095100Y0250100D01*
X0096200Y0249000D01*
X0095100Y0254000D02*
X0095100Y0257900D01*
X0096200Y0259000D01*
X0055900Y0231391D02*
X0055900Y0228009D01*
X0051357Y0232891D02*
X0049243Y0232891D01*
X0044700Y0231391D02*
X0044700Y0228009D01*
X0044850Y0214137D02*
X0051150Y0214137D01*
X0051150Y0214138D02*
X0051209Y0214124D01*
X0051267Y0214107D01*
X0051324Y0214086D01*
X0051380Y0214062D01*
X0051434Y0214034D01*
X0051486Y0214004D01*
X0051537Y0213970D01*
X0051585Y0213933D01*
X0051631Y0213894D01*
X0051674Y0213851D01*
X0051715Y0213807D01*
X0051753Y0213759D01*
X0051788Y0213710D01*
X0051820Y0213658D01*
X0051849Y0213605D01*
X0051875Y0213550D01*
X0051897Y0213494D01*
X0051916Y0213436D01*
X0051932Y0213377D01*
X0051943Y0213318D01*
X0051952Y0213258D01*
X0051956Y0213197D01*
X0051957Y0213137D01*
X0051954Y0213076D01*
X0051948Y0213016D01*
X0051938Y0212956D01*
X0051938Y0207444D02*
X0051948Y0207384D01*
X0051954Y0207324D01*
X0051957Y0207263D01*
X0051956Y0207203D01*
X0051952Y0207142D01*
X0051943Y0207082D01*
X0051932Y0207023D01*
X0051916Y0206964D01*
X0051897Y0206906D01*
X0051875Y0206850D01*
X0051849Y0206795D01*
X0051820Y0206742D01*
X0051788Y0206690D01*
X0051753Y0206641D01*
X0051715Y0206593D01*
X0051674Y0206549D01*
X0051631Y0206506D01*
X0051585Y0206467D01*
X0051537Y0206430D01*
X0051486Y0206396D01*
X0051434Y0206366D01*
X0051380Y0206338D01*
X0051324Y0206314D01*
X0051267Y0206293D01*
X0051209Y0206276D01*
X0051150Y0206262D01*
X0051150Y0206263D02*
X0044850Y0206263D01*
X0044850Y0206262D02*
X0044791Y0206276D01*
X0044733Y0206293D01*
X0044676Y0206314D01*
X0044620Y0206338D01*
X0044566Y0206366D01*
X0044514Y0206396D01*
X0044463Y0206430D01*
X0044415Y0206467D01*
X0044369Y0206506D01*
X0044326Y0206549D01*
X0044285Y0206593D01*
X0044247Y0206641D01*
X0044212Y0206690D01*
X0044180Y0206742D01*
X0044151Y0206795D01*
X0044125Y0206850D01*
X0044103Y0206906D01*
X0044084Y0206964D01*
X0044068Y0207023D01*
X0044057Y0207082D01*
X0044048Y0207142D01*
X0044044Y0207203D01*
X0044043Y0207263D01*
X0044046Y0207324D01*
X0044052Y0207384D01*
X0044062Y0207444D01*
X0044062Y0212956D02*
X0044052Y0213016D01*
X0044046Y0213076D01*
X0044043Y0213137D01*
X0044044Y0213197D01*
X0044048Y0213258D01*
X0044057Y0213318D01*
X0044068Y0213377D01*
X0044084Y0213436D01*
X0044103Y0213494D01*
X0044125Y0213550D01*
X0044151Y0213605D01*
X0044180Y0213658D01*
X0044212Y0213710D01*
X0044247Y0213759D01*
X0044285Y0213807D01*
X0044326Y0213851D01*
X0044369Y0213894D01*
X0044415Y0213933D01*
X0044463Y0213970D01*
X0044514Y0214004D01*
X0044566Y0214034D01*
X0044620Y0214062D01*
X0044676Y0214086D01*
X0044733Y0214107D01*
X0044791Y0214124D01*
X0044850Y0214138D01*
X0054600Y0199700D02*
X0062647Y0199700D01*
X0070600Y0196200D02*
X0070600Y0179200D01*
X0062529Y0175700D02*
X0054600Y0175700D01*
X0046600Y0179200D02*
X0046600Y0196200D01*
X0051600Y0187700D02*
X0051602Y0187872D01*
X0051608Y0188043D01*
X0051619Y0188215D01*
X0051634Y0188386D01*
X0051653Y0188557D01*
X0051676Y0188727D01*
X0051703Y0188897D01*
X0051735Y0189066D01*
X0051770Y0189234D01*
X0051810Y0189401D01*
X0051854Y0189567D01*
X0051901Y0189732D01*
X0051953Y0189896D01*
X0052009Y0190058D01*
X0052069Y0190219D01*
X0052133Y0190379D01*
X0052201Y0190537D01*
X0052272Y0190693D01*
X0052347Y0190847D01*
X0052427Y0191000D01*
X0052509Y0191150D01*
X0052596Y0191299D01*
X0052686Y0191445D01*
X0052780Y0191589D01*
X0052877Y0191731D01*
X0052978Y0191870D01*
X0053082Y0192007D01*
X0053189Y0192141D01*
X0053300Y0192272D01*
X0053413Y0192401D01*
X0053530Y0192527D01*
X0053650Y0192650D01*
X0053773Y0192770D01*
X0053899Y0192887D01*
X0054028Y0193000D01*
X0054159Y0193111D01*
X0054293Y0193218D01*
X0054430Y0193322D01*
X0054569Y0193423D01*
X0054711Y0193520D01*
X0054855Y0193614D01*
X0055001Y0193704D01*
X0055150Y0193791D01*
X0055300Y0193873D01*
X0055453Y0193953D01*
X0055607Y0194028D01*
X0055763Y0194099D01*
X0055921Y0194167D01*
X0056081Y0194231D01*
X0056242Y0194291D01*
X0056404Y0194347D01*
X0056568Y0194399D01*
X0056733Y0194446D01*
X0056899Y0194490D01*
X0057066Y0194530D01*
X0057234Y0194565D01*
X0057403Y0194597D01*
X0057573Y0194624D01*
X0057743Y0194647D01*
X0057914Y0194666D01*
X0058085Y0194681D01*
X0058257Y0194692D01*
X0058428Y0194698D01*
X0058600Y0194700D01*
X0058772Y0194698D01*
X0058943Y0194692D01*
X0059115Y0194681D01*
X0059286Y0194666D01*
X0059457Y0194647D01*
X0059627Y0194624D01*
X0059797Y0194597D01*
X0059966Y0194565D01*
X0060134Y0194530D01*
X0060301Y0194490D01*
X0060467Y0194446D01*
X0060632Y0194399D01*
X0060796Y0194347D01*
X0060958Y0194291D01*
X0061119Y0194231D01*
X0061279Y0194167D01*
X0061437Y0194099D01*
X0061593Y0194028D01*
X0061747Y0193953D01*
X0061900Y0193873D01*
X0062050Y0193791D01*
X0062199Y0193704D01*
X0062345Y0193614D01*
X0062489Y0193520D01*
X0062631Y0193423D01*
X0062770Y0193322D01*
X0062907Y0193218D01*
X0063041Y0193111D01*
X0063172Y0193000D01*
X0063301Y0192887D01*
X0063427Y0192770D01*
X0063550Y0192650D01*
X0063670Y0192527D01*
X0063787Y0192401D01*
X0063900Y0192272D01*
X0064011Y0192141D01*
X0064118Y0192007D01*
X0064222Y0191870D01*
X0064323Y0191731D01*
X0064420Y0191589D01*
X0064514Y0191445D01*
X0064604Y0191299D01*
X0064691Y0191150D01*
X0064773Y0191000D01*
X0064853Y0190847D01*
X0064928Y0190693D01*
X0064999Y0190537D01*
X0065067Y0190379D01*
X0065131Y0190219D01*
X0065191Y0190058D01*
X0065247Y0189896D01*
X0065299Y0189732D01*
X0065346Y0189567D01*
X0065390Y0189401D01*
X0065430Y0189234D01*
X0065465Y0189066D01*
X0065497Y0188897D01*
X0065524Y0188727D01*
X0065547Y0188557D01*
X0065566Y0188386D01*
X0065581Y0188215D01*
X0065592Y0188043D01*
X0065598Y0187872D01*
X0065600Y0187700D01*
X0065598Y0187528D01*
X0065592Y0187357D01*
X0065581Y0187185D01*
X0065566Y0187014D01*
X0065547Y0186843D01*
X0065524Y0186673D01*
X0065497Y0186503D01*
X0065465Y0186334D01*
X0065430Y0186166D01*
X0065390Y0185999D01*
X0065346Y0185833D01*
X0065299Y0185668D01*
X0065247Y0185504D01*
X0065191Y0185342D01*
X0065131Y0185181D01*
X0065067Y0185021D01*
X0064999Y0184863D01*
X0064928Y0184707D01*
X0064853Y0184553D01*
X0064773Y0184400D01*
X0064691Y0184250D01*
X0064604Y0184101D01*
X0064514Y0183955D01*
X0064420Y0183811D01*
X0064323Y0183669D01*
X0064222Y0183530D01*
X0064118Y0183393D01*
X0064011Y0183259D01*
X0063900Y0183128D01*
X0063787Y0182999D01*
X0063670Y0182873D01*
X0063550Y0182750D01*
X0063427Y0182630D01*
X0063301Y0182513D01*
X0063172Y0182400D01*
X0063041Y0182289D01*
X0062907Y0182182D01*
X0062770Y0182078D01*
X0062631Y0181977D01*
X0062489Y0181880D01*
X0062345Y0181786D01*
X0062199Y0181696D01*
X0062050Y0181609D01*
X0061900Y0181527D01*
X0061747Y0181447D01*
X0061593Y0181372D01*
X0061437Y0181301D01*
X0061279Y0181233D01*
X0061119Y0181169D01*
X0060958Y0181109D01*
X0060796Y0181053D01*
X0060632Y0181001D01*
X0060467Y0180954D01*
X0060301Y0180910D01*
X0060134Y0180870D01*
X0059966Y0180835D01*
X0059797Y0180803D01*
X0059627Y0180776D01*
X0059457Y0180753D01*
X0059286Y0180734D01*
X0059115Y0180719D01*
X0058943Y0180708D01*
X0058772Y0180702D01*
X0058600Y0180700D01*
X0058428Y0180702D01*
X0058257Y0180708D01*
X0058085Y0180719D01*
X0057914Y0180734D01*
X0057743Y0180753D01*
X0057573Y0180776D01*
X0057403Y0180803D01*
X0057234Y0180835D01*
X0057066Y0180870D01*
X0056899Y0180910D01*
X0056733Y0180954D01*
X0056568Y0181001D01*
X0056404Y0181053D01*
X0056242Y0181109D01*
X0056081Y0181169D01*
X0055921Y0181233D01*
X0055763Y0181301D01*
X0055607Y0181372D01*
X0055453Y0181447D01*
X0055300Y0181527D01*
X0055150Y0181609D01*
X0055001Y0181696D01*
X0054855Y0181786D01*
X0054711Y0181880D01*
X0054569Y0181977D01*
X0054430Y0182078D01*
X0054293Y0182182D01*
X0054159Y0182289D01*
X0054028Y0182400D01*
X0053899Y0182513D01*
X0053773Y0182630D01*
X0053650Y0182750D01*
X0053530Y0182873D01*
X0053413Y0182999D01*
X0053300Y0183128D01*
X0053189Y0183259D01*
X0053082Y0183393D01*
X0052978Y0183530D01*
X0052877Y0183669D01*
X0052780Y0183811D01*
X0052686Y0183955D01*
X0052596Y0184101D01*
X0052509Y0184250D01*
X0052427Y0184400D01*
X0052347Y0184553D01*
X0052272Y0184707D01*
X0052201Y0184863D01*
X0052133Y0185021D01*
X0052069Y0185181D01*
X0052009Y0185342D01*
X0051953Y0185504D01*
X0051901Y0185668D01*
X0051854Y0185833D01*
X0051810Y0185999D01*
X0051770Y0186166D01*
X0051735Y0186334D01*
X0051703Y0186503D01*
X0051676Y0186673D01*
X0051653Y0186843D01*
X0051634Y0187014D01*
X0051619Y0187185D01*
X0051608Y0187357D01*
X0051602Y0187528D01*
X0051600Y0187700D01*
X0071757Y0156259D02*
X0077269Y0156259D01*
X0077269Y0151141D01*
X0071757Y0151141D01*
X0077269Y0151141D02*
X0078843Y0151141D01*
X0078843Y0156259D02*
X0077269Y0156259D01*
X0111257Y0154559D02*
X0116769Y0154559D01*
X0116769Y0149441D01*
X0111257Y0149441D01*
X0116769Y0149441D02*
X0118343Y0149441D01*
X0118343Y0154559D02*
X0116769Y0154559D01*
X0053843Y0116359D02*
X0052269Y0116359D01*
X0052269Y0111241D01*
X0046757Y0111241D01*
X0052269Y0111241D02*
X0053843Y0111241D01*
X0052269Y0116359D02*
X0046757Y0116359D01*
X0031643Y0117259D02*
X0030069Y0117259D01*
X0030069Y0112141D01*
X0024557Y0112141D01*
X0024557Y0117259D02*
X0030069Y0117259D01*
X0030069Y0112141D02*
X0031643Y0112141D01*
X0217609Y0146243D02*
X0217609Y0148357D01*
X0219109Y0152900D02*
X0222491Y0152900D01*
X0222491Y0141700D02*
X0219109Y0141700D01*
X0240715Y0157294D02*
X0240715Y0169106D01*
X0244652Y0173043D01*
X0252526Y0173043D01*
X0257600Y0175498D02*
X0257600Y0201302D01*
X0281200Y0201300D01*
X0281200Y0175500D02*
X0257600Y0175498D01*
X0268274Y0173043D02*
X0280085Y0173043D01*
X0280085Y0153357D01*
X0268274Y0153357D01*
X0252526Y0153357D02*
X0244652Y0153357D01*
X0240715Y0157294D01*
D14*
X0201800Y0183606D03*
X0192300Y0183506D03*
D15*
X0173198Y0243367D02*
X0173198Y0245836D01*
X0171964Y0244601D02*
X0174433Y0244601D01*
X0270964Y0222501D02*
X0273433Y0222501D01*
X0272198Y0221267D02*
X0272198Y0223736D01*
X0265898Y0152536D02*
X0265898Y0150067D01*
X0264664Y0151301D02*
X0267133Y0151301D01*
D16*
X0274491Y0150962D03*
X0274491Y0146238D03*
X0280791Y0217438D03*
X0280791Y0222162D03*
X0181791Y0239538D03*
X0181791Y0244262D03*
D17*
X0181791Y0241900D03*
X0274491Y0148600D03*
X0280791Y0219800D03*
D18*
X0255700Y0188400D03*
D19*
X0254073Y0111840D02*
X0254073Y0107236D01*
X0252539Y0107236D02*
X0255608Y0107236D01*
X0252539Y0110305D02*
X0254073Y0111840D01*
D20*
X0227887Y0154413D02*
X0212532Y0154413D01*
X0212532Y0158744D01*
X0212532Y0164256D02*
X0212532Y0168587D01*
X0227887Y0168587D01*
X0227887Y0168193D01*
X0228280Y0164256D02*
X0228280Y0158744D01*
X0227887Y0154807D02*
X0227887Y0154413D01*
D21*
X0229969Y0077886D02*
X0229971Y0078018D01*
X0229977Y0078151D01*
X0229987Y0078283D01*
X0230001Y0078415D01*
X0230018Y0078546D01*
X0230040Y0078677D01*
X0230066Y0078807D01*
X0230095Y0078936D01*
X0230129Y0079064D01*
X0230166Y0079191D01*
X0230207Y0079317D01*
X0230251Y0079442D01*
X0230300Y0079566D01*
X0230352Y0079687D01*
X0230408Y0079808D01*
X0230467Y0079926D01*
X0230530Y0080043D01*
X0230596Y0080158D01*
X0230666Y0080270D01*
X0230739Y0080381D01*
X0230815Y0080489D01*
X0230894Y0080595D01*
X0230977Y0080699D01*
X0231063Y0080800D01*
X0231151Y0080898D01*
X0231243Y0080994D01*
X0231337Y0081087D01*
X0231434Y0081177D01*
X0231534Y0081265D01*
X0231637Y0081349D01*
X0231741Y0081430D01*
X0231849Y0081508D01*
X0231958Y0081582D01*
X0232070Y0081654D01*
X0232184Y0081722D01*
X0232299Y0081786D01*
X0232417Y0081847D01*
X0232536Y0081905D01*
X0232657Y0081959D01*
X0232780Y0082009D01*
X0232904Y0082055D01*
X0233029Y0082098D01*
X0233156Y0082137D01*
X0233284Y0082173D01*
X0233412Y0082204D01*
X0233542Y0082232D01*
X0233672Y0082255D01*
X0233803Y0082275D01*
X0233935Y0082291D01*
X0234067Y0082303D01*
X0234199Y0082311D01*
X0234332Y0082315D01*
X0234464Y0082315D01*
X0234597Y0082311D01*
X0234729Y0082303D01*
X0234861Y0082291D01*
X0234993Y0082275D01*
X0235124Y0082255D01*
X0235254Y0082232D01*
X0235384Y0082204D01*
X0235512Y0082173D01*
X0235640Y0082137D01*
X0235767Y0082098D01*
X0235892Y0082055D01*
X0236016Y0082009D01*
X0236139Y0081959D01*
X0236260Y0081905D01*
X0236379Y0081847D01*
X0236497Y0081786D01*
X0236613Y0081722D01*
X0236726Y0081654D01*
X0236838Y0081582D01*
X0236947Y0081508D01*
X0237055Y0081430D01*
X0237159Y0081349D01*
X0237262Y0081265D01*
X0237362Y0081177D01*
X0237459Y0081087D01*
X0237553Y0080994D01*
X0237645Y0080898D01*
X0237733Y0080800D01*
X0237819Y0080699D01*
X0237902Y0080595D01*
X0237981Y0080489D01*
X0238057Y0080381D01*
X0238130Y0080270D01*
X0238200Y0080158D01*
X0238266Y0080043D01*
X0238329Y0079926D01*
X0238388Y0079808D01*
X0238444Y0079687D01*
X0238496Y0079566D01*
X0238545Y0079442D01*
X0238589Y0079317D01*
X0238630Y0079191D01*
X0238667Y0079064D01*
X0238701Y0078936D01*
X0238730Y0078807D01*
X0238756Y0078677D01*
X0238778Y0078546D01*
X0238795Y0078415D01*
X0238809Y0078283D01*
X0238819Y0078151D01*
X0238825Y0078018D01*
X0238827Y0077886D01*
X0238825Y0077754D01*
X0238819Y0077621D01*
X0238809Y0077489D01*
X0238795Y0077357D01*
X0238778Y0077226D01*
X0238756Y0077095D01*
X0238730Y0076965D01*
X0238701Y0076836D01*
X0238667Y0076708D01*
X0238630Y0076581D01*
X0238589Y0076455D01*
X0238545Y0076330D01*
X0238496Y0076206D01*
X0238444Y0076085D01*
X0238388Y0075964D01*
X0238329Y0075846D01*
X0238266Y0075729D01*
X0238200Y0075614D01*
X0238130Y0075502D01*
X0238057Y0075391D01*
X0237981Y0075283D01*
X0237902Y0075177D01*
X0237819Y0075073D01*
X0237733Y0074972D01*
X0237645Y0074874D01*
X0237553Y0074778D01*
X0237459Y0074685D01*
X0237362Y0074595D01*
X0237262Y0074507D01*
X0237159Y0074423D01*
X0237055Y0074342D01*
X0236947Y0074264D01*
X0236838Y0074190D01*
X0236726Y0074118D01*
X0236612Y0074050D01*
X0236497Y0073986D01*
X0236379Y0073925D01*
X0236260Y0073867D01*
X0236139Y0073813D01*
X0236016Y0073763D01*
X0235892Y0073717D01*
X0235767Y0073674D01*
X0235640Y0073635D01*
X0235512Y0073599D01*
X0235384Y0073568D01*
X0235254Y0073540D01*
X0235124Y0073517D01*
X0234993Y0073497D01*
X0234861Y0073481D01*
X0234729Y0073469D01*
X0234597Y0073461D01*
X0234464Y0073457D01*
X0234332Y0073457D01*
X0234199Y0073461D01*
X0234067Y0073469D01*
X0233935Y0073481D01*
X0233803Y0073497D01*
X0233672Y0073517D01*
X0233542Y0073540D01*
X0233412Y0073568D01*
X0233284Y0073599D01*
X0233156Y0073635D01*
X0233029Y0073674D01*
X0232904Y0073717D01*
X0232780Y0073763D01*
X0232657Y0073813D01*
X0232536Y0073867D01*
X0232417Y0073925D01*
X0232299Y0073986D01*
X0232183Y0074050D01*
X0232070Y0074118D01*
X0231958Y0074190D01*
X0231849Y0074264D01*
X0231741Y0074342D01*
X0231637Y0074423D01*
X0231534Y0074507D01*
X0231434Y0074595D01*
X0231337Y0074685D01*
X0231243Y0074778D01*
X0231151Y0074874D01*
X0231063Y0074972D01*
X0230977Y0075073D01*
X0230894Y0075177D01*
X0230815Y0075283D01*
X0230739Y0075391D01*
X0230666Y0075502D01*
X0230596Y0075614D01*
X0230530Y0075729D01*
X0230467Y0075846D01*
X0230408Y0075964D01*
X0230352Y0076085D01*
X0230300Y0076206D01*
X0230251Y0076330D01*
X0230207Y0076455D01*
X0230166Y0076581D01*
X0230129Y0076708D01*
X0230095Y0076836D01*
X0230066Y0076965D01*
X0230040Y0077095D01*
X0230018Y0077226D01*
X0230001Y0077357D01*
X0229987Y0077489D01*
X0229977Y0077621D01*
X0229971Y0077754D01*
X0229969Y0077886D01*
X0242547Y0062768D02*
X0242549Y0062966D01*
X0242557Y0063164D01*
X0242569Y0063362D01*
X0242586Y0063559D01*
X0242608Y0063756D01*
X0242634Y0063952D01*
X0242666Y0064148D01*
X0242702Y0064343D01*
X0242743Y0064536D01*
X0242789Y0064729D01*
X0242839Y0064921D01*
X0242895Y0065111D01*
X0242954Y0065300D01*
X0243019Y0065487D01*
X0243088Y0065673D01*
X0243161Y0065857D01*
X0243239Y0066039D01*
X0243322Y0066219D01*
X0243409Y0066397D01*
X0243500Y0066573D01*
X0243596Y0066746D01*
X0243695Y0066917D01*
X0243799Y0067086D01*
X0243907Y0067252D01*
X0244019Y0067415D01*
X0244135Y0067576D01*
X0244255Y0067734D01*
X0244379Y0067888D01*
X0244507Y0068040D01*
X0244638Y0068188D01*
X0244773Y0068333D01*
X0244911Y0068475D01*
X0245053Y0068613D01*
X0245198Y0068748D01*
X0245346Y0068879D01*
X0245498Y0069007D01*
X0245652Y0069131D01*
X0245810Y0069251D01*
X0245971Y0069367D01*
X0246134Y0069479D01*
X0246300Y0069587D01*
X0246469Y0069691D01*
X0246640Y0069790D01*
X0246813Y0069886D01*
X0246989Y0069977D01*
X0247167Y0070064D01*
X0247347Y0070147D01*
X0247529Y0070225D01*
X0247713Y0070298D01*
X0247899Y0070367D01*
X0248086Y0070432D01*
X0248275Y0070491D01*
X0248465Y0070547D01*
X0248657Y0070597D01*
X0248850Y0070643D01*
X0249043Y0070684D01*
X0249238Y0070720D01*
X0249434Y0070752D01*
X0249630Y0070778D01*
X0249827Y0070800D01*
X0250024Y0070817D01*
X0250222Y0070829D01*
X0250420Y0070837D01*
X0250618Y0070839D01*
X0250816Y0070837D01*
X0251014Y0070829D01*
X0251212Y0070817D01*
X0251409Y0070800D01*
X0251606Y0070778D01*
X0251802Y0070752D01*
X0251998Y0070720D01*
X0252193Y0070684D01*
X0252386Y0070643D01*
X0252579Y0070597D01*
X0252771Y0070547D01*
X0252961Y0070491D01*
X0253150Y0070432D01*
X0253337Y0070367D01*
X0253523Y0070298D01*
X0253707Y0070225D01*
X0253889Y0070147D01*
X0254069Y0070064D01*
X0254247Y0069977D01*
X0254423Y0069886D01*
X0254596Y0069790D01*
X0254767Y0069691D01*
X0254936Y0069587D01*
X0255102Y0069479D01*
X0255265Y0069367D01*
X0255426Y0069251D01*
X0255584Y0069131D01*
X0255738Y0069007D01*
X0255890Y0068879D01*
X0256038Y0068748D01*
X0256183Y0068613D01*
X0256325Y0068475D01*
X0256463Y0068333D01*
X0256598Y0068188D01*
X0256729Y0068040D01*
X0256857Y0067888D01*
X0256981Y0067734D01*
X0257101Y0067576D01*
X0257217Y0067415D01*
X0257329Y0067252D01*
X0257437Y0067086D01*
X0257541Y0066917D01*
X0257640Y0066746D01*
X0257736Y0066573D01*
X0257827Y0066397D01*
X0257914Y0066219D01*
X0257997Y0066039D01*
X0258075Y0065857D01*
X0258148Y0065673D01*
X0258217Y0065487D01*
X0258282Y0065300D01*
X0258341Y0065111D01*
X0258397Y0064921D01*
X0258447Y0064729D01*
X0258493Y0064536D01*
X0258534Y0064343D01*
X0258570Y0064148D01*
X0258602Y0063952D01*
X0258628Y0063756D01*
X0258650Y0063559D01*
X0258667Y0063362D01*
X0258679Y0063164D01*
X0258687Y0062966D01*
X0258689Y0062768D01*
X0258687Y0062570D01*
X0258679Y0062372D01*
X0258667Y0062174D01*
X0258650Y0061977D01*
X0258628Y0061780D01*
X0258602Y0061584D01*
X0258570Y0061388D01*
X0258534Y0061193D01*
X0258493Y0061000D01*
X0258447Y0060807D01*
X0258397Y0060615D01*
X0258341Y0060425D01*
X0258282Y0060236D01*
X0258217Y0060049D01*
X0258148Y0059863D01*
X0258075Y0059679D01*
X0257997Y0059497D01*
X0257914Y0059317D01*
X0257827Y0059139D01*
X0257736Y0058963D01*
X0257640Y0058790D01*
X0257541Y0058619D01*
X0257437Y0058450D01*
X0257329Y0058284D01*
X0257217Y0058121D01*
X0257101Y0057960D01*
X0256981Y0057802D01*
X0256857Y0057648D01*
X0256729Y0057496D01*
X0256598Y0057348D01*
X0256463Y0057203D01*
X0256325Y0057061D01*
X0256183Y0056923D01*
X0256038Y0056788D01*
X0255890Y0056657D01*
X0255738Y0056529D01*
X0255584Y0056405D01*
X0255426Y0056285D01*
X0255265Y0056169D01*
X0255102Y0056057D01*
X0254936Y0055949D01*
X0254767Y0055845D01*
X0254596Y0055746D01*
X0254423Y0055650D01*
X0254247Y0055559D01*
X0254069Y0055472D01*
X0253889Y0055389D01*
X0253707Y0055311D01*
X0253523Y0055238D01*
X0253337Y0055169D01*
X0253150Y0055104D01*
X0252961Y0055045D01*
X0252771Y0054989D01*
X0252579Y0054939D01*
X0252386Y0054893D01*
X0252193Y0054852D01*
X0251998Y0054816D01*
X0251802Y0054784D01*
X0251606Y0054758D01*
X0251409Y0054736D01*
X0251212Y0054719D01*
X0251014Y0054707D01*
X0250816Y0054699D01*
X0250618Y0054697D01*
X0250420Y0054699D01*
X0250222Y0054707D01*
X0250024Y0054719D01*
X0249827Y0054736D01*
X0249630Y0054758D01*
X0249434Y0054784D01*
X0249238Y0054816D01*
X0249043Y0054852D01*
X0248850Y0054893D01*
X0248657Y0054939D01*
X0248465Y0054989D01*
X0248275Y0055045D01*
X0248086Y0055104D01*
X0247899Y0055169D01*
X0247713Y0055238D01*
X0247529Y0055311D01*
X0247347Y0055389D01*
X0247167Y0055472D01*
X0246989Y0055559D01*
X0246813Y0055650D01*
X0246640Y0055746D01*
X0246469Y0055845D01*
X0246300Y0055949D01*
X0246134Y0056057D01*
X0245971Y0056169D01*
X0245810Y0056285D01*
X0245652Y0056405D01*
X0245498Y0056529D01*
X0245346Y0056657D01*
X0245198Y0056788D01*
X0245053Y0056923D01*
X0244911Y0057061D01*
X0244773Y0057203D01*
X0244638Y0057348D01*
X0244507Y0057496D01*
X0244379Y0057648D01*
X0244255Y0057802D01*
X0244135Y0057960D01*
X0244019Y0058121D01*
X0243907Y0058284D01*
X0243799Y0058450D01*
X0243695Y0058619D01*
X0243596Y0058790D01*
X0243500Y0058963D01*
X0243409Y0059139D01*
X0243322Y0059317D01*
X0243239Y0059497D01*
X0243161Y0059679D01*
X0243088Y0059863D01*
X0243019Y0060049D01*
X0242954Y0060236D01*
X0242895Y0060425D01*
X0242839Y0060615D01*
X0242789Y0060807D01*
X0242743Y0061000D01*
X0242702Y0061193D01*
X0242666Y0061388D01*
X0242634Y0061584D01*
X0242608Y0061780D01*
X0242586Y0061977D01*
X0242569Y0062174D01*
X0242557Y0062372D01*
X0242549Y0062570D01*
X0242547Y0062768D01*
X0062291Y0077965D02*
X0062293Y0078097D01*
X0062299Y0078230D01*
X0062309Y0078362D01*
X0062323Y0078494D01*
X0062340Y0078625D01*
X0062362Y0078756D01*
X0062388Y0078886D01*
X0062417Y0079015D01*
X0062451Y0079143D01*
X0062488Y0079270D01*
X0062529Y0079396D01*
X0062573Y0079521D01*
X0062622Y0079645D01*
X0062674Y0079766D01*
X0062730Y0079887D01*
X0062789Y0080005D01*
X0062852Y0080122D01*
X0062918Y0080237D01*
X0062988Y0080349D01*
X0063061Y0080460D01*
X0063137Y0080568D01*
X0063216Y0080674D01*
X0063299Y0080778D01*
X0063385Y0080879D01*
X0063473Y0080977D01*
X0063565Y0081073D01*
X0063659Y0081166D01*
X0063756Y0081256D01*
X0063856Y0081344D01*
X0063959Y0081428D01*
X0064063Y0081509D01*
X0064171Y0081587D01*
X0064280Y0081661D01*
X0064392Y0081733D01*
X0064506Y0081801D01*
X0064621Y0081865D01*
X0064739Y0081926D01*
X0064858Y0081984D01*
X0064979Y0082038D01*
X0065102Y0082088D01*
X0065226Y0082134D01*
X0065351Y0082177D01*
X0065478Y0082216D01*
X0065606Y0082252D01*
X0065734Y0082283D01*
X0065864Y0082311D01*
X0065994Y0082334D01*
X0066125Y0082354D01*
X0066257Y0082370D01*
X0066389Y0082382D01*
X0066521Y0082390D01*
X0066654Y0082394D01*
X0066786Y0082394D01*
X0066919Y0082390D01*
X0067051Y0082382D01*
X0067183Y0082370D01*
X0067315Y0082354D01*
X0067446Y0082334D01*
X0067576Y0082311D01*
X0067706Y0082283D01*
X0067834Y0082252D01*
X0067962Y0082216D01*
X0068089Y0082177D01*
X0068214Y0082134D01*
X0068338Y0082088D01*
X0068461Y0082038D01*
X0068582Y0081984D01*
X0068701Y0081926D01*
X0068819Y0081865D01*
X0068935Y0081801D01*
X0069048Y0081733D01*
X0069160Y0081661D01*
X0069269Y0081587D01*
X0069377Y0081509D01*
X0069481Y0081428D01*
X0069584Y0081344D01*
X0069684Y0081256D01*
X0069781Y0081166D01*
X0069875Y0081073D01*
X0069967Y0080977D01*
X0070055Y0080879D01*
X0070141Y0080778D01*
X0070224Y0080674D01*
X0070303Y0080568D01*
X0070379Y0080460D01*
X0070452Y0080349D01*
X0070522Y0080237D01*
X0070588Y0080122D01*
X0070651Y0080005D01*
X0070710Y0079887D01*
X0070766Y0079766D01*
X0070818Y0079645D01*
X0070867Y0079521D01*
X0070911Y0079396D01*
X0070952Y0079270D01*
X0070989Y0079143D01*
X0071023Y0079015D01*
X0071052Y0078886D01*
X0071078Y0078756D01*
X0071100Y0078625D01*
X0071117Y0078494D01*
X0071131Y0078362D01*
X0071141Y0078230D01*
X0071147Y0078097D01*
X0071149Y0077965D01*
X0071147Y0077833D01*
X0071141Y0077700D01*
X0071131Y0077568D01*
X0071117Y0077436D01*
X0071100Y0077305D01*
X0071078Y0077174D01*
X0071052Y0077044D01*
X0071023Y0076915D01*
X0070989Y0076787D01*
X0070952Y0076660D01*
X0070911Y0076534D01*
X0070867Y0076409D01*
X0070818Y0076285D01*
X0070766Y0076164D01*
X0070710Y0076043D01*
X0070651Y0075925D01*
X0070588Y0075808D01*
X0070522Y0075693D01*
X0070452Y0075581D01*
X0070379Y0075470D01*
X0070303Y0075362D01*
X0070224Y0075256D01*
X0070141Y0075152D01*
X0070055Y0075051D01*
X0069967Y0074953D01*
X0069875Y0074857D01*
X0069781Y0074764D01*
X0069684Y0074674D01*
X0069584Y0074586D01*
X0069481Y0074502D01*
X0069377Y0074421D01*
X0069269Y0074343D01*
X0069160Y0074269D01*
X0069048Y0074197D01*
X0068934Y0074129D01*
X0068819Y0074065D01*
X0068701Y0074004D01*
X0068582Y0073946D01*
X0068461Y0073892D01*
X0068338Y0073842D01*
X0068214Y0073796D01*
X0068089Y0073753D01*
X0067962Y0073714D01*
X0067834Y0073678D01*
X0067706Y0073647D01*
X0067576Y0073619D01*
X0067446Y0073596D01*
X0067315Y0073576D01*
X0067183Y0073560D01*
X0067051Y0073548D01*
X0066919Y0073540D01*
X0066786Y0073536D01*
X0066654Y0073536D01*
X0066521Y0073540D01*
X0066389Y0073548D01*
X0066257Y0073560D01*
X0066125Y0073576D01*
X0065994Y0073596D01*
X0065864Y0073619D01*
X0065734Y0073647D01*
X0065606Y0073678D01*
X0065478Y0073714D01*
X0065351Y0073753D01*
X0065226Y0073796D01*
X0065102Y0073842D01*
X0064979Y0073892D01*
X0064858Y0073946D01*
X0064739Y0074004D01*
X0064621Y0074065D01*
X0064505Y0074129D01*
X0064392Y0074197D01*
X0064280Y0074269D01*
X0064171Y0074343D01*
X0064063Y0074421D01*
X0063959Y0074502D01*
X0063856Y0074586D01*
X0063756Y0074674D01*
X0063659Y0074764D01*
X0063565Y0074857D01*
X0063473Y0074953D01*
X0063385Y0075051D01*
X0063299Y0075152D01*
X0063216Y0075256D01*
X0063137Y0075362D01*
X0063061Y0075470D01*
X0062988Y0075581D01*
X0062918Y0075693D01*
X0062852Y0075808D01*
X0062789Y0075925D01*
X0062730Y0076043D01*
X0062674Y0076164D01*
X0062622Y0076285D01*
X0062573Y0076409D01*
X0062529Y0076534D01*
X0062488Y0076660D01*
X0062451Y0076787D01*
X0062417Y0076915D01*
X0062388Y0077044D01*
X0062362Y0077174D01*
X0062340Y0077305D01*
X0062323Y0077436D01*
X0062309Y0077568D01*
X0062299Y0077700D01*
X0062293Y0077833D01*
X0062291Y0077965D01*
X0042429Y0062571D02*
X0042431Y0062769D01*
X0042439Y0062967D01*
X0042451Y0063165D01*
X0042468Y0063362D01*
X0042490Y0063559D01*
X0042516Y0063755D01*
X0042548Y0063951D01*
X0042584Y0064146D01*
X0042625Y0064339D01*
X0042671Y0064532D01*
X0042721Y0064724D01*
X0042777Y0064914D01*
X0042836Y0065103D01*
X0042901Y0065290D01*
X0042970Y0065476D01*
X0043043Y0065660D01*
X0043121Y0065842D01*
X0043204Y0066022D01*
X0043291Y0066200D01*
X0043382Y0066376D01*
X0043478Y0066549D01*
X0043577Y0066720D01*
X0043681Y0066889D01*
X0043789Y0067055D01*
X0043901Y0067218D01*
X0044017Y0067379D01*
X0044137Y0067537D01*
X0044261Y0067691D01*
X0044389Y0067843D01*
X0044520Y0067991D01*
X0044655Y0068136D01*
X0044793Y0068278D01*
X0044935Y0068416D01*
X0045080Y0068551D01*
X0045228Y0068682D01*
X0045380Y0068810D01*
X0045534Y0068934D01*
X0045692Y0069054D01*
X0045853Y0069170D01*
X0046016Y0069282D01*
X0046182Y0069390D01*
X0046351Y0069494D01*
X0046522Y0069593D01*
X0046695Y0069689D01*
X0046871Y0069780D01*
X0047049Y0069867D01*
X0047229Y0069950D01*
X0047411Y0070028D01*
X0047595Y0070101D01*
X0047781Y0070170D01*
X0047968Y0070235D01*
X0048157Y0070294D01*
X0048347Y0070350D01*
X0048539Y0070400D01*
X0048732Y0070446D01*
X0048925Y0070487D01*
X0049120Y0070523D01*
X0049316Y0070555D01*
X0049512Y0070581D01*
X0049709Y0070603D01*
X0049906Y0070620D01*
X0050104Y0070632D01*
X0050302Y0070640D01*
X0050500Y0070642D01*
X0050698Y0070640D01*
X0050896Y0070632D01*
X0051094Y0070620D01*
X0051291Y0070603D01*
X0051488Y0070581D01*
X0051684Y0070555D01*
X0051880Y0070523D01*
X0052075Y0070487D01*
X0052268Y0070446D01*
X0052461Y0070400D01*
X0052653Y0070350D01*
X0052843Y0070294D01*
X0053032Y0070235D01*
X0053219Y0070170D01*
X0053405Y0070101D01*
X0053589Y0070028D01*
X0053771Y0069950D01*
X0053951Y0069867D01*
X0054129Y0069780D01*
X0054305Y0069689D01*
X0054478Y0069593D01*
X0054649Y0069494D01*
X0054818Y0069390D01*
X0054984Y0069282D01*
X0055147Y0069170D01*
X0055308Y0069054D01*
X0055466Y0068934D01*
X0055620Y0068810D01*
X0055772Y0068682D01*
X0055920Y0068551D01*
X0056065Y0068416D01*
X0056207Y0068278D01*
X0056345Y0068136D01*
X0056480Y0067991D01*
X0056611Y0067843D01*
X0056739Y0067691D01*
X0056863Y0067537D01*
X0056983Y0067379D01*
X0057099Y0067218D01*
X0057211Y0067055D01*
X0057319Y0066889D01*
X0057423Y0066720D01*
X0057522Y0066549D01*
X0057618Y0066376D01*
X0057709Y0066200D01*
X0057796Y0066022D01*
X0057879Y0065842D01*
X0057957Y0065660D01*
X0058030Y0065476D01*
X0058099Y0065290D01*
X0058164Y0065103D01*
X0058223Y0064914D01*
X0058279Y0064724D01*
X0058329Y0064532D01*
X0058375Y0064339D01*
X0058416Y0064146D01*
X0058452Y0063951D01*
X0058484Y0063755D01*
X0058510Y0063559D01*
X0058532Y0063362D01*
X0058549Y0063165D01*
X0058561Y0062967D01*
X0058569Y0062769D01*
X0058571Y0062571D01*
X0058569Y0062373D01*
X0058561Y0062175D01*
X0058549Y0061977D01*
X0058532Y0061780D01*
X0058510Y0061583D01*
X0058484Y0061387D01*
X0058452Y0061191D01*
X0058416Y0060996D01*
X0058375Y0060803D01*
X0058329Y0060610D01*
X0058279Y0060418D01*
X0058223Y0060228D01*
X0058164Y0060039D01*
X0058099Y0059852D01*
X0058030Y0059666D01*
X0057957Y0059482D01*
X0057879Y0059300D01*
X0057796Y0059120D01*
X0057709Y0058942D01*
X0057618Y0058766D01*
X0057522Y0058593D01*
X0057423Y0058422D01*
X0057319Y0058253D01*
X0057211Y0058087D01*
X0057099Y0057924D01*
X0056983Y0057763D01*
X0056863Y0057605D01*
X0056739Y0057451D01*
X0056611Y0057299D01*
X0056480Y0057151D01*
X0056345Y0057006D01*
X0056207Y0056864D01*
X0056065Y0056726D01*
X0055920Y0056591D01*
X0055772Y0056460D01*
X0055620Y0056332D01*
X0055466Y0056208D01*
X0055308Y0056088D01*
X0055147Y0055972D01*
X0054984Y0055860D01*
X0054818Y0055752D01*
X0054649Y0055648D01*
X0054478Y0055549D01*
X0054305Y0055453D01*
X0054129Y0055362D01*
X0053951Y0055275D01*
X0053771Y0055192D01*
X0053589Y0055114D01*
X0053405Y0055041D01*
X0053219Y0054972D01*
X0053032Y0054907D01*
X0052843Y0054848D01*
X0052653Y0054792D01*
X0052461Y0054742D01*
X0052268Y0054696D01*
X0052075Y0054655D01*
X0051880Y0054619D01*
X0051684Y0054587D01*
X0051488Y0054561D01*
X0051291Y0054539D01*
X0051094Y0054522D01*
X0050896Y0054510D01*
X0050698Y0054502D01*
X0050500Y0054500D01*
X0050302Y0054502D01*
X0050104Y0054510D01*
X0049906Y0054522D01*
X0049709Y0054539D01*
X0049512Y0054561D01*
X0049316Y0054587D01*
X0049120Y0054619D01*
X0048925Y0054655D01*
X0048732Y0054696D01*
X0048539Y0054742D01*
X0048347Y0054792D01*
X0048157Y0054848D01*
X0047968Y0054907D01*
X0047781Y0054972D01*
X0047595Y0055041D01*
X0047411Y0055114D01*
X0047229Y0055192D01*
X0047049Y0055275D01*
X0046871Y0055362D01*
X0046695Y0055453D01*
X0046522Y0055549D01*
X0046351Y0055648D01*
X0046182Y0055752D01*
X0046016Y0055860D01*
X0045853Y0055972D01*
X0045692Y0056088D01*
X0045534Y0056208D01*
X0045380Y0056332D01*
X0045228Y0056460D01*
X0045080Y0056591D01*
X0044935Y0056726D01*
X0044793Y0056864D01*
X0044655Y0057006D01*
X0044520Y0057151D01*
X0044389Y0057299D01*
X0044261Y0057451D01*
X0044137Y0057605D01*
X0044017Y0057763D01*
X0043901Y0057924D01*
X0043789Y0058087D01*
X0043681Y0058253D01*
X0043577Y0058422D01*
X0043478Y0058593D01*
X0043382Y0058766D01*
X0043291Y0058942D01*
X0043204Y0059120D01*
X0043121Y0059300D01*
X0043043Y0059482D01*
X0042970Y0059666D01*
X0042901Y0059852D01*
X0042836Y0060039D01*
X0042777Y0060228D01*
X0042721Y0060418D01*
X0042671Y0060610D01*
X0042625Y0060803D01*
X0042584Y0060996D01*
X0042548Y0061191D01*
X0042516Y0061387D01*
X0042490Y0061583D01*
X0042468Y0061780D01*
X0042451Y0061977D01*
X0042439Y0062175D01*
X0042431Y0062373D01*
X0042429Y0062571D01*
M02*
