%
M48
M72
T01C0.0197
T02C0.0236
T03C0.0400
T04C0.0433
T05C0.0886
T06C0.1614
%
T01
X5429Y8800
X10009Y12460
X11579Y14780
X8219Y18400
X7809Y22500
X6629Y12840
T02
X5789Y12610
X5119Y13410
X7719Y12670
X9469Y12830
X10239Y13170
X9449Y13700
X11279Y12760
X12359Y11530
X13119Y13700
X13959Y14110
X15689Y14110
X15629Y11970
X17679Y11120
X17719Y9260
X21879Y14040
X23359Y14280
X23739Y17510
X23179Y18320
X25459Y19350
X23529Y22610
X19639Y22110
X17309Y19950
X19959Y18860
X15849Y16500
X18759Y14560
X12239Y17560
X11579Y17060
X10619Y16920
X10029Y11770
X9559Y10800
X9529Y8970
X10639Y8830
X10259Y6940
X6259Y8150
X5949Y9240
X5079Y9380
X7679Y10470
X4849Y16180
X11169Y23480
X12149Y24210
X12779Y25500
X12069Y26230
X13349Y26450
X10729Y25830
X8159Y25810
X17789Y25360
T03
X18039Y28360
X19039Y28460
X20039Y28360
X21039Y28460
X22039Y28360
X24319Y28010
X25319Y28010
X26319Y28010
X27319Y28010
X28319Y28010
X29319Y28010
X8429Y28860
X8429Y27080
X5869Y27080
X5869Y28860
T04
X12289Y7395
X13273Y7395
X14257Y7395
X14257Y6411
X13273Y6411
X12289Y6411
X12289Y5426
X12289Y4442
X13273Y4442
X14257Y4442
X14257Y5426
X13273Y5426
X15242Y5426
X15242Y4442
X16226Y4442
X17210Y4442
X18194Y4442
X18194Y5426
X17210Y5426
X16226Y5426
X16226Y6411
X16226Y7395
X17210Y7395
X18194Y7395
X18194Y6411
X17210Y6411
X19179Y6411
X19179Y7395
X20163Y7395
X21147Y7395
X21147Y6411
X20163Y6411
X20163Y5426
X20163Y4442
X21147Y4442
X21147Y5426
X22525Y5426
X22525Y4442
X23982Y4442
X23982Y5426
X23982Y6411
X23982Y7395
X22525Y7395
X22525Y6411
X19179Y5426
X19179Y4442
X15242Y6411
X15242Y7395
T05
X9761Y7796
X26529Y7789
T06
X8139Y6257
X28151Y6277
M30
