G75*
%MOIN*%
%OFA0B0*%
%FSLAX25Y25*%
%IPPOS*%
%LPD*%
%AMOC8*
5,1,8,0,0,1.08239X$1,22.5*
%
%ADD10C,0.06400*%
%ADD11C,0.07400*%
%ADD12C,0.06731*%
%ADD13R,0.04331X0.03937*%
%ADD14R,0.03937X0.04331*%
%ADD15R,0.02400X0.08700*%
%ADD16C,0.01600*%
%ADD17OC8,0.04362*%
%ADD18OC8,0.03969*%
%ADD19C,0.04362*%
%ADD20C,0.01200*%
D10*
X0180393Y0280400D02*
X0180393Y0286800D01*
X0190393Y0287800D02*
X0190393Y0281400D01*
X0200393Y0280400D02*
X0200393Y0286800D01*
X0210393Y0287800D02*
X0210393Y0281400D01*
X0220393Y0280400D02*
X0220393Y0286800D01*
D11*
X0243193Y0280100D03*
X0253193Y0280100D03*
X0263193Y0280100D03*
X0273193Y0280100D03*
X0283193Y0280100D03*
X0293193Y0280100D03*
X0084293Y0288600D03*
X0084293Y0270800D03*
X0058693Y0270800D03*
X0058693Y0288600D03*
D12*
X0122889Y0073949D03*
X0132732Y0073949D03*
X0142574Y0073949D03*
X0152417Y0073949D03*
X0162259Y0073949D03*
X0172102Y0073949D03*
X0181944Y0073949D03*
X0181944Y0064106D03*
X0172102Y0064106D03*
X0162259Y0064106D03*
X0152417Y0064106D03*
X0142574Y0064106D03*
X0132732Y0064106D03*
X0122889Y0064106D03*
X0122889Y0054264D03*
X0132732Y0054264D03*
X0142574Y0054264D03*
X0152417Y0054264D03*
X0162259Y0054264D03*
X0172102Y0054264D03*
X0181944Y0054264D03*
X0191787Y0054264D03*
X0201629Y0054264D03*
X0201629Y0044421D03*
X0191787Y0044421D03*
X0181944Y0044421D03*
X0172102Y0044421D03*
X0162259Y0044421D03*
X0152417Y0044421D03*
X0142574Y0044421D03*
X0132732Y0044421D03*
X0122889Y0044421D03*
X0191787Y0064106D03*
X0201629Y0064106D03*
X0211472Y0064106D03*
X0211472Y0073949D03*
X0201629Y0073949D03*
X0191787Y0073949D03*
X0211472Y0054264D03*
X0211472Y0044421D03*
X0225251Y0044421D03*
X0225251Y0054264D03*
X0225251Y0064106D03*
X0225251Y0073949D03*
X0239818Y0073949D03*
X0239818Y0064106D03*
X0239818Y0054264D03*
X0239818Y0044421D03*
D13*
X0064139Y0063200D03*
X0057447Y0063200D03*
X0057247Y0073600D03*
X0063939Y0073600D03*
D14*
X0048793Y0148154D03*
X0048793Y0154846D03*
D15*
X0057593Y0049600D03*
X0062593Y0049600D03*
X0067593Y0049600D03*
X0072593Y0049600D03*
X0072593Y0029000D03*
X0067593Y0029000D03*
X0062593Y0029000D03*
X0057593Y0029000D03*
D16*
X0043443Y0019807D02*
X0043443Y0016550D01*
X0319343Y0016550D01*
X0319343Y0302450D01*
X0043443Y0302450D01*
X0043443Y0233524D01*
X0048057Y0236658D01*
X0048234Y0236835D01*
X0048448Y0236923D01*
X0048639Y0237054D01*
X0048884Y0237104D01*
X0049116Y0237200D01*
X0049347Y0237200D01*
X0049574Y0237247D01*
X0049820Y0237200D01*
X0108746Y0237200D01*
X0110127Y0238581D01*
X0113259Y0238581D01*
X0115474Y0236366D01*
X0115474Y0233234D01*
X0113259Y0231019D01*
X0110127Y0231019D01*
X0108746Y0232400D01*
X0050331Y0232400D01*
X0046687Y0229925D01*
X0046394Y0172268D01*
X0046439Y0172076D01*
X0046392Y0171795D01*
X0046391Y0171510D01*
X0046314Y0171329D01*
X0046293Y0171201D01*
X0046293Y0164947D01*
X0046927Y0165581D01*
X0050059Y0165581D01*
X0052274Y0163366D01*
X0052274Y0160234D01*
X0050848Y0158807D01*
X0050845Y0158612D01*
X0051424Y0158612D01*
X0052361Y0157675D01*
X0052361Y0152018D01*
X0051843Y0151500D01*
X0052361Y0150982D01*
X0052361Y0150463D01*
X0056634Y0154735D01*
X0057516Y0155100D01*
X0085870Y0155100D01*
X0086752Y0154735D01*
X0087428Y0154059D01*
X0096080Y0145407D01*
X0096093Y0145401D01*
X0096093Y0206143D01*
X0096085Y0206163D01*
X0096093Y0206620D01*
X0096093Y0207077D01*
X0096101Y0207097D01*
X0096101Y0207117D01*
X0096283Y0207537D01*
X0096458Y0207959D01*
X0096473Y0207974D01*
X0096481Y0207993D01*
X0096810Y0208311D01*
X0097134Y0208635D01*
X0097153Y0208643D01*
X0117526Y0228349D01*
X0117880Y0239229D01*
X0117870Y0239255D01*
X0117895Y0239705D01*
X0117910Y0240155D01*
X0117921Y0240180D01*
X0117923Y0240208D01*
X0117960Y0240286D01*
X0117712Y0240534D01*
X0117712Y0243666D01*
X0119780Y0245734D01*
X0119435Y0246023D01*
X0119334Y0246065D01*
X0119071Y0246328D01*
X0118787Y0246566D01*
X0118736Y0246663D01*
X0118658Y0246741D01*
X0118516Y0247083D01*
X0118345Y0247412D01*
X0118335Y0247521D01*
X0118293Y0247623D01*
X0118293Y0247994D01*
X0118260Y0248363D01*
X0118293Y0248468D01*
X0118293Y0259353D01*
X0116912Y0260734D01*
X0116912Y0263866D01*
X0117446Y0264400D01*
X0098265Y0264400D01*
X0097428Y0264345D01*
X0097365Y0264400D01*
X0097282Y0264400D01*
X0096688Y0264994D01*
X0090865Y0270100D01*
X0090782Y0270100D01*
X0090188Y0270694D01*
X0089793Y0271040D01*
X0089793Y0271000D01*
X0084493Y0271000D01*
X0084493Y0270600D01*
X0089793Y0270600D01*
X0089793Y0270367D01*
X0089658Y0269512D01*
X0089390Y0268689D01*
X0088997Y0267917D01*
X0088488Y0267217D01*
X0087876Y0266605D01*
X0087176Y0266096D01*
X0086404Y0265703D01*
X0085581Y0265435D01*
X0084726Y0265300D01*
X0084493Y0265300D01*
X0084493Y0270600D01*
X0084093Y0270600D01*
X0084093Y0265300D01*
X0083860Y0265300D01*
X0083005Y0265435D01*
X0082182Y0265703D01*
X0081410Y0266096D01*
X0080710Y0266605D01*
X0080098Y0267217D01*
X0079589Y0267917D01*
X0079196Y0268689D01*
X0078928Y0269512D01*
X0078793Y0270367D01*
X0078793Y0270600D01*
X0084093Y0270600D01*
X0084093Y0271000D01*
X0084093Y0276300D01*
X0083860Y0276300D01*
X0083005Y0276165D01*
X0082182Y0275897D01*
X0081410Y0275504D01*
X0080710Y0274995D01*
X0080098Y0274383D01*
X0079589Y0273683D01*
X0079196Y0272911D01*
X0078928Y0272088D01*
X0078793Y0271233D01*
X0078793Y0271000D01*
X0084093Y0271000D01*
X0084493Y0271000D01*
X0084493Y0276300D01*
X0084726Y0276300D01*
X0085581Y0276165D01*
X0086404Y0275897D01*
X0087176Y0275504D01*
X0087876Y0274995D01*
X0088488Y0274383D01*
X0088997Y0273683D01*
X0089390Y0272911D01*
X0089463Y0272687D01*
X0089438Y0273065D01*
X0089493Y0273128D01*
X0089493Y0287304D01*
X0088786Y0285598D01*
X0087295Y0284107D01*
X0085347Y0283300D01*
X0083239Y0283300D01*
X0081291Y0284107D01*
X0079800Y0285598D01*
X0078993Y0287546D01*
X0078993Y0289654D01*
X0079800Y0291602D01*
X0081291Y0293093D01*
X0083239Y0293900D01*
X0085347Y0293900D01*
X0087295Y0293093D01*
X0088786Y0291602D01*
X0089493Y0289896D01*
X0089493Y0294511D01*
X0090782Y0295800D01*
X0092682Y0297700D01*
X0314104Y0297700D01*
X0315393Y0296411D01*
X0319343Y0296411D01*
X0319343Y0294813D02*
X0316992Y0294813D01*
X0318493Y0293311D02*
X0315393Y0296411D01*
X0319343Y0298010D02*
X0043443Y0298010D01*
X0043443Y0299608D02*
X0319343Y0299608D01*
X0319343Y0301207D02*
X0043443Y0301207D01*
X0043443Y0296411D02*
X0091393Y0296411D01*
X0089794Y0294813D02*
X0043443Y0294813D01*
X0043443Y0293214D02*
X0055983Y0293214D01*
X0055691Y0293093D02*
X0054200Y0291602D01*
X0053393Y0289654D01*
X0053393Y0287546D01*
X0054200Y0285598D01*
X0055691Y0284107D01*
X0057639Y0283300D01*
X0059747Y0283300D01*
X0061695Y0284107D01*
X0063186Y0285598D01*
X0063993Y0287546D01*
X0063993Y0289654D01*
X0063186Y0291602D01*
X0061695Y0293093D01*
X0059747Y0293900D01*
X0057639Y0293900D01*
X0055691Y0293093D01*
X0054213Y0291616D02*
X0043443Y0291616D01*
X0043443Y0290017D02*
X0053543Y0290017D01*
X0053393Y0288419D02*
X0043443Y0288419D01*
X0043443Y0286820D02*
X0053694Y0286820D01*
X0054576Y0285222D02*
X0043443Y0285222D01*
X0043443Y0283623D02*
X0056859Y0283623D01*
X0060527Y0283623D02*
X0082459Y0283623D01*
X0080176Y0285222D02*
X0062810Y0285222D01*
X0063692Y0286820D02*
X0079294Y0286820D01*
X0078993Y0288419D02*
X0063993Y0288419D01*
X0063843Y0290017D02*
X0079143Y0290017D01*
X0079813Y0291616D02*
X0063173Y0291616D01*
X0061403Y0293214D02*
X0081583Y0293214D01*
X0087003Y0293214D02*
X0089493Y0293214D01*
X0089493Y0291616D02*
X0088773Y0291616D01*
X0089443Y0290017D02*
X0089493Y0290017D01*
X0089493Y0286820D02*
X0089292Y0286820D01*
X0089493Y0285222D02*
X0088410Y0285222D01*
X0089493Y0283623D02*
X0086127Y0283623D01*
X0089493Y0282025D02*
X0043443Y0282025D01*
X0043443Y0280426D02*
X0089493Y0280426D01*
X0089493Y0278828D02*
X0043443Y0278828D01*
X0043443Y0277229D02*
X0089493Y0277229D01*
X0089493Y0275631D02*
X0086927Y0275631D01*
X0088743Y0274032D02*
X0089493Y0274032D01*
X0090027Y0270835D02*
X0084493Y0270835D01*
X0084093Y0270835D02*
X0063993Y0270835D01*
X0063993Y0271854D02*
X0063993Y0269746D01*
X0063186Y0267798D01*
X0061695Y0266307D01*
X0059747Y0265500D01*
X0057639Y0265500D01*
X0055691Y0266307D01*
X0054200Y0267798D01*
X0053393Y0269746D01*
X0053393Y0271854D01*
X0054200Y0273802D01*
X0055691Y0275293D01*
X0057639Y0276100D01*
X0059747Y0276100D01*
X0061695Y0275293D01*
X0063186Y0273802D01*
X0063993Y0271854D01*
X0063753Y0272434D02*
X0079041Y0272434D01*
X0079843Y0274032D02*
X0062956Y0274032D01*
X0060881Y0275631D02*
X0081659Y0275631D01*
X0084093Y0275631D02*
X0084493Y0275631D01*
X0084493Y0274032D02*
X0084093Y0274032D01*
X0084093Y0272434D02*
X0084493Y0272434D01*
X0084493Y0269237D02*
X0084093Y0269237D01*
X0084093Y0267638D02*
X0084493Y0267638D01*
X0084493Y0266039D02*
X0084093Y0266039D01*
X0081521Y0266039D02*
X0061050Y0266039D01*
X0063026Y0267638D02*
X0079792Y0267638D01*
X0079018Y0269237D02*
X0063782Y0269237D01*
X0056336Y0266039D02*
X0043443Y0266039D01*
X0043443Y0264441D02*
X0097241Y0264441D01*
X0095495Y0266039D02*
X0087065Y0266039D01*
X0088794Y0267638D02*
X0093673Y0267638D01*
X0091850Y0269237D02*
X0089568Y0269237D01*
X0093893Y0273297D02*
X0093893Y0292689D01*
X0094504Y0293300D01*
X0312282Y0293300D01*
X0314093Y0291489D01*
X0314093Y0290989D01*
X0314193Y0290889D01*
X0314193Y0044211D01*
X0306582Y0036600D01*
X0164834Y0036600D01*
X0162106Y0039456D01*
X0163247Y0039456D01*
X0165072Y0040212D01*
X0166469Y0041609D01*
X0167180Y0043327D01*
X0167892Y0041609D01*
X0169289Y0040212D01*
X0171114Y0039456D01*
X0173089Y0039456D01*
X0174914Y0040212D01*
X0176311Y0041609D01*
X0177023Y0043327D01*
X0177735Y0041609D01*
X0179132Y0040212D01*
X0180956Y0039456D01*
X0182932Y0039456D01*
X0184757Y0040212D01*
X0186154Y0041609D01*
X0186865Y0043327D01*
X0187577Y0041609D01*
X0188974Y0040212D01*
X0190799Y0039456D01*
X0192774Y0039456D01*
X0194599Y0040212D01*
X0195996Y0041609D01*
X0196708Y0043327D01*
X0197420Y0041609D01*
X0198817Y0040212D01*
X0200642Y0039456D01*
X0202617Y0039456D01*
X0204442Y0040212D01*
X0205839Y0041609D01*
X0206550Y0043327D01*
X0207262Y0041609D01*
X0208659Y0040212D01*
X0210484Y0039456D01*
X0212459Y0039456D01*
X0214284Y0040212D01*
X0215681Y0041609D01*
X0216437Y0043434D01*
X0216437Y0045409D01*
X0215737Y0047100D01*
X0220986Y0047100D01*
X0220286Y0045409D01*
X0220286Y0043434D01*
X0221042Y0041609D01*
X0222439Y0040212D01*
X0224264Y0039456D01*
X0226239Y0039456D01*
X0228064Y0040212D01*
X0229461Y0041609D01*
X0230217Y0043434D01*
X0230217Y0045409D01*
X0229516Y0047100D01*
X0235553Y0047100D01*
X0234853Y0045409D01*
X0234853Y0043434D01*
X0235609Y0041609D01*
X0237006Y0040212D01*
X0238831Y0039456D01*
X0240806Y0039456D01*
X0242631Y0040212D01*
X0244028Y0041609D01*
X0244784Y0043434D01*
X0244784Y0045409D01*
X0244083Y0047100D01*
X0252875Y0047100D01*
X0253767Y0047085D01*
X0253783Y0047100D01*
X0253804Y0047100D01*
X0254436Y0047732D01*
X0259883Y0053000D01*
X0259904Y0053000D01*
X0260536Y0053632D01*
X0261177Y0054252D01*
X0261178Y0054274D01*
X0261193Y0054289D01*
X0261193Y0055182D01*
X0261208Y0056074D01*
X0261193Y0056090D01*
X0261193Y0073174D01*
X0261762Y0072605D01*
X0264052Y0071657D01*
X0266530Y0071657D01*
X0268819Y0072605D01*
X0270571Y0074357D01*
X0271520Y0076647D01*
X0271520Y0079125D01*
X0270571Y0081414D01*
X0268819Y0083167D01*
X0266530Y0084115D01*
X0264052Y0084115D01*
X0261762Y0083167D01*
X0261193Y0082597D01*
X0261193Y0181563D01*
X0261289Y0182331D01*
X0261193Y0182455D01*
X0261193Y0182611D01*
X0260645Y0183159D01*
X0260093Y0183869D01*
X0260093Y0184111D01*
X0259603Y0184602D01*
X0259218Y0185179D01*
X0258978Y0185227D01*
X0258804Y0185400D01*
X0258111Y0185400D01*
X0257431Y0185536D01*
X0257227Y0185400D01*
X0234940Y0185400D01*
X0233359Y0186981D01*
X0230227Y0186981D01*
X0228012Y0184766D01*
X0228012Y0181634D01*
X0230227Y0179419D01*
X0233359Y0179419D01*
X0234940Y0181000D01*
X0256716Y0181000D01*
X0256793Y0180884D01*
X0256793Y0176011D01*
X0256793Y0176011D01*
X0255504Y0177300D01*
X0240540Y0177300D01*
X0238959Y0178881D01*
X0235827Y0178881D01*
X0233612Y0176666D01*
X0233612Y0173534D01*
X0235827Y0171319D01*
X0238959Y0171319D01*
X0240540Y0172900D01*
X0252693Y0172900D01*
X0252693Y0063252D01*
X0250722Y0061400D01*
X0244072Y0061400D01*
X0244784Y0063119D01*
X0244784Y0065094D01*
X0244028Y0066919D01*
X0242631Y0068316D01*
X0240912Y0069028D01*
X0242631Y0069739D01*
X0244028Y0071136D01*
X0244784Y0072961D01*
X0244784Y0074936D01*
X0244028Y0076761D01*
X0242631Y0078158D01*
X0240806Y0078914D01*
X0238831Y0078914D01*
X0237006Y0078158D01*
X0235609Y0076761D01*
X0234853Y0074936D01*
X0234853Y0072961D01*
X0235609Y0071136D01*
X0237006Y0069739D01*
X0238724Y0069028D01*
X0237006Y0068316D01*
X0235609Y0066919D01*
X0234853Y0065094D01*
X0234853Y0063119D01*
X0235565Y0061400D01*
X0229505Y0061400D01*
X0230217Y0063119D01*
X0230217Y0065094D01*
X0230080Y0065425D01*
X0232031Y0067305D01*
X0232052Y0067313D01*
X0232374Y0067635D01*
X0232702Y0067951D01*
X0232711Y0067972D01*
X0232728Y0067989D01*
X0232902Y0068409D01*
X0233084Y0068826D01*
X0233084Y0068849D01*
X0233093Y0068871D01*
X0233093Y0069325D01*
X0233102Y0069780D01*
X0233093Y0069802D01*
X0233093Y0076274D01*
X0235518Y0078292D01*
X0235630Y0078339D01*
X0235883Y0078595D01*
X0236159Y0078825D01*
X0236216Y0078932D01*
X0236301Y0079018D01*
X0236436Y0079351D01*
X0236604Y0079670D01*
X0236615Y0079790D01*
X0236661Y0079902D01*
X0236658Y0080262D01*
X0236691Y0080620D01*
X0236655Y0080736D01*
X0236358Y0127708D01*
X0236357Y0128179D01*
X0236355Y0128186D01*
X0236354Y0128193D01*
X0236171Y0128627D01*
X0235991Y0129061D01*
X0235986Y0129066D01*
X0235984Y0129072D01*
X0235647Y0129404D01*
X0235315Y0129736D01*
X0235309Y0129738D01*
X0235304Y0129743D01*
X0234868Y0129921D01*
X0234433Y0130100D01*
X0234426Y0130100D01*
X0234420Y0130103D01*
X0233949Y0130100D01*
X0207780Y0130078D01*
X0215024Y0138821D01*
X0217227Y0136619D01*
X0220359Y0136619D01*
X0222574Y0138834D01*
X0222574Y0140427D01*
X0222653Y0140493D01*
X0230621Y0140425D01*
X0232027Y0139019D01*
X0235159Y0139019D01*
X0237374Y0141234D01*
X0237374Y0144366D01*
X0235159Y0146581D01*
X0232027Y0146581D01*
X0230671Y0145225D01*
X0221912Y0145299D01*
X0221535Y0145333D01*
X0221438Y0145303D01*
X0221336Y0145304D01*
X0220985Y0145162D01*
X0220623Y0145049D01*
X0220545Y0144984D01*
X0220451Y0144946D01*
X0220181Y0144681D01*
X0219581Y0144181D01*
X0219519Y0144181D01*
X0226124Y0151337D01*
X0226428Y0151641D01*
X0226447Y0151686D01*
X0226480Y0151723D01*
X0226629Y0152126D01*
X0226793Y0152523D01*
X0226793Y0152572D01*
X0226810Y0152619D01*
X0226793Y0153048D01*
X0226793Y0232477D01*
X0226834Y0232627D01*
X0226793Y0232951D01*
X0226793Y0233277D01*
X0226734Y0233420D01*
X0226714Y0233574D01*
X0226553Y0233858D01*
X0226428Y0234159D01*
X0226318Y0234269D01*
X0214754Y0254555D01*
X0214632Y0254854D01*
X0214520Y0254966D01*
X0214442Y0255103D01*
X0214186Y0255301D01*
X0213958Y0255531D01*
X0213812Y0255592D01*
X0213687Y0255689D01*
X0213376Y0255774D01*
X0213077Y0255899D01*
X0212919Y0255899D01*
X0212766Y0255941D01*
X0212446Y0255900D01*
X0180849Y0255991D01*
X0180035Y0256805D01*
X0178645Y0257381D01*
X0177141Y0257381D01*
X0175751Y0256805D01*
X0174688Y0255742D01*
X0174112Y0254352D01*
X0174112Y0252848D01*
X0174688Y0251458D01*
X0175751Y0250395D01*
X0177141Y0249819D01*
X0178645Y0249819D01*
X0180035Y0250395D01*
X0180832Y0251192D01*
X0211196Y0251104D01*
X0221993Y0232164D01*
X0221993Y0153938D01*
X0215708Y0147130D01*
X0215650Y0147099D01*
X0215386Y0146781D01*
X0215106Y0146477D01*
X0215083Y0146415D01*
X0204465Y0133600D01*
X0174012Y0133600D01*
X0173770Y0133700D01*
X0167409Y0133700D01*
X0160674Y0140648D01*
X0160674Y0141852D01*
X0160098Y0143242D01*
X0159035Y0144305D01*
X0157645Y0144881D01*
X0156141Y0144881D01*
X0154751Y0144305D01*
X0153688Y0143242D01*
X0153112Y0141852D01*
X0153112Y0140348D01*
X0153688Y0138958D01*
X0154751Y0137895D01*
X0156141Y0137319D01*
X0157216Y0137319D01*
X0164269Y0130042D01*
X0138509Y0130021D01*
X0138724Y0130235D01*
X0138771Y0130348D01*
X0138849Y0130443D01*
X0138954Y0130785D01*
X0139092Y0131116D01*
X0139092Y0131238D01*
X0140948Y0137319D01*
X0141159Y0137319D01*
X0143374Y0139534D01*
X0143374Y0142666D01*
X0141159Y0144881D01*
X0138027Y0144881D01*
X0137339Y0144193D01*
X0137490Y0163086D01*
X0137517Y0163164D01*
X0137494Y0163561D01*
X0137497Y0163958D01*
X0137466Y0164035D01*
X0137461Y0164117D01*
X0137287Y0164475D01*
X0137138Y0164843D01*
X0137080Y0164902D01*
X0137044Y0164977D01*
X0136747Y0165241D01*
X0136469Y0165524D01*
X0136393Y0165556D01*
X0134946Y0166842D01*
X0134666Y0167126D01*
X0134591Y0167157D01*
X0134531Y0167211D01*
X0134154Y0167342D01*
X0133786Y0167497D01*
X0133705Y0167497D01*
X0133629Y0167524D01*
X0133230Y0167500D01*
X0118139Y0167599D01*
X0118940Y0168400D01*
X0136999Y0168400D01*
X0138293Y0167106D01*
X0138293Y0155346D01*
X0138277Y0154914D01*
X0138293Y0154870D01*
X0138293Y0154823D01*
X0138458Y0154424D01*
X0138608Y0154019D01*
X0138640Y0153984D01*
X0138658Y0153941D01*
X0138964Y0153635D01*
X0139257Y0153318D01*
X0139300Y0153299D01*
X0139334Y0153265D01*
X0139732Y0153100D01*
X0146695Y0149901D01*
X0146725Y0149871D01*
X0147128Y0149702D01*
X0147525Y0149520D01*
X0147567Y0149518D01*
X0147606Y0149502D01*
X0148042Y0149500D01*
X0148479Y0149484D01*
X0148518Y0149498D01*
X0171604Y0149402D01*
X0171697Y0149371D01*
X0172078Y0149400D01*
X0172460Y0149398D01*
X0172551Y0149435D01*
X0172649Y0149443D01*
X0172990Y0149615D01*
X0173344Y0149760D01*
X0173414Y0149829D01*
X0173501Y0149873D01*
X0173751Y0150163D01*
X0174022Y0150432D01*
X0174060Y0150523D01*
X0181699Y0159405D01*
X0202999Y0159500D01*
X0203470Y0159500D01*
X0203476Y0159502D01*
X0203481Y0159502D01*
X0203916Y0159685D01*
X0204352Y0159865D01*
X0204356Y0159869D01*
X0204362Y0159871D01*
X0204694Y0160206D01*
X0207028Y0162541D01*
X0207393Y0163423D01*
X0207393Y0214177D01*
X0207028Y0215059D01*
X0206352Y0215735D01*
X0201464Y0220623D01*
X0201423Y0220704D01*
X0201128Y0220959D01*
X0200852Y0221235D01*
X0200769Y0221269D01*
X0200174Y0221783D01*
X0200174Y0221852D01*
X0199598Y0223242D01*
X0198535Y0224305D01*
X0197145Y0224881D01*
X0195641Y0224881D01*
X0194251Y0224305D01*
X0193188Y0223242D01*
X0192612Y0221852D01*
X0192612Y0220348D01*
X0193188Y0218958D01*
X0194251Y0217895D01*
X0195641Y0217319D01*
X0197145Y0217319D01*
X0197722Y0217558D01*
X0197858Y0217441D01*
X0202593Y0212706D01*
X0202593Y0190947D01*
X0201159Y0192381D01*
X0198027Y0192381D01*
X0195812Y0190166D01*
X0195812Y0187034D01*
X0197242Y0185604D01*
X0197553Y0166700D01*
X0177802Y0166700D01*
X0177638Y0166743D01*
X0177328Y0166700D01*
X0177016Y0166700D01*
X0176860Y0166635D01*
X0176693Y0166612D01*
X0176423Y0166454D01*
X0176134Y0166335D01*
X0176014Y0166215D01*
X0175869Y0166130D01*
X0175680Y0165881D01*
X0175493Y0165694D01*
X0175493Y0196553D01*
X0176874Y0197934D01*
X0176874Y0201066D01*
X0174659Y0203281D01*
X0171527Y0203281D01*
X0169312Y0201066D01*
X0169312Y0197934D01*
X0170693Y0196553D01*
X0170693Y0163709D01*
X0168211Y0160900D01*
X0153193Y0160900D01*
X0153193Y0173677D01*
X0152828Y0174559D01*
X0144428Y0182959D01*
X0143752Y0183635D01*
X0142870Y0184000D01*
X0111116Y0184000D01*
X0110234Y0183635D01*
X0104610Y0178011D01*
X0104580Y0177998D01*
X0104273Y0177674D01*
X0103958Y0177359D01*
X0103946Y0177329D01*
X0103923Y0177305D01*
X0103893Y0177227D01*
X0103893Y0202412D01*
X0126054Y0224765D01*
X0126169Y0224828D01*
X0126387Y0225101D01*
X0126633Y0225349D01*
X0126683Y0225471D01*
X0127175Y0226085D01*
X0127411Y0226316D01*
X0127471Y0226455D01*
X0127565Y0226573D01*
X0127657Y0226890D01*
X0127787Y0227193D01*
X0127789Y0227345D01*
X0127831Y0227491D01*
X0127795Y0227818D01*
X0127988Y0243618D01*
X0128026Y0243737D01*
X0127994Y0244092D01*
X0127999Y0244448D01*
X0127952Y0244564D01*
X0127941Y0244688D01*
X0127776Y0245004D01*
X0127644Y0245334D01*
X0127557Y0245424D01*
X0127499Y0245534D01*
X0127226Y0245763D01*
X0126977Y0246018D01*
X0126863Y0246067D01*
X0123093Y0249221D01*
X0123093Y0259353D01*
X0124474Y0260734D01*
X0124474Y0263485D01*
X0124593Y0263313D01*
X0124593Y0257466D01*
X0124300Y0257085D01*
X0124215Y0256769D01*
X0124012Y0256566D01*
X0124012Y0253434D01*
X0126227Y0251219D01*
X0129359Y0251219D01*
X0131574Y0253434D01*
X0131574Y0256566D01*
X0129359Y0258781D01*
X0128993Y0258781D01*
X0128993Y0263802D01*
X0129121Y0264503D01*
X0128993Y0264687D01*
X0128993Y0264911D01*
X0128489Y0265415D01*
X0127193Y0267287D01*
X0127193Y0267511D01*
X0126689Y0268015D01*
X0126283Y0268601D01*
X0126063Y0268642D01*
X0125904Y0268800D01*
X0125191Y0268800D01*
X0124490Y0268928D01*
X0124306Y0268800D01*
X0099021Y0268800D01*
X0093893Y0273297D01*
X0093893Y0274032D02*
X0314193Y0274032D01*
X0314193Y0272434D02*
X0094877Y0272434D01*
X0096700Y0270835D02*
X0314193Y0270835D01*
X0314193Y0269237D02*
X0098523Y0269237D01*
X0093893Y0275631D02*
X0179364Y0275631D01*
X0179438Y0275600D02*
X0181348Y0275600D01*
X0183112Y0276331D01*
X0184462Y0277681D01*
X0185193Y0279445D01*
X0185193Y0287755D01*
X0184462Y0289519D01*
X0183112Y0290869D01*
X0181348Y0291600D01*
X0179438Y0291600D01*
X0177674Y0290869D01*
X0176324Y0289519D01*
X0175593Y0287755D01*
X0175593Y0279445D01*
X0176324Y0277681D01*
X0177674Y0276331D01*
X0179438Y0275600D01*
X0181422Y0275631D02*
X0198892Y0275631D01*
X0199222Y0275523D02*
X0199999Y0275400D01*
X0200193Y0275400D01*
X0200193Y0283400D01*
X0195393Y0283400D01*
X0195393Y0280006D01*
X0195516Y0279229D01*
X0195759Y0278481D01*
X0196117Y0277779D01*
X0196579Y0277143D01*
X0197136Y0276586D01*
X0197772Y0276124D01*
X0198474Y0275766D01*
X0199222Y0275523D01*
X0200193Y0275631D02*
X0200593Y0275631D01*
X0200593Y0275400D02*
X0200787Y0275400D01*
X0201564Y0275523D01*
X0202312Y0275766D01*
X0203014Y0276124D01*
X0203650Y0276586D01*
X0204207Y0277143D01*
X0204669Y0277779D01*
X0205027Y0278481D01*
X0205270Y0279229D01*
X0205393Y0280006D01*
X0205393Y0283400D01*
X0200593Y0283400D01*
X0200593Y0283800D01*
X0200193Y0283800D01*
X0200193Y0291800D01*
X0199999Y0291800D01*
X0199222Y0291677D01*
X0198474Y0291434D01*
X0197772Y0291076D01*
X0197136Y0290614D01*
X0196579Y0290057D01*
X0196117Y0289421D01*
X0195759Y0288719D01*
X0195516Y0287971D01*
X0195393Y0287194D01*
X0195393Y0283800D01*
X0200193Y0283800D01*
X0200193Y0283400D01*
X0200593Y0283400D01*
X0200593Y0275400D01*
X0201894Y0275631D02*
X0219364Y0275631D01*
X0219438Y0275600D02*
X0221348Y0275600D01*
X0223112Y0276331D01*
X0224462Y0277681D01*
X0225193Y0279445D01*
X0225193Y0287755D01*
X0224462Y0289519D01*
X0223112Y0290869D01*
X0221348Y0291600D01*
X0219438Y0291600D01*
X0217674Y0290869D01*
X0216324Y0289519D01*
X0215593Y0287755D01*
X0215593Y0279445D01*
X0216324Y0277681D01*
X0217674Y0276331D01*
X0219438Y0275600D01*
X0221422Y0275631D02*
X0240167Y0275631D01*
X0240191Y0275607D02*
X0242139Y0274800D01*
X0244247Y0274800D01*
X0246195Y0275607D01*
X0247686Y0277098D01*
X0248193Y0278322D01*
X0248700Y0277098D01*
X0250191Y0275607D01*
X0252139Y0274800D01*
X0254247Y0274800D01*
X0256195Y0275607D01*
X0257686Y0277098D01*
X0258193Y0278322D01*
X0258700Y0277098D01*
X0260191Y0275607D01*
X0262139Y0274800D01*
X0264247Y0274800D01*
X0266195Y0275607D01*
X0267686Y0277098D01*
X0268193Y0278322D01*
X0268700Y0277098D01*
X0270191Y0275607D01*
X0272139Y0274800D01*
X0274247Y0274800D01*
X0276195Y0275607D01*
X0277686Y0277098D01*
X0278193Y0278322D01*
X0278700Y0277098D01*
X0280191Y0275607D01*
X0282139Y0274800D01*
X0284247Y0274800D01*
X0286195Y0275607D01*
X0287686Y0277098D01*
X0288078Y0278044D01*
X0288096Y0277989D01*
X0288489Y0277217D01*
X0288998Y0276517D01*
X0289610Y0275905D01*
X0290310Y0275396D01*
X0291082Y0275003D01*
X0291905Y0274735D01*
X0292760Y0274600D01*
X0292993Y0274600D01*
X0292993Y0279900D01*
X0293393Y0279900D01*
X0293393Y0280300D01*
X0292993Y0280300D01*
X0292993Y0285600D01*
X0292760Y0285600D01*
X0291905Y0285465D01*
X0291082Y0285197D01*
X0290310Y0284804D01*
X0289610Y0284295D01*
X0288998Y0283683D01*
X0288489Y0282983D01*
X0288096Y0282211D01*
X0288078Y0282156D01*
X0287686Y0283102D01*
X0286195Y0284593D01*
X0284247Y0285400D01*
X0282139Y0285400D01*
X0280191Y0284593D01*
X0278700Y0283102D01*
X0278193Y0281878D01*
X0277686Y0283102D01*
X0276195Y0284593D01*
X0274247Y0285400D01*
X0272139Y0285400D01*
X0270191Y0284593D01*
X0268700Y0283102D01*
X0268193Y0281878D01*
X0267686Y0283102D01*
X0266195Y0284593D01*
X0264247Y0285400D01*
X0262139Y0285400D01*
X0260191Y0284593D01*
X0258700Y0283102D01*
X0258193Y0281878D01*
X0257686Y0283102D01*
X0256195Y0284593D01*
X0254247Y0285400D01*
X0252139Y0285400D01*
X0250191Y0284593D01*
X0248700Y0283102D01*
X0248193Y0281878D01*
X0247686Y0283102D01*
X0246195Y0284593D01*
X0244247Y0285400D01*
X0242139Y0285400D01*
X0240191Y0284593D01*
X0238700Y0283102D01*
X0237893Y0281154D01*
X0237893Y0279046D01*
X0238700Y0277098D01*
X0240191Y0275607D01*
X0238645Y0277229D02*
X0224010Y0277229D01*
X0224937Y0278828D02*
X0237983Y0278828D01*
X0237893Y0280426D02*
X0225193Y0280426D01*
X0225193Y0282025D02*
X0238254Y0282025D01*
X0239221Y0283623D02*
X0225193Y0283623D01*
X0225193Y0285222D02*
X0241708Y0285222D01*
X0244678Y0285222D02*
X0251708Y0285222D01*
X0249221Y0283623D02*
X0247165Y0283623D01*
X0248132Y0282025D02*
X0248254Y0282025D01*
X0248645Y0277229D02*
X0247740Y0277229D01*
X0246219Y0275631D02*
X0250167Y0275631D01*
X0256219Y0275631D02*
X0260167Y0275631D01*
X0258645Y0277229D02*
X0257740Y0277229D01*
X0258132Y0282025D02*
X0258254Y0282025D01*
X0259221Y0283623D02*
X0257165Y0283623D01*
X0254678Y0285222D02*
X0261708Y0285222D01*
X0264678Y0285222D02*
X0271708Y0285222D01*
X0269221Y0283623D02*
X0267165Y0283623D01*
X0268132Y0282025D02*
X0268254Y0282025D01*
X0268645Y0277229D02*
X0267740Y0277229D01*
X0266219Y0275631D02*
X0270167Y0275631D01*
X0276219Y0275631D02*
X0280167Y0275631D01*
X0278645Y0277229D02*
X0277740Y0277229D01*
X0278132Y0282025D02*
X0278254Y0282025D01*
X0279221Y0283623D02*
X0277165Y0283623D01*
X0274678Y0285222D02*
X0281708Y0285222D01*
X0284678Y0285222D02*
X0291157Y0285222D01*
X0292993Y0285222D02*
X0293393Y0285222D01*
X0293393Y0285600D02*
X0293393Y0280300D01*
X0298693Y0280300D01*
X0298693Y0280533D01*
X0298558Y0281388D01*
X0298290Y0282211D01*
X0297897Y0282983D01*
X0297388Y0283683D01*
X0296776Y0284295D01*
X0296076Y0284804D01*
X0295304Y0285197D01*
X0294481Y0285465D01*
X0293626Y0285600D01*
X0293393Y0285600D01*
X0295229Y0285222D02*
X0314193Y0285222D01*
X0314193Y0286820D02*
X0225193Y0286820D01*
X0224918Y0288419D02*
X0314193Y0288419D01*
X0314193Y0290017D02*
X0223964Y0290017D01*
X0216822Y0290017D02*
X0214670Y0290017D01*
X0214462Y0290519D02*
X0213112Y0291869D01*
X0211348Y0292600D01*
X0209438Y0292600D01*
X0207674Y0291869D01*
X0206324Y0290519D01*
X0205593Y0288755D01*
X0205593Y0280445D01*
X0206324Y0278681D01*
X0207674Y0277331D01*
X0209438Y0276600D01*
X0211348Y0276600D01*
X0213112Y0277331D01*
X0214462Y0278681D01*
X0215193Y0280445D01*
X0215193Y0288755D01*
X0214462Y0290519D01*
X0213366Y0291616D02*
X0313966Y0291616D01*
X0312368Y0293214D02*
X0094418Y0293214D01*
X0093893Y0291616D02*
X0187420Y0291616D01*
X0187674Y0291869D02*
X0186324Y0290519D01*
X0185593Y0288755D01*
X0185593Y0280445D01*
X0186324Y0278681D01*
X0187674Y0277331D01*
X0189438Y0276600D01*
X0191348Y0276600D01*
X0193112Y0277331D01*
X0194462Y0278681D01*
X0195193Y0280445D01*
X0195193Y0288755D01*
X0194462Y0290519D01*
X0193112Y0291869D01*
X0191348Y0292600D01*
X0189438Y0292600D01*
X0187674Y0291869D01*
X0186116Y0290017D02*
X0183964Y0290017D01*
X0184918Y0288419D02*
X0185593Y0288419D01*
X0185593Y0286820D02*
X0185193Y0286820D01*
X0185193Y0285222D02*
X0185593Y0285222D01*
X0185593Y0283623D02*
X0185193Y0283623D01*
X0185193Y0282025D02*
X0185593Y0282025D01*
X0185601Y0280426D02*
X0185193Y0280426D01*
X0184937Y0278828D02*
X0186263Y0278828D01*
X0187920Y0277229D02*
X0184010Y0277229D01*
X0176776Y0277229D02*
X0093893Y0277229D01*
X0093893Y0278828D02*
X0175849Y0278828D01*
X0175593Y0280426D02*
X0093893Y0280426D01*
X0093893Y0282025D02*
X0175593Y0282025D01*
X0175593Y0283623D02*
X0093893Y0283623D01*
X0093893Y0285222D02*
X0175593Y0285222D01*
X0175593Y0286820D02*
X0093893Y0286820D01*
X0093893Y0288419D02*
X0175868Y0288419D01*
X0176822Y0290017D02*
X0093893Y0290017D01*
X0105727Y0262081D02*
X0104323Y0260677D01*
X0084517Y0260523D01*
X0083159Y0261881D01*
X0080027Y0261881D01*
X0077812Y0259666D01*
X0077812Y0256534D01*
X0080027Y0254319D01*
X0083159Y0254319D01*
X0084563Y0255723D01*
X0104369Y0255877D01*
X0105727Y0254519D01*
X0108859Y0254519D01*
X0111074Y0256734D01*
X0111074Y0259866D01*
X0108859Y0262081D01*
X0105727Y0262081D01*
X0104890Y0261244D02*
X0083796Y0261244D01*
X0081593Y0258100D02*
X0107293Y0258300D01*
X0109696Y0261244D02*
X0116912Y0261244D01*
X0116912Y0262842D02*
X0043443Y0262842D01*
X0043443Y0261244D02*
X0079390Y0261244D01*
X0077812Y0259645D02*
X0043443Y0259645D01*
X0043443Y0258047D02*
X0077812Y0258047D01*
X0077897Y0256448D02*
X0043443Y0256448D01*
X0043443Y0254850D02*
X0079496Y0254850D01*
X0083690Y0254850D02*
X0105396Y0254850D01*
X0109190Y0254850D02*
X0118293Y0254850D01*
X0118293Y0256448D02*
X0110789Y0256448D01*
X0111074Y0258047D02*
X0118293Y0258047D01*
X0118000Y0259645D02*
X0111074Y0259645D01*
X0118293Y0253251D02*
X0043443Y0253251D01*
X0043443Y0251653D02*
X0118293Y0251653D01*
X0118293Y0250054D02*
X0043443Y0250054D01*
X0043443Y0248456D02*
X0118289Y0248456D01*
X0118610Y0246857D02*
X0043443Y0246857D01*
X0043443Y0245259D02*
X0119305Y0245259D01*
X0117712Y0243660D02*
X0043443Y0243660D01*
X0043443Y0242062D02*
X0117712Y0242062D01*
X0117782Y0240463D02*
X0043443Y0240463D01*
X0043443Y0238865D02*
X0117868Y0238865D01*
X0117816Y0237266D02*
X0114574Y0237266D01*
X0115474Y0235668D02*
X0117764Y0235668D01*
X0117712Y0234069D02*
X0115474Y0234069D01*
X0114711Y0232471D02*
X0117660Y0232471D01*
X0117608Y0230872D02*
X0048082Y0230872D01*
X0046683Y0229274D02*
X0117556Y0229274D01*
X0116829Y0227675D02*
X0046675Y0227675D01*
X0046667Y0226077D02*
X0115176Y0226077D01*
X0113524Y0224478D02*
X0046659Y0224478D01*
X0046651Y0222880D02*
X0111871Y0222880D01*
X0110219Y0221281D02*
X0046643Y0221281D01*
X0046635Y0219683D02*
X0108566Y0219683D01*
X0106914Y0218084D02*
X0046627Y0218084D01*
X0046618Y0216486D02*
X0105261Y0216486D01*
X0103608Y0214887D02*
X0046610Y0214887D01*
X0046602Y0213289D02*
X0101956Y0213289D01*
X0100303Y0211690D02*
X0046594Y0211690D01*
X0046586Y0210092D02*
X0098651Y0210092D01*
X0096992Y0208493D02*
X0046578Y0208493D01*
X0046570Y0206895D02*
X0096093Y0206895D01*
X0096093Y0205296D02*
X0046562Y0205296D01*
X0046554Y0203698D02*
X0096093Y0203698D01*
X0096093Y0202099D02*
X0046546Y0202099D01*
X0046537Y0200501D02*
X0096093Y0200501D01*
X0096093Y0198902D02*
X0046529Y0198902D01*
X0046521Y0197303D02*
X0096093Y0197303D01*
X0096093Y0195705D02*
X0046513Y0195705D01*
X0046505Y0194106D02*
X0096093Y0194106D01*
X0096093Y0192508D02*
X0046497Y0192508D01*
X0046489Y0190909D02*
X0096093Y0190909D01*
X0096093Y0189311D02*
X0046481Y0189311D01*
X0046473Y0187712D02*
X0096093Y0187712D01*
X0096093Y0186114D02*
X0046465Y0186114D01*
X0046456Y0184515D02*
X0096093Y0184515D01*
X0096093Y0182917D02*
X0046448Y0182917D01*
X0046440Y0181318D02*
X0096093Y0181318D01*
X0096093Y0179720D02*
X0046432Y0179720D01*
X0046424Y0178121D02*
X0096093Y0178121D01*
X0096093Y0176523D02*
X0046416Y0176523D01*
X0046408Y0174924D02*
X0096093Y0174924D01*
X0096093Y0173326D02*
X0046400Y0173326D01*
X0046392Y0171727D02*
X0096093Y0171727D01*
X0096093Y0170129D02*
X0046293Y0170129D01*
X0046293Y0168530D02*
X0096093Y0168530D01*
X0096093Y0166932D02*
X0046293Y0166932D01*
X0046293Y0165333D02*
X0046679Y0165333D01*
X0050307Y0165333D02*
X0096093Y0165333D01*
X0096093Y0163735D02*
X0051906Y0163735D01*
X0052274Y0162136D02*
X0096093Y0162136D01*
X0096093Y0160538D02*
X0052274Y0160538D01*
X0050979Y0158939D02*
X0096093Y0158939D01*
X0096093Y0157341D02*
X0052361Y0157341D01*
X0052361Y0155742D02*
X0096093Y0155742D01*
X0096093Y0154144D02*
X0087343Y0154144D01*
X0088942Y0152545D02*
X0096093Y0152545D01*
X0096093Y0150947D02*
X0090540Y0150947D01*
X0092139Y0149348D02*
X0096093Y0149348D01*
X0096093Y0147750D02*
X0093737Y0147750D01*
X0095336Y0146151D02*
X0096093Y0146151D01*
X0094693Y0143400D02*
X0085393Y0152700D01*
X0057993Y0152700D01*
X0053493Y0148200D01*
X0053293Y0138200D01*
X0051193Y0134100D01*
X0048306Y0136560D02*
X0046593Y0136560D01*
X0047412Y0135666D02*
X0047412Y0132534D01*
X0049627Y0130319D01*
X0052759Y0130319D01*
X0054974Y0132534D01*
X0054974Y0135666D01*
X0054787Y0135853D01*
X0055246Y0136748D01*
X0055300Y0136800D01*
X0055462Y0137171D01*
X0055647Y0137531D01*
X0055653Y0137606D01*
X0055683Y0137675D01*
X0055691Y0138079D01*
X0055724Y0138482D01*
X0055701Y0138554D01*
X0055873Y0147186D01*
X0058987Y0150300D01*
X0084399Y0150300D01*
X0092262Y0142437D01*
X0092187Y0140041D01*
X0090712Y0138566D01*
X0090712Y0135434D01*
X0092927Y0133219D01*
X0093116Y0133219D01*
X0092885Y0133049D01*
X0092789Y0132890D01*
X0092658Y0132759D01*
X0092545Y0132485D01*
X0092392Y0132232D01*
X0092364Y0132048D01*
X0092293Y0131877D01*
X0092293Y0131581D01*
X0092249Y0131288D01*
X0092265Y0131220D01*
X0090912Y0129866D01*
X0090912Y0126734D01*
X0093127Y0124519D01*
X0096259Y0124519D01*
X0098474Y0126734D01*
X0098474Y0129866D01*
X0097703Y0130637D01*
X0098612Y0131306D01*
X0098612Y0130134D01*
X0100827Y0127919D01*
X0103959Y0127919D01*
X0105332Y0129291D01*
X0109126Y0129280D01*
X0109012Y0129166D01*
X0109012Y0126034D01*
X0111227Y0123819D01*
X0114359Y0123819D01*
X0115743Y0125202D01*
X0231573Y0125298D01*
X0231850Y0081484D01*
X0229438Y0079478D01*
X0229334Y0079435D01*
X0229074Y0079175D01*
X0228791Y0078940D01*
X0228739Y0078840D01*
X0228658Y0078759D01*
X0228518Y0078420D01*
X0228347Y0078095D01*
X0228336Y0077982D01*
X0228308Y0077914D01*
X0228064Y0078158D01*
X0226239Y0078914D01*
X0224264Y0078914D01*
X0222439Y0078158D01*
X0221042Y0076761D01*
X0220286Y0074936D01*
X0220286Y0072961D01*
X0221042Y0071136D01*
X0222439Y0069739D01*
X0224157Y0069028D01*
X0222439Y0068316D01*
X0221042Y0066919D01*
X0220286Y0065094D01*
X0220286Y0063119D01*
X0220998Y0061400D01*
X0215725Y0061400D01*
X0216437Y0063119D01*
X0216437Y0065094D01*
X0215681Y0066919D01*
X0214284Y0068316D01*
X0212566Y0069028D01*
X0214284Y0069739D01*
X0215681Y0071136D01*
X0216437Y0072961D01*
X0216437Y0074936D01*
X0215681Y0076761D01*
X0214284Y0078158D01*
X0212459Y0078914D01*
X0210484Y0078914D01*
X0208659Y0078158D01*
X0207262Y0076761D01*
X0206550Y0075043D01*
X0205839Y0076761D01*
X0204442Y0078158D01*
X0202617Y0078914D01*
X0200642Y0078914D01*
X0198817Y0078158D01*
X0197420Y0076761D01*
X0196708Y0075043D01*
X0195996Y0076761D01*
X0194599Y0078158D01*
X0192774Y0078914D01*
X0190799Y0078914D01*
X0188974Y0078158D01*
X0187577Y0076761D01*
X0186865Y0075043D01*
X0186154Y0076761D01*
X0184757Y0078158D01*
X0182932Y0078914D01*
X0180956Y0078914D01*
X0179132Y0078158D01*
X0177735Y0076761D01*
X0177023Y0075043D01*
X0176311Y0076761D01*
X0174914Y0078158D01*
X0173089Y0078914D01*
X0171114Y0078914D01*
X0169289Y0078158D01*
X0167892Y0076761D01*
X0167180Y0075043D01*
X0166469Y0076761D01*
X0165072Y0078158D01*
X0164659Y0078329D01*
X0164659Y0080072D01*
X0164687Y0080100D01*
X0178547Y0080100D01*
X0178674Y0080063D01*
X0179021Y0080100D01*
X0179370Y0080100D01*
X0179492Y0080150D01*
X0179623Y0080164D01*
X0179930Y0080332D01*
X0180252Y0080465D01*
X0180346Y0080559D01*
X0184330Y0082732D01*
X0184652Y0082865D01*
X0184746Y0082959D01*
X0184861Y0083022D01*
X0185081Y0083294D01*
X0185328Y0083541D01*
X0185378Y0083662D01*
X0185461Y0083765D01*
X0185559Y0084100D01*
X0185693Y0084423D01*
X0185693Y0084554D01*
X0185730Y0084681D01*
X0185693Y0085028D01*
X0185693Y0117880D01*
X0185740Y0118132D01*
X0185693Y0118352D01*
X0185693Y0118577D01*
X0185595Y0118815D01*
X0185541Y0119066D01*
X0185414Y0119252D01*
X0185328Y0119459D01*
X0185146Y0119641D01*
X0184310Y0120856D01*
X0184221Y0121069D01*
X0184043Y0121246D01*
X0183900Y0121453D01*
X0183707Y0121579D01*
X0183543Y0121741D01*
X0183310Y0121836D01*
X0183099Y0121973D01*
X0182873Y0122015D01*
X0182659Y0122102D01*
X0182408Y0122101D01*
X0182161Y0122147D01*
X0181935Y0122099D01*
X0160715Y0122000D01*
X0159308Y0122032D01*
X0157859Y0123481D01*
X0154727Y0123481D01*
X0152512Y0121266D01*
X0152512Y0118134D01*
X0154727Y0115919D01*
X0157859Y0115919D01*
X0159174Y0117234D01*
X0160195Y0117211D01*
X0160227Y0117198D01*
X0160671Y0117200D01*
X0161116Y0117190D01*
X0161147Y0117202D01*
X0180893Y0117294D01*
X0180893Y0094247D01*
X0179529Y0095611D01*
X0179256Y0108315D01*
X0180574Y0109634D01*
X0180574Y0112766D01*
X0178359Y0114981D01*
X0175227Y0114981D01*
X0173012Y0112766D01*
X0173012Y0109634D01*
X0174457Y0108189D01*
X0174730Y0095485D01*
X0173412Y0094166D01*
X0173412Y0091034D01*
X0175627Y0088819D01*
X0178759Y0088819D01*
X0180893Y0090953D01*
X0180893Y0086325D01*
X0178281Y0084900D01*
X0163216Y0084900D01*
X0162334Y0084535D01*
X0160900Y0083101D01*
X0160225Y0082426D01*
X0159859Y0081544D01*
X0159859Y0078329D01*
X0159446Y0078158D01*
X0158050Y0076761D01*
X0157338Y0075043D01*
X0156626Y0076761D01*
X0155229Y0078158D01*
X0153404Y0078914D01*
X0151429Y0078914D01*
X0151016Y0078743D01*
X0146100Y0083659D01*
X0145425Y0084335D01*
X0144543Y0084700D01*
X0108140Y0084700D01*
X0109540Y0086100D01*
X0121704Y0086100D01*
X0126541Y0090936D01*
X0127183Y0091566D01*
X0127183Y0091579D01*
X0127193Y0091589D01*
X0127193Y0092488D01*
X0127389Y0111169D01*
X0127574Y0111637D01*
X0127398Y0112044D01*
X0127402Y0112488D01*
X0127050Y0112848D01*
X0126881Y0113240D01*
X0127374Y0113734D01*
X0127374Y0116866D01*
X0125159Y0119081D01*
X0122027Y0119081D01*
X0119812Y0116866D01*
X0119812Y0113734D01*
X0122027Y0111519D01*
X0122831Y0111519D01*
X0122988Y0111156D01*
X0122803Y0093421D01*
X0119882Y0090500D01*
X0109540Y0090500D01*
X0107959Y0092081D01*
X0104827Y0092081D01*
X0102612Y0089866D01*
X0102612Y0086734D01*
X0104646Y0084700D01*
X0103687Y0084700D01*
X0099074Y0089313D01*
X0099074Y0091266D01*
X0096859Y0093481D01*
X0093727Y0093481D01*
X0091512Y0091266D01*
X0091512Y0088134D01*
X0093727Y0085919D01*
X0095680Y0085919D01*
X0097405Y0084194D01*
X0096374Y0084194D01*
X0094085Y0083245D01*
X0092333Y0081493D01*
X0091384Y0079204D01*
X0091384Y0076726D01*
X0092333Y0074436D01*
X0094085Y0072684D01*
X0096374Y0071735D01*
X0098853Y0071735D01*
X0100096Y0072251D01*
X0098812Y0070966D01*
X0098812Y0067834D01*
X0101027Y0065619D01*
X0104159Y0065619D01*
X0106374Y0067834D01*
X0106374Y0069787D01*
X0108136Y0071549D01*
X0118509Y0071549D01*
X0118680Y0071136D01*
X0120076Y0069739D01*
X0121586Y0069114D01*
X0120906Y0068893D01*
X0120182Y0068524D01*
X0119524Y0068046D01*
X0118949Y0067471D01*
X0118471Y0066814D01*
X0118102Y0066089D01*
X0117851Y0065316D01*
X0117724Y0064513D01*
X0117724Y0064389D01*
X0122606Y0064389D01*
X0122606Y0063824D01*
X0117724Y0063824D01*
X0117724Y0063700D01*
X0117851Y0062897D01*
X0118102Y0062123D01*
X0118420Y0061500D01*
X0100035Y0061500D01*
X0078993Y0083580D01*
X0078993Y0101553D01*
X0080574Y0103134D01*
X0080574Y0106266D01*
X0078359Y0108481D01*
X0075227Y0108481D01*
X0074993Y0108247D01*
X0074993Y0123553D01*
X0075125Y0123421D01*
X0075593Y0118974D01*
X0075593Y0118623D01*
X0075643Y0118503D01*
X0075656Y0118374D01*
X0075824Y0118065D01*
X0075958Y0117741D01*
X0076050Y0117649D01*
X0076112Y0117535D01*
X0076385Y0117314D01*
X0085925Y0107774D01*
X0086707Y0106849D01*
X0086739Y0106771D01*
X0087014Y0106487D01*
X0087269Y0106185D01*
X0087345Y0106146D01*
X0087404Y0106086D01*
X0087767Y0105929D01*
X0088118Y0105748D01*
X0088202Y0105741D01*
X0088280Y0105707D01*
X0088675Y0105701D01*
X0089069Y0105669D01*
X0089150Y0105694D01*
X0092602Y0105644D01*
X0094027Y0104219D01*
X0097159Y0104219D01*
X0099374Y0106434D01*
X0099374Y0109566D01*
X0097159Y0111781D01*
X0094027Y0111781D01*
X0092689Y0110443D01*
X0089920Y0110484D01*
X0089767Y0110664D01*
X0089728Y0110759D01*
X0089461Y0111026D01*
X0089217Y0111315D01*
X0089125Y0111362D01*
X0080291Y0120196D01*
X0079886Y0124045D01*
X0080974Y0125134D01*
X0080974Y0128266D01*
X0078759Y0130481D01*
X0075878Y0130481D01*
X0076755Y0131100D01*
X0084100Y0131100D01*
X0085547Y0130026D01*
X0085204Y0120846D01*
X0085150Y0120632D01*
X0085187Y0120374D01*
X0085177Y0120113D01*
X0085254Y0119906D01*
X0085285Y0119687D01*
X0085418Y0119462D01*
X0085509Y0119217D01*
X0085659Y0119056D01*
X0087036Y0116733D01*
X0087146Y0116459D01*
X0087277Y0116326D01*
X0087372Y0116166D01*
X0087608Y0115989D01*
X0087815Y0115778D01*
X0087987Y0115705D01*
X0088136Y0115593D01*
X0088422Y0115520D01*
X0088694Y0115404D01*
X0088880Y0115403D01*
X0089061Y0115357D01*
X0089353Y0115398D01*
X0097319Y0115327D01*
X0098727Y0113919D01*
X0101859Y0113919D01*
X0104074Y0116134D01*
X0104074Y0119266D01*
X0101859Y0121481D01*
X0098727Y0121481D01*
X0097372Y0120126D01*
X0090568Y0120188D01*
X0090018Y0121116D01*
X0090382Y0130860D01*
X0090437Y0131079D01*
X0090400Y0131332D01*
X0090409Y0131587D01*
X0090330Y0131800D01*
X0090297Y0132024D01*
X0090166Y0132243D01*
X0090077Y0132483D01*
X0089923Y0132649D01*
X0089806Y0132843D01*
X0089601Y0132995D01*
X0089428Y0133182D01*
X0089222Y0133277D01*
X0086465Y0135322D01*
X0086252Y0135535D01*
X0086085Y0135604D01*
X0085940Y0135712D01*
X0085648Y0135785D01*
X0085370Y0135900D01*
X0085189Y0135900D01*
X0085014Y0135944D01*
X0084716Y0135900D01*
X0076198Y0135900D01*
X0075930Y0135946D01*
X0075726Y0135900D01*
X0075516Y0135900D01*
X0075264Y0135796D01*
X0074999Y0135736D01*
X0074827Y0135615D01*
X0074634Y0135535D01*
X0074441Y0135342D01*
X0071427Y0133215D01*
X0071234Y0133135D01*
X0071041Y0132942D01*
X0070819Y0132785D01*
X0070707Y0132608D01*
X0070558Y0132459D01*
X0070454Y0132208D01*
X0070309Y0131978D01*
X0070273Y0131771D01*
X0070193Y0131577D01*
X0070193Y0131305D01*
X0070147Y0131037D01*
X0070193Y0130833D01*
X0070193Y0083248D01*
X0064114Y0077168D01*
X0061111Y0077168D01*
X0060593Y0076650D01*
X0060075Y0077168D01*
X0059981Y0077168D01*
X0060006Y0078273D01*
X0060369Y0078376D01*
X0061027Y0077719D01*
X0064159Y0077719D01*
X0066374Y0079934D01*
X0066374Y0083066D01*
X0064159Y0085281D01*
X0061027Y0085281D01*
X0058812Y0083066D01*
X0058812Y0082924D01*
X0057340Y0082508D01*
X0057224Y0082510D01*
X0056884Y0082378D01*
X0056534Y0082279D01*
X0056442Y0082207D01*
X0056334Y0082165D01*
X0056070Y0081913D01*
X0055784Y0081687D01*
X0055728Y0081586D01*
X0055643Y0081505D01*
X0055496Y0081172D01*
X0055319Y0080854D01*
X0055305Y0080738D01*
X0055258Y0080632D01*
X0055250Y0080268D01*
X0055207Y0079906D01*
X0055239Y0079794D01*
X0055179Y0077168D01*
X0054418Y0077168D01*
X0053481Y0076231D01*
X0053481Y0070969D01*
X0054418Y0070031D01*
X0055047Y0070031D01*
X0055047Y0066768D01*
X0054618Y0066768D01*
X0053681Y0065831D01*
X0053681Y0060569D01*
X0054618Y0059631D01*
X0055186Y0059631D01*
X0055193Y0059452D01*
X0055193Y0055013D01*
X0054793Y0054613D01*
X0054793Y0044587D01*
X0055730Y0043650D01*
X0059456Y0043650D01*
X0060093Y0044287D01*
X0060730Y0043650D01*
X0064220Y0043650D01*
X0063943Y0041900D01*
X0061005Y0041900D01*
X0052137Y0041990D01*
X0051195Y0042854D01*
X0051291Y0089071D01*
X0051923Y0090019D01*
X0052359Y0090019D01*
X0054574Y0092234D01*
X0054574Y0095366D01*
X0052359Y0097581D01*
X0049227Y0097581D01*
X0047012Y0095366D01*
X0047012Y0092234D01*
X0047383Y0091862D01*
X0047029Y0091331D01*
X0046861Y0091164D01*
X0046767Y0090938D01*
X0046631Y0090734D01*
X0046593Y0090541D01*
X0046593Y0142559D01*
X0048422Y0144388D01*
X0051016Y0144388D01*
X0050905Y0138801D01*
X0050433Y0137881D01*
X0049627Y0137881D01*
X0047412Y0135666D01*
X0047412Y0134962D02*
X0046593Y0134962D01*
X0046593Y0133363D02*
X0047412Y0133363D01*
X0048181Y0131765D02*
X0046593Y0131765D01*
X0046593Y0130166D02*
X0070193Y0130166D01*
X0070193Y0128568D02*
X0060773Y0128568D01*
X0061674Y0127666D02*
X0059459Y0129881D01*
X0056327Y0129881D01*
X0054112Y0127666D01*
X0054112Y0124534D01*
X0055493Y0123153D01*
X0055493Y0093523D01*
X0055712Y0092994D01*
X0055712Y0090834D01*
X0057927Y0088619D01*
X0061059Y0088619D01*
X0063274Y0090834D01*
X0063274Y0093966D01*
X0061059Y0096181D01*
X0060293Y0096181D01*
X0060293Y0123153D01*
X0061674Y0124534D01*
X0061674Y0127666D01*
X0061674Y0126969D02*
X0070193Y0126969D01*
X0070193Y0125370D02*
X0061674Y0125370D01*
X0060912Y0123772D02*
X0070193Y0123772D01*
X0070193Y0122173D02*
X0060293Y0122173D01*
X0060293Y0120575D02*
X0070193Y0120575D01*
X0070193Y0118976D02*
X0060293Y0118976D01*
X0060293Y0117378D02*
X0070193Y0117378D01*
X0070193Y0115779D02*
X0060293Y0115779D01*
X0060293Y0114181D02*
X0070193Y0114181D01*
X0070193Y0112582D02*
X0060293Y0112582D01*
X0060293Y0110984D02*
X0070193Y0110984D01*
X0070193Y0109385D02*
X0060293Y0109385D01*
X0060293Y0107787D02*
X0070193Y0107787D01*
X0070193Y0106188D02*
X0060293Y0106188D01*
X0060293Y0104590D02*
X0070193Y0104590D01*
X0070193Y0102991D02*
X0060293Y0102991D01*
X0060293Y0101393D02*
X0070193Y0101393D01*
X0070193Y0099794D02*
X0060293Y0099794D01*
X0060293Y0098196D02*
X0070193Y0098196D01*
X0070193Y0096597D02*
X0060293Y0096597D01*
X0062241Y0094999D02*
X0070193Y0094999D01*
X0070193Y0093400D02*
X0063274Y0093400D01*
X0063274Y0091802D02*
X0070193Y0091802D01*
X0070193Y0090203D02*
X0062644Y0090203D01*
X0059493Y0092400D02*
X0057893Y0094000D01*
X0057893Y0126100D01*
X0055013Y0128568D02*
X0046593Y0128568D01*
X0046593Y0126969D02*
X0054112Y0126969D01*
X0054112Y0125370D02*
X0046593Y0125370D01*
X0046593Y0123772D02*
X0054874Y0123772D01*
X0055493Y0122173D02*
X0046593Y0122173D01*
X0046593Y0120575D02*
X0055493Y0120575D01*
X0055493Y0118976D02*
X0046593Y0118976D01*
X0046593Y0117378D02*
X0055493Y0117378D01*
X0055493Y0115779D02*
X0046593Y0115779D01*
X0046593Y0114181D02*
X0055493Y0114181D01*
X0055493Y0112582D02*
X0046593Y0112582D01*
X0046593Y0110984D02*
X0055493Y0110984D01*
X0055493Y0109385D02*
X0046593Y0109385D01*
X0046593Y0107787D02*
X0055493Y0107787D01*
X0055493Y0106188D02*
X0046593Y0106188D01*
X0046593Y0104590D02*
X0055493Y0104590D01*
X0055493Y0102991D02*
X0046593Y0102991D01*
X0046593Y0101393D02*
X0055493Y0101393D01*
X0055493Y0099794D02*
X0046593Y0099794D01*
X0046593Y0098196D02*
X0055493Y0098196D01*
X0055493Y0096597D02*
X0053343Y0096597D01*
X0054574Y0094999D02*
X0055493Y0094999D01*
X0055544Y0093400D02*
X0054574Y0093400D01*
X0054142Y0091802D02*
X0055712Y0091802D01*
X0056342Y0090203D02*
X0052544Y0090203D01*
X0051290Y0088605D02*
X0070193Y0088605D01*
X0070193Y0087006D02*
X0051287Y0087006D01*
X0051284Y0085408D02*
X0070193Y0085408D01*
X0070193Y0083809D02*
X0065631Y0083809D01*
X0066374Y0082211D02*
X0069156Y0082211D01*
X0067558Y0080612D02*
X0066374Y0080612D01*
X0065959Y0079014D02*
X0065454Y0079014D01*
X0064360Y0077415D02*
X0059986Y0077415D01*
X0057647Y0080100D02*
X0062593Y0081500D01*
X0059555Y0083809D02*
X0051280Y0083809D01*
X0051277Y0082211D02*
X0056447Y0082211D01*
X0055258Y0080612D02*
X0051274Y0080612D01*
X0051271Y0079014D02*
X0055221Y0079014D01*
X0055185Y0077415D02*
X0051267Y0077415D01*
X0051264Y0075817D02*
X0053481Y0075817D01*
X0053481Y0074218D02*
X0051261Y0074218D01*
X0051257Y0072620D02*
X0053481Y0072620D01*
X0053481Y0071021D02*
X0051254Y0071021D01*
X0051251Y0069423D02*
X0055047Y0069423D01*
X0055047Y0067824D02*
X0051247Y0067824D01*
X0051244Y0066226D02*
X0054076Y0066226D01*
X0053681Y0064627D02*
X0051241Y0064627D01*
X0051237Y0063029D02*
X0053681Y0063029D01*
X0053681Y0061430D02*
X0051234Y0061430D01*
X0051231Y0059832D02*
X0054418Y0059832D01*
X0055193Y0058233D02*
X0051227Y0058233D01*
X0051224Y0056634D02*
X0055193Y0056634D01*
X0055193Y0055036D02*
X0051221Y0055036D01*
X0051217Y0053437D02*
X0054793Y0053437D01*
X0054793Y0051839D02*
X0051214Y0051839D01*
X0051211Y0050240D02*
X0054793Y0050240D01*
X0054793Y0048642D02*
X0051207Y0048642D01*
X0051204Y0047043D02*
X0054793Y0047043D01*
X0054793Y0045445D02*
X0051201Y0045445D01*
X0051197Y0043846D02*
X0055534Y0043846D01*
X0051856Y0042248D02*
X0063998Y0042248D01*
X0065993Y0039500D02*
X0060993Y0039500D01*
X0051193Y0039600D01*
X0048793Y0041800D01*
X0048893Y0089800D01*
X0050693Y0092500D01*
X0050793Y0093800D01*
X0048243Y0096597D02*
X0046593Y0096597D01*
X0046593Y0094999D02*
X0047012Y0094999D01*
X0047012Y0093400D02*
X0046593Y0093400D01*
X0046593Y0091802D02*
X0047343Y0091802D01*
X0057647Y0080100D02*
X0057447Y0071300D01*
X0057447Y0063200D01*
X0057593Y0059500D01*
X0057593Y0049600D01*
X0062593Y0049600D02*
X0064193Y0055154D01*
X0064139Y0063200D01*
X0057447Y0071300D02*
X0057247Y0073600D01*
X0063939Y0073600D02*
X0072593Y0082254D01*
X0072593Y0131100D01*
X0075993Y0133500D01*
X0084893Y0133500D01*
X0087993Y0131200D01*
X0087593Y0120500D01*
X0089193Y0117800D01*
X0100293Y0117700D01*
X0097821Y0120575D02*
X0090338Y0120575D01*
X0090057Y0122173D02*
X0153419Y0122173D01*
X0152512Y0120575D02*
X0102765Y0120575D01*
X0104074Y0118976D02*
X0121922Y0118976D01*
X0120324Y0117378D02*
X0104074Y0117378D01*
X0103720Y0115779D02*
X0119812Y0115779D01*
X0119812Y0114181D02*
X0102121Y0114181D01*
X0098465Y0114181D02*
X0086306Y0114181D01*
X0087814Y0115779D02*
X0084708Y0115779D01*
X0083109Y0117378D02*
X0086653Y0117378D01*
X0085706Y0118976D02*
X0081511Y0118976D01*
X0080251Y0120575D02*
X0085158Y0120575D01*
X0085254Y0122173D02*
X0080083Y0122173D01*
X0079914Y0123772D02*
X0085314Y0123772D01*
X0085373Y0125370D02*
X0080974Y0125370D01*
X0080974Y0126969D02*
X0085433Y0126969D01*
X0085493Y0128568D02*
X0080673Y0128568D01*
X0079074Y0130166D02*
X0085359Y0130166D01*
X0089105Y0133363D02*
X0092783Y0133363D01*
X0092293Y0131765D02*
X0090343Y0131765D01*
X0090356Y0130166D02*
X0091212Y0130166D01*
X0090912Y0128568D02*
X0090296Y0128568D01*
X0090236Y0126969D02*
X0090912Y0126969D01*
X0090177Y0125370D02*
X0092275Y0125370D01*
X0090117Y0123772D02*
X0231582Y0123772D01*
X0231593Y0122173D02*
X0159167Y0122173D01*
X0160693Y0119600D02*
X0156293Y0119700D01*
X0153268Y0117378D02*
X0126862Y0117378D01*
X0127374Y0115779D02*
X0180893Y0115779D01*
X0180893Y0114181D02*
X0179159Y0114181D01*
X0180574Y0112582D02*
X0180893Y0112582D01*
X0180893Y0110984D02*
X0180574Y0110984D01*
X0180326Y0109385D02*
X0180893Y0109385D01*
X0180893Y0107787D02*
X0179267Y0107787D01*
X0179301Y0106188D02*
X0180893Y0106188D01*
X0180893Y0104590D02*
X0179336Y0104590D01*
X0179370Y0102991D02*
X0180893Y0102991D01*
X0180893Y0101393D02*
X0179404Y0101393D01*
X0179439Y0099794D02*
X0180893Y0099794D01*
X0180893Y0098196D02*
X0179473Y0098196D01*
X0179508Y0096597D02*
X0180893Y0096597D01*
X0180893Y0094999D02*
X0180141Y0094999D01*
X0177193Y0092600D02*
X0176793Y0111200D01*
X0173012Y0110984D02*
X0127387Y0110984D01*
X0127370Y0109385D02*
X0173260Y0109385D01*
X0174466Y0107787D02*
X0127353Y0107787D01*
X0127336Y0106188D02*
X0174500Y0106188D01*
X0174535Y0104590D02*
X0127320Y0104590D01*
X0127303Y0102991D02*
X0174569Y0102991D01*
X0174603Y0101393D02*
X0127286Y0101393D01*
X0127269Y0099794D02*
X0174638Y0099794D01*
X0174672Y0098196D02*
X0127253Y0098196D01*
X0127236Y0096597D02*
X0174706Y0096597D01*
X0174245Y0094999D02*
X0127219Y0094999D01*
X0127203Y0093400D02*
X0173412Y0093400D01*
X0173412Y0091802D02*
X0127193Y0091802D01*
X0125807Y0090203D02*
X0174242Y0090203D01*
X0180144Y0090203D02*
X0180893Y0090203D01*
X0180893Y0088605D02*
X0124209Y0088605D01*
X0122610Y0087006D02*
X0180893Y0087006D01*
X0179212Y0085408D02*
X0108848Y0085408D01*
X0103938Y0085408D02*
X0102979Y0085408D01*
X0102612Y0087006D02*
X0101381Y0087006D01*
X0102612Y0088605D02*
X0099782Y0088605D01*
X0099074Y0090203D02*
X0102949Y0090203D01*
X0104547Y0091802D02*
X0098539Y0091802D01*
X0096940Y0093400D02*
X0122782Y0093400D01*
X0122819Y0094999D02*
X0078993Y0094999D01*
X0078993Y0096597D02*
X0122836Y0096597D01*
X0122853Y0098196D02*
X0078993Y0098196D01*
X0078993Y0099794D02*
X0122869Y0099794D01*
X0122886Y0101393D02*
X0078993Y0101393D01*
X0080432Y0102991D02*
X0122903Y0102991D01*
X0122919Y0104590D02*
X0097530Y0104590D01*
X0099129Y0106188D02*
X0122936Y0106188D01*
X0122953Y0107787D02*
X0099374Y0107787D01*
X0099374Y0109385D02*
X0122970Y0109385D01*
X0122986Y0110984D02*
X0097956Y0110984D01*
X0095593Y0108000D02*
X0088793Y0108100D01*
X0087693Y0109400D01*
X0077993Y0119100D01*
X0077193Y0126700D01*
X0075256Y0122173D02*
X0074993Y0122173D01*
X0074993Y0120575D02*
X0075424Y0120575D01*
X0075593Y0118976D02*
X0074993Y0118976D01*
X0074993Y0117378D02*
X0076306Y0117378D01*
X0074993Y0115779D02*
X0077919Y0115779D01*
X0079518Y0114181D02*
X0074993Y0114181D01*
X0074993Y0112582D02*
X0081116Y0112582D01*
X0082715Y0110984D02*
X0074993Y0110984D01*
X0074993Y0109385D02*
X0084314Y0109385D01*
X0085912Y0107787D02*
X0079053Y0107787D01*
X0080574Y0106188D02*
X0087267Y0106188D01*
X0089503Y0110984D02*
X0093230Y0110984D01*
X0087905Y0112582D02*
X0120963Y0112582D01*
X0127310Y0112582D02*
X0173012Y0112582D01*
X0174427Y0114181D02*
X0127374Y0114181D01*
X0125264Y0118976D02*
X0152512Y0118976D01*
X0160693Y0119600D02*
X0182193Y0119700D01*
X0183293Y0118100D01*
X0183293Y0084900D01*
X0178893Y0082500D01*
X0163693Y0082500D01*
X0162259Y0081066D01*
X0162259Y0073949D01*
X0157658Y0075817D02*
X0157017Y0075817D01*
X0155972Y0077415D02*
X0158703Y0077415D01*
X0159859Y0079014D02*
X0150746Y0079014D01*
X0149147Y0080612D02*
X0159859Y0080612D01*
X0160135Y0082211D02*
X0147549Y0082211D01*
X0145950Y0083809D02*
X0161608Y0083809D01*
X0164659Y0079014D02*
X0228880Y0079014D01*
X0230693Y0077400D02*
X0230693Y0069348D01*
X0225251Y0064106D01*
X0220755Y0066226D02*
X0215968Y0066226D01*
X0216437Y0064627D02*
X0220286Y0064627D01*
X0220323Y0063029D02*
X0216400Y0063029D01*
X0215738Y0061430D02*
X0220985Y0061430D01*
X0221010Y0057000D02*
X0215868Y0057000D01*
X0215890Y0056971D01*
X0216259Y0056247D01*
X0216510Y0055473D01*
X0216637Y0054670D01*
X0216637Y0054546D01*
X0211754Y0054546D01*
X0211754Y0053981D01*
X0216637Y0053981D01*
X0216637Y0053857D01*
X0216510Y0053054D01*
X0216259Y0052281D01*
X0215890Y0051557D01*
X0215848Y0051500D01*
X0221022Y0051500D01*
X0220286Y0053276D01*
X0220286Y0055251D01*
X0221010Y0057000D01*
X0220859Y0056634D02*
X0216061Y0056634D01*
X0216579Y0055036D02*
X0220286Y0055036D01*
X0220286Y0053437D02*
X0216571Y0053437D01*
X0216033Y0051839D02*
X0220881Y0051839D01*
X0220963Y0047043D02*
X0215760Y0047043D01*
X0216422Y0045445D02*
X0220301Y0045445D01*
X0220286Y0043846D02*
X0216437Y0043846D01*
X0215946Y0042248D02*
X0220777Y0042248D01*
X0222001Y0040649D02*
X0214722Y0040649D01*
X0208222Y0040649D02*
X0204879Y0040649D01*
X0206103Y0042248D02*
X0206998Y0042248D01*
X0198379Y0040649D02*
X0195037Y0040649D01*
X0196261Y0042248D02*
X0197155Y0042248D01*
X0188537Y0040649D02*
X0185194Y0040649D01*
X0186418Y0042248D02*
X0187312Y0042248D01*
X0178694Y0040649D02*
X0175352Y0040649D01*
X0176576Y0042248D02*
X0177470Y0042248D01*
X0168851Y0040649D02*
X0165509Y0040649D01*
X0166733Y0042248D02*
X0167627Y0042248D01*
X0162493Y0039051D02*
X0309033Y0039051D01*
X0310631Y0040649D02*
X0243068Y0040649D01*
X0244292Y0042248D02*
X0312230Y0042248D01*
X0313828Y0043846D02*
X0244784Y0043846D01*
X0244769Y0045445D02*
X0314193Y0045445D01*
X0314193Y0047043D02*
X0244106Y0047043D01*
X0236568Y0040649D02*
X0228501Y0040649D01*
X0229725Y0042248D02*
X0235344Y0042248D01*
X0234853Y0043846D02*
X0230217Y0043846D01*
X0230202Y0045445D02*
X0234868Y0045445D01*
X0235530Y0047043D02*
X0229540Y0047043D01*
X0229517Y0061430D02*
X0235552Y0061430D01*
X0234890Y0063029D02*
X0230179Y0063029D01*
X0230217Y0064627D02*
X0234853Y0064627D01*
X0235322Y0066226D02*
X0230911Y0066226D01*
X0232570Y0067824D02*
X0236514Y0067824D01*
X0237770Y0069423D02*
X0233095Y0069423D01*
X0233093Y0071021D02*
X0235724Y0071021D01*
X0234994Y0072620D02*
X0233093Y0072620D01*
X0233093Y0074218D02*
X0234853Y0074218D01*
X0235217Y0075817D02*
X0233093Y0075817D01*
X0234465Y0077415D02*
X0236262Y0077415D01*
X0236296Y0079014D02*
X0252693Y0079014D01*
X0252693Y0080612D02*
X0236690Y0080612D01*
X0236646Y0082211D02*
X0252693Y0082211D01*
X0252693Y0083809D02*
X0236636Y0083809D01*
X0236626Y0085408D02*
X0252693Y0085408D01*
X0252693Y0087006D02*
X0236616Y0087006D01*
X0236605Y0088605D02*
X0252693Y0088605D01*
X0252693Y0090203D02*
X0236595Y0090203D01*
X0236585Y0091802D02*
X0252693Y0091802D01*
X0252693Y0093400D02*
X0236575Y0093400D01*
X0236565Y0094999D02*
X0252693Y0094999D01*
X0252693Y0096597D02*
X0236555Y0096597D01*
X0236545Y0098196D02*
X0252693Y0098196D01*
X0252693Y0099794D02*
X0236534Y0099794D01*
X0236524Y0101393D02*
X0252693Y0101393D01*
X0252693Y0102991D02*
X0236514Y0102991D01*
X0236504Y0104590D02*
X0252693Y0104590D01*
X0252693Y0106188D02*
X0236494Y0106188D01*
X0236484Y0107787D02*
X0252693Y0107787D01*
X0252693Y0109385D02*
X0236474Y0109385D01*
X0236464Y0110984D02*
X0252693Y0110984D01*
X0252693Y0112582D02*
X0236453Y0112582D01*
X0236443Y0114181D02*
X0252693Y0114181D01*
X0252693Y0115779D02*
X0236433Y0115779D01*
X0236423Y0117378D02*
X0252693Y0117378D01*
X0252693Y0118976D02*
X0236413Y0118976D01*
X0236403Y0120575D02*
X0252693Y0120575D01*
X0252693Y0122173D02*
X0236393Y0122173D01*
X0236382Y0123772D02*
X0252693Y0123772D01*
X0252693Y0125370D02*
X0236372Y0125370D01*
X0236362Y0126969D02*
X0252693Y0126969D01*
X0252693Y0128568D02*
X0236196Y0128568D01*
X0233958Y0127700D02*
X0234258Y0080365D01*
X0230693Y0077400D01*
X0230802Y0080612D02*
X0180444Y0080612D01*
X0183375Y0082211D02*
X0231846Y0082211D01*
X0231836Y0083809D02*
X0185474Y0083809D01*
X0185693Y0085408D02*
X0231826Y0085408D01*
X0231815Y0087006D02*
X0185693Y0087006D01*
X0185693Y0088605D02*
X0231805Y0088605D01*
X0231795Y0090203D02*
X0185693Y0090203D01*
X0185693Y0091802D02*
X0231785Y0091802D01*
X0231775Y0093400D02*
X0185693Y0093400D01*
X0185693Y0094999D02*
X0231765Y0094999D01*
X0231755Y0096597D02*
X0185693Y0096597D01*
X0185693Y0098196D02*
X0231745Y0098196D01*
X0231734Y0099794D02*
X0185693Y0099794D01*
X0185693Y0101393D02*
X0231724Y0101393D01*
X0231714Y0102991D02*
X0185693Y0102991D01*
X0185693Y0104590D02*
X0231704Y0104590D01*
X0231694Y0106188D02*
X0185693Y0106188D01*
X0185693Y0107787D02*
X0231684Y0107787D01*
X0231674Y0109385D02*
X0185693Y0109385D01*
X0185693Y0110984D02*
X0231663Y0110984D01*
X0231653Y0112582D02*
X0185693Y0112582D01*
X0185693Y0114181D02*
X0231643Y0114181D01*
X0231633Y0115779D02*
X0185693Y0115779D01*
X0185693Y0117378D02*
X0231623Y0117378D01*
X0231613Y0118976D02*
X0185560Y0118976D01*
X0184504Y0120575D02*
X0231603Y0120575D01*
X0233958Y0127700D02*
X0112793Y0127600D01*
X0109675Y0125370D02*
X0097111Y0125370D01*
X0098474Y0126969D02*
X0109012Y0126969D01*
X0109012Y0128568D02*
X0104608Y0128568D01*
X0102393Y0131700D02*
X0136693Y0131600D01*
X0139593Y0141100D01*
X0141999Y0138159D02*
X0154487Y0138159D01*
X0153357Y0139757D02*
X0143374Y0139757D01*
X0143374Y0141356D02*
X0153112Y0141356D01*
X0153568Y0142954D02*
X0143086Y0142954D01*
X0141488Y0144553D02*
X0155348Y0144553D01*
X0158438Y0144553D02*
X0213540Y0144553D01*
X0214864Y0146151D02*
X0137354Y0146151D01*
X0137341Y0144553D02*
X0137698Y0144553D01*
X0137367Y0147750D02*
X0216280Y0147750D01*
X0217756Y0149348D02*
X0137380Y0149348D01*
X0137393Y0150947D02*
X0144419Y0150947D01*
X0148093Y0151900D02*
X0140693Y0155300D01*
X0140693Y0168100D01*
X0137993Y0170800D01*
X0117193Y0170800D01*
X0115793Y0170600D01*
X0122393Y0175600D02*
X0141593Y0175700D01*
X0144893Y0172400D01*
X0145193Y0159000D01*
X0148193Y0154700D01*
X0170293Y0154800D01*
X0177493Y0164300D01*
X0199993Y0164300D01*
X0199593Y0188600D01*
X0196732Y0186114D02*
X0175493Y0186114D01*
X0175493Y0187712D02*
X0195812Y0187712D01*
X0195812Y0189311D02*
X0175493Y0189311D01*
X0175493Y0190909D02*
X0196555Y0190909D01*
X0202593Y0192508D02*
X0175493Y0192508D01*
X0175493Y0194106D02*
X0202593Y0194106D01*
X0202593Y0195705D02*
X0175493Y0195705D01*
X0176244Y0197303D02*
X0202593Y0197303D01*
X0202593Y0198902D02*
X0176874Y0198902D01*
X0176874Y0200501D02*
X0202593Y0200501D01*
X0202593Y0202099D02*
X0175841Y0202099D01*
X0173093Y0199500D02*
X0173093Y0162800D01*
X0169293Y0158500D01*
X0150993Y0158500D01*
X0150793Y0158700D01*
X0150793Y0173200D01*
X0142393Y0181600D01*
X0111593Y0181600D01*
X0105993Y0176000D01*
X0106193Y0168500D01*
X0106193Y0169200D01*
X0102593Y0165300D02*
X0101493Y0166600D01*
X0101493Y0203400D01*
X0124593Y0226700D01*
X0125393Y0227700D01*
X0125593Y0244000D01*
X0120693Y0248100D01*
X0120693Y0262300D01*
X0123386Y0259645D02*
X0124593Y0259645D01*
X0124593Y0258047D02*
X0123093Y0258047D01*
X0123093Y0256448D02*
X0124012Y0256448D01*
X0124012Y0254850D02*
X0123093Y0254850D01*
X0123093Y0253251D02*
X0124194Y0253251D01*
X0123093Y0251653D02*
X0125793Y0251653D01*
X0123093Y0250054D02*
X0156264Y0250054D01*
X0156261Y0248456D02*
X0124008Y0248456D01*
X0125918Y0246857D02*
X0156257Y0246857D01*
X0156254Y0245259D02*
X0127674Y0245259D01*
X0128002Y0243660D02*
X0156251Y0243660D01*
X0156248Y0242062D02*
X0127969Y0242062D01*
X0127950Y0240463D02*
X0156245Y0240463D01*
X0156241Y0238865D02*
X0127930Y0238865D01*
X0127911Y0237266D02*
X0156238Y0237266D01*
X0156235Y0235668D02*
X0127891Y0235668D01*
X0127871Y0234069D02*
X0156232Y0234069D01*
X0156228Y0232471D02*
X0127852Y0232471D01*
X0127832Y0230872D02*
X0156225Y0230872D01*
X0156222Y0229274D02*
X0127812Y0229274D01*
X0127811Y0227675D02*
X0156219Y0227675D01*
X0156216Y0226077D02*
X0127168Y0226077D01*
X0125770Y0224478D02*
X0156212Y0224478D01*
X0156209Y0222880D02*
X0124185Y0222880D01*
X0122600Y0221281D02*
X0156206Y0221281D01*
X0156203Y0219683D02*
X0121015Y0219683D01*
X0119431Y0218084D02*
X0156200Y0218084D01*
X0156196Y0216486D02*
X0117846Y0216486D01*
X0116261Y0214887D02*
X0156193Y0214887D01*
X0156190Y0213289D02*
X0114676Y0213289D01*
X0113091Y0211690D02*
X0156187Y0211690D01*
X0156184Y0210092D02*
X0111507Y0210092D01*
X0109922Y0208493D02*
X0156180Y0208493D01*
X0156177Y0206895D02*
X0108337Y0206895D01*
X0106752Y0205296D02*
X0156174Y0205296D01*
X0156171Y0203698D02*
X0105168Y0203698D01*
X0103893Y0202099D02*
X0156167Y0202099D01*
X0156164Y0200501D02*
X0103893Y0200501D01*
X0103893Y0198902D02*
X0156161Y0198902D01*
X0156158Y0197303D02*
X0103893Y0197303D01*
X0103893Y0195705D02*
X0156155Y0195705D01*
X0156151Y0194106D02*
X0103893Y0194106D01*
X0103893Y0192508D02*
X0156148Y0192508D01*
X0156145Y0190909D02*
X0103893Y0190909D01*
X0103893Y0189311D02*
X0156142Y0189311D01*
X0156139Y0187712D02*
X0103893Y0187712D01*
X0103893Y0186114D02*
X0156135Y0186114D01*
X0156132Y0184515D02*
X0103893Y0184515D01*
X0103893Y0182917D02*
X0109516Y0182917D01*
X0107917Y0181318D02*
X0103893Y0181318D01*
X0103893Y0179720D02*
X0106319Y0179720D01*
X0104720Y0178121D02*
X0103893Y0178121D01*
X0102593Y0165300D02*
X0133293Y0165100D01*
X0135093Y0163500D01*
X0134893Y0138500D01*
X0131193Y0137000D01*
X0128603Y0139757D02*
X0100893Y0139757D01*
X0100893Y0138159D02*
X0127412Y0138159D01*
X0127412Y0138566D02*
X0127412Y0135434D01*
X0128823Y0134023D01*
X0105349Y0134091D01*
X0103959Y0135481D01*
X0100893Y0135481D01*
X0100893Y0163594D01*
X0101069Y0163385D01*
X0101154Y0163342D01*
X0101220Y0163274D01*
X0101575Y0163124D01*
X0101918Y0162948D01*
X0102013Y0162940D01*
X0102100Y0162903D01*
X0102485Y0162901D01*
X0102869Y0162869D01*
X0102960Y0162898D01*
X0132374Y0162706D01*
X0132684Y0162430D01*
X0132511Y0140781D01*
X0129627Y0140781D01*
X0127412Y0138566D01*
X0127412Y0136560D02*
X0100893Y0136560D01*
X0098493Y0134200D02*
X0098493Y0206600D01*
X0119893Y0227300D01*
X0120293Y0239600D01*
X0121493Y0242100D01*
X0111693Y0234800D02*
X0049593Y0234800D01*
X0044293Y0231200D01*
X0043993Y0172000D01*
X0043893Y0171400D01*
X0043893Y0152654D01*
X0048793Y0148154D01*
X0044193Y0143554D01*
X0044193Y0067300D01*
X0044093Y0067100D01*
X0044093Y0022600D01*
X0046293Y0020300D01*
X0095093Y0020300D01*
X0112993Y0038200D01*
X0112993Y0049700D01*
X0117557Y0054264D01*
X0122889Y0054264D01*
X0118521Y0051834D02*
X0118680Y0051451D01*
X0120076Y0050054D01*
X0121586Y0049429D01*
X0120906Y0049208D01*
X0120182Y0048839D01*
X0119524Y0048361D01*
X0118949Y0047786D01*
X0118471Y0047128D01*
X0118102Y0046404D01*
X0117851Y0045631D01*
X0117724Y0044828D01*
X0117724Y0044704D01*
X0122606Y0044704D01*
X0122606Y0044139D01*
X0117724Y0044139D01*
X0117724Y0044015D01*
X0117851Y0043212D01*
X0118102Y0042438D01*
X0118471Y0041714D01*
X0118949Y0041056D01*
X0119524Y0040481D01*
X0120182Y0040003D01*
X0120906Y0039634D01*
X0121679Y0039383D01*
X0122483Y0039256D01*
X0122606Y0039256D01*
X0122606Y0044138D01*
X0123172Y0044138D01*
X0123172Y0039256D01*
X0123296Y0039256D01*
X0124099Y0039383D01*
X0124872Y0039634D01*
X0125596Y0040003D01*
X0126254Y0040481D01*
X0126829Y0041056D01*
X0127307Y0041714D01*
X0127676Y0042438D01*
X0127810Y0042852D01*
X0127945Y0042438D01*
X0128314Y0041714D01*
X0128792Y0041056D01*
X0129367Y0040481D01*
X0130024Y0040003D01*
X0130749Y0039634D01*
X0131522Y0039383D01*
X0132325Y0039256D01*
X0132449Y0039256D01*
X0132449Y0044138D01*
X0133014Y0044138D01*
X0133014Y0039256D01*
X0133138Y0039256D01*
X0133941Y0039383D01*
X0134714Y0039634D01*
X0135439Y0040003D01*
X0136097Y0040481D01*
X0136671Y0041056D01*
X0137149Y0041714D01*
X0137518Y0042438D01*
X0137653Y0042852D01*
X0137787Y0042438D01*
X0138156Y0041714D01*
X0138634Y0041056D01*
X0139209Y0040481D01*
X0139867Y0040003D01*
X0140591Y0039634D01*
X0141365Y0039383D01*
X0142168Y0039256D01*
X0142291Y0039256D01*
X0142291Y0044138D01*
X0142857Y0044138D01*
X0142857Y0039256D01*
X0142981Y0039256D01*
X0143784Y0039383D01*
X0144557Y0039634D01*
X0145281Y0040003D01*
X0145939Y0040481D01*
X0146514Y0041056D01*
X0146992Y0041714D01*
X0147361Y0042438D01*
X0147582Y0043118D01*
X0148207Y0041609D01*
X0149604Y0040212D01*
X0151429Y0039456D01*
X0153404Y0039456D01*
X0155229Y0040212D01*
X0155273Y0040256D01*
X0155273Y0040239D01*
X0155415Y0040091D01*
X0155444Y0039887D01*
X0156028Y0039449D01*
X0161693Y0033518D01*
X0161693Y0033489D01*
X0162320Y0032862D01*
X0162932Y0032221D01*
X0162961Y0032221D01*
X0162982Y0032200D01*
X0163868Y0032200D01*
X0164754Y0032180D01*
X0164775Y0032200D01*
X0308404Y0032200D01*
X0317304Y0041100D01*
X0318593Y0042389D01*
X0318593Y0292711D01*
X0318493Y0292811D01*
X0318493Y0293311D01*
X0318493Y0293214D02*
X0319343Y0293214D01*
X0319343Y0291616D02*
X0318593Y0291616D01*
X0318593Y0290017D02*
X0319343Y0290017D01*
X0319343Y0288419D02*
X0318593Y0288419D01*
X0318593Y0286820D02*
X0319343Y0286820D01*
X0319343Y0285222D02*
X0318593Y0285222D01*
X0318593Y0283623D02*
X0319343Y0283623D01*
X0319343Y0282025D02*
X0318593Y0282025D01*
X0318593Y0280426D02*
X0319343Y0280426D01*
X0319343Y0278828D02*
X0318593Y0278828D01*
X0318593Y0277229D02*
X0319343Y0277229D01*
X0319343Y0275631D02*
X0318593Y0275631D01*
X0318593Y0274032D02*
X0319343Y0274032D01*
X0319343Y0272434D02*
X0318593Y0272434D01*
X0318593Y0270835D02*
X0319343Y0270835D01*
X0319343Y0269237D02*
X0318593Y0269237D01*
X0318593Y0267638D02*
X0319343Y0267638D01*
X0319343Y0266039D02*
X0318593Y0266039D01*
X0318593Y0264441D02*
X0319343Y0264441D01*
X0319343Y0262842D02*
X0318593Y0262842D01*
X0318593Y0261244D02*
X0319343Y0261244D01*
X0319343Y0259645D02*
X0318593Y0259645D01*
X0318593Y0258047D02*
X0319343Y0258047D01*
X0319343Y0256448D02*
X0318593Y0256448D01*
X0318593Y0254850D02*
X0319343Y0254850D01*
X0319343Y0253251D02*
X0318593Y0253251D01*
X0318593Y0251653D02*
X0319343Y0251653D01*
X0319343Y0250054D02*
X0318593Y0250054D01*
X0318593Y0248456D02*
X0319343Y0248456D01*
X0319343Y0246857D02*
X0318593Y0246857D01*
X0318593Y0245259D02*
X0319343Y0245259D01*
X0319343Y0243660D02*
X0318593Y0243660D01*
X0318593Y0242062D02*
X0319343Y0242062D01*
X0319343Y0240463D02*
X0318593Y0240463D01*
X0318593Y0238865D02*
X0319343Y0238865D01*
X0319343Y0237266D02*
X0318593Y0237266D01*
X0318593Y0235668D02*
X0319343Y0235668D01*
X0319343Y0234069D02*
X0318593Y0234069D01*
X0318593Y0232471D02*
X0319343Y0232471D01*
X0319343Y0230872D02*
X0318593Y0230872D01*
X0318593Y0229274D02*
X0319343Y0229274D01*
X0319343Y0227675D02*
X0318593Y0227675D01*
X0318593Y0226077D02*
X0319343Y0226077D01*
X0319343Y0224478D02*
X0318593Y0224478D01*
X0318593Y0222880D02*
X0319343Y0222880D01*
X0319343Y0221281D02*
X0318593Y0221281D01*
X0318593Y0219683D02*
X0319343Y0219683D01*
X0319343Y0218084D02*
X0318593Y0218084D01*
X0318593Y0216486D02*
X0319343Y0216486D01*
X0319343Y0214887D02*
X0318593Y0214887D01*
X0318593Y0213289D02*
X0319343Y0213289D01*
X0319343Y0211690D02*
X0318593Y0211690D01*
X0318593Y0210092D02*
X0319343Y0210092D01*
X0319343Y0208493D02*
X0318593Y0208493D01*
X0318593Y0206895D02*
X0319343Y0206895D01*
X0319343Y0205296D02*
X0318593Y0205296D01*
X0318593Y0203698D02*
X0319343Y0203698D01*
X0319343Y0202099D02*
X0318593Y0202099D01*
X0318593Y0200501D02*
X0319343Y0200501D01*
X0319343Y0198902D02*
X0318593Y0198902D01*
X0318593Y0197303D02*
X0319343Y0197303D01*
X0319343Y0195705D02*
X0318593Y0195705D01*
X0318593Y0194106D02*
X0319343Y0194106D01*
X0319343Y0192508D02*
X0318593Y0192508D01*
X0318593Y0190909D02*
X0319343Y0190909D01*
X0319343Y0189311D02*
X0318593Y0189311D01*
X0318593Y0187712D02*
X0319343Y0187712D01*
X0319343Y0186114D02*
X0318593Y0186114D01*
X0318593Y0184515D02*
X0319343Y0184515D01*
X0319343Y0182917D02*
X0318593Y0182917D01*
X0318593Y0181318D02*
X0319343Y0181318D01*
X0319343Y0179720D02*
X0318593Y0179720D01*
X0318593Y0178121D02*
X0319343Y0178121D01*
X0319343Y0176523D02*
X0318593Y0176523D01*
X0318593Y0174924D02*
X0319343Y0174924D01*
X0319343Y0173326D02*
X0318593Y0173326D01*
X0318593Y0171727D02*
X0319343Y0171727D01*
X0319343Y0170129D02*
X0318593Y0170129D01*
X0318593Y0168530D02*
X0319343Y0168530D01*
X0319343Y0166932D02*
X0318593Y0166932D01*
X0318593Y0165333D02*
X0319343Y0165333D01*
X0319343Y0163735D02*
X0318593Y0163735D01*
X0318593Y0162136D02*
X0319343Y0162136D01*
X0319343Y0160538D02*
X0318593Y0160538D01*
X0318593Y0158939D02*
X0319343Y0158939D01*
X0319343Y0157341D02*
X0318593Y0157341D01*
X0318593Y0155742D02*
X0319343Y0155742D01*
X0319343Y0154144D02*
X0318593Y0154144D01*
X0318593Y0152545D02*
X0319343Y0152545D01*
X0319343Y0150947D02*
X0318593Y0150947D01*
X0318593Y0149348D02*
X0319343Y0149348D01*
X0319343Y0147750D02*
X0318593Y0147750D01*
X0318593Y0146151D02*
X0319343Y0146151D01*
X0319343Y0144553D02*
X0318593Y0144553D01*
X0318593Y0142954D02*
X0319343Y0142954D01*
X0319343Y0141356D02*
X0318593Y0141356D01*
X0318593Y0139757D02*
X0319343Y0139757D01*
X0319343Y0138159D02*
X0318593Y0138159D01*
X0318593Y0136560D02*
X0319343Y0136560D01*
X0319343Y0134962D02*
X0318593Y0134962D01*
X0318593Y0133363D02*
X0319343Y0133363D01*
X0319343Y0131765D02*
X0318593Y0131765D01*
X0318593Y0130166D02*
X0319343Y0130166D01*
X0319343Y0128568D02*
X0318593Y0128568D01*
X0318593Y0126969D02*
X0319343Y0126969D01*
X0319343Y0125370D02*
X0318593Y0125370D01*
X0318593Y0123772D02*
X0319343Y0123772D01*
X0319343Y0122173D02*
X0318593Y0122173D01*
X0318593Y0120575D02*
X0319343Y0120575D01*
X0319343Y0118976D02*
X0318593Y0118976D01*
X0318593Y0117378D02*
X0319343Y0117378D01*
X0319343Y0115779D02*
X0318593Y0115779D01*
X0318593Y0114181D02*
X0319343Y0114181D01*
X0319343Y0112582D02*
X0318593Y0112582D01*
X0318593Y0110984D02*
X0319343Y0110984D01*
X0319343Y0109385D02*
X0318593Y0109385D01*
X0318593Y0107787D02*
X0319343Y0107787D01*
X0319343Y0106188D02*
X0318593Y0106188D01*
X0318593Y0104590D02*
X0319343Y0104590D01*
X0319343Y0102991D02*
X0318593Y0102991D01*
X0318593Y0101393D02*
X0319343Y0101393D01*
X0319343Y0099794D02*
X0318593Y0099794D01*
X0318593Y0098196D02*
X0319343Y0098196D01*
X0319343Y0096597D02*
X0318593Y0096597D01*
X0318593Y0094999D02*
X0319343Y0094999D01*
X0319343Y0093400D02*
X0318593Y0093400D01*
X0318593Y0091802D02*
X0319343Y0091802D01*
X0319343Y0090203D02*
X0318593Y0090203D01*
X0318593Y0088605D02*
X0319343Y0088605D01*
X0319343Y0087006D02*
X0318593Y0087006D01*
X0318593Y0085408D02*
X0319343Y0085408D01*
X0319343Y0083809D02*
X0318593Y0083809D01*
X0318593Y0082211D02*
X0319343Y0082211D01*
X0319343Y0080612D02*
X0318593Y0080612D01*
X0318593Y0079014D02*
X0319343Y0079014D01*
X0319343Y0077415D02*
X0318593Y0077415D01*
X0318593Y0075817D02*
X0319343Y0075817D01*
X0319343Y0074218D02*
X0318593Y0074218D01*
X0318593Y0072620D02*
X0319343Y0072620D01*
X0319343Y0071021D02*
X0318593Y0071021D01*
X0318593Y0069423D02*
X0319343Y0069423D01*
X0319343Y0067824D02*
X0318593Y0067824D01*
X0318593Y0066226D02*
X0319343Y0066226D01*
X0319343Y0064627D02*
X0318593Y0064627D01*
X0318593Y0063029D02*
X0319343Y0063029D01*
X0319343Y0061430D02*
X0318593Y0061430D01*
X0318593Y0059832D02*
X0319343Y0059832D01*
X0319343Y0058233D02*
X0318593Y0058233D01*
X0318593Y0056634D02*
X0319343Y0056634D01*
X0319343Y0055036D02*
X0318593Y0055036D01*
X0318593Y0053437D02*
X0319343Y0053437D01*
X0319343Y0051839D02*
X0318593Y0051839D01*
X0318593Y0050240D02*
X0319343Y0050240D01*
X0319343Y0048642D02*
X0318593Y0048642D01*
X0318593Y0047043D02*
X0319343Y0047043D01*
X0319343Y0045445D02*
X0318593Y0045445D01*
X0318593Y0043846D02*
X0319343Y0043846D01*
X0319343Y0042248D02*
X0318452Y0042248D01*
X0319343Y0040649D02*
X0316854Y0040649D01*
X0315255Y0039051D02*
X0319343Y0039051D01*
X0319343Y0037452D02*
X0313657Y0037452D01*
X0312058Y0035854D02*
X0319343Y0035854D01*
X0319343Y0034255D02*
X0310460Y0034255D01*
X0308861Y0032657D02*
X0319343Y0032657D01*
X0319343Y0031058D02*
X0109245Y0031058D01*
X0107647Y0029460D02*
X0319343Y0029460D01*
X0319343Y0027861D02*
X0106048Y0027861D01*
X0104450Y0026263D02*
X0319343Y0026263D01*
X0319343Y0024664D02*
X0102851Y0024664D01*
X0101253Y0023066D02*
X0319343Y0023066D01*
X0319343Y0021467D02*
X0099654Y0021467D01*
X0098056Y0019869D02*
X0319343Y0019869D01*
X0319343Y0018270D02*
X0096457Y0018270D01*
X0096452Y0018265D02*
X0114352Y0036165D01*
X0115028Y0036841D01*
X0115393Y0037723D01*
X0115393Y0048706D01*
X0118521Y0051834D01*
X0119890Y0050240D02*
X0116928Y0050240D01*
X0115393Y0048642D02*
X0119911Y0048642D01*
X0118428Y0047043D02*
X0115393Y0047043D01*
X0115393Y0045445D02*
X0117821Y0045445D01*
X0117750Y0043846D02*
X0115393Y0043846D01*
X0115393Y0042248D02*
X0118199Y0042248D01*
X0119356Y0040649D02*
X0115393Y0040649D01*
X0115393Y0039051D02*
X0156408Y0039051D01*
X0157935Y0037452D02*
X0115281Y0037452D01*
X0114352Y0036165D02*
X0114352Y0036165D01*
X0114041Y0035854D02*
X0159462Y0035854D01*
X0160989Y0034255D02*
X0112442Y0034255D01*
X0110844Y0032657D02*
X0162516Y0032657D01*
X0164020Y0037452D02*
X0307434Y0037452D01*
X0314193Y0048642D02*
X0255377Y0048642D01*
X0257030Y0050240D02*
X0314193Y0050240D01*
X0314193Y0051839D02*
X0258682Y0051839D01*
X0260342Y0053437D02*
X0278242Y0053437D01*
X0279548Y0052897D02*
X0275920Y0054400D01*
X0273143Y0057176D01*
X0271640Y0060804D01*
X0271640Y0064731D01*
X0273143Y0068359D01*
X0275920Y0071136D01*
X0279548Y0072639D01*
X0283475Y0072639D01*
X0287102Y0071136D01*
X0289879Y0068359D01*
X0291382Y0064731D01*
X0291382Y0060804D01*
X0289879Y0057176D01*
X0287102Y0054400D01*
X0283475Y0052897D01*
X0279548Y0052897D01*
X0284780Y0053437D02*
X0314193Y0053437D01*
X0314193Y0055036D02*
X0287739Y0055036D01*
X0289337Y0056634D02*
X0314193Y0056634D01*
X0314193Y0058233D02*
X0290317Y0058233D01*
X0290979Y0059832D02*
X0314193Y0059832D01*
X0314193Y0061430D02*
X0291382Y0061430D01*
X0291382Y0063029D02*
X0314193Y0063029D01*
X0314193Y0064627D02*
X0291382Y0064627D01*
X0290763Y0066226D02*
X0314193Y0066226D01*
X0314193Y0067824D02*
X0290101Y0067824D01*
X0288816Y0069423D02*
X0314193Y0069423D01*
X0314193Y0071021D02*
X0287217Y0071021D01*
X0283520Y0072620D02*
X0314193Y0072620D01*
X0314193Y0074218D02*
X0270432Y0074218D01*
X0271176Y0075817D02*
X0314193Y0075817D01*
X0314193Y0077415D02*
X0271520Y0077415D01*
X0271520Y0079014D02*
X0314193Y0079014D01*
X0314193Y0080612D02*
X0270904Y0080612D01*
X0269775Y0082211D02*
X0314193Y0082211D01*
X0314193Y0083809D02*
X0267268Y0083809D01*
X0263313Y0083809D02*
X0261193Y0083809D01*
X0261193Y0085408D02*
X0314193Y0085408D01*
X0314193Y0087006D02*
X0261193Y0087006D01*
X0261193Y0088605D02*
X0314193Y0088605D01*
X0314193Y0090203D02*
X0261193Y0090203D01*
X0261193Y0091802D02*
X0314193Y0091802D01*
X0314193Y0093400D02*
X0261193Y0093400D01*
X0261193Y0094999D02*
X0314193Y0094999D01*
X0314193Y0096597D02*
X0261193Y0096597D01*
X0261193Y0098196D02*
X0314193Y0098196D01*
X0314193Y0099794D02*
X0261193Y0099794D01*
X0261193Y0101393D02*
X0314193Y0101393D01*
X0314193Y0102991D02*
X0261193Y0102991D01*
X0261193Y0104590D02*
X0314193Y0104590D01*
X0314193Y0106188D02*
X0261193Y0106188D01*
X0261193Y0107787D02*
X0314193Y0107787D01*
X0314193Y0109385D02*
X0261193Y0109385D01*
X0261193Y0110984D02*
X0314193Y0110984D01*
X0314193Y0112582D02*
X0261193Y0112582D01*
X0261193Y0114181D02*
X0314193Y0114181D01*
X0314193Y0115779D02*
X0261193Y0115779D01*
X0261193Y0117378D02*
X0314193Y0117378D01*
X0314193Y0118976D02*
X0261193Y0118976D01*
X0261193Y0120575D02*
X0314193Y0120575D01*
X0314193Y0122173D02*
X0261193Y0122173D01*
X0261193Y0123772D02*
X0314193Y0123772D01*
X0314193Y0125370D02*
X0261193Y0125370D01*
X0261193Y0126969D02*
X0314193Y0126969D01*
X0314193Y0128568D02*
X0261193Y0128568D01*
X0261193Y0130166D02*
X0314193Y0130166D01*
X0314193Y0131765D02*
X0261193Y0131765D01*
X0261193Y0133363D02*
X0314193Y0133363D01*
X0314193Y0134962D02*
X0261193Y0134962D01*
X0261193Y0136560D02*
X0314193Y0136560D01*
X0314193Y0138159D02*
X0261193Y0138159D01*
X0261193Y0139757D02*
X0314193Y0139757D01*
X0314193Y0141356D02*
X0261193Y0141356D01*
X0261193Y0142954D02*
X0314193Y0142954D01*
X0314193Y0144553D02*
X0261193Y0144553D01*
X0261193Y0146151D02*
X0314193Y0146151D01*
X0314193Y0147750D02*
X0261193Y0147750D01*
X0261193Y0149348D02*
X0314193Y0149348D01*
X0314193Y0150947D02*
X0261193Y0150947D01*
X0261193Y0152545D02*
X0314193Y0152545D01*
X0314193Y0154144D02*
X0261193Y0154144D01*
X0261193Y0155742D02*
X0314193Y0155742D01*
X0314193Y0157341D02*
X0261193Y0157341D01*
X0261193Y0158939D02*
X0314193Y0158939D01*
X0314193Y0160538D02*
X0261193Y0160538D01*
X0261193Y0162136D02*
X0314193Y0162136D01*
X0314193Y0163735D02*
X0261193Y0163735D01*
X0261193Y0165333D02*
X0314193Y0165333D01*
X0314193Y0166932D02*
X0261193Y0166932D01*
X0261193Y0168530D02*
X0314193Y0168530D01*
X0314193Y0170129D02*
X0261193Y0170129D01*
X0261193Y0171727D02*
X0314193Y0171727D01*
X0314193Y0173326D02*
X0261193Y0173326D01*
X0261193Y0174924D02*
X0314193Y0174924D01*
X0314193Y0176523D02*
X0261193Y0176523D01*
X0261193Y0178121D02*
X0314193Y0178121D01*
X0314193Y0179720D02*
X0261193Y0179720D01*
X0261193Y0181318D02*
X0314193Y0181318D01*
X0314193Y0182917D02*
X0260887Y0182917D01*
X0259689Y0184515D02*
X0314193Y0184515D01*
X0314193Y0186114D02*
X0234226Y0186114D01*
X0229360Y0186114D02*
X0226793Y0186114D01*
X0226793Y0187712D02*
X0314193Y0187712D01*
X0314193Y0189311D02*
X0226793Y0189311D01*
X0226793Y0190909D02*
X0251836Y0190909D01*
X0250812Y0191934D02*
X0253027Y0189719D01*
X0256159Y0189719D01*
X0258374Y0191934D01*
X0258374Y0195066D01*
X0256159Y0197281D01*
X0254206Y0197281D01*
X0237971Y0213516D01*
X0237757Y0223217D01*
X0239074Y0224534D01*
X0239074Y0227666D01*
X0236859Y0229881D01*
X0233727Y0229881D01*
X0231512Y0227666D01*
X0231512Y0224534D01*
X0232959Y0223087D01*
X0233193Y0212473D01*
X0233193Y0212023D01*
X0233204Y0211997D01*
X0233204Y0211970D01*
X0233386Y0211557D01*
X0233558Y0211141D01*
X0233578Y0211121D01*
X0233589Y0211096D01*
X0233915Y0210784D01*
X0250812Y0193887D01*
X0250812Y0191934D01*
X0250812Y0192508D02*
X0226793Y0192508D01*
X0226793Y0194106D02*
X0250592Y0194106D01*
X0248994Y0195705D02*
X0226793Y0195705D01*
X0226793Y0197303D02*
X0247395Y0197303D01*
X0245797Y0198902D02*
X0226793Y0198902D01*
X0226793Y0200501D02*
X0244198Y0200501D01*
X0242600Y0202099D02*
X0226793Y0202099D01*
X0226793Y0203698D02*
X0241001Y0203698D01*
X0239403Y0205296D02*
X0226793Y0205296D01*
X0226793Y0206895D02*
X0237804Y0206895D01*
X0236206Y0208493D02*
X0226793Y0208493D01*
X0226793Y0210092D02*
X0234607Y0210092D01*
X0233327Y0211690D02*
X0226793Y0211690D01*
X0226793Y0213289D02*
X0233175Y0213289D01*
X0233140Y0214887D02*
X0226793Y0214887D01*
X0226793Y0216486D02*
X0233104Y0216486D01*
X0233069Y0218084D02*
X0226793Y0218084D01*
X0226793Y0219683D02*
X0233034Y0219683D01*
X0232999Y0221281D02*
X0226793Y0221281D01*
X0226793Y0222880D02*
X0232963Y0222880D01*
X0231568Y0224478D02*
X0226793Y0224478D01*
X0226793Y0226077D02*
X0231512Y0226077D01*
X0231521Y0227675D02*
X0226793Y0227675D01*
X0226793Y0229274D02*
X0233119Y0229274D01*
X0235293Y0226100D02*
X0235593Y0212500D01*
X0254593Y0193500D01*
X0257350Y0190909D02*
X0314193Y0190909D01*
X0314193Y0192508D02*
X0258374Y0192508D01*
X0258374Y0194106D02*
X0314193Y0194106D01*
X0314193Y0195705D02*
X0257735Y0195705D01*
X0254184Y0197303D02*
X0314193Y0197303D01*
X0314193Y0198902D02*
X0252585Y0198902D01*
X0250987Y0200501D02*
X0314193Y0200501D01*
X0314193Y0202099D02*
X0249388Y0202099D01*
X0247790Y0203698D02*
X0314193Y0203698D01*
X0314193Y0205296D02*
X0246191Y0205296D01*
X0244593Y0206895D02*
X0314193Y0206895D01*
X0314193Y0208493D02*
X0242994Y0208493D01*
X0241396Y0210092D02*
X0314193Y0210092D01*
X0314193Y0211690D02*
X0239797Y0211690D01*
X0238198Y0213289D02*
X0314193Y0213289D01*
X0314193Y0214887D02*
X0237941Y0214887D01*
X0237906Y0216486D02*
X0314193Y0216486D01*
X0314193Y0218084D02*
X0237870Y0218084D01*
X0237835Y0219683D02*
X0314193Y0219683D01*
X0314193Y0221281D02*
X0237800Y0221281D01*
X0237765Y0222880D02*
X0314193Y0222880D01*
X0314193Y0224478D02*
X0239018Y0224478D01*
X0239074Y0226077D02*
X0314193Y0226077D01*
X0314193Y0227675D02*
X0239065Y0227675D01*
X0237467Y0229274D02*
X0314193Y0229274D01*
X0314193Y0230872D02*
X0226793Y0230872D01*
X0226793Y0232471D02*
X0314193Y0232471D01*
X0314193Y0234069D02*
X0226465Y0234069D01*
X0225521Y0235668D02*
X0314193Y0235668D01*
X0314193Y0237266D02*
X0224610Y0237266D01*
X0223698Y0238865D02*
X0314193Y0238865D01*
X0314193Y0240463D02*
X0222787Y0240463D01*
X0221876Y0242062D02*
X0314193Y0242062D01*
X0314193Y0243660D02*
X0220965Y0243660D01*
X0220053Y0245259D02*
X0314193Y0245259D01*
X0314193Y0246857D02*
X0219142Y0246857D01*
X0218231Y0248456D02*
X0314193Y0248456D01*
X0314193Y0250054D02*
X0217320Y0250054D01*
X0216408Y0251653D02*
X0314193Y0251653D01*
X0314193Y0253251D02*
X0215497Y0253251D01*
X0214633Y0254850D02*
X0314193Y0254850D01*
X0314193Y0256448D02*
X0180392Y0256448D01*
X0177893Y0253600D02*
X0212593Y0253500D01*
X0224393Y0232800D01*
X0224393Y0153000D01*
X0217193Y0145200D01*
X0205593Y0131200D01*
X0173393Y0131200D01*
X0173293Y0131300D01*
X0166393Y0131300D01*
X0156893Y0141100D01*
X0160674Y0141356D02*
X0210891Y0141356D01*
X0212215Y0142954D02*
X0160218Y0142954D01*
X0161537Y0139757D02*
X0209566Y0139757D01*
X0208242Y0138159D02*
X0163087Y0138159D01*
X0164637Y0136560D02*
X0206917Y0136560D01*
X0205593Y0134962D02*
X0166186Y0134962D01*
X0162600Y0131765D02*
X0139253Y0131765D01*
X0139741Y0133363D02*
X0161051Y0133363D01*
X0159501Y0134962D02*
X0140228Y0134962D01*
X0140716Y0136560D02*
X0157951Y0136560D01*
X0164150Y0130166D02*
X0138655Y0130166D01*
X0127884Y0134962D02*
X0104479Y0134962D01*
X0098493Y0134200D02*
X0094693Y0131400D01*
X0094693Y0128300D01*
X0098474Y0128568D02*
X0100178Y0128568D01*
X0098612Y0130166D02*
X0098174Y0130166D01*
X0094493Y0137000D02*
X0094693Y0143400D01*
X0091745Y0142954D02*
X0055789Y0142954D01*
X0055757Y0141356D02*
X0092228Y0141356D01*
X0091903Y0139757D02*
X0055725Y0139757D01*
X0055697Y0138159D02*
X0090712Y0138159D01*
X0090712Y0136560D02*
X0055150Y0136560D01*
X0054974Y0134962D02*
X0073902Y0134962D01*
X0071637Y0133363D02*
X0054974Y0133363D01*
X0054205Y0131765D02*
X0070271Y0131765D01*
X0055821Y0144553D02*
X0090146Y0144553D01*
X0088548Y0146151D02*
X0055852Y0146151D01*
X0056437Y0147750D02*
X0086949Y0147750D01*
X0085351Y0149348D02*
X0058035Y0149348D01*
X0054444Y0152545D02*
X0052361Y0152545D01*
X0052361Y0150947D02*
X0052846Y0150947D01*
X0052361Y0154144D02*
X0056043Y0154144D01*
X0048793Y0154846D02*
X0048393Y0155246D01*
X0048493Y0161800D01*
X0046988Y0142954D02*
X0050988Y0142954D01*
X0050956Y0141356D02*
X0046593Y0141356D01*
X0046593Y0139757D02*
X0050924Y0139757D01*
X0050575Y0138159D02*
X0046593Y0138159D01*
X0086951Y0134962D02*
X0091184Y0134962D01*
X0100893Y0141356D02*
X0132516Y0141356D01*
X0132529Y0142954D02*
X0100893Y0142954D01*
X0100893Y0144553D02*
X0132541Y0144553D01*
X0132554Y0146151D02*
X0100893Y0146151D01*
X0100893Y0147750D02*
X0132567Y0147750D01*
X0132580Y0149348D02*
X0100893Y0149348D01*
X0100893Y0150947D02*
X0132593Y0150947D01*
X0132605Y0152545D02*
X0100893Y0152545D01*
X0100893Y0154144D02*
X0132618Y0154144D01*
X0132631Y0155742D02*
X0100893Y0155742D01*
X0100893Y0157341D02*
X0132644Y0157341D01*
X0132656Y0158939D02*
X0100893Y0158939D01*
X0100893Y0160538D02*
X0132669Y0160538D01*
X0132682Y0162136D02*
X0100893Y0162136D01*
X0134857Y0166932D02*
X0138293Y0166932D01*
X0138293Y0165333D02*
X0136656Y0165333D01*
X0137495Y0163735D02*
X0138293Y0163735D01*
X0138293Y0162136D02*
X0137482Y0162136D01*
X0137469Y0160538D02*
X0138293Y0160538D01*
X0138293Y0158939D02*
X0137457Y0158939D01*
X0137444Y0157341D02*
X0138293Y0157341D01*
X0138293Y0155742D02*
X0137431Y0155742D01*
X0137418Y0154144D02*
X0138562Y0154144D01*
X0137405Y0152545D02*
X0140940Y0152545D01*
X0148093Y0151900D02*
X0171993Y0151800D01*
X0180593Y0161800D01*
X0202993Y0161900D01*
X0204993Y0163900D01*
X0204993Y0213700D01*
X0199493Y0219200D01*
X0197293Y0221100D01*
X0197193Y0221000D01*
X0196393Y0221100D01*
X0192887Y0219683D02*
X0161003Y0219683D01*
X0161006Y0221281D02*
X0192612Y0221281D01*
X0193038Y0222880D02*
X0161009Y0222880D01*
X0161012Y0224478D02*
X0194668Y0224478D01*
X0198118Y0224478D02*
X0221993Y0224478D01*
X0221993Y0222880D02*
X0199748Y0222880D01*
X0200755Y0221281D02*
X0221993Y0221281D01*
X0221993Y0219683D02*
X0202404Y0219683D01*
X0204003Y0218084D02*
X0221993Y0218084D01*
X0221993Y0216486D02*
X0205601Y0216486D01*
X0207099Y0214887D02*
X0221993Y0214887D01*
X0221993Y0213289D02*
X0207393Y0213289D01*
X0207393Y0211690D02*
X0221993Y0211690D01*
X0221993Y0210092D02*
X0207393Y0210092D01*
X0207393Y0208493D02*
X0221993Y0208493D01*
X0221993Y0206895D02*
X0207393Y0206895D01*
X0207393Y0205296D02*
X0221993Y0205296D01*
X0221993Y0203698D02*
X0207393Y0203698D01*
X0207393Y0202099D02*
X0221993Y0202099D01*
X0221993Y0200501D02*
X0207393Y0200501D01*
X0207393Y0198902D02*
X0221993Y0198902D01*
X0221993Y0197303D02*
X0207393Y0197303D01*
X0207393Y0195705D02*
X0221993Y0195705D01*
X0221993Y0194106D02*
X0207393Y0194106D01*
X0207393Y0192508D02*
X0221993Y0192508D01*
X0221993Y0190909D02*
X0207393Y0190909D01*
X0207393Y0189311D02*
X0221993Y0189311D01*
X0221993Y0187712D02*
X0207393Y0187712D01*
X0207393Y0186114D02*
X0221993Y0186114D01*
X0221993Y0184515D02*
X0207393Y0184515D01*
X0207393Y0182917D02*
X0221993Y0182917D01*
X0221993Y0181318D02*
X0207393Y0181318D01*
X0207393Y0179720D02*
X0221993Y0179720D01*
X0221993Y0178121D02*
X0207393Y0178121D01*
X0207393Y0176523D02*
X0221993Y0176523D01*
X0221993Y0174924D02*
X0207393Y0174924D01*
X0207393Y0173326D02*
X0221993Y0173326D01*
X0221993Y0171727D02*
X0207393Y0171727D01*
X0207393Y0170129D02*
X0221993Y0170129D01*
X0221993Y0168530D02*
X0207393Y0168530D01*
X0207393Y0166932D02*
X0221993Y0166932D01*
X0221993Y0165333D02*
X0207393Y0165333D01*
X0207393Y0163735D02*
X0221993Y0163735D01*
X0221993Y0162136D02*
X0206623Y0162136D01*
X0205025Y0160538D02*
X0221993Y0160538D01*
X0221993Y0158939D02*
X0181298Y0158939D01*
X0179923Y0157341D02*
X0221993Y0157341D01*
X0221993Y0155742D02*
X0178549Y0155742D01*
X0177174Y0154144D02*
X0221993Y0154144D01*
X0220707Y0152545D02*
X0175799Y0152545D01*
X0174425Y0150947D02*
X0219231Y0150947D01*
X0222813Y0147750D02*
X0252693Y0147750D01*
X0252693Y0149348D02*
X0224288Y0149348D01*
X0225764Y0150947D02*
X0252693Y0150947D01*
X0252693Y0152545D02*
X0226793Y0152545D01*
X0226793Y0154144D02*
X0252693Y0154144D01*
X0252693Y0155742D02*
X0226793Y0155742D01*
X0226793Y0157341D02*
X0252693Y0157341D01*
X0252693Y0158939D02*
X0226793Y0158939D01*
X0226793Y0160538D02*
X0252693Y0160538D01*
X0252693Y0162136D02*
X0226793Y0162136D01*
X0226793Y0163735D02*
X0252693Y0163735D01*
X0252693Y0165333D02*
X0226793Y0165333D01*
X0226793Y0166932D02*
X0252693Y0166932D01*
X0252693Y0168530D02*
X0226793Y0168530D01*
X0226793Y0170129D02*
X0252693Y0170129D01*
X0252693Y0171727D02*
X0239368Y0171727D01*
X0237393Y0175100D02*
X0237893Y0175800D01*
X0239719Y0178121D02*
X0256793Y0178121D01*
X0256793Y0176523D02*
X0256281Y0176523D01*
X0256793Y0179720D02*
X0233660Y0179720D01*
X0235067Y0178121D02*
X0226793Y0178121D01*
X0226793Y0176523D02*
X0233612Y0176523D01*
X0233612Y0174924D02*
X0226793Y0174924D01*
X0226793Y0173326D02*
X0233820Y0173326D01*
X0235418Y0171727D02*
X0226793Y0171727D01*
X0226793Y0179720D02*
X0229926Y0179720D01*
X0228327Y0181318D02*
X0226793Y0181318D01*
X0226793Y0182917D02*
X0228012Y0182917D01*
X0228012Y0184515D02*
X0226793Y0184515D01*
X0202593Y0203698D02*
X0160971Y0203698D01*
X0160974Y0205296D02*
X0202593Y0205296D01*
X0202593Y0206895D02*
X0160977Y0206895D01*
X0160980Y0208493D02*
X0202593Y0208493D01*
X0202593Y0210092D02*
X0160984Y0210092D01*
X0160987Y0211690D02*
X0202593Y0211690D01*
X0202010Y0213289D02*
X0160990Y0213289D01*
X0160993Y0214887D02*
X0200412Y0214887D01*
X0198813Y0216486D02*
X0160996Y0216486D01*
X0161000Y0218084D02*
X0194062Y0218084D01*
X0218173Y0238865D02*
X0161041Y0238865D01*
X0161045Y0240463D02*
X0217262Y0240463D01*
X0216351Y0242062D02*
X0161048Y0242062D01*
X0161051Y0243660D02*
X0215440Y0243660D01*
X0214528Y0245259D02*
X0161054Y0245259D01*
X0161057Y0246857D02*
X0213617Y0246857D01*
X0212706Y0248456D02*
X0161061Y0248456D01*
X0161064Y0250054D02*
X0176572Y0250054D01*
X0174607Y0251653D02*
X0161067Y0251653D01*
X0161070Y0253251D02*
X0174112Y0253251D01*
X0174318Y0254850D02*
X0161073Y0254850D01*
X0161077Y0256448D02*
X0175394Y0256448D01*
X0179214Y0250054D02*
X0211795Y0250054D01*
X0219084Y0237266D02*
X0161038Y0237266D01*
X0161035Y0235668D02*
X0219996Y0235668D01*
X0220907Y0234069D02*
X0161032Y0234069D01*
X0161028Y0232471D02*
X0221818Y0232471D01*
X0221993Y0230872D02*
X0161025Y0230872D01*
X0161022Y0229274D02*
X0221993Y0229274D01*
X0221993Y0227675D02*
X0161019Y0227675D01*
X0161016Y0226077D02*
X0221993Y0226077D01*
X0197260Y0184515D02*
X0175493Y0184515D01*
X0175493Y0182917D02*
X0197286Y0182917D01*
X0197313Y0181318D02*
X0175493Y0181318D01*
X0175493Y0179720D02*
X0197339Y0179720D01*
X0197365Y0178121D02*
X0175493Y0178121D01*
X0175493Y0176523D02*
X0197391Y0176523D01*
X0197418Y0174924D02*
X0175493Y0174924D01*
X0175493Y0173326D02*
X0197444Y0173326D01*
X0197470Y0171727D02*
X0175493Y0171727D01*
X0175493Y0170129D02*
X0197497Y0170129D01*
X0197523Y0168530D02*
X0175493Y0168530D01*
X0175493Y0166932D02*
X0197549Y0166932D01*
X0221337Y0146151D02*
X0231597Y0146151D01*
X0233593Y0142800D02*
X0221793Y0142900D01*
X0218793Y0140400D01*
X0221899Y0138159D02*
X0252693Y0138159D01*
X0252693Y0139757D02*
X0235897Y0139757D01*
X0237374Y0141356D02*
X0252693Y0141356D01*
X0252693Y0142954D02*
X0237374Y0142954D01*
X0237188Y0144553D02*
X0252693Y0144553D01*
X0252693Y0146151D02*
X0235589Y0146151D01*
X0231289Y0139757D02*
X0222574Y0139757D01*
X0220027Y0144553D02*
X0219862Y0144553D01*
X0215687Y0138159D02*
X0214475Y0138159D01*
X0213151Y0136560D02*
X0252693Y0136560D01*
X0252693Y0134962D02*
X0211826Y0134962D01*
X0210502Y0133363D02*
X0252693Y0133363D01*
X0252693Y0131765D02*
X0209178Y0131765D01*
X0207853Y0130166D02*
X0252693Y0130166D01*
X0252693Y0077415D02*
X0243374Y0077415D01*
X0244419Y0075817D02*
X0252693Y0075817D01*
X0252693Y0074218D02*
X0244784Y0074218D01*
X0244642Y0072620D02*
X0252693Y0072620D01*
X0252693Y0071021D02*
X0243913Y0071021D01*
X0241866Y0069423D02*
X0252693Y0069423D01*
X0252693Y0067824D02*
X0243122Y0067824D01*
X0244315Y0066226D02*
X0252693Y0066226D01*
X0252693Y0064627D02*
X0244784Y0064627D01*
X0244746Y0063029D02*
X0252455Y0063029D01*
X0250754Y0061430D02*
X0244084Y0061430D01*
X0261193Y0061430D02*
X0271640Y0061430D01*
X0271640Y0063029D02*
X0261193Y0063029D01*
X0261193Y0064627D02*
X0271640Y0064627D01*
X0272259Y0066226D02*
X0261193Y0066226D01*
X0261193Y0067824D02*
X0272921Y0067824D01*
X0274206Y0069423D02*
X0261193Y0069423D01*
X0261193Y0071021D02*
X0275805Y0071021D01*
X0279502Y0072620D02*
X0268834Y0072620D01*
X0261748Y0072620D02*
X0261193Y0072620D01*
X0261193Y0059832D02*
X0272043Y0059832D01*
X0272705Y0058233D02*
X0261193Y0058233D01*
X0261193Y0056634D02*
X0273685Y0056634D01*
X0275283Y0055036D02*
X0261193Y0055036D01*
X0223203Y0069423D02*
X0213520Y0069423D01*
X0214776Y0067824D02*
X0221947Y0067824D01*
X0221157Y0071021D02*
X0215566Y0071021D01*
X0216296Y0072620D02*
X0220427Y0072620D01*
X0220286Y0074218D02*
X0216437Y0074218D01*
X0216073Y0075817D02*
X0220650Y0075817D01*
X0221696Y0077415D02*
X0215027Y0077415D01*
X0207916Y0077415D02*
X0205185Y0077415D01*
X0206230Y0075817D02*
X0206871Y0075817D01*
X0198073Y0077415D02*
X0195342Y0077415D01*
X0196387Y0075817D02*
X0197028Y0075817D01*
X0188231Y0077415D02*
X0185500Y0077415D01*
X0186545Y0075817D02*
X0187186Y0075817D01*
X0178388Y0077415D02*
X0175657Y0077415D01*
X0176702Y0075817D02*
X0177343Y0075817D01*
X0168546Y0077415D02*
X0165815Y0077415D01*
X0166860Y0075817D02*
X0167501Y0075817D01*
X0152417Y0073949D02*
X0144065Y0082300D01*
X0102693Y0082300D01*
X0095293Y0089700D01*
X0092639Y0087006D02*
X0078993Y0087006D01*
X0078993Y0085408D02*
X0096191Y0085408D01*
X0095446Y0083809D02*
X0078993Y0083809D01*
X0080298Y0082211D02*
X0093050Y0082211D01*
X0091968Y0080612D02*
X0081822Y0080612D01*
X0083345Y0079014D02*
X0091384Y0079014D01*
X0091384Y0077415D02*
X0084868Y0077415D01*
X0086392Y0075817D02*
X0091761Y0075817D01*
X0092551Y0074218D02*
X0087915Y0074218D01*
X0089439Y0072620D02*
X0094240Y0072620D01*
X0090962Y0071021D02*
X0098867Y0071021D01*
X0098812Y0069423D02*
X0092485Y0069423D01*
X0094009Y0067824D02*
X0098822Y0067824D01*
X0100420Y0066226D02*
X0095532Y0066226D01*
X0097055Y0064627D02*
X0117742Y0064627D01*
X0117830Y0063029D02*
X0098579Y0063029D01*
X0104766Y0066226D02*
X0118172Y0066226D01*
X0119302Y0067824D02*
X0106364Y0067824D01*
X0106374Y0069423D02*
X0120841Y0069423D01*
X0118795Y0071021D02*
X0107608Y0071021D01*
X0107142Y0073949D02*
X0122889Y0073949D01*
X0123172Y0064389D02*
X0132449Y0064389D01*
X0132449Y0063824D01*
X0128054Y0063824D01*
X0123172Y0063824D01*
X0123172Y0064389D01*
X0122889Y0064106D02*
X0132732Y0064106D01*
X0142574Y0064106D01*
X0152417Y0064106D01*
X0152134Y0063824D02*
X0152134Y0064389D01*
X0142857Y0064389D01*
X0142857Y0063824D01*
X0147251Y0063824D01*
X0152134Y0063824D01*
X0142291Y0063824D02*
X0137409Y0063824D01*
X0133014Y0063824D01*
X0133014Y0064389D01*
X0142291Y0064389D01*
X0142291Y0063824D01*
X0142291Y0044704D02*
X0133014Y0044704D01*
X0133014Y0044139D01*
X0137409Y0044139D01*
X0142291Y0044139D01*
X0142291Y0044704D01*
X0142291Y0043846D02*
X0142857Y0043846D01*
X0142857Y0042248D02*
X0142291Y0042248D01*
X0142291Y0040649D02*
X0142857Y0040649D01*
X0146107Y0040649D02*
X0149166Y0040649D01*
X0147942Y0042248D02*
X0147264Y0042248D01*
X0139041Y0040649D02*
X0136265Y0040649D01*
X0137421Y0042248D02*
X0137884Y0042248D01*
X0133014Y0042248D02*
X0132449Y0042248D01*
X0132449Y0043846D02*
X0133014Y0043846D01*
X0132449Y0044139D02*
X0128054Y0044139D01*
X0123172Y0044139D01*
X0123172Y0044704D01*
X0132449Y0044704D01*
X0132449Y0044139D01*
X0132449Y0040649D02*
X0133014Y0040649D01*
X0129199Y0040649D02*
X0126422Y0040649D01*
X0127579Y0042248D02*
X0128042Y0042248D01*
X0123172Y0042248D02*
X0122606Y0042248D01*
X0122606Y0043846D02*
X0123172Y0043846D01*
X0123172Y0040649D02*
X0122606Y0040649D01*
X0096452Y0018265D02*
X0095570Y0017900D01*
X0046743Y0017900D01*
X0046717Y0017890D01*
X0046266Y0017900D01*
X0045816Y0017900D01*
X0045790Y0017911D01*
X0045762Y0017911D01*
X0045350Y0018093D01*
X0044934Y0018265D01*
X0044914Y0018285D01*
X0044889Y0018296D01*
X0044577Y0018622D01*
X0044258Y0018941D01*
X0044248Y0018966D01*
X0043443Y0019807D01*
X0043443Y0018270D02*
X0044929Y0018270D01*
X0043443Y0016672D02*
X0319343Y0016672D01*
X0191504Y0053981D02*
X0186621Y0053981D01*
X0182227Y0053981D01*
X0182227Y0054546D01*
X0191504Y0054546D01*
X0191504Y0053981D01*
X0121183Y0091802D02*
X0108239Y0091802D01*
X0093646Y0093400D02*
X0078993Y0093400D01*
X0078993Y0091802D02*
X0092047Y0091802D01*
X0091512Y0090203D02*
X0078993Y0090203D01*
X0078993Y0088605D02*
X0091512Y0088605D01*
X0107142Y0073949D02*
X0102593Y0069400D01*
X0067593Y0049600D02*
X0065993Y0039500D01*
X0060534Y0043846D02*
X0059652Y0043846D01*
X0080574Y0104590D02*
X0093656Y0104590D01*
X0153193Y0162136D02*
X0156009Y0162136D01*
X0156927Y0161219D02*
X0160059Y0161219D01*
X0162274Y0163434D01*
X0162274Y0166566D01*
X0160899Y0167941D01*
X0161092Y0264125D01*
X0161095Y0264132D01*
X0161093Y0264600D01*
X0161094Y0265073D01*
X0161091Y0265079D01*
X0161091Y0265087D01*
X0160910Y0265519D01*
X0160730Y0265955D01*
X0160725Y0265961D01*
X0160722Y0265968D01*
X0160389Y0266298D01*
X0160057Y0266632D01*
X0160050Y0266635D01*
X0160044Y0266640D01*
X0159610Y0266818D01*
X0159175Y0266999D01*
X0159168Y0266999D01*
X0159161Y0267002D01*
X0158692Y0267000D01*
X0158220Y0267001D01*
X0158214Y0266998D01*
X0136429Y0266912D01*
X0135059Y0268281D01*
X0131927Y0268281D01*
X0129712Y0266066D01*
X0129712Y0262934D01*
X0131927Y0260719D01*
X0135059Y0260719D01*
X0136452Y0262112D01*
X0156288Y0262190D01*
X0156099Y0167953D01*
X0154712Y0166566D01*
X0154712Y0163434D01*
X0156927Y0161219D01*
X0154712Y0163735D02*
X0153193Y0163735D01*
X0153193Y0165333D02*
X0154712Y0165333D01*
X0155077Y0166932D02*
X0153193Y0166932D01*
X0153193Y0168530D02*
X0156100Y0168530D01*
X0156103Y0170129D02*
X0153193Y0170129D01*
X0153193Y0171727D02*
X0156106Y0171727D01*
X0156110Y0173326D02*
X0153193Y0173326D01*
X0152463Y0174924D02*
X0156113Y0174924D01*
X0156116Y0176523D02*
X0150864Y0176523D01*
X0149266Y0178121D02*
X0156119Y0178121D01*
X0156123Y0179720D02*
X0147667Y0179720D01*
X0146069Y0181318D02*
X0156126Y0181318D01*
X0156129Y0182917D02*
X0144470Y0182917D01*
X0160929Y0182917D02*
X0170693Y0182917D01*
X0170693Y0184515D02*
X0160932Y0184515D01*
X0160935Y0186114D02*
X0170693Y0186114D01*
X0170693Y0187712D02*
X0160939Y0187712D01*
X0160942Y0189311D02*
X0170693Y0189311D01*
X0170693Y0190909D02*
X0160945Y0190909D01*
X0160948Y0192508D02*
X0170693Y0192508D01*
X0170693Y0194106D02*
X0160951Y0194106D01*
X0160955Y0195705D02*
X0170693Y0195705D01*
X0169942Y0197303D02*
X0160958Y0197303D01*
X0160961Y0198902D02*
X0169312Y0198902D01*
X0169312Y0200501D02*
X0160964Y0200501D01*
X0160967Y0202099D02*
X0170345Y0202099D01*
X0170693Y0181318D02*
X0160926Y0181318D01*
X0160923Y0179720D02*
X0170693Y0179720D01*
X0170693Y0178121D02*
X0160919Y0178121D01*
X0160916Y0176523D02*
X0170693Y0176523D01*
X0170693Y0174924D02*
X0160913Y0174924D01*
X0160910Y0173326D02*
X0170693Y0173326D01*
X0170693Y0171727D02*
X0160906Y0171727D01*
X0160903Y0170129D02*
X0170693Y0170129D01*
X0170693Y0168530D02*
X0160900Y0168530D01*
X0161908Y0166932D02*
X0170693Y0166932D01*
X0170693Y0165333D02*
X0162274Y0165333D01*
X0162274Y0163735D02*
X0170693Y0163735D01*
X0169304Y0162136D02*
X0160977Y0162136D01*
X0158493Y0165000D02*
X0158693Y0264600D01*
X0133493Y0264500D01*
X0129712Y0264441D02*
X0129109Y0264441D01*
X0128993Y0262842D02*
X0129803Y0262842D01*
X0128993Y0261244D02*
X0131402Y0261244D01*
X0128993Y0259645D02*
X0156283Y0259645D01*
X0156280Y0258047D02*
X0130093Y0258047D01*
X0131574Y0256448D02*
X0156277Y0256448D01*
X0156273Y0254850D02*
X0131574Y0254850D01*
X0131392Y0253251D02*
X0156270Y0253251D01*
X0156267Y0251653D02*
X0129793Y0251653D01*
X0127793Y0255000D02*
X0126493Y0256000D01*
X0124593Y0261244D02*
X0124474Y0261244D01*
X0124474Y0262842D02*
X0124593Y0262842D01*
X0128057Y0266039D02*
X0129712Y0266039D01*
X0131284Y0267638D02*
X0127066Y0267638D01*
X0135702Y0267638D02*
X0314193Y0267638D01*
X0314193Y0266039D02*
X0160650Y0266039D01*
X0161094Y0264441D02*
X0314193Y0264441D01*
X0314193Y0262842D02*
X0161089Y0262842D01*
X0161086Y0261244D02*
X0314193Y0261244D01*
X0314193Y0259645D02*
X0161083Y0259645D01*
X0161080Y0258047D02*
X0314193Y0258047D01*
X0295304Y0275003D02*
X0294481Y0274735D01*
X0293626Y0274600D01*
X0293393Y0274600D01*
X0293393Y0279900D01*
X0298693Y0279900D01*
X0298693Y0279667D01*
X0298558Y0278812D01*
X0298290Y0277989D01*
X0297897Y0277217D01*
X0297388Y0276517D01*
X0296776Y0275905D01*
X0296076Y0275396D01*
X0295304Y0275003D01*
X0296398Y0275631D02*
X0314193Y0275631D01*
X0314193Y0277229D02*
X0297903Y0277229D01*
X0298560Y0278828D02*
X0314193Y0278828D01*
X0314193Y0280426D02*
X0298693Y0280426D01*
X0298351Y0282025D02*
X0314193Y0282025D01*
X0314193Y0283623D02*
X0297432Y0283623D01*
X0293393Y0283623D02*
X0292993Y0283623D01*
X0292993Y0282025D02*
X0293393Y0282025D01*
X0293393Y0280426D02*
X0292993Y0280426D01*
X0292993Y0278828D02*
X0293393Y0278828D01*
X0293393Y0277229D02*
X0292993Y0277229D01*
X0292993Y0275631D02*
X0293393Y0275631D01*
X0289988Y0275631D02*
X0286219Y0275631D01*
X0287740Y0277229D02*
X0288483Y0277229D01*
X0288954Y0283623D02*
X0287165Y0283623D01*
X0216776Y0277229D02*
X0212866Y0277229D01*
X0214523Y0278828D02*
X0215849Y0278828D01*
X0215593Y0280426D02*
X0215185Y0280426D01*
X0215193Y0282025D02*
X0215593Y0282025D01*
X0215593Y0283623D02*
X0215193Y0283623D01*
X0215193Y0285222D02*
X0215593Y0285222D01*
X0215593Y0286820D02*
X0215193Y0286820D01*
X0215193Y0288419D02*
X0215868Y0288419D01*
X0207420Y0291616D02*
X0201752Y0291616D01*
X0201564Y0291677D02*
X0200787Y0291800D01*
X0200593Y0291800D01*
X0200593Y0283800D01*
X0205393Y0283800D01*
X0205393Y0287194D01*
X0205270Y0287971D01*
X0205027Y0288719D01*
X0204669Y0289421D01*
X0204207Y0290057D01*
X0203650Y0290614D01*
X0203014Y0291076D01*
X0202312Y0291434D01*
X0201564Y0291677D01*
X0200593Y0291616D02*
X0200193Y0291616D01*
X0199034Y0291616D02*
X0193366Y0291616D01*
X0194670Y0290017D02*
X0196550Y0290017D01*
X0195662Y0288419D02*
X0195193Y0288419D01*
X0195193Y0286820D02*
X0195393Y0286820D01*
X0195393Y0285222D02*
X0195193Y0285222D01*
X0195193Y0283623D02*
X0200193Y0283623D01*
X0200593Y0283623D02*
X0205593Y0283623D01*
X0205593Y0282025D02*
X0205393Y0282025D01*
X0205393Y0280426D02*
X0205601Y0280426D01*
X0205139Y0278828D02*
X0206263Y0278828D01*
X0207920Y0277229D02*
X0204270Y0277229D01*
X0200593Y0277229D02*
X0200193Y0277229D01*
X0200193Y0278828D02*
X0200593Y0278828D01*
X0200593Y0280426D02*
X0200193Y0280426D01*
X0200193Y0282025D02*
X0200593Y0282025D01*
X0200593Y0285222D02*
X0200193Y0285222D01*
X0200193Y0286820D02*
X0200593Y0286820D01*
X0200593Y0288419D02*
X0200193Y0288419D01*
X0200193Y0290017D02*
X0200593Y0290017D01*
X0204236Y0290017D02*
X0206116Y0290017D01*
X0205593Y0288419D02*
X0205124Y0288419D01*
X0205393Y0286820D02*
X0205593Y0286820D01*
X0205593Y0285222D02*
X0205393Y0285222D01*
X0195393Y0282025D02*
X0195193Y0282025D01*
X0195185Y0280426D02*
X0195393Y0280426D01*
X0195647Y0278828D02*
X0194523Y0278828D01*
X0192866Y0277229D02*
X0196516Y0277229D01*
X0156286Y0261244D02*
X0135584Y0261244D01*
X0108812Y0237266D02*
X0043443Y0237266D01*
X0043443Y0235668D02*
X0046599Y0235668D01*
X0044246Y0234069D02*
X0043443Y0234069D01*
X0043443Y0267638D02*
X0054360Y0267638D01*
X0053604Y0269237D02*
X0043443Y0269237D01*
X0043443Y0270835D02*
X0053393Y0270835D01*
X0053633Y0272434D02*
X0043443Y0272434D01*
X0043443Y0274032D02*
X0054430Y0274032D01*
X0056505Y0275631D02*
X0043443Y0275631D01*
D17*
X0081593Y0258100D03*
X0107293Y0258300D03*
X0120693Y0262300D03*
X0127793Y0255000D03*
X0133493Y0264500D03*
X0121493Y0242100D03*
X0111693Y0234800D03*
X0173093Y0199500D03*
X0199593Y0188600D03*
X0231793Y0183200D03*
X0237393Y0175100D03*
X0254593Y0193500D03*
X0235293Y0226100D03*
X0158493Y0165000D03*
X0139593Y0141100D03*
X0131193Y0137000D03*
X0112793Y0127600D03*
X0102393Y0131700D03*
X0094693Y0128300D03*
X0094493Y0137000D03*
X0077193Y0126700D03*
X0057893Y0126100D03*
X0051193Y0134100D03*
X0048493Y0161800D03*
X0100293Y0117700D03*
X0095593Y0108000D03*
X0095293Y0089700D03*
X0106393Y0088300D03*
X0102593Y0069400D03*
X0062593Y0081500D03*
X0059493Y0092400D03*
X0050793Y0093800D03*
X0076793Y0104700D03*
X0123593Y0115300D03*
X0156293Y0119700D03*
X0176793Y0111200D03*
X0177193Y0092600D03*
X0218793Y0140400D03*
X0233593Y0142800D03*
X0187593Y0145600D03*
X0122393Y0175600D03*
X0106193Y0169200D03*
D18*
X0115793Y0147800D03*
X0100093Y0124600D03*
X0066293Y0128400D03*
X0054293Y0088000D03*
X0082193Y0184000D03*
X0078093Y0225000D03*
D19*
X0115793Y0170600D03*
X0156893Y0141100D03*
X0196393Y0221100D03*
X0177893Y0253600D03*
D20*
X0127793Y0255000D02*
X0126793Y0256000D01*
X0126793Y0264000D01*
X0124993Y0266600D01*
X0098193Y0266600D01*
X0091693Y0272300D01*
X0091693Y0293600D01*
X0093593Y0295500D01*
X0313193Y0295500D01*
X0316293Y0292400D01*
X0316293Y0291900D01*
X0316393Y0291800D01*
X0316393Y0043300D01*
X0307493Y0034400D01*
X0163893Y0034400D01*
X0157493Y0041100D01*
X0157393Y0041800D01*
X0157293Y0068000D01*
X0156593Y0069100D01*
X0129393Y0069100D01*
X0124244Y0073949D01*
X0122889Y0073949D01*
X0120793Y0088300D02*
X0124993Y0092500D01*
X0125193Y0111600D01*
X0123593Y0115300D01*
X0120793Y0088300D02*
X0106393Y0088300D01*
X0099093Y0059300D02*
X0076793Y0082700D01*
X0076793Y0104700D01*
X0099093Y0059300D02*
X0126595Y0059300D01*
X0132732Y0054264D01*
X0142574Y0054264D01*
X0191787Y0064106D02*
X0192799Y0064106D01*
X0197293Y0069100D01*
X0206778Y0069100D01*
X0211472Y0064106D01*
X0209393Y0059200D02*
X0251593Y0059200D01*
X0254893Y0062300D01*
X0254893Y0174800D01*
X0254593Y0175100D01*
X0237393Y0175100D01*
X0231793Y0183200D02*
X0257893Y0183200D01*
X0258293Y0182600D01*
X0258993Y0181700D01*
X0258993Y0055200D01*
X0252893Y0049300D01*
X0207793Y0049300D01*
X0203029Y0054264D01*
X0201629Y0054264D01*
X0209393Y0059200D02*
X0203887Y0064106D01*
X0201629Y0064106D01*
M02*
