G75*
%MOIN*%
%OFA0B0*%
%FSLAX25Y25*%
%IPPOS*%
%LPD*%
%AMOC8*
5,1,8,0,0,1.08239X$1,22.5*
%
%ADD10R,0.05524X0.05524*%
%ADD11R,0.05131X0.08280*%
%ADD12C,0.07200*%
%ADD13R,0.03556X0.05131*%
%ADD14R,0.04737X0.01666*%
%ADD15R,0.01666X0.04737*%
%ADD16R,0.08200X0.08200*%
%ADD17C,0.08200*%
%ADD18R,0.05800X0.03300*%
%ADD19R,0.04737X0.06706*%
%ADD20R,0.03556X0.06706*%
%ADD21R,0.06706X0.03556*%
%ADD22R,0.10249X0.10249*%
%ADD23C,0.09658*%
%ADD24C,0.06350*%
%ADD25R,0.05328X0.04737*%
%ADD26C,0.04146*%
%ADD27C,0.14580*%
%ADD28R,0.06350X0.06350*%
%ADD29R,0.08280X0.07099*%
%ADD30R,0.05524X0.03950*%
%ADD31R,0.03950X0.05524*%
%ADD32R,0.05300X0.02450*%
%ADD33R,0.07099X0.01981*%
%ADD34R,0.01981X0.04737*%
%ADD35C,0.06940*%
%ADD36R,0.07099X0.08280*%
%ADD37R,0.05131X0.04737*%
%ADD38R,0.04737X0.05131*%
D10*
X0015366Y0030701D03*
X0023634Y0030701D03*
X0084066Y0057801D03*
X0092334Y0057801D03*
X0031300Y0108867D03*
X0023800Y0108867D03*
X0023800Y0117135D03*
X0031300Y0117135D03*
X0107300Y0134067D03*
X0114100Y0133867D03*
X0120700Y0133867D03*
X0127700Y0133867D03*
X0127700Y0142135D03*
X0120700Y0142135D03*
X0114100Y0142135D03*
X0107300Y0142335D03*
X0233600Y0105635D03*
X0240500Y0105835D03*
X0240500Y0097567D03*
X0233600Y0097367D03*
D11*
X0120428Y0097884D03*
X0111372Y0097884D03*
X0111372Y0083317D03*
X0120428Y0083317D03*
D12*
X0048300Y0084101D02*
X0041900Y0084101D01*
X0040900Y0074101D02*
X0047300Y0074101D01*
X0048300Y0064101D02*
X0041900Y0064101D01*
X0040900Y0054101D02*
X0047300Y0054101D01*
X0048300Y0044101D02*
X0041900Y0044101D01*
D13*
X0106640Y0155011D03*
X0106640Y0168791D03*
X0124160Y0168791D03*
X0124160Y0155011D03*
D14*
X0101038Y0107665D03*
X0101038Y0105696D03*
X0101038Y0103728D03*
X0101038Y0101759D03*
X0101038Y0099791D03*
X0101038Y0097822D03*
X0101038Y0095854D03*
X0101038Y0093885D03*
X0101038Y0091917D03*
X0101038Y0089948D03*
X0101038Y0087980D03*
X0101038Y0086011D03*
X0101038Y0084043D03*
X0101038Y0082074D03*
X0101038Y0080106D03*
X0101038Y0078137D03*
X0055762Y0078137D03*
X0055762Y0080106D03*
X0055762Y0082074D03*
X0055762Y0084043D03*
X0055762Y0086011D03*
X0055762Y0087980D03*
X0055762Y0089948D03*
X0055762Y0091917D03*
X0055762Y0093885D03*
X0055762Y0095854D03*
X0055762Y0097822D03*
X0055762Y0099791D03*
X0055762Y0101759D03*
X0055762Y0103728D03*
X0055762Y0105696D03*
X0055762Y0107665D03*
D15*
X0063636Y0115539D03*
X0065605Y0115539D03*
X0067573Y0115539D03*
X0069542Y0115539D03*
X0071510Y0115539D03*
X0073479Y0115539D03*
X0075447Y0115539D03*
X0077416Y0115539D03*
X0079384Y0115539D03*
X0081353Y0115539D03*
X0083321Y0115539D03*
X0085290Y0115539D03*
X0087258Y0115539D03*
X0089227Y0115539D03*
X0091195Y0115539D03*
X0093164Y0115539D03*
X0093164Y0070263D03*
X0091195Y0070263D03*
X0089227Y0070263D03*
X0087258Y0070263D03*
X0085290Y0070263D03*
X0083321Y0070263D03*
X0081353Y0070263D03*
X0079384Y0070263D03*
X0077416Y0070263D03*
X0075447Y0070263D03*
X0073479Y0070263D03*
X0071510Y0070263D03*
X0069542Y0070263D03*
X0067573Y0070263D03*
X0065605Y0070263D03*
X0063636Y0070263D03*
D16*
X0246700Y0161801D03*
D17*
X0236700Y0162801D03*
X0226700Y0161801D03*
X0216700Y0162801D03*
D18*
X0220000Y0120472D03*
X0220000Y0116929D03*
X0074200Y0155829D03*
X0074200Y0159372D03*
D19*
X0063635Y0168924D03*
X0063635Y0134278D03*
D20*
X0059107Y0134278D03*
X0055170Y0134278D03*
X0051233Y0134278D03*
X0047296Y0134278D03*
X0043359Y0134278D03*
X0039422Y0134278D03*
X0035485Y0134278D03*
X0031548Y0134278D03*
X0027611Y0134278D03*
X0023674Y0134278D03*
X0019737Y0134278D03*
X0015800Y0134278D03*
X0015800Y0168924D03*
X0019737Y0168924D03*
X0023674Y0168924D03*
X0027611Y0168924D03*
X0031548Y0168924D03*
X0035485Y0168924D03*
X0039422Y0168924D03*
X0043359Y0168924D03*
X0047296Y0168924D03*
X0051233Y0168924D03*
X0055170Y0168924D03*
X0059107Y0168924D03*
D21*
X0014422Y0159475D03*
X0014422Y0155538D03*
X0014422Y0151601D03*
X0014422Y0147664D03*
X0014422Y0143727D03*
D22*
X0077161Y0147661D03*
X0097239Y0147661D03*
X0097239Y0167740D03*
X0077161Y0167740D03*
D23*
X0087200Y0157701D03*
D24*
X0169793Y0136834D03*
X0169793Y0128960D03*
X0169793Y0121086D03*
X0169793Y0113212D03*
X0169793Y0105338D03*
X0169793Y0097464D03*
X0169793Y0089590D03*
X0169793Y0081716D03*
X0169793Y0073842D03*
X0169793Y0065968D03*
X0172354Y0037449D03*
X0164480Y0037449D03*
X0156606Y0037449D03*
X0148732Y0037449D03*
X0140858Y0037449D03*
X0132984Y0037449D03*
X0125110Y0037449D03*
X0117236Y0037449D03*
X0109362Y0037449D03*
X0101488Y0037449D03*
X0093614Y0037449D03*
X0085740Y0037449D03*
X0085740Y0029575D03*
X0077866Y0029575D03*
X0093614Y0029575D03*
X0101488Y0029575D03*
X0109362Y0029575D03*
X0117236Y0029575D03*
X0125110Y0029575D03*
X0132984Y0029575D03*
X0140858Y0029575D03*
X0148732Y0029575D03*
X0156606Y0029575D03*
X0164480Y0029575D03*
X0172354Y0029575D03*
X0180228Y0029575D03*
X0188102Y0029575D03*
X0195976Y0029575D03*
X0195976Y0037449D03*
X0188102Y0037449D03*
X0180228Y0037449D03*
X0256407Y0065968D03*
X0256407Y0073842D03*
X0256407Y0081716D03*
X0256407Y0089590D03*
X0256407Y0097464D03*
X0256407Y0105338D03*
X0256407Y0113212D03*
X0256407Y0121086D03*
X0256407Y0128960D03*
X0256407Y0136834D03*
D25*
X0158522Y0133701D03*
X0158522Y0123858D03*
X0136278Y0123858D03*
X0136278Y0133701D03*
X0136278Y0143543D03*
X0158522Y0143543D03*
D26*
X0147400Y0139606D03*
X0147400Y0127795D03*
D27*
X0137000Y0161701D03*
D28*
X0077866Y0037449D03*
D29*
X0063196Y0029601D03*
X0050204Y0029601D03*
D30*
X0031300Y0096457D03*
X0023800Y0096457D03*
X0023800Y0103544D03*
X0031300Y0103544D03*
X0186400Y0127957D03*
X0186400Y0135044D03*
X0233500Y0118344D03*
X0240400Y0118344D03*
X0240400Y0111257D03*
X0233500Y0111257D03*
D31*
X0186143Y0141201D03*
X0179057Y0141201D03*
X0133643Y0093901D03*
X0126557Y0093901D03*
X0126457Y0081701D03*
X0133543Y0081701D03*
X0116343Y0071801D03*
X0116343Y0064901D03*
X0109257Y0064901D03*
X0109257Y0071801D03*
X0092443Y0064301D03*
X0085357Y0064301D03*
X0038143Y0030901D03*
X0031057Y0030901D03*
X0157657Y0048801D03*
X0164743Y0048801D03*
D32*
X0220000Y0125951D03*
X0220000Y0128451D03*
X0220000Y0130951D03*
X0220000Y0133451D03*
X0220000Y0135951D03*
X0220000Y0138451D03*
X0220000Y0140951D03*
X0220000Y0143451D03*
X0240800Y0143451D03*
X0240800Y0140951D03*
X0240800Y0138451D03*
X0240800Y0135951D03*
X0240800Y0133451D03*
X0240800Y0130951D03*
X0240800Y0128451D03*
X0240800Y0125951D03*
D33*
X0193693Y0146743D03*
X0193693Y0149302D03*
X0193693Y0151900D03*
X0193693Y0154459D03*
X0180346Y0154420D03*
X0180307Y0151880D03*
X0180307Y0149302D03*
X0180268Y0146743D03*
D34*
X0153639Y0064478D03*
X0151080Y0064478D03*
X0148520Y0064478D03*
X0145961Y0064478D03*
X0145961Y0049222D03*
X0148520Y0049222D03*
X0151080Y0049222D03*
X0153639Y0049222D03*
D35*
X0033143Y0061531D02*
X0033143Y0067671D01*
X0013457Y0067671D02*
X0013457Y0061531D01*
D36*
X0014800Y0106705D03*
X0014800Y0119697D03*
D37*
X0100554Y0053501D03*
X0100554Y0047801D03*
X0107246Y0047801D03*
X0107246Y0053501D03*
D38*
X0074700Y0056747D03*
X0074700Y0050054D03*
X0067000Y0050054D03*
X0067000Y0056747D03*
X0146000Y0073154D03*
X0146000Y0079847D03*
X0153900Y0079847D03*
X0153900Y0073154D03*
M02*
