G75*
%MOIN*%
%OFA0B0*%
%FSLAX25Y25*%
%IPPOS*%
%LPD*%
%AMOC8*
5,1,8,0,0,1.08239X$1,22.5*
%
%ADD10C,0.00000*%
%ADD11C,0.00400*%
%ADD12C,0.00800*%
%ADD13C,0.00100*%
%ADD14C,0.01000*%
%ADD15R,0.08268X0.01181*%
%ADD16C,0.00200*%
%ADD17C,0.01000*%
%ADD18C,0.00600*%
%ADD19C,0.00500*%
D10*
X0028595Y0033933D02*
X0238595Y0033933D01*
X0238595Y0093933D01*
X0028595Y0093933D01*
X0028595Y0033933D01*
X0032296Y0063933D02*
X0032298Y0064091D01*
X0032304Y0064249D01*
X0032314Y0064407D01*
X0032328Y0064565D01*
X0032346Y0064722D01*
X0032367Y0064879D01*
X0032393Y0065035D01*
X0032423Y0065191D01*
X0032456Y0065346D01*
X0032494Y0065499D01*
X0032535Y0065652D01*
X0032580Y0065804D01*
X0032629Y0065955D01*
X0032682Y0066104D01*
X0032738Y0066252D01*
X0032798Y0066398D01*
X0032862Y0066543D01*
X0032930Y0066686D01*
X0033001Y0066828D01*
X0033075Y0066968D01*
X0033153Y0067105D01*
X0033235Y0067241D01*
X0033319Y0067375D01*
X0033408Y0067506D01*
X0033499Y0067635D01*
X0033594Y0067762D01*
X0033691Y0067887D01*
X0033792Y0068009D01*
X0033896Y0068128D01*
X0034003Y0068245D01*
X0034113Y0068359D01*
X0034226Y0068470D01*
X0034341Y0068579D01*
X0034459Y0068684D01*
X0034580Y0068786D01*
X0034703Y0068886D01*
X0034829Y0068982D01*
X0034957Y0069075D01*
X0035087Y0069165D01*
X0035220Y0069251D01*
X0035355Y0069335D01*
X0035491Y0069414D01*
X0035630Y0069491D01*
X0035771Y0069563D01*
X0035913Y0069633D01*
X0036057Y0069698D01*
X0036203Y0069760D01*
X0036350Y0069818D01*
X0036499Y0069873D01*
X0036649Y0069924D01*
X0036800Y0069971D01*
X0036952Y0070014D01*
X0037105Y0070053D01*
X0037260Y0070089D01*
X0037415Y0070120D01*
X0037571Y0070148D01*
X0037727Y0070172D01*
X0037884Y0070192D01*
X0038042Y0070208D01*
X0038199Y0070220D01*
X0038358Y0070228D01*
X0038516Y0070232D01*
X0038674Y0070232D01*
X0038832Y0070228D01*
X0038991Y0070220D01*
X0039148Y0070208D01*
X0039306Y0070192D01*
X0039463Y0070172D01*
X0039619Y0070148D01*
X0039775Y0070120D01*
X0039930Y0070089D01*
X0040085Y0070053D01*
X0040238Y0070014D01*
X0040390Y0069971D01*
X0040541Y0069924D01*
X0040691Y0069873D01*
X0040840Y0069818D01*
X0040987Y0069760D01*
X0041133Y0069698D01*
X0041277Y0069633D01*
X0041419Y0069563D01*
X0041560Y0069491D01*
X0041699Y0069414D01*
X0041835Y0069335D01*
X0041970Y0069251D01*
X0042103Y0069165D01*
X0042233Y0069075D01*
X0042361Y0068982D01*
X0042487Y0068886D01*
X0042610Y0068786D01*
X0042731Y0068684D01*
X0042849Y0068579D01*
X0042964Y0068470D01*
X0043077Y0068359D01*
X0043187Y0068245D01*
X0043294Y0068128D01*
X0043398Y0068009D01*
X0043499Y0067887D01*
X0043596Y0067762D01*
X0043691Y0067635D01*
X0043782Y0067506D01*
X0043871Y0067375D01*
X0043955Y0067241D01*
X0044037Y0067105D01*
X0044115Y0066968D01*
X0044189Y0066828D01*
X0044260Y0066686D01*
X0044328Y0066543D01*
X0044392Y0066398D01*
X0044452Y0066252D01*
X0044508Y0066104D01*
X0044561Y0065955D01*
X0044610Y0065804D01*
X0044655Y0065652D01*
X0044696Y0065499D01*
X0044734Y0065346D01*
X0044767Y0065191D01*
X0044797Y0065035D01*
X0044823Y0064879D01*
X0044844Y0064722D01*
X0044862Y0064565D01*
X0044876Y0064407D01*
X0044886Y0064249D01*
X0044892Y0064091D01*
X0044894Y0063933D01*
X0044892Y0063775D01*
X0044886Y0063617D01*
X0044876Y0063459D01*
X0044862Y0063301D01*
X0044844Y0063144D01*
X0044823Y0062987D01*
X0044797Y0062831D01*
X0044767Y0062675D01*
X0044734Y0062520D01*
X0044696Y0062367D01*
X0044655Y0062214D01*
X0044610Y0062062D01*
X0044561Y0061911D01*
X0044508Y0061762D01*
X0044452Y0061614D01*
X0044392Y0061468D01*
X0044328Y0061323D01*
X0044260Y0061180D01*
X0044189Y0061038D01*
X0044115Y0060898D01*
X0044037Y0060761D01*
X0043955Y0060625D01*
X0043871Y0060491D01*
X0043782Y0060360D01*
X0043691Y0060231D01*
X0043596Y0060104D01*
X0043499Y0059979D01*
X0043398Y0059857D01*
X0043294Y0059738D01*
X0043187Y0059621D01*
X0043077Y0059507D01*
X0042964Y0059396D01*
X0042849Y0059287D01*
X0042731Y0059182D01*
X0042610Y0059080D01*
X0042487Y0058980D01*
X0042361Y0058884D01*
X0042233Y0058791D01*
X0042103Y0058701D01*
X0041970Y0058615D01*
X0041835Y0058531D01*
X0041699Y0058452D01*
X0041560Y0058375D01*
X0041419Y0058303D01*
X0041277Y0058233D01*
X0041133Y0058168D01*
X0040987Y0058106D01*
X0040840Y0058048D01*
X0040691Y0057993D01*
X0040541Y0057942D01*
X0040390Y0057895D01*
X0040238Y0057852D01*
X0040085Y0057813D01*
X0039930Y0057777D01*
X0039775Y0057746D01*
X0039619Y0057718D01*
X0039463Y0057694D01*
X0039306Y0057674D01*
X0039148Y0057658D01*
X0038991Y0057646D01*
X0038832Y0057638D01*
X0038674Y0057634D01*
X0038516Y0057634D01*
X0038358Y0057638D01*
X0038199Y0057646D01*
X0038042Y0057658D01*
X0037884Y0057674D01*
X0037727Y0057694D01*
X0037571Y0057718D01*
X0037415Y0057746D01*
X0037260Y0057777D01*
X0037105Y0057813D01*
X0036952Y0057852D01*
X0036800Y0057895D01*
X0036649Y0057942D01*
X0036499Y0057993D01*
X0036350Y0058048D01*
X0036203Y0058106D01*
X0036057Y0058168D01*
X0035913Y0058233D01*
X0035771Y0058303D01*
X0035630Y0058375D01*
X0035491Y0058452D01*
X0035355Y0058531D01*
X0035220Y0058615D01*
X0035087Y0058701D01*
X0034957Y0058791D01*
X0034829Y0058884D01*
X0034703Y0058980D01*
X0034580Y0059080D01*
X0034459Y0059182D01*
X0034341Y0059287D01*
X0034226Y0059396D01*
X0034113Y0059507D01*
X0034003Y0059621D01*
X0033896Y0059738D01*
X0033792Y0059857D01*
X0033691Y0059979D01*
X0033594Y0060104D01*
X0033499Y0060231D01*
X0033408Y0060360D01*
X0033319Y0060491D01*
X0033235Y0060625D01*
X0033153Y0060761D01*
X0033075Y0060898D01*
X0033001Y0061038D01*
X0032930Y0061180D01*
X0032862Y0061323D01*
X0032798Y0061468D01*
X0032738Y0061614D01*
X0032682Y0061762D01*
X0032629Y0061911D01*
X0032580Y0062062D01*
X0032535Y0062214D01*
X0032494Y0062367D01*
X0032456Y0062520D01*
X0032423Y0062675D01*
X0032393Y0062831D01*
X0032367Y0062987D01*
X0032346Y0063144D01*
X0032328Y0063301D01*
X0032314Y0063459D01*
X0032304Y0063617D01*
X0032298Y0063775D01*
X0032296Y0063933D01*
X0222296Y0063933D02*
X0222298Y0064091D01*
X0222304Y0064249D01*
X0222314Y0064407D01*
X0222328Y0064565D01*
X0222346Y0064722D01*
X0222367Y0064879D01*
X0222393Y0065035D01*
X0222423Y0065191D01*
X0222456Y0065346D01*
X0222494Y0065499D01*
X0222535Y0065652D01*
X0222580Y0065804D01*
X0222629Y0065955D01*
X0222682Y0066104D01*
X0222738Y0066252D01*
X0222798Y0066398D01*
X0222862Y0066543D01*
X0222930Y0066686D01*
X0223001Y0066828D01*
X0223075Y0066968D01*
X0223153Y0067105D01*
X0223235Y0067241D01*
X0223319Y0067375D01*
X0223408Y0067506D01*
X0223499Y0067635D01*
X0223594Y0067762D01*
X0223691Y0067887D01*
X0223792Y0068009D01*
X0223896Y0068128D01*
X0224003Y0068245D01*
X0224113Y0068359D01*
X0224226Y0068470D01*
X0224341Y0068579D01*
X0224459Y0068684D01*
X0224580Y0068786D01*
X0224703Y0068886D01*
X0224829Y0068982D01*
X0224957Y0069075D01*
X0225087Y0069165D01*
X0225220Y0069251D01*
X0225355Y0069335D01*
X0225491Y0069414D01*
X0225630Y0069491D01*
X0225771Y0069563D01*
X0225913Y0069633D01*
X0226057Y0069698D01*
X0226203Y0069760D01*
X0226350Y0069818D01*
X0226499Y0069873D01*
X0226649Y0069924D01*
X0226800Y0069971D01*
X0226952Y0070014D01*
X0227105Y0070053D01*
X0227260Y0070089D01*
X0227415Y0070120D01*
X0227571Y0070148D01*
X0227727Y0070172D01*
X0227884Y0070192D01*
X0228042Y0070208D01*
X0228199Y0070220D01*
X0228358Y0070228D01*
X0228516Y0070232D01*
X0228674Y0070232D01*
X0228832Y0070228D01*
X0228991Y0070220D01*
X0229148Y0070208D01*
X0229306Y0070192D01*
X0229463Y0070172D01*
X0229619Y0070148D01*
X0229775Y0070120D01*
X0229930Y0070089D01*
X0230085Y0070053D01*
X0230238Y0070014D01*
X0230390Y0069971D01*
X0230541Y0069924D01*
X0230691Y0069873D01*
X0230840Y0069818D01*
X0230987Y0069760D01*
X0231133Y0069698D01*
X0231277Y0069633D01*
X0231419Y0069563D01*
X0231560Y0069491D01*
X0231699Y0069414D01*
X0231835Y0069335D01*
X0231970Y0069251D01*
X0232103Y0069165D01*
X0232233Y0069075D01*
X0232361Y0068982D01*
X0232487Y0068886D01*
X0232610Y0068786D01*
X0232731Y0068684D01*
X0232849Y0068579D01*
X0232964Y0068470D01*
X0233077Y0068359D01*
X0233187Y0068245D01*
X0233294Y0068128D01*
X0233398Y0068009D01*
X0233499Y0067887D01*
X0233596Y0067762D01*
X0233691Y0067635D01*
X0233782Y0067506D01*
X0233871Y0067375D01*
X0233955Y0067241D01*
X0234037Y0067105D01*
X0234115Y0066968D01*
X0234189Y0066828D01*
X0234260Y0066686D01*
X0234328Y0066543D01*
X0234392Y0066398D01*
X0234452Y0066252D01*
X0234508Y0066104D01*
X0234561Y0065955D01*
X0234610Y0065804D01*
X0234655Y0065652D01*
X0234696Y0065499D01*
X0234734Y0065346D01*
X0234767Y0065191D01*
X0234797Y0065035D01*
X0234823Y0064879D01*
X0234844Y0064722D01*
X0234862Y0064565D01*
X0234876Y0064407D01*
X0234886Y0064249D01*
X0234892Y0064091D01*
X0234894Y0063933D01*
X0234892Y0063775D01*
X0234886Y0063617D01*
X0234876Y0063459D01*
X0234862Y0063301D01*
X0234844Y0063144D01*
X0234823Y0062987D01*
X0234797Y0062831D01*
X0234767Y0062675D01*
X0234734Y0062520D01*
X0234696Y0062367D01*
X0234655Y0062214D01*
X0234610Y0062062D01*
X0234561Y0061911D01*
X0234508Y0061762D01*
X0234452Y0061614D01*
X0234392Y0061468D01*
X0234328Y0061323D01*
X0234260Y0061180D01*
X0234189Y0061038D01*
X0234115Y0060898D01*
X0234037Y0060761D01*
X0233955Y0060625D01*
X0233871Y0060491D01*
X0233782Y0060360D01*
X0233691Y0060231D01*
X0233596Y0060104D01*
X0233499Y0059979D01*
X0233398Y0059857D01*
X0233294Y0059738D01*
X0233187Y0059621D01*
X0233077Y0059507D01*
X0232964Y0059396D01*
X0232849Y0059287D01*
X0232731Y0059182D01*
X0232610Y0059080D01*
X0232487Y0058980D01*
X0232361Y0058884D01*
X0232233Y0058791D01*
X0232103Y0058701D01*
X0231970Y0058615D01*
X0231835Y0058531D01*
X0231699Y0058452D01*
X0231560Y0058375D01*
X0231419Y0058303D01*
X0231277Y0058233D01*
X0231133Y0058168D01*
X0230987Y0058106D01*
X0230840Y0058048D01*
X0230691Y0057993D01*
X0230541Y0057942D01*
X0230390Y0057895D01*
X0230238Y0057852D01*
X0230085Y0057813D01*
X0229930Y0057777D01*
X0229775Y0057746D01*
X0229619Y0057718D01*
X0229463Y0057694D01*
X0229306Y0057674D01*
X0229148Y0057658D01*
X0228991Y0057646D01*
X0228832Y0057638D01*
X0228674Y0057634D01*
X0228516Y0057634D01*
X0228358Y0057638D01*
X0228199Y0057646D01*
X0228042Y0057658D01*
X0227884Y0057674D01*
X0227727Y0057694D01*
X0227571Y0057718D01*
X0227415Y0057746D01*
X0227260Y0057777D01*
X0227105Y0057813D01*
X0226952Y0057852D01*
X0226800Y0057895D01*
X0226649Y0057942D01*
X0226499Y0057993D01*
X0226350Y0058048D01*
X0226203Y0058106D01*
X0226057Y0058168D01*
X0225913Y0058233D01*
X0225771Y0058303D01*
X0225630Y0058375D01*
X0225491Y0058452D01*
X0225355Y0058531D01*
X0225220Y0058615D01*
X0225087Y0058701D01*
X0224957Y0058791D01*
X0224829Y0058884D01*
X0224703Y0058980D01*
X0224580Y0059080D01*
X0224459Y0059182D01*
X0224341Y0059287D01*
X0224226Y0059396D01*
X0224113Y0059507D01*
X0224003Y0059621D01*
X0223896Y0059738D01*
X0223792Y0059857D01*
X0223691Y0059979D01*
X0223594Y0060104D01*
X0223499Y0060231D01*
X0223408Y0060360D01*
X0223319Y0060491D01*
X0223235Y0060625D01*
X0223153Y0060761D01*
X0223075Y0060898D01*
X0223001Y0061038D01*
X0222930Y0061180D01*
X0222862Y0061323D01*
X0222798Y0061468D01*
X0222738Y0061614D01*
X0222682Y0061762D01*
X0222629Y0061911D01*
X0222580Y0062062D01*
X0222535Y0062214D01*
X0222494Y0062367D01*
X0222456Y0062520D01*
X0222423Y0062675D01*
X0222393Y0062831D01*
X0222367Y0062987D01*
X0222346Y0063144D01*
X0222328Y0063301D01*
X0222314Y0063459D01*
X0222304Y0063617D01*
X0222298Y0063775D01*
X0222296Y0063933D01*
D11*
X0080638Y0071064D02*
X0080638Y0053264D01*
X0065638Y0053264D02*
X0065638Y0071064D01*
D12*
X0069201Y0064695D02*
X0077075Y0064695D01*
X0073138Y0059290D01*
X0069201Y0064695D01*
X0069201Y0059290D02*
X0077075Y0059290D01*
X0152024Y0063384D02*
X0152024Y0066765D01*
X0155968Y0062284D02*
X0158081Y0062284D01*
X0162024Y0063384D02*
X0162024Y0066765D01*
X0166119Y0064059D02*
X0173993Y0064059D01*
X0173993Y0058941D02*
X0175764Y0058941D01*
X0175764Y0077051D01*
X0173993Y0077051D01*
X0166119Y0077051D02*
X0164347Y0077051D01*
X0164347Y0058941D01*
X0166119Y0058941D01*
X0192060Y0064428D02*
X0192060Y0067809D01*
X0196003Y0063328D02*
X0198116Y0063328D01*
X0202060Y0064428D02*
X0202060Y0067809D01*
X0206603Y0064071D02*
X0214477Y0064071D01*
X0214477Y0058953D02*
X0216249Y0058953D01*
X0216249Y0077063D01*
X0214477Y0077063D01*
X0206603Y0077063D02*
X0204831Y0077063D01*
X0204831Y0058953D01*
X0206603Y0058953D01*
D13*
X0200137Y0057319D02*
X0199887Y0057569D01*
X0199387Y0057569D01*
X0199136Y0057319D01*
X0198664Y0057569D02*
X0198664Y0056318D01*
X0198414Y0056068D01*
X0197913Y0056068D01*
X0197663Y0056318D01*
X0197663Y0057569D01*
X0196131Y0056242D02*
X0195881Y0056492D01*
X0195380Y0056492D01*
X0195130Y0056242D01*
X0195130Y0055992D01*
X0195380Y0055742D01*
X0195881Y0055742D01*
X0196131Y0055491D01*
X0196131Y0055241D01*
X0195881Y0054991D01*
X0195380Y0054991D01*
X0195130Y0055241D01*
X0195130Y0055491D01*
X0195380Y0055742D01*
X0195881Y0055742D02*
X0196131Y0055992D01*
X0196131Y0056242D01*
X0194658Y0056242D02*
X0194408Y0056492D01*
X0193657Y0056492D01*
X0193657Y0054991D01*
X0193657Y0055491D02*
X0194408Y0055491D01*
X0194658Y0055742D01*
X0194658Y0056242D01*
X0194157Y0055491D02*
X0194658Y0054991D01*
X0199136Y0056068D02*
X0200137Y0057069D01*
X0200137Y0057319D01*
X0200137Y0056068D02*
X0199136Y0056068D01*
X0182053Y0062690D02*
X0182053Y0063190D01*
X0181803Y0063441D01*
X0181803Y0063913D02*
X0182053Y0064163D01*
X0182053Y0064664D01*
X0181803Y0064914D01*
X0181302Y0064914D01*
X0181052Y0064664D01*
X0181052Y0064413D01*
X0181302Y0063913D01*
X0180552Y0063913D01*
X0180552Y0064914D01*
X0180802Y0063441D02*
X0180552Y0063190D01*
X0180552Y0062690D01*
X0180802Y0062440D01*
X0181803Y0062440D01*
X0182053Y0062690D01*
X0178106Y0067705D02*
X0176604Y0067705D01*
X0176604Y0068456D01*
X0176855Y0068706D01*
X0177856Y0068706D01*
X0178106Y0068456D01*
X0178106Y0067705D01*
X0178106Y0069178D02*
X0178106Y0070179D01*
X0178106Y0069679D02*
X0176604Y0069679D01*
X0177105Y0069178D01*
X0177355Y0070652D02*
X0177105Y0071152D01*
X0177105Y0071402D01*
X0177355Y0071652D01*
X0177856Y0071652D01*
X0178106Y0071402D01*
X0178106Y0070902D01*
X0177856Y0070652D01*
X0177355Y0070652D02*
X0176604Y0070652D01*
X0176604Y0071652D01*
X0164814Y0079883D02*
X0163313Y0079883D01*
X0163563Y0081356D02*
X0163313Y0081606D01*
X0163313Y0082107D01*
X0163563Y0082357D01*
X0163814Y0082357D01*
X0164814Y0081356D01*
X0164814Y0082357D01*
X0164814Y0080884D02*
X0164814Y0079883D01*
X0142140Y0065238D02*
X0141889Y0065489D01*
X0141639Y0065489D01*
X0141389Y0065238D01*
X0141389Y0064488D01*
X0141889Y0064488D01*
X0142140Y0064738D01*
X0142140Y0065238D01*
X0141389Y0064488D02*
X0140889Y0064988D01*
X0140638Y0065489D01*
X0140889Y0064015D02*
X0140638Y0063765D01*
X0140638Y0063265D01*
X0140889Y0063015D01*
X0141889Y0063015D01*
X0142140Y0063265D01*
X0142140Y0063765D01*
X0141889Y0064015D01*
X0153043Y0057004D02*
X0153793Y0057004D01*
X0154044Y0056754D01*
X0154044Y0056253D01*
X0153793Y0056003D01*
X0153043Y0056003D01*
X0153543Y0056003D02*
X0154044Y0055503D01*
X0154516Y0055503D02*
X0154516Y0055753D01*
X0155517Y0056754D01*
X0155517Y0057004D01*
X0154516Y0057004D01*
X0153043Y0057004D02*
X0153043Y0055503D01*
X0157628Y0055275D02*
X0157628Y0056526D01*
X0158629Y0056526D02*
X0158629Y0055275D01*
X0158378Y0055025D01*
X0157878Y0055025D01*
X0157628Y0055275D01*
X0159101Y0055275D02*
X0159351Y0055025D01*
X0159852Y0055025D01*
X0160102Y0055275D01*
X0160102Y0055525D01*
X0159852Y0055775D01*
X0159601Y0055775D01*
X0159852Y0055775D02*
X0160102Y0056026D01*
X0160102Y0056276D01*
X0159852Y0056526D01*
X0159351Y0056526D01*
X0159101Y0056276D01*
X0111576Y0074902D02*
X0111576Y0075402D01*
X0111326Y0075652D01*
X0111576Y0076125D02*
X0111576Y0077126D01*
X0111576Y0076625D02*
X0110075Y0076625D01*
X0110575Y0076125D01*
X0110325Y0075652D02*
X0110075Y0075402D01*
X0110075Y0074902D01*
X0110325Y0074652D01*
X0111326Y0074652D01*
X0111576Y0074902D01*
X0094864Y0057230D02*
X0094864Y0056230D01*
X0093863Y0057230D01*
X0093613Y0057230D01*
X0093362Y0056980D01*
X0093362Y0056480D01*
X0093613Y0056230D01*
X0093613Y0055757D02*
X0093362Y0055507D01*
X0093362Y0055007D01*
X0093613Y0054756D01*
X0094613Y0054756D01*
X0094864Y0055007D01*
X0094864Y0055507D01*
X0094613Y0055757D01*
X0064588Y0055687D02*
X0063086Y0055687D01*
X0063587Y0055187D01*
X0063337Y0054715D02*
X0063086Y0054464D01*
X0063086Y0053714D01*
X0064588Y0053714D01*
X0064588Y0054464D01*
X0064337Y0054715D01*
X0063337Y0054715D01*
X0064588Y0055187D02*
X0064588Y0056188D01*
X0203164Y0080678D02*
X0204665Y0080678D01*
X0204665Y0081679D01*
X0204665Y0082152D02*
X0204665Y0083152D01*
X0204665Y0082652D02*
X0203164Y0082652D01*
X0203664Y0082152D01*
X0217089Y0076335D02*
X0217339Y0076585D01*
X0217589Y0076585D01*
X0217839Y0076335D01*
X0217839Y0075835D01*
X0217589Y0075585D01*
X0217339Y0075585D01*
X0217089Y0075835D01*
X0217089Y0076335D01*
X0217839Y0076335D02*
X0218090Y0076585D01*
X0218340Y0076585D01*
X0218590Y0076335D01*
X0218590Y0075835D01*
X0218340Y0075585D01*
X0218090Y0075585D01*
X0217839Y0075835D01*
X0217339Y0075112D02*
X0217089Y0074862D01*
X0217089Y0074111D01*
X0218590Y0074111D01*
X0218590Y0074862D01*
X0218340Y0075112D01*
X0217339Y0075112D01*
D14*
X0091188Y0063448D02*
X0088432Y0059314D01*
X0085479Y0063448D01*
X0091188Y0063448D01*
D15*
X0088432Y0059117D03*
D16*
X0083269Y0056546D02*
X0083269Y0055612D01*
X0082335Y0056546D01*
X0082102Y0056546D01*
X0081868Y0056312D01*
X0081868Y0055845D01*
X0082102Y0055612D01*
X0082102Y0055073D02*
X0081868Y0054839D01*
X0081868Y0054139D01*
X0083269Y0054139D01*
X0083269Y0054839D01*
X0083036Y0055073D01*
X0082102Y0055073D01*
D17*
X0163324Y0069075D03*
X0203360Y0070118D03*
D18*
X0109729Y0073367D02*
X0109729Y0075729D01*
X0103823Y0075532D02*
X0103823Y0073170D01*
X0101116Y0059084D02*
X0101116Y0056722D01*
X0095211Y0056525D02*
X0095211Y0058887D01*
D19*
X0155390Y0074906D02*
X0158540Y0074906D01*
X0158540Y0082780D02*
X0155390Y0082780D01*
X0195241Y0083575D02*
X0198390Y0083575D01*
X0198390Y0075701D02*
X0195241Y0075701D01*
M02*
