G75*
%MOIN*%
%OFA0B0*%
%FSLAX25Y25*%
%IPPOS*%
%LPD*%
%AMOC8*
5,1,8,0,0,1.08239X$1,22.5*
%
%ADD10R,0.03937X0.05512*%
%ADD11R,0.05512X0.03937*%
%ADD12R,0.08661X0.02362*%
%ADD13R,0.11811X0.06299*%
%ADD14R,0.22500X0.19000*%
%ADD15R,0.10000X0.05000*%
%ADD16R,0.04300X0.06300*%
%ADD17R,0.06300X0.06300*%
%ADD18C,0.01600*%
%ADD19C,0.04362*%
%ADD20C,0.03969*%
%ADD21C,0.08858*%
%ADD22C,0.04000*%
%ADD23C,0.01000*%
D10*
X0107552Y0051933D03*
X0114638Y0051933D03*
X0120552Y0051933D03*
X0127638Y0051933D03*
X0133552Y0051933D03*
X0140638Y0051933D03*
D11*
X0144670Y0065770D03*
X0162595Y0070390D03*
X0162595Y0077476D03*
X0144670Y0072857D03*
X0184178Y0064404D03*
X0184178Y0057317D03*
D12*
X0135627Y0061758D03*
X0135627Y0066758D03*
X0135627Y0071758D03*
X0135627Y0076758D03*
X0115154Y0076758D03*
X0115154Y0071758D03*
X0115154Y0066758D03*
X0115154Y0061758D03*
D13*
X0068379Y0058664D03*
X0068379Y0076617D03*
D14*
X0095537Y0067640D03*
D15*
X0105095Y0088933D03*
X0085095Y0088933D03*
X0065095Y0088933D03*
X0125095Y0088933D03*
X0145095Y0088933D03*
X0165095Y0088933D03*
X0185095Y0088933D03*
X0205095Y0088933D03*
X0205095Y0038933D03*
X0185095Y0038933D03*
X0165095Y0038933D03*
X0145095Y0038933D03*
X0125095Y0038933D03*
X0105095Y0038933D03*
X0085095Y0038933D03*
X0065095Y0038933D03*
D16*
X0167475Y0052914D03*
X0176875Y0052914D03*
D17*
X0172175Y0064314D03*
D18*
X0030395Y0092133D02*
X0030395Y0035733D01*
X0058532Y0035733D01*
X0058495Y0035770D01*
X0058495Y0042096D01*
X0059432Y0043033D01*
X0070758Y0043033D01*
X0071492Y0042299D01*
X0073995Y0044803D01*
X0075225Y0046033D01*
X0090126Y0046033D01*
X0091065Y0046972D01*
X0092382Y0047517D01*
X0093808Y0047517D01*
X0095125Y0046972D01*
X0096134Y0045963D01*
X0096679Y0044646D01*
X0096679Y0043487D01*
X0099225Y0046033D01*
X0109126Y0046033D01*
X0110065Y0046972D01*
X0111382Y0047517D01*
X0112808Y0047517D01*
X0114125Y0046972D01*
X0115134Y0045963D01*
X0115679Y0044646D01*
X0115679Y0044487D01*
X0116225Y0045033D01*
X0130126Y0045033D01*
X0131065Y0045972D01*
X0132382Y0046517D01*
X0133808Y0046517D01*
X0135125Y0045972D01*
X0136134Y0044963D01*
X0136579Y0043887D01*
X0137495Y0044803D01*
X0138725Y0046033D01*
X0152465Y0046033D01*
X0152981Y0045517D01*
X0154308Y0045517D01*
X0155625Y0044972D01*
X0156634Y0043963D01*
X0156933Y0043241D01*
X0158495Y0044803D01*
X0159725Y0046033D01*
X0171965Y0046033D01*
X0172481Y0045517D01*
X0173808Y0045517D01*
X0175125Y0044972D01*
X0176134Y0043963D01*
X0176433Y0043241D01*
X0177995Y0044803D01*
X0179225Y0046033D01*
X0191965Y0046033D01*
X0192481Y0045517D01*
X0193808Y0045517D01*
X0195125Y0044972D01*
X0196134Y0043963D01*
X0196433Y0043241D01*
X0197995Y0044803D01*
X0199225Y0046033D01*
X0211126Y0046033D01*
X0212065Y0046972D01*
X0213382Y0047517D01*
X0214808Y0047517D01*
X0215995Y0047026D01*
X0215995Y0079063D01*
X0215710Y0079349D01*
X0214382Y0079349D01*
X0213065Y0079894D01*
X0212057Y0080903D01*
X0211511Y0082220D01*
X0211511Y0083646D01*
X0212057Y0084963D01*
X0213065Y0085972D01*
X0214382Y0086517D01*
X0215808Y0086517D01*
X0217125Y0085972D01*
X0218134Y0084963D01*
X0218679Y0083646D01*
X0218679Y0082319D01*
X0220195Y0080803D01*
X0220195Y0038063D01*
X0218965Y0036833D01*
X0211695Y0036833D01*
X0211695Y0035770D01*
X0211658Y0035733D01*
X0236795Y0035733D01*
X0236795Y0092133D01*
X0211658Y0092133D01*
X0211695Y0092096D01*
X0211695Y0085770D01*
X0210758Y0084833D01*
X0206195Y0084833D01*
X0206195Y0084063D01*
X0204965Y0082833D01*
X0201965Y0079833D01*
X0176064Y0079833D01*
X0175125Y0078894D01*
X0173808Y0078349D01*
X0172382Y0078349D01*
X0171065Y0078894D01*
X0170057Y0079903D01*
X0169511Y0081220D01*
X0169511Y0082646D01*
X0170057Y0083963D01*
X0171065Y0084972D01*
X0172382Y0085517D01*
X0173808Y0085517D01*
X0175125Y0084972D01*
X0176064Y0084033D01*
X0200225Y0084033D01*
X0201025Y0084833D01*
X0199432Y0084833D01*
X0198495Y0085770D01*
X0198495Y0092096D01*
X0198532Y0092133D01*
X0191658Y0092133D01*
X0191695Y0092096D01*
X0191695Y0085770D01*
X0190758Y0084833D01*
X0179432Y0084833D01*
X0178592Y0085674D01*
X0177808Y0085349D01*
X0176382Y0085349D01*
X0175065Y0085894D01*
X0174057Y0086903D01*
X0173511Y0088220D01*
X0173511Y0089646D01*
X0174057Y0090963D01*
X0175065Y0091972D01*
X0175455Y0092133D01*
X0171658Y0092133D01*
X0171695Y0092096D01*
X0171695Y0085770D01*
X0170758Y0084833D01*
X0160965Y0084833D01*
X0157965Y0081833D01*
X0150165Y0081833D01*
X0150965Y0081033D01*
X0159165Y0081033D01*
X0159176Y0081045D01*
X0160864Y0081045D01*
X0161507Y0081105D01*
X0161580Y0081045D01*
X0166014Y0081045D01*
X0166951Y0080108D01*
X0166951Y0076033D01*
X0170965Y0076033D01*
X0172965Y0074033D01*
X0174195Y0072803D01*
X0174195Y0069064D01*
X0175988Y0069064D01*
X0176925Y0068127D01*
X0176925Y0066504D01*
X0179822Y0066504D01*
X0179822Y0067035D01*
X0180759Y0067972D01*
X0181986Y0067972D01*
X0181935Y0068639D01*
X0181995Y0068710D01*
X0181995Y0068803D01*
X0182553Y0069361D01*
X0184995Y0072210D01*
X0184995Y0072303D01*
X0185553Y0072861D01*
X0186067Y0073460D01*
X0186160Y0073467D01*
X0186225Y0073533D01*
X0187014Y0073533D01*
X0187136Y0073542D01*
X0188065Y0074472D01*
X0189382Y0075017D01*
X0190808Y0075017D01*
X0192125Y0074472D01*
X0193134Y0073463D01*
X0193679Y0072146D01*
X0193679Y0070720D01*
X0193134Y0069403D01*
X0192125Y0068394D01*
X0190808Y0067849D01*
X0189382Y0067849D01*
X0188065Y0068394D01*
X0187630Y0068830D01*
X0186895Y0067972D01*
X0187596Y0067972D01*
X0188534Y0067035D01*
X0188534Y0061773D01*
X0187689Y0060928D01*
X0188039Y0060726D01*
X0188374Y0060391D01*
X0188611Y0059981D01*
X0188734Y0059523D01*
X0188734Y0057502D01*
X0184362Y0057502D01*
X0184362Y0057133D01*
X0184362Y0053549D01*
X0187171Y0053549D01*
X0187628Y0053671D01*
X0188039Y0053908D01*
X0188374Y0054244D01*
X0188611Y0054654D01*
X0188734Y0055112D01*
X0188734Y0057133D01*
X0184362Y0057133D01*
X0183994Y0057133D01*
X0183994Y0053549D01*
X0181185Y0053549D01*
X0180825Y0053645D01*
X0180825Y0053189D01*
X0177151Y0053189D01*
X0177151Y0052639D01*
X0180825Y0052639D01*
X0180825Y0049527D01*
X0180703Y0049069D01*
X0180466Y0048659D01*
X0180131Y0048324D01*
X0179720Y0048087D01*
X0179262Y0047964D01*
X0177150Y0047964D01*
X0177150Y0052639D01*
X0176600Y0052639D01*
X0172925Y0052639D01*
X0172925Y0049527D01*
X0173048Y0049069D01*
X0173285Y0048659D01*
X0173620Y0048324D01*
X0174031Y0048087D01*
X0174488Y0047964D01*
X0176600Y0047964D01*
X0176600Y0052639D01*
X0176600Y0053189D01*
X0172925Y0053189D01*
X0172925Y0056301D01*
X0173048Y0056759D01*
X0173285Y0057169D01*
X0173620Y0057505D01*
X0174031Y0057741D01*
X0174488Y0057864D01*
X0176600Y0057864D01*
X0176600Y0053189D01*
X0177150Y0053189D01*
X0177150Y0057864D01*
X0179262Y0057864D01*
X0179622Y0057768D01*
X0179622Y0059523D01*
X0179745Y0059981D01*
X0179982Y0060391D01*
X0180317Y0060726D01*
X0180666Y0060928D01*
X0179822Y0061773D01*
X0179822Y0062304D01*
X0176925Y0062304D01*
X0176925Y0060501D01*
X0175988Y0059564D01*
X0168363Y0059564D01*
X0167425Y0060501D01*
X0167425Y0068127D01*
X0168363Y0069064D01*
X0169995Y0069064D01*
X0169995Y0071063D01*
X0169225Y0071833D01*
X0166951Y0071833D01*
X0166951Y0067759D01*
X0166014Y0066821D01*
X0164678Y0066821D01*
X0164635Y0057637D01*
X0164663Y0057664D01*
X0170288Y0057664D01*
X0171225Y0056727D01*
X0171225Y0049101D01*
X0170288Y0048164D01*
X0164663Y0048164D01*
X0163725Y0049101D01*
X0163725Y0050833D01*
X0163225Y0050833D01*
X0161995Y0052063D01*
X0161995Y0052063D01*
X0161646Y0052412D01*
X0161641Y0052412D01*
X0161032Y0053027D01*
X0160420Y0053638D01*
X0160420Y0053644D01*
X0160416Y0053648D01*
X0160420Y0054513D01*
X0160420Y0055378D01*
X0160424Y0055382D01*
X0160478Y0066821D01*
X0159176Y0066821D01*
X0158239Y0067759D01*
X0158239Y0071833D01*
X0157965Y0071833D01*
X0154204Y0068072D01*
X0154134Y0067903D01*
X0153125Y0066894D01*
X0151808Y0066349D01*
X0150382Y0066349D01*
X0149226Y0066828D01*
X0149226Y0065954D01*
X0144854Y0065954D01*
X0144854Y0065586D01*
X0144854Y0062002D01*
X0147663Y0062002D01*
X0148121Y0062124D01*
X0148531Y0062361D01*
X0148866Y0062696D01*
X0149103Y0063107D01*
X0149226Y0063565D01*
X0149226Y0065586D01*
X0144854Y0065586D01*
X0144486Y0065586D01*
X0144486Y0062002D01*
X0141677Y0062002D01*
X0141557Y0062034D01*
X0141557Y0061865D01*
X0142130Y0061293D01*
X0142360Y0060737D01*
X0143134Y0059963D01*
X0143679Y0058646D01*
X0143679Y0057220D01*
X0143287Y0056272D01*
X0144207Y0055352D01*
X0144207Y0048514D01*
X0143270Y0047577D01*
X0138007Y0047577D01*
X0137095Y0048489D01*
X0136183Y0047577D01*
X0130921Y0047577D01*
X0130595Y0047903D01*
X0130270Y0047577D01*
X0125007Y0047577D01*
X0124095Y0048489D01*
X0123183Y0047577D01*
X0117921Y0047577D01*
X0117595Y0047903D01*
X0117270Y0047577D01*
X0112007Y0047577D01*
X0111163Y0048422D01*
X0110961Y0048072D01*
X0110626Y0047737D01*
X0110215Y0047500D01*
X0109757Y0047377D01*
X0107736Y0047377D01*
X0107736Y0051749D01*
X0107368Y0051749D01*
X0107368Y0047377D01*
X0105346Y0047377D01*
X0104889Y0047500D01*
X0104478Y0047737D01*
X0104143Y0048072D01*
X0103906Y0048482D01*
X0103783Y0048940D01*
X0103783Y0051749D01*
X0107367Y0051749D01*
X0107367Y0052117D01*
X0103783Y0052117D01*
X0103783Y0054926D01*
X0103906Y0055384D01*
X0104143Y0055794D01*
X0104478Y0056129D01*
X0104843Y0056340D01*
X0096337Y0056340D01*
X0096337Y0066840D01*
X0094737Y0066840D01*
X0094737Y0056340D01*
X0084050Y0056340D01*
X0083592Y0056463D01*
X0083182Y0056700D01*
X0082847Y0057035D01*
X0082610Y0057445D01*
X0082487Y0057903D01*
X0082487Y0066840D01*
X0094737Y0066840D01*
X0094737Y0068440D01*
X0082487Y0068440D01*
X0082487Y0077377D01*
X0082610Y0077835D01*
X0082847Y0078245D01*
X0083182Y0078581D01*
X0083592Y0078817D01*
X0084050Y0078940D01*
X0094737Y0078940D01*
X0094737Y0068440D01*
X0096337Y0068440D01*
X0108587Y0068440D01*
X0108587Y0077377D01*
X0108464Y0077835D01*
X0108227Y0078245D01*
X0107892Y0078581D01*
X0107482Y0078817D01*
X0107024Y0078940D01*
X0096337Y0078940D01*
X0096337Y0068440D01*
X0096337Y0066840D01*
X0108587Y0066840D01*
X0108587Y0057903D01*
X0108464Y0057445D01*
X0108227Y0057035D01*
X0107892Y0056700D01*
X0107482Y0056463D01*
X0107368Y0056432D01*
X0107368Y0052117D01*
X0107736Y0052117D01*
X0107736Y0056489D01*
X0109757Y0056489D01*
X0110215Y0056366D01*
X0110626Y0056129D01*
X0110961Y0055794D01*
X0111163Y0055444D01*
X0112007Y0056289D01*
X0117270Y0056289D01*
X0117595Y0055964D01*
X0117921Y0056289D01*
X0118695Y0056289D01*
X0118695Y0057410D01*
X0119061Y0058293D01*
X0119545Y0058777D01*
X0115154Y0058777D01*
X0115154Y0061758D01*
X0115154Y0061758D01*
X0109023Y0061758D01*
X0109023Y0060340D01*
X0109146Y0059882D01*
X0109383Y0059472D01*
X0109718Y0059137D01*
X0110129Y0058900D01*
X0110587Y0058777D01*
X0115154Y0058777D01*
X0115154Y0061758D01*
X0115154Y0061758D01*
X0109023Y0061758D01*
X0109023Y0063176D01*
X0109146Y0063634D01*
X0109383Y0064045D01*
X0109718Y0064380D01*
X0109744Y0064394D01*
X0109223Y0064914D01*
X0109223Y0068602D01*
X0109880Y0069258D01*
X0109223Y0069914D01*
X0109223Y0073602D01*
X0109880Y0074258D01*
X0109223Y0074914D01*
X0109223Y0078602D01*
X0110161Y0079539D01*
X0112922Y0079539D01*
X0112065Y0079894D01*
X0111057Y0080903D01*
X0110511Y0082220D01*
X0110511Y0083646D01*
X0111057Y0084963D01*
X0112065Y0085972D01*
X0113382Y0086517D01*
X0114808Y0086517D01*
X0116125Y0085972D01*
X0117064Y0085033D01*
X0118225Y0085033D01*
X0118729Y0085537D01*
X0118495Y0085770D01*
X0118495Y0092096D01*
X0118532Y0092133D01*
X0111658Y0092133D01*
X0111695Y0092096D01*
X0111695Y0085770D01*
X0110758Y0084833D01*
X0103965Y0084833D01*
X0100965Y0081833D01*
X0098064Y0081833D01*
X0097125Y0080894D01*
X0095808Y0080349D01*
X0094382Y0080349D01*
X0093065Y0080894D01*
X0092057Y0081903D01*
X0091511Y0083220D01*
X0091511Y0084646D01*
X0092057Y0085963D01*
X0093065Y0086972D01*
X0094382Y0087517D01*
X0095808Y0087517D01*
X0097125Y0086972D01*
X0098064Y0086033D01*
X0098495Y0086033D01*
X0098495Y0092096D01*
X0098532Y0092133D01*
X0091658Y0092133D01*
X0091695Y0092096D01*
X0091695Y0085770D01*
X0090758Y0084833D01*
X0083965Y0084833D01*
X0081965Y0082833D01*
X0057064Y0082833D01*
X0056125Y0081894D01*
X0054808Y0081349D01*
X0053382Y0081349D01*
X0052065Y0081894D01*
X0051195Y0082764D01*
X0051195Y0056010D01*
X0051584Y0056948D01*
X0053280Y0058644D01*
X0055496Y0059562D01*
X0057633Y0059562D01*
X0059787Y0061716D01*
X0060874Y0062166D01*
X0060874Y0062476D01*
X0061811Y0063413D01*
X0074948Y0063413D01*
X0075885Y0062476D01*
X0075885Y0054851D01*
X0074948Y0053914D01*
X0062724Y0053914D01*
X0062724Y0052334D01*
X0061806Y0050118D01*
X0060110Y0048422D01*
X0057894Y0047504D01*
X0055496Y0047504D01*
X0053280Y0048422D01*
X0051584Y0050118D01*
X0051195Y0051056D01*
X0051195Y0044517D01*
X0051808Y0044517D01*
X0053125Y0043972D01*
X0054134Y0042963D01*
X0054679Y0041646D01*
X0054679Y0040220D01*
X0054134Y0038903D01*
X0053125Y0037894D01*
X0051808Y0037349D01*
X0050382Y0037349D01*
X0049065Y0037894D01*
X0048057Y0038903D01*
X0047511Y0040220D01*
X0047511Y0041547D01*
X0046995Y0042063D01*
X0046995Y0085803D01*
X0050995Y0089803D01*
X0052225Y0091033D01*
X0058495Y0091033D01*
X0058495Y0092096D01*
X0058532Y0092133D01*
X0030395Y0092133D01*
X0030395Y0091479D02*
X0058495Y0091479D01*
X0051073Y0089881D02*
X0030395Y0089881D01*
X0030395Y0088282D02*
X0049475Y0088282D01*
X0047876Y0086684D02*
X0030395Y0086684D01*
X0030395Y0085085D02*
X0046995Y0085085D01*
X0046995Y0083487D02*
X0030395Y0083487D01*
X0030395Y0081888D02*
X0046995Y0081888D01*
X0046995Y0080290D02*
X0030395Y0080290D01*
X0030395Y0078691D02*
X0046995Y0078691D01*
X0046995Y0077093D02*
X0030395Y0077093D01*
X0030395Y0075494D02*
X0046995Y0075494D01*
X0046995Y0073896D02*
X0030395Y0073896D01*
X0030395Y0072297D02*
X0046995Y0072297D01*
X0046995Y0070699D02*
X0043283Y0070699D01*
X0043183Y0070799D02*
X0040206Y0072032D01*
X0036984Y0072032D01*
X0034007Y0070799D01*
X0031729Y0068521D01*
X0030496Y0065544D01*
X0030496Y0062322D01*
X0031729Y0059345D01*
X0034007Y0057067D01*
X0036984Y0055834D01*
X0040206Y0055834D01*
X0043183Y0057067D01*
X0045461Y0059345D01*
X0046694Y0062322D01*
X0046694Y0065544D01*
X0045461Y0068521D01*
X0043183Y0070799D01*
X0044882Y0069100D02*
X0046995Y0069100D01*
X0046995Y0067502D02*
X0045883Y0067502D01*
X0046546Y0065903D02*
X0046995Y0065903D01*
X0046995Y0064305D02*
X0046694Y0064305D01*
X0046694Y0062706D02*
X0046995Y0062706D01*
X0046995Y0061108D02*
X0046191Y0061108D01*
X0045529Y0059509D02*
X0046995Y0059509D01*
X0046995Y0057911D02*
X0044027Y0057911D01*
X0041361Y0056312D02*
X0046995Y0056312D01*
X0046995Y0054714D02*
X0030395Y0054714D01*
X0030395Y0056312D02*
X0035829Y0056312D01*
X0033163Y0057911D02*
X0030395Y0057911D01*
X0030395Y0059509D02*
X0031661Y0059509D01*
X0030999Y0061108D02*
X0030395Y0061108D01*
X0030395Y0062706D02*
X0030496Y0062706D01*
X0030496Y0064305D02*
X0030395Y0064305D01*
X0030395Y0065903D02*
X0030645Y0065903D01*
X0030395Y0067502D02*
X0031307Y0067502D01*
X0030395Y0069100D02*
X0032308Y0069100D01*
X0033907Y0070699D02*
X0030395Y0070699D01*
X0051195Y0070699D02*
X0082487Y0070699D01*
X0082487Y0069100D02*
X0051195Y0069100D01*
X0051195Y0067502D02*
X0094737Y0067502D01*
X0096337Y0067502D02*
X0109223Y0067502D01*
X0109223Y0065903D02*
X0108587Y0065903D01*
X0108587Y0064305D02*
X0109643Y0064305D01*
X0109023Y0062706D02*
X0108587Y0062706D01*
X0108587Y0061108D02*
X0109023Y0061108D01*
X0109362Y0059509D02*
X0108587Y0059509D01*
X0108587Y0057911D02*
X0118902Y0057911D01*
X0121095Y0056933D02*
X0122095Y0057933D01*
X0122095Y0065933D01*
X0122920Y0066758D01*
X0128095Y0071933D01*
X0135452Y0071933D01*
X0135627Y0071758D01*
X0144670Y0072857D02*
X0144268Y0076758D01*
X0135627Y0076758D01*
X0124095Y0077933D02*
X0122920Y0076758D01*
X0115154Y0076758D01*
X0109223Y0077093D02*
X0108587Y0077093D01*
X0108587Y0075494D02*
X0109223Y0075494D01*
X0109517Y0073896D02*
X0108587Y0073896D01*
X0108587Y0072297D02*
X0109223Y0072297D01*
X0109223Y0070699D02*
X0108587Y0070699D01*
X0108587Y0069100D02*
X0109722Y0069100D01*
X0115154Y0066758D02*
X0122920Y0066758D01*
X0127095Y0064933D02*
X0127095Y0052476D01*
X0127638Y0051933D01*
X0133552Y0051933D01*
X0140095Y0052476D02*
X0140638Y0051933D01*
X0140095Y0052476D02*
X0140095Y0057933D01*
X0140095Y0059933D01*
X0138270Y0061758D01*
X0135627Y0061758D01*
X0142206Y0061108D02*
X0160451Y0061108D01*
X0160444Y0059509D02*
X0143322Y0059509D01*
X0143679Y0057911D02*
X0160436Y0057911D01*
X0160429Y0056312D02*
X0143303Y0056312D01*
X0144207Y0054714D02*
X0160420Y0054714D01*
X0160943Y0053115D02*
X0144207Y0053115D01*
X0144207Y0051517D02*
X0162542Y0051517D01*
X0163725Y0049918D02*
X0144207Y0049918D01*
X0144012Y0048320D02*
X0164507Y0048320D01*
X0170444Y0048320D02*
X0173627Y0048320D01*
X0176600Y0048320D02*
X0177150Y0048320D01*
X0180124Y0048320D02*
X0215995Y0048320D01*
X0215995Y0049918D02*
X0180825Y0049918D01*
X0180825Y0051517D02*
X0215995Y0051517D01*
X0215995Y0053115D02*
X0177151Y0053115D01*
X0176600Y0053115D02*
X0171225Y0053115D01*
X0171225Y0051517D02*
X0172925Y0051517D01*
X0172925Y0049918D02*
X0171225Y0049918D01*
X0176600Y0049918D02*
X0177150Y0049918D01*
X0177150Y0051517D02*
X0176600Y0051517D01*
X0176600Y0054714D02*
X0177150Y0054714D01*
X0177150Y0056312D02*
X0176600Y0056312D01*
X0179622Y0057911D02*
X0164636Y0057911D01*
X0164644Y0059509D02*
X0179622Y0059509D01*
X0180487Y0061108D02*
X0176925Y0061108D01*
X0167425Y0061108D02*
X0164651Y0061108D01*
X0164659Y0062706D02*
X0167425Y0062706D01*
X0167425Y0064305D02*
X0164666Y0064305D01*
X0164674Y0065903D02*
X0167425Y0065903D01*
X0167425Y0067502D02*
X0166694Y0067502D01*
X0166951Y0069100D02*
X0169995Y0069100D01*
X0169995Y0070699D02*
X0166951Y0070699D01*
X0174195Y0070699D02*
X0183700Y0070699D01*
X0182293Y0069100D02*
X0174195Y0069100D01*
X0176925Y0067502D02*
X0180289Y0067502D01*
X0188067Y0067502D02*
X0215995Y0067502D01*
X0215995Y0069100D02*
X0192831Y0069100D01*
X0193671Y0070699D02*
X0215995Y0070699D01*
X0215995Y0072297D02*
X0193617Y0072297D01*
X0192701Y0073896D02*
X0215995Y0073896D01*
X0215995Y0075494D02*
X0171504Y0075494D01*
X0173102Y0073896D02*
X0187489Y0073896D01*
X0184995Y0072297D02*
X0174195Y0072297D01*
X0166951Y0077093D02*
X0215995Y0077093D01*
X0215995Y0078691D02*
X0174635Y0078691D01*
X0171555Y0078691D02*
X0166951Y0078691D01*
X0166769Y0080290D02*
X0169896Y0080290D01*
X0169511Y0081888D02*
X0158020Y0081888D01*
X0159619Y0083487D02*
X0169859Y0083487D01*
X0171010Y0085085D02*
X0171340Y0085085D01*
X0174851Y0085085D02*
X0179180Y0085085D01*
X0174275Y0086684D02*
X0171695Y0086684D01*
X0171695Y0088282D02*
X0173511Y0088282D01*
X0173608Y0089881D02*
X0171695Y0089881D01*
X0171695Y0091479D02*
X0174573Y0091479D01*
X0191695Y0091479D02*
X0198495Y0091479D01*
X0198495Y0089881D02*
X0191695Y0089881D01*
X0191695Y0088282D02*
X0198495Y0088282D01*
X0198495Y0086684D02*
X0191695Y0086684D01*
X0191010Y0085085D02*
X0199180Y0085085D01*
X0204020Y0081888D02*
X0211648Y0081888D01*
X0211511Y0083487D02*
X0205619Y0083487D01*
X0211010Y0085085D02*
X0212179Y0085085D01*
X0211695Y0086684D02*
X0236795Y0086684D01*
X0236795Y0088282D02*
X0211695Y0088282D01*
X0211695Y0089881D02*
X0236795Y0089881D01*
X0236795Y0091479D02*
X0211695Y0091479D01*
X0218012Y0085085D02*
X0236795Y0085085D01*
X0236795Y0083487D02*
X0218679Y0083487D01*
X0219110Y0081888D02*
X0236795Y0081888D01*
X0236795Y0080290D02*
X0220195Y0080290D01*
X0220195Y0078691D02*
X0236795Y0078691D01*
X0236795Y0077093D02*
X0220195Y0077093D01*
X0220195Y0075494D02*
X0236795Y0075494D01*
X0236795Y0073896D02*
X0220195Y0073896D01*
X0220195Y0072297D02*
X0236795Y0072297D01*
X0236795Y0070699D02*
X0233283Y0070699D01*
X0233183Y0070799D02*
X0230206Y0072032D01*
X0226984Y0072032D01*
X0224007Y0070799D01*
X0221729Y0068521D01*
X0220496Y0065544D01*
X0220496Y0062322D01*
X0221729Y0059345D01*
X0224007Y0057067D01*
X0226984Y0055834D01*
X0230206Y0055834D01*
X0233183Y0057067D01*
X0235461Y0059345D01*
X0236694Y0062322D01*
X0236694Y0065544D01*
X0235461Y0068521D01*
X0233183Y0070799D01*
X0234882Y0069100D02*
X0236795Y0069100D01*
X0236795Y0067502D02*
X0235883Y0067502D01*
X0236546Y0065903D02*
X0236795Y0065903D01*
X0236795Y0064305D02*
X0236694Y0064305D01*
X0236694Y0062706D02*
X0236795Y0062706D01*
X0236795Y0061108D02*
X0236191Y0061108D01*
X0236795Y0059509D02*
X0235529Y0059509D01*
X0236795Y0057911D02*
X0234027Y0057911D01*
X0231361Y0056312D02*
X0236795Y0056312D01*
X0236795Y0054714D02*
X0220195Y0054714D01*
X0220195Y0056312D02*
X0225829Y0056312D01*
X0223163Y0057911D02*
X0220195Y0057911D01*
X0220195Y0059509D02*
X0221661Y0059509D01*
X0220999Y0061108D02*
X0220195Y0061108D01*
X0220195Y0062706D02*
X0220496Y0062706D01*
X0220496Y0064305D02*
X0220195Y0064305D01*
X0220195Y0065903D02*
X0220645Y0065903D01*
X0220195Y0067502D02*
X0221307Y0067502D01*
X0222308Y0069100D02*
X0220195Y0069100D01*
X0220195Y0070699D02*
X0223907Y0070699D01*
X0215995Y0065903D02*
X0188534Y0065903D01*
X0188534Y0064305D02*
X0215995Y0064305D01*
X0215995Y0062706D02*
X0188534Y0062706D01*
X0187869Y0061108D02*
X0215995Y0061108D01*
X0215995Y0059509D02*
X0188734Y0059509D01*
X0188734Y0057911D02*
X0215995Y0057911D01*
X0215995Y0056312D02*
X0188734Y0056312D01*
X0188627Y0054714D02*
X0215995Y0054714D01*
X0220195Y0053115D02*
X0236795Y0053115D01*
X0236795Y0051517D02*
X0220195Y0051517D01*
X0220195Y0049918D02*
X0236795Y0049918D01*
X0236795Y0048320D02*
X0220195Y0048320D01*
X0220195Y0046721D02*
X0236795Y0046721D01*
X0236795Y0045123D02*
X0220195Y0045123D01*
X0220195Y0043524D02*
X0236795Y0043524D01*
X0236795Y0041926D02*
X0220195Y0041926D01*
X0220195Y0040327D02*
X0236795Y0040327D01*
X0236795Y0038729D02*
X0220195Y0038729D01*
X0219262Y0037130D02*
X0236795Y0037130D01*
X0211814Y0046721D02*
X0114376Y0046721D01*
X0115482Y0045123D02*
X0130216Y0045123D01*
X0135974Y0045123D02*
X0137815Y0045123D01*
X0137265Y0048320D02*
X0136926Y0048320D01*
X0124265Y0048320D02*
X0123926Y0048320D01*
X0121095Y0051933D02*
X0114638Y0051933D01*
X0120552Y0051933D01*
X0121095Y0051933D02*
X0121095Y0056933D01*
X0118695Y0056312D02*
X0110309Y0056312D01*
X0107736Y0056312D02*
X0107368Y0056312D01*
X0107368Y0054714D02*
X0107736Y0054714D01*
X0104795Y0056312D02*
X0075885Y0056312D01*
X0075747Y0054714D02*
X0103783Y0054714D01*
X0103783Y0053115D02*
X0062724Y0053115D01*
X0062386Y0051517D02*
X0103783Y0051517D01*
X0103783Y0049918D02*
X0061607Y0049918D01*
X0059864Y0048320D02*
X0104000Y0048320D01*
X0107368Y0048320D02*
X0107736Y0048320D01*
X0107736Y0049918D02*
X0107368Y0049918D01*
X0107368Y0051517D02*
X0107736Y0051517D01*
X0107736Y0053115D02*
X0107368Y0053115D01*
X0111104Y0048320D02*
X0111265Y0048320D01*
X0109814Y0046721D02*
X0095376Y0046721D01*
X0096482Y0045123D02*
X0098315Y0045123D01*
X0096716Y0043524D02*
X0096679Y0043524D01*
X0090814Y0046721D02*
X0051195Y0046721D01*
X0051195Y0045123D02*
X0074315Y0045123D01*
X0072716Y0043524D02*
X0053573Y0043524D01*
X0054564Y0041926D02*
X0058495Y0041926D01*
X0058495Y0040327D02*
X0054679Y0040327D01*
X0053960Y0038729D02*
X0058495Y0038729D01*
X0058495Y0037130D02*
X0030395Y0037130D01*
X0030395Y0038729D02*
X0048231Y0038729D01*
X0047511Y0040327D02*
X0030395Y0040327D01*
X0030395Y0041926D02*
X0047133Y0041926D01*
X0046995Y0043524D02*
X0030395Y0043524D01*
X0030395Y0045123D02*
X0046995Y0045123D01*
X0046995Y0046721D02*
X0030395Y0046721D01*
X0030395Y0048320D02*
X0046995Y0048320D01*
X0046995Y0049918D02*
X0030395Y0049918D01*
X0030395Y0051517D02*
X0046995Y0051517D01*
X0046995Y0053115D02*
X0030395Y0053115D01*
X0051195Y0049918D02*
X0051784Y0049918D01*
X0051195Y0048320D02*
X0053526Y0048320D01*
X0051320Y0056312D02*
X0051195Y0056312D01*
X0051195Y0057911D02*
X0052546Y0057911D01*
X0051195Y0059509D02*
X0055368Y0059509D01*
X0059179Y0061108D02*
X0051195Y0061108D01*
X0051195Y0062706D02*
X0061104Y0062706D01*
X0051195Y0064305D02*
X0082487Y0064305D01*
X0082487Y0065903D02*
X0051195Y0065903D01*
X0051195Y0072297D02*
X0061381Y0072297D01*
X0061811Y0071867D02*
X0074948Y0071867D01*
X0075885Y0072804D01*
X0075885Y0080429D01*
X0074948Y0081366D01*
X0061811Y0081366D01*
X0060874Y0080429D01*
X0060874Y0079017D01*
X0060526Y0079017D01*
X0060134Y0079963D01*
X0059125Y0080972D01*
X0057808Y0081517D01*
X0056382Y0081517D01*
X0055065Y0080972D01*
X0054057Y0079963D01*
X0053511Y0078646D01*
X0053511Y0077220D01*
X0054057Y0075903D01*
X0055065Y0074894D01*
X0056382Y0074349D01*
X0057615Y0074349D01*
X0057934Y0074217D01*
X0060874Y0074217D01*
X0060874Y0072804D01*
X0061811Y0071867D01*
X0060874Y0073896D02*
X0051195Y0073896D01*
X0051195Y0075494D02*
X0054465Y0075494D01*
X0053564Y0077093D02*
X0051195Y0077093D01*
X0051195Y0078691D02*
X0053530Y0078691D01*
X0054383Y0080290D02*
X0051195Y0080290D01*
X0051195Y0081888D02*
X0052079Y0081888D01*
X0056111Y0081888D02*
X0092071Y0081888D01*
X0091511Y0083487D02*
X0082619Y0083487D01*
X0091010Y0085085D02*
X0091693Y0085085D01*
X0091695Y0086684D02*
X0092777Y0086684D01*
X0091695Y0088282D02*
X0098495Y0088282D01*
X0098495Y0089881D02*
X0091695Y0089881D01*
X0091695Y0091479D02*
X0098495Y0091479D01*
X0098495Y0086684D02*
X0097413Y0086684D01*
X0102619Y0083487D02*
X0110511Y0083487D01*
X0111010Y0085085D02*
X0111179Y0085085D01*
X0111695Y0086684D02*
X0118495Y0086684D01*
X0118495Y0088282D02*
X0111695Y0088282D01*
X0111695Y0089881D02*
X0118495Y0089881D01*
X0118495Y0091479D02*
X0111695Y0091479D01*
X0117012Y0085085D02*
X0118278Y0085085D01*
X0110648Y0081888D02*
X0101020Y0081888D01*
X0096337Y0078691D02*
X0094737Y0078691D01*
X0094737Y0077093D02*
X0096337Y0077093D01*
X0096337Y0075494D02*
X0094737Y0075494D01*
X0094737Y0073896D02*
X0096337Y0073896D01*
X0096337Y0072297D02*
X0094737Y0072297D01*
X0094737Y0070699D02*
X0096337Y0070699D01*
X0096337Y0069100D02*
X0094737Y0069100D01*
X0094737Y0065903D02*
X0096337Y0065903D01*
X0096337Y0064305D02*
X0094737Y0064305D01*
X0094737Y0062706D02*
X0096337Y0062706D01*
X0096337Y0061108D02*
X0094737Y0061108D01*
X0094737Y0059509D02*
X0096337Y0059509D01*
X0096337Y0057911D02*
X0094737Y0057911D01*
X0082487Y0057911D02*
X0075885Y0057911D01*
X0075885Y0059509D02*
X0082487Y0059509D01*
X0082487Y0061108D02*
X0075885Y0061108D01*
X0075655Y0062706D02*
X0082487Y0062706D01*
X0082487Y0072297D02*
X0075378Y0072297D01*
X0075885Y0073896D02*
X0082487Y0073896D01*
X0082487Y0075494D02*
X0075885Y0075494D01*
X0075885Y0077093D02*
X0082487Y0077093D01*
X0083374Y0078691D02*
X0075885Y0078691D01*
X0075885Y0080290D02*
X0111669Y0080290D01*
X0109313Y0078691D02*
X0107700Y0078691D01*
X0127095Y0064933D02*
X0128920Y0066758D01*
X0135627Y0066758D01*
X0144486Y0064305D02*
X0144854Y0064305D01*
X0144854Y0065903D02*
X0160474Y0065903D01*
X0160466Y0064305D02*
X0149226Y0064305D01*
X0148872Y0062706D02*
X0160459Y0062706D01*
X0158496Y0067502D02*
X0153733Y0067502D01*
X0155232Y0069100D02*
X0158239Y0069100D01*
X0158239Y0070699D02*
X0156831Y0070699D01*
X0144854Y0062706D02*
X0144486Y0062706D01*
X0171225Y0056312D02*
X0172928Y0056312D01*
X0172925Y0054714D02*
X0171225Y0054714D01*
X0183994Y0054714D02*
X0184362Y0054714D01*
X0184362Y0056312D02*
X0183994Y0056312D01*
X0178315Y0045123D02*
X0174761Y0045123D01*
X0176316Y0043524D02*
X0176716Y0043524D01*
X0158815Y0045123D02*
X0155261Y0045123D01*
X0156816Y0043524D02*
X0157216Y0043524D01*
X0194761Y0045123D02*
X0198315Y0045123D01*
X0196716Y0043524D02*
X0196316Y0043524D01*
X0115154Y0059509D02*
X0115154Y0059509D01*
X0115154Y0061108D02*
X0115154Y0061108D01*
X0068379Y0076617D02*
X0058412Y0076617D01*
X0057095Y0077933D01*
X0059807Y0080290D02*
X0060874Y0080290D01*
X0202422Y0080290D02*
X0212669Y0080290D01*
D19*
X0124095Y0077933D03*
D20*
X0114095Y0082933D03*
X0095095Y0083933D03*
X0096095Y0073933D03*
X0101095Y0073933D03*
X0101095Y0068933D03*
X0096095Y0068933D03*
X0104095Y0064933D03*
X0104095Y0060933D03*
X0140095Y0057933D03*
X0147095Y0055933D03*
X0156095Y0064933D03*
X0151095Y0069933D03*
X0173095Y0081933D03*
X0177095Y0088933D03*
X0215095Y0082933D03*
X0190095Y0071433D03*
X0196095Y0065933D03*
X0187095Y0051933D03*
X0193095Y0041933D03*
X0173095Y0041933D03*
X0153595Y0041933D03*
X0133095Y0042933D03*
X0112095Y0043933D03*
X0093095Y0043933D03*
X0051095Y0040933D03*
X0057095Y0077933D03*
X0054095Y0084933D03*
X0133595Y0085433D03*
X0137095Y0088933D03*
X0214095Y0043933D03*
D21*
X0056695Y0053533D03*
D22*
X0061826Y0058664D01*
X0068379Y0058664D01*
D23*
X0076095Y0043933D02*
X0093095Y0043933D01*
X0095095Y0038933D02*
X0100095Y0043933D01*
X0112095Y0043933D01*
X0113095Y0038933D02*
X0117095Y0042933D01*
X0133095Y0042933D01*
X0134595Y0038933D02*
X0139595Y0043933D01*
X0151595Y0043933D01*
X0153595Y0041933D01*
X0154595Y0037933D02*
X0160595Y0043933D01*
X0171095Y0043933D01*
X0173095Y0041933D01*
X0174095Y0037933D02*
X0180095Y0043933D01*
X0191095Y0043933D01*
X0193095Y0041933D01*
X0198095Y0041933D02*
X0200095Y0043933D01*
X0214095Y0043933D01*
X0218095Y0038933D02*
X0205095Y0038933D01*
X0198095Y0038933D02*
X0198095Y0041933D01*
X0198095Y0038933D02*
X0197095Y0037933D01*
X0189095Y0037933D01*
X0188095Y0038933D01*
X0185095Y0038933D01*
X0174095Y0037933D02*
X0169095Y0037933D01*
X0168095Y0038933D01*
X0165095Y0038933D01*
X0154595Y0037933D02*
X0148095Y0037933D01*
X0147095Y0038933D01*
X0145095Y0038933D01*
X0134595Y0038933D02*
X0125095Y0038933D01*
X0113095Y0038933D02*
X0105095Y0038933D01*
X0095095Y0038933D02*
X0085095Y0038933D01*
X0083095Y0038933D01*
X0076095Y0043933D02*
X0071095Y0038933D01*
X0065095Y0038933D01*
X0051095Y0040933D02*
X0049095Y0042933D01*
X0049095Y0084933D01*
X0053095Y0088933D01*
X0065095Y0088933D01*
X0054095Y0084933D02*
X0081095Y0084933D01*
X0085095Y0088933D01*
X0095095Y0083933D02*
X0100095Y0083933D01*
X0105095Y0088933D01*
X0114095Y0082933D02*
X0119095Y0082933D01*
X0125095Y0088933D01*
X0133595Y0085433D02*
X0135095Y0083933D01*
X0157095Y0083933D01*
X0162095Y0088933D01*
X0165095Y0088933D01*
X0177095Y0088933D02*
X0185095Y0088933D01*
X0173095Y0081933D02*
X0201095Y0081933D01*
X0204095Y0084933D01*
X0204095Y0087933D01*
X0205095Y0088933D01*
X0215095Y0082933D02*
X0218095Y0079933D01*
X0218095Y0038933D01*
X0167475Y0052914D02*
X0167457Y0052933D01*
X0164095Y0052933D01*
X0162520Y0054508D01*
X0162595Y0070390D01*
X0157095Y0073933D02*
X0170095Y0073933D01*
X0172095Y0071933D01*
X0172095Y0064394D01*
X0172175Y0064314D01*
X0172265Y0064404D01*
X0184178Y0064404D01*
X0184095Y0064487D01*
X0184095Y0067933D01*
X0187095Y0071433D01*
X0190095Y0071433D01*
X0162595Y0077476D02*
X0160837Y0078933D01*
X0150095Y0078933D01*
X0148095Y0080933D01*
X0130095Y0080933D01*
X0129095Y0079933D01*
X0129095Y0076933D01*
X0123920Y0071758D01*
X0115154Y0071758D01*
X0151095Y0069933D02*
X0153095Y0069933D01*
X0157095Y0073933D01*
X0145095Y0088933D02*
X0137095Y0088933D01*
M02*
