G75*
%MOIN*%
%OFA0B0*%
%FSLAX25Y25*%
%IPPOS*%
%LPD*%
%AMOC8*
5,1,8,0,0,1.08239X$1,22.5*
%
%ADD10R,0.09449X0.09449*%
%ADD11R,0.06693X0.07087*%
%ADD12R,0.02165X0.04724*%
%ADD13R,0.05787X0.05000*%
%ADD14R,0.10000X0.05000*%
%ADD15R,0.05512X0.03937*%
%ADD16R,0.04331X0.03937*%
%ADD17R,0.03937X0.04331*%
%ADD18R,0.03150X0.07874*%
%ADD19C,0.04362*%
%ADD20C,0.01600*%
%ADD21C,0.03969*%
%ADD22C,0.01000*%
%ADD23C,0.08858*%
%ADD24C,0.04000*%
%ADD25C,0.03200*%
D10*
X0073138Y0053502D03*
X0073138Y0070825D03*
D11*
X0088432Y0070535D03*
X0088432Y0054393D03*
D12*
X0153284Y0059956D03*
X0160764Y0059956D03*
X0160764Y0070193D03*
X0157024Y0070193D03*
X0153284Y0070193D03*
X0193320Y0071237D03*
X0197060Y0071237D03*
X0200800Y0071237D03*
X0200800Y0061000D03*
X0193320Y0061000D03*
D13*
X0210540Y0059543D03*
X0210540Y0076472D03*
X0170056Y0076461D03*
X0170056Y0059531D03*
D14*
X0165095Y0038933D03*
X0145095Y0038933D03*
X0125095Y0038933D03*
X0105095Y0038933D03*
X0085095Y0038933D03*
X0065095Y0038933D03*
X0185095Y0038933D03*
X0205095Y0038933D03*
X0205095Y0088933D03*
X0185095Y0088933D03*
X0165095Y0088933D03*
X0145095Y0088933D03*
X0125095Y0088933D03*
X0105095Y0088933D03*
X0085095Y0088933D03*
X0065095Y0088933D03*
D15*
X0106776Y0078091D03*
X0106776Y0071005D03*
X0098164Y0061250D03*
X0098164Y0054163D03*
D16*
X0153146Y0052453D03*
X0159839Y0052453D03*
X0193760Y0051941D03*
X0200453Y0051941D03*
D17*
X0185103Y0062543D03*
X0185103Y0069236D03*
X0145190Y0069811D03*
X0145190Y0063118D03*
D18*
X0153028Y0078843D03*
X0160902Y0078843D03*
X0192879Y0079638D03*
X0200753Y0079638D03*
D19*
X0124095Y0077933D03*
D20*
X0124095Y0059933D01*
X0126095Y0057933D01*
X0140095Y0057933D01*
X0124095Y0077933D02*
X0106935Y0077933D01*
X0106776Y0078091D01*
X0104935Y0079933D01*
X0058095Y0079933D01*
X0057095Y0078933D01*
X0057095Y0077933D01*
D21*
X0057095Y0077933D03*
X0054095Y0084933D03*
X0095095Y0083933D03*
X0114095Y0082933D03*
X0133595Y0085433D03*
X0137095Y0088933D03*
X0173095Y0081933D03*
X0177095Y0088933D03*
X0215095Y0082933D03*
X0190095Y0071433D03*
X0196095Y0065933D03*
X0187095Y0051933D03*
X0193095Y0041933D03*
X0173095Y0041933D03*
X0153595Y0041933D03*
X0133095Y0042933D03*
X0112095Y0043933D03*
X0093095Y0043933D03*
X0051095Y0040933D03*
X0104095Y0060933D03*
X0104095Y0064933D03*
X0101095Y0068933D03*
X0096095Y0068933D03*
X0096095Y0073933D03*
X0101095Y0073933D03*
X0140095Y0057933D03*
X0147095Y0055933D03*
X0156095Y0064933D03*
X0151095Y0069933D03*
X0214095Y0043933D03*
D22*
X0053095Y0038933D02*
X0051095Y0040933D01*
X0053095Y0038933D02*
X0065095Y0038933D01*
X0075095Y0043933D02*
X0053095Y0043933D01*
X0049095Y0047433D01*
X0049095Y0079933D01*
X0054095Y0084933D01*
X0050811Y0084857D02*
X0048944Y0084857D01*
X0048927Y0083859D02*
X0050475Y0083859D01*
X0050836Y0084219D02*
X0050811Y0084280D01*
X0050811Y0085586D01*
X0051311Y0086793D01*
X0052235Y0087717D01*
X0053442Y0088217D01*
X0054748Y0088217D01*
X0055956Y0087717D01*
X0056879Y0086793D01*
X0057379Y0085586D01*
X0057379Y0084280D01*
X0056879Y0083073D01*
X0055956Y0082149D01*
X0054748Y0081649D01*
X0053442Y0081649D01*
X0053381Y0081674D01*
X0050895Y0079187D01*
X0050895Y0048250D01*
X0053771Y0045733D01*
X0075841Y0045733D01*
X0076895Y0044679D01*
X0079199Y0042375D01*
X0079557Y0042733D01*
X0090037Y0042733D01*
X0089811Y0043280D01*
X0089811Y0044586D01*
X0090311Y0045793D01*
X0091235Y0046717D01*
X0092442Y0047217D01*
X0093748Y0047217D01*
X0094956Y0046717D01*
X0095879Y0045793D01*
X0095904Y0045733D01*
X0097841Y0045733D01*
X0100841Y0042733D01*
X0109037Y0042733D01*
X0108811Y0043280D01*
X0108811Y0044586D01*
X0109311Y0045793D01*
X0110235Y0046717D01*
X0111442Y0047217D01*
X0112748Y0047217D01*
X0113956Y0046717D01*
X0114879Y0045793D01*
X0114904Y0045733D01*
X0117841Y0045733D01*
X0120841Y0042733D01*
X0129811Y0042733D01*
X0129811Y0043586D01*
X0130311Y0044793D01*
X0131151Y0045633D01*
X0121439Y0045633D01*
X0120226Y0046135D01*
X0119298Y0047064D01*
X0115498Y0050863D01*
X0093079Y0050863D01*
X0093079Y0050311D01*
X0092317Y0049550D01*
X0084547Y0049550D01*
X0083786Y0050311D01*
X0083786Y0051093D01*
X0079162Y0051093D01*
X0079162Y0048239D01*
X0078401Y0047478D01*
X0067875Y0047478D01*
X0067113Y0048239D01*
X0067113Y0050202D01*
X0061467Y0050202D01*
X0059940Y0048676D01*
X0057835Y0047804D01*
X0055556Y0047804D01*
X0053450Y0048676D01*
X0051838Y0050288D01*
X0050966Y0052393D01*
X0050966Y0054673D01*
X0051838Y0056778D01*
X0053450Y0058390D01*
X0055556Y0059262D01*
X0057835Y0059262D01*
X0059940Y0058390D01*
X0061528Y0056802D01*
X0067113Y0056802D01*
X0067113Y0058765D01*
X0067875Y0059527D01*
X0078401Y0059527D01*
X0079162Y0058765D01*
X0079162Y0057693D01*
X0083786Y0057693D01*
X0083786Y0058475D01*
X0084547Y0059236D01*
X0092317Y0059236D01*
X0093079Y0058475D01*
X0093079Y0057463D01*
X0117522Y0057463D01*
X0118735Y0056961D01*
X0123462Y0052233D01*
X0146752Y0052233D01*
X0147964Y0051731D01*
X0149681Y0050014D01*
X0149681Y0054960D01*
X0150442Y0055721D01*
X0151484Y0055721D01*
X0151484Y0056473D01*
X0150901Y0057056D01*
X0150901Y0059793D01*
X0149377Y0061318D01*
X0148458Y0061318D01*
X0148458Y0060414D01*
X0147697Y0059653D01*
X0142938Y0059653D01*
X0143379Y0058586D01*
X0143379Y0057280D01*
X0142879Y0056073D01*
X0141956Y0055149D01*
X0140748Y0054649D01*
X0139442Y0054649D01*
X0138235Y0055149D01*
X0137551Y0055833D01*
X0125225Y0055833D01*
X0123225Y0057833D01*
X0121995Y0059063D01*
X0121995Y0075110D01*
X0121272Y0075833D01*
X0110832Y0075833D01*
X0110832Y0075584D01*
X0110071Y0074823D01*
X0103482Y0074823D01*
X0102720Y0075584D01*
X0102720Y0077833D01*
X0060379Y0077833D01*
X0060379Y0077280D01*
X0059879Y0076073D01*
X0058956Y0075149D01*
X0057748Y0074649D01*
X0056442Y0074649D01*
X0055235Y0075149D01*
X0054311Y0076073D01*
X0053811Y0077280D01*
X0053811Y0078586D01*
X0054311Y0079793D01*
X0055235Y0080717D01*
X0056387Y0081194D01*
X0057225Y0082033D01*
X0092351Y0082033D01*
X0092311Y0082073D01*
X0091872Y0083133D01*
X0069350Y0083133D01*
X0068295Y0084187D01*
X0067350Y0085133D01*
X0059557Y0085133D01*
X0058795Y0085895D01*
X0058795Y0091972D01*
X0059257Y0092433D01*
X0049070Y0092433D01*
X0048901Y0082284D01*
X0050836Y0084219D01*
X0049477Y0082860D02*
X0048911Y0082860D01*
X0052571Y0080863D02*
X0055587Y0080863D01*
X0055262Y0081862D02*
X0057054Y0081862D01*
X0056667Y0082860D02*
X0091985Y0082860D01*
X0094095Y0084933D02*
X0095095Y0083933D01*
X0094095Y0084933D02*
X0070095Y0084933D01*
X0066095Y0088933D01*
X0065095Y0088933D01*
X0058795Y0088851D02*
X0049010Y0088851D01*
X0048994Y0087853D02*
X0052562Y0087853D01*
X0051372Y0086854D02*
X0048977Y0086854D01*
X0048961Y0085856D02*
X0050922Y0085856D01*
X0055629Y0087853D02*
X0058795Y0087853D01*
X0058795Y0086854D02*
X0056819Y0086854D01*
X0057268Y0085856D02*
X0058834Y0085856D01*
X0057379Y0084857D02*
X0067625Y0084857D01*
X0068624Y0083859D02*
X0057205Y0083859D01*
X0054382Y0079865D02*
X0051572Y0079865D01*
X0050895Y0078866D02*
X0053927Y0078866D01*
X0053811Y0077868D02*
X0050895Y0077868D01*
X0050895Y0076869D02*
X0053981Y0076869D01*
X0054513Y0075871D02*
X0050895Y0075871D01*
X0050895Y0074872D02*
X0055903Y0074872D01*
X0058287Y0074872D02*
X0066913Y0074872D01*
X0066913Y0075747D02*
X0066913Y0071325D01*
X0072638Y0071325D01*
X0072638Y0077050D01*
X0068216Y0077050D01*
X0067834Y0076947D01*
X0067492Y0076750D01*
X0067213Y0076471D01*
X0067015Y0076129D01*
X0066913Y0075747D01*
X0066946Y0075871D02*
X0059677Y0075871D01*
X0060209Y0076869D02*
X0067699Y0076869D01*
X0072638Y0076869D02*
X0073638Y0076869D01*
X0073638Y0077050D02*
X0073638Y0071325D01*
X0079362Y0071325D01*
X0079362Y0075747D01*
X0079260Y0076129D01*
X0079062Y0076471D01*
X0078783Y0076750D01*
X0078441Y0076947D01*
X0078060Y0077050D01*
X0073638Y0077050D01*
X0073638Y0075871D02*
X0072638Y0075871D01*
X0072638Y0074872D02*
X0073638Y0074872D01*
X0073638Y0073874D02*
X0072638Y0073874D01*
X0072638Y0072875D02*
X0073638Y0072875D01*
X0073638Y0071877D02*
X0072638Y0071877D01*
X0072638Y0071325D02*
X0073638Y0071325D01*
X0073638Y0070325D01*
X0079362Y0070325D01*
X0079362Y0065903D01*
X0079260Y0065522D01*
X0079062Y0065180D01*
X0078783Y0064900D01*
X0078441Y0064703D01*
X0078060Y0064601D01*
X0073638Y0064601D01*
X0073638Y0070325D01*
X0072638Y0070325D01*
X0072638Y0064601D01*
X0068216Y0064601D01*
X0067834Y0064703D01*
X0067492Y0064900D01*
X0067213Y0065180D01*
X0067015Y0065522D01*
X0066913Y0065903D01*
X0066913Y0070325D01*
X0072638Y0070325D01*
X0072638Y0071325D01*
X0072638Y0070878D02*
X0050895Y0070878D01*
X0050895Y0071877D02*
X0066913Y0071877D01*
X0066913Y0072875D02*
X0050895Y0072875D01*
X0050895Y0073874D02*
X0066913Y0073874D01*
X0073638Y0070878D02*
X0087932Y0070878D01*
X0087932Y0071035D02*
X0087932Y0070035D01*
X0083586Y0070035D01*
X0083586Y0066794D01*
X0083688Y0066412D01*
X0083885Y0066070D01*
X0084165Y0065791D01*
X0084507Y0065594D01*
X0084888Y0065491D01*
X0087932Y0065491D01*
X0087932Y0070035D01*
X0088932Y0070035D01*
X0088932Y0071035D01*
X0087932Y0071035D01*
X0087932Y0075578D01*
X0084888Y0075578D01*
X0084507Y0075476D01*
X0084165Y0075278D01*
X0083885Y0074999D01*
X0083688Y0074657D01*
X0083586Y0074275D01*
X0083586Y0071035D01*
X0087932Y0071035D01*
X0087932Y0071877D02*
X0088932Y0071877D01*
X0088932Y0071035D02*
X0088932Y0075578D01*
X0091976Y0075578D01*
X0092358Y0075476D01*
X0092700Y0075278D01*
X0092979Y0074999D01*
X0093176Y0074657D01*
X0093279Y0074275D01*
X0093279Y0071035D01*
X0088932Y0071035D01*
X0088932Y0070878D02*
X0106292Y0070878D01*
X0106292Y0070520D02*
X0106292Y0071489D01*
X0106292Y0074473D01*
X0103823Y0074473D01*
X0103441Y0074371D01*
X0103099Y0074174D01*
X0102820Y0073894D01*
X0102623Y0073552D01*
X0102520Y0073171D01*
X0102520Y0071489D01*
X0106292Y0071489D01*
X0107260Y0071489D01*
X0107260Y0074473D01*
X0109730Y0074473D01*
X0110111Y0074371D01*
X0110453Y0074174D01*
X0110732Y0073894D01*
X0110930Y0073552D01*
X0111032Y0073171D01*
X0111032Y0071489D01*
X0107261Y0071489D01*
X0107261Y0070520D01*
X0111032Y0070520D01*
X0111032Y0068839D01*
X0110930Y0068457D01*
X0110732Y0068115D01*
X0110453Y0067836D01*
X0110111Y0067638D01*
X0109730Y0067536D01*
X0107260Y0067536D01*
X0107260Y0070520D01*
X0106292Y0070520D01*
X0106292Y0067536D01*
X0103823Y0067536D01*
X0103441Y0067638D01*
X0103099Y0067836D01*
X0102820Y0068115D01*
X0102623Y0068457D01*
X0102520Y0068839D01*
X0102520Y0070520D01*
X0106292Y0070520D01*
X0106292Y0069879D02*
X0107260Y0069879D01*
X0107260Y0068881D02*
X0106292Y0068881D01*
X0106292Y0067882D02*
X0107260Y0067882D01*
X0110500Y0067882D02*
X0121995Y0067882D01*
X0121995Y0066884D02*
X0093279Y0066884D01*
X0093279Y0066794D02*
X0093279Y0070035D01*
X0088932Y0070035D01*
X0088932Y0065491D01*
X0091976Y0065491D01*
X0092358Y0065594D01*
X0092700Y0065791D01*
X0092979Y0066070D01*
X0093176Y0066412D01*
X0093279Y0066794D01*
X0092794Y0065885D02*
X0121995Y0065885D01*
X0121995Y0064887D02*
X0078760Y0064887D01*
X0079357Y0065885D02*
X0084070Y0065885D01*
X0083586Y0066884D02*
X0079362Y0066884D01*
X0079362Y0067882D02*
X0083586Y0067882D01*
X0083586Y0068881D02*
X0079362Y0068881D01*
X0079362Y0069879D02*
X0083586Y0069879D01*
X0087932Y0069879D02*
X0088932Y0069879D01*
X0088932Y0068881D02*
X0087932Y0068881D01*
X0087932Y0067882D02*
X0088932Y0067882D01*
X0088932Y0066884D02*
X0087932Y0066884D01*
X0087932Y0065885D02*
X0088932Y0065885D01*
X0093279Y0067882D02*
X0103053Y0067882D01*
X0102520Y0068881D02*
X0093279Y0068881D01*
X0093279Y0069879D02*
X0102520Y0069879D01*
X0107261Y0070878D02*
X0121995Y0070878D01*
X0121995Y0071877D02*
X0111032Y0071877D01*
X0111032Y0072875D02*
X0121995Y0072875D01*
X0121995Y0073874D02*
X0110744Y0073874D01*
X0110120Y0074872D02*
X0121995Y0074872D01*
X0121995Y0069879D02*
X0111032Y0069879D01*
X0111032Y0068881D02*
X0121995Y0068881D01*
X0129095Y0066933D02*
X0132095Y0063933D01*
X0145375Y0063933D01*
X0145190Y0063118D01*
X0150122Y0063118D01*
X0153284Y0059956D01*
X0153284Y0052591D01*
X0153146Y0052453D01*
X0149681Y0052905D02*
X0122790Y0052905D01*
X0121792Y0053903D02*
X0149681Y0053903D01*
X0149681Y0054902D02*
X0141359Y0054902D01*
X0142707Y0055900D02*
X0151484Y0055900D01*
X0151058Y0056899D02*
X0143222Y0056899D01*
X0143379Y0057897D02*
X0150901Y0057897D01*
X0150901Y0058896D02*
X0143251Y0058896D01*
X0147938Y0059894D02*
X0150800Y0059894D01*
X0149802Y0060893D02*
X0148458Y0060893D01*
X0151898Y0063888D02*
X0157505Y0063888D01*
X0157350Y0063733D02*
X0157350Y0063733D01*
X0159295Y0065679D01*
X0160050Y0066433D01*
X0159952Y0066531D01*
X0159143Y0066531D01*
X0159036Y0066639D01*
X0159028Y0066631D01*
X0158686Y0066433D01*
X0158304Y0066331D01*
X0157066Y0066331D01*
X0157066Y0070152D01*
X0156983Y0070152D01*
X0156983Y0066331D01*
X0155744Y0066331D01*
X0155363Y0066433D01*
X0155021Y0066631D01*
X0155013Y0066639D01*
X0154905Y0066531D01*
X0151663Y0066531D01*
X0151545Y0066649D01*
X0150442Y0066649D01*
X0149235Y0067149D01*
X0148458Y0067925D01*
X0148458Y0067107D01*
X0147815Y0066465D01*
X0148458Y0065822D01*
X0148458Y0064918D01*
X0150868Y0064918D01*
X0152167Y0063618D01*
X0154905Y0063618D01*
X0155667Y0062857D01*
X0155667Y0057056D01*
X0155084Y0056473D01*
X0155084Y0055721D01*
X0155850Y0055721D01*
X0156295Y0055276D01*
X0156295Y0062679D01*
X0157350Y0063733D01*
X0156506Y0062890D02*
X0155634Y0062890D01*
X0155667Y0061891D02*
X0156295Y0061891D01*
X0156295Y0060893D02*
X0155667Y0060893D01*
X0155667Y0059894D02*
X0156295Y0059894D01*
X0156295Y0058896D02*
X0155667Y0058896D01*
X0155667Y0057897D02*
X0156295Y0057897D01*
X0156295Y0056899D02*
X0155510Y0056899D01*
X0155084Y0055900D02*
X0156295Y0055900D01*
X0158095Y0055921D02*
X0158095Y0061933D01*
X0158182Y0062020D01*
X0158182Y0059998D01*
X0160723Y0059998D01*
X0160723Y0063818D01*
X0159981Y0063818D01*
X0161095Y0064933D01*
X0174095Y0064933D01*
X0175095Y0063933D01*
X0175095Y0046933D01*
X0158095Y0046933D01*
X0158095Y0048984D01*
X0159355Y0048984D01*
X0159355Y0051968D01*
X0160323Y0051968D01*
X0160323Y0048984D01*
X0162202Y0048984D01*
X0162584Y0049086D01*
X0162926Y0049284D01*
X0163205Y0049563D01*
X0163402Y0049905D01*
X0163505Y0050287D01*
X0163505Y0051968D01*
X0160324Y0051968D01*
X0160324Y0052937D01*
X0163505Y0052937D01*
X0163505Y0054619D01*
X0163402Y0055000D01*
X0163205Y0055342D01*
X0162926Y0055622D01*
X0162584Y0055819D01*
X0162202Y0055921D01*
X0160323Y0055921D01*
X0160323Y0052937D01*
X0159355Y0052937D01*
X0159355Y0055921D01*
X0158095Y0055921D01*
X0158761Y0056394D02*
X0158481Y0056673D01*
X0158284Y0057015D01*
X0158182Y0057397D01*
X0158182Y0059915D01*
X0160723Y0059915D01*
X0160723Y0059998D01*
X0160806Y0059998D01*
X0160806Y0063818D01*
X0162045Y0063818D01*
X0162426Y0063716D01*
X0162768Y0063519D01*
X0163047Y0063240D01*
X0163245Y0062897D01*
X0163347Y0062516D01*
X0163347Y0059998D01*
X0160806Y0059998D01*
X0160806Y0059915D01*
X0163347Y0059915D01*
X0163347Y0057397D01*
X0163245Y0057015D01*
X0163047Y0056673D01*
X0162768Y0056394D01*
X0162426Y0056196D01*
X0162045Y0056094D01*
X0160806Y0056094D01*
X0160806Y0059915D01*
X0160723Y0059915D01*
X0160723Y0056094D01*
X0159484Y0056094D01*
X0159103Y0056196D01*
X0158761Y0056394D01*
X0158351Y0056899D02*
X0158095Y0056899D01*
X0158095Y0057897D02*
X0158182Y0057897D01*
X0158182Y0058896D02*
X0158095Y0058896D01*
X0158095Y0059894D02*
X0158182Y0059894D01*
X0158182Y0060893D02*
X0158095Y0060893D01*
X0158095Y0061891D02*
X0158182Y0061891D01*
X0160723Y0061891D02*
X0160806Y0061891D01*
X0160806Y0060893D02*
X0160723Y0060893D01*
X0160723Y0059894D02*
X0160806Y0059894D01*
X0160806Y0058896D02*
X0160723Y0058896D01*
X0160723Y0057897D02*
X0160806Y0057897D01*
X0160806Y0056899D02*
X0160723Y0056899D01*
X0160323Y0055900D02*
X0159355Y0055900D01*
X0159355Y0054902D02*
X0160323Y0054902D01*
X0160323Y0053903D02*
X0159355Y0053903D01*
X0160324Y0052905D02*
X0175095Y0052905D01*
X0175095Y0053903D02*
X0163505Y0053903D01*
X0163429Y0054902D02*
X0175095Y0054902D01*
X0175095Y0055900D02*
X0173940Y0055900D01*
X0173870Y0055831D02*
X0174150Y0056110D01*
X0174347Y0056453D01*
X0174449Y0056834D01*
X0174449Y0059032D01*
X0170556Y0059032D01*
X0170556Y0060031D01*
X0174449Y0060031D01*
X0174449Y0062229D01*
X0174347Y0062610D01*
X0174150Y0062953D01*
X0173870Y0063232D01*
X0173528Y0063429D01*
X0173147Y0063531D01*
X0170556Y0063531D01*
X0170556Y0060032D01*
X0169556Y0060032D01*
X0169556Y0063531D01*
X0166965Y0063531D01*
X0166583Y0063429D01*
X0166241Y0063232D01*
X0165962Y0062953D01*
X0165764Y0062610D01*
X0165662Y0062229D01*
X0165662Y0060031D01*
X0169556Y0060031D01*
X0169556Y0059032D01*
X0165662Y0059032D01*
X0165662Y0056834D01*
X0165764Y0056453D01*
X0165962Y0056110D01*
X0166241Y0055831D01*
X0166583Y0055634D01*
X0166965Y0055531D01*
X0169556Y0055531D01*
X0169556Y0059031D01*
X0170556Y0059031D01*
X0170556Y0055531D01*
X0173147Y0055531D01*
X0173528Y0055634D01*
X0173870Y0055831D01*
X0174449Y0056899D02*
X0175095Y0056899D01*
X0175095Y0057897D02*
X0174449Y0057897D01*
X0174449Y0058896D02*
X0175095Y0058896D01*
X0175095Y0059894D02*
X0170556Y0059894D01*
X0170556Y0058896D02*
X0169556Y0058896D01*
X0169556Y0059894D02*
X0163347Y0059894D01*
X0163347Y0058896D02*
X0165662Y0058896D01*
X0165662Y0057897D02*
X0163347Y0057897D01*
X0163178Y0056899D02*
X0165662Y0056899D01*
X0166172Y0055900D02*
X0162280Y0055900D01*
X0169556Y0055900D02*
X0170556Y0055900D01*
X0170556Y0056899D02*
X0169556Y0056899D01*
X0169556Y0057897D02*
X0170556Y0057897D01*
X0170556Y0060893D02*
X0169556Y0060893D01*
X0169556Y0061891D02*
X0170556Y0061891D01*
X0170556Y0062890D02*
X0169556Y0062890D01*
X0165926Y0062890D02*
X0163247Y0062890D01*
X0163347Y0061891D02*
X0165662Y0061891D01*
X0165662Y0060893D02*
X0163347Y0060893D01*
X0160806Y0062890D02*
X0160723Y0062890D01*
X0160050Y0063888D02*
X0175095Y0063888D01*
X0175095Y0062890D02*
X0174186Y0062890D01*
X0174449Y0061891D02*
X0175095Y0061891D01*
X0175095Y0060893D02*
X0174449Y0060893D01*
X0176895Y0060893D02*
X0181835Y0060893D01*
X0181835Y0061133D02*
X0181835Y0059839D01*
X0182596Y0059078D01*
X0187610Y0059078D01*
X0188372Y0059839D01*
X0188372Y0060133D01*
X0190937Y0060133D01*
X0190937Y0058099D01*
X0191698Y0057337D01*
X0191960Y0057337D01*
X0191960Y0055209D01*
X0191057Y0055209D01*
X0190295Y0054448D01*
X0190295Y0049833D01*
X0176895Y0049833D01*
X0176895Y0064679D01*
X0175841Y0065733D01*
X0175141Y0066433D01*
X0175895Y0067187D01*
X0176895Y0068187D01*
X0176895Y0069679D01*
X0176895Y0081588D01*
X0179295Y0079187D01*
X0179295Y0063187D01*
X0180295Y0062187D01*
X0181350Y0061133D01*
X0181835Y0061133D01*
X0181835Y0059894D02*
X0176895Y0059894D01*
X0176895Y0058896D02*
X0190937Y0058896D01*
X0190937Y0059894D02*
X0188372Y0059894D01*
X0186095Y0061933D02*
X0185103Y0061941D01*
X0185103Y0062543D01*
X0185713Y0062933D01*
X0182095Y0062933D01*
X0181095Y0063933D01*
X0181095Y0079933D01*
X0172095Y0088933D01*
X0165095Y0088933D01*
X0170095Y0084933D02*
X0156095Y0084933D01*
X0152095Y0088933D01*
X0145095Y0088933D01*
X0137095Y0088933D02*
X0137095Y0083433D01*
X0140095Y0079933D01*
X0146095Y0079933D01*
X0145190Y0080028D01*
X0145190Y0069811D01*
X0148458Y0067882D02*
X0148501Y0067882D01*
X0148235Y0066884D02*
X0149874Y0066884D01*
X0148395Y0065885D02*
X0159502Y0065885D01*
X0158503Y0064887D02*
X0150899Y0064887D01*
X0156983Y0066884D02*
X0157066Y0066884D01*
X0157066Y0067882D02*
X0156983Y0067882D01*
X0156983Y0068881D02*
X0157066Y0068881D01*
X0157066Y0069879D02*
X0156983Y0069879D01*
X0156983Y0070235D02*
X0156983Y0074055D01*
X0155744Y0074055D01*
X0155536Y0074000D01*
X0155903Y0074367D01*
X0155903Y0083133D01*
X0158027Y0083133D01*
X0158027Y0074367D01*
X0158295Y0074099D01*
X0158295Y0074055D01*
X0157066Y0074055D01*
X0157066Y0070235D01*
X0156983Y0070235D01*
X0156983Y0070878D02*
X0157066Y0070878D01*
X0157066Y0071877D02*
X0156983Y0071877D01*
X0156983Y0072875D02*
X0157066Y0072875D01*
X0157066Y0073874D02*
X0156983Y0073874D01*
X0158027Y0074872D02*
X0155903Y0074872D01*
X0155903Y0075871D02*
X0158027Y0075871D01*
X0158027Y0076869D02*
X0155903Y0076869D01*
X0155903Y0077868D02*
X0158027Y0077868D01*
X0158027Y0078866D02*
X0155903Y0078866D01*
X0155903Y0079865D02*
X0158027Y0079865D01*
X0158027Y0080863D02*
X0155903Y0080863D01*
X0155903Y0081862D02*
X0158027Y0081862D01*
X0158027Y0082860D02*
X0155903Y0082860D01*
X0151938Y0079933D02*
X0153028Y0078843D01*
X0151938Y0079933D02*
X0146095Y0079933D01*
X0133595Y0085433D02*
X0130095Y0088933D01*
X0125095Y0088933D01*
X0127095Y0083933D02*
X0119095Y0083933D01*
X0114095Y0088933D01*
X0105095Y0088933D01*
X0100095Y0083933D02*
X0095095Y0088933D01*
X0085095Y0088933D01*
X0100095Y0083933D02*
X0113095Y0083933D01*
X0114095Y0082933D01*
X0127095Y0083933D02*
X0129095Y0081933D01*
X0129095Y0066933D01*
X0121995Y0063888D02*
X0102265Y0063888D01*
X0102317Y0063797D02*
X0102120Y0064139D01*
X0101841Y0064418D01*
X0101499Y0064616D01*
X0101117Y0064718D01*
X0098648Y0064718D01*
X0098648Y0061734D01*
X0097679Y0061734D01*
X0097679Y0060765D01*
X0093908Y0060765D01*
X0093908Y0059084D01*
X0094010Y0058702D01*
X0094207Y0058360D01*
X0094487Y0058081D01*
X0094829Y0057883D01*
X0095210Y0057781D01*
X0097679Y0057781D01*
X0097679Y0060765D01*
X0098648Y0060765D01*
X0098648Y0057781D01*
X0101117Y0057781D01*
X0101499Y0057883D01*
X0101841Y0058081D01*
X0102120Y0058360D01*
X0102317Y0058702D01*
X0102420Y0059084D01*
X0102420Y0060765D01*
X0098648Y0060765D01*
X0098648Y0061734D01*
X0102420Y0061734D01*
X0102420Y0063416D01*
X0102317Y0063797D01*
X0102420Y0062890D02*
X0121995Y0062890D01*
X0121995Y0061891D02*
X0102420Y0061891D01*
X0098648Y0061891D02*
X0097679Y0061891D01*
X0097679Y0061734D02*
X0097679Y0064718D01*
X0095210Y0064718D01*
X0094829Y0064616D01*
X0094487Y0064418D01*
X0094207Y0064139D01*
X0094010Y0063797D01*
X0093908Y0063416D01*
X0093908Y0061734D01*
X0097679Y0061734D01*
X0097679Y0060893D02*
X0050895Y0060893D01*
X0050895Y0061891D02*
X0093908Y0061891D01*
X0093908Y0062890D02*
X0050895Y0062890D01*
X0050895Y0063888D02*
X0094063Y0063888D01*
X0097679Y0063888D02*
X0098648Y0063888D01*
X0098648Y0062890D02*
X0097679Y0062890D01*
X0098648Y0060893D02*
X0121995Y0060893D01*
X0121995Y0059894D02*
X0102420Y0059894D01*
X0102369Y0058896D02*
X0122162Y0058896D01*
X0123161Y0057897D02*
X0101523Y0057897D01*
X0098648Y0057897D02*
X0097679Y0057897D01*
X0097679Y0058896D02*
X0098648Y0058896D01*
X0098648Y0059894D02*
X0097679Y0059894D01*
X0093908Y0059894D02*
X0050895Y0059894D01*
X0050895Y0058896D02*
X0054671Y0058896D01*
X0052957Y0057897D02*
X0050895Y0057897D01*
X0050895Y0056899D02*
X0051959Y0056899D01*
X0051475Y0055900D02*
X0050895Y0055900D01*
X0050895Y0054902D02*
X0051061Y0054902D01*
X0050966Y0053903D02*
X0050895Y0053903D01*
X0050895Y0052905D02*
X0050966Y0052905D01*
X0050895Y0051906D02*
X0051168Y0051906D01*
X0050895Y0050908D02*
X0051581Y0050908D01*
X0052217Y0049909D02*
X0050895Y0049909D01*
X0050895Y0048911D02*
X0053215Y0048911D01*
X0051281Y0047912D02*
X0055294Y0047912D01*
X0058096Y0047912D02*
X0067440Y0047912D01*
X0067113Y0048911D02*
X0060175Y0048911D01*
X0061174Y0049909D02*
X0067113Y0049909D01*
X0078835Y0047912D02*
X0118449Y0047912D01*
X0119448Y0046914D02*
X0113481Y0046914D01*
X0110709Y0046914D02*
X0094481Y0046914D01*
X0091709Y0046914D02*
X0052422Y0046914D01*
X0053563Y0045915D02*
X0090433Y0045915D01*
X0089948Y0044917D02*
X0076657Y0044917D01*
X0077656Y0043918D02*
X0089811Y0043918D01*
X0089960Y0042920D02*
X0078654Y0042920D01*
X0075095Y0043933D02*
X0080095Y0038933D01*
X0085095Y0038933D01*
X0093095Y0043933D02*
X0097095Y0043933D01*
X0102095Y0038933D01*
X0105095Y0038933D01*
X0108960Y0042920D02*
X0100654Y0042920D01*
X0099656Y0043918D02*
X0108811Y0043918D01*
X0108948Y0044917D02*
X0098657Y0044917D01*
X0095758Y0045915D02*
X0109433Y0045915D01*
X0112095Y0043933D02*
X0117095Y0043933D01*
X0122095Y0038933D01*
X0125095Y0038933D01*
X0120654Y0042920D02*
X0129811Y0042920D01*
X0129948Y0043918D02*
X0119656Y0043918D01*
X0118657Y0044917D02*
X0130434Y0044917D01*
X0133095Y0042933D02*
X0139095Y0042933D01*
X0142095Y0039933D01*
X0144095Y0039933D01*
X0145095Y0038933D01*
X0153595Y0041933D02*
X0160095Y0041933D01*
X0162095Y0039933D01*
X0164095Y0039933D01*
X0165095Y0038933D01*
X0173095Y0041933D02*
X0179095Y0041933D01*
X0182095Y0038933D01*
X0185095Y0038933D01*
X0193095Y0041933D02*
X0202095Y0041933D01*
X0205095Y0038933D01*
X0214095Y0043933D02*
X0219095Y0048933D01*
X0219095Y0085933D01*
X0216095Y0088933D01*
X0205095Y0088933D01*
X0199095Y0084933D02*
X0195095Y0088933D01*
X0185095Y0088933D01*
X0191395Y0087133D02*
X0191395Y0086733D01*
X0191841Y0086733D01*
X0193699Y0084875D01*
X0194992Y0084875D01*
X0195753Y0084113D01*
X0195753Y0075162D01*
X0195657Y0075066D01*
X0195780Y0075099D01*
X0197018Y0075099D01*
X0197018Y0071278D01*
X0197101Y0071278D01*
X0197101Y0075099D01*
X0197941Y0075099D01*
X0197878Y0075162D01*
X0197878Y0083605D01*
X0194350Y0087133D01*
X0191395Y0087133D01*
X0191395Y0086854D02*
X0194628Y0086854D01*
X0195627Y0085856D02*
X0192718Y0085856D01*
X0191095Y0084933D02*
X0193095Y0082933D01*
X0193095Y0079854D01*
X0192879Y0079638D01*
X0192583Y0079933D01*
X0186095Y0079933D01*
X0185103Y0078941D01*
X0185103Y0069941D01*
X0186095Y0069933D01*
X0185103Y0069236D01*
X0188372Y0068592D02*
X0189442Y0068149D01*
X0190748Y0068149D01*
X0191014Y0068259D01*
X0191698Y0067574D01*
X0194941Y0067574D01*
X0195048Y0067682D01*
X0195056Y0067674D01*
X0195398Y0067477D01*
X0195780Y0067374D01*
X0197018Y0067374D01*
X0197018Y0071195D01*
X0197101Y0071195D01*
X0197101Y0067374D01*
X0198340Y0067374D01*
X0198721Y0067477D01*
X0198902Y0067581D01*
X0199350Y0067133D01*
X0214841Y0067133D01*
X0215841Y0068133D01*
X0216895Y0069187D01*
X0216895Y0080124D01*
X0216956Y0080149D01*
X0217295Y0080488D01*
X0217295Y0049679D01*
X0215895Y0048279D01*
X0215895Y0064679D01*
X0214841Y0065733D01*
X0213841Y0066733D01*
X0199350Y0066733D01*
X0198295Y0065679D01*
X0196295Y0063679D01*
X0196295Y0055209D01*
X0195560Y0055209D01*
X0195560Y0057957D01*
X0195702Y0058099D01*
X0195702Y0063900D01*
X0194941Y0064662D01*
X0191698Y0064662D01*
X0190937Y0063900D01*
X0190937Y0063733D01*
X0188372Y0063733D01*
X0188372Y0065247D01*
X0187729Y0065890D01*
X0188372Y0066532D01*
X0188372Y0068592D01*
X0188372Y0067882D02*
X0191390Y0067882D01*
X0188372Y0066884D02*
X0217295Y0066884D01*
X0217295Y0067882D02*
X0215590Y0067882D01*
X0216589Y0068881D02*
X0217295Y0068881D01*
X0217295Y0069879D02*
X0216895Y0069879D01*
X0215095Y0069933D02*
X0214095Y0068933D01*
X0203383Y0068933D01*
X0203383Y0071195D01*
X0200841Y0071195D01*
X0200841Y0071278D01*
X0200759Y0071278D01*
X0200759Y0075099D01*
X0200465Y0075099D01*
X0200465Y0079350D01*
X0201040Y0079350D01*
X0201040Y0075099D01*
X0200841Y0075099D01*
X0200841Y0071278D01*
X0203383Y0071278D01*
X0203383Y0073796D01*
X0203280Y0074178D01*
X0203133Y0074434D01*
X0203248Y0074500D01*
X0203528Y0074780D01*
X0203725Y0075122D01*
X0203827Y0075503D01*
X0203827Y0079350D01*
X0201040Y0079350D01*
X0201040Y0079925D01*
X0203827Y0079925D01*
X0203827Y0082933D01*
X0211811Y0082933D01*
X0211811Y0082280D01*
X0212311Y0081073D01*
X0212911Y0080472D01*
X0211040Y0080472D01*
X0211040Y0076972D01*
X0214934Y0076972D01*
X0214934Y0079170D01*
X0214831Y0079551D01*
X0214775Y0079649D01*
X0215095Y0079649D01*
X0215095Y0069933D01*
X0215042Y0069879D02*
X0203383Y0069879D01*
X0203383Y0070878D02*
X0215095Y0070878D01*
X0215095Y0071877D02*
X0203383Y0071877D01*
X0203383Y0072875D02*
X0206622Y0072875D01*
X0206725Y0072772D02*
X0207067Y0072575D01*
X0207449Y0072472D01*
X0210040Y0072472D01*
X0210040Y0075972D01*
X0211040Y0075972D01*
X0211040Y0072472D01*
X0213631Y0072472D01*
X0214013Y0072575D01*
X0214355Y0072772D01*
X0214634Y0073051D01*
X0214831Y0073393D01*
X0214934Y0073775D01*
X0214934Y0075972D01*
X0211040Y0075972D01*
X0211040Y0076972D01*
X0210040Y0076972D01*
X0210040Y0075972D01*
X0206146Y0075972D01*
X0206146Y0073775D01*
X0206249Y0073393D01*
X0206446Y0073051D01*
X0206725Y0072772D01*
X0206146Y0073874D02*
X0203362Y0073874D01*
X0203581Y0074872D02*
X0206146Y0074872D01*
X0206146Y0075871D02*
X0203827Y0075871D01*
X0203827Y0076869D02*
X0210040Y0076869D01*
X0210040Y0076972D02*
X0206146Y0076972D01*
X0206146Y0079170D01*
X0206249Y0079551D01*
X0206446Y0079893D01*
X0206725Y0080173D01*
X0207067Y0080370D01*
X0207449Y0080472D01*
X0210040Y0080472D01*
X0210040Y0076972D01*
X0210040Y0077868D02*
X0211040Y0077868D01*
X0211040Y0078866D02*
X0210040Y0078866D01*
X0210040Y0079865D02*
X0211040Y0079865D01*
X0212520Y0080863D02*
X0203827Y0080863D01*
X0203827Y0081862D02*
X0211984Y0081862D01*
X0211811Y0082860D02*
X0203827Y0082860D01*
X0199095Y0084933D02*
X0213095Y0084933D01*
X0215095Y0082933D01*
X0216895Y0079865D02*
X0217295Y0079865D01*
X0217295Y0078866D02*
X0216895Y0078866D01*
X0216895Y0077868D02*
X0217295Y0077868D01*
X0217295Y0076869D02*
X0216895Y0076869D01*
X0216895Y0075871D02*
X0217295Y0075871D01*
X0217295Y0074872D02*
X0216895Y0074872D01*
X0216895Y0073874D02*
X0217295Y0073874D01*
X0217295Y0072875D02*
X0216895Y0072875D01*
X0216895Y0071877D02*
X0217295Y0071877D01*
X0217295Y0070878D02*
X0216895Y0070878D01*
X0215095Y0072875D02*
X0214458Y0072875D01*
X0214934Y0073874D02*
X0215095Y0073874D01*
X0215095Y0074872D02*
X0214934Y0074872D01*
X0214934Y0075871D02*
X0215095Y0075871D01*
X0215095Y0076869D02*
X0211040Y0076869D01*
X0211040Y0075871D02*
X0210040Y0075871D01*
X0210040Y0074872D02*
X0211040Y0074872D01*
X0211040Y0073874D02*
X0210040Y0073874D01*
X0210040Y0072875D02*
X0211040Y0072875D01*
X0200841Y0072875D02*
X0200759Y0072875D01*
X0200759Y0071877D02*
X0200841Y0071877D01*
X0200841Y0073874D02*
X0200759Y0073874D01*
X0200759Y0074872D02*
X0200841Y0074872D01*
X0201040Y0075871D02*
X0200465Y0075871D01*
X0200465Y0076869D02*
X0201040Y0076869D01*
X0201040Y0077868D02*
X0200465Y0077868D01*
X0200465Y0078866D02*
X0201040Y0078866D01*
X0201040Y0079865D02*
X0206429Y0079865D01*
X0206146Y0078866D02*
X0203827Y0078866D01*
X0203827Y0077868D02*
X0206146Y0077868D01*
X0197878Y0077868D02*
X0195753Y0077868D01*
X0195753Y0078866D02*
X0197878Y0078866D01*
X0197878Y0079865D02*
X0195753Y0079865D01*
X0195753Y0080863D02*
X0197878Y0080863D01*
X0197878Y0081862D02*
X0195753Y0081862D01*
X0195753Y0082860D02*
X0197878Y0082860D01*
X0197624Y0083859D02*
X0195753Y0083859D01*
X0195010Y0084857D02*
X0196625Y0084857D01*
X0191095Y0084933D02*
X0179095Y0084933D01*
X0177095Y0086933D01*
X0177095Y0088933D01*
X0170095Y0084933D02*
X0173095Y0081933D01*
X0176895Y0080863D02*
X0177620Y0080863D01*
X0176895Y0079865D02*
X0178618Y0079865D01*
X0179295Y0078866D02*
X0176895Y0078866D01*
X0176895Y0077868D02*
X0179295Y0077868D01*
X0179295Y0076869D02*
X0176895Y0076869D01*
X0176895Y0075871D02*
X0179295Y0075871D01*
X0179295Y0074872D02*
X0176895Y0074872D01*
X0176895Y0073874D02*
X0179295Y0073874D01*
X0179295Y0072875D02*
X0176895Y0072875D01*
X0176895Y0071877D02*
X0179295Y0071877D01*
X0179295Y0070878D02*
X0176895Y0070878D01*
X0175095Y0070878D02*
X0163347Y0070878D01*
X0163347Y0070235D02*
X0160806Y0070235D01*
X0160723Y0070235D01*
X0160723Y0074055D01*
X0160615Y0074055D01*
X0160615Y0078555D01*
X0161190Y0078555D01*
X0161190Y0079130D01*
X0163977Y0079130D01*
X0163977Y0081933D01*
X0169811Y0081933D01*
X0169811Y0081280D01*
X0170311Y0080073D01*
X0170556Y0079828D01*
X0170556Y0076961D01*
X0169556Y0076961D01*
X0169556Y0080461D01*
X0166965Y0080461D01*
X0166583Y0080358D01*
X0166241Y0080161D01*
X0165962Y0079882D01*
X0165764Y0079540D01*
X0165662Y0079158D01*
X0165662Y0076961D01*
X0169556Y0076961D01*
X0169556Y0075961D01*
X0165662Y0075961D01*
X0165662Y0073763D01*
X0165764Y0073382D01*
X0165962Y0073040D01*
X0166241Y0072760D01*
X0166583Y0072563D01*
X0166965Y0072461D01*
X0169556Y0072461D01*
X0169556Y0075961D01*
X0170556Y0075961D01*
X0170556Y0076961D01*
X0174449Y0076961D01*
X0174449Y0078939D01*
X0174956Y0079149D01*
X0175095Y0079288D01*
X0175095Y0068933D01*
X0174095Y0067933D01*
X0163347Y0067933D01*
X0163347Y0070152D01*
X0160806Y0070152D01*
X0160806Y0070235D01*
X0160806Y0074055D01*
X0161190Y0074055D01*
X0161190Y0078555D01*
X0163977Y0078555D01*
X0163977Y0074708D01*
X0163875Y0074327D01*
X0163677Y0073984D01*
X0163398Y0073705D01*
X0163056Y0073508D01*
X0163025Y0073499D01*
X0163047Y0073477D01*
X0163245Y0073134D01*
X0163347Y0072753D01*
X0163347Y0070235D01*
X0163347Y0069879D02*
X0175095Y0069879D01*
X0175043Y0068881D02*
X0163347Y0068881D01*
X0160806Y0070878D02*
X0160723Y0070878D01*
X0160723Y0071877D02*
X0160806Y0071877D01*
X0160806Y0072875D02*
X0160723Y0072875D01*
X0160723Y0073874D02*
X0160806Y0073874D01*
X0160615Y0074872D02*
X0161190Y0074872D01*
X0161190Y0075871D02*
X0160615Y0075871D01*
X0160615Y0076869D02*
X0161190Y0076869D01*
X0161190Y0077868D02*
X0160615Y0077868D01*
X0161190Y0078866D02*
X0165662Y0078866D01*
X0165662Y0077868D02*
X0163977Y0077868D01*
X0163977Y0076869D02*
X0169556Y0076869D01*
X0169556Y0075871D02*
X0170556Y0075871D01*
X0170556Y0075961D02*
X0170556Y0072461D01*
X0173147Y0072461D01*
X0173528Y0072563D01*
X0173870Y0072760D01*
X0174150Y0073040D01*
X0174347Y0073382D01*
X0174449Y0073763D01*
X0174449Y0075961D01*
X0170556Y0075961D01*
X0170556Y0076869D02*
X0175095Y0076869D01*
X0175095Y0075871D02*
X0174449Y0075871D01*
X0174449Y0074872D02*
X0175095Y0074872D01*
X0175095Y0073874D02*
X0174449Y0073874D01*
X0173985Y0072875D02*
X0175095Y0072875D01*
X0175095Y0071877D02*
X0163347Y0071877D01*
X0163314Y0072875D02*
X0166126Y0072875D01*
X0165662Y0073874D02*
X0163566Y0073874D01*
X0163977Y0074872D02*
X0165662Y0074872D01*
X0165662Y0075871D02*
X0163977Y0075871D01*
X0169556Y0074872D02*
X0170556Y0074872D01*
X0170556Y0073874D02*
X0169556Y0073874D01*
X0169556Y0072875D02*
X0170556Y0072875D01*
X0176895Y0069879D02*
X0179295Y0069879D01*
X0179295Y0068881D02*
X0176895Y0068881D01*
X0176590Y0067882D02*
X0179295Y0067882D01*
X0179295Y0066884D02*
X0175592Y0066884D01*
X0175688Y0065885D02*
X0179295Y0065885D01*
X0179295Y0064887D02*
X0176687Y0064887D01*
X0176895Y0063888D02*
X0179295Y0063888D01*
X0179593Y0062890D02*
X0176895Y0062890D01*
X0176895Y0061891D02*
X0180591Y0061891D01*
X0186095Y0061933D02*
X0192386Y0061933D01*
X0193320Y0061000D01*
X0193760Y0060559D01*
X0193760Y0051941D01*
X0190295Y0051906D02*
X0176895Y0051906D01*
X0176895Y0050908D02*
X0190295Y0050908D01*
X0190295Y0049909D02*
X0176895Y0049909D01*
X0175095Y0049909D02*
X0163403Y0049909D01*
X0163505Y0050908D02*
X0175095Y0050908D01*
X0175095Y0051906D02*
X0163505Y0051906D01*
X0160323Y0051906D02*
X0159355Y0051906D01*
X0159839Y0052453D02*
X0160095Y0052197D01*
X0160095Y0046933D01*
X0158095Y0047912D02*
X0175095Y0047912D01*
X0175095Y0048911D02*
X0158095Y0048911D01*
X0159355Y0049909D02*
X0160323Y0049909D01*
X0160323Y0050908D02*
X0159355Y0050908D01*
X0149681Y0050908D02*
X0148787Y0050908D01*
X0149681Y0051906D02*
X0147540Y0051906D01*
X0138831Y0054902D02*
X0120793Y0054902D01*
X0119795Y0055900D02*
X0125158Y0055900D01*
X0124160Y0056899D02*
X0118796Y0056899D01*
X0116452Y0049909D02*
X0092677Y0049909D01*
X0084188Y0049909D02*
X0079162Y0049909D01*
X0079162Y0048911D02*
X0117451Y0048911D01*
X0114758Y0045915D02*
X0120758Y0045915D01*
X0094804Y0057897D02*
X0093079Y0057897D01*
X0092657Y0058896D02*
X0093958Y0058896D01*
X0084207Y0058896D02*
X0079031Y0058896D01*
X0079162Y0057897D02*
X0083786Y0057897D01*
X0083786Y0050908D02*
X0079162Y0050908D01*
X0067113Y0056899D02*
X0061432Y0056899D01*
X0060433Y0057897D02*
X0067113Y0057897D01*
X0067244Y0058896D02*
X0058719Y0058896D01*
X0050895Y0064887D02*
X0067516Y0064887D01*
X0066918Y0065885D02*
X0050895Y0065885D01*
X0050895Y0066884D02*
X0066913Y0066884D01*
X0066913Y0067882D02*
X0050895Y0067882D01*
X0050895Y0068881D02*
X0066913Y0068881D01*
X0066913Y0069879D02*
X0050895Y0069879D01*
X0072638Y0069879D02*
X0073638Y0069879D01*
X0073638Y0068881D02*
X0072638Y0068881D01*
X0072638Y0067882D02*
X0073638Y0067882D01*
X0073638Y0066884D02*
X0072638Y0066884D01*
X0072638Y0065885D02*
X0073638Y0065885D01*
X0073638Y0064887D02*
X0072638Y0064887D01*
X0079362Y0071877D02*
X0083586Y0071877D01*
X0083586Y0072875D02*
X0079362Y0072875D01*
X0079362Y0073874D02*
X0083586Y0073874D01*
X0083812Y0074872D02*
X0079362Y0074872D01*
X0079329Y0075871D02*
X0102720Y0075871D01*
X0102720Y0076869D02*
X0078577Y0076869D01*
X0087932Y0074872D02*
X0088932Y0074872D01*
X0088932Y0073874D02*
X0087932Y0073874D01*
X0087932Y0072875D02*
X0088932Y0072875D01*
X0093279Y0072875D02*
X0102520Y0072875D01*
X0102520Y0071877D02*
X0093279Y0071877D01*
X0093279Y0073874D02*
X0102808Y0073874D01*
X0103433Y0074872D02*
X0093052Y0074872D01*
X0106292Y0073874D02*
X0107260Y0073874D01*
X0107260Y0072875D02*
X0106292Y0072875D01*
X0106292Y0071877D02*
X0107260Y0071877D01*
X0151095Y0069933D02*
X0151355Y0070193D01*
X0153284Y0070193D01*
X0161049Y0064887D02*
X0174141Y0064887D01*
X0187733Y0065885D02*
X0198502Y0065885D01*
X0197503Y0064887D02*
X0188372Y0064887D01*
X0188372Y0063888D02*
X0190937Y0063888D01*
X0195702Y0063888D02*
X0196505Y0063888D01*
X0196295Y0062890D02*
X0195702Y0062890D01*
X0195702Y0061891D02*
X0196295Y0061891D01*
X0196295Y0060893D02*
X0195702Y0060893D01*
X0195702Y0059894D02*
X0196295Y0059894D01*
X0196295Y0058896D02*
X0195702Y0058896D01*
X0195560Y0057897D02*
X0196295Y0057897D01*
X0196295Y0056899D02*
X0195560Y0056899D01*
X0195560Y0055900D02*
X0196295Y0055900D01*
X0198095Y0055900D02*
X0206668Y0055900D01*
X0206725Y0055843D02*
X0207067Y0055646D01*
X0207449Y0055543D01*
X0210040Y0055543D01*
X0210040Y0059043D01*
X0211040Y0059043D01*
X0211040Y0055543D01*
X0213631Y0055543D01*
X0214013Y0055646D01*
X0214095Y0055693D01*
X0214095Y0047217D01*
X0213442Y0047217D01*
X0212235Y0046717D01*
X0211451Y0045933D01*
X0198095Y0045933D01*
X0198095Y0048472D01*
X0199969Y0048472D01*
X0199969Y0051457D01*
X0200938Y0051457D01*
X0200938Y0052425D01*
X0204119Y0052425D01*
X0204119Y0054107D01*
X0204017Y0054488D01*
X0203819Y0054830D01*
X0203540Y0055110D01*
X0203198Y0055307D01*
X0202816Y0055409D01*
X0200938Y0055409D01*
X0200938Y0052425D01*
X0199969Y0052425D01*
X0199969Y0055409D01*
X0198095Y0055409D01*
X0198095Y0062933D01*
X0198217Y0063055D01*
X0198217Y0061041D01*
X0200758Y0061041D01*
X0200758Y0060958D01*
X0198217Y0060958D01*
X0198217Y0058440D01*
X0198319Y0058058D01*
X0198517Y0057716D01*
X0198796Y0057437D01*
X0199138Y0057240D01*
X0199520Y0057137D01*
X0200759Y0057137D01*
X0200759Y0060958D01*
X0200841Y0060958D01*
X0200841Y0057137D01*
X0202080Y0057137D01*
X0202462Y0057240D01*
X0202804Y0057437D01*
X0203083Y0057716D01*
X0203280Y0058058D01*
X0203383Y0058440D01*
X0203383Y0060958D01*
X0200841Y0060958D01*
X0200841Y0061041D01*
X0200759Y0061041D01*
X0200759Y0064862D01*
X0200024Y0064862D01*
X0200095Y0064933D01*
X0213095Y0064933D01*
X0214095Y0063933D01*
X0214095Y0063393D01*
X0214013Y0063441D01*
X0213631Y0063543D01*
X0211040Y0063543D01*
X0211040Y0060043D01*
X0210040Y0060043D01*
X0210040Y0059043D01*
X0206146Y0059043D01*
X0206146Y0056846D01*
X0206249Y0056464D01*
X0206446Y0056122D01*
X0206725Y0055843D01*
X0206146Y0056899D02*
X0198095Y0056899D01*
X0198095Y0057897D02*
X0198412Y0057897D01*
X0198217Y0058896D02*
X0198095Y0058896D01*
X0198095Y0059894D02*
X0198217Y0059894D01*
X0198217Y0060893D02*
X0198095Y0060893D01*
X0198095Y0061891D02*
X0198217Y0061891D01*
X0198217Y0062890D02*
X0198095Y0062890D01*
X0200759Y0062890D02*
X0200841Y0062890D01*
X0200841Y0063888D02*
X0200759Y0063888D01*
X0200841Y0064862D02*
X0200841Y0061041D01*
X0203383Y0061041D01*
X0203383Y0063559D01*
X0203280Y0063941D01*
X0203083Y0064283D01*
X0202804Y0064562D01*
X0202462Y0064760D01*
X0202080Y0064862D01*
X0200841Y0064862D01*
X0200049Y0064887D02*
X0213141Y0064887D01*
X0214095Y0063888D02*
X0203294Y0063888D01*
X0203383Y0062890D02*
X0206403Y0062890D01*
X0206446Y0062964D02*
X0206249Y0062622D01*
X0206146Y0062241D01*
X0206146Y0060043D01*
X0210040Y0060043D01*
X0210040Y0063543D01*
X0207449Y0063543D01*
X0207067Y0063441D01*
X0206725Y0063244D01*
X0206446Y0062964D01*
X0206146Y0061891D02*
X0203383Y0061891D01*
X0203383Y0060893D02*
X0206146Y0060893D01*
X0203383Y0059894D02*
X0210040Y0059894D01*
X0210040Y0058896D02*
X0211040Y0058896D01*
X0211040Y0057897D02*
X0210040Y0057897D01*
X0210040Y0056899D02*
X0211040Y0056899D01*
X0211040Y0055900D02*
X0210040Y0055900D01*
X0214095Y0054902D02*
X0203748Y0054902D01*
X0204119Y0053903D02*
X0214095Y0053903D01*
X0214095Y0052905D02*
X0204119Y0052905D01*
X0200938Y0052905D02*
X0199969Y0052905D01*
X0199969Y0053903D02*
X0200938Y0053903D01*
X0200938Y0054902D02*
X0199969Y0054902D01*
X0200759Y0057897D02*
X0200841Y0057897D01*
X0200841Y0058896D02*
X0200759Y0058896D01*
X0200759Y0059894D02*
X0200841Y0059894D01*
X0200841Y0060893D02*
X0200759Y0060893D01*
X0200759Y0061891D02*
X0200841Y0061891D01*
X0203383Y0058896D02*
X0206146Y0058896D01*
X0206146Y0057897D02*
X0203187Y0057897D01*
X0210040Y0060893D02*
X0211040Y0060893D01*
X0211040Y0061891D02*
X0210040Y0061891D01*
X0210040Y0062890D02*
X0211040Y0062890D01*
X0215895Y0062890D02*
X0217295Y0062890D01*
X0217295Y0063888D02*
X0215895Y0063888D01*
X0215687Y0064887D02*
X0217295Y0064887D01*
X0217295Y0065885D02*
X0214688Y0065885D01*
X0215895Y0061891D02*
X0217295Y0061891D01*
X0217295Y0060893D02*
X0215895Y0060893D01*
X0215895Y0059894D02*
X0217295Y0059894D01*
X0217295Y0058896D02*
X0215895Y0058896D01*
X0215895Y0057897D02*
X0217295Y0057897D01*
X0217295Y0056899D02*
X0215895Y0056899D01*
X0215895Y0055900D02*
X0217295Y0055900D01*
X0217295Y0054902D02*
X0215895Y0054902D01*
X0215895Y0053903D02*
X0217295Y0053903D01*
X0217295Y0052905D02*
X0215895Y0052905D01*
X0215895Y0051906D02*
X0217295Y0051906D01*
X0217295Y0050908D02*
X0215895Y0050908D01*
X0215895Y0049909D02*
X0217295Y0049909D01*
X0216527Y0048911D02*
X0215895Y0048911D01*
X0214095Y0048911D02*
X0203678Y0048911D01*
X0203540Y0048772D02*
X0203819Y0049051D01*
X0204017Y0049393D01*
X0204119Y0049775D01*
X0204119Y0051457D01*
X0200938Y0051457D01*
X0200938Y0048472D01*
X0202816Y0048472D01*
X0203198Y0048575D01*
X0203540Y0048772D01*
X0200938Y0048911D02*
X0199969Y0048911D01*
X0199969Y0049909D02*
X0200938Y0049909D01*
X0200938Y0050908D02*
X0199969Y0050908D01*
X0200938Y0051906D02*
X0214095Y0051906D01*
X0214095Y0050908D02*
X0204119Y0050908D01*
X0204119Y0049909D02*
X0214095Y0049909D01*
X0214095Y0047912D02*
X0198095Y0047912D01*
X0198095Y0046914D02*
X0212709Y0046914D01*
X0191960Y0055900D02*
X0176895Y0055900D01*
X0176895Y0054902D02*
X0190749Y0054902D01*
X0190295Y0053903D02*
X0176895Y0053903D01*
X0176895Y0052905D02*
X0190295Y0052905D01*
X0191960Y0056899D02*
X0176895Y0056899D01*
X0176895Y0057897D02*
X0191138Y0057897D01*
X0197018Y0067882D02*
X0197101Y0067882D01*
X0197101Y0068881D02*
X0197018Y0068881D01*
X0197018Y0069879D02*
X0197101Y0069879D01*
X0197101Y0070878D02*
X0197018Y0070878D01*
X0197018Y0071877D02*
X0197101Y0071877D01*
X0197101Y0072875D02*
X0197018Y0072875D01*
X0197018Y0073874D02*
X0197101Y0073874D01*
X0197101Y0074872D02*
X0197018Y0074872D01*
X0197878Y0075871D02*
X0195753Y0075871D01*
X0195753Y0076869D02*
X0197878Y0076869D01*
X0193320Y0071237D02*
X0191399Y0071237D01*
X0190095Y0071433D01*
X0175095Y0077868D02*
X0174449Y0077868D01*
X0174449Y0078866D02*
X0175095Y0078866D01*
X0170556Y0078866D02*
X0169556Y0078866D01*
X0169556Y0077868D02*
X0170556Y0077868D01*
X0170519Y0079865D02*
X0169556Y0079865D01*
X0169983Y0080863D02*
X0163977Y0080863D01*
X0163977Y0079865D02*
X0165952Y0079865D01*
X0163977Y0081862D02*
X0169811Y0081862D01*
X0214934Y0078866D02*
X0215095Y0078866D01*
X0215095Y0077868D02*
X0214934Y0077868D01*
X0058795Y0089850D02*
X0049027Y0089850D01*
X0049044Y0090848D02*
X0058795Y0090848D01*
X0058795Y0091847D02*
X0049060Y0091847D01*
D23*
X0056695Y0053533D03*
D24*
X0056726Y0053502D01*
X0070095Y0053502D01*
X0070986Y0054393D01*
X0085095Y0054393D01*
X0085325Y0054163D01*
X0098164Y0054163D01*
X0116865Y0054163D01*
X0122095Y0048933D01*
X0146095Y0048933D01*
X0147095Y0047933D01*
X0088432Y0054393D02*
X0085095Y0054393D01*
X0073138Y0053502D02*
X0070095Y0053502D01*
D25*
X0147095Y0047933D02*
X0148095Y0046933D01*
X0160095Y0046933D01*
X0200095Y0046933D01*
M02*
