%
M48
M72
T01C0.0197
T02C0.0236
T03C0.0315
T04C0.0320
T05C0.0400
T06C0.0433
T07C0.0472
T08C0.0520
T09C0.0591
T10C0.0630
T11C0.0940
T12C0.1180
T13C0.1250
T14C0.1300
T15C0.1360
%
T01
X12396Y14993
X12896Y14993
X13396Y14993
X13796Y15393
X14096Y15793
X14096Y16293
X14296Y16793
X14296Y17293
X14296Y17793
X14296Y18293
X13896Y19293
X13496Y19393
X14196Y19693
X14196Y20193
X14196Y20693
X14196Y21193
X13596Y21393
X13296Y21793
X13296Y22293
X13296Y22793
X13596Y23193
X14096Y23193
X14596Y23193
X14996Y22793
X14996Y22293
X15096Y21793
X15096Y21293
X15096Y20793
X15096Y20293
X15096Y19793
X15096Y19293
X15096Y18793
X14796Y18493
X12896Y18093
X12896Y17493
X12896Y16993
X12396Y15993
X19446Y29398
X19641Y29878
X20031Y30298
X19426Y30933
X21216Y21843
X29496Y23393
X29996Y23393
X29996Y23893
X29496Y23893
X29496Y24393
X29996Y24393
X29996Y24893
X29496Y24893
X29496Y25393
X29996Y25393
X30496Y25393
X30496Y24893
X30496Y24393
X30496Y23893
X30496Y23393
X20016Y54043
X20016Y54483
X19336Y54233
X18866Y54233
X18866Y54743
X19336Y54733
X18526Y56213
X18906Y56523
X18396Y54733
X18386Y54233
X17816Y54043
X17816Y54463
X17826Y54913
T02
X17066Y54813
X18826Y50993
X18836Y50273
X21486Y49283
X19846Y56383
X13596Y48433
X11856Y50753
X20116Y36623
X19786Y36023
X19996Y34893
X20546Y31403
X20631Y28993
X22911Y28948
X22761Y30658
X25496Y33893
X23976Y35353
X23796Y36533
X27996Y34393
X27996Y33893
X27996Y33393
X27996Y32893
X27996Y32393
X27996Y31893
X27996Y31393
X28496Y31393
X28496Y31893
X28496Y32393
X28496Y32893
X28496Y33393
X28496Y33893
X28496Y34393
X28996Y34393
X28996Y33893
X28996Y33393
X29496Y33393
X29996Y33393
X29996Y33893
X29496Y33893
X29496Y34393
X29996Y34393
X30496Y34393
X30496Y33893
X30496Y33393
X30996Y33393
X31496Y33393
X31496Y32893
X31496Y32393
X31496Y31893
X31496Y31393
X31996Y31393
X31996Y31893
X31996Y32393
X31996Y32893
X31996Y33393
X31996Y33893
X31496Y33893
X30996Y33893
X30996Y34393
X31496Y34393
X31996Y34393
X29721Y27373
X33401Y19318
X31019Y17211
X23676Y25168
X23166Y25183
X23181Y25723
X20541Y22858
X21861Y21373
X19781Y18678
X17016Y19563
X16386Y19033
X16576Y22863
X18366Y28268
X15831Y29533
X17811Y31723
X15456Y33893
X11361Y32443
X10461Y31438
X9746Y30018
X10461Y27263
X11361Y25088
X8241Y26788
X8886Y19443
T03
X28012Y14193
X29980Y14193
X33146Y15775
X33746Y15012
X34346Y15775
X34846Y15012
T04
X21796Y43393
X18796Y43393
T05
X18386Y32623
X19386Y32523
X20386Y32623
X21386Y32523
X22386Y32623
X18426Y26783
X17426Y26883
X16426Y26783
T06
X18036Y16522
X18036Y14553
X23012Y16033
X23996Y16033
X24980Y16033
X24980Y18494
X23012Y18494
T07
X19808Y14553
X19454Y16522
X18666Y17742
X17406Y17742
X16146Y14553
X27618Y15178
X30374Y15178
T08
X35266Y39733
X35266Y47253
X7046Y47253
X7046Y39733
T09
X10496Y15393
T10
X9492Y14389
X9492Y16397
X11500Y16397
X11500Y14389
T11
X35276Y36593
T12
X28956Y54150
X28956Y56512
X27106Y55331
T13
X32031Y43493
X10281Y43493
T14
X6496Y55393
X6496Y18393
X35496Y18393
X35496Y55393
T15
X32026Y50393
X10256Y36593
M30
