G75*
%MOIN*%
%OFA0B0*%
%FSLAX24Y24*%
%IPPOS*%
%LPD*%
%AMOC8*
5,1,8,0,0,1.08239X$1,22.5*
%
%ADD10C,0.0050*%
%ADD11C,0.0100*%
%ADD12C,0.0060*%
D10*
X013069Y009935D02*
X013071Y009953D01*
X013076Y009970D01*
X013085Y009986D01*
X013097Y009999D01*
X013112Y010009D01*
X013128Y010017D01*
X013146Y010021D01*
X013164Y010021D01*
X013182Y010017D01*
X013198Y010009D01*
X013213Y009999D01*
X013225Y009986D01*
X013234Y009970D01*
X013239Y009953D01*
X013241Y009935D01*
X013239Y009917D01*
X013234Y009900D01*
X013225Y009884D01*
X013213Y009871D01*
X013198Y009861D01*
X013182Y009853D01*
X013164Y009849D01*
X013146Y009849D01*
X013128Y009853D01*
X013112Y009861D01*
X013097Y009871D01*
X013085Y009884D01*
X013076Y009900D01*
X013071Y009917D01*
X013069Y009935D01*
X013145Y009935D02*
X013147Y009940D01*
X013151Y009944D01*
X013156Y009945D01*
X013162Y009943D01*
X013165Y009938D01*
X013165Y009932D01*
X013162Y009927D01*
X013156Y009925D01*
X013151Y009926D01*
X013147Y009930D01*
X013145Y009935D01*
X013105Y009935D02*
X013107Y009948D01*
X013112Y009961D01*
X013121Y009972D01*
X013132Y009979D01*
X013145Y009984D01*
X013158Y009985D01*
X013172Y009982D01*
X013184Y009976D01*
X013194Y009967D01*
X013201Y009955D01*
X013205Y009942D01*
X013205Y009928D01*
X013201Y009915D01*
X013194Y009903D01*
X013184Y009894D01*
X013172Y009888D01*
X013158Y009885D01*
X013145Y009886D01*
X013132Y009891D01*
X013121Y009898D01*
X013112Y009909D01*
X013107Y009922D01*
X013105Y009935D01*
X014204Y008820D02*
X014206Y008838D01*
X014211Y008855D01*
X014220Y008871D01*
X014232Y008884D01*
X014247Y008894D01*
X014263Y008902D01*
X014281Y008906D01*
X014299Y008906D01*
X014317Y008902D01*
X014333Y008894D01*
X014348Y008884D01*
X014360Y008871D01*
X014369Y008855D01*
X014374Y008838D01*
X014376Y008820D01*
X014374Y008802D01*
X014369Y008785D01*
X014360Y008769D01*
X014348Y008756D01*
X014333Y008746D01*
X014317Y008738D01*
X014299Y008734D01*
X014281Y008734D01*
X014263Y008738D01*
X014247Y008746D01*
X014232Y008756D01*
X014220Y008769D01*
X014211Y008785D01*
X014206Y008802D01*
X014204Y008820D01*
X014280Y008820D02*
X014282Y008825D01*
X014286Y008829D01*
X014291Y008830D01*
X014297Y008828D01*
X014300Y008823D01*
X014300Y008817D01*
X014297Y008812D01*
X014291Y008810D01*
X014286Y008811D01*
X014282Y008815D01*
X014280Y008820D01*
X014240Y008820D02*
X014242Y008833D01*
X014247Y008846D01*
X014256Y008857D01*
X014267Y008864D01*
X014280Y008869D01*
X014293Y008870D01*
X014307Y008867D01*
X014319Y008861D01*
X014329Y008852D01*
X014336Y008840D01*
X014340Y008827D01*
X014340Y008813D01*
X014336Y008800D01*
X014329Y008788D01*
X014319Y008779D01*
X014307Y008773D01*
X014293Y008770D01*
X014280Y008771D01*
X014267Y008776D01*
X014256Y008783D01*
X014247Y008794D01*
X014242Y008807D01*
X014240Y008820D01*
X011559Y013015D02*
X011561Y013033D01*
X011566Y013050D01*
X011575Y013066D01*
X011587Y013079D01*
X011602Y013089D01*
X011618Y013097D01*
X011636Y013101D01*
X011654Y013101D01*
X011672Y013097D01*
X011688Y013089D01*
X011703Y013079D01*
X011715Y013066D01*
X011724Y013050D01*
X011729Y013033D01*
X011731Y013015D01*
X011729Y012997D01*
X011724Y012980D01*
X011715Y012964D01*
X011703Y012951D01*
X011688Y012941D01*
X011672Y012933D01*
X011654Y012929D01*
X011636Y012929D01*
X011618Y012933D01*
X011602Y012941D01*
X011587Y012951D01*
X011575Y012964D01*
X011566Y012980D01*
X011561Y012997D01*
X011559Y013015D01*
X011635Y013015D02*
X011637Y013020D01*
X011641Y013024D01*
X011646Y013025D01*
X011652Y013023D01*
X011655Y013018D01*
X011655Y013012D01*
X011652Y013007D01*
X011646Y013005D01*
X011641Y013006D01*
X011637Y013010D01*
X011635Y013015D01*
X011595Y013015D02*
X011597Y013028D01*
X011602Y013041D01*
X011611Y013052D01*
X011622Y013059D01*
X011635Y013064D01*
X011648Y013065D01*
X011662Y013062D01*
X011674Y013056D01*
X011684Y013047D01*
X011691Y013035D01*
X011695Y013022D01*
X011695Y013008D01*
X011691Y012995D01*
X011684Y012983D01*
X011674Y012974D01*
X011662Y012968D01*
X011648Y012965D01*
X011635Y012966D01*
X011622Y012971D01*
X011611Y012978D01*
X011602Y012989D01*
X011597Y013002D01*
X011595Y013015D01*
X014104Y013875D02*
X014106Y013893D01*
X014111Y013910D01*
X014120Y013926D01*
X014132Y013939D01*
X014147Y013949D01*
X014163Y013957D01*
X014181Y013961D01*
X014199Y013961D01*
X014217Y013957D01*
X014233Y013949D01*
X014248Y013939D01*
X014260Y013926D01*
X014269Y013910D01*
X014274Y013893D01*
X014276Y013875D01*
X014274Y013857D01*
X014269Y013840D01*
X014260Y013824D01*
X014248Y013811D01*
X014233Y013801D01*
X014217Y013793D01*
X014199Y013789D01*
X014181Y013789D01*
X014163Y013793D01*
X014147Y013801D01*
X014132Y013811D01*
X014120Y013824D01*
X014111Y013840D01*
X014106Y013857D01*
X014104Y013875D01*
X014180Y013875D02*
X014182Y013880D01*
X014186Y013884D01*
X014191Y013885D01*
X014197Y013883D01*
X014200Y013878D01*
X014200Y013872D01*
X014197Y013867D01*
X014191Y013865D01*
X014186Y013866D01*
X014182Y013870D01*
X014180Y013875D01*
X014140Y013875D02*
X014142Y013888D01*
X014147Y013901D01*
X014156Y013912D01*
X014167Y013919D01*
X014180Y013924D01*
X014193Y013925D01*
X014207Y013922D01*
X014219Y013916D01*
X014229Y013907D01*
X014236Y013895D01*
X014240Y013882D01*
X014240Y013868D01*
X014236Y013855D01*
X014229Y013843D01*
X014219Y013834D01*
X014207Y013828D01*
X014193Y013825D01*
X014180Y013826D01*
X014167Y013831D01*
X014156Y013838D01*
X014147Y013849D01*
X014142Y013862D01*
X014140Y013875D01*
X012959Y016195D02*
X012961Y016213D01*
X012966Y016230D01*
X012975Y016246D01*
X012987Y016259D01*
X013002Y016269D01*
X013018Y016277D01*
X013036Y016281D01*
X013054Y016281D01*
X013072Y016277D01*
X013088Y016269D01*
X013103Y016259D01*
X013115Y016246D01*
X013124Y016230D01*
X013129Y016213D01*
X013131Y016195D01*
X013129Y016177D01*
X013124Y016160D01*
X013115Y016144D01*
X013103Y016131D01*
X013088Y016121D01*
X013072Y016113D01*
X013054Y016109D01*
X013036Y016109D01*
X013018Y016113D01*
X013002Y016121D01*
X012987Y016131D01*
X012975Y016144D01*
X012966Y016160D01*
X012961Y016177D01*
X012959Y016195D01*
X013035Y016195D02*
X013037Y016200D01*
X013041Y016204D01*
X013046Y016205D01*
X013052Y016203D01*
X013055Y016198D01*
X013055Y016192D01*
X013052Y016187D01*
X013046Y016185D01*
X013041Y016186D01*
X013037Y016190D01*
X013035Y016195D01*
X012995Y016195D02*
X012997Y016208D01*
X013002Y016221D01*
X013011Y016232D01*
X013022Y016239D01*
X013035Y016244D01*
X013048Y016245D01*
X013062Y016242D01*
X013074Y016236D01*
X013084Y016227D01*
X013091Y016215D01*
X013095Y016202D01*
X013095Y016188D01*
X013091Y016175D01*
X013084Y016163D01*
X013074Y016154D01*
X013062Y016148D01*
X013048Y016145D01*
X013035Y016146D01*
X013022Y016151D01*
X013011Y016158D01*
X013002Y016169D01*
X012997Y016182D01*
X012995Y016195D01*
X012649Y018895D02*
X012651Y018913D01*
X012656Y018930D01*
X012665Y018946D01*
X012677Y018959D01*
X012692Y018969D01*
X012708Y018977D01*
X012726Y018981D01*
X012744Y018981D01*
X012762Y018977D01*
X012778Y018969D01*
X012793Y018959D01*
X012805Y018946D01*
X012814Y018930D01*
X012819Y018913D01*
X012821Y018895D01*
X012819Y018877D01*
X012814Y018860D01*
X012805Y018844D01*
X012793Y018831D01*
X012778Y018821D01*
X012762Y018813D01*
X012744Y018809D01*
X012726Y018809D01*
X012708Y018813D01*
X012692Y018821D01*
X012677Y018831D01*
X012665Y018844D01*
X012656Y018860D01*
X012651Y018877D01*
X012649Y018895D01*
X012725Y018895D02*
X012727Y018900D01*
X012731Y018904D01*
X012736Y018905D01*
X012742Y018903D01*
X012745Y018898D01*
X012745Y018892D01*
X012742Y018887D01*
X012736Y018885D01*
X012731Y018886D01*
X012727Y018890D01*
X012725Y018895D01*
X012685Y018895D02*
X012687Y018908D01*
X012692Y018921D01*
X012701Y018932D01*
X012712Y018939D01*
X012725Y018944D01*
X012738Y018945D01*
X012752Y018942D01*
X012764Y018936D01*
X012774Y018927D01*
X012781Y018915D01*
X012785Y018902D01*
X012785Y018888D01*
X012781Y018875D01*
X012774Y018863D01*
X012764Y018854D01*
X012752Y018848D01*
X012738Y018845D01*
X012725Y018846D01*
X012712Y018851D01*
X012701Y018858D01*
X012692Y018869D01*
X012687Y018882D01*
X012685Y018895D01*
X014054Y020740D02*
X014056Y020758D01*
X014061Y020775D01*
X014070Y020791D01*
X014082Y020804D01*
X014097Y020814D01*
X014113Y020822D01*
X014131Y020826D01*
X014149Y020826D01*
X014167Y020822D01*
X014183Y020814D01*
X014198Y020804D01*
X014210Y020791D01*
X014219Y020775D01*
X014224Y020758D01*
X014226Y020740D01*
X014224Y020722D01*
X014219Y020705D01*
X014210Y020689D01*
X014198Y020676D01*
X014183Y020666D01*
X014167Y020658D01*
X014149Y020654D01*
X014131Y020654D01*
X014113Y020658D01*
X014097Y020666D01*
X014082Y020676D01*
X014070Y020689D01*
X014061Y020705D01*
X014056Y020722D01*
X014054Y020740D01*
X014130Y020740D02*
X014132Y020745D01*
X014136Y020749D01*
X014141Y020750D01*
X014147Y020748D01*
X014150Y020743D01*
X014150Y020737D01*
X014147Y020732D01*
X014141Y020730D01*
X014136Y020731D01*
X014132Y020735D01*
X014130Y020740D01*
X014090Y020740D02*
X014092Y020753D01*
X014097Y020766D01*
X014106Y020777D01*
X014117Y020784D01*
X014130Y020789D01*
X014143Y020790D01*
X014157Y020787D01*
X014169Y020781D01*
X014179Y020772D01*
X014186Y020760D01*
X014190Y020747D01*
X014190Y020733D01*
X014186Y020720D01*
X014179Y020708D01*
X014169Y020699D01*
X014157Y020693D01*
X014143Y020690D01*
X014130Y020691D01*
X014117Y020696D01*
X014106Y020703D01*
X014097Y020714D01*
X014092Y020727D01*
X014090Y020740D01*
X012229Y023145D02*
X012231Y023163D01*
X012236Y023180D01*
X012245Y023196D01*
X012257Y023209D01*
X012272Y023219D01*
X012288Y023227D01*
X012306Y023231D01*
X012324Y023231D01*
X012342Y023227D01*
X012358Y023219D01*
X012373Y023209D01*
X012385Y023196D01*
X012394Y023180D01*
X012399Y023163D01*
X012401Y023145D01*
X012399Y023127D01*
X012394Y023110D01*
X012385Y023094D01*
X012373Y023081D01*
X012358Y023071D01*
X012342Y023063D01*
X012324Y023059D01*
X012306Y023059D01*
X012288Y023063D01*
X012272Y023071D01*
X012257Y023081D01*
X012245Y023094D01*
X012236Y023110D01*
X012231Y023127D01*
X012229Y023145D01*
X012305Y023145D02*
X012307Y023150D01*
X012311Y023154D01*
X012316Y023155D01*
X012322Y023153D01*
X012325Y023148D01*
X012325Y023142D01*
X012322Y023137D01*
X012316Y023135D01*
X012311Y023136D01*
X012307Y023140D01*
X012305Y023145D01*
X012265Y023145D02*
X012267Y023158D01*
X012272Y023171D01*
X012281Y023182D01*
X012292Y023189D01*
X012305Y023194D01*
X012318Y023195D01*
X012332Y023192D01*
X012344Y023186D01*
X012354Y023177D01*
X012361Y023165D01*
X012365Y023152D01*
X012365Y023138D01*
X012361Y023125D01*
X012354Y023113D01*
X012344Y023104D01*
X012332Y023098D01*
X012318Y023095D01*
X012305Y023096D01*
X012292Y023101D01*
X012281Y023108D01*
X012272Y023119D01*
X012267Y023132D01*
X012265Y023145D01*
X011539Y026725D02*
X011541Y026743D01*
X011546Y026760D01*
X011555Y026776D01*
X011567Y026789D01*
X011582Y026799D01*
X011598Y026807D01*
X011616Y026811D01*
X011634Y026811D01*
X011652Y026807D01*
X011668Y026799D01*
X011683Y026789D01*
X011695Y026776D01*
X011704Y026760D01*
X011709Y026743D01*
X011711Y026725D01*
X011709Y026707D01*
X011704Y026690D01*
X011695Y026674D01*
X011683Y026661D01*
X011668Y026651D01*
X011652Y026643D01*
X011634Y026639D01*
X011616Y026639D01*
X011598Y026643D01*
X011582Y026651D01*
X011567Y026661D01*
X011555Y026674D01*
X011546Y026690D01*
X011541Y026707D01*
X011539Y026725D01*
X011615Y026725D02*
X011617Y026730D01*
X011621Y026734D01*
X011626Y026735D01*
X011632Y026733D01*
X011635Y026728D01*
X011635Y026722D01*
X011632Y026717D01*
X011626Y026715D01*
X011621Y026716D01*
X011617Y026720D01*
X011615Y026725D01*
X011575Y026725D02*
X011577Y026738D01*
X011582Y026751D01*
X011591Y026762D01*
X011602Y026769D01*
X011615Y026774D01*
X011628Y026775D01*
X011642Y026772D01*
X011654Y026766D01*
X011664Y026757D01*
X011671Y026745D01*
X011675Y026732D01*
X011675Y026718D01*
X011671Y026705D01*
X011664Y026693D01*
X011654Y026684D01*
X011642Y026678D01*
X011628Y026675D01*
X011615Y026676D01*
X011602Y026681D01*
X011591Y026688D01*
X011582Y026699D01*
X011577Y026712D01*
X011575Y026725D01*
X014054Y027665D02*
X014056Y027683D01*
X014061Y027700D01*
X014070Y027716D01*
X014082Y027729D01*
X014097Y027739D01*
X014113Y027747D01*
X014131Y027751D01*
X014149Y027751D01*
X014167Y027747D01*
X014183Y027739D01*
X014198Y027729D01*
X014210Y027716D01*
X014219Y027700D01*
X014224Y027683D01*
X014226Y027665D01*
X014224Y027647D01*
X014219Y027630D01*
X014210Y027614D01*
X014198Y027601D01*
X014183Y027591D01*
X014167Y027583D01*
X014149Y027579D01*
X014131Y027579D01*
X014113Y027583D01*
X014097Y027591D01*
X014082Y027601D01*
X014070Y027614D01*
X014061Y027630D01*
X014056Y027647D01*
X014054Y027665D01*
X014130Y027665D02*
X014132Y027670D01*
X014136Y027674D01*
X014141Y027675D01*
X014147Y027673D01*
X014150Y027668D01*
X014150Y027662D01*
X014147Y027657D01*
X014141Y027655D01*
X014136Y027656D01*
X014132Y027660D01*
X014130Y027665D01*
X014090Y027665D02*
X014092Y027678D01*
X014097Y027691D01*
X014106Y027702D01*
X014117Y027709D01*
X014130Y027714D01*
X014143Y027715D01*
X014157Y027712D01*
X014169Y027706D01*
X014179Y027697D01*
X014186Y027685D01*
X014190Y027672D01*
X014190Y027658D01*
X014186Y027645D01*
X014179Y027633D01*
X014169Y027624D01*
X014157Y027618D01*
X014143Y027615D01*
X014130Y027616D01*
X014117Y027621D01*
X014106Y027628D01*
X014097Y027639D01*
X014092Y027652D01*
X014090Y027665D01*
X011529Y029665D02*
X011531Y029683D01*
X011536Y029700D01*
X011545Y029716D01*
X011557Y029729D01*
X011572Y029739D01*
X011588Y029747D01*
X011606Y029751D01*
X011624Y029751D01*
X011642Y029747D01*
X011658Y029739D01*
X011673Y029729D01*
X011685Y029716D01*
X011694Y029700D01*
X011699Y029683D01*
X011701Y029665D01*
X011699Y029647D01*
X011694Y029630D01*
X011685Y029614D01*
X011673Y029601D01*
X011658Y029591D01*
X011642Y029583D01*
X011624Y029579D01*
X011606Y029579D01*
X011588Y029583D01*
X011572Y029591D01*
X011557Y029601D01*
X011545Y029614D01*
X011536Y029630D01*
X011531Y029647D01*
X011529Y029665D01*
X011605Y029665D02*
X011607Y029670D01*
X011611Y029674D01*
X011616Y029675D01*
X011622Y029673D01*
X011625Y029668D01*
X011625Y029662D01*
X011622Y029657D01*
X011616Y029655D01*
X011611Y029656D01*
X011607Y029660D01*
X011605Y029665D01*
X011565Y029665D02*
X011567Y029678D01*
X011572Y029691D01*
X011581Y029702D01*
X011592Y029709D01*
X011605Y029714D01*
X011618Y029715D01*
X011632Y029712D01*
X011644Y029706D01*
X011654Y029697D01*
X011661Y029685D01*
X011665Y029672D01*
X011665Y029658D01*
X011661Y029645D01*
X011654Y029633D01*
X011644Y029624D01*
X011632Y029618D01*
X011618Y029615D01*
X011605Y029616D01*
X011592Y029621D01*
X011581Y029628D01*
X011572Y029639D01*
X011567Y029652D01*
X011565Y029665D01*
X011879Y032425D02*
X011881Y032443D01*
X011886Y032460D01*
X011895Y032476D01*
X011907Y032489D01*
X011922Y032499D01*
X011938Y032507D01*
X011956Y032511D01*
X011974Y032511D01*
X011992Y032507D01*
X012008Y032499D01*
X012023Y032489D01*
X012035Y032476D01*
X012044Y032460D01*
X012049Y032443D01*
X012051Y032425D01*
X012049Y032407D01*
X012044Y032390D01*
X012035Y032374D01*
X012023Y032361D01*
X012008Y032351D01*
X011992Y032343D01*
X011974Y032339D01*
X011956Y032339D01*
X011938Y032343D01*
X011922Y032351D01*
X011907Y032361D01*
X011895Y032374D01*
X011886Y032390D01*
X011881Y032407D01*
X011879Y032425D01*
X011955Y032425D02*
X011957Y032430D01*
X011961Y032434D01*
X011966Y032435D01*
X011972Y032433D01*
X011975Y032428D01*
X011975Y032422D01*
X011972Y032417D01*
X011966Y032415D01*
X011961Y032416D01*
X011957Y032420D01*
X011955Y032425D01*
X011915Y032425D02*
X011917Y032438D01*
X011922Y032451D01*
X011931Y032462D01*
X011942Y032469D01*
X011955Y032474D01*
X011968Y032475D01*
X011982Y032472D01*
X011994Y032466D01*
X012004Y032457D01*
X012011Y032445D01*
X012015Y032432D01*
X012015Y032418D01*
X012011Y032405D01*
X012004Y032393D01*
X011994Y032384D01*
X011982Y032378D01*
X011968Y032375D01*
X011955Y032376D01*
X011942Y032381D01*
X011931Y032388D01*
X011922Y032399D01*
X011917Y032412D01*
X011915Y032425D01*
X013914Y034565D02*
X013916Y034583D01*
X013921Y034600D01*
X013930Y034616D01*
X013942Y034629D01*
X013957Y034639D01*
X013973Y034647D01*
X013991Y034651D01*
X014009Y034651D01*
X014027Y034647D01*
X014043Y034639D01*
X014058Y034629D01*
X014070Y034616D01*
X014079Y034600D01*
X014084Y034583D01*
X014086Y034565D01*
X014084Y034547D01*
X014079Y034530D01*
X014070Y034514D01*
X014058Y034501D01*
X014043Y034491D01*
X014027Y034483D01*
X014009Y034479D01*
X013991Y034479D01*
X013973Y034483D01*
X013957Y034491D01*
X013942Y034501D01*
X013930Y034514D01*
X013921Y034530D01*
X013916Y034547D01*
X013914Y034565D01*
X013990Y034565D02*
X013992Y034570D01*
X013996Y034574D01*
X014001Y034575D01*
X014007Y034573D01*
X014010Y034568D01*
X014010Y034562D01*
X014007Y034557D01*
X014001Y034555D01*
X013996Y034556D01*
X013992Y034560D01*
X013990Y034565D01*
X013950Y034565D02*
X013952Y034578D01*
X013957Y034591D01*
X013966Y034602D01*
X013977Y034609D01*
X013990Y034614D01*
X014003Y034615D01*
X014017Y034612D01*
X014029Y034606D01*
X014039Y034597D01*
X014046Y034585D01*
X014050Y034572D01*
X014050Y034558D01*
X014046Y034545D01*
X014039Y034533D01*
X014029Y034524D01*
X014017Y034518D01*
X014003Y034515D01*
X013990Y034516D01*
X013977Y034521D01*
X013966Y034528D01*
X013957Y034539D01*
X013952Y034552D01*
X013950Y034565D01*
X011879Y036015D02*
X011881Y036033D01*
X011886Y036050D01*
X011895Y036066D01*
X011907Y036079D01*
X011922Y036089D01*
X011938Y036097D01*
X011956Y036101D01*
X011974Y036101D01*
X011992Y036097D01*
X012008Y036089D01*
X012023Y036079D01*
X012035Y036066D01*
X012044Y036050D01*
X012049Y036033D01*
X012051Y036015D01*
X012049Y035997D01*
X012044Y035980D01*
X012035Y035964D01*
X012023Y035951D01*
X012008Y035941D01*
X011992Y035933D01*
X011974Y035929D01*
X011956Y035929D01*
X011938Y035933D01*
X011922Y035941D01*
X011907Y035951D01*
X011895Y035964D01*
X011886Y035980D01*
X011881Y035997D01*
X011879Y036015D01*
X011955Y036015D02*
X011957Y036020D01*
X011961Y036024D01*
X011966Y036025D01*
X011972Y036023D01*
X011975Y036018D01*
X011975Y036012D01*
X011972Y036007D01*
X011966Y036005D01*
X011961Y036006D01*
X011957Y036010D01*
X011955Y036015D01*
X011915Y036015D02*
X011917Y036028D01*
X011922Y036041D01*
X011931Y036052D01*
X011942Y036059D01*
X011955Y036064D01*
X011968Y036065D01*
X011982Y036062D01*
X011994Y036056D01*
X012004Y036047D01*
X012011Y036035D01*
X012015Y036022D01*
X012015Y036008D01*
X012011Y035995D01*
X012004Y035983D01*
X011994Y035974D01*
X011982Y035968D01*
X011968Y035965D01*
X011955Y035966D01*
X011942Y035971D01*
X011931Y035978D01*
X011922Y035989D01*
X011917Y036002D01*
X011915Y036015D01*
X015699Y032345D02*
X015701Y032363D01*
X015706Y032380D01*
X015715Y032396D01*
X015727Y032409D01*
X015742Y032419D01*
X015758Y032427D01*
X015776Y032431D01*
X015794Y032431D01*
X015812Y032427D01*
X015828Y032419D01*
X015843Y032409D01*
X015855Y032396D01*
X015864Y032380D01*
X015869Y032363D01*
X015871Y032345D01*
X015869Y032327D01*
X015864Y032310D01*
X015855Y032294D01*
X015843Y032281D01*
X015828Y032271D01*
X015812Y032263D01*
X015794Y032259D01*
X015776Y032259D01*
X015758Y032263D01*
X015742Y032271D01*
X015727Y032281D01*
X015715Y032294D01*
X015706Y032310D01*
X015701Y032327D01*
X015699Y032345D01*
X015775Y032345D02*
X015777Y032350D01*
X015781Y032354D01*
X015786Y032355D01*
X015792Y032353D01*
X015795Y032348D01*
X015795Y032342D01*
X015792Y032337D01*
X015786Y032335D01*
X015781Y032336D01*
X015777Y032340D01*
X015775Y032345D01*
X015735Y032345D02*
X015737Y032358D01*
X015742Y032371D01*
X015751Y032382D01*
X015762Y032389D01*
X015775Y032394D01*
X015788Y032395D01*
X015802Y032392D01*
X015814Y032386D01*
X015824Y032377D01*
X015831Y032365D01*
X015835Y032352D01*
X015835Y032338D01*
X015831Y032325D01*
X015824Y032313D01*
X015814Y032304D01*
X015802Y032298D01*
X015788Y032295D01*
X015775Y032296D01*
X015762Y032301D01*
X015751Y032308D01*
X015742Y032319D01*
X015737Y032332D01*
X015735Y032345D01*
X011949Y039495D02*
X011951Y039513D01*
X011956Y039530D01*
X011965Y039546D01*
X011977Y039559D01*
X011992Y039569D01*
X012008Y039577D01*
X012026Y039581D01*
X012044Y039581D01*
X012062Y039577D01*
X012078Y039569D01*
X012093Y039559D01*
X012105Y039546D01*
X012114Y039530D01*
X012119Y039513D01*
X012121Y039495D01*
X012119Y039477D01*
X012114Y039460D01*
X012105Y039444D01*
X012093Y039431D01*
X012078Y039421D01*
X012062Y039413D01*
X012044Y039409D01*
X012026Y039409D01*
X012008Y039413D01*
X011992Y039421D01*
X011977Y039431D01*
X011965Y039444D01*
X011956Y039460D01*
X011951Y039477D01*
X011949Y039495D01*
X012025Y039495D02*
X012027Y039500D01*
X012031Y039504D01*
X012036Y039505D01*
X012042Y039503D01*
X012045Y039498D01*
X012045Y039492D01*
X012042Y039487D01*
X012036Y039485D01*
X012031Y039486D01*
X012027Y039490D01*
X012025Y039495D01*
X011985Y039495D02*
X011987Y039508D01*
X011992Y039521D01*
X012001Y039532D01*
X012012Y039539D01*
X012025Y039544D01*
X012038Y039545D01*
X012052Y039542D01*
X012064Y039536D01*
X012074Y039527D01*
X012081Y039515D01*
X012085Y039502D01*
X012085Y039488D01*
X012081Y039475D01*
X012074Y039463D01*
X012064Y039454D01*
X012052Y039448D01*
X012038Y039445D01*
X012025Y039446D01*
X012012Y039451D01*
X012001Y039458D01*
X011992Y039469D01*
X011987Y039482D01*
X011985Y039495D01*
X013999Y041385D02*
X014001Y041403D01*
X014006Y041420D01*
X014015Y041436D01*
X014027Y041449D01*
X014042Y041459D01*
X014058Y041467D01*
X014076Y041471D01*
X014094Y041471D01*
X014112Y041467D01*
X014128Y041459D01*
X014143Y041449D01*
X014155Y041436D01*
X014164Y041420D01*
X014169Y041403D01*
X014171Y041385D01*
X014169Y041367D01*
X014164Y041350D01*
X014155Y041334D01*
X014143Y041321D01*
X014128Y041311D01*
X014112Y041303D01*
X014094Y041299D01*
X014076Y041299D01*
X014058Y041303D01*
X014042Y041311D01*
X014027Y041321D01*
X014015Y041334D01*
X014006Y041350D01*
X014001Y041367D01*
X013999Y041385D01*
X014075Y041385D02*
X014077Y041390D01*
X014081Y041394D01*
X014086Y041395D01*
X014092Y041393D01*
X014095Y041388D01*
X014095Y041382D01*
X014092Y041377D01*
X014086Y041375D01*
X014081Y041376D01*
X014077Y041380D01*
X014075Y041385D01*
X014035Y041385D02*
X014037Y041398D01*
X014042Y041411D01*
X014051Y041422D01*
X014062Y041429D01*
X014075Y041434D01*
X014088Y041435D01*
X014102Y041432D01*
X014114Y041426D01*
X014124Y041417D01*
X014131Y041405D01*
X014135Y041392D01*
X014135Y041378D01*
X014131Y041365D01*
X014124Y041353D01*
X014114Y041344D01*
X014102Y041338D01*
X014088Y041335D01*
X014075Y041336D01*
X014062Y041341D01*
X014051Y041348D01*
X014042Y041359D01*
X014037Y041372D01*
X014035Y041385D01*
X012039Y042325D02*
X012041Y042343D01*
X012046Y042360D01*
X012055Y042376D01*
X012067Y042389D01*
X012082Y042399D01*
X012098Y042407D01*
X012116Y042411D01*
X012134Y042411D01*
X012152Y042407D01*
X012168Y042399D01*
X012183Y042389D01*
X012195Y042376D01*
X012204Y042360D01*
X012209Y042343D01*
X012211Y042325D01*
X012209Y042307D01*
X012204Y042290D01*
X012195Y042274D01*
X012183Y042261D01*
X012168Y042251D01*
X012152Y042243D01*
X012134Y042239D01*
X012116Y042239D01*
X012098Y042243D01*
X012082Y042251D01*
X012067Y042261D01*
X012055Y042274D01*
X012046Y042290D01*
X012041Y042307D01*
X012039Y042325D01*
X012115Y042325D02*
X012117Y042330D01*
X012121Y042334D01*
X012126Y042335D01*
X012132Y042333D01*
X012135Y042328D01*
X012135Y042322D01*
X012132Y042317D01*
X012126Y042315D01*
X012121Y042316D01*
X012117Y042320D01*
X012115Y042325D01*
X012075Y042325D02*
X012077Y042338D01*
X012082Y042351D01*
X012091Y042362D01*
X012102Y042369D01*
X012115Y042374D01*
X012128Y042375D01*
X012142Y042372D01*
X012154Y042366D01*
X012164Y042357D01*
X012171Y042345D01*
X012175Y042332D01*
X012175Y042318D01*
X012171Y042305D01*
X012164Y042293D01*
X012154Y042284D01*
X012142Y042278D01*
X012128Y042275D01*
X012115Y042276D01*
X012102Y042281D01*
X012091Y042288D01*
X012082Y042299D01*
X012077Y042312D01*
X012075Y042325D01*
X013269Y043515D02*
X013271Y043533D01*
X013276Y043550D01*
X013285Y043566D01*
X013297Y043579D01*
X013312Y043589D01*
X013328Y043597D01*
X013346Y043601D01*
X013364Y043601D01*
X013382Y043597D01*
X013398Y043589D01*
X013413Y043579D01*
X013425Y043566D01*
X013434Y043550D01*
X013439Y043533D01*
X013441Y043515D01*
X013439Y043497D01*
X013434Y043480D01*
X013425Y043464D01*
X013413Y043451D01*
X013398Y043441D01*
X013382Y043433D01*
X013364Y043429D01*
X013346Y043429D01*
X013328Y043433D01*
X013312Y043441D01*
X013297Y043451D01*
X013285Y043464D01*
X013276Y043480D01*
X013271Y043497D01*
X013269Y043515D01*
X013345Y043515D02*
X013347Y043520D01*
X013351Y043524D01*
X013356Y043525D01*
X013362Y043523D01*
X013365Y043518D01*
X013365Y043512D01*
X013362Y043507D01*
X013356Y043505D01*
X013351Y043506D01*
X013347Y043510D01*
X013345Y043515D01*
X013305Y043515D02*
X013307Y043528D01*
X013312Y043541D01*
X013321Y043552D01*
X013332Y043559D01*
X013345Y043564D01*
X013358Y043565D01*
X013372Y043562D01*
X013384Y043556D01*
X013394Y043547D01*
X013401Y043535D01*
X013405Y043522D01*
X013405Y043508D01*
X013401Y043495D01*
X013394Y043483D01*
X013384Y043474D01*
X013372Y043468D01*
X013358Y043465D01*
X013345Y043466D01*
X013332Y043471D01*
X013321Y043478D01*
X013312Y043489D01*
X013307Y043502D01*
X013305Y043515D01*
X029499Y036035D02*
X029501Y036053D01*
X029506Y036070D01*
X029515Y036086D01*
X029527Y036099D01*
X029542Y036109D01*
X029558Y036117D01*
X029576Y036121D01*
X029594Y036121D01*
X029612Y036117D01*
X029628Y036109D01*
X029643Y036099D01*
X029655Y036086D01*
X029664Y036070D01*
X029669Y036053D01*
X029671Y036035D01*
X029669Y036017D01*
X029664Y036000D01*
X029655Y035984D01*
X029643Y035971D01*
X029628Y035961D01*
X029612Y035953D01*
X029594Y035949D01*
X029576Y035949D01*
X029558Y035953D01*
X029542Y035961D01*
X029527Y035971D01*
X029515Y035984D01*
X029506Y036000D01*
X029501Y036017D01*
X029499Y036035D01*
X029575Y036035D02*
X029577Y036040D01*
X029581Y036044D01*
X029586Y036045D01*
X029592Y036043D01*
X029595Y036038D01*
X029595Y036032D01*
X029592Y036027D01*
X029586Y036025D01*
X029581Y036026D01*
X029577Y036030D01*
X029575Y036035D01*
X029535Y036035D02*
X029537Y036048D01*
X029542Y036061D01*
X029551Y036072D01*
X029562Y036079D01*
X029575Y036084D01*
X029588Y036085D01*
X029602Y036082D01*
X029614Y036076D01*
X029624Y036067D01*
X029631Y036055D01*
X029635Y036042D01*
X029635Y036028D01*
X029631Y036015D01*
X029624Y036003D01*
X029614Y035994D01*
X029602Y035988D01*
X029588Y035985D01*
X029575Y035986D01*
X029562Y035991D01*
X029551Y035998D01*
X029542Y036009D01*
X029537Y036022D01*
X029535Y036035D01*
X031949Y034525D02*
X031951Y034543D01*
X031956Y034560D01*
X031965Y034576D01*
X031977Y034589D01*
X031992Y034599D01*
X032008Y034607D01*
X032026Y034611D01*
X032044Y034611D01*
X032062Y034607D01*
X032078Y034599D01*
X032093Y034589D01*
X032105Y034576D01*
X032114Y034560D01*
X032119Y034543D01*
X032121Y034525D01*
X032119Y034507D01*
X032114Y034490D01*
X032105Y034474D01*
X032093Y034461D01*
X032078Y034451D01*
X032062Y034443D01*
X032044Y034439D01*
X032026Y034439D01*
X032008Y034443D01*
X031992Y034451D01*
X031977Y034461D01*
X031965Y034474D01*
X031956Y034490D01*
X031951Y034507D01*
X031949Y034525D01*
X032025Y034525D02*
X032027Y034530D01*
X032031Y034534D01*
X032036Y034535D01*
X032042Y034533D01*
X032045Y034528D01*
X032045Y034522D01*
X032042Y034517D01*
X032036Y034515D01*
X032031Y034516D01*
X032027Y034520D01*
X032025Y034525D01*
X031985Y034525D02*
X031987Y034538D01*
X031992Y034551D01*
X032001Y034562D01*
X032012Y034569D01*
X032025Y034574D01*
X032038Y034575D01*
X032052Y034572D01*
X032064Y034566D01*
X032074Y034557D01*
X032081Y034545D01*
X032085Y034532D01*
X032085Y034518D01*
X032081Y034505D01*
X032074Y034493D01*
X032064Y034484D01*
X032052Y034478D01*
X032038Y034475D01*
X032025Y034476D01*
X032012Y034481D01*
X032001Y034488D01*
X031992Y034499D01*
X031987Y034512D01*
X031985Y034525D01*
X033379Y032435D02*
X033381Y032453D01*
X033386Y032470D01*
X033395Y032486D01*
X033407Y032499D01*
X033422Y032509D01*
X033438Y032517D01*
X033456Y032521D01*
X033474Y032521D01*
X033492Y032517D01*
X033508Y032509D01*
X033523Y032499D01*
X033535Y032486D01*
X033544Y032470D01*
X033549Y032453D01*
X033551Y032435D01*
X033549Y032417D01*
X033544Y032400D01*
X033535Y032384D01*
X033523Y032371D01*
X033508Y032361D01*
X033492Y032353D01*
X033474Y032349D01*
X033456Y032349D01*
X033438Y032353D01*
X033422Y032361D01*
X033407Y032371D01*
X033395Y032384D01*
X033386Y032400D01*
X033381Y032417D01*
X033379Y032435D01*
X033455Y032435D02*
X033457Y032440D01*
X033461Y032444D01*
X033466Y032445D01*
X033472Y032443D01*
X033475Y032438D01*
X033475Y032432D01*
X033472Y032427D01*
X033466Y032425D01*
X033461Y032426D01*
X033457Y032430D01*
X033455Y032435D01*
X033415Y032435D02*
X033417Y032448D01*
X033422Y032461D01*
X033431Y032472D01*
X033442Y032479D01*
X033455Y032484D01*
X033468Y032485D01*
X033482Y032482D01*
X033494Y032476D01*
X033504Y032467D01*
X033511Y032455D01*
X033515Y032442D01*
X033515Y032428D01*
X033511Y032415D01*
X033504Y032403D01*
X033494Y032394D01*
X033482Y032388D01*
X033468Y032385D01*
X033455Y032386D01*
X033442Y032391D01*
X033431Y032398D01*
X033422Y032409D01*
X033417Y032422D01*
X033415Y032435D01*
X029349Y033285D02*
X029351Y033303D01*
X029356Y033320D01*
X029365Y033336D01*
X029377Y033349D01*
X029392Y033359D01*
X029408Y033367D01*
X029426Y033371D01*
X029444Y033371D01*
X029462Y033367D01*
X029478Y033359D01*
X029493Y033349D01*
X029505Y033336D01*
X029514Y033320D01*
X029519Y033303D01*
X029521Y033285D01*
X029519Y033267D01*
X029514Y033250D01*
X029505Y033234D01*
X029493Y033221D01*
X029478Y033211D01*
X029462Y033203D01*
X029444Y033199D01*
X029426Y033199D01*
X029408Y033203D01*
X029392Y033211D01*
X029377Y033221D01*
X029365Y033234D01*
X029356Y033250D01*
X029351Y033267D01*
X029349Y033285D01*
X029425Y033285D02*
X029427Y033290D01*
X029431Y033294D01*
X029436Y033295D01*
X029442Y033293D01*
X029445Y033288D01*
X029445Y033282D01*
X029442Y033277D01*
X029436Y033275D01*
X029431Y033276D01*
X029427Y033280D01*
X029425Y033285D01*
X029385Y033285D02*
X029387Y033298D01*
X029392Y033311D01*
X029401Y033322D01*
X029412Y033329D01*
X029425Y033334D01*
X029438Y033335D01*
X029452Y033332D01*
X029464Y033326D01*
X029474Y033317D01*
X029481Y033305D01*
X029485Y033292D01*
X029485Y033278D01*
X029481Y033265D01*
X029474Y033253D01*
X029464Y033244D01*
X029452Y033238D01*
X029438Y033235D01*
X029425Y033236D01*
X029412Y033241D01*
X029401Y033248D01*
X029392Y033259D01*
X029387Y033272D01*
X029385Y033285D01*
X029649Y030165D02*
X029651Y030183D01*
X029656Y030200D01*
X029665Y030216D01*
X029677Y030229D01*
X029692Y030239D01*
X029708Y030247D01*
X029726Y030251D01*
X029744Y030251D01*
X029762Y030247D01*
X029778Y030239D01*
X029793Y030229D01*
X029805Y030216D01*
X029814Y030200D01*
X029819Y030183D01*
X029821Y030165D01*
X029819Y030147D01*
X029814Y030130D01*
X029805Y030114D01*
X029793Y030101D01*
X029778Y030091D01*
X029762Y030083D01*
X029744Y030079D01*
X029726Y030079D01*
X029708Y030083D01*
X029692Y030091D01*
X029677Y030101D01*
X029665Y030114D01*
X029656Y030130D01*
X029651Y030147D01*
X029649Y030165D01*
X029725Y030165D02*
X029727Y030170D01*
X029731Y030174D01*
X029736Y030175D01*
X029742Y030173D01*
X029745Y030168D01*
X029745Y030162D01*
X029742Y030157D01*
X029736Y030155D01*
X029731Y030156D01*
X029727Y030160D01*
X029725Y030165D01*
X029685Y030165D02*
X029687Y030178D01*
X029692Y030191D01*
X029701Y030202D01*
X029712Y030209D01*
X029725Y030214D01*
X029738Y030215D01*
X029752Y030212D01*
X029764Y030206D01*
X029774Y030197D01*
X029781Y030185D01*
X029785Y030172D01*
X029785Y030158D01*
X029781Y030145D01*
X029774Y030133D01*
X029764Y030124D01*
X029752Y030118D01*
X029738Y030115D01*
X029725Y030116D01*
X029712Y030121D01*
X029701Y030128D01*
X029692Y030139D01*
X029687Y030152D01*
X029685Y030165D01*
X032334Y028070D02*
X032336Y028088D01*
X032341Y028105D01*
X032350Y028121D01*
X032362Y028134D01*
X032377Y028144D01*
X032393Y028152D01*
X032411Y028156D01*
X032429Y028156D01*
X032447Y028152D01*
X032463Y028144D01*
X032478Y028134D01*
X032490Y028121D01*
X032499Y028105D01*
X032504Y028088D01*
X032506Y028070D01*
X032504Y028052D01*
X032499Y028035D01*
X032490Y028019D01*
X032478Y028006D01*
X032463Y027996D01*
X032447Y027988D01*
X032429Y027984D01*
X032411Y027984D01*
X032393Y027988D01*
X032377Y027996D01*
X032362Y028006D01*
X032350Y028019D01*
X032341Y028035D01*
X032336Y028052D01*
X032334Y028070D01*
X032410Y028070D02*
X032412Y028075D01*
X032416Y028079D01*
X032421Y028080D01*
X032427Y028078D01*
X032430Y028073D01*
X032430Y028067D01*
X032427Y028062D01*
X032421Y028060D01*
X032416Y028061D01*
X032412Y028065D01*
X032410Y028070D01*
X032370Y028070D02*
X032372Y028083D01*
X032377Y028096D01*
X032386Y028107D01*
X032397Y028114D01*
X032410Y028119D01*
X032423Y028120D01*
X032437Y028117D01*
X032449Y028111D01*
X032459Y028102D01*
X032466Y028090D01*
X032470Y028077D01*
X032470Y028063D01*
X032466Y028050D01*
X032459Y028038D01*
X032449Y028029D01*
X032437Y028023D01*
X032423Y028020D01*
X032410Y028021D01*
X032397Y028026D01*
X032386Y028033D01*
X032377Y028044D01*
X032372Y028057D01*
X032370Y028070D01*
X029549Y027235D02*
X029551Y027253D01*
X029556Y027270D01*
X029565Y027286D01*
X029577Y027299D01*
X029592Y027309D01*
X029608Y027317D01*
X029626Y027321D01*
X029644Y027321D01*
X029662Y027317D01*
X029678Y027309D01*
X029693Y027299D01*
X029705Y027286D01*
X029714Y027270D01*
X029719Y027253D01*
X029721Y027235D01*
X029719Y027217D01*
X029714Y027200D01*
X029705Y027184D01*
X029693Y027171D01*
X029678Y027161D01*
X029662Y027153D01*
X029644Y027149D01*
X029626Y027149D01*
X029608Y027153D01*
X029592Y027161D01*
X029577Y027171D01*
X029565Y027184D01*
X029556Y027200D01*
X029551Y027217D01*
X029549Y027235D01*
X029625Y027235D02*
X029627Y027240D01*
X029631Y027244D01*
X029636Y027245D01*
X029642Y027243D01*
X029645Y027238D01*
X029645Y027232D01*
X029642Y027227D01*
X029636Y027225D01*
X029631Y027226D01*
X029627Y027230D01*
X029625Y027235D01*
X029585Y027235D02*
X029587Y027248D01*
X029592Y027261D01*
X029601Y027272D01*
X029612Y027279D01*
X029625Y027284D01*
X029638Y027285D01*
X029652Y027282D01*
X029664Y027276D01*
X029674Y027267D01*
X029681Y027255D01*
X029685Y027242D01*
X029685Y027228D01*
X029681Y027215D01*
X029674Y027203D01*
X029664Y027194D01*
X029652Y027188D01*
X029638Y027185D01*
X029625Y027186D01*
X029612Y027191D01*
X029601Y027198D01*
X029592Y027209D01*
X029587Y027222D01*
X029585Y027235D01*
X030099Y022885D02*
X030101Y022903D01*
X030106Y022920D01*
X030115Y022936D01*
X030127Y022949D01*
X030142Y022959D01*
X030158Y022967D01*
X030176Y022971D01*
X030194Y022971D01*
X030212Y022967D01*
X030228Y022959D01*
X030243Y022949D01*
X030255Y022936D01*
X030264Y022920D01*
X030269Y022903D01*
X030271Y022885D01*
X030269Y022867D01*
X030264Y022850D01*
X030255Y022834D01*
X030243Y022821D01*
X030228Y022811D01*
X030212Y022803D01*
X030194Y022799D01*
X030176Y022799D01*
X030158Y022803D01*
X030142Y022811D01*
X030127Y022821D01*
X030115Y022834D01*
X030106Y022850D01*
X030101Y022867D01*
X030099Y022885D01*
X030175Y022885D02*
X030177Y022890D01*
X030181Y022894D01*
X030186Y022895D01*
X030192Y022893D01*
X030195Y022888D01*
X030195Y022882D01*
X030192Y022877D01*
X030186Y022875D01*
X030181Y022876D01*
X030177Y022880D01*
X030175Y022885D01*
X030135Y022885D02*
X030137Y022898D01*
X030142Y022911D01*
X030151Y022922D01*
X030162Y022929D01*
X030175Y022934D01*
X030188Y022935D01*
X030202Y022932D01*
X030214Y022926D01*
X030224Y022917D01*
X030231Y022905D01*
X030235Y022892D01*
X030235Y022878D01*
X030231Y022865D01*
X030224Y022853D01*
X030214Y022844D01*
X030202Y022838D01*
X030188Y022835D01*
X030175Y022836D01*
X030162Y022841D01*
X030151Y022848D01*
X030142Y022859D01*
X030137Y022872D01*
X030135Y022885D01*
X032049Y020735D02*
X032051Y020753D01*
X032056Y020770D01*
X032065Y020786D01*
X032077Y020799D01*
X032092Y020809D01*
X032108Y020817D01*
X032126Y020821D01*
X032144Y020821D01*
X032162Y020817D01*
X032178Y020809D01*
X032193Y020799D01*
X032205Y020786D01*
X032214Y020770D01*
X032219Y020753D01*
X032221Y020735D01*
X032219Y020717D01*
X032214Y020700D01*
X032205Y020684D01*
X032193Y020671D01*
X032178Y020661D01*
X032162Y020653D01*
X032144Y020649D01*
X032126Y020649D01*
X032108Y020653D01*
X032092Y020661D01*
X032077Y020671D01*
X032065Y020684D01*
X032056Y020700D01*
X032051Y020717D01*
X032049Y020735D01*
X032125Y020735D02*
X032127Y020740D01*
X032131Y020744D01*
X032136Y020745D01*
X032142Y020743D01*
X032145Y020738D01*
X032145Y020732D01*
X032142Y020727D01*
X032136Y020725D01*
X032131Y020726D01*
X032127Y020730D01*
X032125Y020735D01*
X032085Y020735D02*
X032087Y020748D01*
X032092Y020761D01*
X032101Y020772D01*
X032112Y020779D01*
X032125Y020784D01*
X032138Y020785D01*
X032152Y020782D01*
X032164Y020776D01*
X032174Y020767D01*
X032181Y020755D01*
X032185Y020742D01*
X032185Y020728D01*
X032181Y020715D01*
X032174Y020703D01*
X032164Y020694D01*
X032152Y020688D01*
X032138Y020685D01*
X032125Y020686D01*
X032112Y020691D01*
X032101Y020698D01*
X032092Y020709D01*
X032087Y020722D01*
X032085Y020735D01*
X030249Y018985D02*
X030251Y019003D01*
X030256Y019020D01*
X030265Y019036D01*
X030277Y019049D01*
X030292Y019059D01*
X030308Y019067D01*
X030326Y019071D01*
X030344Y019071D01*
X030362Y019067D01*
X030378Y019059D01*
X030393Y019049D01*
X030405Y019036D01*
X030414Y019020D01*
X030419Y019003D01*
X030421Y018985D01*
X030419Y018967D01*
X030414Y018950D01*
X030405Y018934D01*
X030393Y018921D01*
X030378Y018911D01*
X030362Y018903D01*
X030344Y018899D01*
X030326Y018899D01*
X030308Y018903D01*
X030292Y018911D01*
X030277Y018921D01*
X030265Y018934D01*
X030256Y018950D01*
X030251Y018967D01*
X030249Y018985D01*
X030325Y018985D02*
X030327Y018990D01*
X030331Y018994D01*
X030336Y018995D01*
X030342Y018993D01*
X030345Y018988D01*
X030345Y018982D01*
X030342Y018977D01*
X030336Y018975D01*
X030331Y018976D01*
X030327Y018980D01*
X030325Y018985D01*
X030285Y018985D02*
X030287Y018998D01*
X030292Y019011D01*
X030301Y019022D01*
X030312Y019029D01*
X030325Y019034D01*
X030338Y019035D01*
X030352Y019032D01*
X030364Y019026D01*
X030374Y019017D01*
X030381Y019005D01*
X030385Y018992D01*
X030385Y018978D01*
X030381Y018965D01*
X030374Y018953D01*
X030364Y018944D01*
X030352Y018938D01*
X030338Y018935D01*
X030325Y018936D01*
X030312Y018941D01*
X030301Y018948D01*
X030292Y018959D01*
X030287Y018972D01*
X030285Y018985D01*
X030699Y015735D02*
X030701Y015753D01*
X030706Y015770D01*
X030715Y015786D01*
X030727Y015799D01*
X030742Y015809D01*
X030758Y015817D01*
X030776Y015821D01*
X030794Y015821D01*
X030812Y015817D01*
X030828Y015809D01*
X030843Y015799D01*
X030855Y015786D01*
X030864Y015770D01*
X030869Y015753D01*
X030871Y015735D01*
X030869Y015717D01*
X030864Y015700D01*
X030855Y015684D01*
X030843Y015671D01*
X030828Y015661D01*
X030812Y015653D01*
X030794Y015649D01*
X030776Y015649D01*
X030758Y015653D01*
X030742Y015661D01*
X030727Y015671D01*
X030715Y015684D01*
X030706Y015700D01*
X030701Y015717D01*
X030699Y015735D01*
X030775Y015735D02*
X030777Y015740D01*
X030781Y015744D01*
X030786Y015745D01*
X030792Y015743D01*
X030795Y015738D01*
X030795Y015732D01*
X030792Y015727D01*
X030786Y015725D01*
X030781Y015726D01*
X030777Y015730D01*
X030775Y015735D01*
X030735Y015735D02*
X030737Y015748D01*
X030742Y015761D01*
X030751Y015772D01*
X030762Y015779D01*
X030775Y015784D01*
X030788Y015785D01*
X030802Y015782D01*
X030814Y015776D01*
X030824Y015767D01*
X030831Y015755D01*
X030835Y015742D01*
X030835Y015728D01*
X030831Y015715D01*
X030824Y015703D01*
X030814Y015694D01*
X030802Y015688D01*
X030788Y015685D01*
X030775Y015686D01*
X030762Y015691D01*
X030751Y015698D01*
X030742Y015709D01*
X030737Y015722D01*
X030735Y015735D01*
X031949Y013835D02*
X031951Y013853D01*
X031956Y013870D01*
X031965Y013886D01*
X031977Y013899D01*
X031992Y013909D01*
X032008Y013917D01*
X032026Y013921D01*
X032044Y013921D01*
X032062Y013917D01*
X032078Y013909D01*
X032093Y013899D01*
X032105Y013886D01*
X032114Y013870D01*
X032119Y013853D01*
X032121Y013835D01*
X032119Y013817D01*
X032114Y013800D01*
X032105Y013784D01*
X032093Y013771D01*
X032078Y013761D01*
X032062Y013753D01*
X032044Y013749D01*
X032026Y013749D01*
X032008Y013753D01*
X031992Y013761D01*
X031977Y013771D01*
X031965Y013784D01*
X031956Y013800D01*
X031951Y013817D01*
X031949Y013835D01*
X032025Y013835D02*
X032027Y013840D01*
X032031Y013844D01*
X032036Y013845D01*
X032042Y013843D01*
X032045Y013838D01*
X032045Y013832D01*
X032042Y013827D01*
X032036Y013825D01*
X032031Y013826D01*
X032027Y013830D01*
X032025Y013835D01*
X031985Y013835D02*
X031987Y013848D01*
X031992Y013861D01*
X032001Y013872D01*
X032012Y013879D01*
X032025Y013884D01*
X032038Y013885D01*
X032052Y013882D01*
X032064Y013876D01*
X032074Y013867D01*
X032081Y013855D01*
X032085Y013842D01*
X032085Y013828D01*
X032081Y013815D01*
X032074Y013803D01*
X032064Y013794D01*
X032052Y013788D01*
X032038Y013785D01*
X032025Y013786D01*
X032012Y013791D01*
X032001Y013798D01*
X031992Y013809D01*
X031987Y013822D01*
X031985Y013835D01*
X030849Y012335D02*
X030851Y012353D01*
X030856Y012370D01*
X030865Y012386D01*
X030877Y012399D01*
X030892Y012409D01*
X030908Y012417D01*
X030926Y012421D01*
X030944Y012421D01*
X030962Y012417D01*
X030978Y012409D01*
X030993Y012399D01*
X031005Y012386D01*
X031014Y012370D01*
X031019Y012353D01*
X031021Y012335D01*
X031019Y012317D01*
X031014Y012300D01*
X031005Y012284D01*
X030993Y012271D01*
X030978Y012261D01*
X030962Y012253D01*
X030944Y012249D01*
X030926Y012249D01*
X030908Y012253D01*
X030892Y012261D01*
X030877Y012271D01*
X030865Y012284D01*
X030856Y012300D01*
X030851Y012317D01*
X030849Y012335D01*
X030925Y012335D02*
X030927Y012340D01*
X030931Y012344D01*
X030936Y012345D01*
X030942Y012343D01*
X030945Y012338D01*
X030945Y012332D01*
X030942Y012327D01*
X030936Y012325D01*
X030931Y012326D01*
X030927Y012330D01*
X030925Y012335D01*
X030885Y012335D02*
X030887Y012348D01*
X030892Y012361D01*
X030901Y012372D01*
X030912Y012379D01*
X030925Y012384D01*
X030938Y012385D01*
X030952Y012382D01*
X030964Y012376D01*
X030974Y012367D01*
X030981Y012355D01*
X030985Y012342D01*
X030985Y012328D01*
X030981Y012315D01*
X030974Y012303D01*
X030964Y012294D01*
X030952Y012288D01*
X030938Y012285D01*
X030925Y012286D01*
X030912Y012291D01*
X030901Y012298D01*
X030892Y012309D01*
X030887Y012322D01*
X030885Y012335D01*
X031399Y010535D02*
X031401Y010553D01*
X031406Y010570D01*
X031415Y010586D01*
X031427Y010599D01*
X031442Y010609D01*
X031458Y010617D01*
X031476Y010621D01*
X031494Y010621D01*
X031512Y010617D01*
X031528Y010609D01*
X031543Y010599D01*
X031555Y010586D01*
X031564Y010570D01*
X031569Y010553D01*
X031571Y010535D01*
X031569Y010517D01*
X031564Y010500D01*
X031555Y010484D01*
X031543Y010471D01*
X031528Y010461D01*
X031512Y010453D01*
X031494Y010449D01*
X031476Y010449D01*
X031458Y010453D01*
X031442Y010461D01*
X031427Y010471D01*
X031415Y010484D01*
X031406Y010500D01*
X031401Y010517D01*
X031399Y010535D01*
X031475Y010535D02*
X031477Y010540D01*
X031481Y010544D01*
X031486Y010545D01*
X031492Y010543D01*
X031495Y010538D01*
X031495Y010532D01*
X031492Y010527D01*
X031486Y010525D01*
X031481Y010526D01*
X031477Y010530D01*
X031475Y010535D01*
X031435Y010535D02*
X031437Y010548D01*
X031442Y010561D01*
X031451Y010572D01*
X031462Y010579D01*
X031475Y010584D01*
X031488Y010585D01*
X031502Y010582D01*
X031514Y010576D01*
X031524Y010567D01*
X031531Y010555D01*
X031535Y010542D01*
X031535Y010528D01*
X031531Y010515D01*
X031524Y010503D01*
X031514Y010494D01*
X031502Y010488D01*
X031488Y010485D01*
X031475Y010486D01*
X031462Y010491D01*
X031451Y010498D01*
X031442Y010509D01*
X031437Y010522D01*
X031435Y010535D01*
X047389Y022375D02*
X047391Y022393D01*
X047396Y022410D01*
X047405Y022426D01*
X047417Y022439D01*
X047432Y022449D01*
X047448Y022457D01*
X047466Y022461D01*
X047484Y022461D01*
X047502Y022457D01*
X047518Y022449D01*
X047533Y022439D01*
X047545Y022426D01*
X047554Y022410D01*
X047559Y022393D01*
X047561Y022375D01*
X047559Y022357D01*
X047554Y022340D01*
X047545Y022324D01*
X047533Y022311D01*
X047518Y022301D01*
X047502Y022293D01*
X047484Y022289D01*
X047466Y022289D01*
X047448Y022293D01*
X047432Y022301D01*
X047417Y022311D01*
X047405Y022324D01*
X047396Y022340D01*
X047391Y022357D01*
X047389Y022375D01*
X047465Y022375D02*
X047467Y022380D01*
X047471Y022384D01*
X047476Y022385D01*
X047482Y022383D01*
X047485Y022378D01*
X047485Y022372D01*
X047482Y022367D01*
X047476Y022365D01*
X047471Y022366D01*
X047467Y022370D01*
X047465Y022375D01*
X047425Y022375D02*
X047427Y022388D01*
X047432Y022401D01*
X047441Y022412D01*
X047452Y022419D01*
X047465Y022424D01*
X047478Y022425D01*
X047492Y022422D01*
X047504Y022416D01*
X047514Y022407D01*
X047521Y022395D01*
X047525Y022382D01*
X047525Y022368D01*
X047521Y022355D01*
X047514Y022343D01*
X047504Y022334D01*
X047492Y022328D01*
X047478Y022325D01*
X047465Y022326D01*
X047452Y022331D01*
X047441Y022338D01*
X047432Y022349D01*
X047427Y022362D01*
X047425Y022375D01*
X049864Y020735D02*
X049866Y020753D01*
X049871Y020770D01*
X049880Y020786D01*
X049892Y020799D01*
X049907Y020809D01*
X049923Y020817D01*
X049941Y020821D01*
X049959Y020821D01*
X049977Y020817D01*
X049993Y020809D01*
X050008Y020799D01*
X050020Y020786D01*
X050029Y020770D01*
X050034Y020753D01*
X050036Y020735D01*
X050034Y020717D01*
X050029Y020700D01*
X050020Y020684D01*
X050008Y020671D01*
X049993Y020661D01*
X049977Y020653D01*
X049959Y020649D01*
X049941Y020649D01*
X049923Y020653D01*
X049907Y020661D01*
X049892Y020671D01*
X049880Y020684D01*
X049871Y020700D01*
X049866Y020717D01*
X049864Y020735D01*
X049940Y020735D02*
X049942Y020740D01*
X049946Y020744D01*
X049951Y020745D01*
X049957Y020743D01*
X049960Y020738D01*
X049960Y020732D01*
X049957Y020727D01*
X049951Y020725D01*
X049946Y020726D01*
X049942Y020730D01*
X049940Y020735D01*
X049900Y020735D02*
X049902Y020748D01*
X049907Y020761D01*
X049916Y020772D01*
X049927Y020779D01*
X049940Y020784D01*
X049953Y020785D01*
X049967Y020782D01*
X049979Y020776D01*
X049989Y020767D01*
X049996Y020755D01*
X050000Y020742D01*
X050000Y020728D01*
X049996Y020715D01*
X049989Y020703D01*
X049979Y020694D01*
X049967Y020688D01*
X049953Y020685D01*
X049940Y020686D01*
X049927Y020691D01*
X049916Y020698D01*
X049907Y020709D01*
X049902Y020722D01*
X049900Y020735D01*
X047869Y018875D02*
X047871Y018893D01*
X047876Y018910D01*
X047885Y018926D01*
X047897Y018939D01*
X047912Y018949D01*
X047928Y018957D01*
X047946Y018961D01*
X047964Y018961D01*
X047982Y018957D01*
X047998Y018949D01*
X048013Y018939D01*
X048025Y018926D01*
X048034Y018910D01*
X048039Y018893D01*
X048041Y018875D01*
X048039Y018857D01*
X048034Y018840D01*
X048025Y018824D01*
X048013Y018811D01*
X047998Y018801D01*
X047982Y018793D01*
X047964Y018789D01*
X047946Y018789D01*
X047928Y018793D01*
X047912Y018801D01*
X047897Y018811D01*
X047885Y018824D01*
X047876Y018840D01*
X047871Y018857D01*
X047869Y018875D01*
X047945Y018875D02*
X047947Y018880D01*
X047951Y018884D01*
X047956Y018885D01*
X047962Y018883D01*
X047965Y018878D01*
X047965Y018872D01*
X047962Y018867D01*
X047956Y018865D01*
X047951Y018866D01*
X047947Y018870D01*
X047945Y018875D01*
X047905Y018875D02*
X047907Y018888D01*
X047912Y018901D01*
X047921Y018912D01*
X047932Y018919D01*
X047945Y018924D01*
X047958Y018925D01*
X047972Y018922D01*
X047984Y018916D01*
X047994Y018907D01*
X048001Y018895D01*
X048005Y018882D01*
X048005Y018868D01*
X048001Y018855D01*
X047994Y018843D01*
X047984Y018834D01*
X047972Y018828D01*
X047958Y018825D01*
X047945Y018826D01*
X047932Y018831D01*
X047921Y018838D01*
X047912Y018849D01*
X047907Y018862D01*
X047905Y018875D01*
X048109Y015765D02*
X048111Y015783D01*
X048116Y015800D01*
X048125Y015816D01*
X048137Y015829D01*
X048152Y015839D01*
X048168Y015847D01*
X048186Y015851D01*
X048204Y015851D01*
X048222Y015847D01*
X048238Y015839D01*
X048253Y015829D01*
X048265Y015816D01*
X048274Y015800D01*
X048279Y015783D01*
X048281Y015765D01*
X048279Y015747D01*
X048274Y015730D01*
X048265Y015714D01*
X048253Y015701D01*
X048238Y015691D01*
X048222Y015683D01*
X048204Y015679D01*
X048186Y015679D01*
X048168Y015683D01*
X048152Y015691D01*
X048137Y015701D01*
X048125Y015714D01*
X048116Y015730D01*
X048111Y015747D01*
X048109Y015765D01*
X048185Y015765D02*
X048187Y015770D01*
X048191Y015774D01*
X048196Y015775D01*
X048202Y015773D01*
X048205Y015768D01*
X048205Y015762D01*
X048202Y015757D01*
X048196Y015755D01*
X048191Y015756D01*
X048187Y015760D01*
X048185Y015765D01*
X048145Y015765D02*
X048147Y015778D01*
X048152Y015791D01*
X048161Y015802D01*
X048172Y015809D01*
X048185Y015814D01*
X048198Y015815D01*
X048212Y015812D01*
X048224Y015806D01*
X048234Y015797D01*
X048241Y015785D01*
X048245Y015772D01*
X048245Y015758D01*
X048241Y015745D01*
X048234Y015733D01*
X048224Y015724D01*
X048212Y015718D01*
X048198Y015715D01*
X048185Y015716D01*
X048172Y015721D01*
X048161Y015728D01*
X048152Y015739D01*
X048147Y015752D01*
X048145Y015765D01*
X049829Y013845D02*
X049831Y013863D01*
X049836Y013880D01*
X049845Y013896D01*
X049857Y013909D01*
X049872Y013919D01*
X049888Y013927D01*
X049906Y013931D01*
X049924Y013931D01*
X049942Y013927D01*
X049958Y013919D01*
X049973Y013909D01*
X049985Y013896D01*
X049994Y013880D01*
X049999Y013863D01*
X050001Y013845D01*
X049999Y013827D01*
X049994Y013810D01*
X049985Y013794D01*
X049973Y013781D01*
X049958Y013771D01*
X049942Y013763D01*
X049924Y013759D01*
X049906Y013759D01*
X049888Y013763D01*
X049872Y013771D01*
X049857Y013781D01*
X049845Y013794D01*
X049836Y013810D01*
X049831Y013827D01*
X049829Y013845D01*
X049905Y013845D02*
X049907Y013850D01*
X049911Y013854D01*
X049916Y013855D01*
X049922Y013853D01*
X049925Y013848D01*
X049925Y013842D01*
X049922Y013837D01*
X049916Y013835D01*
X049911Y013836D01*
X049907Y013840D01*
X049905Y013845D01*
X049865Y013845D02*
X049867Y013858D01*
X049872Y013871D01*
X049881Y013882D01*
X049892Y013889D01*
X049905Y013894D01*
X049918Y013895D01*
X049932Y013892D01*
X049944Y013886D01*
X049954Y013877D01*
X049961Y013865D01*
X049965Y013852D01*
X049965Y013838D01*
X049961Y013825D01*
X049954Y013813D01*
X049944Y013804D01*
X049932Y013798D01*
X049918Y013795D01*
X049905Y013796D01*
X049892Y013801D01*
X049881Y013808D01*
X049872Y013819D01*
X049867Y013832D01*
X049865Y013845D01*
X048429Y012095D02*
X048431Y012113D01*
X048436Y012130D01*
X048445Y012146D01*
X048457Y012159D01*
X048472Y012169D01*
X048488Y012177D01*
X048506Y012181D01*
X048524Y012181D01*
X048542Y012177D01*
X048558Y012169D01*
X048573Y012159D01*
X048585Y012146D01*
X048594Y012130D01*
X048599Y012113D01*
X048601Y012095D01*
X048599Y012077D01*
X048594Y012060D01*
X048585Y012044D01*
X048573Y012031D01*
X048558Y012021D01*
X048542Y012013D01*
X048524Y012009D01*
X048506Y012009D01*
X048488Y012013D01*
X048472Y012021D01*
X048457Y012031D01*
X048445Y012044D01*
X048436Y012060D01*
X048431Y012077D01*
X048429Y012095D01*
X048505Y012095D02*
X048507Y012100D01*
X048511Y012104D01*
X048516Y012105D01*
X048522Y012103D01*
X048525Y012098D01*
X048525Y012092D01*
X048522Y012087D01*
X048516Y012085D01*
X048511Y012086D01*
X048507Y012090D01*
X048505Y012095D01*
X048465Y012095D02*
X048467Y012108D01*
X048472Y012121D01*
X048481Y012132D01*
X048492Y012139D01*
X048505Y012144D01*
X048518Y012145D01*
X048532Y012142D01*
X048544Y012136D01*
X048554Y012127D01*
X048561Y012115D01*
X048565Y012102D01*
X048565Y012088D01*
X048561Y012075D01*
X048554Y012063D01*
X048544Y012054D01*
X048532Y012048D01*
X048518Y012045D01*
X048505Y012046D01*
X048492Y012051D01*
X048481Y012058D01*
X048472Y012069D01*
X048467Y012082D01*
X048465Y012095D01*
X049219Y010195D02*
X049221Y010213D01*
X049226Y010230D01*
X049235Y010246D01*
X049247Y010259D01*
X049262Y010269D01*
X049278Y010277D01*
X049296Y010281D01*
X049314Y010281D01*
X049332Y010277D01*
X049348Y010269D01*
X049363Y010259D01*
X049375Y010246D01*
X049384Y010230D01*
X049389Y010213D01*
X049391Y010195D01*
X049389Y010177D01*
X049384Y010160D01*
X049375Y010144D01*
X049363Y010131D01*
X049348Y010121D01*
X049332Y010113D01*
X049314Y010109D01*
X049296Y010109D01*
X049278Y010113D01*
X049262Y010121D01*
X049247Y010131D01*
X049235Y010144D01*
X049226Y010160D01*
X049221Y010177D01*
X049219Y010195D01*
X049295Y010195D02*
X049297Y010200D01*
X049301Y010204D01*
X049306Y010205D01*
X049312Y010203D01*
X049315Y010198D01*
X049315Y010192D01*
X049312Y010187D01*
X049306Y010185D01*
X049301Y010186D01*
X049297Y010190D01*
X049295Y010195D01*
X049255Y010195D02*
X049257Y010208D01*
X049262Y010221D01*
X049271Y010232D01*
X049282Y010239D01*
X049295Y010244D01*
X049308Y010245D01*
X049322Y010242D01*
X049334Y010236D01*
X049344Y010227D01*
X049351Y010215D01*
X049355Y010202D01*
X049355Y010188D01*
X049351Y010175D01*
X049344Y010163D01*
X049334Y010154D01*
X049322Y010148D01*
X049308Y010145D01*
X049295Y010146D01*
X049282Y010151D01*
X049271Y010158D01*
X049262Y010169D01*
X049257Y010182D01*
X049255Y010195D01*
X049249Y009135D02*
X049251Y009153D01*
X049256Y009170D01*
X049265Y009186D01*
X049277Y009199D01*
X049292Y009209D01*
X049308Y009217D01*
X049326Y009221D01*
X049344Y009221D01*
X049362Y009217D01*
X049378Y009209D01*
X049393Y009199D01*
X049405Y009186D01*
X049414Y009170D01*
X049419Y009153D01*
X049421Y009135D01*
X049419Y009117D01*
X049414Y009100D01*
X049405Y009084D01*
X049393Y009071D01*
X049378Y009061D01*
X049362Y009053D01*
X049344Y009049D01*
X049326Y009049D01*
X049308Y009053D01*
X049292Y009061D01*
X049277Y009071D01*
X049265Y009084D01*
X049256Y009100D01*
X049251Y009117D01*
X049249Y009135D01*
X049325Y009135D02*
X049327Y009140D01*
X049331Y009144D01*
X049336Y009145D01*
X049342Y009143D01*
X049345Y009138D01*
X049345Y009132D01*
X049342Y009127D01*
X049336Y009125D01*
X049331Y009126D01*
X049327Y009130D01*
X049325Y009135D01*
X049285Y009135D02*
X049287Y009148D01*
X049292Y009161D01*
X049301Y009172D01*
X049312Y009179D01*
X049325Y009184D01*
X049338Y009185D01*
X049352Y009182D01*
X049364Y009176D01*
X049374Y009167D01*
X049381Y009155D01*
X049385Y009142D01*
X049385Y009128D01*
X049381Y009115D01*
X049374Y009103D01*
X049364Y009094D01*
X049352Y009088D01*
X049338Y009085D01*
X049325Y009086D01*
X049312Y009091D01*
X049301Y009098D01*
X049292Y009109D01*
X049287Y009122D01*
X049285Y009135D01*
X052641Y023476D02*
X052641Y024894D01*
X053349Y024894D01*
X053349Y023476D01*
X052641Y023476D01*
X049869Y027635D02*
X049871Y027653D01*
X049876Y027670D01*
X049885Y027686D01*
X049897Y027699D01*
X049912Y027709D01*
X049928Y027717D01*
X049946Y027721D01*
X049964Y027721D01*
X049982Y027717D01*
X049998Y027709D01*
X050013Y027699D01*
X050025Y027686D01*
X050034Y027670D01*
X050039Y027653D01*
X050041Y027635D01*
X050039Y027617D01*
X050034Y027600D01*
X050025Y027584D01*
X050013Y027571D01*
X049998Y027561D01*
X049982Y027553D01*
X049964Y027549D01*
X049946Y027549D01*
X049928Y027553D01*
X049912Y027561D01*
X049897Y027571D01*
X049885Y027584D01*
X049876Y027600D01*
X049871Y027617D01*
X049869Y027635D01*
X049945Y027635D02*
X049947Y027640D01*
X049951Y027644D01*
X049956Y027645D01*
X049962Y027643D01*
X049965Y027638D01*
X049965Y027632D01*
X049962Y027627D01*
X049956Y027625D01*
X049951Y027626D01*
X049947Y027630D01*
X049945Y027635D01*
X049905Y027635D02*
X049907Y027648D01*
X049912Y027661D01*
X049921Y027672D01*
X049932Y027679D01*
X049945Y027684D01*
X049958Y027685D01*
X049972Y027682D01*
X049984Y027676D01*
X049994Y027667D01*
X050001Y027655D01*
X050005Y027642D01*
X050005Y027628D01*
X050001Y027615D01*
X049994Y027603D01*
X049984Y027594D01*
X049972Y027588D01*
X049958Y027585D01*
X049945Y027586D01*
X049932Y027591D01*
X049921Y027598D01*
X049912Y027609D01*
X049907Y027622D01*
X049905Y027635D01*
X046869Y026035D02*
X046871Y026053D01*
X046876Y026070D01*
X046885Y026086D01*
X046897Y026099D01*
X046912Y026109D01*
X046928Y026117D01*
X046946Y026121D01*
X046964Y026121D01*
X046982Y026117D01*
X046998Y026109D01*
X047013Y026099D01*
X047025Y026086D01*
X047034Y026070D01*
X047039Y026053D01*
X047041Y026035D01*
X047039Y026017D01*
X047034Y026000D01*
X047025Y025984D01*
X047013Y025971D01*
X046998Y025961D01*
X046982Y025953D01*
X046964Y025949D01*
X046946Y025949D01*
X046928Y025953D01*
X046912Y025961D01*
X046897Y025971D01*
X046885Y025984D01*
X046876Y026000D01*
X046871Y026017D01*
X046869Y026035D01*
X046945Y026035D02*
X046947Y026040D01*
X046951Y026044D01*
X046956Y026045D01*
X046962Y026043D01*
X046965Y026038D01*
X046965Y026032D01*
X046962Y026027D01*
X046956Y026025D01*
X046951Y026026D01*
X046947Y026030D01*
X046945Y026035D01*
X046905Y026035D02*
X046907Y026048D01*
X046912Y026061D01*
X046921Y026072D01*
X046932Y026079D01*
X046945Y026084D01*
X046958Y026085D01*
X046972Y026082D01*
X046984Y026076D01*
X046994Y026067D01*
X047001Y026055D01*
X047005Y026042D01*
X047005Y026028D01*
X047001Y026015D01*
X046994Y026003D01*
X046984Y025994D01*
X046972Y025988D01*
X046958Y025985D01*
X046945Y025986D01*
X046932Y025991D01*
X046921Y025998D01*
X046912Y026009D01*
X046907Y026022D01*
X046905Y026035D01*
X047829Y030350D02*
X047831Y030368D01*
X047836Y030385D01*
X047845Y030401D01*
X047857Y030414D01*
X047872Y030424D01*
X047888Y030432D01*
X047906Y030436D01*
X047924Y030436D01*
X047942Y030432D01*
X047958Y030424D01*
X047973Y030414D01*
X047985Y030401D01*
X047994Y030385D01*
X047999Y030368D01*
X048001Y030350D01*
X047999Y030332D01*
X047994Y030315D01*
X047985Y030299D01*
X047973Y030286D01*
X047958Y030276D01*
X047942Y030268D01*
X047924Y030264D01*
X047906Y030264D01*
X047888Y030268D01*
X047872Y030276D01*
X047857Y030286D01*
X047845Y030299D01*
X047836Y030315D01*
X047831Y030332D01*
X047829Y030350D01*
X047905Y030350D02*
X047907Y030355D01*
X047911Y030359D01*
X047916Y030360D01*
X047922Y030358D01*
X047925Y030353D01*
X047925Y030347D01*
X047922Y030342D01*
X047916Y030340D01*
X047911Y030341D01*
X047907Y030345D01*
X047905Y030350D01*
X047865Y030350D02*
X047867Y030363D01*
X047872Y030376D01*
X047881Y030387D01*
X047892Y030394D01*
X047905Y030399D01*
X047918Y030400D01*
X047932Y030397D01*
X047944Y030391D01*
X047954Y030382D01*
X047961Y030370D01*
X047965Y030357D01*
X047965Y030343D01*
X047961Y030330D01*
X047954Y030318D01*
X047944Y030309D01*
X047932Y030303D01*
X047918Y030300D01*
X047905Y030301D01*
X047892Y030306D01*
X047881Y030313D01*
X047872Y030324D01*
X047867Y030337D01*
X047865Y030350D01*
X047799Y032215D02*
X047801Y032233D01*
X047806Y032250D01*
X047815Y032266D01*
X047827Y032279D01*
X047842Y032289D01*
X047858Y032297D01*
X047876Y032301D01*
X047894Y032301D01*
X047912Y032297D01*
X047928Y032289D01*
X047943Y032279D01*
X047955Y032266D01*
X047964Y032250D01*
X047969Y032233D01*
X047971Y032215D01*
X047969Y032197D01*
X047964Y032180D01*
X047955Y032164D01*
X047943Y032151D01*
X047928Y032141D01*
X047912Y032133D01*
X047894Y032129D01*
X047876Y032129D01*
X047858Y032133D01*
X047842Y032141D01*
X047827Y032151D01*
X047815Y032164D01*
X047806Y032180D01*
X047801Y032197D01*
X047799Y032215D01*
X047875Y032215D02*
X047877Y032220D01*
X047881Y032224D01*
X047886Y032225D01*
X047892Y032223D01*
X047895Y032218D01*
X047895Y032212D01*
X047892Y032207D01*
X047886Y032205D01*
X047881Y032206D01*
X047877Y032210D01*
X047875Y032215D01*
X047835Y032215D02*
X047837Y032228D01*
X047842Y032241D01*
X047851Y032252D01*
X047862Y032259D01*
X047875Y032264D01*
X047888Y032265D01*
X047902Y032262D01*
X047914Y032256D01*
X047924Y032247D01*
X047931Y032235D01*
X047935Y032222D01*
X047935Y032208D01*
X047931Y032195D01*
X047924Y032183D01*
X047914Y032174D01*
X047902Y032168D01*
X047888Y032165D01*
X047875Y032166D01*
X047862Y032171D01*
X047851Y032178D01*
X047842Y032189D01*
X047837Y032202D01*
X047835Y032215D01*
X049799Y034535D02*
X049801Y034553D01*
X049806Y034570D01*
X049815Y034586D01*
X049827Y034599D01*
X049842Y034609D01*
X049858Y034617D01*
X049876Y034621D01*
X049894Y034621D01*
X049912Y034617D01*
X049928Y034609D01*
X049943Y034599D01*
X049955Y034586D01*
X049964Y034570D01*
X049969Y034553D01*
X049971Y034535D01*
X049969Y034517D01*
X049964Y034500D01*
X049955Y034484D01*
X049943Y034471D01*
X049928Y034461D01*
X049912Y034453D01*
X049894Y034449D01*
X049876Y034449D01*
X049858Y034453D01*
X049842Y034461D01*
X049827Y034471D01*
X049815Y034484D01*
X049806Y034500D01*
X049801Y034517D01*
X049799Y034535D01*
X049875Y034535D02*
X049877Y034540D01*
X049881Y034544D01*
X049886Y034545D01*
X049892Y034543D01*
X049895Y034538D01*
X049895Y034532D01*
X049892Y034527D01*
X049886Y034525D01*
X049881Y034526D01*
X049877Y034530D01*
X049875Y034535D01*
X049835Y034535D02*
X049837Y034548D01*
X049842Y034561D01*
X049851Y034572D01*
X049862Y034579D01*
X049875Y034584D01*
X049888Y034585D01*
X049902Y034582D01*
X049914Y034576D01*
X049924Y034567D01*
X049931Y034555D01*
X049935Y034542D01*
X049935Y034528D01*
X049931Y034515D01*
X049924Y034503D01*
X049914Y034494D01*
X049902Y034488D01*
X049888Y034485D01*
X049875Y034486D01*
X049862Y034491D01*
X049851Y034498D01*
X049842Y034509D01*
X049837Y034522D01*
X049835Y034535D01*
X047909Y035895D02*
X047911Y035913D01*
X047916Y035930D01*
X047925Y035946D01*
X047937Y035959D01*
X047952Y035969D01*
X047968Y035977D01*
X047986Y035981D01*
X048004Y035981D01*
X048022Y035977D01*
X048038Y035969D01*
X048053Y035959D01*
X048065Y035946D01*
X048074Y035930D01*
X048079Y035913D01*
X048081Y035895D01*
X048079Y035877D01*
X048074Y035860D01*
X048065Y035844D01*
X048053Y035831D01*
X048038Y035821D01*
X048022Y035813D01*
X048004Y035809D01*
X047986Y035809D01*
X047968Y035813D01*
X047952Y035821D01*
X047937Y035831D01*
X047925Y035844D01*
X047916Y035860D01*
X047911Y035877D01*
X047909Y035895D01*
X047985Y035895D02*
X047987Y035900D01*
X047991Y035904D01*
X047996Y035905D01*
X048002Y035903D01*
X048005Y035898D01*
X048005Y035892D01*
X048002Y035887D01*
X047996Y035885D01*
X047991Y035886D01*
X047987Y035890D01*
X047985Y035895D01*
X047945Y035895D02*
X047947Y035908D01*
X047952Y035921D01*
X047961Y035932D01*
X047972Y035939D01*
X047985Y035944D01*
X047998Y035945D01*
X048012Y035942D01*
X048024Y035936D01*
X048034Y035927D01*
X048041Y035915D01*
X048045Y035902D01*
X048045Y035888D01*
X048041Y035875D01*
X048034Y035863D01*
X048024Y035854D01*
X048012Y035848D01*
X047998Y035845D01*
X047985Y035846D01*
X047972Y035851D01*
X047961Y035858D01*
X047952Y035869D01*
X047947Y035882D01*
X047945Y035895D01*
X047939Y038835D02*
X047941Y038853D01*
X047946Y038870D01*
X047955Y038886D01*
X047967Y038899D01*
X047982Y038909D01*
X047998Y038917D01*
X048016Y038921D01*
X048034Y038921D01*
X048052Y038917D01*
X048068Y038909D01*
X048083Y038899D01*
X048095Y038886D01*
X048104Y038870D01*
X048109Y038853D01*
X048111Y038835D01*
X048109Y038817D01*
X048104Y038800D01*
X048095Y038784D01*
X048083Y038771D01*
X048068Y038761D01*
X048052Y038753D01*
X048034Y038749D01*
X048016Y038749D01*
X047998Y038753D01*
X047982Y038761D01*
X047967Y038771D01*
X047955Y038784D01*
X047946Y038800D01*
X047941Y038817D01*
X047939Y038835D01*
X048015Y038835D02*
X048017Y038840D01*
X048021Y038844D01*
X048026Y038845D01*
X048032Y038843D01*
X048035Y038838D01*
X048035Y038832D01*
X048032Y038827D01*
X048026Y038825D01*
X048021Y038826D01*
X048017Y038830D01*
X048015Y038835D01*
X047975Y038835D02*
X047977Y038848D01*
X047982Y038861D01*
X047991Y038872D01*
X048002Y038879D01*
X048015Y038884D01*
X048028Y038885D01*
X048042Y038882D01*
X048054Y038876D01*
X048064Y038867D01*
X048071Y038855D01*
X048075Y038842D01*
X048075Y038828D01*
X048071Y038815D01*
X048064Y038803D01*
X048054Y038794D01*
X048042Y038788D01*
X048028Y038785D01*
X048015Y038786D01*
X048002Y038791D01*
X047991Y038798D01*
X047982Y038809D01*
X047977Y038822D01*
X047975Y038835D01*
X049849Y041425D02*
X049851Y041443D01*
X049856Y041460D01*
X049865Y041476D01*
X049877Y041489D01*
X049892Y041499D01*
X049908Y041507D01*
X049926Y041511D01*
X049944Y041511D01*
X049962Y041507D01*
X049978Y041499D01*
X049993Y041489D01*
X050005Y041476D01*
X050014Y041460D01*
X050019Y041443D01*
X050021Y041425D01*
X050019Y041407D01*
X050014Y041390D01*
X050005Y041374D01*
X049993Y041361D01*
X049978Y041351D01*
X049962Y041343D01*
X049944Y041339D01*
X049926Y041339D01*
X049908Y041343D01*
X049892Y041351D01*
X049877Y041361D01*
X049865Y041374D01*
X049856Y041390D01*
X049851Y041407D01*
X049849Y041425D01*
X049925Y041425D02*
X049927Y041430D01*
X049931Y041434D01*
X049936Y041435D01*
X049942Y041433D01*
X049945Y041428D01*
X049945Y041422D01*
X049942Y041417D01*
X049936Y041415D01*
X049931Y041416D01*
X049927Y041420D01*
X049925Y041425D01*
X049885Y041425D02*
X049887Y041438D01*
X049892Y041451D01*
X049901Y041462D01*
X049912Y041469D01*
X049925Y041474D01*
X049938Y041475D01*
X049952Y041472D01*
X049964Y041466D01*
X049974Y041457D01*
X049981Y041445D01*
X049985Y041432D01*
X049985Y041418D01*
X049981Y041405D01*
X049974Y041393D01*
X049964Y041384D01*
X049952Y041378D01*
X049938Y041375D01*
X049925Y041376D01*
X049912Y041381D01*
X049901Y041388D01*
X049892Y041399D01*
X049887Y041412D01*
X049885Y041425D01*
X048899Y042895D02*
X048901Y042913D01*
X048906Y042930D01*
X048915Y042946D01*
X048927Y042959D01*
X048942Y042969D01*
X048958Y042977D01*
X048976Y042981D01*
X048994Y042981D01*
X049012Y042977D01*
X049028Y042969D01*
X049043Y042959D01*
X049055Y042946D01*
X049064Y042930D01*
X049069Y042913D01*
X049071Y042895D01*
X049069Y042877D01*
X049064Y042860D01*
X049055Y042844D01*
X049043Y042831D01*
X049028Y042821D01*
X049012Y042813D01*
X048994Y042809D01*
X048976Y042809D01*
X048958Y042813D01*
X048942Y042821D01*
X048927Y042831D01*
X048915Y042844D01*
X048906Y042860D01*
X048901Y042877D01*
X048899Y042895D01*
X048975Y042895D02*
X048977Y042900D01*
X048981Y042904D01*
X048986Y042905D01*
X048992Y042903D01*
X048995Y042898D01*
X048995Y042892D01*
X048992Y042887D01*
X048986Y042885D01*
X048981Y042886D01*
X048977Y042890D01*
X048975Y042895D01*
X048935Y042895D02*
X048937Y042908D01*
X048942Y042921D01*
X048951Y042932D01*
X048962Y042939D01*
X048975Y042944D01*
X048988Y042945D01*
X049002Y042942D01*
X049014Y042936D01*
X049024Y042927D01*
X049031Y042915D01*
X049035Y042902D01*
X049035Y042888D01*
X049031Y042875D01*
X049024Y042863D01*
X049014Y042854D01*
X049002Y042848D01*
X048988Y042845D01*
X048975Y042846D01*
X048962Y042851D01*
X048951Y042858D01*
X048942Y042869D01*
X048937Y042882D01*
X048935Y042895D01*
X049229Y044855D02*
X049231Y044873D01*
X049236Y044890D01*
X049245Y044906D01*
X049257Y044919D01*
X049272Y044929D01*
X049288Y044937D01*
X049306Y044941D01*
X049324Y044941D01*
X049342Y044937D01*
X049358Y044929D01*
X049373Y044919D01*
X049385Y044906D01*
X049394Y044890D01*
X049399Y044873D01*
X049401Y044855D01*
X049399Y044837D01*
X049394Y044820D01*
X049385Y044804D01*
X049373Y044791D01*
X049358Y044781D01*
X049342Y044773D01*
X049324Y044769D01*
X049306Y044769D01*
X049288Y044773D01*
X049272Y044781D01*
X049257Y044791D01*
X049245Y044804D01*
X049236Y044820D01*
X049231Y044837D01*
X049229Y044855D01*
X049305Y044855D02*
X049307Y044860D01*
X049311Y044864D01*
X049316Y044865D01*
X049322Y044863D01*
X049325Y044858D01*
X049325Y044852D01*
X049322Y044847D01*
X049316Y044845D01*
X049311Y044846D01*
X049307Y044850D01*
X049305Y044855D01*
X049265Y044855D02*
X049267Y044868D01*
X049272Y044881D01*
X049281Y044892D01*
X049292Y044899D01*
X049305Y044904D01*
X049318Y044905D01*
X049332Y044902D01*
X049344Y044896D01*
X049354Y044887D01*
X049361Y044875D01*
X049365Y044862D01*
X049365Y044848D01*
X049361Y044835D01*
X049354Y044823D01*
X049344Y044814D01*
X049332Y044808D01*
X049318Y044805D01*
X049305Y044806D01*
X049292Y044811D01*
X049281Y044818D01*
X049272Y044829D01*
X049267Y044842D01*
X049265Y044855D01*
X051269Y032845D02*
X051271Y032863D01*
X051276Y032880D01*
X051285Y032896D01*
X051297Y032909D01*
X051312Y032919D01*
X051328Y032927D01*
X051346Y032931D01*
X051364Y032931D01*
X051382Y032927D01*
X051398Y032919D01*
X051413Y032909D01*
X051425Y032896D01*
X051434Y032880D01*
X051439Y032863D01*
X051441Y032845D01*
X051439Y032827D01*
X051434Y032810D01*
X051425Y032794D01*
X051413Y032781D01*
X051398Y032771D01*
X051382Y032763D01*
X051364Y032759D01*
X051346Y032759D01*
X051328Y032763D01*
X051312Y032771D01*
X051297Y032781D01*
X051285Y032794D01*
X051276Y032810D01*
X051271Y032827D01*
X051269Y032845D01*
X051345Y032845D02*
X051347Y032850D01*
X051351Y032854D01*
X051356Y032855D01*
X051362Y032853D01*
X051365Y032848D01*
X051365Y032842D01*
X051362Y032837D01*
X051356Y032835D01*
X051351Y032836D01*
X051347Y032840D01*
X051345Y032845D01*
X051305Y032845D02*
X051307Y032858D01*
X051312Y032871D01*
X051321Y032882D01*
X051332Y032889D01*
X051345Y032894D01*
X051358Y032895D01*
X051372Y032892D01*
X051384Y032886D01*
X051394Y032877D01*
X051401Y032865D01*
X051405Y032852D01*
X051405Y032838D01*
X051401Y032825D01*
X051394Y032813D01*
X051384Y032804D01*
X051372Y032798D01*
X051358Y032795D01*
X051345Y032796D01*
X051332Y032801D01*
X051321Y032808D01*
X051312Y032819D01*
X051307Y032832D01*
X051305Y032845D01*
X031914Y041435D02*
X031916Y041453D01*
X031921Y041470D01*
X031930Y041486D01*
X031942Y041499D01*
X031957Y041509D01*
X031973Y041517D01*
X031991Y041521D01*
X032009Y041521D01*
X032027Y041517D01*
X032043Y041509D01*
X032058Y041499D01*
X032070Y041486D01*
X032079Y041470D01*
X032084Y041453D01*
X032086Y041435D01*
X032084Y041417D01*
X032079Y041400D01*
X032070Y041384D01*
X032058Y041371D01*
X032043Y041361D01*
X032027Y041353D01*
X032009Y041349D01*
X031991Y041349D01*
X031973Y041353D01*
X031957Y041361D01*
X031942Y041371D01*
X031930Y041384D01*
X031921Y041400D01*
X031916Y041417D01*
X031914Y041435D01*
X031990Y041435D02*
X031992Y041440D01*
X031996Y041444D01*
X032001Y041445D01*
X032007Y041443D01*
X032010Y041438D01*
X032010Y041432D01*
X032007Y041427D01*
X032001Y041425D01*
X031996Y041426D01*
X031992Y041430D01*
X031990Y041435D01*
X031950Y041435D02*
X031952Y041448D01*
X031957Y041461D01*
X031966Y041472D01*
X031977Y041479D01*
X031990Y041484D01*
X032003Y041485D01*
X032017Y041482D01*
X032029Y041476D01*
X032039Y041467D01*
X032046Y041455D01*
X032050Y041442D01*
X032050Y041428D01*
X032046Y041415D01*
X032039Y041403D01*
X032029Y041394D01*
X032017Y041388D01*
X032003Y041385D01*
X031990Y041386D01*
X031977Y041391D01*
X031966Y041398D01*
X031957Y041409D01*
X031952Y041422D01*
X031950Y041435D01*
X029999Y040035D02*
X030001Y040053D01*
X030006Y040070D01*
X030015Y040086D01*
X030027Y040099D01*
X030042Y040109D01*
X030058Y040117D01*
X030076Y040121D01*
X030094Y040121D01*
X030112Y040117D01*
X030128Y040109D01*
X030143Y040099D01*
X030155Y040086D01*
X030164Y040070D01*
X030169Y040053D01*
X030171Y040035D01*
X030169Y040017D01*
X030164Y040000D01*
X030155Y039984D01*
X030143Y039971D01*
X030128Y039961D01*
X030112Y039953D01*
X030094Y039949D01*
X030076Y039949D01*
X030058Y039953D01*
X030042Y039961D01*
X030027Y039971D01*
X030015Y039984D01*
X030006Y040000D01*
X030001Y040017D01*
X029999Y040035D01*
X030075Y040035D02*
X030077Y040040D01*
X030081Y040044D01*
X030086Y040045D01*
X030092Y040043D01*
X030095Y040038D01*
X030095Y040032D01*
X030092Y040027D01*
X030086Y040025D01*
X030081Y040026D01*
X030077Y040030D01*
X030075Y040035D01*
X030035Y040035D02*
X030037Y040048D01*
X030042Y040061D01*
X030051Y040072D01*
X030062Y040079D01*
X030075Y040084D01*
X030088Y040085D01*
X030102Y040082D01*
X030114Y040076D01*
X030124Y040067D01*
X030131Y040055D01*
X030135Y040042D01*
X030135Y040028D01*
X030131Y040015D01*
X030124Y040003D01*
X030114Y039994D01*
X030102Y039988D01*
X030088Y039985D01*
X030075Y039986D01*
X030062Y039991D01*
X030051Y039998D01*
X030042Y040009D01*
X030037Y040022D01*
X030035Y040035D01*
X030149Y043285D02*
X030151Y043303D01*
X030156Y043320D01*
X030165Y043336D01*
X030177Y043349D01*
X030192Y043359D01*
X030208Y043367D01*
X030226Y043371D01*
X030244Y043371D01*
X030262Y043367D01*
X030278Y043359D01*
X030293Y043349D01*
X030305Y043336D01*
X030314Y043320D01*
X030319Y043303D01*
X030321Y043285D01*
X030319Y043267D01*
X030314Y043250D01*
X030305Y043234D01*
X030293Y043221D01*
X030278Y043211D01*
X030262Y043203D01*
X030244Y043199D01*
X030226Y043199D01*
X030208Y043203D01*
X030192Y043211D01*
X030177Y043221D01*
X030165Y043234D01*
X030156Y043250D01*
X030151Y043267D01*
X030149Y043285D01*
X030225Y043285D02*
X030227Y043290D01*
X030231Y043294D01*
X030236Y043295D01*
X030242Y043293D01*
X030245Y043288D01*
X030245Y043282D01*
X030242Y043277D01*
X030236Y043275D01*
X030231Y043276D01*
X030227Y043280D01*
X030225Y043285D01*
X030185Y043285D02*
X030187Y043298D01*
X030192Y043311D01*
X030201Y043322D01*
X030212Y043329D01*
X030225Y043334D01*
X030238Y043335D01*
X030252Y043332D01*
X030264Y043326D01*
X030274Y043317D01*
X030281Y043305D01*
X030285Y043292D01*
X030285Y043278D01*
X030281Y043265D01*
X030274Y043253D01*
X030264Y043244D01*
X030252Y043238D01*
X030238Y043235D01*
X030225Y043236D01*
X030212Y043241D01*
X030201Y043248D01*
X030192Y043259D01*
X030187Y043272D01*
X030185Y043285D01*
X030849Y045435D02*
X030851Y045453D01*
X030856Y045470D01*
X030865Y045486D01*
X030877Y045499D01*
X030892Y045509D01*
X030908Y045517D01*
X030926Y045521D01*
X030944Y045521D01*
X030962Y045517D01*
X030978Y045509D01*
X030993Y045499D01*
X031005Y045486D01*
X031014Y045470D01*
X031019Y045453D01*
X031021Y045435D01*
X031019Y045417D01*
X031014Y045400D01*
X031005Y045384D01*
X030993Y045371D01*
X030978Y045361D01*
X030962Y045353D01*
X030944Y045349D01*
X030926Y045349D01*
X030908Y045353D01*
X030892Y045361D01*
X030877Y045371D01*
X030865Y045384D01*
X030856Y045400D01*
X030851Y045417D01*
X030849Y045435D01*
X030925Y045435D02*
X030927Y045440D01*
X030931Y045444D01*
X030936Y045445D01*
X030942Y045443D01*
X030945Y045438D01*
X030945Y045432D01*
X030942Y045427D01*
X030936Y045425D01*
X030931Y045426D01*
X030927Y045430D01*
X030925Y045435D01*
X030885Y045435D02*
X030887Y045448D01*
X030892Y045461D01*
X030901Y045472D01*
X030912Y045479D01*
X030925Y045484D01*
X030938Y045485D01*
X030952Y045482D01*
X030964Y045476D01*
X030974Y045467D01*
X030981Y045455D01*
X030985Y045442D01*
X030985Y045428D01*
X030981Y045415D01*
X030974Y045403D01*
X030964Y045394D01*
X030952Y045388D01*
X030938Y045385D01*
X030925Y045386D01*
X030912Y045391D01*
X030901Y045398D01*
X030892Y045409D01*
X030887Y045422D01*
X030885Y045435D01*
D11*
X012349Y010779D02*
X012615Y010512D01*
X012615Y010445D01*
X012809Y010512D02*
X012876Y010445D01*
X013009Y010445D01*
X013076Y010512D01*
X013076Y010578D01*
X013009Y010645D01*
X012876Y010645D01*
X012809Y010578D01*
X012809Y010512D01*
X012876Y010645D02*
X012809Y010712D01*
X012809Y010779D01*
X012876Y010845D01*
X013009Y010845D01*
X013076Y010779D01*
X013076Y010712D01*
X013009Y010645D01*
X013269Y010512D02*
X013336Y010445D01*
X013469Y010445D01*
X013536Y010512D01*
X013536Y010779D01*
X013469Y010845D01*
X013336Y010845D01*
X013269Y010779D01*
X012615Y010845D02*
X012349Y010845D01*
X012349Y010779D01*
X013462Y009528D02*
X013729Y009528D01*
X013795Y009461D01*
X013795Y009328D01*
X013729Y009261D01*
X013662Y009261D01*
X013595Y009328D01*
X013595Y009528D01*
X013462Y009528D02*
X013395Y009461D01*
X013395Y009328D01*
X013462Y009261D01*
X013462Y009067D02*
X013395Y009001D01*
X013395Y008867D01*
X013462Y008800D01*
X013528Y008800D01*
X013595Y008867D01*
X013595Y009001D01*
X013528Y009067D01*
X013462Y009067D01*
X013595Y009001D02*
X013662Y009067D01*
X013729Y009067D01*
X013795Y009001D01*
X013795Y008867D01*
X013729Y008800D01*
X013662Y008800D01*
X013595Y008867D01*
X013462Y008607D02*
X013395Y008540D01*
X013395Y008407D01*
X013462Y008340D01*
X013729Y008340D01*
X013795Y008407D01*
X013795Y008540D01*
X013729Y008607D01*
X013668Y012765D02*
X013535Y012765D01*
X013468Y012832D01*
X013275Y012832D02*
X013275Y012898D01*
X013208Y012965D01*
X013074Y012965D01*
X013008Y012898D01*
X013008Y012832D01*
X013074Y012765D01*
X013208Y012765D01*
X013275Y012832D01*
X013208Y012965D02*
X013275Y013032D01*
X013275Y013099D01*
X013208Y013165D01*
X013074Y013165D01*
X013008Y013099D01*
X013008Y013032D01*
X013074Y012965D01*
X012814Y012965D02*
X012814Y013165D01*
X012547Y013165D01*
X012614Y013032D02*
X012547Y012965D01*
X012547Y012832D01*
X012614Y012765D01*
X012747Y012765D01*
X012814Y012832D01*
X012814Y012965D02*
X012681Y013032D01*
X012614Y013032D01*
X013468Y013099D02*
X013535Y013165D01*
X013668Y013165D01*
X013735Y013099D01*
X013735Y012832D01*
X013668Y012765D01*
X013627Y014245D02*
X013627Y014645D01*
X013760Y014512D01*
X013760Y014245D02*
X013494Y014245D01*
X013954Y014245D02*
X014221Y014245D01*
X014087Y014245D02*
X014087Y014645D01*
X014221Y014512D01*
X014414Y014645D02*
X014681Y014645D01*
X014681Y014245D01*
X014681Y014445D02*
X014548Y014445D01*
X012485Y015631D02*
X012419Y015564D01*
X012152Y015564D01*
X012085Y015631D01*
X012085Y015764D01*
X012152Y015831D01*
X012152Y016024D02*
X012218Y016024D01*
X012285Y016091D01*
X012285Y016224D01*
X012218Y016291D01*
X012152Y016291D01*
X012085Y016224D01*
X012085Y016091D01*
X012152Y016024D01*
X012285Y016091D02*
X012352Y016024D01*
X012419Y016024D01*
X012485Y016091D01*
X012485Y016224D01*
X012419Y016291D01*
X012352Y016291D01*
X012285Y016224D01*
X012152Y016485D02*
X012085Y016551D01*
X012085Y016685D01*
X012152Y016751D01*
X012218Y016751D01*
X012285Y016685D01*
X012285Y016618D01*
X012285Y016685D02*
X012352Y016751D01*
X012419Y016751D01*
X012485Y016685D01*
X012485Y016551D01*
X012419Y016485D01*
X012419Y015831D02*
X012485Y015764D01*
X012485Y015631D01*
X012249Y018334D02*
X011982Y018334D01*
X011915Y018401D01*
X011915Y018534D01*
X011982Y018601D01*
X011982Y018794D02*
X012048Y018794D01*
X012115Y018861D01*
X012115Y018994D01*
X012048Y019061D01*
X011982Y019061D01*
X011915Y018994D01*
X011915Y018861D01*
X011982Y018794D01*
X012115Y018861D02*
X012182Y018794D01*
X012249Y018794D01*
X012315Y018861D01*
X012315Y018994D01*
X012249Y019061D01*
X012182Y019061D01*
X012115Y018994D01*
X012182Y019255D02*
X012315Y019388D01*
X011915Y019388D01*
X011915Y019255D02*
X011915Y019521D01*
X012249Y018601D02*
X012315Y018534D01*
X012315Y018401D01*
X012249Y018334D01*
X013690Y021285D02*
X013623Y021352D01*
X013623Y021619D01*
X013690Y021685D01*
X013824Y021685D01*
X013890Y021619D01*
X013890Y021552D01*
X013824Y021485D01*
X013623Y021485D01*
X013690Y021285D02*
X013824Y021285D01*
X013890Y021352D01*
X014217Y021485D02*
X014351Y021485D01*
X014351Y021285D02*
X014351Y021685D01*
X014084Y021685D01*
X013155Y022511D02*
X013089Y022444D01*
X012822Y022444D01*
X012755Y022511D01*
X012755Y022644D01*
X012822Y022711D01*
X012822Y022904D02*
X012755Y022904D01*
X012822Y022904D02*
X013089Y023171D01*
X013155Y023171D01*
X013155Y022904D01*
X013089Y022711D02*
X013155Y022644D01*
X013155Y022511D01*
X013089Y023365D02*
X013022Y023365D01*
X012955Y023431D01*
X012955Y023631D01*
X012822Y023631D02*
X013089Y023631D01*
X013155Y023565D01*
X013155Y023431D01*
X013089Y023365D01*
X012822Y023365D02*
X012755Y023431D01*
X012755Y023565D01*
X012822Y023631D01*
X011039Y026104D02*
X010772Y026104D01*
X010705Y026171D01*
X010705Y026304D01*
X010772Y026371D01*
X010772Y026564D02*
X010705Y026564D01*
X010772Y026564D02*
X011039Y026831D01*
X011105Y026831D01*
X011105Y026564D01*
X011039Y026371D02*
X011105Y026304D01*
X011105Y026171D01*
X011039Y026104D01*
X011105Y027025D02*
X010905Y027025D01*
X010972Y027158D01*
X010972Y027225D01*
X010905Y027291D01*
X010772Y027291D01*
X010705Y027225D01*
X010705Y027091D01*
X010772Y027025D01*
X011105Y027025D02*
X011105Y027291D01*
X011199Y029265D02*
X010932Y029265D01*
X010865Y029332D01*
X010865Y029465D01*
X010932Y029532D01*
X010932Y029725D02*
X010865Y029725D01*
X010932Y029725D02*
X011199Y029992D01*
X011265Y029992D01*
X011265Y029725D01*
X011199Y029532D02*
X011265Y029465D01*
X011265Y029332D01*
X011199Y029265D01*
X011265Y030186D02*
X011265Y030453D01*
X011199Y030453D01*
X010932Y030186D01*
X010865Y030186D01*
X012402Y031794D02*
X012335Y031861D01*
X012335Y031994D01*
X012402Y032061D01*
X012402Y032254D02*
X012335Y032254D01*
X012402Y032254D02*
X012669Y032521D01*
X012735Y032521D01*
X012735Y032254D01*
X012669Y032061D02*
X012735Y031994D01*
X012735Y031861D01*
X012669Y031794D01*
X012402Y031794D01*
X012402Y032715D02*
X012335Y032781D01*
X012335Y032915D01*
X012402Y032981D01*
X012468Y032981D01*
X012535Y032915D01*
X012535Y032848D01*
X012535Y032915D02*
X012602Y032981D01*
X012669Y032981D01*
X012735Y032915D01*
X012735Y032781D01*
X012669Y032715D01*
X014835Y032744D02*
X014835Y033011D01*
X014835Y032878D02*
X015235Y032878D01*
X015102Y032744D01*
X015102Y032551D02*
X015169Y032551D01*
X015235Y032484D01*
X015235Y032351D01*
X015169Y032284D01*
X015169Y032090D02*
X015035Y032090D01*
X014968Y032024D01*
X014968Y031823D01*
X014835Y031823D02*
X015235Y031823D01*
X015235Y032024D01*
X015169Y032090D01*
X014968Y031957D02*
X014835Y032090D01*
X014835Y032284D02*
X015102Y032551D01*
X014835Y032551D02*
X014835Y032284D01*
X015184Y031611D02*
X014917Y031345D01*
X014850Y031345D01*
X014850Y031151D02*
X014850Y030884D01*
X014850Y031018D02*
X015250Y031018D01*
X015117Y030884D01*
X015117Y030691D02*
X015184Y030691D01*
X015250Y030624D01*
X015250Y030491D01*
X015184Y030424D01*
X015184Y030230D02*
X015050Y030230D01*
X014983Y030164D01*
X014983Y029963D01*
X014850Y029963D02*
X015250Y029963D01*
X015250Y030164D01*
X015184Y030230D01*
X014983Y030097D02*
X014850Y030230D01*
X014850Y030424D02*
X015117Y030691D01*
X014850Y030691D02*
X014850Y030424D01*
X015250Y031345D02*
X015250Y031611D01*
X015184Y031611D01*
X016207Y030291D02*
X016140Y030225D01*
X016140Y030091D01*
X016207Y030025D01*
X016474Y030291D01*
X016207Y030291D01*
X016207Y030025D02*
X016474Y030025D01*
X016540Y030091D01*
X016540Y030225D01*
X016474Y030291D01*
X016474Y029831D02*
X016540Y029764D01*
X016540Y029631D01*
X016474Y029564D01*
X016407Y029564D01*
X016340Y029631D01*
X016340Y029831D01*
X016207Y029831D02*
X016474Y029831D01*
X016207Y029831D02*
X016140Y029764D01*
X016140Y029631D01*
X016207Y029564D01*
X016207Y029371D02*
X016140Y029304D01*
X016140Y029171D01*
X016207Y029104D01*
X016474Y029104D01*
X016540Y029171D01*
X016540Y029304D01*
X016474Y029371D01*
X014340Y028635D02*
X014340Y028235D01*
X014340Y028435D02*
X014207Y028435D01*
X014340Y028635D02*
X014073Y028635D01*
X013880Y028635D02*
X013613Y028635D01*
X013613Y028569D01*
X013880Y028302D01*
X013880Y028235D01*
X014902Y033205D02*
X014835Y033271D01*
X014835Y033405D01*
X014902Y033471D01*
X014968Y033471D01*
X015035Y033405D01*
X015035Y033205D01*
X014902Y033205D01*
X015035Y033205D02*
X015169Y033338D01*
X015235Y033471D01*
X014350Y035015D02*
X014350Y035415D01*
X014083Y035415D01*
X013890Y035415D02*
X013890Y035215D01*
X013756Y035282D01*
X013689Y035282D01*
X013623Y035215D01*
X013623Y035082D01*
X013689Y035015D01*
X013823Y035015D01*
X013890Y035082D01*
X013890Y035415D02*
X013623Y035415D01*
X014217Y035215D02*
X014350Y035215D01*
X012945Y035451D02*
X012879Y035384D01*
X012612Y035384D01*
X012545Y035451D01*
X012545Y035584D01*
X012612Y035651D01*
X012612Y035844D02*
X012545Y035844D01*
X012612Y035844D02*
X012879Y036111D01*
X012945Y036111D01*
X012945Y035844D01*
X012879Y035651D02*
X012945Y035584D01*
X012945Y035451D01*
X012812Y036305D02*
X012945Y036438D01*
X012545Y036438D01*
X012545Y036305D02*
X012545Y036571D01*
X011479Y038934D02*
X011212Y038934D01*
X011145Y039001D01*
X011145Y039134D01*
X011212Y039201D01*
X011212Y039394D02*
X011145Y039461D01*
X011145Y039594D01*
X011212Y039661D01*
X011278Y039661D01*
X011345Y039594D01*
X011345Y039394D01*
X011212Y039394D01*
X011345Y039394D02*
X011479Y039528D01*
X011545Y039661D01*
X011479Y039855D02*
X011412Y039855D01*
X011345Y039921D01*
X011345Y040121D01*
X011212Y040121D02*
X011479Y040121D01*
X011545Y040055D01*
X011545Y039921D01*
X011479Y039855D01*
X011212Y039855D02*
X011145Y039921D01*
X011145Y040055D01*
X011212Y040121D01*
X011479Y039201D02*
X011545Y039134D01*
X011545Y039001D01*
X011479Y038934D01*
X013724Y041735D02*
X013858Y041735D01*
X013925Y041802D01*
X013791Y041935D02*
X013724Y041935D01*
X013658Y041868D01*
X013658Y041802D01*
X013724Y041735D01*
X013724Y041935D02*
X013658Y042002D01*
X013658Y042069D01*
X013724Y042135D01*
X013858Y042135D01*
X013925Y042069D01*
X014118Y042135D02*
X014385Y042135D01*
X014385Y041735D01*
X014385Y041935D02*
X014252Y041935D01*
X012425Y042742D02*
X012358Y042675D01*
X012225Y042675D01*
X012158Y042742D01*
X011965Y042742D02*
X011898Y042675D01*
X011764Y042675D01*
X011698Y042742D01*
X011698Y042808D01*
X011764Y042875D01*
X011965Y042875D01*
X011965Y042742D01*
X011965Y042875D02*
X011831Y043009D01*
X011698Y043075D01*
X011504Y042875D02*
X011304Y042875D01*
X011237Y042808D01*
X011237Y042742D01*
X011304Y042675D01*
X011437Y042675D01*
X011504Y042742D01*
X011504Y042875D01*
X011371Y043009D01*
X011237Y043075D01*
X012158Y043009D02*
X012225Y043075D01*
X012358Y043075D01*
X012425Y043009D01*
X012425Y042742D01*
X012784Y043865D02*
X012917Y043865D01*
X012984Y043932D01*
X012984Y044065D02*
X012851Y044132D01*
X012784Y044132D01*
X012717Y044065D01*
X012717Y043932D01*
X012784Y043865D01*
X012984Y044065D02*
X012984Y044265D01*
X012717Y044265D01*
X013178Y044265D02*
X013311Y044199D01*
X013445Y044065D01*
X013244Y044065D01*
X013178Y043998D01*
X013178Y043932D01*
X013244Y043865D01*
X013378Y043865D01*
X013445Y043932D01*
X013445Y044065D01*
X013638Y043932D02*
X013705Y043865D01*
X013838Y043865D01*
X013905Y043932D01*
X013905Y044199D01*
X013838Y044265D01*
X013705Y044265D01*
X013638Y044199D01*
X028835Y036525D02*
X028902Y036591D01*
X029169Y036591D01*
X029235Y036525D01*
X029235Y036391D01*
X029169Y036325D01*
X029102Y036325D01*
X029035Y036391D01*
X029035Y036591D01*
X028835Y036525D02*
X028835Y036391D01*
X028902Y036325D01*
X028902Y036131D02*
X028835Y036064D01*
X028835Y035931D01*
X028902Y035864D01*
X029035Y035998D02*
X029035Y036064D01*
X028968Y036131D01*
X028902Y036131D01*
X029035Y036064D02*
X029102Y036131D01*
X029169Y036131D01*
X029235Y036064D01*
X029235Y035931D01*
X029169Y035864D01*
X029169Y035671D02*
X029235Y035604D01*
X029235Y035471D01*
X029169Y035404D01*
X028902Y035404D01*
X028835Y035471D01*
X028835Y035604D01*
X028902Y035671D01*
X030207Y034775D02*
X030207Y034709D01*
X030474Y034442D01*
X030474Y034375D01*
X030668Y034375D02*
X030935Y034375D01*
X030801Y034375D02*
X030801Y034775D01*
X030935Y034642D01*
X031128Y034775D02*
X031395Y034775D01*
X031395Y034375D01*
X031395Y034575D02*
X031262Y034575D01*
X030474Y034775D02*
X030207Y034775D01*
X028685Y033491D02*
X028685Y033225D01*
X028685Y033358D02*
X029085Y033358D01*
X028952Y033225D01*
X028885Y033031D02*
X028885Y032764D01*
X029085Y032964D01*
X028685Y032964D01*
X028752Y032571D02*
X028685Y032504D01*
X028685Y032371D01*
X028752Y032304D01*
X029019Y032304D01*
X029085Y032371D01*
X029085Y032504D01*
X029019Y032571D01*
X029052Y030371D02*
X028985Y030305D01*
X028985Y030171D01*
X029052Y030105D01*
X029185Y030105D02*
X029252Y030238D01*
X029252Y030305D01*
X029185Y030371D01*
X029052Y030371D01*
X029185Y030105D02*
X029385Y030105D01*
X029385Y030371D01*
X029185Y029911D02*
X029185Y029644D01*
X029385Y029844D01*
X028985Y029844D01*
X029052Y029451D02*
X028985Y029384D01*
X028985Y029251D01*
X029052Y029184D01*
X029319Y029184D01*
X029385Y029251D01*
X029385Y029384D01*
X029319Y029451D01*
X029219Y027441D02*
X029152Y027441D01*
X029085Y027375D01*
X029018Y027441D01*
X028952Y027441D01*
X028885Y027375D01*
X028885Y027241D01*
X028952Y027175D01*
X029085Y027308D02*
X029085Y027375D01*
X029219Y027441D02*
X029285Y027375D01*
X029285Y027241D01*
X029219Y027175D01*
X029085Y026981D02*
X029085Y026714D01*
X029285Y026914D01*
X028885Y026914D01*
X028952Y026521D02*
X028885Y026454D01*
X028885Y026321D01*
X028952Y026254D01*
X029219Y026254D01*
X029285Y026321D01*
X029285Y026454D01*
X029219Y026521D01*
X029769Y023091D02*
X029502Y022825D01*
X029435Y022825D01*
X029435Y022564D02*
X029835Y022564D01*
X029635Y022364D01*
X029635Y022631D01*
X029835Y022825D02*
X029835Y023091D01*
X029769Y023091D01*
X029769Y022171D02*
X029835Y022104D01*
X029835Y021971D01*
X029769Y021904D01*
X029502Y021904D01*
X029435Y021971D01*
X029435Y022104D01*
X029502Y022171D01*
X030281Y020985D02*
X030281Y020585D01*
X030414Y020585D02*
X030147Y020585D01*
X030414Y020852D02*
X030281Y020985D01*
X030608Y020919D02*
X030674Y020985D01*
X030808Y020985D01*
X030875Y020919D01*
X031068Y020985D02*
X031335Y020985D01*
X031335Y020585D01*
X031335Y020785D02*
X031202Y020785D01*
X030875Y020585D02*
X030608Y020852D01*
X030608Y020919D01*
X030608Y020585D02*
X030875Y020585D01*
X029919Y019191D02*
X029652Y019191D01*
X029585Y019125D01*
X029585Y018991D01*
X029652Y018925D01*
X029785Y018991D02*
X029785Y019191D01*
X029919Y019191D02*
X029985Y019125D01*
X029985Y018991D01*
X029919Y018925D01*
X029852Y018925D01*
X029785Y018991D01*
X029785Y018731D02*
X029785Y018464D01*
X029985Y018664D01*
X029585Y018664D01*
X029652Y018271D02*
X029585Y018204D01*
X029585Y018071D01*
X029652Y018004D01*
X029919Y018004D01*
X029985Y018071D01*
X029985Y018204D01*
X029919Y018271D01*
X030035Y015941D02*
X030035Y015675D01*
X030035Y015808D02*
X030435Y015808D01*
X030302Y015675D01*
X030235Y015481D02*
X030102Y015481D01*
X030035Y015414D01*
X030035Y015281D01*
X030102Y015214D01*
X030235Y015214D02*
X030302Y015348D01*
X030302Y015414D01*
X030235Y015481D01*
X030435Y015481D02*
X030435Y015214D01*
X030235Y015214D01*
X030102Y015021D02*
X030035Y014954D01*
X030035Y014821D01*
X030102Y014754D01*
X030369Y014754D01*
X030435Y014821D01*
X030435Y014954D01*
X030369Y015021D01*
X031297Y014719D02*
X031297Y014652D01*
X031364Y014585D01*
X031297Y014518D01*
X031297Y014452D01*
X031364Y014385D01*
X031497Y014385D01*
X031564Y014452D01*
X031431Y014585D02*
X031364Y014585D01*
X031297Y014719D02*
X031364Y014785D01*
X031497Y014785D01*
X031564Y014719D01*
X031758Y014719D02*
X031824Y014785D01*
X031958Y014785D01*
X032025Y014719D01*
X032218Y014785D02*
X032485Y014785D01*
X032485Y014385D01*
X032485Y014585D02*
X032352Y014585D01*
X032025Y014385D02*
X031758Y014652D01*
X031758Y014719D01*
X031758Y014385D02*
X032025Y014385D01*
X030519Y012541D02*
X030452Y012541D01*
X030385Y012475D01*
X030318Y012541D01*
X030252Y012541D01*
X030185Y012475D01*
X030185Y012341D01*
X030252Y012275D01*
X030385Y012408D02*
X030385Y012475D01*
X030519Y012541D02*
X030585Y012475D01*
X030585Y012341D01*
X030519Y012275D01*
X030585Y012081D02*
X030585Y011814D01*
X030385Y011814D01*
X030452Y011948D01*
X030452Y012014D01*
X030385Y012081D01*
X030252Y012081D01*
X030185Y012014D01*
X030185Y011881D01*
X030252Y011814D01*
X030252Y011621D02*
X030185Y011554D01*
X030185Y011421D01*
X030252Y011354D01*
X030519Y011354D01*
X030585Y011421D01*
X030585Y011554D01*
X030519Y011621D01*
X030939Y009955D02*
X031205Y009955D01*
X031205Y009755D01*
X031072Y009822D01*
X031005Y009822D01*
X030939Y009755D01*
X030939Y009622D01*
X031005Y009555D01*
X031139Y009555D01*
X031205Y009622D01*
X031399Y009622D02*
X031466Y009555D01*
X031599Y009555D01*
X031666Y009622D01*
X031666Y009755D02*
X031532Y009822D01*
X031466Y009822D01*
X031399Y009755D01*
X031399Y009622D01*
X031666Y009755D02*
X031666Y009955D01*
X031399Y009955D01*
X031859Y009889D02*
X031926Y009955D01*
X032059Y009955D01*
X032126Y009889D01*
X032126Y009622D01*
X032059Y009555D01*
X031926Y009555D01*
X031859Y009622D01*
X046760Y021526D02*
X046760Y021659D01*
X046827Y021726D01*
X046760Y021919D02*
X046760Y022186D01*
X046760Y022053D02*
X047160Y022053D01*
X047027Y021919D01*
X047094Y021726D02*
X047160Y021659D01*
X047160Y021526D01*
X047094Y021459D01*
X046827Y021459D01*
X046760Y021526D01*
X046760Y022380D02*
X046827Y022380D01*
X047094Y022646D01*
X047160Y022646D01*
X047160Y022380D01*
X049112Y021569D02*
X049112Y021502D01*
X049179Y021435D01*
X049112Y021368D01*
X049112Y021302D01*
X049179Y021235D01*
X049312Y021235D01*
X049379Y021302D01*
X049246Y021435D02*
X049179Y021435D01*
X049112Y021569D02*
X049179Y021635D01*
X049312Y021635D01*
X049379Y021569D01*
X049573Y021569D02*
X049573Y021502D01*
X049639Y021435D01*
X049573Y021368D01*
X049573Y021302D01*
X049639Y021235D01*
X049773Y021235D01*
X049840Y021302D01*
X049706Y021435D02*
X049639Y021435D01*
X049573Y021569D02*
X049639Y021635D01*
X049773Y021635D01*
X049840Y021569D01*
X050033Y021635D02*
X050300Y021635D01*
X050300Y021235D01*
X050300Y021435D02*
X050167Y021435D01*
X051836Y022996D02*
X052237Y022996D01*
X051836Y023263D01*
X052237Y023263D01*
X052237Y023456D02*
X052237Y023723D01*
X052237Y023590D02*
X051836Y023590D01*
X051903Y023917D02*
X051836Y023984D01*
X051836Y024117D01*
X051903Y024184D01*
X051836Y024377D02*
X051836Y024644D01*
X051836Y024511D02*
X052237Y024511D01*
X052103Y024377D01*
X052170Y024184D02*
X052237Y024117D01*
X052237Y023984D01*
X052170Y023917D01*
X051903Y023917D01*
X051836Y024838D02*
X051836Y025104D01*
X051836Y024971D02*
X052237Y024971D01*
X052103Y024838D01*
X050251Y028180D02*
X050251Y028580D01*
X049984Y028580D01*
X049791Y028514D02*
X049724Y028580D01*
X049591Y028580D01*
X049524Y028514D01*
X049524Y028447D01*
X049591Y028380D01*
X049524Y028313D01*
X049524Y028247D01*
X049591Y028180D01*
X049724Y028180D01*
X049791Y028247D01*
X049657Y028380D02*
X049591Y028380D01*
X049330Y028447D02*
X049197Y028580D01*
X049197Y028180D01*
X049330Y028180D02*
X049064Y028180D01*
X050118Y028380D02*
X050251Y028380D01*
X050482Y029264D02*
X050415Y029331D01*
X050415Y029464D01*
X050482Y029531D01*
X050482Y029724D02*
X050415Y029791D01*
X050415Y029924D01*
X050482Y029991D01*
X050548Y029991D01*
X050615Y029924D01*
X050615Y029858D01*
X050615Y029924D02*
X050682Y029991D01*
X050749Y029991D01*
X050815Y029924D01*
X050815Y029791D01*
X050749Y029724D01*
X050749Y029531D02*
X050815Y029464D01*
X050815Y029331D01*
X050749Y029264D01*
X050482Y029264D01*
X050482Y030185D02*
X050749Y030451D01*
X050482Y030451D01*
X050415Y030385D01*
X050415Y030251D01*
X050482Y030185D01*
X050749Y030185D01*
X050815Y030251D01*
X050815Y030385D01*
X050749Y030451D01*
X050850Y030709D02*
X050450Y030709D01*
X050583Y030709D02*
X050583Y030909D01*
X050650Y030976D01*
X050784Y030976D01*
X050850Y030909D01*
X050850Y030709D01*
X050583Y030842D02*
X050450Y030976D01*
X050450Y031169D02*
X050517Y031169D01*
X050784Y031436D01*
X050850Y031436D01*
X050850Y031169D01*
X050784Y031630D02*
X050850Y031696D01*
X050850Y031830D01*
X050784Y031896D01*
X050517Y031630D01*
X050450Y031696D01*
X050450Y031830D01*
X050517Y031896D01*
X050784Y031896D01*
X050784Y031630D02*
X050517Y031630D01*
X050518Y032335D02*
X050518Y032535D01*
X050585Y032602D01*
X050719Y032602D01*
X050785Y032535D01*
X050785Y032335D01*
X050385Y032335D01*
X050518Y032468D02*
X050385Y032602D01*
X050452Y032795D02*
X050385Y032862D01*
X050385Y032996D01*
X050452Y033062D01*
X050518Y033062D01*
X050585Y032996D01*
X050585Y032795D01*
X050452Y032795D01*
X050585Y032795D02*
X050719Y032929D01*
X050785Y033062D01*
X050719Y033256D02*
X050652Y033256D01*
X050585Y033323D01*
X050585Y033523D01*
X050452Y033523D02*
X050719Y033523D01*
X050785Y033456D01*
X050785Y033323D01*
X050719Y033256D01*
X050452Y033256D02*
X050385Y033323D01*
X050385Y033456D01*
X050452Y033523D01*
X050285Y035035D02*
X050285Y035435D01*
X050018Y035435D01*
X049825Y035369D02*
X049758Y035435D01*
X049624Y035435D01*
X049558Y035369D01*
X049558Y035302D01*
X049825Y035035D01*
X049558Y035035D01*
X049364Y035102D02*
X049297Y035035D01*
X049164Y035035D01*
X049097Y035102D01*
X049097Y035369D01*
X049164Y035435D01*
X049297Y035435D01*
X049364Y035369D01*
X049364Y035302D01*
X049297Y035235D01*
X049097Y035235D01*
X048879Y035504D02*
X048945Y035571D01*
X048945Y035704D01*
X048879Y035771D01*
X048879Y035965D02*
X048812Y035965D01*
X048745Y036031D01*
X048745Y036232D01*
X048612Y036232D02*
X048879Y036232D01*
X048945Y036165D01*
X048945Y036031D01*
X048879Y035965D01*
X048612Y035965D02*
X048545Y036031D01*
X048545Y036165D01*
X048612Y036232D01*
X048612Y035771D02*
X048545Y035704D01*
X048545Y035571D01*
X048612Y035504D01*
X048879Y035504D01*
X050152Y035235D02*
X050285Y035235D01*
X048525Y032881D02*
X048525Y032615D01*
X048525Y032748D02*
X048925Y032748D01*
X048792Y032615D01*
X048525Y032421D02*
X048525Y032154D01*
X048525Y032288D02*
X048925Y032288D01*
X048792Y032154D01*
X048859Y031961D02*
X048925Y031894D01*
X048925Y031761D01*
X048859Y031694D01*
X048592Y031694D01*
X048525Y031761D01*
X048525Y031894D01*
X048592Y031961D01*
X048562Y030956D02*
X048495Y030890D01*
X048495Y030756D01*
X048562Y030690D01*
X048695Y030690D02*
X048762Y030823D01*
X048762Y030890D01*
X048695Y030956D01*
X048562Y030956D01*
X048695Y030690D02*
X048895Y030690D01*
X048895Y030956D01*
X048895Y030363D02*
X048495Y030363D01*
X048495Y030496D02*
X048495Y030229D01*
X048562Y030036D02*
X048495Y029969D01*
X048495Y029836D01*
X048562Y029769D01*
X048829Y029769D01*
X048895Y029836D01*
X048895Y029969D01*
X048829Y030036D01*
X048762Y030229D02*
X048895Y030363D01*
X046329Y026601D02*
X046262Y026601D01*
X046195Y026535D01*
X046128Y026601D01*
X046062Y026601D01*
X045995Y026535D01*
X045995Y026401D01*
X046062Y026335D01*
X046195Y026468D02*
X046195Y026535D01*
X046329Y026601D02*
X046395Y026535D01*
X046395Y026401D01*
X046329Y026335D01*
X046395Y026008D02*
X045995Y026008D01*
X045995Y026141D02*
X045995Y025874D01*
X046062Y025681D02*
X045995Y025614D01*
X045995Y025481D01*
X046062Y025414D01*
X046329Y025414D01*
X046395Y025481D01*
X046395Y025614D01*
X046329Y025681D01*
X046262Y025874D02*
X046395Y026008D01*
X047272Y019081D02*
X047539Y019081D01*
X047605Y019015D01*
X047605Y018881D01*
X047539Y018815D01*
X047472Y018815D01*
X047405Y018881D01*
X047405Y019081D01*
X047272Y019081D02*
X047205Y019015D01*
X047205Y018881D01*
X047272Y018815D01*
X047205Y018621D02*
X047205Y018354D01*
X047205Y018488D02*
X047605Y018488D01*
X047472Y018354D01*
X047539Y018161D02*
X047605Y018094D01*
X047605Y017961D01*
X047539Y017894D01*
X047272Y017894D01*
X047205Y017961D01*
X047205Y018094D01*
X047272Y018161D01*
X047502Y016381D02*
X047435Y016315D01*
X047435Y016181D01*
X047502Y016115D01*
X047635Y016248D02*
X047635Y016315D01*
X047568Y016381D01*
X047502Y016381D01*
X047635Y016315D02*
X047702Y016381D01*
X047769Y016381D01*
X047835Y016315D01*
X047835Y016181D01*
X047769Y016115D01*
X047769Y015921D02*
X047835Y015854D01*
X047835Y015721D01*
X047769Y015654D01*
X047769Y015461D02*
X047835Y015394D01*
X047835Y015261D01*
X047769Y015194D01*
X047502Y015194D01*
X047435Y015261D01*
X047435Y015394D01*
X047502Y015461D01*
X047435Y015654D02*
X047702Y015921D01*
X047769Y015921D01*
X047435Y015921D02*
X047435Y015654D01*
X049027Y014595D02*
X049294Y014595D01*
X049294Y014395D01*
X049161Y014462D01*
X049094Y014462D01*
X049027Y014395D01*
X049027Y014262D01*
X049094Y014195D01*
X049227Y014195D01*
X049294Y014262D01*
X049488Y014262D02*
X049554Y014195D01*
X049688Y014195D01*
X049755Y014262D01*
X049621Y014395D02*
X049554Y014395D01*
X049488Y014328D01*
X049488Y014262D01*
X049554Y014395D02*
X049488Y014462D01*
X049488Y014529D01*
X049554Y014595D01*
X049688Y014595D01*
X049755Y014529D01*
X049948Y014595D02*
X050215Y014595D01*
X050215Y014195D01*
X050215Y014395D02*
X050082Y014395D01*
X048165Y012301D02*
X048165Y012035D01*
X047965Y012035D01*
X048032Y012168D01*
X048032Y012235D01*
X047965Y012301D01*
X047832Y012301D01*
X047765Y012235D01*
X047765Y012101D01*
X047832Y012035D01*
X047765Y011841D02*
X047765Y011574D01*
X048032Y011841D01*
X048099Y011841D01*
X048165Y011774D01*
X048165Y011641D01*
X048099Y011574D01*
X048099Y011381D02*
X048165Y011314D01*
X048165Y011181D01*
X048099Y011114D01*
X047832Y011114D01*
X047765Y011181D01*
X047765Y011314D01*
X047832Y011381D01*
X048699Y011069D02*
X048699Y010802D01*
X048765Y010735D01*
X048899Y010735D01*
X048965Y010802D01*
X048899Y010935D02*
X048965Y011002D01*
X048965Y011069D01*
X048899Y011135D01*
X048765Y011135D01*
X048699Y011069D01*
X048699Y010935D02*
X048899Y010935D01*
X049159Y011002D02*
X049159Y011069D01*
X049226Y011135D01*
X049359Y011135D01*
X049426Y011069D01*
X049619Y011069D02*
X049686Y011135D01*
X049819Y011135D01*
X049886Y011069D01*
X049886Y010802D01*
X049819Y010735D01*
X049686Y010735D01*
X049619Y010802D01*
X049426Y010735D02*
X049159Y011002D01*
X049159Y010735D02*
X049426Y010735D01*
X049358Y008600D02*
X049425Y008534D01*
X049358Y008600D02*
X049224Y008600D01*
X049158Y008534D01*
X049158Y008467D01*
X049425Y008200D01*
X049158Y008200D01*
X048964Y008200D02*
X048964Y008267D01*
X048697Y008534D01*
X048697Y008600D01*
X048964Y008600D01*
X049618Y008534D02*
X049685Y008600D01*
X049818Y008600D01*
X049885Y008534D01*
X049885Y008267D01*
X049818Y008200D01*
X049685Y008200D01*
X049618Y008267D01*
X033265Y027630D02*
X033265Y027897D01*
X033132Y028090D02*
X033265Y028224D01*
X032865Y028224D01*
X032865Y028357D02*
X032865Y028090D01*
X033065Y027763D02*
X033065Y027630D01*
X032865Y027630D02*
X033265Y027630D01*
X033199Y028551D02*
X033132Y028551D01*
X033065Y028618D01*
X033065Y028818D01*
X032932Y028818D02*
X033199Y028818D01*
X033265Y028751D01*
X033265Y028618D01*
X033199Y028551D01*
X032932Y028551D02*
X032865Y028618D01*
X032865Y028751D01*
X032932Y028818D01*
X033060Y030025D02*
X032660Y030025D01*
X032793Y030025D02*
X032793Y030225D01*
X032860Y030292D01*
X032994Y030292D01*
X033060Y030225D01*
X033060Y030025D01*
X032793Y030158D02*
X032660Y030292D01*
X032660Y030485D02*
X032660Y030752D01*
X032660Y030619D02*
X033060Y030619D01*
X032927Y030485D01*
X032860Y030946D02*
X032860Y031213D01*
X032660Y031146D02*
X033060Y031146D01*
X032860Y030946D01*
X032994Y031406D02*
X033060Y031473D01*
X033060Y031606D01*
X032994Y031673D01*
X032927Y031673D01*
X032660Y031406D01*
X032660Y031673D01*
X032625Y031923D02*
X033025Y031923D01*
X033025Y032124D01*
X032959Y032190D01*
X032825Y032190D01*
X032758Y032124D01*
X032758Y031923D01*
X032758Y032057D02*
X032625Y032190D01*
X032625Y032384D02*
X032625Y032651D01*
X032625Y032517D02*
X033025Y032517D01*
X032892Y032384D01*
X032825Y032844D02*
X032825Y033111D01*
X032892Y033305D02*
X033025Y033438D01*
X032625Y033438D01*
X032625Y033305D02*
X032625Y033571D01*
X032625Y033044D02*
X033025Y033044D01*
X032825Y032844D01*
X029669Y039454D02*
X029402Y039454D01*
X029335Y039521D01*
X029335Y039654D01*
X029402Y039721D01*
X029402Y039914D02*
X029335Y039981D01*
X029335Y040114D01*
X029402Y040181D01*
X029468Y040181D01*
X029535Y040114D01*
X029535Y040048D01*
X029535Y040114D02*
X029602Y040181D01*
X029669Y040181D01*
X029735Y040114D01*
X029735Y039981D01*
X029669Y039914D01*
X029669Y039721D02*
X029735Y039654D01*
X029735Y039521D01*
X029669Y039454D01*
X029735Y040375D02*
X029735Y040641D01*
X029669Y040641D01*
X029402Y040375D01*
X029335Y040375D01*
X031212Y042052D02*
X031279Y041985D01*
X031412Y041985D01*
X031479Y042052D01*
X031479Y042185D02*
X031346Y042252D01*
X031279Y042252D01*
X031212Y042185D01*
X031212Y042052D01*
X031479Y042185D02*
X031479Y042385D01*
X031212Y042385D01*
X031806Y042385D02*
X031806Y041985D01*
X031673Y041985D02*
X031940Y041985D01*
X031940Y042252D02*
X031806Y042385D01*
X032133Y042385D02*
X032400Y042385D01*
X032400Y041985D01*
X032400Y042185D02*
X032267Y042185D01*
X029935Y042721D02*
X029869Y042654D01*
X029602Y042654D01*
X029535Y042721D01*
X029535Y042854D01*
X029602Y042921D01*
X029602Y043114D02*
X029535Y043181D01*
X029535Y043314D01*
X029602Y043381D01*
X029668Y043381D01*
X029735Y043314D01*
X029735Y043248D01*
X029735Y043314D02*
X029802Y043381D01*
X029869Y043381D01*
X029935Y043314D01*
X029935Y043181D01*
X029869Y043114D01*
X029869Y042921D02*
X029935Y042854D01*
X029935Y042721D01*
X029735Y043575D02*
X029735Y043841D01*
X029535Y043775D02*
X029935Y043775D01*
X029735Y043575D01*
X030364Y045785D02*
X030297Y045852D01*
X030297Y045918D01*
X030364Y045985D01*
X030431Y045985D01*
X030364Y045985D02*
X030297Y046052D01*
X030297Y046119D01*
X030364Y046185D01*
X030497Y046185D01*
X030564Y046119D01*
X030758Y046119D02*
X030758Y046052D01*
X030824Y045985D01*
X030758Y045918D01*
X030758Y045852D01*
X030824Y045785D01*
X030958Y045785D01*
X031025Y045852D01*
X030891Y045985D02*
X030824Y045985D01*
X030758Y046119D02*
X030824Y046185D01*
X030958Y046185D01*
X031025Y046119D01*
X031218Y046119D02*
X031285Y046185D01*
X031418Y046185D01*
X031485Y046119D01*
X031485Y045852D01*
X031418Y045785D01*
X031285Y045785D01*
X031218Y045852D01*
X030564Y045852D02*
X030497Y045785D01*
X030364Y045785D01*
X048235Y043035D02*
X048635Y043035D01*
X048435Y042835D01*
X048435Y043102D01*
X048302Y042641D02*
X048235Y042574D01*
X048235Y042441D01*
X048302Y042374D01*
X048569Y042374D01*
X048635Y042441D01*
X048635Y042574D01*
X048569Y042641D01*
X049047Y042175D02*
X049047Y042109D01*
X049314Y041842D01*
X049314Y041775D01*
X049508Y041775D02*
X049775Y041775D01*
X049508Y042042D01*
X049508Y042109D01*
X049574Y042175D01*
X049708Y042175D01*
X049775Y042109D01*
X049968Y042175D02*
X050235Y042175D01*
X050235Y041775D01*
X050235Y041975D02*
X050102Y041975D01*
X049314Y042175D02*
X049047Y042175D01*
X049034Y043955D02*
X049168Y043955D01*
X049235Y044022D01*
X049101Y044155D02*
X049034Y044155D01*
X048968Y044088D01*
X048968Y044022D01*
X049034Y043955D01*
X049034Y044155D02*
X048968Y044222D01*
X048968Y044289D01*
X049034Y044355D01*
X049168Y044355D01*
X049235Y044289D01*
X049428Y044289D02*
X049495Y044355D01*
X049628Y044355D01*
X049695Y044289D01*
X049695Y044022D01*
X049628Y043955D01*
X049495Y043955D01*
X049428Y044022D01*
X048905Y039272D02*
X048839Y039272D01*
X048572Y039005D01*
X048505Y039005D01*
X048572Y038811D02*
X048505Y038744D01*
X048505Y038611D01*
X048572Y038544D01*
X048839Y038544D01*
X048905Y038611D01*
X048905Y038744D01*
X048839Y038811D01*
X048905Y039005D02*
X048905Y039272D01*
D12*
X051129Y031648D02*
X051129Y031412D01*
X051601Y031412D02*
X051601Y031648D01*
X051606Y030343D02*
X051606Y030107D01*
X051134Y030107D02*
X051134Y030343D01*
X033701Y030967D02*
X033701Y031203D01*
X033229Y031203D02*
X033229Y030967D01*
X016021Y030957D02*
X016021Y031193D01*
X015549Y031193D02*
X015549Y030957D01*
X015539Y029843D02*
X015539Y029607D01*
X016011Y029607D02*
X016011Y029843D01*
M02*
