G75*
%MOIN*%
%OFA0B0*%
%FSLAX24Y24*%
%IPPOS*%
%LPD*%
%AMOC8*
5,1,8,0,0,1.08239X$1,22.5*
%
%ADD10R,0.0600X0.0098*%
%ADD11R,0.0472X0.0315*%
%ADD12R,0.0315X0.0472*%
%ADD13R,0.0394X0.0433*%
%ADD14R,0.0433X0.0394*%
%ADD15R,0.0472X0.0472*%
%ADD16R,0.0354X0.0315*%
%ADD17R,0.0315X0.0354*%
%ADD18R,0.0295X0.0157*%
%ADD19R,0.0295X0.0197*%
%ADD20R,0.0450X0.0800*%
%ADD21R,0.0591X0.0787*%
%ADD22R,0.1496X0.0787*%
%ADD23R,0.0709X0.1260*%
D10*
X014388Y028871D03*
X014388Y029068D03*
X014388Y029265D03*
X014388Y029462D03*
X014388Y029659D03*
X014388Y029855D03*
X014388Y030052D03*
X014388Y030249D03*
X014388Y030446D03*
X014388Y030643D03*
X014388Y030840D03*
X014388Y031037D03*
X014388Y031233D03*
X014388Y031430D03*
X014388Y031627D03*
X014388Y031824D03*
X014388Y032021D03*
X014388Y032218D03*
X014388Y032415D03*
X014388Y032611D03*
X014388Y032808D03*
X014388Y033005D03*
X014388Y033202D03*
X014388Y033399D03*
X017082Y033399D03*
X017082Y033202D03*
X017082Y033005D03*
X017082Y032808D03*
X017082Y032611D03*
X017082Y032415D03*
X017082Y032218D03*
X017082Y032021D03*
X017082Y031824D03*
X017082Y031627D03*
X017082Y031430D03*
X017082Y031233D03*
X017082Y031037D03*
X017082Y030840D03*
X017082Y030643D03*
X017082Y030446D03*
X017082Y030249D03*
X017082Y030052D03*
X017082Y029855D03*
X017082Y029659D03*
X017082Y029462D03*
X017082Y029265D03*
X017082Y029068D03*
X017082Y028871D03*
X032088Y028821D03*
X032088Y029018D03*
X032088Y029215D03*
X032088Y029412D03*
X032088Y029609D03*
X032088Y029805D03*
X032088Y030002D03*
X032088Y030199D03*
X032088Y030396D03*
X032088Y030593D03*
X032088Y030790D03*
X032088Y030987D03*
X032088Y031183D03*
X032088Y031380D03*
X032088Y031577D03*
X032088Y031774D03*
X032088Y031971D03*
X032088Y032168D03*
X032088Y032365D03*
X032088Y032561D03*
X032088Y032758D03*
X032088Y032955D03*
X032088Y033152D03*
X032088Y033349D03*
X034782Y033349D03*
X034782Y033152D03*
X034782Y032955D03*
X034782Y032758D03*
X034782Y032561D03*
X034782Y032365D03*
X034782Y032168D03*
X034782Y031971D03*
X034782Y031774D03*
X034782Y031577D03*
X034782Y031380D03*
X034782Y031183D03*
X034782Y030987D03*
X034782Y030790D03*
X034782Y030593D03*
X034782Y030396D03*
X034782Y030199D03*
X034782Y030002D03*
X034782Y029805D03*
X034782Y029609D03*
X034782Y029412D03*
X034782Y029215D03*
X034782Y029018D03*
X034782Y028821D03*
X050028Y028871D03*
X050028Y029068D03*
X050028Y029265D03*
X050028Y029462D03*
X050028Y029659D03*
X050028Y029855D03*
X050028Y030052D03*
X050028Y030249D03*
X050028Y030446D03*
X050028Y030643D03*
X050028Y030840D03*
X050028Y031037D03*
X050028Y031233D03*
X050028Y031430D03*
X050028Y031627D03*
X050028Y031824D03*
X050028Y032021D03*
X050028Y032218D03*
X050028Y032415D03*
X050028Y032611D03*
X050028Y032808D03*
X050028Y033005D03*
X050028Y033202D03*
X050028Y033399D03*
X052722Y033399D03*
X052722Y033202D03*
X052722Y033005D03*
X052722Y032808D03*
X052722Y032611D03*
X052722Y032415D03*
X052722Y032218D03*
X052722Y032021D03*
X052722Y031824D03*
X052722Y031627D03*
X052722Y031430D03*
X052722Y031233D03*
X052722Y031037D03*
X052722Y030840D03*
X052722Y030643D03*
X052722Y030446D03*
X052722Y030249D03*
X052722Y030052D03*
X052722Y029855D03*
X052722Y029659D03*
X052722Y029462D03*
X052722Y029265D03*
X052722Y029068D03*
X052722Y028871D03*
D11*
X055265Y026634D03*
X055265Y025926D03*
X055280Y031146D03*
X056025Y031141D03*
X056025Y031849D03*
X055280Y031854D03*
X052125Y043021D03*
X052125Y043729D03*
X038190Y031309D03*
X037425Y031309D03*
X037425Y030601D03*
X038190Y030601D03*
X037135Y028714D03*
X037135Y028006D03*
X031785Y036931D03*
X031785Y037639D03*
X031785Y039581D03*
X031785Y040289D03*
X020555Y031559D03*
X020555Y030851D03*
X019775Y030851D03*
X019775Y031559D03*
X014275Y035341D03*
X014275Y036049D03*
X049785Y007439D03*
X049785Y006731D03*
X050585Y008231D03*
X050585Y008939D03*
D12*
X046939Y007885D03*
X046231Y007885D03*
X045931Y013835D03*
X046639Y013835D03*
X046539Y015635D03*
X045831Y015635D03*
X036749Y030515D03*
X036041Y030515D03*
X036011Y037595D03*
X036719Y037595D03*
X028489Y040635D03*
X027781Y040635D03*
X031081Y046235D03*
X031081Y046935D03*
X031789Y046935D03*
X031789Y046235D03*
X014969Y038725D03*
X014261Y038725D03*
X012029Y042185D03*
X011321Y042185D03*
X010489Y043045D03*
X009781Y043045D03*
X009641Y036315D03*
X010349Y036315D03*
X017301Y025935D03*
X018009Y025935D03*
X010349Y019785D03*
X009641Y019785D03*
X009641Y013095D03*
X010349Y013095D03*
X010411Y008665D03*
X010411Y007965D03*
X011119Y007965D03*
X011119Y008665D03*
X027731Y013985D03*
X028439Y013985D03*
X028489Y015585D03*
X027781Y015585D03*
X050441Y042425D03*
X051149Y042425D03*
D13*
X051355Y043060D03*
X051355Y043730D03*
X050415Y043760D03*
X050415Y043090D03*
X046835Y043390D03*
X046835Y044060D03*
X032485Y040320D03*
X032485Y039650D03*
X037885Y028730D03*
X037885Y028060D03*
X020275Y028040D03*
X020275Y028710D03*
X018675Y026650D03*
X018675Y025980D03*
X014275Y036610D03*
X014275Y037280D03*
X014325Y044450D03*
X014325Y045120D03*
X013465Y045120D03*
X013465Y044450D03*
X032735Y010470D03*
X032735Y009800D03*
X032735Y009120D03*
X032735Y008450D03*
X031785Y007470D03*
X031785Y006800D03*
X014905Y008390D03*
X014905Y009060D03*
X013895Y007430D03*
X013895Y006760D03*
X056035Y025940D03*
X056035Y026610D03*
X056005Y029060D03*
X056005Y029730D03*
D14*
X055980Y025205D03*
X055310Y025205D03*
X046720Y026785D03*
X046050Y026785D03*
X046050Y027635D03*
X046720Y027635D03*
X046620Y029335D03*
X045950Y029335D03*
X045950Y030185D03*
X046620Y030185D03*
X045970Y031085D03*
X045300Y031085D03*
X045800Y033235D03*
X046470Y033235D03*
X046470Y034135D03*
X045800Y034135D03*
X045800Y036135D03*
X046470Y036135D03*
X046470Y036985D03*
X045800Y036985D03*
X045870Y037985D03*
X045200Y037985D03*
X046900Y039835D03*
X047570Y039835D03*
X047570Y040685D03*
X046900Y040685D03*
X046900Y041905D03*
X047570Y041905D03*
X047570Y042715D03*
X046900Y042715D03*
X049010Y045925D03*
X049680Y045925D03*
X049690Y046765D03*
X049020Y046765D03*
X049120Y047805D03*
X049790Y047805D03*
X042170Y042035D03*
X041500Y042035D03*
X041550Y039085D03*
X042220Y039085D03*
X042220Y036035D03*
X041550Y036035D03*
X041550Y032935D03*
X042220Y032935D03*
X042220Y030085D03*
X041550Y030085D03*
X041550Y027085D03*
X042220Y027085D03*
X042370Y024185D03*
X041700Y024185D03*
X045200Y024185D03*
X045870Y024185D03*
X045750Y023285D03*
X046420Y023285D03*
X046420Y022435D03*
X045750Y022435D03*
X045800Y020735D03*
X045800Y019885D03*
X046470Y019885D03*
X046470Y020735D03*
X045970Y017285D03*
X045300Y017285D03*
X045835Y016435D03*
X046505Y016435D03*
X046620Y013085D03*
X045950Y013085D03*
X046200Y009425D03*
X046870Y009425D03*
X046920Y008585D03*
X046250Y008585D03*
X046350Y005145D03*
X047020Y005145D03*
X042250Y012405D03*
X041580Y012405D03*
X041550Y015435D03*
X042220Y015435D03*
X042220Y018305D03*
X041550Y018305D03*
X041600Y021285D03*
X042270Y021285D03*
X037820Y027385D03*
X037150Y027385D03*
X034910Y027025D03*
X034240Y027025D03*
X028320Y027285D03*
X027650Y027285D03*
X027650Y028085D03*
X028320Y028085D03*
X028320Y029435D03*
X027650Y029435D03*
X027650Y030285D03*
X028320Y030285D03*
X028070Y031085D03*
X027400Y031085D03*
X027850Y033735D03*
X028520Y033735D03*
X028520Y034705D03*
X027850Y034705D03*
X027800Y036135D03*
X028470Y036135D03*
X028470Y036935D03*
X027800Y036935D03*
X028020Y037985D03*
X027350Y037985D03*
X024270Y039145D03*
X023600Y039145D03*
X023550Y042055D03*
X024220Y042055D03*
X027800Y041385D03*
X028470Y041385D03*
X028420Y043135D03*
X027750Y043135D03*
X027750Y043985D03*
X028420Y043985D03*
X028170Y044835D03*
X027500Y044835D03*
X031070Y047805D03*
X031740Y047805D03*
X024220Y036095D03*
X023550Y036095D03*
X023540Y032975D03*
X024210Y032975D03*
X024220Y030055D03*
X023550Y030055D03*
X023500Y027165D03*
X024170Y027165D03*
X024170Y024235D03*
X023500Y024235D03*
X023450Y021285D03*
X024120Y021285D03*
X024170Y018295D03*
X023500Y018295D03*
X023550Y015385D03*
X024220Y015385D03*
X027750Y016385D03*
X028420Y016385D03*
X028170Y017185D03*
X027500Y017185D03*
X027750Y019885D03*
X028420Y019885D03*
X028420Y020685D03*
X027750Y020685D03*
X027750Y022485D03*
X028420Y022485D03*
X028420Y023345D03*
X027750Y023345D03*
X027500Y024185D03*
X028170Y024185D03*
X018670Y025145D03*
X018000Y025145D03*
X010245Y024180D03*
X009575Y024180D03*
X009590Y023355D03*
X010260Y023355D03*
X010260Y022525D03*
X009590Y022525D03*
X009660Y020605D03*
X010330Y020605D03*
X010280Y017290D03*
X009610Y017290D03*
X009590Y016425D03*
X010260Y016425D03*
X010260Y015565D03*
X009590Y015565D03*
X009690Y013875D03*
X010360Y013875D03*
X010400Y009430D03*
X011070Y009430D03*
X012140Y005485D03*
X012810Y005485D03*
X004240Y012445D03*
X003570Y012445D03*
X003570Y015385D03*
X004240Y015385D03*
X004240Y018325D03*
X003570Y018325D03*
X003570Y021335D03*
X004240Y021335D03*
X004240Y024275D03*
X003570Y024275D03*
X003570Y027145D03*
X004240Y027145D03*
X004240Y030085D03*
X003570Y030085D03*
X003570Y033025D03*
X004240Y033025D03*
X004170Y036075D03*
X003500Y036075D03*
X003500Y039085D03*
X004170Y039085D03*
X004060Y042015D03*
X003390Y042015D03*
X009780Y043905D03*
X010450Y043905D03*
X011410Y041345D03*
X012080Y041345D03*
X010680Y040015D03*
X010010Y040015D03*
X010115Y037965D03*
X009445Y037965D03*
X010010Y037055D03*
X010680Y037055D03*
X010540Y034535D03*
X009870Y034535D03*
X009940Y033675D03*
X010610Y033675D03*
X010260Y031065D03*
X009590Y031065D03*
X009590Y030165D03*
X010260Y030165D03*
X010260Y029305D03*
X009590Y029305D03*
X009590Y028475D03*
X010260Y028475D03*
X010260Y027335D03*
X009590Y027335D03*
X014230Y038035D03*
X014900Y038035D03*
X014870Y046615D03*
X014200Y046615D03*
X027800Y013185D03*
X028470Y013185D03*
X028120Y010385D03*
X027450Y010385D03*
X028100Y009435D03*
X028770Y009435D03*
X028770Y008535D03*
X028100Y008535D03*
X024270Y009445D03*
X023600Y009445D03*
X023540Y012385D03*
X024210Y012385D03*
D15*
X022848Y012385D03*
X022022Y012385D03*
X022072Y009445D03*
X022898Y009445D03*
X022848Y015385D03*
X022022Y015385D03*
X021972Y018295D03*
X022798Y018295D03*
X022748Y021285D03*
X021922Y021285D03*
X021972Y024235D03*
X022798Y024235D03*
X020275Y026562D03*
X020275Y027388D03*
X021972Y027175D03*
X022798Y027175D03*
X022848Y030085D03*
X022022Y030085D03*
X022022Y032995D03*
X022848Y032995D03*
X022848Y036115D03*
X022022Y036115D03*
X022072Y039145D03*
X022898Y039145D03*
X022838Y042095D03*
X022012Y042095D03*
X040072Y042035D03*
X040898Y042035D03*
X040898Y039085D03*
X040072Y039085D03*
X040072Y036035D03*
X040898Y036035D03*
X040898Y032935D03*
X040072Y032935D03*
X040122Y030085D03*
X040948Y030085D03*
X040948Y027085D03*
X040122Y027085D03*
X040072Y024185D03*
X040898Y024185D03*
X040868Y021295D03*
X040042Y021295D03*
X040072Y018305D03*
X040898Y018305D03*
X040948Y015435D03*
X040122Y015435D03*
X040072Y012385D03*
X040898Y012385D03*
X044802Y005145D03*
X045628Y005145D03*
X034928Y026165D03*
X034102Y026165D03*
X056025Y027502D03*
X056025Y028328D03*
X011438Y005475D03*
X010612Y005475D03*
X002848Y012445D03*
X002022Y012445D03*
X002022Y015385D03*
X002848Y015385D03*
X002848Y018325D03*
X002022Y018325D03*
X002022Y021335D03*
X002848Y021335D03*
X002848Y024275D03*
X002022Y024275D03*
X002022Y027145D03*
X002848Y027145D03*
X002848Y030085D03*
X002022Y030085D03*
X002022Y033025D03*
X002848Y033025D03*
X002798Y036065D03*
X001972Y036065D03*
X001972Y039085D03*
X002798Y039085D03*
X002758Y042005D03*
X001932Y042005D03*
D16*
X008992Y008305D03*
X009819Y007931D03*
X009819Y008679D03*
X009069Y013111D03*
X008242Y013485D03*
X009069Y013859D03*
X009069Y015571D03*
X009069Y016319D03*
X008242Y015945D03*
X009089Y019791D03*
X009089Y020539D03*
X008262Y020165D03*
X008999Y022531D03*
X008999Y023279D03*
X008172Y022905D03*
X008949Y027291D03*
X008122Y027665D03*
X008949Y028039D03*
X008899Y029321D03*
X008899Y030069D03*
X008072Y029695D03*
X009039Y033761D03*
X008212Y034135D03*
X009039Y034509D03*
X008989Y036291D03*
X008989Y037039D03*
X008162Y036665D03*
X009019Y040041D03*
X009019Y040789D03*
X008192Y040415D03*
X009009Y042251D03*
X009009Y042999D03*
X008182Y042625D03*
X012672Y046215D03*
X013499Y045841D03*
X013499Y046589D03*
X026352Y043535D03*
X027179Y043161D03*
X027179Y043909D03*
X027179Y041409D03*
X027179Y040661D03*
X026352Y041035D03*
X027179Y036909D03*
X027179Y036161D03*
X026352Y036535D03*
X027179Y034559D03*
X026352Y034185D03*
X027179Y033811D03*
X027129Y030209D03*
X026302Y029835D03*
X027129Y029461D03*
X027129Y028059D03*
X026302Y027685D03*
X027129Y027311D03*
X027229Y023259D03*
X027229Y022511D03*
X026402Y022885D03*
X027229Y020659D03*
X027229Y019911D03*
X026402Y020285D03*
X027229Y016359D03*
X027229Y015611D03*
X026402Y015985D03*
X027229Y013959D03*
X027229Y013211D03*
X026402Y013585D03*
X027479Y009409D03*
X026652Y009035D03*
X027479Y008661D03*
X044552Y013485D03*
X045379Y013111D03*
X045379Y013859D03*
X045279Y015711D03*
X045279Y016459D03*
X044452Y016085D03*
X045179Y019961D03*
X045179Y020709D03*
X044352Y020335D03*
X045179Y022511D03*
X045179Y023259D03*
X044352Y022885D03*
X045429Y026861D03*
X045429Y027609D03*
X044602Y027235D03*
X045379Y029411D03*
X045379Y030159D03*
X044552Y029785D03*
X045279Y033311D03*
X045279Y034059D03*
X044452Y033685D03*
X045229Y036211D03*
X045229Y036959D03*
X044402Y036585D03*
X046279Y039961D03*
X045452Y040335D03*
X046279Y040709D03*
X046279Y041961D03*
X046279Y042709D03*
X045452Y042335D03*
X047572Y046485D03*
X048399Y046111D03*
X048399Y046859D03*
X030529Y046959D03*
X030529Y046211D03*
X029702Y046585D03*
X045729Y008609D03*
X045729Y007861D03*
X044902Y008235D03*
D17*
X055695Y023702D03*
X055321Y024529D03*
X056069Y024529D03*
X037909Y026779D03*
X037535Y025952D03*
X037161Y026779D03*
X018689Y024499D03*
X018315Y023672D03*
X017941Y024499D03*
D18*
X017621Y022442D03*
X017621Y022128D03*
X018310Y022128D03*
X018310Y022442D03*
X036831Y024578D03*
X036831Y024892D03*
X037520Y024892D03*
X037520Y024578D03*
X054681Y022862D03*
X054681Y022548D03*
X055370Y022548D03*
X055370Y022862D03*
D19*
X055370Y023197D03*
X054681Y023197D03*
X054681Y022213D03*
X055370Y022213D03*
X037520Y024243D03*
X036831Y024243D03*
X036831Y025227D03*
X037520Y025227D03*
X018310Y022777D03*
X017621Y022777D03*
X017621Y021793D03*
X018310Y021793D03*
D20*
X057255Y029785D03*
X057255Y030785D03*
X057255Y031785D03*
X057255Y033635D03*
X057255Y034635D03*
X057255Y035635D03*
X057255Y038085D03*
X057255Y039085D03*
X057255Y040085D03*
X059905Y040085D03*
X059905Y039085D03*
X059905Y038085D03*
X059905Y035635D03*
X059905Y034635D03*
X059905Y033635D03*
X059905Y031785D03*
X059905Y030785D03*
X059905Y029785D03*
D21*
X055946Y038385D03*
X055041Y038385D03*
X054135Y038385D03*
X037596Y038385D03*
X036691Y038385D03*
X035785Y038385D03*
X019106Y038765D03*
X018201Y038765D03*
X017295Y038765D03*
D22*
X018161Y041245D03*
X036651Y040865D03*
X055001Y040865D03*
D23*
X042247Y040345D03*
X040043Y040345D03*
X040043Y037255D03*
X042247Y037255D03*
X042247Y034165D03*
X040043Y034165D03*
X040043Y031275D03*
X042247Y031275D03*
X042247Y028285D03*
X040043Y028285D03*
X040043Y025395D03*
X042247Y025395D03*
X042247Y022505D03*
X040043Y022505D03*
X040043Y019515D03*
X042247Y019515D03*
X042247Y016625D03*
X040043Y016625D03*
X040043Y013635D03*
X042247Y013635D03*
X044793Y006345D03*
X046997Y006345D03*
X024267Y010665D03*
X022063Y010665D03*
X022013Y013595D03*
X024217Y013595D03*
X024217Y016595D03*
X022013Y016595D03*
X021963Y019505D03*
X024167Y019505D03*
X024117Y022475D03*
X021913Y022475D03*
X021963Y025425D03*
X024167Y025425D03*
X024167Y028365D03*
X021963Y028365D03*
X022013Y031255D03*
X024217Y031255D03*
X024237Y034175D03*
X022033Y034175D03*
X022033Y037295D03*
X024237Y037295D03*
X024257Y040355D03*
X022053Y040355D03*
X022023Y043255D03*
X024227Y043255D03*
X040043Y043285D03*
X042247Y043285D03*
X004097Y043245D03*
X001893Y043245D03*
X001963Y040305D03*
X004167Y040305D03*
X004167Y037295D03*
X001963Y037295D03*
X002033Y034215D03*
X004237Y034215D03*
X004237Y031275D03*
X002033Y031275D03*
X002033Y028335D03*
X004237Y028335D03*
X004237Y025465D03*
X002033Y025465D03*
X002033Y022525D03*
X004237Y022525D03*
X004237Y019515D03*
X002033Y019515D03*
X002033Y016575D03*
X004237Y016575D03*
X004237Y013635D03*
X002033Y013635D03*
X010573Y006775D03*
X012777Y006775D03*
M02*
