G75*
%MOIN*%
%OFA0B0*%
%FSLAX24Y24*%
%IPPOS*%
%LPD*%
%AMOC8*
5,1,8,0,0,1.08239X$1,22.5*
%
%ADD10C,0.0000*%
%ADD11C,0.0315*%
%ADD12C,0.0000*%
D10*
X006436Y007816D02*
X010598Y003654D01*
X011990Y003078D02*
X012592Y003078D01*
X011990Y003077D02*
X011904Y003079D01*
X011818Y003084D01*
X011733Y003094D01*
X011648Y003107D01*
X011564Y003124D01*
X011480Y003144D01*
X011398Y003168D01*
X011317Y003196D01*
X011236Y003227D01*
X011158Y003261D01*
X011081Y003299D01*
X011005Y003341D01*
X010932Y003385D01*
X010861Y003433D01*
X010791Y003484D01*
X010724Y003538D01*
X010660Y003594D01*
X010598Y003654D01*
X012592Y003078D02*
X012687Y003080D01*
X012782Y003086D01*
X012877Y003095D01*
X012971Y003109D01*
X013064Y003126D01*
X013157Y003147D01*
X013249Y003171D01*
X013340Y003200D01*
X013430Y003231D01*
X013518Y003267D01*
X013605Y003306D01*
X013690Y003349D01*
X013773Y003394D01*
X013854Y003444D01*
X013934Y003496D01*
X014011Y003552D01*
X014086Y003610D01*
X014158Y003672D01*
X014228Y003737D01*
X014295Y003804D01*
X014360Y003874D01*
X014422Y003946D01*
X014480Y004021D01*
X014536Y004098D01*
X014588Y004178D01*
X014638Y004259D01*
X014683Y004342D01*
X014726Y004427D01*
X014765Y004514D01*
X014801Y004602D01*
X014832Y004692D01*
X014861Y004783D01*
X014885Y004875D01*
X014906Y004968D01*
X014923Y005061D01*
X014937Y005155D01*
X014946Y005250D01*
X014952Y005345D01*
X014954Y005440D01*
X014956Y005548D01*
X014962Y005656D01*
X014972Y005763D01*
X014985Y005870D01*
X015003Y005976D01*
X015025Y006082D01*
X015050Y006187D01*
X015079Y006291D01*
X015112Y006393D01*
X015149Y006495D01*
X015189Y006595D01*
X015233Y006693D01*
X015281Y006790D01*
X015332Y006885D01*
X015386Y006978D01*
X015444Y007069D01*
X015505Y007158D01*
X015570Y007245D01*
X015637Y007329D01*
X015708Y007411D01*
X015781Y007490D01*
X015857Y007566D01*
X015936Y007639D01*
X016018Y007710D01*
X016102Y007777D01*
X016189Y007842D01*
X016278Y007903D01*
X016369Y007961D01*
X016462Y008015D01*
X016557Y008066D01*
X016654Y008114D01*
X016752Y008158D01*
X016852Y008198D01*
X016954Y008235D01*
X017056Y008268D01*
X017160Y008297D01*
X017265Y008322D01*
X017371Y008344D01*
X017477Y008362D01*
X017584Y008375D01*
X017691Y008385D01*
X017799Y008391D01*
X017907Y008393D01*
X018015Y008391D01*
X018123Y008385D01*
X018230Y008375D01*
X018337Y008362D01*
X018443Y008344D01*
X018549Y008322D01*
X018654Y008297D01*
X018758Y008268D01*
X018860Y008235D01*
X018962Y008198D01*
X019062Y008158D01*
X019160Y008114D01*
X019257Y008066D01*
X019352Y008015D01*
X019445Y007961D01*
X019536Y007903D01*
X019625Y007842D01*
X019712Y007777D01*
X019796Y007710D01*
X019878Y007639D01*
X019957Y007566D01*
X020033Y007490D01*
X020106Y007411D01*
X020177Y007329D01*
X020244Y007245D01*
X020309Y007158D01*
X020370Y007069D01*
X020428Y006978D01*
X020482Y006885D01*
X020533Y006790D01*
X020581Y006693D01*
X020625Y006595D01*
X020665Y006495D01*
X020702Y006393D01*
X020735Y006291D01*
X020764Y006187D01*
X020789Y006082D01*
X020811Y005976D01*
X020829Y005870D01*
X020842Y005763D01*
X020852Y005656D01*
X020858Y005548D01*
X020860Y005440D01*
X020862Y005345D01*
X020868Y005250D01*
X020877Y005155D01*
X020891Y005061D01*
X020908Y004968D01*
X020929Y004875D01*
X020953Y004783D01*
X020982Y004692D01*
X021013Y004602D01*
X021049Y004514D01*
X021088Y004427D01*
X021131Y004342D01*
X021176Y004259D01*
X021226Y004178D01*
X021278Y004098D01*
X021334Y004021D01*
X021392Y003946D01*
X021454Y003874D01*
X021519Y003804D01*
X021586Y003737D01*
X021656Y003672D01*
X021728Y003610D01*
X021803Y003552D01*
X021880Y003496D01*
X021960Y003444D01*
X022041Y003394D01*
X022124Y003349D01*
X022209Y003306D01*
X022296Y003267D01*
X022384Y003231D01*
X022474Y003200D01*
X022565Y003171D01*
X022657Y003147D01*
X022750Y003126D01*
X022843Y003109D01*
X022937Y003095D01*
X023032Y003086D01*
X023127Y003080D01*
X023222Y003078D01*
X030466Y003078D01*
X030561Y003080D01*
X030656Y003086D01*
X030751Y003095D01*
X030845Y003109D01*
X030938Y003126D01*
X031031Y003147D01*
X031123Y003171D01*
X031214Y003200D01*
X031304Y003231D01*
X031392Y003267D01*
X031479Y003306D01*
X031564Y003349D01*
X031647Y003394D01*
X031728Y003444D01*
X031808Y003496D01*
X031885Y003552D01*
X031960Y003610D01*
X032032Y003672D01*
X032102Y003737D01*
X032169Y003804D01*
X032234Y003874D01*
X032296Y003946D01*
X032354Y004021D01*
X032410Y004098D01*
X032462Y004178D01*
X032512Y004259D01*
X032557Y004342D01*
X032600Y004427D01*
X032639Y004514D01*
X032675Y004602D01*
X032706Y004692D01*
X032735Y004783D01*
X032759Y004875D01*
X032780Y004968D01*
X032797Y005061D01*
X032811Y005155D01*
X032820Y005250D01*
X032826Y005345D01*
X032828Y005440D01*
X032830Y005548D01*
X032836Y005656D01*
X032846Y005763D01*
X032859Y005870D01*
X032877Y005976D01*
X032899Y006082D01*
X032924Y006187D01*
X032953Y006291D01*
X032986Y006393D01*
X033023Y006495D01*
X033063Y006595D01*
X033107Y006693D01*
X033155Y006790D01*
X033206Y006885D01*
X033260Y006978D01*
X033318Y007069D01*
X033379Y007158D01*
X033444Y007245D01*
X033511Y007329D01*
X033582Y007411D01*
X033655Y007490D01*
X033731Y007566D01*
X033810Y007639D01*
X033892Y007710D01*
X033976Y007777D01*
X034063Y007842D01*
X034152Y007903D01*
X034243Y007961D01*
X034336Y008015D01*
X034431Y008066D01*
X034528Y008114D01*
X034626Y008158D01*
X034726Y008198D01*
X034828Y008235D01*
X034930Y008268D01*
X035034Y008297D01*
X035139Y008322D01*
X035245Y008344D01*
X035351Y008362D01*
X035458Y008375D01*
X035565Y008385D01*
X035673Y008391D01*
X035781Y008393D01*
X035889Y008391D01*
X035997Y008385D01*
X036104Y008375D01*
X036211Y008362D01*
X036317Y008344D01*
X036423Y008322D01*
X036528Y008297D01*
X036632Y008268D01*
X036734Y008235D01*
X036836Y008198D01*
X036936Y008158D01*
X037034Y008114D01*
X037131Y008066D01*
X037226Y008015D01*
X037319Y007961D01*
X037410Y007903D01*
X037499Y007842D01*
X037586Y007777D01*
X037670Y007710D01*
X037752Y007639D01*
X037831Y007566D01*
X037907Y007490D01*
X037980Y007411D01*
X038051Y007329D01*
X038118Y007245D01*
X038183Y007158D01*
X038244Y007069D01*
X038302Y006978D01*
X038356Y006885D01*
X038407Y006790D01*
X038455Y006693D01*
X038499Y006595D01*
X038539Y006495D01*
X038576Y006393D01*
X038609Y006291D01*
X038638Y006187D01*
X038663Y006082D01*
X038685Y005976D01*
X038703Y005870D01*
X038716Y005763D01*
X038726Y005656D01*
X038732Y005548D01*
X038734Y005440D01*
X038736Y005345D01*
X038742Y005250D01*
X038751Y005155D01*
X038765Y005061D01*
X038782Y004968D01*
X038803Y004875D01*
X038827Y004783D01*
X038856Y004692D01*
X038887Y004602D01*
X038923Y004514D01*
X038962Y004427D01*
X039005Y004342D01*
X039050Y004259D01*
X039100Y004178D01*
X039152Y004098D01*
X039208Y004021D01*
X039266Y003946D01*
X039328Y003874D01*
X039393Y003804D01*
X039460Y003737D01*
X039530Y003672D01*
X039602Y003610D01*
X039677Y003552D01*
X039754Y003496D01*
X039834Y003444D01*
X039915Y003394D01*
X039998Y003349D01*
X040083Y003306D01*
X040170Y003267D01*
X040258Y003231D01*
X040348Y003200D01*
X040439Y003171D01*
X040531Y003147D01*
X040624Y003126D01*
X040717Y003109D01*
X040811Y003095D01*
X040906Y003086D01*
X041001Y003080D01*
X041096Y003078D01*
X048340Y003078D01*
X048435Y003080D01*
X048530Y003086D01*
X048625Y003095D01*
X048719Y003109D01*
X048812Y003126D01*
X048905Y003147D01*
X048997Y003171D01*
X049088Y003200D01*
X049178Y003231D01*
X049266Y003267D01*
X049353Y003306D01*
X049438Y003349D01*
X049521Y003394D01*
X049602Y003444D01*
X049682Y003496D01*
X049759Y003552D01*
X049834Y003610D01*
X049906Y003672D01*
X049976Y003737D01*
X050043Y003804D01*
X050108Y003874D01*
X050170Y003946D01*
X050228Y004021D01*
X050284Y004098D01*
X050336Y004178D01*
X050386Y004259D01*
X050431Y004342D01*
X050474Y004427D01*
X050513Y004514D01*
X050549Y004602D01*
X050580Y004692D01*
X050609Y004783D01*
X050633Y004875D01*
X050654Y004968D01*
X050671Y005061D01*
X050685Y005155D01*
X050694Y005250D01*
X050700Y005345D01*
X050702Y005440D01*
X050704Y005547D01*
X050710Y005654D01*
X050719Y005760D01*
X050733Y005867D01*
X050750Y005972D01*
X050772Y006077D01*
X050797Y006181D01*
X050825Y006284D01*
X050858Y006386D01*
X050894Y006487D01*
X050934Y006586D01*
X050977Y006684D01*
X051024Y006780D01*
X051074Y006875D01*
X051128Y006967D01*
X051185Y007058D01*
X051245Y007146D01*
X051308Y007233D01*
X051375Y007316D01*
X051444Y007398D01*
X051517Y007477D01*
X051592Y007553D01*
X051670Y007626D01*
X051750Y007697D01*
X051833Y007764D01*
X051919Y007829D01*
X052006Y007890D01*
X052096Y007948D01*
X052188Y008003D01*
X052282Y008054D01*
X052378Y008102D01*
X052475Y008147D01*
X052574Y008188D01*
X052674Y008225D01*
X052776Y008259D01*
X052878Y008289D01*
X052982Y008315D01*
X053087Y008338D01*
X053192Y008356D01*
X053298Y008371D01*
X053405Y008382D01*
X053511Y008390D01*
X053618Y008393D01*
X053725Y008392D01*
X053832Y008388D01*
X053939Y008379D01*
X054045Y008367D01*
X054151Y008351D01*
X054256Y008331D01*
X054361Y008307D01*
X054464Y008280D01*
X054566Y008249D01*
X054667Y008214D01*
X054767Y008175D01*
X054866Y008133D01*
X054963Y008088D01*
X055058Y008039D01*
X055992Y007802D02*
X059166Y007802D01*
X059252Y007804D01*
X059338Y007809D01*
X059423Y007819D01*
X059508Y007832D01*
X059592Y007849D01*
X059676Y007869D01*
X059758Y007893D01*
X059839Y007921D01*
X059920Y007952D01*
X059998Y007986D01*
X060075Y008024D01*
X060151Y008066D01*
X060224Y008110D01*
X060295Y008158D01*
X060365Y008209D01*
X060432Y008263D01*
X060496Y008319D01*
X060558Y008379D01*
X060618Y008441D01*
X060674Y008505D01*
X060728Y008572D01*
X060779Y008642D01*
X060827Y008713D01*
X060871Y008786D01*
X060913Y008862D01*
X060951Y008939D01*
X060985Y009017D01*
X061016Y009098D01*
X061044Y009179D01*
X061068Y009261D01*
X061088Y009345D01*
X061105Y009429D01*
X061118Y009514D01*
X061128Y009599D01*
X061133Y009685D01*
X061135Y009771D01*
X061135Y045499D01*
X061133Y045585D01*
X061128Y045671D01*
X061118Y045756D01*
X061105Y045841D01*
X061088Y045925D01*
X061068Y046009D01*
X061044Y046091D01*
X061016Y046172D01*
X060985Y046253D01*
X060951Y046331D01*
X060913Y046408D01*
X060871Y046484D01*
X060827Y046557D01*
X060779Y046628D01*
X060728Y046698D01*
X060674Y046765D01*
X060618Y046829D01*
X060558Y046891D01*
X060496Y046951D01*
X060432Y047007D01*
X060365Y047061D01*
X060295Y047112D01*
X060224Y047160D01*
X060151Y047204D01*
X060075Y047246D01*
X059998Y047284D01*
X059920Y047318D01*
X059839Y047349D01*
X059758Y047377D01*
X059676Y047401D01*
X059592Y047421D01*
X059508Y047438D01*
X059423Y047451D01*
X059338Y047461D01*
X059252Y047466D01*
X059166Y047468D01*
X055992Y047468D01*
X055911Y047466D01*
X055830Y047461D01*
X055749Y047453D01*
X055669Y047441D01*
X055589Y047426D01*
X055510Y047408D01*
X055431Y047387D01*
X055354Y047362D01*
X055278Y047334D01*
X055203Y047303D01*
X055129Y047269D01*
X055057Y047232D01*
X055058Y047231D02*
X054963Y047182D01*
X054866Y047137D01*
X054767Y047095D01*
X054667Y047056D01*
X054566Y047021D01*
X054464Y046990D01*
X054361Y046963D01*
X054256Y046939D01*
X054151Y046919D01*
X054045Y046903D01*
X053939Y046891D01*
X053832Y046882D01*
X053725Y046878D01*
X053618Y046877D01*
X053511Y046880D01*
X053405Y046888D01*
X053298Y046899D01*
X053192Y046914D01*
X053087Y046932D01*
X052982Y046955D01*
X052878Y046981D01*
X052776Y047011D01*
X052674Y047045D01*
X052574Y047082D01*
X052475Y047123D01*
X052378Y047168D01*
X052282Y047216D01*
X052188Y047267D01*
X052096Y047322D01*
X052006Y047380D01*
X051919Y047441D01*
X051833Y047506D01*
X051750Y047573D01*
X051670Y047644D01*
X051592Y047717D01*
X051517Y047793D01*
X051444Y047872D01*
X051375Y047954D01*
X051308Y048037D01*
X051245Y048124D01*
X051185Y048212D01*
X051128Y048303D01*
X051074Y048395D01*
X051024Y048490D01*
X050977Y048586D01*
X050934Y048684D01*
X050894Y048783D01*
X050858Y048884D01*
X050825Y048986D01*
X050797Y049089D01*
X050772Y049193D01*
X050750Y049298D01*
X050733Y049403D01*
X050719Y049510D01*
X050710Y049616D01*
X050704Y049723D01*
X050702Y049830D01*
X050700Y049925D01*
X050694Y050020D01*
X050685Y050115D01*
X050671Y050209D01*
X050654Y050302D01*
X050633Y050395D01*
X050609Y050487D01*
X050580Y050578D01*
X050549Y050668D01*
X050513Y050756D01*
X050474Y050843D01*
X050431Y050928D01*
X050386Y051011D01*
X050336Y051092D01*
X050284Y051172D01*
X050228Y051249D01*
X050170Y051324D01*
X050108Y051396D01*
X050043Y051466D01*
X049976Y051533D01*
X049906Y051598D01*
X049834Y051660D01*
X049759Y051718D01*
X049682Y051774D01*
X049602Y051826D01*
X049521Y051876D01*
X049438Y051921D01*
X049353Y051964D01*
X049266Y052003D01*
X049178Y052039D01*
X049088Y052070D01*
X048997Y052099D01*
X048905Y052123D01*
X048812Y052144D01*
X048719Y052161D01*
X048625Y052175D01*
X048530Y052184D01*
X048435Y052190D01*
X048340Y052192D01*
X041096Y052192D01*
X041001Y052190D01*
X040906Y052184D01*
X040811Y052175D01*
X040717Y052161D01*
X040624Y052144D01*
X040531Y052123D01*
X040439Y052099D01*
X040348Y052070D01*
X040258Y052039D01*
X040170Y052003D01*
X040083Y051964D01*
X039998Y051921D01*
X039915Y051876D01*
X039834Y051826D01*
X039754Y051774D01*
X039677Y051718D01*
X039602Y051660D01*
X039530Y051598D01*
X039460Y051533D01*
X039393Y051466D01*
X039328Y051396D01*
X039266Y051324D01*
X039208Y051249D01*
X039152Y051172D01*
X039100Y051092D01*
X039050Y051011D01*
X039005Y050928D01*
X038962Y050843D01*
X038923Y050756D01*
X038887Y050668D01*
X038856Y050578D01*
X038827Y050487D01*
X038803Y050395D01*
X038782Y050302D01*
X038765Y050209D01*
X038751Y050115D01*
X038742Y050020D01*
X038736Y049925D01*
X038734Y049830D01*
X038732Y049722D01*
X038726Y049614D01*
X038716Y049507D01*
X038703Y049400D01*
X038685Y049294D01*
X038663Y049188D01*
X038638Y049083D01*
X038609Y048979D01*
X038576Y048877D01*
X038539Y048775D01*
X038499Y048675D01*
X038455Y048577D01*
X038407Y048480D01*
X038356Y048385D01*
X038302Y048292D01*
X038244Y048201D01*
X038183Y048112D01*
X038118Y048025D01*
X038051Y047941D01*
X037980Y047859D01*
X037907Y047780D01*
X037831Y047704D01*
X037752Y047631D01*
X037670Y047560D01*
X037586Y047493D01*
X037499Y047428D01*
X037410Y047367D01*
X037319Y047309D01*
X037226Y047255D01*
X037131Y047204D01*
X037034Y047156D01*
X036936Y047112D01*
X036836Y047072D01*
X036734Y047035D01*
X036632Y047002D01*
X036528Y046973D01*
X036423Y046948D01*
X036317Y046926D01*
X036211Y046908D01*
X036104Y046895D01*
X035997Y046885D01*
X035889Y046879D01*
X035781Y046877D01*
X035673Y046879D01*
X035565Y046885D01*
X035458Y046895D01*
X035351Y046908D01*
X035245Y046926D01*
X035139Y046948D01*
X035034Y046973D01*
X034930Y047002D01*
X034828Y047035D01*
X034726Y047072D01*
X034626Y047112D01*
X034528Y047156D01*
X034431Y047204D01*
X034336Y047255D01*
X034243Y047309D01*
X034152Y047367D01*
X034063Y047428D01*
X033976Y047493D01*
X033892Y047560D01*
X033810Y047631D01*
X033731Y047704D01*
X033655Y047780D01*
X033582Y047859D01*
X033511Y047941D01*
X033444Y048025D01*
X033379Y048112D01*
X033318Y048201D01*
X033260Y048292D01*
X033206Y048385D01*
X033155Y048480D01*
X033107Y048577D01*
X033063Y048675D01*
X033023Y048775D01*
X032986Y048877D01*
X032953Y048979D01*
X032924Y049083D01*
X032899Y049188D01*
X032877Y049294D01*
X032859Y049400D01*
X032846Y049507D01*
X032836Y049614D01*
X032830Y049722D01*
X032828Y049830D01*
X032826Y049925D01*
X032820Y050020D01*
X032811Y050115D01*
X032797Y050209D01*
X032780Y050302D01*
X032759Y050395D01*
X032735Y050487D01*
X032706Y050578D01*
X032675Y050668D01*
X032639Y050756D01*
X032600Y050843D01*
X032557Y050928D01*
X032512Y051011D01*
X032462Y051092D01*
X032410Y051172D01*
X032354Y051249D01*
X032296Y051324D01*
X032234Y051396D01*
X032169Y051466D01*
X032102Y051533D01*
X032032Y051598D01*
X031960Y051660D01*
X031885Y051718D01*
X031808Y051774D01*
X031728Y051826D01*
X031647Y051876D01*
X031564Y051921D01*
X031479Y051964D01*
X031392Y052003D01*
X031304Y052039D01*
X031214Y052070D01*
X031123Y052099D01*
X031031Y052123D01*
X030938Y052144D01*
X030845Y052161D01*
X030751Y052175D01*
X030656Y052184D01*
X030561Y052190D01*
X030466Y052192D01*
X023222Y052192D01*
X023127Y052190D01*
X023032Y052184D01*
X022937Y052175D01*
X022843Y052161D01*
X022750Y052144D01*
X022657Y052123D01*
X022565Y052099D01*
X022474Y052070D01*
X022384Y052039D01*
X022296Y052003D01*
X022209Y051964D01*
X022124Y051921D01*
X022041Y051876D01*
X021960Y051826D01*
X021880Y051774D01*
X021803Y051718D01*
X021728Y051660D01*
X021656Y051598D01*
X021586Y051533D01*
X021519Y051466D01*
X021454Y051396D01*
X021392Y051324D01*
X021334Y051249D01*
X021278Y051172D01*
X021226Y051092D01*
X021176Y051011D01*
X021131Y050928D01*
X021088Y050843D01*
X021049Y050756D01*
X021013Y050668D01*
X020982Y050578D01*
X020953Y050487D01*
X020929Y050395D01*
X020908Y050302D01*
X020891Y050209D01*
X020877Y050115D01*
X020868Y050020D01*
X020862Y049925D01*
X020860Y049830D01*
X020858Y049722D01*
X020852Y049614D01*
X020842Y049507D01*
X020829Y049400D01*
X020811Y049294D01*
X020789Y049188D01*
X020764Y049083D01*
X020735Y048979D01*
X020702Y048877D01*
X020665Y048775D01*
X020625Y048675D01*
X020581Y048577D01*
X020533Y048480D01*
X020482Y048385D01*
X020428Y048292D01*
X020370Y048201D01*
X020309Y048112D01*
X020244Y048025D01*
X020177Y047941D01*
X020106Y047859D01*
X020033Y047780D01*
X019957Y047704D01*
X019878Y047631D01*
X019796Y047560D01*
X019712Y047493D01*
X019625Y047428D01*
X019536Y047367D01*
X019445Y047309D01*
X019352Y047255D01*
X019257Y047204D01*
X019160Y047156D01*
X019062Y047112D01*
X018962Y047072D01*
X018860Y047035D01*
X018758Y047002D01*
X018654Y046973D01*
X018549Y046948D01*
X018443Y046926D01*
X018337Y046908D01*
X018230Y046895D01*
X018123Y046885D01*
X018015Y046879D01*
X017907Y046877D01*
X017799Y046879D01*
X017691Y046885D01*
X017584Y046895D01*
X017477Y046908D01*
X017371Y046926D01*
X017265Y046948D01*
X017160Y046973D01*
X017056Y047002D01*
X016954Y047035D01*
X016852Y047072D01*
X016752Y047112D01*
X016654Y047156D01*
X016557Y047204D01*
X016462Y047255D01*
X016369Y047309D01*
X016278Y047367D01*
X016189Y047428D01*
X016102Y047493D01*
X016018Y047560D01*
X015936Y047631D01*
X015857Y047704D01*
X015781Y047780D01*
X015708Y047859D01*
X015637Y047941D01*
X015570Y048025D01*
X015505Y048112D01*
X015444Y048201D01*
X015386Y048292D01*
X015332Y048385D01*
X015281Y048480D01*
X015233Y048577D01*
X015189Y048675D01*
X015149Y048775D01*
X015112Y048877D01*
X015079Y048979D01*
X015050Y049083D01*
X015025Y049188D01*
X015003Y049294D01*
X014985Y049400D01*
X014972Y049507D01*
X014962Y049614D01*
X014956Y049722D01*
X014954Y049830D01*
X014952Y049925D01*
X014946Y050020D01*
X014937Y050115D01*
X014923Y050209D01*
X014906Y050302D01*
X014885Y050395D01*
X014861Y050487D01*
X014832Y050578D01*
X014801Y050668D01*
X014765Y050756D01*
X014726Y050843D01*
X014683Y050928D01*
X014638Y051011D01*
X014588Y051092D01*
X014536Y051172D01*
X014480Y051249D01*
X014422Y051324D01*
X014360Y051396D01*
X014295Y051466D01*
X014228Y051533D01*
X014158Y051598D01*
X014086Y051660D01*
X014011Y051718D01*
X013934Y051774D01*
X013854Y051826D01*
X013773Y051876D01*
X013690Y051921D01*
X013605Y051964D01*
X013518Y052003D01*
X013430Y052039D01*
X013340Y052070D01*
X013249Y052099D01*
X013157Y052123D01*
X013064Y052144D01*
X012971Y052161D01*
X012877Y052175D01*
X012782Y052184D01*
X012687Y052190D01*
X012592Y052192D01*
X011990Y052192D01*
X010598Y051616D02*
X006436Y047454D01*
X005859Y046062D02*
X005859Y044712D01*
X005860Y044712D02*
X005848Y044669D01*
X005832Y044628D01*
X005814Y044588D01*
X005791Y044550D01*
X005766Y044514D01*
X005738Y044480D01*
X005707Y044448D01*
X005674Y044419D01*
X005638Y044393D01*
X005601Y044370D01*
X005561Y044350D01*
X005520Y044334D01*
X005478Y044321D01*
X005435Y044311D01*
X005391Y044305D01*
X005347Y044303D01*
X005303Y044304D01*
X005259Y044309D01*
X005216Y044318D01*
X001135Y044318D01*
X001135Y010952D01*
X005466Y010952D01*
X005505Y010950D01*
X005543Y010944D01*
X005580Y010935D01*
X005617Y010922D01*
X005652Y010905D01*
X005685Y010886D01*
X005716Y010863D01*
X005745Y010837D01*
X005771Y010808D01*
X005794Y010777D01*
X005813Y010744D01*
X005830Y010709D01*
X005843Y010672D01*
X005852Y010635D01*
X005858Y010597D01*
X005860Y010558D01*
X005859Y010558D02*
X005859Y009208D01*
X005861Y009122D01*
X005866Y009036D01*
X005876Y008951D01*
X005889Y008866D01*
X005906Y008782D01*
X005926Y008698D01*
X005950Y008616D01*
X005978Y008535D01*
X006009Y008454D01*
X006043Y008376D01*
X006081Y008299D01*
X006123Y008224D01*
X006167Y008150D01*
X006215Y008079D01*
X006266Y008009D01*
X006320Y007942D01*
X006376Y007878D01*
X006436Y007816D01*
X007833Y010411D02*
X007835Y010461D01*
X007841Y010510D01*
X007851Y010559D01*
X007864Y010606D01*
X007882Y010653D01*
X007903Y010698D01*
X007927Y010741D01*
X007955Y010782D01*
X007986Y010821D01*
X008020Y010857D01*
X008057Y010891D01*
X008097Y010921D01*
X008138Y010948D01*
X008182Y010972D01*
X008227Y010992D01*
X008274Y011008D01*
X008322Y011021D01*
X008371Y011030D01*
X008421Y011035D01*
X008470Y011036D01*
X008520Y011033D01*
X008569Y011026D01*
X008618Y011015D01*
X008665Y011001D01*
X008711Y010982D01*
X008756Y010960D01*
X008799Y010935D01*
X008839Y010906D01*
X008877Y010874D01*
X008913Y010840D01*
X008946Y010802D01*
X008975Y010762D01*
X009001Y010720D01*
X009024Y010676D01*
X009043Y010630D01*
X009059Y010583D01*
X009071Y010534D01*
X009079Y010485D01*
X009083Y010436D01*
X009083Y010386D01*
X009079Y010337D01*
X009071Y010288D01*
X009059Y010239D01*
X009043Y010192D01*
X009024Y010146D01*
X009001Y010102D01*
X008975Y010060D01*
X008946Y010020D01*
X008913Y009982D01*
X008877Y009948D01*
X008839Y009916D01*
X008799Y009887D01*
X008756Y009862D01*
X008711Y009840D01*
X008665Y009821D01*
X008618Y009807D01*
X008569Y009796D01*
X008520Y009789D01*
X008470Y009786D01*
X008421Y009787D01*
X008371Y009792D01*
X008322Y009801D01*
X008274Y009814D01*
X008227Y009830D01*
X008182Y009850D01*
X008138Y009874D01*
X008097Y009901D01*
X008057Y009931D01*
X008020Y009965D01*
X007986Y010001D01*
X007955Y010040D01*
X007927Y010081D01*
X007903Y010124D01*
X007882Y010169D01*
X007864Y010216D01*
X007851Y010263D01*
X007841Y010312D01*
X007835Y010361D01*
X007833Y010411D01*
X043581Y010411D02*
X043583Y010461D01*
X043589Y010510D01*
X043599Y010559D01*
X043612Y010606D01*
X043630Y010653D01*
X043651Y010698D01*
X043675Y010741D01*
X043703Y010782D01*
X043734Y010821D01*
X043768Y010857D01*
X043805Y010891D01*
X043845Y010921D01*
X043886Y010948D01*
X043930Y010972D01*
X043975Y010992D01*
X044022Y011008D01*
X044070Y011021D01*
X044119Y011030D01*
X044169Y011035D01*
X044218Y011036D01*
X044268Y011033D01*
X044317Y011026D01*
X044366Y011015D01*
X044413Y011001D01*
X044459Y010982D01*
X044504Y010960D01*
X044547Y010935D01*
X044587Y010906D01*
X044625Y010874D01*
X044661Y010840D01*
X044694Y010802D01*
X044723Y010762D01*
X044749Y010720D01*
X044772Y010676D01*
X044791Y010630D01*
X044807Y010583D01*
X044819Y010534D01*
X044827Y010485D01*
X044831Y010436D01*
X044831Y010386D01*
X044827Y010337D01*
X044819Y010288D01*
X044807Y010239D01*
X044791Y010192D01*
X044772Y010146D01*
X044749Y010102D01*
X044723Y010060D01*
X044694Y010020D01*
X044661Y009982D01*
X044625Y009948D01*
X044587Y009916D01*
X044547Y009887D01*
X044504Y009862D01*
X044459Y009840D01*
X044413Y009821D01*
X044366Y009807D01*
X044317Y009796D01*
X044268Y009789D01*
X044218Y009786D01*
X044169Y009787D01*
X044119Y009792D01*
X044070Y009801D01*
X044022Y009814D01*
X043975Y009830D01*
X043930Y009850D01*
X043886Y009874D01*
X043845Y009901D01*
X043805Y009931D01*
X043768Y009965D01*
X043734Y010001D01*
X043703Y010040D01*
X043675Y010081D01*
X043651Y010124D01*
X043630Y010169D01*
X043612Y010216D01*
X043599Y010263D01*
X043589Y010312D01*
X043583Y010361D01*
X043581Y010411D01*
X055057Y008038D02*
X055129Y008001D01*
X055203Y007967D01*
X055278Y007936D01*
X055354Y007908D01*
X055431Y007883D01*
X055510Y007862D01*
X055589Y007844D01*
X055669Y007829D01*
X055749Y007817D01*
X055830Y007809D01*
X055911Y007804D01*
X055992Y007802D01*
X043581Y044859D02*
X043583Y044909D01*
X043589Y044958D01*
X043599Y045007D01*
X043612Y045054D01*
X043630Y045101D01*
X043651Y045146D01*
X043675Y045189D01*
X043703Y045230D01*
X043734Y045269D01*
X043768Y045305D01*
X043805Y045339D01*
X043845Y045369D01*
X043886Y045396D01*
X043930Y045420D01*
X043975Y045440D01*
X044022Y045456D01*
X044070Y045469D01*
X044119Y045478D01*
X044169Y045483D01*
X044218Y045484D01*
X044268Y045481D01*
X044317Y045474D01*
X044366Y045463D01*
X044413Y045449D01*
X044459Y045430D01*
X044504Y045408D01*
X044547Y045383D01*
X044587Y045354D01*
X044625Y045322D01*
X044661Y045288D01*
X044694Y045250D01*
X044723Y045210D01*
X044749Y045168D01*
X044772Y045124D01*
X044791Y045078D01*
X044807Y045031D01*
X044819Y044982D01*
X044827Y044933D01*
X044831Y044884D01*
X044831Y044834D01*
X044827Y044785D01*
X044819Y044736D01*
X044807Y044687D01*
X044791Y044640D01*
X044772Y044594D01*
X044749Y044550D01*
X044723Y044508D01*
X044694Y044468D01*
X044661Y044430D01*
X044625Y044396D01*
X044587Y044364D01*
X044547Y044335D01*
X044504Y044310D01*
X044459Y044288D01*
X044413Y044269D01*
X044366Y044255D01*
X044317Y044244D01*
X044268Y044237D01*
X044218Y044234D01*
X044169Y044235D01*
X044119Y044240D01*
X044070Y044249D01*
X044022Y044262D01*
X043975Y044278D01*
X043930Y044298D01*
X043886Y044322D01*
X043845Y044349D01*
X043805Y044379D01*
X043768Y044413D01*
X043734Y044449D01*
X043703Y044488D01*
X043675Y044529D01*
X043651Y044572D01*
X043630Y044617D01*
X043612Y044664D01*
X043599Y044711D01*
X043589Y044760D01*
X043583Y044809D01*
X043581Y044859D01*
X011990Y052193D02*
X011904Y052191D01*
X011818Y052186D01*
X011733Y052176D01*
X011648Y052163D01*
X011564Y052146D01*
X011480Y052126D01*
X011398Y052102D01*
X011317Y052074D01*
X011236Y052043D01*
X011158Y052009D01*
X011081Y051971D01*
X011006Y051929D01*
X010932Y051885D01*
X010861Y051837D01*
X010791Y051786D01*
X010724Y051732D01*
X010660Y051676D01*
X010598Y051616D01*
X006436Y047454D02*
X006376Y047392D01*
X006320Y047328D01*
X006266Y047261D01*
X006215Y047191D01*
X006167Y047120D01*
X006123Y047047D01*
X006081Y046971D01*
X006043Y046894D01*
X006009Y046816D01*
X005978Y046735D01*
X005950Y046654D01*
X005926Y046572D01*
X005906Y046488D01*
X005889Y046404D01*
X005876Y046319D01*
X005866Y046234D01*
X005861Y046148D01*
X005859Y046062D01*
X007833Y044859D02*
X007835Y044909D01*
X007841Y044958D01*
X007851Y045007D01*
X007864Y045054D01*
X007882Y045101D01*
X007903Y045146D01*
X007927Y045189D01*
X007955Y045230D01*
X007986Y045269D01*
X008020Y045305D01*
X008057Y045339D01*
X008097Y045369D01*
X008138Y045396D01*
X008182Y045420D01*
X008227Y045440D01*
X008274Y045456D01*
X008322Y045469D01*
X008371Y045478D01*
X008421Y045483D01*
X008470Y045484D01*
X008520Y045481D01*
X008569Y045474D01*
X008618Y045463D01*
X008665Y045449D01*
X008711Y045430D01*
X008756Y045408D01*
X008799Y045383D01*
X008839Y045354D01*
X008877Y045322D01*
X008913Y045288D01*
X008946Y045250D01*
X008975Y045210D01*
X009001Y045168D01*
X009024Y045124D01*
X009043Y045078D01*
X009059Y045031D01*
X009071Y044982D01*
X009079Y044933D01*
X009083Y044884D01*
X009083Y044834D01*
X009079Y044785D01*
X009071Y044736D01*
X009059Y044687D01*
X009043Y044640D01*
X009024Y044594D01*
X009001Y044550D01*
X008975Y044508D01*
X008946Y044468D01*
X008913Y044430D01*
X008877Y044396D01*
X008839Y044364D01*
X008799Y044335D01*
X008756Y044310D01*
X008711Y044288D01*
X008665Y044269D01*
X008618Y044255D01*
X008569Y044244D01*
X008520Y044237D01*
X008470Y044234D01*
X008421Y044235D01*
X008371Y044240D01*
X008322Y044249D01*
X008274Y044262D01*
X008227Y044278D01*
X008182Y044298D01*
X008138Y044322D01*
X008097Y044349D01*
X008057Y044379D01*
X008020Y044413D01*
X007986Y044449D01*
X007955Y044488D01*
X007927Y044529D01*
X007903Y044572D01*
X007882Y044617D01*
X007864Y044664D01*
X007851Y044711D01*
X007841Y044760D01*
X007835Y044809D01*
X007833Y044859D01*
D11*
X056285Y012885D02*
X056285Y009685D01*
X056285Y012885D02*
X058185Y014785D01*
X058185Y025935D01*
X058235Y029135D02*
X058235Y032335D01*
X058235Y033035D02*
X058235Y036435D01*
X058235Y037335D02*
X058235Y041735D01*
X057735Y042235D01*
X057735Y045985D01*
X057085Y046635D01*
D12*
X058164Y045022D02*
X058166Y045051D01*
X058172Y045079D01*
X058181Y045107D01*
X058194Y045133D01*
X058211Y045156D01*
X058230Y045178D01*
X058252Y045197D01*
X058277Y045212D01*
X058303Y045225D01*
X058331Y045233D01*
X058359Y045238D01*
X058388Y045239D01*
X058417Y045236D01*
X058445Y045229D01*
X058472Y045219D01*
X058498Y045205D01*
X058521Y045188D01*
X058542Y045168D01*
X058560Y045145D01*
X058575Y045120D01*
X058586Y045093D01*
X058594Y045065D01*
X058598Y045036D01*
X058598Y045008D01*
X058594Y044979D01*
X058586Y044951D01*
X058575Y044924D01*
X058560Y044899D01*
X058542Y044876D01*
X058521Y044856D01*
X058498Y044839D01*
X058472Y044825D01*
X058445Y044815D01*
X058417Y044808D01*
X058388Y044805D01*
X058359Y044806D01*
X058331Y044811D01*
X058303Y044819D01*
X058277Y044832D01*
X058252Y044847D01*
X058230Y044866D01*
X058211Y044888D01*
X058194Y044911D01*
X058181Y044937D01*
X058172Y044965D01*
X058166Y044993D01*
X058164Y045022D01*
X060132Y045022D02*
X060134Y045051D01*
X060140Y045079D01*
X060149Y045107D01*
X060162Y045133D01*
X060179Y045156D01*
X060198Y045178D01*
X060220Y045197D01*
X060245Y045212D01*
X060271Y045225D01*
X060299Y045233D01*
X060327Y045238D01*
X060356Y045239D01*
X060385Y045236D01*
X060413Y045229D01*
X060440Y045219D01*
X060466Y045205D01*
X060489Y045188D01*
X060510Y045168D01*
X060528Y045145D01*
X060543Y045120D01*
X060554Y045093D01*
X060562Y045065D01*
X060566Y045036D01*
X060566Y045008D01*
X060562Y044979D01*
X060554Y044951D01*
X060543Y044924D01*
X060528Y044899D01*
X060510Y044876D01*
X060489Y044856D01*
X060466Y044839D01*
X060440Y044825D01*
X060413Y044815D01*
X060385Y044808D01*
X060356Y044805D01*
X060327Y044806D01*
X060299Y044811D01*
X060271Y044819D01*
X060245Y044832D01*
X060220Y044847D01*
X060198Y044866D01*
X060179Y044888D01*
X060162Y044911D01*
X060149Y044937D01*
X060140Y044965D01*
X060134Y044993D01*
X060132Y045022D01*
X058882Y010258D02*
X058884Y010287D01*
X058890Y010315D01*
X058899Y010343D01*
X058912Y010369D01*
X058929Y010392D01*
X058948Y010414D01*
X058970Y010433D01*
X058995Y010448D01*
X059021Y010461D01*
X059049Y010469D01*
X059077Y010474D01*
X059106Y010475D01*
X059135Y010472D01*
X059163Y010465D01*
X059190Y010455D01*
X059216Y010441D01*
X059239Y010424D01*
X059260Y010404D01*
X059278Y010381D01*
X059293Y010356D01*
X059304Y010329D01*
X059312Y010301D01*
X059316Y010272D01*
X059316Y010244D01*
X059312Y010215D01*
X059304Y010187D01*
X059293Y010160D01*
X059278Y010135D01*
X059260Y010112D01*
X059239Y010092D01*
X059216Y010075D01*
X059190Y010061D01*
X059163Y010051D01*
X059135Y010044D01*
X059106Y010041D01*
X059077Y010042D01*
X059049Y010047D01*
X059021Y010055D01*
X058995Y010068D01*
X058970Y010083D01*
X058948Y010102D01*
X058929Y010124D01*
X058912Y010147D01*
X058899Y010173D01*
X058890Y010201D01*
X058884Y010229D01*
X058882Y010258D01*
X056914Y010258D02*
X056916Y010287D01*
X056922Y010315D01*
X056931Y010343D01*
X056944Y010369D01*
X056961Y010392D01*
X056980Y010414D01*
X057002Y010433D01*
X057027Y010448D01*
X057053Y010461D01*
X057081Y010469D01*
X057109Y010474D01*
X057138Y010475D01*
X057167Y010472D01*
X057195Y010465D01*
X057222Y010455D01*
X057248Y010441D01*
X057271Y010424D01*
X057292Y010404D01*
X057310Y010381D01*
X057325Y010356D01*
X057336Y010329D01*
X057344Y010301D01*
X057348Y010272D01*
X057348Y010244D01*
X057344Y010215D01*
X057336Y010187D01*
X057325Y010160D01*
X057310Y010135D01*
X057292Y010112D01*
X057271Y010092D01*
X057248Y010075D01*
X057222Y010061D01*
X057195Y010051D01*
X057167Y010044D01*
X057138Y010041D01*
X057109Y010042D01*
X057081Y010047D01*
X057053Y010055D01*
X057027Y010068D01*
X057002Y010083D01*
X056980Y010102D01*
X056961Y010124D01*
X056944Y010147D01*
X056931Y010173D01*
X056922Y010201D01*
X056916Y010229D01*
X056914Y010258D01*
M02*
