G75*
%MOIN*%
%OFA0B0*%
%FSLAX24Y24*%
%IPPOS*%
%LPD*%
%AMOC8*
5,1,8,0,0,1.08239X$1,22.5*
%
%ADD10R,0.0513X0.0474*%
%ADD11R,0.0474X0.0513*%
%ADD12R,0.0552X0.0395*%
%ADD13C,0.0789*%
%ADD14C,0.0615*%
%ADD15C,0.0513*%
%ADD16C,0.0595*%
%ADD17C,0.0360*%
%ADD18C,0.0437*%
%ADD19C,0.0476*%
D10*
X012820Y009935D03*
X013490Y009935D03*
X011980Y013015D03*
X011310Y013015D03*
X013855Y013875D03*
X014525Y013875D03*
X014475Y020740D03*
X013805Y020740D03*
X013805Y027665D03*
X014475Y027665D03*
X014335Y034565D03*
X013665Y034565D03*
X013750Y041385D03*
X014420Y041385D03*
X012460Y042325D03*
X011790Y042325D03*
X013020Y043515D03*
X013690Y043515D03*
X030600Y045435D03*
X031270Y045435D03*
X031665Y041435D03*
X032335Y041435D03*
X032370Y034525D03*
X031700Y034525D03*
X031800Y020735D03*
X032470Y020735D03*
X032370Y013835D03*
X031700Y013835D03*
X031820Y010535D03*
X031150Y010535D03*
X048970Y010195D03*
X049640Y010195D03*
X049670Y009135D03*
X049000Y009135D03*
X049580Y013845D03*
X050250Y013845D03*
X050285Y020735D03*
X049615Y020735D03*
X049620Y027635D03*
X050290Y027635D03*
X050220Y034535D03*
X049550Y034535D03*
X049600Y041425D03*
X050270Y041425D03*
X049650Y044855D03*
X048980Y044855D03*
D11*
X048985Y043230D03*
X048985Y042560D03*
X048025Y039170D03*
X048025Y038500D03*
X047995Y036230D03*
X047995Y035560D03*
X047885Y032550D03*
X047885Y031880D03*
X047915Y030685D03*
X047915Y030015D03*
X051355Y032510D03*
X051355Y033180D03*
X046955Y026370D03*
X046955Y025700D03*
X047475Y022710D03*
X047475Y022040D03*
X047955Y019210D03*
X047955Y018540D03*
X048195Y016100D03*
X048195Y015430D03*
X048515Y012430D03*
X048515Y011760D03*
X030935Y012000D03*
X030935Y012670D03*
X030785Y015400D03*
X030785Y016070D03*
X030335Y018650D03*
X030335Y019320D03*
X030185Y022550D03*
X030185Y023220D03*
X029635Y026900D03*
X029635Y027570D03*
X029735Y029830D03*
X029735Y030500D03*
X029435Y032950D03*
X029435Y033620D03*
X029585Y035700D03*
X029585Y036370D03*
X030085Y039700D03*
X030085Y040370D03*
X030235Y042950D03*
X030235Y043620D03*
X033465Y032770D03*
X033465Y032100D03*
X032420Y028405D03*
X032420Y027735D03*
X015785Y032010D03*
X015785Y032680D03*
X011965Y032760D03*
X011965Y032090D03*
X011615Y030000D03*
X011615Y029330D03*
X011625Y027060D03*
X011625Y026390D03*
X012315Y023480D03*
X012315Y022810D03*
X012735Y019230D03*
X012735Y018560D03*
X013045Y016530D03*
X013045Y015860D03*
X014290Y009155D03*
X014290Y008485D03*
X011965Y035680D03*
X011965Y036350D03*
X012035Y039160D03*
X012035Y039830D03*
D12*
X015785Y031429D03*
X015785Y030721D03*
X015775Y030079D03*
X015775Y029371D03*
X033465Y030731D03*
X033465Y031439D03*
X051365Y031176D03*
X051370Y030579D03*
X051370Y029871D03*
X051365Y031884D03*
D13*
X011085Y010405D03*
X014865Y007455D03*
X015355Y013855D03*
X011085Y017305D03*
X015355Y020745D03*
X011085Y024195D03*
X015355Y027635D03*
X011085Y031085D03*
X015355Y034525D03*
X011085Y037965D03*
X015355Y041415D03*
X011085Y044855D03*
X014865Y047815D03*
X028955Y044855D03*
X032735Y047805D03*
X033225Y041415D03*
X028955Y037975D03*
X033225Y034525D03*
X028955Y031075D03*
X033225Y027635D03*
X028955Y024195D03*
X033225Y020735D03*
X028955Y017295D03*
X033225Y013845D03*
X028955Y010405D03*
X032735Y007455D03*
X046835Y010415D03*
X050605Y007455D03*
X051095Y013855D03*
X046835Y017305D03*
X051105Y020755D03*
X046835Y024195D03*
X051105Y027635D03*
X046835Y031085D03*
X051105Y034525D03*
X046825Y037965D03*
X051105Y041415D03*
X046835Y044855D03*
X050615Y047815D03*
D14*
X058971Y044462D02*
X058971Y043928D01*
X059759Y043928D02*
X059759Y044462D01*
X058509Y011352D02*
X058509Y010818D01*
X057721Y010818D02*
X057721Y011352D01*
D15*
X057131Y010258D03*
X059099Y010258D03*
X058381Y045022D03*
X060349Y045022D03*
D16*
X053135Y044681D03*
X053135Y045389D03*
X053085Y038489D03*
X053085Y037781D03*
X052995Y024539D03*
X052995Y023831D03*
X052905Y010749D03*
X052905Y010041D03*
X034285Y010051D03*
X034285Y010759D03*
X034215Y023821D03*
X034215Y024529D03*
X034125Y037771D03*
X034125Y038479D03*
X034105Y044671D03*
X034105Y045379D03*
X016415Y045389D03*
X016415Y044681D03*
X016435Y038459D03*
X016435Y037751D03*
X016415Y024519D03*
X016415Y023811D03*
X016395Y010769D03*
X016395Y010061D03*
D17*
X012235Y009925D03*
X012095Y012515D03*
X011185Y013875D03*
X013145Y015315D03*
X012935Y017345D03*
X012655Y020215D03*
X012445Y022175D03*
X012235Y024065D03*
X011735Y025845D03*
X011625Y027575D03*
X011675Y028825D03*
X011675Y030575D03*
X011745Y034005D03*
X011885Y035195D03*
X012025Y037575D03*
X011955Y040725D03*
X010825Y041825D03*
X012935Y042895D03*
X014475Y043455D03*
X018785Y037845D03*
X017875Y036485D03*
X017895Y035405D03*
X018025Y034345D03*
X018205Y033275D03*
X019765Y032595D03*
X018185Y031645D03*
X017695Y031515D03*
X016255Y032025D03*
X016345Y032725D03*
X016255Y030415D03*
X017625Y029785D03*
X018045Y030015D03*
X019455Y030435D03*
X020265Y029375D03*
X019115Y027035D03*
X020305Y025955D03*
X019695Y025455D03*
X020075Y023665D03*
X017535Y025255D03*
X016165Y022115D03*
X016855Y021793D03*
X017645Y020990D03*
X029535Y028135D03*
X029885Y029185D03*
X029935Y026385D03*
X030035Y023835D03*
X030335Y021885D03*
X029985Y020285D03*
X030635Y018135D03*
X030635Y016885D03*
X030935Y014885D03*
X030085Y013385D03*
X031035Y011385D03*
X031675Y009265D03*
X047125Y020305D03*
X047605Y021555D03*
X047335Y023645D03*
X047085Y025155D03*
X047105Y027215D03*
X046885Y028725D03*
X047905Y031355D03*
X047755Y033735D03*
X047985Y035075D03*
X048035Y037325D03*
X048905Y040685D03*
X048885Y041835D03*
X048975Y043725D03*
X050155Y045285D03*
X057265Y040895D03*
X056685Y038055D03*
X055825Y037325D03*
X054065Y036675D03*
X054065Y035645D03*
X054155Y034675D03*
X054295Y033665D03*
X054735Y031915D03*
X053305Y031545D03*
X053375Y030775D03*
X051935Y030575D03*
X052025Y030115D03*
X052125Y029575D03*
X051965Y032345D03*
X051915Y033145D03*
X053105Y036725D03*
X056755Y035615D03*
X056505Y033645D03*
X056425Y030385D03*
X054765Y025895D03*
X054135Y022595D03*
X054055Y021955D03*
X048005Y017875D03*
X048080Y016910D03*
X048440Y014730D03*
X047905Y013435D03*
X048445Y011195D03*
X048900Y009620D03*
X050235Y009445D03*
X035875Y024578D03*
X036275Y025695D03*
X034855Y025555D03*
X034975Y027755D03*
X034235Y029575D03*
X034125Y030195D03*
X035385Y031445D03*
X036315Y031945D03*
X036035Y033335D03*
X035885Y034335D03*
X035885Y035385D03*
X035885Y036435D03*
X035215Y036375D03*
X034035Y032735D03*
X034035Y032135D03*
X029435Y032435D03*
X029435Y034135D03*
X029585Y035235D03*
X029635Y037385D03*
X030135Y039035D03*
X030135Y040985D03*
X030235Y042385D03*
X030285Y044585D03*
X032335Y045685D03*
X038075Y045845D03*
X038525Y045595D03*
X021835Y047365D03*
X021345Y047775D03*
D18*
X023415Y043505D03*
X023465Y040055D03*
X025365Y039005D03*
X023415Y037005D03*
X022765Y034455D03*
X025065Y032955D03*
X027065Y032455D03*
X026115Y030755D03*
X022665Y030955D03*
X022865Y028755D03*
X022815Y025755D03*
X025215Y024255D03*
X022665Y022705D03*
X022615Y019305D03*
X022765Y016805D03*
X023515Y013905D03*
X023215Y010555D03*
X025765Y010005D03*
X025665Y008155D03*
X027115Y005805D03*
X030915Y006705D03*
X031215Y006205D03*
X031715Y008655D03*
X030365Y010555D03*
X029665Y014905D03*
X030015Y017755D03*
X032745Y017065D03*
X033935Y019515D03*
X029665Y021705D03*
X025765Y018305D03*
X027815Y026305D03*
X036575Y027445D03*
X038385Y032150D03*
X037875Y033895D03*
X031845Y035085D03*
X029665Y039205D03*
X029315Y042405D03*
X026165Y035555D03*
X017255Y037425D03*
X016435Y029485D03*
X014265Y009855D03*
X041715Y010665D03*
X046445Y014755D03*
X046625Y011915D03*
X043955Y018085D03*
X046145Y018935D03*
X045955Y021605D03*
X043985Y024155D03*
X045115Y025835D03*
X044805Y028595D03*
X044075Y030525D03*
X044535Y032425D03*
X044195Y035315D03*
X046795Y039065D03*
X051155Y037195D03*
X056605Y033035D03*
X048155Y044195D03*
X051425Y046815D03*
X048955Y051215D03*
X041405Y045095D03*
X040165Y046985D03*
X040595Y051125D03*
D19*
X046285Y041335D03*
X045185Y034685D03*
X045485Y028185D03*
X045185Y021335D03*
X045375Y014465D03*
X057735Y012685D03*
X027285Y035135D03*
X027085Y028735D03*
X027235Y021385D03*
X027235Y014585D03*
X011885Y021545D03*
X009155Y021125D03*
X006845Y020985D03*
X005795Y018535D03*
X003415Y016365D03*
X002785Y013425D03*
X006495Y015315D03*
X009085Y014545D03*
X006915Y011395D03*
X010765Y018745D03*
X006845Y024345D03*
X006845Y026305D03*
X005165Y027845D03*
X002785Y028125D03*
X005515Y030575D03*
X006635Y032395D03*
X005095Y033655D03*
X002785Y034075D03*
X002715Y037155D03*
X005025Y039605D03*
X007055Y038765D03*
X006495Y035825D03*
X009085Y035125D03*
X002715Y031065D03*
X002785Y025255D03*
X002785Y022455D03*
X002715Y019305D03*
X008735Y028615D03*
X002995Y040235D03*
X005025Y042545D03*
X002715Y042965D03*
X001893Y043245D03*
X009015Y041355D03*
X012585Y041385D03*
X015735Y042965D03*
X011955Y046185D03*
X011045Y047165D03*
X009995Y045555D03*
X012235Y048915D03*
X027385Y042035D03*
M02*
