%
M48
M72
T01C0.0120
T02C0.0197
T03C0.0236
T04C0.0295
T05C0.0315
T06C0.0335
T07C0.0382
T08C0.0400
T09C0.0433
T10C0.0472
T11C0.0591
T12C0.0635
T13C0.0640
T14C0.0917
T15C0.1252
T16C0.1900
%
T01
X6686Y22443
X6686Y22813
X7056Y22823
X7056Y22453
X7426Y22473
X7816Y22473
X8186Y22473
X7436Y23573
X7046Y23573
X7056Y23213
X6686Y23203
X6676Y23573
X6736Y24713
X7756Y27613
X10526Y33003
X11136Y32663
X13076Y33463
X14276Y34973
X15356Y33933
X17036Y35143
X15826Y36833
X15806Y38013
X16256Y38623
X17086Y39533
X16406Y39943
X15716Y39953
X15106Y39573
X14706Y38583
X14276Y38823
X14136Y38183
X14636Y38023
X18136Y39553
X18426Y38013
X18746Y37703
X20456Y35983
X21606Y33453
X23126Y33813
X24316Y35243
X25066Y34733
X25416Y35223
X26096Y34273
X27006Y35753
X27736Y35743
X28326Y36443
X28786Y36113
X28686Y35313
X28356Y34943
X27896Y34013
X28636Y33263
X28216Y32983
X27866Y32633
X27516Y31793
X26886Y31463
X26376Y30783
X25966Y30363
X24516Y32193
X24106Y36693
X23576Y36693
X23316Y37723
X23606Y38083
X22706Y38443
X23086Y39253
X20996Y39603
X20886Y40183
X20476Y41103
X17276Y44523
X16596Y44523
X14896Y42863
X14106Y42863
X13326Y42873
X12536Y42863
X25436Y38073
X26506Y38373
X28146Y41053
X27406Y42903
X26846Y42773
X29036Y38283
X29556Y38213
X31786Y38233
X32986Y38963
X31966Y39953
X33856Y32633
X30406Y31193
X28636Y29243
X26976Y27703
X26006Y26233
X23906Y24503
X22606Y23503
X24726Y22543
X22866Y19883
X28106Y16513
X28856Y16843
X28856Y17683
X30366Y18283
X29846Y16253
X31306Y15923
X32926Y16113
X33836Y14163
X35446Y18563
X31976Y20783
X30136Y22183
X29026Y20523
X28806Y26183
X30396Y26803
X34516Y27723
X34666Y27293
X35086Y27723
X35086Y28203
X34696Y28703
X34526Y28213
X35826Y28653
X35706Y27253
X36066Y22323
T02
X37536Y24043
X34606Y29703
X31066Y26143
X31736Y14203
X15756Y20613
X14706Y26383
X11436Y34323
X7296Y30783
X6876Y33213
X11846Y41163
X11726Y44463
T03
X8186Y37743
X13236Y28353
X13006Y17983
X27856Y13613
X37146Y37803
X24446Y42143
X19636Y40073
T04
X28840Y12103
X29628Y12103
X30415Y12103
X31202Y12103
X31990Y12103
X32777Y12103
X33565Y12103
X34352Y12103
T05
X32966Y44030
X30997Y44030
T06
X37422Y41703
X38210Y41703
X7960Y41743
X7172Y41743
T07
X20365Y41808
X20353Y42588
X21342Y42592
X21342Y41800
T08
X8396Y11233
X8296Y12233
X8396Y13233
X17283Y36652
X17283Y37752
X24906Y43883
X25906Y43983
X26906Y43883
X27906Y43983
X28906Y43883
X28322Y39903
X28322Y38803
X29553Y36426
X30553Y36326
X31553Y36426
T09
X36832Y42530
X38800Y42530
X34943Y11277
X28250Y11277
X8550Y42570
X6582Y42570
T10
X30603Y43045
X33359Y43045
T11
X19168Y27223
X17168Y31223
X15168Y27223
X9168Y27223
X9168Y29223
X9168Y31223
X11486Y13258
X11486Y11628
X15346Y11628
X15346Y13258
X18996Y13258
X18996Y11628
X22986Y11598
X22986Y13228
T12
X33196Y21423
T13
X30896Y21423
X28596Y21423
X26296Y21423
X23996Y21423
X23996Y19063
X26296Y19063
X28596Y19063
X30896Y19063
X21696Y19063
X19396Y19063
X17096Y19063
X14786Y19073
X14796Y21423
X17096Y21423
X19396Y21423
X21696Y21423
T14
X23216Y43651
X18475Y43651
T15
X18996Y9876
X15346Y9876
X11486Y9876
X22986Y9846
T16
X37346Y20243
X8346Y20243
M30
