G75*
%MOIN*%
%OFA0B0*%
%FSLAX24Y24*%
%IPPOS*%
%LPD*%
%AMOC8*
5,1,8,0,0,1.08239X$1,22.5*
%
%ADD10R,0.0748X0.0433*%
%ADD11R,0.0450X0.0800*%
%ADD12R,0.0472X0.0315*%
%ADD13R,0.0472X0.0472*%
%ADD14R,0.0450X0.0165*%
%ADD15R,0.0630X0.0118*%
%ADD16R,0.0315X0.0354*%
%ADD17R,0.0315X0.0472*%
%ADD18R,0.0394X0.0130*%
%ADD19R,0.0217X0.0472*%
%ADD20R,0.0197X0.0591*%
%ADD21R,0.0591X0.0197*%
%ADD22R,0.0472X0.0217*%
%ADD23R,0.0787X0.1811*%
%ADD24R,0.1181X0.0630*%
%ADD25R,0.2250X0.1900*%
%ADD26R,0.0579X0.0500*%
%ADD27R,0.0118X0.0394*%
%ADD28R,0.0394X0.0433*%
%ADD29R,0.0177X0.0413*%
%ADD30R,0.0945X0.0909*%
%ADD31R,0.0591X0.1181*%
%ADD32R,0.1063X0.1004*%
%ADD33R,0.1004X0.1063*%
%ADD34R,0.0591X0.0512*%
%ADD35R,0.0512X0.0591*%
%ADD36R,0.1181X0.0591*%
%ADD37R,0.0433X0.0394*%
D10*
X024643Y028528D03*
X024643Y029433D03*
X026100Y029433D03*
X026100Y028528D03*
D11*
X033598Y037789D03*
X033598Y038789D03*
X033598Y039789D03*
X036248Y039789D03*
X036248Y038789D03*
X036248Y037789D03*
X011566Y037789D03*
X011566Y038789D03*
X011566Y039789D03*
X008916Y039789D03*
X008916Y038789D03*
X008916Y037789D03*
D12*
X012736Y038434D03*
X012736Y039143D03*
X013591Y039823D03*
X013591Y040531D03*
X014333Y040549D03*
X014333Y039841D03*
X015675Y040658D03*
X015675Y041367D03*
X011686Y041699D03*
X011686Y042408D03*
X020011Y038045D03*
X020011Y037337D03*
X023195Y039731D03*
X023195Y040440D03*
X029596Y035288D03*
X029596Y034579D03*
X030556Y034579D03*
X030556Y035288D03*
X031516Y035288D03*
X031516Y034579D03*
X032922Y034134D03*
X032922Y033425D03*
X032428Y038434D03*
X032428Y039143D03*
X027151Y029328D03*
X027151Y028620D03*
X023691Y028490D03*
X023691Y029198D03*
X030876Y025598D03*
X030876Y024889D03*
X035476Y019778D03*
X035476Y019069D03*
X029493Y015738D03*
X029493Y015030D03*
X027416Y014989D03*
X027416Y015698D03*
X007070Y025591D03*
X007070Y026300D03*
D13*
X011831Y021633D03*
X012657Y021633D03*
X024716Y025430D03*
X025476Y025430D03*
X025476Y026257D03*
X024716Y026257D03*
X011676Y043050D03*
X011676Y043877D03*
X012535Y044237D03*
X013323Y044237D03*
X014110Y044237D03*
X014898Y044237D03*
X015685Y044237D03*
X016441Y043908D03*
X016441Y043081D03*
X017269Y043070D03*
X017269Y043897D03*
X015685Y043411D03*
X014898Y043411D03*
X014110Y043411D03*
X013323Y043411D03*
X012535Y043411D03*
D14*
X020282Y040646D03*
X020282Y040396D03*
X020282Y040146D03*
X020282Y039896D03*
X020282Y039646D03*
X020282Y039396D03*
X020282Y039146D03*
X020282Y038896D03*
X022362Y038896D03*
X022362Y039146D03*
X022362Y039396D03*
X022362Y039646D03*
X022362Y039896D03*
X022362Y040146D03*
X022362Y040396D03*
X022362Y040646D03*
D15*
X022120Y038428D03*
X022120Y038172D03*
X022120Y037912D03*
X022120Y037656D03*
X020777Y037656D03*
X020781Y037912D03*
X020781Y038170D03*
X020785Y038424D03*
D16*
X007482Y028512D03*
X006734Y028512D03*
X007108Y027686D03*
D17*
X010270Y021643D03*
X010978Y021643D03*
X007460Y029184D03*
X006751Y029184D03*
X013762Y036376D03*
X013766Y037071D03*
X014475Y037071D03*
X014471Y036376D03*
X017788Y034389D03*
X018496Y034389D03*
X025022Y041933D03*
X025731Y041933D03*
X025721Y042703D03*
X025012Y042703D03*
X030485Y041309D03*
X031194Y041309D03*
X031192Y040575D03*
X030484Y040575D03*
X026191Y024483D03*
X026191Y023763D03*
X025482Y023763D03*
X025482Y024483D03*
X027082Y022423D03*
X027791Y022423D03*
X028562Y023223D03*
X029271Y023223D03*
X032142Y019233D03*
X032851Y019233D03*
X034122Y019883D03*
X034831Y019883D03*
X034511Y017763D03*
X033802Y017763D03*
X035352Y017743D03*
X036061Y017743D03*
X026412Y017219D03*
X025704Y017219D03*
X023271Y022383D03*
X022562Y022383D03*
D18*
X015323Y037700D03*
X015323Y037896D03*
X015323Y038093D03*
X015323Y038290D03*
X015323Y038487D03*
X015323Y038684D03*
X015323Y038881D03*
X015323Y039077D03*
X013650Y039077D03*
X013650Y038881D03*
X013650Y038684D03*
X013650Y038487D03*
X013650Y038290D03*
X013650Y038093D03*
X013650Y037896D03*
X013650Y037700D03*
X029706Y038530D03*
X029706Y038726D03*
X029706Y038923D03*
X029706Y039120D03*
X029706Y039317D03*
X029706Y039514D03*
X029706Y039711D03*
X029706Y039907D03*
X031379Y039907D03*
X031379Y039711D03*
X031379Y039514D03*
X031379Y039317D03*
X031379Y039120D03*
X031379Y038923D03*
X031379Y038726D03*
X031379Y038530D03*
D19*
X031782Y015895D03*
X032156Y015895D03*
X032530Y015895D03*
X032530Y014871D03*
X031782Y014871D03*
X030850Y014791D03*
X030476Y014791D03*
X030102Y014791D03*
X030102Y015815D03*
X030850Y015815D03*
X028850Y015815D03*
X028102Y015815D03*
X028102Y014791D03*
X028476Y014791D03*
X028850Y014791D03*
D20*
X026198Y031410D03*
X025883Y031410D03*
X025568Y031410D03*
X025253Y031410D03*
X024938Y031410D03*
X024623Y031410D03*
X024308Y031410D03*
X023993Y031410D03*
X023678Y031410D03*
X023363Y031410D03*
X023048Y031410D03*
X023048Y035977D03*
X023363Y035977D03*
X023678Y035977D03*
X023993Y035977D03*
X024308Y035977D03*
X024623Y035977D03*
X024938Y035977D03*
X025253Y035977D03*
X025568Y035977D03*
X025883Y035977D03*
X026198Y035977D03*
D21*
X026906Y035268D03*
X026906Y034953D03*
X026906Y034638D03*
X026906Y034323D03*
X026906Y034008D03*
X026906Y033693D03*
X026906Y033378D03*
X026906Y033063D03*
X026906Y032749D03*
X026906Y032434D03*
X026906Y032119D03*
X022340Y032119D03*
X022340Y032434D03*
X022340Y032749D03*
X022340Y033063D03*
X022340Y033378D03*
X022340Y033693D03*
X022340Y034008D03*
X022340Y034323D03*
X022340Y034638D03*
X022340Y034953D03*
X022340Y035268D03*
D22*
X019548Y035363D03*
X019548Y034989D03*
X019548Y035737D03*
X018524Y035737D03*
X018524Y034989D03*
X033614Y019257D03*
X033614Y018883D03*
X033614Y018509D03*
X034638Y018509D03*
X034638Y018883D03*
X034638Y019257D03*
D23*
X014561Y023873D03*
X012632Y023873D03*
D24*
X007774Y022989D03*
X007774Y024784D03*
D25*
X010490Y023887D03*
D26*
X030906Y024190D03*
X030906Y022497D03*
D27*
X027850Y023205D03*
X027594Y023205D03*
X027338Y023205D03*
X027082Y023205D03*
X027082Y024731D03*
X027338Y024731D03*
X027594Y024731D03*
X027850Y024731D03*
D28*
X027456Y025459D03*
X027456Y026128D03*
X026646Y026148D03*
X026646Y025479D03*
X028326Y025449D03*
X028326Y026118D03*
X032532Y026853D03*
X033201Y026853D03*
X033181Y028233D03*
X032512Y028233D03*
X035202Y029923D03*
X035871Y029923D03*
X035891Y025963D03*
X035222Y025963D03*
D29*
X035178Y026832D03*
X034922Y026832D03*
X034666Y026832D03*
X034411Y026832D03*
X034155Y026832D03*
X033899Y026832D03*
X035434Y026832D03*
X035690Y026832D03*
X035702Y029135D03*
X035446Y029135D03*
X035190Y029135D03*
X034934Y029135D03*
X034678Y029135D03*
X034422Y029135D03*
X034166Y029135D03*
X033911Y029135D03*
D30*
X034806Y027983D03*
D31*
X035197Y031023D03*
X034016Y031023D03*
D32*
X030886Y032021D03*
X030886Y029525D03*
X037376Y025601D03*
X037376Y023105D03*
D33*
X035184Y022603D03*
X032688Y022603D03*
X034018Y032793D03*
X036514Y032793D03*
D34*
X033126Y031308D03*
X033126Y030639D03*
D35*
X033161Y029893D03*
X032492Y029893D03*
X032252Y025563D03*
X032921Y025563D03*
X032942Y024093D03*
X033611Y024093D03*
D36*
X035316Y024123D03*
X035316Y025304D03*
D37*
X034286Y025289D03*
X034286Y025958D03*
M02*
