G75*
%MOIN*%
%OFA0B0*%
%FSLAX25Y25*%
%IPPOS*%
%LPD*%
%AMOC8*
5,1,8,0,0,1.08239X$1,22.5*
%
%ADD10C,0.02400*%
%ADD11C,0.03200*%
%ADD12R,0.03300X0.05800*%
%ADD13C,0.13800*%
%ADD14R,0.08800X0.05300*%
%ADD15R,0.05800X0.03300*%
%ADD16R,0.03950X0.05524*%
%ADD17R,0.05524X0.05524*%
%ADD18R,0.02450X0.05300*%
%ADD19R,0.01981X0.07099*%
%ADD20R,0.08200X0.08200*%
%ADD21C,0.08200*%
%ADD22R,0.12611X0.07099*%
%ADD23R,0.23300X0.19800*%
%ADD24R,0.05800X0.06587*%
%ADD25R,0.05524X0.03950*%
%ADD26R,0.03950X0.04343*%
%ADD27R,0.02099X0.04737*%
%ADD28R,0.08280X0.07099*%
%ADD29R,0.07099X0.08280*%
%ADD30R,0.04737X0.03556*%
%ADD31C,0.09658*%
%ADD32R,0.05524X0.02965*%
%ADD33R,0.02769X0.06706*%
%ADD34R,0.06706X0.02769*%
%ADD35C,0.10400*%
%ADD36C,0.07150*%
%ADD37C,0.19800*%
%ADD38C,0.13320*%
%ADD39C,0.05169*%
%ADD40C,0.07200*%
%ADD41R,0.08674X0.18910*%
%ADD42R,0.01981X0.04737*%
%ADD43R,0.17675X0.00035*%
%ADD44R,0.00070X0.00035*%
%ADD45R,0.00035X0.00035*%
%ADD46R,0.00070X0.00035*%
%ADD47R,0.00840X0.00035*%
%ADD48R,0.00910X0.00035*%
%ADD49R,0.00945X0.00035*%
%ADD50R,0.02030X0.00035*%
%ADD51R,0.00875X0.00035*%
%ADD52R,0.01295X0.00035*%
%ADD53R,0.00245X0.00035*%
%ADD54R,0.00455X0.00035*%
%ADD55R,0.00105X0.00035*%
%ADD56R,0.01470X0.00035*%
%ADD57R,0.01295X0.00035*%
%ADD58R,0.01470X0.00035*%
%ADD59R,0.00350X0.00035*%
%ADD60R,0.01750X0.00035*%
%ADD61R,0.01610X0.00035*%
%ADD62R,0.01400X0.00035*%
%ADD63R,0.01575X0.00035*%
%ADD64R,0.00385X0.00035*%
%ADD65R,0.01645X0.00035*%
%ADD66R,0.01540X0.00035*%
%ADD67R,0.01645X0.00035*%
%ADD68R,0.01715X0.00035*%
%ADD69R,0.01820X0.00035*%
%ADD70R,0.01785X0.00035*%
%ADD71R,0.00315X0.00035*%
%ADD72R,0.00175X0.00035*%
%ADD73R,0.00140X0.00035*%
%ADD74R,0.00140X0.00035*%
%ADD75R,0.01820X0.00035*%
%ADD76R,0.01680X0.00035*%
%ADD77R,0.00210X0.00035*%
%ADD78R,0.01890X0.00035*%
%ADD79R,0.01855X0.00035*%
%ADD80R,0.00735X0.00035*%
%ADD81R,0.00490X0.00035*%
%ADD82R,0.00525X0.00035*%
%ADD83R,0.00420X0.00035*%
%ADD84R,0.00420X0.00035*%
%ADD85R,0.01330X0.00035*%
%ADD86R,0.00980X0.00035*%
%ADD87R,0.01085X0.00035*%
%ADD88R,0.01960X0.00035*%
%ADD89R,0.01925X0.00035*%
%ADD90R,0.01365X0.00035*%
%ADD91R,0.01505X0.00035*%
%ADD92R,0.17710X0.00035*%
%ADD93R,0.02485X0.00035*%
%ADD94R,0.01050X0.00035*%
%ADD95R,0.01260X0.00035*%
%ADD96R,0.00770X0.00035*%
%ADD97R,0.01435X0.00035*%
%ADD98R,0.09170X0.00035*%
%ADD99R,0.02835X0.00035*%
%ADD100R,0.02870X0.00035*%
%ADD101R,0.08225X0.00035*%
%ADD102R,0.03535X0.00035*%
%ADD103R,0.08575X0.00035*%
%ADD104R,0.03570X0.00035*%
%ADD105R,0.08785X0.00035*%
%ADD106R,0.02800X0.00035*%
%ADD107R,0.08925X0.00035*%
%ADD108R,0.02870X0.00035*%
%ADD109R,0.09100X0.00035*%
%ADD110R,0.09205X0.00035*%
%ADD111R,0.09275X0.00035*%
%ADD112R,0.09345X0.00035*%
%ADD113R,0.09450X0.00035*%
%ADD114R,0.04305X0.00035*%
%ADD115R,0.03850X0.00035*%
%ADD116R,0.03605X0.00035*%
%ADD117R,0.00315X0.00035*%
%ADD118R,0.03465X0.00035*%
%ADD119R,0.03570X0.00035*%
%ADD120R,0.00700X0.00035*%
%ADD121R,0.03325X0.00035*%
%ADD122R,0.00595X0.00035*%
%ADD123R,0.03220X0.00035*%
%ADD124R,0.00560X0.00035*%
%ADD125R,0.03115X0.00035*%
%ADD126R,0.03010X0.00035*%
%ADD127R,0.02940X0.00035*%
%ADD128R,0.02905X0.00035*%
%ADD129R,0.02765X0.00035*%
%ADD130R,0.02695X0.00035*%
%ADD131R,0.02660X0.00035*%
%ADD132R,0.02625X0.00035*%
%ADD133R,0.02590X0.00035*%
%ADD134R,0.02555X0.00035*%
%ADD135R,0.02520X0.00035*%
%ADD136R,0.02450X0.00035*%
%ADD137R,0.02415X0.00035*%
%ADD138R,0.02380X0.00035*%
%ADD139R,0.02345X0.00035*%
%ADD140R,0.02275X0.00035*%
%ADD141R,0.02240X0.00035*%
%ADD142R,0.02205X0.00035*%
%ADD143R,0.02170X0.00035*%
%ADD144R,0.02135X0.00035*%
%ADD145R,0.04480X0.00035*%
%ADD146R,0.03360X0.00035*%
%ADD147R,0.04690X0.00035*%
%ADD148R,0.02100X0.00035*%
%ADD149R,0.04865X0.00035*%
%ADD150R,0.03675X0.00035*%
%ADD151R,0.04970X0.00035*%
%ADD152R,0.03780X0.00035*%
%ADD153R,0.05425X0.00035*%
%ADD154R,0.05075X0.00035*%
%ADD155R,0.05355X0.00035*%
%ADD156R,0.05110X0.00035*%
%ADD157R,0.03920X0.00035*%
%ADD158R,0.05320X0.00035*%
%ADD159R,0.05180X0.00035*%
%ADD160R,0.03955X0.00035*%
%ADD161R,0.02065X0.00035*%
%ADD162R,0.05285X0.00035*%
%ADD163R,0.05250X0.00035*%
%ADD164R,0.03990X0.00035*%
%ADD165R,0.05215X0.00035*%
%ADD166R,0.04025X0.00035*%
%ADD167R,0.05145X0.00035*%
%ADD168R,0.01155X0.00035*%
%ADD169R,0.00665X0.00035*%
%ADD170R,0.00630X0.00035*%
%ADD171R,0.05005X0.00035*%
%ADD172R,0.00595X0.00035*%
%ADD173R,0.02170X0.00035*%
%ADD174R,0.06265X0.00035*%
%ADD175R,0.03185X0.00035*%
%ADD176R,0.03255X0.00035*%
%ADD177R,0.00490X0.00035*%
%ADD178R,0.06230X0.00035*%
%ADD179R,0.06510X0.00035*%
%ADD180R,0.03500X0.00035*%
%ADD181R,0.06195X0.00035*%
%ADD182R,0.06125X0.00035*%
%ADD183R,0.04935X0.00035*%
%ADD184R,0.04060X0.00035*%
%ADD185R,0.00805X0.00035*%
%ADD186R,0.00665X0.00035*%
%ADD187R,0.03430X0.00035*%
%ADD188R,0.03710X0.00035*%
%ADD189R,0.03815X0.00035*%
%ADD190R,0.03465X0.00035*%
%ADD191R,0.05040X0.00035*%
%ADD192R,0.06090X0.00035*%
%ADD193R,0.06475X0.00035*%
%ADD194R,0.06755X0.00035*%
%ADD195R,0.07000X0.00035*%
%ADD196R,0.07280X0.00035*%
%ADD197R,0.04165X0.00035*%
%ADD198R,0.07945X0.00035*%
%ADD199R,0.03150X0.00035*%
%ADD200R,0.02310X0.00035*%
%ADD201R,0.01015X0.00035*%
%ADD202R,0.03745X0.00035*%
%ADD203R,0.05390X0.00035*%
%ADD204R,0.02240X0.00035*%
%ADD205R,0.03395X0.00035*%
%ADD206R,0.03640X0.00035*%
%ADD207R,0.03640X0.00035*%
%ADD208R,0.02345X0.00035*%
%ADD209R,0.02730X0.00035*%
%ADD210R,0.02975X0.00035*%
%ADD211R,0.03290X0.00035*%
%ADD212R,0.04340X0.00035*%
%ADD213R,0.09135X0.00035*%
%ADD214R,0.07735X0.00035*%
%ADD215R,0.09240X0.00035*%
%ADD216R,0.07630X0.00035*%
%ADD217R,0.07560X0.00035*%
%ADD218R,0.07490X0.00035*%
%ADD219R,0.08995X0.00035*%
%ADD220R,0.07420X0.00035*%
%ADD221R,0.08890X0.00035*%
%ADD222R,0.07350X0.00035*%
%ADD223R,0.08750X0.00035*%
%ADD224R,0.07210X0.00035*%
%ADD225R,0.07105X0.00035*%
%ADD226R,0.08400X0.00035*%
%ADD227R,0.06930X0.00035*%
%ADD228R,0.08120X0.00035*%
%ADD229R,0.06580X0.00035*%
D10*
X0210362Y0319833D02*
X0210362Y0335833D01*
X0187862Y0335833D02*
X0187862Y0323333D01*
D11*
X0195362Y0321333D02*
X0195362Y0335333D01*
X0171862Y0335333D02*
X0171862Y0321333D01*
D12*
X0241590Y0288333D03*
X0245133Y0288333D03*
D13*
X0162362Y0148833D03*
X0332362Y0148833D03*
D14*
X0292834Y0135243D03*
X0282834Y0135243D03*
X0272834Y0135243D03*
X0272834Y0108743D03*
X0282834Y0108743D03*
X0292834Y0108743D03*
X0221968Y0108743D03*
X0211968Y0108743D03*
X0201968Y0108743D03*
X0201968Y0135243D03*
X0211968Y0135243D03*
X0221968Y0135243D03*
D15*
X0363574Y0274951D03*
X0363574Y0278494D03*
D16*
X0394028Y0289569D03*
X0401115Y0289569D03*
X0401119Y0297061D03*
X0394033Y0297061D03*
X0378064Y0239140D03*
X0370978Y0239140D03*
X0365859Y0239249D03*
X0358773Y0239249D03*
X0352905Y0205433D03*
X0357419Y0198833D03*
X0364505Y0198833D03*
X0345819Y0205433D03*
X0344014Y0177655D03*
X0351100Y0177655D03*
X0356412Y0171602D03*
X0363499Y0171602D03*
X0285905Y0148833D03*
X0278819Y0148833D03*
X0251381Y0162262D03*
X0251381Y0169073D03*
X0244295Y0169073D03*
X0244295Y0162262D03*
X0244295Y0175384D03*
X0251381Y0175384D03*
X0265219Y0209933D03*
X0272305Y0209933D03*
X0215905Y0148833D03*
X0208819Y0148833D03*
X0254119Y0295233D03*
X0261205Y0295233D03*
X0291219Y0306833D03*
X0298305Y0306833D03*
X0300219Y0314633D03*
X0307305Y0314633D03*
X0288405Y0341333D03*
X0281319Y0341333D03*
X0284319Y0367955D03*
X0291405Y0367955D03*
X0291405Y0377955D03*
X0284319Y0377955D03*
X0249405Y0339455D03*
X0242319Y0339455D03*
D17*
X0303728Y0377955D03*
X0311996Y0377955D03*
X0351362Y0389099D03*
X0351362Y0397367D03*
X0368362Y0396967D03*
X0368362Y0388699D03*
X0384762Y0388699D03*
X0384762Y0396967D03*
X0387987Y0296902D03*
X0387881Y0289589D03*
X0379614Y0289589D03*
X0379719Y0296902D03*
X0339362Y0289667D03*
X0332684Y0289667D03*
X0332684Y0281399D03*
X0339362Y0281399D03*
X0257496Y0209933D03*
X0249228Y0209933D03*
X0211296Y0209233D03*
X0203028Y0209233D03*
X0141274Y0326333D03*
X0133006Y0326333D03*
D18*
X0366106Y0267976D03*
X0368606Y0267976D03*
X0371106Y0267976D03*
X0373606Y0267976D03*
X0376106Y0267976D03*
X0378606Y0267976D03*
X0381106Y0267976D03*
X0383606Y0267976D03*
X0383606Y0247176D03*
X0381106Y0247176D03*
X0378606Y0247176D03*
X0376106Y0247176D03*
X0373606Y0247176D03*
X0371106Y0247176D03*
X0368606Y0247176D03*
X0366106Y0247176D03*
D19*
X0361274Y0248191D03*
X0358715Y0248230D03*
X0356136Y0248230D03*
X0353596Y0248269D03*
X0353557Y0261616D03*
X0356116Y0261616D03*
X0358715Y0261616D03*
X0361274Y0261616D03*
D20*
X0399364Y0242356D03*
X0158962Y0211133D03*
D21*
X0168962Y0210133D03*
X0178962Y0211133D03*
X0184962Y0188133D03*
X0184962Y0170333D03*
X0159362Y0170333D03*
X0159362Y0188133D03*
X0399562Y0179833D03*
X0400562Y0169833D03*
X0399562Y0159833D03*
X0400562Y0189833D03*
X0399562Y0199833D03*
X0400562Y0209833D03*
X0399562Y0219833D03*
X0400562Y0229833D03*
X0400364Y0252356D03*
X0399364Y0262356D03*
X0400364Y0272356D03*
D22*
X0207956Y0377979D03*
X0207956Y0395931D03*
X0162267Y0395931D03*
X0162267Y0377979D03*
X0074856Y0378257D03*
X0074856Y0396209D03*
D23*
X0102014Y0387233D03*
X0135110Y0386955D03*
X0235114Y0386955D03*
D24*
X0299397Y0367955D03*
X0316326Y0367955D03*
D25*
X0351362Y0375690D03*
X0351362Y0382776D03*
X0368362Y0382376D03*
X0368362Y0375290D03*
X0384762Y0375290D03*
X0384762Y0382376D03*
X0322204Y0318991D03*
X0322204Y0311904D03*
X0304562Y0304176D03*
X0304562Y0297090D03*
X0295362Y0287576D03*
X0295362Y0280490D03*
X0282962Y0280490D03*
X0282962Y0287576D03*
X0319162Y0288554D03*
X0319162Y0281468D03*
X0352962Y0281590D03*
X0352962Y0288676D03*
X0273393Y0174376D03*
X0273393Y0167290D03*
X0298669Y0162215D03*
X0305110Y0162227D03*
X0305110Y0155140D03*
X0298669Y0155128D03*
X0236110Y0154680D03*
X0229283Y0154640D03*
X0229283Y0161727D03*
X0236110Y0161766D03*
X0203602Y0165518D03*
X0203602Y0172605D03*
X0195762Y0209290D03*
X0195762Y0216376D03*
X0124262Y0327212D03*
X0124262Y0334298D03*
X0077359Y0324669D03*
X0077359Y0317582D03*
X0068814Y0317672D03*
X0068814Y0324758D03*
D26*
X0072681Y0329957D03*
X0068941Y0338224D03*
X0076422Y0338224D03*
D27*
X0209472Y0177101D03*
X0211441Y0177101D03*
X0213409Y0177101D03*
X0215378Y0177101D03*
X0217346Y0177101D03*
X0219315Y0177101D03*
X0221283Y0177101D03*
X0223252Y0177101D03*
X0223252Y0160369D03*
X0221283Y0160369D03*
X0219315Y0160369D03*
X0217346Y0160369D03*
X0215378Y0160369D03*
X0213409Y0160369D03*
X0211441Y0160369D03*
X0209472Y0160369D03*
X0278972Y0160491D03*
X0280941Y0160491D03*
X0282909Y0160491D03*
X0284878Y0160491D03*
X0286846Y0160491D03*
X0288815Y0160491D03*
X0290783Y0160491D03*
X0292752Y0160491D03*
X0292752Y0177223D03*
X0290783Y0177223D03*
X0288815Y0177223D03*
X0286846Y0177223D03*
X0284878Y0177223D03*
X0282909Y0177223D03*
X0280941Y0177223D03*
X0278972Y0177223D03*
D28*
X0224358Y0365455D03*
X0211366Y0365455D03*
X0192858Y0393955D03*
X0179866Y0393955D03*
X0159358Y0365455D03*
X0146366Y0365455D03*
D29*
X0256862Y0372959D03*
X0256862Y0385951D03*
D30*
X0092237Y0145515D03*
X0092237Y0149255D03*
X0092237Y0152995D03*
X0101686Y0152995D03*
X0101686Y0149255D03*
X0101686Y0145515D03*
D31*
X0105362Y0167955D03*
X0085362Y0167955D03*
X0125362Y0167955D03*
X0125362Y0227955D03*
X0148362Y0248683D03*
X0148362Y0264983D03*
X0125362Y0267955D03*
X0085362Y0247955D03*
X0172362Y0248683D03*
X0172362Y0264983D03*
X0196362Y0264983D03*
X0196362Y0248683D03*
X0220362Y0248683D03*
X0220362Y0264983D03*
D32*
X0251643Y0280993D03*
X0251643Y0284733D03*
X0251643Y0288473D03*
X0261880Y0288473D03*
X0261880Y0280993D03*
X0285044Y0293093D03*
X0285044Y0296833D03*
X0285044Y0300573D03*
X0295280Y0300573D03*
X0295280Y0296833D03*
X0295280Y0293093D03*
X0359043Y0213573D03*
X0359043Y0206093D03*
X0369280Y0206093D03*
X0369280Y0209833D03*
X0369280Y0213573D03*
X0368624Y0186042D03*
X0368624Y0182302D03*
X0368624Y0178561D03*
X0358387Y0178561D03*
X0358387Y0186042D03*
D33*
X0311147Y0212122D03*
X0307997Y0212122D03*
X0304848Y0212122D03*
X0301698Y0212122D03*
X0298548Y0212122D03*
X0295399Y0212122D03*
X0292249Y0212122D03*
X0289100Y0212122D03*
X0285950Y0212122D03*
X0282800Y0212122D03*
X0279651Y0212122D03*
X0279651Y0257791D03*
X0282800Y0257791D03*
X0285950Y0257791D03*
X0289100Y0257791D03*
X0292249Y0257791D03*
X0295399Y0257791D03*
X0298548Y0257791D03*
X0301698Y0257791D03*
X0304848Y0257791D03*
X0307997Y0257791D03*
X0311147Y0257791D03*
D34*
X0318233Y0250705D03*
X0318233Y0247555D03*
X0318233Y0244406D03*
X0318233Y0241256D03*
X0318233Y0238106D03*
X0318233Y0234957D03*
X0318233Y0231807D03*
X0318233Y0228657D03*
X0318233Y0225508D03*
X0318233Y0222358D03*
X0318233Y0219209D03*
X0272564Y0219209D03*
X0272564Y0222358D03*
X0272564Y0225508D03*
X0272564Y0228657D03*
X0272564Y0231807D03*
X0272564Y0234957D03*
X0272564Y0238106D03*
X0272564Y0241256D03*
X0272564Y0244406D03*
X0272564Y0247555D03*
X0272564Y0250705D03*
D35*
X0272362Y0328655D03*
X0295362Y0328655D03*
X0318362Y0328655D03*
X0318362Y0352255D03*
X0295362Y0352255D03*
X0272362Y0352255D03*
X0249362Y0352255D03*
X0226362Y0352255D03*
X0203362Y0352255D03*
X0180362Y0352255D03*
X0157362Y0352255D03*
X0157262Y0328755D03*
X0180362Y0328655D03*
X0203362Y0328655D03*
X0226362Y0328655D03*
X0249362Y0328655D03*
D36*
X0341362Y0352255D03*
D37*
X0382862Y0340455D03*
X0092862Y0340455D03*
D38*
X0148362Y0231164D03*
X0172362Y0231164D03*
X0196362Y0231164D03*
X0220362Y0231164D03*
D39*
X0182653Y0101572D03*
X0182653Y0096651D03*
X0311483Y0096845D03*
X0311483Y0101766D03*
D40*
X0258762Y0228833D02*
X0252362Y0228833D01*
X0253362Y0238833D02*
X0259762Y0238833D01*
X0258762Y0248833D02*
X0252362Y0248833D01*
X0253362Y0258833D02*
X0259762Y0258833D01*
X0258762Y0268833D02*
X0252362Y0268833D01*
D41*
X0143107Y0347933D03*
X0123816Y0347933D03*
D42*
X0332323Y0316112D03*
X0334882Y0316112D03*
X0337441Y0316112D03*
X0340000Y0316112D03*
X0340000Y0300856D03*
X0337441Y0300856D03*
X0334882Y0300856D03*
X0332323Y0300856D03*
D43*
X0364092Y0137993D03*
D44*
X0362114Y0138868D03*
X0362009Y0138868D03*
X0357424Y0138868D03*
X0355184Y0138028D03*
X0355149Y0138063D03*
X0354799Y0138833D03*
X0373034Y0138063D03*
X0373139Y0138238D03*
X0373139Y0138308D03*
X0373139Y0138378D03*
X0373139Y0138448D03*
X0373139Y0138518D03*
X0373139Y0138588D03*
X0373139Y0138658D03*
X0373139Y0138728D03*
X0373139Y0138798D03*
X0373139Y0138868D03*
X0373139Y0138938D03*
X0373139Y0139008D03*
X0373139Y0139078D03*
X0373139Y0139148D03*
X0373139Y0139218D03*
X0373139Y0139288D03*
X0373139Y0139428D03*
X0373139Y0139568D03*
X0373139Y0139708D03*
X0373874Y0139603D03*
X0373874Y0139533D03*
X0373839Y0139393D03*
X0373909Y0139743D03*
X0373909Y0139778D03*
X0374014Y0140233D03*
X0374014Y0140268D03*
X0374049Y0140373D03*
X0374084Y0140513D03*
X0374084Y0140583D03*
X0374749Y0139988D03*
X0374714Y0139778D03*
X0374434Y0138518D03*
X0374399Y0138308D03*
X0374364Y0138168D03*
X0373664Y0138553D03*
X0373664Y0138623D03*
X0373699Y0138763D03*
X0373734Y0138903D03*
X0373559Y0138133D03*
X0376009Y0138133D03*
X0376009Y0138203D03*
X0375974Y0138763D03*
X0376149Y0139428D03*
X0376289Y0139533D03*
X0376359Y0139673D03*
X0376359Y0139708D03*
X0376709Y0139183D03*
X0376674Y0139078D03*
X0376884Y0138868D03*
X0376884Y0138518D03*
X0376849Y0138378D03*
X0376814Y0138168D03*
X0377059Y0138133D03*
X0377164Y0138273D03*
X0377374Y0138553D03*
X0377409Y0138588D03*
X0377514Y0138728D03*
X0377549Y0138763D03*
X0377759Y0139043D03*
X0377899Y0139218D03*
X0377934Y0139253D03*
X0378039Y0139393D03*
X0378214Y0139603D03*
X0378424Y0139883D03*
X0378459Y0139918D03*
X0378564Y0140058D03*
X0378599Y0140093D03*
X0378739Y0140268D03*
X0378809Y0140373D03*
X0378949Y0140548D03*
X0378984Y0140583D03*
X0379299Y0139883D03*
X0379264Y0139848D03*
X0379159Y0139708D03*
X0379089Y0139638D03*
X0378984Y0139498D03*
X0378914Y0139393D03*
X0378774Y0139218D03*
X0378249Y0138518D03*
X0378109Y0138343D03*
X0376989Y0139358D03*
X0377164Y0139848D03*
X0377199Y0139988D03*
X0377234Y0140163D03*
X0377234Y0140198D03*
X0377234Y0140233D03*
X0377199Y0140338D03*
X0377059Y0140583D03*
X0379509Y0139918D03*
X0379614Y0139603D03*
X0379649Y0139498D03*
X0379684Y0139393D03*
X0380489Y0139708D03*
X0380524Y0139673D03*
X0380524Y0139638D03*
X0380559Y0139568D03*
X0380489Y0139778D03*
X0380384Y0140058D03*
X0380349Y0140128D03*
X0380349Y0140163D03*
X0380314Y0140233D03*
X0380314Y0140268D03*
X0380209Y0140548D03*
X0380174Y0140618D03*
X0380174Y0140653D03*
X0381434Y0139988D03*
X0381434Y0139953D03*
X0381399Y0139883D03*
X0381399Y0139813D03*
X0381364Y0139743D03*
X0381364Y0139673D03*
X0381259Y0139253D03*
X0381259Y0139183D03*
X0381224Y0139113D03*
X0381224Y0139078D03*
X0381224Y0139043D03*
X0381189Y0138903D03*
X0381189Y0138868D03*
X0381189Y0138833D03*
X0381189Y0138763D03*
X0381189Y0138693D03*
X0381189Y0138623D03*
X0381189Y0138553D03*
X0381189Y0138518D03*
X0381224Y0138413D03*
X0381364Y0138273D03*
X0381399Y0138238D03*
X0381574Y0138168D03*
X0381049Y0138168D03*
X0381049Y0138203D03*
X0381014Y0138238D03*
X0381014Y0138308D03*
X0380909Y0138588D03*
X0380874Y0138658D03*
X0380874Y0138693D03*
X0380839Y0138728D03*
X0380839Y0138798D03*
X0380734Y0139078D03*
X0380699Y0139148D03*
X0380699Y0139183D03*
X0380664Y0139218D03*
X0380664Y0139288D03*
X0379999Y0138518D03*
X0380034Y0138413D03*
X0380139Y0138133D03*
X0382064Y0138868D03*
X0382064Y0138903D03*
X0382099Y0138833D03*
X0382134Y0138798D03*
X0382064Y0139148D03*
X0382099Y0139288D03*
X0382099Y0139358D03*
X0382134Y0139463D03*
X0382134Y0139498D03*
X0382239Y0139883D03*
X0382449Y0140058D03*
X0381889Y0140583D03*
X0381784Y0140513D03*
X0381749Y0140478D03*
X0381714Y0140443D03*
X0381609Y0140338D03*
X0381574Y0140303D03*
X0381539Y0140233D03*
X0382589Y0141878D03*
X0382414Y0143313D03*
X0382309Y0143313D03*
X0382099Y0143313D03*
X0381889Y0143313D03*
X0381784Y0143313D03*
X0381574Y0143313D03*
X0381364Y0143313D03*
X0381259Y0143313D03*
X0381049Y0143313D03*
X0380839Y0143313D03*
X0380734Y0143313D03*
X0380524Y0143313D03*
X0380314Y0143313D03*
X0380209Y0143313D03*
X0379999Y0143313D03*
X0382274Y0144503D03*
X0381609Y0146008D03*
X0381399Y0146008D03*
X0381364Y0147128D03*
X0381259Y0147128D03*
X0381049Y0147128D03*
X0380839Y0147128D03*
X0380734Y0147128D03*
X0381574Y0147128D03*
X0381784Y0147128D03*
X0381889Y0147128D03*
X0382099Y0147128D03*
X0382309Y0147128D03*
X0382414Y0147128D03*
X0382624Y0147128D03*
X0382834Y0147128D03*
X0382939Y0147128D03*
X0383149Y0147128D03*
X0383814Y0146463D03*
X0384024Y0146463D03*
X0384234Y0146463D03*
X0384339Y0146463D03*
X0384549Y0146463D03*
X0384759Y0146463D03*
X0384864Y0146463D03*
X0385074Y0146463D03*
X0385284Y0146463D03*
X0385389Y0146463D03*
X0386159Y0140688D03*
X0386159Y0140653D03*
X0386124Y0140548D03*
X0386124Y0140478D03*
X0386089Y0140338D03*
X0386089Y0140303D03*
X0386439Y0140198D03*
X0386439Y0140163D03*
X0386474Y0140303D03*
X0386474Y0140338D03*
X0386474Y0140373D03*
X0386509Y0140443D03*
X0386509Y0140513D03*
X0386334Y0139708D03*
X0386334Y0139673D03*
X0386299Y0139533D03*
X0386299Y0139463D03*
X0386264Y0139393D03*
X0386264Y0139358D03*
X0386264Y0139323D03*
X0385914Y0139498D03*
X0385949Y0139673D03*
X0385949Y0139708D03*
X0385984Y0139813D03*
X0385984Y0139848D03*
X0385809Y0139008D03*
X0385774Y0138868D03*
X0385774Y0138833D03*
X0385739Y0138728D03*
X0385739Y0138658D03*
X0386089Y0138553D03*
X0386089Y0138483D03*
X0386124Y0138623D03*
X0386124Y0138693D03*
X0386124Y0138728D03*
X0386159Y0138833D03*
X0386159Y0138868D03*
X0386964Y0138728D03*
X0386964Y0138658D03*
X0386999Y0138833D03*
X0386999Y0138868D03*
X0387034Y0139008D03*
X0387139Y0139498D03*
X0387174Y0139638D03*
X0387174Y0139708D03*
X0387209Y0139813D03*
X0387209Y0139848D03*
X0387314Y0139883D03*
X0387349Y0139813D03*
X0387489Y0139603D03*
X0387524Y0139533D03*
X0387664Y0139323D03*
X0387699Y0139253D03*
X0387839Y0139043D03*
X0387874Y0138973D03*
X0388049Y0138693D03*
X0388084Y0138623D03*
X0388224Y0138413D03*
X0388259Y0138343D03*
X0388364Y0138168D03*
X0388399Y0138133D03*
X0388959Y0138903D03*
X0389064Y0138903D03*
X0389099Y0139043D03*
X0389099Y0139113D03*
X0389134Y0139183D03*
X0388889Y0139008D03*
X0388784Y0139183D03*
X0388749Y0139218D03*
X0388714Y0139288D03*
X0388609Y0139463D03*
X0388539Y0139568D03*
X0388434Y0139743D03*
X0388399Y0139778D03*
X0388399Y0139813D03*
X0388364Y0139848D03*
X0388224Y0140058D03*
X0388224Y0140093D03*
X0388189Y0140128D03*
X0388084Y0140303D03*
X0388049Y0140373D03*
X0387874Y0140653D03*
X0387839Y0140688D03*
X0389414Y0140583D03*
X0389414Y0140513D03*
X0389449Y0140688D03*
X0389309Y0140093D03*
X0389309Y0140023D03*
X0389274Y0139883D03*
X0389239Y0139673D03*
X0389974Y0139498D03*
X0390009Y0139638D03*
X0390359Y0139603D03*
X0390324Y0139463D03*
X0390289Y0139323D03*
X0390289Y0139253D03*
X0389834Y0138798D03*
X0389799Y0138658D03*
X0389764Y0138518D03*
X0390499Y0138203D03*
X0390674Y0138133D03*
X0391199Y0138763D03*
X0391059Y0138938D03*
X0391059Y0139008D03*
X0391059Y0139078D03*
X0391164Y0139568D03*
X0391199Y0139708D03*
X0391234Y0139848D03*
X0391339Y0139988D03*
X0390814Y0140513D03*
X0390849Y0140548D03*
X0390534Y0140163D03*
X0390499Y0140093D03*
X0390464Y0140023D03*
X0390114Y0140128D03*
X0390149Y0140303D03*
X0390184Y0140478D03*
X0391934Y0139463D03*
X0391934Y0139393D03*
X0391899Y0139253D03*
X0391864Y0139148D03*
X0391864Y0139113D03*
X0392914Y0140058D03*
X0393614Y0140618D03*
X0393684Y0140583D03*
X0393789Y0140478D03*
X0393859Y0140338D03*
X0393859Y0140268D03*
X0393859Y0140128D03*
X0393859Y0140058D03*
X0393824Y0139918D03*
X0393684Y0139148D03*
X0393649Y0139008D03*
X0393614Y0138833D03*
X0393509Y0138518D03*
X0393474Y0138448D03*
X0393334Y0138308D03*
X0386859Y0138238D03*
X0386859Y0138168D03*
X0385634Y0138168D03*
X0385634Y0138238D03*
X0384864Y0138553D03*
X0384864Y0138623D03*
X0384899Y0138763D03*
X0384899Y0138798D03*
X0384934Y0138903D03*
X0384934Y0138938D03*
X0384934Y0138973D03*
X0384584Y0138798D03*
X0384584Y0138763D03*
X0384549Y0138658D03*
X0384514Y0138553D03*
X0384374Y0138378D03*
X0384339Y0138343D03*
X0384234Y0138273D03*
X0384759Y0138133D03*
X0383849Y0138973D03*
X0383849Y0139008D03*
X0383814Y0138938D03*
X0383989Y0139813D03*
X0383989Y0139883D03*
X0383884Y0140058D03*
X0384584Y0140618D03*
X0384759Y0140443D03*
X0385214Y0140268D03*
X0385214Y0140233D03*
X0385249Y0140373D03*
X0385249Y0140443D03*
X0385284Y0140513D03*
X0385284Y0140583D03*
X0385284Y0140618D03*
X0385109Y0139778D03*
X0385109Y0139743D03*
X0385074Y0139603D03*
X0385074Y0139533D03*
X0385039Y0139463D03*
X0385039Y0139428D03*
X0385039Y0139393D03*
X0384759Y0139778D03*
X0373139Y0140548D03*
X0394909Y0146603D03*
D45*
X0393352Y0140653D03*
X0393037Y0140688D03*
X0392967Y0140688D03*
X0392897Y0140688D03*
X0392827Y0140688D03*
X0392757Y0140688D03*
X0392687Y0140688D03*
X0392617Y0140688D03*
X0392547Y0140688D03*
X0392477Y0140688D03*
X0392407Y0140688D03*
X0392337Y0140688D03*
X0392267Y0140688D03*
X0392197Y0140688D03*
X0392127Y0140688D03*
X0392057Y0140688D03*
X0391987Y0140688D03*
X0391917Y0140688D03*
X0391847Y0140688D03*
X0391777Y0140688D03*
X0391707Y0140688D03*
X0391322Y0140653D03*
X0391112Y0140618D03*
X0390762Y0140478D03*
X0390727Y0140443D03*
X0390692Y0140408D03*
X0390657Y0140373D03*
X0390622Y0140338D03*
X0390587Y0140268D03*
X0390552Y0140233D03*
X0390552Y0140198D03*
X0390517Y0140128D03*
X0390482Y0140058D03*
X0390447Y0139988D03*
X0390447Y0139953D03*
X0390412Y0139883D03*
X0390412Y0139848D03*
X0390377Y0139778D03*
X0390377Y0139708D03*
X0390377Y0139673D03*
X0390342Y0139638D03*
X0390342Y0139568D03*
X0390342Y0139533D03*
X0390342Y0139498D03*
X0390307Y0139428D03*
X0390307Y0139393D03*
X0390307Y0139358D03*
X0390272Y0139288D03*
X0390272Y0139218D03*
X0390272Y0139183D03*
X0390237Y0139148D03*
X0390237Y0139078D03*
X0390237Y0139043D03*
X0390237Y0139008D03*
X0390237Y0138973D03*
X0390202Y0138938D03*
X0390202Y0138868D03*
X0390202Y0138798D03*
X0390202Y0138763D03*
X0390202Y0138728D03*
X0390202Y0138693D03*
X0390202Y0138658D03*
X0390202Y0138623D03*
X0390202Y0138588D03*
X0390202Y0138518D03*
X0390237Y0138483D03*
X0390237Y0138448D03*
X0390272Y0138378D03*
X0390307Y0138343D03*
X0390342Y0138308D03*
X0390377Y0138273D03*
X0389782Y0138483D03*
X0389747Y0138448D03*
X0389747Y0138413D03*
X0389747Y0138378D03*
X0389747Y0138343D03*
X0389712Y0138273D03*
X0389712Y0138238D03*
X0389712Y0138203D03*
X0389677Y0138133D03*
X0389782Y0138553D03*
X0389782Y0138588D03*
X0389782Y0138623D03*
X0389817Y0138693D03*
X0389817Y0138728D03*
X0389817Y0138763D03*
X0389852Y0138833D03*
X0389852Y0138868D03*
X0389852Y0138903D03*
X0389852Y0138938D03*
X0389887Y0138973D03*
X0389887Y0139043D03*
X0389887Y0139078D03*
X0389887Y0139113D03*
X0389922Y0139183D03*
X0389922Y0139218D03*
X0389922Y0139253D03*
X0389922Y0139288D03*
X0389957Y0139323D03*
X0389957Y0139358D03*
X0389957Y0139393D03*
X0389957Y0139428D03*
X0389992Y0139463D03*
X0389992Y0139533D03*
X0389992Y0139568D03*
X0389992Y0139603D03*
X0390027Y0139673D03*
X0390027Y0139708D03*
X0390027Y0139743D03*
X0390027Y0139778D03*
X0390062Y0139848D03*
X0390062Y0139883D03*
X0390062Y0139918D03*
X0390097Y0139953D03*
X0390097Y0140023D03*
X0390097Y0140058D03*
X0390097Y0140093D03*
X0390132Y0140163D03*
X0390132Y0140198D03*
X0390132Y0140233D03*
X0390132Y0140268D03*
X0390167Y0140338D03*
X0390167Y0140373D03*
X0390167Y0140408D03*
X0390202Y0140443D03*
X0390202Y0140513D03*
X0390202Y0140548D03*
X0390202Y0140583D03*
X0390237Y0140653D03*
X0390237Y0140688D03*
X0390167Y0140688D03*
X0390097Y0140688D03*
X0390027Y0140688D03*
X0389957Y0140688D03*
X0389887Y0140688D03*
X0389817Y0140688D03*
X0389747Y0140688D03*
X0389677Y0140688D03*
X0389607Y0140688D03*
X0389537Y0140688D03*
X0389432Y0140653D03*
X0389432Y0140618D03*
X0389397Y0140548D03*
X0389397Y0140478D03*
X0389397Y0140443D03*
X0389362Y0140408D03*
X0389362Y0140338D03*
X0389362Y0140303D03*
X0389327Y0140198D03*
X0389327Y0140163D03*
X0389327Y0140128D03*
X0389292Y0140058D03*
X0389292Y0139988D03*
X0389292Y0139953D03*
X0389257Y0139918D03*
X0389257Y0139848D03*
X0389257Y0139813D03*
X0389257Y0139778D03*
X0389222Y0139743D03*
X0389222Y0139708D03*
X0389222Y0139638D03*
X0389187Y0139568D03*
X0389187Y0139498D03*
X0389187Y0139463D03*
X0389152Y0139428D03*
X0389152Y0139358D03*
X0389152Y0139323D03*
X0389152Y0139288D03*
X0389117Y0139253D03*
X0389117Y0139218D03*
X0389117Y0139148D03*
X0389082Y0139078D03*
X0389082Y0139008D03*
X0389082Y0138973D03*
X0389047Y0138938D03*
X0389047Y0138868D03*
X0389047Y0138798D03*
X0388977Y0138868D03*
X0388942Y0138938D03*
X0388907Y0138973D03*
X0388872Y0139043D03*
X0388837Y0139078D03*
X0388802Y0139148D03*
X0388732Y0139253D03*
X0388697Y0139323D03*
X0388627Y0139428D03*
X0388592Y0139498D03*
X0388557Y0139533D03*
X0388522Y0139603D03*
X0388487Y0139673D03*
X0388452Y0139708D03*
X0388347Y0139883D03*
X0388312Y0139953D03*
X0388277Y0139988D03*
X0388277Y0140023D03*
X0388172Y0140163D03*
X0388137Y0140233D03*
X0388067Y0140338D03*
X0388032Y0140408D03*
X0387997Y0140443D03*
X0387962Y0140513D03*
X0387927Y0140583D03*
X0387892Y0140618D03*
X0387752Y0140688D03*
X0387682Y0140688D03*
X0387612Y0140688D03*
X0387542Y0140688D03*
X0387472Y0140688D03*
X0387402Y0140688D03*
X0387332Y0140688D03*
X0387262Y0140688D03*
X0387192Y0140688D03*
X0387122Y0140688D03*
X0387052Y0140688D03*
X0386982Y0140688D03*
X0386912Y0140688D03*
X0386842Y0140688D03*
X0386772Y0140688D03*
X0386702Y0140688D03*
X0386632Y0140688D03*
X0386527Y0140618D03*
X0386527Y0140583D03*
X0386527Y0140548D03*
X0386492Y0140478D03*
X0386492Y0140408D03*
X0386457Y0140268D03*
X0386457Y0140233D03*
X0386422Y0140128D03*
X0386422Y0140093D03*
X0386422Y0140058D03*
X0386387Y0139988D03*
X0386387Y0139918D03*
X0386352Y0139778D03*
X0386352Y0139743D03*
X0386317Y0139638D03*
X0386317Y0139603D03*
X0386317Y0139568D03*
X0386282Y0139498D03*
X0386282Y0139428D03*
X0386247Y0139288D03*
X0386247Y0139253D03*
X0386212Y0139148D03*
X0386212Y0139113D03*
X0386212Y0139078D03*
X0386177Y0139008D03*
X0386177Y0138938D03*
X0386177Y0138903D03*
X0386142Y0138798D03*
X0386142Y0138763D03*
X0386107Y0138658D03*
X0386107Y0138588D03*
X0386072Y0138518D03*
X0386072Y0138448D03*
X0386072Y0138413D03*
X0386037Y0138308D03*
X0386037Y0138273D03*
X0386002Y0138168D03*
X0385652Y0138203D03*
X0385652Y0138273D03*
X0385652Y0138308D03*
X0385687Y0138413D03*
X0385687Y0138448D03*
X0385687Y0138483D03*
X0385722Y0138553D03*
X0385722Y0138588D03*
X0385722Y0138623D03*
X0385757Y0138693D03*
X0385757Y0138763D03*
X0385757Y0138798D03*
X0385792Y0138903D03*
X0385792Y0138938D03*
X0385792Y0138973D03*
X0385827Y0139043D03*
X0385827Y0139078D03*
X0385827Y0139113D03*
X0385827Y0139148D03*
X0385862Y0139253D03*
X0385862Y0139288D03*
X0385897Y0139393D03*
X0385897Y0139428D03*
X0385897Y0139463D03*
X0385932Y0139533D03*
X0385932Y0139568D03*
X0385932Y0139603D03*
X0385932Y0139638D03*
X0385967Y0139743D03*
X0385967Y0139778D03*
X0386002Y0139883D03*
X0386002Y0139918D03*
X0386002Y0139953D03*
X0386037Y0140023D03*
X0386037Y0140058D03*
X0386037Y0140093D03*
X0386037Y0140128D03*
X0386072Y0140233D03*
X0386072Y0140268D03*
X0386107Y0140373D03*
X0386107Y0140408D03*
X0386107Y0140443D03*
X0386142Y0140513D03*
X0386142Y0140583D03*
X0386142Y0140618D03*
X0386072Y0140688D03*
X0386002Y0140688D03*
X0385932Y0140688D03*
X0385862Y0140688D03*
X0385792Y0140688D03*
X0385722Y0140688D03*
X0385652Y0140688D03*
X0385582Y0140688D03*
X0385512Y0140688D03*
X0385442Y0140688D03*
X0385372Y0140688D03*
X0385302Y0140688D03*
X0385267Y0140548D03*
X0385267Y0140478D03*
X0385232Y0140408D03*
X0385232Y0140338D03*
X0385232Y0140303D03*
X0385197Y0140198D03*
X0385197Y0140163D03*
X0385197Y0140128D03*
X0385162Y0140058D03*
X0385162Y0139988D03*
X0385127Y0139848D03*
X0385127Y0139813D03*
X0385092Y0139708D03*
X0385092Y0139673D03*
X0385092Y0139638D03*
X0385057Y0139568D03*
X0385057Y0139498D03*
X0385022Y0139358D03*
X0385022Y0139323D03*
X0384987Y0139218D03*
X0384987Y0139183D03*
X0384987Y0139148D03*
X0384952Y0139078D03*
X0384952Y0139008D03*
X0384917Y0138868D03*
X0384917Y0138833D03*
X0384882Y0138728D03*
X0384882Y0138693D03*
X0384882Y0138658D03*
X0384847Y0138588D03*
X0384847Y0138518D03*
X0384847Y0138483D03*
X0384812Y0138378D03*
X0384812Y0138343D03*
X0384777Y0138238D03*
X0384777Y0138168D03*
X0384427Y0138413D03*
X0384462Y0138483D03*
X0384497Y0138518D03*
X0384532Y0138588D03*
X0384532Y0138623D03*
X0384567Y0138693D03*
X0384567Y0138728D03*
X0384602Y0138833D03*
X0384602Y0138868D03*
X0384637Y0138973D03*
X0384637Y0139008D03*
X0384637Y0139043D03*
X0384742Y0139708D03*
X0384742Y0139743D03*
X0384777Y0139813D03*
X0384777Y0139848D03*
X0384777Y0139883D03*
X0384777Y0139918D03*
X0384812Y0140023D03*
X0384812Y0140058D03*
X0384812Y0140093D03*
X0384812Y0140128D03*
X0384812Y0140163D03*
X0384812Y0140198D03*
X0384812Y0140233D03*
X0384812Y0140268D03*
X0384812Y0140303D03*
X0384777Y0140408D03*
X0384742Y0140478D03*
X0384707Y0140513D03*
X0384672Y0140548D03*
X0384637Y0140583D03*
X0384357Y0140653D03*
X0383972Y0140688D03*
X0383902Y0140688D03*
X0383832Y0140688D03*
X0383762Y0140688D03*
X0383692Y0140688D03*
X0383622Y0140688D03*
X0383552Y0140688D03*
X0383482Y0140688D03*
X0383412Y0140688D03*
X0383342Y0140688D03*
X0383272Y0140688D03*
X0383202Y0140688D03*
X0383132Y0140688D03*
X0383062Y0140688D03*
X0382992Y0140688D03*
X0382922Y0140688D03*
X0382852Y0140688D03*
X0382782Y0140688D03*
X0382712Y0140688D03*
X0382292Y0140653D03*
X0382082Y0140618D03*
X0381662Y0140408D03*
X0381557Y0140268D03*
X0381522Y0140198D03*
X0381487Y0140128D03*
X0381452Y0140023D03*
X0381417Y0139918D03*
X0381382Y0139848D03*
X0381382Y0139778D03*
X0381347Y0139708D03*
X0381347Y0139638D03*
X0381312Y0139498D03*
X0381312Y0139463D03*
X0381277Y0139358D03*
X0381277Y0139323D03*
X0381277Y0139288D03*
X0381242Y0139218D03*
X0381242Y0139148D03*
X0381207Y0139008D03*
X0381207Y0138973D03*
X0381207Y0138938D03*
X0381172Y0138798D03*
X0381172Y0138728D03*
X0381172Y0138658D03*
X0381172Y0138588D03*
X0381207Y0138483D03*
X0381207Y0138448D03*
X0381242Y0138378D03*
X0381312Y0138308D03*
X0381032Y0138273D03*
X0380997Y0138343D03*
X0380962Y0138413D03*
X0380962Y0138448D03*
X0380927Y0138518D03*
X0380927Y0138553D03*
X0380892Y0138623D03*
X0380857Y0138763D03*
X0380822Y0138833D03*
X0380787Y0138903D03*
X0380752Y0139008D03*
X0380752Y0139043D03*
X0380717Y0139113D03*
X0380682Y0139253D03*
X0380647Y0139323D03*
X0380612Y0139393D03*
X0380577Y0139498D03*
X0380577Y0139533D03*
X0380542Y0139603D03*
X0380507Y0139743D03*
X0380472Y0139813D03*
X0380437Y0139883D03*
X0380402Y0139988D03*
X0380402Y0140023D03*
X0380367Y0140093D03*
X0380332Y0140198D03*
X0380297Y0140303D03*
X0380262Y0140373D03*
X0380227Y0140478D03*
X0380227Y0140513D03*
X0380192Y0140583D03*
X0380157Y0140688D03*
X0380087Y0140688D03*
X0380017Y0140688D03*
X0379947Y0140688D03*
X0379877Y0140688D03*
X0379807Y0140688D03*
X0379737Y0140688D03*
X0379667Y0140688D03*
X0379597Y0140688D03*
X0379527Y0140688D03*
X0379457Y0140688D03*
X0379387Y0140688D03*
X0379317Y0140688D03*
X0379247Y0140688D03*
X0379177Y0140688D03*
X0379037Y0140653D03*
X0379002Y0140618D03*
X0378932Y0140513D03*
X0378897Y0140478D03*
X0378792Y0140338D03*
X0378757Y0140303D03*
X0378617Y0140128D03*
X0378547Y0140023D03*
X0378512Y0139988D03*
X0378407Y0139848D03*
X0378372Y0139813D03*
X0378302Y0139708D03*
X0378267Y0139673D03*
X0378232Y0139638D03*
X0378127Y0139498D03*
X0378092Y0139463D03*
X0378057Y0139428D03*
X0378022Y0139358D03*
X0377987Y0139323D03*
X0377952Y0139288D03*
X0377882Y0139183D03*
X0377847Y0139148D03*
X0377812Y0139113D03*
X0377742Y0139008D03*
X0377707Y0138973D03*
X0377672Y0138938D03*
X0377637Y0138868D03*
X0377602Y0138833D03*
X0377567Y0138798D03*
X0377497Y0138693D03*
X0377462Y0138658D03*
X0377427Y0138623D03*
X0377357Y0138518D03*
X0377322Y0138483D03*
X0377287Y0138448D03*
X0377252Y0138378D03*
X0377217Y0138343D03*
X0377182Y0138308D03*
X0377112Y0138203D03*
X0377077Y0138168D03*
X0376832Y0138203D03*
X0376832Y0138238D03*
X0376832Y0138273D03*
X0376832Y0138308D03*
X0376867Y0138343D03*
X0376867Y0138413D03*
X0376867Y0138448D03*
X0376902Y0138483D03*
X0376902Y0138553D03*
X0376902Y0138588D03*
X0376902Y0138623D03*
X0376937Y0138693D03*
X0376937Y0138763D03*
X0376902Y0138833D03*
X0376902Y0138903D03*
X0376867Y0138938D03*
X0376832Y0138973D03*
X0376797Y0139008D03*
X0376867Y0139253D03*
X0376972Y0139323D03*
X0377042Y0139393D03*
X0377042Y0139428D03*
X0377077Y0139463D03*
X0377077Y0139498D03*
X0377112Y0139533D03*
X0377112Y0139568D03*
X0377112Y0139603D03*
X0377147Y0139673D03*
X0377147Y0139708D03*
X0377147Y0139743D03*
X0377147Y0139778D03*
X0377182Y0139813D03*
X0377182Y0139883D03*
X0377182Y0139918D03*
X0377182Y0139953D03*
X0377217Y0140023D03*
X0377217Y0140058D03*
X0377217Y0140093D03*
X0377217Y0140128D03*
X0377217Y0140268D03*
X0377217Y0140303D03*
X0377217Y0140373D03*
X0377182Y0140408D03*
X0377182Y0140443D03*
X0377147Y0140478D03*
X0377112Y0140513D03*
X0377007Y0140618D03*
X0376552Y0140688D03*
X0376482Y0140688D03*
X0376412Y0140688D03*
X0376342Y0140688D03*
X0376272Y0140688D03*
X0376202Y0140688D03*
X0376132Y0140688D03*
X0376062Y0140688D03*
X0375992Y0140688D03*
X0375922Y0140688D03*
X0375852Y0140688D03*
X0375782Y0140688D03*
X0375712Y0140688D03*
X0375642Y0140688D03*
X0375572Y0140688D03*
X0375502Y0140688D03*
X0375432Y0140688D03*
X0375362Y0140688D03*
X0375292Y0140688D03*
X0375222Y0140688D03*
X0375152Y0140688D03*
X0375082Y0140688D03*
X0375012Y0140688D03*
X0374942Y0140688D03*
X0374872Y0140688D03*
X0374802Y0140688D03*
X0374732Y0140688D03*
X0374662Y0140688D03*
X0374592Y0140688D03*
X0374522Y0140688D03*
X0374452Y0140688D03*
X0374382Y0140688D03*
X0374312Y0140688D03*
X0374242Y0140688D03*
X0374172Y0140688D03*
X0374102Y0140688D03*
X0374102Y0140653D03*
X0374102Y0140618D03*
X0374067Y0140548D03*
X0374067Y0140478D03*
X0374067Y0140443D03*
X0374032Y0140408D03*
X0374032Y0140338D03*
X0374032Y0140303D03*
X0373997Y0140198D03*
X0373997Y0140163D03*
X0373997Y0140128D03*
X0373962Y0140058D03*
X0373962Y0139988D03*
X0373962Y0139953D03*
X0373927Y0139918D03*
X0373927Y0139848D03*
X0373927Y0139813D03*
X0373892Y0139708D03*
X0373892Y0139673D03*
X0373892Y0139638D03*
X0373857Y0139568D03*
X0373857Y0139498D03*
X0373857Y0139463D03*
X0373822Y0139428D03*
X0373822Y0139358D03*
X0373822Y0139323D03*
X0373822Y0139288D03*
X0373787Y0139218D03*
X0373787Y0139183D03*
X0373787Y0139148D03*
X0373752Y0139078D03*
X0373752Y0139008D03*
X0373752Y0138973D03*
X0373717Y0138938D03*
X0373717Y0138868D03*
X0373717Y0138833D03*
X0373717Y0138798D03*
X0373682Y0138728D03*
X0373682Y0138693D03*
X0373682Y0138658D03*
X0373647Y0138588D03*
X0373647Y0138518D03*
X0373647Y0138483D03*
X0373612Y0138448D03*
X0373612Y0138378D03*
X0373612Y0138343D03*
X0373612Y0138308D03*
X0373577Y0138238D03*
X0373577Y0138203D03*
X0373577Y0138168D03*
X0373157Y0138273D03*
X0373157Y0138343D03*
X0373157Y0138413D03*
X0373157Y0138483D03*
X0373157Y0138553D03*
X0373157Y0138623D03*
X0373157Y0138693D03*
X0373157Y0138763D03*
X0373157Y0138833D03*
X0373157Y0138903D03*
X0373157Y0138973D03*
X0373157Y0139043D03*
X0373157Y0139113D03*
X0373157Y0139183D03*
X0373157Y0139253D03*
X0373157Y0139323D03*
X0373157Y0139358D03*
X0373157Y0139393D03*
X0373157Y0139463D03*
X0373157Y0139498D03*
X0373157Y0139533D03*
X0373157Y0139603D03*
X0373157Y0139638D03*
X0373157Y0139673D03*
X0373157Y0139743D03*
X0373157Y0139778D03*
X0373157Y0139813D03*
X0373157Y0139848D03*
X0373157Y0139883D03*
X0373157Y0139918D03*
X0373157Y0139953D03*
X0373157Y0139988D03*
X0373157Y0140023D03*
X0373157Y0140058D03*
X0373157Y0140093D03*
X0373157Y0140128D03*
X0373157Y0140163D03*
X0373157Y0140198D03*
X0373157Y0140233D03*
X0373157Y0140268D03*
X0373157Y0140303D03*
X0373157Y0140338D03*
X0373157Y0140373D03*
X0373157Y0140408D03*
X0373157Y0140443D03*
X0373157Y0140478D03*
X0373157Y0140513D03*
X0373122Y0140583D03*
X0373017Y0140688D03*
X0374767Y0140058D03*
X0374767Y0140023D03*
X0374767Y0139953D03*
X0374732Y0139918D03*
X0374732Y0139883D03*
X0374732Y0139848D03*
X0374732Y0139813D03*
X0374697Y0139743D03*
X0374697Y0139708D03*
X0374697Y0139673D03*
X0374662Y0139568D03*
X0374662Y0139533D03*
X0374662Y0139463D03*
X0374662Y0138798D03*
X0374732Y0138798D03*
X0374802Y0138798D03*
X0374872Y0138798D03*
X0374942Y0138798D03*
X0375012Y0138798D03*
X0375082Y0138798D03*
X0375152Y0138798D03*
X0375222Y0138798D03*
X0375292Y0138798D03*
X0375362Y0138798D03*
X0375432Y0138798D03*
X0375502Y0138798D03*
X0375572Y0138798D03*
X0375642Y0138798D03*
X0375712Y0138798D03*
X0375782Y0138798D03*
X0375852Y0138798D03*
X0376027Y0138728D03*
X0376062Y0138693D03*
X0376097Y0138623D03*
X0376097Y0138588D03*
X0376062Y0138518D03*
X0376062Y0138448D03*
X0376062Y0138413D03*
X0376027Y0138378D03*
X0376027Y0138308D03*
X0376027Y0138273D03*
X0376027Y0138238D03*
X0375992Y0138168D03*
X0376797Y0138133D03*
X0377952Y0138133D03*
X0377987Y0138168D03*
X0378022Y0138238D03*
X0378057Y0138273D03*
X0378092Y0138308D03*
X0378127Y0138378D03*
X0378162Y0138413D03*
X0378232Y0138483D03*
X0378792Y0139078D03*
X0378862Y0139078D03*
X0378932Y0139078D03*
X0379002Y0139078D03*
X0379072Y0139078D03*
X0379142Y0139078D03*
X0379212Y0139078D03*
X0379282Y0139078D03*
X0379352Y0139078D03*
X0379422Y0139078D03*
X0379492Y0139078D03*
X0379562Y0139078D03*
X0379632Y0139078D03*
X0379702Y0139078D03*
X0379772Y0139148D03*
X0379737Y0139218D03*
X0379737Y0139253D03*
X0379702Y0139358D03*
X0379667Y0139428D03*
X0379667Y0139463D03*
X0379632Y0139533D03*
X0379632Y0139568D03*
X0379597Y0139638D03*
X0379597Y0139673D03*
X0379562Y0139743D03*
X0379562Y0139778D03*
X0379527Y0139848D03*
X0379527Y0139883D03*
X0379492Y0139953D03*
X0379492Y0139988D03*
X0379457Y0140058D03*
X0379352Y0139953D03*
X0379317Y0139918D03*
X0379247Y0139813D03*
X0379212Y0139778D03*
X0379177Y0139743D03*
X0379142Y0139673D03*
X0379072Y0139603D03*
X0378967Y0139463D03*
X0378932Y0139428D03*
X0378862Y0139323D03*
X0378827Y0139288D03*
X0378792Y0139253D03*
X0378757Y0139183D03*
X0380017Y0138483D03*
X0380017Y0138448D03*
X0380052Y0138378D03*
X0380087Y0138308D03*
X0380087Y0138273D03*
X0380122Y0138203D03*
X0380122Y0138168D03*
X0381067Y0138133D03*
X0382047Y0138938D03*
X0382047Y0138973D03*
X0382047Y0139043D03*
X0382047Y0139078D03*
X0382047Y0139113D03*
X0382082Y0139183D03*
X0382082Y0139218D03*
X0382082Y0139253D03*
X0382117Y0139323D03*
X0382117Y0139393D03*
X0382117Y0139428D03*
X0382152Y0139533D03*
X0382152Y0139568D03*
X0382152Y0139603D03*
X0382187Y0139673D03*
X0382187Y0139708D03*
X0382187Y0139743D03*
X0382187Y0139778D03*
X0382222Y0139848D03*
X0382257Y0139918D03*
X0382292Y0139953D03*
X0382327Y0139988D03*
X0383972Y0139988D03*
X0383972Y0139953D03*
X0383972Y0139918D03*
X0383972Y0139848D03*
X0383972Y0139778D03*
X0383972Y0139743D03*
X0383867Y0139078D03*
X0383867Y0139043D03*
X0383797Y0138903D03*
X0383762Y0138868D03*
X0383727Y0138833D03*
X0383692Y0138798D03*
X0383482Y0138693D03*
X0384182Y0138238D03*
X0385617Y0138133D03*
X0386842Y0138133D03*
X0386877Y0138203D03*
X0386877Y0138273D03*
X0386877Y0138308D03*
X0386912Y0138413D03*
X0386912Y0138448D03*
X0386947Y0138553D03*
X0386947Y0138588D03*
X0386947Y0138623D03*
X0386982Y0138693D03*
X0386982Y0138763D03*
X0386982Y0138798D03*
X0387017Y0138903D03*
X0387017Y0138938D03*
X0387017Y0138973D03*
X0387052Y0139043D03*
X0387052Y0139078D03*
X0387052Y0139113D03*
X0387087Y0139183D03*
X0387087Y0139253D03*
X0387087Y0139288D03*
X0387122Y0139393D03*
X0387122Y0139428D03*
X0387122Y0139463D03*
X0387157Y0139533D03*
X0387157Y0139568D03*
X0387157Y0139603D03*
X0387192Y0139673D03*
X0387192Y0139743D03*
X0387192Y0139778D03*
X0387227Y0139883D03*
X0387227Y0139918D03*
X0387297Y0139918D03*
X0387332Y0139848D03*
X0387367Y0139778D03*
X0387402Y0139743D03*
X0387437Y0139673D03*
X0387472Y0139638D03*
X0387507Y0139568D03*
X0387542Y0139498D03*
X0387577Y0139463D03*
X0387612Y0139393D03*
X0387682Y0139288D03*
X0387717Y0139218D03*
X0387752Y0139183D03*
X0387787Y0139113D03*
X0387857Y0139008D03*
X0387892Y0138938D03*
X0387927Y0138903D03*
X0387927Y0138868D03*
X0387962Y0138833D03*
X0387997Y0138763D03*
X0388032Y0138728D03*
X0388067Y0138658D03*
X0388102Y0138588D03*
X0388137Y0138553D03*
X0388172Y0138483D03*
X0388207Y0138448D03*
X0388242Y0138378D03*
X0388277Y0138308D03*
X0388312Y0138273D03*
X0388347Y0138203D03*
X0391077Y0138098D03*
X0391357Y0138693D03*
X0391112Y0138833D03*
X0391077Y0138903D03*
X0391077Y0138973D03*
X0391077Y0139043D03*
X0391077Y0139113D03*
X0391077Y0139148D03*
X0391077Y0139183D03*
X0391112Y0139253D03*
X0391112Y0139288D03*
X0391112Y0139323D03*
X0391147Y0139393D03*
X0391147Y0139428D03*
X0391147Y0139463D03*
X0391147Y0139498D03*
X0391182Y0139533D03*
X0391182Y0139603D03*
X0391182Y0139638D03*
X0391182Y0139673D03*
X0391217Y0139743D03*
X0391217Y0139778D03*
X0391217Y0139813D03*
X0391252Y0139883D03*
X0391322Y0139953D03*
X0391392Y0140023D03*
X0391952Y0139568D03*
X0391952Y0139533D03*
X0391952Y0139498D03*
X0391917Y0139428D03*
X0391917Y0139358D03*
X0391917Y0139323D03*
X0391882Y0139288D03*
X0391882Y0139218D03*
X0391882Y0139183D03*
X0391847Y0139078D03*
X0392582Y0138693D03*
X0392757Y0138798D03*
X0392792Y0138833D03*
X0392827Y0138868D03*
X0392862Y0138938D03*
X0392897Y0139008D03*
X0392897Y0139043D03*
X0393597Y0138798D03*
X0393597Y0138763D03*
X0393597Y0138728D03*
X0393597Y0138693D03*
X0393562Y0138658D03*
X0393562Y0138623D03*
X0393527Y0138553D03*
X0393492Y0138483D03*
X0393457Y0138413D03*
X0393387Y0138343D03*
X0393282Y0138273D03*
X0393177Y0138203D03*
X0393632Y0138868D03*
X0393632Y0138903D03*
X0393632Y0138938D03*
X0393667Y0138973D03*
X0393667Y0139043D03*
X0393667Y0139078D03*
X0393667Y0139113D03*
X0393702Y0139183D03*
X0393702Y0139218D03*
X0393702Y0139253D03*
X0393702Y0139288D03*
X0393737Y0139323D03*
X0393737Y0139393D03*
X0393737Y0139428D03*
X0393772Y0139463D03*
X0393772Y0139533D03*
X0393772Y0139568D03*
X0393807Y0139848D03*
X0393842Y0139883D03*
X0393842Y0139953D03*
X0393842Y0139988D03*
X0393842Y0140023D03*
X0393877Y0140093D03*
X0393877Y0140163D03*
X0393877Y0140198D03*
X0393877Y0140233D03*
X0393877Y0140303D03*
X0393842Y0140373D03*
X0393842Y0140408D03*
X0393807Y0140443D03*
X0393002Y0140023D03*
X0393002Y0139988D03*
X0393037Y0139953D03*
X0393037Y0139918D03*
X0393037Y0139848D03*
X0383062Y0141913D03*
X0382502Y0141878D03*
X0382432Y0141878D03*
X0382362Y0141878D03*
X0382292Y0141878D03*
X0382222Y0141878D03*
X0382152Y0141878D03*
X0382082Y0141878D03*
X0382012Y0141878D03*
X0381942Y0141878D03*
X0381872Y0141878D03*
X0381802Y0141878D03*
X0381732Y0141878D03*
X0381662Y0141878D03*
X0381592Y0141878D03*
X0381522Y0141878D03*
X0381452Y0141878D03*
X0381382Y0141878D03*
X0381312Y0141878D03*
X0381242Y0141878D03*
X0381172Y0141878D03*
X0381102Y0141878D03*
X0381032Y0141878D03*
X0380962Y0141878D03*
X0380892Y0141878D03*
X0380822Y0141878D03*
X0380752Y0141878D03*
X0380682Y0141878D03*
X0380612Y0141878D03*
X0380542Y0141878D03*
X0380472Y0141878D03*
X0380402Y0141878D03*
X0380332Y0141878D03*
X0380262Y0141878D03*
X0380192Y0141878D03*
X0380122Y0141878D03*
X0380052Y0141878D03*
X0379982Y0141878D03*
X0379912Y0141878D03*
X0379842Y0141878D03*
X0379772Y0141878D03*
X0379702Y0141878D03*
X0379632Y0141878D03*
X0379562Y0141878D03*
X0379492Y0141878D03*
X0379422Y0141878D03*
X0379352Y0141878D03*
X0379282Y0141878D03*
X0379212Y0141878D03*
X0379142Y0141878D03*
X0378512Y0141913D03*
X0378267Y0141948D03*
X0379737Y0143313D03*
X0379807Y0143313D03*
X0379667Y0144573D03*
X0379562Y0144573D03*
X0379492Y0144573D03*
X0379002Y0144608D03*
X0380857Y0144538D03*
X0380927Y0144538D03*
X0380997Y0144538D03*
X0381067Y0144538D03*
X0381172Y0144538D03*
X0382362Y0144503D03*
X0382432Y0144503D03*
X0382502Y0144503D03*
X0382572Y0144503D03*
X0382572Y0143313D03*
X0382502Y0143313D03*
X0383727Y0145973D03*
X0383797Y0145973D03*
X0383867Y0145973D03*
X0384217Y0145938D03*
X0383412Y0147128D03*
X0383342Y0147128D03*
X0383657Y0148598D03*
X0383762Y0148598D03*
X0383832Y0148598D03*
X0384217Y0148563D03*
X0380612Y0148598D03*
X0380507Y0148598D03*
X0380052Y0148563D03*
X0380472Y0147128D03*
X0380542Y0147128D03*
X0380612Y0146008D03*
X0380717Y0146008D03*
X0380822Y0146008D03*
X0380892Y0146008D03*
X0380962Y0146008D03*
X0381032Y0146008D03*
X0381102Y0146008D03*
X0381172Y0146008D03*
X0381242Y0146008D03*
X0381312Y0146008D03*
X0375782Y0148598D03*
X0374417Y0147023D03*
X0374347Y0147023D03*
X0374277Y0147023D03*
X0374207Y0147023D03*
X0374137Y0147023D03*
X0374067Y0147023D03*
X0373997Y0147023D03*
X0373927Y0147023D03*
X0373857Y0147023D03*
X0373787Y0147023D03*
X0373717Y0147023D03*
X0373647Y0147023D03*
X0373577Y0147023D03*
X0373507Y0147023D03*
X0373437Y0147023D03*
X0373367Y0147023D03*
X0373297Y0147023D03*
X0373227Y0147023D03*
X0373157Y0147023D03*
X0373087Y0147023D03*
X0373017Y0147023D03*
X0372947Y0147023D03*
X0372877Y0147023D03*
X0372807Y0147023D03*
X0372737Y0147023D03*
X0372667Y0147023D03*
X0372597Y0147023D03*
X0372527Y0147023D03*
X0372457Y0147023D03*
X0372387Y0147023D03*
X0372317Y0147023D03*
X0372247Y0147023D03*
X0372177Y0147023D03*
X0372107Y0147023D03*
X0372037Y0147023D03*
X0371967Y0147023D03*
X0371897Y0147023D03*
X0371827Y0147023D03*
X0371757Y0147023D03*
X0371687Y0147023D03*
X0371617Y0147023D03*
X0371547Y0147023D03*
X0371477Y0147023D03*
X0371407Y0147023D03*
X0371337Y0147023D03*
X0371267Y0147023D03*
X0371197Y0147023D03*
X0371127Y0147023D03*
X0371092Y0145238D03*
X0371197Y0145238D03*
X0371267Y0145238D03*
X0371337Y0145238D03*
X0371407Y0145238D03*
X0371477Y0145238D03*
X0371547Y0145238D03*
X0371617Y0145238D03*
X0371687Y0145238D03*
X0371757Y0145238D03*
X0371827Y0145238D03*
X0371897Y0145238D03*
X0371967Y0145238D03*
X0372037Y0145238D03*
X0372107Y0145238D03*
X0372177Y0145238D03*
X0372247Y0145238D03*
X0372317Y0145238D03*
X0372387Y0145238D03*
X0372457Y0145238D03*
X0372527Y0145238D03*
X0372597Y0145238D03*
X0372667Y0145238D03*
X0372737Y0145238D03*
X0372807Y0145238D03*
X0372877Y0145238D03*
X0372947Y0145238D03*
X0373017Y0145238D03*
X0373087Y0145238D03*
X0373157Y0145238D03*
X0373227Y0145238D03*
X0373297Y0145238D03*
X0373367Y0145238D03*
X0373437Y0145238D03*
X0373507Y0145238D03*
X0373577Y0145238D03*
X0373647Y0145238D03*
X0373717Y0145238D03*
X0373787Y0145238D03*
X0373857Y0145238D03*
X0373857Y0143663D03*
X0373962Y0143663D03*
X0374137Y0143663D03*
X0374417Y0143663D03*
X0374522Y0143663D03*
X0374592Y0143663D03*
X0374907Y0143698D03*
X0373752Y0143663D03*
X0373647Y0143663D03*
X0373542Y0143663D03*
X0373437Y0143663D03*
X0373332Y0143663D03*
X0373227Y0143663D03*
X0373122Y0143663D03*
X0373017Y0143663D03*
X0372912Y0143663D03*
X0372807Y0143663D03*
X0372702Y0143663D03*
X0372597Y0143663D03*
X0372492Y0143663D03*
X0372387Y0143663D03*
X0372282Y0143663D03*
X0372177Y0143663D03*
X0372072Y0143663D03*
X0371967Y0143663D03*
X0371862Y0143663D03*
X0371757Y0143663D03*
X0371652Y0143663D03*
X0371547Y0143663D03*
X0371442Y0143663D03*
X0371337Y0143663D03*
X0371232Y0143663D03*
X0371127Y0143663D03*
X0371022Y0143663D03*
X0370917Y0143663D03*
X0370812Y0143663D03*
X0370707Y0143663D03*
X0370602Y0143663D03*
X0370497Y0143663D03*
X0370882Y0145238D03*
X0370987Y0145238D03*
X0370007Y0141878D03*
X0369937Y0141878D03*
X0369867Y0141878D03*
X0369797Y0141878D03*
X0369727Y0141878D03*
X0369657Y0141878D03*
X0369587Y0141878D03*
X0369517Y0141878D03*
X0369447Y0141878D03*
X0369377Y0141878D03*
X0369307Y0141878D03*
X0369237Y0141878D03*
X0369167Y0141878D03*
X0369097Y0141878D03*
X0369027Y0141878D03*
X0368957Y0141878D03*
X0368887Y0141878D03*
X0368817Y0141878D03*
X0368747Y0141878D03*
X0368677Y0141878D03*
X0368607Y0141878D03*
X0368537Y0141878D03*
X0368467Y0141878D03*
X0368397Y0141878D03*
X0368327Y0141878D03*
X0368257Y0141878D03*
X0368187Y0141878D03*
X0368117Y0141878D03*
X0368047Y0141878D03*
X0367977Y0141878D03*
X0366752Y0141878D03*
X0366682Y0141878D03*
X0366612Y0141878D03*
X0366542Y0141878D03*
X0366472Y0141878D03*
X0366402Y0141878D03*
X0366332Y0141878D03*
X0366262Y0141878D03*
X0366192Y0141878D03*
X0366122Y0141878D03*
X0366052Y0141878D03*
X0365982Y0141878D03*
X0365912Y0141878D03*
X0365842Y0141878D03*
X0365772Y0141878D03*
X0365702Y0141878D03*
X0365632Y0141878D03*
X0365562Y0141878D03*
X0365492Y0141878D03*
X0365422Y0141878D03*
X0365352Y0141878D03*
X0365282Y0141878D03*
X0365212Y0141878D03*
X0365142Y0141878D03*
X0365072Y0141878D03*
X0365002Y0141878D03*
X0364932Y0141878D03*
X0364862Y0141878D03*
X0364792Y0141878D03*
X0364722Y0141878D03*
X0363742Y0141878D03*
X0363672Y0141878D03*
X0363602Y0141878D03*
X0363532Y0141878D03*
X0363462Y0141878D03*
X0363392Y0141878D03*
X0363322Y0141878D03*
X0363252Y0141878D03*
X0363182Y0141878D03*
X0363112Y0141878D03*
X0363042Y0141878D03*
X0362972Y0141878D03*
X0362902Y0141878D03*
X0362832Y0141878D03*
X0362762Y0141878D03*
X0362692Y0141878D03*
X0362622Y0141878D03*
X0362552Y0141878D03*
X0362482Y0141878D03*
X0362412Y0141878D03*
X0362342Y0141878D03*
X0362272Y0141878D03*
X0362202Y0141878D03*
X0362132Y0141878D03*
X0362062Y0141878D03*
X0361992Y0141878D03*
X0361922Y0141878D03*
X0361852Y0141878D03*
X0361782Y0141878D03*
X0361712Y0141878D03*
X0361642Y0141878D03*
X0361572Y0141878D03*
X0361502Y0141878D03*
X0361432Y0141878D03*
X0361362Y0141878D03*
X0361292Y0141878D03*
X0361222Y0141878D03*
X0361152Y0141878D03*
X0361082Y0141878D03*
X0361012Y0141878D03*
X0360942Y0141878D03*
X0360872Y0141878D03*
X0360802Y0141878D03*
X0360732Y0141878D03*
X0360662Y0141878D03*
X0360592Y0141878D03*
X0360522Y0141878D03*
X0360452Y0141878D03*
X0360382Y0141878D03*
X0360312Y0141878D03*
X0360242Y0141878D03*
X0360172Y0141878D03*
X0360102Y0141878D03*
X0360032Y0141878D03*
X0359962Y0141878D03*
X0359892Y0141878D03*
X0359822Y0141878D03*
X0359752Y0141878D03*
X0359682Y0141878D03*
X0359612Y0141878D03*
X0359542Y0141878D03*
X0359472Y0141878D03*
X0359402Y0141878D03*
X0359332Y0141878D03*
X0359262Y0141878D03*
X0359192Y0141878D03*
X0359122Y0141878D03*
X0359052Y0141878D03*
X0358982Y0141878D03*
X0358912Y0141878D03*
X0358842Y0141878D03*
X0358772Y0141878D03*
X0358702Y0141878D03*
X0358632Y0141878D03*
X0358562Y0141878D03*
X0358492Y0141878D03*
X0358422Y0141878D03*
X0358352Y0141878D03*
X0358282Y0141878D03*
X0358212Y0141878D03*
X0358142Y0141878D03*
X0358072Y0141878D03*
X0358002Y0141878D03*
X0357932Y0141878D03*
X0357862Y0141878D03*
X0357792Y0141878D03*
X0357722Y0141878D03*
X0357652Y0141878D03*
X0357582Y0141878D03*
X0357512Y0141878D03*
X0357442Y0141878D03*
X0357372Y0141878D03*
X0357302Y0141878D03*
X0357232Y0141878D03*
X0357162Y0141878D03*
X0357092Y0141878D03*
X0357022Y0141878D03*
X0356952Y0141878D03*
X0356882Y0141878D03*
X0356812Y0141878D03*
X0356742Y0141878D03*
X0356672Y0141878D03*
X0356602Y0141878D03*
X0356532Y0141878D03*
X0356462Y0141878D03*
X0356392Y0141878D03*
X0356322Y0141878D03*
X0356252Y0141878D03*
X0356182Y0141878D03*
X0356112Y0141878D03*
X0356042Y0141878D03*
X0355972Y0141878D03*
X0355902Y0141878D03*
X0355832Y0141878D03*
X0355762Y0141878D03*
X0355692Y0141878D03*
X0355622Y0141878D03*
X0355552Y0141878D03*
X0355482Y0141878D03*
X0355412Y0141878D03*
X0355272Y0140688D03*
X0355202Y0140688D03*
X0355167Y0140653D03*
X0355132Y0140618D03*
X0355097Y0140583D03*
X0355097Y0140548D03*
X0355062Y0140513D03*
X0355062Y0140478D03*
X0355062Y0140443D03*
X0355062Y0140408D03*
X0355062Y0140373D03*
X0355062Y0140338D03*
X0355062Y0140303D03*
X0355062Y0140268D03*
X0355062Y0140233D03*
X0355062Y0140198D03*
X0355062Y0140163D03*
X0355062Y0140128D03*
X0355062Y0140093D03*
X0355062Y0140058D03*
X0355062Y0140023D03*
X0355062Y0139988D03*
X0355062Y0139953D03*
X0354817Y0139883D03*
X0354782Y0139848D03*
X0354747Y0139813D03*
X0354747Y0139778D03*
X0354747Y0138903D03*
X0355027Y0138588D03*
X0355027Y0138518D03*
X0355027Y0138448D03*
X0355027Y0138378D03*
X0355027Y0138308D03*
X0355027Y0138238D03*
X0355062Y0138168D03*
X0355097Y0138098D03*
X0356182Y0140093D03*
X0359157Y0143453D03*
X0359297Y0143453D03*
X0359472Y0143453D03*
X0359647Y0143453D03*
X0359822Y0143453D03*
X0359997Y0143453D03*
X0360172Y0143453D03*
X0360312Y0143453D03*
X0360417Y0143453D03*
X0360522Y0143453D03*
X0360627Y0143453D03*
X0360732Y0143453D03*
X0360837Y0143453D03*
X0360942Y0143453D03*
X0361047Y0143453D03*
X0361152Y0143453D03*
X0361257Y0143453D03*
X0361362Y0143453D03*
X0361467Y0143453D03*
X0361572Y0143453D03*
X0361677Y0143453D03*
X0361782Y0143453D03*
X0361887Y0143453D03*
X0361992Y0143453D03*
X0362097Y0143453D03*
X0362202Y0143453D03*
X0362307Y0143453D03*
X0362412Y0143453D03*
X0362517Y0143453D03*
X0362622Y0143453D03*
X0362727Y0143453D03*
X0362832Y0143453D03*
X0362937Y0143453D03*
X0363042Y0143453D03*
X0363147Y0143453D03*
X0363252Y0143453D03*
X0363357Y0143453D03*
X0363462Y0143453D03*
X0363567Y0143453D03*
X0363672Y0143453D03*
X0363777Y0143453D03*
X0363882Y0143453D03*
X0363987Y0143453D03*
X0364092Y0143453D03*
X0363182Y0140093D03*
X0363252Y0139743D03*
X0364967Y0139778D03*
X0365037Y0139778D03*
X0365107Y0139778D03*
X0365177Y0139778D03*
X0365247Y0139778D03*
X0365317Y0139778D03*
X0365387Y0139778D03*
X0365457Y0139778D03*
X0365527Y0139778D03*
X0365597Y0139778D03*
X0366087Y0139778D03*
X0366157Y0139778D03*
X0366227Y0139778D03*
X0366297Y0139778D03*
X0366367Y0139778D03*
X0366437Y0139778D03*
X0366507Y0139778D03*
X0366577Y0139778D03*
X0366647Y0139778D03*
X0366717Y0139778D03*
X0367627Y0139358D03*
X0367697Y0139358D03*
X0367802Y0139358D03*
X0367907Y0139358D03*
X0368012Y0139358D03*
X0368117Y0139358D03*
X0368222Y0139358D03*
X0368327Y0139358D03*
X0368432Y0139358D03*
X0368537Y0139358D03*
X0368642Y0140093D03*
X0371162Y0139743D03*
X0373122Y0138203D03*
X0373122Y0138168D03*
X0373087Y0138133D03*
X0372982Y0138028D03*
X0374382Y0138133D03*
X0374382Y0138203D03*
X0374382Y0138238D03*
X0374382Y0138273D03*
X0374417Y0138343D03*
X0374417Y0138378D03*
X0374417Y0138413D03*
X0374417Y0138448D03*
X0374452Y0138483D03*
X0374452Y0138553D03*
X0374452Y0138588D03*
X0374487Y0138623D03*
X0374487Y0138693D03*
X0374487Y0138728D03*
X0374487Y0138763D03*
X0374522Y0138798D03*
X0374592Y0138798D03*
X0376272Y0139498D03*
X0376307Y0139568D03*
X0376342Y0139603D03*
X0376342Y0139638D03*
X0376377Y0139743D03*
X0376377Y0139778D03*
X0376377Y0139848D03*
X0376412Y0139883D03*
X0376412Y0139918D03*
X0376412Y0139953D03*
X0376377Y0139988D03*
X0376377Y0140023D03*
X0376342Y0140058D03*
X0360767Y0140093D03*
X0360802Y0147023D03*
X0360872Y0147023D03*
X0360942Y0147023D03*
X0361012Y0147023D03*
X0361082Y0147023D03*
X0361152Y0147023D03*
X0361222Y0147023D03*
X0361292Y0147023D03*
X0361362Y0147023D03*
X0361432Y0147023D03*
X0360732Y0147023D03*
X0360662Y0147023D03*
X0360592Y0147023D03*
X0360522Y0147023D03*
X0360452Y0147023D03*
X0360382Y0147023D03*
X0360312Y0147023D03*
X0360242Y0147023D03*
X0360172Y0147023D03*
X0360102Y0147023D03*
X0360032Y0147023D03*
X0359962Y0147023D03*
X0359892Y0147023D03*
X0359822Y0147023D03*
X0359752Y0147023D03*
X0359682Y0147023D03*
X0359612Y0147023D03*
X0359542Y0147023D03*
X0359472Y0147023D03*
X0359402Y0147023D03*
X0359332Y0147023D03*
X0359262Y0147023D03*
X0359192Y0147023D03*
X0359122Y0147023D03*
X0359052Y0147023D03*
X0358982Y0147023D03*
X0358912Y0147023D03*
X0358842Y0147023D03*
X0358772Y0147023D03*
X0358702Y0147023D03*
X0358632Y0147023D03*
X0358562Y0147023D03*
X0358492Y0147023D03*
X0358422Y0147023D03*
X0358352Y0147023D03*
X0358282Y0147023D03*
X0358212Y0147023D03*
X0358142Y0147023D03*
X0358072Y0147023D03*
X0358002Y0147023D03*
X0357932Y0147023D03*
X0357862Y0147023D03*
X0357792Y0147023D03*
X0357722Y0147023D03*
X0357652Y0147023D03*
X0357582Y0147023D03*
X0357512Y0147023D03*
X0357442Y0147023D03*
X0357372Y0147023D03*
X0357302Y0147023D03*
X0357232Y0147023D03*
X0357162Y0147023D03*
X0357092Y0147023D03*
X0357022Y0147023D03*
X0356952Y0147023D03*
X0356882Y0147023D03*
X0356812Y0147023D03*
X0356742Y0147023D03*
X0356672Y0147023D03*
X0356602Y0147023D03*
X0356532Y0147023D03*
D46*
X0357319Y0138868D03*
X0357529Y0138868D03*
X0355044Y0138553D03*
X0355044Y0138483D03*
X0355044Y0138413D03*
X0355044Y0138343D03*
X0355044Y0138273D03*
X0361904Y0138868D03*
X0373069Y0138098D03*
X0373594Y0138273D03*
X0373629Y0138413D03*
X0373769Y0139043D03*
X0373769Y0139113D03*
X0373804Y0139253D03*
X0373944Y0139883D03*
X0373979Y0140023D03*
X0373979Y0140093D03*
X0374679Y0139638D03*
X0374679Y0139603D03*
X0374644Y0139498D03*
X0374644Y0139428D03*
X0374469Y0138658D03*
X0376044Y0138343D03*
X0376079Y0138483D03*
X0376079Y0138658D03*
X0376604Y0139148D03*
X0376744Y0139043D03*
X0376919Y0138798D03*
X0376919Y0138728D03*
X0376919Y0138658D03*
X0377269Y0138413D03*
X0377129Y0138238D03*
X0377654Y0138903D03*
X0377794Y0139078D03*
X0378144Y0139533D03*
X0378179Y0139568D03*
X0378319Y0139743D03*
X0378354Y0139778D03*
X0378494Y0139953D03*
X0378669Y0140163D03*
X0378669Y0140198D03*
X0378704Y0140233D03*
X0378844Y0140408D03*
X0378879Y0140443D03*
X0379369Y0139988D03*
X0379544Y0139813D03*
X0379579Y0139708D03*
X0379719Y0139323D03*
X0379719Y0139288D03*
X0379754Y0139183D03*
X0379054Y0139568D03*
X0379019Y0139533D03*
X0378879Y0139358D03*
X0378704Y0139148D03*
X0378179Y0138448D03*
X0378004Y0138203D03*
X0376919Y0139288D03*
X0377129Y0139638D03*
X0376394Y0139813D03*
X0376219Y0139463D03*
X0377094Y0140548D03*
X0379054Y0141878D03*
X0379894Y0143313D03*
X0380104Y0143313D03*
X0380419Y0143313D03*
X0380629Y0143313D03*
X0380944Y0143313D03*
X0381154Y0143313D03*
X0381469Y0143313D03*
X0381679Y0143313D03*
X0381994Y0143313D03*
X0382204Y0143313D03*
X0380769Y0144538D03*
X0379404Y0144573D03*
X0381504Y0146008D03*
X0381469Y0147128D03*
X0381679Y0147128D03*
X0381994Y0147128D03*
X0382204Y0147128D03*
X0382519Y0147128D03*
X0382729Y0147128D03*
X0383044Y0147128D03*
X0383254Y0147128D03*
X0383919Y0146463D03*
X0384129Y0146463D03*
X0384444Y0146463D03*
X0384654Y0146463D03*
X0384969Y0146463D03*
X0385179Y0146463D03*
X0385494Y0146463D03*
X0381154Y0147128D03*
X0380944Y0147128D03*
X0380629Y0147128D03*
X0381994Y0140618D03*
X0381854Y0140548D03*
X0381644Y0140373D03*
X0381504Y0140163D03*
X0381469Y0140093D03*
X0381469Y0140058D03*
X0381329Y0139603D03*
X0381329Y0139568D03*
X0381329Y0139533D03*
X0381294Y0139428D03*
X0381294Y0139393D03*
X0380629Y0139358D03*
X0380594Y0139428D03*
X0380594Y0139463D03*
X0380454Y0139848D03*
X0380419Y0139918D03*
X0380419Y0139953D03*
X0380279Y0140338D03*
X0380244Y0140408D03*
X0380244Y0140443D03*
X0380769Y0138973D03*
X0380769Y0138938D03*
X0380804Y0138868D03*
X0380944Y0138483D03*
X0380979Y0138378D03*
X0381294Y0138343D03*
X0381469Y0138203D03*
X0382169Y0138763D03*
X0382029Y0139008D03*
X0382169Y0139638D03*
X0382204Y0139813D03*
X0382379Y0140023D03*
X0383954Y0140023D03*
X0383954Y0139708D03*
X0384794Y0139953D03*
X0384794Y0139988D03*
X0384794Y0140338D03*
X0384794Y0140373D03*
X0385179Y0140093D03*
X0385179Y0140023D03*
X0385144Y0139953D03*
X0385144Y0139918D03*
X0385144Y0139883D03*
X0385004Y0139288D03*
X0385004Y0139253D03*
X0384969Y0139113D03*
X0384969Y0139043D03*
X0384654Y0139078D03*
X0384619Y0138938D03*
X0384619Y0138903D03*
X0384444Y0138448D03*
X0384304Y0138308D03*
X0384129Y0138203D03*
X0384794Y0138203D03*
X0384794Y0138273D03*
X0384794Y0138308D03*
X0384829Y0138413D03*
X0384829Y0138448D03*
X0385669Y0138378D03*
X0385669Y0138343D03*
X0385704Y0138518D03*
X0386054Y0138378D03*
X0386054Y0138343D03*
X0386019Y0138238D03*
X0386019Y0138203D03*
X0386019Y0138133D03*
X0386194Y0138973D03*
X0386194Y0139043D03*
X0386229Y0139183D03*
X0386229Y0139218D03*
X0385879Y0139323D03*
X0385879Y0139358D03*
X0385844Y0139218D03*
X0385844Y0139183D03*
X0386369Y0139813D03*
X0386369Y0139848D03*
X0386369Y0139883D03*
X0386404Y0139953D03*
X0386404Y0140023D03*
X0386054Y0140163D03*
X0386054Y0140198D03*
X0386019Y0139988D03*
X0386544Y0140653D03*
X0386544Y0140688D03*
X0387244Y0139953D03*
X0387419Y0139708D03*
X0387594Y0139428D03*
X0387629Y0139358D03*
X0387769Y0139148D03*
X0387804Y0139078D03*
X0387979Y0138798D03*
X0388154Y0138518D03*
X0388329Y0138238D03*
X0389029Y0138833D03*
X0388819Y0139113D03*
X0388679Y0139358D03*
X0388644Y0139393D03*
X0388504Y0139638D03*
X0388329Y0139918D03*
X0388154Y0140198D03*
X0388119Y0140268D03*
X0387979Y0140478D03*
X0387944Y0140548D03*
X0389344Y0140268D03*
X0389344Y0140233D03*
X0389379Y0140373D03*
X0389204Y0139603D03*
X0389204Y0139533D03*
X0389169Y0139393D03*
X0389904Y0139148D03*
X0389869Y0139008D03*
X0390219Y0138903D03*
X0390219Y0138833D03*
X0390219Y0138553D03*
X0390254Y0138413D03*
X0390429Y0138238D03*
X0390569Y0138168D03*
X0391129Y0138798D03*
X0391094Y0138868D03*
X0391094Y0139218D03*
X0391129Y0139358D03*
X0391269Y0139918D03*
X0390919Y0140583D03*
X0390604Y0140303D03*
X0390429Y0139918D03*
X0390394Y0139813D03*
X0390394Y0139743D03*
X0390044Y0139813D03*
X0390079Y0139988D03*
X0390219Y0140618D03*
X0390254Y0139113D03*
X0389729Y0138308D03*
X0389694Y0138168D03*
X0386929Y0138483D03*
X0386929Y0138518D03*
X0386894Y0138378D03*
X0386894Y0138343D03*
X0387069Y0139148D03*
X0387069Y0139218D03*
X0387104Y0139323D03*
X0387104Y0139358D03*
X0385319Y0140653D03*
X0380069Y0138343D03*
X0380104Y0138238D03*
X0373104Y0140618D03*
X0373069Y0140653D03*
X0392704Y0138763D03*
X0392844Y0138903D03*
X0392879Y0138973D03*
X0393544Y0138588D03*
X0393404Y0138378D03*
X0393229Y0138238D03*
X0393719Y0139358D03*
X0393754Y0139498D03*
X0393054Y0139883D03*
X0393719Y0140548D03*
X0393754Y0140513D03*
D47*
X0385739Y0140723D03*
X0384339Y0139673D03*
X0384864Y0145903D03*
X0379089Y0148458D03*
X0375519Y0143733D03*
X0376394Y0138098D03*
X0373944Y0138098D03*
D48*
X0377479Y0138098D03*
X0375414Y0143698D03*
X0385179Y0138098D03*
X0386894Y0143803D03*
D49*
X0380612Y0138098D03*
D50*
X0382799Y0138098D03*
X0390324Y0146603D03*
D51*
X0386422Y0138098D03*
X0377777Y0141948D03*
X0379177Y0148493D03*
X0376272Y0148598D03*
D52*
X0386702Y0143768D03*
X0389047Y0138098D03*
X0392162Y0140093D03*
D53*
X0390902Y0138098D03*
X0387437Y0143908D03*
X0387227Y0143873D03*
X0394822Y0146638D03*
D54*
X0392582Y0138098D03*
X0385267Y0145658D03*
X0385232Y0145693D03*
X0380122Y0146743D03*
X0378302Y0147898D03*
X0378267Y0147863D03*
X0378232Y0147828D03*
X0378372Y0148003D03*
X0376972Y0148108D03*
X0376902Y0148178D03*
X0376902Y0148213D03*
X0377917Y0144923D03*
X0377952Y0144888D03*
X0377987Y0144853D03*
X0376447Y0144433D03*
X0376377Y0144363D03*
X0376377Y0144328D03*
X0377322Y0142228D03*
X0377357Y0142193D03*
X0377392Y0142158D03*
X0374452Y0145658D03*
X0370812Y0139708D03*
X0368922Y0139743D03*
X0368852Y0139358D03*
X0364932Y0146848D03*
X0355552Y0143558D03*
D55*
X0354887Y0139918D03*
X0356497Y0138868D03*
X0356637Y0138868D03*
X0356777Y0138868D03*
X0356917Y0138868D03*
X0357057Y0138868D03*
X0357197Y0138868D03*
X0361082Y0138868D03*
X0361222Y0138868D03*
X0361362Y0138868D03*
X0361502Y0138868D03*
X0361642Y0138868D03*
X0361782Y0138868D03*
X0376587Y0139113D03*
X0376797Y0139218D03*
X0376937Y0140653D03*
X0376832Y0140688D03*
X0379072Y0140688D03*
X0381662Y0138133D03*
X0382292Y0138728D03*
X0383622Y0138763D03*
X0383937Y0138133D03*
X0384042Y0138168D03*
X0384497Y0140653D03*
X0391007Y0140618D03*
X0391147Y0140653D03*
X0391462Y0140058D03*
X0392932Y0138133D03*
X0393072Y0138168D03*
D56*
X0363829Y0138553D03*
X0356829Y0138553D03*
D57*
X0359192Y0138553D03*
X0383167Y0140093D03*
D58*
X0390639Y0146673D03*
X0371739Y0138553D03*
X0361414Y0138553D03*
D59*
X0360399Y0139043D03*
X0360399Y0139078D03*
X0360399Y0139148D03*
X0360399Y0139498D03*
X0360399Y0139568D03*
X0360399Y0139603D03*
X0358264Y0139603D03*
X0358264Y0139638D03*
X0358264Y0139708D03*
X0358264Y0139813D03*
X0358264Y0139848D03*
X0358264Y0139918D03*
X0358264Y0139988D03*
X0358264Y0140058D03*
X0358264Y0139533D03*
X0358264Y0139498D03*
X0358229Y0139463D03*
X0358264Y0139428D03*
X0358264Y0139393D03*
X0358264Y0139323D03*
X0358264Y0139288D03*
X0358264Y0139218D03*
X0358264Y0139113D03*
X0358264Y0139078D03*
X0358264Y0139043D03*
X0355814Y0139043D03*
X0355814Y0139078D03*
X0355814Y0139148D03*
X0355779Y0139498D03*
X0355814Y0139568D03*
X0355814Y0139603D03*
X0355184Y0141983D03*
X0355184Y0142018D03*
X0355184Y0142053D03*
X0355219Y0142123D03*
X0355219Y0142158D03*
X0355219Y0142193D03*
X0355219Y0142228D03*
X0355254Y0142298D03*
X0355254Y0142333D03*
X0355254Y0142368D03*
X0355254Y0142403D03*
X0355289Y0142473D03*
X0355289Y0142508D03*
X0355289Y0142543D03*
X0355324Y0142648D03*
X0355324Y0142683D03*
X0355324Y0142718D03*
X0355359Y0142788D03*
X0355359Y0142823D03*
X0355359Y0142858D03*
X0355359Y0142893D03*
X0355394Y0142963D03*
X0355394Y0142998D03*
X0355394Y0143033D03*
X0355394Y0143068D03*
X0355429Y0143138D03*
X0355429Y0143173D03*
X0355429Y0143208D03*
X0355464Y0143313D03*
X0355464Y0143348D03*
X0355464Y0143383D03*
X0355499Y0143453D03*
X0355499Y0143488D03*
X0356234Y0147058D03*
X0356269Y0147128D03*
X0356269Y0147163D03*
X0356269Y0147198D03*
X0356269Y0147233D03*
X0356304Y0147303D03*
X0356304Y0147338D03*
X0356304Y0147373D03*
X0356339Y0147478D03*
X0356339Y0147513D03*
X0356339Y0147548D03*
X0356374Y0147618D03*
X0356374Y0147653D03*
X0356374Y0147688D03*
X0356374Y0147723D03*
X0356409Y0147793D03*
X0356409Y0147828D03*
X0356409Y0147863D03*
X0356409Y0147898D03*
X0356444Y0147968D03*
X0356444Y0148003D03*
X0356444Y0148038D03*
X0356479Y0148143D03*
X0356479Y0148178D03*
X0356479Y0148213D03*
X0356514Y0148283D03*
X0356514Y0148318D03*
X0356514Y0148353D03*
X0356514Y0148388D03*
X0356549Y0148458D03*
X0356549Y0148493D03*
X0356549Y0148528D03*
X0356549Y0148563D03*
X0356584Y0148598D03*
X0365019Y0147023D03*
X0365019Y0146988D03*
X0365019Y0146953D03*
X0365019Y0146918D03*
X0365054Y0147093D03*
X0365054Y0147128D03*
X0365054Y0147163D03*
X0365054Y0147198D03*
X0365089Y0147268D03*
X0365089Y0147303D03*
X0365089Y0147338D03*
X0365089Y0147373D03*
X0365124Y0147443D03*
X0365124Y0147478D03*
X0365124Y0147513D03*
X0365159Y0147583D03*
X0365159Y0147618D03*
X0365159Y0147653D03*
X0365159Y0147688D03*
X0365194Y0147758D03*
X0365194Y0147793D03*
X0365194Y0147828D03*
X0365194Y0147863D03*
X0365229Y0147933D03*
X0365229Y0147968D03*
X0365229Y0148003D03*
X0365229Y0148038D03*
X0365264Y0148108D03*
X0365264Y0148143D03*
X0365264Y0148213D03*
X0365299Y0148248D03*
X0365299Y0148283D03*
X0365299Y0148318D03*
X0365299Y0148353D03*
X0365334Y0148423D03*
X0365334Y0148458D03*
X0365334Y0148493D03*
X0365334Y0148528D03*
X0365369Y0148598D03*
X0365859Y0148458D03*
X0365859Y0148423D03*
X0365859Y0148388D03*
X0365859Y0148353D03*
X0365824Y0148283D03*
X0365824Y0148248D03*
X0365824Y0148213D03*
X0365824Y0148178D03*
X0365789Y0148108D03*
X0365789Y0148073D03*
X0365789Y0148038D03*
X0365754Y0147933D03*
X0365754Y0147898D03*
X0365754Y0147863D03*
X0365719Y0147793D03*
X0365719Y0147758D03*
X0365719Y0147723D03*
X0365719Y0147688D03*
X0365684Y0147618D03*
X0365684Y0147583D03*
X0365684Y0147548D03*
X0365684Y0147478D03*
X0365649Y0147443D03*
X0365649Y0147408D03*
X0365649Y0147373D03*
X0365614Y0147268D03*
X0365614Y0147233D03*
X0365614Y0147198D03*
X0365579Y0147128D03*
X0365579Y0147093D03*
X0365579Y0147058D03*
X0365579Y0147023D03*
X0365544Y0146953D03*
X0365544Y0146918D03*
X0365544Y0146883D03*
X0365544Y0146848D03*
X0365509Y0146778D03*
X0365509Y0146743D03*
X0365509Y0146708D03*
X0365474Y0146603D03*
X0365474Y0146568D03*
X0365474Y0146533D03*
X0365439Y0146463D03*
X0365439Y0146428D03*
X0365439Y0146393D03*
X0365439Y0146358D03*
X0365404Y0146288D03*
X0365404Y0146253D03*
X0365404Y0146218D03*
X0365404Y0146148D03*
X0365369Y0146113D03*
X0365369Y0146078D03*
X0365369Y0146043D03*
X0365334Y0145938D03*
X0365334Y0145903D03*
X0365334Y0145868D03*
X0365299Y0145798D03*
X0365299Y0145763D03*
X0365299Y0145728D03*
X0365299Y0145693D03*
X0365264Y0145623D03*
X0365264Y0145588D03*
X0365264Y0145553D03*
X0365264Y0145518D03*
X0365229Y0145448D03*
X0365229Y0145413D03*
X0365229Y0145378D03*
X0365229Y0145308D03*
X0365194Y0145273D03*
X0365194Y0145238D03*
X0365194Y0145203D03*
X0365159Y0145133D03*
X0365159Y0145098D03*
X0365159Y0145063D03*
X0365159Y0145028D03*
X0365124Y0144958D03*
X0365124Y0144923D03*
X0365124Y0144888D03*
X0365124Y0144853D03*
X0365089Y0144783D03*
X0365089Y0144748D03*
X0365089Y0144713D03*
X0365054Y0144608D03*
X0365054Y0144573D03*
X0365054Y0144538D03*
X0365019Y0144468D03*
X0365019Y0144433D03*
X0365019Y0144398D03*
X0365019Y0144363D03*
X0364984Y0144293D03*
X0364984Y0144258D03*
X0364984Y0144223D03*
X0364984Y0144188D03*
X0364949Y0144118D03*
X0364949Y0144083D03*
X0364949Y0144048D03*
X0364949Y0143978D03*
X0364914Y0143943D03*
X0364914Y0143908D03*
X0364914Y0143873D03*
X0364879Y0143803D03*
X0364879Y0143768D03*
X0364879Y0143733D03*
X0364879Y0143698D03*
X0364844Y0143628D03*
X0364844Y0143593D03*
X0364844Y0143558D03*
X0364844Y0143523D03*
X0364809Y0143453D03*
X0364809Y0143418D03*
X0364809Y0143383D03*
X0364809Y0143313D03*
X0364774Y0143278D03*
X0364774Y0143243D03*
X0364774Y0143208D03*
X0364739Y0143138D03*
X0364739Y0143103D03*
X0364739Y0143068D03*
X0364739Y0143033D03*
X0364704Y0142963D03*
X0364704Y0142928D03*
X0364704Y0142893D03*
X0364704Y0142858D03*
X0364669Y0142788D03*
X0364669Y0142753D03*
X0364669Y0142718D03*
X0364669Y0142648D03*
X0364634Y0142613D03*
X0364634Y0142578D03*
X0364634Y0142543D03*
X0364599Y0142473D03*
X0364599Y0142438D03*
X0364599Y0142403D03*
X0364599Y0142368D03*
X0364564Y0142298D03*
X0364564Y0142263D03*
X0364564Y0142228D03*
X0364564Y0142193D03*
X0364529Y0142123D03*
X0364529Y0142088D03*
X0364529Y0142053D03*
X0364529Y0142018D03*
X0364494Y0141948D03*
X0364494Y0141913D03*
X0364494Y0141878D03*
X0364039Y0142053D03*
X0364039Y0142088D03*
X0364039Y0142123D03*
X0364039Y0142158D03*
X0364074Y0142228D03*
X0364074Y0142263D03*
X0364074Y0142298D03*
X0364074Y0142333D03*
X0364109Y0142403D03*
X0364109Y0142438D03*
X0364109Y0142473D03*
X0364109Y0142508D03*
X0364144Y0142578D03*
X0364144Y0142613D03*
X0364144Y0142683D03*
X0364179Y0142718D03*
X0364179Y0142753D03*
X0364179Y0142788D03*
X0364179Y0142823D03*
X0364214Y0142893D03*
X0364214Y0142928D03*
X0364214Y0142963D03*
X0364214Y0142998D03*
X0364249Y0143068D03*
X0364249Y0143103D03*
X0364249Y0143138D03*
X0364249Y0143173D03*
X0364284Y0143243D03*
X0364284Y0143278D03*
X0364284Y0143313D03*
X0364284Y0143348D03*
X0364319Y0143418D03*
X0364319Y0143453D03*
X0364004Y0142018D03*
X0364004Y0141983D03*
X0364004Y0141948D03*
X0364004Y0141913D03*
X0363969Y0141878D03*
X0362814Y0139568D03*
X0362814Y0139498D03*
X0362779Y0139463D03*
X0362779Y0139393D03*
X0362779Y0139323D03*
X0362779Y0139253D03*
X0362779Y0139183D03*
X0362814Y0139148D03*
X0362814Y0139078D03*
X0362814Y0139043D03*
X0365824Y0139113D03*
X0365859Y0139148D03*
X0365824Y0139183D03*
X0365859Y0139218D03*
X0365824Y0139253D03*
X0365824Y0139393D03*
X0365859Y0139428D03*
X0365824Y0139463D03*
X0365859Y0139498D03*
X0365824Y0139533D03*
X0365824Y0139673D03*
X0365859Y0139708D03*
X0365824Y0139743D03*
X0365824Y0138973D03*
X0365859Y0138938D03*
X0365824Y0138903D03*
X0365859Y0138868D03*
X0365824Y0138833D03*
X0365824Y0138693D03*
X0365859Y0138658D03*
X0365824Y0138623D03*
X0365859Y0138588D03*
X0365824Y0138553D03*
X0367364Y0138553D03*
X0367364Y0138623D03*
X0367364Y0138658D03*
X0367364Y0138728D03*
X0367364Y0138763D03*
X0367364Y0138833D03*
X0367364Y0138868D03*
X0367364Y0138903D03*
X0367364Y0138973D03*
X0367364Y0139008D03*
X0367364Y0139393D03*
X0367364Y0139428D03*
X0367364Y0139498D03*
X0367364Y0139533D03*
X0367364Y0139603D03*
X0367364Y0139638D03*
X0367364Y0139673D03*
X0367364Y0139743D03*
X0368974Y0139638D03*
X0368974Y0139603D03*
X0368974Y0139568D03*
X0368974Y0139498D03*
X0368939Y0138903D03*
X0368939Y0138868D03*
X0368939Y0138833D03*
X0368939Y0138798D03*
X0368939Y0138728D03*
X0368939Y0138693D03*
X0368939Y0138658D03*
X0368939Y0138588D03*
X0368939Y0138553D03*
X0369814Y0138553D03*
X0369849Y0138588D03*
X0369814Y0138623D03*
X0369814Y0138658D03*
X0369814Y0138763D03*
X0369814Y0138833D03*
X0369814Y0138938D03*
X0369814Y0138973D03*
X0369849Y0139008D03*
X0369814Y0139043D03*
X0369814Y0139078D03*
X0369814Y0139183D03*
X0369814Y0139253D03*
X0369814Y0139358D03*
X0369814Y0139393D03*
X0369849Y0139428D03*
X0369814Y0139463D03*
X0369814Y0139498D03*
X0369814Y0139603D03*
X0369814Y0139673D03*
X0369814Y0139778D03*
X0369814Y0139813D03*
X0369849Y0139848D03*
X0369814Y0139883D03*
X0369814Y0139918D03*
X0369814Y0139953D03*
X0369849Y0139988D03*
X0369814Y0140023D03*
X0369814Y0140058D03*
X0370724Y0139568D03*
X0370724Y0139498D03*
X0370689Y0139463D03*
X0370689Y0139393D03*
X0370724Y0139358D03*
X0370689Y0139323D03*
X0370724Y0139148D03*
X0370724Y0139078D03*
X0370234Y0141878D03*
X0370234Y0141913D03*
X0370234Y0141948D03*
X0370234Y0141983D03*
X0370269Y0142053D03*
X0370269Y0142088D03*
X0370269Y0142123D03*
X0370269Y0142158D03*
X0370304Y0142193D03*
X0370304Y0142228D03*
X0370304Y0142263D03*
X0370304Y0142333D03*
X0370339Y0142368D03*
X0370339Y0142403D03*
X0370339Y0142438D03*
X0370339Y0142473D03*
X0370374Y0142543D03*
X0370374Y0142578D03*
X0370374Y0142613D03*
X0370374Y0142683D03*
X0370409Y0142718D03*
X0370409Y0142753D03*
X0370409Y0142823D03*
X0370444Y0142858D03*
X0370444Y0142893D03*
X0370444Y0142928D03*
X0370444Y0142963D03*
X0370444Y0142998D03*
X0370479Y0143033D03*
X0370479Y0143068D03*
X0370479Y0143103D03*
X0370479Y0143173D03*
X0370514Y0143208D03*
X0370514Y0143243D03*
X0370514Y0143278D03*
X0370514Y0143313D03*
X0370969Y0145588D03*
X0370969Y0145623D03*
X0371004Y0145693D03*
X0371004Y0145728D03*
X0371004Y0145763D03*
X0371004Y0145798D03*
X0371039Y0145868D03*
X0371039Y0145903D03*
X0371039Y0145938D03*
X0371039Y0145973D03*
X0371074Y0146043D03*
X0371074Y0146078D03*
X0371074Y0146113D03*
X0371074Y0146148D03*
X0371109Y0146183D03*
X0371109Y0146218D03*
X0371109Y0146253D03*
X0371109Y0146323D03*
X0371144Y0146358D03*
X0371144Y0146393D03*
X0371144Y0146428D03*
X0371144Y0146463D03*
X0371179Y0146533D03*
X0371179Y0146568D03*
X0371179Y0146603D03*
X0371179Y0146638D03*
X0368799Y0147023D03*
X0368799Y0147058D03*
X0368799Y0147093D03*
X0368799Y0147128D03*
X0368834Y0147198D03*
X0368834Y0147233D03*
X0368834Y0147268D03*
X0368834Y0147303D03*
X0368869Y0147373D03*
X0368869Y0147408D03*
X0368869Y0147443D03*
X0368904Y0147548D03*
X0368904Y0147583D03*
X0368904Y0147618D03*
X0368939Y0147688D03*
X0368939Y0147723D03*
X0368939Y0147758D03*
X0368939Y0147793D03*
X0368974Y0147828D03*
X0368974Y0147898D03*
X0368974Y0147933D03*
X0369009Y0148038D03*
X0369009Y0148073D03*
X0369009Y0148108D03*
X0369009Y0148143D03*
X0369044Y0148213D03*
X0369044Y0148248D03*
X0369044Y0148283D03*
X0369079Y0148318D03*
X0369079Y0148388D03*
X0369079Y0148423D03*
X0369079Y0148458D03*
X0369114Y0148528D03*
X0369114Y0148563D03*
X0369114Y0148598D03*
X0368379Y0148598D03*
X0368379Y0148563D03*
X0368379Y0148528D03*
X0368379Y0148493D03*
X0368344Y0148458D03*
X0368344Y0148423D03*
X0368344Y0148388D03*
X0368344Y0148353D03*
X0368309Y0148283D03*
X0368309Y0148248D03*
X0368309Y0148213D03*
X0368309Y0148178D03*
X0368274Y0148108D03*
X0368274Y0148073D03*
X0368274Y0148038D03*
X0368274Y0148003D03*
X0368239Y0147933D03*
X0368239Y0147898D03*
X0368239Y0147863D03*
X0368239Y0147828D03*
X0368204Y0147793D03*
X0368204Y0147723D03*
X0368204Y0147688D03*
X0368169Y0147618D03*
X0368169Y0147583D03*
X0368169Y0147548D03*
X0368169Y0147513D03*
X0368134Y0147443D03*
X0368134Y0147408D03*
X0368134Y0147373D03*
X0368134Y0147338D03*
X0368099Y0147303D03*
X0368099Y0147233D03*
X0368099Y0147198D03*
X0368099Y0147163D03*
X0368064Y0147128D03*
X0368064Y0147093D03*
X0368064Y0147058D03*
X0368064Y0147023D03*
X0368029Y0146953D03*
X0368029Y0146918D03*
X0368029Y0146883D03*
X0368029Y0146848D03*
X0367994Y0146778D03*
X0367994Y0146743D03*
X0367994Y0146708D03*
X0367994Y0146673D03*
X0367959Y0146603D03*
X0367959Y0146568D03*
X0367959Y0146533D03*
X0367959Y0146498D03*
X0367924Y0146463D03*
X0367924Y0146393D03*
X0367924Y0146358D03*
X0367889Y0146288D03*
X0367889Y0146253D03*
X0367889Y0146218D03*
X0367889Y0146183D03*
X0367854Y0146113D03*
X0367854Y0146078D03*
X0367854Y0146043D03*
X0367854Y0146008D03*
X0367819Y0145973D03*
X0367819Y0145903D03*
X0367819Y0145868D03*
X0367819Y0145833D03*
X0367784Y0145798D03*
X0367784Y0145763D03*
X0367784Y0145728D03*
X0367784Y0145693D03*
X0367784Y0145658D03*
X0367749Y0145623D03*
X0367749Y0145553D03*
X0367749Y0145518D03*
X0367714Y0145483D03*
X0367714Y0145413D03*
X0367714Y0145378D03*
X0367714Y0145343D03*
X0367679Y0145273D03*
X0367679Y0145238D03*
X0367679Y0145203D03*
X0367679Y0145168D03*
X0367644Y0145133D03*
X0367644Y0145063D03*
X0367644Y0145028D03*
X0367644Y0144993D03*
X0367609Y0144958D03*
X0367609Y0144923D03*
X0367609Y0144888D03*
X0367609Y0144853D03*
X0367574Y0144783D03*
X0367574Y0144748D03*
X0367574Y0144713D03*
X0367574Y0144678D03*
X0367539Y0144643D03*
X0367539Y0144608D03*
X0367539Y0144573D03*
X0367539Y0144538D03*
X0367539Y0144503D03*
X0367504Y0144468D03*
X0367504Y0144433D03*
X0367504Y0144398D03*
X0367504Y0144363D03*
X0367504Y0144328D03*
X0367469Y0144293D03*
X0367469Y0144258D03*
X0367469Y0144223D03*
X0367469Y0144188D03*
X0367434Y0144153D03*
X0367434Y0144083D03*
X0367434Y0144048D03*
X0367434Y0144013D03*
X0367399Y0143978D03*
X0367399Y0143943D03*
X0367399Y0143908D03*
X0367399Y0143873D03*
X0367399Y0143838D03*
X0367364Y0143803D03*
X0367364Y0143768D03*
X0367364Y0143733D03*
X0367364Y0143698D03*
X0367364Y0143663D03*
X0367329Y0143628D03*
X0367329Y0143593D03*
X0367329Y0143558D03*
X0367329Y0143523D03*
X0367294Y0143453D03*
X0367294Y0143418D03*
X0367294Y0143383D03*
X0367294Y0143348D03*
X0367259Y0143313D03*
X0367259Y0143278D03*
X0367259Y0143243D03*
X0367259Y0143208D03*
X0367224Y0143138D03*
X0367224Y0143103D03*
X0367224Y0143068D03*
X0367224Y0143033D03*
X0367189Y0142963D03*
X0367189Y0142928D03*
X0367189Y0142893D03*
X0367189Y0142858D03*
X0367154Y0142823D03*
X0367154Y0142753D03*
X0367154Y0142718D03*
X0367119Y0142648D03*
X0367119Y0142613D03*
X0367119Y0142578D03*
X0367119Y0142543D03*
X0367084Y0142473D03*
X0367084Y0142438D03*
X0367084Y0142403D03*
X0367084Y0142368D03*
X0367049Y0142298D03*
X0367049Y0142263D03*
X0367049Y0142228D03*
X0367049Y0142193D03*
X0367014Y0142123D03*
X0367014Y0142088D03*
X0367014Y0142053D03*
X0366979Y0141983D03*
X0366979Y0141948D03*
X0366979Y0141913D03*
X0366979Y0141878D03*
X0367714Y0141913D03*
X0367714Y0141948D03*
X0367749Y0142053D03*
X0367749Y0142088D03*
X0367749Y0142123D03*
X0367784Y0142193D03*
X0367784Y0142228D03*
X0367784Y0142263D03*
X0367784Y0142298D03*
X0367819Y0142368D03*
X0367819Y0142403D03*
X0367819Y0142438D03*
X0367819Y0142473D03*
X0367854Y0142543D03*
X0367854Y0142578D03*
X0367854Y0142613D03*
X0367889Y0142718D03*
X0367889Y0142753D03*
X0367889Y0142788D03*
X0367924Y0142858D03*
X0367924Y0142893D03*
X0367924Y0142928D03*
X0367924Y0142963D03*
X0367959Y0143033D03*
X0367959Y0143068D03*
X0367959Y0143103D03*
X0367959Y0143138D03*
X0367994Y0143208D03*
X0367994Y0143243D03*
X0367994Y0143278D03*
X0367994Y0143313D03*
X0368029Y0143383D03*
X0368029Y0143418D03*
X0368029Y0143453D03*
X0368064Y0143488D03*
X0368064Y0143558D03*
X0368064Y0143593D03*
X0368064Y0143628D03*
X0368099Y0143698D03*
X0368099Y0143733D03*
X0368099Y0143768D03*
X0368099Y0143803D03*
X0368134Y0143873D03*
X0368134Y0143908D03*
X0368134Y0143943D03*
X0368169Y0144048D03*
X0368169Y0144083D03*
X0368169Y0144118D03*
X0368204Y0144188D03*
X0368204Y0144223D03*
X0368204Y0144258D03*
X0368204Y0144293D03*
X0368239Y0144363D03*
X0368239Y0144398D03*
X0368239Y0144433D03*
X0368239Y0144468D03*
X0368274Y0144538D03*
X0368274Y0144573D03*
X0368274Y0144608D03*
X0368274Y0144643D03*
X0368309Y0144713D03*
X0368309Y0144748D03*
X0368309Y0144783D03*
X0368344Y0144888D03*
X0368344Y0144923D03*
X0368344Y0144958D03*
X0368379Y0145028D03*
X0368379Y0145063D03*
X0368379Y0145098D03*
X0368379Y0145133D03*
X0368414Y0145203D03*
X0368414Y0145238D03*
X0368414Y0145273D03*
X0368449Y0145378D03*
X0368449Y0145413D03*
X0368449Y0145448D03*
X0368449Y0145483D03*
X0368484Y0145518D03*
X0368484Y0145553D03*
X0368484Y0145588D03*
X0368484Y0145623D03*
X0368519Y0145693D03*
X0368519Y0145728D03*
X0368519Y0145763D03*
X0368519Y0145798D03*
X0368554Y0145868D03*
X0368554Y0145903D03*
X0368554Y0145938D03*
X0368554Y0145973D03*
X0368589Y0146043D03*
X0368589Y0146078D03*
X0368589Y0146113D03*
X0368624Y0146218D03*
X0368624Y0146253D03*
X0368624Y0146288D03*
X0368659Y0146358D03*
X0368659Y0146393D03*
X0368659Y0146428D03*
X0368659Y0146463D03*
X0368694Y0146533D03*
X0368694Y0146568D03*
X0368694Y0146603D03*
X0368694Y0146638D03*
X0368729Y0146708D03*
X0368729Y0146743D03*
X0368729Y0146778D03*
X0368729Y0146813D03*
X0368764Y0146848D03*
X0368764Y0146883D03*
X0368764Y0146918D03*
X0368764Y0146953D03*
X0365894Y0148528D03*
X0365894Y0148563D03*
X0365894Y0148598D03*
X0374714Y0146673D03*
X0374714Y0146638D03*
X0374714Y0146603D03*
X0374714Y0146568D03*
X0374714Y0146533D03*
X0374714Y0146498D03*
X0374714Y0146463D03*
X0374714Y0146428D03*
X0374679Y0146323D03*
X0374679Y0146288D03*
X0374679Y0146253D03*
X0374679Y0146218D03*
X0374644Y0146148D03*
X0374644Y0146113D03*
X0374644Y0146078D03*
X0374609Y0145973D03*
X0374609Y0145938D03*
X0374609Y0145903D03*
X0374574Y0145868D03*
X0374574Y0145833D03*
X0376814Y0145028D03*
X0376849Y0145098D03*
X0376884Y0145168D03*
X0376919Y0145238D03*
X0376919Y0145273D03*
X0376954Y0145343D03*
X0376954Y0145378D03*
X0376989Y0145448D03*
X0376989Y0145483D03*
X0376989Y0145518D03*
X0377024Y0145553D03*
X0377024Y0145588D03*
X0377024Y0145623D03*
X0377024Y0145658D03*
X0377059Y0145728D03*
X0377059Y0145763D03*
X0377059Y0145798D03*
X0377059Y0145833D03*
X0377094Y0145903D03*
X0377094Y0145938D03*
X0377094Y0145973D03*
X0377094Y0146008D03*
X0377129Y0146078D03*
X0377129Y0146113D03*
X0377129Y0146183D03*
X0377164Y0146218D03*
X0377164Y0146253D03*
X0377164Y0146288D03*
X0377164Y0146323D03*
X0377199Y0146393D03*
X0377199Y0146428D03*
X0377199Y0146463D03*
X0377199Y0146533D03*
X0377234Y0146603D03*
X0377234Y0146638D03*
X0377234Y0146673D03*
X0377234Y0146708D03*
X0377234Y0146743D03*
X0377234Y0146813D03*
X0377234Y0146883D03*
X0377234Y0147163D03*
X0377234Y0147303D03*
X0377234Y0147373D03*
X0377234Y0147408D03*
X0377234Y0147443D03*
X0377234Y0147478D03*
X0377199Y0147513D03*
X0377199Y0147583D03*
X0377199Y0147618D03*
X0377199Y0147653D03*
X0377164Y0147688D03*
X0377164Y0147723D03*
X0377129Y0147793D03*
X0377129Y0147828D03*
X0377094Y0147898D03*
X0378004Y0147443D03*
X0377969Y0147373D03*
X0377934Y0147303D03*
X0377934Y0147268D03*
X0377899Y0147198D03*
X0377864Y0147128D03*
X0377864Y0147093D03*
X0377829Y0147023D03*
X0377829Y0146988D03*
X0377829Y0146953D03*
X0377794Y0146918D03*
X0377794Y0146883D03*
X0377794Y0146848D03*
X0377759Y0146813D03*
X0377759Y0146778D03*
X0377759Y0146743D03*
X0377759Y0146708D03*
X0377724Y0146638D03*
X0377724Y0146603D03*
X0377724Y0146568D03*
X0377724Y0146533D03*
X0377689Y0146463D03*
X0377689Y0146428D03*
X0377689Y0146393D03*
X0377689Y0146358D03*
X0377654Y0146288D03*
X0377654Y0146253D03*
X0377654Y0146218D03*
X0377654Y0146148D03*
X0377619Y0146113D03*
X0377619Y0146078D03*
X0377619Y0146043D03*
X0377619Y0146008D03*
X0377619Y0145973D03*
X0377619Y0145938D03*
X0377619Y0145868D03*
X0377619Y0145833D03*
X0377619Y0145798D03*
X0377619Y0145728D03*
X0377619Y0145693D03*
X0377619Y0145658D03*
X0377619Y0145623D03*
X0377619Y0145588D03*
X0377654Y0145518D03*
X0377654Y0145483D03*
X0377654Y0145448D03*
X0377654Y0145413D03*
X0377689Y0145343D03*
X0377689Y0145308D03*
X0377724Y0145238D03*
X0377724Y0145203D03*
X0377234Y0144013D03*
X0377234Y0143978D03*
X0377234Y0143943D03*
X0377234Y0143908D03*
X0377199Y0143873D03*
X0377199Y0143838D03*
X0377199Y0143803D03*
X0377199Y0143768D03*
X0377164Y0143698D03*
X0377164Y0143663D03*
X0377164Y0143628D03*
X0377164Y0143593D03*
X0377129Y0143523D03*
X0377129Y0143488D03*
X0377129Y0143453D03*
X0377129Y0143418D03*
X0377094Y0143348D03*
X0377094Y0143313D03*
X0377094Y0143278D03*
X0377094Y0143208D03*
X0377059Y0143173D03*
X0377059Y0143138D03*
X0377059Y0143103D03*
X0377059Y0143068D03*
X0377059Y0143033D03*
X0377059Y0142998D03*
X0377059Y0142928D03*
X0377059Y0142893D03*
X0377059Y0142858D03*
X0377059Y0142823D03*
X0377059Y0142788D03*
X0377094Y0142753D03*
X0377094Y0142718D03*
X0377094Y0142683D03*
X0377094Y0142648D03*
X0377094Y0142613D03*
X0377129Y0142578D03*
X0377129Y0142543D03*
X0377164Y0142473D03*
X0379474Y0143663D03*
X0379474Y0143698D03*
X0379474Y0143768D03*
X0379474Y0143803D03*
X0379474Y0143838D03*
X0379509Y0143943D03*
X0379509Y0143978D03*
X0379509Y0144013D03*
X0379999Y0146393D03*
X0379999Y0146428D03*
X0380034Y0146533D03*
X0380034Y0146603D03*
X0383569Y0146603D03*
X0383569Y0146568D03*
X0383569Y0146638D03*
X0383604Y0146743D03*
X0383604Y0146778D03*
X0385424Y0145448D03*
X0385459Y0145343D03*
X0385494Y0145273D03*
X0385494Y0145238D03*
X0385494Y0145203D03*
X0385529Y0145168D03*
X0385529Y0145133D03*
X0385529Y0145098D03*
X0385529Y0145063D03*
X0385529Y0144993D03*
X0385564Y0144818D03*
X0385564Y0144783D03*
X0385564Y0144748D03*
X0385564Y0144713D03*
X0385564Y0144678D03*
X0385564Y0144608D03*
X0385564Y0144573D03*
X0385529Y0144503D03*
X0385529Y0144433D03*
X0385529Y0144398D03*
X0385529Y0144363D03*
X0385529Y0144328D03*
X0385529Y0144293D03*
X0385529Y0144258D03*
X0385494Y0144223D03*
X0385494Y0144188D03*
X0385494Y0144153D03*
X0385494Y0144118D03*
X0385459Y0144013D03*
X0385459Y0143978D03*
X0385459Y0143943D03*
X0385424Y0143908D03*
X0385424Y0143873D03*
X0385424Y0143803D03*
X0385424Y0143768D03*
X0383289Y0144048D03*
X0383254Y0144013D03*
X0383254Y0143978D03*
X0383254Y0143943D03*
X0383254Y0143908D03*
X0383219Y0143838D03*
X0383219Y0143803D03*
X0383254Y0144083D03*
X0383254Y0144118D03*
D60*
X0379124Y0138553D03*
X0371634Y0138658D03*
X0371599Y0138693D03*
X0371599Y0139918D03*
X0371599Y0139953D03*
X0368064Y0139218D03*
X0363689Y0138693D03*
X0363689Y0139953D03*
X0361274Y0139953D03*
X0361274Y0138693D03*
X0361309Y0138658D03*
X0356724Y0138658D03*
X0356689Y0138693D03*
X0356689Y0139953D03*
X0390464Y0146638D03*
D61*
X0371669Y0140023D03*
X0361379Y0138588D03*
X0356794Y0138588D03*
D62*
X0359139Y0138588D03*
D63*
X0361397Y0140058D03*
X0363777Y0138588D03*
X0356812Y0140058D03*
X0371687Y0138588D03*
D64*
X0370742Y0139008D03*
X0370742Y0139043D03*
X0370707Y0139113D03*
X0370707Y0139183D03*
X0370707Y0139253D03*
X0370707Y0139288D03*
X0370707Y0139428D03*
X0370707Y0139533D03*
X0370742Y0139603D03*
X0370742Y0139638D03*
X0369832Y0139638D03*
X0369832Y0139533D03*
X0369832Y0139323D03*
X0369832Y0139218D03*
X0369832Y0139113D03*
X0369832Y0138903D03*
X0369832Y0138798D03*
X0369832Y0138693D03*
X0368922Y0138763D03*
X0368922Y0138623D03*
X0368922Y0138938D03*
X0368922Y0138973D03*
X0368922Y0139428D03*
X0368957Y0139463D03*
X0368957Y0139533D03*
X0368957Y0139673D03*
X0368957Y0139708D03*
X0369832Y0139743D03*
X0367382Y0139778D03*
X0367382Y0139708D03*
X0367382Y0139568D03*
X0367382Y0139463D03*
X0367382Y0139358D03*
X0367382Y0138938D03*
X0367382Y0138798D03*
X0367382Y0138693D03*
X0367382Y0138588D03*
X0365842Y0138728D03*
X0365842Y0138798D03*
X0365842Y0139008D03*
X0365842Y0139078D03*
X0365842Y0139288D03*
X0365842Y0139358D03*
X0365842Y0139568D03*
X0365842Y0139638D03*
X0365842Y0139778D03*
X0367732Y0141878D03*
X0367732Y0141983D03*
X0367872Y0142648D03*
X0368152Y0143978D03*
X0368327Y0144818D03*
X0368432Y0145308D03*
X0368607Y0146148D03*
X0368887Y0147478D03*
X0368992Y0147968D03*
X0364967Y0146883D03*
X0362832Y0139638D03*
X0362832Y0139603D03*
X0362797Y0139533D03*
X0362797Y0139428D03*
X0362797Y0139358D03*
X0362797Y0139288D03*
X0362797Y0139218D03*
X0362797Y0139113D03*
X0362832Y0139008D03*
X0360417Y0139008D03*
X0360382Y0139113D03*
X0360382Y0139533D03*
X0360417Y0139638D03*
X0358247Y0139673D03*
X0358247Y0139568D03*
X0358247Y0139358D03*
X0358247Y0139253D03*
X0358247Y0139148D03*
X0358282Y0139008D03*
X0358282Y0138973D03*
X0358317Y0138938D03*
X0358247Y0139778D03*
X0358247Y0139883D03*
X0358247Y0140023D03*
X0355832Y0139638D03*
X0355797Y0139533D03*
X0355797Y0139113D03*
X0355832Y0139008D03*
X0355832Y0138973D03*
X0355167Y0141878D03*
X0355517Y0143523D03*
X0374522Y0145728D03*
X0374557Y0145763D03*
X0374557Y0145798D03*
X0374627Y0146008D03*
X0376762Y0144923D03*
X0376762Y0144888D03*
X0376727Y0144853D03*
X0376727Y0144818D03*
X0376692Y0144783D03*
X0376692Y0144748D03*
X0376657Y0144713D03*
X0376622Y0144678D03*
X0376587Y0144608D03*
X0376797Y0144958D03*
X0376797Y0144993D03*
X0376832Y0145063D03*
X0376867Y0145133D03*
X0376902Y0145203D03*
X0376937Y0145308D03*
X0376972Y0145413D03*
X0377672Y0145378D03*
X0377707Y0145273D03*
X0377742Y0145168D03*
X0377777Y0145133D03*
X0377777Y0145098D03*
X0377812Y0145063D03*
X0377882Y0144958D03*
X0379492Y0143908D03*
X0379457Y0143733D03*
X0377217Y0142403D03*
X0377217Y0142368D03*
X0377252Y0142333D03*
X0377182Y0142438D03*
X0377147Y0142508D03*
X0377847Y0147058D03*
X0377882Y0147163D03*
X0377917Y0147233D03*
X0377952Y0147338D03*
X0378022Y0147478D03*
X0378057Y0147513D03*
X0378057Y0147548D03*
X0378092Y0147583D03*
X0378092Y0147618D03*
X0378127Y0147653D03*
X0378162Y0147723D03*
X0377147Y0147758D03*
X0377112Y0147863D03*
X0377077Y0147933D03*
X0377042Y0147968D03*
X0377042Y0148003D03*
X0380052Y0146638D03*
X0380087Y0146673D03*
X0380017Y0146498D03*
X0383552Y0146498D03*
X0383552Y0146463D03*
X0383587Y0146673D03*
X0385372Y0145518D03*
X0385407Y0145483D03*
X0385442Y0145413D03*
X0385442Y0145378D03*
X0385477Y0145308D03*
X0385547Y0144853D03*
X0385547Y0144643D03*
X0385477Y0144083D03*
X0383202Y0143768D03*
D65*
X0363742Y0140023D03*
X0363742Y0138623D03*
X0359017Y0138728D03*
X0356742Y0138623D03*
X0356742Y0140023D03*
D66*
X0359069Y0138658D03*
X0359104Y0138623D03*
X0363794Y0140058D03*
X0371704Y0140058D03*
X0378214Y0141878D03*
X0379684Y0148598D03*
D67*
X0388172Y0144083D03*
X0371652Y0138623D03*
X0368012Y0140058D03*
X0361327Y0140023D03*
X0361327Y0138623D03*
X0359052Y0138693D03*
D68*
X0359017Y0138833D03*
X0358982Y0138868D03*
X0356742Y0139988D03*
X0361327Y0139988D03*
X0363707Y0138658D03*
X0368047Y0139183D03*
X0368047Y0140023D03*
X0371652Y0139988D03*
D69*
X0371564Y0139883D03*
X0371564Y0138763D03*
X0368099Y0139113D03*
X0368099Y0139288D03*
X0368099Y0139953D03*
X0365824Y0140093D03*
X0361274Y0139918D03*
X0361239Y0139883D03*
X0361239Y0138763D03*
X0361274Y0138728D03*
X0356689Y0138728D03*
X0356689Y0139918D03*
D70*
X0363672Y0139918D03*
X0363672Y0138728D03*
X0368082Y0139148D03*
X0368082Y0139253D03*
X0368082Y0139988D03*
X0371582Y0138728D03*
D71*
X0370707Y0139218D03*
X0369832Y0139148D03*
X0369832Y0139288D03*
X0369832Y0139568D03*
X0369832Y0139708D03*
X0369832Y0140093D03*
X0369832Y0138868D03*
X0369832Y0138728D03*
X0370252Y0142018D03*
X0370322Y0142298D03*
X0370357Y0142508D03*
X0370392Y0142648D03*
X0370427Y0142788D03*
X0370497Y0143138D03*
X0368082Y0143663D03*
X0368047Y0143523D03*
X0368117Y0143838D03*
X0368152Y0144013D03*
X0368222Y0144328D03*
X0368257Y0144503D03*
X0368292Y0144678D03*
X0368327Y0144853D03*
X0368397Y0145168D03*
X0368432Y0145343D03*
X0368502Y0145658D03*
X0368572Y0146008D03*
X0368607Y0146183D03*
X0368642Y0146323D03*
X0368677Y0146498D03*
X0368782Y0146988D03*
X0368817Y0147163D03*
X0368852Y0147338D03*
X0368922Y0147653D03*
X0368957Y0147863D03*
X0368992Y0148003D03*
X0369027Y0148178D03*
X0369097Y0148493D03*
X0368327Y0148318D03*
X0368292Y0148143D03*
X0368257Y0147968D03*
X0368222Y0147758D03*
X0368152Y0147478D03*
X0368117Y0147268D03*
X0368047Y0146988D03*
X0367977Y0146638D03*
X0367942Y0146428D03*
X0367907Y0146323D03*
X0367872Y0146148D03*
X0367767Y0145588D03*
X0367732Y0145448D03*
X0367697Y0145308D03*
X0367592Y0144818D03*
X0367452Y0144118D03*
X0367242Y0143173D03*
X0367207Y0142998D03*
X0367172Y0142788D03*
X0367102Y0142508D03*
X0367067Y0142333D03*
X0367032Y0142158D03*
X0366997Y0142018D03*
X0367732Y0142018D03*
X0367767Y0142158D03*
X0367802Y0142333D03*
X0367872Y0142683D03*
X0367907Y0142823D03*
X0367942Y0142998D03*
X0367977Y0143173D03*
X0364897Y0143838D03*
X0364932Y0144013D03*
X0364967Y0144153D03*
X0365002Y0144328D03*
X0365072Y0144643D03*
X0365072Y0144678D03*
X0365107Y0144818D03*
X0365142Y0144993D03*
X0365177Y0145168D03*
X0365247Y0145483D03*
X0365282Y0145658D03*
X0365317Y0145833D03*
X0365352Y0145973D03*
X0365352Y0146008D03*
X0365422Y0146323D03*
X0365457Y0146498D03*
X0365492Y0146638D03*
X0365492Y0146673D03*
X0365527Y0146813D03*
X0365597Y0147163D03*
X0365632Y0147303D03*
X0365632Y0147338D03*
X0365667Y0147513D03*
X0365702Y0147653D03*
X0365772Y0147968D03*
X0365772Y0148003D03*
X0365807Y0148143D03*
X0365842Y0148318D03*
X0365877Y0148493D03*
X0365352Y0148563D03*
X0365317Y0148388D03*
X0365282Y0148178D03*
X0365247Y0148073D03*
X0365177Y0147723D03*
X0365142Y0147548D03*
X0365107Y0147408D03*
X0365072Y0147233D03*
X0364827Y0143488D03*
X0364792Y0143348D03*
X0364757Y0143173D03*
X0364722Y0142998D03*
X0364652Y0142683D03*
X0364617Y0142508D03*
X0364582Y0142333D03*
X0364547Y0142158D03*
X0364057Y0142193D03*
X0364092Y0142368D03*
X0364127Y0142543D03*
X0364197Y0142858D03*
X0364232Y0143033D03*
X0364267Y0143208D03*
X0364302Y0143383D03*
X0365842Y0139603D03*
X0365842Y0139323D03*
X0365842Y0139043D03*
X0365842Y0138763D03*
X0358247Y0139183D03*
X0358247Y0139743D03*
X0358247Y0139953D03*
X0358247Y0140093D03*
X0355167Y0141913D03*
X0355167Y0141948D03*
X0355202Y0142088D03*
X0355272Y0142438D03*
X0355307Y0142578D03*
X0355307Y0142613D03*
X0355342Y0142753D03*
X0355377Y0142928D03*
X0355447Y0143243D03*
X0355447Y0143278D03*
X0355482Y0143418D03*
X0356252Y0147093D03*
X0356322Y0147408D03*
X0356322Y0147443D03*
X0356357Y0147583D03*
X0356392Y0147758D03*
X0356427Y0147933D03*
X0356497Y0148248D03*
X0356532Y0148423D03*
X0371022Y0145833D03*
X0371057Y0146008D03*
X0371127Y0146288D03*
X0371197Y0146673D03*
X0374627Y0146043D03*
X0374697Y0146358D03*
X0374697Y0146393D03*
X0377077Y0145868D03*
X0377042Y0145693D03*
X0377147Y0146148D03*
X0377182Y0146358D03*
X0377217Y0146498D03*
X0377217Y0146568D03*
X0377252Y0146778D03*
X0377252Y0146848D03*
X0377252Y0146918D03*
X0377252Y0146953D03*
X0377252Y0146988D03*
X0377252Y0147023D03*
X0377252Y0147058D03*
X0377252Y0147093D03*
X0377252Y0147128D03*
X0377252Y0147198D03*
X0377252Y0147233D03*
X0377252Y0147268D03*
X0377252Y0147338D03*
X0377217Y0147548D03*
X0377742Y0146673D03*
X0377707Y0146498D03*
X0377672Y0146323D03*
X0377602Y0145903D03*
X0377602Y0145763D03*
X0377252Y0144048D03*
X0377182Y0143733D03*
X0377147Y0143558D03*
X0377077Y0143243D03*
X0377042Y0142963D03*
X0379492Y0143873D03*
X0379527Y0144048D03*
X0380017Y0146358D03*
X0380017Y0146463D03*
X0380052Y0146568D03*
X0383552Y0146533D03*
X0385547Y0145028D03*
X0385547Y0144958D03*
X0385547Y0144923D03*
X0385547Y0144888D03*
X0385547Y0144538D03*
X0385547Y0144468D03*
X0385477Y0144048D03*
X0385442Y0143838D03*
X0391217Y0146778D03*
D72*
X0393317Y0140688D03*
X0384287Y0140688D03*
X0383517Y0138728D03*
D73*
X0382134Y0140653D03*
X0379439Y0140023D03*
X0391304Y0138728D03*
X0393509Y0140653D03*
D74*
X0392599Y0138728D03*
D75*
X0363654Y0138763D03*
X0363654Y0139848D03*
X0363654Y0139883D03*
X0356654Y0139883D03*
X0356654Y0138763D03*
D76*
X0358999Y0138798D03*
X0359034Y0138763D03*
X0363724Y0139988D03*
D77*
X0354939Y0138798D03*
X0382344Y0140688D03*
X0391374Y0140688D03*
X0392459Y0144363D03*
D78*
X0388294Y0144118D03*
X0371564Y0138798D03*
X0368134Y0139323D03*
X0368134Y0139883D03*
X0363619Y0138868D03*
X0361239Y0138798D03*
X0361239Y0139778D03*
X0356654Y0138798D03*
D79*
X0356637Y0138833D03*
X0356637Y0139813D03*
X0356672Y0139848D03*
X0361222Y0139813D03*
X0361257Y0139848D03*
X0361222Y0138833D03*
X0363637Y0138833D03*
X0363637Y0138798D03*
X0363637Y0139778D03*
X0363637Y0139813D03*
X0365842Y0139813D03*
X0365842Y0139848D03*
X0365842Y0139883D03*
X0365842Y0139918D03*
X0365842Y0139953D03*
X0365842Y0139988D03*
X0365842Y0140023D03*
X0365842Y0140058D03*
X0368117Y0139918D03*
X0368117Y0139078D03*
X0371547Y0138868D03*
X0371547Y0138833D03*
X0371547Y0139778D03*
X0371547Y0139813D03*
X0371582Y0139848D03*
X0382502Y0144188D03*
X0392862Y0139603D03*
D80*
X0394612Y0146708D03*
X0378932Y0148388D03*
X0378267Y0144678D03*
X0375607Y0143768D03*
X0360627Y0138868D03*
X0356042Y0138868D03*
D81*
X0355919Y0138903D03*
X0355919Y0139743D03*
X0355604Y0143593D03*
X0360504Y0138903D03*
X0362919Y0138903D03*
X0368869Y0139778D03*
X0370829Y0138903D03*
X0376184Y0144153D03*
X0376219Y0144188D03*
X0376254Y0144223D03*
X0376289Y0144258D03*
X0376814Y0148283D03*
X0376779Y0148318D03*
X0378354Y0147968D03*
X0378459Y0148073D03*
X0378494Y0148108D03*
X0385214Y0145728D03*
X0387594Y0143943D03*
X0394734Y0146673D03*
X0364914Y0146813D03*
D82*
X0362937Y0139743D03*
X0360522Y0139743D03*
X0358352Y0138903D03*
X0355622Y0143628D03*
X0368817Y0139043D03*
X0370847Y0139743D03*
X0376062Y0144048D03*
X0376097Y0144083D03*
X0376132Y0144118D03*
X0378022Y0144818D03*
X0377427Y0142123D03*
X0374417Y0145623D03*
X0376727Y0148353D03*
X0376692Y0148388D03*
X0378547Y0148143D03*
X0378582Y0148178D03*
X0383132Y0143698D03*
X0385162Y0145763D03*
D83*
X0383149Y0143733D03*
X0377864Y0144993D03*
X0376534Y0144538D03*
X0376499Y0144503D03*
X0376499Y0144468D03*
X0377024Y0148038D03*
X0376989Y0148073D03*
X0378214Y0147793D03*
X0370759Y0139673D03*
X0370759Y0138973D03*
X0362884Y0138938D03*
X0362849Y0138973D03*
X0362849Y0139673D03*
X0362884Y0139708D03*
X0360434Y0139673D03*
X0360434Y0138973D03*
X0355884Y0138938D03*
X0355849Y0139673D03*
X0355884Y0139708D03*
D84*
X0360469Y0139708D03*
X0360469Y0138938D03*
X0368869Y0139008D03*
X0368904Y0139393D03*
X0370794Y0138938D03*
X0376429Y0144398D03*
X0376569Y0144573D03*
X0376604Y0144643D03*
X0377829Y0145028D03*
X0378004Y0147408D03*
X0378144Y0147688D03*
X0378179Y0147758D03*
X0378319Y0147933D03*
X0376954Y0148143D03*
X0380104Y0146708D03*
X0377269Y0142298D03*
X0377304Y0142263D03*
X0374504Y0145693D03*
X0385319Y0145623D03*
X0385319Y0145588D03*
X0385354Y0145553D03*
X0356269Y0147023D03*
D85*
X0356899Y0140093D03*
X0361484Y0140093D03*
X0363899Y0140093D03*
X0367854Y0139043D03*
X0378669Y0144573D03*
X0388014Y0144048D03*
D86*
X0384759Y0145938D03*
X0378459Y0144608D03*
X0392389Y0139078D03*
D87*
X0379247Y0139113D03*
D88*
X0393999Y0146813D03*
X0361169Y0139428D03*
X0361169Y0139393D03*
X0361169Y0139358D03*
X0361169Y0139323D03*
X0361169Y0139288D03*
X0361169Y0139218D03*
X0361169Y0139183D03*
X0356584Y0139183D03*
X0356584Y0139218D03*
X0356584Y0139288D03*
X0356584Y0139323D03*
X0356584Y0139358D03*
X0356584Y0139393D03*
X0356584Y0139428D03*
D89*
X0356567Y0139463D03*
X0356567Y0139253D03*
X0356637Y0139778D03*
X0361152Y0139463D03*
X0361152Y0139253D03*
X0368152Y0139813D03*
X0368152Y0139848D03*
D90*
X0367907Y0140093D03*
X0371792Y0140093D03*
X0375327Y0139393D03*
X0383342Y0140723D03*
X0394297Y0146778D03*
D91*
X0375537Y0140093D03*
D92*
X0364109Y0140723D03*
D93*
X0375362Y0140723D03*
X0385827Y0142508D03*
X0385862Y0142543D03*
X0388627Y0144188D03*
X0386842Y0147933D03*
D94*
X0387874Y0144013D03*
X0379614Y0140723D03*
X0377934Y0141913D03*
X0379299Y0148528D03*
D95*
X0384549Y0145973D03*
X0387209Y0140723D03*
D96*
X0389834Y0140723D03*
X0387734Y0143978D03*
X0390989Y0146743D03*
X0378984Y0148423D03*
X0376359Y0148563D03*
X0377689Y0141983D03*
D97*
X0392372Y0140723D03*
D98*
X0359559Y0141773D03*
X0359559Y0141808D03*
X0359559Y0141843D03*
X0359524Y0141703D03*
X0359524Y0141668D03*
X0359524Y0141633D03*
X0359524Y0141598D03*
X0359524Y0141563D03*
D99*
X0365667Y0141563D03*
X0365667Y0141598D03*
X0365667Y0141633D03*
X0365702Y0141703D03*
X0365702Y0141738D03*
X0365702Y0141773D03*
X0368922Y0141668D03*
X0368957Y0141843D03*
X0367137Y0148633D03*
X0367172Y0148668D03*
X0367172Y0148703D03*
X0367172Y0148738D03*
X0367172Y0148773D03*
X0367207Y0148843D03*
X0367207Y0148878D03*
X0367207Y0148913D03*
X0385617Y0142228D03*
X0388802Y0144223D03*
D100*
X0386719Y0148248D03*
X0368904Y0141633D03*
X0368904Y0141598D03*
X0368904Y0141563D03*
D101*
X0382782Y0141563D03*
D102*
X0381207Y0143383D03*
X0372877Y0146988D03*
X0389187Y0144468D03*
X0389187Y0144433D03*
X0389222Y0144608D03*
X0389222Y0144643D03*
X0389257Y0144818D03*
X0389257Y0144853D03*
X0389292Y0145028D03*
X0389327Y0145203D03*
X0389327Y0145238D03*
X0389362Y0145378D03*
X0389362Y0145413D03*
X0389397Y0145588D03*
X0389432Y0145763D03*
X0389432Y0145798D03*
X0389467Y0145938D03*
X0389467Y0145973D03*
X0389502Y0146113D03*
X0389502Y0146148D03*
X0389502Y0146183D03*
X0389537Y0146323D03*
X0389537Y0146358D03*
X0392687Y0144223D03*
X0392232Y0141563D03*
X0393632Y0148948D03*
D103*
X0383972Y0148843D03*
X0382607Y0141598D03*
D104*
X0381924Y0146988D03*
X0392634Y0143943D03*
X0392634Y0143908D03*
X0392634Y0143873D03*
X0392634Y0143838D03*
X0392599Y0143733D03*
X0392599Y0143698D03*
X0392599Y0143663D03*
X0392599Y0143628D03*
X0392564Y0143558D03*
X0392564Y0143523D03*
X0392564Y0143488D03*
X0392564Y0143453D03*
X0392564Y0143418D03*
X0392459Y0142963D03*
X0392459Y0142928D03*
X0392459Y0142893D03*
X0392459Y0142858D03*
X0392459Y0142823D03*
X0392424Y0142788D03*
X0392424Y0142753D03*
X0392424Y0142718D03*
X0392424Y0142683D03*
X0392424Y0142648D03*
X0392424Y0142613D03*
X0392389Y0142578D03*
X0392389Y0142543D03*
X0392389Y0142508D03*
X0392389Y0142473D03*
X0392389Y0142438D03*
X0392389Y0142403D03*
X0392284Y0141948D03*
X0392284Y0141913D03*
X0392284Y0141878D03*
X0392284Y0141843D03*
X0392284Y0141808D03*
X0392284Y0141773D03*
X0392249Y0141738D03*
X0392249Y0141703D03*
X0392249Y0141668D03*
X0392249Y0141633D03*
X0392249Y0141598D03*
X0393439Y0148038D03*
X0393474Y0148178D03*
X0393474Y0148213D03*
X0393509Y0148353D03*
X0393509Y0148388D03*
X0393614Y0148808D03*
X0393614Y0148843D03*
X0393614Y0148878D03*
X0393614Y0148913D03*
X0372509Y0145308D03*
D105*
X0382502Y0141633D03*
D106*
X0386754Y0148213D03*
X0367189Y0148808D03*
X0365719Y0141843D03*
X0365719Y0141808D03*
X0365684Y0141668D03*
D107*
X0382432Y0141668D03*
D108*
X0368939Y0141703D03*
X0368939Y0141738D03*
X0368939Y0141773D03*
X0368939Y0141808D03*
D109*
X0360994Y0148738D03*
X0361029Y0148948D03*
X0382379Y0141703D03*
X0383709Y0148703D03*
D110*
X0382327Y0141738D03*
X0359542Y0141738D03*
D111*
X0382292Y0141773D03*
D112*
X0382257Y0141808D03*
D113*
X0382239Y0141843D03*
D114*
X0384812Y0141878D03*
D115*
X0385039Y0141913D03*
X0381259Y0143488D03*
X0372964Y0146708D03*
X0372964Y0146743D03*
D116*
X0372562Y0145343D03*
X0385162Y0141948D03*
X0392477Y0142998D03*
X0392512Y0143208D03*
X0392547Y0143383D03*
X0392582Y0143593D03*
X0392617Y0143768D03*
X0392617Y0143803D03*
X0392652Y0143978D03*
X0392652Y0144013D03*
X0392687Y0144153D03*
X0392687Y0144188D03*
X0393212Y0146848D03*
X0393212Y0146883D03*
X0393212Y0146918D03*
X0393212Y0146953D03*
X0393212Y0146988D03*
X0393247Y0147023D03*
X0393247Y0147058D03*
X0393247Y0147093D03*
X0393247Y0147128D03*
X0393247Y0147163D03*
X0393282Y0147198D03*
X0393282Y0147233D03*
X0393282Y0147268D03*
X0393282Y0147303D03*
X0393317Y0147373D03*
X0393317Y0147408D03*
X0393317Y0147443D03*
X0393317Y0147478D03*
X0393352Y0147548D03*
X0393352Y0147583D03*
X0393352Y0147618D03*
X0393352Y0147653D03*
X0393387Y0147723D03*
X0393387Y0147758D03*
X0393387Y0147793D03*
X0393387Y0147828D03*
X0393422Y0147898D03*
X0393422Y0147933D03*
X0393422Y0147968D03*
X0393422Y0148003D03*
X0393457Y0148073D03*
X0393457Y0148108D03*
X0393457Y0148143D03*
X0393492Y0148248D03*
X0393492Y0148283D03*
X0393492Y0148318D03*
X0393527Y0148423D03*
X0393527Y0148458D03*
X0393562Y0148598D03*
X0393562Y0148633D03*
X0393597Y0148773D03*
D117*
X0383587Y0146708D03*
X0383237Y0143873D03*
X0377637Y0145553D03*
X0377637Y0146183D03*
X0377112Y0146043D03*
X0374662Y0146183D03*
X0371162Y0146498D03*
X0370987Y0145658D03*
X0368537Y0145833D03*
X0367837Y0145938D03*
X0367662Y0145098D03*
X0368362Y0144993D03*
X0368187Y0144153D03*
X0368012Y0143348D03*
X0367312Y0143488D03*
X0367137Y0142683D03*
X0367837Y0142508D03*
X0364687Y0142823D03*
X0364162Y0142648D03*
X0364512Y0141983D03*
X0364862Y0143663D03*
X0365037Y0144503D03*
X0365212Y0145343D03*
X0365387Y0146183D03*
X0365562Y0146988D03*
X0365037Y0147058D03*
X0365212Y0147898D03*
X0365737Y0147828D03*
X0368187Y0147653D03*
X0368887Y0147513D03*
X0368712Y0146673D03*
X0368012Y0146813D03*
X0369062Y0148353D03*
X0377112Y0143383D03*
X0356462Y0148073D03*
X0356462Y0148108D03*
X0356287Y0147268D03*
X0355412Y0143103D03*
X0355237Y0142263D03*
D118*
X0385232Y0141983D03*
D119*
X0386404Y0148493D03*
X0393404Y0147863D03*
X0393544Y0148493D03*
X0393544Y0148528D03*
X0393544Y0148563D03*
X0393579Y0148668D03*
X0393579Y0148703D03*
X0393579Y0148738D03*
X0392669Y0144118D03*
X0392669Y0144083D03*
X0392669Y0144048D03*
X0392529Y0143348D03*
X0392529Y0143313D03*
X0392529Y0143278D03*
X0392529Y0143243D03*
X0392494Y0143173D03*
X0392494Y0143138D03*
X0392494Y0143103D03*
X0392494Y0143068D03*
X0392494Y0143033D03*
X0392354Y0142368D03*
X0392354Y0142333D03*
X0392354Y0142298D03*
X0392354Y0142263D03*
X0392354Y0142228D03*
X0392354Y0142193D03*
X0392319Y0142158D03*
X0392319Y0142123D03*
X0392319Y0142088D03*
X0392319Y0142053D03*
X0392319Y0142018D03*
X0392319Y0141983D03*
D120*
X0384969Y0145868D03*
X0377619Y0142018D03*
X0375659Y0143803D03*
X0376464Y0148528D03*
D121*
X0385337Y0142018D03*
D122*
X0377532Y0142053D03*
X0355657Y0143663D03*
D123*
X0385389Y0142053D03*
D124*
X0387069Y0143838D03*
X0385109Y0145798D03*
X0383044Y0143663D03*
X0378074Y0144783D03*
X0376009Y0144013D03*
X0375974Y0143978D03*
X0375904Y0143943D03*
X0377479Y0142088D03*
X0378634Y0148213D03*
X0376639Y0148423D03*
X0364879Y0146778D03*
D125*
X0385442Y0142088D03*
X0386632Y0148353D03*
D126*
X0385494Y0142123D03*
D127*
X0385529Y0142158D03*
X0386684Y0148283D03*
D128*
X0389887Y0146498D03*
X0385582Y0142193D03*
D129*
X0385652Y0142263D03*
X0386772Y0148178D03*
X0367207Y0148948D03*
D130*
X0385687Y0142298D03*
D131*
X0385704Y0142333D03*
D132*
X0385757Y0142368D03*
X0386807Y0148073D03*
X0386807Y0148108D03*
X0390027Y0146533D03*
X0379387Y0144538D03*
X0378442Y0144223D03*
X0378407Y0144188D03*
X0378407Y0144153D03*
X0378407Y0144118D03*
X0378407Y0144083D03*
D133*
X0385774Y0142403D03*
X0386824Y0148038D03*
D134*
X0386842Y0148003D03*
X0385792Y0142438D03*
D135*
X0385809Y0142473D03*
X0386859Y0147968D03*
D136*
X0386859Y0147898D03*
X0386859Y0147863D03*
X0386859Y0147793D03*
X0385879Y0142578D03*
D137*
X0385897Y0142613D03*
X0386877Y0147758D03*
X0386877Y0147828D03*
D138*
X0386859Y0147653D03*
X0385914Y0142648D03*
D139*
X0385932Y0142683D03*
X0385967Y0142718D03*
X0385967Y0142753D03*
D140*
X0386002Y0142788D03*
X0386002Y0142823D03*
X0386037Y0142893D03*
X0386702Y0146463D03*
X0386877Y0147373D03*
X0386877Y0147408D03*
X0386877Y0147443D03*
X0386877Y0147478D03*
X0386877Y0147513D03*
D141*
X0386859Y0147338D03*
X0386859Y0147303D03*
X0386859Y0147268D03*
X0386859Y0147233D03*
X0386859Y0147198D03*
X0386789Y0146848D03*
X0386789Y0146813D03*
X0386754Y0146673D03*
X0386754Y0146638D03*
X0386719Y0146533D03*
X0386054Y0142928D03*
X0386019Y0142858D03*
D142*
X0386072Y0142963D03*
X0386072Y0142998D03*
X0386737Y0146498D03*
X0386737Y0146568D03*
X0386737Y0146603D03*
X0386772Y0146708D03*
X0386772Y0146743D03*
X0386772Y0146778D03*
X0386807Y0146883D03*
X0386807Y0146918D03*
X0386807Y0146953D03*
X0386842Y0147058D03*
X0386842Y0147093D03*
X0386842Y0147128D03*
X0386842Y0147163D03*
D143*
X0386824Y0146988D03*
X0386124Y0143138D03*
X0386124Y0143103D03*
X0386124Y0143068D03*
X0386089Y0143033D03*
X0392424Y0144328D03*
D144*
X0386247Y0143593D03*
X0386212Y0143453D03*
X0386177Y0143348D03*
X0386177Y0143313D03*
X0386177Y0143278D03*
X0386177Y0143243D03*
X0386142Y0143208D03*
X0386142Y0143173D03*
D145*
X0385599Y0146428D03*
X0372614Y0143348D03*
D146*
X0381189Y0143348D03*
X0381749Y0144223D03*
D147*
X0372719Y0143383D03*
D148*
X0386194Y0143383D03*
X0386229Y0143418D03*
X0386229Y0143488D03*
X0386229Y0143523D03*
X0386264Y0143628D03*
X0386264Y0143663D03*
X0386264Y0143733D03*
D149*
X0380647Y0144468D03*
X0372807Y0143418D03*
D150*
X0372597Y0145378D03*
X0372912Y0146953D03*
X0381242Y0143418D03*
X0381907Y0146918D03*
X0381907Y0146953D03*
D151*
X0372859Y0143453D03*
X0358474Y0146708D03*
D152*
X0372649Y0145483D03*
X0372684Y0145518D03*
X0372964Y0146778D03*
X0381259Y0143453D03*
X0381889Y0146848D03*
X0381889Y0146883D03*
D153*
X0361782Y0143488D03*
D154*
X0362027Y0143733D03*
X0358562Y0146778D03*
X0372912Y0143488D03*
D155*
X0361817Y0143523D03*
D156*
X0361974Y0143698D03*
X0358579Y0146813D03*
X0372964Y0143523D03*
D157*
X0381259Y0143523D03*
D158*
X0373069Y0143628D03*
X0361869Y0143558D03*
X0358719Y0146953D03*
D159*
X0358614Y0146848D03*
X0372999Y0143558D03*
D160*
X0381312Y0143558D03*
X0386247Y0148563D03*
D161*
X0386282Y0143698D03*
X0386247Y0143558D03*
D162*
X0361887Y0143593D03*
D163*
X0358649Y0146883D03*
X0358684Y0146918D03*
X0373034Y0143593D03*
D164*
X0381294Y0143593D03*
X0385319Y0146323D03*
D165*
X0361922Y0143628D03*
D166*
X0381312Y0143628D03*
D167*
X0361957Y0143663D03*
D168*
X0375222Y0143663D03*
X0379422Y0148563D03*
X0390797Y0146708D03*
D169*
X0391707Y0146813D03*
X0383097Y0144153D03*
X0378792Y0148318D03*
X0375747Y0143838D03*
X0364757Y0146673D03*
X0364582Y0146568D03*
X0364407Y0146463D03*
X0364232Y0146358D03*
X0364057Y0146253D03*
X0363882Y0146148D03*
X0363707Y0146043D03*
X0363567Y0145973D03*
X0363392Y0145868D03*
X0363217Y0145763D03*
X0363042Y0145658D03*
X0362867Y0145553D03*
X0362692Y0145448D03*
X0362517Y0145343D03*
X0362342Y0145238D03*
X0362272Y0145203D03*
X0362167Y0145133D03*
X0362097Y0145098D03*
X0361992Y0145028D03*
X0361922Y0144993D03*
X0361817Y0144923D03*
X0361747Y0144888D03*
X0361642Y0144818D03*
X0361572Y0144783D03*
X0361467Y0144713D03*
X0361397Y0144678D03*
X0361292Y0144608D03*
X0361222Y0144573D03*
X0361117Y0144503D03*
X0361047Y0144468D03*
X0360942Y0144398D03*
X0360872Y0144363D03*
X0360767Y0144293D03*
X0360697Y0144258D03*
X0360627Y0144223D03*
X0360522Y0144153D03*
X0360452Y0144118D03*
X0360347Y0144048D03*
X0360277Y0144013D03*
X0360172Y0143943D03*
X0360102Y0143908D03*
X0359997Y0143838D03*
X0359927Y0143803D03*
X0358807Y0145588D03*
X0358982Y0145693D03*
X0359157Y0145798D03*
X0358632Y0145483D03*
X0358457Y0145378D03*
X0358282Y0145273D03*
X0358107Y0145168D03*
X0358002Y0145098D03*
X0357932Y0145063D03*
X0357827Y0144993D03*
X0357652Y0144888D03*
X0357477Y0144783D03*
X0357302Y0144678D03*
X0357127Y0144573D03*
X0356952Y0144468D03*
X0356847Y0144398D03*
X0356777Y0144363D03*
X0356672Y0144293D03*
X0356497Y0144188D03*
X0356322Y0144083D03*
X0356147Y0143978D03*
X0355972Y0143873D03*
X0355797Y0143768D03*
X0355692Y0143698D03*
X0360067Y0146358D03*
X0360242Y0146463D03*
X0360417Y0146568D03*
X0360592Y0146673D03*
D170*
X0360539Y0146638D03*
X0360469Y0146603D03*
X0360364Y0146533D03*
X0360294Y0146498D03*
X0360189Y0146428D03*
X0360119Y0146393D03*
X0360014Y0146323D03*
X0359909Y0146253D03*
X0359839Y0146218D03*
X0359734Y0146148D03*
X0359664Y0146113D03*
X0359559Y0146043D03*
X0359489Y0146008D03*
X0359384Y0145938D03*
X0359314Y0145903D03*
X0359209Y0145833D03*
X0359034Y0145728D03*
X0358929Y0145658D03*
X0358859Y0145623D03*
X0358754Y0145553D03*
X0358684Y0145518D03*
X0358579Y0145448D03*
X0358509Y0145413D03*
X0358404Y0145343D03*
X0358334Y0145308D03*
X0358229Y0145238D03*
X0358159Y0145203D03*
X0358054Y0145133D03*
X0357879Y0145028D03*
X0357774Y0144958D03*
X0357704Y0144923D03*
X0357599Y0144853D03*
X0357529Y0144818D03*
X0357424Y0144748D03*
X0357354Y0144713D03*
X0357249Y0144643D03*
X0357179Y0144608D03*
X0357074Y0144538D03*
X0357004Y0144503D03*
X0356899Y0144433D03*
X0356724Y0144328D03*
X0356619Y0144258D03*
X0356549Y0144223D03*
X0356444Y0144153D03*
X0356374Y0144118D03*
X0356269Y0144048D03*
X0356199Y0144013D03*
X0356094Y0143943D03*
X0356024Y0143908D03*
X0355919Y0143838D03*
X0355849Y0143803D03*
X0355744Y0143733D03*
X0360049Y0143873D03*
X0360224Y0143978D03*
X0360399Y0144083D03*
X0360574Y0144188D03*
X0360819Y0144328D03*
X0360994Y0144433D03*
X0361169Y0144538D03*
X0361344Y0144643D03*
X0361519Y0144748D03*
X0361694Y0144853D03*
X0361869Y0144958D03*
X0362044Y0145063D03*
X0362464Y0145308D03*
X0362639Y0145413D03*
X0362814Y0145518D03*
X0362989Y0145623D03*
X0363164Y0145728D03*
X0363339Y0145833D03*
X0363514Y0145938D03*
X0363759Y0146078D03*
X0363934Y0146183D03*
X0364109Y0146288D03*
X0364284Y0146393D03*
X0364459Y0146498D03*
X0364634Y0146603D03*
X0364809Y0146708D03*
X0374329Y0145588D03*
X0375799Y0143873D03*
X0378179Y0144713D03*
X0376534Y0148493D03*
X0385039Y0145833D03*
D171*
X0382432Y0146113D03*
X0362062Y0143768D03*
X0358527Y0146743D03*
D172*
X0364827Y0146743D03*
X0375852Y0143908D03*
X0378127Y0144748D03*
X0378687Y0148248D03*
X0378722Y0148283D03*
X0376587Y0148458D03*
D173*
X0388469Y0144153D03*
D174*
X0380262Y0144258D03*
D175*
X0386597Y0148388D03*
X0388977Y0144258D03*
D176*
X0392547Y0144258D03*
X0381942Y0147093D03*
X0381452Y0146323D03*
D177*
X0380174Y0146778D03*
X0378424Y0148038D03*
X0376849Y0148248D03*
X0376324Y0144293D03*
D178*
X0380244Y0144293D03*
X0380244Y0144328D03*
D179*
X0390639Y0144293D03*
D180*
X0389204Y0144503D03*
X0389204Y0144538D03*
X0389204Y0144573D03*
X0389239Y0144678D03*
X0389239Y0144713D03*
X0389239Y0144748D03*
X0389239Y0144783D03*
X0389274Y0144888D03*
X0389274Y0144923D03*
X0389274Y0144958D03*
X0389274Y0144993D03*
X0389309Y0145063D03*
X0389309Y0145098D03*
X0389309Y0145133D03*
X0389309Y0145168D03*
X0389344Y0145273D03*
X0389344Y0145308D03*
X0389344Y0145343D03*
X0389379Y0145448D03*
X0389379Y0145483D03*
X0389379Y0145518D03*
X0389379Y0145553D03*
X0389414Y0145623D03*
X0389414Y0145658D03*
X0389414Y0145693D03*
X0389414Y0145728D03*
X0389449Y0145833D03*
X0389449Y0145868D03*
X0389449Y0145903D03*
X0389484Y0146008D03*
X0389484Y0146043D03*
X0389484Y0146078D03*
X0389519Y0146218D03*
X0389519Y0146253D03*
X0389519Y0146288D03*
X0389169Y0144398D03*
X0389169Y0144363D03*
X0389169Y0144328D03*
X0381924Y0147023D03*
D181*
X0380227Y0144363D03*
D182*
X0380227Y0144398D03*
D183*
X0380752Y0144433D03*
D184*
X0380174Y0144503D03*
D185*
X0378337Y0144643D03*
D186*
X0378862Y0148353D03*
X0364687Y0146638D03*
X0364512Y0146533D03*
X0364337Y0146428D03*
X0364162Y0146323D03*
X0363987Y0146218D03*
X0363812Y0146113D03*
X0363637Y0146008D03*
X0363462Y0145903D03*
X0363287Y0145798D03*
X0363112Y0145693D03*
X0362937Y0145588D03*
X0362762Y0145483D03*
X0362587Y0145378D03*
X0362412Y0145273D03*
X0362237Y0145168D03*
X0359962Y0146288D03*
X0359787Y0146183D03*
X0359612Y0146078D03*
X0359437Y0145973D03*
X0359262Y0145868D03*
X0359087Y0145763D03*
D187*
X0372439Y0145273D03*
X0389589Y0146428D03*
D188*
X0372929Y0146918D03*
X0372649Y0145448D03*
X0372614Y0145413D03*
D189*
X0372702Y0145553D03*
X0372947Y0146813D03*
X0381872Y0146813D03*
D190*
X0383412Y0146008D03*
D191*
X0382554Y0146043D03*
X0382484Y0146078D03*
D192*
X0382939Y0146148D03*
D193*
X0383097Y0146183D03*
D194*
X0383237Y0146218D03*
D195*
X0383359Y0146253D03*
D196*
X0383464Y0146288D03*
D197*
X0385442Y0146358D03*
D198*
X0387332Y0146393D03*
D199*
X0389729Y0146463D03*
D200*
X0390184Y0146568D03*
X0386894Y0147583D03*
X0386859Y0147548D03*
D201*
X0394472Y0146743D03*
D202*
X0386352Y0148528D03*
X0372947Y0146883D03*
X0372947Y0146848D03*
D203*
X0358754Y0146988D03*
D204*
X0386824Y0147023D03*
D205*
X0386492Y0148458D03*
X0381942Y0147058D03*
D206*
X0393299Y0147338D03*
D207*
X0393334Y0147513D03*
X0393369Y0147688D03*
D208*
X0386877Y0147688D03*
X0386877Y0147723D03*
X0386877Y0147618D03*
D209*
X0386789Y0148143D03*
D210*
X0386667Y0148318D03*
D211*
X0386544Y0148423D03*
D212*
X0386054Y0148598D03*
D213*
X0383657Y0148668D03*
X0361047Y0148913D03*
X0361012Y0148878D03*
X0361012Y0148843D03*
X0361012Y0148808D03*
X0361012Y0148773D03*
X0360977Y0148703D03*
X0360977Y0148668D03*
X0360977Y0148633D03*
D214*
X0372807Y0148633D03*
D215*
X0383604Y0148633D03*
D216*
X0372789Y0148668D03*
D217*
X0372754Y0148703D03*
D218*
X0372719Y0148738D03*
D219*
X0383762Y0148738D03*
D220*
X0372684Y0148773D03*
D221*
X0383814Y0148773D03*
D222*
X0372649Y0148808D03*
D223*
X0383884Y0148808D03*
D224*
X0372614Y0148843D03*
D225*
X0372562Y0148878D03*
X0384707Y0148948D03*
D226*
X0384059Y0148878D03*
D227*
X0372474Y0148913D03*
D228*
X0384234Y0148913D03*
D229*
X0372334Y0148948D03*
M02*
