G75*
%MOIN*%
%OFA0B0*%
%FSLAX24Y24*%
%IPPOS*%
%LPD*%
%AMOC8*
5,1,8,0,0,1.08239X$1,22.5*
%
%ADD10C,0.0100*%
%ADD11C,0.0080*%
%ADD12C,0.0050*%
%ADD13C,0.0240*%
%ADD14C,0.0060*%
%ADD15C,0.0040*%
%ADD16R,0.0059X0.0118*%
%ADD17R,0.0118X0.0118*%
%ADD18R,0.0118X0.0059*%
%ADD19R,0.0300X0.0340*%
%ADD20C,0.0020*%
D10*
X006606Y009283D02*
X006606Y009483D01*
X006673Y009550D01*
X006739Y009550D01*
X006806Y009483D01*
X006806Y009283D01*
X007006Y009283D02*
X006606Y009283D01*
X006806Y009483D02*
X006873Y009550D01*
X006939Y009550D01*
X007006Y009483D01*
X007006Y009283D01*
X007006Y009744D02*
X006606Y009744D01*
X006739Y009877D01*
X006606Y010011D01*
X007006Y010011D01*
X007006Y010204D02*
X006606Y010204D01*
X006739Y010338D01*
X006606Y010471D01*
X007006Y010471D01*
X006806Y010664D02*
X006806Y010931D01*
X006806Y011125D02*
X006806Y011325D01*
X006873Y011392D01*
X006939Y011392D01*
X007006Y011325D01*
X007006Y011125D01*
X006606Y011125D01*
X006606Y011325D01*
X006673Y011392D01*
X006739Y011392D01*
X006806Y011325D01*
X006806Y011585D02*
X006806Y011852D01*
X006739Y011852D02*
X007006Y011852D01*
X006739Y011852D02*
X006606Y011719D01*
X006739Y011585D01*
X007006Y011585D01*
X007006Y012179D02*
X006606Y012179D01*
X006606Y012046D02*
X006606Y012313D01*
X006606Y012506D02*
X006606Y012773D01*
X006606Y012640D02*
X007006Y012640D01*
X007006Y012966D02*
X006606Y012966D01*
X006606Y013233D01*
X006606Y013427D02*
X006606Y013627D01*
X006673Y013694D01*
X006806Y013694D01*
X006873Y013627D01*
X006873Y013427D01*
X007006Y013427D02*
X006606Y013427D01*
X006873Y013560D02*
X007006Y013694D01*
X007006Y014021D02*
X006806Y014021D01*
X006673Y014154D01*
X006606Y014154D01*
X006806Y014021D02*
X006673Y013887D01*
X006606Y013887D01*
X006606Y014808D02*
X006739Y014941D01*
X006606Y015075D01*
X007006Y015075D01*
X006939Y015268D02*
X006873Y015335D01*
X006873Y015535D01*
X006806Y015535D02*
X007006Y015535D01*
X007006Y015335D01*
X006939Y015268D01*
X006739Y015335D02*
X006739Y015469D01*
X006806Y015535D01*
X006739Y015729D02*
X006739Y015929D01*
X006806Y015996D01*
X007006Y015996D01*
X006939Y016189D02*
X006873Y016256D01*
X006873Y016456D01*
X006806Y016456D02*
X007006Y016456D01*
X007006Y016256D01*
X006939Y016189D01*
X006739Y016256D02*
X006739Y016389D01*
X006806Y016456D01*
X006806Y016650D02*
X006939Y016650D01*
X007006Y016716D01*
X007006Y016916D01*
X007073Y016916D02*
X006739Y016916D01*
X006739Y016716D01*
X006806Y016650D01*
X007140Y016783D02*
X007140Y016850D01*
X007073Y016916D01*
X007006Y017110D02*
X006739Y017110D01*
X006739Y017177D01*
X006806Y017243D01*
X006739Y017310D01*
X006806Y017377D01*
X007006Y017377D01*
X007006Y017243D02*
X006806Y017243D01*
X006806Y017570D02*
X006739Y017637D01*
X006739Y017771D01*
X006806Y017837D01*
X006873Y017837D01*
X006873Y017570D01*
X006939Y017570D02*
X006806Y017570D01*
X006939Y017570D02*
X007006Y017637D01*
X007006Y017771D01*
X007006Y018031D02*
X006739Y018031D01*
X006739Y018231D01*
X006806Y018298D01*
X007006Y018298D01*
X006939Y018558D02*
X007006Y018625D01*
X006939Y018558D02*
X006673Y018558D01*
X006739Y018491D02*
X006739Y018625D01*
X006606Y019258D02*
X006739Y019392D01*
X006606Y019525D01*
X007006Y019525D01*
X006939Y019719D02*
X006873Y019786D01*
X006873Y019986D01*
X006806Y019986D02*
X007006Y019986D01*
X007006Y019786D01*
X006939Y019719D01*
X006739Y019786D02*
X006739Y019919D01*
X006806Y019986D01*
X006806Y020179D02*
X006739Y020246D01*
X006739Y020446D01*
X006873Y020379D02*
X006873Y020246D01*
X006806Y020179D01*
X007006Y020179D02*
X007006Y020379D01*
X006939Y020446D01*
X006873Y020379D01*
X006739Y020640D02*
X006739Y020773D01*
X006673Y020706D02*
X006939Y020706D01*
X007006Y020773D01*
X006939Y020947D02*
X006806Y020947D01*
X006739Y021013D01*
X006739Y021147D01*
X006806Y021213D01*
X006873Y021213D01*
X006873Y020947D01*
X006939Y020947D02*
X007006Y021013D01*
X007006Y021147D01*
X007006Y021407D02*
X006739Y021407D01*
X006739Y021540D02*
X006739Y021607D01*
X006739Y021540D02*
X006873Y021407D01*
X008677Y021973D02*
X008744Y021907D01*
X008877Y021907D01*
X008944Y021973D01*
X008944Y022240D01*
X008877Y022307D01*
X008744Y022307D01*
X008677Y022240D01*
X008677Y021973D01*
X008810Y022040D02*
X008944Y021907D01*
X009137Y021907D02*
X009404Y021907D01*
X009271Y021907D02*
X009271Y022307D01*
X009137Y022174D01*
X009943Y021169D02*
X010143Y021169D01*
X010210Y021102D01*
X010210Y020968D01*
X010143Y020902D01*
X009943Y020902D01*
X010076Y020902D02*
X010210Y020768D01*
X010403Y020768D02*
X010670Y021035D01*
X010670Y021102D01*
X010603Y021169D01*
X010470Y021169D01*
X010403Y021102D01*
X010403Y020768D02*
X010670Y020768D01*
X010864Y020768D02*
X010864Y020835D01*
X011130Y021102D01*
X011130Y021169D01*
X010864Y021169D01*
X011594Y021134D02*
X011594Y020733D01*
X011794Y020733D01*
X011861Y020800D01*
X011861Y021067D01*
X011794Y021134D01*
X011594Y021134D01*
X012054Y021000D02*
X012188Y021134D01*
X012188Y020733D01*
X012321Y020733D02*
X012054Y020733D01*
X012515Y020800D02*
X012581Y020733D01*
X012715Y020733D01*
X012782Y020800D01*
X012782Y020933D01*
X012715Y021000D01*
X012648Y021000D01*
X012515Y020933D01*
X012515Y021134D01*
X012782Y021134D01*
X013007Y022324D02*
X013274Y022324D01*
X013141Y022324D02*
X013141Y022724D01*
X013007Y022591D01*
X012814Y022724D02*
X012547Y022724D01*
X012547Y022324D01*
X012547Y022524D02*
X012680Y022524D01*
X013045Y022968D02*
X014147Y022968D01*
X014147Y024779D02*
X013045Y024779D01*
X009943Y021169D02*
X009943Y020768D01*
X007006Y019258D02*
X006606Y019258D01*
X006739Y015729D02*
X007006Y015729D01*
X007006Y014808D02*
X006606Y014808D01*
X007006Y013233D02*
X007006Y012966D01*
X006806Y012966D02*
X006806Y013100D01*
X012495Y009863D02*
X012495Y009729D01*
X012562Y009663D01*
X012628Y009663D01*
X012695Y009729D01*
X012695Y009930D01*
X012562Y009930D02*
X012495Y009863D01*
X012562Y009930D02*
X012829Y009930D01*
X012895Y009863D01*
X012895Y009729D01*
X012829Y009663D01*
X012829Y009402D02*
X012495Y009402D01*
X012495Y009336D02*
X012495Y009469D01*
X012829Y009402D02*
X012895Y009336D01*
X012895Y009269D01*
X012829Y009202D01*
X013226Y010453D02*
X013226Y010653D01*
X013293Y010720D01*
X013426Y010720D01*
X013493Y010653D01*
X013493Y010453D01*
X013626Y010453D02*
X013226Y010453D01*
X013226Y010914D02*
X013226Y011114D01*
X013293Y011181D01*
X013426Y011181D01*
X013493Y011114D01*
X013493Y010914D01*
X013493Y011047D02*
X013626Y011181D01*
X013626Y011374D02*
X013626Y011641D01*
X013559Y011834D02*
X013626Y011901D01*
X013626Y012035D01*
X013559Y012101D01*
X013626Y012295D02*
X013226Y012295D01*
X013426Y012295D02*
X013426Y012562D01*
X013426Y012755D02*
X013426Y013022D01*
X013359Y013022D02*
X013626Y013022D01*
X013626Y013216D02*
X013226Y013216D01*
X013226Y013416D01*
X013293Y013483D01*
X013426Y013483D01*
X013493Y013416D01*
X013493Y013216D01*
X013493Y013349D02*
X013626Y013483D01*
X013559Y013676D02*
X013626Y013743D01*
X013626Y013876D01*
X013559Y013943D01*
X013426Y013943D01*
X013426Y013810D01*
X013293Y013943D02*
X013226Y013876D01*
X013226Y013743D01*
X013293Y013676D01*
X013559Y013676D01*
X013626Y014136D02*
X013226Y014136D01*
X013226Y014403D01*
X013426Y014270D02*
X013426Y014136D01*
X013626Y014136D02*
X013626Y014403D01*
X013359Y013022D02*
X013226Y012889D01*
X013359Y012755D01*
X013626Y012755D01*
X013626Y012562D02*
X013226Y012562D01*
X013293Y012101D02*
X013226Y012035D01*
X013226Y011901D01*
X013293Y011834D01*
X013559Y011834D01*
X013426Y011508D02*
X013426Y011374D01*
X013226Y011374D02*
X013626Y011374D01*
X013226Y011374D02*
X013226Y011641D01*
X013226Y010914D02*
X013626Y010914D01*
X016262Y010134D02*
X016262Y009868D01*
X016262Y009674D02*
X016262Y009541D01*
X016262Y009607D02*
X016596Y009607D01*
X016662Y009541D01*
X016662Y009474D01*
X016596Y009407D01*
X016596Y009868D02*
X016662Y009868D01*
X016596Y009868D02*
X016329Y010134D01*
X016262Y010134D01*
X016766Y011353D02*
X016766Y011553D01*
X016833Y011620D01*
X016899Y011620D01*
X016966Y011553D01*
X016966Y011353D01*
X017166Y011353D02*
X016766Y011353D01*
X016966Y011553D02*
X017033Y011620D01*
X017099Y011620D01*
X017166Y011553D01*
X017166Y011353D01*
X017099Y011814D02*
X016833Y011814D01*
X016766Y011880D01*
X016766Y012014D01*
X016833Y012081D01*
X017099Y012081D01*
X017166Y012014D01*
X017166Y011880D01*
X017099Y011814D01*
X016766Y012274D02*
X016766Y012541D01*
X016766Y012408D02*
X017166Y012408D01*
X017166Y012868D02*
X016766Y012868D01*
X016766Y013001D02*
X016766Y012734D01*
X016833Y013195D02*
X017099Y013195D01*
X017166Y013262D01*
X017166Y013395D01*
X017099Y013462D01*
X016833Y013462D01*
X016766Y013395D01*
X016766Y013262D01*
X016833Y013195D01*
X016766Y013655D02*
X016899Y013789D01*
X016766Y013922D01*
X017166Y013922D01*
X017166Y013655D02*
X016766Y013655D01*
X019923Y010116D02*
X019989Y009983D01*
X020123Y009849D01*
X020123Y010050D01*
X020190Y010116D01*
X020256Y010116D01*
X020323Y010050D01*
X020323Y009916D01*
X020256Y009849D01*
X020123Y009849D01*
X019923Y009656D02*
X019923Y009523D01*
X019923Y009589D02*
X020256Y009589D01*
X020323Y009523D01*
X020323Y009456D01*
X020256Y009389D01*
X020506Y011713D02*
X020506Y011980D01*
X020506Y011847D02*
X020906Y011847D01*
X020839Y012174D02*
X020906Y012240D01*
X020906Y012374D01*
X020839Y012441D01*
X020573Y012441D01*
X020506Y012374D01*
X020506Y012240D01*
X020573Y012174D01*
X020839Y012174D01*
X020773Y012634D02*
X020773Y012834D01*
X020706Y012901D01*
X020573Y012901D01*
X020506Y012834D01*
X020506Y012634D01*
X020906Y012634D01*
X024145Y010173D02*
X024212Y010240D01*
X024278Y010240D01*
X024345Y010173D01*
X024345Y010039D01*
X024278Y009973D01*
X024212Y009973D01*
X024145Y010039D01*
X024145Y010173D01*
X024345Y010173D02*
X024412Y010240D01*
X024479Y010240D01*
X024545Y010173D01*
X024545Y010039D01*
X024479Y009973D01*
X024412Y009973D01*
X024345Y010039D01*
X024145Y009779D02*
X024145Y009646D01*
X024145Y009712D02*
X024479Y009712D01*
X024545Y009646D01*
X024545Y009579D01*
X024479Y009512D01*
X024596Y010483D02*
X024596Y010617D01*
X024596Y010550D02*
X024996Y010550D01*
X024996Y010483D02*
X024996Y010617D01*
X024996Y010790D02*
X024596Y010790D01*
X024996Y011057D01*
X024596Y011057D01*
X024596Y011251D02*
X024596Y011518D01*
X024596Y011384D02*
X024996Y011384D01*
X024996Y011711D02*
X024996Y011978D01*
X024996Y012171D02*
X024596Y012171D01*
X024596Y012372D01*
X024663Y012438D01*
X024796Y012438D01*
X024863Y012372D01*
X024863Y012171D01*
X024863Y012305D02*
X024996Y012438D01*
X024996Y012632D02*
X024996Y012899D01*
X024929Y013092D02*
X024996Y013159D01*
X024996Y013292D01*
X024929Y013359D01*
X024663Y013359D01*
X024596Y013292D01*
X024596Y013159D01*
X024663Y013092D01*
X024929Y013092D01*
X024929Y013553D02*
X024663Y013553D01*
X024596Y013619D01*
X024596Y013753D01*
X024663Y013819D01*
X024596Y014013D02*
X024996Y014013D01*
X024863Y014013D02*
X024596Y014280D01*
X024796Y014080D02*
X024996Y014280D01*
X024929Y013819D02*
X024996Y013753D01*
X024996Y013619D01*
X024929Y013553D01*
X024996Y012632D02*
X024596Y012632D01*
X024596Y011978D02*
X024596Y011711D01*
X024996Y011711D01*
X024796Y011711D02*
X024796Y011844D01*
X027151Y016132D02*
X027151Y016332D01*
X027218Y016399D01*
X027351Y016399D01*
X027418Y016332D01*
X027418Y016132D01*
X027551Y016132D02*
X027151Y016132D01*
X027418Y016266D02*
X027551Y016399D01*
X027551Y016593D02*
X027551Y016859D01*
X027551Y016726D02*
X027151Y016726D01*
X027284Y016593D01*
X027284Y017053D02*
X027351Y017120D01*
X027351Y017320D01*
X027218Y017320D02*
X027151Y017253D01*
X027151Y017120D01*
X027218Y017053D01*
X027284Y017053D01*
X027484Y017053D02*
X027551Y017120D01*
X027551Y017253D01*
X027484Y017320D01*
X027218Y017320D01*
X026654Y017614D02*
X026388Y017614D01*
X026521Y017614D02*
X026521Y018014D01*
X026388Y017880D01*
X026194Y017614D02*
X025927Y017614D01*
X026061Y017614D02*
X026061Y018014D01*
X025927Y017880D01*
X025734Y017814D02*
X025667Y017747D01*
X025467Y017747D01*
X025600Y017747D02*
X025734Y017614D01*
X025734Y017814D02*
X025734Y017947D01*
X025667Y018014D01*
X025467Y018014D01*
X025467Y017614D01*
X027976Y017487D02*
X028376Y017487D01*
X028376Y017354D02*
X028376Y017621D01*
X028309Y017814D02*
X028043Y018081D01*
X028309Y018081D01*
X028376Y018014D01*
X028376Y017881D01*
X028309Y017814D01*
X028043Y017814D01*
X027976Y017881D01*
X027976Y018014D01*
X028043Y018081D01*
X027976Y017487D02*
X028109Y017354D01*
X027976Y017160D02*
X028309Y017160D01*
X028376Y017093D01*
X028376Y016960D01*
X028309Y016893D01*
X027976Y016893D01*
X029148Y016762D02*
X029148Y016628D01*
X029215Y016562D01*
X029215Y016368D02*
X029348Y016368D01*
X029415Y016301D01*
X029415Y016101D01*
X029415Y016235D02*
X029549Y016368D01*
X029549Y016562D02*
X029282Y016828D01*
X029215Y016828D01*
X029148Y016762D01*
X029282Y017022D02*
X029148Y017155D01*
X029549Y017155D01*
X029549Y017022D02*
X029549Y017289D01*
X029549Y016828D02*
X029549Y016562D01*
X029215Y016368D02*
X029148Y016301D01*
X029148Y016101D01*
X029549Y016101D01*
X030226Y016290D02*
X030293Y016223D01*
X030426Y016223D01*
X030493Y016290D01*
X030493Y016624D01*
X030687Y016624D02*
X030687Y016423D01*
X030820Y016490D01*
X030887Y016490D01*
X030953Y016423D01*
X030953Y016290D01*
X030887Y016223D01*
X030753Y016223D01*
X030687Y016290D01*
X030687Y016624D02*
X030953Y016624D01*
X030226Y016624D02*
X030226Y016290D01*
X032916Y015653D02*
X032916Y015520D01*
X032983Y015453D01*
X032916Y015653D02*
X032983Y015720D01*
X033049Y015720D01*
X033316Y015453D01*
X033316Y015720D01*
X033316Y015259D02*
X033316Y014993D01*
X033316Y015126D02*
X032916Y015126D01*
X033049Y014993D01*
X032916Y014799D02*
X033249Y014799D01*
X033316Y014732D01*
X033316Y014599D01*
X033249Y014532D01*
X032916Y014532D01*
X033536Y016918D02*
X033536Y017319D01*
X033736Y017319D01*
X033803Y017252D01*
X033803Y017118D01*
X033736Y017052D01*
X033536Y017052D01*
X033670Y017052D02*
X033803Y016918D01*
X033997Y016918D02*
X034263Y017185D01*
X034263Y017252D01*
X034197Y017319D01*
X034063Y017319D01*
X033997Y017252D01*
X033997Y016918D02*
X034263Y016918D01*
X034457Y016918D02*
X034724Y017185D01*
X034724Y017252D01*
X034657Y017319D01*
X034524Y017319D01*
X034457Y017252D01*
X034457Y016918D02*
X034724Y016918D01*
X035095Y016908D02*
X035095Y017309D01*
X035295Y017309D01*
X035362Y017242D01*
X035362Y017108D01*
X035295Y017042D01*
X035095Y017042D01*
X035228Y017042D02*
X035362Y016908D01*
X035555Y016908D02*
X035822Y016908D01*
X035689Y016908D02*
X035689Y017309D01*
X035555Y017175D01*
X036016Y017175D02*
X036016Y017242D01*
X036083Y017309D01*
X036216Y017309D01*
X036283Y017242D01*
X036283Y017175D01*
X036216Y017108D01*
X036083Y017108D01*
X036016Y017175D01*
X036083Y017108D02*
X036016Y017042D01*
X036016Y016975D01*
X036083Y016908D01*
X036216Y016908D01*
X036283Y016975D01*
X036283Y017042D01*
X036216Y017108D01*
X036251Y018322D02*
X035851Y018322D01*
X035851Y018522D01*
X035918Y018589D01*
X036051Y018589D01*
X036118Y018522D01*
X036118Y018322D01*
X036118Y018456D02*
X036251Y018589D01*
X036251Y018783D02*
X036251Y019049D01*
X036251Y018916D02*
X035851Y018916D01*
X035984Y018783D01*
X036051Y019243D02*
X036051Y019510D01*
X036251Y019443D02*
X035851Y019443D01*
X036051Y019243D01*
X034877Y020368D02*
X034743Y020368D01*
X034677Y020435D01*
X034677Y020568D02*
X034810Y020635D01*
X034877Y020635D01*
X034943Y020568D01*
X034943Y020435D01*
X034877Y020368D01*
X034677Y020568D02*
X034677Y020769D01*
X034943Y020769D01*
X035106Y021003D02*
X035106Y021404D01*
X034905Y021203D01*
X035172Y021203D01*
X035366Y021337D02*
X035433Y021404D01*
X035566Y021404D01*
X035633Y021337D01*
X035633Y021270D01*
X035366Y021003D01*
X035633Y021003D01*
X034712Y021070D02*
X034645Y021003D01*
X034512Y021003D01*
X034445Y021070D01*
X034445Y021337D01*
X034512Y021404D01*
X034645Y021404D01*
X034712Y021337D01*
X034416Y020769D02*
X034483Y020702D01*
X034483Y020568D01*
X034416Y020502D01*
X034216Y020502D01*
X034350Y020502D02*
X034483Y020368D01*
X034216Y020368D02*
X034216Y020769D01*
X034416Y020769D01*
X033124Y020129D02*
X032857Y020129D01*
X032857Y019928D01*
X032990Y019995D01*
X033057Y019995D01*
X033124Y019928D01*
X033124Y019795D01*
X033057Y019728D01*
X032924Y019728D01*
X032857Y019795D01*
X032663Y019728D02*
X032397Y019728D01*
X032530Y019728D02*
X032530Y020129D01*
X032397Y019995D01*
X032203Y019928D02*
X032136Y019862D01*
X031936Y019862D01*
X032070Y019862D02*
X032203Y019728D01*
X032203Y019928D02*
X032203Y020062D01*
X032136Y020129D01*
X031936Y020129D01*
X031936Y019728D01*
X032836Y018411D02*
X032836Y018144D01*
X032836Y017950D02*
X033169Y017950D01*
X033236Y017883D01*
X033236Y017750D01*
X033169Y017683D01*
X032836Y017683D01*
X033169Y018144D02*
X033236Y018144D01*
X033169Y018144D02*
X032903Y018411D01*
X032836Y018411D01*
X030116Y022573D02*
X029716Y022573D01*
X029716Y022773D01*
X029783Y022840D01*
X030049Y022840D01*
X030116Y022773D01*
X030116Y022573D01*
X029916Y023034D02*
X029716Y023234D01*
X030116Y023234D01*
X029916Y023301D02*
X029916Y023034D01*
X029403Y022769D02*
X029403Y022702D01*
X029137Y022435D01*
X029137Y022368D01*
X028943Y022435D02*
X028876Y022368D01*
X028743Y022368D01*
X028676Y022435D01*
X028676Y022702D01*
X028743Y022769D01*
X028876Y022769D01*
X028943Y022702D01*
X029137Y022769D02*
X029403Y022769D01*
X028877Y023816D02*
X028544Y023816D01*
X028544Y024083D02*
X028877Y024083D01*
X028944Y024016D01*
X028944Y023883D01*
X028877Y023816D01*
X028944Y024277D02*
X028944Y024543D01*
X028944Y024410D02*
X028544Y024410D01*
X028677Y024277D01*
X030031Y024933D02*
X030431Y024933D01*
X030431Y025199D01*
X030431Y025393D02*
X030164Y025660D01*
X030098Y025660D01*
X030031Y025593D01*
X030031Y025460D01*
X030098Y025393D01*
X030431Y025393D02*
X030431Y025660D01*
X030962Y026653D02*
X031095Y026653D01*
X031162Y026720D01*
X031355Y026720D02*
X031422Y026653D01*
X031556Y026653D01*
X031622Y026720D01*
X031622Y026787D01*
X031556Y026853D01*
X031489Y026853D01*
X031556Y026853D02*
X031622Y026920D01*
X031622Y026987D01*
X031556Y027054D01*
X031422Y027054D01*
X031355Y026987D01*
X031162Y026987D02*
X031095Y027054D01*
X030962Y027054D01*
X030895Y026987D01*
X030895Y026720D01*
X030962Y026653D01*
X031816Y026720D02*
X031816Y026787D01*
X031883Y026853D01*
X032016Y026853D01*
X032083Y026787D01*
X032083Y026720D01*
X032016Y026653D01*
X031883Y026653D01*
X031816Y026720D01*
X031883Y026853D02*
X031816Y026920D01*
X031816Y026987D01*
X031883Y027054D01*
X032016Y027054D01*
X032083Y026987D01*
X032083Y026920D01*
X032016Y026853D01*
X031999Y028013D02*
X031999Y028414D01*
X031866Y028280D01*
X031672Y028213D02*
X031405Y028213D01*
X031606Y028414D01*
X031606Y028013D01*
X031866Y028013D02*
X032133Y028013D01*
X031212Y028080D02*
X031145Y028013D01*
X031012Y028013D01*
X030945Y028080D01*
X030945Y028347D01*
X031012Y028414D01*
X031145Y028414D01*
X031212Y028347D01*
X032246Y029003D02*
X032246Y029404D01*
X032446Y029404D01*
X032513Y029337D01*
X032513Y029203D01*
X032446Y029137D01*
X032246Y029137D01*
X032380Y029137D02*
X032513Y029003D01*
X032707Y029203D02*
X032973Y029203D01*
X032907Y029003D02*
X032907Y029404D01*
X032707Y029203D01*
X033167Y029070D02*
X033434Y029337D01*
X033434Y029070D01*
X033367Y029003D01*
X033234Y029003D01*
X033167Y029070D01*
X033167Y029337D01*
X033234Y029404D01*
X033367Y029404D01*
X033434Y029337D01*
X034064Y029832D02*
X034331Y029832D01*
X034525Y029899D02*
X034592Y029832D01*
X034725Y029832D01*
X034792Y029899D01*
X034792Y030032D01*
X034725Y030099D01*
X034658Y030099D01*
X034525Y030032D01*
X034525Y030232D01*
X034792Y030232D01*
X034064Y030232D02*
X034064Y029832D01*
X032556Y030483D02*
X032156Y030483D01*
X032156Y030683D01*
X032223Y030750D01*
X032356Y030750D01*
X032423Y030683D01*
X032423Y030483D01*
X032423Y030617D02*
X032556Y030750D01*
X032489Y030944D02*
X032556Y031010D01*
X032556Y031144D01*
X032489Y031211D01*
X032423Y031211D01*
X032356Y031144D01*
X032356Y031077D01*
X032356Y031144D02*
X032289Y031211D01*
X032223Y031211D01*
X032156Y031144D01*
X032156Y031010D01*
X032223Y030944D01*
X032223Y031404D02*
X032289Y031404D01*
X032356Y031471D01*
X032356Y031671D01*
X032223Y031671D02*
X032156Y031604D01*
X032156Y031471D01*
X032223Y031404D01*
X032489Y031404D02*
X032556Y031471D01*
X032556Y031604D01*
X032489Y031671D01*
X032223Y031671D01*
X032253Y031882D02*
X032519Y031882D01*
X032586Y031949D01*
X032586Y032082D01*
X032519Y032149D01*
X032519Y032343D02*
X032586Y032409D01*
X032586Y032543D01*
X032519Y032609D01*
X032453Y032609D01*
X032386Y032543D01*
X032386Y032476D01*
X032386Y032543D02*
X032319Y032609D01*
X032253Y032609D01*
X032186Y032543D01*
X032186Y032409D01*
X032253Y032343D01*
X032253Y032149D02*
X032186Y032082D01*
X032186Y031949D01*
X032253Y031882D01*
X032253Y032803D02*
X032319Y032803D01*
X032386Y032870D01*
X032386Y033070D01*
X032253Y033070D02*
X032186Y033003D01*
X032186Y032870D01*
X032253Y032803D01*
X032519Y032803D02*
X032586Y032870D01*
X032586Y033003D01*
X032519Y033070D01*
X032253Y033070D01*
X032134Y033360D02*
X032401Y033360D01*
X032467Y033426D01*
X032467Y033560D01*
X032401Y033626D01*
X032467Y033820D02*
X032200Y034087D01*
X032134Y034087D01*
X032067Y034020D01*
X032067Y033887D01*
X032134Y033820D01*
X032134Y033626D02*
X032067Y033560D01*
X032067Y033426D01*
X032134Y033360D01*
X031691Y033479D02*
X031624Y033413D01*
X031691Y033479D02*
X031691Y033613D01*
X031624Y033679D01*
X031558Y033679D01*
X031491Y033613D01*
X031491Y033546D01*
X031491Y033613D02*
X031424Y033679D01*
X031358Y033679D01*
X031291Y033613D01*
X031291Y033479D01*
X031358Y033413D01*
X031358Y033219D02*
X031491Y033219D01*
X031558Y033152D01*
X031558Y032952D01*
X031691Y032952D02*
X031291Y032952D01*
X031291Y033152D01*
X031358Y033219D01*
X031558Y033086D02*
X031691Y033219D01*
X031624Y033873D02*
X031358Y034140D01*
X031624Y034140D01*
X031691Y034073D01*
X031691Y033940D01*
X031624Y033873D01*
X031358Y033873D01*
X031291Y033940D01*
X031291Y034073D01*
X031358Y034140D01*
X030733Y034050D02*
X030666Y034116D01*
X030400Y034116D01*
X030333Y034050D01*
X030333Y033916D01*
X030400Y033849D01*
X030466Y033849D01*
X030533Y033916D01*
X030533Y034116D01*
X030733Y034050D02*
X030733Y033916D01*
X030666Y033849D01*
X030733Y033656D02*
X030733Y033389D01*
X030466Y033656D01*
X030400Y033656D01*
X030333Y033589D01*
X030333Y033456D01*
X030400Y033389D01*
X030400Y033195D02*
X030533Y033195D01*
X030600Y033129D01*
X030600Y032929D01*
X030600Y033062D02*
X030733Y033195D01*
X030733Y032929D02*
X030333Y032929D01*
X030333Y033129D01*
X030400Y033195D01*
X029784Y033188D02*
X029650Y033054D01*
X029650Y033121D02*
X029650Y032921D01*
X029784Y032921D02*
X029383Y032921D01*
X029383Y033121D01*
X029450Y033188D01*
X029584Y033188D01*
X029650Y033121D01*
X029717Y033381D02*
X029784Y033448D01*
X029784Y033582D01*
X029717Y033648D01*
X029650Y033648D01*
X029584Y033582D01*
X029584Y033515D01*
X029584Y033582D02*
X029517Y033648D01*
X029450Y033648D01*
X029383Y033582D01*
X029383Y033448D01*
X029450Y033381D01*
X029517Y033842D02*
X029383Y033975D01*
X029784Y033975D01*
X029784Y033842D02*
X029784Y034109D01*
X032067Y034347D02*
X032067Y034480D01*
X032134Y034547D01*
X032200Y034547D01*
X032267Y034480D01*
X032334Y034547D01*
X032401Y034547D01*
X032467Y034480D01*
X032467Y034347D01*
X032401Y034280D01*
X032267Y034414D02*
X032267Y034480D01*
X032134Y034280D02*
X032067Y034347D01*
X032467Y034087D02*
X032467Y033820D01*
X032597Y035820D02*
X032663Y035887D01*
X032663Y035954D01*
X032597Y036020D01*
X032263Y036020D01*
X032263Y035954D02*
X032263Y036087D01*
X032397Y036281D02*
X032263Y036414D01*
X032663Y036414D01*
X032663Y036281D02*
X032663Y036547D01*
X032663Y036741D02*
X032663Y037008D01*
X032663Y036874D02*
X032263Y036874D01*
X032397Y036741D01*
X032976Y036794D02*
X032976Y036393D01*
X033243Y036393D01*
X033437Y036527D02*
X033437Y036794D01*
X033703Y036794D02*
X033703Y036527D01*
X033570Y036393D01*
X033437Y036527D01*
X035730Y037071D02*
X035997Y037071D01*
X035864Y037071D02*
X035864Y036670D01*
X036191Y036670D02*
X036458Y037071D01*
X036191Y037071D02*
X036458Y036670D01*
X036651Y036870D02*
X036918Y036870D01*
X036851Y036670D02*
X036851Y037071D01*
X036651Y036870D01*
X037853Y036420D02*
X037853Y036020D01*
X037853Y036220D02*
X038120Y036220D01*
X038120Y036420D02*
X038120Y036020D01*
X038313Y036154D02*
X038447Y036020D01*
X038580Y036154D01*
X038580Y036420D01*
X038313Y036420D02*
X038313Y036154D01*
X037729Y033050D02*
X037463Y033050D01*
X037729Y032783D01*
X037796Y032850D01*
X037796Y032983D01*
X037729Y033050D01*
X037463Y033050D02*
X037396Y032983D01*
X037396Y032850D01*
X037463Y032783D01*
X037729Y032783D01*
X037596Y032589D02*
X037596Y032323D01*
X037396Y032523D01*
X037796Y032523D01*
X037729Y032129D02*
X037796Y032062D01*
X037796Y031929D01*
X037729Y031862D01*
X037463Y031862D01*
X037396Y031929D01*
X037396Y032062D01*
X037463Y032129D01*
X037433Y030094D02*
X037299Y030027D01*
X037166Y029893D01*
X037366Y029893D01*
X037433Y029827D01*
X037433Y029760D01*
X037366Y029693D01*
X037233Y029693D01*
X037166Y029760D01*
X037166Y029893D01*
X036972Y029827D02*
X036972Y029760D01*
X036906Y029693D01*
X036772Y029693D01*
X036705Y029760D01*
X036839Y029893D02*
X036906Y029893D01*
X036972Y029827D01*
X036906Y029893D02*
X036972Y029960D01*
X036972Y030027D01*
X036906Y030094D01*
X036772Y030094D01*
X036705Y030027D01*
X036512Y030027D02*
X036445Y030094D01*
X036312Y030094D01*
X036245Y030027D01*
X036245Y029760D01*
X036312Y029693D01*
X036445Y029693D01*
X036512Y029760D01*
X036153Y029127D02*
X036420Y028860D01*
X036487Y028860D01*
X036487Y028666D02*
X036487Y028399D01*
X036487Y028533D02*
X036086Y028533D01*
X036220Y028399D01*
X036086Y028206D02*
X036420Y028206D01*
X036487Y028139D01*
X036487Y028006D01*
X036420Y027939D01*
X036086Y027939D01*
X036056Y027710D02*
X036123Y027710D01*
X036389Y027443D01*
X036456Y027443D01*
X036389Y027249D02*
X036456Y027183D01*
X036456Y027049D01*
X036389Y026983D01*
X036256Y027116D02*
X036256Y027183D01*
X036323Y027249D01*
X036389Y027249D01*
X036256Y027183D02*
X036189Y027249D01*
X036123Y027249D01*
X036056Y027183D01*
X036056Y027049D01*
X036123Y026983D01*
X036123Y026789D02*
X036056Y026722D01*
X036056Y026589D01*
X036123Y026522D01*
X036389Y026522D01*
X036456Y026589D01*
X036456Y026722D01*
X036389Y026789D01*
X036056Y027443D02*
X036056Y027710D01*
X036086Y028860D02*
X036086Y029127D01*
X036153Y029127D01*
X036077Y024819D02*
X036144Y024685D01*
X036277Y024552D01*
X036277Y024752D01*
X036344Y024819D01*
X036411Y024819D01*
X036478Y024752D01*
X036478Y024619D01*
X036411Y024552D01*
X036277Y024552D01*
X036478Y024358D02*
X036478Y024092D01*
X036077Y024092D01*
X034516Y023892D02*
X034449Y023959D01*
X034516Y023892D02*
X034516Y023759D01*
X034449Y023692D01*
X034183Y023692D01*
X034116Y023759D01*
X034116Y023892D01*
X034183Y023959D01*
X034316Y024153D02*
X034316Y024419D01*
X034316Y024613D02*
X034316Y024880D01*
X034516Y024813D02*
X034116Y024813D01*
X034316Y024613D01*
X034516Y024353D02*
X034116Y024353D01*
X034316Y024153D01*
X033884Y024583D02*
X033617Y024583D01*
X033884Y024850D01*
X033884Y024917D01*
X033817Y024984D01*
X033684Y024984D01*
X033617Y024917D01*
X033423Y024783D02*
X033157Y024783D01*
X033357Y024984D01*
X033357Y024583D01*
X032963Y024583D02*
X032830Y024717D01*
X032896Y024717D02*
X032696Y024717D01*
X032696Y024583D02*
X032696Y024984D01*
X032896Y024984D01*
X032963Y024917D01*
X032963Y024783D01*
X032896Y024717D01*
X032396Y024763D02*
X032396Y025030D01*
X032396Y024896D02*
X031996Y024896D01*
X032129Y024763D01*
X032196Y024569D02*
X032196Y024303D01*
X031996Y024503D01*
X032396Y024503D01*
X032396Y024109D02*
X032263Y023976D01*
X032263Y024042D02*
X032263Y023842D01*
X032396Y023842D02*
X031996Y023842D01*
X031996Y024042D01*
X032063Y024109D01*
X032196Y024109D01*
X032263Y024042D01*
X028516Y026503D02*
X028116Y026503D01*
X028116Y026703D01*
X028183Y026770D01*
X028316Y026770D01*
X028383Y026703D01*
X028383Y026503D01*
X028383Y026637D02*
X028516Y026770D01*
X028516Y026964D02*
X028116Y027231D01*
X028116Y026964D02*
X028516Y027231D01*
X027636Y027251D02*
X027636Y026984D01*
X027236Y026984D01*
X027236Y027251D01*
X027436Y027117D02*
X027436Y026984D01*
X027436Y026790D02*
X027503Y026723D01*
X027503Y026523D01*
X027636Y026523D02*
X027236Y026523D01*
X027236Y026723D01*
X027303Y026790D01*
X027436Y026790D01*
X027503Y026657D02*
X027636Y026790D01*
X026826Y026627D02*
X026426Y026627D01*
X026426Y026760D02*
X026426Y026493D01*
X026426Y026954D02*
X026826Y027221D01*
X026826Y026954D02*
X026426Y027221D01*
X025716Y027174D02*
X025716Y027441D01*
X025716Y027307D02*
X025316Y027307D01*
X025449Y027174D01*
X025383Y026980D02*
X025316Y026913D01*
X025316Y026713D01*
X025716Y026713D01*
X025716Y026913D01*
X025649Y026980D01*
X025383Y026980D01*
X024866Y026913D02*
X024866Y026713D01*
X024466Y026713D01*
X024466Y026913D01*
X024533Y026980D01*
X024799Y026980D01*
X024866Y026913D01*
X024866Y027174D02*
X024866Y027441D01*
X024866Y027307D02*
X024466Y027307D01*
X024599Y027174D01*
X024533Y027634D02*
X024466Y027701D01*
X024466Y027834D01*
X024533Y027901D01*
X024599Y027901D01*
X024666Y027834D01*
X024733Y027901D01*
X024799Y027901D01*
X024866Y027834D01*
X024866Y027701D01*
X024799Y027634D01*
X024666Y027768D02*
X024666Y027834D01*
X025316Y027834D02*
X025516Y027634D01*
X025516Y027901D01*
X025716Y027834D02*
X025316Y027834D01*
X027003Y029633D02*
X027269Y029633D01*
X027336Y029699D01*
X027336Y029833D01*
X027269Y029899D01*
X027336Y030093D02*
X027069Y030360D01*
X027003Y030360D01*
X026936Y030293D01*
X026936Y030160D01*
X027003Y030093D01*
X027003Y029899D02*
X026936Y029833D01*
X026936Y029699D01*
X027003Y029633D01*
X027336Y030093D02*
X027336Y030360D01*
X027336Y030553D02*
X027336Y030820D01*
X027336Y030687D02*
X026936Y030687D01*
X027069Y030553D01*
X025087Y029845D02*
X024820Y029845D01*
X024954Y029845D02*
X024954Y030245D01*
X024820Y030111D01*
X024627Y030178D02*
X024627Y030245D01*
X024627Y030178D02*
X024493Y030045D01*
X024493Y029845D01*
X024493Y030045D02*
X024360Y030178D01*
X024360Y030245D01*
X023916Y030272D02*
X023916Y030139D01*
X023849Y030072D01*
X023716Y030206D02*
X023716Y030272D01*
X023783Y030339D01*
X023849Y030339D01*
X023916Y030272D01*
X023716Y030272D02*
X023649Y030339D01*
X023583Y030339D01*
X023516Y030272D01*
X023516Y030139D01*
X023583Y030072D01*
X023583Y029879D02*
X023516Y029812D01*
X023516Y029679D01*
X023583Y029612D01*
X023849Y029612D01*
X023916Y029679D01*
X023916Y029812D01*
X023849Y029879D01*
X021299Y034660D02*
X021366Y034726D01*
X021366Y034860D01*
X021299Y034927D01*
X021233Y034927D01*
X021166Y034860D01*
X021166Y034726D01*
X021099Y034660D01*
X021033Y034660D01*
X020966Y034726D01*
X020966Y034860D01*
X021033Y034927D01*
X021299Y035120D02*
X021366Y035187D01*
X021366Y035253D01*
X021299Y035320D01*
X020966Y035320D01*
X020966Y035253D02*
X020966Y035387D01*
X021033Y035580D02*
X020966Y035647D01*
X020966Y035781D01*
X021033Y035847D01*
X021099Y035847D01*
X021166Y035781D01*
X021233Y035847D01*
X021299Y035847D01*
X021366Y035781D01*
X021366Y035647D01*
X021299Y035580D01*
X021166Y035714D02*
X021166Y035781D01*
X021202Y036981D02*
X021269Y037047D01*
X021269Y037381D01*
X021002Y037381D02*
X021002Y037047D01*
X021068Y036981D01*
X021202Y036981D01*
X021462Y037181D02*
X021729Y037181D01*
X021662Y037381D02*
X021462Y037181D01*
X021662Y036981D02*
X021662Y037381D01*
X019606Y037428D02*
X019472Y037295D01*
X019472Y037362D02*
X019472Y037161D01*
X019606Y037161D02*
X019206Y037161D01*
X019206Y037362D01*
X019272Y037428D01*
X019406Y037428D01*
X019472Y037362D01*
X019406Y037622D02*
X019406Y037889D01*
X019606Y037822D02*
X019206Y037822D01*
X019406Y037622D01*
X019456Y036464D02*
X019323Y036464D01*
X019256Y036397D01*
X019256Y036330D01*
X019323Y036263D01*
X019523Y036263D01*
X019523Y036130D02*
X019523Y036397D01*
X019456Y036464D01*
X019523Y036130D02*
X019456Y036063D01*
X019323Y036063D01*
X019256Y036130D01*
X019062Y036130D02*
X018996Y036063D01*
X018862Y036063D01*
X018795Y036130D01*
X018795Y036464D01*
X019062Y036464D02*
X019062Y036130D01*
X017714Y035924D02*
X017714Y035857D01*
X017647Y035790D01*
X017714Y035724D01*
X017714Y035657D01*
X017647Y035590D01*
X017514Y035590D01*
X017447Y035657D01*
X017580Y035790D02*
X017647Y035790D01*
X017714Y035924D02*
X017647Y035991D01*
X017514Y035991D01*
X017447Y035924D01*
X017120Y035991D02*
X017120Y035590D01*
X017253Y035590D02*
X016986Y035590D01*
X016986Y035857D02*
X017120Y035991D01*
X016793Y035991D02*
X016660Y035991D01*
X016726Y035991D02*
X016726Y035657D01*
X016660Y035590D01*
X016593Y035590D01*
X016526Y035657D01*
X016023Y036340D02*
X015756Y036340D01*
X015956Y036540D01*
X015956Y036139D01*
X015562Y036206D02*
X015496Y036139D01*
X015362Y036139D01*
X015295Y036206D01*
X015295Y036340D02*
X015429Y036406D01*
X015496Y036406D01*
X015562Y036340D01*
X015562Y036206D01*
X015295Y036340D02*
X015295Y036540D01*
X015562Y036540D01*
X015102Y036473D02*
X015102Y036340D01*
X015035Y036273D01*
X014835Y036273D01*
X014835Y036139D02*
X014835Y036540D01*
X015035Y036540D01*
X015102Y036473D01*
X014969Y036273D02*
X015102Y036139D01*
X015077Y037006D02*
X014944Y037139D01*
X015010Y037139D02*
X014810Y037139D01*
X014810Y037006D02*
X014810Y037406D01*
X015010Y037406D01*
X015077Y037339D01*
X015077Y037206D01*
X015010Y037139D01*
X015271Y037073D02*
X015337Y037006D01*
X015471Y037006D01*
X015537Y037073D01*
X015537Y037206D01*
X015471Y037273D01*
X015404Y037273D01*
X015271Y037206D01*
X015271Y037406D01*
X015537Y037406D01*
X015731Y037339D02*
X015798Y037406D01*
X015931Y037406D01*
X015998Y037339D01*
X015998Y037273D01*
X015931Y037206D01*
X015998Y037139D01*
X015998Y037073D01*
X015931Y037006D01*
X015798Y037006D01*
X015731Y037073D01*
X015864Y037206D02*
X015931Y037206D01*
X015161Y040061D02*
X014894Y040061D01*
X014827Y040127D01*
X014827Y040261D01*
X014894Y040327D01*
X014894Y040521D02*
X014827Y040588D01*
X014827Y040721D01*
X014894Y040788D01*
X014961Y040788D01*
X015228Y040521D01*
X015228Y040788D01*
X015161Y040981D02*
X015228Y041048D01*
X015228Y041182D01*
X015161Y041248D01*
X015094Y041248D01*
X015027Y041182D01*
X015027Y040981D01*
X015161Y040981D01*
X015027Y040981D02*
X014894Y041115D01*
X014827Y041248D01*
X014707Y041846D02*
X014707Y042046D01*
X014773Y042113D01*
X015040Y042113D01*
X015107Y042046D01*
X015107Y041846D01*
X014707Y041846D01*
X014320Y041846D02*
X014320Y042046D01*
X014253Y042113D01*
X013986Y042113D01*
X013919Y042046D01*
X013919Y041846D01*
X014320Y041846D01*
X014320Y042306D02*
X014320Y042573D01*
X014320Y042440D02*
X013919Y042440D01*
X014053Y042306D01*
X013986Y042767D02*
X013919Y042833D01*
X013919Y042967D01*
X013986Y043034D01*
X014253Y042767D01*
X014320Y042833D01*
X014320Y042967D01*
X014253Y043034D01*
X013986Y043034D01*
X013986Y042767D02*
X014253Y042767D01*
X014707Y042900D02*
X015107Y042900D01*
X015107Y042767D02*
X015107Y043034D01*
X015415Y042907D02*
X015415Y042773D01*
X015482Y042707D01*
X015415Y042907D02*
X015482Y042974D01*
X015549Y042974D01*
X015816Y042707D01*
X015816Y042974D01*
X015816Y042513D02*
X015816Y042246D01*
X015816Y042380D02*
X015415Y042380D01*
X015549Y042246D01*
X015482Y042053D02*
X015415Y041986D01*
X015415Y041786D01*
X015816Y041786D01*
X015816Y041986D01*
X015749Y042053D01*
X015482Y042053D01*
X015107Y042306D02*
X015107Y042573D01*
X015107Y042440D02*
X014707Y042440D01*
X014840Y042306D01*
X014840Y042767D02*
X014707Y042900D01*
X013473Y042943D02*
X013407Y043010D01*
X013140Y043010D01*
X013073Y042943D01*
X013073Y042810D01*
X013140Y042743D01*
X013206Y042743D01*
X013273Y042810D01*
X013273Y043010D01*
X013473Y042943D02*
X013473Y042810D01*
X013407Y042743D01*
X013407Y042550D02*
X013140Y042550D01*
X013073Y042483D01*
X013073Y042283D01*
X013473Y042283D01*
X013473Y042483D01*
X013407Y042550D01*
X012745Y042440D02*
X012678Y042507D01*
X012411Y042507D01*
X012345Y042440D01*
X012345Y042240D01*
X012745Y042240D01*
X012745Y042440D01*
X012745Y042700D02*
X012478Y042967D01*
X012411Y042967D01*
X012345Y042900D01*
X012345Y042767D01*
X012411Y042700D01*
X012745Y042700D02*
X012745Y042967D01*
X011226Y043073D02*
X011226Y043273D01*
X011159Y043340D01*
X010893Y043340D01*
X010826Y043273D01*
X010826Y043073D01*
X011226Y043073D01*
X011051Y042680D02*
X011051Y042413D01*
X010851Y042613D01*
X011251Y042613D01*
X011251Y042219D02*
X011251Y041953D01*
X010984Y042219D01*
X010918Y042219D01*
X010851Y042153D01*
X010851Y042019D01*
X010918Y041953D01*
X010918Y041759D02*
X011051Y041759D01*
X011118Y041692D01*
X011118Y041492D01*
X011251Y041492D02*
X010851Y041492D01*
X010851Y041692D01*
X010918Y041759D01*
X011118Y041626D02*
X011251Y041759D01*
X012091Y040926D02*
X012158Y040926D01*
X012424Y040659D01*
X012491Y040659D01*
X012491Y040466D02*
X012491Y040199D01*
X012491Y040332D02*
X012091Y040332D01*
X012224Y040199D01*
X012158Y040005D02*
X012291Y040005D01*
X012358Y039938D01*
X012358Y039738D01*
X012491Y039738D02*
X012091Y039738D01*
X012091Y039938D01*
X012158Y040005D01*
X012358Y039872D02*
X012491Y040005D01*
X012686Y039987D02*
X012686Y039854D01*
X012753Y039787D01*
X013020Y039787D01*
X013086Y039854D01*
X013086Y039987D01*
X013020Y040054D01*
X013086Y040247D02*
X012819Y040514D01*
X012753Y040514D01*
X012686Y040448D01*
X012686Y040314D01*
X012753Y040247D01*
X012753Y040054D02*
X012686Y039987D01*
X013086Y040247D02*
X013086Y040514D01*
X012886Y040708D02*
X012686Y040908D01*
X013086Y040908D01*
X012886Y040975D02*
X012886Y040708D01*
X012091Y040659D02*
X012091Y040926D01*
X011159Y043534D02*
X011226Y043600D01*
X011226Y043734D01*
X011159Y043801D01*
X011093Y043801D01*
X011026Y043734D01*
X011026Y043667D01*
X011026Y043734D02*
X010959Y043801D01*
X010893Y043801D01*
X010826Y043734D01*
X010826Y043600D01*
X010893Y043534D01*
X009413Y041719D02*
X009479Y041653D01*
X009479Y041519D01*
X009413Y041453D01*
X009279Y041586D02*
X009279Y041653D01*
X009346Y041719D01*
X009413Y041719D01*
X009279Y041653D02*
X009212Y041719D01*
X009146Y041719D01*
X009079Y041653D01*
X009079Y041519D01*
X009146Y041453D01*
X009079Y041259D02*
X009479Y040992D01*
X009479Y041259D02*
X009079Y040992D01*
X009079Y040799D02*
X009079Y040532D01*
X009079Y040665D02*
X009479Y040665D01*
X007165Y039718D02*
X006898Y039718D01*
X007031Y039718D02*
X007031Y040118D01*
X006898Y039985D01*
X006704Y040118D02*
X006571Y040118D01*
X006638Y040118D02*
X006638Y039785D01*
X006571Y039718D01*
X006504Y039718D01*
X006437Y039785D01*
X008083Y036650D02*
X008083Y036250D01*
X008083Y036450D02*
X008350Y036450D01*
X008350Y036650D02*
X008350Y036250D01*
X008543Y036384D02*
X008543Y036650D01*
X008543Y036384D02*
X008677Y036250D01*
X008810Y036384D01*
X008810Y036650D01*
X011466Y036654D02*
X011466Y036253D01*
X011733Y036253D01*
X011927Y036387D02*
X012060Y036253D01*
X012193Y036387D01*
X012193Y036654D01*
X011927Y036654D02*
X011927Y036387D01*
X012809Y037299D02*
X013142Y037299D01*
X013209Y037366D01*
X013209Y037499D01*
X013142Y037566D01*
X012809Y037566D01*
X012876Y037760D02*
X012809Y037826D01*
X012809Y037960D01*
X012876Y038027D01*
X012942Y038027D01*
X013009Y037960D01*
X013009Y037826D01*
X012942Y037760D01*
X012876Y037760D01*
X013009Y037826D02*
X013076Y037760D01*
X013142Y037760D01*
X013209Y037826D01*
X013209Y037960D01*
X013142Y038027D01*
X013076Y038027D01*
X013009Y037960D01*
X015161Y040061D02*
X015228Y040127D01*
X015228Y040261D01*
X015161Y040327D01*
X016090Y040351D02*
X016090Y040551D01*
X016157Y040618D01*
X016290Y040618D01*
X016357Y040551D01*
X016357Y040351D01*
X016491Y040351D02*
X016090Y040351D01*
X016357Y040485D02*
X016491Y040618D01*
X016491Y040812D02*
X016224Y041078D01*
X016157Y041078D01*
X016090Y041012D01*
X016090Y040878D01*
X016157Y040812D01*
X016491Y040812D02*
X016491Y041078D01*
X016424Y041272D02*
X016491Y041339D01*
X016491Y041472D01*
X016424Y041539D01*
X016290Y041539D01*
X016224Y041472D01*
X016224Y041405D01*
X016290Y041272D01*
X016090Y041272D01*
X016090Y041539D01*
X016243Y041942D02*
X016243Y042143D01*
X016310Y042209D01*
X016576Y042209D01*
X016643Y042143D01*
X016643Y041942D01*
X016243Y041942D01*
X016376Y042403D02*
X016243Y042536D01*
X016643Y042536D01*
X016643Y042403D02*
X016643Y042670D01*
X017071Y042620D02*
X017071Y042353D01*
X017138Y042159D02*
X017071Y042093D01*
X017071Y041893D01*
X017471Y041893D01*
X017471Y042093D01*
X017405Y042159D01*
X017138Y042159D01*
X017405Y042353D02*
X017138Y042620D01*
X017071Y042620D01*
X017405Y042353D02*
X017471Y042353D01*
X017921Y042162D02*
X018122Y041962D01*
X018122Y042229D01*
X018322Y042162D02*
X017921Y042162D01*
X017921Y041635D02*
X018322Y041635D01*
X018322Y041768D02*
X018322Y041501D01*
X018055Y041501D02*
X017921Y041635D01*
X017921Y041308D02*
X017921Y041174D01*
X017921Y041241D02*
X018255Y041241D01*
X018322Y041174D01*
X018322Y041108D01*
X018255Y041041D01*
X019051Y040995D02*
X019051Y040661D01*
X019118Y040594D01*
X019252Y040594D01*
X019318Y040661D01*
X019318Y040995D01*
X019512Y040928D02*
X019578Y040995D01*
X019712Y040995D01*
X019779Y040928D01*
X019779Y040861D01*
X019712Y040795D01*
X019779Y040728D01*
X019779Y040661D01*
X019712Y040594D01*
X019578Y040594D01*
X019512Y040661D01*
X019645Y040795D02*
X019712Y040795D01*
X019698Y039723D02*
X019631Y039656D01*
X019698Y039723D02*
X019831Y039723D01*
X019898Y039656D01*
X019898Y039590D01*
X019631Y039323D01*
X019898Y039323D01*
X019371Y039390D02*
X019371Y039723D01*
X019437Y039723D02*
X019304Y039723D01*
X018977Y039656D02*
X018910Y039723D01*
X018777Y039723D01*
X018710Y039656D01*
X018710Y039590D01*
X018777Y039523D01*
X018910Y039523D01*
X018977Y039456D01*
X018977Y039390D01*
X018910Y039323D01*
X018777Y039323D01*
X018710Y039390D01*
X019171Y039390D02*
X019237Y039323D01*
X019304Y039323D01*
X019371Y039390D01*
X023640Y039632D02*
X023707Y039565D01*
X023974Y039565D01*
X024040Y039632D01*
X024040Y039765D01*
X023974Y039832D01*
X024040Y040026D02*
X024040Y040292D01*
X024040Y040159D02*
X023640Y040159D01*
X023773Y040026D01*
X023707Y039832D02*
X023640Y039765D01*
X023640Y039632D01*
X023840Y040486D02*
X023840Y040686D01*
X023907Y040753D01*
X023974Y040753D01*
X024040Y040686D01*
X024040Y040553D01*
X023974Y040486D01*
X023840Y040486D01*
X023707Y040619D01*
X023640Y040753D01*
X023825Y042548D02*
X023825Y042949D01*
X024026Y042949D01*
X024092Y042882D01*
X024092Y042748D01*
X024026Y042682D01*
X023825Y042682D01*
X023959Y042682D02*
X024092Y042548D01*
X024286Y042615D02*
X024353Y042548D01*
X024486Y042548D01*
X024553Y042615D01*
X024553Y042682D01*
X024486Y042748D01*
X024419Y042748D01*
X024486Y042748D02*
X024553Y042815D01*
X024553Y042882D01*
X024486Y042949D01*
X024353Y042949D01*
X024286Y042882D01*
X026205Y042052D02*
X026205Y041785D01*
X026272Y041718D01*
X026405Y041718D01*
X026472Y041785D01*
X026665Y041718D02*
X026932Y041718D01*
X026799Y041718D02*
X026799Y042119D01*
X026665Y041985D01*
X026472Y042052D02*
X026405Y042119D01*
X026272Y042119D01*
X026205Y042052D01*
X027126Y042052D02*
X027193Y042119D01*
X027326Y042119D01*
X027393Y042052D01*
X027126Y041785D01*
X027193Y041718D01*
X027326Y041718D01*
X027393Y041785D01*
X027393Y042052D01*
X027126Y042052D02*
X027126Y041785D01*
X028046Y042740D02*
X028113Y042673D01*
X028180Y042673D01*
X028246Y042740D01*
X028246Y043074D01*
X028180Y043074D02*
X028313Y043074D01*
X028507Y043074D02*
X028507Y042673D01*
X028507Y042807D02*
X028707Y042807D01*
X028773Y042873D01*
X028773Y043007D01*
X028707Y043074D01*
X028507Y043074D01*
X028967Y042940D02*
X029100Y043074D01*
X029100Y042673D01*
X028967Y042673D02*
X029234Y042673D01*
X030078Y043599D02*
X030144Y043599D01*
X030211Y043666D01*
X030211Y043799D01*
X030278Y043866D01*
X030345Y043866D01*
X030411Y043799D01*
X030411Y043666D01*
X030345Y043599D01*
X030078Y043599D02*
X030011Y043666D01*
X030011Y043799D01*
X030078Y043866D01*
X030078Y044059D02*
X030011Y044126D01*
X030011Y044259D01*
X030078Y044326D01*
X030144Y044326D01*
X030411Y044059D01*
X030411Y044326D01*
X031620Y041585D02*
X031820Y041585D01*
X031887Y041519D01*
X031887Y041385D01*
X031820Y041318D01*
X031620Y041318D01*
X031620Y041185D02*
X031620Y041585D01*
X031753Y041318D02*
X031887Y041185D01*
X032080Y041252D02*
X032147Y041185D01*
X032280Y041185D01*
X032347Y041252D01*
X032347Y041385D01*
X032280Y041452D01*
X032213Y041452D01*
X032080Y041385D01*
X032080Y041585D01*
X032347Y041585D01*
X032540Y041385D02*
X032741Y041385D01*
X032807Y041318D01*
X032807Y041252D01*
X032741Y041185D01*
X032607Y041185D01*
X032540Y041252D01*
X032540Y041385D01*
X032674Y041519D01*
X032807Y041585D01*
X032769Y040821D02*
X032502Y040821D01*
X032502Y040620D01*
X032636Y040687D01*
X032702Y040687D01*
X032769Y040620D01*
X032769Y040487D01*
X032702Y040420D01*
X032569Y040420D01*
X032502Y040487D01*
X032309Y040487D02*
X032309Y040620D01*
X032242Y040687D01*
X032175Y040687D01*
X032042Y040620D01*
X032042Y040821D01*
X032309Y040821D01*
X032309Y040487D02*
X032242Y040420D01*
X032109Y040420D01*
X032042Y040487D01*
X031848Y040420D02*
X031715Y040554D01*
X031782Y040554D02*
X031581Y040554D01*
X031581Y040420D02*
X031581Y040821D01*
X031782Y040821D01*
X031848Y040754D01*
X031848Y040620D01*
X031782Y040554D01*
X032241Y040120D02*
X032374Y039987D01*
X032241Y040120D02*
X032641Y040120D01*
X032641Y039987D02*
X032641Y040254D01*
X032641Y039793D02*
X032507Y039660D01*
X032507Y039726D02*
X032507Y039526D01*
X032641Y039526D02*
X032241Y039526D01*
X032241Y039726D01*
X032307Y039793D01*
X032441Y039793D01*
X032507Y039726D01*
X029945Y040335D02*
X029945Y040469D01*
X029878Y040535D01*
X029544Y040535D01*
X029678Y040729D02*
X029544Y040862D01*
X029945Y040862D01*
X029945Y040729D02*
X029945Y040996D01*
X029945Y041189D02*
X029945Y041456D01*
X029945Y041323D02*
X029544Y041323D01*
X029678Y041189D01*
X029945Y040335D02*
X029878Y040269D01*
X029544Y040269D01*
X028897Y038129D02*
X028764Y038129D01*
X028697Y038063D01*
X028897Y038129D02*
X028964Y038063D01*
X028964Y037996D01*
X028697Y037729D01*
X028964Y037729D01*
X028503Y037729D02*
X028237Y037729D01*
X028370Y037729D02*
X028370Y038129D01*
X028237Y037996D01*
X028043Y038129D02*
X027910Y038129D01*
X027976Y038129D02*
X027976Y037796D01*
X027910Y037729D01*
X027843Y037729D01*
X027776Y037796D01*
X027374Y036395D02*
X027241Y036328D01*
X027107Y036195D01*
X027308Y036195D01*
X027374Y036128D01*
X027374Y036061D01*
X027308Y035995D01*
X027174Y035995D01*
X027107Y036061D01*
X027107Y036195D01*
X026914Y036061D02*
X026914Y036395D01*
X026647Y036395D02*
X026647Y036061D01*
X026714Y035995D01*
X026847Y035995D01*
X026914Y036061D01*
X026087Y035268D02*
X026089Y035288D01*
X026094Y035308D01*
X026104Y035326D01*
X026116Y035343D01*
X026131Y035357D01*
X026149Y035367D01*
X026168Y035375D01*
X026188Y035379D01*
X026208Y035379D01*
X026228Y035375D01*
X026247Y035367D01*
X026265Y035357D01*
X026280Y035343D01*
X026292Y035326D01*
X026302Y035308D01*
X026307Y035288D01*
X026309Y035268D01*
X026307Y035248D01*
X026302Y035228D01*
X026292Y035210D01*
X026280Y035193D01*
X026265Y035179D01*
X026247Y035169D01*
X026228Y035161D01*
X026208Y035157D01*
X026188Y035157D01*
X026168Y035161D01*
X026149Y035169D01*
X026131Y035179D01*
X026116Y035193D01*
X026104Y035210D01*
X026094Y035228D01*
X026089Y035248D01*
X026087Y035268D01*
X018612Y033925D02*
X018345Y033925D01*
X018345Y033725D01*
X018478Y033792D01*
X018545Y033792D01*
X018612Y033725D01*
X018612Y033591D01*
X018545Y033525D01*
X018412Y033525D01*
X018345Y033591D01*
X018151Y033525D02*
X017885Y033525D01*
X018151Y033792D01*
X018151Y033858D01*
X018085Y033925D01*
X017951Y033925D01*
X017885Y033858D01*
X017691Y033858D02*
X017624Y033925D01*
X017491Y033925D01*
X017424Y033858D01*
X017424Y033591D01*
X017491Y033525D01*
X017624Y033525D01*
X017691Y033591D01*
X024476Y024699D02*
X024676Y024699D01*
X024743Y024632D01*
X024743Y024498D01*
X024676Y024432D01*
X024476Y024432D01*
X024610Y024432D02*
X024743Y024298D01*
X024937Y024365D02*
X025003Y024298D01*
X025137Y024298D01*
X025203Y024365D01*
X025203Y024632D01*
X025137Y024699D01*
X025003Y024699D01*
X024937Y024632D01*
X024937Y024565D01*
X025003Y024498D01*
X025203Y024498D01*
X025143Y023929D02*
X025010Y023862D01*
X024877Y023728D01*
X025077Y023728D01*
X025143Y023662D01*
X025143Y023595D01*
X025077Y023528D01*
X024943Y023528D01*
X024877Y023595D01*
X024877Y023728D01*
X024683Y023728D02*
X024683Y023862D01*
X024616Y023929D01*
X024416Y023929D01*
X024416Y023528D01*
X024416Y023662D02*
X024616Y023662D01*
X024683Y023728D01*
X024550Y023662D02*
X024683Y023528D01*
X024476Y024298D02*
X024476Y024699D01*
X023177Y023279D02*
X023243Y023212D01*
X023243Y023145D01*
X023177Y023078D01*
X023243Y023012D01*
X023243Y022945D01*
X023177Y022878D01*
X023043Y022878D01*
X022977Y022945D01*
X023110Y023078D02*
X023177Y023078D01*
X023177Y023279D02*
X023043Y023279D01*
X022977Y023212D01*
X022783Y022878D02*
X022516Y022878D01*
X022516Y023279D01*
X025955Y022569D02*
X025955Y022168D01*
X025955Y022302D02*
X026156Y022302D01*
X026222Y022368D01*
X026222Y022502D01*
X026156Y022569D01*
X025955Y022569D01*
X026089Y022302D02*
X026222Y022168D01*
X026416Y022168D02*
X026683Y022435D01*
X026683Y022502D01*
X026616Y022569D01*
X026483Y022569D01*
X026416Y022502D01*
X026416Y022168D02*
X026683Y022168D01*
X035650Y013102D02*
X035716Y013102D01*
X035783Y013035D01*
X035850Y013102D01*
X035916Y013102D01*
X035983Y013035D01*
X035983Y012901D01*
X035916Y012835D01*
X035783Y012968D02*
X035783Y013035D01*
X035650Y013102D02*
X035583Y013035D01*
X035583Y012901D01*
X035650Y012835D01*
X035583Y012641D02*
X035583Y012508D01*
X035583Y012574D02*
X035916Y012574D01*
X035983Y012508D01*
X035983Y012441D01*
X035916Y012374D01*
X037944Y009974D02*
X038144Y009974D01*
X038211Y009907D01*
X038211Y009773D01*
X038144Y009707D01*
X037944Y009707D01*
X038077Y009707D02*
X038211Y009573D01*
X038404Y009640D02*
X038471Y009573D01*
X038538Y009573D01*
X038605Y009640D01*
X038605Y009974D01*
X038671Y009974D02*
X038538Y009974D01*
X037944Y009974D02*
X037944Y009573D01*
X037816Y021853D02*
X037683Y021853D01*
X037616Y021920D01*
X037749Y022053D02*
X037816Y022053D01*
X037883Y021987D01*
X037883Y021920D01*
X037816Y021853D01*
X037816Y022053D02*
X037883Y022120D01*
X037883Y022187D01*
X037816Y022254D01*
X037683Y022254D01*
X037616Y022187D01*
X037422Y022053D02*
X037155Y022053D01*
X037356Y022254D01*
X037356Y021853D01*
X036962Y021920D02*
X036895Y021853D01*
X036762Y021853D01*
X036695Y021920D01*
X036695Y022187D01*
X036762Y022254D01*
X036895Y022254D01*
X036962Y022187D01*
X036164Y040831D02*
X036231Y040898D01*
X036231Y040965D01*
X036164Y041032D01*
X035830Y041032D01*
X035830Y041098D02*
X035830Y040965D01*
X035897Y041292D02*
X035830Y041358D01*
X035830Y041492D01*
X035897Y041559D01*
X035964Y041559D01*
X036231Y041292D01*
X036231Y041559D01*
X008046Y031673D02*
X007779Y031673D01*
X007912Y031673D02*
X007912Y032074D01*
X007779Y031940D01*
X007585Y032074D02*
X007318Y031807D01*
X007385Y031873D02*
X007585Y031673D01*
X007318Y031673D02*
X007318Y032074D01*
X007294Y030099D02*
X007161Y030099D01*
X007094Y030033D01*
X006901Y030033D02*
X006901Y029899D01*
X006834Y029833D01*
X006634Y029833D01*
X006767Y029833D02*
X006901Y029699D01*
X007094Y029699D02*
X007361Y029966D01*
X007361Y030033D01*
X007294Y030099D01*
X007554Y030033D02*
X007621Y030099D01*
X007755Y030099D01*
X007821Y030033D01*
X007554Y029766D01*
X007621Y029699D01*
X007755Y029699D01*
X007821Y029766D01*
X007821Y030033D01*
X007554Y030033D02*
X007554Y029766D01*
X007361Y029699D02*
X007094Y029699D01*
X006901Y030033D02*
X006834Y030099D01*
X006634Y030099D01*
X006634Y029699D01*
X006751Y027314D02*
X006884Y027314D01*
X006951Y027247D01*
X006951Y026981D01*
X006884Y026914D01*
X006751Y026914D01*
X006684Y026981D01*
X006684Y027247D01*
X006751Y027314D01*
X006818Y027047D02*
X006951Y026914D01*
X007144Y026981D02*
X007211Y026914D01*
X007345Y026914D01*
X007411Y026981D01*
X007411Y027047D01*
X007345Y027114D01*
X007278Y027114D01*
X007345Y027114D02*
X007411Y027181D01*
X007411Y027247D01*
X007345Y027314D01*
X007211Y027314D01*
X007144Y027247D01*
X007617Y026515D02*
X007884Y026248D01*
X007951Y026315D01*
X007951Y026448D01*
X007884Y026515D01*
X007617Y026515D01*
X007551Y026448D01*
X007551Y026315D01*
X007617Y026248D01*
X007884Y026248D01*
X007951Y026055D02*
X007951Y025788D01*
X007951Y025921D02*
X007551Y025921D01*
X007684Y025788D01*
X007751Y025594D02*
X007817Y025527D01*
X007817Y025327D01*
X007817Y025461D02*
X007951Y025594D01*
X007751Y025594D02*
X007617Y025594D01*
X007551Y025527D01*
X007551Y025327D01*
X007951Y025327D01*
D11*
X008396Y025177D02*
X010835Y025177D01*
X010835Y022597D02*
X008396Y022596D01*
X008396Y025177D01*
X007659Y027843D02*
X007423Y027843D01*
X007659Y027843D02*
X007659Y028158D01*
X006793Y027843D02*
X006557Y027843D01*
X006557Y028158D01*
X016783Y036312D02*
X016893Y036202D01*
X017283Y036202D01*
X017673Y036202D01*
X017783Y036312D01*
X017283Y036302D02*
X017283Y036202D01*
X017283Y037052D02*
X017283Y037352D01*
X017283Y038102D02*
X017283Y038202D01*
X016893Y038202D01*
X016783Y038092D01*
X017283Y038202D02*
X017673Y038202D01*
X017783Y038092D01*
X019194Y038407D02*
X019824Y038407D01*
X019840Y038412D01*
X019856Y038420D01*
X019870Y038430D01*
X019882Y038442D01*
X019892Y038457D01*
X019899Y038473D01*
X019903Y038490D01*
X019904Y038507D01*
X019902Y038525D01*
X019902Y039076D02*
X019904Y039094D01*
X019903Y039111D01*
X019899Y039128D01*
X019892Y039144D01*
X019882Y039159D01*
X019870Y039171D01*
X019856Y039181D01*
X019840Y039189D01*
X019824Y039194D01*
X019194Y039194D01*
X019193Y039194D02*
X019177Y039189D01*
X019161Y039181D01*
X019147Y039171D01*
X019135Y039159D01*
X019125Y039144D01*
X019118Y039128D01*
X019114Y039111D01*
X019113Y039094D01*
X019115Y039076D01*
X019115Y038525D02*
X019113Y038507D01*
X019114Y038490D01*
X019118Y038473D01*
X019125Y038457D01*
X019135Y038442D01*
X019147Y038430D01*
X019161Y038420D01*
X019177Y038412D01*
X019193Y038407D01*
X019205Y035923D02*
X018867Y035923D01*
X018717Y035469D02*
X018717Y035258D01*
X018867Y034803D02*
X019205Y034803D01*
X019952Y034828D02*
X019952Y035458D01*
X019953Y035459D02*
X019959Y035477D01*
X019968Y035495D01*
X019980Y035510D01*
X019996Y035522D01*
X020013Y035531D01*
X020032Y035537D01*
X020051Y035539D01*
X020071Y035537D01*
X020621Y035537D02*
X020639Y035539D01*
X020656Y035538D01*
X020673Y035534D01*
X020689Y035527D01*
X020704Y035517D01*
X020716Y035505D01*
X020726Y035491D01*
X020734Y035475D01*
X020739Y035459D01*
X020740Y035458D02*
X020740Y034828D01*
X020739Y034828D02*
X020734Y034812D01*
X020726Y034796D01*
X020716Y034782D01*
X020704Y034770D01*
X020689Y034760D01*
X020673Y034753D01*
X020656Y034749D01*
X020639Y034748D01*
X020621Y034750D01*
X020071Y034750D02*
X020051Y034748D01*
X020032Y034750D01*
X020013Y034756D01*
X019996Y034765D01*
X019980Y034777D01*
X019968Y034792D01*
X019959Y034810D01*
X019953Y034828D01*
X022733Y035426D02*
X022733Y031961D01*
X022891Y031804D01*
X026355Y031804D01*
X026513Y031961D01*
X026513Y035426D01*
X026355Y035583D01*
X022891Y035583D01*
X022733Y035426D01*
X027822Y038463D02*
X027932Y038353D01*
X028322Y038353D01*
X028712Y038353D01*
X028822Y038463D01*
X028322Y038453D02*
X028322Y038353D01*
X028322Y039203D02*
X028322Y039503D01*
X028322Y040253D02*
X028322Y040353D01*
X027932Y040353D01*
X027822Y040243D01*
X028322Y040353D02*
X028712Y040353D01*
X028822Y040243D01*
X029296Y043433D02*
X029406Y043543D01*
X029406Y043933D01*
X029406Y044323D01*
X029296Y044433D01*
X029306Y043933D02*
X029406Y043933D01*
X028506Y043933D02*
X028306Y043933D01*
X027506Y043933D02*
X027306Y043933D01*
X026506Y043933D02*
X026306Y043933D01*
X025506Y043933D02*
X025306Y043933D01*
X024506Y043933D02*
X024406Y043933D01*
X024406Y043543D01*
X024516Y043433D01*
X024406Y043933D02*
X024406Y044323D01*
X024516Y044433D01*
X030544Y044817D02*
X030544Y043636D01*
X031194Y043242D02*
X032769Y043242D01*
X033418Y043636D02*
X033418Y044817D01*
X030544Y044817D01*
X029163Y036876D02*
X029053Y036766D01*
X029053Y036376D01*
X029053Y035986D01*
X029163Y035876D01*
X029153Y036376D02*
X029053Y036376D01*
X029953Y036376D02*
X030153Y036376D01*
X030953Y036376D02*
X031153Y036376D01*
X031943Y035876D02*
X032053Y035986D01*
X032053Y036376D01*
X032053Y036766D01*
X031943Y036876D01*
X031953Y036376D02*
X032053Y036376D01*
X033691Y033778D02*
X034479Y033778D01*
X033691Y033778D02*
X033298Y033384D01*
X033298Y032203D01*
X033691Y031809D01*
X034479Y031809D01*
X036054Y031809D02*
X037235Y031809D01*
X037235Y033778D01*
X036054Y033778D01*
X031870Y032348D02*
X031870Y031561D01*
X031870Y032348D02*
X031477Y032742D01*
X030296Y032742D01*
X029902Y032348D01*
X029902Y031561D01*
X029902Y029986D02*
X029902Y028805D01*
X031870Y028805D01*
X031870Y029986D01*
X036392Y026322D02*
X036392Y025141D01*
X036392Y026322D02*
X038360Y026322D01*
X038360Y025141D01*
X038360Y023566D02*
X038360Y022779D01*
X037967Y022385D01*
X036786Y022385D01*
X036392Y022779D01*
X036392Y023566D01*
X035905Y023194D02*
X035905Y022013D01*
X035511Y021619D01*
X034724Y021619D01*
X035905Y023194D02*
X035511Y023588D01*
X034724Y023588D01*
X033149Y023588D02*
X031968Y023588D01*
X031968Y021619D01*
X033149Y021619D01*
X031477Y022438D02*
X031300Y022438D01*
X031477Y022438D02*
X031477Y024249D01*
X031300Y024249D01*
X031300Y023737D02*
X030512Y023737D01*
X030512Y024249D02*
X030335Y024249D01*
X030335Y022438D01*
X030512Y022438D01*
X025608Y028350D02*
X025136Y028350D01*
X024388Y028862D02*
X024388Y029099D01*
X025136Y029610D02*
X025608Y029610D01*
X026356Y029099D02*
X026356Y028862D01*
X028371Y015622D02*
X028582Y015622D01*
X029036Y015472D02*
X029036Y015134D01*
X029916Y015134D02*
X029916Y015472D01*
X030371Y015622D02*
X030582Y015622D01*
X031036Y015472D02*
X031036Y015134D01*
X031596Y015214D02*
X031596Y015552D01*
X032051Y015064D02*
X032262Y015064D01*
X032716Y015214D02*
X032716Y015552D01*
X027916Y015472D02*
X027916Y015134D01*
D12*
X028328Y014229D02*
X028801Y013639D01*
X029313Y014229D01*
X028328Y014229D01*
X028053Y013481D02*
X028053Y008875D01*
X035139Y008875D01*
X035139Y013481D01*
X028053Y013481D01*
X024089Y014342D02*
X024089Y010484D01*
X024057Y010476D02*
X021915Y010476D01*
X021884Y010484D02*
X021884Y014342D01*
X021915Y014350D02*
X024057Y014350D01*
X020099Y014372D02*
X020099Y010514D01*
X020067Y010506D02*
X017925Y010506D01*
X017894Y010514D02*
X017894Y014372D01*
X017925Y014380D02*
X020067Y014380D01*
X016449Y014372D02*
X016449Y010514D01*
X016417Y010506D02*
X014275Y010506D01*
X014244Y010514D02*
X014244Y014372D01*
X014275Y014380D02*
X016417Y014380D01*
X012589Y014372D02*
X012589Y010514D01*
X012557Y010506D02*
X010415Y010506D01*
X010384Y010514D02*
X010384Y014372D01*
X010415Y014380D02*
X012557Y014380D01*
X009546Y013733D02*
X009546Y010733D01*
X007346Y010733D01*
X007346Y011233D01*
X007846Y011233D01*
X007846Y013233D01*
X007346Y013233D01*
X007346Y013733D01*
X009546Y013733D01*
X007346Y013233D02*
X007346Y011233D01*
X008168Y026223D02*
X020168Y026223D01*
X020168Y032223D01*
X008168Y032223D01*
X008168Y026223D01*
X009236Y037289D02*
X009236Y040289D01*
X011236Y040289D01*
X011236Y037289D01*
X009236Y037289D01*
X008747Y040365D02*
X006385Y040365D01*
X006385Y044972D01*
X008747Y044972D01*
X008747Y040365D01*
X013886Y039215D02*
X013886Y037562D01*
X015067Y037562D01*
X015067Y039215D01*
X013886Y039215D01*
X014707Y037798D02*
X014709Y037820D01*
X014714Y037840D01*
X014724Y037860D01*
X014736Y037878D01*
X014751Y037893D01*
X014769Y037905D01*
X014789Y037915D01*
X014809Y037920D01*
X014831Y037922D01*
X014853Y037920D01*
X014873Y037915D01*
X014893Y037905D01*
X014911Y037893D01*
X014926Y037878D01*
X014938Y037860D01*
X014948Y037840D01*
X014953Y037820D01*
X014955Y037798D01*
X014953Y037776D01*
X014948Y037756D01*
X014938Y037736D01*
X014926Y037718D01*
X014911Y037703D01*
X014893Y037691D01*
X014873Y037681D01*
X014853Y037676D01*
X014831Y037674D01*
X014809Y037676D01*
X014789Y037681D01*
X014769Y037691D01*
X014751Y037703D01*
X014736Y037718D01*
X014724Y037736D01*
X014714Y037756D01*
X014709Y037776D01*
X014707Y037798D01*
X018452Y041289D02*
X018452Y047706D01*
X023216Y047706D01*
X023216Y041289D01*
X018452Y041289D01*
X020657Y040846D02*
X020657Y038696D01*
X021987Y038696D01*
X021987Y040846D01*
X020657Y040846D01*
X021842Y040831D02*
X021842Y038711D01*
X021746Y038574D02*
X021746Y037511D01*
X021569Y037511D01*
X021332Y037511D01*
X021155Y037511D01*
X021155Y038574D01*
X021746Y038574D01*
X021522Y038901D02*
X021524Y038921D01*
X021530Y038939D01*
X021539Y038957D01*
X021551Y038972D01*
X021566Y038984D01*
X021584Y038993D01*
X021602Y038999D01*
X021622Y039001D01*
X021642Y038999D01*
X021660Y038993D01*
X021678Y038984D01*
X021693Y038972D01*
X021705Y038957D01*
X021714Y038939D01*
X021720Y038921D01*
X021722Y038901D01*
X021720Y038881D01*
X021714Y038863D01*
X021705Y038845D01*
X021693Y038830D01*
X021678Y038818D01*
X021660Y038809D01*
X021642Y038803D01*
X021622Y038801D01*
X021602Y038803D01*
X021584Y038809D01*
X021566Y038818D01*
X021551Y038830D01*
X021539Y038845D01*
X021530Y038863D01*
X021524Y038881D01*
X021522Y038901D01*
X021449Y037786D02*
X021451Y037806D01*
X021457Y037824D01*
X021466Y037842D01*
X021478Y037857D01*
X021493Y037869D01*
X021511Y037878D01*
X021529Y037884D01*
X021549Y037886D01*
X021569Y037884D01*
X021587Y037878D01*
X021605Y037869D01*
X021620Y037857D01*
X021632Y037842D01*
X021641Y037824D01*
X021647Y037806D01*
X021649Y037786D01*
X021647Y037766D01*
X021641Y037748D01*
X021632Y037730D01*
X021620Y037715D01*
X021605Y037703D01*
X021587Y037694D01*
X021569Y037688D01*
X021549Y037686D01*
X021529Y037688D01*
X021511Y037694D01*
X021493Y037703D01*
X021478Y037715D01*
X021466Y037730D01*
X021457Y037748D01*
X021451Y037766D01*
X021449Y037786D01*
X021333Y037511D02*
X021335Y037531D01*
X021340Y037551D01*
X021349Y037570D01*
X021361Y037587D01*
X021375Y037601D01*
X021392Y037613D01*
X021411Y037622D01*
X021431Y037627D01*
X021451Y037629D01*
X021471Y037627D01*
X021491Y037622D01*
X021510Y037613D01*
X021527Y037601D01*
X021541Y037587D01*
X021553Y037570D01*
X021562Y037551D01*
X021567Y037531D01*
X021569Y037511D01*
X023430Y040805D02*
X023430Y042805D01*
X024430Y041805D01*
X023430Y040805D01*
X023450Y040875D02*
X023460Y040945D01*
X023510Y040935D01*
X023490Y040905D01*
X023460Y042635D02*
X023460Y042735D01*
X023510Y042675D01*
X029961Y040045D02*
X029961Y038392D01*
X031143Y038392D01*
X031143Y040045D01*
X029961Y040045D01*
X030074Y039809D02*
X030076Y039831D01*
X030081Y039851D01*
X030091Y039871D01*
X030103Y039889D01*
X030118Y039904D01*
X030136Y039916D01*
X030156Y039926D01*
X030176Y039931D01*
X030198Y039933D01*
X030220Y039931D01*
X030240Y039926D01*
X030260Y039916D01*
X030278Y039904D01*
X030293Y039889D01*
X030305Y039871D01*
X030315Y039851D01*
X030320Y039831D01*
X030322Y039809D01*
X030320Y039787D01*
X030315Y039767D01*
X030305Y039747D01*
X030293Y039729D01*
X030278Y039714D01*
X030260Y039702D01*
X030240Y039692D01*
X030220Y039687D01*
X030198Y039685D01*
X030176Y039687D01*
X030156Y039692D01*
X030136Y039702D01*
X030118Y039714D01*
X030103Y039729D01*
X030091Y039747D01*
X030081Y039767D01*
X030076Y039787D01*
X030074Y039809D01*
X033928Y040289D02*
X033928Y037289D01*
X035928Y037289D01*
X035928Y040289D01*
X033928Y040289D01*
X036635Y040325D02*
X036635Y044932D01*
X038997Y044932D01*
X038997Y040325D01*
X036635Y040325D01*
X034842Y031653D02*
X034370Y031653D01*
X034370Y030393D02*
X034842Y030393D01*
X035838Y028879D02*
X033731Y028879D01*
X033731Y027087D01*
X035838Y027087D01*
X035838Y028879D01*
X035946Y024950D02*
X035946Y024477D01*
X034686Y024477D02*
X034686Y024950D01*
X034205Y018490D02*
X034207Y018502D01*
X034212Y018513D01*
X034221Y018522D01*
X034232Y018527D01*
X034244Y018529D01*
X034256Y018527D01*
X034267Y018522D01*
X034276Y018513D01*
X034281Y018502D01*
X034283Y018490D01*
X034281Y018478D01*
X034276Y018467D01*
X034267Y018458D01*
X034256Y018453D01*
X034244Y018451D01*
X034232Y018453D01*
X034221Y018458D01*
X034212Y018467D01*
X034207Y018478D01*
X034205Y018490D01*
X028057Y023491D02*
X028057Y024436D01*
X026836Y024436D01*
X026836Y023491D01*
X028057Y023491D01*
X027679Y024160D02*
X027681Y024183D01*
X027687Y024206D01*
X027696Y024228D01*
X027709Y024247D01*
X027725Y024264D01*
X027743Y024279D01*
X027764Y024290D01*
X027786Y024298D01*
X027809Y024302D01*
X027833Y024302D01*
X027856Y024298D01*
X027878Y024290D01*
X027899Y024279D01*
X027917Y024264D01*
X027933Y024247D01*
X027946Y024228D01*
X027955Y024206D01*
X027961Y024183D01*
X027963Y024160D01*
X027961Y024137D01*
X027955Y024114D01*
X027946Y024092D01*
X027933Y024073D01*
X027917Y024056D01*
X027899Y024041D01*
X027878Y024030D01*
X027856Y024022D01*
X027833Y024018D01*
X027809Y024018D01*
X027786Y024022D01*
X027764Y024030D01*
X027743Y024041D01*
X027725Y024056D01*
X027709Y024073D01*
X027696Y024092D01*
X027687Y024114D01*
X027681Y024137D01*
X027679Y024160D01*
X027370Y025793D02*
X027372Y025811D01*
X027377Y025828D01*
X027386Y025844D01*
X027398Y025857D01*
X027413Y025867D01*
X027429Y025875D01*
X027447Y025879D01*
X027465Y025879D01*
X027483Y025875D01*
X027499Y025867D01*
X027514Y025857D01*
X027526Y025844D01*
X027535Y025828D01*
X027540Y025811D01*
X027542Y025793D01*
X027540Y025775D01*
X027535Y025758D01*
X027526Y025742D01*
X027514Y025729D01*
X027499Y025719D01*
X027483Y025711D01*
X027465Y025707D01*
X027447Y025707D01*
X027429Y025711D01*
X027413Y025719D01*
X027398Y025729D01*
X027386Y025742D01*
X027377Y025758D01*
X027372Y025775D01*
X027370Y025793D01*
X027446Y025793D02*
X027448Y025798D01*
X027452Y025802D01*
X027457Y025803D01*
X027463Y025801D01*
X027466Y025796D01*
X027466Y025790D01*
X027463Y025785D01*
X027457Y025783D01*
X027452Y025784D01*
X027448Y025788D01*
X027446Y025793D01*
X027406Y025793D02*
X027408Y025806D01*
X027413Y025819D01*
X027422Y025830D01*
X027433Y025837D01*
X027446Y025842D01*
X027459Y025843D01*
X027473Y025840D01*
X027485Y025834D01*
X027495Y025825D01*
X027502Y025813D01*
X027506Y025800D01*
X027506Y025786D01*
X027502Y025773D01*
X027495Y025761D01*
X027485Y025752D01*
X027473Y025746D01*
X027459Y025743D01*
X027446Y025744D01*
X027433Y025749D01*
X027422Y025756D01*
X027413Y025767D01*
X027408Y025780D01*
X027406Y025793D01*
X026560Y025813D02*
X026562Y025831D01*
X026567Y025848D01*
X026576Y025864D01*
X026588Y025877D01*
X026603Y025887D01*
X026619Y025895D01*
X026637Y025899D01*
X026655Y025899D01*
X026673Y025895D01*
X026689Y025887D01*
X026704Y025877D01*
X026716Y025864D01*
X026725Y025848D01*
X026730Y025831D01*
X026732Y025813D01*
X026730Y025795D01*
X026725Y025778D01*
X026716Y025762D01*
X026704Y025749D01*
X026689Y025739D01*
X026673Y025731D01*
X026655Y025727D01*
X026637Y025727D01*
X026619Y025731D01*
X026603Y025739D01*
X026588Y025749D01*
X026576Y025762D01*
X026567Y025778D01*
X026562Y025795D01*
X026560Y025813D01*
X026636Y025813D02*
X026638Y025818D01*
X026642Y025822D01*
X026647Y025823D01*
X026653Y025821D01*
X026656Y025816D01*
X026656Y025810D01*
X026653Y025805D01*
X026647Y025803D01*
X026642Y025804D01*
X026638Y025808D01*
X026636Y025813D01*
X026596Y025813D02*
X026598Y025826D01*
X026603Y025839D01*
X026612Y025850D01*
X026623Y025857D01*
X026636Y025862D01*
X026649Y025863D01*
X026663Y025860D01*
X026675Y025854D01*
X026685Y025845D01*
X026692Y025833D01*
X026696Y025820D01*
X026696Y025806D01*
X026692Y025793D01*
X026685Y025781D01*
X026675Y025772D01*
X026663Y025766D01*
X026649Y025763D01*
X026636Y025764D01*
X026623Y025769D01*
X026612Y025776D01*
X026603Y025787D01*
X026598Y025800D01*
X026596Y025813D01*
X028240Y025783D02*
X028242Y025801D01*
X028247Y025818D01*
X028256Y025834D01*
X028268Y025847D01*
X028283Y025857D01*
X028299Y025865D01*
X028317Y025869D01*
X028335Y025869D01*
X028353Y025865D01*
X028369Y025857D01*
X028384Y025847D01*
X028396Y025834D01*
X028405Y025818D01*
X028410Y025801D01*
X028412Y025783D01*
X028410Y025765D01*
X028405Y025748D01*
X028396Y025732D01*
X028384Y025719D01*
X028369Y025709D01*
X028353Y025701D01*
X028335Y025697D01*
X028317Y025697D01*
X028299Y025701D01*
X028283Y025709D01*
X028268Y025719D01*
X028256Y025732D01*
X028247Y025748D01*
X028242Y025765D01*
X028240Y025783D01*
X028316Y025783D02*
X028318Y025788D01*
X028322Y025792D01*
X028327Y025793D01*
X028333Y025791D01*
X028336Y025786D01*
X028336Y025780D01*
X028333Y025775D01*
X028327Y025773D01*
X028322Y025774D01*
X028318Y025778D01*
X028316Y025783D01*
X028276Y025783D02*
X028278Y025796D01*
X028283Y025809D01*
X028292Y025820D01*
X028303Y025827D01*
X028316Y025832D01*
X028329Y025833D01*
X028343Y025830D01*
X028355Y025824D01*
X028365Y025815D01*
X028372Y025803D01*
X028376Y025790D01*
X028376Y025776D01*
X028372Y025763D01*
X028365Y025751D01*
X028355Y025742D01*
X028343Y025736D01*
X028329Y025733D01*
X028316Y025734D01*
X028303Y025739D01*
X028292Y025746D01*
X028283Y025757D01*
X028278Y025770D01*
X028276Y025783D01*
D13*
X023530Y041055D02*
X024280Y041805D01*
X024080Y042005D01*
X023580Y042505D01*
X023530Y042555D02*
X023530Y041055D01*
X023730Y041255D02*
X023730Y042355D01*
X023930Y042155D02*
X023930Y041455D01*
X024080Y041605D02*
X024080Y042005D01*
D14*
X025258Y042170D02*
X025494Y042170D01*
X025484Y042467D02*
X025248Y042467D01*
X025248Y042940D02*
X025484Y042940D01*
X025494Y041697D02*
X025258Y041697D01*
X023432Y040203D02*
X023432Y039967D01*
X022959Y039967D02*
X022959Y040203D01*
X020247Y037809D02*
X020247Y037573D01*
X019775Y037573D02*
X019775Y037809D01*
X018260Y034625D02*
X018024Y034625D01*
X018024Y034153D02*
X018260Y034153D01*
X014234Y036139D02*
X013998Y036139D01*
X013998Y036612D02*
X014234Y036612D01*
X014238Y036835D02*
X014002Y036835D01*
X014002Y037307D02*
X014238Y037307D01*
X012972Y038670D02*
X012972Y038907D01*
X012500Y038907D02*
X012500Y038670D01*
X013355Y040059D02*
X013355Y040295D01*
X013828Y040295D02*
X013828Y040059D01*
X014096Y040077D02*
X014096Y040313D01*
X014569Y040313D02*
X014569Y040077D01*
X015439Y040894D02*
X015439Y041130D01*
X015911Y041130D02*
X015911Y040894D01*
X011922Y041935D02*
X011922Y042171D01*
X011450Y042171D02*
X011450Y041935D01*
X007224Y029420D02*
X006987Y029420D01*
X006987Y028947D02*
X007224Y028947D01*
X007307Y026063D02*
X007307Y025827D01*
X006834Y025827D02*
X006834Y026063D01*
X010506Y021880D02*
X010742Y021880D01*
X010742Y021407D02*
X010506Y021407D01*
X022798Y022147D02*
X023034Y022147D01*
X023034Y022620D02*
X022798Y022620D01*
X025718Y023527D02*
X025954Y023527D01*
X025954Y024000D02*
X025718Y024000D01*
X025718Y024247D02*
X025954Y024247D01*
X025954Y024720D02*
X025718Y024720D01*
X027318Y022660D02*
X027554Y022660D01*
X027554Y022187D02*
X027318Y022187D01*
X028798Y022987D02*
X029034Y022987D01*
X029034Y023460D02*
X028798Y023460D01*
X030640Y025125D02*
X030640Y025361D01*
X031112Y025361D02*
X031112Y025125D01*
X032586Y025263D02*
X032586Y025863D01*
X033276Y024393D02*
X033276Y023793D01*
X034358Y020120D02*
X034594Y020120D01*
X034594Y019647D02*
X034358Y019647D01*
X034445Y019443D02*
X034445Y019406D01*
X034445Y019443D02*
X033807Y019443D01*
X033807Y019406D01*
X033807Y019089D02*
X033807Y018678D01*
X033807Y018360D02*
X033807Y018323D01*
X034445Y018323D01*
X034445Y018360D01*
X034445Y018678D02*
X034445Y018715D01*
X034445Y019052D02*
X034445Y019089D01*
X035240Y019305D02*
X035240Y019541D01*
X035712Y019541D02*
X035712Y019305D01*
X035824Y017980D02*
X035588Y017980D01*
X035588Y017507D02*
X035824Y017507D01*
X034274Y017527D02*
X034038Y017527D01*
X034038Y018000D02*
X034274Y018000D01*
X032614Y018997D02*
X032378Y018997D01*
X032378Y019470D02*
X032614Y019470D01*
X029729Y015502D02*
X029729Y015266D01*
X029257Y015266D02*
X029257Y015502D01*
X027652Y015461D02*
X027652Y015225D01*
X027180Y015225D02*
X027180Y015461D01*
X026176Y016982D02*
X025940Y016982D01*
X025940Y017455D02*
X026176Y017455D01*
X026915Y028856D02*
X026915Y029092D01*
X027387Y029092D02*
X027387Y028856D01*
X023927Y028962D02*
X023927Y028726D01*
X023455Y028726D02*
X023455Y028962D01*
X029360Y034815D02*
X029360Y035051D01*
X029832Y035051D02*
X029832Y034815D01*
X030320Y034815D02*
X030320Y035051D01*
X030792Y035051D02*
X030792Y034815D01*
X031280Y034815D02*
X031280Y035051D01*
X031752Y035051D02*
X031752Y034815D01*
X032686Y033898D02*
X032686Y033661D01*
X033159Y033661D02*
X033159Y033898D01*
X033426Y030973D02*
X032826Y030973D01*
X032826Y030193D02*
X032826Y029593D01*
X032664Y038670D02*
X032664Y038907D01*
X032191Y038907D02*
X032191Y038670D01*
X030956Y040339D02*
X030720Y040339D01*
X030720Y040811D02*
X030956Y040811D01*
X030957Y041073D02*
X030721Y041073D01*
X030721Y041545D02*
X030957Y041545D01*
D15*
X036186Y043783D02*
X036493Y043783D01*
X036340Y043783D02*
X036340Y044244D01*
X036186Y044090D01*
X025772Y025990D02*
X025772Y025716D01*
X025180Y025716D02*
X025180Y026000D01*
X025012Y025990D02*
X025012Y025716D01*
X024420Y025716D02*
X024420Y026000D01*
X028010Y024814D02*
X028164Y024967D01*
X028164Y024507D01*
X028317Y024507D02*
X028010Y024507D01*
X012401Y021929D02*
X012117Y021929D01*
X012117Y021337D02*
X012391Y021337D01*
X011972Y043336D02*
X011972Y043610D01*
X012239Y043697D02*
X012239Y043981D01*
X012831Y043971D02*
X012831Y043697D01*
X013027Y043697D02*
X013027Y043981D01*
X013619Y043971D02*
X013619Y043697D01*
X013814Y043697D02*
X013814Y043981D01*
X014406Y043971D02*
X014406Y043697D01*
X014602Y043697D02*
X014602Y043981D01*
X015194Y043971D02*
X015194Y043697D01*
X015389Y043697D02*
X015389Y043981D01*
X015981Y043971D02*
X015981Y043697D01*
X016145Y043621D02*
X016145Y043347D01*
X016737Y043337D02*
X016737Y043621D01*
X016973Y043611D02*
X016973Y043337D01*
X017565Y043327D02*
X017565Y043611D01*
X011380Y043620D02*
X011380Y043336D01*
X006243Y043823D02*
X005936Y043823D01*
X006090Y043823D02*
X006090Y044284D01*
X005936Y044130D01*
D16*
X011440Y043522D03*
X011912Y043522D03*
X012299Y043883D03*
X012772Y043883D03*
X013087Y043883D03*
X013559Y043883D03*
X013874Y043883D03*
X014346Y043883D03*
X014661Y043883D03*
X015134Y043883D03*
X015449Y043883D03*
X015921Y043883D03*
X016205Y043435D03*
X016677Y043435D03*
X017033Y043425D03*
X017506Y043425D03*
X024480Y025902D03*
X024952Y025902D03*
X025240Y025902D03*
X025712Y025902D03*
D17*
X025476Y025902D03*
X024716Y025902D03*
X012303Y021633D03*
X011676Y043522D03*
X012535Y043883D03*
X013323Y043883D03*
X014110Y043883D03*
X014898Y043883D03*
X015685Y043883D03*
X016441Y043435D03*
X017269Y043425D03*
D18*
X012303Y021870D03*
X012303Y021397D03*
D19*
X008206Y023887D03*
D20*
X035585Y028653D02*
X035587Y028667D01*
X035593Y028681D01*
X035601Y028693D01*
X035613Y028701D01*
X035627Y028707D01*
X035641Y028709D01*
X035655Y028707D01*
X035669Y028701D01*
X035681Y028693D01*
X035689Y028681D01*
X035695Y028667D01*
X035697Y028653D01*
X035695Y028639D01*
X035689Y028625D01*
X035681Y028613D01*
X035669Y028605D01*
X035655Y028599D01*
X035641Y028597D01*
X035627Y028599D01*
X035613Y028605D01*
X035601Y028613D01*
X035593Y028625D01*
X035587Y028639D01*
X035585Y028653D01*
M02*
