G75*
%MOIN*%
%OFA0B0*%
%FSLAX25Y25*%
%IPPOS*%
%LPD*%
%AMOC8*
5,1,8,0,0,1.08239X$1,22.5*
%
%ADD10C,0.01000*%
%ADD11C,0.01200*%
%ADD12C,0.00800*%
%ADD13C,0.00500*%
%ADD14C,0.02400*%
%ADD15C,0.00000*%
%ADD16C,0.00600*%
%ADD17C,0.00200*%
%ADD18C,0.00400*%
%ADD19R,0.01181X0.00591*%
%ADD20R,0.01181X0.01181*%
%ADD21R,0.00591X0.01181*%
D10*
X0033788Y0021530D02*
X0034455Y0020863D01*
X0035790Y0020863D01*
X0036457Y0021530D01*
X0038392Y0020863D02*
X0041061Y0023532D01*
X0041061Y0024199D01*
X0040394Y0024866D01*
X0039059Y0024866D01*
X0038392Y0024199D01*
X0036457Y0024199D02*
X0035790Y0024866D01*
X0034455Y0024866D01*
X0033788Y0024199D01*
X0033788Y0021530D01*
X0038392Y0020863D02*
X0041061Y0020863D01*
X0042996Y0021530D02*
X0043663Y0020863D01*
X0044998Y0020863D01*
X0045665Y0021530D01*
X0045665Y0022197D01*
X0044998Y0022865D01*
X0044331Y0022865D01*
X0044998Y0022865D02*
X0045665Y0023532D01*
X0045665Y0024199D01*
X0044998Y0024866D01*
X0043663Y0024866D01*
X0042996Y0024199D01*
X0048599Y0027766D02*
X0049266Y0027766D01*
X0049933Y0028433D01*
X0049933Y0031769D01*
X0047264Y0031769D02*
X0047264Y0029767D01*
X0047931Y0029100D01*
X0049933Y0029100D01*
X0045529Y0029100D02*
X0044862Y0029767D01*
X0044862Y0032436D01*
X0044195Y0031769D02*
X0045529Y0031769D01*
X0041793Y0031769D02*
X0041793Y0029100D01*
X0041126Y0029100D02*
X0042460Y0029100D01*
X0039191Y0029767D02*
X0038523Y0030434D01*
X0037189Y0030434D01*
X0036522Y0031102D01*
X0037189Y0031769D01*
X0039191Y0031769D01*
X0041126Y0031769D02*
X0041793Y0031769D01*
X0041793Y0033103D02*
X0041793Y0033771D01*
X0046000Y0037850D02*
X0046000Y0041853D01*
X0048002Y0041853D01*
X0048669Y0041186D01*
X0048669Y0039852D01*
X0048002Y0039184D01*
X0046000Y0039184D01*
X0047334Y0039184D02*
X0048669Y0037850D01*
X0050604Y0037850D02*
X0053273Y0037850D01*
X0051938Y0037850D02*
X0051938Y0041853D01*
X0050604Y0040519D01*
X0050404Y0044950D02*
X0053073Y0047619D01*
X0053073Y0048286D01*
X0052406Y0048953D01*
X0051071Y0048953D01*
X0050404Y0048286D01*
X0048469Y0048286D02*
X0048469Y0046952D01*
X0047802Y0046284D01*
X0045800Y0046284D01*
X0045800Y0044950D02*
X0045800Y0048953D01*
X0047802Y0048953D01*
X0048469Y0048286D01*
X0047134Y0046284D02*
X0048469Y0044950D01*
X0050404Y0044950D02*
X0053073Y0044950D01*
X0055008Y0044950D02*
X0055008Y0045617D01*
X0057677Y0048286D01*
X0057677Y0048953D01*
X0055008Y0048953D01*
X0056163Y0051150D02*
X0055496Y0051817D01*
X0055496Y0052484D01*
X0056163Y0053152D01*
X0057498Y0053152D01*
X0058165Y0052484D01*
X0058165Y0051817D01*
X0057498Y0051150D01*
X0056163Y0051150D01*
X0056163Y0053152D02*
X0055496Y0053819D01*
X0055496Y0054486D01*
X0056163Y0055153D01*
X0057498Y0055153D01*
X0058165Y0054486D01*
X0058165Y0053819D01*
X0057498Y0053152D01*
X0053561Y0053819D02*
X0053561Y0054486D01*
X0052894Y0055153D01*
X0051559Y0055153D01*
X0050892Y0054486D01*
X0048957Y0054486D02*
X0048957Y0053152D01*
X0048290Y0052484D01*
X0046288Y0052484D01*
X0046288Y0051150D02*
X0046288Y0055153D01*
X0048290Y0055153D01*
X0048957Y0054486D01*
X0047623Y0052484D02*
X0048957Y0051150D01*
X0050892Y0051150D02*
X0053561Y0053819D01*
X0053561Y0051150D02*
X0050892Y0051150D01*
X0056564Y0059500D02*
X0059233Y0059500D01*
X0059900Y0060167D01*
X0059900Y0061502D01*
X0059233Y0062169D01*
X0059233Y0064104D02*
X0057898Y0064104D01*
X0057898Y0066106D01*
X0058566Y0066773D01*
X0059233Y0066773D01*
X0059900Y0066106D01*
X0059900Y0064771D01*
X0059233Y0064104D01*
X0057898Y0064104D02*
X0056564Y0065438D01*
X0055897Y0066773D01*
X0054200Y0068600D02*
X0054200Y0064600D01*
X0056564Y0062169D02*
X0055897Y0061502D01*
X0055897Y0060167D01*
X0056564Y0059500D01*
X0046200Y0064600D02*
X0046200Y0068600D01*
X0046561Y0079350D02*
X0045227Y0080684D01*
X0045894Y0080684D02*
X0043892Y0080684D01*
X0043892Y0079350D02*
X0043892Y0083353D01*
X0045894Y0083353D01*
X0046561Y0082686D01*
X0046561Y0081352D01*
X0045894Y0080684D01*
X0048496Y0080017D02*
X0049163Y0079350D01*
X0050498Y0079350D01*
X0051165Y0080017D01*
X0051165Y0081352D01*
X0050498Y0082019D01*
X0049831Y0082019D01*
X0048496Y0081352D01*
X0048496Y0083353D01*
X0051165Y0083353D01*
X0056897Y0085088D02*
X0060233Y0085088D01*
X0060900Y0085755D01*
X0060900Y0087090D01*
X0060233Y0087757D01*
X0056897Y0087757D01*
X0058231Y0089692D02*
X0056897Y0091027D01*
X0060900Y0091027D01*
X0060900Y0092361D02*
X0060900Y0089692D01*
X0060233Y0094296D02*
X0060900Y0094963D01*
X0060900Y0096298D01*
X0060233Y0096965D01*
X0059566Y0096965D01*
X0058898Y0096298D01*
X0058898Y0094296D01*
X0060233Y0094296D01*
X0058898Y0094296D02*
X0057564Y0095631D01*
X0056897Y0096965D01*
X0052350Y0104700D02*
X0048347Y0104700D01*
X0048347Y0106702D01*
X0049014Y0107369D01*
X0050348Y0107369D01*
X0051016Y0106702D01*
X0051016Y0104700D01*
X0051016Y0106034D02*
X0052350Y0107369D01*
X0052350Y0109304D02*
X0049681Y0111973D01*
X0049014Y0111973D01*
X0048347Y0111306D01*
X0048347Y0109971D01*
X0049014Y0109304D01*
X0052350Y0109304D02*
X0052350Y0111973D01*
X0052350Y0113908D02*
X0049681Y0116577D01*
X0049014Y0116577D01*
X0048347Y0115910D01*
X0048347Y0114575D01*
X0049014Y0113908D01*
X0052350Y0113908D02*
X0052350Y0116577D01*
X0054297Y0116402D02*
X0054297Y0114400D01*
X0058300Y0114400D01*
X0058300Y0116402D01*
X0057633Y0117069D01*
X0054964Y0117069D01*
X0054297Y0116402D01*
X0054297Y0119004D02*
X0056298Y0119004D01*
X0055631Y0120338D01*
X0055631Y0121006D01*
X0056298Y0121673D01*
X0057633Y0121673D01*
X0058300Y0121006D01*
X0058300Y0119671D01*
X0057633Y0119004D01*
X0054297Y0119004D02*
X0054297Y0121673D01*
X0055565Y0125800D02*
X0055565Y0129803D01*
X0052896Y0129803D02*
X0055565Y0125800D01*
X0052896Y0125800D02*
X0052896Y0129803D01*
X0051161Y0129803D02*
X0049827Y0129803D01*
X0050494Y0129803D02*
X0050494Y0125800D01*
X0049827Y0125800D02*
X0051161Y0125800D01*
X0047892Y0125800D02*
X0047892Y0128469D01*
X0046557Y0129803D01*
X0045223Y0128469D01*
X0045223Y0125800D01*
X0043288Y0125800D02*
X0043288Y0129803D01*
X0041953Y0128469D01*
X0040619Y0129803D01*
X0040619Y0125800D01*
X0037365Y0125917D02*
X0037365Y0126584D01*
X0036698Y0127252D01*
X0034696Y0127252D01*
X0034696Y0125917D01*
X0035363Y0125250D01*
X0036698Y0125250D01*
X0037365Y0125917D01*
X0036031Y0128586D02*
X0034696Y0127252D01*
X0036031Y0128586D02*
X0037365Y0129253D01*
X0032761Y0128586D02*
X0032761Y0127252D01*
X0032094Y0126584D01*
X0030092Y0126584D01*
X0030092Y0125250D02*
X0030092Y0129253D01*
X0032094Y0129253D01*
X0032761Y0128586D01*
X0031427Y0126584D02*
X0032761Y0125250D01*
X0026665Y0125817D02*
X0025998Y0125150D01*
X0024663Y0125150D01*
X0023996Y0125817D01*
X0025331Y0127152D02*
X0025998Y0127152D01*
X0026665Y0126484D01*
X0026665Y0125817D01*
X0025998Y0127152D02*
X0026665Y0127819D01*
X0026665Y0128486D01*
X0025998Y0129153D01*
X0024663Y0129153D01*
X0023996Y0128486D01*
X0022061Y0128486D02*
X0022061Y0127819D01*
X0019392Y0125150D01*
X0022061Y0125150D01*
X0017457Y0125150D02*
X0016123Y0126484D01*
X0016790Y0126484D02*
X0014788Y0126484D01*
X0014788Y0125150D02*
X0014788Y0129153D01*
X0016790Y0129153D01*
X0017457Y0128486D01*
X0017457Y0127152D01*
X0016790Y0126484D01*
X0019392Y0128486D02*
X0020059Y0129153D01*
X0021394Y0129153D01*
X0022061Y0128486D01*
X0012300Y0129087D02*
X0012300Y0130421D01*
X0011633Y0131089D01*
X0010298Y0131089D01*
X0010298Y0129754D01*
X0008964Y0128420D02*
X0008297Y0129087D01*
X0008297Y0130421D01*
X0008964Y0131089D01*
X0007700Y0132800D02*
X0007700Y0133200D01*
X0066600Y0133200D01*
X0066600Y0133000D01*
X0066600Y0133200D02*
X0066600Y0133600D01*
X0126200Y0133600D01*
X0126200Y0034800D01*
X0066500Y0034800D01*
X0066600Y0133200D01*
X0068400Y0127103D02*
X0070402Y0127103D01*
X0071069Y0126436D01*
X0071069Y0125102D01*
X0070402Y0124434D01*
X0068400Y0124434D01*
X0068400Y0123100D02*
X0068400Y0127103D01*
X0073004Y0126436D02*
X0073004Y0125769D01*
X0073671Y0125102D01*
X0075006Y0125102D01*
X0075673Y0124434D01*
X0075673Y0123767D01*
X0075006Y0123100D01*
X0073671Y0123100D01*
X0073004Y0123767D01*
X0074397Y0121115D02*
X0074397Y0118446D01*
X0076398Y0118446D01*
X0075731Y0119781D01*
X0075731Y0120448D01*
X0076398Y0121115D01*
X0077733Y0121115D01*
X0078400Y0120448D01*
X0078400Y0119113D01*
X0077733Y0118446D01*
X0077733Y0116511D02*
X0074397Y0116511D01*
X0074397Y0113842D02*
X0077733Y0113842D01*
X0078400Y0114509D01*
X0078400Y0115844D01*
X0077733Y0116511D01*
X0081897Y0120755D02*
X0082564Y0120088D01*
X0085233Y0120088D01*
X0085900Y0120755D01*
X0085900Y0122090D01*
X0085233Y0122757D01*
X0085233Y0124692D02*
X0085900Y0125359D01*
X0085900Y0126694D01*
X0085233Y0127361D01*
X0084566Y0127361D01*
X0083898Y0126694D01*
X0083898Y0125359D01*
X0083231Y0124692D01*
X0082564Y0124692D01*
X0081897Y0125359D01*
X0081897Y0126694D01*
X0082564Y0127361D01*
X0081897Y0129296D02*
X0081897Y0131298D01*
X0082564Y0131965D01*
X0083898Y0131965D01*
X0084566Y0131298D01*
X0084566Y0129296D01*
X0085900Y0129296D02*
X0081897Y0129296D01*
X0079610Y0127103D02*
X0080277Y0126436D01*
X0080277Y0125102D01*
X0079610Y0124434D01*
X0077608Y0124434D01*
X0077608Y0123100D02*
X0077608Y0127103D01*
X0079610Y0127103D01*
X0075673Y0126436D02*
X0075006Y0127103D01*
X0073671Y0127103D01*
X0073004Y0126436D01*
X0081897Y0122090D02*
X0081897Y0120755D01*
X0081897Y0122090D02*
X0082564Y0122757D01*
X0092800Y0117636D02*
X0092800Y0114967D01*
X0093467Y0114300D01*
X0094802Y0114300D01*
X0095469Y0114967D01*
X0097404Y0114300D02*
X0100073Y0114300D01*
X0102008Y0114300D02*
X0102008Y0118303D01*
X0102675Y0116302D02*
X0104677Y0114300D01*
X0102008Y0115634D02*
X0104677Y0118303D01*
X0109188Y0118603D02*
X0109188Y0115267D01*
X0109855Y0114600D01*
X0111190Y0114600D01*
X0111857Y0115267D01*
X0111857Y0118603D01*
X0113792Y0117269D02*
X0115127Y0118603D01*
X0115127Y0114600D01*
X0116461Y0114600D02*
X0113792Y0114600D01*
X0118396Y0115267D02*
X0118396Y0115934D01*
X0119063Y0116602D01*
X0120398Y0116602D01*
X0121065Y0115934D01*
X0121065Y0115267D01*
X0120398Y0114600D01*
X0119063Y0114600D01*
X0118396Y0115267D01*
X0119063Y0116602D02*
X0118396Y0117269D01*
X0118396Y0117936D01*
X0119063Y0118603D01*
X0120398Y0118603D01*
X0121065Y0117936D01*
X0121065Y0117269D01*
X0120398Y0116602D01*
X0115613Y0125700D02*
X0113612Y0125700D01*
X0113612Y0129703D01*
X0115613Y0129703D01*
X0116281Y0129036D01*
X0116281Y0126367D01*
X0115613Y0125700D01*
X0111677Y0127702D02*
X0111010Y0127034D01*
X0109008Y0127034D01*
X0109008Y0125700D02*
X0109008Y0129703D01*
X0111010Y0129703D01*
X0111677Y0129036D01*
X0111677Y0127702D01*
X0107073Y0127034D02*
X0107073Y0126367D01*
X0106406Y0125700D01*
X0105071Y0125700D01*
X0104404Y0126367D01*
X0105071Y0127702D02*
X0106406Y0127702D01*
X0107073Y0127034D01*
X0107073Y0129036D02*
X0106406Y0129703D01*
X0105071Y0129703D01*
X0104404Y0129036D01*
X0104404Y0128369D01*
X0105071Y0127702D01*
X0102469Y0128369D02*
X0101802Y0127702D01*
X0099800Y0127702D01*
X0099800Y0129703D02*
X0099800Y0125700D01*
X0101802Y0125700D01*
X0102469Y0126367D01*
X0102469Y0127034D01*
X0101802Y0127702D01*
X0102469Y0128369D02*
X0102469Y0129036D01*
X0101802Y0129703D01*
X0099800Y0129703D01*
X0099033Y0135080D02*
X0096364Y0135080D01*
X0095697Y0135748D01*
X0095697Y0137082D01*
X0096364Y0137749D01*
X0097698Y0139684D02*
X0097698Y0142353D01*
X0097031Y0144288D02*
X0097698Y0144955D01*
X0097698Y0146290D01*
X0098366Y0146957D01*
X0099033Y0146957D01*
X0099700Y0146290D01*
X0099700Y0144955D01*
X0099033Y0144288D01*
X0097031Y0144288D02*
X0096364Y0144288D01*
X0095697Y0144955D01*
X0095697Y0146290D01*
X0096364Y0146957D01*
X0095697Y0148892D02*
X0099700Y0148892D01*
X0099700Y0151561D01*
X0097698Y0150227D02*
X0097698Y0148892D01*
X0095697Y0148892D02*
X0095697Y0151561D01*
X0095697Y0153496D02*
X0095697Y0156165D01*
X0095697Y0154830D02*
X0099700Y0154830D01*
X0118397Y0155696D02*
X0118397Y0158365D01*
X0118397Y0157030D02*
X0122400Y0157030D01*
X0122400Y0153761D02*
X0122400Y0151092D01*
X0118397Y0151092D01*
X0118397Y0153761D01*
X0120398Y0152427D02*
X0120398Y0151092D01*
X0121066Y0149157D02*
X0121733Y0149157D01*
X0122400Y0148490D01*
X0122400Y0147155D01*
X0121733Y0146488D01*
X0120398Y0147155D02*
X0120398Y0148490D01*
X0121066Y0149157D01*
X0119064Y0149157D02*
X0118397Y0148490D01*
X0118397Y0147155D01*
X0119064Y0146488D01*
X0119731Y0146488D01*
X0120398Y0147155D01*
X0120398Y0144553D02*
X0120398Y0141884D01*
X0120398Y0139949D02*
X0119064Y0139949D01*
X0118397Y0139282D01*
X0118397Y0137280D01*
X0122400Y0137280D01*
X0121066Y0137280D02*
X0121066Y0139282D01*
X0120398Y0139949D01*
X0099700Y0137082D02*
X0099700Y0135748D01*
X0099033Y0135080D01*
X0099700Y0137082D02*
X0099033Y0137749D01*
X0076900Y0137800D02*
X0072897Y0137800D01*
X0072897Y0139802D01*
X0073564Y0140469D01*
X0074898Y0140469D01*
X0075566Y0139802D01*
X0075566Y0137800D01*
X0075566Y0139134D02*
X0076900Y0140469D01*
X0074898Y0142404D02*
X0074898Y0145073D01*
X0074231Y0147008D02*
X0074898Y0147675D01*
X0074898Y0149010D01*
X0075566Y0149677D01*
X0076233Y0149677D01*
X0076900Y0149010D01*
X0076900Y0147675D01*
X0076233Y0147008D01*
X0074231Y0147008D02*
X0073564Y0147008D01*
X0072897Y0147675D01*
X0072897Y0149010D01*
X0073564Y0149677D01*
X0072897Y0151612D02*
X0076900Y0151612D01*
X0076900Y0154281D01*
X0074898Y0152946D02*
X0074898Y0151612D01*
X0072897Y0151612D02*
X0072897Y0154281D01*
X0072897Y0156216D02*
X0072897Y0158885D01*
X0072897Y0157550D02*
X0076900Y0157550D01*
X0054800Y0151777D02*
X0050797Y0151777D01*
X0050797Y0153779D01*
X0051464Y0154446D01*
X0052798Y0154446D01*
X0053466Y0153779D01*
X0053466Y0151777D01*
X0054800Y0150042D02*
X0054800Y0148708D01*
X0054800Y0149375D02*
X0050797Y0149375D01*
X0050797Y0148708D02*
X0050797Y0150042D01*
X0051464Y0146773D02*
X0052798Y0146773D01*
X0053466Y0146106D01*
X0053466Y0144104D01*
X0054800Y0144104D02*
X0050797Y0144104D01*
X0050797Y0146106D01*
X0051464Y0146773D01*
X0053466Y0145438D02*
X0054800Y0146773D01*
X0050797Y0142169D02*
X0050797Y0139500D01*
X0050797Y0140834D02*
X0054800Y0140834D01*
X0047892Y0127802D02*
X0045223Y0127802D01*
X0032200Y0137334D02*
X0028197Y0137334D01*
X0028197Y0136000D02*
X0028197Y0138669D01*
X0030198Y0140604D02*
X0030198Y0143273D01*
X0029531Y0145208D02*
X0030198Y0145875D01*
X0030198Y0147210D01*
X0030866Y0147877D01*
X0031533Y0147877D01*
X0032200Y0147210D01*
X0032200Y0145875D01*
X0031533Y0145208D01*
X0029531Y0145208D02*
X0028864Y0145208D01*
X0028197Y0145875D01*
X0028197Y0147210D01*
X0028864Y0147877D01*
X0028197Y0149812D02*
X0032200Y0149812D01*
X0032200Y0152481D01*
X0030198Y0151146D02*
X0030198Y0149812D01*
X0028197Y0149812D02*
X0028197Y0152481D01*
X0028197Y0154416D02*
X0028197Y0157085D01*
X0027600Y0157000D02*
X0025900Y0155300D01*
X0023800Y0156900D01*
X0024200Y0156600D01*
X0025900Y0155400D01*
X0025900Y0155300D01*
X0026100Y0155300D01*
X0028197Y0155750D02*
X0032200Y0155750D01*
X0027434Y0158367D02*
X0027434Y0161036D01*
X0026100Y0159702D02*
X0028769Y0159702D01*
X0025900Y0155400D02*
X0025888Y0155549D01*
X0025871Y0155698D01*
X0025851Y0155847D01*
X0025827Y0155995D01*
X0025799Y0156143D01*
X0025767Y0156290D01*
X0025731Y0156435D01*
X0025691Y0156580D01*
X0025648Y0156724D01*
X0025601Y0156866D01*
X0025550Y0157008D01*
X0025496Y0157148D01*
X0025437Y0157286D01*
X0025376Y0157423D01*
X0025310Y0157558D01*
X0025241Y0157691D01*
X0025169Y0157823D01*
X0025093Y0157952D01*
X0025014Y0158080D01*
X0024932Y0158205D01*
X0024846Y0158329D01*
X0024757Y0158450D01*
X0024665Y0158568D01*
X0024570Y0158684D01*
X0024472Y0158798D01*
X0024370Y0158909D01*
X0024266Y0159017D01*
X0024160Y0159123D01*
X0024050Y0159225D01*
X0023938Y0159325D01*
X0023823Y0159422D01*
X0023706Y0159516D01*
X0023586Y0159606D01*
X0023464Y0159694D01*
X0023340Y0159778D01*
X0023213Y0159859D01*
X0023085Y0159936D01*
X0022954Y0160011D01*
X0022822Y0160081D01*
X0022688Y0160148D01*
X0022552Y0160212D01*
X0022414Y0160272D01*
X0022275Y0160329D01*
X0022134Y0160382D01*
X0021993Y0160431D01*
X0021849Y0160476D01*
X0021705Y0160518D01*
X0021560Y0160555D01*
X0021414Y0160589D01*
X0021267Y0160619D01*
X0021119Y0160646D01*
X0020970Y0160668D01*
X0020821Y0160686D01*
X0020672Y0160701D01*
X0020522Y0160712D01*
X0020372Y0160718D01*
X0020222Y0160721D01*
X0020072Y0160720D01*
X0019922Y0160715D01*
X0019772Y0160705D01*
X0019622Y0160692D01*
X0019473Y0160676D01*
X0019325Y0160655D01*
X0019177Y0160630D01*
X0019029Y0160601D01*
X0018883Y0160569D01*
X0018737Y0160533D01*
X0018592Y0160492D01*
X0018449Y0160449D01*
X0018306Y0160401D01*
X0018165Y0160350D01*
X0018026Y0160295D01*
X0017887Y0160236D01*
X0017751Y0160174D01*
X0017616Y0160108D01*
X0017483Y0160038D01*
X0017351Y0159965D01*
X0017222Y0159889D01*
X0017095Y0159810D01*
X0016970Y0159727D01*
X0016847Y0159640D01*
X0016726Y0159551D01*
X0016608Y0159458D01*
X0016492Y0159363D01*
X0016379Y0159264D01*
X0016268Y0159163D01*
X0016161Y0159058D01*
X0016055Y0158951D01*
X0015953Y0158841D01*
X0015854Y0158729D01*
X0015758Y0158613D01*
X0015664Y0158496D01*
X0015574Y0158376D01*
X0015487Y0158253D01*
X0015403Y0158129D01*
X0015323Y0158002D01*
X0015246Y0157873D01*
X0015172Y0157742D01*
X0015102Y0157610D01*
X0015035Y0157475D01*
X0014972Y0157339D01*
X0014912Y0157201D01*
X0014856Y0157062D01*
X0014804Y0156921D01*
X0014756Y0156779D01*
X0014711Y0156636D01*
X0014670Y0156491D01*
X0014633Y0156346D01*
X0014599Y0156200D01*
X0012300Y0129087D02*
X0011633Y0128420D01*
X0008964Y0128420D01*
X0008964Y0126485D02*
X0008297Y0125817D01*
X0008297Y0124483D01*
X0008964Y0123816D01*
X0011633Y0123816D01*
X0012300Y0124483D01*
X0012300Y0125817D01*
X0011633Y0126485D01*
X0012967Y0121881D02*
X0012967Y0119212D01*
X0012300Y0117277D02*
X0012300Y0114608D01*
X0008297Y0114608D01*
X0008297Y0117277D01*
X0010298Y0115942D02*
X0010298Y0114608D01*
X0010298Y0112673D02*
X0010966Y0112006D01*
X0010966Y0110004D01*
X0012300Y0110004D02*
X0008297Y0110004D01*
X0008297Y0112006D01*
X0008964Y0112673D01*
X0010298Y0112673D01*
X0010966Y0111338D02*
X0012300Y0112673D01*
X0010298Y0108069D02*
X0010966Y0107402D01*
X0010966Y0105400D01*
X0012300Y0105400D02*
X0008297Y0105400D01*
X0008297Y0107402D01*
X0008964Y0108069D01*
X0010298Y0108069D01*
X0012000Y0102803D02*
X0014002Y0102803D01*
X0014669Y0102136D01*
X0014669Y0099467D01*
X0014002Y0098800D01*
X0012000Y0098800D01*
X0012000Y0102803D01*
X0016604Y0100802D02*
X0019273Y0100802D01*
X0018606Y0102803D02*
X0018606Y0098800D01*
X0016604Y0100802D02*
X0018606Y0102803D01*
X0021647Y0103904D02*
X0021647Y0106573D01*
X0022314Y0106573D01*
X0024983Y0103904D01*
X0025650Y0103904D01*
X0025650Y0101969D02*
X0024316Y0100634D01*
X0024316Y0101302D02*
X0024316Y0099300D01*
X0025650Y0099300D02*
X0021647Y0099300D01*
X0021647Y0101302D01*
X0022314Y0101969D01*
X0023648Y0101969D01*
X0024316Y0101302D01*
X0028800Y0099400D02*
X0030802Y0099400D01*
X0031469Y0100067D01*
X0031469Y0102736D01*
X0030802Y0103403D01*
X0028800Y0103403D01*
X0028800Y0099400D01*
X0033404Y0099400D02*
X0033404Y0103403D01*
X0038008Y0103403D02*
X0038008Y0102736D01*
X0039342Y0101402D01*
X0039342Y0099400D01*
X0039342Y0101402D02*
X0040677Y0102736D01*
X0040677Y0103403D01*
X0036073Y0099400D02*
X0033404Y0099400D01*
X0032544Y0089503D02*
X0033211Y0088836D01*
X0033211Y0086167D01*
X0032544Y0085500D01*
X0031209Y0085500D01*
X0030542Y0086167D01*
X0030542Y0088836D01*
X0031209Y0089503D01*
X0032544Y0089503D01*
X0035146Y0088169D02*
X0036481Y0089503D01*
X0036481Y0085500D01*
X0037815Y0085500D02*
X0035146Y0085500D01*
X0033211Y0085500D02*
X0031877Y0086834D01*
X0028698Y0075553D02*
X0027363Y0075553D01*
X0026696Y0074886D01*
X0024761Y0074886D02*
X0024761Y0073552D01*
X0024094Y0072884D01*
X0022092Y0072884D01*
X0022092Y0071550D02*
X0022092Y0075553D01*
X0024094Y0075553D01*
X0024761Y0074886D01*
X0023427Y0072884D02*
X0024761Y0071550D01*
X0026696Y0071550D02*
X0029365Y0074219D01*
X0029365Y0074886D01*
X0028698Y0075553D01*
X0029365Y0071550D02*
X0026696Y0071550D01*
X0026233Y0069677D02*
X0023564Y0069677D01*
X0026233Y0067008D01*
X0026900Y0067675D01*
X0026900Y0069010D01*
X0026233Y0069677D01*
X0026233Y0067008D02*
X0023564Y0067008D01*
X0022897Y0067675D01*
X0022897Y0069010D01*
X0023564Y0069677D01*
X0026900Y0065073D02*
X0026900Y0062404D01*
X0026900Y0063738D02*
X0022897Y0063738D01*
X0024231Y0062404D01*
X0022897Y0060469D02*
X0026233Y0060469D01*
X0026900Y0059802D01*
X0026900Y0058467D01*
X0026233Y0057800D01*
X0022897Y0057800D01*
X0022194Y0055503D02*
X0022861Y0054836D01*
X0022861Y0053502D01*
X0022194Y0052834D01*
X0020192Y0052834D01*
X0020192Y0051500D02*
X0020192Y0055503D01*
X0022194Y0055503D01*
X0024796Y0054836D02*
X0024796Y0052167D01*
X0025463Y0051500D01*
X0026798Y0051500D01*
X0027465Y0052167D01*
X0027465Y0053502D01*
X0026131Y0053502D01*
X0027465Y0054836D02*
X0026798Y0055503D01*
X0025463Y0055503D01*
X0024796Y0054836D01*
X0021527Y0052834D02*
X0022861Y0051500D01*
X0022602Y0049203D02*
X0020600Y0049203D01*
X0020600Y0045200D01*
X0022602Y0045200D01*
X0023269Y0045867D01*
X0023269Y0048536D01*
X0022602Y0049203D01*
X0025204Y0048536D02*
X0025871Y0049203D01*
X0027206Y0049203D01*
X0027873Y0048536D01*
X0027873Y0047869D01*
X0027206Y0047202D01*
X0027873Y0046534D01*
X0027873Y0045867D01*
X0027206Y0045200D01*
X0025871Y0045200D01*
X0025204Y0045867D01*
X0026538Y0047202D02*
X0027206Y0047202D01*
X0012000Y0048365D02*
X0012000Y0045696D01*
X0009331Y0048365D01*
X0008664Y0048365D01*
X0007997Y0047698D01*
X0007997Y0046363D01*
X0008664Y0045696D01*
X0008664Y0043761D02*
X0007997Y0043094D01*
X0007997Y0041092D01*
X0012000Y0041092D01*
X0012000Y0043094D01*
X0011333Y0043761D01*
X0008664Y0043761D01*
X0007947Y0052400D02*
X0007947Y0054402D01*
X0008614Y0055069D01*
X0009948Y0055069D01*
X0010616Y0054402D01*
X0010616Y0052400D01*
X0011950Y0052400D02*
X0007947Y0052400D01*
X0010616Y0053734D02*
X0011950Y0055069D01*
X0011950Y0057004D02*
X0009281Y0059673D01*
X0008614Y0059673D01*
X0007947Y0059006D01*
X0007947Y0057671D01*
X0008614Y0057004D01*
X0011950Y0057004D02*
X0011950Y0059673D01*
X0011283Y0061608D02*
X0008614Y0061608D01*
X0007947Y0062275D01*
X0007947Y0063610D01*
X0008614Y0064277D01*
X0011283Y0061608D01*
X0011950Y0062275D01*
X0011950Y0063610D01*
X0011283Y0064277D01*
X0008614Y0064277D01*
X0010147Y0066488D02*
X0010147Y0068490D01*
X0010814Y0069157D01*
X0012148Y0069157D01*
X0012816Y0068490D01*
X0012816Y0066488D01*
X0014150Y0066488D02*
X0010147Y0066488D01*
X0012816Y0067823D02*
X0014150Y0069157D01*
X0014150Y0071092D02*
X0011481Y0073761D01*
X0010814Y0073761D01*
X0010147Y0073094D01*
X0010147Y0071759D01*
X0010814Y0071092D01*
X0014150Y0071092D02*
X0014150Y0073761D01*
X0014150Y0075696D02*
X0014150Y0078365D01*
X0014150Y0077031D02*
X0010147Y0077031D01*
X0011481Y0075696D01*
X0011964Y0081100D02*
X0012631Y0081100D01*
X0013298Y0081767D01*
X0013298Y0083102D01*
X0013966Y0083769D01*
X0014633Y0083769D01*
X0015300Y0083102D01*
X0015300Y0081767D01*
X0014633Y0081100D01*
X0011964Y0081100D02*
X0011297Y0081767D01*
X0011297Y0083102D01*
X0011964Y0083769D01*
X0011297Y0085704D02*
X0011297Y0087706D01*
X0011964Y0088373D01*
X0013298Y0088373D01*
X0013966Y0087706D01*
X0013966Y0085704D01*
X0015300Y0085704D02*
X0011297Y0085704D01*
X0013966Y0087038D02*
X0015300Y0088373D01*
X0011297Y0090308D02*
X0011297Y0092977D01*
X0011297Y0091642D02*
X0015300Y0091642D01*
X0021497Y0108600D02*
X0024833Y0108600D01*
X0025500Y0109267D01*
X0025500Y0110602D01*
X0024833Y0111269D01*
X0021497Y0111269D01*
X0022164Y0113204D02*
X0022831Y0113204D01*
X0023498Y0113871D01*
X0023498Y0115206D01*
X0024166Y0115873D01*
X0024833Y0115873D01*
X0025500Y0115206D01*
X0025500Y0113871D01*
X0024833Y0113204D01*
X0024166Y0113204D01*
X0023498Y0113871D01*
X0023498Y0115206D02*
X0022831Y0115873D01*
X0022164Y0115873D01*
X0021497Y0115206D01*
X0021497Y0113871D01*
X0022164Y0113204D01*
X0069447Y0081410D02*
X0069447Y0080075D01*
X0070114Y0079408D01*
X0070781Y0079408D01*
X0071448Y0080075D01*
X0071448Y0082077D01*
X0070114Y0082077D02*
X0069447Y0081410D01*
X0070114Y0082077D02*
X0072783Y0082077D01*
X0073450Y0081410D01*
X0073450Y0080075D01*
X0072783Y0079408D01*
X0073450Y0077473D02*
X0073450Y0074804D01*
X0070781Y0077473D01*
X0070114Y0077473D01*
X0069447Y0076806D01*
X0069447Y0075471D01*
X0070114Y0074804D01*
X0070114Y0072869D02*
X0071448Y0072869D01*
X0072116Y0072202D01*
X0072116Y0070200D01*
X0073450Y0070200D02*
X0069447Y0070200D01*
X0069447Y0072202D01*
X0070114Y0072869D01*
X0072116Y0071534D02*
X0073450Y0072869D01*
X0075947Y0072490D02*
X0075947Y0070488D01*
X0079950Y0070488D01*
X0078616Y0070488D02*
X0078616Y0072490D01*
X0077948Y0073157D01*
X0076614Y0073157D01*
X0075947Y0072490D01*
X0078616Y0071823D02*
X0079950Y0073157D01*
X0079950Y0075092D02*
X0079950Y0077761D01*
X0079950Y0076427D02*
X0075947Y0076427D01*
X0077281Y0075092D01*
X0082947Y0076438D02*
X0086950Y0076438D01*
X0086950Y0075104D02*
X0086950Y0077773D01*
X0086950Y0079708D02*
X0084281Y0082377D01*
X0083614Y0082377D01*
X0082947Y0081710D01*
X0082947Y0080375D01*
X0083614Y0079708D01*
X0086950Y0079708D02*
X0086950Y0082377D01*
X0079950Y0082365D02*
X0079950Y0079696D01*
X0079950Y0081031D02*
X0075947Y0081031D01*
X0077281Y0079696D01*
X0082947Y0076438D02*
X0084281Y0075104D01*
X0083614Y0073169D02*
X0082947Y0072502D01*
X0082947Y0070500D01*
X0086950Y0070500D01*
X0085616Y0070500D02*
X0085616Y0072502D01*
X0084948Y0073169D01*
X0083614Y0073169D01*
X0085616Y0071834D02*
X0086950Y0073169D01*
X0086806Y0062103D02*
X0085471Y0062103D01*
X0084804Y0061436D01*
X0084804Y0060769D01*
X0085471Y0060102D01*
X0087473Y0060102D01*
X0087473Y0061436D02*
X0087473Y0058767D01*
X0086806Y0058100D01*
X0085471Y0058100D01*
X0084804Y0058767D01*
X0082869Y0058767D02*
X0082869Y0062103D01*
X0080200Y0062103D02*
X0080200Y0058767D01*
X0080867Y0058100D01*
X0082202Y0058100D01*
X0082869Y0058767D01*
X0086806Y0062103D02*
X0087473Y0061436D01*
X0077450Y0055310D02*
X0073447Y0055310D01*
X0075448Y0053308D01*
X0075448Y0055977D01*
X0077450Y0051373D02*
X0077450Y0048704D01*
X0077450Y0050038D02*
X0073447Y0050038D01*
X0074781Y0048704D01*
X0074114Y0046769D02*
X0075448Y0046769D01*
X0076116Y0046102D01*
X0076116Y0044100D01*
X0077450Y0044100D02*
X0073447Y0044100D01*
X0073447Y0046102D01*
X0074114Y0046769D01*
X0076116Y0045434D02*
X0077450Y0046769D01*
X0071800Y0043606D02*
X0071800Y0042271D01*
X0071133Y0041604D01*
X0069798Y0042271D02*
X0069798Y0043606D01*
X0070466Y0044273D01*
X0071133Y0044273D01*
X0071800Y0043606D01*
X0069798Y0042271D02*
X0069131Y0041604D01*
X0068464Y0041604D01*
X0067797Y0042271D01*
X0067797Y0043606D01*
X0068464Y0044273D01*
X0068464Y0039669D02*
X0067797Y0039002D01*
X0067797Y0037667D01*
X0068464Y0037000D01*
X0071133Y0037000D01*
X0071800Y0037667D01*
X0071800Y0039002D01*
X0071133Y0039669D01*
X0066500Y0034800D02*
X0008100Y0034800D01*
X0011200Y0033103D02*
X0011200Y0029767D01*
X0011867Y0029100D01*
X0013202Y0029100D01*
X0013869Y0029767D01*
X0013869Y0033103D01*
X0015804Y0031769D02*
X0017806Y0031769D01*
X0018473Y0031102D01*
X0018473Y0029100D01*
X0020408Y0029100D02*
X0021742Y0029100D01*
X0021075Y0029100D02*
X0021075Y0031769D01*
X0020408Y0031769D01*
X0021075Y0033103D02*
X0021075Y0033771D01*
X0023477Y0031769D02*
X0024812Y0029100D01*
X0026146Y0031769D01*
X0028081Y0031102D02*
X0028748Y0031769D01*
X0030083Y0031769D01*
X0030750Y0031102D01*
X0030750Y0030434D01*
X0028081Y0030434D01*
X0028081Y0029767D02*
X0028081Y0031102D01*
X0028081Y0029767D02*
X0028748Y0029100D01*
X0030083Y0029100D01*
X0032685Y0029100D02*
X0032685Y0031769D01*
X0034019Y0031769D02*
X0032685Y0030434D01*
X0034019Y0031769D02*
X0034687Y0031769D01*
X0036522Y0029100D02*
X0038523Y0029100D01*
X0039191Y0029767D01*
X0056472Y0029767D02*
X0057139Y0029100D01*
X0058474Y0029100D01*
X0059141Y0029767D01*
X0059141Y0031102D01*
X0058474Y0031769D01*
X0057139Y0031769D01*
X0056472Y0031102D01*
X0056472Y0029767D01*
X0061076Y0031102D02*
X0062410Y0031102D01*
X0061743Y0032436D02*
X0061743Y0029100D01*
X0061743Y0032436D02*
X0062410Y0033103D01*
X0068749Y0031769D02*
X0068749Y0029100D01*
X0068749Y0031102D02*
X0071418Y0031102D01*
X0071418Y0031769D02*
X0071418Y0029100D01*
X0073353Y0029100D02*
X0073353Y0033103D01*
X0071418Y0031769D02*
X0070084Y0033103D01*
X0068749Y0031769D01*
X0073353Y0030434D02*
X0075355Y0031769D01*
X0077190Y0031769D02*
X0077190Y0029100D01*
X0077190Y0030434D02*
X0078524Y0031769D01*
X0079191Y0031769D01*
X0081026Y0031102D02*
X0081026Y0029767D01*
X0081693Y0029100D01*
X0083028Y0029100D01*
X0083695Y0029767D01*
X0083695Y0031102D01*
X0083028Y0031769D01*
X0081693Y0031769D01*
X0081026Y0031102D01*
X0085630Y0031769D02*
X0085630Y0029100D01*
X0088299Y0029100D02*
X0088299Y0031102D01*
X0087632Y0031769D01*
X0085630Y0031769D01*
X0075355Y0029100D02*
X0073353Y0030434D01*
X0106847Y0057688D02*
X0106847Y0059690D01*
X0107514Y0060357D01*
X0108848Y0060357D01*
X0109516Y0059690D01*
X0109516Y0057688D01*
X0110850Y0057688D02*
X0106847Y0057688D01*
X0109516Y0059023D02*
X0110850Y0060357D01*
X0110850Y0062292D02*
X0110850Y0064961D01*
X0110850Y0063627D02*
X0106847Y0063627D01*
X0108181Y0062292D01*
X0112797Y0063906D02*
X0114798Y0061904D01*
X0114798Y0064573D01*
X0112797Y0063906D02*
X0116800Y0063906D01*
X0116133Y0059969D02*
X0112797Y0059969D01*
X0116133Y0059969D02*
X0116800Y0059302D01*
X0116800Y0057967D01*
X0116133Y0057300D01*
X0112797Y0057300D01*
X0119897Y0057498D02*
X0119897Y0056163D01*
X0120564Y0055496D01*
X0121231Y0055496D01*
X0121898Y0056163D01*
X0121898Y0057498D01*
X0122566Y0058165D01*
X0123233Y0058165D01*
X0123900Y0057498D01*
X0123900Y0056163D01*
X0123233Y0055496D01*
X0121898Y0053561D02*
X0122566Y0052894D01*
X0122566Y0050892D01*
X0123900Y0050892D02*
X0119897Y0050892D01*
X0119897Y0052894D01*
X0120564Y0053561D01*
X0121898Y0053561D01*
X0119897Y0057498D02*
X0120564Y0058165D01*
X0131747Y0058610D02*
X0131747Y0057275D01*
X0132414Y0056608D01*
X0135083Y0056608D01*
X0132414Y0059277D01*
X0135083Y0059277D01*
X0135750Y0058610D01*
X0135750Y0057275D01*
X0135083Y0056608D01*
X0135750Y0054673D02*
X0135750Y0052004D01*
X0135750Y0053338D02*
X0131747Y0053338D01*
X0133081Y0052004D01*
X0132414Y0050069D02*
X0133748Y0050069D01*
X0134416Y0049402D01*
X0134416Y0047400D01*
X0135750Y0047400D02*
X0131747Y0047400D01*
X0131747Y0049402D01*
X0132414Y0050069D01*
X0134416Y0048734D02*
X0135750Y0050069D01*
X0134773Y0045903D02*
X0132104Y0045903D01*
X0130169Y0045236D02*
X0129502Y0045903D01*
X0127500Y0045903D01*
X0127500Y0041900D01*
X0129502Y0041900D01*
X0130169Y0042567D01*
X0130169Y0045236D01*
X0132104Y0042567D02*
X0132104Y0041900D01*
X0132104Y0042567D02*
X0134773Y0045236D01*
X0134773Y0045903D01*
X0150488Y0044753D02*
X0150488Y0040750D01*
X0150488Y0042084D02*
X0152490Y0042084D01*
X0153157Y0042752D01*
X0153157Y0044086D01*
X0152490Y0044753D01*
X0150488Y0044753D01*
X0151823Y0042084D02*
X0153157Y0040750D01*
X0155092Y0040750D02*
X0157761Y0040750D01*
X0156427Y0040750D02*
X0156427Y0044753D01*
X0155092Y0043419D01*
X0159696Y0042752D02*
X0159696Y0041417D01*
X0160363Y0040750D01*
X0161698Y0040750D01*
X0162365Y0041417D01*
X0162365Y0042084D01*
X0161698Y0042752D01*
X0159696Y0042752D01*
X0161031Y0044086D01*
X0162365Y0044753D01*
X0163297Y0048200D02*
X0166633Y0048200D01*
X0167300Y0048867D01*
X0167300Y0050202D01*
X0166633Y0050869D01*
X0163297Y0050869D01*
X0165298Y0052804D02*
X0165298Y0054806D01*
X0165966Y0055473D01*
X0166633Y0055473D01*
X0167300Y0054806D01*
X0167300Y0053471D01*
X0166633Y0052804D01*
X0165298Y0052804D01*
X0163964Y0054138D01*
X0163297Y0055473D01*
X0163697Y0059297D02*
X0163697Y0060632D01*
X0163697Y0059965D02*
X0167033Y0059965D01*
X0167700Y0059297D01*
X0167700Y0058630D01*
X0167033Y0057963D01*
X0167700Y0062567D02*
X0163697Y0062567D01*
X0163697Y0064569D01*
X0164364Y0065236D01*
X0165698Y0065236D01*
X0166366Y0064569D01*
X0166366Y0062567D01*
X0167700Y0067171D02*
X0165031Y0069840D01*
X0164364Y0069840D01*
X0163697Y0069173D01*
X0163697Y0067838D01*
X0164364Y0067171D01*
X0167700Y0067171D02*
X0167700Y0069840D01*
X0177392Y0068803D02*
X0177392Y0064800D01*
X0179394Y0064800D01*
X0180061Y0065467D01*
X0180061Y0068136D01*
X0179394Y0068803D01*
X0177392Y0068803D01*
X0181996Y0067469D02*
X0183331Y0068803D01*
X0183331Y0064800D01*
X0184665Y0064800D02*
X0181996Y0064800D01*
X0180890Y0051853D02*
X0178888Y0051853D01*
X0178888Y0047850D01*
X0178888Y0049184D02*
X0180890Y0049184D01*
X0181557Y0049852D01*
X0181557Y0051186D01*
X0180890Y0051853D01*
X0180223Y0049184D02*
X0181557Y0047850D01*
X0183492Y0047850D02*
X0186161Y0047850D01*
X0184827Y0047850D02*
X0184827Y0051853D01*
X0183492Y0050519D01*
X0188096Y0050519D02*
X0188096Y0051186D01*
X0188763Y0051853D01*
X0190098Y0051853D01*
X0190765Y0051186D01*
X0190765Y0050519D01*
X0190098Y0049852D01*
X0188763Y0049852D01*
X0188096Y0050519D01*
X0188763Y0049852D02*
X0188096Y0049184D01*
X0188096Y0048517D01*
X0188763Y0047850D01*
X0190098Y0047850D01*
X0190765Y0048517D01*
X0190765Y0049184D01*
X0190098Y0049852D01*
X0195888Y0050853D02*
X0195888Y0046850D01*
X0195888Y0048184D02*
X0197890Y0048184D01*
X0198557Y0048852D01*
X0198557Y0050186D01*
X0197890Y0050853D01*
X0195888Y0050853D01*
X0197223Y0048184D02*
X0198557Y0046850D01*
X0200492Y0046850D02*
X0203161Y0046850D01*
X0201827Y0046850D02*
X0201827Y0050853D01*
X0200492Y0049519D01*
X0205096Y0050853D02*
X0207765Y0050853D01*
X0207765Y0050186D01*
X0205096Y0047517D01*
X0205096Y0046850D01*
X0211897Y0057900D02*
X0215233Y0057900D01*
X0215900Y0058567D01*
X0215900Y0059902D01*
X0215233Y0060569D01*
X0211897Y0060569D01*
X0213231Y0062504D02*
X0211897Y0063838D01*
X0215900Y0063838D01*
X0215900Y0062504D02*
X0215900Y0065173D01*
X0215233Y0067108D02*
X0215900Y0067775D01*
X0215900Y0069110D01*
X0215233Y0069777D01*
X0214566Y0069777D01*
X0213898Y0069110D01*
X0213898Y0068442D01*
X0213898Y0069110D02*
X0213231Y0069777D01*
X0212564Y0069777D01*
X0211897Y0069110D01*
X0211897Y0067775D01*
X0212564Y0067108D01*
X0243900Y0063303D02*
X0243900Y0059967D01*
X0244567Y0059300D01*
X0245902Y0059300D01*
X0246569Y0059967D01*
X0246569Y0063303D01*
X0248504Y0062636D02*
X0249171Y0063303D01*
X0250506Y0063303D01*
X0251173Y0062636D01*
X0251173Y0061969D01*
X0250506Y0061302D01*
X0251173Y0060634D01*
X0251173Y0059967D01*
X0250506Y0059300D01*
X0249171Y0059300D01*
X0248504Y0059967D01*
X0249838Y0061302D02*
X0250506Y0061302D01*
X0247537Y0027236D02*
X0247537Y0024567D01*
X0248204Y0023900D01*
X0249939Y0024567D02*
X0249939Y0025902D01*
X0250606Y0026569D01*
X0251941Y0026569D01*
X0252608Y0025902D01*
X0252608Y0025234D01*
X0249939Y0025234D01*
X0249939Y0024567D02*
X0250606Y0023900D01*
X0251941Y0023900D01*
X0254543Y0023900D02*
X0254543Y0026569D01*
X0255210Y0026569D01*
X0255878Y0025902D01*
X0256545Y0026569D01*
X0257212Y0025902D01*
X0257212Y0023900D01*
X0255878Y0023900D02*
X0255878Y0025902D01*
X0248204Y0026569D02*
X0246870Y0026569D01*
X0244935Y0026569D02*
X0242933Y0026569D01*
X0242266Y0025902D01*
X0242933Y0025234D01*
X0244268Y0025234D01*
X0244935Y0024567D01*
X0244268Y0023900D01*
X0242266Y0023900D01*
X0240331Y0023900D02*
X0238329Y0023900D01*
X0237662Y0024567D01*
X0237662Y0026569D01*
X0235727Y0027236D02*
X0235060Y0027903D01*
X0233725Y0027903D01*
X0233058Y0027236D01*
X0233058Y0026569D01*
X0233725Y0025902D01*
X0235060Y0025902D01*
X0235727Y0025234D01*
X0235727Y0024567D01*
X0235060Y0023900D01*
X0233725Y0023900D01*
X0233058Y0024567D01*
X0226519Y0023900D02*
X0224518Y0023900D01*
X0223850Y0024567D01*
X0223850Y0026569D01*
X0222116Y0026569D02*
X0220781Y0026569D01*
X0221448Y0027236D02*
X0221448Y0024567D01*
X0222116Y0023900D01*
X0225185Y0022566D02*
X0225852Y0022566D01*
X0226519Y0023233D01*
X0226519Y0026569D01*
X0218846Y0025902D02*
X0218846Y0025234D01*
X0216177Y0025234D01*
X0216177Y0024567D02*
X0216177Y0025902D01*
X0216844Y0026569D01*
X0218179Y0026569D01*
X0218846Y0025902D01*
X0218179Y0023900D02*
X0216844Y0023900D01*
X0216177Y0024567D01*
X0214442Y0025902D02*
X0213108Y0025902D01*
X0213775Y0027236D02*
X0213775Y0023900D01*
X0211173Y0023900D02*
X0211173Y0025902D01*
X0210506Y0026569D01*
X0209171Y0026569D01*
X0209171Y0025234D02*
X0211173Y0025234D01*
X0211173Y0023900D02*
X0209171Y0023900D01*
X0208504Y0024567D01*
X0209171Y0025234D01*
X0206569Y0025234D02*
X0206569Y0024567D01*
X0205902Y0023900D01*
X0204567Y0023900D01*
X0203900Y0024567D01*
X0204567Y0025902D02*
X0205902Y0025902D01*
X0206569Y0025234D01*
X0206569Y0027236D02*
X0205902Y0027903D01*
X0204567Y0027903D01*
X0203900Y0027236D01*
X0203900Y0026569D01*
X0204567Y0025902D01*
X0204567Y0020471D02*
X0204567Y0019136D01*
X0203900Y0018469D01*
X0205234Y0018469D02*
X0205902Y0019136D01*
X0205902Y0020471D01*
X0207737Y0019136D02*
X0207737Y0018469D01*
X0208404Y0017802D01*
X0209738Y0017802D01*
X0210406Y0017134D01*
X0210406Y0016467D01*
X0209738Y0015800D01*
X0208404Y0015800D01*
X0207737Y0016467D01*
X0207737Y0019136D02*
X0208404Y0019803D01*
X0209738Y0019803D01*
X0210406Y0019136D01*
X0212341Y0019136D02*
X0213008Y0019803D01*
X0214342Y0019803D01*
X0215009Y0019136D01*
X0214342Y0017802D02*
X0215009Y0017134D01*
X0215009Y0016467D01*
X0214342Y0015800D01*
X0213008Y0015800D01*
X0212341Y0016467D01*
X0213008Y0017802D02*
X0214342Y0017802D01*
X0213008Y0017802D02*
X0212341Y0018469D01*
X0212341Y0019136D01*
X0216944Y0018469D02*
X0217612Y0019136D01*
X0217612Y0020471D01*
X0218946Y0020471D02*
X0218946Y0019136D01*
X0218279Y0018469D01*
X0213775Y0027236D02*
X0214442Y0027903D01*
X0238997Y0022566D02*
X0239664Y0022566D01*
X0240331Y0023233D01*
X0240331Y0026569D01*
X0162500Y0077900D02*
X0162500Y0079234D01*
X0162500Y0078567D02*
X0158497Y0078567D01*
X0158497Y0077900D02*
X0158497Y0079234D01*
X0158497Y0080969D02*
X0159831Y0082304D01*
X0158497Y0083638D01*
X0162500Y0083638D01*
X0162500Y0085573D02*
X0158497Y0085573D01*
X0158497Y0087575D01*
X0159164Y0088242D01*
X0161833Y0088242D01*
X0162500Y0087575D01*
X0162500Y0085573D01*
X0162500Y0080969D02*
X0158497Y0080969D01*
X0155050Y0079702D02*
X0155050Y0078367D01*
X0154383Y0077700D01*
X0151714Y0077700D01*
X0151047Y0078367D01*
X0151047Y0079702D01*
X0151714Y0080369D01*
X0151714Y0082304D02*
X0151047Y0082971D01*
X0151047Y0084306D01*
X0151714Y0084973D01*
X0152381Y0084973D01*
X0155050Y0082304D01*
X0155050Y0084973D01*
X0155050Y0086908D02*
X0152381Y0089577D01*
X0151714Y0089577D01*
X0151047Y0088910D01*
X0151047Y0087575D01*
X0151714Y0086908D01*
X0149050Y0086775D02*
X0149050Y0088110D01*
X0148383Y0088777D01*
X0145714Y0088777D01*
X0145047Y0088110D01*
X0145047Y0086775D01*
X0145714Y0086108D01*
X0146381Y0086108D01*
X0147048Y0086775D01*
X0147048Y0088777D01*
X0149050Y0086775D02*
X0148383Y0086108D01*
X0149050Y0084173D02*
X0149050Y0081504D01*
X0149050Y0082838D02*
X0145047Y0082838D01*
X0146381Y0081504D01*
X0145714Y0079569D02*
X0145047Y0078902D01*
X0145047Y0077567D01*
X0145714Y0076900D01*
X0148383Y0076900D01*
X0149050Y0077567D01*
X0149050Y0078902D01*
X0148383Y0079569D01*
X0154383Y0080369D02*
X0155050Y0079702D01*
X0155050Y0086908D02*
X0155050Y0089577D01*
X0152598Y0099300D02*
X0153265Y0099967D01*
X0153265Y0100634D01*
X0152598Y0101302D01*
X0150596Y0101302D01*
X0150596Y0099967D01*
X0151263Y0099300D01*
X0152598Y0099300D01*
X0150596Y0101302D02*
X0151931Y0102636D01*
X0153265Y0103303D01*
X0148661Y0102636D02*
X0148661Y0099967D01*
X0147994Y0099300D01*
X0145992Y0099300D01*
X0145992Y0103303D01*
X0147994Y0103303D01*
X0148661Y0102636D01*
X0139442Y0103667D02*
X0139442Y0106336D01*
X0138775Y0107003D01*
X0136773Y0107003D01*
X0136773Y0103000D01*
X0138775Y0103000D01*
X0139442Y0103667D01*
X0134838Y0103000D02*
X0134838Y0107003D01*
X0133504Y0105669D01*
X0132169Y0107003D01*
X0132169Y0103000D01*
X0130434Y0103000D02*
X0129100Y0103000D01*
X0129767Y0103000D02*
X0129767Y0107003D01*
X0129100Y0107003D02*
X0130434Y0107003D01*
X0133550Y0100977D02*
X0133550Y0098308D01*
X0133550Y0099642D02*
X0129547Y0099642D01*
X0130881Y0098308D01*
X0130881Y0096373D02*
X0130214Y0096373D01*
X0129547Y0095706D01*
X0129547Y0094371D01*
X0130214Y0093704D01*
X0130214Y0091769D02*
X0129547Y0091102D01*
X0129547Y0089767D01*
X0130214Y0089100D01*
X0132883Y0089100D01*
X0133550Y0089767D01*
X0133550Y0091102D01*
X0132883Y0091769D01*
X0133550Y0093704D02*
X0130881Y0096373D01*
X0133550Y0096373D02*
X0133550Y0093704D01*
X0134700Y0086712D02*
X0134700Y0085377D01*
X0134700Y0086044D02*
X0130697Y0086044D01*
X0130697Y0085377D02*
X0130697Y0086712D01*
X0131364Y0083442D02*
X0130697Y0082775D01*
X0130697Y0080773D01*
X0134700Y0080773D01*
X0134700Y0082775D01*
X0134033Y0083442D01*
X0131364Y0083442D01*
X0137647Y0078806D02*
X0138314Y0079473D01*
X0140983Y0079473D01*
X0141650Y0078806D01*
X0141650Y0077471D01*
X0140983Y0076804D01*
X0139648Y0077471D02*
X0138981Y0076804D01*
X0138314Y0076804D01*
X0137647Y0077471D01*
X0137647Y0078806D01*
X0139648Y0079473D02*
X0139648Y0077471D01*
X0139648Y0074869D02*
X0138314Y0074869D01*
X0137647Y0074202D01*
X0137647Y0072200D01*
X0141650Y0072200D01*
X0140316Y0072200D02*
X0140316Y0074202D01*
X0139648Y0074869D01*
X0140316Y0073534D02*
X0141650Y0074869D01*
X0134700Y0074434D02*
X0134700Y0073100D01*
X0134700Y0073767D02*
X0130697Y0073767D01*
X0130697Y0073100D02*
X0130697Y0074434D01*
X0130697Y0076169D02*
X0132031Y0077504D01*
X0130697Y0078838D01*
X0134700Y0078838D01*
X0134700Y0076169D02*
X0130697Y0076169D01*
X0122950Y0088300D02*
X0118947Y0088300D01*
X0118947Y0090302D01*
X0119614Y0090969D01*
X0120948Y0090969D01*
X0121616Y0090302D01*
X0121616Y0088300D01*
X0121616Y0089634D02*
X0122950Y0090969D01*
X0122950Y0092904D02*
X0122950Y0095573D01*
X0122950Y0094238D02*
X0118947Y0094238D01*
X0120281Y0092904D01*
X0120948Y0097508D02*
X0118947Y0097508D01*
X0118947Y0100177D01*
X0120281Y0099510D02*
X0120948Y0100177D01*
X0122283Y0100177D01*
X0122950Y0099510D01*
X0122950Y0098175D01*
X0122283Y0097508D01*
X0120948Y0097508D02*
X0120281Y0098842D01*
X0120281Y0099510D01*
X0097404Y0114300D02*
X0097404Y0118303D01*
X0095469Y0117636D02*
X0094802Y0118303D01*
X0093467Y0118303D01*
X0092800Y0117636D01*
X0159500Y0102853D02*
X0159500Y0098850D01*
X0159500Y0100184D02*
X0161502Y0100184D01*
X0162169Y0100852D01*
X0162169Y0102186D01*
X0161502Y0102853D01*
X0159500Y0102853D01*
X0160834Y0100184D02*
X0162169Y0098850D01*
X0164104Y0098850D02*
X0166773Y0101519D01*
X0166773Y0102186D01*
X0166106Y0102853D01*
X0164771Y0102853D01*
X0164104Y0102186D01*
X0168708Y0100852D02*
X0170710Y0100852D01*
X0171377Y0100184D01*
X0171377Y0099517D01*
X0170710Y0098850D01*
X0169375Y0098850D01*
X0168708Y0099517D01*
X0168708Y0100852D01*
X0170042Y0102186D01*
X0171377Y0102853D01*
X0166773Y0098850D02*
X0164104Y0098850D01*
X0171100Y0088253D02*
X0173102Y0088253D01*
X0173769Y0087586D01*
X0173769Y0086252D01*
X0173102Y0085584D01*
X0171100Y0085584D01*
X0171100Y0084250D02*
X0171100Y0088253D01*
X0172434Y0085584D02*
X0173769Y0084250D01*
X0175704Y0084250D02*
X0178373Y0084250D01*
X0177038Y0084250D02*
X0177038Y0088253D01*
X0175704Y0086919D01*
X0180308Y0086919D02*
X0180975Y0086252D01*
X0182977Y0086252D01*
X0182977Y0087586D02*
X0182310Y0088253D01*
X0180975Y0088253D01*
X0180308Y0087586D01*
X0180308Y0086919D01*
X0180308Y0084917D02*
X0180975Y0084250D01*
X0182310Y0084250D01*
X0182977Y0084917D01*
X0182977Y0087586D01*
X0225235Y0113548D02*
X0225237Y0113615D01*
X0225243Y0113681D01*
X0225253Y0113747D01*
X0225267Y0113812D01*
X0225284Y0113876D01*
X0225306Y0113939D01*
X0225331Y0114001D01*
X0225360Y0114061D01*
X0225393Y0114119D01*
X0225428Y0114175D01*
X0225468Y0114229D01*
X0225510Y0114280D01*
X0225555Y0114329D01*
X0225603Y0114375D01*
X0225654Y0114418D01*
X0225707Y0114458D01*
X0225763Y0114495D01*
X0225821Y0114528D01*
X0225880Y0114558D01*
X0225941Y0114584D01*
X0226004Y0114607D01*
X0226068Y0114625D01*
X0226133Y0114640D01*
X0226199Y0114651D01*
X0226265Y0114658D01*
X0226331Y0114661D01*
X0226398Y0114660D01*
X0226464Y0114655D01*
X0226530Y0114646D01*
X0226596Y0114633D01*
X0226660Y0114616D01*
X0226723Y0114596D01*
X0226785Y0114571D01*
X0226846Y0114543D01*
X0226905Y0114512D01*
X0226961Y0114477D01*
X0227016Y0114439D01*
X0227068Y0114397D01*
X0227117Y0114352D01*
X0227164Y0114305D01*
X0227208Y0114255D01*
X0227248Y0114202D01*
X0227286Y0114147D01*
X0227320Y0114090D01*
X0227351Y0114031D01*
X0227378Y0113970D01*
X0227401Y0113908D01*
X0227421Y0113844D01*
X0227437Y0113779D01*
X0227449Y0113714D01*
X0227457Y0113648D01*
X0227461Y0113581D01*
X0227461Y0113515D01*
X0227457Y0113448D01*
X0227449Y0113382D01*
X0227437Y0113317D01*
X0227421Y0113252D01*
X0227401Y0113188D01*
X0227378Y0113126D01*
X0227351Y0113065D01*
X0227320Y0113006D01*
X0227286Y0112949D01*
X0227248Y0112894D01*
X0227208Y0112841D01*
X0227164Y0112791D01*
X0227117Y0112744D01*
X0227068Y0112699D01*
X0227016Y0112657D01*
X0226961Y0112619D01*
X0226904Y0112584D01*
X0226846Y0112553D01*
X0226785Y0112525D01*
X0226723Y0112500D01*
X0226660Y0112480D01*
X0226596Y0112463D01*
X0226530Y0112450D01*
X0226464Y0112441D01*
X0226398Y0112436D01*
X0226331Y0112435D01*
X0226265Y0112438D01*
X0226199Y0112445D01*
X0226133Y0112456D01*
X0226068Y0112471D01*
X0226004Y0112489D01*
X0225941Y0112512D01*
X0225880Y0112538D01*
X0225821Y0112568D01*
X0225763Y0112601D01*
X0225707Y0112638D01*
X0225654Y0112678D01*
X0225603Y0112721D01*
X0225555Y0112767D01*
X0225510Y0112816D01*
X0225468Y0112867D01*
X0225428Y0112921D01*
X0225393Y0112977D01*
X0225360Y0113035D01*
X0225331Y0113095D01*
X0225306Y0113157D01*
X0225284Y0113220D01*
X0225267Y0113284D01*
X0225253Y0113349D01*
X0225243Y0113415D01*
X0225237Y0113481D01*
X0225235Y0113548D01*
X0230200Y0118867D02*
X0230867Y0118200D01*
X0232202Y0118200D01*
X0232869Y0118867D01*
X0232869Y0122203D01*
X0234804Y0120869D02*
X0236138Y0122203D01*
X0236138Y0118200D01*
X0234804Y0118200D02*
X0237473Y0118200D01*
X0230200Y0118867D02*
X0230200Y0122203D01*
X0220573Y0126767D02*
X0220573Y0129436D01*
X0219906Y0130103D01*
X0217904Y0130103D01*
X0217904Y0126100D01*
X0219906Y0126100D01*
X0220573Y0126767D01*
X0215969Y0126100D02*
X0214634Y0127434D01*
X0215302Y0127434D02*
X0213300Y0127434D01*
X0213300Y0126100D02*
X0213300Y0130103D01*
X0215302Y0130103D01*
X0215969Y0129436D01*
X0215969Y0128102D01*
X0215302Y0127434D01*
X0214967Y0133250D02*
X0216302Y0133250D01*
X0216969Y0133917D01*
X0218904Y0133250D02*
X0221573Y0133250D01*
X0220238Y0133250D02*
X0220238Y0137253D01*
X0218904Y0135919D01*
X0216969Y0136586D02*
X0216302Y0137253D01*
X0214967Y0137253D01*
X0214300Y0136586D01*
X0214300Y0133917D01*
X0214967Y0133250D01*
X0223508Y0133917D02*
X0226177Y0136586D01*
X0226177Y0133917D01*
X0225510Y0133250D01*
X0224175Y0133250D01*
X0223508Y0133917D01*
X0223508Y0136586D01*
X0224175Y0137253D01*
X0225510Y0137253D01*
X0226177Y0136586D01*
X0240900Y0135403D02*
X0240900Y0131400D01*
X0240900Y0132734D02*
X0242902Y0132734D01*
X0243569Y0133402D01*
X0243569Y0134736D01*
X0242902Y0135403D01*
X0240900Y0135403D01*
X0244197Y0138188D02*
X0247533Y0138188D01*
X0248200Y0138855D01*
X0248200Y0140190D01*
X0247533Y0140857D01*
X0244197Y0140857D01*
X0245531Y0142792D02*
X0244197Y0144127D01*
X0248200Y0144127D01*
X0248200Y0145461D02*
X0248200Y0142792D01*
X0246198Y0147396D02*
X0246198Y0150065D01*
X0244197Y0149398D02*
X0246198Y0147396D01*
X0244197Y0149398D02*
X0248200Y0149398D01*
X0242202Y0153000D02*
X0239533Y0153000D01*
X0240868Y0153000D02*
X0240868Y0157003D01*
X0239533Y0155669D01*
X0237598Y0157003D02*
X0236264Y0157003D01*
X0236931Y0157003D02*
X0236931Y0153667D01*
X0236264Y0153000D01*
X0235596Y0153000D01*
X0234929Y0153667D01*
X0232994Y0153667D02*
X0232994Y0154334D01*
X0232327Y0155002D01*
X0230992Y0155002D01*
X0230325Y0155669D01*
X0230325Y0156336D01*
X0230992Y0157003D01*
X0232327Y0157003D01*
X0232994Y0156336D01*
X0232994Y0153667D02*
X0232327Y0153000D01*
X0230992Y0153000D01*
X0230325Y0153667D01*
X0245504Y0135403D02*
X0248173Y0131400D01*
X0245504Y0131400D02*
X0248173Y0135403D01*
X0251292Y0135603D02*
X0253294Y0135603D01*
X0253961Y0134936D01*
X0253961Y0132267D01*
X0253294Y0131600D01*
X0251292Y0131600D01*
X0251292Y0135603D01*
X0255896Y0134936D02*
X0255896Y0134269D01*
X0256563Y0133602D01*
X0258565Y0133602D01*
X0258565Y0134936D02*
X0257898Y0135603D01*
X0256563Y0135603D01*
X0255896Y0134936D01*
X0255896Y0132267D02*
X0256563Y0131600D01*
X0257898Y0131600D01*
X0258565Y0132267D01*
X0258565Y0134936D01*
X0243569Y0131400D02*
X0242234Y0132734D01*
X0243004Y0111203D02*
X0245673Y0107200D01*
X0243004Y0107200D02*
X0245673Y0111203D01*
X0248692Y0111103D02*
X0250694Y0111103D01*
X0251361Y0110436D01*
X0251361Y0107767D01*
X0250694Y0107100D01*
X0248692Y0107100D01*
X0248692Y0111103D01*
X0253296Y0110436D02*
X0253296Y0109769D01*
X0253963Y0109102D01*
X0255298Y0109102D01*
X0255965Y0108434D01*
X0255965Y0107767D01*
X0255298Y0107100D01*
X0253963Y0107100D01*
X0253296Y0107767D01*
X0253296Y0108434D01*
X0253963Y0109102D01*
X0255298Y0109102D02*
X0255965Y0109769D01*
X0255965Y0110436D01*
X0255298Y0111103D01*
X0253963Y0111103D01*
X0253296Y0110436D01*
X0241069Y0111203D02*
X0238400Y0111203D01*
X0239734Y0111203D02*
X0239734Y0107200D01*
X0166400Y0147055D02*
X0166400Y0147723D01*
X0165733Y0148390D01*
X0162397Y0148390D01*
X0162397Y0147723D02*
X0162397Y0149057D01*
X0162397Y0150992D02*
X0162397Y0152994D01*
X0163064Y0153661D01*
X0164398Y0153661D01*
X0165066Y0152994D01*
X0165066Y0150992D01*
X0166400Y0150992D02*
X0162397Y0150992D01*
X0163731Y0155596D02*
X0162397Y0156931D01*
X0166400Y0156931D01*
X0166400Y0158265D02*
X0166400Y0155596D01*
X0166400Y0147055D02*
X0165733Y0146388D01*
X0110183Y0069565D02*
X0110850Y0068898D01*
X0110850Y0067563D01*
X0110183Y0066896D01*
X0108848Y0068231D02*
X0108848Y0068898D01*
X0109516Y0069565D01*
X0110183Y0069565D01*
X0108848Y0068898D02*
X0108181Y0069565D01*
X0107514Y0069565D01*
X0106847Y0068898D01*
X0106847Y0067563D01*
X0107514Y0066896D01*
X0131747Y0058610D02*
X0132414Y0059277D01*
X0015804Y0031769D02*
X0015804Y0029100D01*
D11*
X0126300Y0035100D02*
X0126600Y0034900D01*
X0174500Y0034900D01*
X0174500Y0063900D01*
X0169700Y0068700D01*
X0169700Y0088600D01*
X0174200Y0093100D01*
X0174200Y0110500D01*
X0174100Y0110600D01*
X0126500Y0110600D01*
X0126400Y0110700D01*
X0082959Y0103200D02*
X0082961Y0103223D01*
X0082967Y0103246D01*
X0082976Y0103267D01*
X0082989Y0103287D01*
X0083005Y0103304D01*
X0083023Y0103318D01*
X0083043Y0103329D01*
X0083065Y0103337D01*
X0083088Y0103341D01*
X0083112Y0103341D01*
X0083135Y0103337D01*
X0083157Y0103329D01*
X0083177Y0103318D01*
X0083195Y0103304D01*
X0083211Y0103287D01*
X0083224Y0103267D01*
X0083233Y0103246D01*
X0083239Y0103223D01*
X0083241Y0103200D01*
X0083239Y0103177D01*
X0083233Y0103154D01*
X0083224Y0103133D01*
X0083211Y0103113D01*
X0083195Y0103096D01*
X0083177Y0103082D01*
X0083157Y0103071D01*
X0083135Y0103063D01*
X0083112Y0103059D01*
X0083088Y0103059D01*
X0083065Y0103063D01*
X0083043Y0103071D01*
X0083023Y0103082D01*
X0083005Y0103096D01*
X0082989Y0103113D01*
X0082976Y0103133D01*
X0082967Y0103154D01*
X0082961Y0103177D01*
X0082959Y0103200D01*
D12*
X0084627Y0101509D02*
X0085000Y0101509D01*
X0085000Y0107891D01*
X0084627Y0107891D01*
X0074173Y0107891D02*
X0073800Y0107891D01*
X0073800Y0101509D01*
X0074173Y0101509D01*
X0050591Y0093557D02*
X0050591Y0091443D01*
X0049091Y0086900D02*
X0045709Y0086900D01*
X0045709Y0098100D02*
X0049091Y0098100D01*
X0036291Y0105700D02*
X0032909Y0105700D01*
X0031409Y0110243D02*
X0031409Y0112357D01*
X0032909Y0116900D02*
X0036291Y0116900D01*
X0028912Y0087756D02*
X0026550Y0087756D01*
X0028912Y0087756D02*
X0028912Y0084606D01*
X0020250Y0087756D02*
X0017888Y0087756D01*
X0017888Y0084606D01*
X0035009Y0069500D02*
X0038391Y0069500D01*
X0039891Y0064957D02*
X0039891Y0062843D01*
X0038391Y0058300D02*
X0035009Y0058300D01*
X0047489Y0025724D02*
X0055363Y0025724D01*
X0047489Y0025724D02*
X0047489Y0016276D01*
X0055363Y0016276D01*
X0063237Y0016276D02*
X0069536Y0016276D01*
X0071111Y0017850D01*
X0071111Y0024150D01*
X0069536Y0025724D01*
X0063237Y0025724D01*
X0095135Y0053200D02*
X0095137Y0053247D01*
X0095143Y0053294D01*
X0095153Y0053341D01*
X0095166Y0053386D01*
X0095184Y0053430D01*
X0095205Y0053472D01*
X0095229Y0053513D01*
X0095257Y0053551D01*
X0095288Y0053587D01*
X0095322Y0053620D01*
X0095358Y0053650D01*
X0095397Y0053677D01*
X0095438Y0053701D01*
X0095481Y0053721D01*
X0095525Y0053737D01*
X0095571Y0053750D01*
X0095617Y0053759D01*
X0095665Y0053764D01*
X0095712Y0053765D01*
X0095759Y0053762D01*
X0095806Y0053755D01*
X0095852Y0053744D01*
X0095897Y0053730D01*
X0095941Y0053711D01*
X0095982Y0053689D01*
X0096022Y0053664D01*
X0096060Y0053635D01*
X0096095Y0053604D01*
X0096128Y0053569D01*
X0096157Y0053532D01*
X0096183Y0053493D01*
X0096206Y0053451D01*
X0096225Y0053408D01*
X0096241Y0053363D01*
X0096253Y0053317D01*
X0096261Y0053271D01*
X0096265Y0053224D01*
X0096265Y0053176D01*
X0096261Y0053129D01*
X0096253Y0053083D01*
X0096241Y0053037D01*
X0096225Y0052992D01*
X0096206Y0052949D01*
X0096183Y0052907D01*
X0096157Y0052868D01*
X0096128Y0052831D01*
X0096095Y0052796D01*
X0096060Y0052765D01*
X0096022Y0052736D01*
X0095983Y0052711D01*
X0095941Y0052689D01*
X0095897Y0052670D01*
X0095852Y0052656D01*
X0095806Y0052645D01*
X0095759Y0052638D01*
X0095712Y0052635D01*
X0095665Y0052636D01*
X0095617Y0052641D01*
X0095571Y0052650D01*
X0095525Y0052663D01*
X0095481Y0052679D01*
X0095438Y0052699D01*
X0095397Y0052723D01*
X0095358Y0052750D01*
X0095322Y0052780D01*
X0095288Y0052813D01*
X0095257Y0052849D01*
X0095229Y0052887D01*
X0095205Y0052928D01*
X0095184Y0052970D01*
X0095166Y0053014D01*
X0095153Y0053059D01*
X0095143Y0053106D01*
X0095137Y0053153D01*
X0095135Y0053200D01*
X0150500Y0052609D02*
X0150500Y0055991D01*
X0154950Y0055563D02*
X0161250Y0055563D01*
X0161700Y0055991D02*
X0161700Y0052609D01*
X0161250Y0055562D02*
X0161309Y0055576D01*
X0161367Y0055593D01*
X0161424Y0055614D01*
X0161480Y0055638D01*
X0161534Y0055666D01*
X0161586Y0055696D01*
X0161637Y0055730D01*
X0161685Y0055767D01*
X0161731Y0055806D01*
X0161774Y0055849D01*
X0161815Y0055893D01*
X0161853Y0055941D01*
X0161888Y0055990D01*
X0161920Y0056042D01*
X0161949Y0056095D01*
X0161975Y0056150D01*
X0161997Y0056206D01*
X0162016Y0056264D01*
X0162032Y0056323D01*
X0162043Y0056382D01*
X0162052Y0056442D01*
X0162056Y0056503D01*
X0162057Y0056563D01*
X0162054Y0056624D01*
X0162048Y0056684D01*
X0162038Y0056744D01*
X0157157Y0057491D02*
X0155043Y0057491D01*
X0154162Y0056744D02*
X0154152Y0056684D01*
X0154146Y0056624D01*
X0154143Y0056563D01*
X0154144Y0056503D01*
X0154148Y0056442D01*
X0154157Y0056382D01*
X0154168Y0056323D01*
X0154184Y0056264D01*
X0154203Y0056206D01*
X0154225Y0056150D01*
X0154251Y0056095D01*
X0154280Y0056042D01*
X0154312Y0055990D01*
X0154347Y0055941D01*
X0154385Y0055893D01*
X0154426Y0055849D01*
X0154469Y0055806D01*
X0154515Y0055767D01*
X0154563Y0055730D01*
X0154614Y0055696D01*
X0154666Y0055666D01*
X0154720Y0055638D01*
X0154776Y0055614D01*
X0154833Y0055593D01*
X0154891Y0055576D01*
X0154950Y0055562D01*
X0154162Y0062256D02*
X0154152Y0062316D01*
X0154146Y0062376D01*
X0154143Y0062437D01*
X0154144Y0062497D01*
X0154148Y0062558D01*
X0154157Y0062618D01*
X0154168Y0062677D01*
X0154184Y0062736D01*
X0154203Y0062794D01*
X0154225Y0062850D01*
X0154251Y0062905D01*
X0154280Y0062958D01*
X0154312Y0063010D01*
X0154347Y0063059D01*
X0154385Y0063107D01*
X0154426Y0063151D01*
X0154469Y0063194D01*
X0154515Y0063233D01*
X0154563Y0063270D01*
X0154614Y0063304D01*
X0154666Y0063334D01*
X0154720Y0063362D01*
X0154776Y0063386D01*
X0154833Y0063407D01*
X0154891Y0063424D01*
X0154950Y0063438D01*
X0154950Y0063437D02*
X0161250Y0063437D01*
X0161250Y0063438D02*
X0161309Y0063424D01*
X0161367Y0063407D01*
X0161424Y0063386D01*
X0161480Y0063362D01*
X0161534Y0063334D01*
X0161586Y0063304D01*
X0161637Y0063270D01*
X0161685Y0063233D01*
X0161731Y0063194D01*
X0161774Y0063151D01*
X0161815Y0063107D01*
X0161853Y0063059D01*
X0161888Y0063010D01*
X0161920Y0062958D01*
X0161949Y0062905D01*
X0161975Y0062850D01*
X0161997Y0062794D01*
X0162016Y0062736D01*
X0162032Y0062677D01*
X0162043Y0062618D01*
X0162052Y0062558D01*
X0162056Y0062497D01*
X0162057Y0062437D01*
X0162054Y0062376D01*
X0162048Y0062316D01*
X0162038Y0062256D01*
X0191702Y0080477D02*
X0191702Y0115123D01*
X0193277Y0116698D01*
X0227923Y0116698D01*
X0229498Y0115123D01*
X0229498Y0080477D01*
X0227923Y0078902D01*
X0193277Y0078902D01*
X0191702Y0080477D01*
X0232709Y0139000D02*
X0236091Y0139000D01*
X0231209Y0143543D02*
X0231209Y0145657D01*
X0232709Y0150200D02*
X0236091Y0150200D01*
X0227650Y0150363D02*
X0221350Y0150363D01*
X0221350Y0150362D02*
X0221291Y0150376D01*
X0221233Y0150393D01*
X0221176Y0150414D01*
X0221120Y0150438D01*
X0221066Y0150466D01*
X0221014Y0150496D01*
X0220963Y0150530D01*
X0220915Y0150567D01*
X0220869Y0150606D01*
X0220826Y0150649D01*
X0220785Y0150693D01*
X0220747Y0150741D01*
X0220712Y0150790D01*
X0220680Y0150842D01*
X0220651Y0150895D01*
X0220625Y0150950D01*
X0220603Y0151006D01*
X0220584Y0151064D01*
X0220568Y0151123D01*
X0220557Y0151182D01*
X0220548Y0151242D01*
X0220544Y0151303D01*
X0220543Y0151363D01*
X0220546Y0151424D01*
X0220552Y0151484D01*
X0220562Y0151544D01*
X0218400Y0149700D02*
X0217300Y0148600D01*
X0218400Y0149700D02*
X0218400Y0153600D01*
X0218400Y0157500D01*
X0217300Y0158600D01*
X0221350Y0158237D02*
X0227650Y0158237D01*
X0227650Y0158238D02*
X0227709Y0158224D01*
X0227767Y0158207D01*
X0227824Y0158186D01*
X0227880Y0158162D01*
X0227934Y0158134D01*
X0227986Y0158104D01*
X0228037Y0158070D01*
X0228085Y0158033D01*
X0228131Y0157994D01*
X0228174Y0157951D01*
X0228215Y0157907D01*
X0228253Y0157859D01*
X0228288Y0157810D01*
X0228320Y0157758D01*
X0228349Y0157705D01*
X0228375Y0157650D01*
X0228397Y0157594D01*
X0228416Y0157536D01*
X0228432Y0157477D01*
X0228443Y0157418D01*
X0228452Y0157358D01*
X0228456Y0157297D01*
X0228457Y0157237D01*
X0228454Y0157176D01*
X0228448Y0157116D01*
X0228438Y0157056D01*
X0228438Y0151544D02*
X0228448Y0151484D01*
X0228454Y0151424D01*
X0228457Y0151363D01*
X0228456Y0151303D01*
X0228452Y0151242D01*
X0228443Y0151182D01*
X0228432Y0151123D01*
X0228416Y0151064D01*
X0228397Y0151006D01*
X0228375Y0150950D01*
X0228349Y0150895D01*
X0228320Y0150842D01*
X0228288Y0150790D01*
X0228253Y0150741D01*
X0228215Y0150693D01*
X0228174Y0150649D01*
X0228131Y0150606D01*
X0228085Y0150567D01*
X0228037Y0150530D01*
X0227986Y0150496D01*
X0227934Y0150466D01*
X0227880Y0150438D01*
X0227824Y0150414D01*
X0227767Y0150393D01*
X0227709Y0150376D01*
X0227650Y0150362D01*
X0220562Y0157056D02*
X0220552Y0157116D01*
X0220546Y0157176D01*
X0220543Y0157237D01*
X0220544Y0157297D01*
X0220548Y0157358D01*
X0220557Y0157418D01*
X0220568Y0157477D01*
X0220584Y0157536D01*
X0220603Y0157594D01*
X0220625Y0157650D01*
X0220651Y0157705D01*
X0220680Y0157758D01*
X0220712Y0157810D01*
X0220747Y0157859D01*
X0220785Y0157907D01*
X0220826Y0157951D01*
X0220869Y0157994D01*
X0220915Y0158033D01*
X0220963Y0158070D01*
X0221014Y0158104D01*
X0221066Y0158134D01*
X0221120Y0158162D01*
X0221176Y0158186D01*
X0221233Y0158207D01*
X0221291Y0158224D01*
X0221350Y0158238D01*
X0218400Y0153600D02*
X0217400Y0153600D01*
X0209400Y0153600D02*
X0207400Y0153600D01*
X0199400Y0153600D02*
X0197400Y0153600D01*
X0189400Y0153600D02*
X0187400Y0153600D01*
X0179400Y0153600D02*
X0177400Y0153600D01*
X0169400Y0153600D02*
X0168400Y0153600D01*
X0168400Y0149700D01*
X0169500Y0148600D01*
X0168400Y0153600D02*
X0168400Y0157500D01*
X0169500Y0158600D01*
D13*
X0173900Y0144100D02*
X0163900Y0134100D01*
X0183900Y0134100D01*
X0173900Y0144100D01*
X0171600Y0133400D02*
X0166600Y0133400D01*
X0166600Y0128400D01*
X0156600Y0128400D01*
X0156600Y0133400D01*
X0166600Y0133400D01*
X0165600Y0134400D02*
X0164600Y0134400D01*
X0165200Y0134900D01*
X0171600Y0133400D02*
X0171600Y0111400D01*
X0151600Y0111400D01*
X0151600Y0133400D01*
X0156600Y0133400D01*
X0150000Y0133600D02*
X0145000Y0133600D01*
X0145000Y0128600D01*
X0135000Y0128600D01*
X0135000Y0133600D01*
X0145000Y0133600D01*
X0150000Y0133600D02*
X0150000Y0111600D01*
X0130000Y0111600D01*
X0130000Y0133600D01*
X0135000Y0133600D01*
X0115700Y0146300D02*
X0115700Y0153200D01*
X0115800Y0153300D02*
X0112800Y0153300D01*
X0104800Y0153300D02*
X0101800Y0153300D01*
X0101900Y0153200D02*
X0101900Y0146300D01*
X0107800Y0140300D02*
X0109800Y0140300D01*
X0092700Y0146600D02*
X0092700Y0153500D01*
X0092800Y0153600D02*
X0089800Y0153600D01*
X0081800Y0153600D02*
X0078800Y0153600D01*
X0078900Y0153500D02*
X0078900Y0146600D01*
X0071100Y0146800D02*
X0071100Y0153700D01*
X0071200Y0153800D02*
X0068200Y0153800D01*
X0060200Y0153800D02*
X0057200Y0153800D01*
X0057300Y0153700D02*
X0057300Y0146800D01*
X0063200Y0140800D02*
X0065200Y0140800D01*
X0073840Y0130600D02*
X0073842Y0130658D01*
X0073848Y0130716D01*
X0073858Y0130773D01*
X0073871Y0130830D01*
X0073889Y0130885D01*
X0073910Y0130939D01*
X0073934Y0130992D01*
X0073963Y0131043D01*
X0073994Y0131091D01*
X0074029Y0131138D01*
X0074067Y0131182D01*
X0074107Y0131223D01*
X0074151Y0131262D01*
X0074197Y0131297D01*
X0074245Y0131330D01*
X0074295Y0131359D01*
X0074348Y0131384D01*
X0074401Y0131406D01*
X0074456Y0131425D01*
X0074513Y0131439D01*
X0074570Y0131450D01*
X0074627Y0131457D01*
X0074685Y0131460D01*
X0074744Y0131459D01*
X0074801Y0131454D01*
X0074859Y0131445D01*
X0074916Y0131433D01*
X0074971Y0131416D01*
X0075026Y0131396D01*
X0075079Y0131372D01*
X0075130Y0131345D01*
X0075179Y0131314D01*
X0075226Y0131280D01*
X0075271Y0131243D01*
X0075313Y0131203D01*
X0075353Y0131160D01*
X0075389Y0131115D01*
X0075422Y0131067D01*
X0075452Y0131017D01*
X0075478Y0130966D01*
X0075501Y0130912D01*
X0075521Y0130857D01*
X0075536Y0130801D01*
X0075548Y0130745D01*
X0075556Y0130687D01*
X0075560Y0130629D01*
X0075560Y0130571D01*
X0075556Y0130513D01*
X0075548Y0130455D01*
X0075536Y0130399D01*
X0075521Y0130343D01*
X0075501Y0130288D01*
X0075478Y0130234D01*
X0075452Y0130183D01*
X0075422Y0130133D01*
X0075389Y0130085D01*
X0075353Y0130040D01*
X0075313Y0129997D01*
X0075271Y0129957D01*
X0075226Y0129920D01*
X0075179Y0129886D01*
X0075130Y0129855D01*
X0075079Y0129828D01*
X0075026Y0129804D01*
X0074971Y0129784D01*
X0074916Y0129767D01*
X0074859Y0129755D01*
X0074801Y0129746D01*
X0074744Y0129741D01*
X0074685Y0129740D01*
X0074627Y0129743D01*
X0074570Y0129750D01*
X0074513Y0129761D01*
X0074456Y0129775D01*
X0074401Y0129794D01*
X0074348Y0129816D01*
X0074295Y0129841D01*
X0074245Y0129870D01*
X0074197Y0129903D01*
X0074151Y0129938D01*
X0074107Y0129977D01*
X0074067Y0130018D01*
X0074029Y0130062D01*
X0073994Y0130109D01*
X0073963Y0130157D01*
X0073934Y0130208D01*
X0073910Y0130261D01*
X0073889Y0130315D01*
X0073871Y0130370D01*
X0073858Y0130427D01*
X0073848Y0130484D01*
X0073842Y0130542D01*
X0073840Y0130600D01*
X0074600Y0130600D02*
X0074602Y0130620D01*
X0074608Y0130638D01*
X0074617Y0130656D01*
X0074629Y0130671D01*
X0074644Y0130683D01*
X0074662Y0130692D01*
X0074680Y0130698D01*
X0074700Y0130700D01*
X0074720Y0130698D01*
X0074738Y0130692D01*
X0074756Y0130683D01*
X0074771Y0130671D01*
X0074783Y0130656D01*
X0074792Y0130638D01*
X0074798Y0130620D01*
X0074800Y0130600D01*
X0074798Y0130580D01*
X0074792Y0130562D01*
X0074783Y0130544D01*
X0074771Y0130529D01*
X0074756Y0130517D01*
X0074738Y0130508D01*
X0074720Y0130502D01*
X0074700Y0130500D01*
X0074680Y0130502D01*
X0074662Y0130508D01*
X0074644Y0130517D01*
X0074629Y0130529D01*
X0074617Y0130544D01*
X0074608Y0130562D01*
X0074602Y0130580D01*
X0074600Y0130600D01*
X0074200Y0130600D02*
X0074202Y0130644D01*
X0074208Y0130688D01*
X0074218Y0130731D01*
X0074231Y0130773D01*
X0074248Y0130814D01*
X0074269Y0130853D01*
X0074293Y0130890D01*
X0074320Y0130925D01*
X0074350Y0130957D01*
X0074383Y0130987D01*
X0074419Y0131013D01*
X0074456Y0131037D01*
X0074496Y0131056D01*
X0074537Y0131073D01*
X0074580Y0131085D01*
X0074623Y0131094D01*
X0074667Y0131099D01*
X0074711Y0131100D01*
X0074755Y0131097D01*
X0074799Y0131090D01*
X0074842Y0131079D01*
X0074884Y0131065D01*
X0074924Y0131047D01*
X0074963Y0131025D01*
X0074999Y0131001D01*
X0075033Y0130973D01*
X0075065Y0130942D01*
X0075094Y0130908D01*
X0075120Y0130872D01*
X0075142Y0130834D01*
X0075161Y0130794D01*
X0075176Y0130752D01*
X0075188Y0130710D01*
X0075196Y0130666D01*
X0075200Y0130622D01*
X0075200Y0130578D01*
X0075196Y0130534D01*
X0075188Y0130490D01*
X0075176Y0130448D01*
X0075161Y0130406D01*
X0075142Y0130366D01*
X0075120Y0130328D01*
X0075094Y0130292D01*
X0075065Y0130258D01*
X0075033Y0130227D01*
X0074999Y0130199D01*
X0074963Y0130175D01*
X0074924Y0130153D01*
X0074884Y0130135D01*
X0074842Y0130121D01*
X0074799Y0130110D01*
X0074755Y0130103D01*
X0074711Y0130100D01*
X0074667Y0130101D01*
X0074623Y0130106D01*
X0074580Y0130115D01*
X0074537Y0130127D01*
X0074496Y0130144D01*
X0074456Y0130163D01*
X0074419Y0130187D01*
X0074383Y0130213D01*
X0074350Y0130243D01*
X0074320Y0130275D01*
X0074293Y0130310D01*
X0074269Y0130347D01*
X0074248Y0130386D01*
X0074231Y0130427D01*
X0074218Y0130469D01*
X0074208Y0130512D01*
X0074202Y0130556D01*
X0074200Y0130600D01*
X0084800Y0140600D02*
X0086800Y0140600D01*
X0088940Y0126000D02*
X0088942Y0126058D01*
X0088948Y0126116D01*
X0088958Y0126173D01*
X0088971Y0126230D01*
X0088989Y0126285D01*
X0089010Y0126339D01*
X0089034Y0126392D01*
X0089063Y0126443D01*
X0089094Y0126491D01*
X0089129Y0126538D01*
X0089167Y0126582D01*
X0089207Y0126623D01*
X0089251Y0126662D01*
X0089297Y0126697D01*
X0089345Y0126730D01*
X0089395Y0126759D01*
X0089448Y0126784D01*
X0089501Y0126806D01*
X0089556Y0126825D01*
X0089613Y0126839D01*
X0089670Y0126850D01*
X0089727Y0126857D01*
X0089785Y0126860D01*
X0089844Y0126859D01*
X0089901Y0126854D01*
X0089959Y0126845D01*
X0090016Y0126833D01*
X0090071Y0126816D01*
X0090126Y0126796D01*
X0090179Y0126772D01*
X0090230Y0126745D01*
X0090279Y0126714D01*
X0090326Y0126680D01*
X0090371Y0126643D01*
X0090413Y0126603D01*
X0090453Y0126560D01*
X0090489Y0126515D01*
X0090522Y0126467D01*
X0090552Y0126417D01*
X0090578Y0126366D01*
X0090601Y0126312D01*
X0090621Y0126257D01*
X0090636Y0126201D01*
X0090648Y0126145D01*
X0090656Y0126087D01*
X0090660Y0126029D01*
X0090660Y0125971D01*
X0090656Y0125913D01*
X0090648Y0125855D01*
X0090636Y0125799D01*
X0090621Y0125743D01*
X0090601Y0125688D01*
X0090578Y0125634D01*
X0090552Y0125583D01*
X0090522Y0125533D01*
X0090489Y0125485D01*
X0090453Y0125440D01*
X0090413Y0125397D01*
X0090371Y0125357D01*
X0090326Y0125320D01*
X0090279Y0125286D01*
X0090230Y0125255D01*
X0090179Y0125228D01*
X0090126Y0125204D01*
X0090071Y0125184D01*
X0090016Y0125167D01*
X0089959Y0125155D01*
X0089901Y0125146D01*
X0089844Y0125141D01*
X0089785Y0125140D01*
X0089727Y0125143D01*
X0089670Y0125150D01*
X0089613Y0125161D01*
X0089556Y0125175D01*
X0089501Y0125194D01*
X0089448Y0125216D01*
X0089395Y0125241D01*
X0089345Y0125270D01*
X0089297Y0125303D01*
X0089251Y0125338D01*
X0089207Y0125377D01*
X0089167Y0125418D01*
X0089129Y0125462D01*
X0089094Y0125509D01*
X0089063Y0125557D01*
X0089034Y0125608D01*
X0089010Y0125661D01*
X0088989Y0125715D01*
X0088971Y0125770D01*
X0088958Y0125827D01*
X0088948Y0125884D01*
X0088942Y0125942D01*
X0088940Y0126000D01*
X0089700Y0126000D02*
X0089702Y0126020D01*
X0089708Y0126038D01*
X0089717Y0126056D01*
X0089729Y0126071D01*
X0089744Y0126083D01*
X0089762Y0126092D01*
X0089780Y0126098D01*
X0089800Y0126100D01*
X0089820Y0126098D01*
X0089838Y0126092D01*
X0089856Y0126083D01*
X0089871Y0126071D01*
X0089883Y0126056D01*
X0089892Y0126038D01*
X0089898Y0126020D01*
X0089900Y0126000D01*
X0089898Y0125980D01*
X0089892Y0125962D01*
X0089883Y0125944D01*
X0089871Y0125929D01*
X0089856Y0125917D01*
X0089838Y0125908D01*
X0089820Y0125902D01*
X0089800Y0125900D01*
X0089780Y0125902D01*
X0089762Y0125908D01*
X0089744Y0125917D01*
X0089729Y0125929D01*
X0089717Y0125944D01*
X0089708Y0125962D01*
X0089702Y0125980D01*
X0089700Y0126000D01*
X0089300Y0126000D02*
X0089302Y0126044D01*
X0089308Y0126088D01*
X0089318Y0126131D01*
X0089331Y0126173D01*
X0089348Y0126214D01*
X0089369Y0126253D01*
X0089393Y0126290D01*
X0089420Y0126325D01*
X0089450Y0126357D01*
X0089483Y0126387D01*
X0089519Y0126413D01*
X0089556Y0126437D01*
X0089596Y0126456D01*
X0089637Y0126473D01*
X0089680Y0126485D01*
X0089723Y0126494D01*
X0089767Y0126499D01*
X0089811Y0126500D01*
X0089855Y0126497D01*
X0089899Y0126490D01*
X0089942Y0126479D01*
X0089984Y0126465D01*
X0090024Y0126447D01*
X0090063Y0126425D01*
X0090099Y0126401D01*
X0090133Y0126373D01*
X0090165Y0126342D01*
X0090194Y0126308D01*
X0090220Y0126272D01*
X0090242Y0126234D01*
X0090261Y0126194D01*
X0090276Y0126152D01*
X0090288Y0126110D01*
X0090296Y0126066D01*
X0090300Y0126022D01*
X0090300Y0125978D01*
X0090296Y0125934D01*
X0090288Y0125890D01*
X0090276Y0125848D01*
X0090261Y0125806D01*
X0090242Y0125766D01*
X0090220Y0125728D01*
X0090194Y0125692D01*
X0090165Y0125658D01*
X0090133Y0125627D01*
X0090099Y0125599D01*
X0090063Y0125575D01*
X0090024Y0125553D01*
X0089984Y0125535D01*
X0089942Y0125521D01*
X0089899Y0125510D01*
X0089855Y0125503D01*
X0089811Y0125500D01*
X0089767Y0125501D01*
X0089723Y0125506D01*
X0089680Y0125515D01*
X0089637Y0125527D01*
X0089596Y0125544D01*
X0089556Y0125563D01*
X0089519Y0125587D01*
X0089483Y0125613D01*
X0089450Y0125643D01*
X0089420Y0125675D01*
X0089393Y0125710D01*
X0089369Y0125747D01*
X0089348Y0125786D01*
X0089331Y0125827D01*
X0089318Y0125869D01*
X0089308Y0125912D01*
X0089302Y0125956D01*
X0089300Y0126000D01*
X0084640Y0116000D02*
X0084642Y0116058D01*
X0084648Y0116116D01*
X0084658Y0116173D01*
X0084671Y0116230D01*
X0084689Y0116285D01*
X0084710Y0116339D01*
X0084734Y0116392D01*
X0084763Y0116443D01*
X0084794Y0116491D01*
X0084829Y0116538D01*
X0084867Y0116582D01*
X0084907Y0116623D01*
X0084951Y0116662D01*
X0084997Y0116697D01*
X0085045Y0116730D01*
X0085095Y0116759D01*
X0085148Y0116784D01*
X0085201Y0116806D01*
X0085256Y0116825D01*
X0085313Y0116839D01*
X0085370Y0116850D01*
X0085427Y0116857D01*
X0085485Y0116860D01*
X0085544Y0116859D01*
X0085601Y0116854D01*
X0085659Y0116845D01*
X0085716Y0116833D01*
X0085771Y0116816D01*
X0085826Y0116796D01*
X0085879Y0116772D01*
X0085930Y0116745D01*
X0085979Y0116714D01*
X0086026Y0116680D01*
X0086071Y0116643D01*
X0086113Y0116603D01*
X0086153Y0116560D01*
X0086189Y0116515D01*
X0086222Y0116467D01*
X0086252Y0116417D01*
X0086278Y0116366D01*
X0086301Y0116312D01*
X0086321Y0116257D01*
X0086336Y0116201D01*
X0086348Y0116145D01*
X0086356Y0116087D01*
X0086360Y0116029D01*
X0086360Y0115971D01*
X0086356Y0115913D01*
X0086348Y0115855D01*
X0086336Y0115799D01*
X0086321Y0115743D01*
X0086301Y0115688D01*
X0086278Y0115634D01*
X0086252Y0115583D01*
X0086222Y0115533D01*
X0086189Y0115485D01*
X0086153Y0115440D01*
X0086113Y0115397D01*
X0086071Y0115357D01*
X0086026Y0115320D01*
X0085979Y0115286D01*
X0085930Y0115255D01*
X0085879Y0115228D01*
X0085826Y0115204D01*
X0085771Y0115184D01*
X0085716Y0115167D01*
X0085659Y0115155D01*
X0085601Y0115146D01*
X0085544Y0115141D01*
X0085485Y0115140D01*
X0085427Y0115143D01*
X0085370Y0115150D01*
X0085313Y0115161D01*
X0085256Y0115175D01*
X0085201Y0115194D01*
X0085148Y0115216D01*
X0085095Y0115241D01*
X0085045Y0115270D01*
X0084997Y0115303D01*
X0084951Y0115338D01*
X0084907Y0115377D01*
X0084867Y0115418D01*
X0084829Y0115462D01*
X0084794Y0115509D01*
X0084763Y0115557D01*
X0084734Y0115608D01*
X0084710Y0115661D01*
X0084689Y0115715D01*
X0084671Y0115770D01*
X0084658Y0115827D01*
X0084648Y0115884D01*
X0084642Y0115942D01*
X0084640Y0116000D01*
X0085400Y0116000D02*
X0085402Y0116020D01*
X0085408Y0116038D01*
X0085417Y0116056D01*
X0085429Y0116071D01*
X0085444Y0116083D01*
X0085462Y0116092D01*
X0085480Y0116098D01*
X0085500Y0116100D01*
X0085520Y0116098D01*
X0085538Y0116092D01*
X0085556Y0116083D01*
X0085571Y0116071D01*
X0085583Y0116056D01*
X0085592Y0116038D01*
X0085598Y0116020D01*
X0085600Y0116000D01*
X0085598Y0115980D01*
X0085592Y0115962D01*
X0085583Y0115944D01*
X0085571Y0115929D01*
X0085556Y0115917D01*
X0085538Y0115908D01*
X0085520Y0115902D01*
X0085500Y0115900D01*
X0085480Y0115902D01*
X0085462Y0115908D01*
X0085444Y0115917D01*
X0085429Y0115929D01*
X0085417Y0115944D01*
X0085408Y0115962D01*
X0085402Y0115980D01*
X0085400Y0116000D01*
X0085000Y0116000D02*
X0085002Y0116044D01*
X0085008Y0116088D01*
X0085018Y0116131D01*
X0085031Y0116173D01*
X0085048Y0116214D01*
X0085069Y0116253D01*
X0085093Y0116290D01*
X0085120Y0116325D01*
X0085150Y0116357D01*
X0085183Y0116387D01*
X0085219Y0116413D01*
X0085256Y0116437D01*
X0085296Y0116456D01*
X0085337Y0116473D01*
X0085380Y0116485D01*
X0085423Y0116494D01*
X0085467Y0116499D01*
X0085511Y0116500D01*
X0085555Y0116497D01*
X0085599Y0116490D01*
X0085642Y0116479D01*
X0085684Y0116465D01*
X0085724Y0116447D01*
X0085763Y0116425D01*
X0085799Y0116401D01*
X0085833Y0116373D01*
X0085865Y0116342D01*
X0085894Y0116308D01*
X0085920Y0116272D01*
X0085942Y0116234D01*
X0085961Y0116194D01*
X0085976Y0116152D01*
X0085988Y0116110D01*
X0085996Y0116066D01*
X0086000Y0116022D01*
X0086000Y0115978D01*
X0085996Y0115934D01*
X0085988Y0115890D01*
X0085976Y0115848D01*
X0085961Y0115806D01*
X0085942Y0115766D01*
X0085920Y0115728D01*
X0085894Y0115692D01*
X0085865Y0115658D01*
X0085833Y0115627D01*
X0085799Y0115599D01*
X0085763Y0115575D01*
X0085724Y0115553D01*
X0085684Y0115535D01*
X0085642Y0115521D01*
X0085599Y0115510D01*
X0085555Y0115503D01*
X0085511Y0115500D01*
X0085467Y0115501D01*
X0085423Y0115506D01*
X0085380Y0115515D01*
X0085337Y0115527D01*
X0085296Y0115544D01*
X0085256Y0115563D01*
X0085219Y0115587D01*
X0085183Y0115613D01*
X0085150Y0115643D01*
X0085120Y0115675D01*
X0085093Y0115710D01*
X0085069Y0115747D01*
X0085048Y0115786D01*
X0085031Y0115827D01*
X0085018Y0115869D01*
X0085008Y0115912D01*
X0085002Y0115956D01*
X0085000Y0116000D01*
X0045340Y0121700D02*
X0045342Y0121758D01*
X0045348Y0121816D01*
X0045358Y0121873D01*
X0045371Y0121930D01*
X0045389Y0121985D01*
X0045410Y0122039D01*
X0045434Y0122092D01*
X0045463Y0122143D01*
X0045494Y0122191D01*
X0045529Y0122238D01*
X0045567Y0122282D01*
X0045607Y0122323D01*
X0045651Y0122362D01*
X0045697Y0122397D01*
X0045745Y0122430D01*
X0045795Y0122459D01*
X0045848Y0122484D01*
X0045901Y0122506D01*
X0045956Y0122525D01*
X0046013Y0122539D01*
X0046070Y0122550D01*
X0046127Y0122557D01*
X0046185Y0122560D01*
X0046244Y0122559D01*
X0046301Y0122554D01*
X0046359Y0122545D01*
X0046416Y0122533D01*
X0046471Y0122516D01*
X0046526Y0122496D01*
X0046579Y0122472D01*
X0046630Y0122445D01*
X0046679Y0122414D01*
X0046726Y0122380D01*
X0046771Y0122343D01*
X0046813Y0122303D01*
X0046853Y0122260D01*
X0046889Y0122215D01*
X0046922Y0122167D01*
X0046952Y0122117D01*
X0046978Y0122066D01*
X0047001Y0122012D01*
X0047021Y0121957D01*
X0047036Y0121901D01*
X0047048Y0121845D01*
X0047056Y0121787D01*
X0047060Y0121729D01*
X0047060Y0121671D01*
X0047056Y0121613D01*
X0047048Y0121555D01*
X0047036Y0121499D01*
X0047021Y0121443D01*
X0047001Y0121388D01*
X0046978Y0121334D01*
X0046952Y0121283D01*
X0046922Y0121233D01*
X0046889Y0121185D01*
X0046853Y0121140D01*
X0046813Y0121097D01*
X0046771Y0121057D01*
X0046726Y0121020D01*
X0046679Y0120986D01*
X0046630Y0120955D01*
X0046579Y0120928D01*
X0046526Y0120904D01*
X0046471Y0120884D01*
X0046416Y0120867D01*
X0046359Y0120855D01*
X0046301Y0120846D01*
X0046244Y0120841D01*
X0046185Y0120840D01*
X0046127Y0120843D01*
X0046070Y0120850D01*
X0046013Y0120861D01*
X0045956Y0120875D01*
X0045901Y0120894D01*
X0045848Y0120916D01*
X0045795Y0120941D01*
X0045745Y0120970D01*
X0045697Y0121003D01*
X0045651Y0121038D01*
X0045607Y0121077D01*
X0045567Y0121118D01*
X0045529Y0121162D01*
X0045494Y0121209D01*
X0045463Y0121257D01*
X0045434Y0121308D01*
X0045410Y0121361D01*
X0045389Y0121415D01*
X0045371Y0121470D01*
X0045358Y0121527D01*
X0045348Y0121584D01*
X0045342Y0121642D01*
X0045340Y0121700D01*
X0046100Y0121700D02*
X0046102Y0121720D01*
X0046108Y0121738D01*
X0046117Y0121756D01*
X0046129Y0121771D01*
X0046144Y0121783D01*
X0046162Y0121792D01*
X0046180Y0121798D01*
X0046200Y0121800D01*
X0046220Y0121798D01*
X0046238Y0121792D01*
X0046256Y0121783D01*
X0046271Y0121771D01*
X0046283Y0121756D01*
X0046292Y0121738D01*
X0046298Y0121720D01*
X0046300Y0121700D01*
X0046298Y0121680D01*
X0046292Y0121662D01*
X0046283Y0121644D01*
X0046271Y0121629D01*
X0046256Y0121617D01*
X0046238Y0121608D01*
X0046220Y0121602D01*
X0046200Y0121600D01*
X0046180Y0121602D01*
X0046162Y0121608D01*
X0046144Y0121617D01*
X0046129Y0121629D01*
X0046117Y0121644D01*
X0046108Y0121662D01*
X0046102Y0121680D01*
X0046100Y0121700D01*
X0045700Y0121700D02*
X0045702Y0121744D01*
X0045708Y0121788D01*
X0045718Y0121831D01*
X0045731Y0121873D01*
X0045748Y0121914D01*
X0045769Y0121953D01*
X0045793Y0121990D01*
X0045820Y0122025D01*
X0045850Y0122057D01*
X0045883Y0122087D01*
X0045919Y0122113D01*
X0045956Y0122137D01*
X0045996Y0122156D01*
X0046037Y0122173D01*
X0046080Y0122185D01*
X0046123Y0122194D01*
X0046167Y0122199D01*
X0046211Y0122200D01*
X0046255Y0122197D01*
X0046299Y0122190D01*
X0046342Y0122179D01*
X0046384Y0122165D01*
X0046424Y0122147D01*
X0046463Y0122125D01*
X0046499Y0122101D01*
X0046533Y0122073D01*
X0046565Y0122042D01*
X0046594Y0122008D01*
X0046620Y0121972D01*
X0046642Y0121934D01*
X0046661Y0121894D01*
X0046676Y0121852D01*
X0046688Y0121810D01*
X0046696Y0121766D01*
X0046700Y0121722D01*
X0046700Y0121678D01*
X0046696Y0121634D01*
X0046688Y0121590D01*
X0046676Y0121548D01*
X0046661Y0121506D01*
X0046642Y0121466D01*
X0046620Y0121428D01*
X0046594Y0121392D01*
X0046565Y0121358D01*
X0046533Y0121327D01*
X0046499Y0121299D01*
X0046463Y0121275D01*
X0046424Y0121253D01*
X0046384Y0121235D01*
X0046342Y0121221D01*
X0046299Y0121210D01*
X0046255Y0121203D01*
X0046211Y0121200D01*
X0046167Y0121201D01*
X0046123Y0121206D01*
X0046080Y0121215D01*
X0046037Y0121227D01*
X0045996Y0121244D01*
X0045956Y0121263D01*
X0045919Y0121287D01*
X0045883Y0121313D01*
X0045850Y0121343D01*
X0045820Y0121375D01*
X0045793Y0121410D01*
X0045769Y0121447D01*
X0045748Y0121486D01*
X0045731Y0121527D01*
X0045718Y0121569D01*
X0045708Y0121612D01*
X0045702Y0121656D01*
X0045700Y0121700D01*
X0042100Y0140800D02*
X0040100Y0140800D01*
X0034200Y0146800D02*
X0034200Y0153700D01*
X0034100Y0153800D02*
X0037100Y0153800D01*
X0045100Y0153800D02*
X0048100Y0153800D01*
X0048000Y0153700D02*
X0048000Y0146800D01*
X0026500Y0146500D02*
X0026500Y0153400D01*
X0026600Y0153500D02*
X0023600Y0153500D01*
X0015600Y0153500D02*
X0012600Y0153500D01*
X0012700Y0153400D02*
X0012700Y0146500D01*
X0018600Y0140500D02*
X0020600Y0140500D01*
X0017440Y0095200D02*
X0017442Y0095258D01*
X0017448Y0095316D01*
X0017458Y0095373D01*
X0017471Y0095430D01*
X0017489Y0095485D01*
X0017510Y0095539D01*
X0017534Y0095592D01*
X0017563Y0095643D01*
X0017594Y0095691D01*
X0017629Y0095738D01*
X0017667Y0095782D01*
X0017707Y0095823D01*
X0017751Y0095862D01*
X0017797Y0095897D01*
X0017845Y0095930D01*
X0017895Y0095959D01*
X0017948Y0095984D01*
X0018001Y0096006D01*
X0018056Y0096025D01*
X0018113Y0096039D01*
X0018170Y0096050D01*
X0018227Y0096057D01*
X0018285Y0096060D01*
X0018344Y0096059D01*
X0018401Y0096054D01*
X0018459Y0096045D01*
X0018516Y0096033D01*
X0018571Y0096016D01*
X0018626Y0095996D01*
X0018679Y0095972D01*
X0018730Y0095945D01*
X0018779Y0095914D01*
X0018826Y0095880D01*
X0018871Y0095843D01*
X0018913Y0095803D01*
X0018953Y0095760D01*
X0018989Y0095715D01*
X0019022Y0095667D01*
X0019052Y0095617D01*
X0019078Y0095566D01*
X0019101Y0095512D01*
X0019121Y0095457D01*
X0019136Y0095401D01*
X0019148Y0095345D01*
X0019156Y0095287D01*
X0019160Y0095229D01*
X0019160Y0095171D01*
X0019156Y0095113D01*
X0019148Y0095055D01*
X0019136Y0094999D01*
X0019121Y0094943D01*
X0019101Y0094888D01*
X0019078Y0094834D01*
X0019052Y0094783D01*
X0019022Y0094733D01*
X0018989Y0094685D01*
X0018953Y0094640D01*
X0018913Y0094597D01*
X0018871Y0094557D01*
X0018826Y0094520D01*
X0018779Y0094486D01*
X0018730Y0094455D01*
X0018679Y0094428D01*
X0018626Y0094404D01*
X0018571Y0094384D01*
X0018516Y0094367D01*
X0018459Y0094355D01*
X0018401Y0094346D01*
X0018344Y0094341D01*
X0018285Y0094340D01*
X0018227Y0094343D01*
X0018170Y0094350D01*
X0018113Y0094361D01*
X0018056Y0094375D01*
X0018001Y0094394D01*
X0017948Y0094416D01*
X0017895Y0094441D01*
X0017845Y0094470D01*
X0017797Y0094503D01*
X0017751Y0094538D01*
X0017707Y0094577D01*
X0017667Y0094618D01*
X0017629Y0094662D01*
X0017594Y0094709D01*
X0017563Y0094757D01*
X0017534Y0094808D01*
X0017510Y0094861D01*
X0017489Y0094915D01*
X0017471Y0094970D01*
X0017458Y0095027D01*
X0017448Y0095084D01*
X0017442Y0095142D01*
X0017440Y0095200D01*
X0018200Y0095200D02*
X0018202Y0095220D01*
X0018208Y0095238D01*
X0018217Y0095256D01*
X0018229Y0095271D01*
X0018244Y0095283D01*
X0018262Y0095292D01*
X0018280Y0095298D01*
X0018300Y0095300D01*
X0018320Y0095298D01*
X0018338Y0095292D01*
X0018356Y0095283D01*
X0018371Y0095271D01*
X0018383Y0095256D01*
X0018392Y0095238D01*
X0018398Y0095220D01*
X0018400Y0095200D01*
X0018398Y0095180D01*
X0018392Y0095162D01*
X0018383Y0095144D01*
X0018371Y0095129D01*
X0018356Y0095117D01*
X0018338Y0095108D01*
X0018320Y0095102D01*
X0018300Y0095100D01*
X0018280Y0095102D01*
X0018262Y0095108D01*
X0018244Y0095117D01*
X0018229Y0095129D01*
X0018217Y0095144D01*
X0018208Y0095162D01*
X0018202Y0095180D01*
X0018200Y0095200D01*
X0017800Y0095200D02*
X0017802Y0095244D01*
X0017808Y0095288D01*
X0017818Y0095331D01*
X0017831Y0095373D01*
X0017848Y0095414D01*
X0017869Y0095453D01*
X0017893Y0095490D01*
X0017920Y0095525D01*
X0017950Y0095557D01*
X0017983Y0095587D01*
X0018019Y0095613D01*
X0018056Y0095637D01*
X0018096Y0095656D01*
X0018137Y0095673D01*
X0018180Y0095685D01*
X0018223Y0095694D01*
X0018267Y0095699D01*
X0018311Y0095700D01*
X0018355Y0095697D01*
X0018399Y0095690D01*
X0018442Y0095679D01*
X0018484Y0095665D01*
X0018524Y0095647D01*
X0018563Y0095625D01*
X0018599Y0095601D01*
X0018633Y0095573D01*
X0018665Y0095542D01*
X0018694Y0095508D01*
X0018720Y0095472D01*
X0018742Y0095434D01*
X0018761Y0095394D01*
X0018776Y0095352D01*
X0018788Y0095310D01*
X0018796Y0095266D01*
X0018800Y0095222D01*
X0018800Y0095178D01*
X0018796Y0095134D01*
X0018788Y0095090D01*
X0018776Y0095048D01*
X0018761Y0095006D01*
X0018742Y0094966D01*
X0018720Y0094928D01*
X0018694Y0094892D01*
X0018665Y0094858D01*
X0018633Y0094827D01*
X0018599Y0094799D01*
X0018563Y0094775D01*
X0018524Y0094753D01*
X0018484Y0094735D01*
X0018442Y0094721D01*
X0018399Y0094710D01*
X0018355Y0094703D01*
X0018311Y0094700D01*
X0018267Y0094701D01*
X0018223Y0094706D01*
X0018180Y0094715D01*
X0018137Y0094727D01*
X0018096Y0094744D01*
X0018056Y0094763D01*
X0018019Y0094787D01*
X0017983Y0094813D01*
X0017950Y0094843D01*
X0017920Y0094875D01*
X0017893Y0094910D01*
X0017869Y0094947D01*
X0017848Y0094986D01*
X0017831Y0095027D01*
X0017818Y0095069D01*
X0017808Y0095112D01*
X0017802Y0095156D01*
X0017800Y0095200D01*
X0032240Y0095800D02*
X0032242Y0095858D01*
X0032248Y0095916D01*
X0032258Y0095973D01*
X0032271Y0096030D01*
X0032289Y0096085D01*
X0032310Y0096139D01*
X0032334Y0096192D01*
X0032363Y0096243D01*
X0032394Y0096291D01*
X0032429Y0096338D01*
X0032467Y0096382D01*
X0032507Y0096423D01*
X0032551Y0096462D01*
X0032597Y0096497D01*
X0032645Y0096530D01*
X0032695Y0096559D01*
X0032748Y0096584D01*
X0032801Y0096606D01*
X0032856Y0096625D01*
X0032913Y0096639D01*
X0032970Y0096650D01*
X0033027Y0096657D01*
X0033085Y0096660D01*
X0033144Y0096659D01*
X0033201Y0096654D01*
X0033259Y0096645D01*
X0033316Y0096633D01*
X0033371Y0096616D01*
X0033426Y0096596D01*
X0033479Y0096572D01*
X0033530Y0096545D01*
X0033579Y0096514D01*
X0033626Y0096480D01*
X0033671Y0096443D01*
X0033713Y0096403D01*
X0033753Y0096360D01*
X0033789Y0096315D01*
X0033822Y0096267D01*
X0033852Y0096217D01*
X0033878Y0096166D01*
X0033901Y0096112D01*
X0033921Y0096057D01*
X0033936Y0096001D01*
X0033948Y0095945D01*
X0033956Y0095887D01*
X0033960Y0095829D01*
X0033960Y0095771D01*
X0033956Y0095713D01*
X0033948Y0095655D01*
X0033936Y0095599D01*
X0033921Y0095543D01*
X0033901Y0095488D01*
X0033878Y0095434D01*
X0033852Y0095383D01*
X0033822Y0095333D01*
X0033789Y0095285D01*
X0033753Y0095240D01*
X0033713Y0095197D01*
X0033671Y0095157D01*
X0033626Y0095120D01*
X0033579Y0095086D01*
X0033530Y0095055D01*
X0033479Y0095028D01*
X0033426Y0095004D01*
X0033371Y0094984D01*
X0033316Y0094967D01*
X0033259Y0094955D01*
X0033201Y0094946D01*
X0033144Y0094941D01*
X0033085Y0094940D01*
X0033027Y0094943D01*
X0032970Y0094950D01*
X0032913Y0094961D01*
X0032856Y0094975D01*
X0032801Y0094994D01*
X0032748Y0095016D01*
X0032695Y0095041D01*
X0032645Y0095070D01*
X0032597Y0095103D01*
X0032551Y0095138D01*
X0032507Y0095177D01*
X0032467Y0095218D01*
X0032429Y0095262D01*
X0032394Y0095309D01*
X0032363Y0095357D01*
X0032334Y0095408D01*
X0032310Y0095461D01*
X0032289Y0095515D01*
X0032271Y0095570D01*
X0032258Y0095627D01*
X0032248Y0095684D01*
X0032242Y0095742D01*
X0032240Y0095800D01*
X0033000Y0095800D02*
X0033002Y0095820D01*
X0033008Y0095838D01*
X0033017Y0095856D01*
X0033029Y0095871D01*
X0033044Y0095883D01*
X0033062Y0095892D01*
X0033080Y0095898D01*
X0033100Y0095900D01*
X0033120Y0095898D01*
X0033138Y0095892D01*
X0033156Y0095883D01*
X0033171Y0095871D01*
X0033183Y0095856D01*
X0033192Y0095838D01*
X0033198Y0095820D01*
X0033200Y0095800D01*
X0033198Y0095780D01*
X0033192Y0095762D01*
X0033183Y0095744D01*
X0033171Y0095729D01*
X0033156Y0095717D01*
X0033138Y0095708D01*
X0033120Y0095702D01*
X0033100Y0095700D01*
X0033080Y0095702D01*
X0033062Y0095708D01*
X0033044Y0095717D01*
X0033029Y0095729D01*
X0033017Y0095744D01*
X0033008Y0095762D01*
X0033002Y0095780D01*
X0033000Y0095800D01*
X0032600Y0095800D02*
X0032602Y0095844D01*
X0032608Y0095888D01*
X0032618Y0095931D01*
X0032631Y0095973D01*
X0032648Y0096014D01*
X0032669Y0096053D01*
X0032693Y0096090D01*
X0032720Y0096125D01*
X0032750Y0096157D01*
X0032783Y0096187D01*
X0032819Y0096213D01*
X0032856Y0096237D01*
X0032896Y0096256D01*
X0032937Y0096273D01*
X0032980Y0096285D01*
X0033023Y0096294D01*
X0033067Y0096299D01*
X0033111Y0096300D01*
X0033155Y0096297D01*
X0033199Y0096290D01*
X0033242Y0096279D01*
X0033284Y0096265D01*
X0033324Y0096247D01*
X0033363Y0096225D01*
X0033399Y0096201D01*
X0033433Y0096173D01*
X0033465Y0096142D01*
X0033494Y0096108D01*
X0033520Y0096072D01*
X0033542Y0096034D01*
X0033561Y0095994D01*
X0033576Y0095952D01*
X0033588Y0095910D01*
X0033596Y0095866D01*
X0033600Y0095822D01*
X0033600Y0095778D01*
X0033596Y0095734D01*
X0033588Y0095690D01*
X0033576Y0095648D01*
X0033561Y0095606D01*
X0033542Y0095566D01*
X0033520Y0095528D01*
X0033494Y0095492D01*
X0033465Y0095458D01*
X0033433Y0095427D01*
X0033399Y0095399D01*
X0033363Y0095375D01*
X0033324Y0095353D01*
X0033284Y0095335D01*
X0033242Y0095321D01*
X0033199Y0095310D01*
X0033155Y0095303D01*
X0033111Y0095300D01*
X0033067Y0095301D01*
X0033023Y0095306D01*
X0032980Y0095315D01*
X0032937Y0095327D01*
X0032896Y0095344D01*
X0032856Y0095363D01*
X0032819Y0095387D01*
X0032783Y0095413D01*
X0032750Y0095443D01*
X0032720Y0095475D01*
X0032693Y0095510D01*
X0032669Y0095547D01*
X0032648Y0095586D01*
X0032631Y0095627D01*
X0032618Y0095669D01*
X0032608Y0095712D01*
X0032602Y0095756D01*
X0032600Y0095800D01*
X0030640Y0050500D02*
X0030642Y0050558D01*
X0030648Y0050616D01*
X0030658Y0050673D01*
X0030671Y0050730D01*
X0030689Y0050785D01*
X0030710Y0050839D01*
X0030734Y0050892D01*
X0030763Y0050943D01*
X0030794Y0050991D01*
X0030829Y0051038D01*
X0030867Y0051082D01*
X0030907Y0051123D01*
X0030951Y0051162D01*
X0030997Y0051197D01*
X0031045Y0051230D01*
X0031095Y0051259D01*
X0031148Y0051284D01*
X0031201Y0051306D01*
X0031256Y0051325D01*
X0031313Y0051339D01*
X0031370Y0051350D01*
X0031427Y0051357D01*
X0031485Y0051360D01*
X0031544Y0051359D01*
X0031601Y0051354D01*
X0031659Y0051345D01*
X0031716Y0051333D01*
X0031771Y0051316D01*
X0031826Y0051296D01*
X0031879Y0051272D01*
X0031930Y0051245D01*
X0031979Y0051214D01*
X0032026Y0051180D01*
X0032071Y0051143D01*
X0032113Y0051103D01*
X0032153Y0051060D01*
X0032189Y0051015D01*
X0032222Y0050967D01*
X0032252Y0050917D01*
X0032278Y0050866D01*
X0032301Y0050812D01*
X0032321Y0050757D01*
X0032336Y0050701D01*
X0032348Y0050645D01*
X0032356Y0050587D01*
X0032360Y0050529D01*
X0032360Y0050471D01*
X0032356Y0050413D01*
X0032348Y0050355D01*
X0032336Y0050299D01*
X0032321Y0050243D01*
X0032301Y0050188D01*
X0032278Y0050134D01*
X0032252Y0050083D01*
X0032222Y0050033D01*
X0032189Y0049985D01*
X0032153Y0049940D01*
X0032113Y0049897D01*
X0032071Y0049857D01*
X0032026Y0049820D01*
X0031979Y0049786D01*
X0031930Y0049755D01*
X0031879Y0049728D01*
X0031826Y0049704D01*
X0031771Y0049684D01*
X0031716Y0049667D01*
X0031659Y0049655D01*
X0031601Y0049646D01*
X0031544Y0049641D01*
X0031485Y0049640D01*
X0031427Y0049643D01*
X0031370Y0049650D01*
X0031313Y0049661D01*
X0031256Y0049675D01*
X0031201Y0049694D01*
X0031148Y0049716D01*
X0031095Y0049741D01*
X0031045Y0049770D01*
X0030997Y0049803D01*
X0030951Y0049838D01*
X0030907Y0049877D01*
X0030867Y0049918D01*
X0030829Y0049962D01*
X0030794Y0050009D01*
X0030763Y0050057D01*
X0030734Y0050108D01*
X0030710Y0050161D01*
X0030689Y0050215D01*
X0030671Y0050270D01*
X0030658Y0050327D01*
X0030648Y0050384D01*
X0030642Y0050442D01*
X0030640Y0050500D01*
X0031400Y0050500D02*
X0031402Y0050520D01*
X0031408Y0050538D01*
X0031417Y0050556D01*
X0031429Y0050571D01*
X0031444Y0050583D01*
X0031462Y0050592D01*
X0031480Y0050598D01*
X0031500Y0050600D01*
X0031520Y0050598D01*
X0031538Y0050592D01*
X0031556Y0050583D01*
X0031571Y0050571D01*
X0031583Y0050556D01*
X0031592Y0050538D01*
X0031598Y0050520D01*
X0031600Y0050500D01*
X0031598Y0050480D01*
X0031592Y0050462D01*
X0031583Y0050444D01*
X0031571Y0050429D01*
X0031556Y0050417D01*
X0031538Y0050408D01*
X0031520Y0050402D01*
X0031500Y0050400D01*
X0031480Y0050402D01*
X0031462Y0050408D01*
X0031444Y0050417D01*
X0031429Y0050429D01*
X0031417Y0050444D01*
X0031408Y0050462D01*
X0031402Y0050480D01*
X0031400Y0050500D01*
X0031000Y0050500D02*
X0031002Y0050544D01*
X0031008Y0050588D01*
X0031018Y0050631D01*
X0031031Y0050673D01*
X0031048Y0050714D01*
X0031069Y0050753D01*
X0031093Y0050790D01*
X0031120Y0050825D01*
X0031150Y0050857D01*
X0031183Y0050887D01*
X0031219Y0050913D01*
X0031256Y0050937D01*
X0031296Y0050956D01*
X0031337Y0050973D01*
X0031380Y0050985D01*
X0031423Y0050994D01*
X0031467Y0050999D01*
X0031511Y0051000D01*
X0031555Y0050997D01*
X0031599Y0050990D01*
X0031642Y0050979D01*
X0031684Y0050965D01*
X0031724Y0050947D01*
X0031763Y0050925D01*
X0031799Y0050901D01*
X0031833Y0050873D01*
X0031865Y0050842D01*
X0031894Y0050808D01*
X0031920Y0050772D01*
X0031942Y0050734D01*
X0031961Y0050694D01*
X0031976Y0050652D01*
X0031988Y0050610D01*
X0031996Y0050566D01*
X0032000Y0050522D01*
X0032000Y0050478D01*
X0031996Y0050434D01*
X0031988Y0050390D01*
X0031976Y0050348D01*
X0031961Y0050306D01*
X0031942Y0050266D01*
X0031920Y0050228D01*
X0031894Y0050192D01*
X0031865Y0050158D01*
X0031833Y0050127D01*
X0031799Y0050099D01*
X0031763Y0050075D01*
X0031724Y0050053D01*
X0031684Y0050035D01*
X0031642Y0050021D01*
X0031599Y0050010D01*
X0031555Y0050003D01*
X0031511Y0050000D01*
X0031467Y0050001D01*
X0031423Y0050006D01*
X0031380Y0050015D01*
X0031337Y0050027D01*
X0031296Y0050044D01*
X0031256Y0050063D01*
X0031219Y0050087D01*
X0031183Y0050113D01*
X0031150Y0050143D01*
X0031120Y0050175D01*
X0031093Y0050210D01*
X0031069Y0050247D01*
X0031048Y0050286D01*
X0031031Y0050327D01*
X0031018Y0050369D01*
X0031008Y0050412D01*
X0031002Y0050456D01*
X0031000Y0050500D01*
X0060800Y0025000D02*
X0060800Y0017000D01*
X0077640Y0038900D02*
X0077642Y0038958D01*
X0077648Y0039016D01*
X0077658Y0039073D01*
X0077671Y0039130D01*
X0077689Y0039185D01*
X0077710Y0039239D01*
X0077734Y0039292D01*
X0077763Y0039343D01*
X0077794Y0039391D01*
X0077829Y0039438D01*
X0077867Y0039482D01*
X0077907Y0039523D01*
X0077951Y0039562D01*
X0077997Y0039597D01*
X0078045Y0039630D01*
X0078095Y0039659D01*
X0078148Y0039684D01*
X0078201Y0039706D01*
X0078256Y0039725D01*
X0078313Y0039739D01*
X0078370Y0039750D01*
X0078427Y0039757D01*
X0078485Y0039760D01*
X0078544Y0039759D01*
X0078601Y0039754D01*
X0078659Y0039745D01*
X0078716Y0039733D01*
X0078771Y0039716D01*
X0078826Y0039696D01*
X0078879Y0039672D01*
X0078930Y0039645D01*
X0078979Y0039614D01*
X0079026Y0039580D01*
X0079071Y0039543D01*
X0079113Y0039503D01*
X0079153Y0039460D01*
X0079189Y0039415D01*
X0079222Y0039367D01*
X0079252Y0039317D01*
X0079278Y0039266D01*
X0079301Y0039212D01*
X0079321Y0039157D01*
X0079336Y0039101D01*
X0079348Y0039045D01*
X0079356Y0038987D01*
X0079360Y0038929D01*
X0079360Y0038871D01*
X0079356Y0038813D01*
X0079348Y0038755D01*
X0079336Y0038699D01*
X0079321Y0038643D01*
X0079301Y0038588D01*
X0079278Y0038534D01*
X0079252Y0038483D01*
X0079222Y0038433D01*
X0079189Y0038385D01*
X0079153Y0038340D01*
X0079113Y0038297D01*
X0079071Y0038257D01*
X0079026Y0038220D01*
X0078979Y0038186D01*
X0078930Y0038155D01*
X0078879Y0038128D01*
X0078826Y0038104D01*
X0078771Y0038084D01*
X0078716Y0038067D01*
X0078659Y0038055D01*
X0078601Y0038046D01*
X0078544Y0038041D01*
X0078485Y0038040D01*
X0078427Y0038043D01*
X0078370Y0038050D01*
X0078313Y0038061D01*
X0078256Y0038075D01*
X0078201Y0038094D01*
X0078148Y0038116D01*
X0078095Y0038141D01*
X0078045Y0038170D01*
X0077997Y0038203D01*
X0077951Y0038238D01*
X0077907Y0038277D01*
X0077867Y0038318D01*
X0077829Y0038362D01*
X0077794Y0038409D01*
X0077763Y0038457D01*
X0077734Y0038508D01*
X0077710Y0038561D01*
X0077689Y0038615D01*
X0077671Y0038670D01*
X0077658Y0038727D01*
X0077648Y0038784D01*
X0077642Y0038842D01*
X0077640Y0038900D01*
X0078400Y0038900D02*
X0078402Y0038920D01*
X0078408Y0038938D01*
X0078417Y0038956D01*
X0078429Y0038971D01*
X0078444Y0038983D01*
X0078462Y0038992D01*
X0078480Y0038998D01*
X0078500Y0039000D01*
X0078520Y0038998D01*
X0078538Y0038992D01*
X0078556Y0038983D01*
X0078571Y0038971D01*
X0078583Y0038956D01*
X0078592Y0038938D01*
X0078598Y0038920D01*
X0078600Y0038900D01*
X0078598Y0038880D01*
X0078592Y0038862D01*
X0078583Y0038844D01*
X0078571Y0038829D01*
X0078556Y0038817D01*
X0078538Y0038808D01*
X0078520Y0038802D01*
X0078500Y0038800D01*
X0078480Y0038802D01*
X0078462Y0038808D01*
X0078444Y0038817D01*
X0078429Y0038829D01*
X0078417Y0038844D01*
X0078408Y0038862D01*
X0078402Y0038880D01*
X0078400Y0038900D01*
X0078000Y0038900D02*
X0078002Y0038944D01*
X0078008Y0038988D01*
X0078018Y0039031D01*
X0078031Y0039073D01*
X0078048Y0039114D01*
X0078069Y0039153D01*
X0078093Y0039190D01*
X0078120Y0039225D01*
X0078150Y0039257D01*
X0078183Y0039287D01*
X0078219Y0039313D01*
X0078256Y0039337D01*
X0078296Y0039356D01*
X0078337Y0039373D01*
X0078380Y0039385D01*
X0078423Y0039394D01*
X0078467Y0039399D01*
X0078511Y0039400D01*
X0078555Y0039397D01*
X0078599Y0039390D01*
X0078642Y0039379D01*
X0078684Y0039365D01*
X0078724Y0039347D01*
X0078763Y0039325D01*
X0078799Y0039301D01*
X0078833Y0039273D01*
X0078865Y0039242D01*
X0078894Y0039208D01*
X0078920Y0039172D01*
X0078942Y0039134D01*
X0078961Y0039094D01*
X0078976Y0039052D01*
X0078988Y0039010D01*
X0078996Y0038966D01*
X0079000Y0038922D01*
X0079000Y0038878D01*
X0078996Y0038834D01*
X0078988Y0038790D01*
X0078976Y0038748D01*
X0078961Y0038706D01*
X0078942Y0038666D01*
X0078920Y0038628D01*
X0078894Y0038592D01*
X0078865Y0038558D01*
X0078833Y0038527D01*
X0078799Y0038499D01*
X0078763Y0038475D01*
X0078724Y0038453D01*
X0078684Y0038435D01*
X0078642Y0038421D01*
X0078599Y0038410D01*
X0078555Y0038403D01*
X0078511Y0038400D01*
X0078467Y0038401D01*
X0078423Y0038406D01*
X0078380Y0038415D01*
X0078337Y0038427D01*
X0078296Y0038444D01*
X0078256Y0038463D01*
X0078219Y0038487D01*
X0078183Y0038513D01*
X0078150Y0038543D01*
X0078120Y0038575D01*
X0078093Y0038610D01*
X0078069Y0038647D01*
X0078048Y0038686D01*
X0078031Y0038727D01*
X0078018Y0038769D01*
X0078008Y0038812D01*
X0078002Y0038856D01*
X0078000Y0038900D01*
X0120540Y0042700D02*
X0120542Y0042758D01*
X0120548Y0042816D01*
X0120558Y0042873D01*
X0120571Y0042930D01*
X0120589Y0042985D01*
X0120610Y0043039D01*
X0120634Y0043092D01*
X0120663Y0043143D01*
X0120694Y0043191D01*
X0120729Y0043238D01*
X0120767Y0043282D01*
X0120807Y0043323D01*
X0120851Y0043362D01*
X0120897Y0043397D01*
X0120945Y0043430D01*
X0120995Y0043459D01*
X0121048Y0043484D01*
X0121101Y0043506D01*
X0121156Y0043525D01*
X0121213Y0043539D01*
X0121270Y0043550D01*
X0121327Y0043557D01*
X0121385Y0043560D01*
X0121444Y0043559D01*
X0121501Y0043554D01*
X0121559Y0043545D01*
X0121616Y0043533D01*
X0121671Y0043516D01*
X0121726Y0043496D01*
X0121779Y0043472D01*
X0121830Y0043445D01*
X0121879Y0043414D01*
X0121926Y0043380D01*
X0121971Y0043343D01*
X0122013Y0043303D01*
X0122053Y0043260D01*
X0122089Y0043215D01*
X0122122Y0043167D01*
X0122152Y0043117D01*
X0122178Y0043066D01*
X0122201Y0043012D01*
X0122221Y0042957D01*
X0122236Y0042901D01*
X0122248Y0042845D01*
X0122256Y0042787D01*
X0122260Y0042729D01*
X0122260Y0042671D01*
X0122256Y0042613D01*
X0122248Y0042555D01*
X0122236Y0042499D01*
X0122221Y0042443D01*
X0122201Y0042388D01*
X0122178Y0042334D01*
X0122152Y0042283D01*
X0122122Y0042233D01*
X0122089Y0042185D01*
X0122053Y0042140D01*
X0122013Y0042097D01*
X0121971Y0042057D01*
X0121926Y0042020D01*
X0121879Y0041986D01*
X0121830Y0041955D01*
X0121779Y0041928D01*
X0121726Y0041904D01*
X0121671Y0041884D01*
X0121616Y0041867D01*
X0121559Y0041855D01*
X0121501Y0041846D01*
X0121444Y0041841D01*
X0121385Y0041840D01*
X0121327Y0041843D01*
X0121270Y0041850D01*
X0121213Y0041861D01*
X0121156Y0041875D01*
X0121101Y0041894D01*
X0121048Y0041916D01*
X0120995Y0041941D01*
X0120945Y0041970D01*
X0120897Y0042003D01*
X0120851Y0042038D01*
X0120807Y0042077D01*
X0120767Y0042118D01*
X0120729Y0042162D01*
X0120694Y0042209D01*
X0120663Y0042257D01*
X0120634Y0042308D01*
X0120610Y0042361D01*
X0120589Y0042415D01*
X0120571Y0042470D01*
X0120558Y0042527D01*
X0120548Y0042584D01*
X0120542Y0042642D01*
X0120540Y0042700D01*
X0121300Y0042700D02*
X0121302Y0042720D01*
X0121308Y0042738D01*
X0121317Y0042756D01*
X0121329Y0042771D01*
X0121344Y0042783D01*
X0121362Y0042792D01*
X0121380Y0042798D01*
X0121400Y0042800D01*
X0121420Y0042798D01*
X0121438Y0042792D01*
X0121456Y0042783D01*
X0121471Y0042771D01*
X0121483Y0042756D01*
X0121492Y0042738D01*
X0121498Y0042720D01*
X0121500Y0042700D01*
X0121498Y0042680D01*
X0121492Y0042662D01*
X0121483Y0042644D01*
X0121471Y0042629D01*
X0121456Y0042617D01*
X0121438Y0042608D01*
X0121420Y0042602D01*
X0121400Y0042600D01*
X0121380Y0042602D01*
X0121362Y0042608D01*
X0121344Y0042617D01*
X0121329Y0042629D01*
X0121317Y0042644D01*
X0121308Y0042662D01*
X0121302Y0042680D01*
X0121300Y0042700D01*
X0120900Y0042700D02*
X0120902Y0042744D01*
X0120908Y0042788D01*
X0120918Y0042831D01*
X0120931Y0042873D01*
X0120948Y0042914D01*
X0120969Y0042953D01*
X0120993Y0042990D01*
X0121020Y0043025D01*
X0121050Y0043057D01*
X0121083Y0043087D01*
X0121119Y0043113D01*
X0121156Y0043137D01*
X0121196Y0043156D01*
X0121237Y0043173D01*
X0121280Y0043185D01*
X0121323Y0043194D01*
X0121367Y0043199D01*
X0121411Y0043200D01*
X0121455Y0043197D01*
X0121499Y0043190D01*
X0121542Y0043179D01*
X0121584Y0043165D01*
X0121624Y0043147D01*
X0121663Y0043125D01*
X0121699Y0043101D01*
X0121733Y0043073D01*
X0121765Y0043042D01*
X0121794Y0043008D01*
X0121820Y0042972D01*
X0121842Y0042934D01*
X0121861Y0042894D01*
X0121876Y0042852D01*
X0121888Y0042810D01*
X0121896Y0042766D01*
X0121900Y0042722D01*
X0121900Y0042678D01*
X0121896Y0042634D01*
X0121888Y0042590D01*
X0121876Y0042548D01*
X0121861Y0042506D01*
X0121842Y0042466D01*
X0121820Y0042428D01*
X0121794Y0042392D01*
X0121765Y0042358D01*
X0121733Y0042327D01*
X0121699Y0042299D01*
X0121663Y0042275D01*
X0121624Y0042253D01*
X0121584Y0042235D01*
X0121542Y0042221D01*
X0121499Y0042210D01*
X0121455Y0042203D01*
X0121411Y0042200D01*
X0121367Y0042201D01*
X0121323Y0042206D01*
X0121280Y0042215D01*
X0121237Y0042227D01*
X0121196Y0042244D01*
X0121156Y0042263D01*
X0121119Y0042287D01*
X0121083Y0042313D01*
X0121050Y0042343D01*
X0121020Y0042375D01*
X0120993Y0042410D01*
X0120969Y0042447D01*
X0120948Y0042486D01*
X0120931Y0042527D01*
X0120918Y0042569D01*
X0120908Y0042612D01*
X0120902Y0042656D01*
X0120900Y0042700D01*
X0132640Y0065900D02*
X0132642Y0065958D01*
X0132648Y0066016D01*
X0132658Y0066073D01*
X0132671Y0066130D01*
X0132689Y0066185D01*
X0132710Y0066239D01*
X0132734Y0066292D01*
X0132763Y0066343D01*
X0132794Y0066391D01*
X0132829Y0066438D01*
X0132867Y0066482D01*
X0132907Y0066523D01*
X0132951Y0066562D01*
X0132997Y0066597D01*
X0133045Y0066630D01*
X0133095Y0066659D01*
X0133148Y0066684D01*
X0133201Y0066706D01*
X0133256Y0066725D01*
X0133313Y0066739D01*
X0133370Y0066750D01*
X0133427Y0066757D01*
X0133485Y0066760D01*
X0133544Y0066759D01*
X0133601Y0066754D01*
X0133659Y0066745D01*
X0133716Y0066733D01*
X0133771Y0066716D01*
X0133826Y0066696D01*
X0133879Y0066672D01*
X0133930Y0066645D01*
X0133979Y0066614D01*
X0134026Y0066580D01*
X0134071Y0066543D01*
X0134113Y0066503D01*
X0134153Y0066460D01*
X0134189Y0066415D01*
X0134222Y0066367D01*
X0134252Y0066317D01*
X0134278Y0066266D01*
X0134301Y0066212D01*
X0134321Y0066157D01*
X0134336Y0066101D01*
X0134348Y0066045D01*
X0134356Y0065987D01*
X0134360Y0065929D01*
X0134360Y0065871D01*
X0134356Y0065813D01*
X0134348Y0065755D01*
X0134336Y0065699D01*
X0134321Y0065643D01*
X0134301Y0065588D01*
X0134278Y0065534D01*
X0134252Y0065483D01*
X0134222Y0065433D01*
X0134189Y0065385D01*
X0134153Y0065340D01*
X0134113Y0065297D01*
X0134071Y0065257D01*
X0134026Y0065220D01*
X0133979Y0065186D01*
X0133930Y0065155D01*
X0133879Y0065128D01*
X0133826Y0065104D01*
X0133771Y0065084D01*
X0133716Y0065067D01*
X0133659Y0065055D01*
X0133601Y0065046D01*
X0133544Y0065041D01*
X0133485Y0065040D01*
X0133427Y0065043D01*
X0133370Y0065050D01*
X0133313Y0065061D01*
X0133256Y0065075D01*
X0133201Y0065094D01*
X0133148Y0065116D01*
X0133095Y0065141D01*
X0133045Y0065170D01*
X0132997Y0065203D01*
X0132951Y0065238D01*
X0132907Y0065277D01*
X0132867Y0065318D01*
X0132829Y0065362D01*
X0132794Y0065409D01*
X0132763Y0065457D01*
X0132734Y0065508D01*
X0132710Y0065561D01*
X0132689Y0065615D01*
X0132671Y0065670D01*
X0132658Y0065727D01*
X0132648Y0065784D01*
X0132642Y0065842D01*
X0132640Y0065900D01*
X0133400Y0065900D02*
X0133402Y0065920D01*
X0133408Y0065938D01*
X0133417Y0065956D01*
X0133429Y0065971D01*
X0133444Y0065983D01*
X0133462Y0065992D01*
X0133480Y0065998D01*
X0133500Y0066000D01*
X0133520Y0065998D01*
X0133538Y0065992D01*
X0133556Y0065983D01*
X0133571Y0065971D01*
X0133583Y0065956D01*
X0133592Y0065938D01*
X0133598Y0065920D01*
X0133600Y0065900D01*
X0133598Y0065880D01*
X0133592Y0065862D01*
X0133583Y0065844D01*
X0133571Y0065829D01*
X0133556Y0065817D01*
X0133538Y0065808D01*
X0133520Y0065802D01*
X0133500Y0065800D01*
X0133480Y0065802D01*
X0133462Y0065808D01*
X0133444Y0065817D01*
X0133429Y0065829D01*
X0133417Y0065844D01*
X0133408Y0065862D01*
X0133402Y0065880D01*
X0133400Y0065900D01*
X0133000Y0065900D02*
X0133002Y0065944D01*
X0133008Y0065988D01*
X0133018Y0066031D01*
X0133031Y0066073D01*
X0133048Y0066114D01*
X0133069Y0066153D01*
X0133093Y0066190D01*
X0133120Y0066225D01*
X0133150Y0066257D01*
X0133183Y0066287D01*
X0133219Y0066313D01*
X0133256Y0066337D01*
X0133296Y0066356D01*
X0133337Y0066373D01*
X0133380Y0066385D01*
X0133423Y0066394D01*
X0133467Y0066399D01*
X0133511Y0066400D01*
X0133555Y0066397D01*
X0133599Y0066390D01*
X0133642Y0066379D01*
X0133684Y0066365D01*
X0133724Y0066347D01*
X0133763Y0066325D01*
X0133799Y0066301D01*
X0133833Y0066273D01*
X0133865Y0066242D01*
X0133894Y0066208D01*
X0133920Y0066172D01*
X0133942Y0066134D01*
X0133961Y0066094D01*
X0133976Y0066052D01*
X0133988Y0066010D01*
X0133996Y0065966D01*
X0134000Y0065922D01*
X0134000Y0065878D01*
X0133996Y0065834D01*
X0133988Y0065790D01*
X0133976Y0065748D01*
X0133961Y0065706D01*
X0133942Y0065666D01*
X0133920Y0065628D01*
X0133894Y0065592D01*
X0133865Y0065558D01*
X0133833Y0065527D01*
X0133799Y0065499D01*
X0133763Y0065475D01*
X0133724Y0065453D01*
X0133684Y0065435D01*
X0133642Y0065421D01*
X0133599Y0065410D01*
X0133555Y0065403D01*
X0133511Y0065400D01*
X0133467Y0065401D01*
X0133423Y0065406D01*
X0133380Y0065415D01*
X0133337Y0065427D01*
X0133296Y0065444D01*
X0133256Y0065463D01*
X0133219Y0065487D01*
X0133183Y0065513D01*
X0133150Y0065543D01*
X0133120Y0065575D01*
X0133093Y0065610D01*
X0133069Y0065647D01*
X0133048Y0065686D01*
X0133031Y0065727D01*
X0133018Y0065769D01*
X0133008Y0065812D01*
X0133002Y0065856D01*
X0133000Y0065900D01*
X0158940Y0070800D02*
X0158942Y0070858D01*
X0158948Y0070916D01*
X0158958Y0070973D01*
X0158971Y0071030D01*
X0158989Y0071085D01*
X0159010Y0071139D01*
X0159034Y0071192D01*
X0159063Y0071243D01*
X0159094Y0071291D01*
X0159129Y0071338D01*
X0159167Y0071382D01*
X0159207Y0071423D01*
X0159251Y0071462D01*
X0159297Y0071497D01*
X0159345Y0071530D01*
X0159395Y0071559D01*
X0159448Y0071584D01*
X0159501Y0071606D01*
X0159556Y0071625D01*
X0159613Y0071639D01*
X0159670Y0071650D01*
X0159727Y0071657D01*
X0159785Y0071660D01*
X0159844Y0071659D01*
X0159901Y0071654D01*
X0159959Y0071645D01*
X0160016Y0071633D01*
X0160071Y0071616D01*
X0160126Y0071596D01*
X0160179Y0071572D01*
X0160230Y0071545D01*
X0160279Y0071514D01*
X0160326Y0071480D01*
X0160371Y0071443D01*
X0160413Y0071403D01*
X0160453Y0071360D01*
X0160489Y0071315D01*
X0160522Y0071267D01*
X0160552Y0071217D01*
X0160578Y0071166D01*
X0160601Y0071112D01*
X0160621Y0071057D01*
X0160636Y0071001D01*
X0160648Y0070945D01*
X0160656Y0070887D01*
X0160660Y0070829D01*
X0160660Y0070771D01*
X0160656Y0070713D01*
X0160648Y0070655D01*
X0160636Y0070599D01*
X0160621Y0070543D01*
X0160601Y0070488D01*
X0160578Y0070434D01*
X0160552Y0070383D01*
X0160522Y0070333D01*
X0160489Y0070285D01*
X0160453Y0070240D01*
X0160413Y0070197D01*
X0160371Y0070157D01*
X0160326Y0070120D01*
X0160279Y0070086D01*
X0160230Y0070055D01*
X0160179Y0070028D01*
X0160126Y0070004D01*
X0160071Y0069984D01*
X0160016Y0069967D01*
X0159959Y0069955D01*
X0159901Y0069946D01*
X0159844Y0069941D01*
X0159785Y0069940D01*
X0159727Y0069943D01*
X0159670Y0069950D01*
X0159613Y0069961D01*
X0159556Y0069975D01*
X0159501Y0069994D01*
X0159448Y0070016D01*
X0159395Y0070041D01*
X0159345Y0070070D01*
X0159297Y0070103D01*
X0159251Y0070138D01*
X0159207Y0070177D01*
X0159167Y0070218D01*
X0159129Y0070262D01*
X0159094Y0070309D01*
X0159063Y0070357D01*
X0159034Y0070408D01*
X0159010Y0070461D01*
X0158989Y0070515D01*
X0158971Y0070570D01*
X0158958Y0070627D01*
X0158948Y0070684D01*
X0158942Y0070742D01*
X0158940Y0070800D01*
X0159700Y0070800D02*
X0159702Y0070820D01*
X0159708Y0070838D01*
X0159717Y0070856D01*
X0159729Y0070871D01*
X0159744Y0070883D01*
X0159762Y0070892D01*
X0159780Y0070898D01*
X0159800Y0070900D01*
X0159820Y0070898D01*
X0159838Y0070892D01*
X0159856Y0070883D01*
X0159871Y0070871D01*
X0159883Y0070856D01*
X0159892Y0070838D01*
X0159898Y0070820D01*
X0159900Y0070800D01*
X0159898Y0070780D01*
X0159892Y0070762D01*
X0159883Y0070744D01*
X0159871Y0070729D01*
X0159856Y0070717D01*
X0159838Y0070708D01*
X0159820Y0070702D01*
X0159800Y0070700D01*
X0159780Y0070702D01*
X0159762Y0070708D01*
X0159744Y0070717D01*
X0159729Y0070729D01*
X0159717Y0070744D01*
X0159708Y0070762D01*
X0159702Y0070780D01*
X0159700Y0070800D01*
X0159300Y0070800D02*
X0159302Y0070844D01*
X0159308Y0070888D01*
X0159318Y0070931D01*
X0159331Y0070973D01*
X0159348Y0071014D01*
X0159369Y0071053D01*
X0159393Y0071090D01*
X0159420Y0071125D01*
X0159450Y0071157D01*
X0159483Y0071187D01*
X0159519Y0071213D01*
X0159556Y0071237D01*
X0159596Y0071256D01*
X0159637Y0071273D01*
X0159680Y0071285D01*
X0159723Y0071294D01*
X0159767Y0071299D01*
X0159811Y0071300D01*
X0159855Y0071297D01*
X0159899Y0071290D01*
X0159942Y0071279D01*
X0159984Y0071265D01*
X0160024Y0071247D01*
X0160063Y0071225D01*
X0160099Y0071201D01*
X0160133Y0071173D01*
X0160165Y0071142D01*
X0160194Y0071108D01*
X0160220Y0071072D01*
X0160242Y0071034D01*
X0160261Y0070994D01*
X0160276Y0070952D01*
X0160288Y0070910D01*
X0160296Y0070866D01*
X0160300Y0070822D01*
X0160300Y0070778D01*
X0160296Y0070734D01*
X0160288Y0070690D01*
X0160276Y0070648D01*
X0160261Y0070606D01*
X0160242Y0070566D01*
X0160220Y0070528D01*
X0160194Y0070492D01*
X0160165Y0070458D01*
X0160133Y0070427D01*
X0160099Y0070399D01*
X0160063Y0070375D01*
X0160024Y0070353D01*
X0159984Y0070335D01*
X0159942Y0070321D01*
X0159899Y0070310D01*
X0159855Y0070303D01*
X0159811Y0070300D01*
X0159767Y0070301D01*
X0159723Y0070306D01*
X0159680Y0070315D01*
X0159637Y0070327D01*
X0159596Y0070344D01*
X0159556Y0070363D01*
X0159519Y0070387D01*
X0159483Y0070413D01*
X0159450Y0070443D01*
X0159420Y0070475D01*
X0159393Y0070510D01*
X0159369Y0070547D01*
X0159348Y0070586D01*
X0159331Y0070627D01*
X0159318Y0070669D01*
X0159308Y0070712D01*
X0159302Y0070756D01*
X0159300Y0070800D01*
X0223225Y0067437D02*
X0223227Y0067476D01*
X0223233Y0067515D01*
X0223243Y0067553D01*
X0223256Y0067590D01*
X0223273Y0067625D01*
X0223293Y0067659D01*
X0223317Y0067690D01*
X0223344Y0067719D01*
X0223373Y0067745D01*
X0223405Y0067768D01*
X0223439Y0067788D01*
X0223475Y0067804D01*
X0223512Y0067816D01*
X0223551Y0067825D01*
X0223590Y0067830D01*
X0223629Y0067831D01*
X0223668Y0067828D01*
X0223707Y0067821D01*
X0223744Y0067810D01*
X0223781Y0067796D01*
X0223816Y0067778D01*
X0223849Y0067757D01*
X0223880Y0067732D01*
X0223908Y0067705D01*
X0223933Y0067675D01*
X0223955Y0067642D01*
X0223974Y0067608D01*
X0223989Y0067572D01*
X0224001Y0067534D01*
X0224009Y0067496D01*
X0224013Y0067457D01*
X0224013Y0067417D01*
X0224009Y0067378D01*
X0224001Y0067340D01*
X0223989Y0067302D01*
X0223974Y0067266D01*
X0223955Y0067232D01*
X0223933Y0067199D01*
X0223908Y0067169D01*
X0223880Y0067142D01*
X0223849Y0067117D01*
X0223816Y0067096D01*
X0223781Y0067078D01*
X0223744Y0067064D01*
X0223707Y0067053D01*
X0223668Y0067046D01*
X0223629Y0067043D01*
X0223590Y0067044D01*
X0223551Y0067049D01*
X0223512Y0067058D01*
X0223475Y0067070D01*
X0223439Y0067086D01*
X0223405Y0067106D01*
X0223373Y0067129D01*
X0223344Y0067155D01*
X0223317Y0067184D01*
X0223293Y0067215D01*
X0223273Y0067249D01*
X0223256Y0067284D01*
X0223243Y0067321D01*
X0223233Y0067359D01*
X0223227Y0067398D01*
X0223225Y0067437D01*
X0234364Y0057673D02*
X0234364Y0029327D01*
X0254836Y0029327D01*
X0254836Y0057673D01*
X0234364Y0057673D01*
X0236725Y0053343D02*
X0236727Y0053431D01*
X0236733Y0053519D01*
X0236743Y0053607D01*
X0236757Y0053695D01*
X0236774Y0053781D01*
X0236796Y0053867D01*
X0236821Y0053951D01*
X0236851Y0054035D01*
X0236883Y0054117D01*
X0236920Y0054197D01*
X0236960Y0054276D01*
X0237004Y0054353D01*
X0237051Y0054428D01*
X0237101Y0054500D01*
X0237155Y0054571D01*
X0237211Y0054638D01*
X0237271Y0054704D01*
X0237333Y0054766D01*
X0237399Y0054826D01*
X0237466Y0054882D01*
X0237537Y0054936D01*
X0237609Y0054986D01*
X0237684Y0055033D01*
X0237761Y0055077D01*
X0237840Y0055117D01*
X0237920Y0055154D01*
X0238002Y0055186D01*
X0238086Y0055216D01*
X0238170Y0055241D01*
X0238256Y0055263D01*
X0238342Y0055280D01*
X0238430Y0055294D01*
X0238518Y0055304D01*
X0238606Y0055310D01*
X0238694Y0055312D01*
X0238782Y0055310D01*
X0238870Y0055304D01*
X0238958Y0055294D01*
X0239046Y0055280D01*
X0239132Y0055263D01*
X0239218Y0055241D01*
X0239302Y0055216D01*
X0239386Y0055186D01*
X0239468Y0055154D01*
X0239548Y0055117D01*
X0239627Y0055077D01*
X0239704Y0055033D01*
X0239779Y0054986D01*
X0239851Y0054936D01*
X0239922Y0054882D01*
X0239989Y0054826D01*
X0240055Y0054766D01*
X0240117Y0054704D01*
X0240177Y0054638D01*
X0240233Y0054571D01*
X0240287Y0054500D01*
X0240337Y0054428D01*
X0240384Y0054353D01*
X0240428Y0054276D01*
X0240468Y0054197D01*
X0240505Y0054117D01*
X0240537Y0054035D01*
X0240567Y0053951D01*
X0240592Y0053867D01*
X0240614Y0053781D01*
X0240631Y0053695D01*
X0240645Y0053607D01*
X0240655Y0053519D01*
X0240661Y0053431D01*
X0240663Y0053343D01*
X0240661Y0053255D01*
X0240655Y0053167D01*
X0240645Y0053079D01*
X0240631Y0052991D01*
X0240614Y0052905D01*
X0240592Y0052819D01*
X0240567Y0052735D01*
X0240537Y0052651D01*
X0240505Y0052569D01*
X0240468Y0052489D01*
X0240428Y0052410D01*
X0240384Y0052333D01*
X0240337Y0052258D01*
X0240287Y0052186D01*
X0240233Y0052115D01*
X0240177Y0052048D01*
X0240117Y0051982D01*
X0240055Y0051920D01*
X0239989Y0051860D01*
X0239922Y0051804D01*
X0239851Y0051750D01*
X0239779Y0051700D01*
X0239704Y0051653D01*
X0239627Y0051609D01*
X0239548Y0051569D01*
X0239468Y0051532D01*
X0239386Y0051500D01*
X0239302Y0051470D01*
X0239218Y0051445D01*
X0239132Y0051423D01*
X0239046Y0051406D01*
X0238958Y0051392D01*
X0238870Y0051382D01*
X0238782Y0051376D01*
X0238694Y0051374D01*
X0238606Y0051376D01*
X0238518Y0051382D01*
X0238430Y0051392D01*
X0238342Y0051406D01*
X0238256Y0051423D01*
X0238170Y0051445D01*
X0238086Y0051470D01*
X0238002Y0051500D01*
X0237920Y0051532D01*
X0237840Y0051569D01*
X0237761Y0051609D01*
X0237684Y0051653D01*
X0237609Y0051700D01*
X0237537Y0051750D01*
X0237466Y0051804D01*
X0237399Y0051860D01*
X0237333Y0051920D01*
X0237271Y0051982D01*
X0237211Y0052048D01*
X0237155Y0052115D01*
X0237101Y0052186D01*
X0237051Y0052258D01*
X0237004Y0052333D01*
X0236960Y0052410D01*
X0236920Y0052489D01*
X0236883Y0052569D01*
X0236851Y0052651D01*
X0236821Y0052735D01*
X0236796Y0052819D01*
X0236774Y0052905D01*
X0236757Y0052991D01*
X0236743Y0053079D01*
X0236733Y0053167D01*
X0236727Y0053255D01*
X0236725Y0053343D01*
X0241540Y0115100D02*
X0241542Y0115158D01*
X0241548Y0115216D01*
X0241558Y0115273D01*
X0241571Y0115330D01*
X0241589Y0115385D01*
X0241610Y0115439D01*
X0241634Y0115492D01*
X0241663Y0115543D01*
X0241694Y0115591D01*
X0241729Y0115638D01*
X0241767Y0115682D01*
X0241807Y0115723D01*
X0241851Y0115762D01*
X0241897Y0115797D01*
X0241945Y0115830D01*
X0241995Y0115859D01*
X0242048Y0115884D01*
X0242101Y0115906D01*
X0242156Y0115925D01*
X0242213Y0115939D01*
X0242270Y0115950D01*
X0242327Y0115957D01*
X0242385Y0115960D01*
X0242444Y0115959D01*
X0242501Y0115954D01*
X0242559Y0115945D01*
X0242616Y0115933D01*
X0242671Y0115916D01*
X0242726Y0115896D01*
X0242779Y0115872D01*
X0242830Y0115845D01*
X0242879Y0115814D01*
X0242926Y0115780D01*
X0242971Y0115743D01*
X0243013Y0115703D01*
X0243053Y0115660D01*
X0243089Y0115615D01*
X0243122Y0115567D01*
X0243152Y0115517D01*
X0243178Y0115466D01*
X0243201Y0115412D01*
X0243221Y0115357D01*
X0243236Y0115301D01*
X0243248Y0115245D01*
X0243256Y0115187D01*
X0243260Y0115129D01*
X0243260Y0115071D01*
X0243256Y0115013D01*
X0243248Y0114955D01*
X0243236Y0114899D01*
X0243221Y0114843D01*
X0243201Y0114788D01*
X0243178Y0114734D01*
X0243152Y0114683D01*
X0243122Y0114633D01*
X0243089Y0114585D01*
X0243053Y0114540D01*
X0243013Y0114497D01*
X0242971Y0114457D01*
X0242926Y0114420D01*
X0242879Y0114386D01*
X0242830Y0114355D01*
X0242779Y0114328D01*
X0242726Y0114304D01*
X0242671Y0114284D01*
X0242616Y0114267D01*
X0242559Y0114255D01*
X0242501Y0114246D01*
X0242444Y0114241D01*
X0242385Y0114240D01*
X0242327Y0114243D01*
X0242270Y0114250D01*
X0242213Y0114261D01*
X0242156Y0114275D01*
X0242101Y0114294D01*
X0242048Y0114316D01*
X0241995Y0114341D01*
X0241945Y0114370D01*
X0241897Y0114403D01*
X0241851Y0114438D01*
X0241807Y0114477D01*
X0241767Y0114518D01*
X0241729Y0114562D01*
X0241694Y0114609D01*
X0241663Y0114657D01*
X0241634Y0114708D01*
X0241610Y0114761D01*
X0241589Y0114815D01*
X0241571Y0114870D01*
X0241558Y0114927D01*
X0241548Y0114984D01*
X0241542Y0115042D01*
X0241540Y0115100D01*
X0242300Y0115100D02*
X0242302Y0115120D01*
X0242308Y0115138D01*
X0242317Y0115156D01*
X0242329Y0115171D01*
X0242344Y0115183D01*
X0242362Y0115192D01*
X0242380Y0115198D01*
X0242400Y0115200D01*
X0242420Y0115198D01*
X0242438Y0115192D01*
X0242456Y0115183D01*
X0242471Y0115171D01*
X0242483Y0115156D01*
X0242492Y0115138D01*
X0242498Y0115120D01*
X0242500Y0115100D01*
X0242498Y0115080D01*
X0242492Y0115062D01*
X0242483Y0115044D01*
X0242471Y0115029D01*
X0242456Y0115017D01*
X0242438Y0115008D01*
X0242420Y0115002D01*
X0242400Y0115000D01*
X0242380Y0115002D01*
X0242362Y0115008D01*
X0242344Y0115017D01*
X0242329Y0115029D01*
X0242317Y0115044D01*
X0242308Y0115062D01*
X0242302Y0115080D01*
X0242300Y0115100D01*
X0241900Y0115100D02*
X0241902Y0115144D01*
X0241908Y0115188D01*
X0241918Y0115231D01*
X0241931Y0115273D01*
X0241948Y0115314D01*
X0241969Y0115353D01*
X0241993Y0115390D01*
X0242020Y0115425D01*
X0242050Y0115457D01*
X0242083Y0115487D01*
X0242119Y0115513D01*
X0242156Y0115537D01*
X0242196Y0115556D01*
X0242237Y0115573D01*
X0242280Y0115585D01*
X0242323Y0115594D01*
X0242367Y0115599D01*
X0242411Y0115600D01*
X0242455Y0115597D01*
X0242499Y0115590D01*
X0242542Y0115579D01*
X0242584Y0115565D01*
X0242624Y0115547D01*
X0242663Y0115525D01*
X0242699Y0115501D01*
X0242733Y0115473D01*
X0242765Y0115442D01*
X0242794Y0115408D01*
X0242820Y0115372D01*
X0242842Y0115334D01*
X0242861Y0115294D01*
X0242876Y0115252D01*
X0242888Y0115210D01*
X0242896Y0115166D01*
X0242900Y0115122D01*
X0242900Y0115078D01*
X0242896Y0115034D01*
X0242888Y0114990D01*
X0242876Y0114948D01*
X0242861Y0114906D01*
X0242842Y0114866D01*
X0242820Y0114828D01*
X0242794Y0114792D01*
X0242765Y0114758D01*
X0242733Y0114727D01*
X0242699Y0114699D01*
X0242663Y0114675D01*
X0242624Y0114653D01*
X0242584Y0114635D01*
X0242542Y0114621D01*
X0242499Y0114610D01*
X0242455Y0114603D01*
X0242411Y0114600D01*
X0242367Y0114601D01*
X0242323Y0114606D01*
X0242280Y0114615D01*
X0242237Y0114627D01*
X0242196Y0114644D01*
X0242156Y0114663D01*
X0242119Y0114687D01*
X0242083Y0114713D01*
X0242050Y0114743D01*
X0242020Y0114775D01*
X0241993Y0114810D01*
X0241969Y0114847D01*
X0241948Y0114886D01*
X0241931Y0114927D01*
X0241918Y0114969D01*
X0241908Y0115012D01*
X0241902Y0115056D01*
X0241900Y0115100D01*
X0242240Y0127400D02*
X0242242Y0127458D01*
X0242248Y0127516D01*
X0242258Y0127573D01*
X0242271Y0127630D01*
X0242289Y0127685D01*
X0242310Y0127739D01*
X0242334Y0127792D01*
X0242363Y0127843D01*
X0242394Y0127891D01*
X0242429Y0127938D01*
X0242467Y0127982D01*
X0242507Y0128023D01*
X0242551Y0128062D01*
X0242597Y0128097D01*
X0242645Y0128130D01*
X0242695Y0128159D01*
X0242748Y0128184D01*
X0242801Y0128206D01*
X0242856Y0128225D01*
X0242913Y0128239D01*
X0242970Y0128250D01*
X0243027Y0128257D01*
X0243085Y0128260D01*
X0243144Y0128259D01*
X0243201Y0128254D01*
X0243259Y0128245D01*
X0243316Y0128233D01*
X0243371Y0128216D01*
X0243426Y0128196D01*
X0243479Y0128172D01*
X0243530Y0128145D01*
X0243579Y0128114D01*
X0243626Y0128080D01*
X0243671Y0128043D01*
X0243713Y0128003D01*
X0243753Y0127960D01*
X0243789Y0127915D01*
X0243822Y0127867D01*
X0243852Y0127817D01*
X0243878Y0127766D01*
X0243901Y0127712D01*
X0243921Y0127657D01*
X0243936Y0127601D01*
X0243948Y0127545D01*
X0243956Y0127487D01*
X0243960Y0127429D01*
X0243960Y0127371D01*
X0243956Y0127313D01*
X0243948Y0127255D01*
X0243936Y0127199D01*
X0243921Y0127143D01*
X0243901Y0127088D01*
X0243878Y0127034D01*
X0243852Y0126983D01*
X0243822Y0126933D01*
X0243789Y0126885D01*
X0243753Y0126840D01*
X0243713Y0126797D01*
X0243671Y0126757D01*
X0243626Y0126720D01*
X0243579Y0126686D01*
X0243530Y0126655D01*
X0243479Y0126628D01*
X0243426Y0126604D01*
X0243371Y0126584D01*
X0243316Y0126567D01*
X0243259Y0126555D01*
X0243201Y0126546D01*
X0243144Y0126541D01*
X0243085Y0126540D01*
X0243027Y0126543D01*
X0242970Y0126550D01*
X0242913Y0126561D01*
X0242856Y0126575D01*
X0242801Y0126594D01*
X0242748Y0126616D01*
X0242695Y0126641D01*
X0242645Y0126670D01*
X0242597Y0126703D01*
X0242551Y0126738D01*
X0242507Y0126777D01*
X0242467Y0126818D01*
X0242429Y0126862D01*
X0242394Y0126909D01*
X0242363Y0126957D01*
X0242334Y0127008D01*
X0242310Y0127061D01*
X0242289Y0127115D01*
X0242271Y0127170D01*
X0242258Y0127227D01*
X0242248Y0127284D01*
X0242242Y0127342D01*
X0242240Y0127400D01*
X0243000Y0127400D02*
X0243002Y0127420D01*
X0243008Y0127438D01*
X0243017Y0127456D01*
X0243029Y0127471D01*
X0243044Y0127483D01*
X0243062Y0127492D01*
X0243080Y0127498D01*
X0243100Y0127500D01*
X0243120Y0127498D01*
X0243138Y0127492D01*
X0243156Y0127483D01*
X0243171Y0127471D01*
X0243183Y0127456D01*
X0243192Y0127438D01*
X0243198Y0127420D01*
X0243200Y0127400D01*
X0243198Y0127380D01*
X0243192Y0127362D01*
X0243183Y0127344D01*
X0243171Y0127329D01*
X0243156Y0127317D01*
X0243138Y0127308D01*
X0243120Y0127302D01*
X0243100Y0127300D01*
X0243080Y0127302D01*
X0243062Y0127308D01*
X0243044Y0127317D01*
X0243029Y0127329D01*
X0243017Y0127344D01*
X0243008Y0127362D01*
X0243002Y0127380D01*
X0243000Y0127400D01*
X0242600Y0127400D02*
X0242602Y0127444D01*
X0242608Y0127488D01*
X0242618Y0127531D01*
X0242631Y0127573D01*
X0242648Y0127614D01*
X0242669Y0127653D01*
X0242693Y0127690D01*
X0242720Y0127725D01*
X0242750Y0127757D01*
X0242783Y0127787D01*
X0242819Y0127813D01*
X0242856Y0127837D01*
X0242896Y0127856D01*
X0242937Y0127873D01*
X0242980Y0127885D01*
X0243023Y0127894D01*
X0243067Y0127899D01*
X0243111Y0127900D01*
X0243155Y0127897D01*
X0243199Y0127890D01*
X0243242Y0127879D01*
X0243284Y0127865D01*
X0243324Y0127847D01*
X0243363Y0127825D01*
X0243399Y0127801D01*
X0243433Y0127773D01*
X0243465Y0127742D01*
X0243494Y0127708D01*
X0243520Y0127672D01*
X0243542Y0127634D01*
X0243561Y0127594D01*
X0243576Y0127552D01*
X0243588Y0127510D01*
X0243596Y0127466D01*
X0243600Y0127422D01*
X0243600Y0127378D01*
X0243596Y0127334D01*
X0243588Y0127290D01*
X0243576Y0127248D01*
X0243561Y0127206D01*
X0243542Y0127166D01*
X0243520Y0127128D01*
X0243494Y0127092D01*
X0243465Y0127058D01*
X0243433Y0127027D01*
X0243399Y0126999D01*
X0243363Y0126975D01*
X0243324Y0126953D01*
X0243284Y0126935D01*
X0243242Y0126921D01*
X0243199Y0126910D01*
X0243155Y0126903D01*
X0243111Y0126900D01*
X0243067Y0126901D01*
X0243023Y0126906D01*
X0242980Y0126915D01*
X0242937Y0126927D01*
X0242896Y0126944D01*
X0242856Y0126963D01*
X0242819Y0126987D01*
X0242783Y0127013D01*
X0242750Y0127043D01*
X0242720Y0127075D01*
X0242693Y0127110D01*
X0242669Y0127147D01*
X0242648Y0127186D01*
X0242631Y0127227D01*
X0242618Y0127269D01*
X0242608Y0127312D01*
X0242602Y0127356D01*
X0242600Y0127400D01*
X0226640Y0127400D02*
X0226642Y0127458D01*
X0226648Y0127516D01*
X0226658Y0127573D01*
X0226671Y0127630D01*
X0226689Y0127685D01*
X0226710Y0127739D01*
X0226734Y0127792D01*
X0226763Y0127843D01*
X0226794Y0127891D01*
X0226829Y0127938D01*
X0226867Y0127982D01*
X0226907Y0128023D01*
X0226951Y0128062D01*
X0226997Y0128097D01*
X0227045Y0128130D01*
X0227095Y0128159D01*
X0227148Y0128184D01*
X0227201Y0128206D01*
X0227256Y0128225D01*
X0227313Y0128239D01*
X0227370Y0128250D01*
X0227427Y0128257D01*
X0227485Y0128260D01*
X0227544Y0128259D01*
X0227601Y0128254D01*
X0227659Y0128245D01*
X0227716Y0128233D01*
X0227771Y0128216D01*
X0227826Y0128196D01*
X0227879Y0128172D01*
X0227930Y0128145D01*
X0227979Y0128114D01*
X0228026Y0128080D01*
X0228071Y0128043D01*
X0228113Y0128003D01*
X0228153Y0127960D01*
X0228189Y0127915D01*
X0228222Y0127867D01*
X0228252Y0127817D01*
X0228278Y0127766D01*
X0228301Y0127712D01*
X0228321Y0127657D01*
X0228336Y0127601D01*
X0228348Y0127545D01*
X0228356Y0127487D01*
X0228360Y0127429D01*
X0228360Y0127371D01*
X0228356Y0127313D01*
X0228348Y0127255D01*
X0228336Y0127199D01*
X0228321Y0127143D01*
X0228301Y0127088D01*
X0228278Y0127034D01*
X0228252Y0126983D01*
X0228222Y0126933D01*
X0228189Y0126885D01*
X0228153Y0126840D01*
X0228113Y0126797D01*
X0228071Y0126757D01*
X0228026Y0126720D01*
X0227979Y0126686D01*
X0227930Y0126655D01*
X0227879Y0126628D01*
X0227826Y0126604D01*
X0227771Y0126584D01*
X0227716Y0126567D01*
X0227659Y0126555D01*
X0227601Y0126546D01*
X0227544Y0126541D01*
X0227485Y0126540D01*
X0227427Y0126543D01*
X0227370Y0126550D01*
X0227313Y0126561D01*
X0227256Y0126575D01*
X0227201Y0126594D01*
X0227148Y0126616D01*
X0227095Y0126641D01*
X0227045Y0126670D01*
X0226997Y0126703D01*
X0226951Y0126738D01*
X0226907Y0126777D01*
X0226867Y0126818D01*
X0226829Y0126862D01*
X0226794Y0126909D01*
X0226763Y0126957D01*
X0226734Y0127008D01*
X0226710Y0127061D01*
X0226689Y0127115D01*
X0226671Y0127170D01*
X0226658Y0127227D01*
X0226648Y0127284D01*
X0226642Y0127342D01*
X0226640Y0127400D01*
X0227400Y0127400D02*
X0227402Y0127420D01*
X0227408Y0127438D01*
X0227417Y0127456D01*
X0227429Y0127471D01*
X0227444Y0127483D01*
X0227462Y0127492D01*
X0227480Y0127498D01*
X0227500Y0127500D01*
X0227520Y0127498D01*
X0227538Y0127492D01*
X0227556Y0127483D01*
X0227571Y0127471D01*
X0227583Y0127456D01*
X0227592Y0127438D01*
X0227598Y0127420D01*
X0227600Y0127400D01*
X0227598Y0127380D01*
X0227592Y0127362D01*
X0227583Y0127344D01*
X0227571Y0127329D01*
X0227556Y0127317D01*
X0227538Y0127308D01*
X0227520Y0127302D01*
X0227500Y0127300D01*
X0227480Y0127302D01*
X0227462Y0127308D01*
X0227444Y0127317D01*
X0227429Y0127329D01*
X0227417Y0127344D01*
X0227408Y0127362D01*
X0227402Y0127380D01*
X0227400Y0127400D01*
X0227000Y0127400D02*
X0227002Y0127444D01*
X0227008Y0127488D01*
X0227018Y0127531D01*
X0227031Y0127573D01*
X0227048Y0127614D01*
X0227069Y0127653D01*
X0227093Y0127690D01*
X0227120Y0127725D01*
X0227150Y0127757D01*
X0227183Y0127787D01*
X0227219Y0127813D01*
X0227256Y0127837D01*
X0227296Y0127856D01*
X0227337Y0127873D01*
X0227380Y0127885D01*
X0227423Y0127894D01*
X0227467Y0127899D01*
X0227511Y0127900D01*
X0227555Y0127897D01*
X0227599Y0127890D01*
X0227642Y0127879D01*
X0227684Y0127865D01*
X0227724Y0127847D01*
X0227763Y0127825D01*
X0227799Y0127801D01*
X0227833Y0127773D01*
X0227865Y0127742D01*
X0227894Y0127708D01*
X0227920Y0127672D01*
X0227942Y0127634D01*
X0227961Y0127594D01*
X0227976Y0127552D01*
X0227988Y0127510D01*
X0227996Y0127466D01*
X0228000Y0127422D01*
X0228000Y0127378D01*
X0227996Y0127334D01*
X0227988Y0127290D01*
X0227976Y0127248D01*
X0227961Y0127206D01*
X0227942Y0127166D01*
X0227920Y0127128D01*
X0227894Y0127092D01*
X0227865Y0127058D01*
X0227833Y0127027D01*
X0227799Y0126999D01*
X0227763Y0126975D01*
X0227724Y0126953D01*
X0227684Y0126935D01*
X0227642Y0126921D01*
X0227599Y0126910D01*
X0227555Y0126903D01*
X0227511Y0126900D01*
X0227467Y0126901D01*
X0227423Y0126906D01*
X0227380Y0126915D01*
X0227337Y0126927D01*
X0227296Y0126944D01*
X0227256Y0126963D01*
X0227219Y0126987D01*
X0227183Y0127013D01*
X0227150Y0127043D01*
X0227120Y0127075D01*
X0227093Y0127110D01*
X0227069Y0127147D01*
X0227048Y0127186D01*
X0227031Y0127227D01*
X0227018Y0127269D01*
X0227008Y0127312D01*
X0227002Y0127356D01*
X0227000Y0127400D01*
X0183200Y0134300D02*
X0182500Y0134400D01*
X0182600Y0134900D01*
X0182900Y0134700D01*
X0124886Y0149500D02*
X0124889Y0149785D01*
X0124900Y0150070D01*
X0124917Y0150354D01*
X0124942Y0150638D01*
X0124973Y0150922D01*
X0125012Y0151204D01*
X0125057Y0151486D01*
X0125109Y0151766D01*
X0125168Y0152045D01*
X0125234Y0152322D01*
X0125307Y0152598D01*
X0125386Y0152871D01*
X0125472Y0153143D01*
X0125565Y0153413D01*
X0125664Y0153680D01*
X0125770Y0153944D01*
X0125882Y0154206D01*
X0126001Y0154466D01*
X0126126Y0154722D01*
X0126257Y0154975D01*
X0126395Y0155225D01*
X0126538Y0155471D01*
X0126688Y0155713D01*
X0126843Y0155952D01*
X0127005Y0156187D01*
X0127172Y0156418D01*
X0127344Y0156645D01*
X0127522Y0156868D01*
X0127706Y0157086D01*
X0127895Y0157299D01*
X0128089Y0157508D01*
X0128288Y0157712D01*
X0128492Y0157911D01*
X0128701Y0158105D01*
X0128914Y0158294D01*
X0129132Y0158478D01*
X0129355Y0158656D01*
X0129582Y0158828D01*
X0129813Y0158995D01*
X0130048Y0159157D01*
X0130287Y0159312D01*
X0130529Y0159462D01*
X0130775Y0159605D01*
X0131025Y0159743D01*
X0131278Y0159874D01*
X0131534Y0159999D01*
X0131794Y0160118D01*
X0132056Y0160230D01*
X0132320Y0160336D01*
X0132587Y0160435D01*
X0132857Y0160528D01*
X0133129Y0160614D01*
X0133402Y0160693D01*
X0133678Y0160766D01*
X0133955Y0160832D01*
X0134234Y0160891D01*
X0134514Y0160943D01*
X0134796Y0160988D01*
X0135078Y0161027D01*
X0135362Y0161058D01*
X0135646Y0161083D01*
X0135930Y0161100D01*
X0136215Y0161111D01*
X0136500Y0161114D01*
X0136785Y0161111D01*
X0137070Y0161100D01*
X0137354Y0161083D01*
X0137638Y0161058D01*
X0137922Y0161027D01*
X0138204Y0160988D01*
X0138486Y0160943D01*
X0138766Y0160891D01*
X0139045Y0160832D01*
X0139322Y0160766D01*
X0139598Y0160693D01*
X0139871Y0160614D01*
X0140143Y0160528D01*
X0140413Y0160435D01*
X0140680Y0160336D01*
X0140944Y0160230D01*
X0141206Y0160118D01*
X0141466Y0159999D01*
X0141722Y0159874D01*
X0141975Y0159743D01*
X0142225Y0159605D01*
X0142471Y0159462D01*
X0142713Y0159312D01*
X0142952Y0159157D01*
X0143187Y0158995D01*
X0143418Y0158828D01*
X0143645Y0158656D01*
X0143868Y0158478D01*
X0144086Y0158294D01*
X0144299Y0158105D01*
X0144508Y0157911D01*
X0144712Y0157712D01*
X0144911Y0157508D01*
X0145105Y0157299D01*
X0145294Y0157086D01*
X0145478Y0156868D01*
X0145656Y0156645D01*
X0145828Y0156418D01*
X0145995Y0156187D01*
X0146157Y0155952D01*
X0146312Y0155713D01*
X0146462Y0155471D01*
X0146605Y0155225D01*
X0146743Y0154975D01*
X0146874Y0154722D01*
X0146999Y0154466D01*
X0147118Y0154206D01*
X0147230Y0153944D01*
X0147336Y0153680D01*
X0147435Y0153413D01*
X0147528Y0153143D01*
X0147614Y0152871D01*
X0147693Y0152598D01*
X0147766Y0152322D01*
X0147832Y0152045D01*
X0147891Y0151766D01*
X0147943Y0151486D01*
X0147988Y0151204D01*
X0148027Y0150922D01*
X0148058Y0150638D01*
X0148083Y0150354D01*
X0148100Y0150070D01*
X0148111Y0149785D01*
X0148114Y0149500D01*
X0148111Y0149215D01*
X0148100Y0148930D01*
X0148083Y0148646D01*
X0148058Y0148362D01*
X0148027Y0148078D01*
X0147988Y0147796D01*
X0147943Y0147514D01*
X0147891Y0147234D01*
X0147832Y0146955D01*
X0147766Y0146678D01*
X0147693Y0146402D01*
X0147614Y0146129D01*
X0147528Y0145857D01*
X0147435Y0145587D01*
X0147336Y0145320D01*
X0147230Y0145056D01*
X0147118Y0144794D01*
X0146999Y0144534D01*
X0146874Y0144278D01*
X0146743Y0144025D01*
X0146605Y0143775D01*
X0146462Y0143529D01*
X0146312Y0143287D01*
X0146157Y0143048D01*
X0145995Y0142813D01*
X0145828Y0142582D01*
X0145656Y0142355D01*
X0145478Y0142132D01*
X0145294Y0141914D01*
X0145105Y0141701D01*
X0144911Y0141492D01*
X0144712Y0141288D01*
X0144508Y0141089D01*
X0144299Y0140895D01*
X0144086Y0140706D01*
X0143868Y0140522D01*
X0143645Y0140344D01*
X0143418Y0140172D01*
X0143187Y0140005D01*
X0142952Y0139843D01*
X0142713Y0139688D01*
X0142471Y0139538D01*
X0142225Y0139395D01*
X0141975Y0139257D01*
X0141722Y0139126D01*
X0141466Y0139001D01*
X0141206Y0138882D01*
X0140944Y0138770D01*
X0140680Y0138664D01*
X0140413Y0138565D01*
X0140143Y0138472D01*
X0139871Y0138386D01*
X0139598Y0138307D01*
X0139322Y0138234D01*
X0139045Y0138168D01*
X0138766Y0138109D01*
X0138486Y0138057D01*
X0138204Y0138012D01*
X0137922Y0137973D01*
X0137638Y0137942D01*
X0137354Y0137917D01*
X0137070Y0137900D01*
X0136785Y0137889D01*
X0136500Y0137886D01*
X0136215Y0137889D01*
X0135930Y0137900D01*
X0135646Y0137917D01*
X0135362Y0137942D01*
X0135078Y0137973D01*
X0134796Y0138012D01*
X0134514Y0138057D01*
X0134234Y0138109D01*
X0133955Y0138168D01*
X0133678Y0138234D01*
X0133402Y0138307D01*
X0133129Y0138386D01*
X0132857Y0138472D01*
X0132587Y0138565D01*
X0132320Y0138664D01*
X0132056Y0138770D01*
X0131794Y0138882D01*
X0131534Y0139001D01*
X0131278Y0139126D01*
X0131025Y0139257D01*
X0130775Y0139395D01*
X0130529Y0139538D01*
X0130287Y0139688D01*
X0130048Y0139843D01*
X0129813Y0140005D01*
X0129582Y0140172D01*
X0129355Y0140344D01*
X0129132Y0140522D01*
X0128914Y0140706D01*
X0128701Y0140895D01*
X0128492Y0141089D01*
X0128288Y0141288D01*
X0128089Y0141492D01*
X0127895Y0141701D01*
X0127706Y0141914D01*
X0127522Y0142132D01*
X0127344Y0142355D01*
X0127172Y0142582D01*
X0127005Y0142813D01*
X0126843Y0143048D01*
X0126688Y0143287D01*
X0126538Y0143529D01*
X0126395Y0143775D01*
X0126257Y0144025D01*
X0126126Y0144278D01*
X0126001Y0144534D01*
X0125882Y0144794D01*
X0125770Y0145056D01*
X0125664Y0145320D01*
X0125565Y0145587D01*
X0125472Y0145857D01*
X0125386Y0146129D01*
X0125307Y0146402D01*
X0125234Y0146678D01*
X0125168Y0146955D01*
X0125109Y0147234D01*
X0125057Y0147514D01*
X0125012Y0147796D01*
X0124973Y0148078D01*
X0124942Y0148362D01*
X0124917Y0148646D01*
X0124900Y0148930D01*
X0124889Y0149215D01*
X0124886Y0149500D01*
D14*
X0166400Y0135100D02*
X0181400Y0135100D01*
X0173900Y0142600D01*
X0171900Y0140600D01*
X0166900Y0135600D01*
X0168400Y0137100D02*
X0179400Y0137100D01*
X0177400Y0139100D02*
X0170400Y0139100D01*
X0171900Y0140600D02*
X0175900Y0140600D01*
D15*
X0006500Y0164500D02*
X0006500Y0009500D01*
X0266500Y0009500D01*
X0266500Y0164500D01*
X0006500Y0164500D01*
X0129610Y0149500D02*
X0129612Y0149669D01*
X0129618Y0149838D01*
X0129629Y0150007D01*
X0129643Y0150175D01*
X0129662Y0150343D01*
X0129685Y0150511D01*
X0129711Y0150678D01*
X0129742Y0150844D01*
X0129777Y0151010D01*
X0129816Y0151174D01*
X0129860Y0151338D01*
X0129907Y0151500D01*
X0129958Y0151661D01*
X0130013Y0151821D01*
X0130072Y0151980D01*
X0130134Y0152137D01*
X0130201Y0152292D01*
X0130272Y0152446D01*
X0130346Y0152598D01*
X0130424Y0152748D01*
X0130505Y0152896D01*
X0130590Y0153042D01*
X0130679Y0153186D01*
X0130771Y0153328D01*
X0130867Y0153467D01*
X0130966Y0153604D01*
X0131068Y0153739D01*
X0131174Y0153871D01*
X0131283Y0154000D01*
X0131395Y0154127D01*
X0131510Y0154251D01*
X0131628Y0154372D01*
X0131749Y0154490D01*
X0131873Y0154605D01*
X0132000Y0154717D01*
X0132129Y0154826D01*
X0132261Y0154932D01*
X0132396Y0155034D01*
X0132533Y0155133D01*
X0132672Y0155229D01*
X0132814Y0155321D01*
X0132958Y0155410D01*
X0133104Y0155495D01*
X0133252Y0155576D01*
X0133402Y0155654D01*
X0133554Y0155728D01*
X0133708Y0155799D01*
X0133863Y0155866D01*
X0134020Y0155928D01*
X0134179Y0155987D01*
X0134339Y0156042D01*
X0134500Y0156093D01*
X0134662Y0156140D01*
X0134826Y0156184D01*
X0134990Y0156223D01*
X0135156Y0156258D01*
X0135322Y0156289D01*
X0135489Y0156315D01*
X0135657Y0156338D01*
X0135825Y0156357D01*
X0135993Y0156371D01*
X0136162Y0156382D01*
X0136331Y0156388D01*
X0136500Y0156390D01*
X0136669Y0156388D01*
X0136838Y0156382D01*
X0137007Y0156371D01*
X0137175Y0156357D01*
X0137343Y0156338D01*
X0137511Y0156315D01*
X0137678Y0156289D01*
X0137844Y0156258D01*
X0138010Y0156223D01*
X0138174Y0156184D01*
X0138338Y0156140D01*
X0138500Y0156093D01*
X0138661Y0156042D01*
X0138821Y0155987D01*
X0138980Y0155928D01*
X0139137Y0155866D01*
X0139292Y0155799D01*
X0139446Y0155728D01*
X0139598Y0155654D01*
X0139748Y0155576D01*
X0139896Y0155495D01*
X0140042Y0155410D01*
X0140186Y0155321D01*
X0140328Y0155229D01*
X0140467Y0155133D01*
X0140604Y0155034D01*
X0140739Y0154932D01*
X0140871Y0154826D01*
X0141000Y0154717D01*
X0141127Y0154605D01*
X0141251Y0154490D01*
X0141372Y0154372D01*
X0141490Y0154251D01*
X0141605Y0154127D01*
X0141717Y0154000D01*
X0141826Y0153871D01*
X0141932Y0153739D01*
X0142034Y0153604D01*
X0142133Y0153467D01*
X0142229Y0153328D01*
X0142321Y0153186D01*
X0142410Y0153042D01*
X0142495Y0152896D01*
X0142576Y0152748D01*
X0142654Y0152598D01*
X0142728Y0152446D01*
X0142799Y0152292D01*
X0142866Y0152137D01*
X0142928Y0151980D01*
X0142987Y0151821D01*
X0143042Y0151661D01*
X0143093Y0151500D01*
X0143140Y0151338D01*
X0143184Y0151174D01*
X0143223Y0151010D01*
X0143258Y0150844D01*
X0143289Y0150678D01*
X0143315Y0150511D01*
X0143338Y0150343D01*
X0143357Y0150175D01*
X0143371Y0150007D01*
X0143382Y0149838D01*
X0143388Y0149669D01*
X0143390Y0149500D01*
X0143388Y0149331D01*
X0143382Y0149162D01*
X0143371Y0148993D01*
X0143357Y0148825D01*
X0143338Y0148657D01*
X0143315Y0148489D01*
X0143289Y0148322D01*
X0143258Y0148156D01*
X0143223Y0147990D01*
X0143184Y0147826D01*
X0143140Y0147662D01*
X0143093Y0147500D01*
X0143042Y0147339D01*
X0142987Y0147179D01*
X0142928Y0147020D01*
X0142866Y0146863D01*
X0142799Y0146708D01*
X0142728Y0146554D01*
X0142654Y0146402D01*
X0142576Y0146252D01*
X0142495Y0146104D01*
X0142410Y0145958D01*
X0142321Y0145814D01*
X0142229Y0145672D01*
X0142133Y0145533D01*
X0142034Y0145396D01*
X0141932Y0145261D01*
X0141826Y0145129D01*
X0141717Y0145000D01*
X0141605Y0144873D01*
X0141490Y0144749D01*
X0141372Y0144628D01*
X0141251Y0144510D01*
X0141127Y0144395D01*
X0141000Y0144283D01*
X0140871Y0144174D01*
X0140739Y0144068D01*
X0140604Y0143966D01*
X0140467Y0143867D01*
X0140328Y0143771D01*
X0140186Y0143679D01*
X0140042Y0143590D01*
X0139896Y0143505D01*
X0139748Y0143424D01*
X0139598Y0143346D01*
X0139446Y0143272D01*
X0139292Y0143201D01*
X0139137Y0143134D01*
X0138980Y0143072D01*
X0138821Y0143013D01*
X0138661Y0142958D01*
X0138500Y0142907D01*
X0138338Y0142860D01*
X0138174Y0142816D01*
X0138010Y0142777D01*
X0137844Y0142742D01*
X0137678Y0142711D01*
X0137511Y0142685D01*
X0137343Y0142662D01*
X0137175Y0142643D01*
X0137007Y0142629D01*
X0136838Y0142618D01*
X0136669Y0142612D01*
X0136500Y0142610D01*
X0136331Y0142612D01*
X0136162Y0142618D01*
X0135993Y0142629D01*
X0135825Y0142643D01*
X0135657Y0142662D01*
X0135489Y0142685D01*
X0135322Y0142711D01*
X0135156Y0142742D01*
X0134990Y0142777D01*
X0134826Y0142816D01*
X0134662Y0142860D01*
X0134500Y0142907D01*
X0134339Y0142958D01*
X0134179Y0143013D01*
X0134020Y0143072D01*
X0133863Y0143134D01*
X0133708Y0143201D01*
X0133554Y0143272D01*
X0133402Y0143346D01*
X0133252Y0143424D01*
X0133104Y0143505D01*
X0132958Y0143590D01*
X0132814Y0143679D01*
X0132672Y0143771D01*
X0132533Y0143867D01*
X0132396Y0143966D01*
X0132261Y0144068D01*
X0132129Y0144174D01*
X0132000Y0144283D01*
X0131873Y0144395D01*
X0131749Y0144510D01*
X0131628Y0144628D01*
X0131510Y0144749D01*
X0131395Y0144873D01*
X0131283Y0145000D01*
X0131174Y0145129D01*
X0131068Y0145261D01*
X0130966Y0145396D01*
X0130867Y0145533D01*
X0130771Y0145672D01*
X0130679Y0145814D01*
X0130590Y0145958D01*
X0130505Y0146104D01*
X0130424Y0146252D01*
X0130346Y0146402D01*
X0130272Y0146554D01*
X0130201Y0146708D01*
X0130134Y0146863D01*
X0130072Y0147020D01*
X0130013Y0147179D01*
X0129958Y0147339D01*
X0129907Y0147500D01*
X0129860Y0147662D01*
X0129816Y0147826D01*
X0129777Y0147990D01*
X0129742Y0148156D01*
X0129711Y0148322D01*
X0129685Y0148489D01*
X0129662Y0148657D01*
X0129643Y0148825D01*
X0129629Y0148993D01*
X0129618Y0149162D01*
X0129612Y0149331D01*
X0129610Y0149500D01*
D16*
X0109000Y0112300D02*
X0096600Y0112300D01*
X0096524Y0112298D01*
X0096448Y0112292D01*
X0096373Y0112283D01*
X0096298Y0112269D01*
X0096224Y0112252D01*
X0096151Y0112231D01*
X0096079Y0112207D01*
X0096008Y0112178D01*
X0095939Y0112147D01*
X0095872Y0112112D01*
X0095807Y0112073D01*
X0095743Y0112031D01*
X0095682Y0111986D01*
X0095623Y0111938D01*
X0095567Y0111887D01*
X0095513Y0111833D01*
X0095462Y0111777D01*
X0095414Y0111718D01*
X0095369Y0111657D01*
X0095327Y0111593D01*
X0095288Y0111528D01*
X0095253Y0111461D01*
X0095222Y0111392D01*
X0095193Y0111321D01*
X0095169Y0111249D01*
X0095148Y0111176D01*
X0095131Y0111102D01*
X0095117Y0111027D01*
X0095108Y0110952D01*
X0095102Y0110876D01*
X0095100Y0110800D01*
X0095100Y0073800D01*
X0095102Y0073724D01*
X0095108Y0073648D01*
X0095117Y0073573D01*
X0095131Y0073498D01*
X0095148Y0073424D01*
X0095169Y0073351D01*
X0095193Y0073279D01*
X0095222Y0073208D01*
X0095253Y0073139D01*
X0095288Y0073072D01*
X0095327Y0073007D01*
X0095369Y0072943D01*
X0095414Y0072882D01*
X0095462Y0072823D01*
X0095513Y0072767D01*
X0095567Y0072713D01*
X0095623Y0072662D01*
X0095682Y0072614D01*
X0095743Y0072569D01*
X0095807Y0072527D01*
X0095872Y0072488D01*
X0095939Y0072453D01*
X0096008Y0072422D01*
X0096079Y0072393D01*
X0096151Y0072369D01*
X0096224Y0072348D01*
X0096298Y0072331D01*
X0096373Y0072317D01*
X0096448Y0072308D01*
X0096524Y0072302D01*
X0096600Y0072300D01*
X0100800Y0072300D01*
X0104800Y0072300D01*
X0109000Y0072300D01*
X0109076Y0072302D01*
X0109152Y0072308D01*
X0109227Y0072317D01*
X0109302Y0072331D01*
X0109376Y0072348D01*
X0109449Y0072369D01*
X0109521Y0072393D01*
X0109592Y0072422D01*
X0109661Y0072453D01*
X0109728Y0072488D01*
X0109793Y0072527D01*
X0109857Y0072569D01*
X0109918Y0072614D01*
X0109977Y0072662D01*
X0110033Y0072713D01*
X0110087Y0072767D01*
X0110138Y0072823D01*
X0110186Y0072882D01*
X0110231Y0072943D01*
X0110273Y0073007D01*
X0110312Y0073072D01*
X0110347Y0073139D01*
X0110378Y0073208D01*
X0110407Y0073279D01*
X0110431Y0073351D01*
X0110452Y0073424D01*
X0110469Y0073498D01*
X0110483Y0073573D01*
X0110492Y0073648D01*
X0110498Y0073724D01*
X0110500Y0073800D01*
X0110500Y0110800D01*
X0110498Y0110876D01*
X0110492Y0110952D01*
X0110483Y0111027D01*
X0110469Y0111102D01*
X0110452Y0111176D01*
X0110431Y0111249D01*
X0110407Y0111321D01*
X0110378Y0111392D01*
X0110347Y0111461D01*
X0110312Y0111528D01*
X0110273Y0111593D01*
X0110231Y0111657D01*
X0110186Y0111718D01*
X0110138Y0111777D01*
X0110087Y0111833D01*
X0110033Y0111887D01*
X0109977Y0111938D01*
X0109918Y0111986D01*
X0109857Y0112031D01*
X0109793Y0112073D01*
X0109728Y0112112D01*
X0109661Y0112147D01*
X0109592Y0112178D01*
X0109521Y0112207D01*
X0109449Y0112231D01*
X0109376Y0112252D01*
X0109302Y0112269D01*
X0109227Y0112283D01*
X0109152Y0112292D01*
X0109076Y0112298D01*
X0109000Y0112300D01*
X0118438Y0107381D02*
X0118438Y0105019D01*
X0123162Y0105019D02*
X0123162Y0107381D01*
X0135038Y0093781D02*
X0135038Y0091419D01*
X0139762Y0091419D02*
X0139762Y0093781D01*
X0163519Y0091938D02*
X0165881Y0091938D01*
X0165881Y0096662D02*
X0163519Y0096662D01*
X0176619Y0082562D02*
X0178981Y0082562D01*
X0178981Y0077838D02*
X0176619Y0077838D01*
X0155962Y0071381D02*
X0155962Y0069019D01*
X0151238Y0069019D02*
X0151238Y0071381D01*
X0149362Y0071281D02*
X0149362Y0068919D01*
X0144638Y0068919D02*
X0144638Y0071281D01*
X0141962Y0066581D02*
X0141962Y0064219D01*
X0137238Y0064219D02*
X0137238Y0066581D01*
X0137238Y0054481D02*
X0137238Y0052119D01*
X0141962Y0052119D02*
X0141962Y0054481D01*
X0143738Y0054481D02*
X0143738Y0052119D01*
X0148462Y0052119D02*
X0148462Y0054481D01*
X0184719Y0053338D02*
X0187081Y0053338D01*
X0187081Y0058062D02*
X0184719Y0058062D01*
X0202119Y0058062D02*
X0204481Y0058062D01*
X0204481Y0053338D02*
X0202119Y0053338D01*
X0221611Y0057902D02*
X0221611Y0058272D01*
X0221611Y0057902D02*
X0227989Y0057902D01*
X0227989Y0058272D01*
X0227989Y0061445D02*
X0227989Y0065555D01*
X0227989Y0068728D02*
X0227989Y0069098D01*
X0221611Y0069098D01*
X0221611Y0068728D01*
X0221611Y0065555D02*
X0221611Y0065185D01*
X0221611Y0061815D02*
X0221611Y0061445D01*
X0231719Y0133138D02*
X0234081Y0133138D01*
X0234081Y0137862D02*
X0231719Y0137862D01*
X0104800Y0072300D02*
X0104798Y0072388D01*
X0104792Y0072477D01*
X0104782Y0072565D01*
X0104769Y0072652D01*
X0104751Y0072739D01*
X0104730Y0072825D01*
X0104705Y0072910D01*
X0104676Y0072993D01*
X0104643Y0073076D01*
X0104607Y0073156D01*
X0104568Y0073235D01*
X0104525Y0073313D01*
X0104478Y0073388D01*
X0104428Y0073461D01*
X0104375Y0073532D01*
X0104319Y0073601D01*
X0104260Y0073667D01*
X0104198Y0073730D01*
X0104134Y0073790D01*
X0104067Y0073848D01*
X0103997Y0073902D01*
X0103925Y0073954D01*
X0103851Y0074002D01*
X0103774Y0074047D01*
X0103696Y0074088D01*
X0103616Y0074126D01*
X0103535Y0074160D01*
X0103452Y0074191D01*
X0103367Y0074218D01*
X0103282Y0074241D01*
X0103196Y0074260D01*
X0103108Y0074276D01*
X0103021Y0074288D01*
X0102933Y0074296D01*
X0102844Y0074300D01*
X0102756Y0074300D01*
X0102667Y0074296D01*
X0102579Y0074288D01*
X0102492Y0074276D01*
X0102404Y0074260D01*
X0102318Y0074241D01*
X0102233Y0074218D01*
X0102148Y0074191D01*
X0102065Y0074160D01*
X0101984Y0074126D01*
X0101904Y0074088D01*
X0101826Y0074047D01*
X0101749Y0074002D01*
X0101675Y0073954D01*
X0101603Y0073902D01*
X0101533Y0073848D01*
X0101466Y0073790D01*
X0101402Y0073730D01*
X0101340Y0073667D01*
X0101281Y0073601D01*
X0101225Y0073532D01*
X0101172Y0073461D01*
X0101122Y0073388D01*
X0101075Y0073313D01*
X0101032Y0073235D01*
X0100993Y0073156D01*
X0100957Y0073076D01*
X0100924Y0072993D01*
X0100895Y0072910D01*
X0100870Y0072825D01*
X0100849Y0072739D01*
X0100831Y0072652D01*
X0100818Y0072565D01*
X0100808Y0072477D01*
X0100802Y0072388D01*
X0100800Y0072300D01*
X0100238Y0063181D02*
X0100238Y0060819D01*
X0104962Y0060819D02*
X0104962Y0063181D01*
X0106698Y0055399D02*
X0092502Y0055399D01*
X0083562Y0050681D02*
X0083562Y0048319D01*
X0078838Y0048319D02*
X0078838Y0050681D01*
X0092502Y0036801D02*
X0106698Y0036801D01*
X0041281Y0037938D02*
X0038919Y0037938D01*
X0038919Y0042662D02*
X0041281Y0042662D01*
X0041281Y0044538D02*
X0038919Y0044538D01*
X0038919Y0049262D02*
X0041281Y0049262D01*
X0041281Y0051938D02*
X0038919Y0051938D01*
X0038919Y0056662D02*
X0041281Y0056662D01*
X0020562Y0070119D02*
X0020562Y0072481D01*
X0015838Y0072481D02*
X0015838Y0070119D01*
X0014038Y0059581D02*
X0014038Y0057219D01*
X0018762Y0057219D02*
X0018762Y0059581D01*
X0036419Y0071538D02*
X0038781Y0071538D01*
X0038781Y0076262D02*
X0036419Y0076262D01*
X0036219Y0078738D02*
X0038581Y0078738D01*
X0038581Y0083462D02*
X0036219Y0083462D01*
X0034181Y0099138D02*
X0031819Y0099138D01*
X0031819Y0103862D02*
X0034181Y0103862D01*
X0044619Y0104062D02*
X0046981Y0104062D01*
X0046981Y0099338D02*
X0044619Y0099338D01*
X0068838Y0091581D02*
X0068838Y0089219D01*
X0073562Y0089219D02*
X0073562Y0091581D01*
X0075338Y0090681D02*
X0075338Y0088319D01*
X0080062Y0088319D02*
X0080062Y0090681D01*
X0081838Y0090581D02*
X0081838Y0088219D01*
X0086562Y0088219D02*
X0086562Y0090581D01*
X0035281Y0118638D02*
X0032919Y0118638D01*
X0032919Y0123362D02*
X0035281Y0123362D01*
X0023181Y0123262D02*
X0020819Y0123262D01*
X0020819Y0118538D02*
X0023181Y0118538D01*
D17*
X0109100Y0112300D02*
X0109100Y0072300D01*
D18*
X0147528Y0091439D02*
X0150372Y0091439D01*
X0150370Y0097361D02*
X0147628Y0097361D01*
X0177128Y0076161D02*
X0179972Y0076161D01*
X0179872Y0070239D02*
X0177130Y0070239D01*
X0143170Y0046761D02*
X0140428Y0046761D01*
X0140328Y0040839D02*
X0143172Y0040839D01*
X0059361Y0104530D02*
X0059361Y0107272D01*
X0053439Y0107372D02*
X0053439Y0104528D01*
X0019861Y0108828D02*
X0019861Y0111672D01*
X0013939Y0111670D02*
X0013939Y0108928D01*
X0013339Y0046370D02*
X0013339Y0043628D01*
X0019261Y0043528D02*
X0019261Y0046372D01*
X0025428Y0043161D02*
X0028170Y0043161D01*
X0028172Y0037239D02*
X0025328Y0037239D01*
X0254128Y0111939D02*
X0256972Y0111939D01*
X0256970Y0117861D02*
X0254228Y0117861D01*
X0254328Y0124439D02*
X0257172Y0124439D01*
X0257170Y0130361D02*
X0254428Y0130361D01*
D19*
X0255309Y0129762D03*
X0255309Y0125038D03*
X0255109Y0117262D03*
X0255109Y0112538D03*
X0178991Y0075562D03*
X0178991Y0070838D03*
X0148509Y0092038D03*
X0148509Y0096762D03*
X0141309Y0046162D03*
X0141309Y0041438D03*
X0026309Y0042562D03*
X0026309Y0037838D03*
D20*
X0026309Y0040200D03*
X0016300Y0044509D03*
X0056400Y0106391D03*
X0016900Y0109809D03*
X0141309Y0043800D03*
X0178991Y0073200D03*
X0148509Y0094400D03*
X0255109Y0114900D03*
X0255309Y0127400D03*
D21*
X0058762Y0106391D03*
X0054038Y0106391D03*
X0019262Y0109809D03*
X0014538Y0109809D03*
X0013938Y0044509D03*
X0018662Y0044509D03*
M02*
