G75*
%MOIN*%
%OFA0B0*%
%FSLAX25Y25*%
%IPPOS*%
%LPD*%
%AMOC8*
5,1,8,0,0,1.08239X$1,22.5*
%
%ADD10C,0.07400*%
%ADD11R,0.06299X0.07480*%
%ADD12R,0.04724X0.03150*%
%ADD13R,0.03150X0.04724*%
%ADD14R,0.07480X0.06299*%
%ADD15C,0.07400*%
%ADD16OC8,0.05600*%
%ADD17R,0.03937X0.04331*%
%ADD18R,0.02362X0.04724*%
%ADD19R,0.03268X0.02480*%
%ADD20C,0.03200*%
%ADD21C,0.01200*%
%ADD22C,0.01600*%
%ADD23C,0.01000*%
%ADD24C,0.03969*%
%ADD25C,0.04362*%
D10*
X0149362Y0146433D02*
X0149362Y0153833D01*
X0169362Y0153833D02*
X0169362Y0146433D01*
X0189362Y0146433D02*
X0189362Y0153833D01*
X0209362Y0153833D02*
X0209362Y0146433D01*
X0229362Y0146433D02*
X0229362Y0153833D01*
X0249362Y0153833D02*
X0249362Y0146433D01*
X0269362Y0146433D02*
X0269362Y0153833D01*
X0289362Y0153833D02*
X0289362Y0146433D01*
X0309362Y0146433D02*
X0309362Y0153833D01*
X0329362Y0153833D02*
X0329362Y0146433D01*
D11*
X0375362Y0125629D03*
X0375362Y0112637D03*
X0075662Y0100129D03*
X0075662Y0087137D03*
D12*
X0072262Y0121090D03*
X0072262Y0128176D03*
X0252262Y0063576D03*
X0259462Y0063676D03*
X0259462Y0056590D03*
X0252262Y0056490D03*
X0366362Y0115590D03*
X0366362Y0122676D03*
D13*
X0374619Y0085133D03*
X0381705Y0085133D03*
X0205705Y0052133D03*
X0198619Y0052133D03*
D14*
X0374466Y0093833D03*
X0387458Y0093833D03*
D15*
X0434362Y0095633D03*
X0434362Y0085633D03*
X0062662Y0095133D03*
X0061662Y0085133D03*
X0062662Y0075133D03*
X0061662Y0065133D03*
X0061662Y0105133D03*
X0062662Y0115133D03*
X0061662Y0125133D03*
X0062662Y0135133D03*
D16*
X0390162Y0128633D03*
X0390162Y0148633D03*
D17*
X0119912Y0102480D03*
X0119912Y0095787D03*
D18*
X0213162Y0064657D03*
X0218162Y0064657D03*
X0223162Y0064657D03*
X0228162Y0064657D03*
X0233162Y0064657D03*
X0238162Y0064657D03*
X0243162Y0064657D03*
X0243162Y0042609D03*
X0238162Y0042609D03*
X0233162Y0042609D03*
X0228162Y0042609D03*
X0223162Y0042609D03*
X0218162Y0042609D03*
X0213162Y0042609D03*
D19*
X0329362Y0088306D03*
X0329362Y0097361D03*
D20*
X0353662Y0109233D03*
X0358062Y0104733D03*
X0231862Y0058433D03*
X0224762Y0059833D03*
X0218262Y0055133D03*
X0213162Y0059333D03*
X0215662Y0048533D03*
X0221762Y0048133D03*
X0233662Y0047733D03*
X0125162Y0084633D03*
X0076362Y0108433D03*
D21*
X0076362Y0102429D01*
X0075662Y0100129D01*
X0113343Y0109452D02*
X0113662Y0109133D01*
X0213162Y0064657D02*
X0218162Y0064657D01*
X0218162Y0042609D02*
X0215362Y0042609D01*
X0213162Y0042609D01*
X0238162Y0042609D02*
X0243162Y0042609D01*
X0157962Y0048633D02*
X0156962Y0047633D01*
X0140162Y0047633D01*
X0136662Y0051133D01*
X0129662Y0051133D01*
X0157962Y0048633D02*
X0157962Y0059333D01*
D22*
X0136172Y0056224D02*
X0115637Y0056224D01*
X0115343Y0057221D02*
X0116189Y0054352D01*
X0117358Y0051600D01*
X0118833Y0048998D01*
X0120596Y0046583D01*
X0122624Y0044385D01*
X0124890Y0042433D01*
X0127364Y0040753D01*
X0130013Y0039367D01*
X0131141Y0038933D01*
X0138427Y0038933D01*
X0137328Y0047355D01*
X0135751Y0048933D01*
X0132531Y0048933D01*
X0131692Y0048094D01*
X0130375Y0047549D01*
X0128949Y0047549D01*
X0127631Y0048094D01*
X0126623Y0049103D01*
X0126078Y0050420D01*
X0126078Y0051846D01*
X0126623Y0053163D01*
X0127631Y0054172D01*
X0128949Y0054717D01*
X0130375Y0054717D01*
X0131692Y0054172D01*
X0132531Y0053333D01*
X0136549Y0053333D01*
X0134762Y0067033D01*
X0134293Y0067033D01*
X0134292Y0067033D01*
X0134292Y0067033D01*
X0133678Y0067647D01*
X0133062Y0068262D01*
X0133062Y0068263D01*
X0118562Y0082763D01*
X0118562Y0086664D01*
X0117623Y0087603D01*
X0117078Y0088920D01*
X0117078Y0090346D01*
X0117623Y0091663D01*
X0117781Y0091821D01*
X0117706Y0091821D01*
X0117249Y0091944D01*
X0116838Y0092181D01*
X0116503Y0092516D01*
X0116266Y0092926D01*
X0116143Y0093384D01*
X0116143Y0095602D01*
X0119727Y0095602D01*
X0119727Y0095971D01*
X0116143Y0095971D01*
X0116143Y0098189D01*
X0116266Y0098647D01*
X0116503Y0099057D01*
X0116720Y0099274D01*
X0116343Y0099651D01*
X0116343Y0105308D01*
X0117131Y0106095D01*
X0116623Y0106603D01*
X0116078Y0107920D01*
X0116078Y0109346D01*
X0116623Y0110663D01*
X0117631Y0111672D01*
X0118949Y0112217D01*
X0120375Y0112217D01*
X0121692Y0111672D01*
X0122562Y0110802D01*
X0122562Y0117664D01*
X0121823Y0118403D01*
X0121811Y0118433D01*
X0121492Y0118433D01*
X0120262Y0119663D01*
X0120262Y0119663D01*
X0119392Y0120533D01*
X0119392Y0120533D01*
X0118162Y0121763D01*
X0113972Y0121763D01*
X0113996Y0120165D02*
X0119760Y0120165D01*
X0118162Y0121763D02*
X0118162Y0155010D01*
X0118120Y0155028D01*
X0117056Y0156091D01*
X0116481Y0157481D01*
X0116481Y0158985D01*
X0116923Y0160052D01*
X0116859Y0159980D01*
X0115702Y0158268D01*
X0114777Y0156420D01*
X0114100Y0154468D01*
X0113682Y0152444D01*
X0113531Y0150383D01*
X0114829Y0066138D01*
X0114658Y0063152D01*
X0114831Y0060167D01*
X0115343Y0057221D01*
X0115239Y0057823D02*
X0135963Y0057823D01*
X0135755Y0059421D02*
X0114960Y0059421D01*
X0114781Y0061020D02*
X0135546Y0061020D01*
X0135338Y0062618D02*
X0114689Y0062618D01*
X0114719Y0064217D02*
X0135129Y0064217D01*
X0134921Y0065815D02*
X0114810Y0065815D01*
X0114809Y0067414D02*
X0133911Y0067414D01*
X0132313Y0069012D02*
X0114784Y0069012D01*
X0114760Y0070611D02*
X0130714Y0070611D01*
X0129116Y0072209D02*
X0114735Y0072209D01*
X0114710Y0073808D02*
X0127517Y0073808D01*
X0125919Y0075406D02*
X0114686Y0075406D01*
X0114661Y0077005D02*
X0124320Y0077005D01*
X0122722Y0078603D02*
X0114636Y0078603D01*
X0114612Y0080202D02*
X0121123Y0080202D01*
X0119525Y0081800D02*
X0114587Y0081800D01*
X0114563Y0083399D02*
X0118562Y0083399D01*
X0118562Y0084997D02*
X0114538Y0084997D01*
X0114513Y0086596D02*
X0118562Y0086596D01*
X0117378Y0088194D02*
X0114489Y0088194D01*
X0114464Y0089793D02*
X0117078Y0089793D01*
X0117511Y0091391D02*
X0114439Y0091391D01*
X0114415Y0092990D02*
X0116249Y0092990D01*
X0116143Y0094588D02*
X0114390Y0094588D01*
X0114366Y0096187D02*
X0116143Y0096187D01*
X0116143Y0097785D02*
X0114341Y0097785D01*
X0114316Y0099384D02*
X0116611Y0099384D01*
X0116343Y0100982D02*
X0114292Y0100982D01*
X0114267Y0102581D02*
X0116343Y0102581D01*
X0116343Y0104179D02*
X0114242Y0104179D01*
X0114218Y0105778D02*
X0116814Y0105778D01*
X0116303Y0107377D02*
X0114193Y0107377D01*
X0114169Y0108975D02*
X0116078Y0108975D01*
X0116586Y0110574D02*
X0114144Y0110574D01*
X0114119Y0112172D02*
X0118840Y0112172D01*
X0120484Y0112172D02*
X0122562Y0112172D01*
X0122562Y0113771D02*
X0114095Y0113771D01*
X0114070Y0115369D02*
X0122562Y0115369D01*
X0122562Y0116968D02*
X0114045Y0116968D01*
X0114021Y0118566D02*
X0121359Y0118566D01*
X0124962Y0119933D02*
X0124862Y0120433D01*
X0124962Y0119933D02*
X0124962Y0108633D01*
X0125162Y0108433D02*
X0125162Y0084633D01*
X0125162Y0083133D01*
X0136162Y0072133D01*
X0370462Y0072133D01*
X0374662Y0076333D01*
X0374662Y0084133D01*
X0374262Y0084533D01*
X0374262Y0084776D01*
X0374619Y0085133D01*
X0374466Y0085286D01*
X0374466Y0093833D01*
X0366962Y0093833D01*
X0366062Y0092933D01*
X0366062Y0106133D01*
X0367662Y0108133D01*
X0421637Y0107377D02*
X0496589Y0107377D01*
X0496582Y0108975D02*
X0421643Y0108975D01*
X0421650Y0110574D02*
X0496576Y0110574D01*
X0496570Y0112172D02*
X0421656Y0112172D01*
X0421662Y0113771D02*
X0496564Y0113771D01*
X0496558Y0115369D02*
X0421668Y0115369D01*
X0421674Y0116968D02*
X0496552Y0116968D01*
X0496545Y0118566D02*
X0421681Y0118566D01*
X0421687Y0120165D02*
X0496539Y0120165D01*
X0496533Y0121763D02*
X0421693Y0121763D01*
X0421699Y0123362D02*
X0496527Y0123362D01*
X0496521Y0124960D02*
X0421705Y0124960D01*
X0421712Y0126559D02*
X0496515Y0126559D01*
X0496508Y0128157D02*
X0421718Y0128157D01*
X0421724Y0129756D02*
X0496502Y0129756D01*
X0496496Y0131354D02*
X0421730Y0131354D01*
X0421737Y0132953D02*
X0496490Y0132953D01*
X0496484Y0134551D02*
X0421743Y0134551D01*
X0421749Y0136150D02*
X0496478Y0136150D01*
X0496471Y0137748D02*
X0421755Y0137748D01*
X0421761Y0139347D02*
X0496465Y0139347D01*
X0496459Y0140945D02*
X0421768Y0140945D01*
X0421774Y0142544D02*
X0496453Y0142544D01*
X0496447Y0144142D02*
X0421780Y0144142D01*
X0421786Y0145741D02*
X0496441Y0145741D01*
X0496434Y0147339D02*
X0421793Y0147339D01*
X0421799Y0148938D02*
X0496428Y0148938D01*
X0496422Y0150536D02*
X0421805Y0150536D01*
X0421811Y0152135D02*
X0496416Y0152135D01*
X0496410Y0153733D02*
X0421817Y0153733D01*
X0421824Y0155332D02*
X0496403Y0155332D01*
X0496397Y0156930D02*
X0421830Y0156930D01*
X0421836Y0158529D02*
X0496391Y0158529D01*
X0496385Y0160127D02*
X0421842Y0160127D01*
X0421849Y0161726D02*
X0496379Y0161726D01*
X0496373Y0163324D02*
X0421855Y0163324D01*
X0421857Y0163833D02*
X0496371Y0163833D01*
X0496853Y0038933D01*
X0421371Y0038933D01*
X0421857Y0163833D01*
X0353662Y0146133D02*
X0349662Y0142133D01*
X0338662Y0131633D01*
X0313662Y0131633D01*
X0310662Y0134633D01*
X0310662Y0148833D01*
X0309362Y0150133D01*
X0421631Y0105778D02*
X0496595Y0105778D01*
X0496601Y0104179D02*
X0421625Y0104179D01*
X0421618Y0102581D02*
X0496607Y0102581D01*
X0496613Y0100982D02*
X0435819Y0100982D01*
X0435456Y0101133D02*
X0437477Y0100296D01*
X0439024Y0098749D01*
X0439862Y0096727D01*
X0439862Y0094539D01*
X0439024Y0092518D01*
X0437477Y0090970D01*
X0436663Y0090633D01*
X0437477Y0090296D01*
X0439024Y0088749D01*
X0439862Y0086727D01*
X0439862Y0084539D01*
X0439024Y0082518D01*
X0437477Y0080970D01*
X0435456Y0080133D01*
X0433268Y0080133D01*
X0431246Y0080970D01*
X0429699Y0082518D01*
X0428862Y0084539D01*
X0428862Y0086727D01*
X0429699Y0088749D01*
X0431246Y0090296D01*
X0432061Y0090633D01*
X0431246Y0090970D01*
X0429699Y0092518D01*
X0428862Y0094539D01*
X0428862Y0096727D01*
X0429699Y0098749D01*
X0431246Y0100296D01*
X0433268Y0101133D01*
X0435456Y0101133D01*
X0432904Y0100982D02*
X0421612Y0100982D01*
X0421606Y0099384D02*
X0430335Y0099384D01*
X0429300Y0097785D02*
X0421600Y0097785D01*
X0421594Y0096187D02*
X0428862Y0096187D01*
X0428862Y0094588D02*
X0421587Y0094588D01*
X0421581Y0092990D02*
X0429503Y0092990D01*
X0430825Y0091391D02*
X0421575Y0091391D01*
X0421569Y0089793D02*
X0430743Y0089793D01*
X0429470Y0088194D02*
X0421562Y0088194D01*
X0421556Y0086596D02*
X0428862Y0086596D01*
X0428862Y0084997D02*
X0421550Y0084997D01*
X0421544Y0083399D02*
X0429334Y0083399D01*
X0430416Y0081800D02*
X0421538Y0081800D01*
X0421531Y0080202D02*
X0433102Y0080202D01*
X0435622Y0080202D02*
X0476792Y0080202D01*
X0476515Y0078633D02*
X0476515Y0078633D01*
X0477097Y0075334D01*
X0477097Y0075334D01*
X0478772Y0072432D01*
X0481339Y0070279D01*
X0484487Y0069133D01*
X0487073Y0069133D01*
X0487837Y0069133D01*
X0490985Y0070279D01*
X0490985Y0070279D01*
X0493551Y0072432D01*
X0493551Y0072432D01*
X0493551Y0072432D01*
X0495227Y0075334D01*
X0495808Y0078633D01*
X0495227Y0081932D01*
X0495227Y0081932D01*
X0493551Y0084834D01*
X0490985Y0086987D01*
X0487837Y0088133D01*
X0484487Y0088133D01*
X0481339Y0086987D01*
X0481339Y0086987D01*
X0478772Y0084834D01*
X0478772Y0084834D01*
X0478772Y0084834D01*
X0477097Y0081932D01*
X0476515Y0078633D01*
X0476520Y0078603D02*
X0421525Y0078603D01*
X0421519Y0077005D02*
X0476802Y0077005D01*
X0477084Y0075406D02*
X0421513Y0075406D01*
X0421506Y0073808D02*
X0477978Y0073808D01*
X0478772Y0072432D02*
X0478772Y0072432D01*
X0479038Y0072209D02*
X0421500Y0072209D01*
X0421494Y0070611D02*
X0480943Y0070611D01*
X0481339Y0070279D02*
X0481339Y0070279D01*
X0487837Y0069133D02*
X0487837Y0069133D01*
X0491381Y0070611D02*
X0496731Y0070611D01*
X0496724Y0072209D02*
X0493286Y0072209D01*
X0494346Y0073808D02*
X0496718Y0073808D01*
X0496712Y0075406D02*
X0495239Y0075406D01*
X0495227Y0075334D02*
X0495227Y0075334D01*
X0495521Y0077005D02*
X0496706Y0077005D01*
X0496700Y0078603D02*
X0495803Y0078603D01*
X0495808Y0078633D02*
X0495808Y0078633D01*
X0495532Y0080202D02*
X0496694Y0080202D01*
X0496687Y0081800D02*
X0495250Y0081800D01*
X0494380Y0083399D02*
X0496681Y0083399D01*
X0496675Y0084997D02*
X0493357Y0084997D01*
X0493551Y0084834D02*
X0493551Y0084834D01*
X0491451Y0086596D02*
X0496669Y0086596D01*
X0496663Y0088194D02*
X0439254Y0088194D01*
X0439862Y0086596D02*
X0480872Y0086596D01*
X0478967Y0084997D02*
X0439862Y0084997D01*
X0439389Y0083399D02*
X0477944Y0083399D01*
X0477097Y0081932D02*
X0477097Y0081932D01*
X0477074Y0081800D02*
X0438307Y0081800D01*
X0437980Y0089793D02*
X0496657Y0089793D01*
X0496650Y0091391D02*
X0437898Y0091391D01*
X0439220Y0092990D02*
X0496644Y0092990D01*
X0496638Y0094588D02*
X0439862Y0094588D01*
X0439862Y0096187D02*
X0496632Y0096187D01*
X0496626Y0097785D02*
X0439423Y0097785D01*
X0438389Y0099384D02*
X0496620Y0099384D01*
X0490985Y0086987D02*
X0490985Y0086987D01*
X0496737Y0069012D02*
X0421488Y0069012D01*
X0421482Y0067414D02*
X0496743Y0067414D01*
X0496749Y0065815D02*
X0421475Y0065815D01*
X0421469Y0064217D02*
X0496755Y0064217D01*
X0496761Y0062618D02*
X0421463Y0062618D01*
X0421457Y0061020D02*
X0496768Y0061020D01*
X0496774Y0059421D02*
X0421450Y0059421D01*
X0421444Y0057823D02*
X0496780Y0057823D01*
X0496786Y0056224D02*
X0421438Y0056224D01*
X0421432Y0054626D02*
X0496792Y0054626D01*
X0496798Y0053027D02*
X0421426Y0053027D01*
X0421419Y0051429D02*
X0496805Y0051429D01*
X0496811Y0049830D02*
X0421413Y0049830D01*
X0421407Y0048232D02*
X0496817Y0048232D01*
X0496823Y0046633D02*
X0421401Y0046633D01*
X0421394Y0045035D02*
X0496829Y0045035D01*
X0496836Y0043436D02*
X0421388Y0043436D01*
X0421382Y0041838D02*
X0496842Y0041838D01*
X0496848Y0040239D02*
X0421376Y0040239D01*
X0138257Y0040239D02*
X0128347Y0040239D01*
X0125767Y0041838D02*
X0138048Y0041838D01*
X0137840Y0043436D02*
X0123725Y0043436D01*
X0122025Y0045035D02*
X0137631Y0045035D01*
X0137423Y0046633D02*
X0120560Y0046633D01*
X0119393Y0048232D02*
X0127494Y0048232D01*
X0126322Y0049830D02*
X0118361Y0049830D01*
X0117455Y0051429D02*
X0126078Y0051429D01*
X0126567Y0053027D02*
X0116752Y0053027D01*
X0116109Y0054626D02*
X0128728Y0054626D01*
X0130596Y0054626D02*
X0136380Y0054626D01*
X0136452Y0048232D02*
X0131829Y0048232D01*
X0119912Y0102480D02*
X0119912Y0108383D01*
X0119662Y0108633D01*
X0118162Y0123362D02*
X0113947Y0123362D01*
X0113922Y0124960D02*
X0118162Y0124960D01*
X0118162Y0126559D02*
X0113898Y0126559D01*
X0113873Y0128157D02*
X0118162Y0128157D01*
X0118162Y0129756D02*
X0113848Y0129756D01*
X0113824Y0131354D02*
X0118162Y0131354D01*
X0118162Y0132953D02*
X0113799Y0132953D01*
X0113774Y0134551D02*
X0118162Y0134551D01*
X0118162Y0136150D02*
X0113750Y0136150D01*
X0113725Y0137748D02*
X0118162Y0137748D01*
X0118162Y0139347D02*
X0113701Y0139347D01*
X0113676Y0140945D02*
X0118162Y0140945D01*
X0118162Y0142544D02*
X0113651Y0142544D01*
X0113627Y0144142D02*
X0118162Y0144142D01*
X0118162Y0145741D02*
X0113602Y0145741D01*
X0113577Y0147339D02*
X0118162Y0147339D01*
X0118162Y0148938D02*
X0113553Y0148938D01*
X0113542Y0150536D02*
X0118162Y0150536D01*
X0118162Y0152135D02*
X0113659Y0152135D01*
X0113948Y0153733D02*
X0118162Y0153733D01*
X0117816Y0155332D02*
X0114400Y0155332D01*
X0115033Y0156930D02*
X0116709Y0156930D01*
X0116481Y0158529D02*
X0115878Y0158529D01*
X0073662Y0115133D02*
X0072462Y0115133D01*
X0062662Y0115133D01*
X0073662Y0115133D02*
X0076362Y0112433D01*
X0076362Y0108433D01*
D23*
X0050670Y0164133D02*
X0051154Y0038633D01*
X0063380Y0038633D01*
X0064752Y0039051D01*
X0068233Y0040538D01*
X0071534Y0042390D01*
X0074616Y0044588D01*
X0077443Y0047104D01*
X0079983Y0049910D01*
X0082206Y0052974D01*
X0084086Y0056259D01*
X0085602Y0059728D01*
X0086735Y0063339D01*
X0087473Y0067052D01*
X0087806Y0070822D01*
X0087732Y0074606D01*
X0086162Y0153633D01*
X0086035Y0155412D01*
X0085655Y0157155D01*
X0085032Y0158826D01*
X0084177Y0160391D01*
X0083109Y0161819D01*
X0081848Y0163080D01*
X0080441Y0164133D01*
X0050670Y0164133D01*
X0050672Y0163459D02*
X0081341Y0163459D01*
X0082467Y0162460D02*
X0050676Y0162460D01*
X0050680Y0161462D02*
X0083376Y0161462D01*
X0084123Y0160463D02*
X0075393Y0160463D01*
X0076307Y0160085D02*
X0073293Y0161333D01*
X0070031Y0161333D01*
X0067017Y0160085D01*
X0064710Y0157778D01*
X0063462Y0154764D01*
X0063462Y0151502D01*
X0064710Y0148488D01*
X0067017Y0146181D01*
X0070031Y0144933D01*
X0071289Y0144933D01*
X0073293Y0144933D01*
X0076307Y0146181D01*
X0078613Y0148488D01*
X0078613Y0148488D01*
X0079862Y0151502D01*
X0079862Y0154764D01*
X0078613Y0157778D01*
X0076307Y0160085D01*
X0076307Y0160085D01*
X0076927Y0159465D02*
X0084683Y0159465D01*
X0085166Y0158466D02*
X0077925Y0158466D01*
X0078613Y0157778D02*
X0078613Y0157778D01*
X0078742Y0157468D02*
X0085539Y0157468D01*
X0085805Y0156469D02*
X0079155Y0156469D01*
X0079569Y0155471D02*
X0086022Y0155471D01*
X0086102Y0154472D02*
X0079862Y0154472D01*
X0079862Y0153474D02*
X0086165Y0153474D01*
X0086185Y0152475D02*
X0079862Y0152475D01*
X0079851Y0151477D02*
X0086205Y0151477D01*
X0086224Y0150478D02*
X0079438Y0150478D01*
X0079024Y0149480D02*
X0086244Y0149480D01*
X0086264Y0148481D02*
X0078607Y0148481D01*
X0077608Y0147483D02*
X0086284Y0147483D01*
X0086304Y0146484D02*
X0076609Y0146484D01*
X0076307Y0146181D02*
X0076307Y0146181D01*
X0074627Y0145486D02*
X0086324Y0145486D01*
X0086344Y0144487D02*
X0050745Y0144487D01*
X0050749Y0143489D02*
X0086363Y0143489D01*
X0086383Y0142490D02*
X0050753Y0142490D01*
X0050757Y0141492D02*
X0086403Y0141492D01*
X0086423Y0140493D02*
X0050761Y0140493D01*
X0050765Y0139495D02*
X0059818Y0139495D01*
X0059936Y0139580D02*
X0059274Y0139099D01*
X0058695Y0138521D01*
X0058214Y0137858D01*
X0057843Y0137129D01*
X0057590Y0136351D01*
X0057476Y0135633D01*
X0062162Y0135633D01*
X0062162Y0140319D01*
X0061444Y0140205D01*
X0060666Y0139952D01*
X0059936Y0139580D01*
X0058678Y0138496D02*
X0050769Y0138496D01*
X0050772Y0137498D02*
X0058031Y0137498D01*
X0057638Y0136499D02*
X0050776Y0136499D01*
X0050780Y0135501D02*
X0062162Y0135501D01*
X0062162Y0135633D02*
X0062162Y0134633D01*
X0057476Y0134633D01*
X0057590Y0133915D01*
X0057843Y0133137D01*
X0058214Y0132408D01*
X0058695Y0131745D01*
X0059274Y0131167D01*
X0059936Y0130686D01*
X0060666Y0130314D01*
X0060819Y0130264D01*
X0060444Y0130205D01*
X0059666Y0129952D01*
X0058936Y0129580D01*
X0058274Y0129099D01*
X0057695Y0128521D01*
X0057214Y0127858D01*
X0056843Y0127129D01*
X0056590Y0126351D01*
X0056476Y0125633D01*
X0061162Y0125633D01*
X0061162Y0124633D01*
X0062162Y0124633D01*
X0062162Y0125633D01*
X0066847Y0125633D01*
X0066734Y0126351D01*
X0066481Y0127129D01*
X0066109Y0127858D01*
X0065628Y0128521D01*
X0065049Y0129099D01*
X0064387Y0129580D01*
X0063658Y0129952D01*
X0063505Y0130002D01*
X0063879Y0130061D01*
X0064658Y0130314D01*
X0065387Y0130686D01*
X0066049Y0131167D01*
X0066628Y0131745D01*
X0067109Y0132408D01*
X0067481Y0133137D01*
X0067734Y0133915D01*
X0067847Y0134633D01*
X0063162Y0134633D01*
X0063162Y0135633D01*
X0067847Y0135633D01*
X0067734Y0136351D01*
X0067481Y0137129D01*
X0067109Y0137858D01*
X0066628Y0138521D01*
X0066049Y0139099D01*
X0065387Y0139580D01*
X0064658Y0139952D01*
X0063879Y0140205D01*
X0063162Y0140319D01*
X0063162Y0135633D01*
X0062162Y0135633D01*
X0062162Y0136499D02*
X0063162Y0136499D01*
X0063162Y0135501D02*
X0086522Y0135501D01*
X0086502Y0136499D02*
X0067686Y0136499D01*
X0067293Y0137498D02*
X0086482Y0137498D01*
X0086463Y0138496D02*
X0066646Y0138496D01*
X0065505Y0139495D02*
X0086443Y0139495D01*
X0086542Y0134502D02*
X0067827Y0134502D01*
X0067600Y0133504D02*
X0086562Y0133504D01*
X0086582Y0132505D02*
X0067159Y0132505D01*
X0066389Y0131507D02*
X0086601Y0131507D01*
X0086621Y0130508D02*
X0075919Y0130508D01*
X0075824Y0130672D02*
X0075545Y0130951D01*
X0075203Y0131149D01*
X0074821Y0131251D01*
X0072549Y0131251D01*
X0072549Y0128464D01*
X0071974Y0128464D01*
X0071974Y0127889D01*
X0068400Y0127889D01*
X0068400Y0126404D01*
X0068502Y0126023D01*
X0068699Y0125681D01*
X0068979Y0125401D01*
X0069321Y0125204D01*
X0069702Y0125102D01*
X0071974Y0125102D01*
X0071974Y0127889D01*
X0072549Y0127889D01*
X0072549Y0125102D01*
X0074821Y0125102D01*
X0075203Y0125204D01*
X0075545Y0125401D01*
X0075824Y0125681D01*
X0076022Y0126023D01*
X0076124Y0126404D01*
X0076124Y0127889D01*
X0072549Y0127889D01*
X0072549Y0128464D01*
X0076124Y0128464D01*
X0076124Y0129949D01*
X0076022Y0130330D01*
X0075824Y0130672D01*
X0076124Y0129510D02*
X0086641Y0129510D01*
X0086661Y0128511D02*
X0076124Y0128511D01*
X0076124Y0127512D02*
X0086681Y0127512D01*
X0086701Y0126514D02*
X0076124Y0126514D01*
X0075659Y0125515D02*
X0086720Y0125515D01*
X0086740Y0124517D02*
X0066829Y0124517D01*
X0066847Y0124633D02*
X0062162Y0124633D01*
X0062162Y0120133D01*
X0061667Y0120133D01*
X0059830Y0119372D01*
X0058423Y0117965D01*
X0057662Y0116128D01*
X0057662Y0114138D01*
X0058423Y0112301D01*
X0059830Y0110894D01*
X0061667Y0110133D01*
X0063656Y0110133D01*
X0065494Y0110894D01*
X0066901Y0112301D01*
X0067204Y0113033D01*
X0072792Y0113033D01*
X0074262Y0111563D01*
X0074262Y0110434D01*
X0073903Y0110076D01*
X0073462Y0109010D01*
X0073462Y0107856D01*
X0073903Y0106790D01*
X0074462Y0106232D01*
X0074462Y0105169D01*
X0071974Y0105169D01*
X0071212Y0104408D01*
X0071212Y0095850D01*
X0071974Y0095089D01*
X0079350Y0095089D01*
X0080111Y0095850D01*
X0080111Y0104408D01*
X0079350Y0105169D01*
X0078262Y0105169D01*
X0078262Y0106232D01*
X0078820Y0106790D01*
X0079262Y0107856D01*
X0079262Y0109010D01*
X0078820Y0110076D01*
X0078462Y0110434D01*
X0078462Y0113303D01*
X0077232Y0114533D01*
X0074532Y0117233D01*
X0074062Y0117233D01*
X0074062Y0118215D01*
X0075162Y0118215D01*
X0075924Y0118976D01*
X0075924Y0123203D01*
X0075162Y0123965D01*
X0069361Y0123965D01*
X0068600Y0123203D01*
X0068600Y0118976D01*
X0069361Y0118215D01*
X0070462Y0118215D01*
X0070462Y0117233D01*
X0067204Y0117233D01*
X0066901Y0117965D01*
X0065494Y0119372D01*
X0063656Y0120133D01*
X0063101Y0120133D01*
X0063658Y0120314D01*
X0064387Y0120686D01*
X0065049Y0121167D01*
X0065628Y0121745D01*
X0066109Y0122408D01*
X0066481Y0123137D01*
X0066734Y0123915D01*
X0066847Y0124633D01*
X0066605Y0123518D02*
X0068915Y0123518D01*
X0068600Y0122520D02*
X0066166Y0122520D01*
X0065404Y0121521D02*
X0068600Y0121521D01*
X0068600Y0120523D02*
X0064068Y0120523D01*
X0065126Y0119524D02*
X0068600Y0119524D01*
X0069050Y0118526D02*
X0066340Y0118526D01*
X0067082Y0117527D02*
X0070462Y0117527D01*
X0072262Y0115333D02*
X0072262Y0121090D01*
X0075924Y0121521D02*
X0086800Y0121521D01*
X0086820Y0120523D02*
X0075924Y0120523D01*
X0075924Y0119524D02*
X0086839Y0119524D01*
X0086859Y0118526D02*
X0075473Y0118526D01*
X0074062Y0117527D02*
X0086879Y0117527D01*
X0086899Y0116529D02*
X0075236Y0116529D01*
X0076234Y0115530D02*
X0086919Y0115530D01*
X0086939Y0114532D02*
X0077233Y0114532D01*
X0078231Y0113533D02*
X0086958Y0113533D01*
X0086978Y0112535D02*
X0078462Y0112535D01*
X0078462Y0111536D02*
X0086998Y0111536D01*
X0087018Y0110538D02*
X0078462Y0110538D01*
X0079043Y0109539D02*
X0087038Y0109539D01*
X0087058Y0108541D02*
X0079262Y0108541D01*
X0079132Y0107542D02*
X0087078Y0107542D01*
X0087097Y0106544D02*
X0078574Y0106544D01*
X0078262Y0105545D02*
X0087117Y0105545D01*
X0087137Y0104547D02*
X0079972Y0104547D01*
X0080111Y0103548D02*
X0087157Y0103548D01*
X0087177Y0102550D02*
X0080111Y0102550D01*
X0080111Y0101551D02*
X0087197Y0101551D01*
X0087216Y0100553D02*
X0080111Y0100553D01*
X0080111Y0099554D02*
X0087236Y0099554D01*
X0087256Y0098556D02*
X0080111Y0098556D01*
X0080111Y0097557D02*
X0087276Y0097557D01*
X0087296Y0096559D02*
X0080111Y0096559D01*
X0079821Y0095560D02*
X0087316Y0095560D01*
X0087335Y0094562D02*
X0067662Y0094562D01*
X0067662Y0094138D02*
X0066901Y0092301D01*
X0065494Y0090894D01*
X0063656Y0090133D01*
X0061667Y0090133D01*
X0059830Y0090894D01*
X0058423Y0092301D01*
X0057662Y0094138D01*
X0057662Y0096128D01*
X0058423Y0097965D01*
X0059830Y0099372D01*
X0061667Y0100133D01*
X0063656Y0100133D01*
X0065494Y0099372D01*
X0066901Y0097965D01*
X0067662Y0096128D01*
X0067662Y0094138D01*
X0067423Y0093563D02*
X0087355Y0093563D01*
X0087375Y0092565D02*
X0067010Y0092565D01*
X0066166Y0091566D02*
X0071178Y0091566D01*
X0071114Y0091456D02*
X0071012Y0091075D01*
X0071012Y0087637D01*
X0075162Y0087637D01*
X0075162Y0092377D01*
X0072315Y0092377D01*
X0071933Y0092275D01*
X0071591Y0092077D01*
X0071312Y0091798D01*
X0071114Y0091456D01*
X0071012Y0090568D02*
X0064705Y0090568D01*
X0064018Y0089569D02*
X0071012Y0089569D01*
X0071012Y0088571D02*
X0065295Y0088571D01*
X0065901Y0087965D02*
X0064494Y0089372D01*
X0062656Y0090133D01*
X0060667Y0090133D01*
X0058830Y0089372D01*
X0057423Y0087965D01*
X0056662Y0086128D01*
X0056662Y0084138D01*
X0057423Y0082301D01*
X0058830Y0080894D01*
X0060667Y0080133D01*
X0062656Y0080133D01*
X0064494Y0080894D01*
X0065901Y0082301D01*
X0066662Y0084138D01*
X0066662Y0086128D01*
X0065901Y0087965D01*
X0066064Y0087572D02*
X0075162Y0087572D01*
X0075162Y0087637D02*
X0075162Y0086637D01*
X0076162Y0086637D01*
X0076162Y0087637D01*
X0080311Y0087637D01*
X0080311Y0091075D01*
X0080209Y0091456D01*
X0080012Y0091798D01*
X0079732Y0092077D01*
X0079390Y0092275D01*
X0079009Y0092377D01*
X0076162Y0092377D01*
X0076162Y0087637D01*
X0075162Y0087637D01*
X0075162Y0088571D02*
X0076162Y0088571D01*
X0076162Y0089569D02*
X0075162Y0089569D01*
X0075162Y0090568D02*
X0076162Y0090568D01*
X0076162Y0091566D02*
X0075162Y0091566D01*
X0080146Y0091566D02*
X0087395Y0091566D01*
X0087415Y0090568D02*
X0080311Y0090568D01*
X0080311Y0089569D02*
X0087435Y0089569D01*
X0087454Y0088571D02*
X0080311Y0088571D01*
X0080311Y0086637D02*
X0076162Y0086637D01*
X0076162Y0081897D01*
X0079009Y0081897D01*
X0079390Y0081999D01*
X0079732Y0082197D01*
X0080012Y0082476D01*
X0080209Y0082818D01*
X0080311Y0083199D01*
X0080311Y0086637D01*
X0080311Y0086574D02*
X0087494Y0086574D01*
X0087474Y0087572D02*
X0076162Y0087572D01*
X0076162Y0086574D02*
X0075162Y0086574D01*
X0075162Y0086637D02*
X0075162Y0081897D01*
X0072315Y0081897D01*
X0071933Y0081999D01*
X0071591Y0082197D01*
X0071312Y0082476D01*
X0071114Y0082818D01*
X0071012Y0083199D01*
X0071012Y0086637D01*
X0075162Y0086637D01*
X0075162Y0085575D02*
X0076162Y0085575D01*
X0076162Y0084577D02*
X0075162Y0084577D01*
X0075162Y0083578D02*
X0076162Y0083578D01*
X0076162Y0082579D02*
X0075162Y0082579D01*
X0071252Y0082579D02*
X0066016Y0082579D01*
X0066430Y0083578D02*
X0071012Y0083578D01*
X0071012Y0084577D02*
X0066662Y0084577D01*
X0066662Y0085575D02*
X0071012Y0085575D01*
X0071012Y0086574D02*
X0066477Y0086574D01*
X0059306Y0089569D02*
X0050957Y0089569D01*
X0050961Y0088571D02*
X0058028Y0088571D01*
X0057260Y0087572D02*
X0050965Y0087572D01*
X0050969Y0086574D02*
X0056847Y0086574D01*
X0056662Y0085575D02*
X0050973Y0085575D01*
X0050977Y0084577D02*
X0056662Y0084577D01*
X0056894Y0083578D02*
X0050981Y0083578D01*
X0050984Y0082579D02*
X0057308Y0082579D01*
X0058143Y0081581D02*
X0050988Y0081581D01*
X0050992Y0080582D02*
X0059582Y0080582D01*
X0059830Y0079372D02*
X0058423Y0077965D01*
X0057662Y0076128D01*
X0057662Y0074138D01*
X0058423Y0072301D01*
X0059830Y0070894D01*
X0061667Y0070133D01*
X0063656Y0070133D01*
X0065494Y0070894D01*
X0066901Y0072301D01*
X0067662Y0074138D01*
X0067662Y0076128D01*
X0066901Y0077965D01*
X0065494Y0079372D01*
X0063656Y0080133D01*
X0061667Y0080133D01*
X0059830Y0079372D01*
X0060342Y0079584D02*
X0050996Y0079584D01*
X0051000Y0078585D02*
X0059043Y0078585D01*
X0058266Y0077587D02*
X0051004Y0077587D01*
X0051008Y0076588D02*
X0057853Y0076588D01*
X0057662Y0075590D02*
X0051011Y0075590D01*
X0051015Y0074591D02*
X0057662Y0074591D01*
X0057888Y0073593D02*
X0051019Y0073593D01*
X0051023Y0072594D02*
X0058301Y0072594D01*
X0059128Y0071596D02*
X0051027Y0071596D01*
X0051031Y0070597D02*
X0060546Y0070597D01*
X0060667Y0070133D02*
X0058830Y0069372D01*
X0057423Y0067965D01*
X0056662Y0066128D01*
X0056662Y0064138D01*
X0057423Y0062301D01*
X0058830Y0060894D01*
X0060667Y0060133D01*
X0062656Y0060133D01*
X0064494Y0060894D01*
X0065901Y0062301D01*
X0066662Y0064138D01*
X0066662Y0066128D01*
X0065901Y0067965D01*
X0064494Y0069372D01*
X0062656Y0070133D01*
X0060667Y0070133D01*
X0059378Y0069599D02*
X0051035Y0069599D01*
X0051038Y0068600D02*
X0058058Y0068600D01*
X0057272Y0067602D02*
X0051042Y0067602D01*
X0051046Y0066603D02*
X0056859Y0066603D01*
X0056662Y0065605D02*
X0051050Y0065605D01*
X0051054Y0064606D02*
X0056662Y0064606D01*
X0056882Y0063608D02*
X0051058Y0063608D01*
X0051062Y0062609D02*
X0057295Y0062609D01*
X0058113Y0061611D02*
X0051065Y0061611D01*
X0051069Y0060612D02*
X0059510Y0060612D01*
X0063813Y0060612D02*
X0085879Y0060612D01*
X0086193Y0061611D02*
X0065211Y0061611D01*
X0066028Y0062609D02*
X0086506Y0062609D01*
X0086788Y0063608D02*
X0066442Y0063608D01*
X0066662Y0064606D02*
X0086987Y0064606D01*
X0087185Y0065605D02*
X0066662Y0065605D01*
X0066465Y0066603D02*
X0087384Y0066603D01*
X0087521Y0067602D02*
X0066051Y0067602D01*
X0065266Y0068600D02*
X0087610Y0068600D01*
X0087698Y0069599D02*
X0063946Y0069599D01*
X0064777Y0070597D02*
X0087786Y0070597D01*
X0087791Y0071596D02*
X0066196Y0071596D01*
X0067022Y0072594D02*
X0087771Y0072594D01*
X0087752Y0073593D02*
X0067436Y0073593D01*
X0067662Y0074591D02*
X0087732Y0074591D01*
X0087712Y0075590D02*
X0067662Y0075590D01*
X0067471Y0076588D02*
X0087692Y0076588D01*
X0087673Y0077587D02*
X0067057Y0077587D01*
X0066280Y0078585D02*
X0087653Y0078585D01*
X0087633Y0079584D02*
X0064982Y0079584D01*
X0063741Y0080582D02*
X0087613Y0080582D01*
X0087593Y0081581D02*
X0065181Y0081581D01*
X0080072Y0082579D02*
X0087573Y0082579D01*
X0087554Y0083578D02*
X0080311Y0083578D01*
X0080311Y0084577D02*
X0087534Y0084577D01*
X0087514Y0085575D02*
X0080311Y0085575D01*
X0060618Y0090568D02*
X0050954Y0090568D01*
X0050950Y0091566D02*
X0059158Y0091566D01*
X0058314Y0092565D02*
X0050946Y0092565D01*
X0050942Y0093563D02*
X0057900Y0093563D01*
X0057662Y0094562D02*
X0050938Y0094562D01*
X0050934Y0095560D02*
X0057662Y0095560D01*
X0057840Y0096559D02*
X0050930Y0096559D01*
X0050927Y0097557D02*
X0058254Y0097557D01*
X0059013Y0098556D02*
X0050923Y0098556D01*
X0050919Y0099554D02*
X0060270Y0099554D01*
X0060667Y0100133D02*
X0062656Y0100133D01*
X0064494Y0100894D01*
X0065901Y0102301D01*
X0066662Y0104138D01*
X0066662Y0106128D01*
X0065901Y0107965D01*
X0064494Y0109372D01*
X0062656Y0110133D01*
X0060667Y0110133D01*
X0058830Y0109372D01*
X0057423Y0107965D01*
X0056662Y0106128D01*
X0056662Y0104138D01*
X0057423Y0102301D01*
X0058830Y0100894D01*
X0060667Y0100133D01*
X0059654Y0100553D02*
X0050915Y0100553D01*
X0050911Y0101551D02*
X0058173Y0101551D01*
X0057320Y0102550D02*
X0050907Y0102550D01*
X0050903Y0103548D02*
X0056906Y0103548D01*
X0056662Y0104547D02*
X0050900Y0104547D01*
X0050896Y0105545D02*
X0056662Y0105545D01*
X0056834Y0106544D02*
X0050892Y0106544D01*
X0050888Y0107542D02*
X0057248Y0107542D01*
X0057998Y0108541D02*
X0050884Y0108541D01*
X0050880Y0109539D02*
X0059234Y0109539D01*
X0060690Y0110538D02*
X0050876Y0110538D01*
X0050873Y0111536D02*
X0059187Y0111536D01*
X0058326Y0112535D02*
X0050869Y0112535D01*
X0050865Y0113533D02*
X0057912Y0113533D01*
X0057662Y0114532D02*
X0050861Y0114532D01*
X0050857Y0115530D02*
X0057662Y0115530D01*
X0057828Y0116529D02*
X0050853Y0116529D01*
X0050849Y0117527D02*
X0058242Y0117527D01*
X0058984Y0118526D02*
X0050846Y0118526D01*
X0050842Y0119524D02*
X0060198Y0119524D01*
X0060444Y0120061D02*
X0061162Y0119947D01*
X0061162Y0124633D01*
X0056476Y0124633D01*
X0056590Y0123915D01*
X0056843Y0123137D01*
X0057214Y0122408D01*
X0057695Y0121745D01*
X0058274Y0121167D01*
X0058936Y0120686D01*
X0059666Y0120314D01*
X0060444Y0120061D01*
X0061162Y0120523D02*
X0062162Y0120523D01*
X0062162Y0121521D02*
X0061162Y0121521D01*
X0061162Y0122520D02*
X0062162Y0122520D01*
X0062162Y0123518D02*
X0061162Y0123518D01*
X0061162Y0124517D02*
X0062162Y0124517D01*
X0062162Y0125515D02*
X0068864Y0125515D01*
X0068400Y0126514D02*
X0066681Y0126514D01*
X0066286Y0127512D02*
X0068400Y0127512D01*
X0068400Y0128464D02*
X0068400Y0129949D01*
X0068502Y0130330D01*
X0068699Y0130672D01*
X0068979Y0130951D01*
X0069321Y0131149D01*
X0069702Y0131251D01*
X0071974Y0131251D01*
X0071974Y0128464D01*
X0068400Y0128464D01*
X0068400Y0128511D02*
X0065635Y0128511D01*
X0064485Y0129510D02*
X0068400Y0129510D01*
X0068605Y0130508D02*
X0065039Y0130508D01*
X0060285Y0130508D02*
X0050799Y0130508D01*
X0050803Y0129510D02*
X0058839Y0129510D01*
X0057688Y0128511D02*
X0050807Y0128511D01*
X0050811Y0127512D02*
X0057038Y0127512D01*
X0056643Y0126514D02*
X0050815Y0126514D01*
X0050819Y0125515D02*
X0061162Y0125515D01*
X0056495Y0124517D02*
X0050823Y0124517D01*
X0050826Y0123518D02*
X0056719Y0123518D01*
X0057157Y0122520D02*
X0050830Y0122520D01*
X0050834Y0121521D02*
X0057920Y0121521D01*
X0059256Y0120523D02*
X0050838Y0120523D01*
X0066998Y0112535D02*
X0073290Y0112535D01*
X0074262Y0111536D02*
X0066136Y0111536D01*
X0064633Y0110538D02*
X0074262Y0110538D01*
X0073681Y0109539D02*
X0064090Y0109539D01*
X0065325Y0108541D02*
X0073462Y0108541D01*
X0073592Y0107542D02*
X0066076Y0107542D01*
X0066489Y0106544D02*
X0074150Y0106544D01*
X0074462Y0105545D02*
X0066662Y0105545D01*
X0066662Y0104547D02*
X0071351Y0104547D01*
X0071212Y0103548D02*
X0066417Y0103548D01*
X0066004Y0102550D02*
X0071212Y0102550D01*
X0071212Y0101551D02*
X0065151Y0101551D01*
X0063669Y0100553D02*
X0071212Y0100553D01*
X0071212Y0099554D02*
X0065054Y0099554D01*
X0066310Y0098556D02*
X0071212Y0098556D01*
X0071212Y0097557D02*
X0067070Y0097557D01*
X0067483Y0096559D02*
X0071212Y0096559D01*
X0071503Y0095560D02*
X0067662Y0095560D01*
X0113662Y0103133D02*
X0113662Y0109133D01*
X0113662Y0117133D01*
X0119662Y0117133D01*
X0122362Y0120533D02*
X0124362Y0120533D01*
X0124862Y0120433D01*
X0122362Y0120533D02*
X0120262Y0122633D01*
X0120262Y0158233D01*
X0123662Y0140033D02*
X0125962Y0138033D01*
X0128262Y0135733D01*
X0128262Y0083533D01*
X0137162Y0074633D01*
X0341662Y0074633D01*
X0347762Y0080733D01*
X0347762Y0081033D01*
X0361062Y0081033D01*
X0367162Y0085933D02*
X0351162Y0085933D01*
X0350162Y0086933D01*
X0350162Y0093733D01*
X0356862Y0100433D01*
X0360462Y0100433D01*
X0362262Y0102233D01*
X0362262Y0108265D01*
X0360362Y0110165D01*
X0354593Y0110165D01*
X0353662Y0109233D01*
X0353662Y0103133D01*
X0345762Y0095133D01*
X0345762Y0081933D01*
X0340462Y0076633D01*
X0138162Y0076633D01*
X0130762Y0084033D01*
X0130762Y0140533D01*
X0130162Y0141133D01*
X0115162Y0133633D02*
X0113662Y0132633D01*
X0113662Y0117133D01*
X0119662Y0108633D02*
X0124962Y0108633D01*
X0125162Y0108433D01*
X0159262Y0100133D02*
X0159362Y0100033D01*
X0159362Y0084933D01*
X0159262Y0084533D01*
X0163978Y0081793D02*
X0164901Y0082717D01*
X0166109Y0083217D01*
X0167415Y0083217D01*
X0168622Y0082717D01*
X0169546Y0081793D01*
X0170046Y0080586D01*
X0170046Y0079280D01*
X0169695Y0078433D01*
X0339716Y0078433D01*
X0343962Y0082679D01*
X0343962Y0095128D01*
X0343961Y0095333D01*
X0343362Y0095333D01*
X0343362Y0095133D01*
X0340362Y0092133D01*
X0326362Y0092133D01*
X0322362Y0088133D01*
X0305362Y0088133D01*
X0302362Y0091133D01*
X0295362Y0091133D01*
X0292362Y0088133D01*
X0285362Y0088133D01*
X0282362Y0085133D01*
X0133362Y0085133D01*
X0132867Y0084473D01*
X0138907Y0078433D01*
X0141228Y0078433D01*
X0140878Y0079280D01*
X0140878Y0080586D01*
X0141378Y0081793D01*
X0142301Y0082717D01*
X0143509Y0083217D01*
X0144815Y0083217D01*
X0146022Y0082717D01*
X0146946Y0081793D01*
X0146971Y0081733D01*
X0163953Y0081733D01*
X0163978Y0081793D01*
X0164764Y0082579D02*
X0146160Y0082579D01*
X0144162Y0079933D02*
X0166762Y0079933D01*
X0169758Y0078585D02*
X0339869Y0078585D01*
X0340867Y0079584D02*
X0170046Y0079584D01*
X0170046Y0080582D02*
X0341866Y0080582D01*
X0342864Y0081581D02*
X0169634Y0081581D01*
X0168760Y0082579D02*
X0343863Y0082579D01*
X0343962Y0083578D02*
X0133762Y0083578D01*
X0132944Y0084577D02*
X0343962Y0084577D01*
X0343962Y0085575D02*
X0331229Y0085575D01*
X0331193Y0085565D02*
X0331575Y0085668D01*
X0331917Y0085865D01*
X0332196Y0086144D01*
X0332393Y0086486D01*
X0332496Y0086868D01*
X0332496Y0088185D01*
X0329482Y0088185D01*
X0329482Y0085565D01*
X0331193Y0085565D01*
X0332417Y0086574D02*
X0343962Y0086574D01*
X0343962Y0087572D02*
X0332496Y0087572D01*
X0332496Y0088426D02*
X0329482Y0088426D01*
X0329242Y0088426D01*
X0329242Y0091046D01*
X0327530Y0091046D01*
X0327149Y0090943D01*
X0326807Y0090746D01*
X0326528Y0090467D01*
X0326330Y0090125D01*
X0326228Y0089743D01*
X0326228Y0088426D01*
X0329242Y0088426D01*
X0329242Y0088185D01*
X0329482Y0088185D01*
X0329482Y0088426D01*
X0329482Y0091046D01*
X0331193Y0091046D01*
X0331575Y0090943D01*
X0331917Y0090746D01*
X0332196Y0090467D01*
X0332393Y0090125D01*
X0332496Y0089743D01*
X0332496Y0088426D01*
X0332496Y0088571D02*
X0343962Y0088571D01*
X0343962Y0089569D02*
X0332496Y0089569D01*
X0332095Y0090568D02*
X0343962Y0090568D01*
X0343962Y0091566D02*
X0325795Y0091566D01*
X0326629Y0090568D02*
X0324796Y0090568D01*
X0323798Y0089569D02*
X0326228Y0089569D01*
X0326228Y0088571D02*
X0322799Y0088571D01*
X0326228Y0088185D02*
X0326228Y0086868D01*
X0326330Y0086486D01*
X0326528Y0086144D01*
X0326807Y0085865D01*
X0327149Y0085668D01*
X0327530Y0085565D01*
X0329242Y0085565D01*
X0329242Y0088185D01*
X0326228Y0088185D01*
X0326228Y0087572D02*
X0284801Y0087572D01*
X0283802Y0086574D02*
X0326307Y0086574D01*
X0327494Y0085575D02*
X0282804Y0085575D01*
X0292799Y0088571D02*
X0304924Y0088571D01*
X0303926Y0089569D02*
X0293798Y0089569D01*
X0294796Y0090568D02*
X0302927Y0090568D01*
X0308662Y0097133D02*
X0329562Y0097133D01*
X0329362Y0097333D01*
X0329362Y0097361D01*
X0329562Y0097133D02*
X0344662Y0097133D01*
X0349662Y0102133D01*
X0349662Y0115133D01*
X0348662Y0116133D01*
X0351852Y0117527D02*
X0362700Y0117527D01*
X0362700Y0117703D02*
X0362700Y0113476D01*
X0363461Y0112715D01*
X0364562Y0112715D01*
X0364562Y0112687D01*
X0365862Y0111387D01*
X0365862Y0111155D01*
X0365690Y0111084D01*
X0364711Y0110105D01*
X0364181Y0108826D01*
X0364181Y0107441D01*
X0364245Y0107286D01*
X0364062Y0107103D01*
X0364062Y0109010D01*
X0362162Y0110910D01*
X0361107Y0111965D01*
X0354645Y0111965D01*
X0354239Y0112133D01*
X0353085Y0112133D01*
X0352019Y0111692D01*
X0351462Y0111134D01*
X0351462Y0114010D01*
X0351613Y0114161D01*
X0352143Y0115441D01*
X0352143Y0116826D01*
X0351613Y0118105D01*
X0350634Y0119084D01*
X0349354Y0119614D01*
X0347969Y0119614D01*
X0346690Y0119084D01*
X0345711Y0118105D01*
X0345181Y0116826D01*
X0345181Y0115441D01*
X0345711Y0114161D01*
X0346690Y0113182D01*
X0347862Y0112697D01*
X0347862Y0102879D01*
X0343916Y0098933D01*
X0343362Y0098933D01*
X0343362Y0120133D01*
X0355362Y0130133D01*
X0370921Y0130133D01*
X0370814Y0129948D01*
X0370712Y0129567D01*
X0370712Y0126129D01*
X0374862Y0126129D01*
X0374862Y0125129D01*
X0375862Y0125129D01*
X0375862Y0126129D01*
X0380011Y0126129D01*
X0380011Y0129567D01*
X0379909Y0129948D01*
X0379802Y0130133D01*
X0385862Y0130133D01*
X0385862Y0128933D01*
X0389562Y0128933D01*
X0389862Y0128633D01*
X0389862Y0128333D01*
X0390162Y0128333D01*
X0390462Y0128033D01*
X0390462Y0124333D01*
X0391362Y0124333D01*
X0391362Y0119133D01*
X0399362Y0111133D01*
X0410362Y0111133D01*
X0414362Y0107133D01*
X0414362Y0038633D01*
X0131778Y0038633D01*
X0131456Y0048321D01*
X0131522Y0048349D01*
X0132406Y0049233D01*
X0135875Y0049233D01*
X0138262Y0046846D01*
X0139375Y0045733D01*
X0157749Y0045733D01*
X0158749Y0046733D01*
X0159862Y0047846D01*
X0159862Y0056588D01*
X0160746Y0057473D01*
X0161246Y0058680D01*
X0161246Y0059986D01*
X0160746Y0061193D01*
X0160106Y0061833D01*
X0160416Y0061833D01*
X0163162Y0059087D01*
X0163162Y0047087D01*
X0166062Y0044187D01*
X0167116Y0043133D01*
X0204507Y0043133D01*
X0206807Y0045433D01*
X0207862Y0046487D01*
X0207862Y0048514D01*
X0208580Y0049232D01*
X0208580Y0050133D01*
X0213186Y0050133D01*
X0212762Y0049110D01*
X0212762Y0047956D01*
X0213203Y0046890D01*
X0213822Y0046272D01*
X0211442Y0046272D01*
X0210681Y0045510D01*
X0210681Y0039709D01*
X0211442Y0038947D01*
X0214881Y0038947D01*
X0215643Y0039709D01*
X0215643Y0040709D01*
X0215681Y0040709D01*
X0215681Y0039709D01*
X0216442Y0038947D01*
X0219881Y0038947D01*
X0220643Y0039709D01*
X0220643Y0045458D01*
X0220681Y0045442D01*
X0220681Y0039709D01*
X0221442Y0038947D01*
X0224881Y0038947D01*
X0225643Y0039709D01*
X0225643Y0045510D01*
X0224881Y0046272D01*
X0224562Y0046272D01*
X0224562Y0047315D01*
X0224662Y0047556D01*
X0224662Y0048710D01*
X0224220Y0049776D01*
X0223863Y0050133D01*
X0225716Y0050133D01*
X0226262Y0049587D01*
X0226262Y0046091D01*
X0225681Y0045510D01*
X0225681Y0039709D01*
X0226442Y0038947D01*
X0229881Y0038947D01*
X0230643Y0039709D01*
X0230643Y0045510D01*
X0229881Y0046272D01*
X0229862Y0046272D01*
X0229862Y0051079D01*
X0228807Y0052133D01*
X0227607Y0053333D01*
X0228638Y0053333D01*
X0228733Y0053258D01*
X0229368Y0053333D01*
X0230007Y0053333D01*
X0230093Y0053419D01*
X0230214Y0053433D01*
X0230610Y0053936D01*
X0231062Y0054387D01*
X0231062Y0054509D01*
X0231869Y0055533D01*
X0232439Y0055533D01*
X0233505Y0055975D01*
X0234320Y0056790D01*
X0234762Y0057856D01*
X0234762Y0058787D01*
X0234962Y0058987D01*
X0234962Y0061075D01*
X0235643Y0061756D01*
X0235643Y0067370D01*
X0235681Y0067370D01*
X0235681Y0061756D01*
X0236362Y0061075D01*
X0236362Y0057887D01*
X0238162Y0056087D01*
X0239216Y0055033D01*
X0248600Y0055033D01*
X0248600Y0054376D01*
X0249361Y0053615D01*
X0255162Y0053615D01*
X0255912Y0054364D01*
X0256561Y0053715D01*
X0262362Y0053715D01*
X0263124Y0054476D01*
X0263124Y0058703D01*
X0262362Y0059465D01*
X0256561Y0059465D01*
X0255812Y0058715D01*
X0255162Y0059365D01*
X0249915Y0059365D01*
X0250046Y0059680D01*
X0250046Y0060702D01*
X0255162Y0060702D01*
X0255805Y0061344D01*
X0255899Y0061181D01*
X0256179Y0060901D01*
X0256521Y0060704D01*
X0256902Y0060602D01*
X0259174Y0060602D01*
X0259174Y0063389D01*
X0259749Y0063389D01*
X0259749Y0060602D01*
X0262021Y0060602D01*
X0262403Y0060704D01*
X0262745Y0060901D01*
X0263024Y0061181D01*
X0263222Y0061523D01*
X0263324Y0061904D01*
X0263324Y0063389D01*
X0259749Y0063389D01*
X0259749Y0063964D01*
X0259174Y0063964D01*
X0259174Y0066751D01*
X0256902Y0066751D01*
X0256521Y0066649D01*
X0256179Y0066451D01*
X0255899Y0066172D01*
X0255732Y0065882D01*
X0255162Y0066451D01*
X0249361Y0066451D01*
X0248600Y0065690D01*
X0248600Y0065533D01*
X0245643Y0065533D01*
X0245643Y0067374D01*
X0404547Y0067433D01*
X0405307Y0067433D01*
X0405308Y0067433D01*
X0405820Y0067945D01*
X0406497Y0068623D01*
X0406669Y0068552D01*
X0408054Y0068552D01*
X0409334Y0069082D01*
X0410313Y0070061D01*
X0410843Y0071341D01*
X0410843Y0072726D01*
X0410313Y0074005D01*
X0409334Y0074984D01*
X0408054Y0075514D01*
X0406669Y0075514D01*
X0405390Y0074984D01*
X0404411Y0074005D01*
X0403881Y0072726D01*
X0403881Y0071341D01*
X0403952Y0071169D01*
X0403816Y0071033D01*
X0372320Y0071021D01*
X0372562Y0071263D01*
X0372562Y0071263D01*
X0375532Y0074233D01*
X0376762Y0075463D01*
X0376762Y0081501D01*
X0377493Y0082232D01*
X0377493Y0088034D01*
X0376732Y0088795D01*
X0376566Y0088795D01*
X0376566Y0089383D01*
X0378744Y0089383D01*
X0379506Y0090145D01*
X0379506Y0097521D01*
X0378744Y0098283D01*
X0370187Y0098283D01*
X0369426Y0097521D01*
X0369426Y0095933D01*
X0368162Y0095933D01*
X0368162Y0104652D01*
X0368354Y0104652D01*
X0369634Y0105182D01*
X0370613Y0106161D01*
X0371143Y0107441D01*
X0371143Y0108128D01*
X0371674Y0107597D01*
X0379050Y0107597D01*
X0379811Y0108358D01*
X0379811Y0116916D01*
X0379050Y0117677D01*
X0371674Y0117677D01*
X0370912Y0116916D01*
X0370912Y0113933D01*
X0370024Y0113933D01*
X0370024Y0117703D01*
X0369262Y0118465D01*
X0363461Y0118465D01*
X0362700Y0117703D01*
X0362700Y0116529D02*
X0352143Y0116529D01*
X0352143Y0115530D02*
X0362700Y0115530D01*
X0362700Y0114532D02*
X0351766Y0114532D01*
X0351462Y0113533D02*
X0362700Y0113533D01*
X0364714Y0112535D02*
X0351462Y0112535D01*
X0351462Y0111536D02*
X0351864Y0111536D01*
X0347862Y0111536D02*
X0343362Y0111536D01*
X0343362Y0110538D02*
X0347862Y0110538D01*
X0347862Y0109539D02*
X0343362Y0109539D01*
X0343362Y0108541D02*
X0347862Y0108541D01*
X0347862Y0107542D02*
X0343362Y0107542D01*
X0343362Y0106544D02*
X0347862Y0106544D01*
X0347862Y0105545D02*
X0343362Y0105545D01*
X0343362Y0104547D02*
X0347862Y0104547D01*
X0347862Y0103548D02*
X0343362Y0103548D01*
X0343362Y0102550D02*
X0347533Y0102550D01*
X0346534Y0101551D02*
X0343362Y0101551D01*
X0343362Y0100553D02*
X0345536Y0100553D01*
X0344537Y0099554D02*
X0343362Y0099554D01*
X0342790Y0094562D02*
X0343962Y0094562D01*
X0343962Y0093563D02*
X0341792Y0093563D01*
X0340793Y0092565D02*
X0343962Y0092565D01*
X0347762Y0094333D02*
X0347762Y0081033D01*
X0329482Y0085575D02*
X0329242Y0085575D01*
X0329242Y0086574D02*
X0329482Y0086574D01*
X0329482Y0087572D02*
X0329242Y0087572D01*
X0329242Y0088571D02*
X0329482Y0088571D01*
X0329482Y0089569D02*
X0329242Y0089569D01*
X0329242Y0090568D02*
X0329482Y0090568D01*
X0347762Y0094333D02*
X0358062Y0104733D01*
X0364062Y0107542D02*
X0364181Y0107542D01*
X0364181Y0108541D02*
X0364062Y0108541D01*
X0364476Y0109539D02*
X0363533Y0109539D01*
X0362534Y0110538D02*
X0365144Y0110538D01*
X0365713Y0111536D02*
X0361536Y0111536D01*
X0366362Y0113433D02*
X0367662Y0112133D01*
X0367662Y0108133D01*
X0369997Y0105545D02*
X0414362Y0105545D01*
X0414362Y0104547D02*
X0368162Y0104547D01*
X0368162Y0103548D02*
X0414362Y0103548D01*
X0414362Y0102550D02*
X0368162Y0102550D01*
X0368162Y0101551D02*
X0414362Y0101551D01*
X0414362Y0100553D02*
X0368162Y0100553D01*
X0368162Y0099554D02*
X0414362Y0099554D01*
X0414362Y0098556D02*
X0368162Y0098556D01*
X0368162Y0097557D02*
X0369462Y0097557D01*
X0369426Y0096559D02*
X0368162Y0096559D01*
X0379506Y0096559D02*
X0382218Y0096559D01*
X0382218Y0097180D02*
X0382218Y0094333D01*
X0386958Y0094333D01*
X0386958Y0098483D01*
X0383520Y0098483D01*
X0383139Y0098380D01*
X0382797Y0098183D01*
X0382517Y0097904D01*
X0382320Y0097562D01*
X0382218Y0097180D01*
X0382319Y0097557D02*
X0379470Y0097557D01*
X0379506Y0095560D02*
X0382218Y0095560D01*
X0382218Y0094562D02*
X0379506Y0094562D01*
X0379506Y0093563D02*
X0386958Y0093563D01*
X0386958Y0093333D02*
X0382218Y0093333D01*
X0382218Y0090486D01*
X0382320Y0090104D01*
X0382517Y0089762D01*
X0382797Y0089483D01*
X0383139Y0089286D01*
X0383520Y0089183D01*
X0386958Y0089183D01*
X0386958Y0093333D01*
X0387958Y0093333D01*
X0387958Y0094333D01*
X0392698Y0094333D01*
X0392698Y0097180D01*
X0392596Y0097562D01*
X0392398Y0097904D01*
X0392119Y0098183D01*
X0391777Y0098380D01*
X0391396Y0098483D01*
X0387958Y0098483D01*
X0387958Y0094333D01*
X0386958Y0094333D01*
X0386958Y0093333D01*
X0386958Y0092565D02*
X0387958Y0092565D01*
X0387958Y0093333D02*
X0387958Y0089183D01*
X0391396Y0089183D01*
X0391777Y0089286D01*
X0392119Y0089483D01*
X0392398Y0089762D01*
X0392596Y0090104D01*
X0392698Y0090486D01*
X0392698Y0093333D01*
X0387958Y0093333D01*
X0387958Y0093563D02*
X0414362Y0093563D01*
X0414362Y0092565D02*
X0392698Y0092565D01*
X0392698Y0091566D02*
X0414362Y0091566D01*
X0414362Y0090568D02*
X0392698Y0090568D01*
X0392205Y0089569D02*
X0414362Y0089569D01*
X0414362Y0088571D02*
X0384326Y0088571D01*
X0384201Y0088696D02*
X0383859Y0088893D01*
X0383477Y0088995D01*
X0381993Y0088995D01*
X0381993Y0085421D01*
X0381418Y0085421D01*
X0381418Y0088995D01*
X0379933Y0088995D01*
X0379551Y0088893D01*
X0379209Y0088696D01*
X0378930Y0088416D01*
X0378733Y0088074D01*
X0378630Y0087693D01*
X0378630Y0085420D01*
X0381418Y0085420D01*
X0381418Y0084846D01*
X0378630Y0084846D01*
X0378630Y0082573D01*
X0378733Y0082192D01*
X0378930Y0081850D01*
X0379209Y0081571D01*
X0379551Y0081373D01*
X0379933Y0081271D01*
X0381418Y0081271D01*
X0381418Y0084846D01*
X0381993Y0084846D01*
X0381993Y0085420D01*
X0384780Y0085420D01*
X0384780Y0087693D01*
X0384678Y0088074D01*
X0384480Y0088416D01*
X0384201Y0088696D01*
X0384780Y0087572D02*
X0414362Y0087572D01*
X0414362Y0086574D02*
X0384780Y0086574D01*
X0384780Y0085575D02*
X0414362Y0085575D01*
X0414362Y0084577D02*
X0384780Y0084577D01*
X0384780Y0084846D02*
X0381993Y0084846D01*
X0381993Y0081271D01*
X0383477Y0081271D01*
X0383859Y0081373D01*
X0384201Y0081571D01*
X0384480Y0081850D01*
X0384678Y0082192D01*
X0384780Y0082573D01*
X0384780Y0084846D01*
X0384780Y0083578D02*
X0414362Y0083578D01*
X0414362Y0082579D02*
X0384780Y0082579D01*
X0384211Y0081581D02*
X0414362Y0081581D01*
X0414362Y0080582D02*
X0376762Y0080582D01*
X0376762Y0079584D02*
X0414362Y0079584D01*
X0414362Y0078585D02*
X0376762Y0078585D01*
X0376762Y0077587D02*
X0414362Y0077587D01*
X0414362Y0076588D02*
X0376762Y0076588D01*
X0376762Y0075590D02*
X0414362Y0075590D01*
X0414362Y0074591D02*
X0409726Y0074591D01*
X0410484Y0073593D02*
X0414362Y0073593D01*
X0414362Y0072594D02*
X0410843Y0072594D01*
X0410843Y0071596D02*
X0414362Y0071596D01*
X0414362Y0070597D02*
X0410535Y0070597D01*
X0409851Y0069599D02*
X0414362Y0069599D01*
X0414362Y0068600D02*
X0408171Y0068600D01*
X0406553Y0068600D02*
X0406475Y0068600D01*
X0405476Y0067602D02*
X0414362Y0067602D01*
X0414362Y0066603D02*
X0262482Y0066603D01*
X0262403Y0066649D02*
X0262021Y0066751D01*
X0259749Y0066751D01*
X0259749Y0063964D01*
X0263324Y0063964D01*
X0263324Y0065449D01*
X0263222Y0065830D01*
X0263024Y0066172D01*
X0262745Y0066451D01*
X0262403Y0066649D01*
X0263282Y0065605D02*
X0414362Y0065605D01*
X0414362Y0064606D02*
X0263324Y0064606D01*
X0263324Y0062609D02*
X0414362Y0062609D01*
X0414362Y0061611D02*
X0263245Y0061611D01*
X0262061Y0060612D02*
X0414362Y0060612D01*
X0414362Y0059614D02*
X0250019Y0059614D01*
X0250046Y0060612D02*
X0256862Y0060612D01*
X0259174Y0060612D02*
X0259749Y0060612D01*
X0259749Y0061611D02*
X0259174Y0061611D01*
X0259174Y0062609D02*
X0259749Y0062609D01*
X0259749Y0063608D02*
X0414362Y0063608D01*
X0405308Y0067433D02*
X0405308Y0067433D01*
X0404562Y0069233D02*
X0135162Y0069133D01*
X0120662Y0083633D01*
X0120662Y0089633D01*
X0134761Y0082579D02*
X0142164Y0082579D01*
X0141290Y0081581D02*
X0135759Y0081581D01*
X0136758Y0080582D02*
X0140878Y0080582D01*
X0140878Y0079584D02*
X0137757Y0079584D01*
X0138755Y0078585D02*
X0141165Y0078585D01*
X0131152Y0070597D02*
X0130713Y0070597D01*
X0130698Y0071051D02*
X0133362Y0068387D01*
X0133873Y0067876D01*
X0134416Y0067333D01*
X0134417Y0067333D01*
X0135146Y0067333D01*
X0135907Y0067333D01*
X0135908Y0067333D01*
X0210681Y0067361D01*
X0210681Y0061756D01*
X0211082Y0061355D01*
X0210703Y0060976D01*
X0210262Y0059910D01*
X0210262Y0058756D01*
X0210703Y0057690D01*
X0211519Y0056875D01*
X0212585Y0056433D01*
X0213739Y0056433D01*
X0214805Y0056875D01*
X0215620Y0057690D01*
X0216062Y0058756D01*
X0216062Y0059910D01*
X0215620Y0060976D01*
X0215241Y0061355D01*
X0215643Y0061756D01*
X0215643Y0062757D01*
X0215681Y0062757D01*
X0215681Y0061756D01*
X0216442Y0060994D01*
X0219881Y0060994D01*
X0220643Y0061756D01*
X0220643Y0067365D01*
X0220681Y0067365D01*
X0220681Y0061756D01*
X0221362Y0061075D01*
X0221362Y0059787D01*
X0221862Y0059287D01*
X0221862Y0059256D01*
X0222303Y0058190D01*
X0223119Y0057375D01*
X0224185Y0056933D01*
X0225339Y0056933D01*
X0226405Y0057375D01*
X0227220Y0058190D01*
X0227662Y0059256D01*
X0227662Y0060410D01*
X0227502Y0060794D01*
X0228071Y0060794D01*
X0228071Y0064566D01*
X0228252Y0064566D01*
X0228252Y0060794D01*
X0229540Y0060794D01*
X0229922Y0060897D01*
X0230264Y0061094D01*
X0230543Y0061373D01*
X0230734Y0061703D01*
X0231157Y0061280D01*
X0230219Y0060892D01*
X0229403Y0060076D01*
X0228962Y0059010D01*
X0228962Y0057856D01*
X0229015Y0057728D01*
X0228388Y0056933D01*
X0220563Y0056933D01*
X0219905Y0057592D01*
X0218839Y0058033D01*
X0217685Y0058033D01*
X0216619Y0057592D01*
X0215803Y0056776D01*
X0215362Y0055710D01*
X0215362Y0054556D01*
X0215703Y0053733D01*
X0208580Y0053733D01*
X0208580Y0055034D01*
X0207818Y0055795D01*
X0203592Y0055795D01*
X0202830Y0055034D01*
X0202830Y0049232D01*
X0203592Y0048471D01*
X0204262Y0048471D01*
X0204262Y0047979D01*
X0203016Y0046733D01*
X0168607Y0046733D01*
X0166762Y0048579D01*
X0166762Y0060579D01*
X0165707Y0061633D01*
X0161907Y0065433D01*
X0152316Y0065433D01*
X0151262Y0064379D01*
X0151100Y0064217D01*
X0150809Y0064217D01*
X0149601Y0063717D01*
X0148678Y0062793D01*
X0148178Y0061586D01*
X0148178Y0060280D01*
X0148678Y0059073D01*
X0149601Y0058149D01*
X0150809Y0057649D01*
X0152115Y0057649D01*
X0153322Y0058149D01*
X0154246Y0059073D01*
X0154746Y0060280D01*
X0154746Y0061586D01*
X0154644Y0061833D01*
X0155817Y0061833D01*
X0155178Y0061193D01*
X0154678Y0059986D01*
X0154678Y0058680D01*
X0155178Y0057473D01*
X0156062Y0056588D01*
X0156062Y0049533D01*
X0140949Y0049533D01*
X0137449Y0053033D01*
X0132406Y0053033D01*
X0131522Y0053917D01*
X0131265Y0054024D01*
X0130698Y0071051D01*
X0130746Y0069599D02*
X0132150Y0069599D01*
X0133149Y0068600D02*
X0130780Y0068600D01*
X0130813Y0067602D02*
X0134147Y0067602D01*
X0134417Y0067333D02*
X0134417Y0067333D01*
X0133362Y0068387D02*
X0133362Y0068387D01*
X0130846Y0066603D02*
X0210681Y0066603D01*
X0210681Y0065605D02*
X0130879Y0065605D01*
X0130913Y0064606D02*
X0151489Y0064606D01*
X0153062Y0063633D02*
X0161162Y0063633D01*
X0164962Y0059833D01*
X0164962Y0047833D01*
X0167862Y0044933D01*
X0203762Y0044933D01*
X0206062Y0047233D01*
X0206062Y0051776D01*
X0205705Y0052133D01*
X0205862Y0052133D01*
X0206062Y0051933D01*
X0226462Y0051933D01*
X0228062Y0050333D01*
X0228062Y0042709D01*
X0228162Y0042609D01*
X0230643Y0042639D02*
X0230681Y0042639D01*
X0230643Y0041641D02*
X0230681Y0041641D01*
X0230643Y0040642D02*
X0230681Y0040642D01*
X0230681Y0039709D02*
X0231442Y0038947D01*
X0234881Y0038947D01*
X0235643Y0039709D01*
X0235643Y0045510D01*
X0235591Y0045562D01*
X0236120Y0046090D01*
X0236562Y0047156D01*
X0236562Y0048310D01*
X0236120Y0049376D01*
X0235305Y0050192D01*
X0234239Y0050633D01*
X0233085Y0050633D01*
X0232019Y0050192D01*
X0231203Y0049376D01*
X0230762Y0048310D01*
X0230762Y0047156D01*
X0231203Y0046090D01*
X0231232Y0046062D01*
X0230681Y0045510D01*
X0230681Y0039709D01*
X0230746Y0039643D02*
X0230578Y0039643D01*
X0225746Y0039643D02*
X0225578Y0039643D01*
X0225643Y0040642D02*
X0225681Y0040642D01*
X0225643Y0041641D02*
X0225681Y0041641D01*
X0225643Y0042639D02*
X0225681Y0042639D01*
X0225643Y0043638D02*
X0225681Y0043638D01*
X0225643Y0044636D02*
X0225681Y0044636D01*
X0225805Y0045635D02*
X0225518Y0045635D01*
X0226262Y0046633D02*
X0224562Y0046633D01*
X0224662Y0047632D02*
X0226262Y0047632D01*
X0226262Y0048630D02*
X0224662Y0048630D01*
X0224281Y0049629D02*
X0226221Y0049629D01*
X0229862Y0049629D02*
X0231456Y0049629D01*
X0230894Y0048630D02*
X0229862Y0048630D01*
X0229862Y0047632D02*
X0230762Y0047632D01*
X0230978Y0046633D02*
X0229862Y0046633D01*
X0230518Y0045635D02*
X0230805Y0045635D01*
X0230681Y0044636D02*
X0230643Y0044636D01*
X0230643Y0043638D02*
X0230681Y0043638D01*
X0233162Y0042609D02*
X0233162Y0047233D01*
X0233662Y0047733D01*
X0236345Y0046633D02*
X0238345Y0046633D01*
X0238495Y0046272D02*
X0236442Y0046272D01*
X0235681Y0045510D01*
X0235681Y0039709D01*
X0236442Y0038947D01*
X0239881Y0038947D01*
X0240643Y0039709D01*
X0240643Y0040709D01*
X0240681Y0040709D01*
X0240681Y0039709D01*
X0241442Y0038947D01*
X0244881Y0038947D01*
X0245643Y0039709D01*
X0245643Y0045510D01*
X0244881Y0046272D01*
X0244228Y0046272D01*
X0244646Y0047280D01*
X0244646Y0048586D01*
X0244146Y0049793D01*
X0243222Y0050717D01*
X0242015Y0051217D01*
X0240709Y0051217D01*
X0239501Y0050717D01*
X0238578Y0049793D01*
X0238078Y0048586D01*
X0238078Y0047280D01*
X0238495Y0046272D01*
X0238078Y0047632D02*
X0236562Y0047632D01*
X0236429Y0048630D02*
X0238096Y0048630D01*
X0238509Y0049629D02*
X0235867Y0049629D01*
X0234253Y0050627D02*
X0239411Y0050627D01*
X0241362Y0047933D02*
X0241262Y0047533D01*
X0241262Y0043133D01*
X0240738Y0042609D01*
X0238162Y0042609D01*
X0235681Y0042639D02*
X0235643Y0042639D01*
X0235643Y0041641D02*
X0235681Y0041641D01*
X0235643Y0040642D02*
X0235681Y0040642D01*
X0235746Y0039643D02*
X0235578Y0039643D01*
X0240578Y0039643D02*
X0240746Y0039643D01*
X0240681Y0040642D02*
X0240643Y0040642D01*
X0245643Y0040642D02*
X0414362Y0040642D01*
X0414362Y0041641D02*
X0245643Y0041641D01*
X0245643Y0042639D02*
X0414362Y0042639D01*
X0414362Y0043638D02*
X0245643Y0043638D01*
X0245643Y0044636D02*
X0414362Y0044636D01*
X0414362Y0045635D02*
X0245518Y0045635D01*
X0244378Y0046633D02*
X0414362Y0046633D01*
X0414362Y0047632D02*
X0244646Y0047632D01*
X0244628Y0048630D02*
X0414362Y0048630D01*
X0414362Y0049629D02*
X0244214Y0049629D01*
X0243312Y0050627D02*
X0414362Y0050627D01*
X0414362Y0051626D02*
X0229315Y0051626D01*
X0229862Y0050627D02*
X0233071Y0050627D01*
X0228316Y0052624D02*
X0414362Y0052624D01*
X0414362Y0053623D02*
X0255170Y0053623D01*
X0252262Y0056490D02*
X0258362Y0056490D01*
X0259462Y0056590D01*
X0263124Y0056618D02*
X0414362Y0056618D01*
X0414362Y0055620D02*
X0263124Y0055620D01*
X0263124Y0054621D02*
X0414362Y0054621D01*
X0414362Y0057617D02*
X0263124Y0057617D01*
X0263124Y0058615D02*
X0414362Y0058615D01*
X0404562Y0069233D02*
X0407362Y0072033D01*
X0404997Y0074591D02*
X0375890Y0074591D01*
X0374891Y0073593D02*
X0404240Y0073593D01*
X0403881Y0072594D02*
X0373893Y0072594D01*
X0372894Y0071596D02*
X0403881Y0071596D01*
X0381993Y0081581D02*
X0381418Y0081581D01*
X0381418Y0082579D02*
X0381993Y0082579D01*
X0381993Y0083578D02*
X0381418Y0083578D01*
X0381418Y0084577D02*
X0381993Y0084577D01*
X0381993Y0085575D02*
X0381418Y0085575D01*
X0381418Y0086574D02*
X0381993Y0086574D01*
X0381993Y0087572D02*
X0381418Y0087572D01*
X0381418Y0088571D02*
X0381993Y0088571D01*
X0382711Y0089569D02*
X0378930Y0089569D01*
X0379084Y0088571D02*
X0376956Y0088571D01*
X0377493Y0087572D02*
X0378630Y0087572D01*
X0378630Y0086574D02*
X0377493Y0086574D01*
X0377493Y0085575D02*
X0378630Y0085575D01*
X0378630Y0084577D02*
X0377493Y0084577D01*
X0377493Y0083578D02*
X0378630Y0083578D01*
X0378630Y0082579D02*
X0377493Y0082579D01*
X0376842Y0081581D02*
X0379199Y0081581D01*
X0386958Y0089569D02*
X0387958Y0089569D01*
X0387958Y0090568D02*
X0386958Y0090568D01*
X0386958Y0091566D02*
X0387958Y0091566D01*
X0382218Y0091566D02*
X0379506Y0091566D01*
X0379506Y0090568D02*
X0382218Y0090568D01*
X0382218Y0092565D02*
X0379506Y0092565D01*
X0386958Y0094562D02*
X0387958Y0094562D01*
X0387958Y0095560D02*
X0386958Y0095560D01*
X0386958Y0096559D02*
X0387958Y0096559D01*
X0387958Y0097557D02*
X0386958Y0097557D01*
X0392597Y0097557D02*
X0414362Y0097557D01*
X0414362Y0096559D02*
X0392698Y0096559D01*
X0392698Y0095560D02*
X0414362Y0095560D01*
X0414362Y0094562D02*
X0392698Y0094562D01*
X0414362Y0106544D02*
X0370771Y0106544D01*
X0371143Y0107542D02*
X0413953Y0107542D01*
X0412954Y0108541D02*
X0379811Y0108541D01*
X0379811Y0109539D02*
X0411956Y0109539D01*
X0410957Y0110538D02*
X0379811Y0110538D01*
X0379811Y0111536D02*
X0398959Y0111536D01*
X0397960Y0112535D02*
X0379811Y0112535D01*
X0379811Y0113533D02*
X0396962Y0113533D01*
X0395963Y0114532D02*
X0379811Y0114532D01*
X0379811Y0115530D02*
X0394965Y0115530D01*
X0393966Y0116529D02*
X0379811Y0116529D01*
X0379200Y0117527D02*
X0392968Y0117527D01*
X0391969Y0118526D02*
X0351192Y0118526D01*
X0349571Y0119524D02*
X0391362Y0119524D01*
X0391362Y0120523D02*
X0379145Y0120523D01*
X0379090Y0120491D02*
X0379432Y0120689D01*
X0379712Y0120968D01*
X0379909Y0121310D01*
X0380011Y0121691D01*
X0380011Y0125129D01*
X0375862Y0125129D01*
X0375862Y0120389D01*
X0378709Y0120389D01*
X0379090Y0120491D01*
X0379966Y0121521D02*
X0391362Y0121521D01*
X0391362Y0122520D02*
X0380011Y0122520D01*
X0380011Y0123518D02*
X0391362Y0123518D01*
X0390462Y0124517D02*
X0389862Y0124517D01*
X0389862Y0124333D02*
X0389862Y0128333D01*
X0385862Y0128333D01*
X0385862Y0126852D01*
X0388381Y0124333D01*
X0389862Y0124333D01*
X0389862Y0125515D02*
X0390462Y0125515D01*
X0390462Y0126514D02*
X0389862Y0126514D01*
X0389862Y0127512D02*
X0390462Y0127512D01*
X0389862Y0128511D02*
X0380011Y0128511D01*
X0380011Y0127512D02*
X0385862Y0127512D01*
X0386200Y0126514D02*
X0380011Y0126514D01*
X0380011Y0124517D02*
X0388197Y0124517D01*
X0387198Y0125515D02*
X0375862Y0125515D01*
X0375862Y0124517D02*
X0374862Y0124517D01*
X0374862Y0125129D02*
X0374862Y0120389D01*
X0372015Y0120389D01*
X0371633Y0120491D01*
X0371291Y0120689D01*
X0371012Y0120968D01*
X0370814Y0121310D01*
X0370712Y0121691D01*
X0370712Y0125129D01*
X0374862Y0125129D01*
X0374862Y0125515D02*
X0369534Y0125515D01*
X0369645Y0125451D02*
X0369303Y0125649D01*
X0368921Y0125751D01*
X0366649Y0125751D01*
X0366649Y0122964D01*
X0366074Y0122964D01*
X0366074Y0122389D01*
X0362500Y0122389D01*
X0362500Y0120904D01*
X0362602Y0120523D01*
X0343830Y0120523D01*
X0343362Y0119524D02*
X0347753Y0119524D01*
X0346132Y0118526D02*
X0343362Y0118526D01*
X0343362Y0117527D02*
X0345471Y0117527D01*
X0345181Y0116529D02*
X0343362Y0116529D01*
X0343362Y0115530D02*
X0345181Y0115530D01*
X0345557Y0114532D02*
X0343362Y0114532D01*
X0343362Y0113533D02*
X0346339Y0113533D01*
X0347862Y0112535D02*
X0343362Y0112535D01*
X0362602Y0120523D02*
X0362799Y0120181D01*
X0363079Y0119901D01*
X0363421Y0119704D01*
X0363802Y0119602D01*
X0366074Y0119602D01*
X0366074Y0122389D01*
X0366649Y0122389D01*
X0366649Y0119602D01*
X0368921Y0119602D01*
X0369303Y0119704D01*
X0369645Y0119901D01*
X0369924Y0120181D01*
X0370122Y0120523D01*
X0371578Y0120523D01*
X0370758Y0121521D02*
X0370224Y0121521D01*
X0370224Y0120904D02*
X0370224Y0122389D01*
X0366649Y0122389D01*
X0366649Y0122964D01*
X0370224Y0122964D01*
X0370224Y0124449D01*
X0370122Y0124830D01*
X0369924Y0125172D01*
X0369645Y0125451D01*
X0370206Y0124517D02*
X0370712Y0124517D01*
X0370712Y0123518D02*
X0370224Y0123518D01*
X0370712Y0122520D02*
X0366649Y0122520D01*
X0366074Y0122520D02*
X0346226Y0122520D01*
X0347424Y0123518D02*
X0362500Y0123518D01*
X0362500Y0122964D02*
X0362500Y0124449D01*
X0362602Y0124830D01*
X0362799Y0125172D01*
X0363079Y0125451D01*
X0363421Y0125649D01*
X0363802Y0125751D01*
X0366074Y0125751D01*
X0366074Y0122964D01*
X0362500Y0122964D01*
X0362500Y0121521D02*
X0345028Y0121521D01*
X0348622Y0124517D02*
X0362518Y0124517D01*
X0363189Y0125515D02*
X0349821Y0125515D01*
X0351019Y0126514D02*
X0370712Y0126514D01*
X0370712Y0127512D02*
X0352217Y0127512D01*
X0353415Y0128511D02*
X0370712Y0128511D01*
X0370712Y0129510D02*
X0354614Y0129510D01*
X0366074Y0125515D02*
X0366649Y0125515D01*
X0366649Y0124517D02*
X0366074Y0124517D01*
X0366074Y0123518D02*
X0366649Y0123518D01*
X0366649Y0121521D02*
X0366074Y0121521D01*
X0366074Y0120523D02*
X0366649Y0120523D01*
X0370122Y0120523D02*
X0370224Y0120904D01*
X0370024Y0117527D02*
X0371524Y0117527D01*
X0370912Y0116529D02*
X0370024Y0116529D01*
X0370024Y0115530D02*
X0370912Y0115530D01*
X0370912Y0114532D02*
X0370024Y0114532D01*
X0367662Y0112133D02*
X0373858Y0112133D01*
X0375362Y0112637D01*
X0366362Y0113433D02*
X0366362Y0115590D01*
X0374862Y0120523D02*
X0375862Y0120523D01*
X0375862Y0121521D02*
X0374862Y0121521D01*
X0374862Y0122520D02*
X0375862Y0122520D01*
X0375862Y0123518D02*
X0374862Y0123518D01*
X0380011Y0129510D02*
X0385862Y0129510D01*
X0308662Y0097133D02*
X0306662Y0099133D01*
X0253762Y0099933D02*
X0253762Y0083233D01*
X0213162Y0082833D02*
X0212562Y0082233D01*
X0213162Y0082833D02*
X0213162Y0100133D01*
X0269862Y0121533D02*
X0270362Y0121033D01*
X0269862Y0121533D02*
X0238962Y0121533D01*
X0230862Y0122533D02*
X0194062Y0122533D01*
X0175462Y0123133D02*
X0141962Y0123133D01*
X0086780Y0122520D02*
X0075924Y0122520D01*
X0075609Y0123518D02*
X0086760Y0123518D01*
X0072549Y0125515D02*
X0071974Y0125515D01*
X0071974Y0126514D02*
X0072549Y0126514D01*
X0072549Y0127512D02*
X0071974Y0127512D01*
X0071974Y0128511D02*
X0072549Y0128511D01*
X0072549Y0129510D02*
X0071974Y0129510D01*
X0071974Y0130508D02*
X0072549Y0130508D01*
X0058934Y0131507D02*
X0050796Y0131507D01*
X0050792Y0132505D02*
X0058165Y0132505D01*
X0057724Y0133504D02*
X0050788Y0133504D01*
X0050784Y0134502D02*
X0057497Y0134502D01*
X0062162Y0137498D02*
X0063162Y0137498D01*
X0063162Y0138496D02*
X0062162Y0138496D01*
X0062162Y0139495D02*
X0063162Y0139495D01*
X0067017Y0146181D02*
X0067017Y0146181D01*
X0066714Y0146484D02*
X0050738Y0146484D01*
X0050742Y0145486D02*
X0068697Y0145486D01*
X0065716Y0147483D02*
X0050734Y0147483D01*
X0050730Y0148481D02*
X0064717Y0148481D01*
X0064710Y0148488D02*
X0064710Y0148488D01*
X0064299Y0149480D02*
X0050726Y0149480D01*
X0050722Y0150478D02*
X0063886Y0150478D01*
X0063472Y0151477D02*
X0050718Y0151477D01*
X0050715Y0152475D02*
X0063462Y0152475D01*
X0063462Y0153474D02*
X0050711Y0153474D01*
X0050707Y0154472D02*
X0063462Y0154472D01*
X0063755Y0155471D02*
X0050703Y0155471D01*
X0050699Y0156469D02*
X0064168Y0156469D01*
X0064582Y0157468D02*
X0050695Y0157468D01*
X0050691Y0158466D02*
X0065399Y0158466D01*
X0064710Y0157778D02*
X0064710Y0157778D01*
X0064710Y0157778D01*
X0066397Y0159465D02*
X0050688Y0159465D01*
X0050684Y0160463D02*
X0067931Y0160463D01*
X0067017Y0160085D02*
X0067017Y0160085D01*
X0072262Y0115333D02*
X0072462Y0115133D01*
X0162734Y0064606D02*
X0210681Y0064606D01*
X0210681Y0063608D02*
X0163733Y0063608D01*
X0164731Y0062609D02*
X0210681Y0062609D01*
X0210826Y0061611D02*
X0165730Y0061611D01*
X0166728Y0060612D02*
X0210553Y0060612D01*
X0210262Y0059614D02*
X0166762Y0059614D01*
X0166762Y0058615D02*
X0210320Y0058615D01*
X0210777Y0057617D02*
X0166762Y0057617D01*
X0166762Y0056618D02*
X0212138Y0056618D01*
X0214186Y0056618D02*
X0215738Y0056618D01*
X0215547Y0057617D02*
X0216680Y0057617D01*
X0216003Y0058615D02*
X0222127Y0058615D01*
X0221536Y0059614D02*
X0216062Y0059614D01*
X0215771Y0060612D02*
X0221362Y0060612D01*
X0220826Y0061611D02*
X0220498Y0061611D01*
X0220643Y0062609D02*
X0220681Y0062609D01*
X0220643Y0063608D02*
X0220681Y0063608D01*
X0220643Y0064606D02*
X0220681Y0064606D01*
X0220643Y0065605D02*
X0220681Y0065605D01*
X0220643Y0066603D02*
X0220681Y0066603D01*
X0223162Y0064657D02*
X0223162Y0060533D01*
X0223862Y0059833D01*
X0224762Y0059833D01*
X0227396Y0058615D02*
X0228962Y0058615D01*
X0228927Y0057617D02*
X0226647Y0057617D01*
X0227662Y0059614D02*
X0229212Y0059614D01*
X0229940Y0060612D02*
X0227578Y0060612D01*
X0228071Y0061611D02*
X0228252Y0061611D01*
X0228252Y0062609D02*
X0228071Y0062609D01*
X0228071Y0063608D02*
X0228252Y0063608D01*
X0230680Y0061611D02*
X0230826Y0061611D01*
X0233162Y0059733D02*
X0231862Y0058433D01*
X0229262Y0055133D01*
X0218262Y0055133D01*
X0215362Y0055620D02*
X0207994Y0055620D01*
X0208580Y0054621D02*
X0215362Y0054621D01*
X0219844Y0057617D02*
X0222877Y0057617D01*
X0213162Y0059333D02*
X0213162Y0064657D01*
X0215643Y0062609D02*
X0215681Y0062609D01*
X0215826Y0061611D02*
X0215498Y0061611D01*
X0203416Y0055620D02*
X0201190Y0055620D01*
X0201114Y0055696D02*
X0200772Y0055893D01*
X0200391Y0055995D01*
X0198906Y0055995D01*
X0198906Y0052421D01*
X0198331Y0052421D01*
X0198331Y0055995D01*
X0196846Y0055995D01*
X0196465Y0055893D01*
X0196123Y0055696D01*
X0195843Y0055416D01*
X0195646Y0055074D01*
X0195544Y0054693D01*
X0195544Y0052420D01*
X0198331Y0052420D01*
X0198331Y0051846D01*
X0195544Y0051846D01*
X0195544Y0049573D01*
X0195646Y0049192D01*
X0195843Y0048850D01*
X0196123Y0048571D01*
X0196465Y0048373D01*
X0196846Y0048271D01*
X0198331Y0048271D01*
X0198331Y0051846D01*
X0198906Y0051846D01*
X0198906Y0052420D01*
X0201693Y0052420D01*
X0201693Y0054693D01*
X0201591Y0055074D01*
X0201394Y0055416D01*
X0201114Y0055696D01*
X0201693Y0054621D02*
X0202830Y0054621D01*
X0202830Y0053623D02*
X0201693Y0053623D01*
X0201693Y0052624D02*
X0202830Y0052624D01*
X0202830Y0051626D02*
X0201693Y0051626D01*
X0201693Y0051846D02*
X0198906Y0051846D01*
X0198906Y0048271D01*
X0200391Y0048271D01*
X0200772Y0048373D01*
X0201114Y0048571D01*
X0201394Y0048850D01*
X0201591Y0049192D01*
X0201693Y0049573D01*
X0201693Y0051846D01*
X0201693Y0050627D02*
X0202830Y0050627D01*
X0202830Y0049629D02*
X0201693Y0049629D01*
X0201174Y0048630D02*
X0203433Y0048630D01*
X0203915Y0047632D02*
X0167709Y0047632D01*
X0166762Y0048630D02*
X0196063Y0048630D01*
X0195544Y0049629D02*
X0166762Y0049629D01*
X0166762Y0050627D02*
X0195544Y0050627D01*
X0195544Y0051626D02*
X0166762Y0051626D01*
X0166762Y0052624D02*
X0195544Y0052624D01*
X0195544Y0053623D02*
X0166762Y0053623D01*
X0166762Y0054621D02*
X0195544Y0054621D01*
X0196047Y0055620D02*
X0166762Y0055620D01*
X0163162Y0055620D02*
X0159862Y0055620D01*
X0159892Y0056618D02*
X0163162Y0056618D01*
X0163162Y0057617D02*
X0160806Y0057617D01*
X0161219Y0058615D02*
X0163162Y0058615D01*
X0162636Y0059614D02*
X0161246Y0059614D01*
X0160987Y0060612D02*
X0161637Y0060612D01*
X0160639Y0061611D02*
X0160329Y0061611D01*
X0155595Y0061611D02*
X0154736Y0061611D01*
X0154746Y0060612D02*
X0154937Y0060612D01*
X0154678Y0059614D02*
X0154470Y0059614D01*
X0154704Y0058615D02*
X0153789Y0058615D01*
X0155118Y0057617D02*
X0131146Y0057617D01*
X0131112Y0058615D02*
X0149135Y0058615D01*
X0148453Y0059614D02*
X0131079Y0059614D01*
X0131046Y0060612D02*
X0148178Y0060612D01*
X0148188Y0061611D02*
X0131013Y0061611D01*
X0130979Y0062609D02*
X0148601Y0062609D01*
X0149492Y0063608D02*
X0130946Y0063608D01*
X0131179Y0056618D02*
X0156032Y0056618D01*
X0156062Y0055620D02*
X0131212Y0055620D01*
X0131246Y0054621D02*
X0156062Y0054621D01*
X0156062Y0053623D02*
X0131817Y0053623D01*
X0137858Y0052624D02*
X0156062Y0052624D01*
X0156062Y0051626D02*
X0138856Y0051626D01*
X0139855Y0050627D02*
X0156062Y0050627D01*
X0156062Y0049629D02*
X0140853Y0049629D01*
X0136478Y0048630D02*
X0131803Y0048630D01*
X0131479Y0047632D02*
X0137476Y0047632D01*
X0138475Y0046633D02*
X0131512Y0046633D01*
X0131545Y0045635D02*
X0164615Y0045635D01*
X0163616Y0046633D02*
X0158649Y0046633D01*
X0159647Y0047632D02*
X0163162Y0047632D01*
X0163162Y0048630D02*
X0159862Y0048630D01*
X0159862Y0049629D02*
X0163162Y0049629D01*
X0163162Y0050627D02*
X0159862Y0050627D01*
X0159862Y0051626D02*
X0163162Y0051626D01*
X0163162Y0052624D02*
X0159862Y0052624D01*
X0159862Y0053623D02*
X0163162Y0053623D01*
X0163162Y0054621D02*
X0159862Y0054621D01*
X0151462Y0060933D02*
X0151462Y0062033D01*
X0153062Y0063633D01*
X0198331Y0055620D02*
X0198906Y0055620D01*
X0198906Y0054621D02*
X0198331Y0054621D01*
X0198331Y0053623D02*
X0198906Y0053623D01*
X0198906Y0052624D02*
X0198331Y0052624D01*
X0198331Y0051626D02*
X0198906Y0051626D01*
X0198906Y0050627D02*
X0198331Y0050627D01*
X0198331Y0049629D02*
X0198906Y0049629D01*
X0198906Y0048630D02*
X0198331Y0048630D01*
X0205862Y0051933D02*
X0206062Y0051933D01*
X0208580Y0049629D02*
X0212977Y0049629D01*
X0212762Y0048630D02*
X0207978Y0048630D01*
X0207862Y0047632D02*
X0212896Y0047632D01*
X0213461Y0046633D02*
X0207862Y0046633D01*
X0207009Y0045635D02*
X0210805Y0045635D01*
X0210681Y0044636D02*
X0206010Y0044636D01*
X0205012Y0043638D02*
X0210681Y0043638D01*
X0210681Y0042639D02*
X0131645Y0042639D01*
X0131678Y0041641D02*
X0210681Y0041641D01*
X0210681Y0040642D02*
X0131712Y0040642D01*
X0131745Y0039643D02*
X0210746Y0039643D01*
X0215578Y0039643D02*
X0215746Y0039643D01*
X0215681Y0040642D02*
X0215643Y0040642D01*
X0215362Y0042609D02*
X0215662Y0042909D01*
X0215662Y0048533D01*
X0221762Y0048133D02*
X0222762Y0047133D01*
X0222762Y0043009D01*
X0223162Y0042609D01*
X0220681Y0042639D02*
X0220643Y0042639D01*
X0220643Y0041641D02*
X0220681Y0041641D01*
X0220643Y0040642D02*
X0220681Y0040642D01*
X0220746Y0039643D02*
X0220578Y0039643D01*
X0220643Y0043638D02*
X0220681Y0043638D01*
X0220643Y0044636D02*
X0220681Y0044636D01*
X0235643Y0044636D02*
X0235681Y0044636D01*
X0235643Y0043638D02*
X0235681Y0043638D01*
X0235665Y0045635D02*
X0235805Y0045635D01*
X0245578Y0039643D02*
X0414362Y0039643D01*
X0414362Y0038645D02*
X0131778Y0038645D01*
X0131612Y0043638D02*
X0166612Y0043638D01*
X0165613Y0044636D02*
X0131578Y0044636D01*
X0085552Y0059614D02*
X0051073Y0059614D01*
X0051077Y0058615D02*
X0085116Y0058615D01*
X0084680Y0057617D02*
X0051081Y0057617D01*
X0051085Y0056618D02*
X0058753Y0056618D01*
X0059031Y0056733D02*
X0056017Y0055485D01*
X0053710Y0053178D01*
X0052462Y0050164D01*
X0052462Y0046902D01*
X0053710Y0043888D01*
X0056017Y0041581D01*
X0059031Y0040333D01*
X0061035Y0040333D01*
X0062293Y0040333D01*
X0065307Y0041581D01*
X0067613Y0043888D01*
X0067613Y0043888D01*
X0068862Y0046902D01*
X0068862Y0050164D01*
X0067613Y0053178D01*
X0065307Y0055485D01*
X0062293Y0056733D01*
X0059031Y0056733D01*
X0056343Y0055620D02*
X0051089Y0055620D01*
X0051092Y0054621D02*
X0055153Y0054621D01*
X0056017Y0055485D02*
X0056017Y0055485D01*
X0054155Y0053623D02*
X0051096Y0053623D01*
X0051100Y0052624D02*
X0053481Y0052624D01*
X0053710Y0053178D02*
X0053710Y0053178D01*
X0053067Y0051626D02*
X0051104Y0051626D01*
X0051108Y0050627D02*
X0052654Y0050627D01*
X0052462Y0049629D02*
X0051112Y0049629D01*
X0051115Y0048630D02*
X0052462Y0048630D01*
X0052462Y0047632D02*
X0051119Y0047632D01*
X0051123Y0046633D02*
X0052573Y0046633D01*
X0052987Y0045635D02*
X0051127Y0045635D01*
X0051131Y0044636D02*
X0053400Y0044636D01*
X0053710Y0043888D02*
X0053710Y0043888D01*
X0053961Y0043638D02*
X0051135Y0043638D01*
X0051139Y0042639D02*
X0054959Y0042639D01*
X0055958Y0041641D02*
X0051142Y0041641D01*
X0051146Y0040642D02*
X0058285Y0040642D01*
X0056017Y0041581D02*
X0056017Y0041581D01*
X0051150Y0039643D02*
X0066140Y0039643D01*
X0065307Y0041581D02*
X0065307Y0041581D01*
X0065366Y0041641D02*
X0070198Y0041641D01*
X0071883Y0042639D02*
X0066364Y0042639D01*
X0067363Y0043638D02*
X0073283Y0043638D01*
X0074670Y0044636D02*
X0067923Y0044636D01*
X0068337Y0045635D02*
X0075792Y0045635D01*
X0076914Y0046633D02*
X0068750Y0046633D01*
X0068862Y0047632D02*
X0077921Y0047632D01*
X0078824Y0048630D02*
X0068862Y0048630D01*
X0068862Y0049629D02*
X0079728Y0049629D01*
X0080503Y0050627D02*
X0068670Y0050627D01*
X0068256Y0051626D02*
X0081228Y0051626D01*
X0081952Y0052624D02*
X0067843Y0052624D01*
X0067613Y0053178D02*
X0067613Y0053178D01*
X0067169Y0053623D02*
X0082577Y0053623D01*
X0083149Y0054621D02*
X0066170Y0054621D01*
X0065307Y0055485D02*
X0065307Y0055485D01*
X0064981Y0055620D02*
X0083720Y0055620D01*
X0084243Y0056618D02*
X0062570Y0056618D01*
X0063039Y0040642D02*
X0068419Y0040642D01*
X0063419Y0038645D02*
X0051154Y0038645D01*
X0062293Y0040333D02*
X0062293Y0040333D01*
X0230363Y0053623D02*
X0249353Y0053623D01*
X0248600Y0054621D02*
X0231150Y0054621D01*
X0232648Y0055620D02*
X0238630Y0055620D01*
X0237631Y0056618D02*
X0234148Y0056618D01*
X0234663Y0057617D02*
X0236633Y0057617D01*
X0236362Y0058615D02*
X0234762Y0058615D01*
X0234962Y0059614D02*
X0236362Y0059614D01*
X0236362Y0060612D02*
X0234962Y0060612D01*
X0235498Y0061611D02*
X0235826Y0061611D01*
X0235681Y0062609D02*
X0235643Y0062609D01*
X0235643Y0063608D02*
X0235681Y0063608D01*
X0235643Y0064606D02*
X0235681Y0064606D01*
X0235643Y0065605D02*
X0235681Y0065605D01*
X0235643Y0066603D02*
X0235681Y0066603D01*
X0238162Y0064657D02*
X0238162Y0058633D01*
X0239962Y0056833D01*
X0250919Y0056833D01*
X0252262Y0056490D01*
X0246762Y0060333D02*
X0246762Y0063433D01*
X0247062Y0063733D01*
X0251105Y0063733D01*
X0252262Y0063576D01*
X0248600Y0065605D02*
X0245643Y0065605D01*
X0245643Y0066603D02*
X0256442Y0066603D01*
X0259174Y0066603D02*
X0259749Y0066603D01*
X0259749Y0065605D02*
X0259174Y0065605D01*
X0259174Y0064606D02*
X0259749Y0064606D01*
X0247062Y0063733D02*
X0243462Y0063733D01*
X0243162Y0064033D01*
X0243162Y0064657D01*
X0233162Y0064657D02*
X0233162Y0059733D01*
D24*
X0246762Y0060333D03*
X0241362Y0047933D03*
X0157962Y0059333D03*
X0151462Y0060933D03*
X0129662Y0051133D03*
X0118462Y0051433D03*
X0119962Y0058933D03*
X0085762Y0066733D03*
X0085662Y0071133D03*
X0073262Y0070033D03*
X0085662Y0075633D03*
X0068862Y0081133D03*
X0120662Y0089633D03*
X0140862Y0083633D03*
X0144162Y0079933D03*
X0158762Y0083533D03*
X0166762Y0079933D03*
X0159262Y0100133D03*
X0119662Y0108633D03*
X0114662Y0102633D03*
X0084562Y0102533D03*
X0119662Y0117133D03*
X0124862Y0120433D03*
X0115162Y0133633D03*
X0115162Y0138133D03*
X0123662Y0140033D03*
X0115162Y0142633D03*
X0115162Y0147633D03*
X0114862Y0153033D03*
X0084162Y0151133D03*
X0084162Y0156133D03*
X0082162Y0160133D03*
X0078662Y0162633D03*
X0084162Y0145133D03*
X0084162Y0140133D03*
X0084162Y0134633D03*
X0078362Y0117633D03*
X0213162Y0100133D03*
X0253762Y0099933D03*
X0253762Y0083233D03*
X0306762Y0085933D03*
X0335362Y0088533D03*
X0366062Y0092933D03*
X0380562Y0078833D03*
X0084862Y0062233D03*
X0082962Y0058133D03*
X0080762Y0054233D03*
X0078062Y0050733D03*
X0075162Y0047333D03*
X0071762Y0044533D03*
X0068162Y0042133D03*
D25*
X0177062Y0082933D03*
X0212562Y0082233D03*
X0231562Y0083133D03*
X0306662Y0099133D03*
X0348662Y0116133D03*
X0367662Y0108133D03*
X0367162Y0085933D03*
X0361062Y0081033D03*
X0407362Y0072033D03*
X0425362Y0066333D03*
X0431362Y0066333D03*
X0437362Y0066333D03*
X0443362Y0066333D03*
X0449362Y0066233D03*
X0455362Y0066233D03*
X0461362Y0066233D03*
X0467362Y0066233D03*
X0473362Y0066233D03*
X0479362Y0066233D03*
X0485362Y0066233D03*
X0491362Y0066233D03*
X0491362Y0060233D03*
X0485362Y0060233D03*
X0479362Y0060233D03*
X0473362Y0060233D03*
X0467362Y0060233D03*
X0461362Y0060233D03*
X0455362Y0060233D03*
X0449362Y0060233D03*
X0443362Y0060333D03*
X0437362Y0060333D03*
X0431362Y0060333D03*
X0425362Y0060333D03*
X0425362Y0054333D03*
X0431362Y0054333D03*
X0437362Y0054333D03*
X0443362Y0054333D03*
X0449362Y0054233D03*
X0455362Y0054233D03*
X0461362Y0054233D03*
X0467362Y0054233D03*
X0473362Y0054233D03*
X0479362Y0054233D03*
X0485362Y0054233D03*
X0491362Y0054233D03*
X0491362Y0048233D03*
X0485362Y0048233D03*
X0479362Y0048233D03*
X0473362Y0048233D03*
X0467362Y0048233D03*
X0461362Y0048233D03*
X0455362Y0048233D03*
X0449362Y0048233D03*
X0443362Y0048333D03*
X0437362Y0048333D03*
X0431362Y0048333D03*
X0425362Y0048333D03*
X0425362Y0042433D03*
X0431362Y0042433D03*
X0437362Y0042433D03*
X0443362Y0042433D03*
X0449362Y0042333D03*
X0455362Y0042333D03*
X0461362Y0042333D03*
X0467362Y0042333D03*
X0473362Y0042333D03*
X0479362Y0042333D03*
X0485362Y0042333D03*
X0491362Y0042333D03*
X0473362Y0074133D03*
X0467362Y0074133D03*
X0461362Y0074133D03*
X0455362Y0074133D03*
X0449362Y0074133D03*
X0449362Y0080133D03*
X0455362Y0080133D03*
X0461362Y0080133D03*
X0467362Y0080133D03*
X0473362Y0080133D03*
X0473362Y0086133D03*
X0467362Y0086133D03*
X0461362Y0086133D03*
X0455362Y0086133D03*
X0449362Y0086133D03*
X0449362Y0092133D03*
X0455362Y0092133D03*
X0461362Y0092133D03*
X0467362Y0092133D03*
X0473362Y0092133D03*
X0479362Y0092133D03*
X0485362Y0092133D03*
X0491362Y0092133D03*
X0491362Y0098133D03*
X0485362Y0098133D03*
X0479362Y0098133D03*
X0473362Y0098133D03*
X0467362Y0098133D03*
X0461362Y0098133D03*
X0455362Y0098133D03*
X0449362Y0098133D03*
X0449362Y0104133D03*
X0455362Y0104133D03*
X0461362Y0104133D03*
X0467362Y0104133D03*
X0473362Y0104133D03*
X0479362Y0104133D03*
X0485362Y0104133D03*
X0491362Y0104133D03*
X0491362Y0110133D03*
X0485362Y0110133D03*
X0479362Y0110133D03*
X0473362Y0110133D03*
X0467362Y0110133D03*
X0461362Y0110133D03*
X0455362Y0110133D03*
X0449362Y0110133D03*
X0449362Y0116133D03*
X0455362Y0116133D03*
X0461362Y0116133D03*
X0467362Y0116133D03*
X0473362Y0116133D03*
X0479362Y0116133D03*
X0485362Y0116133D03*
X0491362Y0116133D03*
X0491362Y0122133D03*
X0485362Y0122133D03*
X0479362Y0122133D03*
X0473362Y0122133D03*
X0467362Y0122133D03*
X0461362Y0122133D03*
X0455362Y0122133D03*
X0449362Y0122133D03*
X0442362Y0122133D03*
X0436362Y0122133D03*
X0430362Y0122133D03*
X0430362Y0128133D03*
X0436362Y0128133D03*
X0442362Y0128133D03*
X0449362Y0128133D03*
X0455362Y0128133D03*
X0461362Y0128133D03*
X0467362Y0128133D03*
X0473362Y0128133D03*
X0479362Y0128133D03*
X0485362Y0128133D03*
X0491362Y0128133D03*
X0491362Y0134133D03*
X0485362Y0134133D03*
X0479362Y0134133D03*
X0473362Y0134133D03*
X0467362Y0134133D03*
X0461362Y0134133D03*
X0455362Y0134133D03*
X0449362Y0134133D03*
X0442362Y0134133D03*
X0436362Y0134133D03*
X0430362Y0134133D03*
X0424362Y0134133D03*
X0424362Y0140133D03*
X0430362Y0140133D03*
X0436362Y0140133D03*
X0442362Y0140133D03*
X0449362Y0140133D03*
X0455362Y0140133D03*
X0461362Y0140133D03*
X0467362Y0140133D03*
X0473362Y0140133D03*
X0479362Y0140133D03*
X0485362Y0140133D03*
X0491362Y0140133D03*
X0491362Y0146133D03*
X0485362Y0146133D03*
X0479362Y0146133D03*
X0473362Y0146133D03*
X0467362Y0146133D03*
X0461362Y0146133D03*
X0455362Y0146133D03*
X0449362Y0146133D03*
X0442362Y0146133D03*
X0436362Y0146133D03*
X0430362Y0146133D03*
X0424362Y0146133D03*
X0449362Y0152133D03*
X0455362Y0152133D03*
X0461362Y0152133D03*
X0467362Y0152133D03*
X0473362Y0152133D03*
X0479362Y0152133D03*
X0485362Y0152133D03*
X0491362Y0152133D03*
X0491362Y0158133D03*
X0485362Y0158133D03*
X0479362Y0158133D03*
X0473362Y0158133D03*
X0467362Y0158133D03*
X0461362Y0158133D03*
X0455362Y0158133D03*
X0449362Y0158133D03*
X0443362Y0158133D03*
X0437362Y0158133D03*
X0431362Y0158133D03*
X0425362Y0158133D03*
X0353662Y0146133D03*
X0270362Y0121033D03*
X0238962Y0121533D03*
X0230862Y0122533D03*
X0194062Y0122533D03*
X0175462Y0123133D03*
X0141962Y0123133D03*
X0130162Y0141133D03*
X0120262Y0158233D03*
M02*
