%
M48
M72
T01C0.0120
T02C0.0197
T03C0.0236
T04C0.0320
T05C0.0400
T06C0.0440
T07C0.1300
%
T01
X21566Y4853
X22176Y4813
X23366Y4773
X21826Y5513
X21316Y5933
X22476Y5983
X23186Y5843
X12516Y8463
X7636Y10843
X35366Y10923
X35806Y10473
T02
X6816Y4213
X7176Y4453
X7516Y4733
X7806Y5073
X8076Y5423
X8296Y5813
X8486Y6223
X8576Y6673
X8566Y7113
X7326Y7003
X8566Y7563
X6886Y8113
X12066Y8963
X14086Y8363
X14416Y7993
X15876Y8353
X16676Y7993
X15146Y6093
X15796Y5933
X12966Y5113
X11846Y5143
X11996Y5893
X15926Y10013
X11966Y10863
X11466Y10263
X8456Y10253
X11966Y11713
X12486Y12043
X11516Y13363
X11516Y13813
X12366Y14003
X11516Y14263
X11516Y14763
X11486Y15303
X8416Y15113
X8416Y15613
X8216Y16013
X7866Y16263
X8416Y14513
X8416Y14013
X8416Y13463
X7836Y11763
X21316Y10013
X25376Y9993
X25376Y8323
X30676Y8593
X33536Y8853
X36606Y9293
X38056Y7883
X24676Y6033
X24136Y4793
T03
X21256Y8223
X23156Y8313
X17706Y8293
X27036Y12103
X23896Y12153
X23086Y12253
X19406Y12253
X17546Y12313
X14196Y12313
X13016Y14113
X12026Y15823
X30666Y9913
X34866Y11613
X36766Y10813
X36716Y8593
X36106Y8103
X40736Y7203
X42536Y6633
X43136Y6633
X43736Y6633
X44336Y6633
X44936Y6623
X45536Y6623
X46136Y6623
X46736Y6623
X47336Y6623
X47936Y6623
X48536Y6623
X49136Y6623
X49136Y6023
X48536Y6023
X47936Y6023
X47336Y6023
X46736Y6023
X46136Y6023
X45536Y6023
X44936Y6023
X44336Y6033
X43736Y6033
X43136Y6033
X42536Y6033
X42536Y5433
X43136Y5433
X43736Y5433
X44336Y5433
X44936Y5423
X45536Y5423
X46136Y5423
X46736Y5423
X47336Y5423
X47936Y5423
X48536Y5423
X49136Y5423
X49136Y4823
X48536Y4823
X47936Y4823
X47336Y4823
X46736Y4823
X46136Y4823
X45536Y4823
X44936Y4823
X44336Y4833
X43736Y4833
X43136Y4833
X42536Y4833
X42536Y4243
X43136Y4243
X43736Y4243
X44336Y4243
X44936Y4233
X45536Y4233
X46136Y4233
X46736Y4233
X47336Y4233
X47936Y4233
X48536Y4233
X49136Y4233
X47336Y7413
X46736Y7413
X46136Y7413
X45536Y7413
X44936Y7413
X44936Y8013
X45536Y8013
X46136Y8013
X46736Y8013
X47336Y8013
X47336Y8613
X46736Y8613
X46136Y8613
X45536Y8613
X44936Y8613
X44936Y9213
X45536Y9213
X46136Y9213
X46736Y9213
X47336Y9213
X47936Y9213
X48536Y9213
X49136Y9213
X49136Y9813
X48536Y9813
X47936Y9813
X47336Y9813
X46736Y9813
X46136Y9813
X45536Y9813
X44936Y9813
X44936Y10413
X45536Y10413
X46136Y10413
X46736Y10413
X47336Y10413
X47936Y10413
X48536Y10413
X49136Y10413
X49136Y11013
X48536Y11013
X47936Y11013
X47336Y11013
X46736Y11013
X46136Y11013
X45536Y11013
X44936Y11013
X44936Y11613
X45536Y11613
X46136Y11613
X46736Y11613
X47336Y11613
X47936Y11613
X48536Y11613
X49136Y11613
X49136Y12213
X48536Y12213
X47936Y12213
X47336Y12213
X46736Y12213
X46136Y12213
X45536Y12213
X44936Y12213
X44236Y12213
X43636Y12213
X43036Y12213
X43036Y12813
X43636Y12813
X44236Y12813
X44936Y12813
X45536Y12813
X46136Y12813
X46736Y12813
X47336Y12813
X47936Y12813
X48536Y12813
X49136Y12813
X49136Y13413
X48536Y13413
X47936Y13413
X47336Y13413
X46736Y13413
X46136Y13413
X45536Y13413
X44936Y13413
X44236Y13413
X43636Y13413
X43036Y13413
X42436Y13413
X42436Y14013
X43036Y14013
X43636Y14013
X44236Y14013
X44936Y14013
X45536Y14013
X46136Y14013
X46736Y14013
X47336Y14013
X47936Y14013
X48536Y14013
X49136Y14013
X49136Y14613
X48536Y14613
X47936Y14613
X47336Y14613
X46736Y14613
X46136Y14613
X45536Y14613
X44936Y14613
X44236Y14613
X43636Y14613
X43036Y14613
X42436Y14613
X44936Y15213
X45536Y15213
X46136Y15213
X46736Y15213
X47336Y15213
X47936Y15213
X48536Y15213
X49136Y15213
X49136Y15813
X48536Y15813
X47936Y15813
X47336Y15813
X46736Y15813
X46136Y15813
X45536Y15813
X44936Y15813
X44336Y15813
X43736Y15813
X43136Y15813
X42536Y15813
X35366Y14613
T04
X39016Y14863
X39016Y12863
X43436Y9563
X43436Y8563
T05
X6266Y9513
X6166Y8513
X6266Y7513
X6166Y6513
X6166Y10513
X6266Y11513
X6166Y12513
X6266Y13513
T06
X14936Y15013
X16936Y15013
X18936Y15013
X20936Y15013
X22936Y15013
X24936Y15013
X26936Y15013
X28936Y15013
X30936Y15013
X32936Y15013
T07
X48616Y7863
X7166Y15313
X6066Y4853
M30
