%
M48
M72
T01C0.0197
T02C0.0236
T03C0.0400
T04C0.0433
T05C0.0886
T06C0.1614
%
T01
X1610Y10260
X3900Y11870
X6000Y13080
X9180Y13390
X10550Y16060
X12550Y11640
X13750Y21920
X13990Y22410
X23550Y11980
X24700Y11630
X25060Y12160
T02
X24660Y10330
X25260Y8860
X23140Y12600
X21960Y13770
X20960Y14370
X19850Y14640
X18616Y14260
X18280Y15550
X18760Y16440
X19425Y16565
X21650Y17720
X23320Y17580
X25820Y16340
X26740Y18650
X27460Y20200
X22890Y20350
X20040Y21400
X14470Y16600
X12780Y15160
X12270Y17720
X13080Y19740
X13540Y20350
X14390Y21450
X13110Y22260
X12740Y22820
X14330Y22860
X11900Y20410
X11350Y21300
X8780Y21860
X7930Y22550
X7430Y21720
X6770Y22340
X5890Y22310
X9750Y23740
X15965Y14605
X17225Y14390
X21100Y12550
X23540Y14260
X21390Y4930
X20030Y3940
X18810Y2850
X17530Y3880
X13650Y10170
X11030Y10160
X7890Y7760
X7050Y10270
X3890Y10670
X26390Y3520
X27070Y3180
T03
X6750Y17490
X4970Y17490
X4970Y20050
X6750Y20050
X10010Y25350
X11010Y25450
X12010Y25350
X13010Y25450
X14010Y25350
X18650Y23130
X19650Y23130
X20650Y23130
X21650Y23130
X22650Y23130
X23650Y23130
T04
X20893Y7395
X20893Y6411
X20893Y5426
X20893Y4442
X19436Y4442
X19436Y5426
X19436Y6411
X19436Y7395
X18058Y7395
X18058Y6411
X17074Y6411
X17074Y7395
X16089Y7395
X15105Y7395
X14121Y7395
X14121Y6411
X15105Y6411
X16089Y6411
X16089Y5426
X16089Y4442
X15105Y4442
X14121Y4442
X14121Y5426
X15105Y5426
X13137Y5426
X13137Y4442
X12152Y4442
X11168Y4442
X10184Y4442
X10184Y5426
X11168Y5426
X12152Y5426
X12152Y6411
X12152Y7395
X11168Y7395
X10184Y7395
X10184Y6411
X11168Y6411
X9200Y6411
X9200Y7395
X9200Y5426
X9200Y4442
X13137Y6411
X13137Y7395
X17074Y5426
X17074Y4442
X18058Y4442
X18058Y5426
T05
X23440Y7789
X6672Y7796
T06
X5050Y6257
X25062Y6277
M30
