G75*
%MOIN*%
%OFA0B0*%
%FSLAX24Y24*%
%IPPOS*%
%LPD*%
%AMOC8*
5,1,8,0,0,1.08239X$1,22.5*
%
%ADD10C,0.0100*%
%ADD11C,0.0050*%
D10*
X004023Y002143D02*
X010843Y002143D01*
X010843Y003253D01*
X010845Y003327D01*
X010851Y003400D01*
X010860Y003474D01*
X010874Y003546D01*
X010891Y003618D01*
X010912Y003689D01*
X010937Y003758D01*
X010965Y003826D01*
X010997Y003893D01*
X011032Y003958D01*
X011070Y004021D01*
X011112Y004082D01*
X011157Y004140D01*
X011205Y004196D01*
X011256Y004250D01*
X011310Y004301D01*
X011366Y004349D01*
X011424Y004394D01*
X011485Y004436D01*
X011548Y004474D01*
X011613Y004509D01*
X011680Y004541D01*
X011748Y004569D01*
X011817Y004594D01*
X011888Y004615D01*
X011960Y004632D01*
X012032Y004646D01*
X012106Y004655D01*
X012179Y004661D01*
X012253Y004663D01*
X012327Y004661D01*
X012400Y004655D01*
X012474Y004646D01*
X012546Y004632D01*
X012618Y004615D01*
X012689Y004594D01*
X012758Y004569D01*
X012826Y004541D01*
X012893Y004509D01*
X012958Y004474D01*
X013021Y004436D01*
X013082Y004394D01*
X013140Y004349D01*
X013196Y004301D01*
X013250Y004250D01*
X013301Y004196D01*
X013349Y004140D01*
X013394Y004082D01*
X013436Y004021D01*
X013474Y003958D01*
X013509Y003893D01*
X013541Y003826D01*
X013569Y003758D01*
X013594Y003689D01*
X013615Y003618D01*
X013632Y003546D01*
X013646Y003474D01*
X013655Y003400D01*
X013661Y003327D01*
X013663Y003253D01*
X013663Y002143D01*
X026943Y002143D01*
X026943Y003433D01*
X026943Y003443D02*
X026945Y003517D01*
X026951Y003590D01*
X026960Y003663D01*
X026974Y003735D01*
X026991Y003807D01*
X027012Y003877D01*
X027036Y003947D01*
X027064Y004014D01*
X027096Y004081D01*
X027131Y004146D01*
X027170Y004208D01*
X027211Y004269D01*
X027256Y004327D01*
X027304Y004383D01*
X027355Y004436D01*
X027408Y004487D01*
X027464Y004535D01*
X027522Y004580D01*
X027583Y004621D01*
X027646Y004660D01*
X027710Y004695D01*
X027777Y004727D01*
X027844Y004755D01*
X027914Y004779D01*
X027984Y004800D01*
X028056Y004817D01*
X028128Y004831D01*
X028201Y004840D01*
X028274Y004846D01*
X028348Y004848D01*
X028422Y004846D01*
X028495Y004840D01*
X028568Y004831D01*
X028640Y004817D01*
X028712Y004800D01*
X028782Y004779D01*
X028852Y004755D01*
X028919Y004727D01*
X028986Y004695D01*
X029051Y004660D01*
X029113Y004621D01*
X029174Y004580D01*
X029232Y004535D01*
X029288Y004487D01*
X029341Y004436D01*
X029392Y004383D01*
X029440Y004327D01*
X029485Y004269D01*
X029526Y004208D01*
X029565Y004146D01*
X029600Y004081D01*
X029632Y004014D01*
X029660Y003947D01*
X029684Y003877D01*
X029705Y003807D01*
X029722Y003735D01*
X029736Y003663D01*
X029745Y003590D01*
X029751Y003517D01*
X029753Y003443D01*
X029753Y002143D01*
X036563Y002143D01*
X036563Y024433D01*
X029743Y024433D01*
X029743Y023133D01*
X029741Y023059D01*
X029736Y022986D01*
X029726Y022913D01*
X029713Y022841D01*
X029696Y022769D01*
X029676Y022699D01*
X029651Y022629D01*
X029624Y022561D01*
X029592Y022495D01*
X029557Y022430D01*
X029519Y022367D01*
X029478Y022306D01*
X029433Y022248D01*
X029385Y022192D01*
X029335Y022138D01*
X029282Y022087D01*
X029226Y022039D01*
X029168Y021994D01*
X029107Y021952D01*
X029045Y021914D01*
X028980Y021878D01*
X028914Y021847D01*
X028846Y021818D01*
X028777Y021793D01*
X028706Y021772D01*
X028635Y021755D01*
X028563Y021741D01*
X028490Y021731D01*
X028417Y021725D01*
X028343Y021723D01*
X028269Y021725D01*
X028196Y021730D01*
X028123Y021740D01*
X028051Y021753D01*
X027979Y021770D01*
X027909Y021790D01*
X027839Y021815D01*
X027771Y021842D01*
X027705Y021874D01*
X027640Y021909D01*
X027577Y021947D01*
X027516Y021988D01*
X027458Y022033D01*
X027402Y022081D01*
X027348Y022131D01*
X027297Y022184D01*
X027249Y022240D01*
X027204Y022298D01*
X027162Y022359D01*
X027124Y022421D01*
X027088Y022486D01*
X027057Y022552D01*
X027028Y022620D01*
X027003Y022689D01*
X026982Y022760D01*
X026965Y022831D01*
X026951Y022903D01*
X026941Y022976D01*
X026935Y023049D01*
X026933Y023123D01*
X026933Y023133D02*
X026933Y024433D01*
X013673Y024433D01*
X013673Y023133D01*
X013671Y023059D01*
X013665Y022986D01*
X013656Y022912D01*
X013642Y022840D01*
X013625Y022768D01*
X013604Y022697D01*
X013579Y022628D01*
X013551Y022560D01*
X013519Y022493D01*
X013484Y022428D01*
X013446Y022365D01*
X013404Y022304D01*
X013359Y022246D01*
X013311Y022190D01*
X013260Y022136D01*
X013206Y022085D01*
X013150Y022037D01*
X013092Y021992D01*
X013031Y021950D01*
X012968Y021912D01*
X012903Y021877D01*
X012836Y021845D01*
X012768Y021817D01*
X012699Y021792D01*
X012628Y021771D01*
X012556Y021754D01*
X012484Y021740D01*
X012410Y021731D01*
X012337Y021725D01*
X012263Y021723D01*
X012189Y021725D01*
X012116Y021731D01*
X012042Y021740D01*
X011970Y021754D01*
X011898Y021771D01*
X011827Y021792D01*
X011758Y021817D01*
X011690Y021845D01*
X011623Y021877D01*
X011558Y021912D01*
X011495Y021950D01*
X011434Y021992D01*
X011376Y022037D01*
X011320Y022085D01*
X011266Y022136D01*
X011215Y022190D01*
X011167Y022246D01*
X011122Y022304D01*
X011080Y022365D01*
X011042Y022428D01*
X011007Y022493D01*
X010975Y022560D01*
X010947Y022628D01*
X010922Y022697D01*
X010901Y022768D01*
X010884Y022840D01*
X010870Y022912D01*
X010861Y022986D01*
X010855Y023059D01*
X010853Y023133D01*
X010853Y024433D01*
X004023Y024433D01*
X004023Y002143D01*
X017365Y005457D02*
X017601Y005457D01*
X017601Y005930D02*
X017365Y005930D01*
X017355Y006457D02*
X017591Y006457D01*
X017591Y006930D02*
X017355Y006930D01*
X017375Y009997D02*
X017611Y009997D01*
X017611Y010470D02*
X017375Y010470D01*
X017355Y011007D02*
X017591Y011007D01*
X017591Y011480D02*
X017355Y011480D01*
X017355Y014707D02*
X017591Y014707D01*
X017591Y015180D02*
X017355Y015180D01*
X017355Y015657D02*
X017591Y015657D01*
X017591Y016130D02*
X017355Y016130D01*
X015010Y015991D02*
X015010Y015755D01*
X014537Y015755D02*
X014537Y015991D01*
X013030Y016021D02*
X013030Y015785D01*
X012557Y015785D02*
X012557Y016021D01*
X017405Y019357D02*
X017641Y019357D01*
X017641Y019830D02*
X017405Y019830D01*
X017405Y020357D02*
X017641Y020357D01*
X017641Y020830D02*
X017405Y020830D01*
X024253Y014712D02*
X024253Y014594D01*
X025434Y014594D01*
X025434Y014712D01*
X024253Y014712D01*
X025995Y013430D02*
X026231Y013430D01*
X026231Y012957D02*
X025995Y012957D01*
X024924Y010512D02*
X023743Y010512D01*
X023743Y010394D01*
X024924Y010394D01*
X024924Y010512D01*
X024393Y006282D02*
X024393Y006164D01*
X025574Y006164D01*
X025574Y006282D01*
X024393Y006282D01*
X006281Y014257D02*
X006045Y014257D01*
X006045Y014730D02*
X006281Y014730D01*
D11*
X006198Y014933D02*
X006398Y014933D01*
X006398Y015234D01*
X006076Y015184D02*
X006026Y015234D01*
X005926Y015234D01*
X005876Y015184D01*
X005876Y015133D01*
X006076Y014933D01*
X005876Y014933D01*
X013303Y015482D02*
X013303Y015582D01*
X013353Y015632D01*
X013353Y015754D02*
X013303Y015804D01*
X013303Y015904D01*
X013353Y015954D01*
X013403Y015954D01*
X013453Y015904D01*
X013453Y015854D01*
X013453Y015904D02*
X013503Y015954D01*
X013554Y015954D01*
X013604Y015904D01*
X013604Y015804D01*
X013554Y015754D01*
X013554Y015632D02*
X013604Y015582D01*
X013604Y015482D01*
X013554Y015431D01*
X013353Y015431D01*
X013303Y015482D01*
X014013Y015482D02*
X014013Y015582D01*
X014063Y015632D01*
X014063Y015754D02*
X014013Y015804D01*
X014013Y015904D01*
X014063Y015954D01*
X014113Y015954D01*
X014163Y015904D01*
X014163Y015854D01*
X014163Y015904D02*
X014213Y015954D01*
X014264Y015954D01*
X014314Y015904D01*
X014314Y015804D01*
X014264Y015754D01*
X014264Y015632D02*
X014314Y015582D01*
X014314Y015482D01*
X014264Y015431D01*
X014063Y015431D01*
X014013Y015482D01*
X014013Y016076D02*
X014013Y016276D01*
X014013Y016176D02*
X014314Y016176D01*
X014213Y016076D01*
X013604Y016126D02*
X013554Y016076D01*
X013604Y016126D02*
X013604Y016226D01*
X013554Y016276D01*
X013503Y016276D01*
X013303Y016076D01*
X013303Y016276D01*
X017004Y016373D02*
X017004Y016574D01*
X017054Y016624D01*
X017154Y016624D01*
X017204Y016574D01*
X017204Y016523D01*
X017154Y016473D01*
X017004Y016473D01*
X017004Y016373D02*
X017054Y016323D01*
X017154Y016323D01*
X017204Y016373D01*
X017326Y016323D02*
X017526Y016323D01*
X017426Y016323D02*
X017426Y016624D01*
X017526Y016523D01*
X017648Y016473D02*
X017648Y016574D01*
X017698Y016624D01*
X017848Y016624D01*
X017848Y016323D01*
X017848Y016423D02*
X017698Y016423D01*
X017648Y016473D01*
X017748Y016423D02*
X017648Y016323D01*
X017735Y014584D02*
X017685Y014534D01*
X017685Y014433D01*
X017735Y014383D01*
X017885Y014383D01*
X017885Y014283D02*
X017885Y014584D01*
X017735Y014584D01*
X017563Y014483D02*
X017463Y014584D01*
X017463Y014283D01*
X017563Y014283D02*
X017363Y014283D01*
X017241Y014333D02*
X017241Y014383D01*
X017191Y014433D01*
X017090Y014433D01*
X017040Y014383D01*
X017040Y014333D01*
X017090Y014283D01*
X017191Y014283D01*
X017241Y014333D01*
X017191Y014433D02*
X017241Y014483D01*
X017241Y014534D01*
X017191Y014584D01*
X017090Y014584D01*
X017040Y014534D01*
X017040Y014483D01*
X017090Y014433D01*
X017685Y014283D02*
X017785Y014383D01*
X016808Y011274D02*
X016658Y011274D01*
X016608Y011224D01*
X016608Y011123D01*
X016658Y011073D01*
X016808Y011073D01*
X016808Y010973D02*
X016808Y011274D01*
X016708Y011073D02*
X016608Y010973D01*
X016486Y010973D02*
X016286Y010973D01*
X016386Y010973D02*
X016386Y011274D01*
X016486Y011173D01*
X016164Y011123D02*
X016064Y011173D01*
X016014Y011173D01*
X015964Y011123D01*
X015964Y011023D01*
X016014Y010973D01*
X016114Y010973D01*
X016164Y011023D01*
X016164Y011123D02*
X016164Y011274D01*
X015964Y011274D01*
X016040Y010344D02*
X016191Y010193D01*
X015990Y010193D01*
X016040Y010043D02*
X016040Y010344D01*
X016413Y010344D02*
X016513Y010243D01*
X016635Y010193D02*
X016685Y010143D01*
X016835Y010143D01*
X016835Y010043D02*
X016835Y010344D01*
X016685Y010344D01*
X016635Y010294D01*
X016635Y010193D01*
X016735Y010143D02*
X016635Y010043D01*
X016513Y010043D02*
X016313Y010043D01*
X016413Y010043D02*
X016413Y010344D01*
X017074Y007404D02*
X017074Y007103D01*
X017174Y007103D02*
X016974Y007103D01*
X017174Y007303D02*
X017074Y007404D01*
X017396Y007404D02*
X017496Y007303D01*
X017618Y007253D02*
X017668Y007203D01*
X017818Y007203D01*
X017818Y007103D02*
X017818Y007404D01*
X017668Y007404D01*
X017618Y007354D01*
X017618Y007253D01*
X017718Y007203D02*
X017618Y007103D01*
X017496Y007103D02*
X017296Y007103D01*
X017396Y007103D02*
X017396Y007404D01*
X017446Y005294D02*
X017446Y004993D01*
X017546Y004993D02*
X017346Y004993D01*
X017224Y005043D02*
X017024Y005244D01*
X017024Y005043D01*
X017074Y004993D01*
X017174Y004993D01*
X017224Y005043D01*
X017224Y005244D01*
X017174Y005294D01*
X017074Y005294D01*
X017024Y005244D01*
X017446Y005294D02*
X017546Y005193D01*
X017668Y005143D02*
X017718Y005093D01*
X017868Y005093D01*
X017868Y004993D02*
X017868Y005294D01*
X017718Y005294D01*
X017668Y005244D01*
X017668Y005143D01*
X017768Y005093D02*
X017668Y004993D01*
X023862Y005789D02*
X024162Y005789D01*
X024162Y005939D01*
X024112Y005989D01*
X024012Y005989D01*
X023962Y005939D01*
X023962Y005789D01*
X023962Y005889D02*
X023862Y005989D01*
X023862Y006111D02*
X024162Y006111D01*
X023862Y006311D01*
X024162Y006311D01*
X024062Y006433D02*
X024162Y006534D01*
X023862Y006534D01*
X023862Y006634D02*
X023862Y006433D01*
X025152Y009999D02*
X025452Y009999D01*
X025452Y010149D01*
X025402Y010199D01*
X025302Y010199D01*
X025252Y010149D01*
X025252Y009999D01*
X025252Y010099D02*
X025152Y010199D01*
X025152Y010321D02*
X025452Y010321D01*
X025152Y010521D01*
X025452Y010521D01*
X025402Y010643D02*
X025452Y010693D01*
X025452Y010794D01*
X025402Y010844D01*
X025352Y010844D01*
X025152Y010643D01*
X025152Y010844D01*
X025614Y012443D02*
X025814Y012443D01*
X025614Y012643D01*
X025614Y012694D01*
X025664Y012744D01*
X025764Y012744D01*
X025814Y012694D01*
X025936Y012694D02*
X025986Y012744D01*
X026086Y012744D01*
X026136Y012694D01*
X026258Y012694D02*
X026308Y012744D01*
X026408Y012744D01*
X026458Y012694D01*
X026458Y012493D01*
X026408Y012443D01*
X026308Y012443D01*
X026258Y012493D01*
X026136Y012443D02*
X025936Y012643D01*
X025936Y012694D01*
X025936Y012443D02*
X026136Y012443D01*
X025942Y014159D02*
X025642Y014159D01*
X025742Y014159D02*
X025742Y014309D01*
X025792Y014359D01*
X025892Y014359D01*
X025942Y014309D01*
X025942Y014159D01*
X025742Y014259D02*
X025642Y014359D01*
X025642Y014481D02*
X025942Y014481D01*
X025642Y014681D01*
X025942Y014681D01*
X025892Y014803D02*
X025942Y014853D01*
X025942Y014954D01*
X025892Y015004D01*
X025842Y015004D01*
X025792Y014954D01*
X025742Y015004D01*
X025692Y015004D01*
X025642Y014954D01*
X025642Y014853D01*
X025692Y014803D01*
X025792Y014904D02*
X025792Y014954D01*
X017838Y018888D02*
X017838Y019189D01*
X017688Y019189D01*
X017638Y019139D01*
X017638Y019038D01*
X017688Y018988D01*
X017838Y018988D01*
X017738Y018988D02*
X017638Y018888D01*
X017516Y018888D02*
X017316Y019088D01*
X017316Y019139D01*
X017366Y019189D01*
X017466Y019189D01*
X017516Y019139D01*
X017516Y018888D02*
X017316Y018888D01*
X017194Y018888D02*
X016994Y019088D01*
X016994Y019139D01*
X017044Y019189D01*
X017144Y019189D01*
X017194Y019139D01*
X017194Y018888D02*
X016994Y018888D01*
X017064Y021018D02*
X017164Y021018D01*
X017214Y021068D01*
X017336Y021018D02*
X017536Y021018D01*
X017336Y021218D01*
X017336Y021269D01*
X017386Y021319D01*
X017486Y021319D01*
X017536Y021269D01*
X017658Y021269D02*
X017658Y021168D01*
X017708Y021118D01*
X017858Y021118D01*
X017858Y021018D02*
X017858Y021319D01*
X017708Y021319D01*
X017658Y021269D01*
X017758Y021118D02*
X017658Y021018D01*
X017214Y021269D02*
X017164Y021319D01*
X017064Y021319D01*
X017014Y021269D01*
X017014Y021218D01*
X017064Y021168D01*
X017014Y021118D01*
X017014Y021068D01*
X017064Y021018D01*
X017064Y021168D02*
X017114Y021168D01*
M02*
