G75*
%MOIN*%
%OFA0B0*%
%FSLAX24Y24*%
%IPPOS*%
%LPD*%
%AMOC8*
5,1,8,0,0,1.08239X$1,22.5*
%
%ADD10C,0.0000*%
%ADD11C,0.0060*%
%ADD12R,0.0551X0.0256*%
%ADD13C,0.0040*%
%ADD14C,0.0030*%
%ADD15R,0.0059X0.0118*%
%ADD16R,0.0118X0.0118*%
%ADD17C,0.0080*%
%ADD18C,0.0100*%
%ADD19C,0.0010*%
%ADD20R,0.0256X0.0551*%
%ADD21R,0.0118X0.0059*%
%ADD22R,0.0340X0.0300*%
%ADD23C,0.0050*%
%ADD24C,0.0240*%
D10*
X000263Y000180D02*
X000263Y039580D01*
X053263Y039580D01*
X053263Y000180D01*
X000263Y000180D01*
X002286Y021314D02*
X002288Y021340D01*
X002294Y021366D01*
X002304Y021391D01*
X002317Y021414D01*
X002333Y021434D01*
X002353Y021452D01*
X002375Y021467D01*
X002398Y021479D01*
X002424Y021487D01*
X002450Y021491D01*
X002476Y021491D01*
X002502Y021487D01*
X002528Y021479D01*
X002552Y021467D01*
X002573Y021452D01*
X002593Y021434D01*
X002609Y021414D01*
X002622Y021391D01*
X002632Y021366D01*
X002638Y021340D01*
X002640Y021314D01*
X002638Y021288D01*
X002632Y021262D01*
X002622Y021237D01*
X002609Y021214D01*
X002593Y021194D01*
X002573Y021176D01*
X002551Y021161D01*
X002528Y021149D01*
X002502Y021141D01*
X002476Y021137D01*
X002450Y021137D01*
X002424Y021141D01*
X002398Y021149D01*
X002374Y021161D01*
X002353Y021176D01*
X002333Y021194D01*
X002317Y021214D01*
X002304Y021237D01*
X002294Y021262D01*
X002288Y021288D01*
X002286Y021314D01*
X002286Y023046D02*
X002288Y023072D01*
X002294Y023098D01*
X002304Y023123D01*
X002317Y023146D01*
X002333Y023166D01*
X002353Y023184D01*
X002375Y023199D01*
X002398Y023211D01*
X002424Y023219D01*
X002450Y023223D01*
X002476Y023223D01*
X002502Y023219D01*
X002528Y023211D01*
X002552Y023199D01*
X002573Y023184D01*
X002593Y023166D01*
X002609Y023146D01*
X002622Y023123D01*
X002632Y023098D01*
X002638Y023072D01*
X002640Y023046D01*
X002638Y023020D01*
X002632Y022994D01*
X002622Y022969D01*
X002609Y022946D01*
X002593Y022926D01*
X002573Y022908D01*
X002551Y022893D01*
X002528Y022881D01*
X002502Y022873D01*
X002476Y022869D01*
X002450Y022869D01*
X002424Y022873D01*
X002398Y022881D01*
X002374Y022893D01*
X002353Y022908D01*
X002333Y022926D01*
X002317Y022946D01*
X002304Y022969D01*
X002294Y022994D01*
X002288Y023020D01*
X002286Y023046D01*
D11*
X003395Y017416D02*
X003631Y017416D01*
X003631Y016944D02*
X003395Y016944D01*
X006345Y011266D02*
X006581Y011266D01*
X006581Y010794D02*
X006345Y010794D01*
X006127Y009598D02*
X006127Y009362D01*
X006599Y009362D02*
X006599Y009598D01*
X003299Y009598D02*
X003299Y009362D01*
X002827Y009362D02*
X002827Y009598D01*
X010227Y007598D02*
X010227Y007362D01*
X010699Y007362D02*
X010699Y007598D01*
X016395Y011494D02*
X016631Y011494D01*
X016631Y011966D02*
X016395Y011966D01*
X020377Y011698D02*
X020377Y011462D01*
X020849Y011462D02*
X020849Y011698D01*
X026195Y011766D02*
X026431Y011766D01*
X026431Y011294D02*
X026195Y011294D01*
X028745Y011116D02*
X028981Y011116D01*
X028981Y010644D02*
X028745Y010644D01*
X026581Y009416D02*
X026345Y009416D01*
X026345Y008944D02*
X026581Y008944D01*
X029095Y012994D02*
X029331Y012994D01*
X029331Y013466D02*
X029095Y013466D01*
X032927Y013512D02*
X032927Y013748D01*
X033399Y013748D02*
X033399Y013512D01*
X036695Y010666D02*
X036931Y010666D01*
X036931Y010194D02*
X036695Y010194D01*
X033181Y004766D02*
X032945Y004766D01*
X032945Y004294D02*
X033181Y004294D01*
X043745Y009444D02*
X043981Y009444D01*
X043981Y009916D02*
X043745Y009916D01*
X045127Y011412D02*
X045127Y011648D01*
X045599Y011648D02*
X045599Y011412D01*
X045033Y028210D02*
X045033Y028530D01*
X044926Y028637D01*
X044606Y028637D01*
X044606Y028210D01*
X044388Y028317D02*
X044388Y028530D01*
X044281Y028637D01*
X044068Y028637D01*
X043961Y028530D01*
X043961Y028317D01*
X044068Y028210D01*
X044281Y028210D01*
X044388Y028317D01*
X043744Y028317D02*
X043637Y028424D01*
X043423Y028424D01*
X043317Y028530D01*
X043423Y028637D01*
X043744Y028637D01*
X043744Y028317D02*
X043637Y028210D01*
X043317Y028210D01*
X043099Y028210D02*
X043099Y028530D01*
X042992Y028637D01*
X042672Y028637D01*
X042672Y028210D01*
X042454Y028210D02*
X042454Y028530D01*
X042348Y028637D01*
X042134Y028637D01*
X042027Y028530D01*
X041810Y028530D02*
X041703Y028637D01*
X041490Y028637D01*
X041383Y028530D01*
X041383Y028317D01*
X041490Y028210D01*
X041703Y028210D01*
X041810Y028317D01*
X041810Y028530D01*
X042027Y028210D02*
X042027Y028851D01*
X041920Y029210D02*
X041920Y029637D01*
X041920Y029424D02*
X042134Y029637D01*
X042240Y029637D01*
X042457Y029637D02*
X042777Y029637D01*
X042884Y029530D01*
X042884Y029210D01*
X042457Y029210D02*
X042457Y029637D01*
X041702Y029637D02*
X041702Y029210D01*
X041382Y029210D01*
X041275Y029317D01*
X041275Y029637D01*
X041058Y029530D02*
X040951Y029637D01*
X040631Y029637D01*
X040631Y029851D02*
X040631Y029210D01*
X040951Y029210D01*
X041058Y029317D01*
X041058Y029530D01*
X041059Y028851D02*
X041059Y028317D01*
X040952Y028210D01*
X040845Y028210D01*
X040738Y028317D01*
X040952Y028851D02*
X041165Y028851D01*
X040415Y029210D02*
X040201Y029210D01*
X040308Y029210D02*
X040308Y029851D01*
X040201Y029851D01*
X039878Y029851D02*
X039878Y029957D01*
X039878Y029637D02*
X039878Y029210D01*
X039772Y029210D02*
X039985Y029210D01*
X039554Y029210D02*
X039234Y029530D01*
X039127Y029424D02*
X039554Y029851D01*
X039772Y029637D02*
X039878Y029637D01*
X039127Y029851D02*
X039127Y029210D01*
X039449Y028851D02*
X039449Y028210D01*
X039232Y028210D02*
X038911Y028210D01*
X038805Y028317D01*
X038805Y028530D01*
X038911Y028637D01*
X039232Y028637D01*
X039449Y028530D02*
X039556Y028637D01*
X039770Y028637D01*
X039876Y028530D01*
X039876Y028210D01*
X038588Y028210D02*
X038375Y028210D01*
X038482Y028210D02*
X038482Y028637D01*
X038375Y028637D01*
X038482Y028851D02*
X038482Y028957D01*
X038265Y029210D02*
X037945Y029210D01*
X037838Y029317D01*
X037838Y029530D01*
X037945Y029637D01*
X038265Y029637D01*
X037620Y029530D02*
X037620Y029210D01*
X037300Y029210D01*
X037193Y029317D01*
X037300Y029424D01*
X037620Y029424D01*
X037620Y029530D02*
X037514Y029637D01*
X037300Y029637D01*
X036976Y029744D02*
X036549Y029317D01*
X036549Y029210D01*
X036976Y029210D01*
X036976Y029744D02*
X036976Y029851D01*
X036549Y029851D01*
X035689Y029637D02*
X035689Y029530D01*
X035582Y029530D01*
X035582Y029637D01*
X035689Y029637D01*
X035689Y029317D02*
X035689Y029210D01*
X035582Y029210D01*
X035582Y029317D01*
X035689Y029317D01*
X035364Y029317D02*
X035364Y029530D01*
X035258Y029637D01*
X035044Y029637D01*
X034937Y029530D01*
X034937Y029317D01*
X035044Y029210D01*
X035258Y029210D01*
X035364Y029317D01*
X035258Y028637D02*
X035151Y028637D01*
X034937Y028424D01*
X034937Y028637D02*
X034937Y028210D01*
X034506Y028530D02*
X034293Y028530D01*
X034293Y028210D02*
X034293Y028851D01*
X034720Y028851D01*
X034506Y029210D02*
X034506Y029851D01*
X034293Y029851D02*
X034720Y029851D01*
X035581Y028637D02*
X035475Y028530D01*
X035475Y028317D01*
X035581Y028210D01*
X035795Y028210D01*
X035902Y028317D01*
X035902Y028530D01*
X035795Y028637D01*
X035581Y028637D01*
X036119Y028637D02*
X036119Y028210D01*
X036333Y028210D02*
X036333Y028530D01*
X036439Y028637D01*
X036546Y028530D01*
X036546Y028210D01*
X036764Y028210D02*
X036764Y028317D01*
X036870Y028317D01*
X036870Y028210D01*
X036764Y028210D01*
X036764Y028530D02*
X036764Y028637D01*
X036870Y028637D01*
X036870Y028530D01*
X036764Y028530D01*
X036333Y028530D02*
X036226Y028637D01*
X036119Y028637D01*
X037730Y028424D02*
X038051Y028424D01*
X038157Y028530D01*
X038157Y028744D01*
X038051Y028851D01*
X037730Y028851D01*
X037730Y028210D01*
X037944Y028424D02*
X038157Y028210D01*
X012781Y026716D02*
X012545Y026716D01*
X012545Y026244D02*
X012781Y026244D01*
D12*
X008062Y022868D03*
X008062Y022288D03*
X012563Y020972D03*
X012563Y020392D03*
D13*
X013032Y020366D02*
X013032Y020520D01*
X013109Y020597D01*
X013186Y020597D01*
X013493Y020290D01*
X013493Y020597D01*
X013493Y020136D02*
X013493Y019829D01*
X013186Y020136D01*
X013109Y020136D01*
X013032Y020059D01*
X013032Y019906D01*
X013109Y019829D01*
X013109Y019676D02*
X013263Y019676D01*
X013339Y019599D01*
X013339Y019369D01*
X013339Y019522D02*
X013493Y019676D01*
X013493Y019369D02*
X013032Y019369D01*
X013032Y019599D01*
X013109Y019676D01*
X013109Y020290D02*
X013032Y020366D01*
X013032Y021150D02*
X013493Y021150D01*
X013493Y021457D01*
X013493Y021610D02*
X013493Y021917D01*
X013493Y022071D02*
X013493Y022301D01*
X013416Y022378D01*
X013109Y022378D01*
X013032Y022301D01*
X013032Y022071D01*
X013493Y022071D01*
X013263Y021764D02*
X013263Y021610D01*
X013493Y021610D02*
X013032Y021610D01*
X013032Y021917D01*
X013186Y022531D02*
X013032Y022685D01*
X013493Y022685D01*
X013493Y022838D02*
X013493Y022531D01*
X013416Y022992D02*
X013109Y023298D01*
X013416Y023298D01*
X013493Y023222D01*
X013493Y023068D01*
X013416Y022992D01*
X013109Y022992D01*
X013032Y023068D01*
X013032Y023222D01*
X013109Y023298D01*
X014316Y024469D02*
X014393Y024546D01*
X014393Y024622D01*
X014316Y024699D01*
X013932Y024699D01*
X013932Y024622D02*
X013932Y024776D01*
X013932Y024929D02*
X013932Y025159D01*
X014009Y025236D01*
X014163Y025236D01*
X014239Y025159D01*
X014239Y024929D01*
X014393Y024929D02*
X013932Y024929D01*
X014009Y025390D02*
X013932Y025466D01*
X013932Y025620D01*
X014009Y025697D01*
X014086Y025697D01*
X014163Y025620D01*
X014239Y025697D01*
X014316Y025697D01*
X014393Y025620D01*
X014393Y025466D01*
X014316Y025390D01*
X014163Y025543D02*
X014163Y025620D01*
X014283Y027000D02*
X014590Y027000D01*
X014743Y027000D02*
X015050Y027000D01*
X015204Y027000D02*
X015434Y027000D01*
X015511Y027077D01*
X015511Y027384D01*
X015434Y027460D01*
X015204Y027460D01*
X015204Y027000D01*
X014897Y027230D02*
X014743Y027230D01*
X014743Y027460D02*
X014743Y027000D01*
X014283Y027000D02*
X014283Y027460D01*
X014743Y027460D02*
X015050Y027460D01*
X015664Y027307D02*
X015817Y027460D01*
X015817Y027000D01*
X015664Y027000D02*
X015971Y027000D01*
X013853Y029400D02*
X013699Y029400D01*
X013622Y029477D01*
X013929Y029784D01*
X013929Y029477D01*
X013853Y029400D01*
X013622Y029477D02*
X013622Y029784D01*
X013699Y029860D01*
X013853Y029860D01*
X013929Y029784D01*
X013469Y029400D02*
X013162Y029400D01*
X013009Y029400D02*
X012855Y029553D01*
X012932Y029553D02*
X012702Y029553D01*
X012702Y029400D02*
X012702Y029860D01*
X012932Y029860D01*
X013009Y029784D01*
X013009Y029630D01*
X012932Y029553D01*
X013162Y029707D02*
X013316Y029860D01*
X013316Y029400D01*
X015982Y031472D02*
X015982Y031626D01*
X015982Y031549D02*
X016366Y031549D01*
X016443Y031472D01*
X016443Y031396D01*
X016366Y031319D01*
X016289Y031779D02*
X016289Y032009D01*
X016213Y032086D01*
X016059Y032086D01*
X015982Y032009D01*
X015982Y031779D01*
X016443Y031779D01*
X016366Y032240D02*
X016443Y032316D01*
X016443Y032470D01*
X016366Y032547D01*
X016213Y032547D01*
X016136Y032470D01*
X016136Y032393D01*
X016213Y032240D01*
X015982Y032240D01*
X015982Y032547D01*
X016360Y033200D02*
X016436Y033200D01*
X016513Y033277D01*
X016513Y033660D01*
X016436Y033660D02*
X016590Y033660D01*
X016743Y033660D02*
X016973Y033660D01*
X017050Y033584D01*
X017050Y033430D01*
X016973Y033353D01*
X016743Y033353D01*
X016743Y033200D02*
X016743Y033660D01*
X017204Y033507D02*
X017357Y033660D01*
X017357Y033200D01*
X017204Y033200D02*
X017511Y033200D01*
X017664Y033200D02*
X017971Y033200D01*
X017817Y033200D02*
X017817Y033660D01*
X017664Y033507D01*
X017741Y034200D02*
X017664Y034277D01*
X017971Y034584D01*
X017971Y034277D01*
X017894Y034200D01*
X017741Y034200D01*
X017664Y034277D02*
X017664Y034584D01*
X017741Y034660D01*
X017894Y034660D01*
X017971Y034584D01*
X017511Y034200D02*
X017204Y034200D01*
X017357Y034200D02*
X017357Y034660D01*
X017204Y034507D01*
X017050Y034584D02*
X016973Y034660D01*
X016743Y034660D01*
X016743Y034200D01*
X016743Y034353D02*
X016973Y034353D01*
X017050Y034430D01*
X017050Y034584D01*
X016590Y034660D02*
X016436Y034660D01*
X016513Y034660D02*
X016513Y034277D01*
X016436Y034200D01*
X016360Y034200D01*
X016283Y034277D01*
X016283Y033277D02*
X016360Y033200D01*
X013800Y033177D02*
X013723Y033100D01*
X013570Y033100D01*
X013493Y033177D01*
X013340Y033177D02*
X013263Y033100D01*
X013110Y033100D01*
X013033Y033177D01*
X013033Y033484D01*
X013110Y033560D01*
X013263Y033560D01*
X013340Y033484D01*
X013493Y033484D02*
X013570Y033560D01*
X013723Y033560D01*
X013800Y033484D01*
X013800Y033407D01*
X013723Y033330D01*
X013800Y033253D01*
X013800Y033177D01*
X013723Y033330D02*
X013647Y033330D01*
X018182Y035353D02*
X018643Y035353D01*
X018643Y035200D02*
X018643Y035507D01*
X018336Y035200D02*
X018182Y035353D01*
X012934Y037900D02*
X012934Y038360D01*
X012704Y038130D01*
X013011Y038130D01*
X012550Y038130D02*
X012473Y038053D01*
X012243Y038053D01*
X012243Y037900D02*
X012243Y038360D01*
X012473Y038360D01*
X012550Y038284D01*
X012550Y038130D01*
X012090Y038360D02*
X011936Y038360D01*
X012013Y038360D02*
X012013Y037977D01*
X011936Y037900D01*
X011860Y037900D01*
X011783Y037977D01*
X009011Y037900D02*
X008704Y037900D01*
X009011Y038207D01*
X009011Y038284D01*
X008934Y038360D01*
X008780Y038360D01*
X008704Y038284D01*
X008550Y038284D02*
X008473Y038360D01*
X008243Y038360D01*
X008243Y037900D01*
X008243Y038053D02*
X008473Y038053D01*
X008550Y038130D01*
X008550Y038284D01*
X008090Y038360D02*
X007936Y038360D01*
X008013Y038360D02*
X008013Y037977D01*
X007936Y037900D01*
X007860Y037900D01*
X007783Y037977D01*
X005011Y037900D02*
X004704Y037900D01*
X004857Y037900D02*
X004857Y038360D01*
X004704Y038207D01*
X004550Y038284D02*
X004550Y038130D01*
X004473Y038053D01*
X004243Y038053D01*
X004243Y037900D02*
X004243Y038360D01*
X004473Y038360D01*
X004550Y038284D01*
X004090Y038360D02*
X003936Y038360D01*
X004013Y038360D02*
X004013Y037977D01*
X003936Y037900D01*
X003860Y037900D01*
X003783Y037977D01*
X001366Y033728D02*
X001289Y033728D01*
X001213Y033651D01*
X001213Y033421D01*
X001366Y033421D01*
X001443Y033498D01*
X001443Y033651D01*
X001366Y033728D01*
X001059Y033574D02*
X001213Y033421D01*
X001213Y033267D02*
X001059Y033267D01*
X000982Y033191D01*
X000982Y032960D01*
X001443Y032960D01*
X001289Y032960D02*
X001289Y033191D01*
X001213Y033267D01*
X001059Y033574D02*
X000982Y033728D01*
X000982Y032807D02*
X000982Y032653D01*
X000982Y032730D02*
X001366Y032730D01*
X001443Y032653D01*
X001443Y032577D01*
X001366Y032500D01*
X003312Y031984D02*
X003312Y031677D01*
X003389Y031600D01*
X003542Y031600D01*
X003619Y031677D01*
X003772Y031600D02*
X004079Y031907D01*
X004079Y031984D01*
X004003Y032060D01*
X003849Y032060D01*
X003772Y031984D01*
X003619Y031984D02*
X003542Y032060D01*
X003389Y032060D01*
X003312Y031984D01*
X003772Y031600D02*
X004079Y031600D01*
X001443Y029121D02*
X001366Y029121D01*
X001059Y029428D01*
X000982Y029428D01*
X000982Y029121D01*
X001059Y028967D02*
X001213Y028967D01*
X001289Y028891D01*
X001289Y028660D01*
X001443Y028660D02*
X000982Y028660D01*
X000982Y028891D01*
X001059Y028967D01*
X000982Y028507D02*
X000982Y028353D01*
X000982Y028430D02*
X001366Y028430D01*
X001443Y028353D01*
X001443Y028277D01*
X001366Y028200D01*
X005855Y026560D02*
X006009Y026560D01*
X005932Y026560D02*
X005932Y026177D01*
X005855Y026100D01*
X005778Y026100D01*
X005702Y026177D01*
X006162Y026253D02*
X006392Y026253D01*
X006469Y026330D01*
X006469Y026484D01*
X006392Y026560D01*
X006162Y026560D01*
X006162Y026100D01*
X006289Y025660D02*
X006212Y025584D01*
X006212Y025277D01*
X006289Y025200D01*
X006442Y025200D01*
X006519Y025277D01*
X006672Y025200D02*
X006979Y025200D01*
X006826Y025200D02*
X006826Y025660D01*
X006672Y025507D01*
X006519Y025584D02*
X006442Y025660D01*
X006289Y025660D01*
X006699Y026100D02*
X006622Y026177D01*
X006622Y026253D01*
X006699Y026330D01*
X006853Y026330D01*
X006929Y026253D01*
X006929Y026177D01*
X006853Y026100D01*
X006699Y026100D01*
X006699Y026330D02*
X006622Y026407D01*
X006622Y026484D01*
X006699Y026560D01*
X006853Y026560D01*
X006929Y026484D01*
X006929Y026407D01*
X006853Y026330D01*
X007630Y028120D02*
X007706Y028120D01*
X007783Y028197D01*
X007783Y028580D01*
X007706Y028580D02*
X007860Y028580D01*
X008013Y028580D02*
X008243Y028580D01*
X008320Y028504D01*
X008320Y028350D01*
X008243Y028273D01*
X008013Y028273D01*
X008013Y028120D02*
X008013Y028580D01*
X008474Y028427D02*
X008627Y028580D01*
X008627Y028120D01*
X008474Y028120D02*
X008781Y028120D01*
X008934Y028120D02*
X009241Y028427D01*
X009241Y028504D01*
X009164Y028580D01*
X009011Y028580D01*
X008934Y028504D01*
X008934Y028120D02*
X009241Y028120D01*
X009855Y026860D02*
X010009Y026860D01*
X009932Y026860D02*
X009932Y026477D01*
X009855Y026400D01*
X009778Y026400D01*
X009702Y026477D01*
X010162Y026553D02*
X010392Y026553D01*
X010469Y026630D01*
X010469Y026784D01*
X010392Y026860D01*
X010162Y026860D01*
X010162Y026400D01*
X010622Y026477D02*
X010699Y026400D01*
X010853Y026400D01*
X010929Y026477D01*
X010929Y026784D01*
X010853Y026860D01*
X010699Y026860D01*
X010622Y026784D01*
X010622Y026707D01*
X010699Y026630D01*
X010929Y026630D01*
X007630Y028120D02*
X007553Y028197D01*
X007213Y023278D02*
X007213Y022971D01*
X006982Y023201D01*
X007443Y023201D01*
X007443Y022817D02*
X007443Y022510D01*
X007136Y022817D01*
X007059Y022817D01*
X006982Y022741D01*
X006982Y022587D01*
X007059Y022510D01*
X007059Y022357D02*
X007213Y022357D01*
X007289Y022280D01*
X007289Y022050D01*
X007289Y022203D02*
X007443Y022357D01*
X007443Y022050D02*
X006982Y022050D01*
X006982Y022280D01*
X007059Y022357D01*
X007259Y021447D02*
X007336Y021447D01*
X007413Y021370D01*
X007489Y021447D01*
X007566Y021447D01*
X007643Y021370D01*
X007643Y021216D01*
X007566Y021140D01*
X007566Y020986D02*
X007259Y020986D01*
X007182Y020909D01*
X007182Y020679D01*
X007643Y020679D01*
X007643Y020909D01*
X007566Y020986D01*
X007259Y021140D02*
X007182Y021216D01*
X007182Y021370D01*
X007259Y021447D01*
X007413Y021370D02*
X007413Y021293D01*
X007643Y020526D02*
X007643Y020219D01*
X007182Y020219D01*
X007182Y020526D01*
X007413Y020372D02*
X007413Y020219D01*
X007643Y020065D02*
X007643Y019758D01*
X007182Y019758D01*
X006471Y018360D02*
X006164Y018360D01*
X005857Y018360D02*
X005704Y018207D01*
X005550Y018284D02*
X005550Y018130D01*
X005473Y018053D01*
X005243Y018053D01*
X005243Y017900D02*
X005243Y018360D01*
X005473Y018360D01*
X005550Y018284D01*
X005857Y018360D02*
X005857Y017900D01*
X005704Y017900D02*
X006011Y017900D01*
X006164Y017900D02*
X006164Y017977D01*
X006471Y018284D01*
X006471Y018360D01*
X005090Y018360D02*
X004936Y018360D01*
X005013Y018360D02*
X005013Y017977D01*
X004936Y017900D01*
X004860Y017900D01*
X004783Y017977D01*
X001793Y018021D02*
X001793Y018251D01*
X001716Y018328D01*
X001409Y018328D01*
X001332Y018251D01*
X001332Y018021D01*
X001793Y018021D01*
X001793Y017867D02*
X001793Y017560D01*
X001332Y017560D01*
X001332Y017867D01*
X001563Y017714D02*
X001563Y017560D01*
X001793Y017407D02*
X001793Y017100D01*
X001332Y017100D01*
X001332Y018481D02*
X001332Y018788D01*
X001409Y018788D01*
X001716Y018481D01*
X001793Y018481D01*
X002159Y012388D02*
X002082Y012311D01*
X002082Y012158D01*
X002159Y012081D01*
X002466Y012081D01*
X002159Y012388D01*
X002466Y012388D01*
X002543Y012311D01*
X002543Y012158D01*
X002466Y012081D01*
X002543Y011928D02*
X002543Y011621D01*
X002236Y011928D01*
X002159Y011928D01*
X002082Y011851D01*
X002082Y011698D01*
X002159Y011621D01*
X002159Y011467D02*
X002313Y011467D01*
X002389Y011391D01*
X002389Y011160D01*
X002543Y011160D02*
X002082Y011160D01*
X002082Y011391D01*
X002159Y011467D01*
X002082Y011007D02*
X002082Y010853D01*
X002082Y010930D02*
X002466Y010930D01*
X002543Y010853D01*
X002543Y010777D01*
X002466Y010700D01*
X002186Y008277D02*
X001879Y008277D01*
X001802Y008200D01*
X001802Y008046D01*
X001879Y007970D01*
X001956Y007970D01*
X002033Y008046D01*
X002033Y008277D01*
X002186Y008277D02*
X002263Y008200D01*
X002263Y008046D01*
X002186Y007970D01*
X002263Y007816D02*
X002263Y007509D01*
X002263Y007663D02*
X001802Y007663D01*
X001956Y007509D01*
X002033Y007356D02*
X002109Y007279D01*
X002109Y007049D01*
X002263Y007049D02*
X001802Y007049D01*
X001802Y007279D01*
X001879Y007356D01*
X002033Y007356D01*
X001802Y006895D02*
X001802Y006742D01*
X001802Y006819D02*
X002186Y006819D01*
X002263Y006742D01*
X002263Y006665D01*
X002186Y006588D01*
X007941Y003077D02*
X008018Y003000D01*
X008095Y003000D01*
X008171Y003077D01*
X008171Y003460D01*
X008095Y003460D02*
X008248Y003460D01*
X008402Y003460D02*
X008632Y003460D01*
X008709Y003384D01*
X008709Y003230D01*
X008632Y003153D01*
X008402Y003153D01*
X008402Y003000D02*
X008402Y003460D01*
X008862Y003307D02*
X009016Y003460D01*
X009016Y003000D01*
X009169Y003000D02*
X008862Y003000D01*
X009322Y003077D02*
X009322Y003153D01*
X009399Y003230D01*
X009553Y003230D01*
X009629Y003153D01*
X009629Y003077D01*
X009553Y003000D01*
X009399Y003000D01*
X009322Y003077D01*
X009399Y003230D02*
X009322Y003307D01*
X009322Y003384D01*
X009399Y003460D01*
X009553Y003460D01*
X009629Y003384D01*
X009629Y003307D01*
X009553Y003230D01*
X012941Y003077D02*
X013018Y003000D01*
X013095Y003000D01*
X013171Y003077D01*
X013171Y003460D01*
X013095Y003460D02*
X013248Y003460D01*
X013402Y003460D02*
X013402Y003000D01*
X013402Y003153D02*
X013632Y003153D01*
X013709Y003230D01*
X013709Y003384D01*
X013632Y003460D01*
X013402Y003460D01*
X013862Y003307D02*
X014016Y003460D01*
X014016Y003000D01*
X014169Y003000D02*
X013862Y003000D01*
X014322Y003077D02*
X014399Y003000D01*
X014553Y003000D01*
X014629Y003077D01*
X014629Y003230D01*
X014553Y003307D01*
X014476Y003307D01*
X014322Y003230D01*
X014322Y003460D01*
X014629Y003460D01*
X018366Y007858D02*
X018443Y007935D01*
X018443Y008012D01*
X018366Y008089D01*
X017982Y008089D01*
X017982Y008165D02*
X017982Y008012D01*
X017982Y008319D02*
X017982Y008549D01*
X018059Y008626D01*
X018213Y008626D01*
X018289Y008549D01*
X018289Y008319D01*
X018443Y008319D02*
X017982Y008319D01*
X018136Y008779D02*
X017982Y008933D01*
X018443Y008933D01*
X018443Y009086D02*
X018443Y008779D01*
X018213Y009240D02*
X017982Y009470D01*
X018443Y009470D01*
X018213Y009547D02*
X018213Y009240D01*
X021082Y009556D02*
X021159Y009479D01*
X021466Y009479D01*
X021543Y009556D01*
X021543Y009709D01*
X021466Y009786D01*
X021466Y009940D02*
X021543Y010016D01*
X021543Y010170D01*
X021466Y010247D01*
X021389Y010247D01*
X021313Y010170D01*
X021313Y009940D01*
X021466Y009940D01*
X021313Y009940D02*
X021159Y010093D01*
X021082Y010247D01*
X021159Y009786D02*
X021082Y009709D01*
X021082Y009556D01*
X022466Y010700D02*
X022543Y010777D01*
X022543Y010853D01*
X022466Y010930D01*
X022082Y010930D01*
X022082Y010853D02*
X022082Y011007D01*
X022082Y011160D02*
X022082Y011391D01*
X022159Y011467D01*
X022313Y011467D01*
X022389Y011391D01*
X022389Y011160D01*
X022543Y011160D02*
X022082Y011160D01*
X022159Y011621D02*
X022082Y011698D01*
X022082Y011851D01*
X022159Y011928D01*
X022236Y011928D01*
X022543Y011621D01*
X022543Y011928D01*
X022466Y012081D02*
X022543Y012158D01*
X022543Y012311D01*
X022466Y012388D01*
X022159Y012388D01*
X022082Y012311D01*
X022082Y012158D01*
X022159Y012081D01*
X022236Y012081D01*
X022313Y012158D01*
X022313Y012388D01*
X022782Y012310D02*
X022782Y012541D01*
X022859Y012617D01*
X023013Y012617D01*
X023089Y012541D01*
X023089Y012310D01*
X023243Y012310D02*
X022782Y012310D01*
X022782Y012157D02*
X022782Y012003D01*
X022782Y012080D02*
X023166Y012080D01*
X023243Y012003D01*
X023243Y011927D01*
X023166Y011850D01*
X023243Y012771D02*
X022936Y013078D01*
X022859Y013078D01*
X022782Y013001D01*
X022782Y012848D01*
X022859Y012771D01*
X023243Y012771D02*
X023243Y013078D01*
X023166Y013231D02*
X023089Y013231D01*
X023013Y013308D01*
X023013Y013461D01*
X023089Y013538D01*
X023166Y013538D01*
X023243Y013461D01*
X023243Y013308D01*
X023166Y013231D01*
X023013Y013308D02*
X022936Y013231D01*
X022859Y013231D01*
X022782Y013308D01*
X022782Y013461D01*
X022859Y013538D01*
X022936Y013538D01*
X023013Y013461D01*
X027832Y013750D02*
X028293Y013750D01*
X028293Y014057D01*
X028293Y014210D02*
X028293Y014517D01*
X028293Y014671D02*
X028293Y014901D01*
X028216Y014978D01*
X027909Y014978D01*
X027832Y014901D01*
X027832Y014671D01*
X028293Y014671D01*
X028063Y014364D02*
X028063Y014210D01*
X028293Y014210D02*
X027832Y014210D01*
X027832Y014517D01*
X027909Y015131D02*
X027832Y015208D01*
X027832Y015361D01*
X027909Y015438D01*
X027986Y015438D01*
X028293Y015131D01*
X028293Y015438D01*
X028443Y015700D02*
X028443Y016160D01*
X028673Y016160D01*
X028750Y016084D01*
X028750Y015930D01*
X028673Y015853D01*
X028443Y015853D01*
X028213Y015777D02*
X028213Y016160D01*
X028136Y016160D02*
X028290Y016160D01*
X028213Y015777D02*
X028136Y015700D01*
X028060Y015700D01*
X027983Y015777D01*
X028904Y015700D02*
X029211Y016007D01*
X029211Y016084D01*
X029134Y016160D01*
X028980Y016160D01*
X028904Y016084D01*
X028904Y015700D02*
X029211Y015700D01*
X029364Y015777D02*
X029441Y015700D01*
X029594Y015700D01*
X029671Y015777D01*
X029671Y015930D01*
X029594Y016007D01*
X029517Y016007D01*
X029364Y015930D01*
X029364Y016160D01*
X029671Y016160D01*
X033683Y015677D02*
X033760Y015600D01*
X033836Y015600D01*
X033913Y015677D01*
X033913Y016060D01*
X033836Y016060D02*
X033990Y016060D01*
X034143Y016060D02*
X034373Y016060D01*
X034450Y015984D01*
X034450Y015830D01*
X034373Y015753D01*
X034143Y015753D01*
X034143Y015600D02*
X034143Y016060D01*
X034604Y015984D02*
X034680Y016060D01*
X034834Y016060D01*
X034911Y015984D01*
X034911Y015907D01*
X034604Y015600D01*
X034911Y015600D01*
X035064Y015600D02*
X035064Y015677D01*
X035371Y015984D01*
X035371Y016060D01*
X035064Y016060D01*
X039632Y016149D02*
X039709Y016226D01*
X039863Y016226D01*
X039939Y016149D01*
X039939Y015919D01*
X040093Y015919D02*
X039632Y015919D01*
X039632Y016149D01*
X039709Y016379D02*
X039632Y016456D01*
X039632Y016609D01*
X039709Y016686D01*
X039786Y016686D01*
X040093Y016379D01*
X040093Y016686D01*
X040016Y016840D02*
X040093Y016916D01*
X040093Y017070D01*
X040016Y017147D01*
X039939Y017147D01*
X039863Y017070D01*
X039863Y016840D01*
X040016Y016840D01*
X039863Y016840D02*
X039709Y016993D01*
X039632Y017147D01*
X039632Y015765D02*
X039632Y015612D01*
X039632Y015689D02*
X040016Y015689D01*
X040093Y015612D01*
X040093Y015535D01*
X040016Y015458D01*
X042732Y015335D02*
X043193Y015335D01*
X043193Y015488D02*
X043193Y015181D01*
X043193Y015028D02*
X043193Y014721D01*
X042886Y015028D01*
X042809Y015028D01*
X042732Y014951D01*
X042732Y014798D01*
X042809Y014721D01*
X042809Y014567D02*
X042732Y014491D01*
X042732Y014260D01*
X043193Y014260D01*
X043039Y014260D02*
X043039Y014491D01*
X042963Y014567D01*
X042809Y014567D01*
X042732Y014107D02*
X042732Y013953D01*
X042732Y014030D02*
X043116Y014030D01*
X043193Y013953D01*
X043193Y013877D01*
X043116Y013800D01*
X042886Y015181D02*
X042732Y015335D01*
X045482Y009770D02*
X045713Y009540D01*
X045713Y009847D01*
X045943Y009770D02*
X045482Y009770D01*
X045482Y009233D02*
X045943Y009233D01*
X045943Y009386D02*
X045943Y009079D01*
X045866Y008926D02*
X045943Y008849D01*
X045943Y008696D01*
X045866Y008619D01*
X045559Y008619D01*
X045482Y008696D01*
X045482Y008849D01*
X045559Y008926D01*
X045636Y009079D02*
X045482Y009233D01*
X042443Y009086D02*
X042443Y008779D01*
X042136Y009086D01*
X042059Y009086D01*
X041982Y009009D01*
X041982Y008856D01*
X042059Y008779D01*
X042059Y008626D02*
X042213Y008626D01*
X042289Y008549D01*
X042289Y008319D01*
X042443Y008319D02*
X041982Y008319D01*
X041982Y008549D01*
X042059Y008626D01*
X041982Y008165D02*
X041982Y008012D01*
X041982Y008089D02*
X042366Y008089D01*
X042443Y008012D01*
X042443Y007935D01*
X042366Y007858D01*
X042213Y009240D02*
X042213Y009547D01*
X042443Y009470D02*
X041982Y009470D01*
X042213Y009240D01*
X039553Y002410D02*
X039399Y002410D01*
X039322Y002334D01*
X039322Y002027D01*
X039629Y002334D01*
X039629Y002027D01*
X039553Y001950D01*
X039399Y001950D01*
X039322Y002027D01*
X039169Y002027D02*
X039092Y001950D01*
X038939Y001950D01*
X038862Y002027D01*
X038709Y002180D02*
X038632Y002103D01*
X038402Y002103D01*
X038402Y001950D02*
X038402Y002410D01*
X038632Y002410D01*
X038709Y002334D01*
X038709Y002180D01*
X038862Y002334D02*
X038939Y002410D01*
X039092Y002410D01*
X039169Y002334D01*
X039169Y002257D01*
X039092Y002180D01*
X039169Y002103D01*
X039169Y002027D01*
X039092Y002180D02*
X039016Y002180D01*
X039553Y002410D02*
X039629Y002334D01*
X038248Y002410D02*
X038095Y002410D01*
X038171Y002410D02*
X038171Y002027D01*
X038095Y001950D01*
X038018Y001950D01*
X037941Y002027D01*
X032629Y002000D02*
X032322Y002000D01*
X032629Y002307D01*
X032629Y002384D01*
X032553Y002460D01*
X032399Y002460D01*
X032322Y002384D01*
X032169Y002384D02*
X032092Y002460D01*
X031939Y002460D01*
X031862Y002384D01*
X031709Y002384D02*
X031709Y002230D01*
X031632Y002153D01*
X031402Y002153D01*
X031402Y002000D02*
X031402Y002460D01*
X031632Y002460D01*
X031709Y002384D01*
X031862Y002000D02*
X032169Y002307D01*
X032169Y002384D01*
X032169Y002000D02*
X031862Y002000D01*
X031171Y002077D02*
X031171Y002460D01*
X031095Y002460D02*
X031248Y002460D01*
X031171Y002077D02*
X031095Y002000D01*
X031018Y002000D01*
X030941Y002077D01*
X023543Y003777D02*
X023543Y003853D01*
X023466Y003930D01*
X023082Y003930D01*
X023082Y003853D02*
X023082Y004007D01*
X023082Y004160D02*
X023082Y004391D01*
X023159Y004467D01*
X023313Y004467D01*
X023389Y004391D01*
X023389Y004160D01*
X023543Y004160D02*
X023082Y004160D01*
X023466Y003700D02*
X023543Y003777D01*
X023543Y004621D02*
X023236Y004928D01*
X023159Y004928D01*
X023082Y004851D01*
X023082Y004698D01*
X023159Y004621D01*
X023543Y004621D02*
X023543Y004928D01*
X023466Y005081D02*
X023543Y005158D01*
X023543Y005311D01*
X023466Y005388D01*
X023389Y005388D01*
X023313Y005311D01*
X023313Y005235D01*
X023313Y005311D02*
X023236Y005388D01*
X023159Y005388D01*
X023082Y005311D01*
X023082Y005158D01*
X023159Y005081D01*
X011394Y017900D02*
X011471Y017977D01*
X011471Y018053D01*
X011394Y018130D01*
X011164Y018130D01*
X011164Y017977D01*
X011241Y017900D01*
X011394Y017900D01*
X011164Y018130D02*
X011317Y018284D01*
X011471Y018360D01*
X010857Y018360D02*
X010704Y018207D01*
X010550Y018284D02*
X010473Y018360D01*
X010243Y018360D01*
X010243Y017900D01*
X010243Y018053D02*
X010473Y018053D01*
X010550Y018130D01*
X010550Y018284D01*
X010857Y018360D02*
X010857Y017900D01*
X010704Y017900D02*
X011011Y017900D01*
X010013Y017977D02*
X010013Y018360D01*
X009936Y018360D02*
X010090Y018360D01*
X010013Y017977D02*
X009936Y017900D01*
X009860Y017900D01*
X009783Y017977D01*
X015482Y021627D02*
X015559Y021550D01*
X015866Y021550D01*
X015943Y021627D01*
X015943Y021780D01*
X015866Y021857D01*
X015713Y022010D02*
X015713Y022317D01*
X015866Y022471D02*
X015559Y022778D01*
X015866Y022778D01*
X015943Y022701D01*
X015943Y022548D01*
X015866Y022471D01*
X015559Y022471D01*
X015482Y022548D01*
X015482Y022701D01*
X015559Y022778D01*
X015482Y022241D02*
X015713Y022010D01*
X015559Y021857D02*
X015482Y021780D01*
X015482Y021627D01*
X015482Y022241D02*
X015943Y022241D01*
X016271Y022310D02*
X016654Y022310D01*
X016731Y022387D01*
X016731Y022540D01*
X016654Y022617D01*
X016271Y022617D01*
X016347Y022771D02*
X016271Y022847D01*
X016271Y023001D01*
X016347Y023078D01*
X016424Y023078D01*
X016731Y022771D01*
X016731Y023078D01*
X027614Y024793D02*
X027998Y024793D01*
X028074Y024870D01*
X028074Y025023D01*
X027998Y025100D01*
X027614Y025100D01*
X027614Y025253D02*
X027844Y025253D01*
X027767Y025407D01*
X027767Y025484D01*
X027844Y025560D01*
X027998Y025560D01*
X028074Y025484D01*
X028074Y025330D01*
X027998Y025253D01*
X027614Y025253D02*
X027614Y025560D01*
D14*
X014286Y028250D02*
X014039Y028250D01*
X014163Y028127D02*
X014163Y028374D01*
X012201Y021704D02*
X012201Y021457D01*
X012078Y021580D02*
X012325Y021580D01*
X008456Y021480D02*
X008210Y021480D01*
X008333Y021357D02*
X008333Y021604D01*
X002075Y016780D02*
X001828Y016780D01*
X001951Y016657D02*
X001951Y016904D01*
X026878Y013680D02*
X027125Y013680D01*
X027001Y013557D02*
X027001Y013804D01*
D15*
X027127Y014539D03*
X027599Y014539D03*
X012799Y022439D03*
X012327Y022439D03*
X008299Y020621D03*
X007827Y020621D03*
X002549Y017639D03*
X002077Y017639D03*
D16*
X002313Y017639D03*
X008063Y020621D03*
X012563Y022439D03*
X015022Y027980D03*
X027363Y014539D03*
D17*
X027873Y016630D02*
X027763Y016740D01*
X027763Y017130D01*
X027763Y017520D01*
X027873Y017630D01*
X027863Y017130D02*
X027763Y017130D01*
X028663Y017130D02*
X028863Y017130D01*
X029663Y017130D02*
X029863Y017130D01*
X030663Y017130D02*
X030863Y017130D01*
X031663Y017130D02*
X031863Y017130D01*
X032663Y017130D02*
X032863Y017130D01*
X033663Y017130D02*
X033763Y017130D01*
X033763Y016740D01*
X033873Y016630D01*
X033763Y016740D02*
X033653Y016630D01*
X033763Y016740D02*
X033763Y017130D01*
X033763Y017520D01*
X033873Y017630D01*
X033763Y017520D02*
X033653Y017630D01*
X033763Y017520D02*
X033763Y017130D01*
X033863Y017130D01*
X034663Y017130D02*
X034863Y017130D01*
X035663Y017130D02*
X035863Y017130D01*
X036663Y017130D02*
X036863Y017130D01*
X037663Y017130D02*
X037763Y017130D01*
X037763Y017520D01*
X037653Y017630D01*
X037763Y017130D02*
X037763Y016740D01*
X037653Y016630D01*
X040763Y017570D02*
X040873Y017680D01*
X041263Y017680D01*
X041653Y017680D01*
X041763Y017570D01*
X041263Y017580D02*
X041263Y017680D01*
X041263Y016780D02*
X041263Y016580D01*
X041263Y015780D02*
X041263Y015580D01*
X041263Y014780D02*
X041263Y014580D01*
X041263Y013780D02*
X041263Y013580D01*
X041263Y012780D02*
X041263Y012580D01*
X041263Y011780D02*
X041263Y011580D01*
X041263Y010780D02*
X041263Y010580D01*
X041263Y009780D02*
X041263Y009680D01*
X041653Y009680D01*
X041763Y009790D01*
X041603Y009680D02*
X041713Y009570D01*
X041603Y009680D02*
X041213Y009680D01*
X040823Y009680D01*
X040713Y009570D01*
X040873Y009680D02*
X040763Y009790D01*
X040873Y009680D02*
X041263Y009680D01*
X041213Y009680D02*
X041213Y009580D01*
X041213Y008780D02*
X041213Y008580D01*
X041213Y007780D02*
X041213Y007580D01*
X041213Y006780D02*
X041213Y006580D01*
X041213Y005780D02*
X041213Y005580D01*
X041213Y004780D02*
X041213Y004580D01*
X041213Y003780D02*
X041213Y003680D01*
X041603Y003680D01*
X041713Y003790D01*
X041213Y003680D02*
X040823Y003680D01*
X040713Y003790D01*
X039763Y003570D02*
X039763Y003180D01*
X039763Y002790D01*
X039653Y002680D01*
X039663Y003180D02*
X039763Y003180D01*
X039763Y003570D02*
X039653Y003680D01*
X038863Y003180D02*
X038663Y003180D01*
X037863Y003180D02*
X037663Y003180D01*
X036863Y003180D02*
X036663Y003180D01*
X035863Y003180D02*
X035663Y003180D01*
X034863Y003180D02*
X034663Y003180D01*
X033863Y003180D02*
X033663Y003180D01*
X032863Y003180D02*
X032763Y003180D01*
X032763Y002790D01*
X032873Y002680D01*
X032763Y002840D02*
X032653Y002730D01*
X032763Y002840D02*
X032763Y003230D01*
X032763Y003620D01*
X032653Y003730D01*
X032763Y003570D02*
X032873Y003680D01*
X032763Y003570D02*
X032763Y003180D01*
X032763Y003230D02*
X032663Y003230D01*
X031863Y003230D02*
X031663Y003230D01*
X030863Y003230D02*
X030663Y003230D01*
X029863Y003230D02*
X029663Y003230D01*
X028863Y003230D02*
X028663Y003230D01*
X027863Y003230D02*
X027663Y003230D01*
X026863Y003230D02*
X026763Y003230D01*
X026763Y002840D01*
X026873Y002730D01*
X026763Y003230D02*
X026763Y003620D01*
X026873Y003730D01*
X024813Y003790D02*
X024703Y003680D01*
X024313Y003680D01*
X023923Y003680D01*
X023813Y003790D01*
X024313Y003780D02*
X024313Y003680D01*
X024313Y004580D02*
X024313Y004780D01*
X024313Y005580D02*
X024313Y005780D01*
X024313Y006580D02*
X024313Y006780D01*
X024313Y007580D02*
X024313Y007780D01*
X024313Y008580D02*
X024313Y008780D01*
X024313Y009580D02*
X024313Y009680D01*
X023923Y009680D01*
X023813Y009570D01*
X023873Y009680D02*
X023763Y009790D01*
X023873Y009680D02*
X024263Y009680D01*
X024653Y009680D01*
X024763Y009790D01*
X024703Y009680D02*
X024813Y009570D01*
X024703Y009680D02*
X024313Y009680D01*
X024263Y009680D02*
X024263Y009780D01*
X024263Y010530D02*
X024263Y010830D01*
X024263Y011580D02*
X024263Y011680D01*
X023873Y011680D01*
X023763Y011570D01*
X023923Y011680D02*
X023813Y011790D01*
X023923Y011680D02*
X024313Y011680D01*
X024703Y011680D01*
X024813Y011790D01*
X024653Y011680D02*
X024763Y011570D01*
X024653Y011680D02*
X024263Y011680D01*
X024313Y011680D02*
X024313Y011780D01*
X024313Y012580D02*
X024313Y012780D01*
X024313Y013580D02*
X024313Y013780D01*
X024313Y014580D02*
X024313Y014780D01*
X024313Y015580D02*
X024313Y015780D01*
X024313Y016580D02*
X024313Y016680D01*
X023923Y016680D01*
X023813Y016570D01*
X024313Y016680D02*
X024703Y016680D01*
X024813Y016570D01*
X019813Y015570D02*
X019703Y015680D01*
X019313Y015680D01*
X018923Y015680D01*
X018813Y015570D01*
X019313Y015580D02*
X019313Y015680D01*
X019313Y014780D02*
X019313Y014580D01*
X019313Y013780D02*
X019313Y013580D01*
X019313Y012780D02*
X019313Y012580D01*
X019313Y011780D02*
X019313Y011580D01*
X019313Y010780D02*
X019313Y010680D01*
X019703Y010680D01*
X019813Y010790D01*
X019313Y010680D02*
X018923Y010680D01*
X018813Y010790D01*
X017603Y009680D02*
X017713Y009570D01*
X017603Y009680D02*
X017213Y009680D01*
X016823Y009680D01*
X016713Y009570D01*
X017213Y009580D02*
X017213Y009680D01*
X017213Y008780D02*
X017213Y008580D01*
X017213Y007780D02*
X017213Y007580D01*
X017213Y006780D02*
X017213Y006580D01*
X017213Y005780D02*
X017213Y005580D01*
X017213Y004780D02*
X017213Y004680D01*
X017603Y004680D01*
X017713Y004790D01*
X017213Y004680D02*
X016823Y004680D01*
X016713Y004790D01*
X014763Y004620D02*
X014763Y004230D01*
X014763Y003840D01*
X014653Y003730D01*
X014663Y004230D02*
X014763Y004230D01*
X014763Y004620D02*
X014653Y004730D01*
X013863Y004230D02*
X013663Y004230D01*
X012863Y004230D02*
X012663Y004230D01*
X011863Y004230D02*
X011663Y004230D01*
X010863Y004230D02*
X010763Y004230D01*
X010763Y003840D01*
X010873Y003730D01*
X010763Y004230D02*
X010763Y004620D01*
X010873Y004730D01*
X009763Y004620D02*
X009763Y004230D01*
X009763Y003840D01*
X009653Y003730D01*
X009663Y004230D02*
X009763Y004230D01*
X009763Y004620D02*
X009653Y004730D01*
X008863Y004230D02*
X008663Y004230D01*
X007863Y004230D02*
X007663Y004230D01*
X006863Y004230D02*
X006663Y004230D01*
X005863Y004230D02*
X005663Y004230D01*
X004863Y004230D02*
X004663Y004230D01*
X003863Y004230D02*
X003763Y004230D01*
X003763Y003840D01*
X003873Y003730D01*
X003763Y004230D02*
X003763Y004620D01*
X003873Y004730D01*
X003313Y007230D02*
X002813Y007230D01*
X002563Y007480D01*
X002563Y007980D01*
X002813Y008230D01*
X003313Y008230D01*
X003563Y007980D01*
X003563Y007480D01*
X003313Y007230D01*
X004527Y008850D02*
X004999Y008850D01*
X005747Y009362D02*
X005747Y009598D01*
X004999Y010110D02*
X004527Y010110D01*
X003779Y009598D02*
X003779Y009362D01*
X003703Y010680D02*
X003813Y010790D01*
X003703Y010680D02*
X003313Y010680D01*
X002923Y010680D01*
X002813Y010790D01*
X003313Y010780D02*
X003313Y010680D01*
X003313Y011580D02*
X003313Y011780D01*
X003313Y012580D02*
X003313Y012780D01*
X003313Y013580D02*
X003313Y013780D01*
X003313Y014580D02*
X003313Y014780D01*
X003313Y015580D02*
X003313Y015680D01*
X002923Y015680D01*
X002813Y015570D01*
X003313Y015680D02*
X003703Y015680D01*
X003813Y015570D01*
X004873Y016630D02*
X004763Y016740D01*
X004763Y017130D01*
X004763Y017520D01*
X004873Y017630D01*
X004863Y017130D02*
X004763Y017130D01*
X005663Y017130D02*
X005863Y017130D01*
X006663Y017130D02*
X006863Y017130D01*
X007663Y017130D02*
X007863Y017130D01*
X008663Y017130D02*
X008763Y017130D01*
X008763Y017520D01*
X008653Y017630D01*
X008763Y017130D02*
X008763Y016740D01*
X008653Y016630D01*
X009763Y016740D02*
X009763Y017130D01*
X009763Y017520D01*
X009873Y017630D01*
X009863Y017130D02*
X009763Y017130D01*
X009763Y016740D02*
X009873Y016630D01*
X010663Y017130D02*
X010863Y017130D01*
X011663Y017130D02*
X011863Y017130D01*
X012663Y017130D02*
X012863Y017130D01*
X013663Y017130D02*
X013863Y017130D01*
X014663Y017130D02*
X014863Y017130D01*
X015663Y017130D02*
X015763Y017130D01*
X015763Y017520D01*
X015653Y017630D01*
X015763Y017130D02*
X015763Y016740D01*
X015653Y016630D01*
X015469Y013352D02*
X015036Y013352D01*
X014879Y013195D01*
X014879Y012565D01*
X015036Y012408D01*
X015469Y012408D01*
X016257Y012408D02*
X016847Y012408D01*
X016847Y013352D01*
X016257Y013352D01*
X012153Y012912D02*
X012153Y009448D01*
X011995Y009290D01*
X008531Y009290D01*
X008373Y009448D01*
X008373Y012912D01*
X008531Y013070D01*
X011995Y013070D01*
X012153Y012912D01*
X019013Y007030D02*
X019013Y005330D01*
X019813Y004980D02*
X020606Y004980D01*
X021413Y005330D02*
X021413Y007030D01*
X020618Y007380D02*
X019813Y007380D01*
X019513Y006180D02*
X019515Y006232D01*
X019521Y006284D01*
X019531Y006336D01*
X019544Y006386D01*
X019561Y006436D01*
X019582Y006484D01*
X019607Y006530D01*
X019635Y006574D01*
X019666Y006616D01*
X019700Y006656D01*
X019737Y006693D01*
X019777Y006727D01*
X019819Y006758D01*
X019863Y006786D01*
X019909Y006811D01*
X019957Y006832D01*
X020007Y006849D01*
X020057Y006862D01*
X020109Y006872D01*
X020161Y006878D01*
X020213Y006880D01*
X020265Y006878D01*
X020317Y006872D01*
X020369Y006862D01*
X020419Y006849D01*
X020469Y006832D01*
X020517Y006811D01*
X020563Y006786D01*
X020607Y006758D01*
X020649Y006727D01*
X020689Y006693D01*
X020726Y006656D01*
X020760Y006616D01*
X020791Y006574D01*
X020819Y006530D01*
X020844Y006484D01*
X020865Y006436D01*
X020882Y006386D01*
X020895Y006336D01*
X020905Y006284D01*
X020911Y006232D01*
X020913Y006180D01*
X020911Y006128D01*
X020905Y006076D01*
X020895Y006024D01*
X020882Y005974D01*
X020865Y005924D01*
X020844Y005876D01*
X020819Y005830D01*
X020791Y005786D01*
X020760Y005744D01*
X020726Y005704D01*
X020689Y005667D01*
X020649Y005633D01*
X020607Y005602D01*
X020563Y005574D01*
X020517Y005549D01*
X020469Y005528D01*
X020419Y005511D01*
X020369Y005498D01*
X020317Y005488D01*
X020265Y005482D01*
X020213Y005480D01*
X020161Y005482D01*
X020109Y005488D01*
X020057Y005498D01*
X020007Y005511D01*
X019957Y005528D01*
X019909Y005549D01*
X019863Y005574D01*
X019819Y005602D01*
X019777Y005633D01*
X019737Y005667D01*
X019700Y005704D01*
X019666Y005744D01*
X019635Y005786D01*
X019607Y005830D01*
X019582Y005876D01*
X019561Y005924D01*
X019544Y005974D01*
X019531Y006024D01*
X019521Y006076D01*
X019515Y006128D01*
X019513Y006180D01*
X025829Y010212D02*
X025829Y010448D01*
X026577Y010960D02*
X027049Y010960D01*
X027797Y010448D02*
X027797Y010212D01*
X027049Y009700D02*
X026577Y009700D01*
X031255Y008566D02*
X031255Y008172D01*
X031649Y008172D01*
X032848Y006964D02*
X032690Y006807D01*
X032690Y006374D01*
X032848Y006964D02*
X033478Y006964D01*
X033635Y006807D01*
X033635Y006374D01*
X033635Y005586D02*
X033635Y004996D01*
X032690Y004996D01*
X032690Y005586D01*
X034877Y008172D02*
X035271Y008566D01*
X035271Y011794D02*
X035271Y012188D01*
X034877Y012188D01*
X031649Y012188D02*
X031255Y012188D01*
X031255Y011794D01*
X042963Y007480D02*
X042963Y005780D01*
X043763Y005430D02*
X044556Y005430D01*
X045363Y005780D02*
X045363Y007480D01*
X044568Y007830D02*
X043763Y007830D01*
X043463Y006630D02*
X043465Y006682D01*
X043471Y006734D01*
X043481Y006786D01*
X043494Y006836D01*
X043511Y006886D01*
X043532Y006934D01*
X043557Y006980D01*
X043585Y007024D01*
X043616Y007066D01*
X043650Y007106D01*
X043687Y007143D01*
X043727Y007177D01*
X043769Y007208D01*
X043813Y007236D01*
X043859Y007261D01*
X043907Y007282D01*
X043957Y007299D01*
X044007Y007312D01*
X044059Y007322D01*
X044111Y007328D01*
X044163Y007330D01*
X044215Y007328D01*
X044267Y007322D01*
X044319Y007312D01*
X044369Y007299D01*
X044419Y007282D01*
X044467Y007261D01*
X044513Y007236D01*
X044557Y007208D01*
X044599Y007177D01*
X044639Y007143D01*
X044676Y007106D01*
X044710Y007066D01*
X044741Y007024D01*
X044769Y006980D01*
X044794Y006934D01*
X044815Y006886D01*
X044832Y006836D01*
X044845Y006786D01*
X044855Y006734D01*
X044861Y006682D01*
X044863Y006630D01*
X044861Y006578D01*
X044855Y006526D01*
X044845Y006474D01*
X044832Y006424D01*
X044815Y006374D01*
X044794Y006326D01*
X044769Y006280D01*
X044741Y006236D01*
X044710Y006194D01*
X044676Y006154D01*
X044639Y006117D01*
X044599Y006083D01*
X044557Y006052D01*
X044513Y006024D01*
X044467Y005999D01*
X044419Y005978D01*
X044369Y005961D01*
X044319Y005948D01*
X044267Y005938D01*
X044215Y005932D01*
X044163Y005930D01*
X044111Y005932D01*
X044059Y005938D01*
X044007Y005948D01*
X043957Y005961D01*
X043907Y005978D01*
X043859Y005999D01*
X043813Y006024D01*
X043769Y006052D01*
X043727Y006083D01*
X043687Y006117D01*
X043650Y006154D01*
X043616Y006194D01*
X043585Y006236D01*
X043557Y006280D01*
X043532Y006326D01*
X043511Y006374D01*
X043494Y006424D01*
X043481Y006474D01*
X043471Y006526D01*
X043465Y006578D01*
X043463Y006630D01*
X043723Y010680D02*
X043613Y010790D01*
X043723Y010680D02*
X044113Y010680D01*
X044503Y010680D01*
X044613Y010790D01*
X044113Y010780D02*
X044113Y010680D01*
X044113Y011580D02*
X044113Y011780D01*
X044113Y012580D02*
X044113Y012780D01*
X044113Y013580D02*
X044113Y013780D01*
X044113Y014580D02*
X044113Y014780D01*
X044113Y015580D02*
X044113Y015680D01*
X043723Y015680D01*
X043613Y015570D01*
X044113Y015680D02*
X044503Y015680D01*
X044613Y015570D01*
X015713Y028790D02*
X015603Y028680D01*
X015213Y028680D01*
X014823Y028680D01*
X014713Y028790D01*
X015213Y028780D02*
X015213Y028680D01*
X015213Y029580D02*
X015213Y029780D01*
X015213Y030580D02*
X015213Y030780D01*
X015213Y031580D02*
X015213Y031780D01*
X015213Y032580D02*
X015213Y032680D01*
X014823Y032680D01*
X014713Y032570D01*
X015013Y032680D02*
X014763Y032930D01*
X014763Y033430D01*
X015013Y033680D01*
X015513Y033680D01*
X015763Y033430D01*
X015763Y032930D01*
X015513Y032680D01*
X015013Y032680D01*
X015213Y032680D02*
X015603Y032680D01*
X015713Y032570D01*
X015513Y033680D02*
X015013Y033680D01*
X014763Y033930D01*
X014763Y034430D01*
X015013Y034680D01*
X015513Y034680D01*
X015763Y034430D01*
X015763Y033930D01*
X015513Y033680D01*
X015653Y036630D02*
X015763Y036740D01*
X015763Y037130D01*
X015763Y037520D01*
X015653Y037630D01*
X015663Y037130D02*
X015763Y037130D01*
X014863Y037130D02*
X014663Y037130D01*
X013863Y037130D02*
X013663Y037130D01*
X012863Y037130D02*
X012663Y037130D01*
X011863Y037130D02*
X011763Y037130D01*
X011763Y036740D01*
X011873Y036630D01*
X011763Y036740D02*
X011653Y036630D01*
X011763Y036740D02*
X011763Y037130D01*
X011763Y037520D01*
X011873Y037630D01*
X011763Y037520D02*
X011653Y037630D01*
X011763Y037520D02*
X011763Y037130D01*
X011663Y037130D01*
X010863Y037130D02*
X010663Y037130D01*
X009863Y037130D02*
X009663Y037130D01*
X008863Y037130D02*
X008663Y037130D01*
X007863Y037130D02*
X007763Y037130D01*
X007763Y036740D01*
X007873Y036630D01*
X007763Y036740D02*
X007653Y036630D01*
X007763Y036740D02*
X007763Y037130D01*
X007763Y037520D01*
X007873Y037630D01*
X007763Y037520D02*
X007653Y037630D01*
X007763Y037520D02*
X007763Y037130D01*
X007663Y037130D01*
X006863Y037130D02*
X006663Y037130D01*
X005863Y037130D02*
X005663Y037130D01*
X004863Y037130D02*
X004663Y037130D01*
X003863Y037130D02*
X003763Y037130D01*
X003763Y036740D01*
X003873Y036630D01*
X003763Y037130D02*
X003763Y037520D01*
X003873Y037630D01*
X002713Y036370D02*
X002603Y036480D01*
X002213Y036480D01*
X001823Y036480D01*
X001713Y036370D01*
X002213Y036380D02*
X002213Y036480D01*
X002213Y035580D02*
X002213Y035380D01*
X002213Y034580D02*
X002213Y034380D01*
X002213Y033580D02*
X002213Y033380D01*
X002213Y032580D02*
X002213Y032480D01*
X002603Y032480D01*
X002713Y032590D01*
X002603Y032180D02*
X002713Y032070D01*
X002603Y032180D02*
X002213Y032180D01*
X001823Y032180D01*
X001713Y032070D01*
X001823Y032480D02*
X001713Y032590D01*
X001823Y032480D02*
X002213Y032480D01*
X002213Y032180D02*
X002213Y032080D01*
X002213Y031280D02*
X002213Y031080D01*
X002213Y030280D02*
X002213Y030080D01*
X002213Y029280D02*
X002213Y029080D01*
X002213Y028280D02*
X002213Y028180D01*
X002603Y028180D01*
X002713Y028290D01*
X002213Y028180D02*
X001823Y028180D01*
X001713Y028290D01*
X003363Y027920D02*
X003473Y028030D01*
X003363Y027920D02*
X003363Y027530D01*
X003363Y027140D01*
X003473Y027030D01*
X003463Y027530D02*
X003363Y027530D01*
X004263Y027530D02*
X004463Y027530D01*
X005263Y027530D02*
X005463Y027530D01*
X006263Y027530D02*
X006463Y027530D01*
X007263Y027530D02*
X007363Y027530D01*
X007363Y027920D01*
X007253Y028030D01*
X007563Y027630D02*
X007563Y027130D01*
X007813Y026880D01*
X008313Y026880D01*
X008563Y027130D01*
X008563Y027630D01*
X008313Y027880D01*
X007813Y027880D01*
X007563Y027630D01*
X007363Y027530D02*
X007363Y027140D01*
X007253Y027030D01*
X008663Y025720D02*
X008773Y025830D01*
X008663Y025720D02*
X008663Y025330D01*
X008663Y024940D01*
X008773Y024830D01*
X008763Y025330D02*
X008663Y025330D01*
X009563Y025330D02*
X009763Y025330D01*
X010563Y025330D02*
X010763Y025330D01*
X011563Y025330D02*
X011763Y025330D01*
X012563Y025330D02*
X012763Y025330D01*
X013563Y025330D02*
X013663Y025330D01*
X013663Y025720D01*
X013553Y025830D01*
X013663Y025330D02*
X013663Y024940D01*
X013553Y024830D01*
X011753Y022648D02*
X011753Y020209D01*
X009173Y020209D02*
X009173Y022648D01*
X011753Y022648D01*
X013990Y021864D02*
X013990Y021274D01*
X013990Y021864D02*
X014935Y021864D01*
X014935Y021274D01*
X014935Y020486D02*
X014935Y020053D01*
X014778Y019896D01*
X014148Y019896D01*
X013990Y020053D01*
X013990Y020486D01*
X006647Y019911D02*
X006647Y021093D01*
X006647Y019911D02*
X004679Y019911D01*
X004679Y021093D01*
X003762Y020960D02*
X003762Y021314D01*
X002778Y020684D02*
X001951Y020684D01*
X004679Y022667D02*
X004679Y023455D01*
X005072Y023849D01*
X006253Y023849D01*
X006647Y023455D01*
X006647Y022667D01*
X003762Y023046D02*
X003762Y023400D01*
X002778Y023676D02*
X001951Y023676D01*
X009863Y027240D02*
X009973Y027130D01*
X009863Y027240D02*
X009863Y027630D01*
X009863Y028020D01*
X009973Y028130D01*
X009963Y027630D02*
X009863Y027630D01*
X010763Y027630D02*
X010963Y027630D01*
X011763Y027630D02*
X011963Y027630D01*
X012763Y027630D02*
X012963Y027630D01*
X013763Y027630D02*
X013863Y027630D01*
X013863Y028020D01*
X013753Y028130D01*
X013863Y027630D02*
X013863Y027240D01*
X013753Y027130D01*
X010495Y030290D02*
X007031Y030290D01*
X006873Y030448D01*
X006873Y033912D01*
X007031Y034070D01*
X010495Y034070D01*
X010653Y033912D01*
X010653Y030448D01*
X010495Y030290D01*
D18*
X007077Y033755D02*
X007079Y033775D01*
X007084Y033795D01*
X007094Y033813D01*
X007106Y033830D01*
X007121Y033844D01*
X007139Y033854D01*
X007158Y033862D01*
X007178Y033866D01*
X007198Y033866D01*
X007218Y033862D01*
X007237Y033854D01*
X007255Y033844D01*
X007270Y033830D01*
X007282Y033813D01*
X007292Y033795D01*
X007297Y033775D01*
X007299Y033755D01*
X007297Y033735D01*
X007292Y033715D01*
X007282Y033697D01*
X007270Y033680D01*
X007255Y033666D01*
X007237Y033656D01*
X007218Y033648D01*
X007198Y033644D01*
X007178Y033644D01*
X007158Y033648D01*
X007139Y033656D01*
X007121Y033666D01*
X007106Y033680D01*
X007094Y033697D01*
X007084Y033715D01*
X007079Y033735D01*
X007077Y033755D01*
X011727Y009605D02*
X011729Y009625D01*
X011734Y009645D01*
X011744Y009663D01*
X011756Y009680D01*
X011771Y009694D01*
X011789Y009704D01*
X011808Y009712D01*
X011828Y009716D01*
X011848Y009716D01*
X011868Y009712D01*
X011887Y009704D01*
X011905Y009694D01*
X011920Y009680D01*
X011932Y009663D01*
X011942Y009645D01*
X011947Y009625D01*
X011949Y009605D01*
X011947Y009585D01*
X011942Y009565D01*
X011932Y009547D01*
X011920Y009530D01*
X011905Y009516D01*
X011887Y009506D01*
X011868Y009498D01*
X011848Y009494D01*
X011828Y009494D01*
X011808Y009498D01*
X011789Y009506D01*
X011771Y009516D01*
X011756Y009530D01*
X011744Y009547D01*
X011734Y009565D01*
X011729Y009585D01*
X011727Y009605D01*
D19*
X011721Y009925D02*
X011821Y010025D01*
X011821Y010050D01*
X011796Y010075D01*
X011746Y010075D01*
X011721Y010050D01*
X011623Y010075D02*
X011623Y009925D01*
X011573Y009925D02*
X011673Y009925D01*
X011721Y009925D02*
X011821Y009925D01*
X011623Y010075D02*
X011573Y010025D01*
X011526Y010075D02*
X011526Y009950D01*
X011501Y009925D01*
X011451Y009925D01*
X011426Y009950D01*
X011426Y010075D01*
X010918Y007738D02*
X010818Y007738D01*
X010793Y007713D01*
X010793Y007663D01*
X010818Y007638D01*
X010843Y007638D01*
X010868Y007663D01*
X010868Y007738D01*
X010918Y007738D02*
X010943Y007713D01*
X010943Y007663D01*
X010918Y007638D01*
X010943Y007590D02*
X010943Y007490D01*
X010943Y007540D02*
X010793Y007540D01*
X010843Y007490D01*
X010818Y007443D02*
X010793Y007418D01*
X010793Y007368D01*
X010818Y007343D01*
X010918Y007343D01*
X010943Y007368D01*
X010943Y007418D01*
X010918Y007443D01*
X006843Y009368D02*
X006843Y009418D01*
X006818Y009443D01*
X006843Y009490D02*
X006743Y009590D01*
X006718Y009590D01*
X006693Y009565D01*
X006693Y009515D01*
X006718Y009490D01*
X006718Y009443D02*
X006693Y009418D01*
X006693Y009368D01*
X006718Y009343D01*
X006818Y009343D01*
X006843Y009368D01*
X006843Y009490D02*
X006843Y009590D01*
X006768Y009638D02*
X006768Y009738D01*
X006843Y009713D02*
X006693Y009713D01*
X006768Y009638D01*
X006696Y010550D02*
X006646Y010550D01*
X006621Y010575D01*
X006621Y010600D01*
X006646Y010625D01*
X006696Y010625D01*
X006721Y010600D01*
X006721Y010575D01*
X006696Y010550D01*
X006696Y010625D02*
X006721Y010650D01*
X006721Y010675D01*
X006696Y010700D01*
X006646Y010700D01*
X006621Y010675D01*
X006621Y010650D01*
X006646Y010625D01*
X006573Y010550D02*
X006473Y010550D01*
X006523Y010550D02*
X006523Y010700D01*
X006473Y010650D01*
X006426Y010675D02*
X006401Y010700D01*
X006351Y010700D01*
X006326Y010675D01*
X006326Y010575D01*
X006351Y010550D01*
X006401Y010550D01*
X006426Y010575D01*
X004015Y010235D02*
X003915Y010235D01*
X003965Y010235D02*
X003965Y010385D01*
X003915Y010335D01*
X003868Y010360D02*
X003868Y010385D01*
X003868Y010360D02*
X003818Y010310D01*
X003818Y010235D01*
X003818Y010310D02*
X003768Y010360D01*
X003768Y010385D01*
X002733Y009407D02*
X002733Y009357D01*
X002708Y009332D01*
X002683Y009332D01*
X002658Y009357D01*
X002658Y009407D01*
X002683Y009432D01*
X002708Y009432D01*
X002733Y009407D01*
X002658Y009407D02*
X002633Y009432D01*
X002608Y009432D01*
X002583Y009407D01*
X002583Y009357D01*
X002608Y009332D01*
X002633Y009332D01*
X002658Y009357D01*
X002708Y009285D02*
X002733Y009260D01*
X002733Y009210D01*
X002708Y009185D01*
X002608Y009185D01*
X002583Y009210D01*
X002583Y009260D01*
X002608Y009285D01*
X003218Y017510D02*
X003218Y017660D01*
X003293Y017660D01*
X003318Y017635D01*
X003318Y017585D01*
X003293Y017560D01*
X003218Y017560D01*
X003268Y017560D02*
X003318Y017510D01*
X003365Y017535D02*
X003390Y017510D01*
X003440Y017510D01*
X003465Y017535D01*
X003465Y017560D01*
X003440Y017585D01*
X003415Y017585D01*
X003440Y017585D02*
X003465Y017610D01*
X003465Y017635D01*
X003440Y017660D01*
X003390Y017660D01*
X003365Y017635D01*
X003512Y017635D02*
X003512Y017610D01*
X003538Y017585D01*
X003613Y017585D01*
X003613Y017535D02*
X003613Y017635D01*
X003588Y017660D01*
X003538Y017660D01*
X003512Y017635D01*
X003512Y017535D02*
X003538Y017510D01*
X003588Y017510D01*
X003613Y017535D01*
X006033Y021385D02*
X006133Y021385D01*
X006158Y021410D01*
X006158Y021460D01*
X006133Y021485D01*
X006133Y021532D02*
X006158Y021532D01*
X006133Y021532D02*
X006033Y021632D01*
X006008Y021632D01*
X006008Y021532D01*
X006033Y021485D02*
X006008Y021460D01*
X006008Y021410D01*
X006033Y021385D01*
X001363Y022685D02*
X001262Y022685D01*
X001313Y022685D02*
X001313Y022835D01*
X001262Y022785D01*
X001215Y022810D02*
X001190Y022835D01*
X001140Y022835D01*
X001115Y022810D01*
X001115Y022785D01*
X001140Y022760D01*
X001190Y022760D01*
X001215Y022735D01*
X001215Y022710D01*
X001190Y022685D01*
X001140Y022685D01*
X001115Y022710D01*
X001068Y022710D02*
X001068Y022835D01*
X000968Y022835D02*
X000968Y022710D01*
X000993Y022685D01*
X001043Y022685D01*
X001068Y022710D01*
X001165Y022660D02*
X001165Y022860D01*
X011918Y022570D02*
X011993Y022495D01*
X011993Y022595D01*
X012068Y022570D02*
X011918Y022570D01*
X011918Y022448D02*
X012043Y022448D01*
X012068Y022423D01*
X012068Y022373D01*
X012043Y022348D01*
X011918Y022348D01*
X015011Y021838D02*
X015036Y021838D01*
X015137Y021738D01*
X015162Y021738D01*
X015162Y021690D02*
X015162Y021590D01*
X015162Y021640D02*
X015011Y021640D01*
X015061Y021590D01*
X015036Y021543D02*
X015011Y021518D01*
X015011Y021468D01*
X015036Y021443D01*
X015137Y021443D01*
X015162Y021468D01*
X015162Y021518D01*
X015137Y021543D01*
X015011Y021738D02*
X015011Y021838D01*
X012896Y026000D02*
X012846Y026000D01*
X012821Y026025D01*
X012821Y026050D01*
X012846Y026075D01*
X012896Y026075D01*
X012921Y026050D01*
X012921Y026025D01*
X012896Y026000D01*
X012896Y026075D02*
X012921Y026100D01*
X012921Y026125D01*
X012896Y026150D01*
X012846Y026150D01*
X012821Y026125D01*
X012821Y026100D01*
X012846Y026075D01*
X012773Y026075D02*
X012748Y026050D01*
X012673Y026050D01*
X012673Y026000D02*
X012673Y026150D01*
X012748Y026150D01*
X012773Y026125D01*
X012773Y026075D01*
X012723Y026050D02*
X012773Y026000D01*
X007390Y033285D02*
X007340Y033285D01*
X007315Y033310D01*
X007315Y033335D01*
X007340Y033360D01*
X007390Y033360D01*
X007415Y033335D01*
X007415Y033310D01*
X007390Y033285D01*
X007390Y033360D02*
X007415Y033385D01*
X007415Y033410D01*
X007390Y033435D01*
X007340Y033435D01*
X007315Y033410D01*
X007315Y033385D01*
X007340Y033360D01*
X007268Y033310D02*
X007268Y033435D01*
X007168Y033435D02*
X007168Y033310D01*
X007193Y033285D01*
X007243Y033285D01*
X007268Y033310D01*
X028918Y013710D02*
X028993Y013710D01*
X029018Y013685D01*
X029018Y013635D01*
X028993Y013610D01*
X028918Y013610D01*
X028968Y013610D02*
X029018Y013560D01*
X029065Y013560D02*
X029165Y013560D01*
X029115Y013560D02*
X029115Y013710D01*
X029065Y013660D01*
X029212Y013635D02*
X029313Y013635D01*
X029288Y013560D02*
X029288Y013710D01*
X029212Y013635D01*
X028918Y013560D02*
X028918Y013710D01*
X028898Y010550D02*
X028873Y010525D01*
X028873Y010425D01*
X028898Y010400D01*
X028948Y010400D01*
X028973Y010425D01*
X029021Y010425D02*
X029046Y010400D01*
X029096Y010400D01*
X029121Y010425D01*
X029121Y010525D01*
X029096Y010550D01*
X029046Y010550D01*
X029021Y010525D01*
X029021Y010500D01*
X029046Y010475D01*
X029121Y010475D01*
X028973Y010525D02*
X028948Y010550D01*
X028898Y010550D01*
X027771Y009550D02*
X027746Y009575D01*
X027696Y009575D01*
X027671Y009550D01*
X027623Y009550D02*
X027623Y009575D01*
X027623Y009550D02*
X027573Y009500D01*
X027573Y009425D01*
X027573Y009500D02*
X027523Y009550D01*
X027523Y009575D01*
X027671Y009425D02*
X027771Y009525D01*
X027771Y009550D01*
X027771Y009425D02*
X027671Y009425D01*
X027283Y009305D02*
X027258Y009330D01*
X027233Y009330D01*
X027208Y009305D01*
X027208Y009230D01*
X027258Y009230D01*
X027283Y009255D01*
X027283Y009305D01*
X027208Y009230D02*
X027158Y009280D01*
X027133Y009330D01*
X027133Y009132D02*
X027283Y009132D01*
X027283Y009082D02*
X027283Y009182D01*
X027183Y009082D02*
X027133Y009132D01*
X027158Y009035D02*
X027133Y009010D01*
X027133Y008960D01*
X027158Y008935D01*
X027258Y008935D01*
X027283Y008960D01*
X027283Y009010D01*
X027258Y009035D01*
X025568Y011293D02*
X025593Y011318D01*
X025593Y011368D01*
X025568Y011393D01*
X025593Y011440D02*
X025593Y011540D01*
X025593Y011490D02*
X025443Y011490D01*
X025493Y011440D01*
X025468Y011393D02*
X025443Y011368D01*
X025443Y011318D01*
X025468Y011293D01*
X025568Y011293D01*
X025568Y011588D02*
X025593Y011613D01*
X025593Y011663D01*
X025568Y011688D01*
X025518Y011688D01*
X025493Y011663D01*
X025493Y011638D01*
X025518Y011588D01*
X025443Y011588D01*
X025443Y011688D01*
X020283Y011707D02*
X020283Y011657D01*
X020258Y011632D01*
X020283Y011585D02*
X020233Y011535D01*
X020233Y011560D02*
X020233Y011485D01*
X020283Y011485D02*
X020133Y011485D01*
X020133Y011560D01*
X020158Y011585D01*
X020208Y011585D01*
X020233Y011560D01*
X020158Y011632D02*
X020133Y011657D01*
X020133Y011707D01*
X020158Y011732D01*
X020183Y011732D01*
X020208Y011707D01*
X020233Y011732D01*
X020258Y011732D01*
X020283Y011707D01*
X020208Y011707D02*
X020208Y011682D01*
X016821Y012181D02*
X016721Y012181D01*
X016821Y012281D01*
X016821Y012306D01*
X016796Y012331D01*
X016746Y012331D01*
X016721Y012306D01*
X016623Y012331D02*
X016623Y012181D01*
X016573Y012181D02*
X016673Y012181D01*
X016573Y012281D02*
X016623Y012331D01*
X016526Y012306D02*
X016501Y012331D01*
X016451Y012331D01*
X016426Y012306D01*
X016426Y012206D01*
X016451Y012181D01*
X016501Y012181D01*
X016526Y012206D01*
X016573Y011400D02*
X016523Y011350D01*
X016476Y011325D02*
X016451Y011300D01*
X016376Y011300D01*
X016426Y011300D02*
X016476Y011250D01*
X016523Y011250D02*
X016623Y011250D01*
X016573Y011250D02*
X016573Y011400D01*
X016476Y011375D02*
X016476Y011325D01*
X016476Y011375D02*
X016451Y011400D01*
X016376Y011400D01*
X016376Y011250D01*
X016671Y011275D02*
X016696Y011250D01*
X016746Y011250D01*
X016771Y011275D01*
X016771Y011300D01*
X016746Y011325D01*
X016671Y011325D01*
X016671Y011275D01*
X016671Y011325D02*
X016721Y011375D01*
X016771Y011400D01*
X031927Y009201D02*
X031977Y009151D01*
X031927Y009104D02*
X032052Y009104D01*
X032077Y009079D01*
X032077Y009029D01*
X032052Y009004D01*
X031927Y009004D01*
X031927Y009201D02*
X032077Y009201D01*
X032077Y009151D02*
X032077Y009251D01*
X036518Y010785D02*
X036543Y010760D01*
X036593Y010760D01*
X036618Y010785D01*
X036665Y010760D02*
X036765Y010760D01*
X036715Y010760D02*
X036715Y010910D01*
X036665Y010860D01*
X036618Y010885D02*
X036593Y010910D01*
X036543Y010910D01*
X036518Y010885D01*
X036518Y010785D01*
X036812Y010785D02*
X036913Y010885D01*
X036913Y010785D01*
X036888Y010760D01*
X036838Y010760D01*
X036812Y010785D01*
X036812Y010885D01*
X036838Y010910D01*
X036888Y010910D01*
X036913Y010885D01*
X033643Y013518D02*
X033643Y013568D01*
X033618Y013593D01*
X033643Y013640D02*
X033643Y013740D01*
X033643Y013788D02*
X033643Y013888D01*
X033643Y013838D02*
X033493Y013838D01*
X033543Y013788D01*
X033493Y013690D02*
X033643Y013690D01*
X033543Y013640D02*
X033493Y013690D01*
X033518Y013593D02*
X033493Y013568D01*
X033493Y013518D01*
X033518Y013493D01*
X033618Y013493D01*
X033643Y013518D01*
X043726Y009350D02*
X043801Y009350D01*
X043826Y009325D01*
X043826Y009275D01*
X043801Y009250D01*
X043726Y009250D01*
X043776Y009250D02*
X043826Y009200D01*
X043873Y009200D02*
X043973Y009300D01*
X043973Y009325D01*
X043948Y009350D01*
X043898Y009350D01*
X043873Y009325D01*
X043873Y009200D02*
X043973Y009200D01*
X044021Y009225D02*
X044046Y009200D01*
X044096Y009200D01*
X044121Y009225D01*
X044121Y009275D01*
X044096Y009300D01*
X044071Y009300D01*
X044021Y009275D01*
X044021Y009350D01*
X044121Y009350D01*
X043726Y009350D02*
X043726Y009200D01*
X044883Y011235D02*
X044883Y011310D01*
X044908Y011335D01*
X044958Y011335D01*
X044983Y011310D01*
X044983Y011235D01*
X045033Y011235D02*
X044883Y011235D01*
X044983Y011285D02*
X045033Y011335D01*
X045033Y011382D02*
X045033Y011482D01*
X045033Y011432D02*
X044883Y011432D01*
X044933Y011382D01*
X033321Y004175D02*
X033321Y004150D01*
X033296Y004125D01*
X033321Y004100D01*
X033321Y004075D01*
X033296Y004050D01*
X033246Y004050D01*
X033221Y004075D01*
X033173Y004050D02*
X033073Y004050D01*
X033123Y004050D02*
X033123Y004200D01*
X033073Y004150D01*
X033026Y004175D02*
X033001Y004200D01*
X032951Y004200D01*
X032926Y004175D01*
X032926Y004075D01*
X032951Y004050D01*
X033001Y004050D01*
X033026Y004075D01*
X033221Y004175D02*
X033246Y004200D01*
X033296Y004200D01*
X033321Y004175D01*
X033296Y004125D02*
X033271Y004125D01*
X032589Y004985D02*
X032614Y005010D01*
X032614Y005060D01*
X032589Y005085D01*
X032539Y005132D02*
X032539Y005232D01*
X032464Y005207D02*
X032539Y005132D01*
X032489Y005085D02*
X032464Y005060D01*
X032464Y005010D01*
X032489Y004985D01*
X032589Y004985D01*
X032614Y005207D02*
X032464Y005207D01*
D20*
X013855Y028879D03*
X013275Y028879D03*
D21*
X015022Y028216D03*
X015022Y027744D03*
D22*
X010463Y022838D03*
D23*
X012113Y023430D02*
X013113Y024430D01*
X014113Y023430D01*
X012113Y023430D01*
X012183Y023460D02*
X012243Y023510D01*
X012283Y023460D02*
X012183Y023460D01*
X013973Y023460D02*
X013983Y023510D01*
X014013Y023490D01*
X014043Y023450D02*
X013973Y023460D01*
X017066Y022290D02*
X017066Y026070D01*
X017223Y026070D01*
X017413Y024675D02*
X027909Y024671D01*
X027909Y024673D02*
X027912Y041541D01*
X027912Y041540D02*
X027913Y041541D01*
X027912Y041540D02*
X020977Y041540D01*
X020970Y041542D02*
X017413Y041542D01*
X017413Y024675D01*
X017413Y024674D01*
X017223Y022290D02*
X017066Y022290D01*
X014863Y020730D02*
X014063Y020730D01*
X022460Y022290D02*
X022578Y022290D01*
X022578Y023196D01*
X025063Y023080D02*
X032504Y023080D01*
X032504Y037096D01*
X025063Y037096D01*
X025063Y023080D01*
X022578Y025164D02*
X022578Y026070D01*
X022460Y026070D01*
X023663Y029680D02*
X023634Y029613D01*
X023601Y029548D01*
X023566Y029485D01*
X023526Y029423D01*
X023484Y029364D01*
X023438Y029308D01*
X023389Y029253D01*
X023338Y029202D01*
X023284Y029153D01*
X023227Y029108D01*
X023168Y029065D01*
X023106Y029026D01*
X023043Y028990D01*
X022978Y028958D01*
X022911Y028929D01*
X022842Y028904D01*
X022773Y028883D01*
X022702Y028865D01*
X022631Y028852D01*
X022558Y028842D01*
X022486Y028836D01*
X022413Y028834D01*
X022340Y028836D01*
X022268Y028842D01*
X022195Y028852D01*
X022124Y028865D01*
X022053Y028883D01*
X021984Y028904D01*
X021915Y028929D01*
X021848Y028958D01*
X021783Y028990D01*
X021720Y029026D01*
X021658Y029065D01*
X021599Y029108D01*
X021542Y029153D01*
X021488Y029202D01*
X021437Y029253D01*
X021388Y029308D01*
X021342Y029364D01*
X021300Y029423D01*
X021260Y029485D01*
X021225Y029548D01*
X021192Y029613D01*
X021163Y029680D01*
X021663Y030680D02*
X022163Y030680D01*
X022163Y031180D01*
X021663Y031180D01*
X021663Y030680D01*
X022663Y030680D02*
X022663Y031180D01*
X023163Y031180D01*
X023163Y030680D01*
X022663Y030680D01*
X017663Y036680D02*
X027663Y036680D01*
X034114Y039520D02*
X034114Y032630D01*
X053209Y032630D01*
X053209Y039520D01*
X052618Y039520D01*
X052216Y039520D01*
X051822Y039520D02*
X051420Y039520D01*
X051026Y039520D02*
X050624Y039520D01*
X050230Y039520D02*
X049828Y039520D01*
X049434Y039520D02*
X049032Y039520D01*
X048638Y039520D02*
X048236Y039520D01*
X047842Y039520D02*
X047440Y039520D01*
X047046Y039520D02*
X046644Y039520D01*
X046250Y039520D02*
X045848Y039520D01*
X045454Y039520D02*
X045052Y039520D01*
X044658Y039520D02*
X044256Y039520D01*
X043862Y039520D02*
X043460Y039520D01*
X043066Y039520D02*
X042664Y039520D01*
X042270Y039520D02*
X041868Y039520D01*
X041475Y039520D02*
X041072Y039520D01*
X040679Y039520D02*
X040276Y039520D01*
X039883Y039520D02*
X039480Y039520D01*
X039087Y039520D02*
X038684Y039520D01*
X038291Y039520D02*
X037888Y039520D01*
X037495Y039520D02*
X037092Y039520D01*
X036699Y039520D02*
X036296Y039520D01*
X035903Y039520D02*
X035501Y039520D01*
X035107Y039520D02*
X034705Y039520D01*
X034114Y039520D01*
X046116Y030975D02*
X053203Y030975D01*
X053203Y030582D01*
X053203Y030188D02*
X053203Y029794D01*
X053203Y029400D02*
X053203Y029007D01*
X053203Y028613D02*
X053203Y028219D01*
X053203Y027826D02*
X053203Y027432D01*
X053203Y027038D02*
X053203Y026645D01*
X053203Y026251D02*
X053203Y025857D01*
X053203Y025463D02*
X053203Y025070D01*
X053203Y024676D02*
X053203Y024282D01*
X053203Y023889D02*
X053203Y023495D01*
X053203Y023101D02*
X053203Y022708D01*
X053203Y022314D02*
X053203Y021920D01*
X053203Y021526D02*
X053203Y021133D01*
X053203Y020739D02*
X053203Y020345D01*
X053203Y019952D02*
X053203Y019558D01*
X053203Y019164D02*
X053203Y018771D01*
X053203Y018377D02*
X053203Y017983D01*
X053203Y017589D02*
X053203Y017196D01*
X053203Y016802D02*
X053203Y016408D01*
X053203Y016015D02*
X053203Y015621D01*
X053203Y015227D02*
X053203Y014834D01*
X053203Y014440D02*
X053203Y014046D01*
X053203Y013652D02*
X053203Y013259D01*
X053203Y012865D02*
X053203Y012471D01*
X053203Y012078D02*
X053203Y011684D01*
X053203Y011290D02*
X053203Y010897D01*
X053203Y010503D02*
X053203Y010109D01*
X053203Y009715D02*
X053203Y009322D01*
X053203Y008928D02*
X053203Y008534D01*
X053203Y008141D02*
X053203Y007747D01*
X053203Y007353D02*
X053203Y006960D01*
X053203Y006566D02*
X053203Y006172D01*
X053203Y005778D02*
X053203Y005385D01*
X046116Y005385D01*
X046116Y030975D01*
X042213Y012180D02*
X043213Y011180D01*
X042213Y010180D01*
X042213Y012180D01*
X042243Y012110D02*
X042293Y012050D01*
X042243Y012010D02*
X042243Y012110D01*
X042243Y010320D02*
X042293Y010310D01*
X042273Y010280D01*
X042233Y010250D02*
X042243Y010320D01*
X045687Y007420D02*
X045687Y007270D01*
X045763Y007195D01*
X045763Y007034D02*
X045687Y006959D01*
X045687Y006809D01*
X045763Y006734D01*
X045838Y006734D01*
X045913Y006809D01*
X045913Y006959D01*
X045988Y007034D01*
X046063Y007034D01*
X046138Y006959D01*
X046138Y006809D01*
X046063Y006734D01*
X046138Y007195D02*
X045838Y007495D01*
X045763Y007495D01*
X045687Y007420D01*
X046138Y007495D02*
X046138Y007195D01*
X033563Y006130D02*
X032763Y006130D01*
X022188Y006359D02*
X022113Y006284D01*
X022188Y006359D02*
X022188Y006509D01*
X022113Y006584D01*
X022038Y006584D01*
X021963Y006509D01*
X021963Y006359D01*
X021888Y006284D01*
X021813Y006284D01*
X021737Y006359D01*
X021737Y006509D01*
X021813Y006584D01*
X021888Y006745D02*
X021737Y006895D01*
X022188Y006895D01*
X022188Y006745D02*
X022188Y007045D01*
X018363Y011180D02*
X017363Y010180D01*
X017363Y012180D01*
X018363Y011180D01*
X017443Y010310D02*
X017423Y010280D01*
X017443Y010310D02*
X017393Y010320D01*
X017383Y010250D01*
X017393Y012010D02*
X017393Y012110D01*
X017443Y012050D01*
X015713Y012480D02*
X015713Y013280D01*
D24*
X017463Y011930D02*
X017463Y010430D01*
X018213Y011180D01*
X018013Y011380D01*
X017513Y011880D01*
X017663Y011730D02*
X017663Y010630D01*
X017863Y010830D02*
X017863Y011530D01*
X018013Y011380D02*
X018013Y010980D01*
X013863Y023530D02*
X012363Y023530D01*
X012413Y023580D02*
X012913Y024080D01*
X013113Y024280D01*
X013863Y023530D01*
X013663Y023730D02*
X012563Y023730D01*
X012763Y023930D02*
X013463Y023930D01*
X013313Y024080D02*
X012913Y024080D01*
X042313Y011930D02*
X042313Y010430D01*
X043063Y011180D01*
X042863Y011380D01*
X042363Y011880D01*
X042513Y011730D02*
X042513Y010630D01*
X042713Y010830D02*
X042713Y011530D01*
X042863Y011380D02*
X042863Y010980D01*
M02*
