%
M48
M72
T01C0.0197
T02C0.0236
T03C0.0315
T04C0.0354
T05C0.0400
T06C0.0906
T07C0.0925
T08C0.1134
T09C0.1142
%
T01
X28113Y11230
T02
X27613Y9180
X25113Y11680
X25663Y12730
X28263Y13030
X32113Y11580
X33613Y11480
X33438Y10505
X32113Y9830
X34063Y9280
X22013Y19430
X13663Y26380
X9263Y30780
X8563Y32180
X7963Y23980
X10163Y15080
X10163Y11880
X8828Y11215
X15313Y11680
T03
X18332Y27637
X18332Y28424
X18332Y29211
X18332Y29999
X18332Y30786
X18332Y31574
X18332Y32361
X18332Y33149
X18332Y33936
X18332Y34723
X26994Y34723
X26994Y33936
X26994Y33149
X26994Y32361
X26994Y31574
X26994Y30786
X26994Y29999
X26994Y29211
X26994Y28424
X26994Y27637
T04
X2463Y23046
X2463Y21314
T05
X4263Y4280
X5263Y4180
X6263Y4280
X7263Y4180
X8263Y4280
X9263Y4180
X11263Y4280
X12263Y4180
X13263Y4280
X14263Y4180
X17263Y5180
X17163Y6180
X17263Y7180
X17163Y8180
X17263Y9180
X19263Y11180
X19363Y12180
X19263Y13180
X19363Y14180
X19263Y15180
X15263Y17080
X14263Y17180
X13263Y17080
X12263Y17180
X11263Y17080
X10263Y17180
X8263Y17080
X7263Y17180
X6263Y17080
X5263Y17180
X3263Y15180
X3363Y14180
X3263Y13180
X3363Y12180
X3263Y11180
X3063Y7730
X19323Y7460
X21103Y7460
X21103Y4900
X19323Y4900
X24263Y4180
X24363Y5180
X24263Y6180
X24363Y7180
X24263Y8180
X24363Y9180
X24263Y10130
X24263Y11230
X24263Y12180
X24363Y13180
X24263Y14180
X24363Y15180
X24263Y16180
X28263Y17180
X29263Y17080
X30263Y17180
X31263Y17080
X32263Y17180
X33263Y17080
X34263Y17180
X35263Y17080
X36263Y17180
X37263Y17080
X41313Y17180
X41213Y16180
X41313Y15180
X41213Y14180
X41313Y13180
X41213Y12180
X41313Y11180
X41213Y10180
X41263Y9180
X41163Y8180
X41263Y7180
X41163Y6180
X41263Y5180
X41163Y4180
X43273Y5350
X45053Y5350
X45053Y7910
X43273Y7910
X44063Y11180
X44163Y12180
X44063Y13180
X44163Y14180
X44063Y15180
X39263Y3130
X38263Y3230
X37263Y3130
X36263Y3230
X35263Y3130
X34263Y3230
X33263Y3130
X32263Y3180
X31263Y3280
X30263Y3180
X29263Y3280
X28263Y3180
X27263Y3280
X13163Y25280
X12163Y25380
X11163Y25280
X10163Y25380
X9163Y25280
X8063Y27380
X6863Y27480
X5863Y27580
X4863Y27480
X3863Y27580
X2163Y28680
X2263Y29680
X2163Y30680
X2263Y31680
X2163Y32980
X2263Y33980
X2163Y34980
X2263Y35980
X4263Y37180
X5263Y37080
X6263Y37180
X7263Y37080
X8263Y37180
X9263Y37080
X10263Y37180
X11263Y37080
X12263Y37180
X13263Y37080
X14263Y37180
X15263Y37080
X15263Y34180
X15263Y33180
X15263Y32180
X15163Y31180
X15263Y30180
X15163Y29180
X13363Y27580
X12363Y27680
X11363Y27580
X10363Y27680
T06
X47888Y26841
X49463Y26054
X51038Y25267
X49463Y24479
X51038Y23692
X51038Y22117
X49463Y21330
X49463Y22904
X47888Y22117
X47888Y23692
X47888Y25267
X51038Y26841
X51038Y20542
X49463Y19755
X51038Y18967
X49463Y18180
X51038Y17393
X49463Y16605
X49463Y15030
X51038Y14243
X51038Y15818
X49463Y13456
X47888Y14243
X47888Y15818
X47888Y17393
X47888Y18967
X47888Y20542
X47888Y12668
X49463Y11881
X51038Y12668
X51038Y11093
X49463Y10306
X51038Y9519
X47888Y9519
X47888Y11093
T07
X47500Y34205
X49075Y34205
X48287Y35780
X46712Y35780
X45138Y35780
X43563Y35780
X41988Y35780
X40413Y35780
X38838Y35780
X38051Y34205
X39626Y34205
X41201Y34205
X42775Y34205
X44350Y34205
X45925Y34205
X45925Y37355
X44350Y37355
X42775Y37355
X41201Y37355
X39626Y37355
X38051Y37355
X47500Y37355
X49075Y37355
T08
X49660Y29400
X49660Y6960
T09
X51634Y35977
X35492Y35977
M30
