G75*
%MOIN*%
%OFA0B0*%
%FSLAX24Y24*%
%IPPOS*%
%LPD*%
%AMOC8*
5,1,8,0,0,1.08239X$1,22.5*
%
%ADD10R,0.0315X0.0472*%
%ADD11R,0.0630X0.0709*%
%ADD12R,0.0472X0.0315*%
%ADD13R,0.0472X0.0472*%
%ADD14R,0.0256X0.0335*%
%ADD15R,0.0591X0.1417*%
%ADD16R,0.0315X0.0354*%
%ADD17R,0.0394X0.0433*%
%ADD18R,0.0433X0.0394*%
%ADD19R,0.0591X0.0197*%
%ADD20R,0.0197X0.0591*%
%ADD21R,0.0098X0.0600*%
%ADD22R,0.0091X0.0394*%
%ADD23R,0.0984X0.0551*%
%ADD24R,0.0354X0.0315*%
D10*
X004326Y000585D03*
X005034Y000585D03*
X005034Y001285D03*
X004326Y001285D03*
X019476Y008475D03*
X020184Y008475D03*
X020204Y009795D03*
X019496Y009795D03*
D11*
X029459Y014105D03*
X030561Y014105D03*
X024171Y015135D03*
X023069Y015135D03*
X023069Y016135D03*
X024171Y016135D03*
X025799Y017745D03*
X026901Y017745D03*
D12*
X026400Y014539D03*
X026400Y013831D03*
D13*
X023160Y008518D03*
X022160Y008498D03*
X022160Y007672D03*
X023160Y007692D03*
X013040Y011392D03*
X013040Y012218D03*
X011240Y012218D03*
X011240Y011392D03*
X009440Y011392D03*
X009440Y012218D03*
X007640Y012218D03*
X007640Y011392D03*
X005840Y011392D03*
X005840Y012218D03*
X004040Y012218D03*
X004040Y011392D03*
X002240Y011392D03*
X002240Y012218D03*
X009667Y002195D03*
X010493Y002195D03*
D14*
X027547Y016075D03*
X028413Y016075D03*
D15*
X024350Y017435D03*
X023051Y017435D03*
D16*
X027546Y014599D03*
X028294Y014599D03*
X027920Y013772D03*
D17*
X026910Y015030D03*
X026910Y015700D03*
X024970Y014480D03*
X024970Y013810D03*
X023790Y011940D03*
X022660Y011940D03*
X021520Y011950D03*
X021520Y011280D03*
X022660Y011270D03*
X023790Y011270D03*
X023160Y009840D03*
X022170Y009840D03*
X022170Y009170D03*
X023160Y009170D03*
X012140Y011470D03*
X012140Y012140D03*
X010340Y012140D03*
X010340Y011470D03*
X008540Y011470D03*
X008540Y012140D03*
X006740Y012140D03*
X006740Y011470D03*
X004940Y011470D03*
X004940Y012140D03*
X003140Y012140D03*
X003140Y011470D03*
X001340Y011470D03*
X001340Y012140D03*
X010510Y003630D03*
X010510Y002960D03*
D18*
X027585Y015325D03*
X028255Y015325D03*
X028315Y016825D03*
X027645Y016825D03*
D19*
G36*
X015672Y005974D02*
X016261Y005973D01*
X016260Y005778D01*
X015671Y005779D01*
X015672Y005974D01*
G37*
G36*
X015672Y005659D02*
X016261Y005658D01*
X016260Y005463D01*
X015671Y005464D01*
X015672Y005659D01*
G37*
G36*
X015671Y005344D02*
X016260Y005343D01*
X016259Y005148D01*
X015670Y005149D01*
X015671Y005344D01*
G37*
G36*
X015671Y005029D02*
X016260Y005028D01*
X016259Y004833D01*
X015670Y004834D01*
X015671Y005029D01*
G37*
G36*
X015670Y004714D02*
X016259Y004713D01*
X016258Y004518D01*
X015669Y004519D01*
X015670Y004714D01*
G37*
G36*
X015669Y004399D02*
X016258Y004398D01*
X016257Y004203D01*
X015668Y004204D01*
X015669Y004399D01*
G37*
G36*
X015669Y004084D02*
X016258Y004083D01*
X016257Y003888D01*
X015668Y003889D01*
X015669Y004084D01*
G37*
G36*
X015668Y003769D02*
X016257Y003768D01*
X016256Y003573D01*
X015667Y003574D01*
X015668Y003769D01*
G37*
G36*
X015668Y003454D02*
X016257Y003453D01*
X016256Y003258D01*
X015667Y003259D01*
X015668Y003454D01*
G37*
G36*
X015667Y003139D02*
X016256Y003138D01*
X016255Y002943D01*
X015666Y002944D01*
X015667Y003139D01*
G37*
G36*
X015667Y002824D02*
X016256Y002823D01*
X016255Y002628D01*
X015666Y002629D01*
X015667Y002824D01*
G37*
G36*
X011100Y002832D02*
X011689Y002831D01*
X011688Y002636D01*
X011099Y002637D01*
X011100Y002832D01*
G37*
G36*
X011100Y003147D02*
X011689Y003146D01*
X011688Y002951D01*
X011099Y002952D01*
X011100Y003147D01*
G37*
G36*
X011101Y003462D02*
X011690Y003461D01*
X011689Y003266D01*
X011100Y003267D01*
X011101Y003462D01*
G37*
G36*
X011101Y003777D02*
X011690Y003776D01*
X011689Y003581D01*
X011100Y003582D01*
X011101Y003777D01*
G37*
G36*
X011102Y004092D02*
X011691Y004091D01*
X011690Y003896D01*
X011101Y003897D01*
X011102Y004092D01*
G37*
G36*
X011103Y004407D02*
X011692Y004406D01*
X011691Y004211D01*
X011102Y004212D01*
X011103Y004407D01*
G37*
G36*
X011103Y004722D02*
X011692Y004721D01*
X011691Y004526D01*
X011102Y004527D01*
X011103Y004722D01*
G37*
G36*
X011104Y005037D02*
X011693Y005036D01*
X011692Y004841D01*
X011103Y004842D01*
X011104Y005037D01*
G37*
G36*
X011104Y005352D02*
X011693Y005351D01*
X011692Y005156D01*
X011103Y005157D01*
X011104Y005352D01*
G37*
G36*
X011105Y005667D02*
X011694Y005666D01*
X011693Y005471D01*
X011104Y005472D01*
X011105Y005667D01*
G37*
G36*
X011105Y005982D02*
X011694Y005981D01*
X011693Y005786D01*
X011104Y005787D01*
X011105Y005982D01*
G37*
D20*
G36*
X012012Y006886D02*
X012207Y006885D01*
X012206Y006296D01*
X012011Y006297D01*
X012012Y006886D01*
G37*
G36*
X012327Y006886D02*
X012522Y006885D01*
X012521Y006296D01*
X012326Y006297D01*
X012327Y006886D01*
G37*
G36*
X012642Y006885D02*
X012837Y006884D01*
X012836Y006295D01*
X012641Y006296D01*
X012642Y006885D01*
G37*
G36*
X012957Y006885D02*
X013152Y006884D01*
X013151Y006295D01*
X012956Y006296D01*
X012957Y006885D01*
G37*
G36*
X013272Y006884D02*
X013467Y006883D01*
X013466Y006294D01*
X013271Y006295D01*
X013272Y006884D01*
G37*
G36*
X013587Y006883D02*
X013782Y006882D01*
X013781Y006293D01*
X013586Y006294D01*
X013587Y006883D01*
G37*
G36*
X013902Y006883D02*
X014097Y006882D01*
X014096Y006293D01*
X013901Y006294D01*
X013902Y006883D01*
G37*
G36*
X014217Y006882D02*
X014412Y006881D01*
X014411Y006292D01*
X014216Y006293D01*
X014217Y006882D01*
G37*
G36*
X014532Y006882D02*
X014727Y006881D01*
X014726Y006292D01*
X014531Y006293D01*
X014532Y006882D01*
G37*
G36*
X014847Y006881D02*
X015042Y006880D01*
X015041Y006291D01*
X014846Y006292D01*
X014847Y006881D01*
G37*
G36*
X015162Y006881D02*
X015357Y006880D01*
X015356Y006291D01*
X015161Y006292D01*
X015162Y006881D01*
G37*
G36*
X015154Y002314D02*
X015349Y002313D01*
X015348Y001724D01*
X015153Y001725D01*
X015154Y002314D01*
G37*
G36*
X014839Y002314D02*
X015034Y002313D01*
X015033Y001724D01*
X014838Y001725D01*
X014839Y002314D01*
G37*
G36*
X014524Y002315D02*
X014719Y002314D01*
X014718Y001725D01*
X014523Y001726D01*
X014524Y002315D01*
G37*
G36*
X014209Y002315D02*
X014404Y002314D01*
X014403Y001725D01*
X014208Y001726D01*
X014209Y002315D01*
G37*
G36*
X013894Y002316D02*
X014089Y002315D01*
X014088Y001726D01*
X013893Y001727D01*
X013894Y002316D01*
G37*
G36*
X013579Y002317D02*
X013774Y002316D01*
X013773Y001727D01*
X013578Y001728D01*
X013579Y002317D01*
G37*
G36*
X013264Y002317D02*
X013459Y002316D01*
X013458Y001727D01*
X013263Y001728D01*
X013264Y002317D01*
G37*
G36*
X012949Y002318D02*
X013144Y002317D01*
X013143Y001728D01*
X012948Y001729D01*
X012949Y002318D01*
G37*
G36*
X012634Y002318D02*
X012829Y002317D01*
X012828Y001728D01*
X012633Y001729D01*
X012634Y002318D01*
G37*
G36*
X012319Y002319D02*
X012514Y002318D01*
X012513Y001729D01*
X012318Y001730D01*
X012319Y002319D01*
G37*
G36*
X012004Y002319D02*
X012199Y002318D01*
X012198Y001729D01*
X012003Y001730D01*
X012004Y002319D01*
G37*
D21*
X008824Y002058D03*
X008627Y002058D03*
X008430Y002058D03*
X008233Y002058D03*
X008036Y002058D03*
X007840Y002058D03*
X007643Y002058D03*
X007446Y002058D03*
X007249Y002058D03*
X007052Y002058D03*
X006855Y002058D03*
X006658Y002058D03*
X006462Y002058D03*
X006265Y002058D03*
X006068Y002058D03*
X005871Y002058D03*
X005674Y002058D03*
X005477Y002058D03*
X005280Y002058D03*
X005084Y002058D03*
X004887Y002058D03*
X004690Y002058D03*
X004493Y002058D03*
X004296Y002058D03*
X004296Y004752D03*
X004493Y004752D03*
X004690Y004752D03*
X004887Y004752D03*
X005084Y004752D03*
X005280Y004752D03*
X005477Y004752D03*
X005674Y004752D03*
X005871Y004752D03*
X006068Y004752D03*
X006265Y004752D03*
X006462Y004752D03*
X006658Y004752D03*
X006855Y004752D03*
X007052Y004752D03*
X007249Y004752D03*
X007446Y004752D03*
X007643Y004752D03*
X007840Y004752D03*
X008036Y004752D03*
X008233Y004752D03*
X008430Y004752D03*
X008627Y004752D03*
X008824Y004752D03*
D22*
X025118Y015175D03*
X025315Y015175D03*
X025512Y015175D03*
X025708Y015175D03*
X025905Y015175D03*
X026102Y015175D03*
X026102Y016435D03*
X025905Y016435D03*
X025708Y016435D03*
X025512Y016435D03*
X025315Y016435D03*
X025118Y016435D03*
D23*
X025610Y015805D03*
D24*
X020244Y011249D03*
X019417Y010875D03*
X020244Y010501D03*
M02*
