G75*
%MOIN*%
%OFA0B0*%
%FSLAX24Y24*%
%IPPOS*%
%LPD*%
%AMOC8*
5,1,8,0,0,1.08239X$1,22.5*
%
%ADD10C,0.1182*%
%ADD11C,0.0160*%
%ADD12R,0.0513X0.0474*%
%ADD13R,0.0474X0.0513*%
%ADD14R,0.0395X0.0552*%
%ADD15R,0.0720X0.0720*%
%ADD16C,0.0720*%
%ADD17R,0.0820X0.0820*%
%ADD18C,0.0820*%
%ADD19OC8,0.0980*%
%ADD20R,0.0980X0.0980*%
%ADD21C,0.1960*%
%ADD22C,0.0966*%
%ADD23R,0.0395X0.0434*%
%ADD24C,0.0674*%
%ADD25R,0.0950X0.0320*%
%ADD26R,0.0320X0.0950*%
%ADD27R,0.0356X0.0474*%
%ADD28R,0.0375X0.0237*%
%ADD29R,0.0375X0.0277*%
%ADD30C,0.2620*%
D10*
X001180Y001185D03*
X001220Y017265D03*
X036520Y017265D03*
D11*
X036480Y015985D02*
X035380Y015985D01*
X034680Y015285D01*
X034680Y011885D01*
X033580Y010785D01*
X033580Y007985D01*
X032480Y006885D01*
X027980Y006885D01*
X026880Y005785D01*
X026880Y002185D01*
X027180Y001885D01*
X028180Y001885D01*
X028380Y002085D01*
X028380Y005285D01*
X028880Y005785D01*
X032580Y005785D01*
X034580Y007785D01*
X034580Y009285D01*
X036780Y011485D01*
X036780Y015685D01*
X036480Y015985D01*
X036588Y015877D02*
X035272Y015877D01*
X035113Y015718D02*
X036747Y015718D01*
X036780Y015560D02*
X034955Y015560D01*
X034796Y015401D02*
X036780Y015401D01*
X036780Y015243D02*
X034680Y015243D01*
X034680Y015084D02*
X036780Y015084D01*
X036780Y014926D02*
X034680Y014926D01*
X034680Y014767D02*
X036780Y014767D01*
X036780Y014609D02*
X034680Y014609D01*
X034680Y014450D02*
X036780Y014450D01*
X036780Y014292D02*
X034680Y014292D01*
X034680Y014133D02*
X036780Y014133D01*
X036780Y013975D02*
X034680Y013975D01*
X034680Y013816D02*
X036780Y013816D01*
X036780Y013658D02*
X034680Y013658D01*
X034680Y013499D02*
X036780Y013499D01*
X036780Y013341D02*
X034680Y013341D01*
X034680Y013182D02*
X036780Y013182D01*
X036780Y013024D02*
X034680Y013024D01*
X034680Y012865D02*
X036780Y012865D01*
X036780Y012707D02*
X034680Y012707D01*
X034680Y012548D02*
X036780Y012548D01*
X036780Y012390D02*
X034680Y012390D01*
X034680Y012231D02*
X036780Y012231D01*
X036780Y012073D02*
X034680Y012073D01*
X034680Y011914D02*
X036780Y011914D01*
X036780Y011756D02*
X034551Y011756D01*
X034392Y011597D02*
X036780Y011597D01*
X036734Y011439D02*
X034234Y011439D01*
X034075Y011280D02*
X036575Y011280D01*
X036417Y011122D02*
X033917Y011122D01*
X033758Y010963D02*
X036258Y010963D01*
X036100Y010805D02*
X033600Y010805D01*
X033580Y010646D02*
X035941Y010646D01*
X035783Y010488D02*
X033580Y010488D01*
X033580Y010329D02*
X035624Y010329D01*
X035466Y010171D02*
X033580Y010171D01*
X033580Y010012D02*
X035307Y010012D01*
X035149Y009854D02*
X033580Y009854D01*
X033580Y009695D02*
X034990Y009695D01*
X034832Y009537D02*
X033580Y009537D01*
X033580Y009378D02*
X034673Y009378D01*
X034580Y009220D02*
X033580Y009220D01*
X033580Y009061D02*
X034580Y009061D01*
X034580Y008903D02*
X033580Y008903D01*
X033580Y008744D02*
X034580Y008744D01*
X034580Y008586D02*
X033580Y008586D01*
X033580Y008427D02*
X034580Y008427D01*
X034580Y008269D02*
X033580Y008269D01*
X033580Y008110D02*
X034580Y008110D01*
X034580Y007952D02*
X033547Y007952D01*
X033388Y007793D02*
X034580Y007793D01*
X034430Y007635D02*
X033230Y007635D01*
X033071Y007476D02*
X034271Y007476D01*
X034113Y007318D02*
X032913Y007318D01*
X032754Y007159D02*
X033954Y007159D01*
X033796Y007001D02*
X032596Y007001D01*
X033479Y006684D02*
X027779Y006684D01*
X027937Y006842D02*
X033637Y006842D01*
X033320Y006525D02*
X027620Y006525D01*
X027462Y006367D02*
X033162Y006367D01*
X033003Y006208D02*
X027303Y006208D01*
X027145Y006050D02*
X032845Y006050D01*
X032686Y005891D02*
X026986Y005891D01*
X026880Y005733D02*
X028828Y005733D01*
X028669Y005574D02*
X026880Y005574D01*
X026880Y005416D02*
X028511Y005416D01*
X028380Y005257D02*
X026880Y005257D01*
X026880Y005099D02*
X028380Y005099D01*
X028380Y004940D02*
X026880Y004940D01*
X026880Y004782D02*
X028380Y004782D01*
X028380Y004623D02*
X026880Y004623D01*
X026880Y004465D02*
X028380Y004465D01*
X028380Y004306D02*
X026880Y004306D01*
X026880Y004148D02*
X028380Y004148D01*
X028380Y003989D02*
X026880Y003989D01*
X026880Y003831D02*
X028380Y003831D01*
X028380Y003672D02*
X026880Y003672D01*
X026880Y003514D02*
X028380Y003514D01*
X028380Y003355D02*
X026880Y003355D01*
X026880Y003197D02*
X028380Y003197D01*
X028380Y003038D02*
X026880Y003038D01*
X026880Y002880D02*
X028380Y002880D01*
X028380Y002721D02*
X026880Y002721D01*
X026880Y002563D02*
X028380Y002563D01*
X028380Y002404D02*
X026880Y002404D01*
X026880Y002246D02*
X028380Y002246D01*
X028380Y002087D02*
X026978Y002087D01*
X027136Y001929D02*
X028224Y001929D01*
X029180Y002085D02*
X029380Y001885D01*
X032080Y001885D01*
X036880Y006685D01*
X036880Y009085D01*
X036680Y009285D01*
X035580Y009285D01*
X035180Y008885D01*
X035180Y007485D01*
X032880Y005185D01*
X029780Y005185D01*
X029280Y004685D01*
X029280Y004385D01*
X029180Y004285D01*
X029180Y002085D01*
X029180Y002087D02*
X032282Y002087D01*
X032124Y001929D02*
X029336Y001929D01*
X029180Y002246D02*
X032441Y002246D01*
X032599Y002404D02*
X029180Y002404D01*
X029180Y002563D02*
X032758Y002563D01*
X032916Y002721D02*
X029180Y002721D01*
X029180Y002880D02*
X033075Y002880D01*
X033233Y003038D02*
X029180Y003038D01*
X029180Y003197D02*
X033392Y003197D01*
X033550Y003355D02*
X029180Y003355D01*
X029180Y003514D02*
X033709Y003514D01*
X033867Y003672D02*
X029180Y003672D01*
X029180Y003831D02*
X034026Y003831D01*
X034184Y003989D02*
X029180Y003989D01*
X029180Y004148D02*
X034343Y004148D01*
X034501Y004306D02*
X029201Y004306D01*
X029280Y004465D02*
X034660Y004465D01*
X034818Y004623D02*
X029280Y004623D01*
X029377Y004782D02*
X034977Y004782D01*
X035135Y004940D02*
X029535Y004940D01*
X029694Y005099D02*
X035294Y005099D01*
X035452Y005257D02*
X032952Y005257D01*
X033111Y005416D02*
X035611Y005416D01*
X035769Y005574D02*
X033269Y005574D01*
X033428Y005733D02*
X035928Y005733D01*
X036086Y005891D02*
X033586Y005891D01*
X033745Y006050D02*
X036245Y006050D01*
X036403Y006208D02*
X033903Y006208D01*
X034062Y006367D02*
X036562Y006367D01*
X036720Y006525D02*
X034220Y006525D01*
X034379Y006684D02*
X036879Y006684D01*
X036880Y006842D02*
X034537Y006842D01*
X034696Y007001D02*
X036880Y007001D01*
X036880Y007159D02*
X034854Y007159D01*
X035013Y007318D02*
X036880Y007318D01*
X036880Y007476D02*
X035171Y007476D01*
X035180Y007635D02*
X036880Y007635D01*
X036880Y007793D02*
X035180Y007793D01*
X035180Y007952D02*
X036880Y007952D01*
X036880Y008110D02*
X035180Y008110D01*
X035180Y008269D02*
X036880Y008269D01*
X036880Y008427D02*
X035180Y008427D01*
X035180Y008586D02*
X036880Y008586D01*
X036880Y008744D02*
X035180Y008744D01*
X035198Y008903D02*
X036880Y008903D01*
X036880Y009061D02*
X035356Y009061D01*
X035515Y009220D02*
X036745Y009220D01*
X033180Y009285D02*
X033180Y010385D01*
X032080Y010385D01*
X031880Y010185D01*
X031880Y009385D01*
X030980Y008485D01*
X030980Y007785D01*
X031180Y007585D01*
X032480Y007585D01*
X032880Y007985D01*
X032880Y008885D01*
X033180Y009285D01*
X033131Y009220D02*
X031715Y009220D01*
X031873Y009378D02*
X033180Y009378D01*
X033180Y009537D02*
X031880Y009537D01*
X031880Y009695D02*
X033180Y009695D01*
X033180Y009854D02*
X031880Y009854D01*
X031880Y010012D02*
X033180Y010012D01*
X033180Y010171D02*
X031880Y010171D01*
X032024Y010329D02*
X033180Y010329D01*
X032058Y010963D02*
X031602Y010963D01*
X031680Y010885D02*
X031480Y011085D01*
X031480Y013685D01*
X030880Y014285D01*
X030880Y016385D01*
X031180Y016685D01*
X033180Y016685D01*
X033480Y016385D01*
X033480Y013285D01*
X033080Y012885D01*
X033080Y011185D01*
X032880Y010985D01*
X032080Y010985D01*
X031980Y010885D01*
X031680Y010885D01*
X031480Y011122D02*
X033017Y011122D01*
X033080Y011280D02*
X031480Y011280D01*
X031480Y011439D02*
X033080Y011439D01*
X033080Y011597D02*
X031480Y011597D01*
X031480Y011756D02*
X033080Y011756D01*
X033080Y011914D02*
X031480Y011914D01*
X031480Y012073D02*
X033080Y012073D01*
X033080Y012231D02*
X031480Y012231D01*
X031480Y012390D02*
X033080Y012390D01*
X033080Y012548D02*
X031480Y012548D01*
X031480Y012707D02*
X033080Y012707D01*
X033080Y012865D02*
X031480Y012865D01*
X031480Y013024D02*
X033219Y013024D01*
X033377Y013182D02*
X031480Y013182D01*
X031480Y013341D02*
X033480Y013341D01*
X033480Y013499D02*
X031480Y013499D01*
X031480Y013658D02*
X033480Y013658D01*
X033480Y013816D02*
X031349Y013816D01*
X031190Y013975D02*
X033480Y013975D01*
X033480Y014133D02*
X031032Y014133D01*
X030880Y014292D02*
X033480Y014292D01*
X033480Y014450D02*
X030880Y014450D01*
X030880Y014609D02*
X033480Y014609D01*
X033480Y014767D02*
X030880Y014767D01*
X030880Y014926D02*
X033480Y014926D01*
X033480Y015084D02*
X030880Y015084D01*
X030880Y015243D02*
X033480Y015243D01*
X033480Y015401D02*
X030880Y015401D01*
X030880Y015560D02*
X033480Y015560D01*
X033480Y015718D02*
X030880Y015718D01*
X030880Y015877D02*
X033480Y015877D01*
X033480Y016035D02*
X030880Y016035D01*
X030880Y016194D02*
X033480Y016194D01*
X033480Y016352D02*
X030880Y016352D01*
X031006Y016511D02*
X033354Y016511D01*
X033196Y016669D02*
X031164Y016669D01*
X031556Y009061D02*
X033012Y009061D01*
X032893Y008903D02*
X031398Y008903D01*
X031239Y008744D02*
X032880Y008744D01*
X032880Y008586D02*
X031081Y008586D01*
X030980Y008427D02*
X032880Y008427D01*
X032880Y008269D02*
X030980Y008269D01*
X030980Y008110D02*
X032880Y008110D01*
X032847Y007952D02*
X030980Y007952D01*
X030980Y007793D02*
X032688Y007793D01*
X032530Y007635D02*
X031130Y007635D01*
D12*
X028115Y010275D03*
X027445Y010275D03*
X029755Y012065D03*
X030425Y012065D03*
X028085Y012785D03*
X027415Y012785D03*
X025715Y015280D03*
X025045Y015280D03*
X024185Y016140D03*
X023515Y016140D03*
X015420Y008980D03*
X014750Y008980D03*
X012875Y008705D03*
X012205Y008705D03*
X011075Y008705D03*
X010405Y008705D03*
X009675Y008705D03*
X009005Y008705D03*
X007975Y008705D03*
X007305Y008705D03*
X006675Y008705D03*
X006005Y008705D03*
X005375Y008705D03*
X004705Y008705D03*
X003675Y008705D03*
X003005Y008705D03*
X002175Y008705D03*
X001505Y008705D03*
X004985Y002845D03*
X005655Y002845D03*
G36*
X025391Y001835D02*
X025902Y001832D01*
X025899Y001359D01*
X025388Y001362D01*
X025391Y001835D01*
G37*
G36*
X026061Y001831D02*
X026572Y001828D01*
X026569Y001355D01*
X026058Y001358D01*
X026061Y001831D01*
G37*
X026315Y000805D03*
X025645Y000805D03*
X026965Y000805D03*
X027635Y000805D03*
D13*
X023970Y003210D03*
X023970Y003880D03*
X020350Y001640D03*
X020350Y000970D03*
X014610Y005290D03*
X014610Y005960D03*
X012390Y005810D03*
X012390Y005140D03*
X011995Y002195D03*
X011090Y002190D03*
X010280Y002190D03*
X009520Y002210D03*
X009520Y001540D03*
X010280Y001520D03*
X011090Y001520D03*
X011995Y001525D03*
X027200Y007830D03*
X027200Y008500D03*
X028740Y008520D03*
X028740Y007850D03*
X012940Y009470D03*
X012140Y009470D03*
X012140Y010140D03*
X012940Y010140D03*
X010340Y010140D03*
X010340Y009470D03*
X008540Y009470D03*
X008540Y010140D03*
X006740Y010140D03*
X006740Y009470D03*
X004940Y009470D03*
X004940Y010140D03*
X003140Y010140D03*
X003140Y009470D03*
X001340Y009470D03*
X001340Y010140D03*
X024905Y017115D03*
X024905Y017785D03*
D14*
X024194Y015275D03*
X023486Y015275D03*
X028796Y010345D03*
X029504Y010345D03*
X012494Y010905D03*
X011786Y010905D03*
X010694Y010905D03*
X009986Y010905D03*
X008894Y010905D03*
X008186Y010905D03*
X007094Y010905D03*
X006386Y010905D03*
X005294Y010905D03*
X004586Y010905D03*
X003494Y010905D03*
X002786Y010905D03*
X001694Y010905D03*
X000986Y010905D03*
X006246Y006245D03*
X006954Y006245D03*
X005694Y003625D03*
X004986Y003625D03*
D15*
X001070Y002935D03*
X014400Y007985D03*
D16*
X015400Y007985D03*
X016400Y007985D03*
X017400Y007985D03*
X018400Y007985D03*
X001070Y006935D03*
X001070Y005935D03*
X001070Y004935D03*
X001070Y003935D03*
D17*
X015020Y010855D03*
X015000Y013755D03*
X015020Y016675D03*
X020040Y016585D03*
D18*
X021140Y016585D03*
X018020Y016575D03*
X017020Y016675D03*
X016020Y016575D03*
X010640Y016405D03*
X009640Y016505D03*
X008640Y016405D03*
X007640Y016505D03*
X006640Y016405D03*
X005640Y016505D03*
X004640Y016405D03*
X003640Y016505D03*
X016000Y013655D03*
X017000Y013755D03*
X018000Y013655D03*
X017020Y010855D03*
X018020Y010755D03*
X016020Y010755D03*
D19*
X025080Y004835D03*
D20*
X027380Y004835D03*
X029680Y004835D03*
X029680Y002535D03*
X027380Y002535D03*
X025080Y002535D03*
D21*
X018530Y003685D03*
X036230Y003685D03*
D22*
X035860Y008465D03*
X031860Y008465D03*
X025860Y008465D03*
X025860Y010465D03*
X025860Y012465D03*
X033860Y012465D03*
D23*
X012514Y012499D03*
X011766Y012499D03*
X010714Y012499D03*
X009966Y012499D03*
X008914Y012499D03*
X008166Y012499D03*
X007114Y012499D03*
X006366Y012499D03*
X005314Y012499D03*
X004566Y012499D03*
X003514Y012499D03*
X002766Y012499D03*
X001714Y012499D03*
X000966Y012499D03*
X001340Y011672D03*
X003140Y011672D03*
X004940Y011672D03*
X006740Y011672D03*
X008540Y011672D03*
X010340Y011672D03*
X012140Y011672D03*
D24*
X011240Y013405D03*
X009440Y013405D03*
X007640Y013405D03*
X005840Y013405D03*
X004040Y013405D03*
X002240Y013405D03*
X002240Y014881D03*
X004040Y014881D03*
X005840Y014881D03*
X007640Y014881D03*
X009440Y014881D03*
X011240Y014881D03*
X013040Y014881D03*
X013040Y013405D03*
D25*
X030420Y011335D03*
X030420Y010835D03*
X030420Y010335D03*
X030420Y009835D03*
X032480Y009835D03*
X032480Y010335D03*
X032480Y010835D03*
X032480Y011335D03*
D26*
X022530Y004255D03*
X022030Y004255D03*
X021530Y004255D03*
X021030Y004255D03*
X021030Y002195D03*
X021530Y002195D03*
X022030Y002195D03*
X022530Y002195D03*
D27*
X027066Y011043D03*
X027440Y011043D03*
X027814Y011043D03*
X027814Y011987D03*
X027440Y011987D03*
X027066Y011987D03*
D28*
X019605Y014888D03*
X019605Y015202D03*
X018916Y015202D03*
X018916Y014888D03*
X018475Y012352D03*
X018475Y012038D03*
X017786Y012038D03*
X017786Y012352D03*
D29*
X017786Y012687D03*
X018475Y012687D03*
X018475Y011703D03*
X017786Y011703D03*
X018916Y014553D03*
X019605Y014553D03*
X019605Y015537D03*
X018916Y015537D03*
D30*
X032390Y015205D03*
X035820Y015245D03*
M02*
