%
M48
M72
T01C0.0197
T02C0.0236
T03C0.0591
T04C0.1260
%
T01
X5110Y4093
X9310Y4393
X11210Y4393
X13310Y4293
X15360Y4193
X17310Y4193
X19310Y4193
X21410Y4393
X18710Y5193
X15610Y6493
X15110Y6993
X17310Y8193
X17710Y8893
X21510Y8293
X19010Y7143
X19610Y6593
X14710Y5593
X14010Y5793
X10410Y6093
X10410Y6493
X10110Y6893
X9610Y6893
X9610Y7393
X10110Y7393
X11410Y8293
X9510Y8393
X5710Y7793
X5410Y8493
X13360Y8543
X13710Y8893
T02
X12410Y7793
T03
X5670Y5353
T04
X3860Y6393
X22860Y6393
M30
