%
M48
M72
T01C0.0120
T02C0.0197
T03C0.0236
T04C0.0400
T05C0.0433
T06C0.0591
T07C0.0886
T08C0.1614
%
T01
X14170Y13220
X15310Y11300
X15890Y11300
X15250Y17910
X25700Y21670
X4470Y16000
X2030Y16000
X2100Y19350
X4190Y19660
T02
X3580Y20140
X3530Y18900
X3010Y17700
X5340Y17790
X7960Y18090
X9730Y18220
X12610Y16110
X13920Y15820
X14020Y15180
X15680Y15880
X16110Y14440
X12930Y10800
X13000Y10210
X10460Y8810
X10000Y7750
X9060Y8780
X8280Y10490
X8030Y11170
X5720Y11240
X5490Y8200
X2730Y13900
X2340Y14380
X5620Y21040
X2280Y21940
X4650Y26680
X2990Y28490
X6900Y28280
X13680Y20060
X16000Y20570
X15760Y26920
X24010Y20150
X23990Y12170
X16430Y8460
T03
X13270Y11510
X12970Y13020
X14750Y12260
X11150Y14430
X12420Y17750
X16010Y17540
X16450Y17080
X19980Y12550
X19930Y11790
X22610Y10930
X25410Y13290
X25410Y13790
X25410Y14290
X25410Y14790
X25910Y14790
X26410Y14790
X26410Y14290
X26410Y13790
X25910Y13790
X25910Y14290
X25910Y13290
X26410Y13290
X26410Y12790
X25910Y12790
X26910Y12790
X26910Y13290
X26910Y13790
X26910Y14290
X26910Y14790
X26910Y15290
X27410Y15290
X27410Y14790
X27410Y14290
X27410Y13790
X27410Y13290
X27410Y12790
X27910Y12790
X27910Y13290
X27910Y13790
X27910Y14290
X27910Y14790
X27910Y15290
X27910Y15790
X21320Y17700
X10150Y23390
X8980Y22900
X7270Y23070
X6500Y23890
X5850Y23960
X4460Y23610
X3870Y23660
X3780Y22500
X1940Y22810
X3690Y26680
X5540Y19380
X3070Y15790
X5490Y15570
X910Y12870
X4740Y8130
X6260Y9200
X6860Y9220
T04
X16370Y19760
X16370Y21540
X17000Y23240
X18000Y23340
X19000Y23240
X20000Y23340
X21000Y23240
X18930Y21540
X18930Y19760
X14460Y21130
X13460Y21130
X12460Y21130
X11460Y21130
X10460Y21130
X9460Y21130
T05
X9340Y24700
X10340Y24700
X11340Y24700
X12340Y24700
X13340Y24700
X13340Y27700
X12340Y27700
X11340Y27700
X10340Y27700
X9340Y27700
X4600Y13350
X4600Y12350
X4600Y11350
X4600Y10350
X4600Y9350
X1600Y9350
X1600Y10350
X1600Y11350
X1600Y12350
X1600Y13350
X8650Y6445
X8650Y5461
X9634Y5461
X9634Y6445
X10618Y6445
X11602Y6445
X11602Y5461
X10618Y5461
X10618Y4476
X10618Y3492
X9634Y3492
X9634Y4476
X8650Y4476
X8650Y3492
X11602Y3492
X11602Y4476
X12587Y4476
X13571Y4476
X13571Y3492
X12587Y3492
X14555Y3492
X15539Y3492
X15539Y4476
X14555Y4476
X14555Y5461
X14555Y6445
X15539Y6445
X15539Y5461
X16524Y5461
X16524Y6445
X17508Y6445
X17508Y5461
X17508Y4476
X17508Y3492
X16524Y3492
X16524Y4476
X18886Y4476
X18886Y3492
X20343Y3492
X20343Y4476
X20343Y5461
X20343Y6445
X18886Y6445
X18886Y5461
X13571Y5461
X13571Y6445
X12587Y6445
X12587Y5461
T06
X17500Y8730
X17500Y11230
X17500Y12480
X17500Y13730
X17500Y17480
X22500Y17480
X22500Y8730
T07
X22890Y6839
X6122Y6846
T08
X4500Y5307
X24512Y5327
M30
