G75*
%MOIN*%
%OFA0B0*%
%FSLAX25Y25*%
%IPPOS*%
%LPD*%
%AMOC8*
5,1,8,0,0,1.08239X$1,22.5*
%
%ADD10C,0.13800*%
%ADD11OC8,0.08200*%
%ADD12C,0.14580*%
%ADD13R,0.06940X0.06940*%
%ADD14C,0.06940*%
%ADD15R,0.08200X0.08200*%
%ADD16C,0.08200*%
D10*
X0069962Y0078933D03*
X0339962Y0078933D03*
X0609962Y0078933D03*
X0609962Y0258933D03*
X0339962Y0258933D03*
X0069962Y0258933D03*
D11*
X0358762Y0077633D03*
X0368762Y0077633D03*
X0378762Y0077633D03*
X0388762Y0077633D03*
X0398762Y0077633D03*
X0408762Y0077633D03*
X0408762Y0067633D03*
X0398762Y0067633D03*
X0388762Y0067633D03*
X0378762Y0067633D03*
X0368762Y0067633D03*
X0358762Y0067633D03*
D12*
X0477362Y0258933D03*
X0205562Y0258933D03*
D13*
X0146428Y0134681D03*
X0418228Y0134681D03*
D14*
X0426102Y0134681D03*
X0433976Y0134681D03*
X0441850Y0134681D03*
X0449724Y0134681D03*
X0457598Y0134681D03*
X0465472Y0134681D03*
X0473346Y0134681D03*
X0481220Y0134681D03*
X0489094Y0134681D03*
X0496968Y0134681D03*
X0504842Y0134681D03*
X0512716Y0134681D03*
X0520590Y0134681D03*
X0528464Y0134681D03*
X0536338Y0134681D03*
X0536338Y0126807D03*
X0528464Y0126807D03*
X0520590Y0126807D03*
X0512716Y0126807D03*
X0504842Y0126807D03*
X0496968Y0126807D03*
X0489094Y0126807D03*
X0481220Y0126807D03*
X0473346Y0126807D03*
X0465472Y0126807D03*
X0457598Y0126807D03*
X0449724Y0126807D03*
X0441850Y0126807D03*
X0433976Y0126807D03*
X0426102Y0126807D03*
X0418228Y0126807D03*
X0264538Y0126807D03*
X0256664Y0126807D03*
X0248790Y0126807D03*
X0240916Y0126807D03*
X0233042Y0126807D03*
X0225168Y0126807D03*
X0217294Y0126807D03*
X0209420Y0126807D03*
X0201546Y0126807D03*
X0193672Y0126807D03*
X0185798Y0126807D03*
X0177924Y0126807D03*
X0170050Y0126807D03*
X0162176Y0126807D03*
X0154302Y0126807D03*
X0146428Y0126807D03*
X0154302Y0134681D03*
X0162176Y0134681D03*
X0170050Y0134681D03*
X0177924Y0134681D03*
X0185798Y0134681D03*
X0193672Y0134681D03*
X0201546Y0134681D03*
X0209420Y0134681D03*
X0217294Y0134681D03*
X0225168Y0134681D03*
X0233042Y0134681D03*
X0240916Y0134681D03*
X0248790Y0134681D03*
X0256664Y0134681D03*
X0264538Y0134681D03*
D15*
X0549962Y0079433D03*
D16*
X0559962Y0078433D03*
X0569962Y0079433D03*
X0579962Y0078433D03*
M02*
