%
M48
M72
T01C0.0200
T02C0.0236
T03C0.0748
T04C0.1299
%
T01
X2174Y993
X2494Y593
X2414Y1713
X5054Y2673
X8014Y1633
X6414Y753
X8094Y513
X12014Y1073
X10014Y3233
X10334Y3713
X8334Y3233
X8014Y4913
X7374Y4993
X10254Y6673
X10094Y7393
X8414Y7953
X4894Y7473
X4174Y8113
X12014Y7873
X12334Y8273
X14094Y3953
X14094Y3473
X15614Y3633
T02
X3853Y6086
X3125Y5475
X2397Y6086
X3125Y6735
T03
X1479Y3251
X1558Y1952
T04
X1406Y4609
X14930Y4643
M30
